2 114
20.484510 121.438445
29.719054 146.810145
88.950749 230.605171
40.432204 261.034611
30.572379 143.307027
63.081548 291.101323
8.855825 89.488896
-18.502335 26.018185
66.139023 229.330360
88.781465 235.987674
40.577331 173.719211
80.061677 217.877862
25.300401 228.231737
40.345836 257.873513
85.972740 272.127833
38.266107 158.597762
-14.747015 12.945405
-3.201247 53.438556
9.539866 91.368281
86.573864 282.550820
-4.641891 93.337485
22.052935 225.157006
60.497416 219.677782
22.046033 201.747608
88.197597 284.088185
86.743148 277.168316
-18.592154 11.152388
40.832983 171.497806
-7.647509 41.222552
62.463169 222.154840
33.308540 150.824568
18.346022 112.639191
58.445295 214.039626
16.666981 213.283023
-6.009972 89.578715
17.917634 108.538400
13.986128 103.584285
16.977941 108.880421
19.644990 171.760360
0.647342 66.936273
46.671483 269.405476
67.676388 227.706628
61.437109 219.335762
19.133685 176.203171
18.370179 194.572087
25.442077 129.211638
81.453915 303.569529
49.469855 198.151219
4.920868 72.830081
14.428320 154.503873
6.133469 128.790152
-9.613262 38.745494
30.658747 146.468125
91.704166 296.646209
23.476324 126.734580
21.710915 224.217314
64.363261 291.698996
17.520306 209.779904
11.847639 94.785031
88.525812 238.209080
15.267840 104.181957
28.689543 132.286368
90.332634 281.182739
54.278843 281.535113
15.882768 161.423742
18.974754 216.699773
-2.088819 59.418732
69.469405 223.861489
24.360709 228.573757
86.228392 269.906428
24.616361 226.352351
23.731976 124.513175
3.297135 71.292716
19.137136 187.907871
-8.576849 76.678670
86.231844 281.611127
8.513805 88.549203
-14.404995 13.885098
76.669084 302.118531
14.514688 157.664971
86.642976 227.188421
-4.983911 92.397792
-14.394642 48.999196
-12.694895 18.583561
-10.041650 34.644703
20.342835 220.458543
44.450078 269.149824
-1.135322 105.895509
6.119664 81.971355
17.254300 176.887212
14.328148 104.523978
21.617645 197.646817
17.575614 107.598708
20.653795 116.055941
51.971070 278.118362
89.292769 231.544864
69.234460 296.311091
-3.529463 99.317661
68.636787 297.592804
51.691260 198.406872
88.867832 239.148772
5.691276 77.870564
90.076982 283.404145
-8.245182 42.504265
85.112513 252.221552
-9.005236 72.577880
44.339553 184.055830
82.379803 256.408711
19.309872 194.230067
19.372082 115.458269
40.573880 162.014512
16.224788 162.363434
23.241378 199.184182
-20.896476 19.440337
