2 157
75.017073 17.593686
45.886602 28.196310
137.257837 165.208344
70.328963 54.417885
41.623429 57.416601
25.258228 187.881846
23.351234 94.928291
124.005419 131.721430
82.037114 66.119133
151.429241 128.125042
0.947189 27.526074
19.868823 164.303162
159.033150 128.549979
137.617113 224.671534
130.496900 126.166191
41.543963 77.664901
23.541225 159.773984
109.816760 110.281235
112.041616 122.241587
102.454699 60.816095
131.364029 169.481870
33.522020 108.253272
70.805666 222.384467
135.378452 165.892384
112.290366 96.610783
27.735286 185.916093
68.839913 219.907409
43.336981 73.819763
131.709500 182.126262
53.145039 15.976855
157.070848 137.777620
75.099990 9.050085
31.901738 118.420606
17.440171 40.678320
125.117847 137.701606
61.685190 4.355073
119.462436 81.230230
79.522003 228.789580
38.717983 55.281563
22.567022 43.069010
92.853887 242.028193
23.586180 22.478689
120.540263 259.619799
42.397288 74.161783
74.775225 66.633889
19.502645 81.430574
139.064659 208.182003
22.660292 69.639507
125.290583 144.023802
77.898271 227.252215
38.724885 78.690962
65.848100 214.611274
22.003860 161.397717
27.089298 23.332014
14.534725 38.543283
23.105935 132.263794
73.821728 20.157111
20.124475 162.081757
138.871217 131.631611
75.784030 10.929470
98.609561 59.023078
71.679788 -0.346842
69.817659 58.860696
124.775827 136.761913
27.966781 101.761792
121.701097 140.009379
135.281731 127.617188
154.932359 128.978367
75.459265 68.513274
118.574510 257.142741
30.899835 197.534424
60.551964 217.603087
38.127213 79.972675
43.934653 72.538050
32.157390 116.199201
158.863865 133.932482
109.644024 103.959039
144.765025 127.358085
24.318536 188.223866
42.141636 76.383189
26.747278 22.392321
127.629416 252.782847
9.065854 35.212900
119.452083 46.116131
31.217698 116.541221
124.240365 59.271828
138.646624 239.195311
79.560056 68.084886
90.546114 238.611443
124.236914 47.567129
130.241247 128.387596
74.308785 223.237792
64.759920 1.107607
137.268190 200.322442
138.639722 215.785912
106.127102 56.286917
10.599768 21.884468
51.866778 27.083882
126.119750 58.587788
63.626695 214.355622
138.529196 130.691918
31.407689 181.386914
19.931033 85.531365
70.121626 220.505082
39.060003 56.221256
91.689692 60.477526
18.721884 41.275993
53.504315 75.440045
138.211334 211.685122
20.438886 69.383854
140.322214 126.846780
53.887748 216.836130
115.962769 92.081604
154.334686 130.260079
15.826791 74.255053
26.412160 44.862027
110.497349 100.455921
21.212746 86.129037
16.338096 69.812242
24.632947 95.525963
122.385137 141.888764
93.793579 241.686173
38.880365 26.489661
52.049867 68.520176
36.410210 51.864813
36.759132 76.213904
131.450397 172.642968
116.401510 131.296493
139.299604 135.732402
99.604471 245.956248
45.814038 71.854010
113.997016 89.604547
29.908376 22.305953
22.988508 23.760402
137.530745 221.510436
53.742712 14.695142
80.803716 229.387252
114.425404 93.705337
84.393202 233.401675
45.257779 213.592116
62.282862 3.073360
37.992439 202.402172
124.520175 138.983319
25.942269 189.761231
30.094916 75.446947
135.233325 253.207784
15.996076 68.872550
49.745544 76.808125
107.322447 53.723491
100.575314 61.500136
37.256633 24.952296
139.980194 125.907087
111.184840 114.040006
138.124966 208.524024
77.556250 226.312522
81.439441 67.400846
138.048952 240.477024
