2 134
40 23
70 93
39 7
17 136
35 178
93 171
62 71
43 47
22 129
37 97
50 20
41 34
86 185
36 99
41 58
35 176
6 149
35 175
51 21
18 158
39 79
38 83
69 233
41 30
34 175
72 223
77 144
37 87
79 149
39 69
37 227
46 12
38 219
40 11
54 24
41 64
69 12
81 197
30 164
80 139
38 233
9 144
81 149
35 125
44 6
59 49
73 112
94 155
35 190
47 13
78 149
48 15
72 221
79 208
77 142
40 20
36 185
5 147
43 52
73 13
36 119
79 204
63 68
38 78
72 120
39 18
34 126
93 180
26 125
39 78
65 16
42 54
73 9
11 139
63 69
46 11
71 94
73 92
87 136
27 125
37 85
79 152
42 36
37 88
62 44
40 24
63 42
95 166
61 65
69 236
58 249
33 129
73 221
76 96
42 64
72 7
87 139
42 246
64 39
74 15
91 143
39 19
73 8
37 193
78 101
73 126
70 228
39 242
74 130
84 134
41 29
83 188
38 203
92 181
88 136
11 143
86 184
78 148
59 249
37 210
34 179
35 171
24 161
30 122
24 160
50 18
74 108
73 219
42 32
36 115
78 143
55 26
38 228
75 93
