2 113
14 165
82 233
140 162
9 79
146 136
4 107
3 110
29 192
92 224
4 123
142 80
20 43
57 225
78 235
116 23
122 33
144 82
4 129
11 65
145 145
17 50
22 180
61 13
130 179
90 201
82 5
8 151
91 217
70 237
124 187
137 68
84 4
11 68
58 210
5 140
18 177
12 61
91 215
56 223
94 6
90 229
139 163
80 5
6 139
135 64
63 234
119 28
147 119
119 25
106 15
44 201
27 188
140 77
98 9
52 15
129 180
7 90
140 73
139 71
91 210
11 161
17 51
145 97
27 35
17 49
76 5
142 155
3 132
23 39
90 203
142 156
146 101
140 74
41 21
101 11
146 133
144 150
100 199
147 118
28 32
136 67
47 17
147 128
6 92
89 228
100 200
125 186
148 115
148 121
125 45
4 102
4 118
147 132
138 69
9 74
13 165
12 164
6 143
91 221
112 23
120 37
140 160
5 139
23 183
121 40
60 230
55 13
138 68
99 200
77 236
113 24
60 207
114 195
