2 109
5 70
26 200
44 8
11 153
7 82
57 51
59 95
16 13
8 93
8 120
3 56
62 174
66 134
15 176
28 194
16 178
16 112
46 194
21 210
25 201
8 91
23 8
64 124
11 163
59 62
63 171
68 141
11 103
60 70
35 233
52 36
46 14
4 56
15 175
7 88
48 227
55 40
20 184
20 210
22 208
52 187
49 19
20 211
18 11
58 39
45 11
10 135
59 78
63 39
9 50
48 191
45 196
17 218
63 172
56 47
57 52
27 190
8 86
59 65
65 163
11 161
60 84
10 140
18 184
8 126
61 115
37 5
6 75
12 108
38 4
20 228
17 216
44 9
53 188
65 168
58 104
63 114
59 77
54 42
12 152
52 186
51 24
58 108
66 40
48 208
60 40
11 116
5 54
34 4
49 17
58 54
63 125
9 135
59 114
67 138
53 39
59 85
21 184
59 74
49 185
21 230
12 148
27 183
35 3
41 231
6 123
12 21
58 52
59 98
