2 149
86 146
73 22
32 121
66 275
93 166
21 92
34 229
50 277
82 213
74 22
12 139
71 263
50 62
101 20
31 194
34 221
75 77
86 195
17 82
74 70
93 39
96 166
73 64
74 21
111 176
83 86
86 136
15 138
23 95
105 185
109 183
15 139
73 66
100 91
78 240
110 173
82 211
65 24
101 13
90 115
85 162
8 155
43 14
26 16
76 21
35 220
30 166
87 166
97 190
25 5
43 263
47 71
96 91
67 274
85 124
37 81
43 15
31 184
63 24
30 25
82 218
76 244
14 139
33 210
37 80
27 15
101 18
66 23
29 171
24 138
94 14
33 126
76 247
33 110
91 16
85 47
100 14
54 282
86 144
83 51
31 132
93 113
30 180
20 79
77 85
10 141
29 165
87 46
39 41
36 9
91 90
34 223
44 73
30 179
90 90
74 62
29 173
4 151
25 141
72 259
54 20
32 8
81 52
33 212
50 64
47 52
53 20
90 17
79 56
30 83
17 85
24 96
75 63
38 40
102 168
38 244
100 92
98 29
90 165
31 192
59 281
72 263
36 10
102 14
9 140
96 13
83 200
28 83
83 20
27 3
100 168
85 149
28 4
89 165
41 76
40 249
63 279
17 139
86 140
14 138
101 104
84 156
57 282
76 82
31 136
35 225
106 185
27 163
37 243
