2 131
38 244
16 127
63 25
69 142
57 198
26 188
69 70
59 13
70 144
59 246
60 226
18 169
58 219
72 180
79 103
57 200
63 193
30 20
71 176
70 66
57 204
74 164
55 191
57 213
63 194
57 195
72 100
5 103
74 168
67 104
73 89
31 245
60 240
58 209
5 100
54 246
23 45
65 108
73 171
26 33
44 4
59 7
5 96
65 34
57 197
56 194
74 171
67 46
16 167
35 245
73 165
66 102
68 46
17 125
74 151
70 71
71 76
25 43
56 185
3 96
39 199
70 97
50 246
76 107
57 212
70 64
75 158
64 132
36 206
70 83
22 126
5 114
23 48
73 152
44 246
18 167
28 128
21 141
8 124
7 90
56 186
58 6
65 120
69 141
72 154
55 188
65 119
19 126
73 160
10 124
29 240
71 85
10 85
57 206
68 40
58 185
73 173
4 107
27 191
29 231
18 163
30 191
59 225
64 131
57 5
26 185
80 102
39 201
16 76
18 149
77 95
67 187
30 225
64 124
60 233
46 247
67 102
71 82
77 93
19 69
57 211
5 102
81 105
72 185
70 81
56 204
68 186
69 98
31 227
23 182
18 173
