2 146
84 152
26 174
64 129
62 200
63 190
72 254
78 183
23 130
56 259
72 243
36 200
64 128
84 83
65 130
73 47
46 216
65 144
40 242
80 132
22 145
39 200
63 148
38 245
22 140
64 136
22 106
83 86
86 167
79 134
40 200
24 128
24 165
22 138
21 105
79 183
26 176
12 102
4 89
63 187
78 125
92 90
94 81
78 101
29 46
67 120
80 57
79 129
27 176
42 201
48 199
75 56
83 94
67 18
88 85
74 122
10 100
38 201
86 156
70 115
71 38
40 202
26 175
81 181
80 183
6 93
38 21
64 127
16 106
50 201
94 87
61 260
70 227
22 148
70 26
24 164
78 128
93 89
45 258
69 27
23 62
78 100
30 190
70 235
47 11
83 144
85 83
84 144
30 38
51 203
25 168
40 239
85 160
68 222
42 16
23 131
22 141
33 25
82 88
63 169
27 51
21 106
79 103
84 154
65 209
83 177
85 151
22 153
79 101
64 133
35 23
71 119
64 207
79 127
21 60
51 201
63 170
45 217
54 260
65 120
65 129
62 199
84 155
71 238
63 163
64 143
43 16
64 161
23 156
90 75
66 213
84 173
78 104
35 22
72 249
39 236
23 138
41 17
79 185
69 118
26 116
64 162
84 142
64 124
51 198
87 82
68 24
