2 180
15 56
4 156
15 68
111 166
66 248
20 21
73 120
22 173
32 68
4 168
6 206
43 228
98 183
94 207
17 46
16 37
26 133
76 93
23 150
99 188
50 231
37 43
110 163
4 158
7 212
38 40
23 194
35 54
16 38
57 250
68 106
22 158
103 147
4 172
36 46
28 124
7 121
64 78
8 116
20 22
96 203
103 225
19 23
20 236
9 102
11 224
80 244
98 181
4 204
14 54
9 96
113 209
56 230
77 133
22 175
81 141
9 109
73 83
31 87
45 230
24 13
112 172
88 120
39 34
37 23
37 21
52 249
34 62
38 10
5 201
14 72
8 216
63 72
67 98
23 199
62 69
37 6
44 248
5 205
3 161
25 10
56 250
115 190
21 179
6 132
29 109
23 17
89 238
86 240
108 218
87 152
65 249
14 74
76 130
114 177
115 179
97 138
26 135
5 209
23 187
65 88
45 229
93 207
40 227
35 59
31 84
23 148
73 226
71 80
31 81
37 40
31 89
15 59
69 74
106 221
87 119
36 5
31 76
29 107
8 103
63 79
114 184
6 135
99 193
61 249
114 200
35 51
74 245
3 172
29 117
23 156
102 144
23 202
54 250
109 162
7 113
12 226
6 210
3 192
5 204
8 107
114 193
19 29
25 240
95 136
7 120
78 98
63 75
21 22
11 225
70 113
33 244
90 158
7 124
16 44
24 152
37 27
99 192
3 184
25 130
99 190
6 211
62 250
80 101
38 248
3 194
46 230
69 248
99 229
84 218
22 180
12 75
32 244
34 56
116 185
67 104
36 3
24 149
22 238
99 186
