2 125
47 157
11 241
19 285
21 308
41 27
33 5
46 81
47 93
46 98
38 258
4 87
10 33
5 123
47 88
43 37
46 102
4 169
4 111
46 171
3 96
46 173
17 278
25 3
33 302
39 257
39 19
46 174
5 118
35 293
5 187
39 256
3 106
40 21
6 179
15 260
4 155
45 77
4 140
47 92
46 137
4 112
6 188
38 257
44 58
42 231
4 114
11 237
8 219
35 280
43 42
23 4
43 226
45 201
20 8
22 5
34 294
43 213
15 263
43 35
48 148
7 201
5 163
47 144
47 106
43 207
19 290
22 307
8 214
47 159
12 26
37 265
34 295
17 275
26 308
10 228
4 104
17 271
4 63
48 151
14 259
4 159
46 100
47 161
46 86
5 117
42 229
4 98
47 109
46 121
42 43
16 272
40 243
45 79
44 63
48 147
3 170
8 206
14 258
4 131
46 69
32 305
43 44
39 255
47 112
21 5
42 213
18 289
23 308
43 133
36 9
11 28
47 113
46 97
4 150
40 254
23 307
3 108
42 236
7 209
43 209
36 13
4 129
13 251
4 62
47 177
