2 191
115 104
85 198
84 193
88 218
124 271
126 73
58 145
119 198
124 275
84 227
25 97
80 248
105 11
122 115
83 189
76 191
130 58
122 266
94 269
125 270
140 97
122 264
88 12
8 119
107 25
131 61
130 51
129 136
131 65
136 83
135 62
59 156
52 68
128 138
65 57
106 223
51 97
137 68
115 108
46 102
119 272
48 98
106 224
122 89
27 94
66 34
137 105
107 27
128 143
8 120
32 99
7 123
55 128
25 103
125 96
55 124
66 179
23 108
82 189
61 102
113 87
58 100
54 116
131 104
86 205
119 68
107 198
92 7
84 272
107 33
120 87
38 76
31 90
77 257
108 229
64 101
126 96
120 70
16 109
92 269
64 55
37 77
117 52
30 101
133 51
54 118
117 82
117 66
80 250
67 179
71 187
84 195
80 242
56 127
64 173
112 196
106 203
139 60
113 79
128 152
128 129
136 88
111 194
64 51
116 81
81 244
90 269
134 68
131 57
83 192
113 81
82 18
128 140
137 59
124 93
123 179
69 31
65 50
127 99
60 158
32 81
137 62
89 215
128 124
84 228
122 62
38 97
27 92
129 102
112 243
16 106
68 181
5 127
125 173
80 275
35 79
128 121
107 210
134 53
117 270
123 272
80 21
111 238
76 265
58 62
128 142
111 195
92 8
40 100
108 201
114 78
27 101
125 97
120 272
94 6
88 214
31 103
11 116
56 136
106 211
135 86
18 109
120 55
126 55
117 200
68 182
113 85
119 54
37 99
107 36
123 62
114 90
129 135
122 69
78 254
87 270
63 171
106 15
116 61
141 97
13 115
131 66
122 272
106 13
96 268
54 66
126 97
127 74
112 240
138 66
115 103
