2 115
45 239
51 25
91 202
5 146
15 182
96 32
60 255
79 208
63 9
132 146
120 177
93 24
30 48
4 118
43 30
40 35
17 68
124 84
5 148
85 234
51 23
99 199
54 211
32 43
105 57
81 207
12 177
40 34
117 70
130 155
5 129
132 136
95 27
131 145
112 190
20 187
89 204
70 255
53 216
84 229
49 251
66 5
114 63
130 156
88 247
124 171
132 130
52 23
110 59
91 22
125 167
3 132
60 14
50 20
49 230
43 244
98 36
47 207
54 209
23 58
10 91
55 19
31 48
127 91
110 48
12 175
90 203
50 252
127 90
10 171
12 88
7 161
34 200
52 21
47 235
79 213
119 182
11 88
121 177
23 192
105 41
68 256
59 18
30 47
51 225
41 34
50 23
23 57
52 208
54 254
85 231
22 59
129 97
125 88
4 145
91 203
50 24
83 16
126 166
52 219
56 254
5 149
113 62
121 79
6 153
105 53
84 230
80 12
129 158
107 43
117 71
115 187
6 156
42 31
79 214
