2 184
112 222
132 180
90 5
22 129
141 162
21 84
109 203
80 268
124 58
69 201
64 25
120 42
138 162
129 203
149 116
135 194
46 52
70 256
139 163
135 178
50 44
133 185
153 117
18 121
148 138
119 251
71 249
112 270
138 178
7 83
82 208
123 52
79 227
123 54
80 195
149 110
18 92
48 50
133 191
17 95
23 126
29 76
153 115
75 195
76 232
114 235
25 80
148 111
48 46
36 141
25 124
136 100
134 177
124 207
79 226
73 246
43 74
42 78
34 190
111 219
17 74
42 57
16 120
81 220
136 194
19 72
137 157
140 102
110 202
108 213
142 104
138 102
110 201
37 174
45 196
133 155
80 197
24 135
35 71
79 9
141 104
44 75
12 111
69 262
68 16
39 75
94 271
68 17
126 142
99 10
19 129
82 211
37 141
113 269
133 186
34 173
15 112
31 142
18 116
107 270
42 195
110 215
109 199
42 76
44 196
119 256
113 230
135 167
131 197
134 191
32 134
10 87
132 153
81 216
18 91
127 150
35 142
128 77
117 205
141 180
79 222
130 79
94 6
126 65
18 104
153 118
34 181
39 144
128 134
18 120
126 148
42 53
111 194
10 113
121 48
72 249
130 199
74 238
6 86
125 145
11 88
125 142
21 73
90 3
4 100
44 155
130 86
26 129
43 195
49 62
146 120
70 253
150 126
69 263
113 228
152 113
120 260
45 52
131 90
17 105
35 192
17 85
129 75
139 161
39 167
114 236
138 161
19 120
120 257
45 148
58 33
35 183
23 79
14 122
131 84
136 179
117 242
33 70
82 217
39 147
122 50
10 99
46 161
111 197
