2 129
85 145
57 219
19 30
57 241
19 50
57 227
11 141
17 130
79 176
25 242
58 247
5 57
58 238
81 171
23 209
49 11
9 182
27 214
27 231
24 244
77 90
75 68
82 159
50 11
28 256
7 165
29 216
26 48
15 121
70 59
69 215
77 56
13 50
85 71
74 202
21 19
82 160
15 50
58 218
58 27
72 112
59 28
11 50
76 78
3 60
71 206
41 4
70 61
24 245
32 217
84 154
17 132
74 66
86 76
9 145
74 198
73 102
76 193
83 68
64 40
81 66
19 31
36 259
25 249
17 203
16 204
7 149
88 84
58 230
87 67
82 133
12 99
58 240
20 51
63 224
82 134
11 92
70 62
10 185
24 212
81 167
76 92
28 216
55 255
85 144
12 140
72 208
74 53
22 17
79 182
10 84
8 181
11 94
27 48
78 66
13 99
75 74
34 7
6 173
75 63
73 115
28 228
58 28
89 77
86 75
72 122
15 120
18 26
80 168
76 64
87 76
15 51
89 85
83 152
68 217
29 217
88 66
82 161
14 51
76 126
13 105
74 200
26 251
58 224
21 34
57 239
75 79
6 53
73 100
