2 209
165 205
39 100
12 167
178 196
69 38
77 215
43 128
152 37
6 180
43 135
68 343
18 81
118 223
181 160
133 248
71 298
67 267
65 301
196 181
110 5
185 193
142 25
170 202
70 345
137 18
141 258
39 92
39 97
88 232
39 139
130 282
176 92
179 159
7 84
71 307
9 83
68 211
20 157
37 88
174 149
148 320
70 327
61 50
68 324
137 223
151 321
99 5
35 86
169 152
120 233
141 25
8 172
148 279
118 221
100 285
70 344
15 82
151 324
105 284
178 109
28 194
64 45
146 30
69 330
128 224
92 283
62 47
45 199
60 207
27 194
149 218
70 343
68 338
122 237
126 10
170 77
188 191
161 55
70 322
71 323
65 292
88 283
126 225
117 3
72 293
152 332
119 4
142 290
93 12
120 231
122 282
67 344
69 265
70 342
120 282
42 67
149 293
100 284
174 131
175 91
115 284
150 324
163 61
173 135
53 63
17 192
40 95
71 320
92 13
83 241
111 283
43 66
65 300
38 98
147 313
7 179
19 73
176 157
157 47
8 170
176 197
172 79
178 100
9 78
69 345
31 143
75 32
32 142
25 151
187 164
176 129
87 235
27 86
176 125
17 74
78 27
72 292
130 281
147 32
152 330
90 224
147 218
151 328
152 341
175 90
176 198
148 308
96 8
149 298
157 46
65 280
176 127
156 212
89 221
128 242
136 18
25 150
72 295
70 334
144 295
152 333
69 328
6 81
66 298
186 192
27 149
71 296
42 114
178 158
148 305
69 39
140 256
174 83
44 131
107 3
21 83
95 11
148 283
65 288
119 221
69 212
170 151
50 203
75 215
143 288
137 20
127 282
195 189
66 301
70 262
88 231
24 83
153 330
179 113
152 216
196 182
154 342
131 245
89 219
36 197
6 178
90 222
77 29
73 292
21 73
187 191
189 168
160 52
70 305
