2 171
3 189
80 351
55 372
8 135
30 70
98 135
44 338
8 241
74 325
11 272
15 95
8 127
99 158
4 206
37 328
87 222
81 271
3 178
81 289
82 292
99 152
6 147
48 15
43 22
85 295
98 103
85 240
86 230
45 19
100 196
92 92
92 94
10 254
4 189
19 88
93 178
42 27
97 225
9 129
77 34
14 282
93 180
103 77
5 223
42 364
7 137
28 71
81 51
81 355
100 213
98 188
14 280
35 50
15 286
101 223
97 164
36 44
9 256
84 249
50 7
53 373
33 55
20 304
8 125
47 370
4 153
40 346
8 244
91 71
13 276
85 250
3 180
97 135
93 75
100 191
48 9
80 285
84 295
75 30
43 338
28 75
84 59
3 212
28 78
9 242
42 340
89 77
6 148
78 333
28 79
99 78
46 19
8 237
101 210
98 133
10 245
52 373
22 309
98 130
99 113
99 151
81 353
58 11
13 104
96 185
78 363
92 91
90 78
87 67
99 119
80 350
62 375
12 269
74 326
61 3
105 83
87 310
98 153
41 344
9 243
68 9
75 24
4 181
11 110
49 369
42 365
9 241
57 373
79 40
83 294
81 272
3 154
20 303
98 106
82 53
5 205
29 73
14 100
43 26
44 365
66 374
26 81
98 129
28 320
3 209
83 323
53 6
92 70
99 77
100 81
71 18
12 275
3 179
11 114
4 160
82 289
5 164
5 204
43 365
88 219
98 131
7 135
88 301
36 41
97 78
98 104
47 8
80 359
39 31
100 197
41 359
