2 176
25 51
119 188
25 194
59 7
11 123
120 237
25 183
56 249
113 61
31 36
83 6
23 44
43 13
17 180
12 239
22 46
107 45
106 217
118 191
125 118
125 105
24 180
62 277
23 179
115 63
20 231
106 44
117 71
9 246
28 33
98 212
124 114
90 17
96 25
125 147
101 34
13 86
8 83
25 46
78 307
6 107
14 253
11 120
11 118
76 5
9 92
85 277
117 68
125 148
5 108
116 223
111 203
44 14
59 293
115 65
11 113
13 154
120 78
125 119
88 293
89 299
120 84
56 247
11 141
62 248
18 178
30 263
13 159
114 201
87 288
12 140
51 8
124 166
42 262
126 147
123 179
117 70
82 256
117 69
16 179
23 43
29 223
55 255
55 241
61 244
55 248
55 251
8 137
117 193
26 207
124 108
35 213
122 96
100 35
87 285
123 183
125 161
124 101
118 190
11 250
11 133
122 91
11 101
8 111
10 123
48 11
122 181
67 6
124 173
56 246
38 20
93 245
116 222
55 250
64 253
24 55
89 15
12 99
123 91
126 149
54 252
16 254
73 308
55 238
114 248
54 236
14 164
14 149
33 206
58 294
107 48
87 11
126 122
126 119
70 6
108 49
7 137
10 241
86 277
35 217
26 51
111 250
59 294
13 147
16 159
125 110
52 9
117 194
114 63
88 288
111 201
111 54
126 123
88 241
125 116
120 86
119 232
126 134
100 254
81 5
62 279
36 209
114 220
121 88
48 10
83 265
66 305
85 279
7 110
17 178
33 29
33 262
55 252
101 253
20 174
16 158
