2 208
4 371
78 216
78 261
77 333
120 369
94 346
83 173
48 283
74 87
78 103
83 121
81 199
80 207
95 325
28 347
47 308
77 242
36 244
81 186
71 299
90 157
46 71
88 242
52 49
26 185
53 9
26 146
92 252
39 88
117 367
32 115
71 330
40 256
32 116
39 93
70 78
51 52
38 319
82 118
77 95
89 157
77 259
88 173
26 159
33 111
52 22
71 297
26 134
27 179
78 271
26 157
48 68
57 13
52 25
61 329
78 284
34 113
28 346
80 312
32 344
57 24
87 247
78 308
79 209
75 331
81 188
71 80
26 195
92 320
18 354
114 361
78 262
38 91
37 99
28 207
59 42
88 146
37 98
87 170
88 187
78 242
82 312
50 60
100 330
77 279
102 330
80 194
112 360
78 290
79 215
97 348
57 23
87 340
31 232
89 242
39 90
92 161
103 350
29 205
42 257
25 157
77 289
88 178
77 96
78 286
52 33
84 174
27 168
66 70
70 299
50 285
86 162
83 126
27 130
80 266
53 15
82 179
28 199
27 199
87 235
26 153
80 223
120 367
77 100
44 311
5 358
45 337
82 189
86 339
95 184
9 364
88 151
79 107
27 163
81 115
65 67
12 345
53 24
57 30
52 301
6 357
86 159
74 249
52 6
36 246
16 340
92 164
85 180
88 237
26 133
78 309
52 19
57 31
86 235
66 69
8 366
31 230
51 286
47 71
116 364
87 248
51 288
43 78
14 343
33 116
53 10
57 26
105 352
52 43
92 176
32 118
83 227
26 147
81 311
94 180
104 334
31 221
78 275
32 345
13 344
82 116
42 314
115 345
66 330
89 317
28 131
27 133
48 67
25 144
55 330
75 245
74 290
111 339
19 353
121 359
85 233
93 178
26 138
14 342
82 185
81 266
79 264
96 324
87 176
53 41
45 278
52 298
57 25
