2 122
139 172
137 125
109 224
112 71
7 170
131 104
138 137
32 234
6 173
6 104
139 163
66 264
135 114
10 191
5 119
12 89
139 162
61 257
113 72
46 11
10 190
3 147
6 163
29 65
36 58
15 205
54 5
137 136
118 222
17 79
100 58
111 70
134 108
124 217
121 81
49 37
87 49
130 198
13 89
32 237
14 200
59 252
4 131
47 30
88 49
139 151
27 67
65 260
133 106
70 4
13 200
64 259
133 188
4 141
133 190
120 209
20 218
138 174
134 188
86 50
15 83
52 5
130 101
138 131
89 249
131 101
102 235
51 38
4 151
116 74
10 189
45 246
102 234
47 27
45 16
43 52
17 207
5 162
46 10
3 129
37 239
58 252
9 101
128 201
63 260
33 59
126 217
45 17
52 46
25 226
36 239
99 238
65 4
5 112
105 228
125 205
135 122
45 248
88 17
134 113
91 53
125 218
103 233
3 130
83 48
6 105
5 163
97 239
14 84
76 4
123 84
85 36
26 227
82 260
128 199
46 12
51 41
26 226
22 221
116 213
134 186
118 77
