2 171
20 178
58 218
35 34
21 214
4 361
46 312
64 350
62 256
47 348
40 342
15 281
57 230
55 233
59 200
51 323
26 302
32 58
24 127
53 37
7 144
64 262
66 356
60 84
21 200
61 113
67 366
18 330
60 361
60 87
60 96
44 297
11 341
20 202
21 203
21 156
47 8
50 283
47 349
58 249
49 318
62 144
21 243
46 295
58 67
13 336
46 347
63 258
61 183
11 342
53 42
14 361
20 176
25 122
56 56
8 152
56 64
57 219
52 29
59 337
20 227
30 75
33 44
63 348
65 349
39 17
46 289
28 308
4 359
59 78
9 264
22 165
21 182
16 360
30 69
34 34
52 34
62 147
35 39
17 285
59 335
59 184
63 126
45 3
55 275
53 39
59 99
47 284
55 56
56 234
45 308
53 35
56 274
68 367
56 356
67 364
61 142
60 180
61 151
61 140
5 356
64 259
56 243
11 271
12 254
49 19
31 64
20 327
4 360
58 206
5 354
8 368
7 371
47 11
21 175
48 316
27 300
12 339
49 284
66 358
52 30
60 166
27 295
12 136
26 107
63 366
31 61
59 93
20 184
20 213
53 326
64 137
16 249
64 128
66 263
26 116
4 363
8 346
46 290
55 52
46 6
17 247
45 294
61 180
23 128
31 69
4 358
61 148
14 334
53 38
45 301
17 284
42 11
48 14
30 79
67 359
9 263
33 40
34 38
32 57
59 252
26 314
17 249
4 364
21 324
27 108
60 182
21 353
26 315
68 370
20 177
61 362
