2 186
123 113
97 274
14 108
54 56
146 96
30 139
23 127
67 13
58 235
47 73
69 274
51 45
17 99
60 20
107 20
150 101
27 80
55 54
45 76
59 267
29 149
20 120
121 162
119 79
90 276
117 210
100 221
15 78
22 102
108 21
18 131
134 87
109 245
56 260
39 161
3 92
50 45
55 55
62 27
43 160
69 209
114 46
122 183
120 167
131 112
30 149
129 111
61 24
122 117
40 184
22 133
9 91
14 80
108 245
17 78
78 277
122 192
78 3
3 93
118 133
134 114
120 128
152 102
60 234
14 96
24 141
57 264
156 113
95 208
59 266
51 50
104 16
138 88
77 276
121 84
70 201
121 201
122 114
63 225
47 70
27 140
123 170
67 11
103 206
109 243
101 199
120 132
101 223
38 192
115 45
123 120
98 14
47 164
108 22
65 15
112 34
111 257
66 274
124 85
54 255
70 206
21 78
18 105
20 110
43 43
23 116
116 210
29 139
58 31
63 207
54 248
110 32
60 17
100 199
101 15
115 151
117 160
53 39
28 136
26 125
89 276
126 173
125 107
81 3
121 163
96 214
122 196
56 211
117 63
126 180
109 24
111 211
17 105
68 195
57 211
12 108
95 198
96 273
60 231
51 49
111 260
24 80
114 35
15 90
22 121
10 95
17 79
106 269
51 211
25 126
67 217
62 229
100 187
40 78
51 59
95 209
46 45
120 189
109 244
111 32
97 216
7 92
21 132
83 4
19 99
44 177
44 77
122 186
85 3
118 70
107 17
16 106
156 108
141 118
90 8
19 109
120 130
33 142
40 195
123 118
71 275
22 78
107 240
47 72
39 79
38 190
