2 123
37 285
30 274
18 43
58 190
23 22
12 57
59 88
3 108
61 211
11 61
71 252
23 21
68 238
24 29
57 157
60 71
57 173
56 158
13 195
61 70
4 121
58 182
70 274
58 87
56 146
14 189
57 26
3 122
63 214
57 179
4 93
68 242
13 186
9 158
7 144
66 230
3 118
36 286
55 139
57 182
36 12
10 63
70 272
57 295
54 142
35 13
10 163
57 20
27 262
69 242
15 210
41 7
56 172
64 216
21 35
55 12
4 104
54 124
14 187
5 129
14 210
71 260
15 49
7 143
4 87
19 42
12 167
27 21
50 294
56 148
55 126
70 259
60 41
4 131
58 29
58 191
58 181
60 80
14 204
6 86
21 241
3 123
58 34
20 38
59 192
63 213
56 23
59 42
5 85
60 52
4 109
19 232
12 190
14 198
16 47
26 260
16 224
60 205
63 291
54 138
55 118
5 86
60 64
54 127
3 117
33 280
55 140
13 205
13 182
70 248
13 183
24 257
67 232
56 21
44 3
24 21
17 47
61 209
23 251
39 8
14 186
34 14
16 221
