2 152
95 96
110 214
26 41
106 141
6 136
112 171
37 232
7 140
4 102
82 244
5 109
30 32
28 33
102 132
56 280
107 54
61 238
28 32
111 195
31 220
64 242
13 178
103 55
78 14
110 151
105 58
74 296
94 96
84 30
101 49
107 144
95 47
110 199
112 160
55 242
91 277
105 53
88 292
112 174
56 284
83 239
31 43
57 262
89 270
49 17
34 31
82 28
106 231
93 285
14 172
17 189
7 137
13 170
90 245
95 125
56 283
4 126
17 188
34 228
54 13
83 246
108 219
8 84
56 277
89 267
4 133
6 135
89 263
112 179
91 120
105 59
6 137
57 272
42 242
110 152
4 132
68 4
57 273
20 41
59 260
91 61
103 133
81 241
11 149
93 70
64 295
14 176
17 194
13 177
63 239
91 62
89 264
62 236
25 37
40 236
61 294
88 293
56 271
111 173
61 254
105 138
91 273
78 296
110 218
95 85
112 186
112 194
41 239
8 76
82 24
111 209
19 67
86 38
56 282
103 249
79 295
15 183
112 172
16 184
7 93
98 129
86 256
28 215
26 42
110 153
64 241
28 53
85 240
19 198
58 240
8 143
104 249
8 77
57 288
105 51
84 245
5 129
22 66
79 17
89 47
111 157
76 9
92 112
83 25
85 32
107 58
87 40
67 295
13 152
85 33
110 157
8 73
