2 108
77 64
72 151
70 69
53 201
64 221
46 237
54 197
61 183
73 115
17 148
63 219
20 151
21 217
17 144
3 62
67 168
28 206
17 18
15 46
71 75
16 124
66 170
23 15
16 131
69 163
16 99
70 89
23 235
21 233
18 147
77 134
76 118
7 50
47 4
74 116
64 32
70 155
18 31
26 207
35 196
77 132
57 18
75 140
29 205
72 59
62 216
16 227
67 167
6 80
69 48
53 12
44 238
21 218
78 123
14 46
17 20
22 111
16 28
19 119
58 17
17 124
75 116
44 237
70 74
54 199
18 122
16 141
23 166
27 180
72 149
31 187
64 230
15 25
45 4
62 27
4 63
64 219
67 226
71 86
22 15
59 195
82 73
64 33
28 237
66 171
64 35
79 129
4 57
61 185
71 81
18 33
69 107
9 83
55 235
65 171
54 12
59 210
18 44
19 116
75 64
19 33
78 122
68 41
29 181
80 70
16 134
68 166
17 142
