2 114
76 156
4 71
78 148
67 93
69 82
47 4
57 16
28 170
38 193
25 231
37 202
17 119
74 163
68 62
21 107
67 219
21 40
28 223
8 57
36 10
32 178
14 91
14 127
20 40
69 70
17 100
15 92
64 215
34 209
78 144
33 180
55 239
70 74
35 206
20 38
59 199
79 125
5 61
16 131
26 166
60 33
76 151
80 127
66 45
78 112
73 51
47 239
75 158
42 239
20 37
3 63
71 77
62 191
59 37
19 35
64 191
66 217
76 49
49 3
19 101
15 124
58 239
65 44
19 140
55 15
35 181
60 203
18 139
69 69
79 142
38 191
33 210
33 237
41 237
27 226
71 175
18 34
69 87
72 48
26 232
60 27
71 74
78 120
9 82
21 153
62 189
67 102
70 46
27 227
73 47
69 61
60 206
24 18
63 191
64 47
10 54
60 192
32 216
71 48
68 224
17 133
70 75
16 132
77 155
8 81
71 78
30 14
30 220
72 51
59 39
8 78
27 228
20 42
9 81
