2 89
7 91
58 14
61 22
57 9
4 128
77 43
4 103
94 92
59 196
4 110
72 183
36 17
93 148
85 56
95 115
73 37
3 122
11 66
51 3
15 171
22 37
78 42
7 150
9 75
40 203
95 101
73 182
6 92
57 14
7 81
94 111
14 59
58 24
89 158
56 22
8 79
72 186
76 182
94 134
65 26
11 71
90 154
27 190
7 82
55 202
72 185
4 120
32 196
27 31
95 93
81 172
22 39
36 19
89 159
94 133
12 164
5 106
26 32
14 168
95 131
11 159
80 173
16 174
57 12
34 198
44 4
9 72
35 17
65 193
6 95
57 200
91 157
4 116
76 41
49 3
57 22
7 85
46 4
20 41
22 40
93 140
95 100
90 74
94 93
12 67
57 17
79 175
30 195
94 125
