2 157
68 197
36 337
62 322
12 140
62 223
34 338
12 80
63 222
24 325
56 53
67 116
59 264
5 195
5 210
35 284
52 287
59 238
58 308
66 210
24 264
15 166
69 118
31 304
59 243
14 74
22 332
35 289
13 76
21 37
23 326
67 93
74 101
33 339
61 344
57 158
32 272
69 191
58 85
67 91
30 19
26 273
58 261
52 285
46 7
33 279
56 70
14 151
17 53
55 302
25 21
55 42
21 251
12 117
20 335
10 95
39 7
57 269
58 121
54 302
65 213
68 342
69 195
58 165
59 235
57 144
13 141
54 301
14 148
56 73
47 9
30 20
42 336
52 282
61 231
11 183
32 273
19 40
33 299
35 292
20 36
6 191
33 277
5 193
12 137
9 100
13 107
63 216
16 171
51 284
22 33
57 152
50 277
16 170
56 55
58 256
56 54
50 14
68 93
57 138
58 157
13 133
59 341
66 208
28 275
33 278
68 339
54 33
10 93
53 34
58 136
48 11
23 266
57 162
58 129
64 178
25 276
20 37
54 38
34 278
68 340
66 92
33 13
11 93
58 260
48 335
59 236
56 80
12 122
70 187
25 271
50 20
62 174
62 227
12 104
11 103
23 24
16 239
40 6
14 162
12 179
83 116
34 283
50 18
60 116
67 339
59 310
67 336
56 71
60 238
15 167
21 36
66 206
56 57
14 146
83 118
58 148
13 135
