2 196
69 244
94 181
120 91
7 125
45 228
92 180
113 322
30 173
24 135
47 29
59 332
33 77
17 87
90 254
102 111
89 244
89 224
110 327
147 92
69 252
34 192
95 142
141 84
76 11
111 95
134 95
36 199
124 71
126 70
55 335
31 84
58 306
59 243
72 6
89 245
88 320
34 71
109 91
7 106
93 161
64 281
110 64
92 263
35 48
93 157
89 241
90 206
70 325
99 110
53 252
96 98
8 123
39 208
61 242
37 207
52 328
84 25
101 293
32 165
99 95
97 283
91 216
95 105
93 265
46 20
46 29
34 55
68 241
77 9
97 92
11 89
95 86
94 145
84 24
48 20
67 271
38 41
67 267
75 12
64 229
68 268
34 193
96 108
98 104
95 124
91 212
148 94
136 77
143 99
85 32
32 159
41 34
86 41
61 292
68 244
96 117
58 249
89 252
84 319
38 208
100 101
84 18
31 168
42 32
95 162
55 322
128 92
98 282
92 171
67 238
91 258
141 99
34 67
92 189
13 127
100 99
35 197
96 111
7 107
31 161
51 242
90 227
51 23
86 319
33 144
61 239
88 319
8 90
55 251
68 238
7 126
123 71
6 126
95 145
103 297
23 85
57 333
92 174
140 99
20 130
70 249
104 113
113 98
6 91
34 82
111 312
101 112
39 211
5 102
64 284
108 89
23 132
98 85
41 219
16 130
112 316
6 103
91 195
90 215
98 96
84 23
143 85
69 251
113 96
137 97
91 200
96 100
129 72
147 88
38 210
68 325
94 134
117 68
94 125
101 106
53 250
54 251
87 44
91 202
94 127
109 327
65 279
34 53
94 164
63 291
31 154
17 129
104 325
91 255
99 99
68 3
110 311
24 134
106 63
96 106
33 61
