2 138
22 273
8 188
46 95
12 45
4 108
34 286
43 81
8 75
44 217
44 198
41 254
28 313
45 154
28 9
33 22
42 240
46 165
39 73
36 40
9 192
34 31
4 115
4 152
12 30
31 313
41 255
46 176
44 151
40 113
38 300
33 10
17 241
34 32
40 311
5 159
13 214
15 238
14 18
45 156
43 57
39 65
13 30
38 50
5 101
18 253
4 130
4 128
37 312
9 60
46 164
21 270
10 196
4 153
41 106
34 24
4 158
45 207
42 249
42 145
39 272
9 190
44 199
38 267
33 9
51 62
10 200
40 256
41 110
40 260
8 80
50 61
12 212
25 289
5 94
9 194
33 8
34 22
48 93
38 296
40 121
33 281
16 239
7 173
33 282
10 202
35 28
14 226
39 62
4 125
45 59
40 308
7 176
33 13
34 314
18 7
42 244
42 102
25 285
49 62
41 249
37 292
39 68
38 298
3 135
40 304
39 264
39 69
39 51
24 3
16 10
39 265
11 43
12 21
46 88
15 234
26 283
9 59
8 180
41 311
19 307
9 58
37 44
12 210
46 161
4 105
5 95
33 20
40 263
6 169
23 276
37 43
40 122
39 61
41 114
7 89
40 303
41 116
10 68
