2 147
50 264
85 278
51 282
82 229
78 250
50 231
87 277
11 106
40 169
58 245
90 119
36 30
22 67
96 132
45 274
84 96
24 79
88 238
24 134
37 40
57 231
33 32
89 275
80 73
59 285
37 36
76 46
103 145
87 269
36 44
90 64
75 46
89 274
40 216
27 147
49 281
100 69
34 172
84 264
100 217
86 266
61 3
103 193
105 152
22 131
13 90
57 228
80 74
57 243
26 141
70 22
45 279
34 206
10 105
79 55
75 247
45 17
103 200
83 261
27 73
100 209
78 283
35 204
30 195
44 225
84 93
22 125
61 286
61 285
79 226
95 68
100 211
69 18
89 239
94 237
28 176
84 94
94 68
36 48
87 236
56 232
93 125
78 282
35 161
19 116
103 73
89 238
81 257
21 67
46 281
80 64
77 248
97 67
17 112
33 53
85 113
18 65
27 143
99 224
68 11
33 33
22 127
7 97
71 26
87 238
79 67
30 53
38 213
83 95
57 284
39 170
54 283
90 239
35 32
53 283
105 184
81 81
102 75
91 238
37 211
99 71
14 89
36 171
49 262
99 217
77 224
16 112
24 136
48 230
30 153
84 108
24 73
31 197
32 53
31 157
28 152
101 73
93 127
76 239
44 277
91 239
95 67
58 242
104 153
69 286
80 256
4 105
