2 133
62 114
20 168
36 198
19 116
37 195
61 48
47 3
50 190
52 14
62 53
19 162
64 80
66 65
66 92
43 5
69 76
63 108
19 119
64 94
61 170
59 45
30 233
30 228
67 154
28 251
68 93
3 83
48 205
18 150
64 113
68 90
64 97
55 24
56 35
69 95
62 248
15 65
28 247
17 134
67 84
37 197
26 186
66 115
29 237
67 65
61 244
13 110
54 225
67 133
10 105
67 81
4 86
32 255
18 145
55 28
56 30
67 146
20 161
35 12
68 130
84 80
27 188
14 66
68 132
67 95
14 65
33 222
19 115
19 59
51 221
63 62
34 194
81 78
17 129
10 106
65 161
19 145
56 190
11 71
68 124
20 169
20 59
66 156
60 242
74 78
4 92
66 158
69 89
52 220
55 20
59 253
67 85
78 75
23 175
56 228
70 79
27 245
4 91
60 177
5 98
9 106
5 99
67 134
50 212
5 85
67 141
55 23
86 89
36 211
68 134
69 92
82 90
56 34
5 97
65 165
68 138
60 176
33 218
65 93
22 108
32 223
31 254
65 96
11 69
28 245
21 172
62 59
5 91
27 25
64 163
41 256
49 197
37 257
