2 81
4 94
79 123
77 83
69 63
4 125
72 153
21 28
6 147
9 72
3 125
77 91
8 78
79 111
30 18
33 16
48 20
79 129
79 132
19 33
7 151
61 169
4 123
29 9
12 59
47 183
52 11
13 166
46 4
61 171
19 175
72 159
41 3
66 163
4 137
77 148
11 61
13 57
33 183
6 90
11 64
3 112
71 154
80 117
19 35
78 138
23 177
4 103
33 5
80 119
6 145
78 135
56 31
57 35
79 133
15 169
76 80
51 8
50 13
9 152
19 174
62 168
75 78
79 134
22 177
29 19
32 183
10 66
5 143
41 183
5 145
8 77
32 7
8 153
4 106
19 176
74 78
3 103
22 26
48 7
48 18
71 153
