2 160
89 298
21 224
107 214
108 104
42 19
105 100
42 250
30 175
35 41
93 184
107 118
10 141
76 308
20 315
27 113
25 206
43 259
21 155
19 135
96 314
87 313
27 99
34 42
104 197
98 217
42 246
12 222
96 96
104 198
94 152
90 86
26 92
12 223
14 138
61 7
30 292
42 265
5 144
9 142
30 169
99 217
75 239
95 188
88 296
110 206
27 122
87 71
75 250
90 182
95 217
19 320
13 155
41 311
11 141
75 31
90 314
106 101
118 115
82 57
31 57
48 5
92 174
82 56
26 120
90 315
23 224
28 77
96 138
29 74
28 82
79 311
91 220
33 287
19 211
26 101
30 70
75 269
15 222
76 246
115 107
39 22
104 118
75 252
26 108
32 183
26 99
36 238
101 217
19 317
96 319
21 316
38 27
30 179
72 22
92 179
21 133
102 195
100 117
39 239
28 159
114 117
97 314
79 278
8 154
17 213
84 63
27 100
29 157
6 143
105 118
109 117
34 41
34 197
82 281
44 15
30 66
90 83
19 212
52 4
34 232
62 7
92 171
83 59
91 300
23 225
77 272
25 226
22 134
91 87
4 145
20 317
28 75
101 117
74 260
95 122
75 249
79 46
44 14
31 200
30 177
28 74
94 156
75 268
100 118
109 116
11 156
30 57
32 53
14 154
82 227
18 322
19 210
74 255
27 155
26 128
31 56
47 6
91 183
30 58
78 310
