2 134
154 170
154 154
109 33
6 174
87 4
100 5
126 243
150 201
154 153
67 45
32 235
122 248
108 284
43 248
113 21
133 100
103 46
65 5
49 80
59 26
124 93
107 7
3 155
123 91
21 217
138 233
90 290
62 267
88 4
79 277
72 274
23 107
103 291
138 221
155 141
152 185
74 275
117 11
78 279
109 32
26 225
64 37
154 166
6 173
16 208
43 87
76 4
115 265
41 245
145 112
26 226
64 38
154 160
3 151
114 278
68 62
71 272
62 30
120 253
22 220
12 120
52 257
110 29
115 14
140 220
5 141
153 186
4 150
91 4
107 72
153 138
70 272
5 170
7 181
59 9
114 276
12 121
65 38
151 124
35 95
68 49
113 22
106 289
138 104
13 200
108 30
134 100
69 270
57 261
61 30
28 102
31 99
134 99
120 255
144 110
6 177
24 223
143 215
111 78
111 280
62 7
20 216
40 244
55 261
64 36
154 147
32 98
24 221
5 135
155 163
152 192
59 8
138 106
93 4
135 223
99 3
22 219
104 46
56 74
153 168
130 95
90 4
34 238
15 206
89 3
58 72
9 187
48 254
111 25
69 63
56 75
113 275
29 102
67 68
