2 123
83 176
44 253
72 47
8 59
47 4
63 254
81 189
43 213
83 172
83 164
10 132
20 43
84 150
4 83
17 175
42 222
25 15
37 212
48 256
19 185
54 255
9 114
21 186
69 232
88 58
85 149
6 62
82 181
69 212
81 70
84 176
11 140
83 179
83 88
52 257
43 215
9 113
31 12
87 50
82 121
38 247
22 35
92 59
84 146
84 90
82 72
51 256
66 225
69 231
82 179
81 188
83 173
77 202
77 201
18 174
12 135
33 208
23 21
73 246
69 29
43 210
7 111
80 67
84 169
11 138
54 256
67 251
7 101
23 196
85 139
57 6
95 56
44 209
7 106
7 96
82 192
81 119
82 185
68 252
84 177
77 116
84 158
59 8
43 208
5 64
21 192
95 55
38 231
37 236
16 160
7 105
78 102
6 101
84 174
59 256
82 120
79 197
75 114
20 183
17 47
25 28
85 58
83 178
84 159
23 32
19 180
12 148
72 40
73 208
16 167
21 21
70 211
13 143
63 210
96 57
34 210
93 57
28 14
48 4
83 163
63 218
23 36
26 15
