2 188
66 8
43 134
54 259
93 179
106 114
89 57
69 12
144 121
32 164
84 241
146 114
48 137
27 84
46 59
108 107
99 135
137 125
19 125
29 173
34 82
87 273
77 325
69 8
147 108
59 13
106 99
59 282
145 103
34 223
95 299
40 247
135 125
46 70
93 184
101 106
50 328
32 162
67 10
40 132
75 13
64 263
3 116
10 91
85 227
94 170
86 41
66 7
101 114
110 114
98 139
83 250
91 325
88 208
98 142
88 218
63 255
121 113
31 199
32 207
95 296
95 298
145 100
9 102
29 187
30 178
80 26
95 166
83 242
136 124
86 326
40 134
50 263
87 50
108 110
29 168
84 32
45 58
43 259
87 325
10 116
33 211
91 197
35 131
14 95
84 326
131 124
26 85
29 171
105 104
76 16
93 175
34 161
39 80
146 105
98 305
112 80
22 123
86 227
31 193
47 76
10 115
69 325
53 140
102 107
37 158
101 103
46 40
99 307
52 33
34 160
105 110
59 14
28 84
84 244
114 80
64 265
117 79
40 81
78 325
55 291
55 292
55 296
35 231
49 316
95 295
63 327
86 273
124 115
108 116
141 124
81 29
73 326
33 213
146 103
30 197
49 328
51 147
30 165
134 82
73 325
64 266
6 112
32 216
12 92
11 101
47 328
30 192
39 249
60 277
46 326
87 274
44 53
36 131
30 83
145 105
101 313
87 216
143 123
46 42
83 241
89 325
47 63
2 116
46 68
46 151
25 128
34 220
94 65
51 145
83 243
83 265
88 49
64 259
82 31
128 82
64 256
30 200
100 310
39 132
89 203
69 13
84 37
13 91
44 261
30 186
144 99
15 95
82 255
