2 147
66 8
10 233
62 67
80 148
19 22
77 31
65 77
60 74
73 86
15 101
81 125
15 190
76 246
29 73
15 241
32 80
18 169
61 70
10 234
84 179
81 150
81 172
30 80
63 65
70 11
70 275
61 78
64 86
73 88
71 13
69 11
79 162
74 264
18 261
76 232
18 175
76 258
30 297
11 232
71 12
77 32
72 272
16 115
20 76
27 67
77 246
28 73
18 167
63 82
14 200
60 6
23 282
61 89
43 4
28 72
71 273
18 176
13 127
81 149
59 302
86 188
20 78
80 123
30 58
16 246
29 72
32 7
15 146
72 78
33 81
60 84
67 286
14 137
8 191
82 126
80 211
71 271
71 48
29 8
16 251
5 209
16 116
68 53
17 173
17 99
18 94
37 6
20 30
25 44
77 23
67 284
24 12
15 191
18 24
23 64
21 276
20 75
13 132
79 159
7 194
9 194
49 312
6 201
75 35
74 267
15 106
27 11
62 68
75 98
63 83
10 229
70 278
25 286
20 164
78 110
13 119
63 94
34 302
33 67
75 256
75 38
72 75
79 161
20 74
69 48
73 264
81 173
16 145
82 137
33 77
17 97
9 225
77 249
77 18
45 310
77 240
60 70
80 206
77 243
6 218
82 203
10 193
15 147
53 4
27 51
46 310
76 235
