2 121
73 166
77 76
18 63
41 255
26 118
49 254
69 105
33 194
34 214
76 69
36 254
25 129
71 94
5 83
29 121
34 218
28 230
39 207
77 64
19 171
6 82
24 129
19 140
44 6
53 196
58 211
9 79
20 142
34 255
27 39
69 139
25 115
28 231
67 116
67 43
15 114
49 256
71 96
32 221
48 5
30 22
17 71
67 136
77 70
38 188
68 104
29 22
58 9
19 145
50 255
59 184
38 190
68 48
69 181
75 162
66 123
77 63
63 189
19 67
65 248
67 184
4 93
64 248
4 89
24 251
63 25
47 255
64 31
65 250
39 188
40 10
68 108
69 138
76 70
28 123
25 42
19 142
68 185
4 86
60 218
24 243
30 253
18 171
60 224
54 189
55 184
23 133
24 44
74 164
76 59
54 190
74 87
69 49
53 193
54 185
75 84
26 33
66 133
60 17
43 194
28 27
41 187
36 255
75 82
5 86
59 216
4 96
26 240
53 199
16 161
66 120
25 243
58 10
16 113
67 134
37 189
24 42
25 241
74 163
9 107
16 153
