2 135
55 275
54 272
7 126
47 254
51 68
56 88
7 71
3 99
47 24
56 274
6 77
53 190
55 159
50 57
56 116
37 306
57 97
55 132
54 185
11 249
14 175
70 234
56 111
56 275
34 305
8 66
10 154
55 76
49 39
19 279
50 208
18 282
19 36
4 113
16 176
56 249
25 266
5 82
56 137
20 197
54 184
57 96
27 21
4 93
11 158
28 20
4 82
19 35
14 166
18 291
24 250
28 251
10 150
63 224
3 93
8 67
50 60
58 220
56 114
18 192
17 204
55 157
55 131
33 306
56 85
5 114
31 304
63 247
20 199
48 304
18 251
57 95
9 149
58 221
48 18
69 230
17 251
58 106
49 246
68 243
38 5
5 116
11 55
51 57
11 208
19 195
56 94
48 252
16 251
14 170
61 221
9 209
51 217
56 132
14 52
55 118
11 250
46 13
55 164
48 246
10 63
10 147
51 54
53 218
56 147
50 44
21 34
28 256
12 53
48 253
55 170
15 205
16 183
9 143
7 69
8 240
27 305
4 83
10 59
6 118
14 205
4 88
57 219
49 34
17 40
52 202
22 301
55 121
19 197
10 156
5 231
62 289
27 261
18 281
10 151
