2 111
105 29
62 243
84 240
103 184
3 105
115 58
56 211
129 111
49 197
130 110
121 159
42 190
66 5
17 156
77 4
101 39
129 135
43 12
65 243
5 126
92 223
51 226
9 78
3 109
3 118
85 211
101 40
48 234
130 109
16 55
4 111
31 179
122 157
74 244
112 174
9 74
102 40
8 75
117 63
9 77
60 8
104 28
5 128
83 205
64 242
98 231
103 38
123 154
14 152
46 195
96 25
121 69
77 242
10 70
125 149
93 20
4 93
107 31
122 156
20 163
104 184
79 3
116 60
18 46
48 235
129 119
117 166
126 82
106 46
95 226
28 174
7 86
82 242
119 65
129 126
5 93
34 20
35 19
53 219
8 132
25 32
86 7
84 6
5 124
10 71
124 151
63 7
125 152
13 151
21 164
19 47
10 141
9 70
109 178
124 74
129 112
87 217
4 99
24 34
110 49
16 54
3 115
13 62
113 57
15 154
84 199
129 124
103 37
48 236
5 97
57 241
