2 167
142 96
49 29
128 77
100 20
81 241
152 86
7 116
129 168
13 126
99 17
83 237
139 100
116 147
22 134
145 84
123 194
97 204
85 13
36 151
39 165
40 48
115 71
37 194
76 14
120 124
118 76
137 92
8 110
126 164
130 160
30 81
125 184
60 192
33 66
118 235
119 103
74 246
38 54
100 17
13 119
86 228
39 50
114 223
96 191
114 240
127 106
64 221
83 19
118 233
14 130
92 197
97 192
36 179
125 183
61 234
48 194
13 88
69 200
37 188
133 100
51 193
31 151
114 65
26 148
12 119
7 92
110 196
61 255
10 127
40 51
131 101
136 166
9 122
93 4
3 113
15 128
30 77
101 21
118 107
21 132
109 48
40 196
63 229
37 170
37 176
119 108
78 18
94 190
45 38
43 43
115 194
80 17
61 253
94 4
135 164
92 232
109 194
13 125
142 81
103 210
18 126
137 78
64 191
69 190
19 134
45 34
92 196
114 67
114 64
12 133
98 193
85 231
43 40
139 77
94 201
111 52
13 130
100 23
120 168
66 214
21 135
36 182
124 191
32 72
119 167
68 191
126 106
123 176
38 172
120 117
68 202
87 229
39 154
120 120
117 147
136 77
31 79
112 61
62 231
46 33
129 76
62 234
40 160
60 240
16 124
45 36
112 240
102 208
68 209
38 174
153 88
124 165
119 77
66 217
74 14
31 77
116 139
92 190
87 4
62 12
38 167
124 183
118 109
62 256
5 101
62 233
103 33
