2 148
87 214
76 87
69 235
83 278
86 177
59 6
37 275
44 236
23 189
43 261
76 133
79 59
33 167
87 197
84 151
4 90
68 35
77 122
26 172
30 20
76 114
53 292
7 95
31 19
76 261
81 285
86 179
82 273
86 201
30 33
86 204
81 272
72 231
28 201
78 138
42 288
79 287
76 112
27 161
29 164
101 78
79 58
50 235
92 74
66 28
25 191
72 251
87 201
86 208
41 231
76 120
38 274
77 115
73 232
82 61
76 97
17 63
17 144
87 67
79 65
24 158
36 277
77 136
29 32
86 164
31 211
35 217
75 67
75 128
87 198
69 232
77 108
92 73
19 150
77 90
34 169
37 13
63 17
88 70
86 188
86 189
61 12
28 24
98 75
51 242
48 292
34 15
82 234
77 113
75 127
84 226
76 258
77 106
85 67
23 69
29 35
39 11
7 93
93 75
40 269
44 261
32 170
28 202
79 62
15 75
14 57
77 89
27 26
78 104
26 45
34 168
76 95
20 148
72 250
11 111
16 136
21 152
77 57
87 208
77 261
85 224
14 76
76 289
59 7
34 16
13 59
51 240
68 236
74 235
76 117
87 202
84 277
78 262
95 73
19 68
40 10
52 291
87 210
84 284
59 292
86 205
14 129
23 183
10 105
61 292
35 282
51 291
15 70
