2 112
43 150
33 193
32 192
46 34
59 131
6 98
14 45
18 31
43 153
39 240
42 170
53 138
15 130
49 88
21 234
46 27
56 122
10 81
30 239
33 189
33 190
41 182
22 231
36 4
10 116
51 70
32 171
41 186
7 96
44 210
13 132
30 210
32 185
38 239
62 66
41 190
34 3
13 44
17 118
22 117
44 212
22 226
50 83
17 32
21 145
34 4
39 239
50 61
32 3
49 82
47 217
47 53
48 143
42 196
8 61
51 73
42 155
5 112
45 26
35 3
33 182
9 76
35 240
9 93
46 29
33 186
28 213
32 198
32 186
44 23
50 68
55 139
58 124
32 156
42 164
22 224
58 125
46 109
50 50
62 67
42 177
59 64
43 159
7 103
28 152
32 172
43 158
51 232
49 43
47 145
51 81
32 173
43 193
16 41
42 167
42 194
49 84
17 35
42 184
42 151
45 110
42 186
36 5
8 57
8 74
51 68
31 166
46 56
52 233
46 144
42 178
10 92
