2 155
85 36
27 282
5 156
100 161
95 193
94 237
93 205
105 136
12 195
90 62
99 98
94 221
95 178
105 306
76 244
83 33
94 210
7 144
90 315
96 166
17 213
20 314
93 212
10 112
94 197
19 221
59 8
108 148
103 131
92 274
102 296
104 312
95 200
111 157
79 254
106 161
104 135
5 154
78 253
95 244
95 229
8 134
94 200
19 66
36 319
27 52
41 256
14 203
55 305
38 262
91 63
105 304
21 297
100 117
107 146
3 173
85 267
101 125
39 243
44 26
95 233
93 316
43 241
50 309
74 6
56 9
93 214
17 210
110 160
39 239
96 91
28 278
14 198
33 320
10 102
95 220
88 270
93 217
19 220
95 231
96 284
32 320
39 259
102 161
11 121
5 149
99 120
20 305
37 246
66 303
53 14
77 311
79 256
109 151
99 122
63 4
104 298
34 39
33 269
95 188
3 165
11 114
99 108
76 13
10 115
9 103
102 293
105 139
3 174
4 163
90 61
86 269
31 247
10 106
91 68
79 21
82 26
101 123
24 234
40 239
96 82
42 254
9 104
42 240
98 315
38 261
96 182
19 218
56 11
99 102
95 199
12 187
77 247
92 66
90 272
25 238
12 84
24 290
77 244
97 170
98 160
20 62
13 196
103 313
26 284
80 244
42 244
100 124
30 244
109 161
88 271
99 107
87 48
5 161
94 79
