2 129
96 75
23 54
52 13
41 51
87 188
8 86
87 131
38 99
87 138
91 111
77 156
32 54
23 102
78 156
78 22
67 4
34 144
18 97
35 148
9 73
72 159
88 44
76 16
17 54
9 63
16 97
4 72
89 124
50 16
39 53
7 57
37 96
35 52
91 104
41 161
35 53
50 176
47 19
29 118
94 67
76 151
87 185
42 47
83 148
47 23
88 61
57 206
88 191
43 185
7 56
76 157
90 103
86 74
31 133
86 185
57 7
85 146
33 142
55 163
21 104
85 41
83 152
11 75
92 62
96 69
63 3
13 55
55 172
86 181
7 59
92 105
15 90
90 110
4 86
85 145
97 65
70 206
92 55
42 163
88 127
88 188
47 28
87 60
73 9
76 13
34 147
96 64
74 146
77 169
43 40
81 91
47 31
7 86
80 173
80 204
15 91
46 26
73 162
52 204
56 10
7 73
10 101
76 168
30 116
88 64
87 70
88 135
29 101
87 137
77 22
29 132
14 89
2 58
86 70
83 151
86 68
38 194
96 65
33 111
20 106
72 161
71 156
83 150
82 86
78 204
71 4
42 50
76 21
73 205
