2 149
55 176
40 176
79 34
93 67
77 24
85 63
110 88
86 213
82 43
83 117
87 89
72 13
18 71
45 241
55 9
89 73
36 175
93 164
87 215
76 22
86 92
87 175
16 134
6 76
85 179
91 124
61 248
78 28
7 75
23 114
94 170
97 147
103 88
78 175
16 133
31 170
78 191
54 247
95 164
17 128
22 72
47 21
14 142
88 123
35 40
78 183
47 222
42 28
86 73
91 122
85 98
27 68
85 92
12 141
85 62
13 147
6 88
28 169
82 44
25 73
91 237
28 70
88 74
19 127
4 92
80 36
27 66
34 171
100 147
90 238
79 39
84 121
49 215
52 12
91 229
24 167
78 176
53 207
57 198
56 199
75 22
79 192
87 90
38 34
90 73
89 177
102 75
86 63
93 167
78 30
28 68
100 146
4 89
98 125
13 155
103 146
87 88
9 103
84 100
12 148
56 248
17 115
86 175
64 247
21 126
48 177
32 54
58 178
38 44
95 68
109 79
100 126
44 24
110 87
69 248
35 174
9 75
91 66
101 152
9 107
52 208
92 67
90 74
44 226
83 207
44 235
78 187
43 24
4 84
48 215
92 164
30 117
75 246
18 130
100 72
100 82
77 166
14 136
87 176
51 209
109 89
48 175
86 212
24 114
101 133
6 100
84 101
88 79
87 85
