2 147
204 163
65 284
79 45
182 223
176 232
8 157
193 140
114 319
12 213
154 103
19 227
19 229
50 105
83 79
175 234
56 277
133 87
23 235
120 5
41 262
76 91
18 225
182 220
5 196
80 58
186 214
10 205
127 12
109 316
63 95
133 86
79 295
79 9
80 48
192 138
200 182
155 105
191 207
124 35
83 67
155 104
22 134
149 99
203 168
141 288
32 249
134 87
77 39
153 102
203 158
21 135
84 69
80 50
18 224
72 14
43 112
130 303
144 96
71 21
191 203
25 239
15 141
127 11
178 229
157 106
82 61
49 106
75 90
83 77
10 206
54 276
11 210
31 123
5 192
122 45
163 252
21 133
38 116
123 7
119 66
29 125
44 109
31 248
57 98
201 180
21 231
137 296
54 101
141 93
145 98
136 296
187 211
200 151
150 277
81 59
195 141
145 97
199 185
193 139
203 172
203 173
120 54
7 159
52 104
121 50
4 170
3 187
172 239
125 26
73 90
118 318
112 319
34 253
19 135
94 306
202 171
202 157
127 18
81 56
153 274
37 259
134 299
201 178
134 88
123 9
125 19
33 121
127 308
18 137
122 7
118 75
72 91
109 4
72 289
171 121
159 260
197 191
94 5
155 106
125 28
83 68
142 92
126 16
121 48
12 146
39 262
4 181
