2 168
13 10
76 22
20 16
64 164
59 278
67 218
55 16
72 100
68 129
59 54
31 55
51 321
28 328
30 101
58 289
20 259
20 176
55 79
66 146
22 152
64 165
69 36
21 277
73 108
20 195
66 210
61 161
29 341
21 270
52 15
30 89
63 157
31 82
66 224
58 56
30 340
46 338
66 177
64 244
37 346
68 191
56 65
46 339
34 67
5 4
72 113
57 285
74 106
65 226
56 60
30 97
76 26
63 48
15 29
70 240
32 80
19 244
60 52
26 16
67 192
33 67
9 223
67 187
54 70
11 112
22 281
81 14
72 239
12 206
71 240
33 64
35 345
68 187
65 16
21 158
34 72
72 112
21 16
17 110
29 330
30 93
20 190
48 332
14 26
33 71
57 287
62 247
32 74
70 34
23 19
26 316
14 132
68 13
12 207
67 157
29 336
63 46
24 107
21 156
68 192
76 233
20 241
43 21
12 221
55 63
34 64
6 116
67 136
67 194
64 99
4 8
28 324
53 310
69 128
48 329
20 36
54 307
34 73
8 7
22 282
33 70
65 151
53 315
63 96
22 269
66 135
5 209
19 248
68 180
19 190
8 16
29 99
4 7
9 117
71 99
21 184
71 229
19 193
29 339
73 30
20 260
18 228
33 68
31 86
60 267
67 138
72 118
24 304
20 141
60 270
57 300
19 228
21 144
62 256
50 322
27 321
21 185
6 220
75 10
66 158
23 287
31 91
68 170
64 44
8 207
30 17
15 225
48 327
