2 141
19 167
27 221
116 105
10 100
115 81
9 86
74 264
83 263
95 17
50 10
5 128
89 11
117 93
114 135
87 248
114 74
48 210
44 207
113 142
28 222
113 57
13 80
109 183
19 164
37 35
10 196
116 99
32 264
63 5
60 266
5 113
9 105
109 53
37 218
87 219
47 213
64 5
48 14
104 164
77 215
10 188
82 5
109 212
82 213
111 146
14 72
8 138
80 212
106 159
16 172
106 217
48 212
3 117
48 211
116 122
116 89
112 197
30 243
76 222
112 138
10 198
4 111
94 16
80 3
41 215
37 34
80 228
32 39
99 26
116 90
92 220
113 134
6 117
90 10
42 211
82 263
103 170
30 247
111 200
11 143
102 34
116 93
79 226
110 54
17 159
6 120
26 44
107 176
105 40
85 6
80 210
108 184
21 56
34 38
87 250
48 12
101 31
5 130
95 18
88 252
88 262
60 265
90 220
98 221
22 55
16 71
77 214
18 217
103 34
100 27
93 16
102 37
80 229
110 193
41 24
12 145
63 266
17 63
10 204
88 9
114 73
44 209
115 73
13 154
30 245
67 265
42 24
46 17
11 144
38 226
87 261
77 216
111 207
113 133
30 42
3 118
11 142
18 218
113 64
111 204
15 212
