2 126
11 115
53 41
59 126
57 112
38 10
19 279
19 164
46 210
18 277
16 202
56 162
13 69
65 198
3 185
24 41
57 106
57 141
47 220
56 254
9 96
34 20
54 57
20 47
16 58
14 269
9 99
29 285
57 272
33 20
58 177
15 272
52 23
52 26
54 250
58 133
32 21
57 104
6 177
46 217
58 130
28 284
19 249
16 144
31 24
19 250
54 277
10 94
54 247
52 21
4 181
53 38
22 43
54 175
26 241
27 221
16 153
57 87
10 103
54 65
58 136
56 78
4 186
53 57
3 193
28 218
12 76
56 95
26 35
52 43
66 186
57 110
56 147
35 285
52 19
61 205
11 76
53 172
67 186
9 91
53 51
57 150
15 140
28 224
47 228
53 23
58 146
10 91
59 130
23 43
15 137
57 95
4 185
55 166
12 264
55 75
24 284
28 233
28 229
10 89
15 63
58 134
16 151
37 286
47 231
48 232
52 17
11 82
19 49
13 261
53 174
47 209
58 113
54 251
7 176
9 93
53 53
57 138
47 223
18 55
56 164
53 279
11 205
14 268
18 252
54 170
50 239
