2 81
84 120
36 31
9 149
60 36
19 51
8 147
32 179
84 109
57 12
85 108
66 166
32 178
40 5
39 6
46 184
5 85
6 136
9 72
18 165
41 183
6 80
6 82
71 56
61 175
4 126
3 117
61 35
12 64
37 181
81 85
61 36
38 20
54 30
72 155
81 133
27 38
4 129
74 162
11 152
62 36
67 44
74 62
85 109
43 183
13 156
55 35
20 48
3 111
73 156
69 49
67 164
7 141
64 39
38 7
79 78
4 90
16 54
69 50
31 177
3 99
24 171
46 185
26 173
85 110
6 135
3 105
65 41
59 178
84 96
29 178
3 118
43 4
34 180
5 90
69 48
19 52
77 71
3 125
70 53
50 4
5 132
