2 137
56 262
39 125
35 10
12 188
49 280
39 56
9 261
32 26
40 184
25 303
44 236
25 83
48 270
6 220
23 131
42 131
36 198
44 231
56 263
40 175
9 248
14 277
12 189
32 24
21 143
33 312
33 15
12 191
39 160
21 157
22 140
12 274
49 269
10 255
20 158
39 44
56 232
50 268
24 86
16 282
24 97
45 237
5 219
38 45
42 208
42 223
17 287
42 5
26 72
31 32
38 76
10 241
39 59
42 224
39 181
39 99
21 147
38 41
45 290
17 289
21 151
49 282
48 290
63 254
57 232
39 105
36 313
39 182
9 245
64 251
39 50
12 185
21 162
40 22
41 18
25 80
50 275
29 308
39 149
37 198
57 262
42 137
40 155
41 10
21 296
20 147
42 15
39 119
49 268
41 20
46 301
24 84
20 295
23 87
39 34
23 113
64 248
40 176
10 252
40 174
37 201
22 139
42 10
65 247
34 10
40 144
55 232
10 198
39 188
45 299
40 21
34 15
65 248
21 144
28 45
9 260
23 97
42 168
38 4
14 276
50 281
23 90
30 38
33 26
39 95
48 300
47 308
35 7
38 79
41 171
13 182
23 120
39 76
50 280
37 195
50 273
27 56
