2 145
14 98
100 65
17 19
82 221
90 57
98 63
27 208
15 97
78 50
19 40
8 73
69 231
23 47
85 97
97 59
24 11
30 267
15 158
14 64
28 8
26 207
71 230
16 20
85 207
8 79
21 257
47 272
76 49
92 56
83 117
89 190
84 208
44 271
60 28
32 229
90 137
20 185
30 230
20 138
94 161
21 112
19 178
31 219
47 8
8 78
7 28
31 128
87 197
24 262
29 126
91 179
15 143
17 173
75 249
18 33
89 51
83 126
12 80
76 55
15 144
40 269
28 215
89 191
18 170
89 47
77 44
46 272
84 78
18 37
20 113
52 272
87 202
93 49
83 53
17 249
14 24
17 100
96 156
86 67
23 11
83 112
16 152
79 52
15 103
26 234
6 75
92 170
16 166
21 191
66 225
94 165
29 265
9 72
95 147
36 226
84 46
38 220
64 225
21 190
16 153
4 30
93 165
22 191
15 93
18 175
78 226
20 255
92 171
18 34
16 150
65 234
14 94
83 47
98 64
24 204
28 232
90 56
84 110
17 31
28 210
19 186
84 107
19 184
5 30
27 233
96 49
62 227
25 200
34 221
21 41
64 232
64 226
95 57
91 138
55 18
3 31
21 239
11 25
13 81
50 11
84 70
69 43
48 9
17 33
29 266
