2 111
104 201
67 236
80 5
124 30
95 5
12 168
24 187
140 165
119 24
37 24
99 201
8 159
148 111
71 236
116 21
139 167
138 64
93 203
8 152
59 225
14 172
103 11
6 101
12 167
37 198
61 228
42 21
143 160
91 223
8 156
141 73
20 49
6 102
128 186
52 12
148 121
78 237
72 238
3 120
5 103
65 6
148 128
6 110
60 9
138 62
127 187
112 20
115 21
91 213
135 58
125 189
131 182
17 53
127 45
99 8
58 218
148 132
9 79
140 164
145 93
19 50
134 55
130 51
17 56
58 9
145 150
148 110
8 150
100 10
147 134
61 231
80 237
125 190
147 113
47 17
148 137
27 36
123 37
147 137
92 230
4 120
16 174
24 186
50 203
120 26
145 94
7 144
91 3
44 202
135 175
103 200
92 226
7 99
7 148
59 223
6 142
5 131
10 162
4 133
147 133
122 191
7 100
95 202
90 212
24 42
131 52
89 205
58 221
15 61
5 130
143 79
