2 181
11 191
132 68
99 37
91 9
146 162
66 52
47 233
142 78
108 140
68 54
143 166
44 61
130 155
96 40
35 208
68 55
50 5
35 52
93 252
108 69
71 16
124 70
118 72
106 206
89 14
10 192
129 155
34 59
128 68
89 12
131 95
47 24
31 105
111 18
110 149
21 113
19 196
40 221
64 49
113 7
132 173
35 76
95 45
131 67
144 71
115 149
72 265
92 64
71 15
18 123
110 155
18 125
9 163
39 93
108 142
67 68
80 24
11 158
129 68
54 247
29 204
35 80
53 6
91 57
42 56
73 264
97 70
106 197
128 143
103 30
68 70
48 234
111 69
8 152
69 57
118 145
15 196
69 264
82 24
122 101
49 3
28 107
34 76
114 9
62 9
114 112
41 4
22 115
53 5
124 179
21 200
11 162
39 5
39 216
139 76
121 105
46 232
127 67
134 152
109 129
83 264
7 140
6 163
83 265
54 68
106 203
63 11
67 15
69 69
98 236
142 151
113 9
41 3
62 256
113 10
48 237
41 53
111 154
8 156
51 63
69 262
13 131
120 182
115 68
47 63
52 29
95 43
37 11
11 159
111 16
106 212
60 253
35 53
52 6
117 70
90 58
8 181
35 213
55 247
113 158
108 191
6 178
123 180
53 64
63 45
88 262
53 31
10 164
16 128
53 65
100 34
40 16
9 194
36 51
115 146
109 142
58 10
8 169
58 65
92 61
50 240
51 242
9 150
39 90
114 11
9 182
135 91
68 56
64 48
44 227
108 136
42 18
150 154
86 264
35 66
130 67
109 140
114 13
69 58
144 165
139 65
