2 115
88 234
49 247
122 109
15 155
50 224
36 195
105 186
5 123
63 8
45 18
118 156
49 20
18 158
35 27
107 59
121 142
59 260
105 41
44 18
4 93
122 94
108 55
37 24
120 143
113 171
30 188
121 93
67 261
87 226
50 215
13 56
31 31
123 114
118 75
70 262
9 71
112 171
106 62
30 185
28 35
98 198
19 45
122 111
97 25
122 128
50 252
72 262
11 62
90 18
120 148
34 191
122 124
5 124
30 186
55 18
84 14
122 113
121 131
48 234
118 51
122 112
121 129
50 250
56 15
101 193
84 13
87 248
68 261
70 6
14 153
122 92
40 200
120 88
112 65
87 225
104 190
47 241
30 33
53 220
72 5
113 68
65 262
57 14
11 64
85 219
92 21
123 119
24 177
12 61
37 196
88 213
88 230
9 140
107 61
117 51
114 166
3 90
8 134
13 59
46 17
14 54
4 113
14 148
88 238
49 19
118 79
62 261
89 228
113 168
11 142
68 6
119 79
18 162
64 261
118 82
