2 140
22 197
53 289
61 65
71 152
34 289
33 265
58 21
10 117
32 233
72 163
72 189
8 70
75 57
62 63
25 26
12 30
67 263
66 261
35 260
59 254
64 115
70 140
73 54
32 234
61 47
65 237
15 56
8 83
59 252
63 91
32 289
56 289
66 233
58 17
12 61
8 92
73 161
29 222
64 45
64 121
66 46
42 251
65 233
15 43
77 64
23 206
32 232
62 256
11 120
71 177
11 125
43 247
32 17
55 290
57 16
21 48
29 23
12 125
43 4
72 180
68 228
9 37
10 106
14 56
19 45
34 16
9 82
8 82
57 245
60 33
68 286
19 187
77 277
56 243
11 65
50 291
22 200
67 227
38 244
64 131
72 149
27 214
64 260
10 66
37 290
7 31
71 198
34 261
62 82
62 45
40 291
63 111
28 223
9 41
72 51
9 102
74 66
64 288
27 275
18 51
49 290
64 287
68 221
12 126
72 160
61 243
36 12
29 289
58 253
16 164
13 133
62 74
62 60
31 20
8 100
9 95
24 204
78 279
14 157
18 28
62 73
60 44
73 157
8 101
20 189
67 229
62 242
24 286
62 288
48 290
54 7
14 156
58 20
63 110
4 32
16 55
69 266
26 26
67 46
9 93
