2 159
104 32
81 221
45 212
37 36
25 62
85 39
108 26
40 246
82 105
101 44
90 52
120 69
50 178
3 86
41 24
31 101
119 82
32 244
112 40
100 41
10 93
37 45
85 82
108 34
28 131
29 114
30 141
84 230
29 136
34 164
49 244
40 226
37 53
91 139
70 189
21 102
76 182
33 247
50 198
73 204
119 66
24 62
4 85
67 3
90 143
83 168
30 144
79 245
91 119
40 183
42 219
30 58
56 242
36 112
101 33
87 156
70 184
91 116
36 167
111 59
11 94
32 154
52 193
83 35
71 180
82 33
6 74
44 186
106 28
90 119
34 246
80 19
30 135
91 127
31 142
38 46
98 29
27 60
110 34
41 185
119 69
104 35
28 129
109 60
71 198
38 54
78 180
33 242
97 45
30 140
83 229
38 231
122 75
98 73
90 124
98 32
36 104
31 58
36 106
15 97
43 245
44 246
84 235
81 246
101 34
116 65
90 126
111 81
29 101
38 51
81 223
90 48
86 76
102 27
99 31
53 189
102 41
16 68
93 31
45 186
88 243
90 120
102 26
118 68
79 20
85 74
80 245
71 242
41 220
58 240
67 4
51 176
52 180
102 76
120 81
89 148
102 55
54 241
48 245
46 182
25 61
93 32
78 213
117 67
77 181
27 119
106 78
37 171
88 51
53 183
39 28
117 64
5 78
48 207
90 123
53 242
91 52
71 195
8 90
