2 113
52 234
79 88
56 6
73 34
6 77
40 235
73 76
87 116
14 171
60 11
38 188
31 222
8 123
8 107
22 44
20 46
63 223
69 38
31 10
84 150
84 158
7 78
47 3
71 40
34 214
6 72
34 211
81 175
62 12
40 189
13 166
46 235
66 195
60 9
9 106
23 44
86 136
24 189
17 47
57 6
82 89
73 74
86 135
85 39
36 208
33 217
87 120
8 139
5 73
9 124
82 165
84 148
5 67
57 205
79 176
40 197
68 30
58 193
47 234
4 61
81 88
61 215
73 69
82 41
57 204
27 18
37 233
82 162
85 146
73 80
65 22
26 23
20 186
25 33
87 129
49 3
44 3
72 189
10 159
72 64
42 4
72 46
73 57
38 203
85 38
73 75
87 131
84 153
8 132
82 170
84 98
69 39
79 41
8 119
79 180
55 192
59 207
59 197
73 73
56 195
52 3
32 219
8 135
39 199
73 60
9 115
21 185
46 3
10 150
33 228
87 126
8 85
9 120
