2 119
63 246
19 150
158 125
157 128
140 37
156 131
56 213
148 147
52 222
108 195
105 4
57 239
98 231
158 102
23 31
135 35
51 224
91 244
98 222
61 204
142 155
110 7
38 177
77 3
92 4
4 90
141 58
152 141
6 66
39 16
96 205
39 15
61 242
97 216
93 209
111 193
90 9
136 50
123 179
37 178
139 40
106 198
94 4
61 203
95 215
142 42
139 157
56 237
115 12
94 212
8 117
158 110
52 224
86 9
125 175
32 22
91 8
158 107
139 56
136 51
139 159
44 186
157 101
121 28
6 109
51 8
146 148
119 21
128 27
8 62
79 254
148 146
150 145
33 171
152 77
140 45
7 70
138 53
10 54
135 34
155 134
9 54
51 225
108 5
4 96
151 72
6 114
94 210
59 7
54 214
8 124
63 5
5 82
54 216
82 252
66 4
117 16
17 144
142 48
19 36
53 9
92 5
144 59
53 219
90 8
136 52
97 220
4 94
120 183
17 42
61 198
27 165
13 140
22 155
123 178
98 232
51 192
27 164
14 140
