2 223
33 153
132 59
69 201
14 164
95 5
130 178
136 68
63 190
145 179
137 253
130 183
138 83
113 9
158 88
16 170
35 204
143 200
43 15
134 138
72 190
137 256
131 174
153 60
143 193
129 216
153 136
29 68
140 212
129 202
101 228
70 25
139 224
139 111
4 102
38 50
106 8
135 142
69 233
140 224
139 231
150 157
133 165
128 227
157 105
140 222
129 233
27 76
149 47
23 111
28 135
60 30
128 220
98 28
88 216
92 25
45 13
157 73
140 211
122 15
125 47
81 210
29 138
139 28
146 180
139 95
54 9
24 86
7 80
157 119
127 213
149 162
140 227
134 66
97 246
54 186
134 64
40 46
138 105
93 245
150 43
156 115
132 249
23 97
158 77
28 74
139 109
8 143
46 13
139 96
131 170
5 86
151 155
104 231
36 200
138 243
24 33
114 240
42 168
6 135
70 234
138 121
65 5
7 143
130 177
46 39
157 114
58 225
87 25
19 42
6 82
50 37
150 162
155 127
117 11
155 70
113 10
158 101
55 8
153 146
127 49
4 98
139 230
25 86
32 24
69 194
132 243
28 28
147 172
54 221
129 194
5 93
6 133
97 27
129 186
79 4
118 12
30 26
38 48
154 136
148 169
8 140
43 14
122 42
68 26
131 247
44 42
145 183
139 100
54 32
138 85
130 175
157 91
134 149
31 148
64 191
133 161
139 228
65 198
37 158
135 138
86 243
139 221
4 95
136 129
47 175
4 103
87 242
9 145
140 214
139 92
87 215
129 201
3 101
133 61
147 39
50 179
53 34
34 56
139 219
65 231
26 130
60 226
62 6
63 5
68 194
139 82
24 93
152 149
16 48
46 175
158 107
130 187
84 26
24 87
154 63
138 253
34 22
132 169
128 218
44 170
130 237
77 238
6 136
148 41
150 50
7 78
104 247
63 6
67 27
154 134
138 245
134 142
81 241
141 204
143 199
129 188
82 240
37 20
154 66
53 183
102 28
3 109
48 38
