2 144
84 63
81 173
81 213
82 301
23 112
81 180
85 304
82 46
6 139
14 145
47 227
83 154
39 304
92 135
32 99
35 71
8 121
53 258
52 260
43 45
80 181
42 48
28 163
7 122
48 224
32 98
43 278
96 125
31 106
46 33
5 134
84 49
50 265
66 295
82 168
70 256
76 245
49 220
57 292
32 101
83 240
32 102
43 41
63 6
81 205
84 79
48 268
30 166
86 238
70 250
65 292
71 249
52 240
95 129
90 234
79 19
82 212
42 301
91 228
81 212
85 288
33 96
91 224
99 100
99 98
46 202
41 177
34 85
80 193
96 92
65 4
101 108
64 4
33 93
45 195
49 295
48 226
53 18
50 295
80 28
36 170
26 110
76 10
43 44
87 297
93 133
36 301
80 195
7 124
31 103
64 290
30 167
84 68
41 46
101 106
19 114
47 33
36 69
43 281
34 83
46 206
49 221
84 54
76 11
76 246
87 220
80 20
80 203
47 205
40 287
38 57
41 301
29 163
52 293
101 111
83 63
12 137
9 120
54 16
102 106
102 109
86 145
46 34
51 239
86 304
45 193
81 164
80 274
53 292
52 243
63 7
36 62
37 54
73 6
27 164
40 304
87 144
81 25
93 90
45 201
41 303
87 237
82 42
83 58
