2 141
24 322
39 71
27 277
20 48
30 119
30 91
21 299
14 19
11 79
3 64
27 30
18 225
16 89
18 23
20 49
32 236
19 28
31 253
19 24
18 24
12 15
13 18
33 8
31 4
32 3
32 134
27 27
24 9
30 84
31 119
17 235
32 145
27 311
18 226
18 271
15 127
30 96
19 49
20 42
20 305
27 299
35 206
16 109
33 172
20 36
21 40
19 202
27 6
15 19
27 316
27 306
33 152
27 44
12 64
34 212
32 163
24 319
16 84
19 271
17 178
32 250
26 35
32 161
20 10
30 265
32 136
28 269
41 66
35 211
26 26
15 92
30 103
17 198
21 316
20 284
29 59
29 99
28 276
18 56
29 114
34 12
18 263
32 151
24 327
19 200
19 276
15 64
34 221
31 248
31 258
16 146
16 248
32 146
29 273
34 208
18 261
34 187
26 28
14 64
32 231
34 228
37 72
17 245
29 112
21 9
20 290
21 297
31 138
12 114
15 105
32 243
16 144
16 128
23 9
32 148
20 47
17 263
16 7
16 150
21 311
30 129
17 147
16 123
17 63
16 163
16 126
16 152
18 220
34 183
31 126
22 327
29 84
18 202
32 249
27 297
32 149
12 112
17 243
29 51
33 6
21 35
