2 175
18 191
66 273
34 293
43 224
97 136
35 31
66 180
71 248
92 139
71 38
74 252
48 15
36 278
103 133
84 210
66 226
28 57
31 47
37 198
74 54
59 283
86 290
29 58
104 148
20 111
73 196
36 191
63 278
44 252
54 5
37 282
36 192
72 246
76 96
67 177
65 228
19 191
74 65
10 124
66 231
30 53
37 200
102 135
37 285
85 158
67 175
37 277
39 216
69 22
51 8
20 168
69 225
94 106
32 46
88 286
6 141
71 36
66 267
78 220
6 152
41 220
35 293
32 48
43 237
92 105
23 190
22 92
40 216
70 29
10 123
101 115
59 284
31 50
41 299
97 108
31 49
71 146
84 209
79 283
104 145
5 130
43 227
71 34
68 170
71 37
42 264
22 106
74 63
105 147
64 6
81 204
65 267
34 298
78 223
43 259
18 171
56 4
4 139
86 146
45 20
70 30
44 248
43 296
99 139
61 282
24 77
86 291
67 232
20 185
103 131
6 146
22 97
75 62
8 143
75 257
101 145
85 288
51 10
40 266
17 170
53 290
21 98
16 165
102 114
104 122
105 145
22 93
68 17
9 126
57 3
73 253
25 77
52 9
42 222
30 186
82 287
103 121
75 87
79 203
54 4
67 183
68 21
34 296
63 7
101 147
69 147
25 76
22 94
83 151
21 107
38 203
84 275
20 178
69 267
71 145
16 114
26 181
77 139
43 240
79 139
71 47
75 89
69 155
65 269
39 270
43 222
25 72
39 211
75 69
35 299
66 229
75 84
89 290
78 99
104 147
