2 169
74 242
54 18
49 197
33 150
40 101
23 302
41 285
40 104
52 223
6 305
9 146
99 287
42 161
99 71
48 176
104 163
103 169
40 112
61 5
41 96
113 319
54 273
46 51
29 149
53 274
106 124
75 240
33 292
45 165
49 195
48 250
43 63
119 159
94 55
102 165
37 153
92 277
80 287
47 38
52 230
52 210
40 89
84 292
101 82
50 275
105 296
102 81
91 275
100 309
108 320
22 280
105 297
84 30
76 254
50 29
97 216
32 126
72 8
39 125
111 311
24 277
112 309
78 232
99 307
99 182
99 66
53 222
94 200
18 145
41 76
75 244
78 234
30 296
41 103
27 275
89 38
52 23
50 192
116 158
86 31
29 297
84 264
105 110
52 28
8 314
80 260
105 121
98 217
38 125
18 132
101 176
85 37
53 231
41 257
50 199
11 295
23 279
97 61
49 198
56 14
106 299
71 7
105 122
98 218
99 187
69 275
81 27
3 316
40 159
105 100
46 166
92 50
89 40
44 54
20 284
25 276
40 122
18 285
54 19
105 118
111 142
81 24
3 311
81 22
74 11
86 294
53 233
42 77
102 82
91 276
70 275
83 263
46 42
52 236
93 201
14 144
13 293
106 116
76 252
84 31
72 278
49 196
81 21
94 212
92 45
101 78
53 237
25 149
110 307
50 205
111 309
100 74
7 316
75 280
101 178
100 72
48 40
49 35
79 259
53 242
47 250
55 272
99 181
112 311
64 3
106 113
126 153
83 29
126 155
