2 183
108 139
81 4
52 178
129 44
113 79
50 179
9 181
129 43
109 56
38 254
22 271
51 160
130 117
7 164
9 57
22 28
46 117
108 53
26 262
46 125
5 226
4 107
110 16
113 95
92 6
51 181
8 251
42 247
46 114
4 100
5 235
37 256
4 102
33 269
24 266
85 27
7 60
8 179
45 94
85 5
4 77
135 80
104 45
127 122
114 102
12 43
13 44
50 187
112 112
56 34
3 101
133 95
8 64
86 28
52 7
37 258
29 273
44 92
114 77
3 83
8 248
3 103
63 4
44 91
51 6
122 148
50 141
104 46
49 201
107 154
49 191
48 228
49 199
6 205
25 23
121 152
7 211
121 147
6 245
5 119
5 69
15 269
129 116
24 23
27 268
8 198
117 25
105 11
8 155
47 125
4 85
113 94
49 224
109 157
25 261
4 119
133 91
95 8
51 177
53 36
43 10
55 34
45 77
134 88
108 52
121 151
133 90
112 120
120 155
107 14
35 263
130 50
50 43
7 203
20 30
91 5
9 197
113 68
133 92
109 132
48 202
47 102
51 153
108 141
46 84
47 233
78 3
118 158
21 28
116 22
6 137
134 81
7 177
7 146
54 36
45 96
108 152
99 38
135 68
51 150
127 128
28 271
126 39
7 62
37 261
29 272
97 35
49 140
104 10
36 14
59 33
9 182
108 134
113 89
130 110
113 109
6 164
41 251
8 190
111 61
34 266
7 221
51 7
106 12
122 33
135 82
46 9
109 161
5 120
128 43
4 74
27 21
47 237
22 270
82 4
5 81
28 261
52 158
48 8
31 19
73 4
47 8
133 64
