2 115
33 235
39 64
40 157
5 102
79 64
43 18
71 226
14 108
65 22
59 10
76 216
40 41
81 68
39 157
90 93
8 99
69 34
70 206
18 112
63 194
40 218
40 44
40 237
37 226
71 209
36 84
77 216
41 236
59 223
73 213
65 178
3 103
31 119
60 10
82 116
83 80
48 203
83 75
68 33
47 5
13 97
36 125
38 151
70 209
44 12
40 50
6 105
76 51
16 106
43 23
42 35
42 213
39 153
66 227
26 117
40 47
35 231
38 73
4 103
84 77
33 123
74 141
73 212
87 104
37 141
63 17
45 180
75 170
78 59
53 225
52 226
35 126
46 5
69 156
76 170
78 221
33 87
74 42
90 98
31 120
39 52
38 141
68 28
71 151
44 181
68 222
76 46
45 9
10 98
19 93
13 105
36 139
44 11
56 5
20 111
66 23
79 170
41 179
75 48
79 231
39 170
40 156
27 116
81 123
80 126
81 117
43 178
47 196
79 131
64 196
71 37
89 103
35 240
34 124
40 43
