2 122
60 235
22 66
54 216
110 140
115 97
58 8
98 227
72 240
24 51
86 195
121 53
88 237
63 236
27 46
32 135
61 193
92 17
95 166
92 234
60 4
114 102
86 187
51 169
25 50
25 47
59 205
50 226
81 10
12 120
51 170
23 61
5 118
61 189
81 239
45 18
51 167
124 127
117 74
44 153
100 155
101 155
112 54
128 59
29 130
58 237
19 120
130 55
121 128
114 82
126 54
47 240
46 17
69 239
84 238
54 241
88 184
36 26
95 232
61 4
127 53
96 171
119 72
32 136
88 16
118 131
105 226
115 93
49 229
45 241
114 103
53 11
107 47
56 215
86 192
86 13
127 54
96 170
5 119
114 85
51 242
62 195
12 90
133 127
5 113
28 42
43 152
122 68
49 15
54 175
124 66
67 1
85 195
60 184
106 44
56 177
66 236
93 171
58 7
124 118
30 131
28 128
7 99
39 145
76 240
103 149
99 31
22 123
46 240
59 6
56 214
22 59
115 80
97 161
129 53
106 147
107 45
37 141
21 123
35 139
43 154
52 223
127 58
