2 127
93 109
115 105
110 83
41 168
47 206
38 223
128 102
52 194
72 227
123 93
105 168
106 81
43 236
63 7
93 172
75 4
8 93
42 218
23 120
11 89
32 71
96 139
82 175
109 166
128 101
22 83
107 105
91 35
51 198
108 167
34 234
51 192
40 42
41 220
52 233
73 3
34 135
9 106
50 233
88 30
101 143
49 26
4 96
6 101
36 164
24 121
37 227
94 229
97 167
26 80
112 165
11 107
53 181
35 154
95 66
100 167
14 111
96 100
92 228
114 84
90 36
124 102
36 163
50 26
97 99
83 20
46 211
89 239
86 239
85 24
51 193
129 98
50 23
59 227
34 138
17 85
97 71
29 75
82 18
29 77
113 159
34 57
52 177
32 130
50 176
49 25
71 3
25 122
82 16
128 94
80 175
51 197
113 164
52 196
50 200
86 26
96 58
21 83
81 16
89 221
39 224
101 105
35 156
94 103
79 176
121 103
47 235
36 55
32 65
74 3
126 95
93 47
106 82
124 92
53 179
93 41
126 93
89 238
80 234
34 154
94 232
93 117
95 60
50 202
80 180
98 76
17 115
