2 149
123 33
148 105
77 192
91 22
34 171
76 25
125 159
63 165
136 102
14 103
45 53
164 161
70 166
178 105
48 52
90 207
13 109
122 157
159 112
71 168
22 83
148 165
28 73
79 187
49 52
86 172
155 145
138 97
138 95
12 169
164 103
138 101
101 8
85 160
150 165
165 159
98 14
39 58
167 103
5 137
157 79
164 159
13 171
14 113
165 160
133 190
4 141
118 199
157 132
161 165
81 162
11 170
143 99
12 115
48 45
83 161
137 103
38 167
131 184
154 140
39 59
8 126
52 167
79 204
136 103
26 78
67 162
114 197
6 132
91 160
10 121
104 197
39 169
123 35
25 171
68 163
78 203
46 53
33 65
174 106
116 8
30 67
157 133
21 90
126 202
150 108
10 169
85 174
165 158
140 95
84 206
6 166
161 151
146 102
157 166
35 170
84 207
129 49
90 166
98 11
176 102
135 191
56 35
153 127
93 155
120 198
139 113
163 164
155 105
60 33
63 33
99 10
36 168
22 88
168 105
144 166
129 181
19 94
118 18
127 43
108 4
83 162
131 57
155 104
155 129
45 168
53 167
92 158
85 173
137 100
142 68
121 30
71 29
14 110
13 106
126 175
3 148
117 12
61 166
69 165
155 139
148 104
123 32
4 156
49 50
157 136
32 170
165 163
59 166
