2 151
46 212
46 169
34 29
18 55
37 83
25 268
27 303
46 203
22 187
44 268
56 152
22 202
51 159
46 214
21 141
44 78
29 47
9 85
25 258
28 316
47 140
26 276
40 18
28 321
17 52
55 159
41 82
57 140
36 25
29 37
48 151
19 65
22 180
35 74
23 193
56 158
50 155
22 174
38 304
45 250
27 283
46 226
50 139
24 242
58 155
27 312
36 321
45 228
38 301
18 79
57 143
24 250
36 324
42 284
42 287
23 196
17 44
32 58
9 81
12 95
37 80
44 96
45 258
22 185
10 90
24 246
40 5
21 119
59 137
22 147
24 257
17 106
22 209
27 284
40 297
28 304
37 316
20 115
46 140
26 16
18 38
46 225
45 262
5 14
44 136
42 118
45 177
22 152
22 168
22 166
49 81
44 240
22 221
21 138
19 112
47 89
31 55
44 266
59 156
10 83
21 148
42 114
46 141
45 251
22 219
35 66
24 255
25 252
22 220
22 140
44 249
45 223
23 241
24 16
45 98
36 326
35 65
27 326
19 110
42 115
35 325
37 317
22 181
57 136
44 278
36 325
42 11
17 48
27 310
13 81
42 123
34 64
27 291
3 14
28 14
35 326
17 55
22 233
46 206
46 184
21 124
32 30
10 86
42 15
3 16
51 163
10 85
42 121
41 292
44 129
9 26
