2 158
24 313
35 212
32 232
29 280
31 322
11 72
28 317
29 310
32 88
20 287
29 282
17 264
12 99
12 61
34 183
29 279
29 291
8 78
35 171
10 147
8 72
15 139
24 314
15 133
22 324
16 42
32 223
33 230
23 294
34 138
12 67
16 225
28 315
12 72
34 86
20 302
16 166
17 165
5 6
24 297
32 74
13 102
14 148
13 7
20 275
35 85
16 164
31 244
28 284
34 218
26 19
34 195
28 318
17 32
36 47
17 216
31 111
35 49
34 147
8 145
28 308
17 210
31 236
5 7
28 287
13 53
20 309
30 317
15 242
17 169
29 14
34 154
35 183
31 321
16 176
34 190
16 251
17 36
14 22
35 214
6 141
34 211
21 309
10 7
35 50
30 5
13 141
29 10
34 142
36 85
11 18
18 262
18 269
15 46
16 222
35 162
10 86
34 133
31 245
14 129
16 168
39 38
32 107
16 39
30 315
34 173
35 189
23 320
15 49
17 170
31 97
23 296
34 187
20 289
19 282
10 146
14 51
17 198
29 11
20 295
19 273
15 243
14 45
12 20
36 33
23 316
33 202
15 163
16 163
17 266
32 77
33 200
21 320
8 79
31 31
23 324
33 133
32 241
16 159
20 290
40 33
34 201
30 96
34 208
35 158
21 317
19 270
18 30
6 140
20 274
38 83
30 276
17 219
31 103
17 204
28 314
29 308
27 300
