2 136
44 57
87 65
37 68
108 160
112 167
42 5
126 163
68 3
123 163
106 150
44 268
106 103
130 174
89 69
59 4
99 234
123 189
94 29
14 126
36 260
89 269
12 129
76 279
124 163
52 5
105 142
106 211
49 274
101 91
112 121
128 184
92 33
67 284
92 253
33 24
87 46
128 182
12 133
13 122
83 54
106 209
94 78
11 136
111 199
41 266
33 74
93 30
113 168
103 219
7 155
34 26
36 30
90 8
10 144
30 14
85 48
98 235
112 125
96 26
23 242
71 280
83 53
117 165
74 277
108 159
31 78
87 5
105 146
80 280
52 276
13 208
15 115
127 184
28 83
37 69
80 281
5 183
7 161
34 72
32 5
22 101
33 23
111 134
85 275
21 239
8 203
81 280
5 172
108 166
119 192
87 64
112 120
4 191
43 54
6 178
96 25
98 88
36 261
83 55
88 42
133 166
22 242
110 118
18 110
4 193
32 20
129 177
108 202
89 262
30 255
3 192
84 51
15 214
79 280
26 91
102 223
71 279
95 83
16 118
98 8
20 234
99 89
11 132
43 59
32 16
11 207
48 273
97 85
127 162
62 283
128 181
37 33
86 47
73 277
75 4
80 4
