2 142
21 57
5 143
91 93
70 280
37 279
29 294
60 16
33 310
6 168
30 293
73 224
11 181
5 165
27 298
10 179
75 215
16 205
85 151
68 77
19 76
3 130
82 189
75 128
4 137
68 120
36 281
28 246
32 310
64 41
74 226
19 69
30 36
79 302
37 278
42 9
71 99
12 187
64 42
73 306
33 29
79 298
69 278
66 65
35 21
74 287
72 234
35 24
79 130
70 118
37 19
51 308
69 245
73 126
19 215
6 109
82 187
91 92
64 36
26 307
84 161
22 223
67 305
29 295
84 168
18 209
81 131
70 305
65 37
70 278
39 272
59 8
63 26
21 64
68 249
69 128
5 133
84 173
31 33
75 127
84 138
4 136
33 288
34 263
65 46
7 104
36 277
34 25
14 194
5 113
16 89
12 188
52 307
67 75
78 203
89 91
5 134
69 121
23 55
51 3
84 148
84 170
4 155
84 162
72 306
67 306
73 226
88 96
65 264
69 117
40 270
42 7
83 139
75 213
60 306
81 135
85 177
63 29
27 307
84 151
69 276
5 116
61 20
22 53
69 78
66 53
69 244
44 5
16 90
85 182
65 51
70 244
69 114
70 101
71 103
5 149
73 222
24 229
68 275
78 205
50 308
80 194
18 83
