2 95
8 124
55 30
36 54
76 60
27 26
68 88
19 147
69 76
57 22
30 28
37 184
73 57
21 156
65 123
68 89
26 23
59 10
24 18
9 105
69 77
18 66
18 95
9 120
20 93
22 178
56 41
23 169
54 4
4 115
60 7
72 141
11 102
47 173
37 46
30 59
32 32
23 185
46 175
71 120
10 126
21 7
53 4
58 4
68 99
56 51
23 88
33 35
20 151
20 155
68 90
22 93
30 7
72 120
59 3
55 41
15 99
71 75
43 9
52 4
4 117
6 105
21 77
36 43
67 124
70 121
13 99
65 142
59 148
20 9
66 118
66 119
59 146
73 125
37 52
56 45
56 30
47 6
76 138
21 79
35 185
71 74
17 138
51 166
22 13
60 10
23 172
19 146
58 20
16 132
56 154
66 117
32 58
57 26
23 85
58 18
