2 134
25 73
64 136
56 68
39 270
50 259
24 114
27 41
32 271
69 113
27 244
29 236
25 94
52 266
25 95
20 135
48 227
23 114
61 88
57 184
64 149
59 176
28 165
60 188
18 279
26 76
46 277
63 141
29 11
19 271
54 273
20 201
15 139
28 27
64 143
29 164
26 79
69 126
61 193
25 254
55 277
63 95
26 112
28 162
28 25
68 127
37 266
44 28
27 65
58 179
55 64
45 274
25 75
60 189
56 66
15 118
7 126
63 94
28 160
14 118
26 85
52 211
29 15
29 214
28 168
4 128
23 182
11 135
52 210
30 215
24 180
27 45
5 131
45 26
53 51
55 279
40 13
28 39
30 234
23 183
73 129
27 171
28 24
14 138
53 204
44 276
52 50
30 229
24 182
41 15
50 42
25 112
43 21
33 271
51 260
25 58
26 89
52 265
29 216
30 221
7 127
27 37
29 23
30 217
59 185
18 280
22 114
52 283
47 35
50 220
53 56
62 87
66 112
26 64
25 60
28 167
64 152
4 130
28 31
66 108
69 114
37 9
43 25
13 136
55 198
71 128
36 4
59 188
25 63
27 174
55 278
25 67
19 277
61 202
47 236
