2 112
109 72
34 128
73 159
64 176
99 85
41 195
51 150
48 190
31 194
35 131
87 182
52 154
90 55
18 98
58 179
31 64
27 74
32 46
33 47
25 99
34 41
88 49
66 6
47 138
89 182
34 133
95 119
89 51
109 79
95 73
49 190
57 181
36 125
33 41
41 25
33 120
102 72
41 194
51 163
34 184
92 95
35 126
91 125
5 90
78 166
92 122
28 100
56 179
75 150
52 7
75 160
8 85
34 118
86 199
108 71
40 178
31 70
30 70
54 185
107 80
92 91
35 130
89 118
7 87
24 96
47 139
80 171
90 110
81 170
21 79
34 188
54 158
92 202
5 92
73 158
23 94
100 72
110 72
74 187
53 187
91 124
86 198
54 183
32 52
34 127
27 101
98 88
36 114
34 187
75 188
53 155
92 204
73 16
40 117
45 16
90 58
16 81
58 4
31 52
37 115
31 198
43 19
27 75
79 166
70 180
34 117
72 154
90 54
34 108
74 159
33 189
92 67
