2 142
29 109
65 232
4 128
111 181
129 80
9 115
121 128
112 183
87 43
84 30
100 93
45 227
29 4
119 130
130 86
111 186
118 138
41 13
32 102
55 63
115 160
17 126
128 111
23 193
6 145
79 67
118 136
7 116
4 131
17 171
93 86
78 49
50 69
29 207
39 30
75 62
51 232
24 122
55 48
22 189
130 80
117 141
28 113
17 170
89 227
23 125
31 213
45 229
101 95
66 37
37 93
83 46
115 172
119 96
104 203
92 24
111 7
131 89
93 224
20 128
20 127
5 120
51 68
4 141
58 58
117 96
122 126
99 213
56 237
123 79
96 35
109 7
29 208
121 89
11 158
50 46
88 27
9 153
105 11
47 74
118 135
15 167
114 167
13 162
39 31
6 122
102 28
13 116
21 185
13 118
24 121
126 120
123 126
49 25
116 159
116 162
123 125
102 209
114 169
46 21
32 103
44 226
14 165
69 232
130 99
41 86
70 241
46 75
92 225
4 136
60 56
96 220
97 219
100 92
111 185
19 177
107 20
77 63
71 231
86 29
49 229
83 71
23 195
11 157
20 184
58 33
29 5
34 216
26 200
62 36
102 96
103 205
106 198
22 188
42 36
28 206
84 73
80 67
49 71
78 244
89 25
34 95
