2 122
43 164
37 137
75 18
87 257
35 243
57 231
50 242
90 142
82 172
26 127
70 240
88 255
50 191
26 97
52 240
36 52
7 122
37 258
39 44
40 151
86 249
76 212
45 16
45 217
34 61
87 258
33 70
66 231
33 69
32 129
25 99
42 254
73 244
43 224
16 107
95 77
55 8
95 121
30 80
35 51
73 246
40 255
43 18
34 248
59 3
88 257
69 237
37 259
87 156
86 244
39 146
86 245
73 17
43 223
97 111
96 84
83 238
44 175
38 238
60 4
12 124
46 210
97 87
64 227
42 26
97 116
72 199
45 214
72 194
87 248
48 204
85 40
41 28
27 127
34 255
47 184
45 216
87 255
34 64
92 131
46 213
97 94
101 105
31 77
96 87
81 229
40 153
73 188
43 23
41 31
96 91
41 33
76 186
30 76
40 31
88 167
47 14
30 89
74 201
41 156
47 10
78 21
85 171
96 95
94 72
72 16
35 252
45 178
32 74
11 124
52 238
74 186
89 146
88 46
29 127
36 51
45 173
89 149
42 227
79 26
32 73
42 165
