2 135
56 197
12 254
57 159
72 96
55 81
22 52
51 198
39 233
22 98
22 80
10 188
67 105
37 25
43 220
23 233
33 263
22 74
8 191
20 9
21 38
49 62
65 104
22 143
50 66
35 16
9 275
58 159
57 120
21 107
21 139
25 4
42 34
58 187
59 195
76 101
9 259
40 266
61 104
54 172
22 35
22 76
19 266
20 197
39 30
47 56
20 151
22 205
57 130
48 200
41 34
48 253
22 137
21 151
31 7
17 246
21 34
33 14
48 255
54 78
22 104
57 89
21 150
56 108
11 116
21 7
44 247
23 217
43 218
22 131
52 67
57 157
13 128
15 180
21 22
6 269
21 141
62 105
54 74
48 275
41 268
21 70
41 35
58 147
10 189
14 251
50 258
33 12
58 189
42 222
22 48
46 52
6 196
21 87
50 259
21 30
20 168
73 97
19 9
56 81
21 69
55 273
42 245
56 87
58 133
57 154
51 276
50 257
36 21
21 84
41 241
19 175
20 47
16 269
17 244
70 91
73 95
62 91
20 240
20 153
58 153
21 64
48 60
41 243
42 37
13 181
43 227
26 264
21 53
53 278
74 102
69 104
61 92
39 232
4 271
60 103
