2 153
85 212
12 145
75 69
71 57
94 196
12 153
13 162
69 8
31 7
9 131
24 240
32 55
15 178
22 230
93 99
72 50
34 20
7 136
26 77
79 240
90 166
74 38
40 62
39 34
29 71
100 123
22 114
43 71
29 65
23 207
15 192
9 146
14 161
88 138
76 32
81 234
22 201
59 5
89 164
92 173
85 214
87 147
105 191
16 89
68 263
22 107
11 107
80 73
83 78
93 195
90 177
26 242
25 74
100 115
52 3
17 94
86 141
24 112
71 58
88 174
77 249
110 171
45 63
9 147
23 112
33 55
45 61
19 197
45 56
33 56
8 140
33 51
7 126
45 6
18 91
32 15
77 6
11 173
17 92
18 101
12 171
41 42
42 43
98 112
21 202
98 129
71 59
79 71
84 225
39 60
38 58
67 262
14 169
23 202
102 119
77 250
103 170
85 144
19 190
94 132
19 82
33 52
16 180
11 152
24 238
12 175
38 55
89 174
64 262
100 127
111 186
112 185
14 168
23 210
77 23
99 172
114 182
33 49
87 208
86 207
35 48
74 48
38 35
35 24
22 228
90 170
82 76
84 219
42 47
74 41
8 127
12 143
97 103
35 25
41 8
9 185
39 58
89 168
87 154
13 160
89 165
12 160
23 80
83 231
79 14
87 206
23 201
4 155
72 56
85 223
89 198
88 158
10 112
