2 81
45 85
18 71
36 29
31 172
37 19
32 169
6 92
36 52
20 37
55 103
55 102
19 153
15 119
32 167
37 132
21 39
38 64
18 12
36 146
36 21
56 104
32 172
38 111
14 93
36 133
9 139
35 27
7 88
21 32
17 156
19 48
37 47
16 6
23 170
36 141
18 13
16 121
36 37
14 134
37 49
15 111
15 76
20 39
36 47
38 119
36 153
45 86
37 137
38 123
38 124
21 17
36 39
18 56
40 105
15 93
24 24
35 159
17 150
20 162
20 18
36 16
13 82
35 30
27 12
22 31
49 88
37 15
37 140
16 3
20 166
14 103
6 90
15 104
39 77
37 38
33 167
20 36
38 54
37 68
16 144
55 93
