2 140
36 94
16 148
7 5
131 61
10 143
49 50
64 46
9 111
106 120
24 94
19 100
116 93
124 46
31 34
101 60
19 131
112 95
105 100
23 96
20 28
90 131
133 65
44 46
5 121
35 38
11 127
97 103
128 47
71 56
12 19
107 125
28 45
50 91
141 65
140 59
102 136
100 136
34 93
35 93
135 63
10 11
19 138
12 108
67 70
21 137
69 65
80 87
16 140
38 41
69 45
10 126
29 47
98 110
84 90
53 95
106 121
34 36
69 73
21 32
89 83
91 77
60 46
107 134
31 93
30 68
26 130
32 53
9 109
93 74
49 47
30 49
67 69
18 139
71 52
27 44
20 30
43 140
30 34
115 52
90 81
6 4
26 43
33 65
31 55
129 49
46 90
52 82
108 99
4 117
69 47
31 130
12 129
94 69
88 83
98 109
4 124
35 62
44 84
29 45
71 63
27 77
87 91
4 5
28 69
17 19
103 117
8 8
13 126
55 44
56 47
6 125
55 43
5 126
117 52
28 47
72 124
4 123
31 36
3 3
124 87
58 90
65 129
60 96
18 21
10 108
52 92
70 74
14 20
68 71
131 49
94 73
6 126
42 44
60 94
136 73
139 60
110 49
25 92
30 62
130 47
