2 170
81 65
121 101
98 130
66 280
79 209
78 245
85 288
68 284
79 64
97 117
96 103
35 109
74 40
62 305
78 65
53 330
81 195
97 144
49 218
57 4
46 27
77 260
119 68
89 64
119 346
52 357
44 47
77 63
78 263
96 154
96 99
86 189
78 267
38 92
33 167
46 247
45 41
72 24
66 273
44 41
95 159
37 104
78 262
105 60
48 235
96 101
111 78
94 63
88 183
59 268
118 347
46 22
45 249
89 182
88 317
79 210
78 64
86 321
71 345
82 66
28 128
69 12
78 268
118 343
80 281
55 358
72 25
15 163
117 62
63 300
36 169
55 4
91 314
101 60
34 120
46 20
46 250
74 60
97 131
78 248
64 270
65 294
44 33
96 310
79 217
48 10
70 13
82 65
53 358
73 39
26 131
98 132
49 214
8 156
45 37
86 186
47 20
39 85
46 249
103 91
50 352
71 342
20 141
87 188
83 326
27 130
96 149
49 231
75 49
97 98
53 328
36 106
58 268
77 338
42 61
76 237
96 140
42 268
100 306
47 208
97 154
63 299
54 327
39 83
80 282
93 296
98 97
119 66
11 151
49 350
46 23
69 11
87 183
50 220
9 164
73 16
71 31
97 123
43 48
17 163
78 258
86 319
50 237
43 51
87 289
7 162
67 10
116 61
73 17
96 297
50 227
101 309
49 219
66 274
31 166
46 206
78 274
77 240
49 235
102 95
98 310
86 188
96 148
84 192
59 314
66 348
80 229
120 68
32 123
75 60
