2 136
62 13
10 162
91 149
38 62
25 16
32 83
26 117
24 221
97 162
26 234
66 5
29 40
27 38
20 29
67 7
67 270
57 44
66 274
57 298
17 24
25 122
34 45
37 67
23 202
26 116
28 87
19 157
23 140
60 39
80 197
54 20
72 244
39 284
84 169
81 133
65 271
78 204
37 281
69 88
55 21
64 12
26 232
58 41
92 149
30 20
90 148
91 150
29 255
15 160
23 122
9 16
63 283
8 162
23 139
81 184
21 15
46 299
38 284
30 41
71 18
22 129
33 81
71 15
23 138
90 149
27 37
20 13
19 28
19 186
48 300
26 110
60 61
92 150
24 226
78 201
22 31
80 177
22 14
88 167
72 250
37 61
103 157
74 235
22 133
75 234
37 69
81 178
72 103
10 17
77 211
66 81
66 273
67 264
71 252
22 212
22 137
66 82
93 150
62 39
20 153
22 132
24 225
47 27
9 8
23 31
76 5
26 109
63 70
26 17
57 18
65 27
81 173
77 124
80 185
57 53
42 291
37 60
67 27
71 94
98 161
77 209
38 50
59 295
26 237
19 189
67 25
76 4
93 163
74 238
78 126
31 81
67 26
49 25
32 266
72 102
30 40
