2 87
20 30
45 4
29 172
16 162
33 36
40 110
14 41
15 42
40 100
12 131
11 63
41 102
12 130
42 83
38 139
9 77
11 79
13 80
11 110
17 165
31 50
6 74
12 58
41 93
37 150
42 86
12 124
12 122
11 100
3 71
31 166
17 44
7 13
25 25
40 59
12 94
41 6
7 24
11 137
41 8
43 80
12 125
10 32
41 97
15 158
38 6
43 87
39 134
12 100
5 13
40 22
32 158
16 52
16 165
11 120
37 148
40 114
11 124
7 66
31 48
32 165
40 125
4 73
17 170
14 38
38 8
12 86
37 145
12 65
30 45
11 136
12 64
11 108
12 140
40 74
26 176
13 146
40 112
12 37
17 50
14 25
28 172
6 13
18 49
11 134
37 27
34 33
