2 106
7 94
27 201
20 39
14 17
8 18
10 6
7 97
8 54
28 191
7 110
7 221
28 185
27 238
8 25
22 52
20 274
7 115
27 208
27 126
7 82
13 262
27 134
26 142
27 120
9 229
6 96
13 14
27 206
7 60
11 205
9 4
28 208
10 198
11 236
7 112
24 108
26 252
9 52
9 42
25 262
28 197
6 98
27 167
10 181
27 236
8 42
9 219
7 104
27 231
26 248
6 11
11 8
8 218
19 274
28 216
7 66
27 137
7 101
10 211
23 95
26 234
13 260
18 28
11 209
7 125
27 159
11 237
18 272
28 223
26 143
21 54
27 162
8 48
9 152
8 16
9 182
9 34
8 60
11 198
9 151
23 272
27 198
7 88
8 61
15 270
10 201
24 96
9 211
26 250
12 252
6 7
8 131
26 118
25 260
8 130
24 260
7 92
22 53
28 209
10 216
27 222
27 161
26 251
21 59
27 148
26 135
