2 115
77 27
58 144
22 78
86 102
62 166
79 133
81 96
38 110
78 35
49 136
77 39
75 155
56 176
3 106
50 133
73 15
54 165
52 181
9 100
77 34
52 166
57 20
29 106
70 5
88 107
84 183
76 135
53 34
56 138
13 93
52 179
19 81
55 177
56 20
79 53
86 185
27 112
76 174
33 62
39 58
60 6
79 59
62 4
90 174
52 43
79 134
84 132
73 141
7 102
41 112
92 131
57 16
35 114
51 181
85 135
13 119
25 71
92 177
50 131
6 111
27 68
50 180
57 141
54 142
79 162
87 104
51 123
52 38
58 173
14 120
56 19
60 149
57 156
51 45
79 77
87 171
81 181
76 30
89 135
73 137
74 11
69 5
72 143
28 115
51 130
48 50
80 163
92 134
73 170
53 168
50 123
60 151
11 96
57 19
57 22
81 179
51 116
65 4
83 132
73 140
87 185
74 137
29 110
75 28
37 109
79 74
29 116
91 132
73 152
90 190
52 137
50 120
22 76
44 55
78 39
