2 154
6 165
117 62
9 195
91 267
6 218
34 62
119 147
6 146
8 151
118 124
116 140
21 107
93 62
4 121
62 95
119 65
119 90
70 96
6 62
81 80
34 64
86 267
9 196
119 100
98 58
61 93
116 34
7 219
5 157
104 256
8 230
58 91
56 91
20 55
34 61
5 64
95 12
4 128
9 210
64 96
8 60
120 108
22 266
3 125
4 139
78 274
123 228
8 229
18 94
119 78
119 117
117 41
6 157
119 50
125 201
98 34
49 283
118 67
22 108
4 133
16 255
126 191
38 78
117 145
23 56
10 197
131 157
5 140
123 231
38 282
36 282
116 142
43 91
12 86
3 133
7 76
115 30
102 5
58 283
10 206
128 185
34 279
9 166
125 210
115 243
57 283
16 256
7 73
8 181
77 86
117 131
107 12
50 283
100 42
9 208
8 80
53 92
40 79
130 168
98 41
10 198
119 123
6 160
119 94
130 154
117 133
62 280
66 278
105 256
116 39
7 67
66 95
5 139
115 141
24 56
7 214
117 144
79 82
94 61
6 244
5 69
89 70
24 107
6 235
5 163
75 275
44 92
40 84
96 20
118 75
126 205
120 87
33 276
99 35
103 6
5 137
24 108
7 165
125 216
69 95
9 179
119 64
56 283
11 111
8 115
8 223
61 92
125 213
5 71
129 170
64 280
92 62
5 162
15 57
