2 152
12 101
97 165
96 164
83 161
31 172
130 68
59 162
113 162
52 200
48 216
81 208
102 138
118 83
33 47
113 83
95 213
119 93
108 90
114 82
93 51
93 165
4 79
80 173
79 162
99 94
52 198
33 158
7 63
9 109
52 12
4 75
76 9
119 167
108 86
120 166
9 93
86 165
35 149
100 165
33 161
83 20
77 205
88 36
107 150
57 192
22 54
109 85
59 187
51 200
118 162
126 68
62 167
79 206
127 87
10 108
61 164
94 212
76 12
79 13
32 171
98 123
110 92
108 64
124 86
87 33
37 141
13 106
84 187
18 118
120 91
87 29
94 55
15 59
135 76
41 30
130 79
8 111
60 210
26 127
43 175
115 164
98 165
45 214
13 104
102 86
114 156
97 164
95 59
94 59
120 165
32 50
90 196
83 183
136 78
87 193
101 136
16 59
97 120
121 86
105 147
121 64
7 70
35 40
91 198
125 88
89 162
54 197
52 201
82 157
70 202
101 141
131 79
50 202
79 164
54 214
80 207
83 160
15 60
114 157
103 163
56 190
96 107
106 91
83 181
90 43
38 144
14 102
95 165
121 65
31 174
79 161
62 181
84 186
44 24
32 48
60 163
58 188
109 152
13 101
98 215
9 54
21 127
101 140
32 164
110 152
90 213
60 162
83 208
16 53
90 40
72 5
106 165
