2 145
37 312
51 89
4 220
3 219
77 242
67 147
47 18
33 56
76 248
54 309
70 173
27 162
25 272
23 206
41 321
42 326
3 217
35 46
86 222
33 303
78 214
25 177
71 267
29 150
42 13
51 90
52 37
29 133
30 115
23 260
59 121
35 37
41 325
43 327
36 26
22 241
51 12
29 127
25 274
71 287
24 194
45 28
28 98
20 208
34 37
16 228
45 27
46 40
50 321
33 59
55 101
24 266
37 313
73 188
27 167
51 44
30 65
45 20
79 223
72 262
52 61
76 201
57 307
40 15
48 35
29 77
42 11
53 316
29 154
59 306
63 157
29 79
32 57
53 313
78 219
26 173
79 233
61 133
24 190
65 148
75 197
46 20
51 43
24 262
30 144
51 317
63 139
51 72
47 6
83 230
48 6
62 111
29 149
50 93
28 146
29 92
29 94
25 252
69 302
50 88
34 50
74 257
46 19
66 148
36 31
24 265
25 255
15 207
24 272
28 101
50 67
62 116
61 116
79 224
57 126
28 154
25 191
77 202
70 295
28 104
70 298
33 53
28 157
50 95
55 100
23 249
84 221
71 172
19 230
46 21
53 98
40 321
48 77
28 86
23 238
78 216
58 131
25 264
59 107
73 181
82 222
6 224
29 135
46 9
52 11
