2 146
59 180
59 290
62 275
69 249
47 126
46 88
69 245
26 172
18 270
75 224
22 216
19 277
55 166
47 325
46 33
35 44
22 219
52 152
7 220
31 97
76 218
46 36
52 154
30 116
21 209
76 220
21 211
40 19
45 112
44 99
32 100
32 322
35 326
65 228
73 215
45 106
28 132
49 144
31 82
65 267
18 254
45 70
30 141
24 197
74 230
64 217
31 62
34 47
21 232
42 5
77 223
8 224
46 85
45 114
69 222
25 190
65 266
28 130
18 246
55 169
46 79
55 165
46 21
54 161
48 134
19 247
62 200
71 239
31 152
18 252
17 260
22 226
45 99
31 121
19 276
64 266
26 309
45 113
31 143
69 244
18 274
23 224
61 281
49 143
22 297
18 277
62 274
64 231
18 276
16 229
44 70
66 259
66 263
31 100
27 171
62 209
61 278
60 286
45 103
30 107
29 134
31 53
39 12
73 234
37 329
44 71
45 329
44 61
62 205
63 202
64 218
45 110
28 129
28 313
45 102
3 220
67 226
30 57
31 99
55 296
31 137
25 307
63 271
73 232
44 109
44 55
44 60
47 28
32 140
29 129
62 210
33 50
44 49
38 332
66 227
31 65
40 21
31 116
45 100
77 221
52 151
61 277
57 171
62 207
45 125
62 278
