2 153
68 53
7 111
66 181
16 28
40 18
39 125
48 165
29 120
43 62
39 124
166 123
15 123
149 174
50 80
43 67
95 60
153 165
117 191
164 106
135 185
22 92
122 32
126 53
144 76
74 60
113 30
41 12
23 5
11 125
101 40
129 50
119 191
163 152
53 167
75 59
161 150
41 145
51 80
129 70
17 13
42 158
89 190
143 75
51 81
10 108
157 93
44 72
28 4
43 29
92 62
152 87
40 15
166 137
40 20
125 32
132 185
96 189
120 63
153 87
11 15
50 79
25 89
19 93
19 124
42 155
9 100
147 84
153 90
123 67
98 52
45 77
152 85
12 13
136 75
40 132
103 195
120 191
42 27
40 56
46 87
28 120
113 192
94 61
40 142
67 53
40 57
79 187
17 123
115 30
41 20
44 150
39 123
163 118
31 86
92 189
58 43
22 34
163 156
153 166
21 92
145 79
98 49
62 46
28 88
164 137
92 190
108 191
115 190
10 109
80 64
77 186
141 75
97 48
52 84
41 17
10 102
44 31
150 82
41 16
38 148
167 129
65 178
50 168
52 89
152 170
162 157
163 119
60 178
83 63
39 145
37 6
42 23
41 134
38 10
42 63
147 178
146 78
12 19
50 83
103 193
96 190
31 4
13 124
88 64
102 194
56 43
58 44
46 162
41 24
136 182
151 89
8 106
64 51
