2 154
28 354
34 134
20 14
40 6
10 104
8 275
9 114
34 102
5 207
34 127
39 80
30 60
30 61
29 290
33 232
12 77
6 165
6 176
15 320
34 174
6 153
5 212
5 194
28 344
34 235
29 44
30 40
33 74
9 104
10 110
28 54
15 312
17 45
33 35
13 302
14 313
28 355
36 7
5 175
15 30
5 260
36 100
34 187
11 289
12 76
6 222
35 124
3 249
39 22
16 315
16 31
31 275
29 315
17 40
34 116
12 74
41 81
34 115
36 30
29 339
30 318
29 309
5 221
5 210
9 121
9 123
40 87
31 284
35 139
14 11
34 73
5 268
5 266
35 104
33 161
29 363
39 18
33 11
4 265
28 325
25 355
16 33
33 71
21 13
30 296
33 230
37 94
24 350
18 323
35 107
6 152
21 8
24 345
5 201
13 72
23 17
7 91
6 266
28 47
34 177
33 156
33 214
9 116
6 174
7 148
23 339
28 347
31 38
32 270
22 337
9 279
33 201
10 102
15 314
34 137
9 120
38 91
9 115
9 97
26 361
19 322
11 86
33 256
15 32
10 84
10 103
41 83
33 160
4 237
30 314
21 16
34 135
5 228
21 323
27 328
12 81
38 77
5 173
21 12
7 149
33 187
33 200
5 262
6 191
16 36
7 135
41 5
32 71
33 155
15 29
28 323
18 56
5 219
14 23
