2 117
107 164
11 184
82 223
83 9
102 118
42 47
88 68
46 244
50 246
74 11
108 157
89 19
22 88
85 11
13 211
39 11
39 21
14 212
95 131
100 89
108 150
17 95
53 5
58 246
82 222
43 50
93 183
96 148
27 75
8 130
16 216
67 237
110 146
43 7
96 142
34 61
50 7
103 171
18 95
51 6
95 180
12 116
104 112
102 108
92 193
91 190
102 90
6 163
73 6
74 9
47 6
67 238
90 71
43 241
79 47
85 33
95 75
87 207
4 154
11 125
90 199
86 32
100 149
46 7
11 194
10 124
108 158
36 55
74 6
85 213
87 30
5 162
86 210
23 84
12 199
16 102
14 210
95 148
106 166
81 56
38 14
35 57
69 4
38 21
105 166
79 56
12 192
88 67
87 211
13 200
103 106
25 77
103 105
6 174
104 148
38 23
105 146
78 50
101 87
85 215
86 31
80 47
79 227
109 149
67 239
38 16
48 243
34 62
104 169
76 231
90 18
8 132
11 182
59 3
97 176
40 29
108 145
