2 150
36 163
72 3
46 183
48 193
105 44
36 78
113 71
46 37
35 85
114 84
111 274
81 229
34 249
37 68
77 221
105 274
98 269
44 235
152 112
47 187
126 154
95 268
93 204
43 172
55 254
12 129
118 182
51 212
82 212
100 199
67 10
22 266
78 222
24 119
102 196
73 254
143 101
56 14
48 197
55 15
51 213
80 10
36 97
101 196
94 26
117 182
107 261
88 207
102 195
32 251
150 107
129 157
27 156
91 19
121 152
66 8
27 258
122 177
35 108
20 269
101 38
111 143
111 272
82 10
95 248
110 142
89 18
106 47
114 127
41 54
116 121
147 122
130 96
48 32
74 3
20 153
110 64
16 125
46 189
131 157
131 128
35 103
140 127
40 241
135 163
77 255
113 149
38 62
124 155
109 266
131 158
98 200
84 11
83 212
113 150
51 222
129 156
64 15
110 63
27 259
107 53
114 76
100 198
53 218
43 235
98 35
122 94
25 276
139 99
31 253
19 277
16 151
111 69
111 145
40 55
134 163
115 184
115 90
102 39
129 128
118 183
39 167
153 110
24 263
52 21
75 4
3 140
147 103
56 15
66 9
150 115
72 4
10 131
125 154
113 136
112 270
116 150
39 63
23 278
66 10
90 204
51 257
65 9
35 247
62 15
52 212
119 93
147 119
73 3
36 268
