2 182
61 79
47 298
89 88
44 312
30 173
32 162
6 3
76 19
84 87
96 35
94 95
101 27
61 71
91 236
77 345
84 279
82 311
30 167
39 147
27 192
25 213
27 219
77 343
84 293
46 136
83 119
27 226
84 152
84 284
90 111
87 88
84 281
84 277
83 122
95 229
30 170
89 49
26 213
41 145
79 328
86 181
60 84
45 321
62 79
77 68
85 52
23 8
86 54
105 11
14 8
84 285
108 17
84 158
93 40
49 129
33 157
95 101
104 23
62 68
92 193
28 177
99 7
94 97
11 7
45 135
37 152
46 296
85 177
100 202
59 101
78 17
84 169
106 22
84 291
88 248
36 267
26 223
78 332
26 216
77 17
88 253
103 214
89 7
83 298
84 7
32 260
27 227
44 307
26 196
103 210
33 163
87 260
84 121
47 292
41 142
37 269
91 238
18 3
27 230
75 353
88 91
75 352
29 178
61 91
48 119
108 13
41 141
88 115
61 73
74 358
43 138
82 151
62 72
87 253
44 302
97 33
89 91
103 211
77 64
85 288
83 160
107 16
61 70
88 88
76 350
89 188
49 133
100 205
80 322
86 269
12 7
83 289
62 82
94 234
14 7
77 332
102 7
83 54
1 4
99 28
61 346
69 356
61 80
76 69
94 103
32 159
77 72
82 302
102 206
62 76
45 312
83 87
39 275
22 7
82 56
101 28
80 321
90 91
94 232
53 38
83 146
59 96
46 326
82 124
44 310
52 333
75 18
10 8
26 184
62 70
72 357
84 6
77 338
23 4
28 5
59 103
37 270
81 57
58 36
85 285
100 28
30 256
