2 166
138 175
22 155
86 220
15 153
41 83
45 44
159 99
39 86
51 186
183 147
122 14
138 34
49 181
24 86
13 96
116 7
14 129
137 115
159 120
133 39
54 43
113 8
140 26
42 165
136 178
155 166
179 128
107 9
157 105
53 42
138 177
154 168
160 163
116 206
12 95
96 218
126 43
124 196
68 23
41 77
76 219
111 211
125 15
21 155
31 160
90 7
143 110
14 96
105 6
15 100
138 31
26 99
129 191
21 110
14 114
14 124
57 42
15 106
115 207
156 70
184 131
185 140
161 162
43 47
138 48
73 46
144 47
157 64
147 51
4 132
151 52
115 10
31 155
138 174
157 91
81 46
75 38
125 44
9 138
156 59
156 105
147 120
12 96
28 167
142 49
34 165
149 118
15 103
18 106
65 40
18 114
104 5
122 198
157 59
144 48
138 35
47 176
28 155
71 211
73 33
156 91
44 58
31 167
31 166
157 88
115 206
66 206
47 65
20 155
151 74
40 82
25 101
39 81
117 204
98 217
170 159
46 66
43 165
56 192
120 11
71 213
143 122
47 43
9 137
44 59
111 210
77 50
85 47
129 48
105 7
74 33
153 78
84 46
73 12
136 21
13 114
21 88
29 82
64 40
156 69
8 117
172 121
130 42
20 145
115 6
49 44
35 84
89 7
21 90
127 49
5 114
136 114
153 166
83 51
153 72
8 120
18 97
4 135
86 221
10 122
14 95
71 43
61 198
123 14
91 6
126 44
