2 93
61 91
14 7
11 149
44 38
58 107
15 63
15 29
60 143
6 123
52 21
61 126
17 30
59 159
63 79
46 185
57 122
26 3
67 131
53 13
13 163
5 129
8 110
15 67
9 98
57 118
41 35
46 9
51 10
59 161
11 135
14 45
65 83
16 53
33 183
64 130
19 5
54 14
56 167
60 100
47 27
51 50
22 38
61 125
11 22
61 144
9 16
45 39
12 25
55 170
10 20
11 137
54 59
10 147
21 45
14 41
57 165
14 44
55 60
58 112
14 67
20 177
4 118
58 155
43 10
55 9
54 171
16 30
19 177
57 144
6 112
14 71
43 31
13 74
62 92
20 45
24 4
43 39
62 89
57 115
63 88
59 124
65 130
59 155
63 143
39 6
24 3
74 137
13 88
49 10
11 146
62 76
10 93
63 86
