2 145
84 8
108 177
121 76
117 59
40 212
64 238
72 3
12 155
88 236
103 182
27 56
122 80
77 259
43 166
53 12
94 254
30 225
12 251
126 93
94 15
124 86
90 267
5 141
21 84
14 263
27 153
64 5
79 6
3 148
96 259
79 218
131 108
125 120
114 50
47 184
87 266
125 90
15 245
35 37
68 245
97 19
84 262
49 195
12 247
17 105
19 96
97 267
24 151
88 237
48 199
79 220
35 165
77 199
79 260
110 176
46 169
79 219
96 272
128 99
107 179
85 233
10 123
88 196
120 79
28 52
133 124
40 213
5 142
21 76
51 238
47 187
14 244
77 210
57 237
49 238
63 5
128 137
20 260
131 159
7 137
130 158
82 262
124 128
49 193
32 251
29 47
15 111
115 174
91 246
70 244
93 16
130 163
131 154
106 30
41 247
125 131
11 155
98 262
114 49
46 178
32 43
103 26
95 252
117 62
73 5
41 211
120 78
31 159
115 51
49 194
11 122
49 21
48 184
130 148
104 181
131 111
13 114
121 81
20 93
76 199
113 47
83 261
65 240
96 255
41 167
6 155
7 260
129 142
130 125
6 135
48 198
39 248
66 241
99 21
122 169
94 252
91 192
18 150
86 9
21 79
88 266
94 17
33 41
72 5
52 237
