2 129
94 171
125 122
5 115
32 155
99 35
84 6
86 35
106 130
51 182
109 103
8 123
68 11
50 37
126 110
68 12
118 126
96 165
106 97
108 57
78 13
107 58
98 9
100 67
5 95
104 45
48 40
49 180
107 129
93 8
119 108
6 92
36 160
61 192
37 162
67 191
56 193
15 133
103 49
48 36
101 34
12 123
5 101
50 39
51 40
14 129
71 190
126 111
86 5
102 54
23 70
16 132
4 118
8 97
126 119
124 121
101 154
90 33
49 17
27 143
89 24
63 9
56 38
11 125
17 75
100 35
73 14
4 117
103 63
59 37
75 13
59 32
7 122
14 85
10 123
35 158
14 89
27 145
23 135
95 167
122 110
68 190
24 74
21 53
22 43
101 152
84 194
110 96
8 99
20 133
93 7
69 190
19 133
96 37
48 177
56 28
52 6
98 71
97 14
103 52
103 97
91 6
50 181
101 36
102 38
72 14
103 41
105 130
46 13
25 140
104 130
58 37
25 38
53 8
55 27
109 102
24 133
51 37
89 181
102 64
32 35
10 122
61 3
106 61
104 140
25 39
29 58
118 107
101 92
101 91
