2 108
15 134
28 191
93 142
41 7
21 41
83 39
99 75
10 120
16 136
68 211
99 76
30 167
76 22
72 210
99 77
87 212
88 200
76 23
81 187
81 189
8 116
116 61
94 96
61 211
5 68
99 80
75 23
28 25
78 29
5 97
84 159
25 29
84 194
4 84
6 109
12 130
94 97
91 145
97 128
100 82
95 94
77 26
22 146
94 140
79 29
80 185
36 177
87 200
42 211
20 144
118 63
92 105
75 22
79 168
87 209
57 4
93 110
6 62
40 211
96 126
96 123
12 128
88 207
104 75
83 191
118 64
12 56
24 199
95 95
5 63
93 102
9 119
60 6
5 73
84 212
45 211
7 112
4 96
5 96
14 134
14 133
120 72
29 190
95 114
11 123
32 14
27 213
4 76
95 135
108 58
39 210
112 58
6 105
3 82
86 43
11 56
3 80
27 191
22 36
29 165
52 3
73 170
4 75
33 184
11 127
23 208
69 210
37 175
