2 169
13 121
71 57
108 123
27 74
49 3
29 229
73 140
69 296
19 191
57 284
35 25
30 53
50 3
42 281
22 138
69 51
23 137
62 280
29 56
97 128
17 122
80 96
19 324
32 36
57 314
53 317
76 71
35 264
20 149
78 233
30 307
11 348
78 218
12 342
19 185
41 277
33 30
30 306
37 20
73 213
74 216
28 228
69 187
30 240
12 121
28 80
76 70
81 129
70 165
75 234
41 284
64 262
95 105
25 254
7 109
66 269
30 238
66 239
26 264
24 130
64 264
72 147
18 187
31 37
28 264
72 317
41 327
20 147
41 285
41 269
64 34
96 107
104 114
6 109
61 314
81 227
11 344
70 53
18 184
20 157
66 279
72 157
63 27
79 95
26 69
59 314
63 291
67 270
15 336
65 204
74 87
66 274
92 103
72 136
68 194
74 234
100 127
38 13
60 255
34 264
29 55
26 90
77 312
23 131
55 316
41 272
73 235
27 311
77 71
36 294
71 300
40 270
70 55
32 241
4 119
58 286
59 14
17 328
30 40
19 152
35 23
29 247
27 70
26 75
18 185
15 123
19 261
19 188
26 353
32 45
77 129
40 12
19 186
107 121
97 107
33 264
31 43
62 290
71 175
78 81
36 296
14 122
33 304
59 277
38 290
27 309
71 155
25 128
18 173
40 272
77 77
19 263
59 252
28 57
27 60
69 185
37 18
60 254
107 118
95 106
60 253
78 316
39 289
93 104
70 158
67 197
22 97
78 73
57 280
