2 170
123 78
117 141
112 241
105 260
132 77
10 135
4 116
87 240
116 145
116 205
5 106
26 187
65 259
94 252
64 196
7 109
121 155
115 203
61 13
118 127
155 93
24 194
39 156
57 14
134 78
66 256
31 178
112 243
39 158
68 204
113 201
39 160
90 247
103 259
61 225
52 20
50 25
36 59
37 58
60 224
124 165
95 252
114 260
120 70
22 197
110 202
145 80
91 210
68 197
123 157
118 66
50 206
16 137
114 51
108 234
9 100
107 260
57 234
111 199
117 61
22 200
35 155
60 14
50 257
135 181
69 202
96 21
93 249
67 208
50 264
34 173
154 98
102 259
90 246
26 210
92 15
114 202
129 78
68 15
12 127
119 68
21 146
125 165
136 182
135 180
35 156
112 240
118 64
103 228
36 167
143 196
114 247
47 208
38 164
38 55
55 18
33 74
125 113
83 4
33 212
84 238
48 207
33 66
128 175
56 233
152 84
101 29
28 185
98 258
49 251
111 241
62 202
77 3
50 256
18 132
54 207
35 154
125 157
106 32
49 26
15 97
7 108
110 262
12 135
141 199
116 251
141 78
110 198
149 82
55 17
110 200
121 154
21 144
16 142
7 117
41 211
117 259
17 96
108 260
63 219
90 13
147 81
61 203
63 260
32 210
86 238
120 73
6 109
26 149
72 15
37 210
44 209
111 42
136 79
118 138
4 103
117 140
29 182
39 161
155 94
64 197
34 63
98 25
155 98
112 47
12 134
92 211
144 105
29 210
48 27
