2 185
15 262
93 178
64 133
112 298
88 127
63 326
70 85
39 356
16 263
94 214
61 380
71 4
99 92
63 125
20 265
6 249
52 217
94 219
66 71
83 382
104 372
108 343
100 92
38 356
106 326
39 354
67 343
113 363
85 75
56 282
94 231
63 118
70 3
74 32
94 232
98 255
42 272
88 123
116 282
52 199
52 207
51 222
103 331
35 269
88 112
88 119
102 345
61 141
67 80
81 60
100 183
76 382
114 277
91 148
36 359
65 46
117 359
69 84
111 340
57 285
120 339
103 335
104 93
61 300
86 77
106 97
51 347
27 244
99 195
15 260
17 262
52 211
55 380
64 317
61 145
63 327
46 345
65 15
94 237
65 41
100 91
50 277
95 232
73 100
51 279
65 20
88 125
103 327
37 369
70 89
96 91
51 206
60 380
84 382
58 158
63 329
92 153
68 83
98 197
98 195
96 180
64 17
89 117
118 360
57 380
51 233
116 360
68 6
115 276
65 55
100 263
81 381
38 359
72 7
102 335
90 146
65 115
13 246
95 221
51 213
59 153
89 87
72 100
63 134
95 212
53 194
36 364
94 216
109 309
52 201
93 173
48 243
15 39
71 104
105 99
30 243
65 339
53 197
93 159
114 274
64 30
55 175
51 278
89 120
66 341
52 210
65 333
55 181
89 128
115 277
8 254
101 185
69 382
95 240
50 240
57 284
66 64
87 82
115 286
107 316
58 160
67 9
71 8
101 342
95 241
10 256
121 354
65 346
95 246
59 151
66 344
80 54
64 52
95 220
70 102
65 348
56 170
65 337
106 99
8 247
64 330
65 25
79 56
65 38
95 180
