2 149
15 130
88 8
8 156
8 144
96 252
90 62
31 110
26 124
48 251
15 176
107 93
42 241
27 77
57 64
106 22
106 66
105 170
104 112
13 170
105 114
25 80
86 8
106 157
20 184
54 8
75 272
19 148
105 165
55 22
105 152
25 193
52 65
103 61
102 137
16 172
105 10
25 126
74 272
105 77
4 160
107 67
58 46
79 274
95 255
105 172
105 23
104 204
106 95
103 230
17 141
71 274
105 21
16 141
10 144
29 116
56 66
30 114
95 257
89 8
28 93
102 10
30 119
105 169
17 149
8 175
104 199
29 203
101 219
28 99
99 241
47 251
39 225
100 222
31 101
38 220
99 8
57 34
105 201
99 129
60 55
31 125
52 259
29 202
106 165
30 211
97 245
103 141
91 54
45 65
96 47
100 231
30 209
105 78
106 184
71 5
95 254
33 214
14 179
104 200
96 250
21 185
17 148
94 255
96 244
18 148
20 146
106 170
87 264
8 157
31 107
18 126
57 42
104 117
92 52
27 76
86 267
102 212
67 3
29 77
90 63
100 8
29 198
96 45
6 157
106 13
106 100
55 31
104 203
54 28
97 8
106 97
19 145
99 40
30 103
25 130
26 87
104 23
107 74
58 4
32 110
42 243
39 220
103 208
63 269
42 234
57 53
10 167
17 144
106 79
