2 191
10 124
44 174
245 183
7 155
186 233
192 54
209 266
138 248
186 271
181 50
228 81
158 35
121 246
245 95
50 183
169 261
258 119
33 108
102 235
204 223
84 67
204 10
53 87
142 45
45 175
133 48
116 243
22 116
259 96
147 250
69 203
215 76
116 244
77 211
215 271
17 138
202 44
123 245
260 83
44 94
197 239
223 78
167 25
184 40
178 265
185 229
219 77
71 75
253 69
173 18
156 37
163 28
217 77
251 73
214 38
228 202
202 4
57 191
234 195
122 51
105 58
17 160
208 265
252 161
201 46
236 93
128 246
103 58
208 55
235 98
172 18
33 166
205 254
257 115
189 29
237 191
104 236
101 60
162 249
262 67
48 179
8 146
41 99
211 72
259 62
268 158
236 96
120 51
122 245
17 133
78 212
187 55
258 90
258 116
211 284
103 235
199 221
74 73
162 252
9 146
148 42
235 90
10 156
194 27
213 48
206 42
193 25
215 213
239 107
217 76
140 248
204 43
243 99
67 78
82 215
209 221
117 244
251 74
196 50
247 177
69 202
233 87
163 250
18 136
182 231
185 234
91 225
190 235
228 201
256 64
210 223
207 55
193 23
236 97
190 27
214 213
129 48
24 116
265 152
194 224
254 71
102 236
47 179
172 20
73 74
16 120
187 227
182 268
39 101
176 15
209 53
245 181
206 282
204 12
151 249
27 114
255 151
235 101
193 276
198 21
206 6
246 92
259 155
104 59
226 80
209 54
47 178
261 137
190 28
184 52
192 53
255 68
209 219
31 110
57 190
100 234
177 264
182 47
21 160
205 44
206 261
240 187
207 42
66 77
167 258
263 145
81 215
193 24
260 131
242 98
207 263
