2 142
50 37
53 47
32 94
4 158
26 66
59 221
88 7
59 22
37 179
6 152
82 184
28 61
86 124
55 217
37 5
11 129
92 77
57 20
83 185
112 56
84 155
80 9
6 159
87 10
76 27
69 17
39 186
68 48
86 153
38 183
84 128
108 144
40 65
86 121
85 129
43 195
29 75
93 77
83 170
43 197
48 207
77 27
69 216
6 153
84 57
13 116
20 159
53 52
10 158
34 167
29 103
84 156
69 219
108 137
89 80
54 54
73 210
8 153
33 160
8 138
37 178
36 13
85 87
49 15
30 60
98 59
69 42
16 108
43 24
28 99
17 127
59 21
89 58
57 219
65 22
99 142
40 185
70 56
99 143
70 55
32 162
82 176
83 184
110 144
33 167
102 149
17 123
23 159
91 58
43 21
40 186
83 178
87 84
110 64
9 155
47 32
34 65
35 5
83 177
86 14
33 169
69 55
69 49
58 222
66 223
73 32
19 113
84 118
97 151
110 143
90 154
75 57
86 13
81 7
70 19
85 85
84 163
82 181
4 150
94 55
60 221
98 73
42 9
71 59
86 98
43 64
84 173
35 6
17 160
33 166
52 63
55 18
36 173
78 26
43 9
87 83
37 15
56 218
85 123
53 50
41 7
16 112
