2 183
36 140
35 165
109 97
6 104
110 117
40 13
12 34
111 131
93 190
6 184
112 209
43 250
35 179
6 160
91 197
4 117
5 103
35 106
37 158
14 27
7 64
5 106
36 145
18 228
107 76
37 90
111 125
35 110
6 169
10 207
41 27
95 134
6 58
110 137
36 107
35 134
38 61
6 88
19 19
50 229
29 4
110 126
15 220
6 80
97 112
56 252
10 43
60 253
8 200
6 61
84 247
14 26
5 157
98 121
37 9
109 86
36 143
113 160
6 83
40 37
35 131
32 21
93 169
72 251
41 221
37 153
35 163
82 248
112 163
37 148
95 237
9 201
112 189
108 81
8 201
9 47
94 157
98 88
108 76
41 24
50 251
30 3
99 78
7 49
40 17
5 122
97 119
38 215
11 213
40 51
6 90
99 84
37 145
6 79
32 13
41 13
93 182
113 197
110 216
97 93
114 158
114 161
5 79
111 130
6 170
110 123
10 42
101 232
19 230
31 3
7 181
72 227
101 71
24 235
69 251
34 17
93 192
5 175
111 149
110 217
35 184
35 115
5 89
47 251
36 184
95 130
109 101
7 178
67 252
112 148
36 205
24 10
36 113
33 21
56 253
109 219
104 227
6 69
31 244
36 180
97 104
31 17
95 138
32 5
97 102
12 212
36 96
5 158
37 146
94 238
83 217
109 103
108 218
109 100
16 224
113 196
107 70
76 249
7 190
109 83
35 182
84 216
6 175
23 13
6 172
94 171
4 116
93 188
36 123
8 192
89 209
4 136
87 213
94 152
8 195
41 219
93 161
94 142
113 186
110 132
110 112
36 204
35 85
