2 109
61 175
14 55
25 13
50 14
14 95
64 152
17 127
16 41
16 125
71 75
36 235
15 123
56 211
36 236
13 63
53 9
70 105
16 33
23 17
69 108
26 12
64 46
13 61
59 35
64 153
71 76
28 205
12 70
53 13
19 139
28 209
55 10
57 31
23 151
13 66
64 145
58 207
47 4
43 8
63 160
57 216
12 67
20 138
7 83
68 57
29 209
27 188
20 143
50 256
52 242
35 254
49 5
35 238
18 26
64 146
25 161
65 132
41 258
56 222
15 121
10 79
50 5
58 194
55 229
37 5
69 116
42 9
34 253
59 180
52 244
14 98
50 255
15 104
64 134
22 19
31 230
29 220
15 94
62 157
58 186
29 199
57 217
52 13
71 77
25 182
56 29
70 96
29 201
34 254
24 16
21 144
16 117
63 44
71 89
64 127
36 243
62 160
16 123
38 259
28 193
14 103
55 228
14 99
49 258
71 96
29 215
24 174
25 12
72 90
