2 83
19 156
15 38
61 129
14 45
4 103
59 184
55 78
61 108
7 117
58 90
60 147
34 164
33 3
48 32
34 183
43 195
59 96
56 158
57 86
34 187
59 182
11 136
19 26
35 174
59 71
12 53
9 58
61 105
53 57
40 11
58 73
16 32
57 175
25 9
29 152
4 102
5 111
13 50
58 167
24 156
23 156
4 77
57 164
8 124
5 104
21 15
31 157
57 151
62 115
48 194
61 141
9 128
46 29
51 45
5 77
7 121
4 80
56 190
62 134
44 194
46 27
59 147
39 13
47 28
62 126
61 113
58 151
4 75
5 113
48 39
13 51
14 148
47 33
17 151
55 61
12 51
12 144
33 167
48 36
62 131
7 61
28 4
5 79
