2 95
19 82
52 113
41 4
49 93
8 112
17 7
59 174
11 15
8 93
18 81
12 15
33 172
53 131
12 123
12 11
25 16
25 60
64 180
13 144
51 132
20 32
15 66
13 70
14 24
41 50
18 87
41 35
67 178
43 10
15 65
54 67
50 173
67 181
13 135
14 150
59 126
57 128
49 142
14 144
63 180
53 168
43 153
14 137
57 171
49 84
31 21
13 95
62 179
44 13
50 89
28 19
13 133
50 164
18 10
14 157
14 70
17 94
41 56
49 173
67 179
12 118
50 106
63 181
3 96
26 55
57 117
50 87
55 177
48 141
44 6
44 60
26 45
42 4
24 38
18 11
20 11
25 61
56 115
13 141
13 127
50 97
38 10
46 148
20 166
42 51
50 96
12 21
30 174
39 6
21 33
51 76
26 171
21 13
49 163
16 77
