2 157
42 341
65 84
6 36
92 298
73 321
28 94
38 303
84 224
37 297
34 174
85 236
80 214
17 24
82 220
77 208
5 25
38 244
70 179
40 213
86 249
40 321
41 65
42 125
85 243
72 184
27 91
53 360
6 6
37 300
29 159
65 85
26 88
75 310
61 94
76 305
86 233
70 149
5 8
87 299
41 324
105 291
69 146
75 188
45 358
71 184
83 222
91 277
78 302
43 348
38 200
21 30
56 107
77 203
45 357
45 362
6 8
77 209
36 107
39 221
39 254
18 10
7 35
49 76
14 17
24 83
9 51
21 77
39 306
39 209
40 226
87 253
46 363
67 169
85 241
46 362
43 123
39 184
66 163
71 323
74 316
87 268
61 135
10 51
61 132
66 84
71 332
40 314
12 57
30 98
68 340
25 43
36 57
40 319
39 110
42 141
74 309
45 69
42 118
88 300
41 318
74 310
71 147
97 283
67 158
40 153
29 95
42 134
38 179
33 159
19 29
59 98
77 303
62 92
45 352
16 65
38 302
86 265
58 126
36 105
6 37
17 21
40 320
39 253
79 213
57 115
60 350
68 172
107 289
46 358
38 203
37 176
40 318
37 241
18 71
44 349
80 213
30 97
103 285
14 19
68 158
38 155
38 109
38 305
24 37
35 158
36 285
61 137
87 269
46 73
66 86
16 22
68 343
19 5
70 154
72 320
64 141
42 146
