2 225
21 357
46 377
6 320
4 192
89 84
13 295
56 391
31 394
105 25
40 358
113 254
110 240
109 221
56 45
6 160
118 327
30 76
31 328
4 164
118 358
102 151
22 86
76 394
110 385
122 24
6 321
108 205
109 224
105 133
4 168
55 390
21 363
7 320
94 53
105 174
67 393
42 365
11 299
97 101
105 171
28 351
12 132
102 118
19 318
28 384
98 101
122 16
105 136
52 50
114 313
16 285
8 235
106 16
122 9
14 267
6 216
111 250
119 331
114 283
107 17
4 349
123 27
112 297
35 69
33 399
103 157
10 140
109 232
5 164
119 357
90 72
5 166
13 133
20 98
88 78
25 363
47 379
121 349
103 120
90 85
95 92
26 312
104 173
23 348
45 378
58 393
17 328
118 323
106 125
101 110
56 46
13 291
4 338
108 387
94 394
104 140
29 322
112 292
37 380
6 328
18 118
38 67
109 13
114 385
46 55
24 364
105 177
122 18
107 16
19 322
90 62
18 116
14 296
22 360
25 80
41 366
38 397
105 22
104 134
108 222
104 146
117 365
31 397
113 252
14 333
104 22
16 284
9 314
45 57
20 108
103 144
109 211
23 352
121 13
117 374
39 355
22 350
110 57
120 330
97 30
108 209
105 183
32 328
62 41
125 68
38 66
103 158
33 396
108 54
39 67
34 381
9 348
8 145
39 354
49 53
11 255
108 227
104 147
36 340
5 159
113 294
47 380
28 349
16 127
61 41
105 19
116 318
36 344
104 27
113 246
118 359
11 245
106 124
23 363
115 311
20 310
3 337
34 69
108 15
11 340
13 281
60 393
22 352
24 363
118 4
41 361
92 54
71 37
122 42
113 288
122 26
55 46
5 328
15 275
120 350
102 391
90 74
27 311
114 303
5 204
115 263
24 83
109 387
123 20
10 306
32 327
105 23
13 282
36 385
23 84
37 344
59 393
29 320
104 164
105 121
21 89
47 381
114 262
122 69
23 349
120 349
97 31
116 323
121 39
103 162
