2 110
5 117
88 137
70 32
17 159
72 177
13 146
70 33
22 43
24 165
3 74
33 169
79 161
28 219
81 94
7 130
31 169
84 153
90 130
16 53
52 216
4 108
82 83
81 192
79 190
57 8
23 159
43 6
30 175
28 169
14 59
5 95
91 131
73 176
10 138
27 172
4 92
45 215
67 27
26 167
29 204
91 135
30 202
24 159
9 131
43 216
20 44
81 96
91 71
73 178
25 33
29 167
78 60
92 75
11 143
19 162
53 4
10 62
74 44
23 166
88 140
68 29
74 175
33 172
60 11
74 51
79 86
5 116
75 45
65 23
65 20
85 84
5 64
63 215
70 214
28 214
83 65
82 64
79 211
9 138
64 214
5 105
28 207
31 197
12 59
4 105
28 218
27 211
72 35
44 216
74 180
5 120
28 211
34 187
7 129
69 30
85 150
33 188
80 106
52 3
85 66
12 147
31 193
23 167
17 53
31 198
31 22
87 113
18 52
27 167
76 211
