2 100
28 194
36 205
66 13
70 143
11 151
64 164
8 90
24 34
64 159
35 203
67 148
42 7
59 26
71 101
62 168
4 129
15 7
25 52
48 194
13 17
67 75
14 18
59 27
15 5
81 128
78 138
14 5
21 183
69 6
35 204
69 113
67 158
27 192
62 165
17 7
84 136
64 15
65 71
3 120
68 9
81 130
55 53
37 204
11 156
73 140
22 62
64 68
17 175
6 137
47 198
20 29
70 89
47 6
48 198
70 142
64 3
54 185
71 92
27 46
56 37
10 146
11 79
20 180
60 170
4 116
6 98
13 166
80 128
10 8
66 157
72 102
80 138
63 19
26 52
11 150
67 152
73 128
12 163
5 124
4 123
26 48
54 184
64 70
67 4
4 101
62 167
70 87
84 131
12 164
60 8
19 26
57 8
5 96
26 40
10 83
41 201
3 110
25 190
71 109
42 6
