2 190
53 335
37 349
33 80
88 324
59 329
110 206
72 315
106 169
117 111
108 129
44 356
65 205
63 158
80 289
100 219
62 143
104 323
78 257
58 128
137 72
66 320
78 4
118 112
103 59
78 266
78 330
64 162
80 281
27 105
57 116
111 189
47 354
75 309
105 70
113 144
127 99
101 218
68 183
104 325
102 50
55 331
78 307
109 209
108 70
110 149
48 354
52 57
69 177
133 72
109 159
99 262
12 90
98 254
21 84
96 281
72 224
79 331
54 36
55 350
98 227
111 69
109 108
80 286
72 4
109 148
81 298
53 333
110 119
63 188
51 56
63 196
110 69
79 289
62 137
103 52
62 18
87 325
96 277
15 101
63 17
38 114
68 175
53 65
71 316
95 330
56 34
68 167
105 128
72 221
53 117
60 23
123 111
57 24
75 241
91 17
109 158
104 177
53 352
48 74
41 77
80 303
112 147
103 65
126 103
99 224
51 58
53 353
72 309
113 192
58 330
105 119
104 180
91 326
79 4
107 168
63 146
127 108
108 167
65 156
101 41
93 329
71 313
114 201
62 17
140 74
64 321
97 241
58 131
62 195
68 340
107 173
149 77
110 140
51 53
60 18
100 268
98 270
100 35
52 331
116 69
98 33
29 105
110 110
46 342
101 44
93 297
53 62
76 4
55 115
60 135
97 231
76 278
11 90
114 69
66 186
107 330
67 209
38 113
52 69
109 135
65 203
99 225
74 309
67 211
48 340
56 113
40 114
97 282
83 326
96 240
83 7
114 70
155 82
96 247
41 344
106 122
60 327
97 276
100 307
100 261
108 119
56 123
51 353
80 296
103 322
63 325
48 336
57 19
131 71
93 20
