2 98
23 114
66 76
73 46
24 100
33 7
78 120
6 85
49 4
45 6
27 90
27 91
36 168
78 113
26 91
21 14
30 33
15 86
49 176
22 14
35 71
12 74
62 6
21 65
21 119
55 40
27 86
33 6
76 136
33 167
75 149
24 101
23 86
38 44
17 68
18 158
70 84
62 179
39 43
73 63
21 127
58 40
12 72
38 54
19 162
25 14
76 146
67 173
44 6
20 15
75 60
26 24
65 64
55 41
61 15
67 64
54 40
17 151
23 103
59 21
46 6
39 48
22 117
20 65
52 179
33 32
51 178
25 97
29 65
29 168
25 23
57 31
60 9
29 169
77 111
44 173
13 87
17 152
43 6
56 3
16 69
38 57
61 5
24 103
17 147
21 85
38 42
20 131
7 78
22 172
78 124
7 85
35 6
20 85
53 5
29 64
68 167
60 17
63 68
