2 130
128 186
103 46
125 55
24 181
138 99
45 195
54 13
53 47
24 117
107 35
153 145
110 212
142 164
56 59
70 227
12 92
11 164
10 174
86 235
147 128
83 235
138 100
59 12
18 113
57 13
20 180
34 66
154 138
23 115
50 18
141 123
11 96
145 85
31 119
34 152
14 108
39 185
32 163
59 212
104 38
146 159
111 211
153 136
144 88
34 142
15 88
58 209
19 180
49 29
49 21
154 137
54 59
144 78
111 212
24 120
151 130
33 132
59 56
106 16
41 188
93 230
133 182
54 205
57 209
39 187
33 145
152 129
128 57
141 165
48 33
138 119
8 174
127 187
49 20
36 65
117 203
146 157
144 83
80 234
60 11
91 232
74 229
148 130
54 50
76 230
65 224
48 22
51 201
59 57
27 166
152 143
23 77
129 184
93 229
82 235
22 114
28 182
18 112
33 65
107 22
47 31
145 161
105 218
50 43
130 183
108 18
24 118
82 5
11 175
48 32
42 190
108 23
33 120
49 39
67 8
34 158
48 36
28 166
139 110
140 121
48 23
56 208
75 3
11 102
107 20
131 59
142 91
145 84
44 193
147 156
