2 93
27 104
56 170
76 152
102 76
72 8
40 148
106 105
14 72
18 65
14 126
13 125
86 54
91 60
74 40
28 102
33 135
97 82
82 143
4 118
14 68
45 155
102 72
106 113
3 118
83 23
19 128
27 103
17 78
76 45
27 90
102 118
28 117
78 147
46 20
88 55
45 12
38 50
103 105
31 132
108 107
71 157
29 109
86 16
44 46
92 93
34 52
15 75
65 166
100 119
86 51
34 138
76 43
84 140
50 33
77 149
24 60
39 146
21 84
20 83
18 127
41 150
43 152
25 126
75 38
61 4
56 6
18 126
47 21
14 75
91 93
29 112
6 123
96 128
27 118
79 144
50 163
93 95
95 62
14 73
99 81
8 118
47 22
26 121
21 129
106 112
100 123
30 125
69 162
86 137
28 112
47 25
16 67
93 131
