2 97
63 8
67 154
94 82
47 49
32 64
77 146
32 92
93 81
73 6
93 60
54 7
88 55
34 103
99 97
79 11
48 50
77 37
95 85
83 17
81 25
65 157
52 34
33 111
84 17
43 134
29 67
115 121
99 71
95 62
78 50
32 89
33 100
41 52
29 84
42 132
70 150
10 126
95 90
77 50
47 139
34 111
60 5
56 42
117 119
60 7
35 122
122 122
83 15
44 17
106 133
36 124
56 46
16 121
97 77
48 9
78 10
87 54
114 115
45 10
52 149
48 27
89 55
30 87
65 7
101 101
89 60
96 84
65 156
22 123
102 100
118 119
72 5
43 14
41 54
31 89
93 134
95 88
67 153
96 83
98 76
95 87
86 135
31 95
32 91
77 10
50 143
67 6
50 30
70 151
51 32
33 122
81 29
27 68
52 33
12 127
96 92
45 21
