2 136
76 293
75 294
76 59
11 158
74 28
116 159
70 298
117 187
74 31
45 12
98 94
75 31
26 49
117 190
36 70
29 100
9 171
34 293
5 204
31 95
8 213
98 263
16 23
25 47
19 252
17 241
128 205
74 29
75 48
70 10
116 155
72 14
75 53
62 306
97 265
30 18
30 287
18 243
38 75
124 215
16 233
128 195
86 282
50 12
76 39
12 223
122 193
17 20
31 287
15 141
111 109
23 121
13 151
4 204
117 182
118 120
16 137
117 175
116 156
59 308
50 309
61 306
35 293
110 107
12 155
22 45
116 169
18 35
119 222
4 196
24 116
103 249
108 105
75 38
23 267
14 143
4 190
37 297
120 145
116 192
78 72
17 243
4 205
9 173
11 221
22 43
10 218
76 42
96 91
73 19
127 195
6 184
17 18
20 255
18 249
5 203
111 234
76 294
71 9
105 243
119 148
24 46
114 113
19 249
77 59
116 196
6 209
18 245
74 16
106 241
119 126
116 117
8 214
117 178
19 253
14 226
129 200
27 278
102 101
116 116
15 229
89 276
13 153
32 288
27 106
79 74
117 170
117 179
124 193
118 152
111 232
75 42
119 145
119 146
23 124
117 118
