2 132
73 210
102 51
88 169
83 210
11 102
35 191
53 259
85 19
12 182
33 32
20 93
42 258
31 34
101 66
68 259
25 55
24 140
28 155
30 35
71 219
62 3
20 191
90 24
58 259
106 104
20 190
101 61
79 13
47 219
110 84
106 111
111 85
29 155
36 250
16 174
28 150
100 42
86 179
28 165
39 240
104 109
38 245
86 171
16 72
54 260
90 199
44 203
77 207
102 140
41 197
107 119
47 12
107 111
87 191
94 160
83 191
26 57
70 11
108 97
75 206
30 163
75 242
48 217
6 99
13 191
104 133
60 258
5 78
37 23
43 201
100 144
74 212
45 205
84 18
97 154
112 86
30 157
61 3
23 127
73 212
27 167
65 260
18 191
105 117
21 109
11 72
27 151
87 172
17 173
4 85
35 29
101 73
41 18
75 245
22 120
29 45
37 249
38 240
103 138
87 190
14 103
77 205
104 77
47 11
29 191
37 246
76 13
98 35
100 66
97 152
80 15
22 116
37 250
73 209
101 49
75 234
30 164
39 190
21 118
27 145
15 176
76 246
107 120
106 99
73 225
82 211
23 61
86 22
14 177
12 185
25 190
84 181
