2 93
28 158
74 54
40 38
74 47
31 169
104 144
37 46
15 54
60 7
37 17
73 55
69 17
72 46
48 3
16 77
22 148
93 157
15 121
49 3
59 42
15 81
13 88
102 95
16 71
99 149
17 130
33 164
7 69
73 56
60 50
32 55
94 156
64 9
4 64
11 105
11 106
103 144
36 14
35 50
66 47
61 6
24 154
81 168
34 51
60 52
38 18
92 81
84 72
37 23
107 135
89 78
99 151
109 129
74 46
70 46
41 30
62 51
34 50
43 6
32 169
20 56
50 4
65 48
19 144
31 165
108 119
62 38
12 112
86 73
59 51
68 23
108 127
108 113
69 47
24 59
12 92
66 175
18 134
10 116
13 91
4 62
83 166
27 59
35 171
12 87
60 176
57 7
73 52
11 96
74 56
37 19
74 52
10 117
