2 115
88 172
20 61
91 12
17 87
43 45
38 36
7 104
5 123
12 146
71 210
54 25
20 172
42 199
9 104
42 16
45 201
83 16
30 10
20 79
8 133
13 143
73 48
16 159
23 54
11 141
6 126
39 63
94 118
39 195
86 97
25 53
20 54
44 63
22 9
69 56
32 26
82 18
98 15
87 103
85 33
90 165
26 180
19 57
18 83
78 21
46 61
81 18
26 56
11 101
94 133
81 189
15 90
92 157
6 123
5 112
79 22
25 13
5 121
91 155
52 25
91 113
21 68
92 113
96 19
28 58
31 182
65 210
36 33
14 93
84 82
88 102
85 32
80 66
46 55
47 52
89 171
9 135
37 35
95 122
4 121
70 210
78 63
45 61
86 98
83 184
8 107
94 125
13 95
17 161
44 200
84 77
29 57
24 12
77 196
69 57
18 84
81 20
37 62
49 203
35 62
94 21
77 198
95 143
15 92
79 62
94 122
88 108
47 53
76 22
3 115
89 112
38 194
18 163
35 63
57 209
