2 80
50 114
21 37
34 7
14 159
17 166
44 67
4 46
10 143
9 141
54 49
14 81
20 48
38 47
14 80
7 65
15 7
34 28
7 117
34 19
45 77
51 93
10 96
15 159
36 35
8 119
47 81
9 18
52 108
11 23
9 134
43 75
34 12
20 37
49 88
49 46
49 126
36 34
51 106
44 148
49 60
43 71
10 112
51 110
33 13
10 95
48 129
43 70
33 11
16 164
51 109
51 56
10 106
13 6
49 131
8 129
50 115
8 15
49 86
10 110
21 6
22 43
45 139
53 55
53 54
10 114
10 47
34 18
51 113
44 139
43 152
13 157
20 5
33 19
45 137
39 161
36 37
40 48
15 27
48 46
12 92
