2 95
42 128
39 157
56 61
49 25
10 65
40 147
23 130
41 158
25 146
47 182
43 167
10 137
46 187
34 3
55 80
55 52
54 83
56 55
13 113
42 132
43 131
14 29
54 86
14 32
4 137
11 72
12 112
12 91
57 133
48 11
9 63
55 57
41 160
55 51
56 68
50 40
45 180
14 99
26 191
11 85
44 194
20 127
51 115
25 145
9 64
18 15
24 191
20 14
18 186
52 117
4 135
23 138
43 127
52 133
11 81
21 166
9 118
15 106
17 190
22 128
14 24
47 127
10 62
55 69
40 146
40 155
54 50
10 76
13 111
9 48
13 97
46 185
55 61
55 79
54 89
53 134
46 125
17 188
20 194
20 171
48 30
51 98
56 64
10 60
21 194
55 83
55 78
55 58
26 146
11 135
11 74
26 152
23 192
42 129
21 172
