2 93
9 165
62 143
38 3
6 120
11 168
5 137
21 67
20 68
5 123
48 182
23 6
21 61
43 33
46 187
42 34
49 18
14 69
49 89
46 188
9 106
5 145
7 113
46 186
57 169
41 41
49 93
48 16
35 201
7 110
50 88
4 128
60 161
40 49
20 69
61 128
40 51
4 143
11 11
3 71
14 179
62 147
63 130
48 20
5 131
21 53
42 39
61 123
42 54
63 136
57 110
18 187
4 142
53 175
48 70
61 127
62 140
5 77
6 122
57 69
6 117
51 87
22 51
19 72
7 156
50 181
59 159
61 125
6 157
37 3
60 120
37 200
46 190
13 69
8 109
10 170
57 166
5 66
54 105
59 164
22 45
26 5
25 196
47 21
44 31
18 190
14 178
23 47
11 99
47 189
61 158
48 24
18 32
18 34
