2 163
77 299
35 286
36 289
33 154
24 272
77 243
74 225
31 248
95 246
35 296
75 220
38 312
35 293
60 85
43 107
99 265
66 151
40 38
77 296
76 228
111 247
76 233
38 146
39 54
64 140
64 38
36 201
11 251
61 49
63 121
72 324
62 119
35 172
70 195
60 78
93 243
64 36
35 211
38 39
27 243
37 180
77 286
42 55
77 304
46 55
76 308
4 265
32 160
71 167
34 212
73 12
4 252
46 60
38 186
42 105
63 40
74 209
62 16
73 208
67 154
30 276
34 220
74 10
77 281
3 265
71 169
35 205
47 57
33 235
75 308
35 207
42 123
47 42
45 81
70 192
59 74
46 54
53 39
77 297
32 237
58 60
63 136
77 239
34 280
37 42
64 148
39 147
77 301
22 241
60 18
16 248
62 15
68 175
41 126
67 337
60 82
63 110
2 265
81 275
45 85
6 266
42 122
13 270
36 197
76 302
72 3
46 337
60 350
34 210
38 44
75 310
39 311
53 349
34 159
61 105
62 43
70 330
47 338
76 300
107 249
63 44
47 337
37 50
33 233
44 96
46 68
11 269
41 323
32 278
57 62
76 240
37 308
36 179
41 121
60 88
58 31
34 156
72 325
38 49
58 75
68 186
64 344
51 345
44 333
65 346
56 350
61 60
74 5
40 136
14 270
41 57
69 22
113 251
39 310
35 289
63 115
55 35
45 68
95 268
80 277
43 329
22 240
26 242
