2 86
65 140
14 125
69 59
24 58
54 61
66 106
18 83
17 76
47 51
43 20
67 118
14 129
13 118
62 155
69 130
61 164
60 79
24 5
28 43
66 100
14 132
14 63
19 152
52 178
42 13
43 26
14 124
24 66
14 68
49 179
20 174
64 60
44 185
13 64
25 35
43 36
68 126
65 145
21 176
27 50
12 108
64 151
15 131
16 8
48 181
65 143
6 52
16 11
21 28
35 5
63 90
42 34
21 3
12 103
38 7
50 57
36 185
70 59
13 105
27 4
27 7
44 30
60 77
13 116
43 33
18 78
12 65
62 85
18 18
19 78
43 24
62 87
43 30
19 164
15 127
48 180
66 118
32 184
19 83
15 8
46 51
30 4
64 149
66 102
23 63
8 51
