2 83
21 94
67 142
16 157
59 108
15 118
32 14
5 124
54 53
68 132
56 53
38 15
57 93
16 159
42 45
22 92
18 167
62 125
42 179
25 69
56 95
34 6
40 32
49 54
35 3
69 133
42 180
24 71
24 64
19 171
19 97
49 171
39 33
38 7
56 94
29 53
40 26
60 103
51 162
15 116
24 85
44 177
49 172
25 180
60 111
22 87
11 121
48 171
53 67
39 16
60 118
16 107
58 124
57 98
25 77
17 168
25 76
69 129
23 67
27 57
60 124
49 169
59 100
60 107
24 69
39 11
21 174
23 68
39 30
25 182
44 49
46 174
31 31
25 75
31 28
8 134
6 133
54 153
40 184
38 5
56 147
15 112
59 99
9 136
