2 90
60 122
46 137
57 170
11 84
21 165
9 112
10 51
24 126
5 119
33 4
60 120
5 121
3 125
58 113
45 139
14 107
5 130
10 79
55 184
50 25
69 64
59 124
23 126
70 58
59 126
68 72
18 23
9 67
59 117
41 4
28 6
69 51
11 45
31 185
10 65
18 130
67 75
27 134
20 167
55 127
11 49
68 57
47 128
57 167
46 141
59 116
30 140
43 186
20 166
26 9
68 74
47 121
56 34
51 186
27 131
7 117
15 107
17 177
10 52
31 150
21 183
27 157
17 174
13 93
10 72
45 142
61 178
68 48
25 127
13 39
46 148
30 5
70 65
44 8
15 105
31 143
10 58
13 109
18 21
20 19
12 43
66 78
54 184
59 119
6 119
32 151
54 161
54 125
40 185
45 149
