2 108
65 177
69 61
76 15
83 133
6 133
75 74
85 149
37 189
29 10
72 70
39 18
75 82
7 135
59 22
36 65
37 188
48 189
28 17
66 173
8 140
32 35
78 15
65 42
13 90
5 124
34 42
30 59
66 176
92 149
51 186
37 58
29 57
26 176
92 148
75 80
75 76
13 146
60 22
6 117
35 42
74 27
69 170
50 187
75 81
5 131
11 94
63 46
6 116
60 51
38 16
29 17
80 114
81 120
8 102
82 133
13 150
21 167
68 62
82 123
101 145
23 71
31 26
30 27
74 163
12 93
31 33
7 109
47 28
61 22
75 160
47 33
32 65
82 150
74 70
59 51
32 8
102 138
21 72
22 169
31 183
4 119
37 63
78 110
80 113
36 58
46 34
41 190
63 179
71 63
27 54
73 71
77 155
58 62
71 62
63 24
57 183
74 72
48 28
24 70
67 175
45 190
68 171
58 182
7 136
61 68
34 67
74 29
103 141
