2 103
115 98
25 179
6 114
99 156
91 25
34 17
114 137
62 3
112 111
6 100
116 81
22 164
10 133
46 9
99 158
48 7
122 115
65 5
110 146
115 89
116 65
8 64
17 36
79 194
21 165
11 46
70 8
108 147
39 204
107 147
93 171
21 30
116 134
84 18
31 187
34 194
38 17
81 187
74 9
115 83
90 24
110 44
110 53
115 132
8 119
90 177
124 113
9 127
5 100
107 42
90 175
84 183
79 191
32 189
12 46
33 193
80 188
7 120
124 120
79 192
108 44
39 16
11 135
116 66
125 119
6 113
9 128
8 59
46 7
10 135
26 26
89 179
67 209
6 71
118 133
76 11
118 59
5 70
36 199
94 168
115 73
44 209
113 56
22 165
108 43
114 109
113 107
55 4
8 76
48 213
6 91
58 213
115 87
77 13
21 167
7 62
34 16
32 18
27 182
110 46
110 54
115 63
96 30
