2 123
92 179
52 7
7 193
90 208
88 117
4 187
23 63
30 37
83 91
11 245
64 28
76 67
12 106
8 126
90 151
89 133
27 282
14 97
13 106
88 214
51 6
23 59
52 8
88 213
71 269
10 243
87 231
14 257
24 52
4 208
19 266
6 192
34 19
60 24
90 157
84 97
92 177
19 80
89 122
86 104
91 188
4 145
42 295
4 155
69 45
89 129
92 196
29 40
24 59
4 157
3 157
14 256
92 144
65 285
88 122
8 235
87 226
4 158
6 130
32 28
18 83
67 38
89 203
22 67
60 25
86 233
82 243
91 187
15 260
6 133
44 297
58 20
9 234
67 41
91 193
90 171
88 223
65 34
3 178
19 79
72 55
91 159
15 94
74 64
75 67
55 11
83 96
76 70
76 71
20 271
78 258
21 272
9 233
12 104
69 278
78 254
72 267
52 297
76 73
78 77
9 230
7 220
5 152
28 285
35 17
91 200
87 221
22 68
90 148
36 6
23 278
87 108
91 144
91 158
72 52
71 273
90 132
14 96
12 251
13 251
91 161
63 30
83 242
