2 94
35 188
97 98
93 79
91 76
47 202
65 169
18 133
92 130
6 109
96 88
10 62
62 9
97 89
36 19
6 99
44 202
34 195
9 119
61 204
19 45
59 206
68 175
84 146
25 150
82 52
95 111
6 104
17 54
74 29
37 178
61 10
22 41
54 3
78 39
47 204
78 156
95 110
71 193
95 84
97 91
25 157
92 129
68 177
27 154
67 20
4 69
34 20
61 205
95 120
93 124
66 171
28 27
20 143
14 58
65 18
23 164
96 96
73 27
33 21
37 177
20 139
35 195
96 93
7 109
50 206
70 164
86 143
87 62
4 90
24 34
80 42
7 123
23 37
35 194
8 127
67 167
4 95
97 87
25 33
12 125
39 171
5 71
95 116
91 131
7 107
39 172
15 58
71 183
47 9
25 149
37 170
6 115
80 43
5 92
