2 115
66 7
125 132
39 41
30 59
60 12
124 147
67 250
79 10
83 227
91 185
57 24
83 232
56 200
45 181
118 155
51 32
99 171
57 26
47 233
53 190
54 206
6 122
54 205
56 17
60 249
52 211
50 32
52 249
126 119
11 104
24 75
4 128
72 250
48 234
8 114
123 84
78 10
15 145
117 70
45 237
84 228
76 250
86 19
34 48
53 32
48 231
32 50
82 199
49 229
25 71
120 79
125 142
98 171
19 84
5 123
125 128
53 191
126 117
4 126
84 240
92 24
55 249
84 223
48 226
115 62
127 108
105 161
50 222
26 67
13 100
56 15
110 54
41 178
79 6
77 5
83 223
15 96
87 18
63 9
51 36
16 145
46 244
48 232
85 17
77 7
84 241
53 18
83 15
55 190
50 224
24 70
92 25
49 33
15 95
54 32
51 188
44 180
90 187
58 13
125 133
81 196
124 89
83 210
53 189
116 69
46 30
91 186
126 112
5 134
17 147
51 220
42 179
126 126
115 64
84 233
