2 124
83 11
50 209
37 206
98 32
136 144
4 131
133 149
112 42
10 82
130 77
26 41
131 160
20 51
95 228
88 211
10 72
49 248
21 181
102 39
135 94
70 261
138 127
40 207
13 160
3 126
51 217
95 224
117 192
116 60
67 260
124 68
46 232
120 187
121 185
123 67
96 27
138 120
25 189
21 50
102 38
20 179
50 249
87 210
22 184
6 103
97 245
111 197
88 210
132 156
110 40
137 105
138 123
22 46
98 233
3 127
115 194
77 6
111 41
60 254
122 184
116 193
53 214
4 143
11 67
99 34
15 62
99 233
99 234
125 71
3 138
14 164
129 77
53 211
112 57
22 180
121 49
136 108
77 5
5 120
96 246
88 216
7 88
72 260
95 227
58 11
137 106
136 114
4 125
19 51
108 199
134 148
121 64
10 157
138 117
136 112
4 120
16 170
104 205
74 262
90 17
17 53
133 85
48 228
45 238
21 180
6 144
138 121
134 86
126 70
39 207
11 70
20 49
85 13
7 93
133 155
10 73
46 247
31 199
101 237
5 119
131 80
49 18
28 38
8 84
