2 152
98 210
99 163
54 78
10 212
64 282
40 288
46 294
41 124
66 54
72 259
65 277
74 148
62 29
48 90
51 84
43 112
23 257
42 291
70 87
96 173
52 33
8 239
100 165
73 80
71 118
42 120
91 171
91 244
51 13
100 221
103 161
64 73
10 213
44 9
53 43
29 203
76 201
79 251
95 173
75 257
100 224
46 6
34 281
77 214
42 118
71 263
54 57
104 161
41 123
78 212
71 125
75 189
75 212
101 160
55 70
77 212
66 46
54 47
67 72
85 180
36 174
36 171
74 147
73 122
98 169
37 162
66 277
72 121
69 107
42 125
99 160
51 14
26 262
66 41
67 273
67 59
92 171
74 145
39 153
26 207
72 82
76 187
87 245
99 214
53 9
52 14
32 187
99 168
9 204
100 232
103 162
54 56
77 252
69 101
96 237
46 7
84 181
90 180
23 256
57 296
31 198
52 10
49 91
58 294
52 31
46 99
26 264
53 48
48 94
79 209
78 187
74 185
72 115
73 156
41 126
31 194
11 245
7 225
65 38
9 242
73 163
68 83
69 90
11 202
101 221
55 4
44 8
74 84
97 212
45 101
100 226
55 64
79 252
76 212
68 270
51 296
61 11
91 203
7 234
73 81
71 86
22 197
54 48
68 94
61 19
96 171
21 253
64 34
35 178
26 206
58 292
50 298
