2 95
94 42
19 153
108 161
59 8
119 109
116 146
105 57
7 130
10 93
25 57
86 38
119 134
121 110
59 9
85 38
81 16
10 136
46 192
15 79
9 93
99 43
15 81
105 59
6 111
6 121
88 186
8 145
82 190
37 184
57 198
9 138
25 160
30 174
108 65
10 138
16 151
15 151
115 85
121 105
20 64
18 70
17 152
40 39
50 195
8 117
97 179
119 120
7 110
58 10
54 14
114 84
69 5
56 199
88 187
25 162
83 189
119 100
120 111
19 66
50 194
117 96
119 132
52 197
41 39
112 158
9 136
9 97
119 102
12 86
78 13
82 28
76 13
105 55
24 57
21 155
62 4
29 169
7 114
94 41
88 39
91 40
54 197
106 62
119 114
95 173
25 163
111 73
111 67
10 96
8 118
48 193
20 155
114 82
116 152
95 42
