2 137
7 78
14 229
43 256
20 184
19 35
26 278
16 248
16 252
41 56
7 145
9 109
32 291
46 113
15 279
12 145
46 98
46 136
45 249
10 114
26 160
20 141
10 158
41 45
34 170
38 293
6 151
43 253
45 238
19 268
8 140
22 150
17 198
14 205
17 256
16 279
40 40
19 39
42 278
42 270
40 59
14 138
13 222
11 71
48 100
17 282
19 274
14 46
14 240
45 119
33 4
14 133
11 150
12 146
41 43
10 133
29 3
35 16
37 20
45 137
45 88
42 127
43 252
24 168
3 83
40 146
3 89
5 59
20 26
18 137
45 78
44 62
36 183
43 116
7 146
15 246
42 201
45 244
37 290
9 108
20 145
10 119
44 248
23 277
22 170
40 282
10 129
20 21
18 275
19 38
37 157
34 12
42 204
19 276
13 229
40 194
9 138
44 249
43 206
38 154
35 175
12 220
12 148
11 113
20 263
15 242
23 14
14 135
43 85
18 254
40 280
44 258
14 196
47 94
42 276
19 140
36 25
10 151
11 75
44 81
37 152
18 259
41 57
10 66
21 264
44 255
11 129
15 131
8 108
3 86
42 75
5 154
14 233
10 156
43 76
42 264
14 212
18 276
