2 143
7 157
71 233
25 190
67 29
70 73
79 144
36 89
84 107
33 215
32 132
90 157
83 154
69 71
33 92
44 60
45 6
22 149
90 203
80 145
70 65
79 116
61 239
61 241
16 140
28 198
72 226
76 133
41 31
86 145
29 208
73 89
77 204
85 203
76 212
31 210
89 186
68 24
36 221
63 56
30 104
45 47
75 222
90 151
57 7
93 199
95 197
64 59
70 76
68 243
25 187
83 203
22 150
38 26
75 214
62 47
96 193
42 67
66 32
38 86
40 73
13 165
45 44
80 104
12 165
86 168
47 56
31 96
28 202
37 22
34 11
74 219
74 91
4 150
64 5
69 19
90 186
51 10
76 206
70 77
77 136
19 146
58 234
40 28
32 96
71 80
30 206
30 204
74 218
25 154
63 59
21 178
97 163
95 171
29 207
101 186
93 198
71 9
36 218
71 3
41 5
96 167
67 241
74 223
96 184
79 115
94 198
39 74
91 152
71 63
14 167
82 108
32 215
96 192
29 100
99 182
25 179
31 138
75 122
85 204
56 8
62 238
71 6
20 152
81 112
72 82
21 175
42 37
96 194
78 146
15 140
10 143
36 4
41 223
3 147
11 143
24 183
50 228
75 216
35 14
25 186
15 167
104 184
98 161
