2 138
65 11
75 34
78 49
21 180
113 137
65 10
87 61
83 190
10 91
73 50
87 133
87 138
23 62
37 30
32 42
92 82
95 108
35 210
9 97
8 111
42 8
87 136
33 44
82 187
74 57
39 40
40 48
62 227
9 159
89 151
85 173
88 66
39 55
22 189
33 42
35 48
100 148
88 153
92 85
36 32
115 144
35 7
5 167
8 147
11 90
87 62
7 117
91 153
96 100
88 170
87 64
95 97
81 13
8 153
73 6
97 103
40 55
80 22
63 231
6 168
46 221
49 224
86 135
49 223
90 130
11 172
3 165
87 60
25 194
116 143
19 69
84 157
22 190
6 123
12 163
23 191
7 127
32 8
34 46
117 142
77 28
7 106
6 132
12 88
108 140
62 8
13 85
91 155
7 139
45 9
85 179
79 10
87 171
9 137
17 168
30 204
95 119
75 5
81 14
87 132
36 29
36 49
36 51
80 199
93 79
87 153
40 54
91 128
70 224
12 169
26 53
82 47
15 171
84 149
36 6
83 144
76 213
73 53
16 177
26 55
95 118
76 215
5 164
89 67
93 167
71 7
64 8
43 8
91 154
74 37
36 25
8 100
61 228
88 154
92 167
86 134
10 167
77 214
