2 106
13 74
39 4
46 176
14 72
74 136
79 74
7 89
65 32
28 45
57 9
36 53
74 83
58 12
51 15
69 56
76 82
41 48
48 175
37 24
12 122
78 114
91 106
42 47
40 35
67 59
41 45
28 158
91 102
21 145
43 6
81 106
74 104
73 98
65 8
67 21
37 22
38 3
67 8
28 47
36 22
67 7
50 13
37 170
45 9
90 100
14 134
19 61
70 12
71 53
30 162
65 28
40 32
92 102
89 100
12 121
16 56
87 115
16 138
34 13
76 134
9 117
69 156
71 153
74 85
87 104
70 152
16 137
34 52
43 4
78 70
67 23
6 103
16 53
41 52
78 127
24 43
76 111
45 7
44 6
74 138
22 147
73 139
18 50
86 106
73 141
10 83
44 8
3 107
83 106
68 58
79 112
80 126
41 173
91 101
17 140
71 151
44 172
76 115
19 65
67 26
64 43
24 46
69 10
40 51
92 105
38 55
