2 91
11 68
11 80
53 173
22 39
25 167
24 27
51 137
63 34
83 51
14 41
4 65
69 90
21 114
31 145
58 121
51 152
53 135
15 100
75 75
86 65
67 94
69 91
83 54
25 25
54 171
13 97
42 176
8 85
30 177
29 158
50 148
43 176
71 81
23 29
9 71
53 157
18 119
8 48
25 27
30 178
63 103
60 25
11 40
55 15
81 74
80 74
13 53
26 139
4 77
16 97
86 69
28 139
11 76
55 130
48 8
14 48
11 50
60 24
70 91
86 66
28 160
26 164
55 161
87 60
12 77
49 142
82 75
19 119
81 75
36 7
18 121
33 12
50 11
72 46
4 66
52 157
65 37
22 137
73 79
76 75
70 86
84 74
7 73
17 121
75 73
4 78
60 116
51 147
80 75
67 41
76 45
