2 133
39 165
26 86
107 76
110 148
49 232
80 15
26 103
43 39
121 69
129 74
49 24
27 90
43 181
91 201
84 218
135 82
44 33
51 224
111 139
110 115
98 179
47 194
112 128
56 241
80 18
91 202
39 50
105 73
35 153
89 30
34 147
30 130
39 52
80 241
103 72
101 175
104 167
48 25
85 215
94 44
29 117
51 226
87 203
91 37
108 64
94 190
71 4
112 140
97 183
51 225
24 70
108 63
108 78
40 173
28 71
114 78
124 71
104 92
3 75
40 43
30 73
46 192
111 128
107 63
86 27
39 46
133 77
90 34
134 85
111 123
105 109
75 6
50 224
107 162
133 85
11 74
27 97
66 10
57 241
102 170
43 183
112 65
27 95
96 188
26 98
73 243
84 229
112 136
103 100
38 52
100 54
12 72
33 142
28 108
58 4
95 187
60 4
87 200
56 12
96 183
63 246
32 64
104 102
53 17
51 222
111 145
52 205
89 203
104 94
28 109
64 243
36 155
28 116
24 71
27 87
36 153
9 71
109 150
106 161
56 242
103 170
102 77
40 169
102 73
63 242
68 244
83 221
99 51
90 31
110 150
108 154
119 67
58 7
