2 128
39 10
75 212
62 14
37 78
73 98
13 151
24 143
80 169
79 163
30 107
63 51
54 10
74 214
65 11
71 15
80 143
80 142
8 170
50 224
80 158
30 115
39 68
80 166
50 20
75 213
28 184
6 154
49 223
52 17
79 101
45 62
62 235
71 65
79 148
45 37
69 62
35 79
9 153
12 165
6 164
37 14
80 130
13 163
11 165
58 230
74 204
46 15
9 171
44 35
8 153
66 236
55 227
42 219
22 142
68 32
38 77
30 99
79 76
49 48
35 8
30 119
12 162
47 42
79 87
82 173
33 205
62 236
61 234
7 154
32 130
35 73
33 83
30 125
65 49
32 132
79 117
74 70
72 57
38 9
72 10
68 229
4 161
13 146
50 57
79 160
34 205
81 157
44 34
81 139
10 172
20 140
77 73
33 91
66 45
41 25
44 31
13 164
34 87
81 136
71 5
14 142
37 69
77 194
72 20
34 84
30 126
35 80
36 9
36 71
65 45
76 100
34 79
31 96
45 35
36 74
72 13
63 237
47 63
63 60
29 116
52 12
37 70
67 58
41 24
77 70
27 183
38 14
44 30
