2 110
105 133
85 8
70 194
22 142
97 69
59 198
10 71
47 184
99 145
33 19
76 30
29 11
66 5
32 8
82 17
92 56
59 201
7 126
18 103
73 6
22 141
87 166
41 173
44 45
89 92
87 47
67 43
10 129
77 181
76 41
83 43
110 123
76 42
78 180
36 9
79 180
91 87
96 100
65 197
72 34
107 131
89 50
40 48
97 82
66 43
98 145
32 19
97 147
10 130
83 46
95 149
64 6
86 4
74 7
11 84
97 100
91 94
99 143
52 6
67 44
27 157
92 87
38 9
68 38
94 98
19 96
29 159
92 59
20 138
11 83
90 89
88 162
7 125
79 25
10 120
98 69
16 62
4 120
94 60
46 180
77 29
15 64
85 9
38 169
82 20
70 196
18 110
74 188
11 85
51 7
63 5
92 154
48 188
88 49
63 199
53 195
28 159
51 6
97 79
49 47
71 7
83 17
53 7
9 118
83 13
41 30
68 39
71 193
24 144
7 116
