2 150
33 170
63 87
42 33
73 309
79 203
39 42
47 21
34 53
76 281
59 26
57 58
69 127
79 217
51 5
44 143
90 156
79 231
79 237
40 40
69 342
37 103
61 359
44 14
18 274
26 217
79 183
76 276
75 282
45 27
30 291
74 304
81 225
28 161
67 85
24 223
79 211
26 250
59 83
38 46
79 248
50 348
77 276
39 133
39 318
78 185
71 319
27 211
42 143
50 346
84 169
30 290
76 288
44 139
70 328
80 256
55 357
6 264
75 97
11 258
84 149
77 270
79 195
34 71
35 128
32 54
79 146
80 220
87 149
28 196
41 145
43 143
88 159
31 166
59 20
80 247
79 199
56 54
79 180
24 235
80 221
20 277
73 105
79 209
69 328
74 294
10 259
59 15
72 85
58 15
26 249
34 179
83 172
79 184
70 333
68 124
69 129
80 251
49 344
47 341
79 220
16 254
74 303
85 149
32 168
74 297
47 20
56 67
74 85
16 275
41 95
78 266
32 120
37 147
27 285
76 291
55 3
6 265
66 85
29 196
21 282
7 263
19 276
83 170
32 116
33 122
73 85
51 4
81 226
65 347
35 149
37 76
57 65
33 114
74 301
80 248
44 329
34 298
67 342
74 295
27 214
14 273
51 352
80 257
40 322
79 198
32 151
29 194
46 338
56 62
57 359
