2 144
92 213
101 17
45 66
58 33
68 18
39 215
88 15
60 40
106 139
58 8
35 205
131 146
54 43
114 91
108 137
22 177
116 95
30 94
23 156
61 55
57 29
24 123
85 224
116 125
15 166
102 57
117 114
101 24
87 10
10 168
35 206
55 43
27 108
23 153
134 144
51 222
30 99
93 10
101 183
24 126
114 92
97 49
66 7
133 151
23 128
60 5
55 19
103 158
35 84
49 51
38 78
13 164
35 211
61 235
112 82
107 178
98 193
56 28
124 146
94 45
30 96
130 138
25 167
55 17
117 155
94 49
93 209
53 43
24 162
131 144
128 141
32 90
7 159
96 41
24 163
129 139
40 218
32 192
25 163
23 132
96 55
71 11
27 169
96 199
67 238
48 53
109 74
27 106
29 170
57 230
121 164
7 163
59 38
128 139
68 17
136 141
44 65
110 77
37 80
116 168
101 58
104 146
22 134
55 13
50 222
129 157
118 155
118 119
73 235
49 54
93 11
96 54
22 139
8 159
67 237
56 22
109 176
67 19
33 194
101 9
90 219
103 154
116 100
106 143
105 64
53 47
56 20
60 38
73 5
27 171
41 72
39 77
59 55
98 34
31 182
28 103
133 134
106 70
105 62
66 11
105 142
26 167
23 179
6 160
