2 112
122 109
41 172
109 98
100 86
64 4
37 59
101 78
83 26
113 100
35 163
100 165
102 90
92 179
44 54
39 169
61 206
101 72
8 123
108 72
56 46
128 114
25 140
121 108
110 100
54 48
109 152
27 142
90 15
63 3
82 43
105 72
98 58
12 125
29 67
27 143
61 3
33 157
16 125
118 136
35 11
78 3
98 57
49 33
81 194
32 66
85 5
60 205
79 200
24 94
53 5
31 146
65 207
18 95
75 40
52 191
26 141
41 8
107 71
74 40
24 113
3 124
33 66
46 183
41 7
129 113
94 173
26 96
20 138
111 148
40 20
28 72
124 120
58 40
86 5
11 134
35 12
53 49
23 111
72 206
76 204
102 93
59 3
111 150
41 174
25 110
90 182
25 73
51 191
12 81
4 124
55 36
76 205
36 64
79 198
82 5
99 84
86 189
43 53
116 140
25 111
101 89
27 109
7 122
32 158
32 68
91 50
113 145
62 4
107 96
92 51
102 68
80 29
