2 138
39 107
86 238
37 106
99 84
82 224
58 158
47 105
143 68
14 99
96 89
93 111
133 95
93 121
84 228
40 109
91 123
56 132
50 103
12 98
85 229
52 109
82 202
49 103
96 40
95 110
134 60
86 148
53 25
55 131
51 108
52 34
121 48
130 88
146 77
33 107
145 69
143 85
75 234
78 4
96 35
8 69
92 26
124 99
92 125
81 213
28 109
61 170
26 62
45 46
64 181
65 189
72 208
127 57
47 106
95 93
66 8
83 219
138 61
57 12
73 211
108 52
84 178
48 104
93 116
82 203
85 172
53 19
97 52
85 156
81 212
67 195
87 142
61 169
96 92
142 90
91 27
73 218
83 174
132 89
40 108
4 73
122 51
107 52
59 6
73 3
4 77
146 81
96 34
26 106
57 142
70 206
96 93
74 234
124 100
90 126
43 108
57 135
51 41
23 64
62 4
72 3
5 71
56 14
24 63
133 96
64 180
71 3
145 82
50 40
52 36
86 233
4 88
133 100
68 199
14 68
63 178
77 241
66 9
57 14
59 154
140 91
20 63
88 248
129 101
32 107
55 16
95 38
7 71
55 17
82 250
146 80
97 44
82 215
52 31
41 108
36 107
60 6
30 56
