2 118
29 207
21 103
86 127
74 75
34 22
30 77
9 147
73 203
68 67
37 63
79 190
32 74
99 146
33 33
39 225
19 110
4 170
88 159
96 169
92 150
55 3
93 174
36 42
110 137
83 156
12 130
45 9
68 36
36 59
82 92
64 61
84 182
29 79
11 138
87 120
7 160
10 145
37 221
10 142
8 161
77 79
24 92
111 134
65 51
15 178
63 63
67 40
69 209
16 112
54 227
36 65
66 16
81 183
22 101
69 37
6 174
21 100
52 229
96 141
10 154
57 224
37 53
63 16
54 3
82 136
29 204
65 50
101 161
69 67
87 101
85 181
12 126
101 138
24 94
86 113
25 190
68 40
66 51
24 189
20 102
11 118
34 41
96 142
65 216
31 76
96 170
84 164
12 121
81 188
101 141
86 112
97 135
20 104
87 124
74 74
110 138
27 196
82 93
25 194
111 138
41 12
15 113
83 150
99 145
17 180
21 180
85 114
22 95
33 28
88 123
23 98
82 140
12 133
29 202
19 181
57 6
69 26
37 59
