2 138
9 85
85 205
26 124
108 105
86 160
57 11
8 85
95 142
49 217
13 103
16 76
110 70
76 224
94 93
7 80
90 59
38 38
116 74
32 48
87 217
87 211
80 225
40 35
69 224
78 6
98 148
81 13
17 108
86 220
91 162
102 99
90 60
14 55
82 194
4 72
103 68
70 7
108 68
22 122
51 205
85 27
73 5
30 52
10 68
97 66
104 99
58 187
80 153
86 208
17 74
61 170
86 159
81 180
54 16
108 94
80 158
109 95
81 152
13 78
39 145
86 216
106 91
15 58
72 8
94 98
58 185
89 56
9 96
56 191
41 153
40 153
71 223
92 114
99 150
97 92
14 102
13 67
40 145
52 205
91 112
87 215
112 99
12 93
106 100
121 86
8 68
91 61
105 86
84 27
58 225
21 114
87 214
120 87
21 57
14 105
79 8
55 14
6 82
84 26
41 166
81 154
108 103
42 31
31 50
109 97
81 225
86 42
106 101
86 32
56 12
31 52
9 81
105 91
42 168
27 124
14 106
117 74
107 94
104 86
20 112
17 106
79 157
83 195
40 139
80 185
44 28
93 105
31 53
43 31
105 99
95 160
86 36
86 223
55 15
40 144
89 161
54 226
120 84
