2 142
38 178
62 221
62 311
75 282
72 258
55 171
50 54
7 268
44 97
23 301
31 227
55 169
36 196
44 93
48 344
56 182
37 25
73 283
47 3
85 266
63 312
66 295
62 254
46 107
66 287
62 314
49 342
65 205
67 291
26 334
42 9
38 161
49 58
77 279
66 213
54 166
24 323
65 206
65 296
60 229
24 293
61 193
53 162
33 109
42 24
62 247
56 181
33 219
38 192
18 284
50 131
29 232
47 114
37 195
5 264
43 73
31 77
31 89
47 8
46 345
84 263
31 342
62 255
42 75
82 270
38 166
34 110
33 65
41 34
42 74
54 338
15 281
44 68
64 302
51 129
68 287
61 237
43 44
40 38
38 180
73 259
61 231
30 227
38 185
61 327
42 83
65 199
43 347
32 67
60 323
24 327
23 298
31 215
35 114
64 204
37 31
63 260
53 155
23 295
31 213
39 182
40 36
39 178
61 325
44 5
43 68
54 171
5 266
64 306
83 267
43 94
74 260
25 250
33 63
36 40
62 320
45 347
22 311
60 327
33 225
23 294
61 324
23 255
33 218
33 99
39 346
51 151
62 194
39 171
63 311
36 34
67 213
29 233
66 210
30 206
31 204
32 85
43 70
45 18
60 320
35 122
70 286
