2 115
74 112
3 108
43 177
71 124
101 108
74 115
64 5
34 220
20 45
61 4
43 136
104 111
33 108
56 173
33 209
19 66
68 140
86 75
65 153
6 112
24 35
66 148
37 118
43 131
11 115
20 57
20 113
44 161
89 55
111 108
59 166
90 113
75 103
76 20
43 162
60 161
16 114
110 108
26 80
43 139
22 77
36 106
83 109
38 10
42 210
100 108
22 75
32 212
50 181
108 98
89 82
113 107
112 108
46 196
21 73
33 207
41 180
87 46
82 108
21 59
95 87
19 61
89 53
38 110
19 60
22 43
30 221
65 5
43 153
40 190
36 203
69 132
35 107
10 99
104 94
43 207
21 45
41 214
90 55
37 111
14 95
23 37
109 109
76 18
73 13
20 62
9 99
7 113
41 127
62 5
38 193
45 5
6 103
65 150
43 163
102 110
45 200
69 134
43 146
66 146
23 78
36 199
94 86
32 21
22 42
57 169
87 112
43 148
20 49
38 116
45 203
87 67
110 109
28 28
42 215
