2 115
62 5
24 63
25 34
95 132
22 66
35 41
81 101
92 59
93 124
12 148
13 140
90 118
73 55
79 151
28 156
91 121
26 57
67 188
94 135
77 157
75 170
30 163
31 171
20 146
21 148
69 57
55 202
36 41
12 122
9 119
9 124
67 47
92 61
37 11
71 175
72 62
33 52
81 100
79 153
33 178
83 14
94 57
82 24
71 60
36 48
7 124
94 124
83 18
30 169
82 105
90 45
42 199
83 19
9 139
69 55
29 39
8 123
28 162
29 159
91 138
93 79
22 32
32 167
29 163
97 131
76 162
68 56
77 45
13 147
79 8
83 43
15 105
21 70
86 109
22 67
28 36
37 48
23 149
60 4
19 146
80 147
79 28
25 83
33 181
8 128
85 106
75 6
73 61
30 54
38 188
90 84
95 74
90 83
91 70
36 47
24 33
64 192
42 200
21 151
20 98
6 137
77 155
83 98
17 101
20 81
40 46
24 57
84 93
37 186
87 85
41 8
22 69
58 200
96 132
24 91
