2 144
80 5
113 191
48 38
110 192
48 7
19 119
137 201
104 96
119 194
78 5
8 176
96 67
14 157
102 166
10 162
79 5
109 110
21 116
25 95
29 79
90 39
23 241
46 8
75 11
15 238
140 199
28 246
115 192
113 127
92 58
112 133
78 272
103 231
103 90
7 187
9 174
49 56
75 270
42 20
14 128
76 10
104 98
8 179
17 212
91 35
107 154
93 30
110 144
10 204
109 112
102 173
40 12
25 94
107 102
31 252
121 194
10 172
24 241
11 167
100 77
20 105
41 15
40 57
41 23
63 270
87 6
109 116
143 202
30 82
100 81
55 267
91 11
102 83
103 172
12 137
4 222
3 218
93 57
37 64
103 185
99 252
103 221
15 124
63 269
101 246
120 194
50 47
8 182
104 94
51 267
11 218
73 6
95 61
94 262
111 118
104 224
92 11
137 206
61 269
36 69
47 52
94 65
72 271
106 105
77 4
32 78
127 209
103 170
100 248
48 5
101 80
105 99
95 21
50 55
101 81
65 4
14 124
99 161
103 168
95 262
8 185
14 143
107 105
105 192
44 32
68 6
100 82
45 8
21 106
74 270
24 96
45 51
48 41
52 5
96 18
33 71
70 269
121 213
91 12
126 211
101 76
69 270
12 237
15 147
