2 133
99 112
21 122
31 57
112 89
89 174
88 114
56 12
13 71
11 100
114 68
40 45
92 23
34 133
84 12
100 66
102 120
92 209
115 84
41 34
35 129
32 148
74 3
96 51
104 157
84 170
83 216
33 58
100 134
53 215
24 55
101 66
96 116
99 62
45 196
23 54
99 54
9 76
31 154
97 126
96 38
102 159
59 6
10 87
103 62
104 143
33 127
115 81
45 198
104 64
51 171
44 28
83 173
22 125
53 18
10 63
102 137
108 110
82 12
91 116
13 74
31 58
91 115
104 144
45 189
116 77
38 202
101 67
107 111
34 134
38 206
23 125
15 111
105 66
62 6
19 117
88 117
43 210
49 184
43 33
104 122
90 193
91 192
7 92
41 42
114 85
92 199
101 112
88 214
90 210
15 108
40 168
97 51
42 30
98 112
80 4
115 83
31 145
15 105
88 213
104 105
95 43
85 171
105 140
48 213
31 153
49 170
99 133
84 216
16 106
116 72
44 192
41 198
43 194
101 135
76 216
102 68
46 170
46 171
13 104
96 129
10 67
12 105
107 120
9 94
82 11
112 63
5 78
73 216
33 163
59 169
53 181
30 155
80 217
