2 106
69 56
33 5
4 83
26 13
61 153
32 190
59 155
70 108
8 136
9 106
14 52
47 216
11 148
31 7
63 66
10 124
24 20
60 96
23 215
71 116
49 215
22 21
66 130
4 78
65 201
60 149
54 25
7 113
59 188
72 122
63 145
64 213
33 179
10 137
64 139
28 216
71 115
58 187
11 132
55 28
71 112
32 177
9 135
52 23
17 33
9 133
45 9
60 83
23 169
57 37
41 215
26 172
10 129
57 35
29 175
58 188
72 113
7 110
61 97
4 73
37 217
22 26
58 163
63 52
61 142
70 115
67 66
30 195
56 179
8 109
26 202
6 65
33 185
61 87
14 48
60 71
61 192
16 45
34 5
63 144
32 215
60 98
57 169
9 57
50 21
65 136
59 47
8 146
61 54
44 9
20 170
38 4
61 66
47 11
28 201
26 174
39 3
61 194
18 35
63 198
70 55
8 145
13 154
31 193
21 25
5 63
