2 82
57 39
63 142
28 164
14 138
66 60
26 158
59 158
64 134
24 44
65 83
37 36
59 154
42 175
27 40
83 95
19 143
42 176
57 35
35 7
11 71
58 30
58 160
3 100
56 168
58 28
67 48
48 175
19 144
64 138
77 94
71 118
52 173
80 94
4 111
45 4
32 37
67 94
28 162
86 97
36 5
58 159
67 122
12 67
61 10
31 164
67 70
65 134
67 46
67 62
61 150
28 39
25 154
20 147
40 172
65 92
22 150
14 137
65 77
65 84
66 65
4 103
67 71
61 149
30 38
62 146
13 134
28 163
11 131
68 46
35 26
64 84
75 114
48 3
38 171
62 10
3 113
62 11
73 115
19 56
35 12
58 43
36 23
