2 101
74 170
47 212
65 190
76 121
7 110
30 46
37 5
18 183
29 204
78 143
78 80
57 39
75 171
62 62
9 99
61 57
66 69
30 205
67 67
30 18
77 138
58 49
4 117
12 71
34 209
6 148
32 26
9 158
78 147
74 171
13 73
61 56
51 3
56 45
14 77
13 70
8 105
67 189
61 200
76 106
62 193
36 210
19 185
30 10
33 38
6 115
74 159
60 8
62 204
15 176
32 27
11 166
74 169
74 114
74 164
80 97
5 116
57 48
53 3
59 51
57 49
26 197
67 69
76 103
17 179
18 55
32 45
62 21
9 98
6 138
30 25
13 67
15 175
32 34
57 38
39 212
5 135
73 109
13 69
57 210
75 159
69 77
42 6
68 73
7 151
13 77
66 68
19 53
60 22
40 5
29 15
75 170
17 55
62 19
68 74
17 178
18 52
37 211
41 5
77 142
55 212
