2 92
40 24
12 165
10 157
16 28
4 87
57 89
16 20
34 209
57 117
4 99
15 54
21 194
7 113
39 40
59 150
3 96
43 51
38 39
14 53
5 105
27 9
7 140
11 158
7 119
4 91
52 191
17 31
16 48
56 95
11 61
39 9
60 101
23 10
65 158
42 51
8 146
6 107
38 43
57 116
48 68
44 57
20 39
4 101
50 72
52 188
40 26
9 152
57 86
42 19
62 174
7 150
40 13
5 86
52 198
59 134
44 51
45 202
8 108
6 75
12 58
38 41
57 90
24 205
23 203
58 127
31 6
18 10
40 45
64 152
56 186
42 20
43 10
4 100
23 9
62 152
58 106
3 99
24 10
63 154
13 60
59 126
8 72
42 8
7 151
43 54
42 10
58 100
59 154
4 103
61 157
16 51
64 158
