2 91
55 38
58 37
22 149
69 66
14 120
43 29
43 26
79 90
25 162
61 40
22 45
73 131
78 130
80 98
43 32
26 163
42 174
85 117
15 48
79 127
43 41
90 113
50 171
61 144
11 117
22 150
1 98
1 103
6 112
65 134
24 158
67 52
23 154
83 113
81 105
55 37
20 5
34 172
63 138
65 73
68 82
67 80
18 124
66 71
45 10
53 163
2 98
30 4
70 54
3 108
71 83
20 135
13 120
42 37
73 130
15 88
57 38
20 45
57 158
80 112
68 80
20 133
28 5
10 94
20 35
75 130
58 148
65 74
13 23
14 69
90 114
67 69
23 40
62 141
14 50
79 96
30 168
78 127
11 13
20 129
38 4
70 62
84 99
40 38
64 45
9 13
16 7
16 59
12 65
72 87
55 161
