2 125
22 50
35 193
39 19
127 76
42 15
80 179
90 44
30 31
48 9
98 106
51 6
83 29
21 157
72 214
36 25
87 184
121 83
38 237
25 42
46 12
69 4
105 147
97 190
85 32
93 54
36 208
40 237
74 194
95 62
74 189
106 146
52 6
57 230
71 8
73 211
97 88
23 170
76 13
66 234
33 191
113 65
120 67
19 148
19 151
94 58
94 56
123 81
90 47
119 85
39 20
88 186
38 189
8 121
76 186
20 60
103 90
39 199
18 72
73 197
55 4
69 219
17 72
67 229
3 87
70 220
15 73
57 231
72 209
105 151
3 95
15 139
9 120
67 4
36 209
52 232
36 224
16 143
22 48
38 238
97 105
48 233
107 65
107 89
17 73
98 89
20 149
106 151
38 203
106 155
21 162
37 215
22 166
106 148
27 40
37 230
16 140
89 187
12 128
92 194
105 148
84 32
104 91
105 154
103 176
123 80
97 103
103 126
75 181
58 3
24 173
19 154
24 170
106 159
119 66
80 178
4 98
36 220
103 173
5 82
42 233
41 17
97 85
102 177
98 109
123 68
