2 112
89 133
108 103
85 108
82 63
84 104
81 164
34 194
70 27
76 43
95 77
35 186
63 168
96 78
45 11
35 170
7 75
36 26
74 35
92 140
36 205
78 47
84 72
85 72
89 144
66 208
100 81
38 176
24 47
31 35
5 76
64 172
20 130
67 203
66 161
88 164
34 201
34 203
16 128
85 104
84 69
93 159
44 207
84 70
80 124
36 187
114 93
49 12
70 163
21 144
90 151
90 142
43 12
65 165
17 127
43 13
95 78
7 79
89 102
20 140
23 155
91 141
88 73
85 113
67 193
30 34
7 78
32 34
91 155
8 62
100 82
76 45
12 117
94 77
44 14
13 118
67 192
64 184
67 23
83 116
90 164
93 139
92 154
84 107
83 164
78 48
64 181
36 170
9 70
83 100
50 208
67 206
15 128
43 209
21 135
25 162
76 42
20 148
65 17
37 170
8 64
83 66
34 202
94 104
18 62
84 164
21 140
74 34
66 187
47 12
67 198
34 195
40 207
