2 152
72 4
28 97
74 313
73 195
41 46
70 298
68 363
70 279
75 320
22 180
35 330
8 274
63 6
28 131
34 110
74 186
71 167
74 92
62 9
59 17
22 207
70 79
27 133
29 96
71 220
73 357
21 265
42 73
20 138
74 87
11 288
43 346
35 112
30 307
72 22
70 256
25 170
19 295
69 79
71 230
41 68
70 360
10 273
73 207
15 292
24 171
64 54
29 302
69 116
35 111
40 68
22 185
29 95
76 333
77 6
66 130
63 13
70 275
69 31
75 330
61 67
30 317
40 337
62 64
23 196
20 136
24 231
9 272
23 202
32 321
66 128
19 267
76 202
51 356
75 18
21 145
65 53
69 284
25 255
76 339
33 325
23 175
72 209
61 8
67 130
32 320
69 163
76 334
67 158
40 53
71 276
69 257
72 25
71 301
41 61
69 283
35 328
24 172
62 79
76 331
73 208
71 221
35 128
23 215
72 206
20 266
30 306
40 50
69 259
46 34
70 295
12 288
62 8
29 93
38 334
70 254
25 241
69 292
67 149
42 79
69 268
36 128
72 222
24 170
70 288
25 236
36 123
68 364
65 46
71 235
69 255
71 166
64 49
63 78
40 65
54 22
66 153
75 200
70 29
40 46
67 154
72 351
20 143
74 322
75 86
70 80
34 326
66 156
25 251
76 315
67 125
26 161
