2 110
66 172
69 199
80 54
82 85
39 149
45 161
14 110
87 87
64 150
84 64
59 195
68 178
81 95
27 140
74 191
42 154
40 153
90 131
84 146
16 53
82 88
80 52
61 9
16 111
13 61
55 193
42 167
80 110
86 124
92 133
81 59
74 196
86 125
38 22
66 147
91 68
75 197
74 189
4 91
24 133
5 92
102 86
81 118
57 6
8 82
46 194
86 84
42 15
7 96
83 81
57 5
70 151
78 113
66 198
8 78
24 52
80 107
75 33
6 80
34 148
89 129
86 127
84 144
64 15
24 124
15 111
13 55
15 112
25 131
25 135
27 191
5 81
83 134
45 12
92 87
9 56
24 129
10 102
84 135
81 107
46 193
52 193
32 145
17 54
49 7
32 146
23 127
28 144
35 146
78 112
89 68
42 155
63 163
98 76
43 15
54 194
29 144
40 19
76 147
5 76
66 199
97 73
5 64
33 35
76 37
45 158
13 106
8 70
94 70
44 13
