2 111
74 185
19 148
21 93
31 81
69 202
43 34
69 199
29 169
16 103
7 128
42 197
66 35
39 4
42 34
27 90
60 4
65 44
11 115
23 154
34 179
13 106
81 125
41 5
88 67
72 17
45 7
84 138
13 144
78 104
10 125
69 200
78 162
67 204
64 48
75 181
8 118
9 141
23 156
34 5
70 23
70 19
81 95
82 63
5 134
81 138
10 126
31 67
22 96
64 210
29 70
8 131
74 177
16 104
31 173
29 71
40 192
78 60
52 211
75 171
38 15
66 34
74 188
75 177
40 23
76 117
14 112
28 166
77 103
81 122
76 113
33 60
90 147
80 135
80 104
78 113
31 87
79 116
46 8
34 181
46 201
48 10
37 14
64 40
83 110
30 84
81 62
80 96
97 140
65 57
67 28
40 26
46 9
65 7
89 147
88 65
65 5
64 212
85 65
9 134
57 7
76 169
87 64
84 65
46 42
83 64
84 79
78 103
79 160
68 29
81 123
22 94
