2 111
56 208
21 141
11 102
27 179
66 44
90 74
57 19
33 189
23 33
21 144
56 217
74 112
25 157
64 177
33 11
66 43
26 158
76 116
85 73
17 52
92 76
46 233
28 17
14 109
63 181
31 184
62 32
81 138
23 218
30 184
82 135
50 234
3 80
56 214
24 155
73 63
95 82
59 231
5 88
22 128
94 78
24 35
26 159
26 160
22 40
73 88
26 233
58 22
69 54
56 210
6 74
60 183
28 232
55 196
51 10
6 69
32 14
12 57
64 178
22 125
25 211
22 138
54 235
81 132
48 9
34 9
7 68
65 43
60 28
19 121
23 213
6 70
66 170
37 7
25 161
23 146
21 41
74 98
32 12
54 194
25 32
22 143
73 113
18 51
25 153
34 232
77 118
9 96
48 233
71 57
18 47
59 22
55 15
78 67
29 17
73 90
72 111
25 210
44 233
22 38
83 70
7 73
74 81
69 160
73 104
95 81
23 217
60 24
43 232
78 146
59 185
