2 212
90 326
135 258
72 157
101 339
93 58
61 288
78 333
170 189
135 252
122 4
56 259
162 272
90 72
170 188
138 163
57 186
58 275
96 324
122 188
109 119
23 276
112 38
100 36
119 3
83 102
170 199
57 281
83 107
8 218
133 164
51 277
138 281
40 176
46 182
110 54
145 280
140 280
99 41
58 196
144 226
119 24
134 266
68 172
108 101
152 274
57 269
91 67
47 280
142 277
115 8
47 182
120 180
135 250
36 236
108 136
98 46
165 209
135 284
75 325
170 180
133 267
128 290
155 273
4 197
39 276
116 171
112 151
111 145
77 336
92 66
87 341
25 278
112 17
113 36
45 276
124 303
159 213
126 297
135 251
117 5
114 163
110 144
112 154
116 168
75 146
131 167
116 170
57 265
110 20
51 243
56 260
108 122
113 157
4 198
66 176
134 244
54 277
98 45
82 110
46 242
107 85
162 273
119 20
171 195
28 280
132 267
124 191
106 29
40 239
160 274
149 166
64 295
35 276
45 242
70 168
126 301
118 321
93 64
126 187
54 282
20 228
130 284
150 220
71 161
61 290
54 251
101 35
82 341
133 259
109 55
96 53
76 142
98 50
62 288
108 25
129 172
108 106
61 181
56 261
169 181
150 274
57 277
157 269
136 275
168 178
49 243
53 242
119 22
45 243
153 216
72 321
101 327
171 197
69 310
100 40
113 33
121 309
136 238
91 66
54 243
82 104
85 100
157 214
108 87
78 133
20 180
128 175
93 61
50 280
4 211
109 132
109 117
41 277
170 185
145 226
23 178
85 341
99 324
107 105
109 125
28 272
97 51
129 289
15 226
138 232
94 60
147 276
54 247
75 142
33 234
134 263
55 276
101 37
107 84
166 176
171 188
120 10
161 211
77 134
71 316
94 59
100 332
110 45
108 88
111 46
9 218
145 227
164 174
89 331
116 172
95 55
60 180
