2 159
35 140
73 192
53 287
117 113
7 121
47 3
115 77
118 108
82 39
46 282
31 47
35 197
106 68
86 51
47 265
47 267
34 186
72 190
59 242
23 163
34 178
36 219
11 87
35 182
73 25
55 274
95 138
6 130
63 215
21 159
54 273
118 107
28 143
21 157
8 94
56 262
34 11
46 266
125 128
44 246
18 162
81 174
35 215
36 140
17 154
103 161
38 226
126 128
120 88
29 17
23 158
34 188
25 165
67 205
72 195
34 184
91 155
89 61
9 140
81 40
95 68
117 79
34 166
32 68
18 77
31 37
124 137
32 42
50 297
120 120
28 142
45 291
74 185
114 148
47 4
115 149
51 295
22 157
100 143
58 257
35 150
109 158
119 111
47 262
35 201
50 300
98 135
30 53
73 27
84 49
5 125
26 165
55 5
35 170
84 171
38 223
52 5
32 39
30 24
74 30
32 135
121 93
55 272
62 223
9 121
16 158
106 164
87 53
16 159
36 148
66 204
8 138
28 67
25 68
97 67
103 66
61 9
53 5
46 296
28 151
45 251
76 182
122 93
36 157
122 121
13 145
104 161
27 161
46 280
41 239
36 156
105 66
27 153
28 159
35 188
14 115
16 155
10 93
17 149
64 216
30 28
39 233
31 65
79 179
54 277
31 43
29 148
35 175
35 195
10 102
45 4
95 133
104 67
120 83
48 4
39 229
38 228
121 94
12 86
