2 129
7 103
61 30
33 250
57 14
36 162
31 120
4 98
66 45
30 264
6 103
81 79
31 253
43 253
87 80
95 95
84 113
41 264
89 113
29 48
12 83
59 166
35 211
60 166
31 268
65 143
96 94
34 193
34 126
57 17
30 116
60 30
29 112
59 24
21 121
37 162
42 232
37 161
15 81
50 196
29 111
36 155
43 251
35 134
31 27
61 31
71 115
43 262
35 131
69 55
35 210
35 224
6 101
24 68
35 142
94 89
31 22
68 127
21 119
64 143
28 45
36 150
29 263
35 201
43 260
26 55
18 80
81 104
12 84
33 247
47 212
19 122
34 11
87 114
94 87
59 28
34 225
6 102
4 96
27 52
72 99
21 75
31 256
20 121
86 115
34 237
32 256
73 100
14 114
86 116
34 224
44 223
20 73
32 268
31 259
41 243
11 84
68 44
79 76
29 49
36 151
90 111
44 262
76 64
81 105
33 14
86 78
41 241
79 68
63 37
36 171
36 166
72 96
92 106
70 122
32 121
69 124
35 205
73 101
67 44
56 14
62 34
70 58
44 257
31 119
37 148
23 70
59 168
73 96
36 152
