2 162
107 130
36 20
27 40
64 207
44 223
90 72
11 112
68 12
19 77
67 193
18 135
76 31
13 107
21 58
6 123
86 51
75 31
55 287
91 111
66 196
36 135
77 105
18 137
34 26
64 246
50 4
53 280
34 154
64 215
17 77
21 103
91 67
44 224
108 131
16 134
50 275
68 181
85 45
64 219
83 98
97 103
17 117
72 126
71 148
62 306
32 102
93 114
106 137
43 226
64 249
55 293
109 138
65 211
31 32
89 63
28 94
35 166
101 114
43 234
91 83
75 111
65 9
84 46
68 167
63 224
64 259
62 275
24 99
48 254
36 116
64 214
53 5
64 211
97 124
41 12
36 19
31 92
54 6
32 95
69 157
73 112
36 160
69 165
63 230
55 289
37 200
22 53
17 114
23 101
17 67
74 28
87 53
27 44
89 54
65 210
48 5
61 294
18 80
73 24
73 119
35 112
34 29
32 31
11 116
88 55
13 103
95 119
12 136
78 104
10 117
40 199
23 49
39 196
62 274
38 178
35 124
83 41
95 95
63 215
104 132
38 201
63 315
20 72
44 236
64 236
106 124
63 248
29 38
74 121
68 168
64 250
66 187
107 136
39 16
36 144
19 109
64 261
16 116
49 263
41 219
35 129
73 124
63 314
64 241
35 158
18 90
35 132
73 134
94 91
63 274
56 290
63 253
16 95
45 236
56 303
74 119
29 92
62 288
89 68
63 261
84 98
77 104
