2 138
47 280
31 6
33 87
9 144
82 16
25 7
85 157
77 81
75 86
85 212
46 280
81 120
17 159
67 6
24 245
82 116
34 86
26 264
28 100
90 228
78 91
11 191
78 248
18 222
17 108
89 175
64 72
67 58
88 169
26 263
82 125
88 220
24 106
86 241
82 138
27 15
49 279
65 6
81 122
76 87
87 219
86 192
82 132
17 202
4 130
86 211
13 113
7 118
4 180
80 147
87 188
69 48
85 211
41 280
70 64
4 126
69 66
88 170
75 78
39 274
34 45
16 193
30 5
71 44
32 78
81 126
38 66
25 243
79 28
75 259
18 211
28 22
17 200
38 57
7 116
80 109
82 127
25 253
67 7
33 37
29 267
86 188
25 252
32 91
38 274
81 129
75 37
82 14
83 245
62 271
9 147
16 200
34 271
18 159
19 108
29 30
28 97
45 3
82 117
86 217
42 5
5 176
26 251
38 59
85 243
7 169
18 210
24 246
80 114
84 242
27 21
79 97
55 8
24 255
69 69
70 65
5 184
27 16
57 6
6 121
14 163
42 282
90 230
81 16
63 71
15 163
33 271
5 172
18 217
28 18
64 8
47 3
38 69
36 273
23 240
87 178
74 39
31 268
