2 114
72 121
24 117
60 47
18 87
57 3
41 28
13 98
67 85
63 102
76 130
48 17
16 124
58 11
44 25
32 110
59 21
69 146
34 47
27 136
61 162
10 66
73 82
15 76
73 132
60 23
31 110
64 110
56 19
66 117
60 27
10 87
55 3
10 93
11 94
38 143
69 143
46 145
79 82
33 53
30 111
80 79
18 76
64 185
57 10
66 192
41 176
44 24
16 69
76 74
25 99
19 75
61 63
15 128
43 173
53 3
32 57
57 29
44 165
28 100
38 37
10 91
60 41
17 85
50 14
24 131
55 201
74 133
63 109
43 151
41 190
62 150
60 58
74 81
10 92
68 81
73 126
41 199
14 70
69 148
77 83
56 4
58 202
52 204
21 71
70 139
76 82
13 97
31 97
43 160
63 180
32 55
28 135
27 103
62 158
40 195
28 113
8 88
11 68
71 120
62 175
67 117
44 167
31 142
15 64
64 184
33 108
59 47
45 148
18 70
68 86
44 141
73 128
77 130
14 89
