2 142
90 39
96 104
107 10
84 225
72 41
57 186
60 215
106 76
87 51
106 12
55 157
52 80
46 119
47 189
31 178
90 65
102 143
73 3
98 180
101 140
102 69
106 87
47 184
58 202
79 226
26 179
112 146
35 179
85 4
44 147
60 72
72 50
101 6
54 160
97 27
84 226
94 203
11 163
99 174
87 42
82 4
18 168
53 80
51 157
25 174
64 24
55 191
100 172
65 4
4 160
66 77
100 23
74 225
98 25
70 64
101 123
95 198
111 148
96 195
71 4
56 9
99 121
36 185
57 14
108 131
105 141
56 103
110 129
51 90
54 168
69 4
104 19
89 63
53 167
80 226
58 107
26 175
103 144
58 198
104 71
39 130
53 100
100 127
53 118
92 204
110 130
91 70
106 16
102 20
48 116
45 120
9 162
53 85
111 139
22 176
56 183
102 142
56 7
108 72
95 31
62 217
29 179
98 111
106 70
97 30
56 75
47 118
103 69
84 5
47 117
97 186
57 180
59 203
38 133
106 139
56 181
29 175
90 220
54 98
42 182
42 187
11 167
96 192
69 61
99 5
93 203
97 111
100 121
21 171
72 53
56 176
74 47
42 142
93 210
10 166
71 60
89 4
78 225
97 108
50 117
39 129
55 187
