2 113
36 193
98 139
106 57
94 80
28 30
4 84
70 183
114 60
48 224
70 184
5 86
8 105
108 58
42 223
22 50
77 170
38 182
38 12
33 216
47 6
115 62
77 208
78 216
96 145
36 188
26 36
34 206
39 224
21 47
78 211
7 70
7 72
97 143
13 123
106 56
29 160
88 43
37 193
64 224
95 82
37 14
14 131
37 171
95 93
29 25
4 83
12 66
45 7
11 111
35 18
21 56
12 130
29 29
88 40
93 122
19 140
76 225
4 85
8 108
95 69
90 154
32 23
11 66
5 85
94 84
95 90
78 169
117 74
89 157
73 189
34 200
23 147
73 175
96 53
5 87
22 47
23 149
121 73
107 76
65 223
78 21
27 155
35 225
31 162
92 122
87 40
51 4
81 166
107 56
8 101
79 217
32 22
16 62
116 73
94 73
97 141
33 212
94 110
21 48
94 115
54 3
49 223
87 36
38 11
38 224
20 61
69 12
7 100
7 103
95 87
97 131
80 26
94 102
