2 123
18 186
15 179
91 126
6 81
78 246
25 235
5 139
43 23
93 142
75 224
91 70
94 143
83 195
91 61
21 64
16 79
110 98
92 159
17 183
51 255
3 108
109 105
23 241
92 170
19 71
30 45
65 252
4 112
45 254
86 189
93 154
83 30
107 105
92 67
48 16
26 226
76 11
93 148
6 95
75 248
84 32
93 126
49 13
25 227
79 246
91 52
71 6
97 110
92 79
53 255
90 73
80 235
99 108
25 234
6 143
69 4
79 230
5 142
23 58
108 97
75 199
91 115
112 101
74 200
93 139
18 77
51 256
72 249
73 202
26 223
65 253
25 252
84 31
98 118
79 20
5 100
3 120
43 254
107 94
75 8
24 201
30 44
114 103
83 193
50 12
6 131
4 111
13 167
41 27
92 172
3 109
27 210
78 228
36 254
5 95
82 25
55 6
80 232
92 61
8 147
87 36
94 137
38 32
90 121
4 140
49 15
90 69
82 24
95 117
25 205
26 229
91 58
32 39
5 113
27 208
72 5
97 113
113 104
79 232
55 7
67 3
26 205
22 200
