2 125
57 8
57 196
42 169
66 134
34 93
39 23
41 18
41 84
37 36
67 18
76 56
63 139
15 88
101 68
109 67
43 195
74 47
10 88
32 62
38 89
49 202
67 25
20 55
28 63
39 28
41 183
60 150
71 101
41 129
59 152
23 92
42 119
66 135
54 164
57 160
17 93
95 72
100 56
56 4
67 116
57 185
43 103
56 181
104 57
27 94
61 148
68 26
35 46
92 72
43 189
42 88
39 25
65 136
48 203
43 157
98 69
96 84
94 81
44 10
97 68
55 182
98 56
22 58
64 136
17 87
42 101
12 80
75 94
16 92
39 121
43 200
109 66
101 56
66 132
42 17
16 91
39 102
39 22
45 106
73 45
99 50
20 61
41 113
57 159
89 50
66 130
13 86
99 84
39 100
31 63
56 180
54 169
42 192
43 161
36 49
42 136
71 97
36 45
30 63
49 6
92 69
87 91
32 93
10 80
76 95
106 57
84 51
51 3
42 154
42 186
43 171
43 142
29 94
46 107
67 119
58 188
40 82
43 174
72 101
69 110
6 75
57 195
37 34
9 85
71 106
