2 134
74 220
90 82
89 113
76 141
71 314
84 64
68 234
48 21
82 57
80 54
73 208
29 162
29 45
51 285
46 25
70 28
71 216
7 94
59 281
91 111
73 38
68 242
30 47
36 37
66 17
70 263
47 239
66 16
79 126
48 258
40 31
71 214
44 221
91 87
86 118
51 277
69 257
65 12
30 177
6 95
27 159
72 218
74 137
14 119
22 56
79 127
70 231
69 192
50 267
46 227
21 128
75 143
70 195
72 149
11 111
51 14
44 230
76 203
94 97
87 73
89 115
72 150
33 179
48 18
26 173
72 39
77 208
67 24
75 146
72 210
29 161
21 132
51 12
52 298
8 106
68 238
73 219
48 254
70 225
59 292
45 25
75 43
71 34
46 225
81 127
47 22
37 194
76 128
61 295
14 117
9 76
81 124
30 163
48 269
52 291
21 143
20 133
50 299
63 5
94 99
58 292
73 210
8 101
19 138
18 62
62 298
77 46
51 284
71 223
47 257
7 86
75 147
22 128
5 90
56 4
64 10
60 276
75 136
30 167
69 186
49 268
46 24
49 263
16 121
38 33
53 311
58 4
49 271
69 180
61 316
68 321
67 266
37 36
67 168
