2 141
36 31
107 108
108 110
109 67
11 117
19 231
92 144
93 144
93 92
46 15
31 40
10 113
86 149
84 34
47 15
15 122
87 234
91 52
27 43
65 220
103 79
80 210
91 49
96 94
101 124
91 231
88 148
85 38
46 182
42 183
32 178
58 218
30 168
18 43
49 220
36 183
18 155
69 10
68 193
5 91
24 224
46 16
101 102
95 82
38 229
101 79
6 86
9 84
81 159
57 218
95 84
62 219
44 191
61 184
24 238
69 11
13 126
31 176
19 133
105 107
100 115
24 167
88 145
98 58
85 35
25 220
26 220
81 233
102 114
84 150
107 65
41 199
63 5
19 156
27 173
49 187
72 17
90 226
35 32
99 123
98 129
94 139
21 150
12 49
65 187
41 198
41 227
80 161
20 153
33 228
74 19
37 204
38 29
40 196
10 65
86 235
42 225
19 136
90 50
93 91
20 240
18 156
23 162
91 229
81 231
21 240
49 185
96 125
32 234
8 85
44 192
111 71
50 186
40 199
105 64
7 113
5 97
61 220
46 189
28 216
75 225
72 15
63 186
99 132
100 125
29 43
79 165
45 188
46 20
22 225
28 175
15 124
63 183
93 90
9 122
70 176
66 190
84 215
105 98
43 23
68 177
