2 141
48 210
106 83
111 70
81 217
40 183
52 233
44 233
14 39
91 172
111 60
52 232
106 156
99 165
76 187
56 7
99 48
21 145
49 206
50 232
114 102
74 193
43 190
82 235
44 28
74 195
118 74
63 230
113 137
15 126
23 150
75 189
21 38
85 228
75 194
117 116
56 195
90 177
98 43
32 161
87 23
103 160
102 160
39 226
115 127
57 192
106 91
11 116
5 76
11 51
39 225
54 197
117 139
72 234
120 116
49 188
76 199
9 117
68 233
66 232
114 124
35 42
112 96
4 98
110 84
76 197
88 25
32 166
43 234
28 157
74 191
9 81
27 155
10 59
18 45
90 181
115 134
40 235
54 232
116 120
94 169
83 183
116 105
24 149
120 107
109 78
13 40
17 45
105 86
36 43
117 130
37 38
34 45
35 183
121 74
33 163
10 68
106 57
112 83
19 38
81 14
65 230
61 231
9 119
91 177
118 106
13 37
45 213
40 188
8 80
54 186
11 50
110 71
108 73
57 193
112 146
116 72
23 151
100 163
45 188
13 127
13 45
119 106
9 54
40 184
21 144
4 97
84 235
16 144
85 230
100 161
9 125
120 117
114 112
120 120
81 185
8 67
17 136
12 51
57 231
114 69
16 132
