2 139
78 205
88 137
28 164
77 242
85 183
77 28
34 149
97 166
41 256
40 33
110 83
86 52
49 10
40 256
72 215
79 264
25 116
39 39
46 196
91 259
95 95
75 211
90 129
57 6
31 279
108 88
100 75
31 276
34 285
84 248
85 249
90 109
50 10
34 139
37 47
25 81
45 271
92 104
100 92
48 243
106 77
42 28
7 92
90 111
78 31
38 179
85 188
84 51
86 56
88 152
75 262
98 163
84 43
83 267
99 277
30 153
47 202
33 135
30 277
57 259
87 59
28 78
92 153
73 214
27 120
77 27
95 278
31 126
54 227
54 233
84 269
41 182
91 121
25 161
53 6
70 13
82 246
38 259
13 87
36 174
45 20
70 258
32 286
33 287
19 109
89 174
82 38
21 111
33 66
98 268
42 29
78 27
39 258
33 145
109 85
91 73
81 265
32 72
28 79
95 267
108 79
91 257
84 184
88 253
88 143
39 184
92 95
42 253
48 13
90 117
45 19
11 106
34 58
32 75
37 176
89 176
77 29
67 4
76 263
54 5
104 77
8 92
94 73
40 183
90 118
88 71
71 15
89 255
73 213
36 262
88 63
107 89
33 150
50 265
26 81
41 28
102 91
90 123
92 94
