2 97
59 33
14 181
17 176
8 62
49 173
30 5
51 16
65 68
55 186
13 183
55 25
53 200
21 15
31 5
56 137
64 71
27 152
23 166
67 103
14 121
11 113
27 150
19 172
9 54
58 36
24 143
47 195
57 195
53 183
45 153
57 30
67 55
54 138
65 100
17 196
61 47
73 115
51 177
9 202
11 42
51 178
59 35
42 7
14 118
65 49
45 164
67 57
10 42
52 179
47 9
8 59
54 187
3 100
32 5
12 116
56 189
25 140
47 167
9 53
72 60
65 98
72 107
25 145
11 199
27 155
55 188
6 104
40 188
8 190
27 7
50 175
67 122
21 14
58 197
10 49
45 152
6 103
50 13
12 36
57 191
57 28
65 78
10 109
66 51
45 162
26 148
53 201
74 66
9 58
39 188
24 11
63 47
58 133
8 70
23 164
16 24
11 185
