2 84
36 172
10 92
4 136
42 41
38 166
82 19
66 55
26 65
69 59
72 69
71 106
80 22
74 90
36 9
59 22
74 101
43 37
84 12
66 128
73 19
44 3
4 134
42 45
81 8
7 100
6 110
40 32
31 55
41 35
75 85
23 174
6 112
65 24
63 136
71 33
68 57
36 19
64 134
7 105
45 6
62 142
84 8
62 22
47 159
74 84
68 56
33 174
71 109
35 50
4 135
71 22
13 160
79 10
8 102
6 108
13 87
38 26
62 140
73 98
40 46
66 129
65 126
65 50
30 174
32 53
39 165
53 153
7 108
12 88
12 89
83 17
70 113
63 48
41 12
38 25
15 80
55 20
38 7
50 20
7 151
24 66
5 113
57 148
58 148
