2 159
13 132
50 351
82 73
81 73
76 187
49 274
35 70
49 342
40 56
51 349
28 166
33 213
64 340
73 211
50 26
33 71
91 284
30 88
49 337
72 300
86 166
32 195
26 165
81 76
79 273
52 21
32 204
81 89
74 221
29 166
82 172
29 187
71 24
65 343
64 236
31 205
73 25
47 336
67 226
48 34
74 216
82 72
89 96
30 183
31 86
86 151
71 15
29 101
38 243
83 55
103 120
33 212
56 8
101 119
51 350
87 147
86 95
85 277
29 180
90 290
83 292
63 327
89 121
50 271
91 99
47 297
82 176
82 56
71 270
69 306
29 95
19 159
17 158
73 28
73 202
39 57
81 54
92 285
89 138
87 148
101 104
30 188
90 97
31 224
31 196
102 119
80 80
47 286
47 298
50 344
75 34
19 127
24 121
48 299
49 345
50 265
47 302
80 180
78 184
80 85
74 195
66 227
108 117
73 197
49 280
81 91
81 60
21 162
73 199
47 318
48 288
25 163
33 73
79 79
74 193
32 208
27 165
33 219
70 308
47 285
91 285
45 246
67 267
73 215
12 135
82 60
98 101
43 46
33 237
30 181
63 328
67 10
90 96
109 116
48 340
32 233
66 260
31 80
74 29
44 42
88 122
74 294
52 17
88 129
13 134
49 267
83 66
28 105
75 294
50 24
68 309
105 120
82 291
80 76
92 286
31 190
48 327
29 174
81 70
