2 144
44 79
34 39
83 72
114 206
96 229
89 16
36 15
10 139
84 49
74 26
19 208
65 252
4 179
95 93
108 115
4 155
41 12
23 209
12 134
76 253
11 137
46 235
82 246
44 34
104 106
105 212
93 24
11 140
77 64
32 14
41 35
31 28
39 236
12 205
85 48
103 107
120 170
6 175
119 151
120 165
7 148
121 197
48 4
34 221
105 109
88 18
92 23
35 40
39 10
43 81
47 56
121 161
83 74
9 146
102 217
117 177
52 60
118 136
38 10
122 192
75 254
39 235
101 224
105 213
5 201
113 125
100 224
48 56
88 238
30 20
35 16
117 137
4 178
122 153
81 24
123 190
3 178
34 37
57 27
122 197
39 234
121 198
30 31
35 18
114 205
39 31
83 51
38 31
39 5
45 53
120 162
101 220
121 165
121 199
40 242
32 36
123 187
120 184
57 66
40 83
42 51
6 162
122 194
120 158
118 144
41 240
82 73
30 21
114 130
111 208
119 158
46 247
45 8
86 46
48 31
82 69
10 204
39 34
93 17
47 76
38 235
25 107
37 13
40 34
6 177
22 207
117 143
6 164
19 118
100 100
42 248
46 236
95 231
112 208
95 90
20 114
117 176
120 166
110 120
82 72
47 7
7 150
39 238
45 79
