2 89
58 166
23 81
105 105
72 39
60 8
50 16
78 49
43 163
56 5
52 41
51 23
92 80
30 69
39 56
40 54
21 131
53 30
78 12
54 167
76 21
97 115
53 31
95 91
62 164
96 112
67 9
99 135
71 38
21 88
76 45
48 45
20 129
22 86
96 120
103 104
97 100
89 141
12 121
58 6
18 92
51 24
49 13
93 137
96 96
73 159
31 68
61 14
53 5
49 8
68 160
101 133
26 78
97 132
18 93
74 24
43 162
96 97
22 134
18 89
97 103
83 57
12 99
85 61
74 43
87 62
90 67
75 20
61 8
44 50
34 157
28 74
76 7
57 7
13 117
94 85
89 66
105 104
33 65
87 144
11 102
31 153
52 28
96 123
63 164
27 78
49 10
37 159
50 13
28 148
