2 128
84 207
119 93
27 49
11 102
116 159
120 106
119 103
111 172
4 116
115 170
48 49
10 152
104 179
43 18
71 17
44 48
42 3
36 173
16 90
56 43
8 109
59 13
21 73
113 72
89 46
119 148
42 181
118 127
26 58
120 103
10 97
111 69
42 4
44 4
120 135
6 140
89 33
111 70
41 49
128 145
127 145
7 143
119 117
21 72
120 140
102 184
96 22
12 156
34 48
95 22
17 160
47 27
132 145
25 55
47 186
7 152
120 158
6 114
52 193
87 47
56 52
6 124
57 45
20 159
5 122
119 92
115 160
25 53
63 16
65 16
24 170
59 51
21 79
133 144
120 105
35 172
9 112
21 77
6 119
119 129
24 64
40 11
119 95
22 169
65 203
90 31
42 13
22 76
57 44
7 114
91 198
87 206
6 133
39 48
8 136
5 133
86 38
82 44
98 188
31 171
119 143
42 48
26 51
89 199
94 23
120 124
88 203
118 100
119 142
15 83
81 47
14 93
119 114
58 13
127 152
21 78
9 138
44 20
50 190
15 159
102 181
35 171
27 166
51 32
115 165
120 149
22 79
87 36
