2 148
27 54
36 160
131 114
109 170
56 272
114 165
129 126
30 47
133 60
131 86
123 80
33 40
118 153
10 91
132 114
115 255
64 205
91 12
92 12
94 202
73 3
119 54
48 268
49 184
133 99
102 261
130 120
100 189
14 90
30 44
52 186
44 21
131 112
124 138
10 90
70 220
73 4
16 118
97 227
122 58
130 88
136 104
84 255
138 84
65 229
83 6
126 77
11 71
132 117
98 198
15 104
60 237
111 250
133 92
112 251
57 243
21 127
71 3
62 205
96 227
71 220
88 213
20 127
24 136
91 216
10 92
129 129
53 13
10 80
62 6
64 206
72 218
124 78
65 231
46 19
105 260
29 146
62 264
36 34
100 258
106 179
7 63
16 117
17 65
46 175
101 259
16 59
72 217
51 258
19 127
112 249
88 255
131 62
18 66
51 185
57 242
29 50
75 256
90 214
14 68
106 241
134 68
102 186
52 14
40 167
29 145
58 242
55 271
13 78
135 102
119 154
82 6
61 201
34 159
24 142
49 276
120 147
19 124
16 116
126 74
126 75
43 170
13 73
101 188
32 40
13 63
108 264
52 254
102 21
60 203
11 63
12 94
48 183
68 223
19 121
134 107
119 56
114 46
102 22
99 18
117 49
31 46
125 136
61 236
57 194
115 158
98 229
101 22
