2 138
37 258
14 110
103 101
87 18
33 240
19 22
63 226
43 46
108 142
36 63
41 30
29 7
84 6
102 164
45 37
70 45
93 170
33 233
5 180
39 257
8 131
78 37
108 159
88 52
36 258
8 126
35 247
18 101
104 106
41 239
77 4
92 172
108 132
34 214
104 142
86 40
106 148
59 227
97 77
4 169
106 119
39 249
102 100
63 40
62 39
87 43
12 185
108 129
9 137
40 250
62 31
90 190
92 180
23 10
105 161
33 215
86 35
49 222
39 254
89 14
87 8
7 143
90 59
106 149
92 171
73 25
5 154
23 90
24 192
83 210
103 103
108 126
31 206
86 34
97 80
47 222
15 107
107 159
79 37
73 41
106 154
50 3
107 120
30 76
17 100
13 114
34 255
88 45
42 25
40 249
31 28
27 198
108 137
37 26
89 199
4 165
64 3
40 243
12 183
74 217
90 14
90 56
103 158
110 140
67 28
78 4
91 57
8 124
90 194
32 205
21 96
41 237
41 25
48 222
46 36
61 3
100 93
88 9
76 4
86 39
63 43
47 3
71 220
98 87
90 13
89 16
84 8
105 106
80 212
72 3
19 102
34 223
68 222
25 8
42 48
12 115
45 3
109 144
