2 154
6 68
123 238
139 80
87 222
146 137
18 46
101 173
114 34
11 55
103 223
65 241
54 17
5 95
5 104
11 58
64 238
35 172
4 85
70 9
61 216
119 184
68 9
60 245
135 168
42 27
143 148
108 173
107 224
141 86
140 79
40 28
111 177
59 246
117 239
137 58
149 78
60 243
141 82
137 76
111 31
77 178
113 202
153 70
14 141
140 156
113 180
18 45
154 71
104 180
77 5
153 76
58 16
92 8
7 122
32 40
17 146
142 88
4 111
129 178
132 171
150 64
151 68
114 182
139 74
73 190
72 193
61 214
62 212
117 182
95 10
72 175
63 212
74 6
59 243
50 191
146 95
102 168
141 154
120 186
144 74
46 185
72 191
113 204
109 196
74 173
65 208
64 186
97 12
5 78
106 187
88 222
52 192
103 180
141 81
4 79
76 174
46 23
109 175
114 230
66 207
110 196
53 17
131 56
116 235
13 138
5 75
66 237
128 180
44 23
115 35
110 176
15 55
128 53
60 221
108 27
6 119
54 16
93 9
101 175
71 195
143 92
81 5
61 189
45 185
142 73
59 245
52 17
35 36
144 144
16 144
112 179
99 224
144 146
130 175
49 190
56 194
108 174
92 221
30 41
120 247
60 244
155 67
101 170
100 224
42 181
107 180
24 157
109 29
4 92
118 182
105 23
134 56
13 51
62 217
