2 97
78 135
58 4
44 131
16 112
94 54
33 130
26 27
41 13
12 107
11 42
63 160
12 42
15 35
58 3
7 50
47 129
8 98
103 83
102 85
101 96
54 127
38 164
89 165
90 167
80 139
105 50
86 125
56 5
54 132
94 40
12 40
48 164
97 39
100 52
34 18
91 163
36 17
25 29
92 68
44 130
87 149
13 106
6 84
61 3
89 164
102 86
5 55
50 7
61 161
57 160
7 47
92 164
38 178
101 42
29 127
94 104
6 54
6 82
78 22
7 82
52 136
6 85
77 135
4 55
51 128
95 39
77 137
37 16
50 8
9 96
76 135
41 174
90 52
14 38
90 63
15 37
6 52
38 174
102 87
48 128
101 89
41 133
33 20
46 147
28 26
40 178
5 69
10 100
105 51
93 51
42 12
96 105
76 158
46 130
6 94
81 141
91 52
