2 151
73 179
54 14
22 198
63 54
22 300
26 268
21 188
29 47
79 135
13 325
18 314
10 332
30 344
30 40
61 207
24 293
68 193
26 287
27 54
19 156
23 75
48 240
18 353
25 66
63 59
18 115
24 58
77 96
22 91
77 101
7 342
24 294
33 23
9 338
76 167
76 162
22 203
66 68
55 230
10 334
59 310
20 191
46 282
32 23
43 266
81 130
59 38
79 106
48 239
31 41
22 89
21 83
17 249
24 239
25 69
58 214
22 302
65 64
61 44
62 50
63 55
80 129
24 74
22 350
67 64
53 290
19 160
67 69
41 274
23 225
41 322
25 274
80 139
21 263
71 187
49 240
78 101
60 300
55 292
42 317
47 249
3 143
4 144
79 121
19 167
68 196
25 279
63 225
22 81
79 120
79 151
17 251
7 344
22 188
24 72
25 270
18 163
26 290
21 100
80 116
60 220
6 135
62 221
40 6
59 300
74 87
23 238
40 324
49 7
5 348
51 310
36 338
55 16
30 42
43 267
43 280
33 24
23 217
44 259
18 249
35 335
26 273
55 229
62 55
53 312
23 203
62 48
21 107
52 10
43 261
74 174
16 256
71 185
47 5
79 143
79 127
35 331
59 210
48 241
62 53
68 195
58 31
22 215
21 94
23 223
77 160
28 345
38 325
56 18
24 265
30 41
