2 88
10 98
78 107
11 40
28 166
89 52
37 165
6 51
15 107
17 28
26 157
6 52
61 167
75 37
23 20
72 28
73 118
28 124
3 66
26 158
68 124
22 173
77 110
3 63
5 57
24 161
39 137
38 8
36 129
27 122
90 57
84 72
5 54
6 75
87 57
9 41
78 63
4 71
49 167
5 56
32 165
22 21
59 166
37 142
74 115
32 127
36 142
31 125
88 58
53 166
71 123
79 105
25 19
55 4
59 144
65 152
39 8
31 165
35 166
77 60
87 58
11 99
17 108
50 167
22 23
78 45
48 3
17 110
14 106
12 102
86 84
79 62
85 80
4 58
57 5
80 65
85 90
21 24
30 150
20 115
21 169
9 93
77 56
23 117
76 43
32 13
84 96
11 98
94 60
