2 104
7 112
26 225
66 202
48 4
14 142
54 216
8 113
12 60
7 113
27 24
15 146
80 48
66 197
79 48
63 222
15 50
61 13
22 192
21 33
60 11
29 175
66 165
32 18
63 186
78 41
62 222
63 188
5 70
77 42
84 96
26 180
93 84
7 66
58 226
19 207
18 208
63 223
22 222
64 219
53 4
28 215
23 162
91 98
63 17
81 52
77 153
56 219
14 149
14 146
9 131
6 70
83 123
42 213
34 212
78 45
9 125
63 183
8 102
26 226
47 213
24 27
77 155
6 71
4 77
4 81
56 223
68 21
18 213
29 218
93 76
29 172
6 90
13 139
27 181
9 132
4 74
83 130
62 14
9 117
18 211
82 109
14 141
64 169
63 185
57 227
13 60
60 12
4 83
86 96
77 37
66 213
63 15
53 5
32 213
83 59
9 126
74 31
92 74
76 38
64 195
26 25
57 223
21 32
45 214
