2 100
59 19
107 139
91 137
51 188
92 127
34 47
34 3
75 32
77 168
108 140
73 13
96 104
29 176
31 21
90 73
34 9
4 129
3 121
95 117
69 182
104 145
96 111
95 115
85 154
21 166
65 190
90 71
5 113
72 40
96 103
32 178
67 186
31 30
68 48
58 19
7 152
69 55
70 54
64 19
95 111
95 102
77 12
31 12
87 152
80 47
66 18
95 103
31 23
76 31
93 80
22 66
6 150
36 11
81 47
32 177
28 55
45 183
72 178
17 168
24 61
91 138
91 122
4 134
52 189
4 128
49 20
84 55
71 53
89 66
96 108
67 53
13 161
93 119
30 27
96 139
69 56
5 105
54 191
81 50
86 63
33 34
19 70
96 95
9 96
97 108
79 48
33 179
106 137
4 125
80 52
107 138
81 161
7 104
4 113
4 116
35 41
65 18
89 74
49 186
84 156
