2 115
127 144
134 131
26 170
108 162
120 95
27 65
111 76
95 33
86 50
62 28
34 14
97 29
90 23
74 197
78 197
23 168
102 178
4 109
36 59
88 52
15 83
123 108
123 115
16 161
38 12
97 11
123 125
10 153
128 142
114 152
59 194
75 198
123 149
118 93
28 172
4 108
19 165
81 199
7 137
44 59
74 198
33 27
123 112
86 197
34 173
123 123
39 38
69 28
128 143
89 54
93 15
123 116
114 84
8 140
97 60
8 134
38 5
115 152
75 29
98 23
101 64
90 197
54 193
33 60
95 31
3 107
91 195
36 175
95 187
38 6
123 124
44 25
46 28
53 191
34 10
80 199
43 46
133 138
112 82
29 172
94 9
64 197
16 162
134 136
124 118
76 198
93 188
120 98
117 88
92 189
94 35
11 152
99 19
98 10
91 40
55 193
8 136
62 29
8 99
88 43
117 151
27 170
39 8
122 103
98 182
137 131
123 111
4 106
83 199
125 147
120 94
40 59
88 25
98 60
29 63
