2 106
31 16
43 20
24 9
28 24
96 147
6 98
40 42
7 97
97 150
27 160
41 181
85 174
57 186
28 8
38 49
85 8
38 178
57 20
7 132
36 175
47 21
15 151
52 184
28 9
100 155
6 111
77 40
98 119
23 156
97 119
68 20
100 94
25 12
34 19
78 39
85 11
50 184
58 21
33 49
103 157
82 54
92 66
26 159
25 14
97 72
113 129
29 12
30 164
31 166
62 188
25 3
99 90
16 151
79 38
13 77
26 23
101 138
88 10
38 48
115 127
28 27
114 123
43 181
9 141
8 134
19 154
63 20
94 159
43 21
99 85
6 123
95 159
79 179
6 110
78 50
111 124
48 21
84 55
113 123
51 21
116 122
16 150
86 59
98 152
7 122
99 96
39 21
8 139
95 158
96 158
7 135
82 33
36 19
111 131
10 85
29 164
25 13
24 10
30 29
84 30
59 187
78 47
88 12
37 37
67 20
94 69
