2 161
74 317
24 71
73 250
72 315
83 61
88 199
85 130
25 192
47 259
85 107
86 310
21 145
81 59
85 158
83 304
68 12
81 53
79 292
42 238
25 191
85 145
20 158
52 272
51 266
88 319
28 54
84 181
78 222
79 50
90 89
93 99
90 114
20 122
87 315
3 189
38 228
91 200
46 256
55 276
74 239
42 11
71 20
90 324
41 231
19 128
34 34
63 305
84 213
37 313
39 303
50 282
47 252
74 26
72 23
86 135
78 233
21 155
45 320
80 54
93 100
26 192
34 210
85 80
33 210
11 172
82 298
43 245
84 186
74 246
83 69
87 311
55 6
96 111
56 7
36 29
82 62
77 225
91 115
85 151
59 307
85 75
55 10
86 108
82 56
49 284
44 243
40 19
78 43
21 151
78 234
72 250
38 225
67 9
43 242
24 76
8 190
18 187
78 47
70 278
77 234
43 240
85 70
71 260
21 188
69 15
20 126
42 12
36 217
76 230
87 107
84 166
41 234
37 28
96 109
51 265
75 37
85 81
85 176
85 108
86 308
19 126
97 110
86 118
90 320
7 176
87 197
22 190
73 27
85 170
76 39
86 109
91 324
85 71
38 221
78 290
19 129
34 212
37 226
94 217
47 320
6 179
30 46
83 213
78 46
60 3
35 217
40 18
46 290
29 52
8 176
22 90
28 57
71 268
89 214
70 263
38 229
6 191
83 182
25 73
40 15
51 268
