2 135
58 141
42 46
59 205
9 207
40 56
27 250
27 20
28 250
48 89
49 97
50 16
20 94
61 125
54 111
11 3
63 11
52 106
30 26
57 11
58 140
10 141
18 110
63 12
17 27
46 274
34 268
25 42
55 115
9 145
20 96
10 143
61 221
27 252
58 146
35 271
35 30
47 92
10 127
52 253
10 187
16 155
18 102
63 14
58 168
15 123
19 35
49 101
47 19
13 227
24 79
11 197
51 107
13 3
42 61
53 16
61 210
45 83
54 229
28 45
18 32
30 25
57 156
12 197
48 95
24 77
61 208
18 109
27 249
59 206
41 55
57 163
22 237
15 24
59 187
60 124
62 210
21 95
11 8
63 126
63 125
15 4
46 77
51 104
14 125
58 195
8 204
15 158
64 11
51 105
12 14
68 129
64 9
21 91
69 128
24 14
50 17
28 20
33 29
11 202
41 64
41 56
34 31
58 27
9 181
51 262
23 78
25 246
41 57
12 217
10 144
58 170
10 195
48 18
55 33
64 132
60 23
28 251
54 112
42 67
13 146
15 125
12 13
25 41
49 18
48 273
19 99
25 247
8 127
57 12
59 171
29 47
11 208
11 146
34 28
51 109
