2 131
11 127
14 34
50 80
30 64
17 184
25 245
47 31
23 103
27 74
69 104
26 29
5 9
27 77
4 19
50 81
63 191
64 110
50 77
23 236
67 106
18 180
15 137
20 107
44 256
67 12
22 27
19 178
65 158
44 63
10 29
29 71
71 23
15 135
63 111
21 105
45 65
28 77
57 225
69 119
37 263
63 187
65 171
18 183
51 44
54 234
73 18
23 97
54 94
56 229
53 237
51 243
63 190
71 102
57 38
66 127
76 98
64 181
64 187
59 36
20 217
12 16
64 209
22 114
74 15
65 163
73 14
63 207
47 251
19 220
63 186
64 168
57 105
45 51
24 92
8 28
73 3
56 39
43 58
27 76
53 42
25 46
65 154
20 110
72 17
49 249
25 90
42 55
61 213
72 116
59 216
50 246
12 33
48 251
45 31
28 252
17 208
66 126
65 169
4 14
63 144
73 11
22 230
26 84
64 157
64 204
8 114
43 59
64 161
70 25
29 72
59 224
31 55
52 43
18 150
24 45
69 25
19 170
20 24
21 112
60 219
31 51
17 140
18 156
64 141
52 85
67 124
54 238
38 34
16 136
22 43
68 122
