2 139
66 191
52 263
30 65
16 176
5 15
16 175
70 13
63 207
19 202
20 22
44 279
54 108
45 91
15 162
5 4
10 27
11 214
9 140
70 18
46 53
18 40
13 210
48 273
25 245
13 134
61 231
63 130
52 103
20 42
23 105
66 152
60 197
15 17
67 145
55 254
16 160
64 159
46 52
22 47
51 96
18 199
27 87
51 100
23 47
64 21
60 235
16 208
64 208
17 197
10 11
23 237
37 35
59 195
58 41
11 13
64 183
59 235
70 220
44 89
16 178
7 21
29 64
10 10
46 85
65 162
26 89
44 60
34 35
7 19
23 110
24 237
67 214
71 13
44 77
7 6
55 115
19 203
54 112
48 50
32 275
18 184
54 115
34 281
49 49
54 28
68 148
61 195
25 95
12 211
67 146
27 73
15 173
71 217
12 12
20 208
66 227
65 32
65 189
41 72
70 20
28 265
21 231
43 59
27 29
42 66
13 208
56 250
28 54
17 165
30 61
66 30
5 12
33 276
44 83
33 275
12 134
12 30
9 141
25 243
27 74
64 169
64 185
54 110
26 248
38 283
61 36
25 255
32 277
20 127
24 97
28 259
46 86
59 237
57 250
20 128
9 143
51 265
69 140
14 208
