2 125
96 86
95 85
63 42
27 105
49 222
92 158
87 174
98 163
76 72
30 115
27 3
81 17
69 219
34 185
63 38
45 11
82 186
86 140
52 13
41 76
86 175
87 131
8 151
76 71
83 96
29 127
41 21
77 20
81 192
79 200
28 137
87 136
50 54
90 159
86 126
80 196
57 15
85 111
82 82
99 172
73 213
27 139
87 140
67 28
72 67
34 5
70 25
84 110
79 18
46 25
29 3
96 164
84 85
75 73
51 46
32 178
78 80
16 165
27 5
51 51
83 181
76 205
72 11
83 189
14 163
73 66
74 213
89 173
46 62
28 138
33 182
84 106
55 32
107 166
47 220
86 94
3 152
15 164
49 224
55 234
6 152
66 226
73 68
29 12
52 229
85 85
85 4
84 178
81 193
22 97
31 123
87 159
85 114
40 79
47 13
53 40
69 11
69 220
33 92
38 83
48 13
88 85
25 171
53 45
84 84
87 128
40 20
90 158
66 53
83 97
91 158
68 223
30 171
99 163
23 103
54 39
18 168
87 10
84 102
86 124
26 145
85 118
49 26
46 58
72 69
