2 143
54 74
50 19
60 29
63 33
46 94
10 194
88 260
99 112
54 264
31 171
72 23
60 274
99 213
106 12
116 189
23 199
99 121
60 58
99 129
57 14
113 191
98 113
104 103
99 154
44 3
99 143
100 149
49 6
29 111
43 8
31 169
91 29
42 102
47 241
35 121
92 248
45 4
44 231
103 189
116 190
33 149
89 84
100 151
75 283
20 185
100 108
32 166
34 143
99 167
32 157
22 185
101 106
59 15
35 110
85 78
110 187
75 48
74 24
97 14
113 186
29 112
99 214
18 186
31 162
106 15
99 135
35 111
31 172
114 187
34 148
99 159
100 160
91 18
90 19
48 243
64 48
97 225
48 89
75 47
99 148
89 30
28 198
82 70
62 32
99 184
99 207
31 161
57 66
53 72
95 15
99 100
75 46
97 226
65 281
102 105
60 63
100 186
105 101
50 5
21 185
51 5
70 283
55 264
91 254
82 276
99 12
76 40
63 51
97 165
100 142
39 132
41 107
99 127
48 85
99 157
48 14
34 147
89 85
35 201
106 10
20 186
64 281
76 53
34 150
89 260
60 273
94 241
115 191
60 62
9 187
32 200
76 24
57 26
53 9
100 206
57 270
113 187
99 124
42 221
108 187
103 99
94 238
75 49
