2 161
42 39
88 142
89 170
44 218
84 207
26 102
22 82
88 170
30 152
45 356
35 334
54 298
74 24
88 165
69 283
88 172
45 20
75 32
103 86
54 346
66 328
56 4
88 184
52 254
41 46
32 162
7 94
29 123
96 83
48 227
45 30
68 285
76 251
85 64
50 252
73 15
90 107
80 220
48 250
39 60
31 351
89 162
88 148
4 94
47 227
88 187
87 145
40 327
48 241
35 335
41 320
40 326
49 353
47 226
36 331
56 281
10 86
36 76
75 322
71 272
83 61
46 356
87 157
40 48
51 10
47 248
89 169
83 59
31 160
76 37
60 338
35 77
30 149
76 252
68 287
73 257
39 58
84 61
13 84
49 11
8 95
39 199
88 156
48 12
75 31
68 281
70 290
83 202
48 240
88 108
75 295
112 94
74 294
44 21
109 106
87 308
56 276
88 109
56 265
67 8
88 311
48 311
85 197
83 62
88 131
117 100
31 158
16 83
47 245
79 248
84 205
24 81
31 349
55 352
100 110
55 275
39 205
7 89
57 4
30 123
71 264
101 109
29 119
56 343
41 355
88 163
77 250
29 131
55 7
87 131
83 203
57 294
80 48
48 232
44 20
106 107
88 141
47 238
56 297
30 154
85 65
35 352
31 155
14 99
40 59
88 186
54 351
87 126
73 293
69 10
42 321
37 69
25 80
73 261
52 9
108 90
29 148
56 280
97 110
44 355
35 337
