2 148
124 194
107 109
37 279
108 19
16 225
111 168
116 198
52 21
61 18
21 227
52 80
105 46
64 292
87 38
30 265
34 275
112 172
113 198
92 83
42 97
90 271
68 290
56 8
17 137
92 86
77 39
50 63
103 51
117 140
107 243
31 267
136 209
100 24
40 96
131 200
103 18
113 145
6 187
116 122
107 39
61 292
16 137
107 13
107 10
52 74
104 251
43 283
124 221
98 259
38 93
25 231
111 165
64 33
7 189
109 14
104 250
46 284
94 32
111 161
10 163
108 15
28 255
61 20
89 37
116 141
48 44
29 261
41 97
21 125
35 93
114 145
30 261
105 247
58 6
48 52
62 293
105 43
15 144
126 194
77 38
12 157
110 234
61 9
95 73
133 204
20 130
85 277
107 246
61 293
74 287
96 30
42 90
92 36
112 192
107 25
118 125
61 7
110 155
100 23
47 45
108 20
101 23
102 255
60 26
51 23
51 70
132 214
48 53
67 37
104 13
108 31
99 97
92 81
107 35
33 271
108 111
51 64
5 207
53 21
83 280
54 15
96 95
130 197
93 34
58 7
50 31
49 58
28 248
25 235
6 215
97 65
29 263
23 122
34 97
12 153
27 116
114 195
26 242
17 136
107 11
57 8
110 149
52 79
134 213
69 290
107 40
79 39
116 227
