2 133
31 250
33 255
34 60
69 110
39 13
59 244
54 61
32 77
22 22
34 31
5 171
30 88
13 13
57 71
9 178
35 44
56 21
66 162
11 197
54 265
46 284
36 267
19 18
66 167
49 43
66 5
24 23
65 203
37 277
61 230
66 223
28 99
11 202
55 258
16 211
81 216
65 188
75 213
12 144
9 179
30 83
56 69
65 200
51 273
13 152
30 92
63 13
55 257
59 240
66 172
72 213
65 206
59 82
11 188
73 214
36 42
34 45
11 193
70 222
50 46
66 131
27 221
28 128
65 192
60 238
28 232
34 259
65 223
64 188
11 152
23 11
66 156
20 119
12 197
60 242
62 235
25 11
31 70
48 279
56 67
27 99
12 143
64 217
65 124
55 262
29 239
61 232
58 81
80 215
63 223
32 69
30 242
31 252
64 198
65 171
10 178
28 233
19 118
34 262
28 97
28 129
24 122
64 213
26 11
33 260
66 101
8 176
12 150
61 84
62 227
33 259
62 228
61 89
70 107
30 238
79 220
54 64
65 118
22 114
55 69
32 62
52 23
34 56
29 233
24 134
30 239
65 176
23 121
65 204
65 170
65 168
12 9
12 190
