2 164
81 79
88 102
80 45
36 241
48 90
113 198
100 242
12 192
34 228
52 31
97 254
83 27
13 193
31 109
98 126
5 196
105 164
54 35
47 24
96 258
117 187
27 119
111 199
47 26
44 262
98 130
26 163
76 66
84 89
19 208
83 85
57 38
88 103
41 251
76 295
104 101
35 229
105 156
33 116
89 26
75 27
13 191
103 219
101 239
86 43
40 5
101 238
35 236
34 224
100 120
28 118
46 98
112 20
95 107
17 208
71 282
100 237
87 100
77 294
113 186
27 211
101 227
49 12
41 3
67 282
108 188
56 36
105 94
28 112
44 260
97 128
72 285
26 160
129 14
35 123
89 278
72 27
118 187
38 243
78 70
31 112
124 15
100 238
100 118
36 234
107 185
99 38
51 275
36 238
12 204
52 32
85 92
86 283
86 98
18 186
106 155
32 221
35 231
100 98
11 203
129 18
89 101
34 230
53 32
106 182
101 228
31 215
107 174
54 278
126 21
35 232
102 135
126 22
104 147
27 128
78 72
33 220
98 23
92 109
19 209
45 7
67 22
35 233
75 26
31 213
130 13
79 71
26 162
106 170
16 189
79 72
41 253
64 51
116 29
63 58
101 236
64 53
102 221
21 175
11 205
103 108
25 161
75 62
82 45
37 123
39 13
108 22
31 216
100 119
24 171
70 26
109 188
101 232
24 168
37 237
19 207
106 206
97 104
96 260
74 290
110 201
57 285
102 223
105 157
