2 162
41 262
11 199
10 199
91 164
34 245
76 85
30 119
71 61
98 193
86 244
32 241
25 131
113 11
85 117
29 221
33 241
100 26
34 17
59 57
18 181
23 207
84 258
90 128
86 232
87 116
43 105
105 22
52 280
92 92
80 114
88 146
61 274
34 243
27 151
66 283
24 120
85 250
87 231
66 30
57 43
43 18
102 201
72 74
52 82
76 43
87 138
87 235
91 157
96 92
30 224
75 75
93 116
113 5
25 111
114 5
27 137
55 25
87 115
80 271
52 282
85 248
92 156
55 70
86 234
44 31
79 276
100 193
47 272
92 122
25 126
92 123
14 185
101 14
16 183
90 179
48 276
90 192
75 290
57 280
56 25
31 119
92 95
61 29
95 101
101 26
38 23
46 272
90 103
89 109
82 267
94 90
90 191
70 50
15 201
92 157
46 99
51 21
87 242
25 164
108 18
90 34
65 278
88 219
50 21
13 186
103 196
92 124
89 111
27 145
54 74
57 52
82 110
93 90
34 126
32 13
60 58
95 18
28 220
69 56
38 256
93 123
86 22
102 194
24 115
80 41
88 220
80 276
46 19
46 95
91 189
108 17
75 90
72 66
81 25
89 130
81 270
91 195
79 279
81 39
33 238
24 208
59 58
77 286
32 235
81 103
35 19
36 124
16 203
28 110
91 103
105 21
37 120
24 129
91 149
25 122
64 278
107 20
25 124
33 243
92 154
94 108
32 15
