2 137
6 108
72 187
140 125
31 132
102 274
57 18
71 239
147 74
72 181
41 138
104 180
117 34
71 234
46 33
162 102
71 180
65 296
68 269
48 158
38 48
97 203
71 242
95 218
137 142
71 300
70 209
132 49
87 248
66 286
160 93
68 271
68 276
70 6
90 229
126 44
34 56
29 64
83 257
39 48
35 52
89 226
7 108
69 265
77 5
70 248
71 221
132 51
148 119
22 76
71 184
141 123
105 180
72 193
92 244
126 161
65 280
17 122
60 13
70 222
110 21
139 59
26 128
93 7
71 222
98 283
122 164
158 90
96 208
156 89
67 6
113 26
98 194
71 212
138 145
65 294
64 293
159 111
114 170
45 39
24 126
71 193
57 17
162 103
99 11
6 112
71 220
105 277
94 266
116 169
98 214
71 181
64 175
82 4
150 116
100 193
136 140
36 50
72 179
71 264
97 212
71 191
97 214
86 289
153 115
15 120
110 20
10 100
102 184
132 158
68 6
86 290
87 247
71 207
46 157
69 236
145 70
116 32
70 232
20 79
116 30
84 254
147 73
72 184
35 135
110 174
66 285
23 76
14 94
72 194
121 164
16 122
138 144
67 279
95 206
94 240
65 285
71 202
