2 203
90 360
54 31
115 267
104 393
50 76
91 375
48 311
74 58
28 161
52 60
114 270
89 305
73 357
65 357
98 148
95 367
36 214
68 357
51 12
92 96
47 281
65 81
35 214
50 314
88 309
32 356
78 344
102 236
47 316
76 332
36 121
76 324
39 251
81 72
17 373
48 8
51 79
34 181
49 290
89 373
48 6
96 136
13 152
70 357
107 394
55 42
106 238
102 214
23 374
49 291
26 360
25 372
48 18
98 263
13 140
37 231
102 202
92 97
59 326
36 222
101 215
100 159
111 256
90 362
52 355
57 354
36 223
36 232
101 231
57 320
54 33
87 290
35 212
68 71
18 136
34 199
40 259
37 233
50 25
67 74
90 299
6 144
73 60
100 169
47 95
101 379
95 128
105 386
25 362
79 316
83 353
83 310
100 167
77 69
101 223
16 374
32 129
59 321
97 383
77 63
82 351
57 57
48 314
27 131
20 368
101 183
4 147
113 266
48 3
47 3
49 15
101 378
91 96
88 357
53 26
48 19
101 213
113 264
100 185
76 329
100 166
34 202
104 266
25 156
76 327
78 316
105 384
48 308
40 253
53 25
51 80
76 326
99 152
66 358
101 222
95 131
50 86
54 30
12 140
101 211
48 357
41 106
106 266
35 205
64 83
34 365
20 367
52 64
52 17
73 62
101 182
34 179
49 294
5 152
66 78
46 95
37 118
52 63
3 149
93 378
36 122
44 268
40 361
102 379
67 72
48 20
56 56
98 152
82 74
57 316
78 361
45 272
54 25
32 367
12 152
77 345
85 356
94 114
34 180
87 357
19 370
56 54
33 128
49 30
50 85
35 181
51 48
52 69
96 269
51 55
26 156
35 352
34 174
57 315
38 234
39 362
59 75
93 278
36 118
93 110
34 125
94 119
38 115
