2 154
36 23
69 12
39 216
102 72
78 282
26 47
69 240
20 172
7 65
26 48
26 188
97 281
80 214
54 239
46 231
24 53
57 281
83 42
12 121
61 4
105 99
35 211
88 266
89 285
20 167
97 82
86 199
105 101
25 276
74 23
35 283
34 29
41 220
86 201
13 125
105 98
105 61
26 275
54 240
41 223
17 158
80 33
21 172
10 69
82 212
27 188
13 139
72 18
95 57
48 6
107 125
70 282
21 58
100 286
69 282
99 283
103 62
97 172
79 281
95 277
8 80
112 70
85 204
6 74
105 62
97 79
8 94
83 211
33 28
97 289
106 63
80 217
97 278
53 236
39 16
47 282
98 169
97 159
12 131
108 63
104 152
95 162
104 140
4 92
3 93
7 118
89 191
75 225
87 53
22 288
50 250
6 75
31 268
34 28
96 58
71 232
70 245
32 204
55 242
91 75
86 194
106 134
108 124
106 118
97 164
87 51
100 155
47 7
86 263
4 95
100 72
24 54
68 281
108 128
107 71
89 57
98 281
47 6
85 200
68 10
26 50
10 94
103 164
106 120
69 242
52 248
23 183
12 139
64 6
12 107
31 200
96 173
25 277
24 55
9 122
96 177
6 107
99 285
97 290
49 236
5 90
6 97
44 256
7 87
59 5
106 129
30 285
104 143
108 71
104 131
85 44
93 181
95 276
78 257
