2 89
5 72
45 124
112 38
130 98
60 13
122 93
12 97
48 31
108 76
49 127
110 91
76 8
50 129
104 112
113 38
58 136
30 113
108 74
83 21
54 132
75 8
113 36
33 29
107 78
68 7
108 79
5 81
4 67
129 103
58 134
26 110
6 81
28 32
110 72
109 76
45 31
82 129
10 95
107 113
119 95
53 30
119 94
107 82
17 103
10 37
7 75
126 94
122 108
50 128
5 73
6 76
13 99
79 29
94 31
130 97
86 32
23 33
17 102
75 134
3 45
4 47
109 114
4 64
74 136
106 84
24 111
63 31
26 32
118 111
55 134
78 32
105 113
40 31
76 9
103 30
71 6
5 69
8 90
56 133
81 25
63 29
4 56
5 65
112 35
40 30
43 30
60 12
61 32
39 119
