2 118
36 155
11 64
128 101
71 176
60 31
86 6
45 161
101 27
3 106
137 58
130 137
14 138
41 22
126 110
7 89
119 30
6 101
52 10
12 137
10 65
10 63
56 16
10 71
54 168
89 181
4 106
144 113
6 86
133 133
136 48
93 9
127 111
113 160
8 86
100 17
26 154
144 89
76 178
124 144
93 26
97 12
14 57
128 140
73 3
135 46
42 21
122 146
125 109
114 27
8 126
137 62
102 26
144 111
138 63
124 35
19 41
64 173
55 16
82 4
18 43
105 23
125 35
18 154
89 34
56 167
90 32
53 12
104 25
92 181
112 161
3 104
7 122
68 3
62 28
52 8
125 142
63 30
16 54
136 130
53 15
101 175
4 93
43 161
138 126
10 67
145 113
17 43
94 179
6 108
55 28
57 7
58 30
144 75
27 31
139 74
91 33
78 180
121 149
71 3
62 29
6 113
142 109
50 22
111 22
7 116
28 30
97 30
140 82
123 147
29 152
48 22
137 56
133 94
40 159
140 63
100 28
124 143
119 153
