2 127
108 24
146 158
121 15
132 162
11 133
38 167
60 197
46 75
153 129
152 132
61 197
38 177
115 18
59 199
128 158
56 65
105 16
124 8
31 98
41 183
92 37
120 189
86 60
123 87
42 183
125 162
132 110
30 96
10 119
132 122
118 9
109 22
96 73
129 178
61 59
98 74
134 164
121 8
143 127
76 176
133 108
149 150
113 78
125 156
49 192
46 190
128 182
135 116
127 12
63 192
137 5
141 127
113 80
85 47
129 174
42 81
53 70
133 109
119 9
38 87
115 189
6 128
63 196
80 52
87 184
151 135
128 130
86 62
38 88
88 43
152 125
104 16
73 43
132 119
129 128
108 14
148 126
85 48
79 174
119 17
71 45
26 152
128 181
125 7
74 175
33 158
64 57
26 106
108 81
81 173
61 198
49 72
124 86
78 38
100 185
31 94
114 20
128 185
152 134
113 79
109 23
130 105
42 185
99 30
101 19
126 163
131 132
104 77
129 175
136 8
143 167
54 67
152 128
151 138
90 64
28 154
152 138
38 165
85 184
110 79
116 19
152 137
30 100
50 192
132 126
131 161
43 87
