2 138
118 76
38 239
106 101
10 72
24 43
111 145
28 147
117 74
12 58
11 67
70 3
75 6
99 222
37 161
105 144
61 190
31 39
100 48
91 27
20 135
25 139
31 153
86 231
6 96
44 220
73 191
87 233
45 26
118 118
17 41
40 31
62 6
49 239
11 101
110 104
44 176
12 119
11 74
16 121
117 76
106 98
81 227
17 57
110 65
112 110
11 78
107 98
96 37
54 190
116 116
111 105
102 55
62 229
56 10
5 96
121 81
55 12
106 90
62 5
92 174
55 204
75 226
81 10
72 4
17 127
7 89
89 232
46 26
99 235
49 186
104 147
10 105
112 104
112 69
93 32
19 40
28 145
109 141
29 148
111 144
22 41
99 161
108 66
37 33
35 38
92 28
51 16
11 75
8 71
100 153
109 86
99 236
13 98
17 64
113 134
120 85
41 30
74 188
114 131
116 73
52 237
45 180
8 70
50 238
76 226
16 81
101 48
91 28
85 179
72 225
98 169
17 122
28 146
111 143
45 216
25 140
113 111
17 52
46 180
111 68
93 216
12 57
83 203
86 178
9 72
11 94
4 91
24 38
105 92
16 93
50 19
95 33
101 47
19 132
39 33
24 145
93 234
113 113
