2 133
13 115
144 48
147 100
4 98
152 122
150 150
150 128
84 4
61 182
126 41
109 22
150 66
43 175
21 141
39 57
135 84
52 37
153 101
144 165
5 112
89 4
157 124
130 46
93 196
13 90
148 66
115 28
6 90
152 112
44 176
148 100
137 173
80 6
127 42
79 192
20 136
154 116
15 91
13 114
70 194
7 108
141 100
37 167
136 101
105 178
12 92
155 124
110 21
11 104
46 50
111 186
24 141
47 47
23 142
157 56
65 25
62 183
156 64
110 196
154 134
58 32
91 195
155 137
5 109
94 196
109 20
74 17
26 151
147 67
41 53
106 195
121 33
118 180
150 112
153 114
104 14
71 19
11 116
17 128
147 109
81 7
146 68
77 14
33 163
20 135
158 124
147 106
147 49
137 100
68 191
23 66
150 50
109 19
24 144
99 11
41 172
156 55
23 144
120 30
17 133
24 143
16 81
153 49
153 102
151 147
136 88
122 33
52 38
151 129
153 139
111 178
98 12
139 71
119 28
149 127
150 107
14 123
60 30
34 164
37 169
17 69
126 40
146 107
107 16
49 40
13 81
22 73
137 46
94 195
43 51
124 181
107 195
45 177
