2 97
14 129
124 115
36 141
61 4
129 122
8 111
76 6
126 125
54 6
119 83
110 128
99 22
105 28
107 98
93 12
118 66
10 113
7 107
22 132
129 119
120 70
117 61
33 18
97 137
105 130
105 103
110 89
7 64
120 114
98 134
69 163
5 79
6 108
119 81
93 13
7 74
7 110
117 43
78 156
78 5
107 28
33 17
5 80
33 138
25 134
9 112
95 21
99 21
3 86
8 50
122 72
6 92
101 133
86 149
102 23
87 147
19 128
120 127
117 53
40 15
37 141
17 127
91 18
5 81
11 113
23 132
10 52
16 123
108 97
45 16
102 130
94 143
121 74
30 136
60 5
81 5
28 134
110 117
92 14
9 47
4 89
119 51
68 163
7 56
97 135
6 93
65 3
98 136
10 46
19 136
62 4
6 84
125 116
10 119
106 113
56 155
7 76
