2 104
31 14
76 113
31 15
20 84
47 217
102 139
89 141
46 18
33 200
78 80
36 4
75 76
65 61
65 204
63 18
84 162
84 161
46 215
47 19
32 16
34 58
78 78
68 197
30 196
88 158
79 170
10 165
59 20
35 204
99 146
83 98
33 201
5 146
51 214
5 152
35 5
64 205
74 26
38 3
94 155
91 157
17 87
96 141
34 57
31 19
34 46
26 69
31 26
6 126
75 22
54 214
66 16
76 114
31 23
8 113
37 206
99 139
28 192
79 79
67 199
5 125
5 142
72 29
18 89
76 9
25 187
11 105
11 102
66 62
76 12
7 119
37 9
38 7
70 13
70 193
8 118
9 162
84 137
67 198
32 31
5 150
31 62
87 141
4 141
39 208
7 158
34 6
57 20
84 99
83 136
90 144
66 64
77 177
71 10
19 171
5 133
31 197
81 87
35 50
63 50
25 71
84 139
33 39
83 133
