2 107
104 33
149 84
96 50
139 124
150 116
116 66
166 87
163 97
78 183
110 59
49 155
66 174
71 10
133 75
158 87
68 34
141 81
141 122
42 140
133 141
75 42
6 98
112 168
148 82
110 7
65 30
123 153
109 27
42 141
126 71
62 53
73 46
7 87
50 157
123 11
63 53
36 124
103 178
103 54
65 171
119 7
105 55
13 81
4 94
81 10
21 110
129 73
142 119
58 22
155 114
92 10
101 35
4 96
51 4
117 21
120 159
83 10
140 122
5 89
118 7
117 160
118 161
79 9
44 145
57 163
166 89
59 57
138 79
83 184
50 65
66 32
108 58
134 140
67 32
167 85
157 105
153 114
113 6
24 112
55 4
35 75
11 82
139 125
145 82
112 7
94 47
44 71
71 179
120 68
33 77
137 128
109 171
57 58
49 67
100 36
40 135
59 56
10 103
114 166
119 18
98 9
144 117
166 88
134 139
57 164
44 147
92 186
