2 108
96 33
59 32
4 93
34 158
11 139
58 5
18 149
5 104
128 71
96 18
109 160
5 93
127 115
126 88
95 22
88 31
91 28
29 40
124 135
128 131
118 114
11 69
59 185
101 166
105 35
117 108
30 38
124 134
132 92
129 75
131 120
22 144
114 147
114 120
127 72
87 7
8 82
129 89
30 39
85 6
50 177
72 5
125 86
122 58
115 121
61 36
109 157
76 190
119 99
16 52
128 127
6 87
111 39
101 33
16 147
120 102
58 37
131 77
52 16
21 150
5 115
127 131
10 69
64 193
103 34
60 4
94 22
124 59
116 117
120 137
8 131
128 70
118 110
17 148
8 85
112 151
12 136
54 6
70 4
116 118
124 97
92 173
82 183
8 132
50 176
112 152
64 195
79 5
7 83
5 120
7 81
120 103
132 117
124 117
108 39
111 154
15 54
103 33
6 79
7 120
91 11
15 53
121 119
12 140
34 37
60 35
32 157
33 37
