2 115
92 122
22 47
23 48
101 85
53 229
96 134
44 177
44 180
90 85
84 218
95 136
34 178
106 78
78 183
40 10
81 207
102 85
41 228
23 44
26 137
66 228
8 88
88 57
11 89
92 124
25 40
26 35
71 183
35 181
90 157
34 216
90 155
84 221
26 140
91 96
32 155
92 149
74 186
5 73
30 26
46 6
76 194
69 7
29 146
32 157
15 110
56 231
54 229
96 61
4 75
90 57
77 180
35 172
82 206
94 143
24 132
105 80
94 145
33 19
82 223
23 53
96 132
87 160
91 155
81 183
5 75
32 226
94 141
85 43
82 176
33 227
55 3
42 185
35 165
36 14
73 11
80 223
38 198
86 53
87 162
60 230
91 88
41 185
102 86
103 68
93 109
95 138
105 76
101 67
35 180
76 178
40 189
75 172
104 84
18 116
90 87
101 86
40 229
15 57
94 146
35 168
37 201
78 197
37 14
10 91
93 123
32 218
40 191
93 148
34 211
102 68
91 101
94 84
73 187
78 19
