2 103
76 37
90 123
82 184
5 136
55 6
22 77
7 108
102 132
90 124
88 118
96 156
96 94
75 43
80 194
35 59
36 201
30 188
66 215
81 191
3 143
3 140
43 27
23 74
7 153
89 69
93 80
45 5
94 82
75 42
10 98
26 173
26 71
10 104
91 74
42 5
53 6
78 32
86 165
24 169
87 164
105 135
39 206
5 147
96 92
101 149
58 6
7 159
35 58
40 14
15 91
80 193
63 215
68 212
80 24
76 38
11 99
33 193
82 18
95 99
8 115
5 126
16 92
5 125
86 174
40 212
81 58
79 53
88 114
84 180
59 218
68 8
43 3
41 19
78 30
77 33
32 62
6 145
39 211
44 48
95 88
15 96
73 207
75 41
40 210
75 48
9 101
27 71
74 8
92 103
64 216
31 191
11 162
25 71
77 32
74 203
97 154
5 134
89 123
107 136
49 6
4 130
13 163
93 157
