2 139
10 102
115 170
141 57
75 23
91 13
16 113
111 6
88 15
118 168
26 135
12 52
18 119
20 52
29 139
113 166
25 130
114 189
14 52
136 41
70 186
127 170
178 124
38 37
121 191
41 159
56 168
67 185
168 125
31 146
113 165
120 17
160 147
37 37
164 69
132 33
138 169
113 190
28 144
135 41
173 117
19 62
162 130
8 57
16 53
98 7
42 159
53 38
15 116
145 60
7 66
116 172
45 162
111 194
111 192
150 163
8 94
25 42
146 88
13 110
112 6
165 79
11 76
27 52
110 4
94 189
140 48
40 157
168 109
144 59
22 127
122 181
66 180
174 125
167 111
10 76
79 22
136 169
11 82
36 37
15 63
68 184
114 171
121 179
152 88
114 8
56 169
22 41
114 196
82 21
30 39
160 104
23 46
112 196
12 95
118 194
114 169
109 190
16 101
9 54
7 89
21 53
28 38
51 40
70 172
112 167
83 19
168 111
147 98
9 97
167 141
146 91
10 82
160 83
80 21
164 134
22 125
146 92
7 90
75 185
162 128
117 173
12 106
164 142
33 38
46 38
35 152
65 29
122 169
24 52
148 100
127 28
14 102
166 141
21 128
67 28
149 163
167 76
155 103
160 127
