2 130
42 229
106 149
81 235
100 41
5 78
82 235
69 292
42 259
37 223
109 89
80 225
101 188
20 191
82 234
42 231
39 226
3 94
14 178
18 190
110 95
34 217
43 281
64 293
7 134
8 137
99 40
50 295
96 206
15 55
15 172
4 80
107 119
107 162
58 7
79 293
110 104
98 197
15 184
5 120
12 59
5 105
103 179
13 160
110 98
81 224
5 115
94 27
42 271
97 202
3 87
20 193
82 238
105 173
93 279
6 72
9 144
100 44
91 263
111 105
75 293
111 93
102 48
42 280
107 161
105 61
44 15
79 230
106 131
83 241
105 134
46 14
76 293
66 292
50 12
42 232
68 4
6 124
87 217
45 288
7 137
26 204
99 41
4 100
95 284
4 112
93 278
64 292
25 201
88 252
23 29
97 34
7 138
59 293
4 107
92 210
93 209
58 8
83 9
4 81
99 42
94 286
45 287
90 19
106 141
49 13
106 70
107 68
8 68
27 206
104 171
4 120
93 28
110 112
84 239
40 246
100 191
7 130
106 69
104 177
4 102
9 65
81 223
110 90
105 136
10 153
94 28
8 141
5 74
13 58
99 197
