2 98
5 110
62 50
65 29
72 59
7 138
69 13
70 16
91 133
12 142
4 115
70 7
9 80
58 187
69 5
22 176
84 121
77 67
59 4
77 118
17 159
21 170
15 151
64 175
25 183
84 120
16 68
60 42
53 3
14 148
90 131
71 12
76 91
71 160
78 81
97 131
8 93
76 66
88 145
74 63
20 169
9 88
64 31
5 112
25 28
28 46
65 177
4 120
67 54
33 39
9 85
76 103
39 194
76 108
66 27
30 46
76 105
98 137
84 146
6 94
66 5
31 6
56 5
20 13
62 37
85 146
25 7
53 4
68 168
69 57
93 143
65 174
93 132
61 5
28 191
24 49
34 41
7 94
85 123
69 21
8 84
68 17
98 133
85 130
27 190
28 47
97 139
20 16
75 152
58 50
21 7
35 44
19 165
63 35
4 126
21 171
78 86
7 97
86 145
