2 104
69 4
28 7
26 10
14 158
62 49
95 156
11 95
8 150
17 165
35 9
86 87
35 56
71 13
16 83
30 8
9 102
98 137
5 125
40 209
19 80
5 147
31 9
6 147
86 138
78 181
101 136
32 62
8 105
83 138
107 143
5 145
33 199
83 115
69 18
29 193
6 110
108 138
36 55
104 149
26 7
44 216
102 151
49 219
83 164
78 65
71 202
27 25
54 8
35 57
107 134
53 7
35 204
29 30
70 18
79 68
30 64
71 10
66 209
27 6
5 118
10 98
77 65
29 31
86 86
68 4
25 21
70 8
6 149
17 163
69 6
64 40
65 36
84 78
71 201
6 146
83 77
68 206
37 7
41 212
82 75
51 220
26 22
82 132
25 15
69 206
36 204
20 170
64 41
82 167
30 7
107 140
29 191
77 183
14 157
4 132
53 221
89 138
83 123
66 35
71 11
70 59
80 174
81 72
5 116
