2 100
66 156
86 53
78 41
23 149
66 192
19 34
3 88
28 202
65 187
37 215
21 141
85 67
80 108
71 146
32 162
62 174
28 207
4 63
32 10
62 215
28 197
72 31
29 215
100 64
4 73
62 172
15 129
57 9
83 71
27 202
71 147
25 18
82 103
4 87
10 56
66 211
15 44
28 215
27 200
47 3
42 4
99 63
55 216
83 88
53 4
40 217
78 131
32 163
18 33
83 100
46 217
31 184
66 19
32 179
76 136
9 119
83 82
6 106
63 162
63 161
5 61
48 216
84 93
30 185
82 105
15 130
78 115
78 129
84 92
22 145
30 191
29 193
23 21
81 109
31 187
30 160
43 216
93 56
91 66
67 207
83 86
16 131
79 111
17 38
90 53
61 12
68 206
3 95
8 111
30 159
34 168
3 76
65 155
83 84
84 68
79 124
29 156
3 84
67 203
58 8
