2 132
9 103
17 12
77 18
103 168
14 203
76 24
85 105
10 165
3 129
15 195
21 225
89 141
109 164
13 181
65 47
11 165
11 167
39 54
13 184
13 171
23 31
21 64
6 147
75 62
113 157
64 55
28 10
29 8
22 226
4 136
35 4
19 6
68 216
66 43
30 54
16 88
95 171
84 184
4 126
7 114
48 4
16 5
67 56
103 152
114 156
89 139
63 221
76 198
15 211
26 230
41 226
75 27
25 230
76 200
88 112
11 95
115 151
37 231
16 90
64 221
16 98
5 141
115 154
71 213
15 179
86 177
16 91
64 4
50 5
15 199
26 34
22 74
66 219
88 128
27 37
17 16
86 84
92 145
17 93
28 231
15 209
112 158
13 175
18 19
83 184
18 82
9 162
8 103
26 7
15 214
22 26
86 108
103 167
88 121
5 117
4 125
47 229
74 204
33 5
30 230
88 103
5 115
15 205
21 65
44 223
15 99
20 75
18 81
37 57
4 131
28 40
77 198
42 4
29 39
56 4
112 152
21 25
6 110
106 153
92 170
70 36
25 56
15 6
72 32
18 17
77 199
4 139
6 152
16 13
35 230
30 9
38 57
