2 115
87 77
25 151
88 155
7 97
104 64
98 125
108 77
55 4
40 175
87 108
87 95
76 216
23 52
77 188
46 6
74 171
111 65
11 62
23 147
91 80
93 60
77 166
85 111
26 43
40 18
95 132
38 21
77 189
73 173
28 154
95 82
74 183
25 49
119 73
8 110
6 74
29 36
11 116
76 27
83 47
89 58
6 70
79 200
15 132
34 30
40 181
36 217
44 10
89 88
100 81
69 219
101 81
56 3
6 73
87 58
68 219
94 82
14 130
45 12
46 216
6 88
4 83
90 131
4 79
103 81
6 100
46 4
79 217
79 30
9 109
29 34
112 77
80 198
24 53
74 173
96 133
38 216
94 141
37 23
51 4
88 86
35 216
18 137
11 61
63 7
42 218
85 109
30 157
93 116
90 80
75 185
48 4
36 193
24 148
87 156
58 220
47 6
88 98
32 207
84 53
92 130
57 3
8 67
6 69
84 41
93 131
18 58
38 186
26 150
40 19
86 105
33 202
87 113
107 63
24 50
