2 110
47 3
84 58
9 97
83 58
4 125
17 25
24 32
69 33
47 4
95 89
73 7
20 181
91 128
22 184
95 80
33 44
70 5
6 123
40 5
41 5
26 8
61 4
30 5
94 95
22 72
94 162
95 82
29 210
4 128
86 64
67 34
10 98
19 26
89 102
62 220
17 169
18 27
20 29
28 64
93 77
68 44
5 123
35 5
107 159
65 218
9 101
28 66
89 103
71 28
41 227
49 228
29 40
4 145
45 226
33 51
6 110
76 197
33 219
76 49
30 59
92 133
87 66
71 45
22 73
24 71
32 43
86 63
31 41
3 134
91 132
95 86
76 14
32 57
21 74
27 66
71 211
89 116
79 51
59 222
57 224
72 7
72 44
15 13
67 43
9 104
45 228
63 220
70 31
27 204
20 182
12 17
78 193
92 99
13 21
24 8
87 104
26 202
95 92
26 35
93 95
85 168
88 123
64 41
96 163
16 166
71 25
4 149
21 180
92 135
18 78
