2 89
15 29
24 9
46 9
61 181
5 98
54 19
74 65
56 167
76 80
67 135
74 89
6 111
63 140
67 43
76 121
16 29
21 189
54 21
49 154
23 161
76 78
7 63
71 130
53 163
34 4
35 3
58 27
15 35
20 172
30 4
88 51
37 186
64 137
21 138
24 158
75 67
33 3
44 8
16 28
69 46
3 85
67 134
14 38
41 3
75 106
30 3
75 108
77 65
22 161
20 183
57 185
18 131
53 185
79 49
4 96
43 5
29 187
11 120
76 86
29 186
24 156
15 129
21 186
21 176
75 74
75 79
21 171
75 71
51 149
34 3
13 51
4 93
87 51
39 186
77 48
76 82
43 186
66 40
75 72
50 153
25 156
72 97
72 98
64 36
22 141
77 110
55 166
58 147
75 86
