2 107
20 35
63 11
95 96
95 103
74 23
92 149
75 25
86 160
40 215
78 187
77 167
9 119
34 14
79 187
54 216
83 205
34 185
69 13
96 134
100 80
87 52
20 146
93 145
91 112
4 104
6 71
43 218
27 199
15 133
73 19
96 135
36 172
8 116
92 91
28 198
92 79
109 78
5 100
106 62
25 25
9 63
96 59
15 134
93 57
55 5
30 16
68 215
108 71
87 54
39 179
70 215
84 36
47 5
83 209
4 83
96 136
29 194
15 49
94 104
103 60
60 217
103 61
108 70
21 146
86 156
86 56
107 65
79 215
81 215
76 181
76 182
74 174
27 200
29 197
5 104
4 98
41 217
81 197
78 30
64 216
12 127
40 10
79 31
36 13
108 68
88 53
48 216
25 26
12 60
29 19
10 123
19 37
28 18
66 14
30 162
73 173
38 11
51 3
5 67
98 60
24 152
73 22
89 153
18 38
17 43
33 165
23 27
