2 154
91 269
36 261
6 186
46 90
33 251
9 209
92 62
101 84
25 120
60 35
33 254
60 278
114 120
114 125
17 147
113 131
103 241
46 89
86 34
96 54
72 35
34 89
36 259
13 162
104 21
9 200
16 147
9 176
8 206
109 223
30 98
7 199
35 29
99 9
33 253
28 226
94 60
102 31
80 34
101 251
103 29
41 13
36 21
18 139
113 157
15 151
94 57
28 106
37 82
113 158
8 205
115 119
129 194
120 193
20 132
123 192
14 154
98 15
98 17
115 139
47 85
61 36
35 82
19 139
122 192
115 137
67 280
7 190
7 194
104 16
12 159
90 69
102 29
22 218
119 213
18 218
43 25
97 79
133 205
103 11
99 82
116 193
21 127
32 96
109 100
103 20
42 30
35 258
107 99
101 249
137 193
105 239
118 193
91 32
98 14
99 10
94 59
48 85
93 73
104 17
44 68
27 111
20 131
134 205
85 275
96 263
27 225
136 193
39 82
37 54
95 265
108 217
104 19
62 35
34 43
18 143
117 194
48 37
91 268
8 181
29 231
130 208
128 210
113 173
43 77
89 71
85 35
114 188
98 258
42 273
132 207
41 20
7 195
130 209
43 27
36 9
27 227
81 277
134 204
113 178
10 176
95 74
13 213
35 24
100 251
48 77
36 3
140 193
113 117
137 192
72 281
105 240
51 37
113 181
