2 84
31 4
5 80
24 174
34 178
13 65
15 55
51 163
61 142
5 102
25 173
21 26
64 135
66 57
65 71
66 84
67 96
23 28
19 44
19 19
32 177
51 27
19 46
77 123
15 58
53 17
24 172
52 162
67 102
3 114
49 168
8 126
52 20
66 105
54 155
11 73
12 139
17 161
5 86
7 124
70 129
58 149
7 78
5 79
48 3
4 107
12 68
22 27
76 111
66 55
21 38
65 58
17 5
48 34
52 19
12 134
42 175
20 23
25 175
49 3
33 178
70 110
31 177
62 137
51 19
81 122
12 64
4 115
46 172
34 4
68 88
55 155
46 3
18 6
17 15
11 71
14 62
13 140
83 110
63 135
53 10
83 120
55 40
67 86
62 138
