2 168
116 74
69 227
140 175
41 262
165 95
151 50
143 17
163 75
142 161
68 264
116 75
109 115
184 124
120 228
77 230
99 256
106 169
65 264
151 59
150 132
152 44
132 201
101 218
82 263
72 222
130 16
132 202
9 248
128 27
81 241
74 226
20 254
120 56
125 215
145 184
89 262
106 117
106 254
125 32
180 109
69 263
108 149
69 224
162 75
59 264
29 259
142 168
146 26
18 238
102 253
141 9
138 5
104 192
149 131
128 26
136 3
184 118
170 99
88 248
101 210
114 84
139 5
148 134
106 179
25 237
174 121
163 121
152 123
109 113
164 121
87 141
96 151
128 19
143 22
117 232
151 61
85 262
121 227
107 152
56 236
141 201
107 165
152 46
102 153
142 195
11 247
140 173
6 244
143 186
104 193
92 243
101 219
170 98
127 28
106 160
140 10
128 20
164 93
90 148
84 263
147 146
128 23
115 73
10 240
165 82
36 242
105 186
103 208
114 80
57 236
159 75
104 186
102 209
184 120
145 183
92 232
106 148
47 263
114 79
158 74
151 124
64 238
127 212
92 241
54 263
124 38
143 182
23 255
33 259
93 259
29 239
100 163
75 225
178 108
102 120
103 196
9 246
111 106
13 240
69 230
157 122
141 172
78 230
125 217
71 264
99 162
116 72
77 264
178 124
111 99
123 46
96 127
125 36
144 23
117 241
100 161
124 219
43 261
69 228
102 194
82 240
49 238
7 245
106 253
32 240
101 211
148 143
117 68
