2 142
83 91
41 143
42 72
65 182
76 36
31 180
17 243
61 238
67 147
31 113
44 67
11 253
74 62
42 74
74 106
18 100
36 168
32 181
75 91
42 154
7 124
64 234
32 113
53 230
63 225
72 45
16 261
76 38
80 129
39 116
42 70
73 48
4 124
72 16
38 213
41 74
64 195
57 202
29 227
18 259
49 48
42 235
41 140
93 78
77 136
74 49
74 53
65 151
60 194
56 204
66 162
71 147
98 85
45 189
41 161
32 174
52 35
52 25
55 14
81 91
4 117
81 130
20 256
77 66
33 124
35 219
37 117
102 95
35 116
8 258
81 131
87 92
20 255
60 197
52 26
68 151
7 261
26 249
34 85
53 231
67 6
20 257
75 41
74 111
77 124
32 179
68 149
20 236
42 145
56 200
35 170
70 148
73 117
30 225
70 170
10 253
42 186
64 187
76 138
59 211
34 116
46 59
74 63
74 104
67 176
76 94
56 208
86 90
41 158
61 216
9 123
95 80
82 90
24 116
7 260
45 65
71 152
40 125
41 183
64 185
103 93
70 150
61 237
43 157
56 203
44 189
74 64
82 131
12 250
82 91
59 4
42 156
36 121
29 113
36 120
69 153
56 12
74 41
45 204
69 168
98 94
76 28
