2 195
148 28
60 123
177 83
133 162
131 9
131 193
118 202
25 284
73 120
103 83
77 256
5 300
76 107
126 24
112 55
49 296
97 244
114 213
125 29
81 248
85 236
47 274
29 300
144 8
41 278
69 232
67 298
108 239
79 270
93 251
131 190
183 90
147 25
158 108
123 188
94 96
81 238
77 255
155 107
90 185
82 240
138 149
38 296
90 173
127 16
139 195
73 289
82 238
138 179
19 287
76 279
56 293
137 148
154 86
111 220
101 249
76 277
125 183
116 204
92 150
106 70
78 122
61 269
94 253
151 109
59 292
136 4
119 195
134 160
65 295
150 110
73 218
92 145
74 306
110 63
150 64
125 186
145 111
115 209
80 234
73 293
121 194
133 7
125 181
105 79
91 168
138 148
69 121
41 297
100 249
106 76
65 116
78 274
134 158
136 156
77 231
154 93
93 142
91 170
122 20
36 279
110 62
167 95
142 135
80 253
133 164
147 27
16 288
78 271
145 10
9 292
160 75
92 133
129 182
35 280
86 100
74 218
81 267
119 196
90 190
103 246
150 50
90 258
98 251
76 217
32 295
9 293
172 80
145 112
144 10
109 66
127 189
69 302
151 69
127 190
127 13
63 230
91 187
134 169
103 84
147 19
113 232
166 95
113 55
87 239
152 89
75 279
168 95
83 103
28 300
159 102
160 103
92 163
160 105
84 241
91 154
130 183
60 124
148 37
13 298
183 91
99 254
111 227
136 152
156 74
29 301
26 283
170 78
161 75
120 40
93 153
113 234
90 184
100 246
93 135
139 186
149 110
129 175
177 93
149 16
135 154
14 290
91 181
117 43
94 93
61 292
122 32
136 154
74 279
79 271
148 39
136 192
58 292
137 176
11 291
