2 174
85 231
127 84
147 55
190 112
205 13
139 94
212 121
93 256
78 239
140 55
83 186
88 200
143 183
64 247
152 152
5 257
127 114
63 251
154 50
19 280
138 94
201 53
111 142
79 240
114 211
91 259
143 55
117 243
92 204
120 236
235 105
205 37
169 130
126 191
231 110
86 231
154 150
110 145
118 194
173 125
47 291
74 195
107 148
62 248
7 264
89 212
133 105
200 59
122 74
45 269
206 25
201 56
28 262
86 226
196 72
235 99
82 186
65 283
136 186
203 9
161 32
202 56
108 149
226 113
93 203
178 113
174 120
111 140
158 42
216 83
197 3
166 136
202 50
168 132
103 161
52 292
40 285
203 48
207 81
89 260
38 283
86 263
204 44
112 139
45 290
125 119
27 276
227 92
39 269
150 154
117 230
160 144
197 120
189 112
115 204
202 79
113 224
155 48
202 46
71 277
93 255
93 202
89 214
144 55
24 260
206 21
144 54
214 82
220 85
196 121
187 5
151 169
184 102
63 265
88 218
74 190
9 270
34 266
100 167
190 3
54 291
86 227
126 85
11 272
13 254
205 34
83 266
142 54
21 258
199 79
35 266
229 112
121 190
62 250
104 158
144 183
195 77
60 287
6 254
177 15
152 174
36 281
90 207
49 292
112 141
166 28
134 53
112 213
170 129
110 144
48 269
182 108
152 173
140 184
223 87
64 255
85 200
224 114
84 185
111 248
63 250
197 71
95 256
98 175
101 253
42 285
151 162
59 287
119 129
8 266
10 270
204 38
123 74
126 53
