2 149
110 77
37 93
62 69
63 16
75 173
36 142
115 136
114 135
23 129
25 128
37 169
108 130
63 68
22 98
73 192
42 176
43 228
48 181
18 105
18 124
101 141
87 147
60 82
82 10
63 13
31 228
100 140
13 107
35 133
98 145
40 162
15 277
99 144
68 53
68 48
37 166
45 235
26 220
13 277
7 277
14 251
42 198
63 25
86 17
101 87
43 226
28 257
52 87
95 29
57 84
67 197
71 3
111 111
23 218
12 243
35 251
43 176
39 150
29 124
61 83
61 203
84 150
28 221
68 3
64 64
49 178
91 24
63 17
28 266
111 72
35 93
74 189
68 43
23 96
46 89
5 275
93 25
44 232
62 79
9 248
31 254
47 186
14 120
95 39
39 151
116 136
57 80
7 260
107 54
61 204
69 54
4 257
5 257
14 107
27 210
15 123
89 141
12 108
95 38
64 9
61 80
11 107
109 123
67 199
29 263
73 191
9 241
39 152
33 130
21 103
43 157
107 126
43 224
46 190
4 275
39 173
86 149
13 119
19 244
38 93
49 215
47 94
28 261
57 79
69 51
46 219
63 74
70 3
107 55
95 142
105 140
46 175
45 223
86 148
68 4
63 27
34 94
38 174
111 140
61 81
44 246
45 92
100 48
95 28
45 234
43 246
23 214
101 84
101 101
