2 164
72 18
188 26
208 122
18 219
18 240
6 245
99 6
146 162
181 25
205 57
144 19
16 242
196 25
11 227
209 22
12 213
88 146
11 230
70 106
203 24
22 179
66 42
162 20
205 109
102 156
86 147
136 160
23 214
207 99
21 179
208 90
44 169
63 67
207 80
208 85
31 183
76 148
208 84
110 143
23 215
207 38
72 14
23 216
205 39
147 19
210 32
20 182
36 177
13 241
62 61
66 40
98 154
207 159
70 36
160 162
83 104
13 212
8 240
139 160
66 85
15 197
69 132
93 147
63 78
96 5
34 178
20 204
205 112
161 21
208 77
83 144
13 210
174 22
23 221
98 150
37 163
156 162
69 36
122 12
200 162
12 227
39 159
169 162
208 83
181 162
103 156
64 77
198 163
49 151
208 152
206 109
13 203
205 43
208 22
87 147
81 101
76 114
72 150
81 102
156 163
20 205
73 106
165 21
207 73
13 239
8 241
99 156
88 4
41 158
89 146
208 143
172 22
76 106
63 69
63 141
78 104
92 5
69 152
77 105
14 208
64 78
206 63
160 163
145 161
158 162
72 105
80 4
204 23
167 162
208 92
150 162
178 23
211 30
209 153
73 113
205 44
108 7
209 135
99 149
208 145
141 17
51 150
63 51
17 241
166 163
209 151
74 9
71 30
47 166
31 168
177 162
72 12
112 142
102 157
119 11
64 82
179 24
84 4
208 98
205 108
206 39
110 9
127 155
11 233
