2 126
42 18
15 49
43 18
142 128
148 184
128 187
131 90
130 50
157 152
147 186
32 22
150 118
105 3
149 141
26 116
7 24
116 10
108 5
65 131
64 131
156 162
128 192
14 58
133 190
56 132
131 94
155 130
129 194
157 136
152 158
101 111
14 43
123 23
19 78
20 83
136 87
38 130
40 19
16 27
156 171
14 53
148 140
138 124
12 36
40 131
153 178
16 67
67 130
14 56
130 192
128 184
61 14
72 11
14 49
144 187
155 171
142 180
119 15
155 129
147 184
75 128
129 49
154 128
143 184
158 152
125 26
150 182
136 120
157 148
157 145
15 51
100 111
127 195
63 131
127 31
136 91
131 191
16 68
156 164
134 189
147 185
23 103
37 128
147 178
151 158
18 76
119 110
48 132
77 8
25 114
133 193
129 58
126 70
97 118
14 44
139 191
150 119
122 68
128 60
140 176
21 91
17 72
141 180
132 193
150 145
103 3
12 26
149 117
124 27
32 126
158 154
86 123
125 195
140 191
129 91
102 4
133 119
60 14
144 181
53 14
146 172
137 88
134 188
24 110
121 191
138 100
