2 171
48 7
95 171
141 68
49 8
179 156
5 39
4 27
153 173
24 131
165 183
29 148
49 138
175 121
56 10
146 164
177 143
69 16
181 147
16 73
55 139
139 65
134 170
4 37
89 161
6 46
139 55
139 66
160 250
125 28
41 5
155 187
177 204
6 23
10 66
173 96
142 184
20 114
139 84
30 3
28 142
174 126
130 168
136 84
23 122
189 217
62 12
182 244
148 83
141 84
84 137
84 139
139 178
174 110
60 12
5 41
140 53
124 28
149 186
101 24
100 25
171 245
166 202
184 157
43 6
177 218
194 227
185 182
177 206
143 50
52 139
139 83
189 218
178 213
47 8
6 59
82 24
176 115
140 58
169 248
185 152
185 179
171 134
174 118
157 189
173 141
19 104
175 112
175 140
173 103
176 162
14 70
149 83
139 62
133 169
139 177
177 244
145 171
185 150
13 70
85 146
160 185
175 113
92 167
131 30
142 51
175 111
110 170
198 248
103 169
119 170
170 209
140 63
144 44
98 24
169 90
62 13
88 158
189 203
199 241
165 184
188 198
100 170
191 223
178 244
141 32
179 165
176 163
140 83
161 183
19 103
14 72
40 142
67 16
166 198
21 111
93 168
147 39
173 157
86 148
141 181
65 140
190 247
147 173
142 50
159 246
174 106
13 15
173 93
175 243
25 137
164 182
5 38
136 31
194 234
146 186
160 244
173 107
99 25
176 220
175 141
189 206
162 86
166 196
19 105
162 182
166 200
175 204
26 136
174 158
157 191
176 205
