2 170
23 109
200 85
111 251
13 151
24 210
166 205
186 119
230 41
13 147
184 124
212 17
85 231
13 150
24 90
20 127
132 259
134 87
140 259
221 73
171 187
23 97
228 54
228 53
171 87
216 82
223 69
171 182
120 82
52 223
172 178
74 229
211 71
100 70
73 230
221 41
214 86
185 120
170 93
9 187
171 193
224 7
68 228
195 110
169 195
165 211
102 244
69 229
33 56
12 162
230 39
148 253
222 70
184 90
23 90
12 159
161 223
77 61
79 63
155 235
197 110
84 63
25 113
195 116
97 67
175 94
172 190
132 86
226 60
202 98
211 17
166 207
23 114
99 242
25 75
194 110
176 93
81 230
59 225
192 92
191 92
120 255
17 137
12 181
226 14
181 122
172 179
172 171
166 208
188 140
205 95
225 13
138 259
149 248
148 250
168 166
12 206
30 65
22 125
212 27
6 205
227 15
60 58
165 210
168 167
32 59
167 85
138 90
229 44
174 158
186 120
181 148
172 151
13 149
4 204
71 228
5 197
216 60
170 195
72 229
189 95
59 58
210 74
190 94
191 132
162 84
210 75
229 35
24 101
191 93
14 143
28 66
169 196
149 247
17 139
180 92
137 91
172 173
175 163
92 67
225 9
190 93
24 100
24 103
187 125
90 234
79 62
37 214
158 231
36 55
8 206
210 12
75 229
105 247
24 122
38 54
80 230
42 57
88 66
159 228
122 84
215 66
229 36
156 85
169 86
104 246
123 85
64 228
12 177
211 29
75 61
