2 156
52 10
64 317
72 252
86 156
82 188
77 201
16 140
7 340
63 332
86 147
22 175
16 138
17 125
28 291
78 95
60 60
20 355
79 104
18 82
22 177
33 28
62 57
22 285
33 26
39 9
28 43
82 175
72 258
26 291
19 78
41 3
25 269
83 178
24 247
18 102
63 279
22 192
14 147
19 84
82 117
12 329
26 351
86 155
61 334
85 153
24 353
65 271
63 274
22 64
77 206
37 295
18 94
37 15
37 14
37 11
65 238
83 170
22 181
24 271
63 55
34 293
63 278
65 322
32 30
19 327
18 98
52 334
17 112
21 190
52 287
68 326
62 315
18 99
85 143
13 161
67 78
21 178
22 210
69 246
77 95
22 199
35 305
32 312
23 323
23 61
21 216
55 19
35 344
22 195
58 307
50 333
80 111
78 201
83 121
20 353
79 197
12 353
18 122
59 65
34 22
37 297
60 40
78 85
81 114
18 106
17 117
56 334
17 135
62 47
58 32
24 245
79 90
86 151
13 165
27 350
63 231
18 119
55 284
17 136
24 243
84 171
8 331
61 313
22 228
21 285
17 131
19 353
36 19
80 88
18 120
32 291
23 322
38 295
86 158
27 47
86 154
71 250
74 211
85 138
31 35
18 86
54 332
22 62
22 205
79 105
60 37
22 60
60 279
29 316
64 229
24 237
21 204
22 208
69 222
61 39
86 160
