2 237
124 85
44 194
121 69
56 65
144 128
42 233
40 175
123 65
147 130
91 130
81 86
103 160
160 173
101 163
101 188
80 25
82 125
150 191
100 242
56 287
120 49
163 158
121 70
119 45
34 200
108 142
5 218
54 286
149 133
96 291
114 36
146 125
123 179
77 42
45 125
90 134
99 179
105 147
123 66
91 140
163 156
101 190
40 136
82 15
57 81
43 195
119 64
40 174
46 122
11 210
101 249
80 86
81 5
39 140
117 184
77 38
49 250
118 53
115 37
131 104
82 18
102 236
156 182
52 257
145 165
125 86
48 248
56 84
42 178
120 181
37 201
57 71
110 115
110 141
80 28
64 291
58 288
22 207
146 133
110 226
85 139
125 84
78 62
67 288
78 68
92 130
84 131
104 10
82 111
87 3
134 107
144 122
57 70
82 123
105 145
95 289
36 157
36 159
73 8
136 114
151 190
36 147
53 73
150 164
81 119
81 94
43 185
81 305
99 252
83 121
37 166
120 51
92 7
54 105
145 199
38 165
82 110
154 185
47 120
81 85
65 290
142 205
39 171
81 113
62 34
112 192
56 51
122 58
153 186
63 29
64 30
8 210
131 214
149 164
5 217
121 60
114 122
63 46
150 193
42 199
66 17
100 188
134 172
57 59
77 301
103 153
114 126
37 159
162 154
119 46
152 142
149 163
107 21
121 66
110 17
127 93
107 230
54 93
100 184
112 133
123 67
160 170
77 65
103 117
162 160
151 137
135 109
57 79
71 290
13 223
56 88
77 57
132 108
21 228
100 186
156 161
118 183
80 22
150 194
112 31
91 134
48 241
131 103
26 228
84 12
110 116
152 188
100 239
57 52
96 120
96 5
8 221
80 30
55 99
29 205
130 216
124 71
56 272
113 35
154 187
119 56
116 43
105 233
87 302
66 15
8 211
99 240
99 242
154 186
6 210
17 226
105 148
123 73
81 4
94 123
94 293
125 76
57 287
109 116
148 134
125 218
126 81
161 164
56 96
61 44
121 68
47 245
30 205
78 34
85 4
78 5
77 49
150 135
88 145
120 52
147 165
124 76
