2 189
75 192
162 120
35 290
117 182
80 267
6 317
52 254
83 177
48 313
154 113
171 40
64 276
65 224
130 82
129 85
80 277
65 271
107 234
183 19
145 132
122 94
179 36
116 105
144 133
185 24
180 27
47 282
152 53
52 232
34 248
87 236
177 32
101 138
146 131
34 291
87 164
108 200
116 184
41 240
176 42
131 78
85 239
188 5
178 38
188 6
187 22
148 125
63 278
21 301
118 215
173 110
108 201
68 214
177 54
69 219
32 291
159 112
40 304
80 262
52 260
80 182
170 77
9 314
57 264
68 271
134 154
140 139
149 121
76 286
85 172
146 127
115 209
172 106
53 272
179 49
57 308
59 304
114 108
80 252
117 183
178 53
45 305
11 310
80 248
49 249
171 128
173 107
115 212
170 97
130 159
182 28
179 51
184 28
116 189
37 251
110 206
128 79
178 133
184 8
118 217
142 63
128 85
124 88
160 114
164 45
119 218
49 313
178 37
135 71
77 191
80 251
135 75
108 235
139 145
37 244
11 316
173 108
81 178
169 99
76 288
142 136
163 45
180 45
183 42
181 33
111 223
68 269
52 257
90 162
129 160
43 303
82 245
168 92
100 135
69 213
80 284
39 242
177 50
183 20
134 152
83 178
38 244
160 107
123 93
188 13
66 223
77 286
123 89
45 249
117 98
144 134
55 316
74 200
111 228
174 110
86 241
56 265
113 190
154 115
81 255
171 104
179 44
58 304
56 267
84 166
76 197
111 110
10 311
50 318
75 197
178 36
85 173
107 203
81 272
177 56
37 245
177 51
41 286
58 229
146 130
187 2
111 238
95 142
187 13
172 38
58 263
185 26
68 220
184 15
