2 228
175 252
193 122
19 144
187 145
176 243
111 49
128 143
206 71
140 111
15 78
176 80
163 97
113 45
173 227
139 113
176 238
112 71
169 98
112 151
174 229
13 108
176 234
163 95
167 277
173 211
113 40
120 13
201 76
206 88
125 159
174 219
175 225
164 93
114 73
90 167
112 45
189 139
112 155
138 135
182 54
175 266
109 7
21 168
45 212
169 192
14 109
101 162
88 19
118 88
107 8
201 93
122 4
172 204
149 116
178 91
27 206
77 28
25 193
121 13
91 18
174 231
176 249
176 236
160 119
18 118
177 244
52 199
58 190
190 59
56 193
112 156
199 64
169 198
171 204
119 19
130 149
173 206
205 71
200 68
174 89
111 63
156 109
14 79
147 115
41 64
168 203
21 180
115 29
7 100
184 63
165 110
19 142
189 128
17 77
197 121
176 241
91 17
130 137
174 93
174 228
129 141
178 250
172 220
179 149
110 7
176 60
172 205
127 156
205 92
122 95
91 167
175 233
174 264
184 149
174 172
179 160
41 221
172 203
26 199
4 95
56 194
113 74
19 152
87 169
18 140
173 266
180 156
167 83
197 108
118 86
51 202
155 126
173 213
173 218
173 224
200 115
171 211
65 39
169 80
124 99
183 54
169 189
138 107
4 87
175 250
104 161
100 12
145 131
171 196
175 86
106 160
202 111
16 115
49 205
111 155
129 152
176 156
19 157
159 104
132 122
200 78
37 224
175 221
170 274
80 26
171 193
171 190
200 79
31 215
176 237
98 13
175 156
198 62
148 130
62 43
117 25
172 201
169 182
95 15
113 75
24 77
144 117
191 135
112 68
205 75
19 76
129 143
168 83
166 86
173 207
188 51
175 261
17 119
206 73
164 95
57 193
199 70
174 86
133 107
186 137
178 151
175 238
204 100
170 206
172 222
111 55
206 90
19 134
58 46
18 128
174 268
116 82
197 123
168 104
172 92
143 120
164 94
166 108
203 104
19 165
114 41
174 171
172 177
46 209
146 131
173 90
162 116
199 97
