2 127
62 247
14 150
77 127
65 57
14 265
50 254
23 262
12 148
65 263
60 161
63 152
69 262
66 143
60 174
24 233
29 202
24 237
78 139
28 186
26 42
62 42
22 93
36 252
69 80
41 246
59 29
65 146
75 115
67 60
15 123
19 243
67 68
36 251
23 70
74 140
22 81
22 238
49 214
26 179
22 92
53 228
78 128
69 79
23 76
69 85
27 260
65 141
29 24
23 81
70 91
50 211
26 45
49 225
24 77
55 233
24 161
56 259
70 109
81 123
54 18
56 233
56 24
64 182
69 74
57 172
63 184
28 195
24 165
13 262
37 7
12 266
69 100
14 262
25 162
28 228
39 249
29 257
52 227
59 165
45 6
43 248
25 234
27 258
4 139
55 199
58 240
17 253
34 14
73 139
45 209
26 183
14 263
58 166
30 20
23 79
27 178
24 167
24 67
33 254
59 240
25 261
77 117
61 244
62 262
78 129
49 220
64 145
25 63
58 172
24 75
25 43
24 72
22 83
63 48
67 65
50 207
26 44
23 82
73 140
70 102
65 53
28 227
70 95
70 98
52 15
52 11
61 176
