2 149
59 248
32 24
27 302
68 38
39 243
20 95
67 280
39 236
57 294
23 58
20 120
79 94
89 149
24 297
35 210
19 120
30 189
64 23
37 222
22 73
10 177
7 154
77 146
76 149
38 240
36 12
77 76
59 242
19 129
27 189
24 292
73 200
80 112
52 8
13 182
21 135
79 87
50 8
75 64
20 127
62 266
75 61
25 288
68 282
69 286
63 234
20 107
68 290
62 22
22 66
75 152
33 16
20 94
21 137
16 188
56 12
16 143
70 296
64 272
30 300
20 101
76 146
3 159
23 299
79 90
15 186
66 28
78 80
75 62
33 203
4 158
35 214
73 220
61 259
45 5
73 199
35 216
71 296
59 235
71 182
79 115
26 193
85 145
27 43
70 292
68 34
69 292
12 181
21 74
20 99
65 270
70 47
68 232
21 84
77 143
75 69
20 115
29 32
4 164
19 112
19 123
80 111
67 33
34 19
59 17
87 134
72 198
12 182
69 42
89 148
21 136
39 246
20 135
70 181
75 205
9 151
24 300
69 228
20 106
25 198
60 297
34 297
3 161
35 220
67 283
70 293
20 193
70 183
77 79
59 14
80 107
36 227
61 230
66 274
31 273
24 56
92 148
76 157
61 19
26 46
73 168
26 303
62 264
31 29
32 299
23 302
59 236
23 291
26 282
