2 177
78 287
31 123
83 53
88 178
41 225
98 142
51 281
82 43
48 344
9 177
95 137
104 153
85 62
32 129
89 261
88 204
79 305
85 210
40 227
44 357
53 330
97 377
42 228
100 147
61 361
84 62
88 120
77 14
94 137
62 4
43 235
53 285
87 201
82 324
99 147
94 250
44 371
67 5
89 344
57 310
65 352
48 27
82 67
53 292
77 15
84 211
16 193
51 337
44 248
42 43
32 105
88 158
74 11
85 55
46 374
32 136
92 253
45 363
93 358
82 39
33 83
83 213
85 217
31 134
84 330
88 130
89 157
44 374
30 118
32 150
53 289
82 273
105 153
4 187
102 159
39 220
63 359
87 219
80 32
51 277
71 349
24 163
89 104
32 88
44 375
90 257
32 95
89 171
57 314
66 350
88 109
86 215
86 209
91 349
31 105
84 58
91 254
44 360
88 175
68 8
67 6
72 350
94 232
89 122
4 185
69 348
88 338
84 273
78 294
79 304
84 64
79 283
79 309
95 160
83 364
85 332
44 242
82 327
84 59
78 308
78 300
86 367
84 276
89 109
97 246
20 166
95 249
82 44
85 218
99 146
37 209
44 241
86 333
79 26
45 357
31 136
90 134
48 24
41 224
82 42
79 308
21 164
89 107
88 206
57 318
85 272
87 336
57 308
50 21
79 24
54 13
79 281
79 303
47 373
53 291
40 216
49 263
84 65
56 297
32 97
39 215
42 237
58 317
54 292
31 142
88 107
16 169
99 244
95 364
39 54
83 214
88 159
85 60
90 224
50 271
89 120
56 365
