2 162
22 184
92 120
95 209
37 194
44 229
39 341
17 156
43 47
42 209
86 339
79 329
77 262
79 284
36 99
35 120
87 167
75 274
92 106
90 157
43 216
55 9
48 247
45 227
86 338
88 78
48 256
90 310
98 155
95 342
98 211
76 32
45 32
49 257
60 319
89 82
94 331
92 121
37 319
51 269
74 20
84 64
86 182
84 336
88 173
43 219
80 45
91 346
89 343
62 316
30 146
34 137
77 256
35 116
61 317
58 5
92 110
78 41
39 61
71 16
77 259
98 221
36 195
89 307
45 38
75 270
34 138
35 343
33 143
88 166
90 308
34 332
87 76
37 84
76 262
8 174
35 327
91 232
26 150
81 53
56 324
85 336
93 228
92 230
34 340
18 156
41 60
37 92
50 264
51 273
46 287
95 330
45 238
52 14
94 326
89 162
105 142
99 154
4 171
101 219
35 139
96 344
86 253
91 317
36 104
81 50
42 215
77 37
49 22
42 45
40 64
104 152
45 288
59 320
54 10
93 327
106 144
84 62
14 158
36 331
82 254
45 226
9 175
63 5
46 333
86 251
75 269
95 345
86 189
82 52
98 222
43 42
13 160
99 129
10 162
87 248
34 341
46 238
11 161
62 4
34 136
86 68
102 130
47 243
86 250
42 297
38 69
90 89
44 296
107 148
44 221
89 304
75 31
58 320
95 333
3 171
67 315
52 269
90 85
34 143
87 244
37 88
46 334
