2 183
88 269
139 46
74 179
83 272
74 173
51 216
71 281
73 179
69 201
169 111
173 136
107 210
121 60
25 307
64 310
53 251
75 259
9 308
84 135
70 313
97 104
90 238
136 136
101 89
140 46
90 245
106 80
170 141
166 80
73 287
186 33
17 296
170 120
99 208
4 322
170 127
180 47
173 128
69 203
153 37
112 71
132 139
30 281
68 203
75 166
73 177
167 117
89 267
85 272
111 209
142 119
48 218
117 186
76 159
58 254
144 116
73 178
167 61
163 99
145 117
20 292
58 255
90 262
72 311
43 272
59 257
78 150
181 9
143 122
103 211
78 149
88 118
101 208
90 248
160 73
71 275
164 104
59 307
74 168
72 283
85 135
158 76
74 261
119 189
82 132
70 276
86 120
140 125
182 32
182 45
150 38
143 43
44 227
96 212
72 180
16 297
140 128
49 299
91 108
75 295
88 264
137 137
151 122
123 158
91 252
118 189
94 103
11 303
64 207
73 284
136 48
72 177
114 208
164 68
47 235
72 174
85 134
90 230
70 277
89 232
54 251
168 91
72 312
91 115
180 12
71 305
73 260
49 267
91 112
91 250
55 213
186 38
32 279
170 25
113 180
66 310
20 310
169 87
134 50
26 284
73 173
90 250
67 311
21 309
36 276
39 275
185 37
82 142
56 261
93 106
80 148
180 29
73 311
167 110
72 279
71 278
87 124
78 155
165 95
139 131
165 30
57 304
174 141
73 180
11 306
116 206
184 34
70 274
29 281
90 231
144 117
91 257
184 17
95 101
51 266
40 302
84 132
184 39
108 209
179 46
46 269
141 125
73 174
