2 134
77 248
33 92
42 30
44 19
72 258
25 148
40 189
87 97
25 259
100 137
39 50
69 15
41 193
83 192
67 227
49 251
76 169
36 59
42 199
38 178
81 254
35 77
18 123
35 87
87 190
45 252
39 258
36 66
79 39
51 5
41 35
72 22
43 201
68 229
27 253
75 202
37 164
12 140
15 143
37 234
71 217
85 260
43 221
84 192
33 243
40 232
77 165
36 259
74 204
67 255
43 222
28 113
34 261
41 37
80 154
41 184
92 129
40 33
77 36
35 239
87 125
73 238
72 19
61 7
82 53
36 71
35 154
71 19
16 144
88 84
89 109
15 125
61 252
31 246
70 215
67 256
38 172
44 215
82 256
32 262
10 130
76 34
87 265
71 224
77 198
63 252
26 258
77 173
36 148
44 220
30 249
34 100
55 245
83 58
86 70
36 153
78 197
36 64
49 6
35 83
88 149
42 27
38 234
37 236
34 243
22 147
86 186
48 9
36 70
80 158
8 131
86 81
48 10
81 154
29 112
100 132
56 246
10 139
100 139
95 148
78 39
37 159
86 190
90 110
73 207
79 250
75 27
103 142
67 258
67 229
6 134
78 162
83 258
11 139
