2 185
108 303
45 249
53 331
6 186
57 16
98 33
108 139
136 185
63 5
44 50
57 277
126 173
94 327
102 217
59 272
89 14
27 207
37 320
103 63
44 59
23 155
80 4
46 198
40 78
35 211
123 102
103 213
116 259
101 46
52 215
44 298
116 330
10 174
104 213
112 248
38 80
100 287
30 148
63 325
116 329
53 285
83 320
125 103
6 185
48 203
12 188
40 73
37 123
107 117
101 57
39 308
117 119
101 47
104 67
45 46
110 266
102 225
98 34
104 212
125 120
108 116
99 43
91 263
114 318
121 91
63 6
77 318
9 185
111 332
107 152
37 110
112 246
42 210
28 150
106 232
39 211
37 140
74 5
93 274
96 264
108 238
109 134
111 81
112 251
38 106
43 202
101 49
109 131
112 250
109 120
3 184
100 51
57 15
71 11
108 152
94 21
59 260
138 187
108 200
106 155
51 212
75 16
45 250
60 8
125 114
40 71
38 109
103 209
126 116
36 210
43 334
90 16
108 121
30 207
117 261
117 168
5 186
116 262
52 230
102 61
116 325
134 196
108 161
36 333
68 3
26 152
115 325
38 210
124 172
37 138
57 17
139 196
46 44
106 199
112 203
46 241
119 167
125 112
115 327
14 190
70 321
57 329
51 210
37 99
50 32
86 8
104 72
99 330
37 127
119 170
137 185
42 66
45 50
36 323
55 284
40 70
105 230
129 199
39 91
38 104
39 80
60 10
23 201
125 104
59 265
20 160
39 92
61 326
121 94
105 228
90 266
52 28
20 161
41 210
99 37
116 324
116 261
42 61
46 295
54 223
59 11
55 252
100 330
126 174
107 140
