2 224
55 178
55 153
148 199
136 310
92 28
59 373
105 324
28 241
124 267
119 372
57 136
162 236
44 366
54 156
57 373
113 25
74 375
129 47
116 354
41 250
169 107
114 349
85 11
172 141
38 192
49 187
168 107
126 275
59 234
66 76
139 153
125 317
85 12
13 228
156 98
112 345
137 182
58 333
139 197
111 21
67 317
9 214
75 375
153 96
47 245
62 283
148 246
106 328
56 303
111 314
61 255
120 374
142 91
112 17
66 316
93 30
61 284
14 210
125 246
79 17
109 334
126 245
126 20
64 274
167 132
58 122
62 303
138 143
68 314
165 143
57 125
123 266
121 263
58 334
110 29
52 345
128 27
51 240
138 173
24 236
131 239
115 315
105 376
106 324
112 21
121 9
14 229
160 244
171 139
44 368
157 204
119 367
81 12
109 379
130 317
158 115
154 95
108 379
112 13
91 20
68 67
137 309
139 148
132 64
124 270
126 272
172 143
46 188
62 253
65 90
136 192
150 141
164 112
49 352
57 122
159 214
128 316
126 19
79 19
79 14
169 106
32 244
112 12
57 334
149 246
62 262
156 215
48 187
54 180
55 300
7 222
135 300
66 74
27 239
161 113
84 375
10 224
65 277
128 276
138 166
155 215
109 312
30 243
63 267
59 239
77 22
100 39
124 268
130 58
156 96
65 88
129 281
156 223
139 142
144 197
125 270
166 131
55 299
63 264
162 237
136 90
125 316
121 375
104 318
63 91
26 201
55 302
126 240
113 15
104 320
151 141
45 370
128 33
66 71
70 49
63 325
60 114
64 323
96 33
160 209
63 269
62 301
84 10
69 305
138 159
104 321
51 372
162 243
44 369
62 326
110 32
54 340
70 47
92 30
118 365
74 28
30 198
104 317
96 377
157 118
58 119
151 248
159 98
89 12
138 195
89 16
153 248
116 356
83 374
140 91
54 171
130 238
113 379
62 260
61 108
133 74
121 317
61 304
61 105
167 110
55 173
110 37
83 10
112 23
