2 103
63 149
13 92
72 192
65 8
142 62
138 80
38 124
67 171
139 74
75 205
4 69
118 26
98 130
135 88
5 50
75 180
94 12
18 30
141 49
81 224
134 89
99 17
4 60
88 9
79 193
106 20
73 194
95 136
4 70
75 169
139 70
141 59
50 13
64 158
5 70
42 17
69 176
76 164
65 165
71 192
22 108
50 141
6 45
4 61
126 102
85 8
6 78
75 174
27 25
140 47
97 13
64 157
76 183
7 44
76 214
84 223
121 108
85 203
7 81
29 24
5 79
91 139
65 161
70 180
28 24
73 200
131 36
89 141
137 82
19 30
98 15
112 119
142 54
89 9
62 150
110 22
32 22
133 39
78 189
113 117
14 95
10 87
80 221
74 152
3 61
49 14
73 203
93 138
122 108
78 193
101 16
94 138
78 190
121 109
17 101
140 51
64 162
133 92
107 21
4 53
25 112
141 54
88 220
