2 185
84 213
66 139
157 34
65 173
97 310
146 4
158 51
72 320
65 319
153 53
95 272
107 52
162 96
75 252
40 282
146 194
115 36
142 203
16 311
162 143
160 106
153 49
51 158
72 180
68 319
76 250
113 41
91 90
51 169
47 163
80 240
149 247
146 197
78 243
113 246
127 251
144 250
66 176
128 250
68 175
130 5
78 244
162 93
125 251
98 68
160 128
160 143
145 17
143 7
77 224
153 179
15 312
91 95
142 212
93 276
161 89
142 213
79 181
88 290
60 172
78 241
167 145
127 8
10 302
95 79
6 311
73 319
153 17
69 264
9 310
53 154
159 133
74 183
85 203
148 190
61 174
63 172
116 31
142 7
152 52
96 77
173 161
147 232
101 263
90 97
160 121
156 27
68 320
135 5
159 65
66 175
152 18
100 265
70 177
171 164
121 22
84 205
147 245
118 244
68 176
50 314
144 202
155 51
71 179
143 14
75 184
153 50
70 319
83 124
163 177
36 284
77 131
115 37
89 283
84 211
88 105
126 11
53 171
90 93
59 146
59 171
88 103
179 152
162 84
51 170
77 187
57 316
82 219
142 18
12 312
174 168
40 283
98 308
89 292
76 227
150 11
161 68
157 140
161 72
161 76
159 126
92 90
156 47
71 234
142 9
146 234
154 47
150 187
153 44
101 261
75 240
176 174
159 53
106 258
160 122
159 128
78 225
72 234
119 248
25 290
142 11
75 133
72 258
159 121
149 5
65 270
64 173
86 110
150 188
52 278
99 66
125 12
100 64
172 147
147 193
141 214
150 56
62 273
153 176
156 30
85 208
107 50
116 30
89 286
86 114
