2 210
147 255
157 148
155 123
30 140
159 152
152 368
119 306
61 89
159 178
93 32
79 65
159 177
146 355
119 368
73 267
30 163
144 303
53 233
152 238
152 109
156 126
131 334
123 292
117 8
97 17
159 231
78 68
89 39
36 240
149 90
155 378
32 175
126 314
153 296
74 310
133 26
7 212
158 185
159 193
64 357
178 204
88 312
150 98
153 106
176 231
32 167
83 304
32 137
87 323
103 365
157 134
5 220
61 363
126 328
71 263
87 371
87 326
76 272
79 64
151 364
80 337
51 238
149 298
7 214
8 212
158 141
76 288
90 36
55 93
24 192
136 339
116 7
158 158
148 377
60 230
87 316
164 279
12 204
56 227
153 366
83 53
146 254
131 311
79 281
151 240
121 295
87 46
157 145
30 184
75 344
154 373
157 269
55 378
154 118
37 118
31 160
130 372
77 279
42 242
176 201
184 228
84 52
46 242
138 46
77 67
103 364
135 31
81 309
62 237
34 127
10 227
33 130
154 115
82 297
78 282
33 126
82 309
129 12
103 6
126 303
97 22
156 123
148 359
35 120
63 235
180 203
17 200
32 139
136 374
45 242
43 242
119 305
120 316
13 231
54 380
76 276
131 20
98 367
22 194
81 58
40 243
129 11
153 108
159 192
46 103
160 292
33 174
160 188
155 124
89 318
89 321
31 168
26 189
33 128
153 235
122 7
5 216
5 223
174 200
121 297
77 286
146 80
58 91
148 257
124 7
72 265
157 149
159 173
145 75
158 169
159 272
125 303
160 194
161 274
78 281
146 76
88 319
185 225
43 105
56 229
126 312
85 51
60 364
149 241
21 194
118 308
32 172
84 50
88 372
62 236
120 315
159 194
34 240
33 182
81 298
159 164
171 198
77 375
69 378
87 324
145 69
71 376
81 59
171 231
81 302
165 197
137 36
71 302
83 331
185 221
