2 183
140 183
68 257
131 238
98 263
53 250
101 251
49 84
136 157
104 23
136 233
41 203
105 318
121 303
50 82
51 207
51 245
25 147
137 172
38 205
11 161
77 8
118 89
33 201
120 193
47 308
93 30
39 204
48 192
92 32
44 317
47 93
30 144
55 323
122 306
70 32
121 212
70 268
123 123
58 253
69 261
121 199
51 208
139 232
92 14
64 49
125 311
104 258
55 293
99 252
55 225
131 154
85 308
53 215
123 148
120 248
128 323
123 186
108 43
123 124
73 17
120 109
112 290
56 291
102 254
116 73
46 90
88 11
67 41
109 321
106 258
120 114
48 191
99 272
69 256
97 315
124 309
65 320
12 161
123 137
145 179
93 14
119 94
122 246
123 139
62 251
84 11
140 162
98 261
112 58
121 186
40 204
121 110
10 179
96 8
120 104
41 328
103 279
51 301
83 309
48 305
94 312
65 50
7 167
97 262
8 179
118 91
131 156
54 70
126 187
122 124
110 51
66 47
132 156
106 31
107 39
27 193
123 135
131 217
103 254
69 258
110 46
58 62
121 305
119 300
142 177
15 155
60 321
119 97
55 252
88 310
62 56
67 42
114 70
118 85
58 289
41 133
43 195
47 86
126 324
50 324
101 275
17 154
118 323
67 249
52 217
125 187
55 221
50 76
85 12
62 252
65 46
117 85
56 65
46 98
72 317
111 287
110 49
126 312
116 75
49 325
135 186
52 212
52 237
131 187
69 318
135 169
91 15
69 33
123 126
73 19
43 105
45 314
43 106
137 166
52 297
64 250
135 185
119 210
128 214
123 138
102 252
114 72
54 296
