2 159
41 42
42 307
83 105
63 324
46 131
31 267
56 74
58 34
13 204
88 224
3 186
85 95
80 145
48 57
47 57
98 227
87 206
49 20
81 71
38 163
118 220
43 10
20 183
36 173
24 184
30 261
49 59
81 72
75 297
33 7
56 75
28 220
36 3
43 141
32 268
81 277
75 301
95 244
48 59
29 239
46 14
30 247
87 67
53 27
86 45
85 167
80 144
88 226
27 183
4 184
65 316
112 233
53 26
88 210
42 44
88 248
82 265
57 335
97 39
72 306
28 237
28 224
39 296
51 24
7 197
45 100
79 97
61 330
85 254
46 105
78 286
122 221
58 86
47 129
98 43
78 75
82 267
51 25
42 41
71 49
25 217
78 129
49 122
82 133
46 53
77 295
82 271
83 264
39 294
48 58
50 334
14 206
31 261
56 335
71 48
27 227
39 33
33 5
81 279
84 140
49 120
37 21
48 123
80 71
88 218
120 221
60 36
64 317
50 98
56 32
30 257
40 32
60 332
45 134
89 62
84 256
35 279
78 116
44 99
12 184
87 250
62 321
81 151
80 111
27 224
98 47
40 304
84 102
64 319
33 176
39 29
37 291
27 218
77 126
98 48
47 106
63 40
97 49
11 184
87 208
4 191
59 333
33 177
45 132
51 98
7 185
33 8
17 207
46 51
23 183
29 181
98 41
79 50
122 220
76 93
44 140
36 21
5 184
121 221
