2 219
42 300
103 317
122 217
108 359
53 16
84 311
88 374
89 282
106 166
54 335
102 274
91 57
91 48
83 311
120 302
42 60
106 175
5 201
89 311
100 250
93 277
36 88
93 66
124 233
26 226
84 30
112 80
111 380
103 130
36 221
46 49
46 383
34 118
108 381
91 279
46 42
90 46
98 269
70 371
28 226
86 323
43 358
21 180
105 182
35 97
43 362
98 271
96 253
38 77
90 45
37 157
82 371
106 191
83 24
123 105
114 92
66 12
99 78
48 344
116 294
57 325
30 225
36 155
121 229
79 15
66 6
125 219
115 81
102 250
19 219
65 12
35 148
95 71
78 371
93 334
43 286
47 275
46 279
111 367
4 207
121 224
8 194
50 343
114 81
109 115
86 373
94 67
97 273
93 261
125 234
87 324
75 9
114 317
100 316
108 115
58 308
111 80
60 320
48 273
89 327
96 248
12 212
5 208
105 354
84 316
69 13
57 326
33 223
106 206
118 252
63 376
3 205
118 296
99 77
78 370
125 114
41 367
91 273
115 117
53 310
111 315
85 302
94 69
44 358
121 307
95 250
93 286
118 317
106 204
104 131
57 306
34 109
114 289
116 292
108 316
85 372
119 226
106 354
125 115
87 38
102 249
47 346
103 132
38 164
111 284
93 376
91 375
106 198
103 131
104 379
94 378
128 248
76 11
131 243
130 242
108 251
107 114
37 158
114 116
129 247
84 29
59 323
87 375
57 328
87 306
71 371
49 29
14 215
49 266
72 371
112 369
54 12
112 317
103 316
105 159
75 370
36 134
50 21
17 183
119 302
34 112
48 348
91 331
100 345
104 275
50 381
95 70
56 303
106 154
105 316
44 382
51 312
112 82
36 137
36 100
122 221
105 177
43 304
111 368
107 251
108 361
64 8
114 374
120 315
97 277
88 39
104 134
27 174
92 316
109 361
42 293
43 219
94 65
76 8
105 150
125 220
44 241
116 378
93 264
