2 201
103 70
106 59
103 308
20 216
91 5
4 143
93 289
12 127
110 188
100 84
141 169
93 250
4 166
4 165
5 161
53 52
36 302
46 79
21 220
14 208
54 50
47 209
27 224
32 111
90 329
12 202
4 152
102 88
122 229
94 250
10 196
7 186
111 181
54 283
91 279
60 213
5 147
4 147
40 298
52 53
77 315
90 279
65 243
92 6
102 307
94 286
45 85
123 138
106 57
33 306
4 163
120 228
50 194
111 253
59 217
61 26
113 121
5 135
89 265
91 2
62 246
109 105
60 29
95 290
56 180
54 176
52 177
57 242
94 290
17 210
32 308
8 187
56 191
39 222
60 233
111 215
101 33
107 332
10 128
48 201
103 42
92 252
44 98
51 191
93 287
96 16
97 21
65 311
60 221
51 55
62 230
92 249
101 306
6 172
100 76
140 161
100 302
57 196
107 91
54 179
140 171
104 253
117 172
78 2
61 31
96 295
99 86
111 179
61 275
93 9
108 92
56 282
4 138
110 195
65 267
52 54
107 326
98 23
41 103
5 180
100 89
8 192
69 12
59 33
100 31
101 35
67 14
104 87
122 230
121 230
136 148
103 310
56 195
3 157
97 19
25 222
50 62
49 199
90 277
52 185
25 322
104 252
105 338
50 186
107 328
8 129
127 240
127 244
3 156
24 225
99 63
109 88
45 83
105 339
79 319
5 148
137 174
106 88
5 170
109 211
59 215
80 2
45 213
66 257
54 317
56 187
101 75
30 112
138 173
112 180
111 176
71 9
58 36
47 291
25 224
115 219
114 169
54 316
48 208
28 324
92 5
105 51
117 174
76 316
76 314
126 174
74 312
29 310
93 285
50 200
56 189
109 91
102 306
48 205
112 215
102 55
66 255
75 2
105 320
58 237
70 310
