2 145
38 208
152 76
55 158
8 104
72 166
5 91
33 170
32 182
58 237
61 158
38 145
33 175
20 123
87 212
45 149
54 232
128 48
55 28
92 189
145 106
153 82
39 210
35 49
21 124
106 37
70 234
36 216
42 222
125 144
61 19
52 32
86 215
34 189
32 204
58 158
58 238
25 130
79 164
152 89
58 22
39 209
85 196
140 55
62 237
35 191
10 70
3 85
144 59
90 24
100 32
13 69
52 233
120 44
122 47
149 65
33 203
4 89
36 173
7 75
82 175
73 232
147 104
34 168
36 179
64 14
103 167
38 211
62 233
81 214
13 67
142 114
60 20
35 139
72 9
41 229
54 234
38 224
144 109
94 172
80 215
34 190
107 158
28 132
94 165
152 73
94 171
78 230
81 212
80 218
66 5
43 221
144 60
36 49
85 190
42 144
36 198
19 62
43 146
35 213
40 145
64 159
97 166
59 158
13 111
152 83
151 70
81 19
97 31
65 4
133 134
72 233
71 8
140 118
79 19
34 212
54 233
90 197
88 207
125 46
110 154
85 22
32 197
33 172
75 166
84 190
127 47
122 46
74 13
62 232
38 144
36 203
47 228
142 112
152 74
31 185
32 185
111 41
61 238
135 129
5 78
40 44
36 183
50 231
78 219
34 186
