2 88
53 133
44 179
27 151
25 154
54 88
14 104
22 131
42 10
23 129
29 5
41 150
16 69
48 42
47 64
46 169
47 42
4 94
47 71
49 176
43 179
14 62
21 117
41 178
45 19
40 148
15 50
37 173
23 180
26 140
18 29
5 99
4 93
41 136
46 23
51 136
53 87
45 180
33 172
20 108
18 131
15 69
45 107
31 173
46 104
23 131
16 58
24 138
55 98
47 60
16 47
22 181
48 56
39 175
24 157
39 176
19 125
56 100
48 37
40 143
42 137
55 95
53 86
9 101
17 180
48 47
48 51
22 19
56 97
56 99
30 176
47 24
22 116
42 135
48 68
49 179
43 159
52 131
52 130
5 91
45 118
4 99
18 36
47 25
54 133
23 16
21 112
26 9
21 183
