2 112
13 81
42 9
50 203
60 73
37 3
27 169
51 34
60 182
5 138
13 44
23 151
55 85
60 228
13 53
23 149
24 18
62 78
11 73
56 184
64 144
53 113
14 90
62 238
27 184
23 157
25 170
62 140
63 235
4 133
24 237
22 146
54 163
54 98
18 31
14 98
54 122
57 184
61 230
40 5
23 17
45 16
37 231
60 133
24 232
63 141
54 158
42 8
53 59
56 168
60 75
26 164
54 211
52 43
53 236
21 140
60 135
22 141
50 29
47 229
47 186
51 36
48 230
53 54
24 154
12 71
32 204
52 184
13 80
26 165
13 107
51 203
35 232
44 224
61 226
12 68
58 170
47 19
5 124
11 66
14 142
46 14
54 128
57 69
29 212
11 63
24 236
23 183
21 141
48 187
24 163
55 90
18 142
21 21
56 148
54 152
62 137
55 92
39 4
24 235
12 86
54 127
48 192
26 168
48 196
12 79
24 171
33 192
32 202
57 70
54 160
14 100
55 155
