2 104
76 29
4 157
7 146
68 227
74 95
17 178
87 214
60 54
39 208
112 172
51 84
5 149
107 134
52 83
55 76
78 97
78 3
74 53
53 25
84 217
74 97
88 212
52 223
75 45
19 182
119 158
84 105
52 80
49 95
75 227
33 200
116 161
54 15
80 99
74 44
93 113
6 147
64 39
87 215
13 172
52 16
24 121
81 222
73 84
24 128
114 166
74 32
46 221
61 56
72 4
78 15
120 153
113 168
10 167
74 39
45 218
47 19
27 112
54 67
88 110
53 68
61 55
110 174
106 133
86 108
6 159
90 208
58 61
63 12
24 115
116 164
49 23
48 19
66 34
28 194
79 3
100 127
53 77
55 73
53 83
74 46
73 69
14 141
73 56
92 203
80 223
60 228
95 197
36 105
102 129
122 145
112 136
74 67
73 34
32 199
96 195
54 26
73 82
82 99
118 142
106 181
49 16
121 143
51 89
