2 144
61 4
34 283
74 37
26 89
13 144
14 106
43 282
21 97
78 106
28 152
41 184
78 115
50 5
47 219
76 55
34 282
67 16
66 16
63 8
85 209
3 125
31 56
78 93
66 239
86 122
37 266
80 271
81 276
72 29
72 210
48 234
73 172
81 280
71 27
77 70
42 284
36 270
29 147
28 151
84 203
9 133
15 104
77 264
78 100
82 289
77 83
39 28
78 74
30 67
33 51
28 78
37 164
75 259
47 234
36 272
70 211
77 63
13 148
41 260
78 144
35 161
49 274
74 257
65 228
69 19
29 74
65 219
79 289
10 135
39 208
21 159
17 101
81 116
78 69
35 155
85 130
64 9
13 140
82 121
78 268
74 159
40 199
78 68
11 139
64 219
61 269
40 209
78 110
40 185
68 243
65 13
43 254
77 114
72 182
44 250
83 127
38 268
84 209
74 169
45 216
72 27
68 241
4 128
83 126
65 14
34 284
48 241
75 153
70 27
78 107
4 127
7 116
73 171
80 148
76 60
74 282
74 258
13 143
30 77
78 104
31 144
29 86
41 26
30 70
74 45
28 83
68 18
39 203
22 93
30 65
47 228
38 38
22 94
41 259
16 102
64 272
78 267
75 210
76 188
40 285
75 49
74 44
75 56
48 8
