2 169
104 239
35 192
86 44
12 169
120 170
77 326
47 301
47 254
12 184
11 171
52 227
43 132
99 233
91 74
88 332
122 156
43 111
74 281
66 317
36 334
97 112
49 206
51 231
98 137
97 124
97 129
57 263
88 212
45 98
50 330
93 86
117 149
97 123
96 109
93 328
71 6
115 173
46 85
91 225
83 299
116 152
107 147
90 203
43 130
86 333
105 239
58 277
91 65
80 17
90 57
52 231
84 298
50 261
96 104
51 247
41 188
42 186
49 65
56 39
44 305
66 7
116 151
79 15
46 79
43 148
74 262
83 298
39 149
43 135
93 193
53 243
36 336
45 96
75 283
92 325
50 213
44 111
49 295
75 280
38 335
96 99
93 322
69 320
105 182
59 26
46 332
58 28
95 331
91 251
53 242
43 185
13 169
92 198
56 255
91 72
95 248
118 155
94 183
97 113
46 86
80 266
92 80
97 245
96 100
93 324
35 193
88 222
44 125
114 173
50 247
48 259
48 74
13 168
96 246
90 69
36 151
90 312
75 278
52 240
53 327
79 327
56 281
59 28
56 37
40 334
51 57
96 116
77 261
50 65
93 79
25 188
43 131
27 188
93 336
83 260
95 178
106 146
62 320
45 302
94 175
92 320
50 260
48 253
95 333
97 119
65 318
102 242
116 153
43 138
44 144
84 29
48 261
97 117
47 190
58 33
50 293
98 134
49 70
95 176
107 180
86 307
44 138
51 213
43 129
79 264
10 172
91 202
48 184
36 152
