2 173
45 41
57 14
23 147
17 51
15 108
52 67
20 83
13 9
24 75
25 75
43 125
56 73
57 15
52 27
27 99
42 120
21 43
44 101
28 93
28 110
15 112
57 111
10 9
50 151
10 81
18 48
22 96
21 98
62 88
57 156
48 63
14 88
12 166
16 80
64 169
21 104
43 101
29 131
67 99
53 68
55 18
26 34
11 7
65 94
17 98
20 86
55 110
53 44
40 136
54 157
9 91
45 43
20 68
49 26
27 62
19 24
62 92
25 61
55 13
47 61
9 94
18 23
22 144
57 85
26 52
53 150
16 98
21 100
16 155
60 41
29 109
54 22
47 155
18 60
54 151
27 98
54 80
60 39
65 170
28 133
10 83
9 84
18 112
40 37
54 152
62 86
29 132
17 55
28 108
61 115
15 87
42 91
11 168
7 93
66 97
55 106
20 43
59 113
9 171
24 145
26 142
21 105
14 113
28 62
27 35
59 39
56 40
21 147
18 78
42 94
28 90
65 93
31 38
23 32
55 114
50 79
56 111
57 44
8 172
48 96
30 63
29 128
22 60
55 160
36 132
14 162
51 25
59 50
13 12
13 90
17 94
28 112
8 119
22 67
36 41
8 170
11 78
15 157
21 101
48 154
44 130
56 115
43 93
43 117
22 97
49 28
52 86
54 112
11 6
25 30
21 46
22 148
56 154
26 64
53 78
44 89
48 93
51 23
17 45
28 116
41 36
13 76
52 77
26 141
20 109
55 103
27 136
16 105
6 97
35 133
20 106
15 96
14 161
