2 87
52 122
9 24
17 35
64 115
57 113
115 30
119 35
26 42
61 101
125 79
78 104
57 13
62 117
54 128
58 125
13 33
146 77
41 18
105 9
83 106
36 51
61 109
66 112
110 15
45 62
142 64
31 46
9 30
91 99
111 21
59 13
12 23
97 4
54 127
63 13
59 113
121 37
40 56
38 21
27 23
77 103
101 90
89 104
40 21
142 63
88 104
143 67
5 27
56 81
52 132
51 138
45 144
104 7
52 136
63 16
48 144
107 87
90 103
145 73
49 130
54 78
113 28
63 105
51 18
84 10
24 40
14 22
58 86
54 130
139 78
56 91
73 12
60 100
85 106
131 78
111 17
50 127
101 91
131 47
69 111
88 105
73 15
20 38
110 86
115 81
35 20
109 86
