2 176
77 239
110 260
79 244
44 192
44 145
14 190
75 35
125 281
34 34
81 251
61 11
104 241
33 44
78 42
35 102
94 312
110 232
86 322
130 288
33 52
64 16
81 270
143 308
77 39
128 200
36 152
126 280
64 202
74 303
79 278
49 184
83 262
81 249
102 115
61 193
83 256
114 165
72 224
33 68
37 114
78 240
70 219
39 122
34 104
109 179
33 99
38 15
81 275
126 162
67 20
33 43
129 145
134 315
99 305
10 177
41 6
69 216
93 75
73 230
116 194
78 288
44 143
53 179
106 300
121 163
137 154
67 209
37 18
96 87
82 53
34 96
113 191
133 148
108 229
73 322
107 227
133 290
112 302
42 192
110 175
35 103
129 312
14 189
140 305
34 99
7 189
84 55
110 174
118 306
47 3
71 29
17 169
32 94
37 113
135 205
86 58
73 319
67 212
32 91
37 21
40 149
81 252
137 206
71 224
31 79
35 104
79 285
97 95
36 110
74 321
118 305
36 107
120 309
87 64
83 257
125 162
32 190
114 131
7 181
88 64
104 130
32 83
68 23
123 227
48 4
130 136
81 247
105 250
35 107
108 129
119 307
31 80
126 310
64 17
137 296
69 25
93 81
40 7
107 302
80 273
107 129
57 184
32 77
66 209
78 285
22 189
105 129
101 303
39 124
146 316
45 3
34 189
69 218
91 73
81 273
37 19
114 191
109 233
83 264
57 182
126 282
130 140
8 189
61 195
3 188
47 186
15 190
122 228
68 24
139 302
112 263
89 66
96 308
140 302
111 165
110 303
