2 158
103 31
81 267
106 227
90 231
31 259
119 170
125 214
117 70
47 239
9 176
69 297
111 48
46 70
119 161
86 295
80 282
52 189
130 118
34 189
104 34
82 4
53 281
118 72
86 236
141 156
79 279
142 140
11 289
80 272
86 4
47 74
46 77
94 230
35 288
53 211
141 140
52 223
145 130
127 222
21 178
98 23
145 136
81 258
120 162
60 41
53 204
87 235
29 263
77 300
115 181
16 152
147 133
41 285
42 108
110 46
80 300
114 186
48 239
94 232
86 5
95 235
80 278
27 182
119 84
113 192
42 116
119 166
53 196
118 169
46 69
49 178
62 34
14 175
91 227
82 3
122 97
62 29
80 265
143 142
132 120
120 88
52 57
52 195
4 168
96 15
121 205
22 272
52 193
120 224
112 190
118 75
36 253
97 234
40 134
13 287
45 85
44 90
121 88
114 184
15 295
41 248
6 165
133 120
43 98
67 17
44 104
3 171
103 32
74 6
87 298
43 124
96 19
42 246
43 96
86 238
49 180
65 295
44 183
94 227
81 300
145 154
43 93
98 22
56 49
84 294
24 269
120 161
120 204
43 115
144 146
33 186
107 38
112 188
44 243
25 144
53 212
102 26
34 288
124 114
48 65
54 214
27 264
49 176
118 202
18 278
85 295
121 98
121 96
144 137
48 64
55 49
13 285
121 154
100 24
117 58
69 11
6 174
81 263
