2 166
46 113
47 106
39 197
101 140
101 117
39 236
107 223
47 109
102 262
116 142
110 103
39 180
64 11
75 57
82 95
109 141
81 317
42 251
39 198
30 129
86 27
47 89
52 282
25 49
39 205
46 120
17 133
126 145
105 243
104 192
46 22
32 18
15 15
24 46
105 179
37 133
39 219
102 258
27 171
114 95
76 72
106 201
107 142
12 33
105 180
111 83
18 14
62 305
37 179
11 158
45 78
104 178
100 273
39 226
32 129
21 16
87 27
78 50
27 17
47 85
75 315
47 79
123 152
106 234
48 271
76 88
6 145
21 166
104 242
42 252
43 133
20 165
105 241
13 34
38 182
103 258
5 145
6 144
121 142
44 71
76 68
45 114
29 52
48 93
88 7
84 88
5 146
30 16
102 78
42 249
101 272
66 311
82 44
77 78
38 208
38 200
11 31
101 141
39 201
38 197
38 223
97 292
76 314
89 309
106 217
45 127
43 20
116 94
44 20
32 17
29 129
121 165
40 224
39 221
120 157
23 168
42 248
106 210
57 297
112 142
122 155
59 299
105 228
115 86
87 81
83 3
102 261
105 232
84 37
75 4
89 11
51 278
71 315
36 59
87 26
28 16
100 142
4 151
103 113
101 268
116 90
111 141
117 89
106 211
105 190
48 273
87 311
26 129
119 141
106 109
43 69
38 183
86 311
84 39
78 83
76 77
115 169
79 49
70 314
93 304
27 50
91 305
103 255
78 84
44 69
99 282
