2 150
34 173
49 182
88 11
29 285
74 280
52 197
89 15
68 8
102 100
95 280
100 208
6 166
30 279
41 100
39 106
48 237
57 24
47 60
102 101
42 78
117 138
47 61
84 4
12 152
47 242
53 228
40 113
60 18
43 285
50 235
94 282
58 24
38 126
103 108
79 219
99 51
92 21
57 25
54 213
39 114
90 261
97 31
55 29
53 212
90 264
106 112
55 33
38 287
25 138
103 99
94 23
42 285
60 20
69 7
47 170
82 4
102 91
41 170
76 4
89 11
102 69
32 270
47 241
63 16
47 240
81 286
36 129
62 16
46 168
105 193
31 269
12 171
94 278
44 72
85 205
51 45
60 276
100 58
113 132
115 130
101 60
101 57
106 207
79 211
81 206
106 201
105 207
54 279
7 168
95 158
41 87
38 127
104 208
88 256
39 124
99 179
103 100
96 155
96 28
44 247
52 195
51 231
30 273
97 150
115 136
81 287
18 173
20 142
19 145
27 136
105 197
95 28
81 235
100 183
50 51
88 214
99 175
112 114
18 146
43 76
54 214
106 202
88 252
48 283
11 169
44 168
54 34
40 99
116 129
83 243
102 62
38 119
107 204
71 5
36 262
101 65
82 236
31 289
106 149
36 260
43 77
41 98
6 161
38 125
113 115
103 102
48 175
39 257
99 39
21 142
