2 181
144 190
92 234
143 189
40 123
46 4
124 241
74 195
141 194
115 62
139 142
78 203
152 177
131 104
140 197
40 49
153 176
33 153
100 256
148 263
138 141
162 274
151 178
124 240
43 143
38 63
150 179
112 304
134 214
98 279
125 86
49 3
94 305
41 45
77 18
129 240
39 184
12 195
99 273
42 29
132 231
99 268
180 295
100 257
139 85
146 84
100 253
58 171
94 293
42 15
137 110
70 187
180 297
139 199
152 156
37 71
128 288
81 211
38 61
97 242
21 169
94 237
133 129
130 103
96 38
147 263
154 297
57 172
37 67
94 239
132 226
125 233
18 174
91 232
64 5
104 48
133 287
96 240
150 153
37 111
133 86
87 27
93 305
97 282
8 196
26 190
176 292
42 22
132 121
100 254
147 149
162 102
46 183
28 189
157 90
67 6
49 2
134 218
125 240
142 112
133 106
142 192
36 104
131 112
93 35
41 43
80 207
157 297
42 140
57 2
159 272
164 277
85 26
93 302
133 118
173 302
42 38
87 222
114 302
21 170
131 233
141 259
100 265
136 139
82 22
162 103
143 292
134 135
71 192
99 275
14 181
40 128
97 40
18 193
101 43
118 71
124 81
99 250
69 187
45 2
147 110
105 49
138 84
40 52
131 288
39 116
180 306
125 234
140 143
133 134
92 310
35 152
96 243
31 156
122 78
93 238
128 247
13 180
101 259
42 46
39 120
131 287
70 188
37 112
72 194
107 310
149 151
133 223
148 294
129 249
42 144
41 44
62 175
14 180
93 299
95 239
41 34
13 195
137 112
57 177
130 105
132 116
