2 167
25 144
40 180
137 299
126 265
76 225
108 285
24 145
132 281
136 305
59 177
49 179
134 201
43 72
41 297
73 10
139 143
139 200
64 286
104 233
116 290
7 164
114 44
142 166
161 195
64 189
29 141
52 54
126 298
8 164
58 259
39 107
127 65
70 15
67 245
108 34
15 176
129 75
105 220
110 39
110 239
49 57
132 300
81 3
138 143
100 276
103 221
84 4
70 241
37 130
37 121
76 232
150 126
38 99
147 100
60 180
145 100
62 287
111 39
128 270
88 270
68 283
69 200
147 172
154 125
8 163
33 179
52 175
104 30
130 275
9 162
63 29
13 158
39 106
138 139
135 289
44 297
153 106
3 176
139 131
64 285
42 180
119 295
105 283
27 179
122 295
105 281
145 198
133 90
139 144
6 176
145 130
62 32
139 136
51 172
2 173
122 259
38 100
50 177
60 37
39 96
134 284
132 84
12 157
109 37
121 55
139 132
64 250
67 194
122 210
49 60
109 221
47 180
159 190
123 210
71 241
46 67
44 73
75 222
51 55
69 198
43 293
135 291
94 271
122 57
119 252
117 214
70 204
4 169
48 273
114 246
52 266
65 26
61 35
59 40
66 194
106 284
106 219
155 108
65 27
138 151
38 121
71 207
21 177
75 278
34 180
138 297
145 197
100 21
81 4
129 273
110 240
134 93
75 279
35 136
124 60
62 186
45 68
51 173
61 182
121 211
138 146
138 301
67 20
88 5
115 46
49 273
53 51
