2 136
39 84
26 143
49 27
75 8
86 88
6 107
9 113
81 17
31 17
78 98
36 18
26 164
39 213
42 220
73 173
73 159
11 115
35 6
42 221
73 145
35 28
68 46
26 158
32 5
20 128
49 16
72 173
72 169
31 19
51 31
31 191
65 215
30 96
38 83
68 208
82 19
12 97
53 19
74 168
16 98
4 101
61 19
41 42
45 13
50 17
44 49
79 135
66 52
40 14
53 18
38 20
29 4
54 30
30 181
28 178
79 24
31 18
73 174
44 47
49 14
41 77
74 71
41 216
66 212
33 26
73 158
72 184
48 15
35 202
73 155
46 16
44 67
32 194
81 132
36 208
25 147
5 104
70 194
63 61
40 38
25 150
75 32
86 116
47 16
33 196
63 220
83 15
77 6
69 64
36 204
35 30
42 10
6 106
68 63
44 224
47 22
69 65
51 17
43 48
40 19
45 60
87 78
54 26
52 17
63 55
30 17
90 83
51 230
46 18
25 148
35 16
25 149
58 23
74 109
8 109
87 79
46 12
30 182
36 207
20 129
27 137
63 57
75 102
81 74
38 88
46 58
38 212
36 10
53 23
72 167
86 7
74 104
30 192
14 118
85 115
74 156
