2 159
45 158
58 150
45 123
22 132
11 87
24 46
60 57
40 150
25 129
10 75
9 89
47 135
62 66
18 54
32 157
11 116
33 19
65 73
33 145
51 115
50 102
34 8
37 9
13 118
24 144
61 55
41 47
27 134
66 72
32 158
22 56
27 137
22 141
19 134
30 23
48 47
24 51
8 82
31 135
24 119
30 129
54 142
40 38
18 52
45 129
30 20
9 53
3 62
40 41
57 56
17 98
4 64
9 75
13 48
62 54
5 65
52 144
47 157
56 127
27 42
35 13
56 93
60 112
31 21
38 42
44 118
36 155
4 77
45 121
59 73
23 53
18 129
55 128
31 115
14 55
63 72
36 10
38 6
47 44
24 50
4 63
51 55
7 55
20 62
50 127
15 96
41 153
35 35
60 55
48 53
28 138
7 84
21 100
25 143
31 22
45 122
13 85
45 147
57 63
24 131
38 37
61 149
47 141
34 22
46 58
10 89
61 108
57 87
55 127
37 12
16 131
69 73
12 81
20 153
56 144
8 73
39 49
55 49
27 120
7 70
40 35
25 139
67 75
43 114
31 132
46 106
32 146
10 85
20 154
37 33
35 152
67 74
37 11
8 81
62 83
33 148
57 90
51 143
32 143
34 31
8 78
48 49
34 160
39 150
47 158
51 129
31 116
34 4
51 138
24 63
16 119
20 99
26 29
63 126
56 71
13 81
20 130
53 137
65 64
