2 92
30 32
37 2
67 30
61 11
11 68
60 37
23 25
36 6
30 94
32 27
60 28
28 45
40 5
31 97
43 55
59 44
29 37
32 18
33 76
20 53
32 105
44 74
35 19
19 51
66 34
23 22
68 22
56 8
27 98
41 80
13 71
24 104
49 42
35 23
47 7
17 88
42 56
34 95
19 71
25 14
8 93
32 87
55 32
32 104
53 42
60 9
20 27
55 11
63 40
23 91
26 99
45 69
10 81
16 91
61 37
37 80
29 39
18 79
28 46
29 76
69 29
41 57
24 25
12 62
38 4
67 17
67 22
31 18
28 73
20 76
35 20
57 48
61 32
46 7
27 46
42 78
30 8
11 97
35 22
33 94
54 36
33 25
58 49
36 80
58 24
22 51
33 8
21 29
19 29
32 21
8 83
66 31
