2 185
30 197
106 291
145 121
165 169
23 170
141 144
41 102
76 319
118 261
75 214
155 95
145 148
79 9
127 81
39 152
153 118
89 253
86 243
44 79
115 239
85 272
42 92
42 96
139 136
101 294
173 180
102 31
87 313
11 188
122 71
43 112
157 103
121 309
55 25
35 157
84 236
74 213
44 145
18 202
135 117
130 231
138 116
90 259
155 88
46 66
60 5
16 181
160 164
137 125
76 311
124 76
83 232
54 43
77 303
136 121
138 132
129 278
81 230
22 172
72 208
158 104
158 160
78 297
76 310
99 28
112 242
43 131
113 249
119 305
137 292
75 320
98 299
165 109
137 290
136 122
151 199
75 321
104 34
55 29
113 248
136 289
50 56
42 122
88 265
135 113
135 220
147 313
14 180
153 197
154 158
72 206
62 5
136 123
134 285
149 120
130 279
126 82
106 290
47 65
56 24
120 65
43 122
56 18
69 201
48 186
42 123
52 49
138 129
9 191
118 246
136 218
39 153
68 198
45 67
139 210
78 319
65 189
87 268
48 188
108 39
148 318
138 133
45 72
136 119
134 223
42 194
107 38
15 203
42 128
54 35
54 32
32 161
146 308
114 49
113 300
20 174
140 144
76 321
75 315
152 98
138 126
126 273
134 284
138 124
148 151
138 130
105 35
126 313
95 24
77 298
63 188
137 112
114 300
49 60
32 197
135 116
70 202
130 280
62 184
71 207
55 23
123 242
146 323
147 202
141 142
126 81
116 241
43 82
156 118
96 25
86 272
40 194
41 91
42 118
81 283
13 184
121 265
116 238
119 60
117 260
43 132
36 155
143 303
120 264
159 163
