2 191
99 120
95 312
124 163
121 139
67 268
58 186
118 179
106 132
63 22
110 229
45 327
45 81
5 161
95 64
67 237
60 195
126 166
18 145
43 116
56 290
53 297
5 156
49 168
113 229
98 100
95 225
125 177
79 4
125 176
92 239
43 91
49 59
49 62
60 199
4 155
125 224
6 161
44 81
4 157
70 314
91 18
105 230
99 20
57 288
44 80
69 261
94 257
128 166
69 314
118 312
98 186
26 170
65 18
115 207
93 43
46 174
95 71
53 169
30 172
100 276
51 307
126 174
110 178
104 282
49 311
95 55
92 30
54 324
89 10
99 117
113 298
122 152
96 83
112 296
58 30
93 256
60 283
98 175
120 325
127 149
128 171
97 85
97 76
122 227
121 159
4 162
52 305
94 249
62 317
50 55
44 98
60 27
61 280
45 75
93 234
123 218
63 24
96 73
11 166
93 45
97 15
123 160
63 212
96 79
98 86
54 169
118 137
130 146
65 272
58 189
48 318
86 5
46 322
103 129
111 321
117 136
94 245
123 220
127 172
93 38
99 314
99 22
53 299
114 229
94 48
63 210
55 174
109 200
105 178
119 149
42 179
30 138
70 259
53 43
44 90
69 254
45 76
66 17
97 83
95 224
103 131
93 51
65 271
124 149
95 264
116 149
7 153
48 327
121 227
97 232
57 287
50 61
54 171
8 153
104 196
125 155
36 135
65 20
93 253
69 253
23 171
48 317
49 310
44 101
67 317
93 254
100 21
5 163
88 10
90 21
97 74
100 191
35 176
62 213
58 288
48 62
52 54
119 318
63 221
106 230
93 251
103 176
123 217
12 168
94 225
94 55
54 44
96 19
58 289
34 176
93 255
