2 115
11 62
18 30
44 66
53 22
30 75
54 74
30 102
50 113
41 41
13 129
39 76
24 17
45 14
21 72
30 104
50 57
25 108
14 53
29 102
10 64
51 115
55 60
15 10
56 126
50 27
55 4
16 11
57 80
40 98
47 69
50 28
30 74
27 26
14 28
46 37
48 73
50 53
56 125
53 23
54 59
22 73
18 72
53 71
46 12
55 76
8 64
39 26
49 55
29 72
17 74
52 25
40 76
22 71
47 72
12 127
28 71
39 77
39 99
51 64
18 60
29 75
23 111
56 59
45 11
47 27
24 18
13 9
50 61
47 10
41 31
51 54
26 66
48 72
54 7
21 77
19 57
18 122
15 57
17 54
11 63
15 80
29 101
14 80
19 121
44 39
22 38
52 57
19 12
21 38
53 7
47 14
43 39
9 5
10 63
18 71
59 61
56 63
18 47
39 24
11 60
61 63
25 35
21 13
47 12
42 18
51 120
16 49
26 103
13 8
54 22
19 46
18 13
51 67
26 104
20 34
