2 178
128 176
132 283
41 28
59 265
23 108
88 302
128 102
33 54
113 86
56 209
58 223
137 141
109 124
103 220
57 304
55 302
94 298
127 235
59 267
46 17
115 97
105 119
5 180
74 16
119 128
118 177
72 9
55 208
137 214
32 57
101 229
133 284
72 310
106 120
107 301
51 199
96 73
43 202
6 199
127 103
64 309
101 218
111 125
132 285
23 90
45 17
110 300
102 234
126 134
23 106
137 142
24 82
55 303
127 102
125 177
130 138
106 75
127 101
144 162
4 190
106 240
59 8
35 43
31 62
110 123
59 306
121 91
80 28
122 91
106 229
113 124
64 6
3 191
100 219
72 13
31 61
117 126
131 279
15 209
35 46
30 213
109 231
68 310
109 95
19 155
57 217
61 262
55 297
122 265
126 200
80 27
32 56
126 269
142 150
38 36
61 254
127 270
143 152
86 41
104 110
100 221
55 209
123 264
105 120
8 177
34 50
122 236
98 72
139 144
35 211
126 297
61 257
69 6
131 206
102 300
112 187
63 244
60 230
57 213
138 216
48 14
89 54
61 231
54 298
54 296
101 74
72 10
100 299
36 40
47 196
55 285
50 193
62 239
45 16
23 124
23 125
3 187
40 208
106 299
7 175
96 298
109 182
120 99
103 235
100 230
22 96
26 141
26 142
11 170
122 264
101 72
23 93
112 95
104 223
132 280
99 226
127 201
4 187
104 107
25 84
128 100
133 234
60 226
105 114
116 177
58 5
90 51
124 176
8 175
18 156
99 73
125 94
23 212
105 110
4 189
65 5
32 212
132 291
