2 201
109 325
111 44
177 131
20 102
20 145
162 141
196 74
143 208
32 90
40 325
13 297
196 70
159 168
39 90
198 65
39 253
6 311
83 255
198 4
85 333
169 11
87 65
82 266
145 208
73 82
211 29
156 157
38 262
201 59
106 272
12 334
154 145
40 243
26 90
169 12
45 89
4 319
85 254
14 195
6 327
13 333
115 243
19 96
34 90
188 6
94 334
160 175
94 292
160 180
93 291
7 309
82 70
64 91
13 182
183 112
38 225
26 228
203 55
21 136
57 316
109 316
127 187
122 195
212 29
172 135
129 190
30 332
82 270
22 92
15 293
117 206
77 75
23 129
19 101
197 70
34 267
3 318
70 87
134 201
20 101
30 234
82 268
120 197
183 110
32 89
21 143
207 8
87 279
85 275
85 259
37 222
25 228
105 273
22 121
106 329
207 45
40 247
20 334
193 80
17 209
61 93
34 227
170 138
167 13
216 27
36 263
158 142
78 332
5 327
39 223
83 252
194 6
86 278
182 112
120 198
18 209
102 49
16 290
21 284
208 10
82 258
101 303
18 214
156 160
155 206
211 11
111 270
213 6
32 269
81 332
27 333
21 141
135 202
17 214
159 177
4 323
21 114
158 199
83 254
164 16
154 20
17 163
41 251
182 119
210 34
114 231
20 112
86 277
64 92
135 32
153 20
38 260
112 264
215 28
18 148
211 7
19 104
15 170
130 189
104 306
40 231
20 138
147 24
40 255
17 210
86 255
126 188
160 186
21 139
39 229
125 37
160 195
73 332
6 328
204 50
21 221
17 289
211 32
114 242
5 323
151 22
140 29
25 279
84 68
145 26
208 37
17 208
198 68
38 222
187 92
39 256
82 260
38 221
137 31
99 269
87 280
60 320
126 186
114 257
115 42
25 229
