2 172
35 104
91 79
93 282
58 242
94 17
61 223
42 57
49 265
36 85
60 214
40 290
60 233
98 20
92 171
93 256
39 70
43 282
87 21
87 15
87 58
60 238
42 54
93 98
106 116
85 45
83 213
88 202
23 149
107 290
91 76
82 218
57 283
106 290
86 201
116 211
38 73
49 34
96 25
94 111
81 28
7 136
86 280
96 26
76 4
52 176
57 247
37 78
5 139
25 114
38 76
93 142
94 158
41 285
61 228
87 12
113 126
22 147
60 208
61 281
89 70
40 65
85 47
54 185
93 104
117 207
72 5
15 146
95 184
109 197
14 126
94 104
116 204
71 5
92 255
12 146
105 192
99 27
93 166
93 154
92 214
115 204
90 182
52 27
94 153
9 144
20 147
84 203
80 23
83 217
60 212
50 167
95 285
51 174
59 11
29 148
92 17
19 147
87 13
85 243
91 80
20 148
77 6
94 258
28 111
54 252
83 216
103 214
93 161
46 291
92 254
93 99
82 32
58 196
106 195
45 151
95 141
83 221
38 71
90 207
76 6
42 281
99 266
89 179
91 172
43 48
84 21
80 277
45 45
104 289
32 108
57 194
54 183
114 120
20 121
93 24
8 135
95 17
94 16
93 23
91 210
82 15
87 246
94 215
93 150
46 156
114 119
36 92
37 100
110 213
50 169
58 12
43 279
45 291
84 40
97 286
48 270
90 206
42 283
82 230
11 146
86 279
92 166
99 267
98 214
48 161
36 103
97 112
6 138
45 150
50 265
102 191
114 146
