2 139
64 254
88 10
109 152
59 190
125 110
31 84
112 101
60 186
97 190
93 181
75 242
46 242
45 49
102 60
94 180
18 114
59 20
66 195
70 6
94 195
125 143
66 12
22 112
131 116
44 178
131 138
77 239
94 198
38 171
50 35
104 250
31 85
28 155
46 246
110 166
92 31
93 16
13 118
116 185
105 70
67 194
87 16
123 109
52 29
115 251
32 91
58 222
65 212
116 190
106 220
111 148
104 64
60 187
115 183
89 241
97 186
15 116
59 188
38 61
23 109
105 66
109 226
130 116
8 129
61 186
114 176
36 169
112 96
50 255
96 187
48 239
67 199
111 172
86 237
112 103
89 15
31 89
48 255
6 134
58 190
94 35
72 247
61 218
66 191
103 60
118 144
42 177
45 247
88 23
113 97
33 80
45 250
116 143
32 103
79 7
62 216
109 80
130 135
112 230
94 196
112 228
41 56
99 248
113 178
51 234
111 171
89 11
55 227
35 71
56 196
31 81
64 13
108 75
9 123
41 57
104 62
90 241
108 83
97 187
113 229
108 78
96 207
81 5
44 249
45 178
103 58
51 235
117 240
49 39
48 44
61 216
68 207
62 16
37 62
102 249
112 100
93 188
112 97
48 240
