2 192
36 219
76 328
179 155
153 196
36 220
4 175
153 323
28 138
160 117
135 267
46 99
182 163
160 118
172 178
140 250
164 220
157 99
66 330
154 187
98 11
132 236
76 271
179 154
174 241
24 141
156 204
25 140
145 330
13 157
30 216
160 132
168 227
50 88
138 270
137 330
127 14
159 211
168 250
79 230
87 325
70 237
171 181
159 109
112 4
61 238
28 213
22 208
68 285
175 242
128 17
58 309
174 182
167 249
176 247
172 177
133 240
130 228
56 313
57 234
61 330
32 219
24 209
131 257
134 247
56 70
147 59
34 220
134 28
156 81
62 63
148 292
124 11
158 208
85 248
8 184
133 239
174 249
80 36
151 197
152 310
166 182
33 217
109 316
160 130
131 20
147 290
130 229
150 251
145 56
83 32
81 34
35 131
153 195
154 192
72 329
173 250
137 39
157 91
76 273
162 216
93 322
149 251
158 207
171 231
132 229
168 183
103 317
73 48
150 329
154 319
55 235
158 102
17 200
41 119
133 262
153 328
69 285
49 87
70 330
153 314
154 328
77 270
74 277
40 119
54 319
154 316
186 174
114 320
145 288
158 99
188 177
54 325
148 330
63 239
154 249
159 113
175 245
73 227
168 249
167 182
93 17
72 279
63 62
160 115
26 211
99 8
63 330
139 251
14 156
82 237
170 231
153 194
26 212
26 139
176 153
150 66
186 169
141 278
161 179
12 190
23 143
144 285
133 232
43 114
74 274
40 125
184 165
62 298
31 133
164 219
29 215
41 226
135 34
62 62
133 241
126 14
134 264
174 238
59 66
59 67
159 116
74 227
43 110
128 262
144 283
140 46
123 246
40 123
187 171
128 235
171 183
68 286
