2 143
26 15
20 46
17 74
65 61
16 81
68 119
28 13
63 115
4 245
18 237
7 212
25 25
47 4
70 188
61 110
70 141
17 217
32 9
72 145
8 248
17 87
15 218
82 234
70 126
67 37
9 249
71 244
22 34
4 238
11 251
13 115
79 243
65 279
61 13
77 248
31 278
27 17
62 90
13 149
54 292
19 254
10 199
62 286
22 31
67 52
61 104
11 198
19 64
69 203
14 244
24 27
39 286
15 232
50 5
76 257
17 85
14 173
16 87
68 190
17 81
76 247
75 220
5 246
75 259
66 50
77 228
16 190
66 47
13 154
11 174
11 204
20 51
56 292
65 78
62 287
13 121
69 131
13 155
69 184
62 288
67 49
9 239
15 186
66 67
60 106
61 99
68 205
44 4
70 156
64 73
48 293
68 265
15 96
8 250
34 282
33 7
13 116
46 291
47 291
12 245
55 5
72 151
64 24
74 231
12 227
69 219
9 219
16 91
14 97
13 166
65 114
68 276
16 186
75 241
12 124
65 62
7 247
69 269
11 177
71 223
52 6
64 81
69 199
67 30
70 186
61 288
11 141
21 47
70 139
13 107
68 244
27 269
66 26
20 256
62 86
12 144
80 243
82 224
36 5
64 284
10 242
20 255
16 192
