2 165
40 225
101 195
54 298
122 12
75 267
117 10
76 261
24 289
100 175
105 154
47 198
46 207
116 122
102 163
120 50
78 91
123 10
140 98
54 278
121 38
93 30
30 265
29 273
72 118
58 316
106 149
102 195
102 200
102 178
40 229
121 29
7 313
6 326
117 121
128 111
121 54
101 13
124 75
102 189
85 208
123 108
76 265
92 29
32 257
44 209
90 33
73 116
76 97
89 43
77 225
80 85
130 81
14 302
137 91
136 115
100 165
135 89
120 38
11 331
136 88
84 209
83 210
41 221
76 100
47 204
138 95
34 334
43 190
102 162
106 151
95 211
119 110
78 94
86 206
112 134
34 250
43 335
70 127
105 151
30 332
56 271
73 109
102 196
73 232
57 334
115 7
36 333
55 278
15 302
60 327
117 5
27 173
36 240
89 44
29 274
60 319
42 221
53 295
75 247
46 204
107 149
55 304
101 181
87 56
102 193
90 45
77 95
21 292
58 314
54 277
87 62
117 13
104 154
77 97
141 111
71 118
34 165
16 331
109 145
109 144
104 11
59 315
15 331
120 21
47 206
122 74
50 193
56 309
18 296
75 237
113 10
45 210
41 188
20 293
99 16
91 34
40 162
116 125
54 297
101 201
120 46
75 229
118 120
57 272
93 27
89 52
121 56
59 265
3 322
59 316
55 336
32 255
121 42
86 68
111 4
119 114
30 274
35 247
62 151
101 207
38 186
137 92
86 64
76 248
104 158
