2 181
7 236
108 100
63 106
71 83
37 197
129 98
100 127
58 120
121 39
77 69
28 273
66 324
89 173
32 236
118 62
118 63
84 57
30 251
121 50
81 244
29 266
82 243
93 322
31 244
82 204
3 226
113 94
120 78
70 246
121 28
130 97
110 92
55 319
67 250
81 245
84 241
102 117
92 168
46 163
5 218
116 69
91 39
81 210
129 86
30 290
124 291
99 27
119 282
72 323
41 183
24 238
34 235
120 34
26 203
130 25
128 21
119 60
120 28
126 103
85 280
122 103
82 63
82 202
131 19
102 119
22 239
23 239
43 311
32 238
66 323
83 198
29 277
65 269
107 320
82 217
115 279
81 282
94 35
31 249
106 104
99 26
44 175
59 118
103 113
112 85
120 79
108 275
117 61
119 11
81 214
119 53
118 64
64 322
87 179
133 25
102 275
127 27
71 324
31 245
120 38
73 324
120 53
34 300
64 269
4 230
66 96
23 204
114 280
80 210
28 280
104 112
68 92
93 161
101 321
10 239
27 235
56 125
45 314
56 127
81 203
124 289
92 322
70 85
33 297
112 86
98 28
80 247
97 30
125 305
131 92
85 190
38 195
35 228
69 87
86 324
31 247
77 247
100 27
86 279
125 294
63 105
74 277
57 122
82 216
87 178
32 200
36 302
98 136
9 237
104 113
129 87
90 169
34 298
50 152
119 78
43 178
81 213
89 323
83 59
100 131
122 8
119 8
86 229
125 304
79 278
29 234
84 225
89 48
21 205
80 324
119 12
124 12
85 232
11 239
65 322
39 306
129 101
25 204
31 291
128 18
112 91
