2 143
38 174
47 18
29 151
63 238
37 166
28 152
42 34
66 32
39 275
65 16
64 206
66 23
14 133
75 226
65 108
85 123
29 150
67 75
57 5
65 176
64 236
37 162
69 282
74 145
70 12
66 82
86 122
62 233
67 146
41 36
8 153
44 221
65 40
68 70
63 209
65 172
86 139
31 119
66 14
67 81
66 163
36 154
60 288
85 203
4 143
27 153
66 28
85 135
68 209
66 166
43 27
66 95
8 141
37 46
41 264
65 11
40 199
33 69
63 207
65 248
6 151
66 105
36 168
56 288
67 93
9 137
52 11
36 162
45 229
65 41
42 212
88 213
44 235
34 66
66 106
34 64
66 27
32 95
12 154
66 62
79 118
31 109
86 206
3 147
65 32
62 221
64 237
58 3
42 259
38 172
63 231
64 242
21 127
40 285
77 143
40 271
63 210
86 205
67 158
66 61
61 221
72 115
31 101
65 242
30 147
63 208
44 28
45 287
42 287
39 272
38 275
81 126
32 77
37 183
32 107
31 92
66 96
44 228
36 52
26 123
66 156
39 199
31 102
67 185
31 97
51 11
65 26
67 207
37 163
35 150
62 235
6 141
10 137
41 207
68 13
65 35
63 237
67 267
65 15
87 209
38 178
86 137
59 4
