2 107
96 111
89 119
95 153
21 54
38 21
13 133
75 151
44 211
30 38
101 106
5 116
22 53
86 154
49 156
86 66
68 213
99 96
3 111
82 56
22 49
83 154
83 201
96 91
90 129
74 160
81 51
87 78
86 67
49 5
30 209
96 149
88 81
29 38
30 147
12 133
91 86
47 153
35 211
93 133
69 215
40 178
42 212
80 182
83 59
28 148
11 93
82 196
19 59
46 209
48 157
17 64
80 177
48 152
48 5
79 178
29 208
49 159
80 213
97 92
101 102
57 203
84 59
13 90
29 207
16 79
20 142
17 68
44 146
55 204
100 101
36 26
4 111
100 102
42 153
4 112
47 6
90 113
79 215
91 130
11 94
8 96
97 93
12 90
35 28
34 32
82 194
17 65
29 201
37 24
83 54
81 191
76 152
95 112
81 47
84 62
25 43
62 7
68 215
8 124
94 142
40 154
85 69
80 42
94 112
82 154
72 21
40 17
