2 187
43 305
36 326
44 182
96 251
37 178
57 94
58 87
8 165
11 162
78 41
99 134
9 164
46 235
46 244
87 20
42 309
110 72
110 68
76 252
90 256
62 80
55 98
91 15
61 79
59 84
59 83
85 23
77 42
117 140
54 110
54 101
99 127
43 199
102 110
122 172
44 188
91 172
36 334
61 77
71 55
89 176
21 152
44 205
119 16
89 178
126 171
27 147
90 16
81 256
34 180
74 47
115 30
46 297
91 173
97 133
75 285
89 179
65 68
83 258
44 303
44 181
102 136
86 336
39 177
43 188
127 168
97 132
47 282
90 170
37 322
100 121
48 126
118 23
72 336
84 23
105 101
37 326
74 337
109 174
74 286
111 63
87 21
79 255
47 278
120 172
46 255
50 338
72 245
110 4
116 149
71 258
76 43
112 137
14 180
112 52
77 337
5 177
89 177
17 181
113 51
118 16
104 4
108 3
116 7
128 166
47 267
64 70
81 296
112 66
109 77
77 253
43 189
110 175
93 168
104 107
34 141
72 55
89 194
36 140
65 337
95 317
105 104
88 226
47 287
106 92
104 103
121 141
44 176
117 16
93 166
94 10
90 166
25 148
56 99
43 303
79 337
118 17
72 253
115 39
120 10
72 255
72 51
36 179
48 281
93 167
7 179
85 336
115 36
101 114
114 50
18 180
101 172
55 100
55 103
86 337
107 88
43 186
106 97
97 243
43 163
45 233
44 194
95 242
20 152
89 185
72 260
55 102
96 323
115 26
67 65
102 111
124 172
85 300
119 142
56 100
38 337
53 108
19 153
44 171
117 14
91 165
115 32
52 115
43 185
98 326
113 55
118 20
