2 180
94 16
67 335
99 20
92 324
131 96
36 100
50 85
77 329
131 75
55 56
97 324
12 128
131 81
70 334
120 315
61 233
143 93
133 94
66 325
124 329
97 14
114 62
60 256
33 177
97 16
116 217
53 246
25 109
123 237
118 75
113 59
64 335
57 244
76 292
82 276
75 301
75 296
83 5
10 133
117 306
104 284
108 42
140 96
115 67
111 296
126 139
120 316
64 227
121 232
70 310
124 74
94 20
132 155
50 145
136 85
113 64
79 277
126 128
52 76
55 251
42 197
69 313
55 57
83 4
115 66
135 94
57 214
47 204
43 196
77 292
66 261
134 79
51 207
135 77
88 325
122 207
108 324
141 179
39 135
107 41
124 248
58 238
28 106
50 79
125 138
44 95
60 41
127 115
46 152
33 102
93 21
65 22
24 112
105 325
65 26
93 12
54 66
58 241
120 73
105 37
55 250
139 175
54 65
78 293
56 56
126 132
40 193
139 169
81 287
29 106
101 25
50 86
122 235
31 105
127 125
46 201
125 107
69 314
122 74
113 65
111 218
138 167
24 130
135 189
40 98
27 130
125 103
124 136
126 105
92 22
104 274
51 209
114 64
104 36
64 331
23 113
31 182
102 282
124 102
110 266
138 166
75 330
122 232
33 103
49 85
67 323
68 317
73 303
41 160
112 217
26 109
51 81
63 219
13 126
49 86
48 93
33 178
132 81
57 215
106 269
45 199
48 203
116 223
37 167
111 54
88 15
122 318
14 125
101 324
127 126
146 94
101 27
107 270
45 138
108 268
124 137
41 161
52 209
139 173
104 286
