2 315
35 9
92 56
53 143
12 164
67 41
59 176
52 106
6 76
5 78
112 50
71 16
60 106
73 21
28 31
72 92
53 106
51 169
45 17
46 6
60 131
32 191
85 9
62 103
7 98
121 198
53 40
34 8
50 49
50 37
68 179
131 39
84 78
108 43
11 29
99 68
105 13
55 112
75 18
74 63
77 83
47 9
66 56
92 109
75 3
53 115
9 137
39 198
88 23
38 17
10 26
114 206
79 85
36 127
83 21
15 34
6 96
7 72
14 170
115 58
48 119
70 47
69 40
62 205
108 208
105 32
42 153
84 23
109 191
42 121
39 31
59 177
73 174
94 59
87 6
105 38
90 105
71 87
93 109
63 172
47 156
104 191
9 151
7 124
3 60
42 11
106 15
51 177
63 103
51 99
87 101
110 206
54 160
50 19
59 41
11 164
79 92
116 205
54 179
112 187
69 4
55 105
115 194
116 204
71 41
80 87
57 136
59 204
113 82
51 8
115 205
87 58
115 20
54 112
86 81
37 158
107 42
57 141
59 141
13 27
39 20
51 38
60 16
40 137
118 88
93 11
96 10
111 56
92 58
56 35
115 63
27 15
36 130
64 7
57 146
47 49
96 11
43 165
102 74
58 204
107 43
11 31
61 156
118 204
104 16
98 193
63 112
50 140
81 7
77 84
119 24
83 77
58 93
59 106
111 188
56 129
72 19
63 53
104 73
110 52
105 18
47 20
30 13
32 16
67 17
115 195
52 113
4 78
98 61
12 30
48 32
108 40
104 31
8 142
63 109
43 199
40 123
93 58
46 147
48 168
97 25
112 22
33 139
57 8
60 156
112 205
56 114
61 38
35 141
73 71
62 166
45 157
85 195
90 207
15 21
106 33
60 150
108 74
114 57
15 24
25 27
109 190
71 58
73 74
37 132
72 90
59 115
35 129
67 91
61 16
61 50
109 48
110 81
65 3
10 30
50 139
75 67
100 30
93 24
93 111
122 31
65 102
76 71
58 105
43 161
81 21
56 204
37 152
58 115
44 46
72 87
48 118
59 132
55 144
46 9
90 9
90 102
111 57
4 69
38 140
57 135
75 167
95 111
68 4
79 68
24 184
8 42
64 16
12 29
68 192
23 26
55 113
63 173
112 79
103 35
65 89
65 8
116 198
34 12
6 75
8 126
76 205
86 51
101 192
8 134
54 131
68 20
86 207
36 129
61 7
58 116
49 145
60 111
117 198
110 17
79 87
69 45
106 41
58 7
59 116
88 98
8 123
62 129
49 32
24 26
74 205
69 8
78 20
49 33
49 202
44 16
62 37
105 71
44 19
59 108
59 52
9 49
4 59
50 104
63 54
5 88
29 9
71 193
6 114
59 16
112 18
111 49
116 88
53 101
73 48
54 113
73 65
11 44
67 89
68 83
116 24
