2 147
54 280
51 81
48 74
48 7
25 58
58 232
50 107
36 41
54 8
55 174
32 168
58 237
55 188
56 171
56 81
59 82
55 193
52 121
23 76
37 269
57 234
55 183
38 279
30 125
37 44
55 194
57 250
52 81
53 135
44 319
44 315
31 170
26 61
25 101
21 80
43 327
34 237
3 6
33 205
58 236
33 212
25 17
31 174
43 308
56 276
42 304
14 90
32 177
22 14
12 23
43 330
32 19
31 144
44 321
33 189
49 309
23 15
26 19
31 19
56 256
47 8
61 139
50 108
32 180
54 94
15 91
30 122
8 8
25 60
50 301
58 263
40 295
9 18
32 200
31 140
51 118
55 149
55 3
58 222
34 223
52 297
57 229
36 44
30 165
38 36
38 35
41 298
59 139
49 78
12 88
7 16
28 104
28 48
23 69
33 190
58 261
56 194
56 200
57 248
54 290
22 32
33 203
32 172
35 235
46 327
38 270
30 124
56 196
56 208
33 211
26 53
57 227
47 70
52 126
47 72
31 169
43 64
48 319
56 205
37 271
57 226
56 193
33 218
56 199
40 286
17 28
47 325
53 83
26 60
58 227
58 231
47 73
7 14
14 11
51 117
51 98
55 168
58 213
19 13
41 292
55 137
28 42
49 100
31 136
58 249
57 262
48 312
