2 115
50 97
52 170
7 17
48 10
55 81
188 142
131 74
90 52
105 211
7 25
81 45
102 53
112 56
101 211
189 145
188 169
82 46
95 51
143 208
106 212
132 74
150 204
110 213
187 119
49 109
98 209
48 160
83 48
8 16
122 61
192 146
190 158
173 96
49 110
112 213
117 58
64 187
13 31
109 213
101 52
59 67
47 152
14 31
167 193
127 214
40 34
49 165
98 53
164 87
75 40
56 175
58 64
55 77
137 210
106 213
48 144
181 179
12 31
77 42
164 86
125 61
188 143
172 188
67 33
61 182
169 192
187 124
47 36
114 212
152 76
127 67
66 190
13 32
189 137
7 26
32 36
47 140
121 215
159 82
54 173
57 73
57 59
50 99
71 192
91 52
119 215
49 111
48 36
28 4
33 35
21 4
5 21
82 199
99 52
28 36
50 92
48 37
69 192
64 188
146 73
188 127
91 204
89 203
167 89
30 3
64 29
86 51
48 126
48 132
36 4
188 168
120 214
126 65
189 170
60 69
