2 165
36 301
92 94
109 194
30 253
35 284
28 223
11 191
101 220
27 123
108 131
79 301
95 247
31 245
12 193
83 63
37 113
116 148
79 303
113 175
57 64
69 329
109 131
95 111
98 85
116 158
64 334
110 187
37 80
88 24
85 284
39 111
96 239
114 175
84 289
31 242
26 215
42 99
36 81
59 326
77 308
40 96
66 336
98 83
84 5
96 246
31 243
37 19
98 75
78 54
92 96
83 293
71 323
86 283
108 195
50 42
57 56
43 32
92 71
80 299
94 251
105 123
110 188
16 142
27 169
33 277
8 176
98 227
88 267
34 290
21 156
32 260
84 291
18 203
38 20
102 210
92 109
18 204
91 69
82 46
102 213
6 182
78 302
45 68
95 90
99 78
33 8
109 193
87 30
93 72
97 236
116 164
60 13
55 53
56 317
63 13
87 273
8 174
5 175
38 315
101 206
42 30
22 179
58 61
36 7
102 215
88 269
114 169
28 170
17 140
99 225
75 313
80 49
33 266
26 180
109 134
51 318
101 207
92 254
31 255
39 314
55 12
111 184
47 65
17 144
84 64
17 178
115 145
39 73
59 325
30 181
88 68
95 239
101 119
74 313
87 272
102 216
56 53
111 189
12 176
35 286
31 244
87 280
112 185
42 27
38 91
57 322
95 112
69 10
88 23
82 47
98 74
42 321
85 65
10 188
35 290
111 187
34 275
32 268
114 145
51 63
29 171
90 258
17 142
98 233
20 133
