2 161
84 276
14 217
29 329
18 170
114 199
53 110
25 308
20 172
110 161
17 223
112 171
115 37
97 121
46 116
104 93
95 248
88 275
121 21
22 192
80 8
35 329
92 255
113 175
69 29
23 180
4 191
113 194
104 89
111 169
23 289
114 195
121 16
100 101
28 191
113 195
73 47
28 325
109 219
111 42
66 20
41 122
100 130
23 265
72 290
57 317
24 181
28 192
46 330
96 119
29 139
25 307
99 234
23 271
50 326
70 32
85 276
97 267
22 288
108 269
76 7
105 141
24 148
103 82
93 275
31 329
114 35
67 25
106 49
61 73
66 7
115 200
94 64
103 85
119 11
110 211
10 211
108 151
78 280
5 199
67 4
28 190
51 112
71 4
110 268
96 11
104 51
23 272
64 305
73 5
107 224
75 58
22 275
103 86
52 111
23 193
61 313
68 296
24 297
14 192
75 65
97 122
67 17
117 30
98 58
25 241
23 249
26 193
88 11
92 10
104 258
115 184
28 188
103 11
76 57
24 307
27 192
42 328
92 259
104 87
23 236
24 239
26 318
119 12
28 324
71 40
93 11
108 152
23 259
90 275
23 277
12 191
111 207
114 194
22 287
54 109
110 43
71 35
68 295
4 193
112 204
100 77
110 158
24 241
53 86
114 189
111 164
65 71
114 186
65 10
23 291
111 217
26 316
97 11
112 176
97 70
76 8
90 10
53 98
78 8
21 175
102 99
