2 152
93 105
95 115
82 281
92 104
79 66
20 113
44 230
93 186
69 257
34 26
91 179
74 49
95 105
13 186
53 286
33 29
35 24
68 229
38 236
24 148
33 33
72 38
92 158
92 174
20 100
93 104
74 47
98 118
33 30
19 206
15 108
23 169
84 93
90 117
83 81
19 204
22 155
25 166
91 173
16 103
91 170
6 135
70 34
35 26
83 80
34 289
23 136
45 250
67 251
20 122
66 247
30 48
98 109
66 252
25 68
43 254
34 31
49 241
39 238
92 111
7 132
82 286
93 106
12 110
83 82
65 245
45 228
43 255
23 139
82 280
35 233
14 126
37 237
41 291
93 113
96 191
90 225
32 227
90 133
32 45
91 146
46 249
10 109
42 12
24 167
90 132
26 64
66 238
25 63
28 55
99 109
92 150
66 26
85 88
99 121
102 206
59 12
93 118
40 260
25 218
28 164
91 168
21 97
37 235
74 236
89 124
65 239
69 32
30 282
91 180
80 71
52 3
65 242
40 291
80 276
49 287
66 25
76 264
91 140
14 197
77 270
48 236
92 159
91 174
4 137
78 68
37 236
21 111
82 77
33 41
48 5
22 80
12 162
91 225
72 40
17 124
39 237
21 84
17 159
48 234
32 39
75 236
19 101
20 112
12 189
5 134
66 250
37 234
13 192
93 157
15 180
42 15
