2 169
94 34
100 247
98 231
41 285
40 77
50 30
126 159
109 113
123 144
89 43
41 286
31 187
128 164
52 325
100 18
37 274
100 240
129 168
83 288
18 156
36 260
122 142
67 321
54 39
107 240
126 149
126 184
44 114
101 19
105 108
70 315
129 173
101 245
24 131
43 19
95 106
108 207
47 322
40 98
43 102
82 59
27 219
37 91
8 197
45 22
64 323
45 5
48 326
88 58
104 86
99 233
98 235
82 56
86 48
30 188
102 249
47 26
43 18
117 133
99 99
95 61
50 108
85 51
25 131
36 246
96 27
28 221
101 18
92 36
30 187
40 284
53 36
90 271
40 79
23 215
17 209
73 8
4 186
104 85
53 329
8 186
61 58
49 114
54 5
84 51
102 214
124 186
102 89
83 57
56 325
89 272
32 177
126 150
71 315
126 156
116 197
96 111
41 97
75 306
26 169
24 217
37 268
93 257
32 176
21 136
126 153
26 218
72 8
88 43
38 269
127 152
47 5
81 296
45 104
100 220
98 110
100 65
99 109
78 302
54 65
118 134
27 170
23 132
60 68
95 30
54 330
23 162
16 150
60 51
16 144
81 61
49 326
100 226
36 255
37 267
16 151
37 271
100 20
23 163
57 5
44 311
9 197
101 92
97 103
75 8
61 327
44 102
4 188
129 162
99 227
54 328
100 224
129 164
18 154
26 130
85 284
102 244
51 34
128 165
111 117
29 188
62 59
42 116
43 71
54 331
114 199
41 14
96 30
92 35
