2 182
36 95
17 238
84 245
62 6
14 235
26 30
37 118
56 218
60 63
44 172
61 55
33 250
19 223
42 262
77 273
39 17
74 275
32 268
5 235
59 19
23 34
36 91
52 268
26 255
70 41
26 256
58 12
39 15
64 43
63 26
72 277
35 69
50 209
66 40
33 50
50 199
62 28
35 131
80 267
79 266
70 141
39 143
36 125
52 284
65 117
53 213
39 146
63 89
82 229
34 50
78 196
36 27
64 23
74 167
74 156
34 108
36 111
33 47
64 28
45 283
47 284
84 224
80 184
52 212
61 6
64 24
60 22
41 261
38 142
7 236
11 236
80 200
56 284
35 93
38 14
48 194
34 89
46 173
66 129
8 235
75 162
10 237
32 63
16 236
40 149
33 130
13 237
40 10
36 16
75 167
82 225
62 76
54 217
36 81
62 68
19 230
68 280
7 237
29 264
82 191
60 43
55 14
33 253
80 183
16 237
40 11
75 165
55 15
64 91
19 236
27 242
25 38
36 26
79 180
34 60
48 284
61 56
38 134
34 52
3 237
8 236
58 24
43 281
53 266
62 31
64 107
69 138
71 150
58 25
54 265
54 200
59 15
84 242
36 71
35 129
68 41
37 91
31 21
34 41
52 285
75 160
56 221
39 148
62 72
39 12
63 106
45 15
34 102
84 235
39 8
43 20
33 32
31 41
34 56
75 274
52 210
44 16
64 118
80 202
36 17
70 142
59 240
56 223
25 253
62 82
35 72
80 264
41 281
63 36
77 272
84 251
6 235
81 188
52 205
34 272
82 223
34 75
28 41
36 115
65 22
79 269
39 18
