2 175
97 235
70 40
24 139
16 172
66 244
94 55
32 96
21 151
102 135
79 206
92 253
96 244
19 161
95 245
11 310
28 119
27 314
23 328
26 314
23 141
31 308
68 22
84 184
83 192
72 223
78 260
19 315
99 148
92 5
23 324
39 78
84 186
11 314
103 125
19 313
105 11
88 4
30 107
27 130
27 136
106 13
69 42
68 49
108 79
12 200
91 170
92 248
45 61
97 55
30 311
67 54
46 282
48 54
38 294
56 264
21 314
71 229
11 190
110 23
38 78
102 130
73 224
12 228
83 258
11 321
105 88
15 173
27 134
102 137
70 18
30 102
44 60
80 237
104 48
100 140
14 320
37 298
89 174
67 243
11 199
93 4
22 313
99 237
33 307
69 24
90 174
76 217
109 29
24 331
10 239
107 48
63 263
104 113
10 299
47 276
69 262
49 50
96 53
109 62
10 276
101 133
99 45
10 238
49 270
79 208
82 236
98 151
10 301
102 50
106 34
63 244
10 285
85 236
102 125
89 255
112 55
104 98
94 252
11 291
91 3
92 254
48 280
73 222
109 65
11 198
71 37
69 43
100 142
23 329
29 112
99 249
105 100
67 236
69 261
98 154
42 66
69 230
8 322
10 317
48 276
92 172
76 212
12 230
74 238
100 141
110 67
60 44
50 272
15 220
33 93
70 12
9 266
96 160
18 166
34 304
10 258
105 99
49 48
30 108
49 272
14 206
98 158
26 136
10 190
23 138
102 236
101 140
25 329
83 187
9 285
41 73
96 5
78 210
66 52
64 54
