2 145
43 12
13 90
32 60
46 96
36 49
22 119
52 88
14 89
10 81
9 144
53 68
18 128
18 127
36 8
5 191
48 93
18 139
56 64
12 117
10 47
20 142
44 111
6 155
7 152
49 85
18 131
45 86
26 90
34 104
37 57
14 150
32 99
7 160
11 31
61 6
37 58
42 72
18 123
20 20
10 60
51 4
44 87
44 90
8 143
11 50
55 79
18 126
35 46
41 6
21 147
7 162
36 44
37 62
54 3
9 43
49 89
36 101
43 110
34 8
5 195
26 15
47 12
11 82
19 139
21 109
45 5
53 86
12 54
59 8
19 129
36 42
38 34
40 63
5 162
48 75
21 129
43 70
22 113
21 97
37 85
11 49
21 140
10 78
34 97
19 125
57 70
47 103
22 120
17 149
16 136
21 96
16 137
14 145
5 172
21 118
11 75
10 70
45 100
40 110
13 97
10 66
21 142
53 4
8 141
59 9
5 159
27 14
44 54
9 142
34 59
36 88
44 102
38 61
40 91
51 13
39 91
34 99
18 141
9 63
36 37
35 101
53 67
12 149
20 130
22 18
16 133
5 183
45 104
39 109
62 5
19 142
53 13
12 119
21 139
5 169
5 170
17 145
36 56
28 92
47 5
44 89
39 62
47 66
21 100
10 71
