2 168
18 23
13 151
43 50
5 139
62 48
45 53
24 89
10 120
45 75
15 136
40 92
60 52
5 53
16 146
20 100
86 59
56 60
21 100
43 44
7 118
101 55
61 59
15 151
5 145
25 14
4 66
90 28
34 90
51 59
16 130
11 88
102 51
94 29
87 34
34 48
5 151
44 53
71 10
26 86
51 89
31 102
23 88
40 79
10 137
16 129
76 16
70 57
98 59
61 63
8 147
7 140
25 90
49 41
14 29
53 48
17 141
14 166
37 100
17 23
8 134
18 120
91 60
56 104
74 60
6 74
47 106
92 38
69 58
63 8
5 149
16 163
52 4
29 12
15 129
28 82
54 85
25 91
67 9
57 102
45 88
12 130
5 64
47 56
55 85
4 54
55 48
63 7
63 78
64 98
8 38
28 95
56 48
63 9
15 155
35 9
44 76
53 51
58 55
52 88
92 30
89 53
31 84
7 117
54 47
76 17
92 36
13 127
25 83
51 72
6 120
13 148
39 102
90 59
46 91
27 81
50 105
6 46
66 73
6 145
53 88
24 82
64 73
5 67
52 71
49 55
32 91
62 59
51 105
63 52
7 147
53 82
3 160
62 53
89 36
79 21
46 53
58 101
95 58
100 56
72 60
58 83
63 77
99 54
3 163
13 147
61 3
7 77
53 59
60 57
33 94
5 57
47 104
84 33
6 75
6 148
15 165
4 150
5 141
74 59
82 28
14 140
57 66
63 74
16 92
15 99
6 159
34 93
20 118
