2 157
35 319
12 263
87 170
23 149
30 87
94 153
95 87
58 6
84 33
30 101
84 32
7 218
20 165
50 18
32 89
31 330
82 235
94 67
80 245
14 304
8 222
82 13
95 95
95 151
25 151
6 211
28 326
11 198
51 36
81 237
92 50
32 84
97 97
41 43
33 69
31 94
29 86
82 239
36 69
43 307
79 260
36 66
42 48
88 204
14 244
33 68
93 55
14 295
86 266
48 28
81 243
94 151
27 125
94 155
34 330
47 37
13 284
88 38
35 74
18 171
7 222
17 318
15 231
31 93
15 313
25 322
12 269
89 260
14 248
31 98
73 267
88 197
77 254
26 115
84 16
51 12
13 285
83 259
88 188
48 36
79 267
12 286
14 242
26 134
38 57
85 37
87 207
80 259
95 150
9 228
15 314
95 152
38 51
92 46
15 190
33 82
87 168
86 173
66 275
33 321
32 70
95 74
14 292
9 225
87 201
95 73
7 207
78 259
40 47
92 49
30 108
41 42
94 73
97 141
39 51
93 160
7 214
96 144
84 37
87 180
33 73
79 245
13 255
29 324
9 201
12 282
69 4
95 71
95 63
92 48
19 167
71 269
29 91
84 228
15 241
19 170
82 233
30 86
88 165
37 50
57 6
88 186
86 210
89 40
16 174
81 260
56 288
96 90
26 117
36 67
60 5
13 303
89 164
83 267
25 318
94 69
15 184
