2 158
86 162
35 45
55 276
52 289
7 149
87 159
8 211
15 263
67 45
13 125
72 233
17 62
11 114
77 201
63 260
34 38
43 301
13 77
69 42
69 18
7 150
80 236
9 139
12 130
17 64
8 157
83 81
30 320
16 265
12 88
83 67
32 26
13 251
34 17
76 202
36 44
53 281
14 239
15 304
14 241
7 160
15 261
82 54
39 315
81 240
23 324
89 229
14 229
54 290
12 125
83 72
17 61
15 235
73 237
54 277
84 85
16 268
15 321
87 126
42 324
18 321
93 226
12 77
13 122
77 180
43 302
86 118
13 120
17 314
71 21
38 12
11 118
33 25
35 318
49 288
49 291
55 4
72 227
14 243
30 45
87 155
85 167
82 61
86 109
14 246
12 79
12 132
9 254
10 101
8 160
83 84
45 6
71 34
86 129
87 121
70 24
83 64
7 145
16 280
16 270
4 184
82 51
69 37
34 40
86 134
5 181
17 323
82 78
76 214
36 43
10 214
22 49
17 321
4 183
6 178
74 247
14 319
27 322
11 96
36 320
51 285
77 191
19 55
77 197
10 136
16 283
5 188
87 143
75 217
17 308
6 203
83 92
35 16
52 290
15 279
60 268
13 76
16 292
80 241
35 44
17 315
71 31
12 131
45 296
77 198
85 101
33 34
5 166
43 303
12 332
67 46
15 229
5 179
15 328
82 65
75 212
16 296
15 66
