2 167
29 313
95 225
22 176
101 128
25 163
21 231
100 230
46 336
40 321
35 327
29 153
103 130
90 264
34 140
4 208
29 262
55 327
99 31
79 269
30 153
57 8
100 70
30 246
28 184
93 263
78 10
88 69
29 314
105 15
44 98
64 309
78 273
28 272
26 163
98 229
57 35
29 187
66 53
67 57
51 65
86 10
92 215
26 298
22 174
99 69
29 282
51 22
101 175
101 176
82 265
100 173
5 208
71 12
43 118
78 11
101 169
45 87
46 88
77 277
7 206
49 334
51 67
23 172
104 16
92 204
50 13
78 272
25 299
98 33
72 290
32 198
30 187
99 182
102 151
100 241
101 235
28 307
26 301
106 83
27 289
60 318
96 224
51 12
17 201
93 41
93 262
94 41
63 314
91 264
93 212
49 68
102 127
44 114
59 9
33 143
101 233
7 214
28 276
54 10
35 193
101 127
100 175
25 233
103 108
105 252
93 224
54 62
98 228
105 77
102 149
95 262
72 286
83 266
46 80
21 172
28 304
65 51
105 74
29 255
35 196
89 52
101 69
95 189
97 68
66 307
98 10
101 162
83 12
24 232
92 44
36 193
104 98
101 27
32 328
29 247
64 313
29 156
103 71
104 108
69 298
39 129
30 158
94 223
105 79
102 160
99 179
99 12
44 97
98 185
29 250
37 324
87 56
85 63
106 87
6 205
3 215
92 198
87 265
104 73
98 248
83 11
45 94
93 42
105 93
104 85
3 214
53 25
