2 95
23 60
58 30
22 71
23 62
66 124
34 12
51 177
31 162
73 78
22 79
52 150
28 27
54 153
47 4
61 181
63 117
51 138
55 131
24 49
53 178
61 88
63 171
57 179
61 166
34 132
26 37
4 110
73 90
67 70
59 106
35 139
59 95
25 45
59 101
60 109
36 144
62 70
34 153
25 117
31 20
36 140
60 95
30 22
10 99
23 69
35 144
61 168
17 92
64 177
34 157
6 104
61 112
30 165
24 44
62 86
35 151
61 86
51 147
3 109
55 130
64 89
61 65
28 26
34 137
62 131
14 115
71 77
70 70
53 13
77 82
22 67
37 7
58 131
34 126
61 165
34 13
57 28
65 131
34 133
67 127
27 31
33 157
54 19
59 41
60 130
50 147
49 7
25 37
14 95
11 97
50 9
55 179
24 41
23 67
48 3
