2 146
13 174
64 147
14 160
14 148
9 85
30 32
33 22
17 204
64 260
28 272
4 90
21 83
5 88
14 149
13 161
26 57
67 77
48 8
59 267
66 81
39 7
47 10
59 126
21 245
20 83
69 73
63 144
14 128
63 304
61 175
26 54
65 304
20 239
27 56
13 141
68 75
11 122
70 279
58 236
41 282
68 76
64 155
62 163
53 16
69 75
63 255
28 50
37 14
17 202
56 265
64 159
62 101
9 82
61 66
30 276
15 74
57 229
59 129
27 267
42 5
63 256
13 147
57 220
11 115
17 209
26 268
12 109
14 166
60 117
52 14
14 137
60 124
13 78
15 76
63 91
28 47
63 95
58 241
12 175
24 260
44 6
47 290
13 165
10 117
59 48
23 251
33 280
47 288
54 26
15 199
16 197
64 304
15 75
17 231
63 92
64 152
20 94
44 8
26 53
43 5
56 267
20 89
45 280
14 170
58 219
60 180
49 292
62 255
11 120
18 218
37 285
70 80
60 61
60 247
31 32
62 93
57 226
63 142
21 247
17 74
14 173
29 43
25 65
63 147
43 3
64 262
16 206
64 263
20 238
23 98
25 259
17 230
13 171
22 253
54 20
10 119
63 259
19 74
62 161
21 248
18 103
17 221
18 211
74 291
73 296
42 277
