2 161
75 280
82 208
15 35
65 114
82 232
67 132
13 44
44 34
17 107
78 302
32 222
60 84
66 119
64 140
12 79
36 17
83 220
32 220
44 32
67 94
78 170
30 14
20 109
41 26
21 8
45 272
81 309
17 117
80 189
22 11
13 148
15 97
14 63
25 191
52 64
83 228
62 97
66 123
20 175
83 225
14 122
80 269
11 138
74 328
43 30
80 258
82 316
70 280
76 291
79 156
82 236
59 82
55 312
14 59
15 63
14 150
2 82
61 96
42 30
77 91
77 325
13 149
12 143
81 196
14 30
16 98
13 152
74 87
14 85
64 91
71 105
43 33
55 317
24 6
26 195
14 151
36 18
54 295
19 176
55 289
82 319
11 140
5 79
16 160
74 286
65 119
82 224
66 79
54 299
70 104
79 166
16 96
35 236
71 101
54 294
79 164
14 64
81 180
10 8
26 196
15 36
45 270
13 51
39 20
19 110
81 185
17 171
61 74
72 280
54 311
18 108
14 95
65 98
56 282
45 268
81 182
31 14
79 163
67 330
37 17
67 133
38 20
18 16
80 305
19 112
18 169
17 161
74 288
78 169
12 129
68 99
36 242
81 316
60 73
38 21
46 271
64 329
33 225
72 146
80 183
65 91
63 100
31 219
82 205
45 35
43 32
81 204
14 61
14 51
48 280
73 284
80 197
81 198
11 143
11 12
60 75
58 72
81 175
63 87
70 144
23 9
