2 153
25 151
25 149
66 270
64 37
87 133
98 176
58 282
59 280
22 154
104 180
77 232
24 203
62 47
90 124
35 72
90 140
28 10
99 174
40 66
16 106
93 122
29 237
39 266
104 168
61 279
23 199
19 189
32 246
92 110
9 196
36 71
93 189
92 119
15 196
29 6
75 235
87 209
91 125
62 276
23 184
71 65
23 174
25 143
9 150
39 30
21 123
67 30
61 45
65 4
37 70
39 267
51 6
87 130
62 46
17 108
72 14
69 7
63 56
90 145
46 38
94 118
10 155
5 194
71 13
89 122
37 69
87 84
29 239
26 215
90 117
89 171
24 201
16 158
87 206
41 278
29 15
28 130
42 63
80 75
50 57
74 66
31 78
89 154
95 116
34 258
90 116
23 88
26 224
26 217
45 282
38 264
24 212
88 128
25 119
52 283
98 180
40 275
80 221
90 165
17 94
103 183
33 5
13 156
24 213
96 188
32 249
87 132
41 280
89 150
102 175
62 41
68 260
87 208
66 32
14 194
35 258
23 124
48 6
70 252
23 169
74 241
17 120
85 82
76 234
56 3
86 209
20 188
24 199
46 40
94 100
90 125
21 194
28 133
62 44
13 193
90 88
68 263
33 76
63 3
14 100
21 122
96 105
21 185
17 97
90 198
100 178
94 117
90 154
67 266
71 11
102 176
23 177
40 268
