2 135
51 267
56 275
34 271
62 171
41 233
32 45
28 179
13 59
41 244
13 60
45 234
33 48
49 186
19 126
32 290
42 241
12 55
33 185
13 72
40 219
42 238
30 277
68 164
28 28
28 287
42 239
3 170
14 105
52 138
46 112
18 148
20 178
14 97
18 126
15 117
48 202
47 259
49 98
16 6
30 39
49 100
15 32
12 86
48 201
46 226
35 269
50 98
30 180
15 114
13 90
48 181
49 292
16 106
13 47
12 107
69 163
25 17
58 279
13 4
12 58
49 90
34 182
46 238
7 163
41 231
41 254
53 178
46 254
33 183
13 107
13 104
27 282
48 117
29 37
46 233
13 85
15 176
25 178
46 117
37 194
12 48
17 117
31 42
10 175
48 200
41 257
29 36
35 192
29 32
50 92
48 131
69 162
19 141
53 141
14 109
38 72
46 111
24 14
36 60
61 171
45 106
48 115
28 178
18 142
55 273
11 91
65 149
4 167
11 175
52 269
35 293
42 250
13 94
8 162
66 150
13 11
17 5
48 113
35 292
11 154
56 274
49 181
47 199
27 27
37 72
40 258
38 201
37 68
47 87
62 170
54 289
55 176
38 199
27 24
14 66
