2 149
82 211
28 72
17 119
56 252
22 170
83 106
66 290
54 231
54 247
41 12
63 128
60 36
85 118
59 286
19 214
34 38
61 215
23 292
53 9
14 119
59 285
53 12
25 273
65 88
11 100
22 163
76 211
61 39
13 195
65 181
58 285
22 137
62 133
62 164
69 291
68 185
62 145
16 191
8 103
57 24
77 98
83 111
42 273
62 154
66 271
62 142
56 217
34 237
10 111
23 123
64 65
66 91
24 217
32 56
63 147
67 276
21 292
64 221
29 257
73 95
43 272
21 123
70 188
63 122
63 133
54 250
53 233
41 10
26 81
38 280
21 172
23 136
63 160
25 86
62 171
29 69
88 116
28 288
70 187
82 106
76 193
34 243
22 176
20 121
75 194
7 107
76 196
64 220
63 168
63 49
64 112
64 66
21 214
41 17
68 214
10 101
40 13
54 237
66 218
65 270
58 26
87 115
54 233
25 290
64 68
21 150
32 49
30 61
25 269
69 280
21 282
31 229
80 210
54 235
53 226
14 193
23 278
9 204
85 119
25 90
21 96
64 56
82 110
3 107
65 219
84 105
53 246
63 267
62 165
22 280
27 70
15 99
64 290
79 211
81 211
65 76
39 24
28 73
18 212
27 261
20 178
25 218
64 60
20 122
62 218
63 54
6 107
14 99
35 245
