2 146
63 278
80 179
60 283
19 117
73 134
34 287
75 84
76 101
23 73
22 198
2 173
68 193
34 39
74 75
85 171
24 93
60 7
41 18
38 31
30 56
31 57
74 43
48 9
72 189
79 144
16 101
76 185
53 6
17 100
73 130
83 110
16 108
21 110
57 250
51 288
30 259
38 235
29 260
20 113
54 233
19 118
54 247
75 143
50 287
71 142
19 195
20 84
60 9
54 231
24 275
75 93
62 269
87 162
37 225
19 196
8 183
88 164
23 112
58 285
61 281
65 16
74 77
36 34
83 175
38 238
13 192
40 20
23 116
37 235
74 124
74 146
23 198
38 233
75 73
25 132
40 288
25 144
30 59
54 6
37 227
18 100
68 21
12 158
67 194
54 244
75 61
38 30
25 86
61 283
4 170
76 62
58 255
76 117
51 7
65 17
56 251
30 207
38 229
37 244
61 280
76 63
20 124
45 11
70 144
20 120
20 114
3 169
83 113
32 251
18 84
76 150
46 11
76 92
23 87
26 269
61 9
25 88
19 133
75 154
69 193
83 176
72 141
27 68
56 214
32 210
56 6
37 221
55 221
71 150
53 287
77 146
20 121
56 4
54 222
28 66
76 51
4 178
28 260
43 15
42 18
80 146
38 227
3 177
73 138
73 136
37 234
