2 149
46 140
206 310
107 227
32 52
64 122
46 145
117 255
58 106
72 143
175 299
21 21
115 254
26 82
181 296
105 242
111 231
16 43
73 146
177 294
121 247
59 179
146 273
45 138
184 304
65 128
65 201
20 13
42 75
90 199
45 142
88 218
75 212
30 44
82 178
15 3
212 298
51 157
106 242
174 291
77 212
193 301
220 305
218 315
100 213
30 47
188 299
81 218
83 174
33 107
194 302
152 285
99 213
80 168
80 215
12 3
160 285
117 256
147 273
24 80
55 100
79 215
48 150
126 254
49 88
78 161
33 108
220 306
184 299
199 303
209 314
9 18
85 181
45 80
50 151
183 302
166 294
13 31
14 35
103 218
17 5
33 105
151 285
182 296
87 189
201 304
119 243
68 131
27 86
163 286
152 278
85 217
67 129
61 176
95 228
102 237
71 142
84 183
53 97
86 181
39 71
57 107
65 123
114 237
62 193
193 303
28 41
206 311
108 245
19 8
144 271
190 305
19 11
56 104
207 312
67 131
80 170
85 182
82 179
209 301
33 110
202 306
46 83
59 180
86 188
123 262
130 258
211 300
144 279
78 158
42 77
161 284
20 62
168 289
145 274
13 29
71 208
75 155
77 159
58 183
42 129
78 163
39 122
90 198
87 217
137 274
15 43
218 302
21 71
31 103
