2 167
74 203
26 91
33 240
27 103
32 220
100 325
40 204
75 260
85 125
52 46
27 100
42 207
95 224
22 244
62 285
75 271
76 275
51 39
51 310
93 230
90 217
56 332
47 339
61 290
73 180
17 125
59 70
89 142
22 162
85 293
18 156
65 323
78 115
45 26
93 221
49 311
52 43
28 30
113 319
75 255
21 160
55 51
6 139
73 185
40 208
85 238
33 164
29 22
57 266
23 161
108 330
27 91
112 330
27 54
30 18
74 257
77 278
31 222
71 165
87 296
60 72
88 217
75 114
96 225
27 85
43 326
97 325
34 216
27 45
28 116
65 102
56 258
74 114
76 206
29 25
55 334
94 299
83 145
99 325
56 56
72 171
51 41
55 56
27 38
28 31
54 50
26 56
89 322
37 241
72 185
88 216
15 157
41 201
53 335
26 160
3 139
61 76
92 298
41 337
39 210
73 175
90 138
27 94
115 325
38 13
72 163
13 151
54 335
72 154
75 259
96 227
60 80
29 117
26 71
33 218
98 326
42 331
86 214
19 246
64 99
55 260
33 219
27 71
67 110
27 59
11 149
53 250
54 51
78 283
74 270
104 310
95 223
47 249
95 324
75 264
80 144
41 19
104 328
16 153
48 316
74 202
47 29
77 281
16 157
114 330
56 257
35 9
97 226
17 156
85 120
27 92
61 83
64 100
84 128
28 25
33 168
63 87
72 183
72 174
34 176
116 325
59 295
8 133
40 201
74 204
27 73
97 324
