2 184
166 39
25 162
9 328
9 315
45 170
20 96
104 15
30 119
30 264
75 51
24 81
29 128
187 65
65 90
26 72
19 96
26 142
18 310
66 84
58 35
12 306
40 216
12 282
55 40
162 28
22 200
166 30
22 292
17 232
21 198
183 57
22 91
15 292
145 16
193 58
43 191
20 302
69 66
126 6
188 68
209 72
30 265
19 304
41 206
42 50
43 189
35 239
31 66
199 60
19 214
31 264
137 11
26 152
188 74
167 32
49 142
20 303
47 158
14 284
26 154
159 25
132 9
31 117
78 49
98 5
98 18
4 329
159 24
20 300
184 50
192 58
204 82
42 192
63 95
50 127
14 289
11 266
66 82
52 44
163 30
162 36
18 232
18 311
48 153
9 318
71 20
46 165
17 236
188 69
72 58
48 149
57 38
56 37
41 200
37 236
97 21
11 312
25 75
13 298
28 69
13 279
184 48
96 22
16 317
106 15
43 182
30 270
198 60
12 329
166 31
41 207
21 106
134 19
18 221
28 273
46 160
16 236
174 47
43 187
28 126
123 14
98 19
29 123
12 277
179 43
170 35
38 219
170 43
26 75
28 274
86 37
31 263
92 7
11 272
49 129
91 30
144 14
20 211
15 252
161 26
69 68
27 72
11 271
43 180
99 4
68 72
120 6
25 154
105 4
189 72
27 111
33 253
178 53
207 64
26 281
189 63
23 180
207 74
134 20
175 40
94 27
20 104
38 55
30 123
10 309
11 268
173 46
200 61
29 113
10 263
48 142
18 235
67 75
22 184
95 25
45 53
39 219
19 228
25 153
39 218
23 81
11 265
11 264
55 110
