2 212
149 215
109 191
118 128
124 119
110 33
149 211
118 212
40 16
69 91
108 172
122 207
6 227
92 118
108 184
94 68
54 53
120 113
66 74
97 59
107 172
112 226
4 221
20 241
40 19
29 120
44 29
96 326
74 21
115 8
8 205
135 232
16 173
115 220
82 20
92 121
110 190
41 21
93 122
33 151
110 226
97 11
117 138
9 206
49 97
125 206
45 256
118 123
32 130
30 159
105 151
130 206
73 20
60 61
109 223
50 97
116 140
50 267
117 124
111 229
34 153
126 248
120 209
31 127
12 232
108 295
32 158
111 259
27 166
106 307
110 32
114 223
8 208
66 107
106 301
90 91
64 104
49 263
108 100
129 248
109 216
5 212
102 156
69 81
141 209
48 262
142 208
64 300
123 117
105 166
151 214
52 49
122 133
115 250
140 239
89 102
44 6
28 167
142 224
110 276
10 231
45 32
36 144
67 97
39 146
119 102
6 202
4 204
53 273
9 208
107 179
145 238
30 156
28 164
90 97
130 246
65 299
7 231
107 300
120 134
25 241
111 102
28 165
80 21
102 50
30 125
82 328
32 131
110 262
38 5
64 106
64 67
95 329
40 6
137 241
105 316
91 116
10 199
103 47
6 228
11 198
97 112
89 103
48 261
106 306
37 5
66 104
57 285
25 162
118 117
109 209
40 15
22 234
109 220
3 220
109 189
124 249
105 43
17 180
12 181
112 144
28 122
90 82
96 113
52 272
107 301
132 245
101 103
65 72
89 100
136 246
109 197
109 204
69 89
61 11
107 284
63 294
63 105
68 82
39 13
110 102
71 311
61 291
7 202
109 271
74 20
6 221
88 94
97 106
39 147
143 208
59 96
46 258
18 174
38 148
89 83
109 183
103 321
23 172
43 25
136 234
139 208
111 260
104 321
110 215
57 95
85 329
104 313
36 247
108 177
125 129
95 123
102 158
