2 171
45 61
72 234
50 164
73 233
25 109
148 185
119 203
28 105
59 183
140 188
48 52
50 242
199 170
173 71
169 60
38 93
153 42
28 137
39 90
182 145
63 32
86 197
86 228
89 226
119 233
46 58
132 29
192 127
46 56
61 182
139 230
141 32
81 195
57 176
103 6
160 48
129 193
175 80
48 54
26 107
194 168
19 117
134 223
183 110
75 232
48 161
103 226
14 146
124 22
39 91
172 128
133 28
54 245
185 154
58 37
48 249
174 75
22 114
64 186
138 232
42 67
63 238
6 141
201 163
41 145
53 171
55 245
122 207
88 7
93 226
176 86
128 215
171 155
144 246
67 237
53 47
47 161
124 209
118 196
125 238
120 235
80 14
190 105
32 100
151 183
171 131
192 166
13 128
68 236
200 163
39 141
60 183
182 144
77 231
195 130
183 146
70 190
138 230
157 173
198 142
142 187
190 96
56 228
46 61
19 144
127 214
170 160
85 198
190 165
44 151
59 180
42 73
200 149
198 141
147 183
8 137
178 90
128 194
124 23
56 176
200 145
117 233
17 119
111 228
72 21
164 167
159 172
53 46
53 45
75 19
137 243
67 216
60 240
112 197
65 238
76 206
158 176
17 121
184 94
134 225
183 148
196 135
99 3
42 72
49 242
77 16
37 95
35 140
57 177
24 110
183 149
52 174
71 234
143 34
48 245
70 212
93 6
197 172
70 235
43 69
11 149
166 56
39 144
178 138
26 138
143 244
132 194
199 150
188 158
38 142
9 150
