2 187
54 102
8 170
32 189
182 74
104 9
204 174
79 45
140 32
62 191
217 99
116 14
6 174
42 185
114 250
39 122
175 289
183 264
148 43
41 122
73 64
188 115
52 106
77 46
131 229
78 45
42 124
134 29
162 219
75 52
119 17
188 121
201 118
186 276
194 218
188 118
37 134
205 172
87 8
163 55
173 215
184 74
175 219
134 233
173 249
63 81
213 115
95 247
133 27
194 219
184 264
44 190
139 31
42 194
54 197
68 221
136 240
197 210
181 227
50 109
88 12
23 177
147 296
154 297
39 130
34 131
133 231
197 118
119 15
180 74
216 109
15 158
201 77
213 87
197 117
202 79
212 83
160 296
132 260
131 237
68 69
204 163
157 50
205 168
65 215
54 101
43 189
163 231
216 113
198 207
19 154
105 251
56 194
189 125
160 53
63 207
129 278
213 86
74 55
180 286
204 180
188 271
174 291
9 167
184 263
40 121
39 121
192 130
198 206
34 178
132 240
171 214
175 252
66 75
195 136
44 186
8 171
41 125
63 200
183 74
194 134
130 277
30 187
206 117
191 223
172 65
168 60
100 249
21 179
82 236
186 227
126 229
51 196
63 205
67 220
201 202
194 135
204 169
36 185
80 235
137 295
43 187
131 261
196 77
82 36
77 50
179 287
203 78
175 290
113 251
66 214
87 15
34 187
183 228
155 48
128 21
195 75
165 237
204 186
185 266
132 256
198 208
83 33
72 64
87 20
129 280
178 75
180 75
162 229
172 292
64 201
165 212
202 155
26 174
38 130
198 142
32 185
170 292
66 218
205 173
212 115
65 211
10 165
35 135
195 218
203 158
62 82
88 13
