2 187
46 173
71 325
103 152
54 320
137 328
97 93
34 238
47 173
85 40
101 132
62 8
93 74
113 102
9 163
37 103
101 244
38 73
43 38
37 87
74 258
112 102
129 203
39 52
63 331
53 327
106 229
101 101
70 326
114 232
41 49
118 286
75 19
117 129
116 320
101 127
24 144
140 325
119 129
42 217
78 271
63 298
76 273
117 130
65 329
78 270
127 111
11 160
74 17
115 319
135 309
49 187
48 209
92 60
116 101
114 130
38 77
78 23
102 258
115 191
47 22
37 105
140 322
94 71
117 106
71 12
44 30
70 243
51 197
53 202
118 105
53 8
52 204
91 58
37 110
101 242
115 231
29 141
101 250
102 252
60 333
79 26
39 65
42 239
35 165
115 230
101 251
90 55
119 194
95 90
111 278
103 232
119 223
119 321
108 316
88 310
52 331
55 320
119 106
122 323
64 236
62 298
102 243
41 50
122 322
111 188
28 168
60 250
67 7
38 64
72 248
87 45
106 172
38 66
52 335
55 4
43 39
71 282
109 186
112 130
55 316
102 146
49 13
48 180
76 19
82 317
48 181
62 6
87 312
139 318
72 282
66 239
37 100
68 328
124 220
65 5
12 152
11 154
45 33
93 73
92 66
115 129
103 121
38 106
66 238
103 314
124 296
104 228
41 48
29 166
36 105
61 243
42 37
46 171
105 313
121 105
126 108
101 135
137 327
87 46
60 9
100 121
42 168
74 254
75 276
61 300
107 179
123 220
73 324
76 272
100 126
105 229
103 144
106 176
84 315
120 195
139 321
115 104
86 43
92 68
38 127
41 47
9 155
77 322
43 36
68 241
128 299
54 325
