2 196
11 124
151 297
54 197
46 192
139 323
39 105
98 258
80 325
145 287
122 231
124 58
24 114
135 188
81 315
24 171
147 326
38 193
140 282
152 230
147 86
65 62
135 162
97 248
161 320
72 245
48 194
134 322
134 274
81 317
145 86
31 180
157 311
128 317
145 233
12 153
136 146
34 183
81 309
122 50
114 17
150 296
135 133
55 206
141 130
23 169
150 129
91 332
76 247
99 263
92 239
54 218
105 5
86 294
145 198
126 315
9 138
94 238
22 164
129 267
135 134
98 252
144 130
3 144
80 314
66 62
94 274
134 236
129 232
94 273
133 167
17 164
135 142
59 230
118 37
92 279
140 84
52 94
162 324
51 220
6 155
131 271
92 240
52 201
135 135
130 82
78 329
98 264
68 53
114 313
16 163
123 253
158 327
117 35
130 319
37 108
160 93
79 336
169 116
29 180
159 126
10 121
56 207
159 211
123 250
47 102
160 318
121 50
109 4
95 5
125 61
68 242
148 294
52 97
147 291
136 277
103 323
62 71
129 230
49 196
28 180
132 320
128 232
152 211
153 303
74 33
130 234
157 327
93 238
135 236
105 322
118 36
76 31
142 324
75 246
55 220
74 38
144 286
86 292
3 133
131 171
146 289
90 286
47 196
17 163
126 316
141 284
17 157
17 155
135 131
65 240
54 89
130 83
29 173
64 66
127 231
79 334
120 36
79 322
114 15
41 105
54 211
135 130
84 16
150 295
56 226
124 226
17 154
136 145
140 193
148 128
151 327
138 129
35 183
145 85
83 304
149 201
161 93
168 116
33 186
122 246
96 4
53 217
59 231
36 108
137 145
123 55
117 32
124 60
81 22
88 289
160 322
65 238
127 72
73 42
135 190
156 218
