2 194
23 156
55 259
121 256
114 131
4 147
69 267
7 124
120 255
85 264
85 285
122 258
29 155
129 270
112 160
133 92
93 255
94 268
154 230
150 120
50 256
10 109
88 243
28 61
121 223
10 110
22 86
99 334
77 305
42 34
156 231
4 134
144 205
153 221
89 257
73 326
114 175
121 222
87 39
127 329
82 264
111 129
91 273
4 127
107 129
125 130
157 230
146 287
118 218
40 242
142 128
103 92
38 43
64 265
38 240
120 132
36 46
80 265
131 92
142 204
33 233
27 207
115 226
83 265
114 217
118 89
83 292
26 202
119 331
88 258
3 140
83 23
84 264
132 91
31 224
5 131
142 127
158 314
4 140
140 279
111 145
90 49
28 63
124 330
92 250
78 13
7 159
90 277
147 321
82 291
145 114
94 71
76 266
26 192
137 278
113 167
97 79
3 144
91 248
29 164
11 107
28 215
135 196
42 36
52 258
122 222
111 89
130 226
45 26
142 229
117 132
72 266
41 36
22 156
156 301
126 328
88 280
151 122
5 127
56 12
120 253
116 216
49 253
146 96
100 89
89 261
96 75
97 78
127 225
5 154
149 213
160 308
113 89
87 37
122 89
4 139
57 11
82 265
76 304
151 293
91 250
113 224
98 86
158 313
34 235
133 225
98 87
113 332
143 322
146 229
114 229
26 187
148 290
141 128
149 292
157 301
70 266
109 140
82 334
21 90
95 264
19 93
87 283
27 188
82 23
66 5
132 272
116 332
73 322
86 31
16 98
146 321
152 219
145 127
134 196
97 334
141 93
99 89
93 333
20 90
103 334
33 51
40 39
81 295
48 253
124 131
89 281
109 137
148 126
90 50
33 229
131 271
132 328
88 249
29 165
