2 150
49 92
6 130
39 22
27 8
47 86
44 122
14 23
32 24
9 144
15 25
34 168
9 107
15 143
39 37
34 97
19 80
37 167
39 143
35 75
5 90
41 22
29 6
8 98
18 13
7 109
6 99
47 147
8 143
27 39
9 113
13 164
37 39
19 33
8 120
6 91
35 168
35 99
21 47
42 10
45 104
14 24
25 52
41 16
7 111
36 127
34 82
42 14
19 20
42 25
46 87
15 24
30 7
36 42
33 24
15 106
10 146
4 140
25 45
16 39
18 156
31 28
39 163
34 130
24 57
20 9
44 89
32 34
11 168
28 37
42 154
43 13
34 90
9 151
42 98
37 46
8 170
36 70
21 158
40 14
48 89
27 29
44 93
4 151
36 47
44 114
48 93
32 18
31 34
42 151
36 172
32 51
19 12
19 94
4 142
41 145
17 39
19 104
5 133
32 26
35 100
36 37
37 173
6 83
8 121
20 33
33 51
16 10
14 107
5 144
27 28
27 32
42 21
23 148
48 149
19 14
20 12
46 84
18 11
18 76
26 46
47 136
40 162
17 157
10 148
18 161
17 40
7 129
46 145
20 87
15 30
18 31
46 148
9 143
18 21
6 146
8 122
19 73
11 97
20 8
45 85
19 18
45 107
36 165
37 111
22 147
20 16
38 108
19 90
32 20
21 150
