2 172
90 157
7 205
97 300
9 139
48 282
10 188
75 306
19 104
44 249
21 175
99 303
30 224
85 314
91 159
20 170
49 6
76 251
10 139
77 273
33 318
96 222
90 161
26 57
83 280
34 33
107 116
108 101
23 72
91 169
89 142
112 203
21 83
103 309
95 120
84 89
38 237
32 321
80 253
25 67
88 116
75 266
87 284
109 328
99 323
37 309
86 115
79 310
105 91
83 281
40 239
49 249
59 3
62 308
105 97
20 104
81 279
76 268
76 42
50 279
98 302
62 307
30 328
74 31
74 261
79 254
74 304
31 321
19 108
33 230
109 193
10 131
70 303
52 252
85 283
22 87
29 223
92 291
114 202
32 319
97 299
53 275
33 331
38 327
52 318
41 16
106 319
26 62
18 119
12 122
54 273
106 328
78 275
17 119
82 250
12 156
82 312
12 155
55 3
26 170
88 133
47 321
38 302
15 157
31 326
30 329
31 324
21 111
77 44
11 147
79 66
88 139
91 319
22 79
64 8
22 216
116 114
91 290
84 282
87 90
36 308
98 180
25 66
79 65
69 16
12 185
88 128
19 107
111 195
81 69
18 163
104 315
104 326
31 38
103 324
80 64
78 273
99 90
87 130
55 270
35 28
26 60
108 93
20 102
21 93
31 227
3 200
96 176
54 269
77 39
77 272
3 198
87 236
20 113
102 311
71 21
51 278
28 52
30 326
76 267
80 312
104 97
22 82
4 201
57 313
89 230
67 304
49 319
110 104
89 234
97 120
69 14
21 167
