2 200
69 299
124 128
144 192
12 115
73 325
145 203
69 297
78 260
103 23
50 165
44 150
112 47
59 56
81 275
143 120
142 223
48 168
137 136
134 96
58 78
55 150
58 152
7 138
137 134
116 323
128 88
42 183
88 260
8 129
116 243
123 141
21 153
141 125
18 150
67 303
77 281
29 152
119 243
87 4
48 169
47 149
66 306
84 3
107 34
124 139
85 269
100 13
13 152
142 173
115 271
43 209
146 203
7 140
110 42
123 88
77 10
117 272
133 247
123 301
116 65
125 113
44 214
140 101
100 15
59 59
17 119
76 282
97 334
119 317
119 75
118 321
59 57
130 159
67 301
82 272
78 279
143 124
111 329
105 27
113 52
134 95
99 334
43 203
113 49
69 270
89 245
134 94
134 246
40 100
127 115
95 8
41 150
83 6
48 157
46 98
144 186
125 140
44 180
122 154
71 322
58 73
142 112
145 195
106 28
109 41
22 156
47 153
118 69
111 330
16 151
123 157
71 323
72 15
93 334
85 248
62 253
73 266
43 198
52 147
135 240
91 334
142 124
144 197
45 217
42 188
48 226
96 10
140 103
124 88
104 23
118 279
65 268
61 35
74 12
62 40
13 151
48 153
122 289
52 234
12 126
97 10
32 150
119 245
127 112
142 177
56 151
90 333
143 180
62 153
32 102
146 201
20 109
142 220
93 333
69 271
49 96
111 43
76 8
116 254
129 124
64 261
38 154
99 14
130 253
109 37
46 172
123 146
46 218
62 254
132 132
115 267
58 88
126 114
129 120
100 14
137 165
145 187
141 105
65 269
89 255
111 48
4 146
144 212
135 132
65 261
19 159
81 255
68 316
125 262
43 182
125 88
139 132
121 313
42 189
51 150
70 297
65 270
110 39
20 110
43 194
