2 205
59 4
103 90
34 269
95 146
113 248
85 28
19 164
23 155
120 262
109 280
8 142
105 275
22 247
35 142
43 30
80 19
16 113
17 143
114 171
123 249
124 232
107 124
91 72
122 257
119 184
60 233
77 15
52 288
17 179
18 169
17 141
55 280
103 269
30 87
57 5
108 241
36 50
123 235
31 137
31 75
120 266
17 232
18 105
42 35
118 265
18 106
15 215
90 52
48 310
15 139
56 236
52 289
124 241
49 297
120 189
89 45
122 212
50 8
115 111
94 336
63 239
86 30
18 233
105 328
110 286
109 321
31 138
92 336
105 158
115 133
8 141
67 13
94 246
120 199
31 69
121 261
31 145
36 48
90 66
30 81
114 309
95 245
18 141
97 334
111 99
15 208
99 260
112 247
107 161
16 211
115 296
94 241
17 172
103 331
96 254
30 138
16 145
37 50
57 236
55 237
71 337
43 26
102 266
51 241
93 232
17 229
74 339
22 246
15 200
24 101
16 189
115 134
90 61
17 224
31 90
81 339
94 234
94 220
90 63
122 208
96 122
111 287
117 178
121 206
122 260
8 140
121 203
99 107
95 121
22 140
18 170
123 245
30 89
120 188
16 217
115 113
21 140
81 338
99 152
124 254
15 211
93 230
50 13
94 243
30 85
94 251
124 244
86 31
118 262
49 306
94 105
110 242
7 136
116 304
93 240
114 251
63 238
67 9
54 282
68 4
35 54
17 230
93 233
16 192
53 286
114 292
115 118
114 103
19 141
79 17
95 336
24 251
116 117
71 7
18 178
29 139
18 236
9 121
94 136
32 64
97 82
17 140
93 222
101 114
95 119
29 138
93 227
71 6
115 256
108 240
44 24
106 327
65 246
16 210
64 250
66 3
78 16
37 48
91 59
16 198
93 143
94 230
6 124
118 268
109 284
