2 159
87 162
26 230
91 77
73 23
90 191
99 93
36 73
62 234
18 215
63 226
89 76
33 235
74 271
65 6
36 79
19 133
89 164
88 213
4 113
84 70
72 258
101 96
38 60
87 216
81 55
90 164
86 109
86 223
101 113
9 171
90 186
6 120
83 157
17 96
16 128
91 194
19 219
39 58
58 3
40 235
90 180
26 271
66 220
71 18
90 185
31 134
40 290
98 84
40 29
9 99
70 283
8 171
85 91
60 4
10 168
79 47
9 166
52 11
7 113
5 102
6 118
92 99
36 71
8 121
18 130
87 102
54 8
37 240
65 220
37 65
70 17
15 207
11 196
37 62
7 106
62 221
35 86
40 32
29 89
7 107
36 289
91 168
40 45
81 50
90 178
8 105
48 19
25 132
8 185
52 10
79 154
103 109
18 95
46 292
88 208
63 3
90 189
83 124
70 254
67 247
26 92
21 133
80 136
86 100
10 99
102 103
9 190
36 229
103 107
30 235
71 227
14 97
78 150
90 199
63 223
73 25
84 92
88 90
37 73
42 231
7 178
102 106
86 107
87 94
95 104
79 233
32 284
101 97
83 68
27 261
105 115
14 154
5 110
97 110
28 259
46 25
20 133
9 193
56 291
32 248
88 209
29 253
19 148
38 53
15 210
27 274
14 210
30 138
13 205
69 251
53 9
27 276
10 195
6 115
56 292
8 182
34 136
84 89
63 288
