2 207
135 151
9 110
132 54
25 190
131 212
133 271
71 223
21 128
63 199
28 181
33 221
36 160
109 212
140 205
21 126
37 163
65 36
60 45
68 21
22 135
135 72
132 250
111 294
143 155
144 199
141 80
129 156
154 119
121 214
135 76
21 69
22 194
123 213
152 158
61 20
67 264
151 119
123 23
134 268
67 265
49 44
58 19
94 298
98 298
130 278
69 207
88 10
81 293
45 225
46 66
106 207
59 38
67 246
68 32
124 24
133 178
57 38
26 156
43 224
128 38
133 257
18 100
59 21
102 298
15 125
80 16
157 129
19 144
70 215
154 115
146 157
71 221
126 29
23 197
152 91
69 273
57 216
31 221
16 124
100 6
67 247
84 296
116 292
161 141
48 62
151 122
99 298
12 109
152 108
70 281
131 274
31 67
58 214
133 166
67 260
69 205
54 46
30 67
72 286
68 253
140 81
24 84
8 96
67 201
21 77
48 64
133 64
68 266
13 100
69 31
25 84
70 239
118 14
19 131
16 113
153 125
96 3
15 138
30 222
132 155
26 180
17 137
160 138
18 127
68 27
136 150
55 19
68 261
135 171
74 288
77 11
129 211
162 143
51 221
102 8
128 33
151 89
154 126
57 51
82 15
52 45
13 81
70 283
24 190
41 65
139 185
159 137
135 169
129 164
161 147
141 180
69 272
71 284
17 112
85 296
27 150
17 128
31 176
124 26
41 224
17 102
71 215
56 52
134 68
9 111
69 206
71 212
55 53
24 202
34 167
33 157
66 203
15 105
84 13
67 18
16 109
118 230
67 257
136 169
86 296
26 185
18 133
35 66
123 237
132 64
19 143
123 214
78 11
150 119
130 46
34 168
70 212
75 289
67 261
13 128
59 211
68 243
58 49
127 159
61 44
78 291
21 129
153 110
72 13
108 296
20 90
15 115
