2 193
26 212
22 185
102 332
68 328
120 237
63 272
114 59
33 202
91 272
48 52
92 265
119 180
118 183
74 328
117 215
11 161
112 254
10 149
57 26
155 138
56 28
142 118
57 258
64 263
91 269
63 270
10 161
62 271
55 290
30 90
11 116
97 332
108 40
116 187
49 258
91 245
12 110
10 148
44 255
140 118
92 249
115 190
117 182
54 332
19 183
12 121
105 34
56 258
119 91
46 57
27 194
82 6
58 283
122 149
47 334
50 334
93 248
143 119
111 45
122 215
110 321
118 222
146 141
32 201
62 251
26 235
117 185
29 242
111 48
100 253
89 331
68 10
132 140
15 176
39 329
148 141
92 260
94 277
17 101
155 137
13 114
117 76
64 268
18 184
44 59
137 140
19 177
86 330
110 315
118 205
106 332
45 56
93 244
63 269
94 248
117 82
118 180
75 7
92 247
102 254
14 109
29 241
76 16
30 205
74 327
71 12
109 329
111 52
60 280
113 54
93 277
154 135
34 246
123 213
121 171
12 115
28 197
65 10
119 93
58 23
24 190
9 129
118 185
108 308
8 119
62 13
27 218
5 129
111 319
131 141
108 255
120 176
41 321
40 253
92 246
137 107
121 200
55 291
27 217
119 179
7 154
42 63
124 102
27 216
105 254
123 155
11 109
16 177
106 303
84 330
41 322
131 140
14 177
23 103
27 98
120 175
92 269
27 213
9 139
101 29
25 99
107 310
111 49
152 132
22 100
128 101
107 307
40 324
63 12
32 245
59 20
10 110
14 161
46 306
91 260
6 156
139 120
26 236
21 184
43 62
124 202
98 25
114 58
118 248
6 119
78 10
99 288
41 334
37 73
117 75
7 133
81 17
24 223
