2 257
48 131
46 138
65 227
166 245
155 74
90 129
189 289
74 129
112 85
142 42
83 130
84 130
151 317
172 185
173 188
178 180
114 15
155 143
155 258
107 36
112 26
41 136
93 260
85 105
184 258
109 30
104 135
170 256
167 329
145 55
123 262
138 214
168 232
27 150
95 130
187 242
164 81
36 143
185 281
170 234
123 264
105 39
105 269
154 275
148 307
143 44
153 252
60 208
120 8
35 141
143 49
139 30
155 271
193 298
103 56
171 182
70 233
60 122
178 219
153 249
179 234
128 13
127 16
140 33
175 233
103 136
190 266
180 247
112 91
65 180
57 124
54 127
74 240
182 221
165 240
52 142
165 236
51 137
192 297
164 114
195 314
147 301
167 167
160 122
111 79
147 75
143 43
99 140
148 313
166 154
72 129
156 137
53 128
110 75
184 283
57 137
170 183
186 284
110 73
174 196
186 258
108 276
96 130
137 21
110 28
188 289
108 124
103 47
111 77
62 209
144 64
165 82
156 125
14 159
76 135
150 283
108 286
143 212
181 210
112 83
110 285
130 235
155 131
76 134
127 248
177 246
161 148
169 329
178 272
184 281
106 124
106 134
168 110
179 327
171 238
72 236
151 320
58 124
177 204
177 271
150 290
110 32
48 138
145 72
105 125
94 261
131 16
173 329
189 324
178 244
173 264
156 266
73 243
39 142
109 291
77 244
60 204
186 325
77 246
153 245
119 271
107 278
172 173
175 182
80 131
85 153
174 232
137 220
149 294
119 10
147 305
163 233
74 244
175 176
121 268
147 297
182 327
113 278
147 225
153 277
175 232
62 186
176 267
104 94
155 267
42 135
50 130
176 235
180 250
87 129
156 136
90 128
64 183
188 324
155 121
152 321
33 146
178 181
104 126
95 143
165 245
175 177
138 25
80 158
96 258
109 123
196 312
62 189
122 265
180 210
63 221
129 241
166 159
25 152
73 129
174 198
87 130
61 198
192 269
146 71
98 98
163 150
78 245
106 58
155 135
118 11
31 147
183 212
114 16
62 187
86 130
136 16
150 286
167 229
108 278
88 129
165 112
163 119
178 208
185 326
171 177
62 188
10 163
148 292
111 75
56 139
152 279
180 230
107 292
165 228
180 245
167 165
194 300
103 50
155 126
175 183
33 143
