2 167
79 184
75 18
18 180
38 198
43 291
84 67
22 199
34 83
44 191
13 136
97 89
59 228
99 80
87 149
59 237
36 70
99 105
25 126
18 167
76 29
73 212
20 188
62 208
60 219
79 57
88 122
83 146
31 281
78 194
21 100
10 141
20 174
75 15
30 278
35 78
66 279
60 225
36 41
34 265
37 47
67 212
40 193
74 25
33 119
103 99
64 7
39 51
92 68
59 227
85 155
22 108
39 56
77 192
45 222
76 202
101 87
42 189
27 213
21 200
76 208
20 98
22 91
76 200
50 292
26 209
29 112
65 7
64 267
54 17
57 290
61 213
36 47
18 103
88 151
23 183
77 48
61 288
89 65
19 94
44 200
33 120
46 221
19 173
65 6
74 206
97 86
87 158
69 3
81 133
6 146
79 54
22 109
27 203
61 216
25 89
40 192
12 156
37 116
21 186
81 128
21 108
36 42
86 163
76 31
78 33
20 190
37 115
81 187
82 182
94 77
31 278
18 169
21 176
94 113
66 210
101 94
46 26
32 84
46 27
17 166
76 28
91 122
44 189
65 273
58 15
33 268
25 199
78 205
22 184
38 66
45 217
77 45
100 111
44 195
81 130
25 212
93 70
37 71
28 217
72 216
26 89
77 193
65 8
35 112
78 32
77 138
26 206
29 113
35 204
44 227
39 53
27 204
78 183
41 240
19 132
85 167
39 49
8 151
86 159
77 51
73 207
59 236
46 216
39 50
93 69
18 133
18 179
