2 220
49 77
20 137
50 27
133 208
82 128
129 43
132 239
178 36
170 33
111 38
142 95
119 215
50 70
5 127
133 201
137 87
119 212
132 205
44 70
124 118
119 241
35 78
50 130
35 70
9 104
188 72
47 78
108 280
133 26
58 65
118 208
34 54
4 120
142 96
19 93
156 34
50 40
64 6
55 54
194 62
119 227
29 76
123 115
125 41
36 80
133 187
126 73
93 10
54 51
97 282
131 226
115 48
106 154
151 85
127 111
137 106
129 75
94 126
45 73
122 229
53 67
127 134
12 98
111 278
75 126
118 211
54 16
187 38
132 211
42 77
119 209
81 128
118 198
56 15
130 27
118 274
88 128
136 84
123 116
27 138
144 36
106 155
150 38
157 82
156 33
143 28
158 84
63 119
138 41
153 36
117 274
131 244
118 46
56 54
52 23
130 73
158 33
132 165
16 137
131 162
58 58
110 34
103 20
46 78
51 43
55 51
57 73
9 135
114 48
68 118
177 80
119 202
48 72
137 105
110 163
66 114
51 44
131 231
54 76
145 35
125 39
42 56
132 76
118 203
132 222
117 244
118 242
197 57
53 72
126 130
46 65
50 131
143 30
97 133
33 77
51 130
127 112
12 136
131 30
39 73
81 4
32 76
119 214
127 74
197 51
114 176
133 200
20 136
144 78
108 157
28 138
86 7
99 278
110 164
7 109
163 85
13 98
119 225
15 136
99 136
37 56
32 78
170 34
136 37
31 137
50 62
132 226
116 49
161 34
101 275
133 210
42 57
133 206
129 28
131 235
108 29
77 130
117 192
49 129
194 47
108 156
110 165
161 83
37 57
125 122
197 50
108 30
140 97
51 67
72 125
133 172
23 91
133 189
48 69
31 77
52 66
136 31
118 224
99 17
40 82
133 80
132 220
128 32
103 271
130 44
111 166
70 122
55 127
128 141
135 31
170 83
125 31
60 61
131 167
65 5
189 40
124 110
129 149
122 111
103 144
