2 170
94 62
24 189
6 28
90 257
88 117
92 240
24 198
117 207
49 320
90 90
15 136
25 182
99 159
12 63
73 59
8 119
48 21
115 196
104 69
92 242
92 110
34 5
17 7
108 232
56 325
59 257
24 186
94 274
85 60
72 57
95 100
94 88
95 283
45 315
16 140
40 225
98 290
62 329
35 218
85 327
109 231
44 233
58 42
26 175
55 254
58 46
12 58
98 318
50 27
24 183
12 56
104 166
16 136
63 51
117 198
93 272
27 204
100 238
116 208
33 150
24 196
108 174
63 257
102 69
52 250
58 256
7 27
9 120
94 282
11 46
17 139
26 173
84 118
91 244
92 100
108 175
102 240
84 61
25 179
42 230
28 210
83 147
82 128
25 202
51 280
53 250
70 53
93 273
29 160
92 268
56 273
116 202
92 106
99 71
25 181
45 16
91 251
27 208
93 112
15 85
32 153
25 196
25 176
98 73
38 9
7 105
93 111
9 126
90 61
39 224
53 325
15 84
33 151
32 214
87 116
27 4
10 49
90 110
116 209
88 153
33 4
44 15
37 222
55 324
62 51
88 111
91 102
103 68
92 74
54 277
94 101
84 328
92 111
13 18
100 316
48 23
108 172
7 111
26 171
40 226
26 143
93 274
43 229
51 29
96 284
92 107
66 257
44 231
16 87
40 299
64 264
12 53
48 22
49 23
94 283
13 74
52 279
83 142
94 236
36 219
31 213
112 182
109 173
45 236
114 189
32 216
49 283
44 14
112 184
11 44
