2 251
67 288
52 313
98 241
83 42
86 42
35 158
92 47
111 107
114 110
34 162
99 247
13 121
51 223
86 323
119 241
75 322
98 256
99 256
106 190
110 106
64 322
81 23
41 202
53 309
74 17
131 56
33 60
124 57
118 224
35 131
139 102
21 101
40 152
89 35
120 202
90 39
100 106
35 161
120 223
106 67
99 42
38 186
10 120
137 114
40 196
118 70
71 13
83 46
109 54
106 123
80 251
6 115
95 89
113 110
120 246
81 19
94 52
96 47
115 166
120 323
35 80
94 325
115 250
50 219
99 260
98 259
64 293
119 319
32 46
86 30
15 105
36 134
21 125
84 321
117 200
114 308
101 329
85 27
107 129
123 75
31 57
114 248
69 248
93 29
110 160
117 313
32 47
119 192
68 252
93 55
109 105
40 203
48 212
10 107
115 200
102 192
64 292
92 90
109 293
43 35
109 57
4 117
82 23
69 10
15 121
105 190
134 116
81 321
75 277
121 228
47 28
102 67
83 261
94 48
120 324
23 101
94 29
99 104
47 212
118 197
109 66
122 118
127 92
7 113
115 55
114 174
61 236
109 106
32 52
120 329
5 111
80 22
104 119
103 195
57 302
114 111
106 35
111 333
40 133
63 4
80 270
105 58
90 49
58 300
68 247
35 182
108 36
104 281
61 296
112 164
56 304
118 319
116 189
114 54
61 7
112 35
114 192
34 73
93 44
88 47
87 45
119 71
108 191
41 37
62 324
69 11
32 66
36 44
76 259
118 203
101 194
36 182
127 54
65 241
34 173
119 215
43 36
38 156
36 131
97 246
54 14
24 126
138 101
97 241
113 173
121 193
103 281
139 110
51 221
106 66
78 26
132 95
115 170
88 52
111 161
95 32
94 32
97 245
100 271
82 24
108 53
98 244
82 266
122 53
104 283
41 133
110 157
119 323
75 321
118 211
50 316
78 272
62 235
128 117
97 239
84 19
17 124
93 46
77 274
97 92
86 53
33 54
101 97
120 227
119 54
66 243
38 188
108 132
45 143
112 36
113 164
115 310
55 13
93 94
102 273
39 192
101 35
35 170
121 220
49 325
52 325
109 292
117 210
108 127
101 29
74 24
3 111
34 78
84 322
92 58
121 333
