2 127
31 180
101 155
50 15
17 140
64 246
71 78
78 213
61 248
70 239
16 140
42 74
22 129
86 124
82 174
29 131
46 37
64 245
38 12
33 110
54 21
69 30
106 145
9 140
43 29
80 193
14 144
38 217
65 5
70 18
43 7
68 57
34 198
31 153
79 204
82 161
36 94
90 157
31 168
82 184
39 14
57 23
30 167
42 21
57 248
7 141
47 38
33 113
81 195
80 189
70 69
105 142
76 111
72 83
40 223
105 141
46 34
77 215
71 236
103 154
88 125
41 226
34 86
34 82
73 87
74 227
70 23
32 157
110 147
32 153
72 236
72 82
30 149
72 10
25 128
88 156
69 7
104 146
73 81
8 140
42 22
74 223
82 167
72 85
71 237
23 129
36 105
31 173
20 145
44 8
108 144
80 187
37 5
19 131
39 98
44 69
75 222
32 175
7 144
71 23
43 232
78 117
81 182
35 84
6 143
87 157
33 119
74 87
82 164
44 31
30 87
10 139
66 244
79 120
31 177
17 145
45 69
46 237
72 231
40 225
18 133
28 129
107 152
72 77
56 26
81 186
49 56
34 199
