2 144
89 89
5 111
63 220
64 207
28 36
86 76
84 196
85 64
82 157
88 180
72 33
36 16
34 285
64 217
22 59
20 77
79 55
4 112
27 33
85 203
81 206
76 265
29 30
21 175
65 10
40 14
6 101
86 105
75 136
65 13
68 234
74 256
24 53
30 211
83 201
83 204
63 9
86 71
26 206
29 146
9 90
87 77
69 228
20 184
36 18
7 91
66 213
78 51
23 133
79 119
66 206
37 264
65 207
19 66
42 245
77 131
87 184
86 72
76 268
69 239
7 92
83 195
8 121
87 93
78 274
88 171
78 280
10 89
81 155
50 217
46 220
47 217
55 4
49 288
90 88
7 119
50 221
19 129
68 232
3 107
75 43
21 181
67 230
53 288
19 68
74 39
72 214
87 185
70 291
30 28
80 119
89 94
87 169
30 145
75 45
36 19
71 241
77 132
34 19
43 243
65 208
50 222
59 290
85 199
37 19
79 153
78 53
74 142
79 120
10 127
34 279
45 8
64 218
4 97
43 223
78 47
41 288
32 137
87 175
69 291
85 198
19 72
8 117
79 123
85 106
34 22
34 278
49 217
30 142
22 169
20 71
75 149
45 9
64 290
65 12
27 133
24 192
45 223
73 258
72 251
89 167
79 129
73 37
11 88
