2 207
47 170
44 54
81 6
84 8
51 61
17 100
108 14
119 37
43 75
17 107
112 216
129 86
24 152
65 229
126 230
82 9
72 6
135 200
58 225
146 116
136 201
126 167
53 173
136 173
148 136
72 285
112 229
109 15
36 44
55 180
46 73
26 137
75 287
79 223
55 167
132 174
32 160
35 161
48 66
115 214
33 88
114 260
69 281
50 169
20 85
17 115
151 120
28 129
113 230
29 140
96 6
47 196
45 196
149 148
78 289
22 126
114 275
139 206
37 77
147 126
109 14
114 270
61 20
139 210
68 254
26 163
67 256
124 155
114 256
78 224
35 80
137 216
129 91
27 137
39 161
116 32
77 234
11 114
47 204
117 227
71 285
30 162
46 173
63 271
56 223
83 290
22 153
10 114
58 173
23 148
49 33
127 152
27 91
38 50
127 169
41 52
33 161
19 115
82 220
59 174
25 145
76 4
74 242
118 35
48 37
76 228
44 174
23 100
47 194
21 151
115 213
65 278
47 54
120 42
63 267
64 230
8 118
76 238
55 170
75 228
21 115
70 249
32 147
112 235
31 155
138 204
112 236
16 122
84 223
31 90
79 231
46 69
128 79
135 224
74 229
137 181
119 36
25 146
139 192
126 58
57 26
132 187
80 6
88 4
71 228
15 128
148 129
114 26
40 47
113 22
32 146
26 161
38 80
34 150
54 167
140 191
112 222
56 173
27 126
48 197
115 259
141 187
46 170
87 13
150 141
144 109
18 93
27 82
45 172
111 222
81 227
142 191
130 175
45 195
34 136
129 169
24 148
14 128
131 174
38 58
64 15
30 86
115 28
114 273
111 215
113 209
47 53
141 192
15 116
64 265
7 98
127 64
20 83
123 168
51 221
132 96
80 222
42 75
24 126
57 177
129 77
59 173
48 33
124 167
24 85
138 216
31 154
