2 225
54 201
115 298
56 126
151 110
134 112
124 97
101 266
111 148
83 266
115 65
83 19
65 33
104 276
115 151
114 328
117 215
36 113
58 216
130 99
121 116
52 200
51 185
51 154
70 250
139 109
119 155
62 131
125 326
60 67
18 109
137 108
122 196
46 81
113 327
116 92
138 125
107 244
107 324
21 106
100 264
133 108
121 196
47 81
60 52
35 85
123 67
64 230
122 85
122 68
139 105
122 200
138 113
60 64
135 99
120 91
46 123
111 47
59 51
112 238
119 209
135 102
123 91
106 246
100 248
80 325
36 117
83 245
136 101
60 46
51 125
57 217
49 80
116 221
108 244
125 167
43 119
63 35
24 88
46 118
147 104
130 89
87 14
123 333
51 175
83 261
78 244
138 104
122 187
114 132
66 299
64 303
75 251
40 117
134 111
59 216
113 56
115 124
111 36
122 312
107 16
135 71
79 242
45 81
66 236
13 105
102 268
111 141
61 57
116 121
56 212
55 325
113 234
113 133
160 87
66 241
46 163
134 98
120 208
122 197
117 301
86 13
112 140
123 315
47 122
122 67
101 7
75 250
135 107
108 283
122 177
76 279
41 83
132 101
110 146
49 124
132 92
38 118
46 164
153 82
61 132
119 121
67 238
50 125
130 104
52 191
129 98
62 307
125 93
106 6
108 12
95 3
141 103
73 252
141 72
92 6
121 168
109 283
47 123
25 108
116 126
139 115
81 242
116 120
112 41
94 5
119 82
123 94
116 125
59 52
27 108
55 124
121 120
116 230
162 96
47 167
125 174
76 278
20 93
106 9
118 107
65 233
59 316
59 146
118 214
115 126
49 169
105 323
121 68
101 243
77 24
112 47
122 317
118 218
51 194
122 315
162 90
121 207
51 124
115 121
125 328
156 85
107 14
26 113
138 123
113 55
126 93
46 169
85 323
91 10
29 108
60 223
55 150
119 219
58 217
115 228
52 154
116 223
61 36
130 90
123 189
45 82
37 113
136 100
61 76
117 328
