2 167
31 239
109 283
151 175
142 196
71 10
8 198
132 234
129 41
144 144
118 264
13 152
42 70
36 132
79 76
152 168
44 259
77 290
141 19
144 188
10 208
111 78
53 282
134 63
148 67
147 149
137 131
18 143
137 63
125 255
7 196
14 149
138 136
27 139
15 149
39 250
84 65
30 238
45 90
29 237
51 102
43 73
134 227
136 224
45 260
51 101
115 273
43 80
142 62
19 227
110 73
101 289
27 233
152 162
128 41
38 129
125 47
133 125
80 72
140 20
64 286
44 258
154 75
46 65
5 181
6 201
114 275
143 201
118 55
56 111
125 258
138 222
122 263
82 289
81 76
59 57
56 116
123 9
111 72
129 63
49 96
37 137
137 16
91 297
57 111
140 212
126 253
80 6
16 147
137 115
67 57
48 275
115 73
65 286
119 263
115 270
43 257
26 233
134 223
152 166
66 20
120 9
43 258
138 27
100 290
61 58
10 193
112 63
43 76
67 289
66 22
143 103
139 108
81 77
128 42
64 17
146 99
85 296
119 53
58 283
148 182
33 140
42 71
35 246
141 22
131 236
142 203
113 6
35 135
150 158
47 94
112 78
150 159
113 59
100 4
37 138
101 4
78 52
129 40
136 16
147 97
10 187
64 19
16 148
111 7
43 259
125 261
132 236
74 62
43 72
54 282
151 168
139 111
140 208
30 139
122 10
150 91
8 197
139 25
105 287
88 5
137 216
67 24
10 157
147 183
45 267
80 77
47 93
