2 123
15 79
65 280
20 17
66 269
44 19
42 13
9 264
51 226
27 4
49 272
16 45
65 84
29 219
66 277
54 276
38 263
45 25
18 257
63 78
22 251
17 47
16 42
16 60
39 263
15 67
18 154
67 278
43 13
55 174
22 14
15 129
51 216
52 194
19 179
12 112
21 194
21 204
17 31
21 193
15 71
58 150
20 185
51 218
65 265
17 139
59 258
50 46
27 245
17 257
45 268
19 180
16 77
16 67
65 267
30 227
29 267
43 265
57 279
17 55
60 280
51 273
52 184
61 260
66 125
20 23
17 156
69 100
55 168
66 85
68 273
59 66
16 48
69 274
60 281
16 74
19 255
27 210
45 19
67 124
15 76
55 167
23 13
16 81
47 233
61 140
16 125
21 201
59 148
20 196
52 197
20 184
43 266
12 277
46 27
17 30
49 44
14 94
29 214
16 58
52 212
39 264
53 275
47 37
63 138
12 102
66 87
14 274
61 142
15 84
29 218
55 169
22 11
52 218
52 49
53 246
58 157
25 247
69 98
40 8
13 107
48 236
17 50
66 276
