2 104
44 82
7 135
5 123
50 59
13 32
17 98
32 4
12 32
46 53
32 123
28 190
18 17
20 134
36 94
47 121
26 160
41 48
43 127
28 196
26 5
17 180
6 83
26 4
28 127
29 193
14 59
15 89
14 190
39 33
26 144
26 198
14 60
25 198
28 180
32 124
33 125
39 12
20 141
13 53
27 136
20 158
26 162
13 90
27 142
3 76
12 91
19 166
21 3
16 27
14 197
28 129
29 121
10 108
3 72
28 130
18 177
20 3
41 89
28 131
20 157
40 29
26 173
20 14
26 177
13 47
15 192
19 151
3 80
46 74
43 50
6 132
13 44
40 45
26 153
26 157
19 201
26 143
15 187
46 121
46 20
37 89
15 191
36 15
22 10
28 193
44 126
22 7
15 28
26 164
19 154
14 29
21 201
11 64
5 79
41 41
4 67
17 91
18 201
8 133
40 35
38 14
41 102
21 4
18 200
