2 224
41 206
38 193
111 96
86 309
114 171
41 207
37 22
133 89
137 82
40 179
140 91
91 263
128 200
45 157
30 45
104 163
40 183
116 163
104 159
38 22
111 61
89 252
51 229
126 67
45 170
87 295
39 19
131 79
101 60
104 71
110 64
115 66
66 6
128 293
131 86
113 109
122 171
124 241
90 261
110 150
128 196
44 171
123 166
126 70
117 275
124 182
86 310
88 246
134 71
78 33
126 230
28 71
108 85
111 157
115 61
62 17
37 27
105 64
109 238
47 10
112 70
40 21
87 291
25 112
29 51
121 329
63 244
108 249
107 237
112 127
106 165
129 83
106 329
108 83
35 57
89 285
27 72
129 206
40 202
116 155
108 243
107 59
54 231
112 135
90 51
102 60
126 81
133 86
107 67
88 287
7 127
139 85
121 169
121 75
115 243
85 46
115 60
109 167
86 245
118 68
62 242
114 113
49 222
31 40
45 215
65 3
110 259
27 160
134 325
108 248
123 283
113 130
130 84
125 85
142 93
128 216
39 184
132 69
5 130
70 17
127 226
108 246
137 85
114 112
27 159
87 246
114 172
19 117
116 161
133 310
26 157
44 211
59 243
105 163
124 68
112 66
96 58
127 69
123 64
56 8
90 278
90 251
129 326
12 122
117 274
107 156
50 165
121 328
8 144
48 221
25 158
135 323
26 84
126 173
113 327
109 65
46 9
7 129
108 242
142 73
12 157
125 65
109 85
130 208
111 138
111 98
33 59
109 145
28 84
122 178
28 92
127 231
57 11
110 328
64 244
29 50
38 192
92 265
123 247
22 158
111 240
75 28
37 158
128 220
21 154
89 250
85 311
40 178
110 144
86 308
20 158
111 68
116 162
91 55
135 69
4 136
139 73
115 270
45 169
28 87
87 46
42 208
118 164
123 180
103 161
32 159
97 59
133 325
48 157
123 244
113 160
48 9
107 239
71 20
49 8
109 258
85 315
89 329
29 65
135 70
108 82
129 67
107 246
96 334
