2 207
130 157
172 89
177 10
92 155
31 291
42 208
83 173
152 14
124 162
41 188
89 58
12 304
159 13
134 154
97 29
91 32
33 242
176 86
136 18
174 77
55 217
27 257
165 93
175 79
77 193
66 198
42 247
40 177
93 35
48 236
146 11
81 80
176 62
74 103
57 212
162 9
5 288
126 19
79 88
172 77
181 60
30 253
172 109
143 17
178 59
81 81
174 117
54 138
38 182
45 190
49 232
139 154
100 158
73 57
174 66
172 90
49 159
85 70
55 132
173 53
50 126
180 15
36 229
40 174
51 131
133 18
40 256
42 212
62 203
76 49
27 296
149 148
150 15
4 288
174 34
17 303
171 123
54 136
93 155
4 292
59 120
79 190
123 158
109 23
78 89
173 51
46 93
64 198
41 168
171 120
173 80
149 15
164 96
43 165
122 161
98 157
182 43
53 127
154 144
174 25
5 297
132 159
180 59
171 89
88 66
145 13
38 268
57 152
166 126
176 59
143 15
146 5
83 60
89 160
125 24
11 304
65 70
41 170
81 44
172 103
176 81
78 63
56 152
138 155
154 7
178 70
175 116
174 61
179 44
178 30
74 52
42 171
51 159
86 71
95 30
73 103
37 177
103 160
172 11
90 58
172 105
169 91
42 166
169 123
38 269
146 6
75 98
177 35
26 295
111 25
167 97
110 160
81 183
93 34
52 125
49 234
80 185
54 132
87 69
82 42
42 249
181 67
173 110
59 139
79 46
81 179
116 161
180 41
144 149
76 95
34 239
43 208
14 270
52 126
132 16
182 66
153 11
168 94
175 115
65 197
116 26
75 97
3 294
145 147
100 162
170 88
131 155
23 299
142 17
101 159
69 65
38 223
52 130
146 13
125 159
5 301
40 168
173 78
82 179
180 74
45 94
172 87
56 138
74 66
76 50
56 215
63 73
