2 147
68 101
60 144
32 133
38 60
64 151
43 137
42 114
28 111
70 103
44 116
68 66
64 148
91 178
68 133
75 114
32 67
56 133
31 113
70 55
65 127
21 143
37 52
58 4
42 118
30 157
12 173
42 126
78 167
63 53
31 126
78 166
38 47
32 79
76 113
64 44
60 124
31 70
36 68
65 57
7 180
60 143
29 111
62 32
32 106
59 5
43 133
38 57
39 58
70 132
88 176
71 143
4 181
28 52
58 141
41 112
48 132
68 53
59 9
10 177
71 104
40 37
44 133
7 181
28 108
34 101
63 45
88 175
61 141
21 142
83 172
72 161
36 84
69 128
70 143
33 78
32 64
84 170
58 21
69 129
21 139
56 132
68 157
38 97
29 132
67 57
37 55
58 20
69 140
63 126
29 54
71 107
46 4
39 68
95 179
39 62
22 142
74 160
69 76
60 25
31 85
40 34
40 32
68 105
64 57
35 69
29 105
77 113
30 156
24 160
74 111
69 75
87 174
95 180
31 72
41 119
69 81
59 119
24 143
57 14
64 39
66 58
8 177
95 181
80 117
81 170
30 108
44 23
38 126
46 8
32 152
44 137
69 138
32 77
58 130
71 52
61 30
33 60
59 120
32 76
31 75
31 103
38 48
71 106
37 53
75 164
5 180
45 17
