2 202
12 88
202 270
196 264
29 43
20 61
39 212
163 317
132 294
26 202
137 272
118 257
135 279
173 314
53 18
102 248
134 289
195 75
84 241
219 111
109 253
47 38
141 259
148 33
142 23
59 10
223 166
222 172
27 199
44 30
202 84
59 11
140 262
22 57
130 254
40 35
206 284
41 30
149 34
48 22
41 35
227 144
133 304
198 266
165 51
200 210
49 25
5 151
176 55
9 170
27 54
117 22
224 145
222 164
23 57
10 87
6 112
101 10
111 252
226 142
132 296
21 199
199 295
3 161
31 204
5 129
193 303
143 18
35 40
209 194
203 205
49 219
48 35
138 265
214 99
211 94
218 110
55 24
7 116
54 15
112 16
192 262
58 18
204 86
62 11
219 177
71 233
191 223
42 212
131 253
148 27
145 22
38 33
216 104
194 218
201 207
65 231
44 24
42 29
195 217
74 235
47 20
11 174
29 44
155 44
43 25
205 87
112 254
139 258
82 241
223 165
225 156
200 208
227 132
112 252
149 35
132 293
196 299
150 26
189 225
154 43
78 239
49 18
201 83
133 287
187 229
214 98
220 114
134 282
12 176
25 200
91 246
184 254
203 85
145 316
4 158
161 317
134 286
89 244
186 256
195 219
139 255
9 104
132 290
112 251
56 14
22 198
66 16
200 269
154 317
10 96
135 308
31 43
84 5
226 129
221 164
213 97
44 215
68 12
224 157
206 282
191 304
22 197
46 24
60 226
36 210
83 240
186 308
125 23
41 33
155 34
189 226
40 211
136 272
219 174
148 316
103 249
207 201
90 5
10 170
152 44
133 290
89 245
179 310
134 284
206 202
4 153
45 22
226 128
218 180
134 20
13 179
99 11
12 177
62 13
33 207
39 33
225 153
70 232
190 225
193 302
166 50
143 22
