2 192
15 45
76 263
90 329
123 295
108 16
164 162
17 186
151 211
13 53
11 39
21 48
157 188
20 29
145 227
141 232
74 259
78 301
18 30
22 23
41 223
152 211
27 22
107 15
81 275
9 140
129 60
78 316
14 175
35 21
120 31
44 13
61 245
100 330
143 229
28 19
26 40
61 246
9 141
10 167
12 39
120 275
46 12
132 251
119 273
114 25
24 200
38 18
124 300
45 228
144 226
163 138
9 46
37 21
9 158
163 164
111 20
118 31
118 277
26 37
17 187
8 108
19 55
155 107
144 65
84 324
136 57
24 44
79 319
68 253
158 118
16 84
147 67
157 194
48 230
164 131
155 104
11 102
137 55
35 25
53 239
10 165
77 265
19 76
80 294
18 53
24 20
151 90
151 94
119 278
140 55
8 122
39 220
47 11
66 250
16 82
29 19
146 75
19 32
159 117
118 325
67 12
9 115
64 249
137 64
165 145
119 280
90 328
44 228
30 29
120 285
151 87
40 222
133 59
35 214
81 274
110 328
8 157
163 157
24 27
135 58
8 123
18 78
136 42
23 40
32 26
166 144
78 299
101 7
162 173
37 20
119 279
46 15
13 43
143 50
25 44
49 12
119 322
17 183
161 170
12 170
126 32
119 272
15 40
147 75
122 31
149 220
120 282
98 330
132 249
128 61
40 21
161 128
28 38
112 328
116 29
138 56
9 156
21 20
93 329
155 101
78 317
118 276
57 242
160 183
37 217
12 94
5 46
151 214
106 13
147 74
151 213
22 31
76 265
29 207
42 15
144 50
139 237
81 292
79 298
115 326
140 233
8 136
74 12
159 113
66 252
145 66
29 21
50 15
120 271
151 91
57 11
163 152
