2 183
24 284
17 259
51 131
41 307
52 99
83 326
47 169
70 323
52 101
15 59
105 323
12 75
47 232
48 236
54 88
19 43
4 114
10 89
12 74
138 193
45 210
81 327
93 326
84 327
148 219
153 276
94 326
148 290
153 235
51 49
6 195
52 107
128 255
14 56
112 321
47 234
153 267
49 46
149 223
145 296
4 111
28 293
27 292
13 78
31 299
45 206
50 147
127 314
4 129
149 216
28 291
45 203
153 272
7 194
8 216
4 130
46 229
49 163
125 271
51 250
117 283
12 245
45 188
51 134
50 127
103 324
123 188
154 235
129 232
84 292
54 78
129 233
126 221
47 182
124 200
33 24
128 226
51 138
47 181
44 34
148 216
5 155
154 270
153 278
20 43
6 191
6 184
8 97
11 245
7 216
148 217
123 187
18 266
12 81
14 69
94 325
155 243
7 101
146 293
81 293
130 244
154 257
48 241
154 264
51 137
144 203
4 108
155 246
56 264
153 232
52 125
71 285
126 263
52 102
38 308
61 274
151 227
6 101
147 209
7 159
77 290
123 194
81 326
123 208
148 221
11 243
6 171
101 324
5 105
46 39
144 296
114 320
105 324
5 171
7 192
47 315
56 267
7 185
141 300
154 237
41 308
6 214
47 173
96 325
51 247
59 271
7 203
51 253
14 254
129 247
24 37
150 282
7 184
139 194
154 253
54 80
9 226
48 315
155 257
95 293
118 283
55 78
44 204
130 249
27 293
30 25
82 292
6 204
8 98
148 287
95 325
128 186
153 279
47 229
142 299
45 212
73 326
27 32
46 230
4 113
8 221
148 214
65 323
