2 97
34 168
28 219
32 62
35 115
34 147
34 155
9 43
16 203
19 8
27 218
18 9
36 73
32 189
8 14
28 38
32 196
34 185
12 152
7 127
5 111
15 193
34 128
9 42
25 30
30 9
33 185
34 104
30 47
15 7
5 81
4 115
14 158
9 41
7 11
9 28
29 215
5 75
8 151
31 210
4 97
6 126
5 113
6 59
8 145
33 174
34 169
8 147
33 100
7 51
6 113
30 6
9 37
7 131
37 81
15 192
14 24
7 145
36 77
24 30
34 154
14 153
33 105
24 24
14 25
31 199
35 74
5 114
5 66
10 151
7 9
25 23
13 156
6 140
32 194
17 205
34 178
31 201
17 196
5 106
4 5
18 220
26 225
35 108
30 11
13 152
30 46
26 222
6 90
25 5
33 163
30 12
4 88
30 8
7 135
29 4
28 16
32 204
