2 126
26 148
31 144
76 71
59 211
60 230
76 130
29 26
33 231
11 100
72 114
66 54
67 144
19 65
69 145
62 175
69 108
23 102
55 194
59 209
12 74
63 174
66 164
77 128
37 229
50 230
75 64
59 176
14 136
70 155
46 14
32 15
32 210
71 143
23 166
38 192
69 55
57 199
40 228
72 55
22 176
13 121
13 118
75 63
27 182
67 90
66 142
60 212
26 36
39 228
61 218
46 228
24 44
7 99
54 183
37 9
67 162
12 100
76 121
25 34
34 10
56 199
65 100
27 158
24 43
76 127
30 19
54 17
61 40
54 186
57 24
28 26
14 135
58 202
31 231
20 99
67 75
65 95
68 72
29 23
58 209
21 60
14 116
5 84
52 229
46 12
74 119
73 140
55 18
55 195
67 51
21 54
62 227
52 5
68 153
29 219
68 159
73 55
37 180
22 100
75 65
62 223
76 129
77 127
58 205
58 232
57 25
47 13
67 72
43 11
26 183
51 11
53 16
44 13
57 197
68 67
67 87
49 8
21 56
68 160
57 203
67 92
17 67
75 61
57 206
62 39
59 32
