2 130
89 222
28 25
89 236
93 260
8 149
116 226
93 36
115 226
108 210
151 172
148 120
5 83
117 258
154 154
127 252
128 199
32 9
90 28
113 205
4 126
128 81
8 66
119 202
19 187
50 220
113 220
62 14
153 158
13 175
6 80
137 95
120 235
7 75
4 87
117 203
128 83
144 187
104 262
95 262
5 126
123 201
88 223
12 52
68 20
4 90
4 102
91 30
87 216
139 103
90 242
7 146
106 261
143 113
8 142
109 205
63 221
96 43
150 130
9 161
7 74
7 140
123 75
64 16
82 217
9 64
139 102
40 4
71 221
69 20
90 233
115 225
107 262
124 246
4 124
4 115
90 252
108 56
39 213
89 230
113 221
153 167
9 66
154 162
116 259
9 162
7 79
114 61
27 29
11 166
79 219
88 217
109 208
127 200
146 182
133 90
112 59
32 208
23 194
6 79
16 183
6 133
59 222
89 223
149 126
137 96
151 174
3 122
37 7
5 95
68 221
61 222
129 84
53 219
14 175
31 15
137 192
29 21
11 59
154 164
35 7
129 198
154 148
117 66
81 22
150 173
152 135
29 23
126 78
144 112
79 218
