2 191
158 298
109 94
21 150
111 77
115 99
8 219
77 101
77 90
57 340
183 166
11 235
6 207
168 146
105 9
66 106
18 155
186 227
115 66
72 11
129 352
116 64
47 126
105 384
87 8
143 325
69 63
189 214
110 84
107 381
146 320
168 145
16 261
114 67
161 304
129 110
29 139
118 54
103 384
64 44
70 66
75 84
74 82
11 165
148 318
58 117
90 8
5 201
189 180
9 226
109 10
73 355
5 197
121 46
130 348
83 368
140 332
5 203
53 119
15 160
167 144
57 118
11 236
9 172
144 327
82 364
143 122
67 349
126 35
54 335
21 151
22 276
10 238
125 37
160 137
63 41
73 78
109 99
124 358
32 304
29 141
174 153
187 222
15 263
156 135
124 37
86 8
9 218
117 59
117 99
30 297
153 132
115 13
176 277
167 295
141 330
120 48
137 115
182 161
27 290
134 114
144 326
175 152
117 370
155 312
11 237
134 113
114 66
133 113
35 309
11 243
134 343
56 117
14 259
6 206
43 128
157 309
179 269
55 337
48 330
78 95
10 172
180 158
189 174
6 196
184 164
29 138
37 308
111 81
61 17
97 8
113 375
184 171
129 107
91 8
116 15
14 246
53 334
189 196
55 119
76 91
73 11
94 8
117 55
77 357
121 16
184 168
180 269
5 188
150 317
6 216
69 65
131 109
164 140
81 365
166 144
91 375
177 152
115 63
85 9
115 100
39 313
14 163
60 113
67 348
6 213
44 325
10 231
9 234
56 336
125 34
169 294
50 124
127 30
176 155
14 165
151 315
26 142
93 377
7 212
63 112
187 205
66 54
153 314
116 370
131 347
186 225
5 187
9 175
31 138
182 162
70 12
