2 130
15 215
6 176
7 186
73 51
53 3
64 4
33 84
15 126
74 57
110 198
76 30
116 144
36 75
111 199
116 169
104 217
87 267
111 126
5 173
91 85
83 73
6 158
38 71
87 81
77 281
38 253
26 102
7 153
23 106
40 257
116 177
110 204
75 35
6 161
31 90
27 97
115 176
13 208
90 86
109 227
22 228
110 126
8 149
78 23
5 163
112 132
22 110
44 42
114 186
40 6
33 248
19 224
111 130
37 76
52 270
12 140
48 59
91 88
46 5
103 113
84 272
14 131
118 158
6 184
35 252
41 23
61 282
73 59
78 26
109 228
78 280
95 245
111 129
72 287
86 268
6 178
74 46
7 154
15 130
15 217
102 218
9 144
44 39
61 284
40 22
117 166
90 252
41 259
88 83
61 286
16 124
95 96
5 179
5 158
4 174
11 201
110 225
79 20
28 236
81 9
102 232
36 253
92 249
74 59
16 218
79 19
117 144
93 248
48 5
52 273
82 72
42 259
38 255
96 240
74 41
109 207
11 139
68 4
40 24
106 120
80 16
106 229
69 3
47 57
47 61
22 229
104 114
7 157
118 146
27 95
