2 180
162 177
108 47
56 42
125 130
168 222
26 268
128 136
155 288
127 333
50 25
167 223
84 377
106 55
77 18
151 262
49 21
24 161
17 171
104 67
152 256
110 370
128 327
108 9
167 228
13 237
154 286
16 240
116 16
135 313
10 224
147 275
114 108
172 199
138 150
141 292
103 74
123 125
114 23
69 92
167 225
101 13
66 351
8 214
115 110
23 159
64 62
27 273
62 59
103 68
163 178
155 168
107 53
156 288
162 237
115 113
38 295
169 184
94 371
21 163
113 26
172 189
96 383
94 15
100 85
130 321
58 12
57 40
105 380
166 180
51 29
113 30
7 210
76 16
143 301
68 78
115 16
139 303
54 115
115 21
152 293
122 344
79 365
57 338
108 374
70 86
18 169
108 46
25 264
45 311
73 16
49 126
139 285
65 69
138 149
22 258
40 299
134 310
19 168
173 205
61 344
33 145
120 121
90 375
41 135
141 283
135 308
109 99
52 329
162 174
18 246
44 310
51 26
65 66
130 324
37 292
76 361
82 373
160 241
114 111
118 120
163 234
49 323
66 72
104 68
104 58
55 10
133 316
29 275
7 204
173 190
133 317
143 290
47 318
29 151
17 245
56 39
59 50
120 351
127 331
87 375
131 322
34 287
167 180
143 289
162 176
68 76
116 6
66 15
154 290
111 34
104 94
8 192
21 255
57 41
69 79
81 17
84 374
114 19
140 303
70 356
50 123
172 207
43 132
40 136
96 375
160 239
42 303
107 49
100 13
13 236
141 291
96 14
147 287
120 122
44 312
27 272
7 211
27 154
118 354
47 128
