2 137
35 55
35 256
77 57
33 111
34 279
22 128
67 163
61 206
83 131
66 44
61 221
66 172
36 73
37 175
35 61
56 246
30 275
33 112
32 156
65 230
70 144
61 220
56 12
68 151
33 284
37 249
31 274
66 46
40 268
43 234
37 19
69 80
34 54
32 272
78 260
67 234
12 134
33 101
34 39
29 151
66 166
74 121
70 66
44 224
70 109
33 156
71 54
34 91
40 10
68 161
37 251
42 207
35 263
33 282
37 169
27 148
77 137
68 192
37 170
43 233
34 86
44 222
41 195
34 61
31 120
69 151
36 256
70 263
68 72
78 275
69 74
34 58
71 93
60 27
38 181
68 76
32 111
34 83
54 9
34 261
35 66
35 99
82 128
74 67
40 198
69 192
34 87
38 176
44 230
69 262
31 282
77 58
34 260
63 205
33 279
69 88
39 186
25 126
39 11
43 228
66 258
45 260
44 209
69 77
32 117
63 204
66 49
71 97
46 259
74 56
44 218
32 284
76 253
71 94
39 182
74 120
64 36
32 265
68 178
32 115
39 189
62 223
75 137
35 161
69 139
86 133
39 190
70 85
77 271
28 123
30 279
6 142
43 5
45 222
39 10
70 114
28 151
