2 123
49 99
42 5
62 5
18 101
85 29
85 84
60 40
20 23
59 91
27 101
60 29
87 79
30 42
6 53
39 6
36 15
63 95
33 98
78 87
29 37
44 97
13 38
54 104
16 45
35 22
38 10
22 93
56 101
64 96
65 106
56 31
58 4
16 24
10 30
84 78
39 23
36 25
52 11
29 22
52 21
85 83
17 45
28 90
63 87
7 49
26 100
22 107
28 55
71 89
52 94
37 93
66 101
60 31
71 97
37 9
43 93
25 108
26 107
23 40
64 20
27 90
84 77
63 61
60 7
53 25
69 89
11 40
40 80
57 30
43 91
54 89
51 5
47 97
56 89
29 58
65 98
9 29
38 104
7 47
39 92
63 101
77 21
76 20
63 51
71 81
54 100
64 63
64 69
35 15
66 87
52 17
30 41
16 46
51 14
33 108
63 35
41 4
37 24
64 55
67 104
85 28
25 38
20 106
41 90
68 83
74 78
42 93
61 42
52 16
65 71
84 83
37 105
32 104
11 31
8 46
49 5
53 93
76 77
28 22
11 56
14 50
8 43
26 111
