2 171
34 224
51 240
38 34
146 105
6 156
55 14
89 247
89 245
95 244
11 80
144 106
18 63
138 191
56 243
137 77
135 198
5 118
3 134
61 10
117 59
126 47
11 85
4 146
141 96
147 120
145 109
32 41
102 242
135 75
39 232
130 51
75 4
70 306
113 237
47 240
56 14
19 204
30 223
58 11
67 8
22 51
59 271
7 112
131 57
63 304
7 167
122 56
143 102
130 208
113 233
34 227
98 274
6 161
42 30
7 173
35 36
7 93
10 174
14 193
116 228
101 281
5 132
11 185
53 242
41 28
8 99
45 24
6 127
71 6
79 4
129 51
21 210
104 17
28 46
112 234
110 236
145 148
17 64
141 177
117 41
11 179
93 302
52 241
60 11
108 22
26 49
28 44
71 306
60 271
36 32
119 57
144 156
72 306
50 241
6 137
139 188
136 71
90 251
11 197
54 296
108 238
96 10
61 247
136 74
107 239
148 134
100 242
34 38
86 305
134 194
123 219
134 69
29 44
6 151
3 136
73 306
129 207
5 154
16 200
105 287
55 288
77 307
108 20
15 196
122 43
126 214
58 14
147 150
75 5
60 272
19 201
89 243
106 292
39 32
8 170
18 206
132 199
10 177
4 140
80 306
119 224
100 300
82 4
20 55
130 209
7 152
14 192
142 96
23 52
134 199
142 93
92 257
39 33
141 94
6 106
91 258
5 153
103 242
112 37
91 244
58 277
133 71
122 218
143 179
10 186
35 37
45 236
148 127
8 176
102 241
104 241
