2 139
37 287
38 270
57 254
24 128
67 214
59 203
59 214
59 194
14 181
26 125
40 48
5 164
54 161
9 172
7 154
20 199
42 76
60 209
43 275
54 57
55 51
59 193
20 220
12 148
56 241
31 141
44 275
37 8
53 71
43 87
8 150
20 219
18 189
39 278
42 74
57 20
54 162
42 66
57 28
55 249
56 178
52 102
35 13
38 38
58 230
53 62
40 280
24 129
38 8
38 271
6 156
52 111
53 6
59 201
45 286
4 155
37 10
56 115
59 211
61 121
43 83
59 117
38 276
58 18
52 109
31 143
55 261
62 134
35 18
56 164
19 191
29 103
41 53
28 104
39 50
63 123
53 272
50 281
22 239
25 132
54 155
60 218
21 197
68 216
59 200
62 131
57 180
52 93
56 40
44 94
59 255
53 259
38 284
19 226
46 284
39 6
58 139
57 21
42 271
62 125
52 92
68 217
52 103
21 221
19 211
55 35
58 20
59 210
55 165
34 269
9 173
52 79
56 243
58 22
13 148
55 44
58 186
40 49
43 84
5 161
56 33
26 107
31 263
43 76
20 211
41 4
7 150
27 108
8 169
39 271
31 144
37 38
42 79
62 133
25 122
57 142
24 121
24 147
26 124
