2 159
61 336
7 267
87 271
68 69
79 138
67 42
89 274
68 38
112 333
76 137
66 114
67 177
21 107
56 16
5 231
89 272
52 28
97 349
78 245
105 339
13 159
106 339
17 128
38 46
76 119
68 12
50 309
16 134
25 96
114 325
67 23
68 102
101 297
64 195
64 340
67 71
72 167
67 38
14 186
4 239
15 185
79 147
18 214
65 214
32 79
68 40
83 259
54 315
80 249
14 150
65 204
17 214
7 226
91 351
14 181
69 346
42 308
14 175
64 219
9 224
65 196
27 295
85 264
14 160
68 47
76 242
43 35
115 308
64 202
23 104
12 219
14 155
115 310
69 19
54 25
68 13
75 155
3 254
17 283
65 219
66 54
89 352
16 283
3 247
68 176
73 162
8 272
66 187
78 149
88 291
17 204
89 282
55 20
4 241
109 337
29 86
18 209
56 18
65 216
64 222
76 127
18 207
13 163
95 295
67 49
83 256
16 133
68 343
18 213
22 290
66 111
66 53
14 142
78 141
54 20
21 111
6 229
74 160
104 343
66 35
68 83
77 155
66 177
20 288
67 122
67 50
66 184
5 230
68 171
28 85
13 149
52 308
92 350
73 117
53 23
59 332
78 133
90 352
17 201
66 11
67 11
80 120
13 164
35 68
87 352
44 35
49 38
68 80
115 313
73 164
111 303
14 149
14 170
77 119
53 24
15 140
111 337
65 193
22 106
