2 120
70 10
72 9
85 205
14 60
5 52
103 189
15 49
95 38
38 5
96 41
80 45
41 4
14 56
104 133
60 21
9 29
7 59
11 69
67 25
104 128
98 49
105 110
27 26
105 129
79 14
10 26
15 51
85 191
105 152
87 85
96 215
5 38
85 21
98 44
27 25
101 58
15 59
28 25
78 39
6 49
16 65
104 157
83 118
14 53
103 84
73 11
5 41
104 116
82 162
105 114
6 40
83 51
98 208
101 75
43 18
48 19
86 200
102 202
85 204
88 91
105 185
104 145
88 92
103 199
87 198
87 216
101 65
52 4
104 124
80 41
13 22
7 57
104 119
87 102
73 30
100 56
92 219
82 142
94 219
54 5
14 55
62 21
8 62
82 47
105 134
5 40
32 23
105 124
104 185
6 42
105 162
105 146
35 22
84 175
98 48
86 70
21 30
9 63
104 153
104 152
104 191
65 8
15 67
83 137
105 164
84 119
33 6
100 52
105 172
83 182
104 149
102 204
105 109
103 80
87 86
37 6
88 89
20 13
76 12
82 144
