2 160
8 237
52 97
147 26
90 52
70 76
133 296
133 56
21 289
9 196
166 213
136 283
102 18
40 324
55 95
139 58
104 36
64 82
87 344
154 98
44 110
168 163
163 226
10 188
155 104
146 79
148 82
126 6
130 8
145 21
79 348
146 274
146 272
35 125
146 271
49 333
165 141
66 344
83 60
13 177
129 289
86 58
11 190
8 233
104 44
36 124
167 152
13 269
145 275
62 84
150 89
128 7
102 334
114 314
164 138
100 47
170 170
109 10
146 77
165 212
70 75
137 283
122 302
129 8
148 270
133 53
91 341
21 154
147 31
13 270
163 123
168 151
18 283
58 93
152 95
74 68
161 242
169 174
26 302
131 56
163 227
134 54
52 335
162 233
9 256
169 189
137 10
120 303
161 118
135 52
149 85
12 261
60 89
75 66
105 41
8 255
8 228
13 178
11 258
166 205
121 302
103 332
103 33
163 224
114 312
123 302
44 112
155 260
38 118
170 174
109 322
102 31
9 201
27 139
19 163
166 144
18 282
167 144
38 119
49 334
143 70
146 31
162 125
103 38
84 347
102 47
12 186
8 235
36 122
109 323
104 16
58 91
60 340
146 35
165 216
67 80
8 251
109 11
164 217
29 132
90 51
45 108
16 170
168 186
136 55
106 331
157 253
43 112
59 92
9 197
38 320
9 244
24 146
168 168
72 70
169 147
63 342
169 195
169 179
25 297
168 205
