2 118
18 4
4 279
13 148
36 49
8 74
18 196
12 263
8 235
36 181
10 26
41 87
9 104
13 268
36 220
11 159
11 125
33 161
4 254
41 132
12 136
7 61
9 230
6 244
7 66
6 168
36 158
12 274
32 26
58 76
13 215
9 28
9 23
7 245
37 201
7 71
40 112
11 173
40 208
41 216
8 68
11 18
44 138
9 102
37 49
42 213
6 245
11 126
6 249
3 259
40 110
40 90
8 111
11 222
42 143
15 206
58 77
11 13
12 148
43 212
20 251
41 150
42 145
38 179
15 209
33 197
3 277
46 63
23 13
3 253
8 47
6 243
40 130
35 167
36 50
45 136
3 262
7 85
36 159
8 75
10 125
8 42
14 261
38 172
36 47
40 150
32 191
21 248
40 124
19 191
20 190
41 92
4 169
13 272
42 215
57 72
36 169
9 116
58 74
32 227
3 263
42 209
13 264
4 251
42 144
25 14
12 8
8 233
4 256
19 188
14 212
12 9
36 202
12 273
4 275
4 272
35 199
57 74
20 249
