2 257
53 161
60 311
69 42
125 124
88 301
55 238
112 84
113 83
28 55
110 164
113 82
55 159
24 12
113 68
60 107
126 123
113 34
60 166
49 156
52 247
14 60
89 308
64 270
69 287
104 248
134 132
113 39
40 173
105 248
14 57
133 135
56 233
19 24
98 218
14 142
56 49
64 70
51 163
57 45
45 52
101 185
18 14
112 65
87 327
93 4
44 36
55 156
52 254
69 85
88 298
11 62
22 13
63 217
63 38
59 165
52 249
112 88
62 49
52 34
34 169
131 141
70 329
63 45
65 215
88 293
68 90
61 48
45 110
27 125
22 57
52 50
100 259
45 35
62 74
99 198
59 108
43 156
42 111
22 58
62 44
62 35
21 55
31 122
88 25
62 170
128 152
43 51
68 33
44 53
121 161
113 121
37 180
23 133
86 274
51 185
66 297
67 52
66 126
60 172
27 129
49 157
55 36
67 53
56 146
102 238
21 12
104 249
63 48
64 177
87 14
87 299
67 184
60 66
103 255
66 80
76 329
67 83
65 121
58 229
87 290
45 158
61 37
3 64
60 222
44 177
68 49
67 124
60 326
109 15
67 129
103 11
100 190
63 58
87 12
66 137
18 54
62 176
113 64
133 139
113 76
111 55
40 118
66 184
48 47
47 152
54 182
110 32
65 93
48 52
59 36
48 171
112 61
41 162
69 203
97 212
25 19
57 156
101 234
56 105
100 8
103 252
18 56
113 56
132 141
114 77
68 53
104 251
110 39
47 52
114 32
68 208
62 167
62 219
133 138
37 181
113 73
62 107
40 46
23 29
62 306
50 109
60 49
21 10
113 72
26 16
75 330
83 329
67 97
87 25
113 77
46 114
26 131
111 26
18 140
112 117
61 166
91 313
60 165
55 37
73 279
103 238
68 87
112 113
71 280
69 89
128 148
35 34
42 52
61 176
102 255
47 36
87 271
61 327
125 157
128 124
31 48
20 137
27 18
56 46
63 108
99 201
33 35
60 321
101 188
113 58
102 181
66 138
57 269
47 157
68 291
41 118
112 68
51 257
100 232
32 120
40 53
46 174
36 50
68 197
42 162
87 270
99 227
66 54
42 158
98 261
103 178
64 81
94 264
40 47
113 102
60 104
91 4
26 52
60 224
101 186
46 187
64 35
