2 143
185 240
59 101
94 15
161 83
71 58
154 149
77 46
93 248
74 246
138 24
56 194
41 205
158 135
66 240
124 237
188 243
93 18
150 165
143 29
60 172
181 230
98 8
186 237
156 208
160 70
169 217
52 222
189 241
86 247
131 234
59 169
158 124
57 140
46 204
58 159
54 198
44 205
159 109
89 27
43 205
152 228
57 190
58 142
88 27
151 177
65 239
174 223
67 241
119 240
79 246
63 79
135 232
31 228
186 241
34 228
185 235
118 241
159 64
115 243
131 16
142 191
44 224
150 227
157 135
92 249
151 178
157 229
154 47
58 123
166 232
175 223
173 234
153 155
82 40
73 55
150 177
160 85
133 220
83 247
71 245
99 246
144 203
141 193
58 135
76 47
50 226
160 230
152 227
25 212
150 168
21 215
132 222
81 39
111 6
62 239
60 92
160 98
61 89
116 7
161 87
133 18
143 202
158 134
100 7
126 12
180 229
156 51
93 249
57 129
184 234
72 59
158 132
59 178
59 165
151 40
80 246
109 245
38 227
159 106
58 139
59 104
29 227
57 112
96 12
159 59
38 206
30 227
58 109
142 194
172 220
50 202
158 210
57 185
68 66
160 94
73 244
103 247
149 228
123 238
63 82
62 83
159 112
58 163
