2 238
41 119
53 231
94 257
185 28
54 90
191 115
178 225
198 126
105 240
194 141
130 10
54 196
89 31
39 284
125 9
45 91
144 5
82 41
38 340
120 11
90 268
133 224
29 310
201 74
196 134
192 123
55 227
39 276
26 138
55 202
144 217
52 189
34 92
196 132
168 227
34 95
87 273
52 102
8 353
192 106
205 204
51 247
102 244
99 22
133 11
109 235
193 136
177 226
188 113
56 86
52 316
196 136
161 8
104 21
199 93
62 71
26 152
180 28
56 204
49 318
160 219
195 127
194 169
195 132
58 84
57 84
190 158
201 92
39 120
188 153
54 236
203 210
189 164
189 112
191 221
138 222
24 144
196 127
194 138
120 229
41 286
61 75
72 54
90 267
195 135
115 15
58 79
40 282
58 82
74 293
70 57
19 367
86 38
34 302
204 112
64 45
199 113
41 290
190 115
48 84
188 29
100 248
189 159
162 209
49 180
191 121
205 71
192 115
160 206
206 189
40 273
23 365
192 114
201 89
157 9
85 277
27 157
198 105
102 22
59 35
95 30
155 6
13 363
195 105
196 61
191 97
54 201
22 317
30 159
7 351
66 47
49 83
198 58
12 327
205 185
109 18
190 31
197 102
154 206
194 170
134 7
189 32
189 108
28 311
55 208
114 231
67 60
55 91
55 82
82 281
68 297
88 269
33 165
196 217
65 47
36 169
38 121
80 42
69 58
148 11
146 11
190 113
167 226
49 113
11 324
157 7
203 113
199 79
168 14
101 245
191 129
88 31
94 262
196 112
148 9
45 85
175 226
51 185
186 156
190 32
200 96
78 45
204 107
193 169
52 246
201 176
193 52
133 10
55 230
186 160
161 7
206 196
14 361
191 114
67 300
97 254
133 8
36 343
195 104
87 37
190 127
86 39
31 354
199 106
38 286
6 347
12 324
35 168
71 49
49 182
160 8
183 225
55 92
61 43
47 84
203 111
39 89
112 232
13 360
192 170
160 226
202 103
81 43
42 178
198 54
195 98
149 5
206 201
22 316
45 174
25 142
45 325
89 268
199 84
55 88
198 81
98 252
10 332
