2 137
99 85
87 254
36 182
59 252
23 267
40 20
71 157
15 117
48 225
49 227
98 84
72 159
105 89
62 44
48 233
39 199
100 94
64 232
66 182
63 53
65 209
42 260
63 43
49 229
23 134
85 252
26 99
69 123
49 228
68 128
6 135
79 79
55 15
27 99
42 18
68 147
80 246
30 272
59 253
27 89
27 84
5 130
69 153
4 129
58 253
88 80
5 129
44 12
28 259
82 79
69 131
35 37
79 257
72 168
30 154
26 85
71 156
69 152
65 207
53 10
84 95
28 67
47 5
27 262
65 62
65 202
37 29
39 189
42 261
36 177
106 94
65 63
50 231
68 121
25 134
69 133
27 136
41 240
57 253
68 116
28 66
69 148
26 91
41 205
69 109
83 96
27 72
73 76
41 194
85 259
68 148
62 231
62 230
68 144
62 39
35 168
54 10
56 13
64 67
31 160
68 124
39 27
75 97
44 260
62 253
63 41
107 92
66 183
69 143
23 110
26 138
31 270
18 132
94 82
45 207
20 280
65 233
82 248
60 252
99 95
69 140
40 25
58 18
36 30
83 78
30 139
72 172
30 255
63 56
84 79
87 79
60 24
36 265
64 66
68 129
70 156
65 206
