2 115
21 77
9 226
36 291
7 173
42 137
43 98
7 169
8 164
40 219
38 186
19 108
46 257
7 171
22 60
39 12
27 276
6 193
37 184
43 250
42 123
8 160
20 90
42 99
42 240
42 129
26 275
9 223
20 260
46 292
40 149
39 205
5 199
18 106
42 73
43 88
7 168
40 218
38 10
21 70
41 40
39 220
24 40
21 62
8 178
38 175
23 36
26 16
6 196
38 173
43 97
9 156
17 126
37 196
7 179
39 167
23 268
43 90
21 264
42 85
9 153
15 249
21 72
43 111
42 235
9 155
9 164
7 213
22 48
7 183
41 32
39 164
20 89
10 158
15 134
41 46
40 225
44 248
43 243
23 50
12 236
26 12
39 161
7 214
42 128
44 249
22 66
22 81
37 185
39 168
9 167
42 236
7 216
38 193
14 142
14 135
42 86
5 198
43 110
40 43
44 251
41 66
43 106
42 61
24 32
35 5
45 264
21 90
37 291
41 36
18 121
40 156
22 63
13 142
21 66
45 258
