2 199
30 175
97 143
71 8
13 154
13 168
93 96
79 292
37 337
80 266
27 172
24 395
43 182
65 345
32 350
55 55
47 320
82 270
153 116
100 98
59 351
84 46
101 343
86 64
99 330
97 328
16 400
89 320
91 90
123 121
75 9
83 41
83 243
67 17
86 248
22 369
50 257
94 224
86 71
33 346
86 62
152 117
139 105
31 354
97 180
23 147
150 109
83 287
101 97
45 98
86 68
95 196
85 54
77 292
47 216
84 315
97 178
152 118
60 37
46 95
44 326
52 263
135 118
17 170
45 190
47 86
66 17
40 132
117 99
28 393
14 396
23 371
83 45
47 229
34 346
42 114
51 266
86 247
92 95
45 189
99 233
37 141
90 208
51 361
83 244
97 151
99 232
138 105
59 39
48 241
97 147
20 378
57 47
154 116
47 323
61 348
92 219
33 177
62 348
96 188
152 113
39 184
36 379
45 201
128 119
102 340
72 4
39 373
84 274
90 213
70 9
45 281
42 329
50 76
31 384
24 148
40 136
86 63
153 117
19 401
102 339
97 182
57 303
136 119
34 343
44 112
93 97
52 266
46 98
81 311
48 228
89 319
76 10
18 402
45 106
97 227
19 399
41 131
75 306
89 242
78 309
90 84
84 54
75 299
79 267
44 192
32 384
98 151
49 240
43 180
4 163
86 61
28 358
30 174
22 370
82 36
90 320
20 398
12 169
43 112
18 383
56 53
33 386
46 213
51 262
51 315
80 262
27 361
48 242
49 272
84 48
101 344
58 43
20 399
101 345
104 130
57 305
50 362
3 162
126 102
98 233
32 386
97 172
49 84
5 161
139 106
81 31
39 179
63 24
132 119
81 312
81 255
47 230
54 65
85 65
84 56
78 335
41 175
42 116
83 273
