2 120
6 58
5 59
8 150
7 133
10 121
33 206
16 161
23 277
31 276
23 19
19 197
39 162
17 172
7 31
5 69
12 192
32 277
22 274
26 24
17 235
16 5
30 261
17 209
30 270
41 223
16 232
48 79
18 208
30 200
6 45
9 109
36 142
10 119
17 213
34 190
37 159
7 85
19 195
19 199
9 129
41 166
23 279
19 267
17 249
34 189
14 3
33 53
30 266
38 234
16 223
25 280
36 155
6 37
39 176
16 211
18 256
30 278
16 165
17 243
51 73
9 103
18 201
37 137
16 168
18 191
40 63
39 177
31 195
24 22
16 225
41 114
34 242
16 6
36 144
38 88
29 269
14 147
38 86
3 144
32 205
41 164
32 56
16 173
41 227
19 192
10 192
6 53
7 97
17 221
42 165
3 147
35 148
42 123
6 61
34 244
9 128
18 207
44 122
27 29
39 231
29 267
6 72
32 197
41 224
5 75
16 221
6 41
38 87
19 263
17 252
47 68
36 92
17 223
44 81
50 72
21 275
6 75
30 196
38 159
20 261
