2 196
56 183
60 105
20 67
9 135
17 346
35 212
47 403
29 167
78 92
120 96
48 17
67 225
109 93
18 270
92 72
105 93
31 184
32 345
14 309
37 209
20 151
42 394
47 11
60 205
28 169
44 253
58 204
71 223
60 137
19 99
61 102
37 282
90 90
35 293
29 161
72 93
21 58
30 174
14 284
30 21
20 98
44 398
19 87
111 80
22 113
40 387
61 112
27 381
38 276
19 106
18 269
81 70
33 216
32 357
28 165
20 112
22 122
70 94
29 229
22 256
54 53
116 83
63 69
100 93
43 6
27 154
32 355
32 17
53 45
22 56
31 335
42 6
37 378
60 67
25 43
97 92
29 389
26 238
87 73
103 77
15 308
15 287
41 261
61 69
33 191
29 22
21 363
54 54
19 358
71 70
14 326
38 203
37 274
25 37
20 106
84 159
56 65
15 331
121 87
110 79
24 43
51 38
83 71
14 315
20 65
35 291
56 64
61 131
55 57
29 25
51 36
30 393
15 324
54 56
52 47
41 390
37 4
91 72
30 180
70 220
48 20
21 57
17 129
101 75
23 244
60 103
15 283
79 92
18 150
32 317
61 103
32 220
68 167
29 170
27 382
31 18
21 109
27 31
39 206
22 114
32 319
57 192
111 94
42 395
20 70
19 352
25 242
91 73
61 138
33 356
35 296
48 19
32 218
66 211
14 325
74 69
23 245
116 82
32 331
53 48
22 363
45 397
37 5
19 353
61 118
18 351
36 7
61 224
60 141
28 166
31 396
64 170
35 366
19 97
31 185
36 210
35 288
29 387
32 399
9 136
24 40
38 382
47 249
26 33
38 3
56 186
35 294
65 211
21 112
24 45
46 12
14 298
67 97
73 152
37 380
33 299
