2 117
78 70
82 189
36 105
53 5
70 99
36 205
45 165
76 123
32 213
52 207
27 241
37 55
50 208
45 219
26 235
71 153
29 244
91 61
80 56
71 82
18 96
59 195
44 154
50 16
37 104
34 208
27 245
43 159
33 211
71 76
37 114
46 181
28 225
46 168
76 128
14 97
44 29
38 50
22 97
46 182
27 230
76 191
88 58
27 229
39 194
36 102
37 200
65 174
68 190
42 39
64 164
62 167
62 170
38 199
63 20
38 229
64 189
68 139
42 38
64 32
66 38
44 184
71 104
41 44
45 160
70 155
7 101
52 206
35 71
29 223
26 96
69 48
39 236
78 56
73 131
67 163
29 225
70 148
46 164
41 234
63 24
35 64
72 92
71 101
60 192
66 39
51 209
46 24
16 81
37 103
58 194
78 191
68 140
39 196
72 88
59 14
77 123
34 70
51 13
70 98
71 189
63 190
29 218
78 184
47 180
59 12
47 181
72 81
84 68
30 219
35 68
50 176
82 68
46 148
72 152
42 132
8 87
