2 117
23 229
66 85
64 103
13 88
36 144
40 178
74 54
43 163
66 47
13 77
66 92
27 69
73 113
69 146
65 99
66 77
31 197
47 23
22 72
66 71
30 202
36 182
8 88
22 224
66 75
24 220
59 6
83 61
66 82
24 243
24 70
65 150
14 75
33 190
24 219
52 191
57 161
35 185
58 168
10 79
38 142
33 64
82 72
28 239
82 60
28 207
39 44
62 127
46 202
33 66
12 88
37 122
32 93
38 120
33 154
64 152
23 227
44 171
31 230
35 103
22 241
11 89
5 82
35 58
42 35
51 12
39 132
69 191
35 61
60 11
39 178
25 219
63 128
45 204
23 71
59 172
54 5
62 134
57 163
28 209
40 39
35 104
12 77
63 154
66 32
63 126
84 65
15 75
39 159
60 14
84 64
42 165
35 59
40 176
19 74
77 120
73 52
59 160
62 132
31 228
34 64
67 69
66 184
34 62
81 59
38 123
34 149
48 17
26 212
50 196
16 74
39 213
73 69
31 68
57 169
30 201
66 194
