2 136
21 59
36 44
67 247
88 15
109 133
79 218
39 136
109 131
64 170
64 171
65 213
139 77
84 183
110 110
99 38
86 11
45 34
26 53
83 250
59 234
9 70
47 26
105 109
79 225
113 120
104 42
65 197
139 78
87 164
82 246
107 111
50 19
82 244
126 104
63 189
13 92
123 107
127 100
75 5
32 120
23 57
57 156
100 39
59 150
57 5
81 234
66 193
64 204
82 239
32 119
92 22
86 170
91 19
90 19
84 192
108 112
106 44
37 44
53 255
134 68
84 6
60 213
79 215
134 69
78 5
65 175
80 232
56 254
62 232
68 220
67 216
51 253
81 252
115 49
53 254
50 153
68 5
19 105
40 138
35 45
61 190
112 112
82 243
90 18
49 20
82 199
82 209
66 226
59 214
41 42
130 95
112 119
122 110
87 163
82 196
137 83
53 157
31 122
87 15
109 132
80 233
85 181
51 17
50 250
30 114
57 239
108 136
73 4
57 10
21 111
17 63
31 118
98 156
42 141
8 88
3 81
51 246
87 159
61 186
125 105
64 203
78 229
6 75
107 137
94 152
20 109
60 4
55 13
69 4
79 221
131 64
79 254
64 167
66 191
83 191
127 61
