2 98
16 15
32 163
31 239
38 57
17 210
27 242
35 70
30 138
9 126
31 4
4 80
39 24
24 237
28 115
19 226
33 80
37 64
10 35
34 78
19 224
29 100
32 178
32 192
16 188
32 165
18 215
39 46
4 83
11 152
38 34
17 185
7 112
18 217
21 3
30 208
32 193
33 83
9 32
18 219
33 76
12 162
39 37
5 86
40 28
33 159
16 13
29 114
31 132
30 134
10 140
16 182
16 176
36 65
33 182
31 142
21 4
33 233
5 91
11 147
38 37
7 123
3 74
35 20
17 216
20 5
4 53
32 159
37 66
33 164
4 97
18 201
11 28
31 237
33 166
31 229
7 115
33 10
25 240
37 42
31 228
16 180
32 155
32 186
33 6
29 99
28 120
27 3
28 114
12 153
4 87
6 108
7 43
9 31
13 24
37 38
5 107
4 85
13 158
