2 127
4 107
62 230
9 108
57 166
42 15
5 108
30 115
33 284
36 161
35 148
36 280
63 233
45 207
36 246
58 196
33 48
58 167
19 110
48 3
28 74
32 126
62 88
58 197
40 235
47 6
39 276
57 202
58 164
49 254
57 241
4 108
33 140
26 116
30 71
30 118
23 82
57 32
29 73
27 119
50 4
63 98
40 276
65 128
57 196
44 205
58 28
31 117
62 96
35 42
32 190
62 82
70 133
53 246
36 36
11 95
59 175
51 251
51 4
58 47
33 46
63 105
83 71
63 101
43 194
28 190
33 135
32 122
39 279
62 79
7 98
57 37
43 225
34 175
34 138
35 39
60 237
63 231
31 274
77 72
5 107
58 148
61 182
82 67
57 24
41 230
62 144
8 98
36 282
41 21
33 126
33 259
41 229
41 195
67 56
34 178
62 101
33 134
56 22
36 153
65 77
34 141
57 170
61 118
34 46
61 109
45 203
34 42
59 191
34 48
20 85
35 144
46 208
57 160
62 143
37 242
57 33
58 36
6 100
60 146
44 265
71 134
45 200
57 212
32 271
33 283
28 116
57 172
