2 110
40 200
46 167
54 117
20 68
45 194
32 215
52 141
16 215
31 129
76 66
8 82
29 116
33 139
15 223
33 212
60 75
7 76
25 195
56 30
56 23
60 196
57 28
55 193
44 7
56 27
24 199
29 117
55 106
11 240
50 163
28 190
54 180
36 35
29 111
49 5
59 80
59 74
29 95
51 162
14 71
59 87
21 232
55 116
30 158
33 213
59 188
32 54
22 86
66 53
39 25
60 49
60 69
73 57
77 61
46 3
69 66
53 159
34 166
57 121
14 72
6 83
54 127
29 112
13 231
32 60
51 11
73 66
60 80
60 189
21 237
73 58
65 67
55 127
65 52
60 70
35 44
32 142
45 195
54 18
14 243
29 189
61 49
51 134
26 225
41 199
16 221
56 102
17 216
52 132
56 153
29 113
46 170
78 62
28 100
30 65
32 58
59 189
51 138
34 146
5 78
67 55
56 107
23 235
24 201
32 216
59 123
16 220
30 109
33 48
52 136
