2 114
91 29
33 7
31 8
79 130
83 180
23 80
31 91
49 4
82 109
56 5
5 48
95 182
6 44
105 74
93 30
105 93
82 81
79 43
78 15
15 49
7 36
37 4
41 20
5 51
82 90
5 46
60 24
105 98
18 63
104 58
24 31
84 169
81 117
96 183
105 153
104 61
37 5
17 61
20 69
19 85
31 92
17 46
104 63
76 12
106 97
25 10
79 129
80 158
71 9
50 20
23 31
79 135
56 23
18 44
105 130
105 116
102 170
92 191
105 152
105 99
61 6
106 77
17 45
105 146
82 111
66 7
63 5
65 6
58 4
58 23
79 45
84 182
94 32
83 176
46 20
106 121
56 22
14 76
52 4
105 108
30 7
81 77
67 8
75 12
25 29
104 128
106 68
24 11
100 43
81 97
78 43
105 144
16 55
105 89
5 41
31 90
82 77
9 30
96 34
83 169
45 19
82 72
22 33
78 14
105 59
59 5
79 150
50 4
81 109
34 23
74 11
9 64
80 47
80 16
