2 152
36 190
143 140
93 114
37 74
35 202
142 132
87 222
73 8
58 17
99 119
78 84
129 152
60 11
48 209
78 115
53 84
112 159
46 82
121 122
103 163
36 196
143 134
95 223
135 149
39 75
67 216
42 207
39 188
55 214
76 85
109 122
14 54
111 36
52 21
46 210
59 16
55 87
90 224
85 118
39 186
83 222
65 107
98 165
4 47
68 216
13 52
50 82
106 117
63 174
54 177
4 49
6 44
141 133
90 114
112 161
80 170
68 99
97 30
142 137
141 136
71 114
131 126
98 225
124 43
97 29
70 173
37 192
107 119
137 131
74 93
49 210
99 30
130 48
114 37
68 217
76 92
39 76
48 180
89 80
99 224
63 102
102 165
69 99
110 121
101 70
72 117
23 61
107 162
50 180
79 22
141 135
39 204
71 173
107 163
80 116
9 51
131 152
72 216
58 177
17 55
75 87
115 122
110 162
107 122
76 171
135 130
55 177
59 94
91 168
105 163
140 144
63 7
106 33
14 40
72 7
79 84
98 226
45 210
49 181
85 25
130 151
57 214
54 212
116 122
114 159
109 36
72 107
73 120
67 174
143 132
94 167
117 39
93 222
73 118
76 218
83 170
125 125
42 77
40 205
108 121
87 25
83 82
35 72
30 68
53 21
100 165
96 166
103 120
108 61
7 51
95 28
67 109
