2 78
57 159
94 74
78 22
62 148
62 153
89 28
61 149
46 97
94 34
55 146
95 72
71 88
30 83
22 30
61 113
57 136
56 145
56 141
22 76
99 35
49 95
19 72
109 46
61 134
53 99
110 45
54 115
55 116
56 118
56 128
61 139
13 68
59 163
74 18
29 82
54 108
61 132
3 50
62 97
10 64
62 147
102 38
61 163
71 91
61 154
5 44
8 41
62 109
41 10
63 101
43 90
14 69
73 16
55 131
33 19
61 159
62 144
45 96
93 74
57 140
62 105
55 108
98 68
62 164
15 71
17 35
4 49
51 3
100 67
61 127
107 55
61 114
96 35
53 95
74 86
75 86
28 25
53 97
