2 115
28 84
65 103
85 145
107 62
51 202
56 194
59 121
78 148
52 224
81 94
61 189
110 31
44 11
4 51
19 72
60 122
29 21
86 161
82 94
37 94
46 216
91 86
69 236
25 82
86 90
29 87
51 102
90 18
56 103
116 37
16 69
87 161
105 66
93 84
57 105
69 117
50 198
66 100
70 139
52 225
33 90
99 24
67 144
24 80
81 93
9 32
58 227
50 197
61 230
49 213
53 102
88 17
74 142
48 201
85 149
87 160
4 46
79 12
4 41
45 98
62 126
48 10
66 108
57 115
80 135
10 32
51 222
82 171
86 148
64 129
70 140
84 143
18 71
78 245
65 185
37 93
88 18
86 163
82 155
66 235
57 107
104 28
56 112
111 59
49 215
50 202
5 56
57 188
23 24
49 198
44 98
22 77
69 140
78 95
27 84
74 141
80 152
61 3
60 191
100 24
52 102
63 146
74 171
86 162
78 243
75 143
102 27
46 215
58 230
81 164
30 87
57 110
25 23
27 83
82 158
