2 98
74 159
75 200
21 87
75 210
109 90
75 156
57 8
75 157
9 71
76 152
75 162
75 176
37 108
76 131
75 209
76 140
34 105
76 212
125 62
74 199
75 192
108 90
121 41
74 175
76 185
96 24
75 196
100 101
72 202
13 75
93 108
74 210
74 162
66 149
3 60
74 198
75 149
41 19
31 26
75 187
52 122
36 107
76 11
63 174
96 106
74 196
44 111
65 139
20 86
75 189
4 53
89 20
76 182
70 181
75 147
75 211
70 186
69 179
126 46
71 185
88 115
129 53
31 100
76 211
75 177
75 197
17 35
25 94
42 110
74 193
75 144
35 105
119 72
64 137
68 169
19 34
126 47
23 92
22 91
3 57
122 44
65 132
76 150
75 215
65 146
71 194
117 39
75 150
68 4
75 165
5 50
103 99
64 136
14 79
38 108
100 103
23 91
105 31
