2 103
40 7
43 40
62 248
58 229
7 103
44 160
8 59
46 194
5 89
8 107
38 85
40 50
35 93
38 123
39 68
47 189
68 240
26 175
43 232
67 241
17 33
44 12
39 8
42 148
70 240
32 9
22 22
44 31
7 75
29 13
23 21
32 207
34 3
37 219
9 111
45 171
26 173
49 202
51 204
17 29
32 203
39 52
12 126
30 197
39 6
43 5
52 205
47 193
62 249
37 5
71 249
47 191
39 72
27 185
8 66
8 69
24 17
53 216
26 184
38 83
36 218
64 238
48 197
5 87
17 141
54 220
17 148
58 248
44 13
37 117
71 241
50 206
12 130
5 93
27 186
38 222
46 172
35 104
72 250
14 38
51 211
53 217
39 226
45 23
6 85
6 89
17 147
37 82
37 83
26 178
37 86
41 145
63 248
37 119
40 132
6 78
77 249
41 4
43 231
12 42
45 172
28 189
66 250
