2 82
43 158
18 127
21 151
10 63
44 32
47 19
28 32
23 16
50 13
57 112
48 7
57 113
48 49
50 63
18 123
39 3
48 44
6 73
48 20
25 155
51 11
19 46
47 73
32 3
25 39
11 115
19 123
25 12
44 29
55 101
45 80
45 150
29 34
59 112
26 157
19 145
30 164
32 4
50 53
5 102
12 90
45 28
29 5
44 33
49 70
49 69
65 128
47 137
18 121
24 22
25 157
46 77
28 30
46 22
45 87
48 19
24 154
11 90
5 103
57 111
45 145
50 50
50 10
66 125
44 42
50 59
48 8
16 90
28 40
45 25
26 160
18 120
13 88
45 6
46 146
47 46
24 13
45 86
55 105
16 117
18 134
36 4
