2 82
31 155
22 56
63 68
34 127
58 152
25 160
52 125
66 68
25 161
44 5
59 44
58 88
54 161
29 145
26 27
59 94
29 146
33 137
25 96
48 135
24 161
34 130
31 120
59 52
54 22
31 119
35 130
20 59
40 4
39 149
49 138
34 134
7 74
59 80
18 162
48 137
34 131
44 150
56 34
58 111
21 165
32 122
58 40
60 47
21 88
60 66
57 110
60 65
61 66
55 147
17 78
33 138
58 110
61 166
42 4
58 163
23 40
64 164
33 129
21 158
8 68
16 63
3 74
47 135
33 12
60 59
18 61
59 91
32 155
48 134
55 116
30 119
59 84
46 152
6 70
29 19
57 35
26 103
30 144
52 19
52 124
21 52
