2 101
34 22
68 196
62 202
40 155
56 14
63 35
40 153
66 118
25 64
39 146
72 87
61 144
66 205
28 103
11 81
49 182
63 33
72 86
31 33
64 180
49 180
29 187
68 62
37 142
72 209
71 81
43 186
74 97
61 23
74 95
73 208
15 79
11 80
71 128
39 150
64 139
67 113
67 206
45 4
56 15
34 129
63 32
39 160
40 195
32 30
73 95
14 79
66 188
62 28
50 6
74 209
35 175
42 188
57 152
39 157
67 123
4 84
70 76
26 60
66 43
71 86
70 68
29 36
17 98
38 12
35 131
67 48
59 149
68 207
21 208
20 76
44 187
32 125
62 179
68 206
29 105
61 25
69 198
60 200
7 88
66 42
4 87
6 87
71 200
69 197
27 53
35 176
53 192
31 32
37 169
28 206
45 185
37 16
25 72
73 92
38 163
39 143
73 207
63 204
38 147
40 157
