2 99
19 58
55 12
30 163
4 99
75 91
17 114
17 120
49 175
51 206
76 76
24 37
72 101
8 105
76 66
57 14
48 4
19 62
18 190
58 142
26 169
20 48
72 40
71 103
35 9
56 144
75 80
62 140
34 10
16 74
20 126
3 103
30 19
56 201
76 54
17 72
46 164
75 84
77 64
51 178
45 197
26 196
74 45
48 171
74 43
62 19
19 64
46 163
22 44
59 128
19 187
19 55
21 47
20 57
76 100
41 189
54 211
71 34
76 59
16 80
52 186
29 167
18 188
56 200
14 87
56 203
29 159
25 144
57 210
29 192
15 111
39 187
2 101
46 166
54 10
77 57
15 204
13 107
27 170
33 12
38 6
57 205
81 98
79 92
53 9
21 48
57 211
25 35
17 73
43 194
72 38
52 9
17 84
57 203
18 192
77 66
62 124
7 94
75 46
72 35
