2 86
21 105
21 107
46 150
52 9
68 74
63 100
65 48
65 93
48 157
24 41
46 139
25 36
19 169
30 24
28 128
18 62
67 87
21 177
23 42
30 135
46 174
61 122
16 67
20 99
14 93
20 178
28 150
59 125
66 45
62 106
57 181
45 147
45 143
38 163
7 78
30 146
55 169
13 70
17 66
52 132
71 79
67 88
45 145
16 179
58 22
18 98
49 4
31 142
25 173
49 156
26 122
65 95
26 36
6 80
60 28
26 35
23 112
55 171
68 57
60 111
60 112
57 127
52 162
68 61
33 20
36 163
51 133
22 162
23 111
12 71
23 161
21 50
19 95
74 85
16 94
68 72
64 100
55 15
18 171
20 52
55 173
73 78
6 81
24 113
32 20
59 112
