2 116
50 202
66 115
57 38
25 26
25 219
48 12
16 108
58 159
65 87
48 13
45 9
20 136
54 24
59 224
17 66
24 28
50 208
61 164
37 238
49 16
52 23
59 41
17 61
59 155
46 239
28 205
62 133
62 167
51 19
62 230
19 47
53 213
64 75
29 210
64 132
26 23
18 69
69 121
65 110
67 240
66 89
19 57
17 102
16 140
56 33
23 222
35 238
26 196
50 199
73 127
17 87
23 221
27 20
16 91
28 208
20 243
63 128
6 132
44 239
19 243
66 103
64 73
20 43
58 224
65 90
55 240
65 95
51 193
49 198
20 140
58 160
49 204
21 39
21 36
27 211
21 148
47 239
58 240
25 175
63 183
18 67
40 238
67 238
19 228
25 27
61 165
64 126
30 11
57 35
17 75
64 131
15 239
49 202
14 141
53 26
17 99
16 72
41 3
61 145
58 155
19 58
54 26
71 124
24 30
62 48
18 243
16 81
17 233
16 138
27 240
57 33
11 117
21 137
71 134
49 208
65 84
