2 90
14 158
35 192
62 125
29 5
6 65
36 4
62 48
11 136
28 155
48 11
5 95
20 189
11 51
4 69
14 37
64 130
4 82
6 98
23 171
58 33
43 191
7 102
7 106
37 192
63 50
63 149
32 3
10 144
69 80
46 5
6 86
14 38
50 156
67 99
4 81
63 63
65 147
53 191
8 112
22 175
54 173
62 46
67 79
67 106
13 46
51 154
27 153
19 185
12 54
29 8
30 190
21 20
8 111
5 66
5 92
63 123
25 167
19 26
51 17
57 34
67 87
19 25
64 126
52 191
5 83
52 190
50 162
68 84
63 125
61 42
55 151
4 74
25 152
12 45
48 191
7 101
8 60
67 102
14 156
24 152
68 86
65 146
19 28
21 156
58 36
64 65
63 127
50 161
19 27
66 110
