2 120
65 77
64 99
24 62
60 143
60 152
23 82
66 128
57 23
59 163
65 108
23 227
31 177
48 230
65 80
48 211
28 40
31 185
22 232
77 125
48 208
26 216
28 137
64 88
49 204
58 162
24 57
27 45
48 210
11 124
22 227
30 178
35 191
24 103
62 134
21 234
32 158
74 134
23 80
13 120
22 231
30 33
60 32
32 200
65 122
30 186
64 121
28 139
69 113
56 17
25 59
52 196
32 165
6 132
10 125
21 240
34 191
4 137
56 18
81 129
35 194
81 130
66 110
60 165
40 241
62 135
29 183
24 99
62 43
31 175
30 206
23 230
55 14
62 127
33 170
67 179
61 141
30 151
60 31
22 235
62 129
48 197
41 3
28 211
73 133
31 206
7 128
30 28
38 3
30 208
64 64
63 184
79 127
49 195
25 218
25 63
55 17
31 22
44 5
49 226
25 106
63 54
63 64
32 163
35 11
46 250
32 164
63 125
23 88
32 174
67 112
65 69
31 157
34 16
32 237
49 207
65 82
26 242
62 170
28 241
23 225
