2 113
17 85
25 176
44 187
55 67
19 92
56 90
21 133
51 27
20 34
57 173
56 68
44 195
62 187
21 33
58 235
9 110
62 188
55 70
47 204
55 172
47 22
13 132
58 132
51 34
50 234
45 17
45 14
51 31
62 236
46 16
56 77
65 237
53 111
62 228
18 75
24 182
52 34
24 214
47 206
20 45
8 124
24 23
50 143
19 126
45 201
54 216
10 129
55 168
46 235
48 184
31 8
17 66
44 191
20 33
55 121
52 138
35 236
23 140
53 110
16 74
15 103
49 234
53 133
22 142
22 25
56 126
17 73
7 112
49 159
24 174
26 191
18 50
55 169
18 55
24 181
54 115
25 185
39 234
22 128
23 153
57 128
26 207
27 195
22 137
44 194
13 131
54 111
54 46
19 49
43 10
22 130
52 40
27 191
67 237
56 82
52 136
4 118
22 131
27 237
25 210
54 217
17 86
55 171
23 158
24 159
60 181
12 130
46 203
67 235
23 144
56 129
52 139
65 238
