2 116
31 172
50 11
70 172
63 138
30 159
73 127
55 184
81 126
27 143
63 57
45 4
30 173
10 107
73 126
30 153
26 135
21 74
59 40
22 58
80 125
58 170
70 157
31 167
58 32
25 124
14 126
54 186
84 121
37 199
31 160
67 155
78 167
71 124
31 16
54 196
29 24
82 126
21 122
27 34
52 16
64 141
25 38
67 154
57 226
65 69
21 79
56 175
59 206
64 63
61 51
58 33
62 53
69 119
28 148
36 181
30 19
67 84
22 62
26 38
61 173
69 106
77 168
61 228
61 52
84 125
24 122
63 60
6 112
32 228
59 205
68 118
24 125
34 11
33 11
38 3
7 112
21 77
72 159
58 37
66 126
54 190
47 222
69 118
10 108
37 3
22 86
21 85
27 142
60 41
66 228
49 222
31 171
63 148
57 173
58 168
66 89
66 99
79 172
25 132
66 220
25 125
30 158
84 120
63 139
24 230
67 119
75 165
67 223
22 54
62 57
26 139
57 201
55 199
64 65
65 78
66 127
