2 118
42 160
68 191
35 123
61 120
38 171
40 189
29 61
60 26
24 68
8 83
34 112
63 5
61 112
58 25
37 19
29 83
72 96
30 57
58 26
36 143
53 14
27 84
70 142
72 138
65 101
58 27
12 90
59 164
35 206
32 39
57 152
67 102
35 129
59 26
59 53
9 89
32 91
62 84
56 158
73 103
63 97
39 6
35 140
51 179
58 187
61 59
65 92
36 138
37 180
61 58
31 41
34 24
31 82
41 162
36 122
33 32
14 90
37 197
64 178
58 43
32 83
40 190
64 145
42 153
12 76
36 183
59 55
66 198
42 161
17 89
3 89
64 179
60 68
34 31
35 104
52 5
48 180
51 9
34 193
39 168
55 4
61 78
35 126
63 174
62 106
47 5
14 75
64 127
30 59
61 124
39 172
62 81
20 90
60 69
31 44
57 36
38 195
52 15
33 209
33 194
70 134
45 4
16 73
56 26
49 179
55 183
56 21
59 189
69 93
4 87
57 159
41 146
35 202
7 82
42 151
37 177
38 174
40 165
