2 116
20 270
19 17
4 133
13 279
20 19
11 93
17 3
16 187
19 11
16 222
20 256
16 226
20 241
22 95
20 266
24 138
20 268
20 40
23 120
16 210
21 67
16 237
12 50
22 121
23 175
12 45
22 209
23 121
25 155
24 168
24 140
14 162
15 235
20 32
16 209
25 138
22 120
11 22
20 252
22 52
23 123
15 260
20 258
22 88
11 44
20 263
6 140
16 200
22 92
14 183
8 141
19 265
12 73
15 240
15 192
21 58
12 84
20 229
11 89
21 194
15 177
22 103
20 274
22 208
12 148
23 172
20 246
24 145
15 261
21 94
10 43
20 218
15 262
20 265
19 24
20 10
12 99
21 61
24 172
12 60
21 40
15 283
11 78
11 85
11 53
22 203
12 56
14 156
25 102
25 108
21 62
14 11
24 152
10 39
19 16
21 39
12 55
15 11
21 28
21 213
22 194
21 34
20 228
10 42
16 255
22 45
21 60
15 169
20 217
24 141
21 48
15 223
15 186
12 86
4 125
19 254
