2 125
25 217
40 71
27 9
57 200
21 10
49 266
12 118
26 232
14 133
5 70
40 40
55 163
30 303
52 250
43 283
40 25
58 202
18 164
26 260
54 242
23 205
51 141
25 259
10 106
53 238
26 264
42 86
5 52
26 246
4 45
24 283
55 226
4 49
56 171
56 165
4 77
49 270
43 94
32 300
6 86
41 86
43 282
55 224
47 273
19 154
40 72
18 147
38 292
4 62
41 22
37 57
20 172
19 165
50 260
24 274
24 216
37 53
4 72
16 143
3 62
26 230
51 142
57 170
27 6
27 4
9 108
20 13
58 197
39 58
47 114
52 248
32 14
22 198
4 74
25 296
9 107
19 16
49 261
24 5
39 51
20 11
9 99
50 261
29 13
18 16
4 63
56 220
39 17
43 95
48 129
26 254
57 202
55 223
55 230
40 19
57 167
3 61
39 70
20 176
21 11
55 222
14 130
31 14
55 234
39 48
45 280
15 26
55 231
57 196
42 34
25 301
27 238
25 291
45 278
9 106
33 12
22 192
51 144
39 80
46 111
54 244
49 134
14 138
44 278
12 117
