2 113
22 217
27 80
27 91
22 225
22 23
22 145
26 72
20 257
22 211
15 177
15 189
12 57
15 263
17 260
20 276
16 242
16 244
25 268
10 111
11 60
21 5
21 249
21 203
16 210
22 185
16 188
11 91
26 89
14 167
19 275
21 137
10 82
25 115
25 102
24 39
14 266
19 3
11 80
21 15
21 196
23 20
11 73
17 259
21 157
23 131
15 27
13 46
11 94
10 86
17 240
4 127
13 271
17 234
13 47
27 64
24 268
5 147
12 51
26 111
11 88
5 151
22 146
27 78
10 76
21 7
12 45
16 207
25 49
25 58
5 155
22 207
26 73
26 113
17 224
11 110
15 210
21 194
24 132
21 174
24 41
16 231
10 78
22 193
11 82
20 154
21 4
14 268
17 275
16 209
26 100
26 115
21 214
21 12
25 51
27 87
21 172
15 26
13 270
21 185
14 180
26 94
27 66
12 54
12 107
19 276
14 42
14 182
21 18
16 263
26 63
24 36
19 257
15 25
