2 115
18 242
39 284
64 128
45 61
30 271
32 227
49 162
33 228
25 58
62 106
57 100
59 148
63 116
5 185
34 20
37 113
31 276
5 206
50 29
62 143
27 193
27 68
29 188
30 29
55 97
42 281
47 73
45 54
8 214
49 34
16 235
52 12
25 53
46 3
8 217
8 219
34 144
3 191
51 20
33 279
38 15
37 116
54 94
38 124
35 284
17 239
33 226
28 86
26 51
57 150
25 55
51 88
55 96
26 43
18 239
31 275
50 40
26 83
8 173
41 282
45 58
6 181
38 250
26 62
63 136
40 264
15 232
16 236
34 108
42 271
63 123
12 229
38 117
61 106
63 130
25 60
41 277
52 92
55 98
28 36
30 213
31 28
37 285
28 150
32 276
48 82
15 235
18 159
37 243
41 281
34 235
27 87
16 163
47 50
38 255
39 260
48 35
36 241
7 177
3 202
8 177
13 231
22 249
28 81
7 213
63 133
31 184
47 48
61 108
27 42
48 77
61 140
22 156
27 77
53 92
