2 198
82 278
78 58
103 27
47 14
105 139
104 260
17 44
67 226
86 14
93 100
66 238
73 292
16 48
85 18
89 54
95 25
86 297
81 175
82 58
50 219
46 60
103 149
49 229
113 265
66 229
64 255
9 88
91 264
67 224
33 25
107 124
70 221
109 38
60 10
85 169
108 244
58 59
112 53
9 136
90 280
92 171
18 164
37 184
78 188
10 72
10 137
21 167
41 184
6 85
66 231
8 143
85 20
52 272
68 226
69 271
49 14
76 198
12 59
16 160
11 92
60 283
106 131
68 291
49 66
47 262
50 227
23 34
124 43
42 181
91 281
106 133
89 259
41 186
101 149
85 280
17 117
65 76
123 265
92 23
50 184
111 290
89 165
101 253
114 287
9 87
94 244
10 148
7 85
14 135
56 7
83 22
47 255
46 249
15 159
30 26
39 185
102 243
112 263
65 242
49 186
63 253
56 58
95 297
50 228
115 285
103 255
64 286
66 287
103 261
95 281
18 42
11 81
88 18
108 254
102 255
71 211
18 43
87 17
51 197
88 251
118 250
62 258
12 104
52 202
12 99
101 27
41 187
51 210
64 5
17 120
50 188
93 297
63 12
92 52
105 292
123 43
73 81
107 291
78 187
22 134
10 89
36 25
52 200
65 265
45 251
80 182
57 9
63 262
105 137
10 73
63 259
102 114
16 46
11 136
31 179
107 129
47 266
60 284
72 206
46 179
106 143
83 296
24 35
78 183
108 291
89 258
99 253
89 20
96 169
56 72
10 76
97 26
41 14
90 96
101 26
107 51
46 246
64 253
19 135
8 86
101 245
61 73
121 278
101 153
61 11
45 242
103 147
83 59
93 24
82 88
10 93
75 18
45 252
100 244
94 101
52 191
8 137
109 271
