2 111
25 9
41 198
17 5
5 122
47 237
43 204
5 121
7 163
106 269
90 265
6 139
34 123
36 183
35 60
35 117
7 88
36 73
7 159
23 6
6 155
88 254
8 29
36 185
35 51
37 99
70 257
32 164
32 163
73 244
9 170
13 9
102 268
32 156
8 41
36 178
7 85
8 45
75 246
50 217
8 56
19 199
28 214
34 126
92 256
64 233
31 136
84 252
32 42
8 46
8 68
7 36
26 24
35 124
49 214
60 250
8 35
6 118
68 255
7 98
10 181
8 72
8 33
34 122
5 117
58 248
8 71
78 260
30 143
7 37
7 48
26 17
11 184
37 77
36 94
9 68
7 93
43 203
34 70
39 193
8 47
66 237
9 24
7 137
7 145
30 146
37 102
15 5
78 248
9 172
34 121
48 238
63 233
8 104
6 116
7 128
9 176
8 39
9 169
34 91
8 115
9 73
8 160
7 156
36 76
34 65
36 225
31 40
14 8
22 205
16 194
8 100
