2 166
8 137
38 164
36 299
78 249
78 248
91 233
34 125
111 127
10 191
60 242
27 129
93 32
106 107
34 114
117 207
36 77
51 26
24 207
105 140
32 127
21 93
5 139
31 216
66 8
59 255
102 164
118 195
72 4
100 58
119 153
14 196
99 56
102 71
114 146
106 293
102 287
5 138
35 298
46 277
106 113
112 139
97 47
114 133
32 107
39 61
51 24
66 7
87 237
56 236
28 144
104 81
29 179
106 137
102 168
59 239
107 132
40 228
37 67
32 148
45 235
106 133
90 236
68 7
105 101
78 239
119 196
35 87
93 272
60 245
63 299
96 43
3 139
105 187
58 12
54 20
33 123
115 142
29 175
4 138
29 173
47 300
41 46
77 8
96 228
13 139
44 300
49 238
60 11
34 176
105 144
17 95
110 120
86 262
72 297
104 84
55 262
93 33
100 178
116 146
50 29
93 35
51 299
113 193
83 13
60 251
108 110
26 210
49 300
16 138
12 134
110 121
45 42
121 201
46 279
34 220
25 208
50 26
102 78
82 236
104 102
20 203
9 137
78 250
57 256
39 57
20 202
41 230
55 17
102 73
21 140
21 132
65 7
109 118
82 235
91 298
54 299
120 197
103 77
84 257
34 110
26 91
79 238
16 97
35 152
53 19
87 16
31 217
13 133
104 289
108 215
57 14
31 177
104 91
107 190
46 237
101 283
39 62
29 145
87 298
49 236
116 151
101 167
39 290
111 193
88 298
40 289
