2 158
20 63
14 195
80 154
12 190
55 250
63 36
29 215
81 160
43 259
11 130
30 214
13 147
51 303
72 301
85 171
12 124
12 101
11 77
33 19
73 154
54 230
32 24
27 37
68 282
15 141
18 80
26 294
10 163
23 152
18 117
77 189
49 4
15 196
61 302
19 200
11 140
18 98
85 98
16 98
25 44
17 100
37 268
44 4
70 115
41 5
59 267
23 51
32 22
32 278
54 236
7 181
63 43
54 231
66 55
27 292
63 24
67 205
15 77
13 146
30 307
63 40
70 122
68 287
21 153
80 161
82 161
68 78
38 269
62 20
78 158
14 105
43 256
15 73
50 6
77 103
28 37
42 257
18 198
85 99
69 127
54 252
14 137
69 138
28 291
22 54
16 82
11 114
68 75
66 56
69 140
66 278
19 134
12 76
71 302
18 109
33 274
16 118
80 102
54 233
28 290
8 186
35 14
73 194
44 247
70 303
8 96
71 110
23 48
56 260
33 20
45 3
63 26
43 238
56 255
20 202
20 70
23 50
11 139
74 96
17 157
63 20
66 63
22 57
29 284
34 16
11 124
68 285
14 83
10 86
15 119
63 212
77 186
79 184
14 77
20 154
62 212
9 96
13 124
10 93
12 83
24 49
28 289
37 11
74 149
23 57
78 187
71 113
34 272
35 16
18 81
28 284
33 277
63 272
18 143
66 61
28 32
82 98
42 239
