2 109
83 62
66 29
63 11
36 212
35 144
74 71
37 171
52 211
74 77
12 119
28 164
33 37
58 189
69 36
82 67
80 67
83 66
79 66
4 87
34 212
67 157
74 91
75 85
47 210
43 210
74 89
54 210
82 126
21 97
61 143
26 98
37 23
68 39
61 212
17 111
7 83
46 210
4 85
29 138
38 139
73 93
45 8
32 41
60 8
33 202
28 57
29 137
62 149
24 134
60 193
54 182
66 32
27 58
32 148
81 118
40 183
31 212
80 117
74 108
64 143
17 129
71 43
75 64
75 75
62 8
39 171
72 46
8 94
18 130
57 212
74 83
69 37
81 121
72 101
60 194
49 211
63 8
59 15
64 168
62 212
27 136
18 71
65 26
32 206
74 96
74 63
42 176
75 109
33 201
54 178
27 63
22 107
39 22
35 196
58 186
63 205
13 121
74 97
63 25
66 142
36 211
57 190
74 88
41 172
20 108
36 171
33 170
35 212
38 186
