2 92
45 169
45 160
61 122
16 82
55 49
63 115
56 129
58 126
53 130
63 46
47 170
54 147
53 147
34 197
52 149
16 125
26 199
5 80
54 132
58 192
22 22
31 6
11 62
10 80
13 118
62 44
56 186
58 43
9 79
20 35
24 147
12 114
23 24
23 197
50 26
49 24
65 112
51 197
3 77
63 114
28 200
13 89
57 81
9 109
24 190
24 196
18 127
28 199
57 60
20 33
47 196
50 30
50 196
46 171
17 56
55 197
9 80
67 97
23 23
57 44
54 183
53 180
45 161
53 33
14 120
48 154
13 82
47 173
23 196
6 68
17 82
62 88
14 59
33 159
58 193
58 138
11 61
43 8
64 91
22 24
18 54
11 113
57 69
46 168
10 91
57 190
8 106
26 149
56 84
16 81
5 79
55 50
