2 97
41 184
5 43
45 65
12 56
12 65
4 84
50 104
46 159
50 128
19 12
32 209
35 7
17 20
4 91
44 173
24 176
50 121
16 5
43 58
26 7
49 139
50 107
38 208
8 77
45 52
16 28
12 73
12 57
6 105
40 184
12 48
12 62
9 41
8 127
41 39
3 83
7 127
50 138
51 50
6 109
4 86
16 8
43 193
5 108
4 103
34 4
28 207
12 40
26 185
11 67
10 146
12 64
12 53
48 151
16 163
4 90
12 147
4 100
12 150
48 92
18 168
55 52
11 147
44 65
6 117
24 175
13 153
51 109
18 15
17 19
55 50
18 6
51 116
43 90
9 132
56 47
26 177
6 121
13 43
22 197
10 138
17 12
5 100
10 139
58 55
19 6
44 64
55 53
48 145
19 16
16 161
58 53
50 137
27 7
44 71
24 200
36 19
