2 96
62 138
30 149
35 156
22 139
51 174
24 54
57 36
60 130
34 169
24 117
16 77
61 132
25 82
61 68
30 24
53 17
70 58
58 37
15 77
45 192
56 26
43 3
69 111
29 122
36 158
74 101
61 121
21 137
29 30
15 101
58 146
26 189
27 46
58 40
55 21
22 136
52 11
54 182
29 176
37 7
27 38
46 5
18 106
50 154
3 78
51 171
33 155
27 127
53 12
49 154
21 139
71 107
29 180
54 19
33 16
27 121
32 171
60 57
22 134
22 112
18 105
59 46
63 138
20 85
48 154
31 173
53 194
6 78
66 58
30 174
21 78
25 143
24 83
10 77
24 60
12 67
13 92
66 57
46 3
47 164
6 74
68 94
56 193
53 9
26 48
43 192
46 193
72 58
9 71
56 34
61 55
63 134
29 28
22 137
56 24
38 192
