2 101
69 162
44 4
74 86
76 122
68 191
46 161
47 4
60 157
21 137
9 100
79 142
66 42
35 203
55 11
44 173
29 30
49 202
45 157
29 31
76 150
13 110
21 52
3 86
64 180
40 183
27 35
71 57
75 122
35 20
71 59
19 121
78 148
11 72
63 175
37 189
37 188
5 84
18 115
63 176
73 91
80 78
31 207
61 155
74 90
70 51
70 196
64 179
39 183
41 157
38 189
5 91
9 76
34 155
35 18
36 15
35 195
44 155
62 27
45 172
12 103
25 41
68 46
4 81
70 162
39 160
61 170
71 58
77 115
50 202
35 19
54 12
31 26
29 150
36 194
5 90
35 198
73 86
42 175
22 51
18 69
37 16
42 158
25 38
36 192
66 37
61 25
58 201
63 201
79 76
72 161
64 31
36 195
38 188
7 94
80 81
20 117
47 160
8 77
77 130
75 124
26 145
