2 123
88 106
65 201
48 174
81 93
51 205
72 90
73 122
48 172
50 10
49 206
82 90
24 138
18 90
21 114
5 81
32 162
22 127
58 24
86 88
83 84
42 3
22 126
56 17
58 172
89 112
72 142
22 54
23 129
74 70
74 74
37 174
72 147
63 170
43 191
22 58
71 141
14 79
75 67
7 74
66 45
65 195
57 19
72 103
66 47
16 65
56 21
64 202
84 82
72 132
47 206
21 126
46 204
83 79
70 159
21 60
23 49
48 169
80 72
18 78
6 82
88 108
86 102
22 59
90 107
71 86
29 23
42 4
21 118
26 143
80 87
75 75
67 46
72 94
87 98
29 155
69 57
28 149
23 133
28 27
73 129
80 77
88 103
58 205
63 190
85 92
31 19
76 66
3 85
40 3
45 4
20 109
20 111
30 157
27 36
18 83
53 205
40 4
79 84
74 127
80 92
27 34
70 60
50 205
42 199
72 152
56 20
89 106
43 192
72 133
22 124
22 60
19 79
49 205
88 104
75 64
89 102
43 188
46 4
70 162
64 203
73 95
23 136
47 205
