2 117
55 189
53 183
53 6
62 136
12 122
52 6
80 113
52 182
68 87
12 76
31 31
40 179
55 179
57 7
23 69
7 93
55 193
67 52
30 36
29 40
56 196
35 180
82 67
25 179
43 4
38 193
14 74
42 7
24 106
78 126
77 58
51 5
20 71
3 84
10 78
57 200
38 224
19 73
60 220
65 139
83 65
31 180
69 173
66 92
58 146
32 207
58 144
58 15
32 143
45 4
80 114
20 97
53 179
65 47
47 225
62 137
46 226
20 172
63 33
72 161
50 225
81 123
35 22
60 21
31 220
20 98
59 221
53 186
53 5
41 184
80 121
78 58
26 155
80 124
54 5
16 98
14 114
79 109
30 215
27 101
24 137
81 65
34 144
4 89
68 52
25 61
59 147
56 179
16 132
75 103
67 156
58 223
57 10
58 17
25 95
67 69
22 108
68 76
22 70
63 35
52 5
59 139
28 43
60 219
67 57
14 115
58 179
69 172
68 72
77 108
85 67
32 206
60 135
56 192
23 137
55 6
33 148
