2 113
79 114
42 177
41 182
75 185
75 206
31 205
19 139
13 114
7 110
57 205
5 97
72 33
82 69
43 161
17 66
42 175
77 59
6 86
33 32
74 44
66 15
76 58
79 67
75 51
6 92
7 102
40 17
10 104
35 31
82 90
15 125
52 205
76 54
67 204
31 208
17 132
29 49
41 180
40 184
77 151
16 128
64 204
90 72
17 67
12 110
81 197
25 149
44 162
19 136
13 111
54 204
45 207
68 156
24 65
69 206
81 95
20 66
35 191
21 142
28 155
18 136
10 116
82 103
7 94
34 193
84 133
94 81
74 48
36 163
51 5
11 112
18 65
9 99
42 207
81 115
36 188
43 174
37 24
63 205
69 153
32 40
75 54
13 120
68 163
35 193
32 160
70 26
90 74
69 155
73 37
68 164
5 98
70 172
79 66
78 151
59 204
73 179
34 31
81 201
77 60
93 81
80 111
96 81
70 176
25 62
25 60
15 117
69 156
24 64
30 41
31 40
13 122
15 128
