2 89
5 94
12 25
30 191
27 198
17 173
4 68
5 88
12 40
29 24
13 16
34 63
21 200
6 166
24 6
16 172
38 49
22 7
6 64
19 5
33 173
23 199
33 57
15 177
5 99
5 135
6 153
40 128
38 151
33 62
12 31
29 22
33 76
40 115
5 65
14 187
6 85
12 173
38 53
11 58
11 54
37 168
38 142
39 126
33 81
39 106
40 135
33 83
11 53
8 61
5 64
30 194
35 42
5 160
40 51
31 189
16 198
27 19
40 134
5 156
4 70
13 188
38 96
29 10
39 139
40 110
5 90
34 71
12 44
30 195
34 42
36 51
39 127
6 62
14 190
4 117
12 42
4 110
25 9
34 49
4 106
5 127
6 88
10 172
4 71
37 48
38 162
33 41
34 74
13 20
