2 114
80 104
80 90
41 174
68 138
73 30
16 84
78 53
17 91
23 112
68 142
78 50
41 183
28 46
24 134
7 83
23 116
76 38
89 61
80 93
49 193
81 89
80 105
59 14
93 80
35 150
41 185
81 90
70 16
49 11
89 77
9 73
77 42
77 177
73 141
88 137
22 126
32 33
42 179
23 115
75 145
76 177
54 10
23 111
34 148
87 61
63 16
77 180
73 143
19 87
20 102
28 140
73 27
69 12
64 17
20 60
63 193
42 188
79 185
15 66
89 134
68 8
83 144
82 68
72 23
29 143
81 57
16 86
11 74
50 9
12 67
81 85
102 73
92 61
27 47
88 123
92 79
73 23
67 143
62 8
72 27
73 164
96 67
78 51
71 136
22 107
88 122
48 152
48 145
35 151
66 192
77 145
80 91
45 14
80 83
18 101
22 109
102 76
27 48
19 88
29 144
45 149
91 61
78 187
46 145
87 118
32 35
71 20
65 192
24 56
74 143
53 193
87 76
76 43
19 89
