2 91
56 160
38 149
6 70
8 107
24 29
9 109
31 137
16 53
36 4
62 92
60 181
61 191
11 121
49 192
63 109
65 135
56 194
25 32
23 40
58 47
63 59
34 7
61 155
60 53
38 172
21 45
35 9
66 132
11 118
35 196
49 17
56 34
61 184
27 25
42 4
3 100
32 192
64 152
62 108
59 158
63 113
65 138
18 137
13 127
16 133
40 157
37 150
49 16
7 66
64 89
13 56
65 118
25 30
41 6
65 121
65 134
29 20
40 163
42 192
66 135
57 160
46 9
65 141
62 107
47 12
6 103
62 110
11 116
31 195
41 4
35 182
55 29
64 129
68 73
54 30
24 30
28 144
42 3
39 168
65 140
36 176
58 46
6 78
63 83
62 59
11 119
54 29
60 49
5 84
55 163
63 115
