2 81
42 58
42 47
40 33
48 159
14 46
41 32
10 53
42 66
41 98
21 11
36 20
14 45
42 93
45 151
12 60
40 32
26 119
16 139
45 72
32 120
14 95
45 88
44 150
47 147
43 53
30 137
38 110
45 71
47 83
34 139
11 160
43 63
6 77
18 104
10 65
48 73
22 7
41 95
13 46
19 146
39 145
15 142
25 4
11 152
42 49
31 137
15 150
33 123
43 90
49 80
14 145
11 59
19 145
22 120
41 35
21 9
48 154
8 66
13 47
36 118
47 42
5 68
10 159
33 10
14 143
7 67
47 45
43 51
42 55
32 138
35 13
47 41
4 70
42 92
11 159
33 119
43 72
45 153
20 145
5 74
11 157
