2 92
45 139
21 53
56 50
19 87
5 67
17 122
57 133
31 145
46 149
25 176
14 112
47 24
60 53
24 33
31 142
43 180
20 130
34 8
57 67
44 137
55 111
22 85
70 57
54 44
48 180
64 62
54 43
25 27
21 55
68 55
26 27
17 121
12 97
58 86
37 179
45 15
51 38
47 131
22 83
57 95
55 105
55 102
57 71
44 13
45 147
28 164
45 151
28 139
15 117
14 114
42 179
38 179
63 123
32 7
13 92
10 78
22 51
11 97
60 60
52 171
13 60
31 180
52 169
51 181
13 106
39 4
12 107
51 165
24 39
56 52
62 131
42 10
17 59
65 62
44 146
20 57
28 160
48 28
56 99
66 63
53 43
41 179
52 167
69 62
44 143
4 67
56 104
22 50
44 140
18 77
36 4
43 141
