2 92
23 74
9 65
30 34
40 180
63 46
41 157
55 11
25 55
77 69
50 7
55 17
35 131
40 5
50 181
58 31
73 103
31 118
66 71
74 113
29 113
59 140
59 141
76 69
25 75
60 32
34 20
33 25
38 11
37 135
28 109
23 95
66 84
73 67
72 54
26 76
26 106
28 112
44 139
66 70
51 181
65 164
66 53
42 151
24 90
65 94
62 45
66 66
22 93
29 36
5 72
22 73
54 183
40 7
84 61
61 149
40 162
31 121
27 45
66 63
31 34
53 182
61 129
50 8
67 72
67 119
65 89
74 106
56 17
72 116
64 116
76 68
61 120
65 176
66 172
23 98
44 146
74 111
31 120
63 115
60 133
59 145
67 67
74 108
27 76
37 14
65 117
32 30
65 88
16 60
20 73
70 53
38 165
