2 103
70 114
39 193
45 173
75 140
17 98
43 183
67 158
70 32
12 60
47 155
11 75
70 46
39 199
28 42
36 153
69 174
71 179
21 56
73 196
83 64
72 97
18 95
48 163
53 203
64 142
66 156
71 91
79 130
69 172
75 124
37 153
84 65
18 108
66 155
66 157
66 158
33 146
70 172
41 202
28 39
25 51
48 160
71 90
5 70
72 76
91 72
68 141
5 63
41 185
72 192
71 106
17 57
71 58
73 198
70 111
26 46
79 64
40 186
70 177
19 112
36 151
69 29
25 49
73 194
44 15
70 102
47 13
79 129
39 194
71 95
16 79
69 31
70 103
40 196
69 118
72 182
65 201
21 118
10 62
59 201
27 41
73 141
47 153
30 36
66 152
27 46
83 80
17 58
85 137
70 50
42 202
68 19
83 81
61 3
73 86
79 128
7 63
46 153
28 136
43 159
72 187
83 63
39 21
