2 134
34 53
5 96
69 250
6 91
49 251
32 182
77 226
88 145
77 24
74 201
51 9
8 91
46 250
83 247
93 111
70 251
78 228
94 154
71 5
87 60
89 143
44 25
43 251
23 150
75 185
77 249
92 99
32 61
45 231
23 112
38 197
23 143
30 180
70 6
89 144
97 96
77 224
32 181
74 188
25 159
22 142
50 214
75 187
40 32
91 73
20 80
103 102
89 180
84 44
96 153
28 120
24 148
48 222
92 101
16 83
27 114
98 157
121 97
65 253
94 112
23 147
23 78
107 177
82 39
27 122
83 43
89 145
117 89
98 156
51 206
86 182
25 154
28 76
94 116
84 49
116 99
73 6
33 55
75 221
30 63
30 179
49 12
84 46
123 93
31 182
95 94
49 201
81 33
89 146
29 69
82 242
120 90
90 138
25 113
93 100
10 88
26 160
29 73
4 97
13 107
23 131
31 60
52 207
50 217
54 253
74 197
14 108
66 252
28 171
59 5
51 251
34 50
87 56
90 66
83 248
106 84
52 199
22 136
76 225
42 237
75 14
57 253
35 190
110 86
114 89
104 178
108 85
55 253
64 253
78 174
45 251
93 91
40 248
75 218
