2 99
13 61
53 7
50 203
61 182
79 74
68 131
25 34
49 204
34 160
35 204
70 60
78 69
29 191
81 72
34 175
58 141
66 124
65 75
27 198
28 206
28 28
34 176
68 129
16 119
63 112
72 64
18 57
10 78
64 100
64 203
11 62
14 100
48 203
54 11
18 56
31 20
9 76
43 6
16 99
63 186
65 200
64 89
20 53
33 176
5 65
55 157
10 77
28 195
19 126
65 57
27 202
3 67
69 131
49 4
32 177
61 180
14 114
35 174
55 14
61 179
40 162
65 74
63 118
19 57
16 88
36 159
41 204
78 75
66 71
64 113
64 91
63 120
25 144
36 14
66 72
57 20
55 10
21 44
57 169
21 45
13 83
64 104
64 78
20 52
62 116
14 102
52 6
32 156
82 73
29 193
56 16
36 16
59 204
60 26
72 74
43 203
24 142
64 76
56 155
