2 142
67 105
41 19
17 147
57 18
71 135
59 5
65 156
5 67
13 27
73 125
72 130
35 23
30 10
28 123
75 59
79 96
34 7
25 106
64 120
87 64
58 162
20 51
81 89
59 154
17 136
80 87
20 84
19 79
55 17
19 62
61 150
58 5
13 26
66 112
21 92
72 132
28 124
76 105
22 15
61 19
62 20
85 27
22 95
69 8
63 127
68 8
72 75
14 120
11 108
65 108
24 171
74 122
25 38
65 123
51 3
7 90
58 156
42 4
64 117
10 100
19 82
88 42
79 95
65 111
79 19
77 105
70 83
8 37
58 160
26 173
83 22
72 31
5 68
83 25
72 10
68 146
72 77
68 26
72 80
65 22
53 16
39 20
58 157
11 107
27 115
85 30
64 133
15 129
23 170
63 21
6 54
64 128
12 29
57 162
9 37
83 81
73 72
20 52
87 59
76 41
74 112
29 131
76 62
40 171
37 184
59 167
58 154
86 70
6 45
6 43
64 159
23 99
11 110
20 49
74 68
32 26
4 70
86 73
9 96
75 13
73 127
20 82
33 7
38 5
58 161
14 25
64 160
75 63
84 76
5 76
57 161
29 31
34 24
62 165
20 57
69 28
58 164
73 71
6 50
6 52
5 84
48 3
