2 129
18 144
73 228
21 75
69 53
16 148
72 28
27 222
63 229
13 85
75 230
76 124
52 21
79 12
83 142
37 169
86 153
71 163
86 12
22 68
51 223
38 175
17 82
21 108
70 19
14 85
3 101
61 229
26 160
88 83
27 223
13 86
65 164
75 112
70 220
71 162
25 127
44 26
38 187
62 21
23 235
66 161
39 31
35 204
37 197
82 7
84 6
75 121
62 187
79 15
75 97
26 124
75 103
57 20
38 191
75 127
25 129
47 224
48 24
67 38
71 55
83 99
44 27
25 126
30 237
66 25
34 162
49 223
83 4
24 232
67 42
16 152
24 116
35 164
70 60
71 237
87 15
24 120
76 93
36 166
64 203
75 19
31 165
77 11
84 5
78 24
73 27
72 62
78 96
75 108
76 19
86 154
16 149
94 88
24 55
4 102
66 34
16 82
21 77
63 25
64 232
76 113
30 164
25 231
38 185
28 45
23 59
65 163
76 112
94 86
81 157
68 214
87 151
92 85
71 60
22 133
76 101
71 61
65 206
14 109
75 233
69 48
63 188
67 233
67 33
23 156
3 102
65 165
24 115
96 93
