2 128
66 247
34 250
60 203
29 180
14 137
85 87
55 245
64 26
45 245
5 85
65 28
73 81
41 204
62 206
55 246
20 75
72 248
20 127
71 68
25 70
31 42
65 34
62 183
63 213
68 53
74 108
22 118
62 180
41 194
81 163
79 174
75 114
34 227
32 42
32 188
61 206
5 84
72 69
75 113
75 125
23 165
66 218
74 177
28 53
24 117
62 210
34 32
65 216
61 184
60 192
30 180
65 29
61 181
73 72
77 85
74 135
63 210
61 186
15 78
25 64
63 247
31 238
73 80
28 54
74 158
19 156
75 126
67 53
42 192
60 195
9 100
29 51
12 101
60 184
91 97
7 100
25 62
82 173
63 23
15 138
22 163
42 209
82 174
59 13
37 25
20 124
89 97
29 177
82 82
31 182
74 101
26 60
42 196
22 161
14 106
35 225
72 142
71 69
36 31
66 37
34 33
69 181
68 47
20 109
72 146
84 95
62 207
80 173
66 45
59 198
72 238
18 109
65 30
25 169
77 86
28 175
24 72
74 128
33 229
75 120
38 24
66 38
22 165
86 167
67 221
24 70
83 95
71 242
