2 127
73 92
17 139
88 13
44 23
73 109
75 26
71 21
70 214
72 113
4 93
72 116
91 73
31 232
79 123
27 156
17 102
19 75
91 76
81 124
18 136
85 133
24 104
27 44
63 192
38 174
16 147
33 156
97 80
31 210
16 79
76 14
87 6
21 131
33 206
63 191
93 84
36 192
71 30
43 221
64 156
50 213
64 155
36 153
84 18
69 47
73 112
20 133
71 230
69 209
37 190
25 108
52 211
72 89
36 28
85 87
37 192
65 154
73 114
33 207
72 86
80 89
67 25
24 60
25 121
34 200
29 157
34 152
70 50
69 151
23 70
29 40
19 76
76 148
18 76
36 159
9 88
29 217
70 61
78 148
88 138
28 158
31 159
73 120
15 142
72 106
39 26
13 102
27 49
28 225
35 229
70 59
62 186
75 16
63 170
85 17
84 4
73 111
74 67
11 85
86 3
86 7
91 85
76 149
81 69
56 19
6 97
22 102
38 182
77 25
73 88
38 161
37 191
86 134
64 20
24 58
24 108
77 123
8 88
25 56
72 229
73 227
87 128
33 157
80 88
90 72
70 229
39 181
