2 82
50 70
49 111
47 27
34 7
30 149
21 121
49 61
14 102
40 6
26 164
44 176
25 21
21 37
50 90
59 48
51 167
38 9
49 109
62 51
23 28
28 158
5 67
31 144
49 173
51 83
45 148
62 57
44 145
51 165
52 57
63 56
47 39
44 135
31 150
58 48
19 47
16 111
34 8
19 82
50 96
51 75
28 13
24 128
24 131
50 66
52 169
36 11
48 34
14 77
43 176
53 116
13 97
49 91
31 148
18 113
13 93
40 4
65 51
46 149
23 25
23 31
50 83
22 122
50 111
63 57
13 101
14 98
49 93
15 105
35 10
20 117
52 127
56 59
43 136
32 135
65 53
17 81
57 58
17 51
55 127
17 86
44 134
