2 179
5 158
90 169
48 233
16 305
34 63
94 145
44 180
24 300
124 172
67 31
69 34
48 234
86 209
49 282
13 130
69 267
37 52
42 211
43 189
87 218
27 273
91 177
90 132
50 281
87 216
50 282
43 285
41 154
113 182
65 306
43 182
79 66
87 180
87 122
89 170
80 69
71 269
68 244
87 172
40 31
79 8
74 51
82 237
33 89
89 174
43 179
70 270
88 167
87 173
92 179
105 154
85 186
118 181
17 156
86 203
5 163
71 40
31 97
85 190
76 56
85 203
13 155
121 165
43 22
20 304
94 181
12 295
4 164
77 233
119 163
15 159
82 97
46 227
69 10
52 14
90 174
44 185
28 149
74 286
47 243
35 68
39 149
21 303
54 289
38 219
36 60
74 234
76 291
70 5
42 25
73 279
32 87
43 176
35 67
27 274
72 276
27 298
86 182
86 212
15 289
83 99
25 300
8 160
68 260
70 239
68 243
53 14
52 15
25 277
62 16
80 90
16 128
70 268
52 285
104 181
34 67
71 276
44 206
11 155
84 239
5 146
31 95
90 131
48 281
68 264
78 302
105 152
87 118
69 264
88 217
65 13
70 273
9 137
90 176
39 290
81 83
92 139
40 224
80 86
18 125
11 299
14 159
32 95
73 280
18 287
70 6
17 127
37 260
41 159
34 64
29 271
36 51
76 297
79 72
69 312
86 192
65 22
43 185
80 79
89 224
77 294
67 250
49 237
86 110
88 175
87 117
92 140
36 291
15 290
87 174
54 290
29 110
39 148
42 170
36 53
88 215
67 33
41 288
99 150
