2 88
27 40
55 30
27 42
22 88
27 81
62 167
23 85
64 95
14 69
12 68
34 13
62 89
28 35
38 173
45 8
28 111
61 157
28 79
58 115
25 51
56 124
28 33
35 133
61 89
64 71
34 131
54 7
48 8
63 168
69 97
63 114
35 11
54 24
56 129
70 111
63 67
43 173
62 161
37 167
62 158
61 159
79 62
35 8
68 112
27 109
23 97
33 127
14 68
58 38
17 70
59 42
34 132
13 60
60 151
24 86
62 169
19 57
59 41
55 31
71 106
53 9
40 143
70 99
31 26
47 7
30 25
32 124
61 169
25 103
52 8
61 160
71 104
72 105
56 139
61 161
68 65
36 174
42 6
59 47
32 16
56 127
37 156
80 60
24 97
3 70
32 21
26 74
75 65
