2 88
28 174
59 50
33 3
53 94
55 113
4 68
26 13
54 113
53 82
43 134
29 149
23 20
32 3
54 82
26 174
19 44
17 85
55 127
31 133
24 172
16 85
42 18
62 60
66 54
16 55
43 21
25 174
47 127
11 94
18 84
15 114
17 123
43 143
24 17
27 133
53 63
27 163
31 141
6 62
62 119
62 59
53 87
11 58
14 114
19 124
16 117
36 4
53 65
54 84
51 46
49 128
33 172
48 128
49 130
22 28
31 139
49 40
55 49
50 159
21 35
64 60
44 24
48 157
28 151
51 168
7 61
50 164
45 150
31 9
52 65
44 146
49 42
6 64
42 141
4 66
53 57
69 55
33 173
52 98
9 72
53 61
19 79
24 19
46 29
69 59
31 142
51 105
29 153
