2 104
22 39
75 131
62 159
5 89
27 32
81 91
75 108
12 69
65 22
46 175
39 204
60 215
17 140
32 22
34 18
71 206
75 129
72 38
68 28
75 95
47 214
81 81
77 136
37 212
31 161
39 163
80 83
44 5
71 35
71 37
79 78
33 165
75 149
45 178
18 61
63 149
16 137
66 187
61 162
19 50
61 176
45 169
76 133
72 209
41 193
45 166
72 120
37 14
75 60
62 175
38 165
64 214
41 160
21 148
65 21
46 169
67 25
22 150
67 145
73 45
69 197
70 34
12 130
63 156
76 97
11 120
70 33
14 64
74 101
44 162
40 9
45 171
71 34
60 13
27 31
52 5
75 64
76 67
18 50
20 146
7 90
64 20
72 42
61 167
45 5
41 194
14 133
81 88
40 11
69 148
45 167
39 215
56 214
39 200
8 74
19 100
39 206
37 216
33 167
81 85
19 97
62 162
42 187
31 24
