2 103
84 194
35 170
11 62
19 42
61 148
42 144
75 131
60 10
6 82
13 59
47 182
68 163
43 145
38 167
71 76
72 82
49 181
44 154
14 59
37 144
66 161
82 180
29 20
63 180
73 109
72 79
71 140
41 161
71 74
77 127
85 193
75 170
57 4
72 86
61 143
35 144
75 57
24 30
9 64
31 141
9 92
18 112
42 158
90 68
70 46
67 162
77 128
69 35
86 191
70 54
72 91
41 7
72 56
83 183
67 27
84 70
83 181
5 69
78 117
72 138
42 6
58 7
43 185
78 121
18 114
32 175
63 16
65 181
68 37
63 142
70 43
61 150
61 147
15 104
7 87
19 119
25 197
82 59
33 174
43 146
83 192
6 83
74 133
28 21
70 165
19 43
20 120
6 86
41 141
57 7
6 89
17 56
86 187
69 164
85 189
22 33
17 109
84 193
77 189
75 133
79 175
60 151
88 64
