2 148
113 135
67 185
115 94
6 91
121 128
111 120
66 183
96 41
115 93
54 230
115 163
94 37
125 143
114 139
91 189
120 152
97 181
113 234
61 183
91 226
60 185
106 232
97 41
16 127
18 67
135 77
15 66
129 93
103 64
110 116
107 92
66 184
37 40
21 132
107 74
16 124
115 139
116 135
73 4
10 110
94 178
91 192
92 228
29 56
64 207
31 50
66 235
129 92
105 73
19 131
53 241
119 154
124 95
108 97
104 71
108 232
100 56
94 184
55 230
54 17
13 121
38 168
9 108
40 172
110 111
71 3
128 92
34 159
130 77
117 127
86 17
78 5
52 185
20 131
113 233
57 221
118 148
90 176
119 133
62 211
109 96
103 177
53 238
16 66
17 68
118 155
100 51
125 145
53 235
70 3
4 107
57 223
26 143
7 78
24 65
93 179
87 18
121 95
97 182
50 182
112 233
120 138
117 130
110 169
10 115
99 46
35 163
66 181
83 10
22 136
126 145
8 100
53 236
117 74
51 183
123 75
86 224
95 37
59 219
52 242
115 231
67 199
28 62
45 178
41 173
119 147
12 124
66 5
110 88
35 162
8 77
37 164
21 135
122 141
69 4
123 94
12 78
123 138
89 184
92 197
85 224
105 213
52 240
121 139
120 128
82 224
36 166
102 62
