2 136
113 195
68 185
97 152
67 166
71 157
121 104
84 12
103 48
110 187
62 202
114 77
73 158
30 124
64 197
40 146
23 115
13 96
119 115
116 54
105 53
124 125
60 14
70 158
94 28
116 148
105 179
54 20
105 157
134 56
31 46
118 209
115 103
96 167
64 166
71 4
9 93
111 189
71 178
65 217
124 54
123 122
115 201
42 148
124 128
52 162
96 154
95 158
100 153
101 155
29 129
63 200
99 170
14 106
124 120
74 159
64 167
115 199
88 17
119 141
46 156
125 54
10 91
136 67
97 198
124 121
60 166
91 198
102 200
103 159
37 133
106 205
54 162
22 112
122 54
25 63
77 3
114 85
61 210
119 54
82 199
55 162
49 158
74 206
75 4
115 94
21 63
34 43
114 92
66 216
53 161
99 39
106 55
52 161
65 9
7 89
27 122
8 95
45 29
102 46
94 29
123 127
117 210
37 132
64 195
30 47
143 60
50 160
124 127
60 205
112 194
114 88
50 24
112 210
77 203
30 129
118 211
98 199
28 53
115 213
61 203
9 95
20 112
141 59
29 123
23 63
67 7
121 109
111 191
120 55
101 153
67 6
97 34
70 157
108 183
99 36
74 166
