2 103
99 74
81 188
46 149
81 47
79 35
103 73
22 35
38 187
36 188
90 189
6 66
6 77
82 48
25 186
46 150
84 180
76 134
27 182
79 171
28 191
37 167
29 124
81 40
44 158
59 4
86 181
24 34
43 143
74 17
85 106
88 192
23 189
54 4
83 178
69 143
91 191
21 112
56 3
75 23
33 172
84 115
81 44
14 101
85 181
47 149
42 160
52 182
83 71
89 188
6 78
103 74
32 175
44 7
87 61
32 20
24 32
45 154
83 79
66 152
81 175
80 38
47 151
41 186
5 75
79 36
78 27
24 192
80 126
36 169
27 184
19 109
30 22
45 143
14 102
23 190
76 22
87 116
71 164
98 69
40 187
15 57
79 33
8 92
84 109
89 73
46 184
18 104
19 50
81 43
82 83
87 185
68 4
84 71
82 97
85 111
83 49
101 75
23 192
75 136
84 118
63 183
64 144
74 19
