2 114
5 104
5 76
9 106
15 56
41 13
12 121
57 5
4 84
71 189
81 211
8 70
76 219
84 74
28 159
86 137
76 201
77 43
7 99
86 144
23 149
20 52
75 30
24 214
6 74
62 211
83 115
14 126
30 29
39 14
29 33
20 55
66 15
39 184
77 42
27 35
11 110
74 32
33 217
73 166
47 6
72 163
85 97
5 89
83 59
98 73
22 46
68 18
85 108
84 61
32 163
82 154
77 36
47 5
84 93
39 166
85 74
73 196
69 19
50 207
28 160
69 215
29 201
38 183
38 161
80 46
6 101
19 143
88 62
8 109
96 69
72 193
4 85
25 212
25 155
84 75
6 103
77 218
3 80
69 186
42 175
36 159
27 207
20 54
29 162
22 49
6 95
81 155
85 85
88 128
8 63
68 17
35 20
14 58
93 66
86 141
22 47
84 121
4 90
31 28
8 61
7 104
77 40
24 154
30 162
84 92
98 72
48 5
7 74
88 135
41 169
98 74
5 80
12 122
79 45
