2 103
84 68
50 4
37 141
70 26
88 54
30 138
40 7
51 4
85 113
83 67
22 194
11 97
28 182
78 100
68 165
7 87
43 6
18 113
77 94
28 195
42 161
70 32
39 142
78 80
71 169
76 45
33 141
63 143
27 132
73 36
34 15
6 67
6 75
56 4
81 184
85 115
24 195
63 14
63 15
22 34
5 78
61 187
20 117
63 152
36 11
45 187
8 96
73 134
13 106
79 77
40 147
79 52
12 105
43 5
31 17
13 103
49 3
67 165
86 110
77 97
25 28
52 3
82 64
63 147
35 12
56 5
77 126
64 153
79 100
37 144
41 154
63 148
29 137
64 16
41 164
5 64
19 116
50 186
24 197
3 66
63 150
82 184
46 4
83 186
36 171
5 74
34 146
82 65
33 15
69 27
20 45
56 186
36 142
73 133
32 141
78 71
77 50
28 24
5 66
86 190
33 176
87 68
86 193
