2 112
94 132
75 180
101 57
49 144
28 130
33 134
8 68
46 158
96 83
89 45
81 184
50 180
37 175
24 123
37 176
8 92
81 164
61 176
40 169
49 152
17 109
83 185
35 190
21 47
45 141
32 27
96 97
93 133
86 187
22 47
34 23
96 89
102 70
48 9
104 58
4 75
95 131
28 128
38 174
84 186
39 174
74 151
5 90
75 151
96 130
56 177
40 172
106 58
41 140
9 73
37 19
42 165
106 70
81 166
82 141
101 58
69 10
88 181
45 140
79 161
71 13
99 109
89 181
94 69
92 133
96 105
34 135
109 69
7 95
43 165
22 119
75 137
89 135
30 193
30 190
12 103
38 189
46 159
10 99
44 184
100 117
24 124
94 65
19 116
45 12
10 66
49 154
74 152
7 65
7 84
101 70
86 175
85 172
94 70
82 184
49 138
12 104
49 140
33 26
111 69
98 121
71 138
19 114
6 72
71 12
30 194
72 146
67 177
66 177
7 87
46 11
72 144
