2 127
114 119
43 205
59 162
104 49
119 121
131 74
13 106
44 165
48 190
16 59
120 92
24 128
58 207
101 41
108 65
46 164
3 77
25 45
95 213
21 52
107 62
43 203
118 91
122 134
95 220
41 161
52 167
29 144
91 202
23 49
60 10
91 218
114 143
89 217
41 210
86 187
9 65
104 159
83 169
124 71
97 217
84 213
54 177
15 115
13 108
115 123
87 172
143 85
79 169
84 186
90 20
11 107
92 23
81 166
113 96
99 164
104 158
57 174
77 6
31 147
94 167
137 88
75 4
104 157
54 181
56 162
49 188
16 119
13 109
91 201
44 202
11 64
111 149
112 68
46 197
8 91
113 118
15 60
123 92
87 190
114 110
44 198
14 61
21 54
106 59
27 41
110 151
96 216
24 129
93 25
6 84
65 205
63 9
69 5
113 119
7 72
16 121
86 215
84 171
112 118
106 155
107 155
9 66
31 145
96 220
34 151
32 33
85 214
121 92
49 168
57 13
116 69
64 8
28 143
13 105
6 81
54 180
98 163
7 92
112 91
106 57
38 157
19 125
114 145
39 219
32 31
56 159
