2 146
82 129
27 49
49 290
27 52
73 162
22 161
34 6
30 71
89 103
64 42
54 298
70 82
55 271
28 55
71 174
64 41
54 17
25 283
37 251
27 38
19 162
36 256
26 29
88 125
55 267
29 60
49 292
62 244
32 169
60 281
41 289
71 73
33 268
61 282
66 49
88 129
72 236
30 170
71 85
36 6
70 237
31 86
49 289
59 304
32 92
71 75
74 229
19 161
63 303
20 161
33 102
35 263
54 16
38 291
32 204
72 130
85 132
89 116
71 171
39 4
30 18
34 220
84 96
49 7
66 58
82 132
30 297
12 125
31 230
48 6
38 244
73 157
33 9
65 59
30 83
82 96
31 109
65 40
32 91
77 132
62 211
45 4
88 116
88 127
28 43
31 297
14 124
33 197
51 294
10 127
61 303
70 181
32 209
71 138
5 141
58 28
33 295
6 145
75 89
24 281
34 266
71 172
64 300
88 101
31 204
83 128
60 282
68 189
33 96
67 60
70 136
6 131
54 252
34 234
55 17
37 243
59 30
68 187
86 121
54 261
37 6
66 196
34 170
55 298
88 100
41 4
36 292
66 195
50 10
67 63
61 304
29 65
87 99
57 22
11 152
34 8
30 66
66 47
30 76
57 272
58 23
61 244
52 296
27 39
64 293
68 222
