2 106
94 134
32 26
73 18
78 160
72 153
7 64
75 146
16 115
86 186
38 20
101 112
17 117
69 13
24 37
84 186
87 183
96 66
43 15
98 108
109 71
77 144
85 141
41 187
19 120
83 171
77 161
113 65
83 170
48 144
3 76
83 187
8 75
32 137
19 123
79 184
43 186
37 175
38 170
98 127
103 116
76 25
43 145
7 82
57 3
14 118
20 43
39 188
5 90
12 108
29 30
98 117
57 176
100 116
31 26
95 85
7 65
26 131
88 44
9 103
79 183
98 129
27 132
35 179
93 134
48 143
56 4
45 157
42 162
97 131
32 186
47 151
115 69
94 56
39 17
62 175
91 54
45 142
86 139
48 152
81 168
79 31
9 67
12 109
12 111
82 143
10 106
7 93
62 5
61 4
28 132
68 177
101 121
54 6
11 61
17 56
19 46
12 107
88 138
35 138
6 102
43 163
42 15
24 38
103 72
44 158
4 81
