2 109
14 114
33 172
95 90
96 61
112 71
78 28
71 166
36 170
41 163
95 101
30 180
96 91
77 26
87 140
103 78
16 118
26 187
13 65
95 79
29 140
8 94
81 33
6 75
13 113
75 175
110 70
112 70
24 131
23 43
42 187
68 162
72 21
99 63
13 117
22 49
69 9
15 62
27 38
38 167
113 74
95 126
28 138
76 26
75 174
7 109
69 163
12 111
37 168
14 117
112 77
94 62
37 26
44 156
71 189
80 183
93 60
49 182
76 192
108 69
40 187
13 67
56 8
97 129
43 146
85 41
94 81
12 113
97 131
53 181
41 161
10 107
79 31
68 189
46 146
83 36
54 182
10 103
45 150
67 8
7 94
73 19
43 157
95 95
11 113
82 36
68 7
9 103
74 150
11 105
97 121
8 103
90 52
24 43
8 78
95 61
94 60
6 110
13 64
97 61
19 59
77 193
44 21
45 156
18 125
78 180
10 114
29 181
107 69
30 140
