2 95
53 170
63 116
30 196
62 70
20 186
52 155
15 60
25 165
59 150
21 190
66 129
28 156
13 152
18 47
55 54
16 55
33 10
46 12
63 83
4 77
49 151
19 45
58 92
27 149
48 147
6 126
52 151
5 84
22 190
51 150
5 119
10 61
21 35
32 196
6 133
56 66
59 80
16 56
4 86
22 180
47 196
55 174
50 30
38 4
71 76
67 81
49 26
5 65
44 7
6 111
57 87
12 150
5 89
26 148
65 115
26 19
24 168
28 197
22 174
9 140
24 148
8 143
57 179
21 33
6 132
5 114
22 28
60 109
42 198
6 113
7 125
5 113
17 154
6 125
48 21
52 41
55 191
20 185
8 135
56 58
56 181
5 63
43 8
3 68
6 63
6 116
23 25
48 20
31 196
62 112
16 59
47 18
26 22
57 90
64 120
