2 147
32 309
20 167
38 25
41 185
37 287
39 132
31 296
37 316
40 174
18 187
37 308
19 11
40 252
37 299
20 12
36 283
6 76
24 261
20 149
26 266
20 159
40 131
40 154
19 13
22 119
38 263
20 150
41 155
47 81
42 67
19 28
48 79
19 192
24 254
40 188
36 305
25 44
21 239
41 160
22 126
37 283
19 228
22 111
19 166
20 170
21 136
21 30
41 152
41 22
20 223
17 71
21 242
13 142
16 72
40 108
52 65
36 275
36 309
18 208
21 122
37 312
46 82
21 123
33 331
40 94
41 244
40 158
40 20
43 6
22 251
41 220
52 70
26 262
18 198
52 71
41 175
41 15
15 22
33 332
21 118
20 235
23 53
19 202
20 218
21 64
20 166
40 115
24 48
40 61
41 163
41 200
21 115
18 186
43 7
7 76
16 139
14 141
24 258
11 89
25 40
35 336
38 58
36 298
36 280
22 122
26 267
40 96
41 168
28 285
34 328
18 192
40 255
21 65
22 100
41 251
22 240
22 33
13 90
32 319
41 193
21 66
44 10
22 104
39 126
6 77
39 107
41 65
19 169
15 91
40 215
37 334
20 158
38 274
41 190
28 274
38 7
41 66
41 247
38 268
46 71
36 332
48 80
31 316
40 190
34 36
21 62
31 313
