2 177
167 109
187 203
162 64
109 3
122 220
81 173
17 104
89 10
191 210
15 158
150 50
110 199
5 200
24 181
176 188
5 208
6 119
12 167
16 105
71 22
18 149
105 182
23 182
33 78
121 11
16 152
187 182
36 178
67 25
26 113
154 54
64 27
9 180
82 191
66 216
166 77
138 32
31 82
72 207
105 188
155 75
159 72
27 121
110 197
82 15
58 33
82 16
97 219
133 21
111 181
71 218
66 218
154 61
175 146
28 88
153 60
11 175
71 208
74 21
172 187
85 187
168 183
151 184
32 178
165 77
45 53
34 179
29 178
158 83
126 16
170 131
20 140
110 178
5 210
97 218
66 215
151 64
193 209
21 137
78 172
41 59
106 192
75 200
5 215
6 193
159 82
18 103
173 140
74 203
134 22
184 175
114 203
22 105
190 198
167 183
50 44
17 105
185 173
19 148
115 6
26 180
150 51
74 183
182 165
47 182
160 90
129 19
107 218
122 223
10 178
180 157
72 185
116 220
82 14
165 183
27 115
172 140
159 86
76 179
96 6
116 221
23 98
108 174
41 179
55 185
144 46
55 36
79 173
153 54
166 184
15 155
112 219
26 127
48 45
106 218
15 109
115 186
156 57
154 70
37 69
167 112
139 187
9 207
119 215
39 63
169 76
116 207
27 117
169 116
115 206
156 69
185 198
105 184
7 188
110 4
59 187
171 139
38 179
190 209
8 209
4 204
16 109
109 198
30 85
18 102
84 219
149 49
25 92
84 182
13 193
160 86
152 53
108 218
27 126
165 107
73 183
4 214
