2 84
15 38
56 47
35 179
65 105
54 150
11 134
30 142
30 141
27 157
22 139
10 130
15 40
57 173
62 76
59 78
32 4
6 92
13 46
18 30
12 137
52 143
18 145
53 147
30 149
18 146
43 182
65 75
61 169
55 137
54 146
60 84
59 172
62 62
52 179
3 66
56 177
24 133
56 48
56 151
60 159
13 137
15 36
17 146
45 15
63 131
14 43
65 100
26 165
26 161
14 47
31 140
58 54
22 20
53 38
3 81
53 34
25 168
26 171
7 107
60 58
5 95
31 4
59 82
65 65
28 132
5 88
29 136
25 13
49 26
31 141
25 167
3 62
64 119
33 3
30 140
28 130
6 102
17 34
6 93
2 70
54 178
6 100
59 79
57 53
