2 88
25 164
16 43
54 107
61 120
4 66
53 85
4 61
15 139
54 145
19 177
26 16
50 186
20 29
58 66
65 75
49 187
35 4
60 119
58 112
58 113
66 78
23 171
54 96
52 148
21 174
11 131
58 136
57 107
58 111
23 170
27 194
20 27
26 147
5 100
28 13
7 59
64 72
4 85
42 192
27 14
61 68
4 92
12 58
44 155
51 54
56 138
10 131
16 53
54 106
51 51
47 165
61 69
41 193
26 151
14 56
46 23
65 80
17 44
20 177
46 20
53 87
42 146
58 85
6 94
49 179
25 163
32 5
49 42
55 145
5 88
6 95
13 135
58 67
21 173
5 87
52 51
62 83
24 192
58 131
58 135
48 32
47 21
26 194
45 192
52 58
56 108
21 191
57 139
