2 99
40 4
67 160
46 197
92 83
35 8
23 176
82 129
60 32
22 179
63 168
86 87
61 156
64 170
80 118
81 130
25 22
79 119
71 101
67 180
16 38
20 185
58 153
5 66
16 160
26 159
79 69
53 19
4 106
18 162
21 182
64 160
22 190
4 76
30 163
85 70
30 160
4 102
27 194
7 124
80 114
79 145
4 98
72 98
12 55
30 194
60 158
75 83
74 94
74 93
11 156
3 91
4 88
14 52
3 86
17 36
77 152
80 120
73 105
73 95
30 154
18 34
85 69
6 125
71 104
3 68
5 99
14 44
66 46
69 185
38 5
17 39
4 72
76 156
80 68
18 36
14 54
5 60
91 78
3 81
93 81
78 112
76 107
63 170
60 193
66 175
4 87
63 36
63 158
64 192
26 192
5 105
62 169
6 142
43 3
43 4
84 87
49 11
7 152
81 118
