2 91
32 197
53 75
46 158
16 152
21 193
12 137
22 196
37 197
60 113
60 66
22 181
39 13
63 57
7 111
43 21
53 68
23 195
45 163
29 197
18 29
4 56
9 128
35 6
60 116
55 147
56 138
23 13
17 154
28 7
61 105
5 104
22 18
17 32
55 54
55 53
20 184
44 27
53 79
15 43
20 158
59 118
53 69
50 195
48 37
15 150
16 41
58 125
56 142
56 140
49 44
3 64
42 20
21 192
59 66
6 107
21 194
23 155
30 5
3 67
27 168
3 70
13 48
57 54
4 79
54 147
53 88
46 195
47 158
16 35
47 196
15 42
6 102
61 101
47 156
60 120
5 93
41 18
53 90
13 141
4 59
49 47
19 27
47 172
3 59
52 68
55 186
25 170
4 65
51 50
11 133
39 12
