2 88
13 55
4 86
7 59
70 68
58 139
58 142
63 60
25 179
26 192
25 11
34 193
59 103
57 48
45 164
4 79
4 72
24 150
20 25
40 192
60 93
59 84
46 163
9 120
25 183
4 98
26 172
18 30
13 56
13 54
48 154
50 25
46 157
27 165
45 17
47 155
52 29
62 118
65 59
59 87
46 173
16 38
45 161
8 119
15 144
52 30
16 39
4 99
26 160
56 144
4 75
3 85
49 180
12 130
28 4
23 149
48 180
26 153
49 182
47 175
45 156
4 70
22 18
26 152
12 129
60 112
51 30
23 185
45 158
46 162
9 122
5 106
61 126
7 114
44 192
54 34
18 27
61 136
64 75
25 12
25 13
14 50
23 152
60 79
6 109
10 57
61 119
3 87
70 67
