2 89
50 156
17 120
20 16
62 96
54 71
60 85
4 53
57 182
52 161
25 174
4 47
47 138
25 154
16 27
17 122
24 8
19 17
3 51
4 55
21 178
16 23
34 169
50 155
21 13
22 10
37 168
9 101
55 68
54 70
48 31
63 94
6 81
27 5
5 80
29 3
4 80
4 58
19 125
51 39
55 75
4 51
21 129
22 129
22 172
47 136
27 149
62 112
14 29
49 169
4 48
59 128
25 8
54 66
54 174
17 20
49 133
15 116
63 105
65 57
48 32
61 88
61 123
54 176
55 77
26 126
43 19
63 114
62 116
63 108
24 163
47 170
55 60
11 103
28 140
63 92
28 171
12 105
12 40
38 12
40 13
56 180
49 34
4 69
11 105
37 10
23 183
26 172
21 182
28 132
