2 146
8 100
23 318
30 105
9 178
9 227
32 322
9 65
16 286
31 154
16 5
12 317
9 190
8 213
31 82
19 15
11 23
16 295
28 264
31 81
43 325
25 48
29 222
28 57
39 182
10 48
36 180
13 306
37 199
26 275
11 52
20 18
8 176
39 259
10 132
9 138
30 165
22 29
9 143
11 11
8 211
28 267
31 169
13 318
42 185
31 116
16 3
8 84
9 58
9 235
25 282
8 92
11 18
15 286
22 26
30 91
12 266
27 66
31 123
29 253
30 256
27 302
39 248
40 253
37 198
28 77
9 59
12 264
31 203
5 318
27 59
30 133
8 141
40 185
42 330
31 109
12 263
28 262
26 276
10 311
31 322
29 218
8 216
13 268
30 253
19 7
30 225
40 192
40 260
30 151
39 201
25 44
43 323
9 229
31 206
10 124
31 98
29 70
13 307
9 142
31 252
8 81
4 248
42 323
10 104
9 200
10 224
8 160
31 102
11 26
29 77
30 257
35 243
31 88
30 72
10 49
30 117
24 47
30 87
25 285
32 180
11 44
16 290
8 83
13 267
42 331
9 223
24 295
16 284
9 176
28 305
36 257
9 183
13 270
10 116
18 4
21 25
8 76
30 129
19 17
10 319
24 38
20 317
28 270
30 137
31 112
8 152
