2 93
49 171
64 89
65 128
9 110
57 35
45 9
75 66
5 83
76 66
31 9
47 154
17 39
64 66
61 53
66 129
66 96
67 121
73 68
25 17
5 54
16 39
36 4
46 188
52 182
47 12
67 100
23 173
25 186
4 67
7 103
64 134
25 162
49 14
51 142
66 132
44 8
75 67
5 61
66 125
22 22
23 170
17 40
27 185
46 11
73 61
65 129
65 89
59 50
10 112
67 96
5 63
51 20
67 98
47 161
28 14
70 60
69 58
7 50
52 22
65 130
26 186
76 67
4 58
18 184
67 112
48 148
24 168
66 97
65 93
51 182
74 63
67 56
15 130
18 188
4 83
10 117
54 29
66 93
59 47
55 31
26 145
67 114
67 122
5 90
74 62
39 3
51 175
12 124
4 82
59 51
26 150
14 131
23 186
