2 90
39 4
31 180
66 62
15 145
68 150
8 53
75 87
3 73
74 86
7 112
31 183
4 69
33 156
30 185
17 36
41 5
45 11
58 36
78 89
45 9
4 84
20 27
68 149
54 158
15 44
34 163
61 45
73 111
59 184
70 148
60 41
24 157
15 147
9 132
6 113
37 192
76 117
5 99
5 98
30 190
25 158
31 154
80 74
17 38
75 72
11 136
46 194
82 88
83 80
66 67
8 122
4 67
31 172
70 88
31 187
49 193
69 97
8 52
49 18
79 75
34 193
59 179
11 138
24 21
4 92
68 69
76 88
75 114
62 49
4 88
9 134
35 193
59 185
18 32
54 25
75 127
46 192
77 116
33 164
76 119
17 39
55 166
8 120
75 124
63 51
9 131
71 144
33 157
29 157
18 37
