2 94
61 55
36 164
55 35
34 169
66 133
5 56
55 160
46 11
22 144
23 45
15 120
26 26
47 197
36 162
67 106
58 179
65 57
54 156
60 181
31 180
68 120
16 52
60 76
68 100
25 28
35 166
60 153
55 197
70 65
63 193
35 152
24 36
48 15
55 156
48 16
60 154
36 5
67 128
53 163
39 4
33 10
11 91
63 192
60 151
64 97
12 78
61 54
12 84
73 63
67 67
42 198
65 132
59 66
4 61
12 89
23 37
66 132
63 144
68 114
61 83
28 192
62 146
53 164
20 138
41 199
9 55
61 84
12 87
60 89
34 198
18 134
52 25
50 20
15 122
31 156
11 78
29 158
34 8
14 114
27 194
16 126
39 198
68 117
15 116
26 23
64 99
67 66
14 52
29 18
60 195
23 40
55 38
32 154
62 66
