2 94
21 175
49 28
15 36
22 182
50 152
12 54
57 47
29 158
4 95
33 190
62 61
73 69
51 159
39 190
74 69
65 129
9 121
31 145
3 72
15 34
69 118
4 64
19 20
54 170
60 71
61 90
49 27
69 110
23 12
7 112
30 144
37 190
58 53
53 188
71 65
61 78
25 163
21 182
5 64
14 38
15 139
51 141
46 19
25 10
52 34
5 95
68 65
3 75
3 69
55 170
15 138
11 57
66 77
44 189
52 188
65 132
51 155
43 17
22 177
62 88
56 46
13 48
52 160
31 154
51 188
70 78
62 81
5 63
67 75
29 4
26 9
32 3
52 162
60 60
51 154
50 155
56 175
65 130
19 141
12 51
13 135
31 3
50 146
3 91
38 9
10 126
25 8
53 131
22 174
47 24
6 101
58 183
31 153
65 74
