2 102
62 157
10 63
32 199
22 24
67 139
69 131
52 14
29 215
65 57
63 36
61 166
73 99
11 73
70 51
11 106
61 208
33 192
9 63
70 73
15 128
9 74
69 123
37 175
59 169
31 209
31 206
27 162
69 72
11 103
33 171
22 34
57 190
20 146
55 177
9 93
58 196
59 23
64 150
64 58
66 140
64 42
14 122
10 100
35 189
67 132
64 145
63 42
51 12
69 117
10 94
54 215
64 41
71 81
66 139
7 61
70 117
62 206
32 218
11 114
63 41
15 127
54 15
18 140
36 177
70 50
26 12
10 105
71 121
54 180
73 95
64 59
12 67
70 60
71 96
21 31
13 115
12 66
52 214
66 66
67 137
59 24
59 25
62 163
37 180
70 113
64 39
7 63
21 148
35 168
20 36
71 110
17 137
9 87
19 144
72 87
72 82
49 9
70 125
11 109
65 147
8 78
10 96
