2 93
78 88
20 147
62 146
35 8
28 162
23 145
20 143
24 144
72 78
16 22
68 56
19 141
58 10
55 4
72 126
7 78
6 98
79 45
14 131
75 110
13 126
69 132
71 77
66 140
14 32
67 66
76 49
67 136
28 163
12 33
69 41
10 118
70 73
73 42
74 42
54 152
4 52
31 9
17 136
65 172
80 47
25 140
3 52
31 139
61 177
3 50
27 136
19 140
21 15
73 120
32 9
25 176
64 31
63 24
69 134
4 56
48 4
44 183
62 177
9 35
28 179
20 16
75 113
57 180
19 139
32 138
25 175
65 139
6 102
63 145
22 146
64 30
28 164
69 42
8 109
30 135
76 95
55 181
6 92
72 41
17 138
57 6
62 19
33 141
29 134
76 81
61 17
76 108
67 56
60 17
8 86
61 146
70 132
