2 117
23 42
66 130
70 42
82 73
72 80
71 138
45 199
70 137
16 81
9 60
48 5
79 213
42 6
18 93
67 197
26 128
32 24
68 107
66 197
61 193
72 132
78 209
31 27
55 149
72 62
59 191
83 74
4 65
17 88
32 147
39 185
55 202
66 207
18 56
37 159
21 200
37 166
54 6
13 73
18 202
58 136
27 194
68 36
27 204
37 16
52 164
59 190
40 10
13 116
32 140
58 190
14 106
29 203
69 137
13 216
4 63
19 99
32 190
23 209
74 64
29 137
17 86
45 200
34 150
68 207
15 115
14 209
70 85
39 168
30 203
22 210
27 127
14 208
31 143
38 162
20 99
20 51
67 108
49 169
83 76
38 163
67 117
70 52
67 31
69 135
81 76
68 105
52 4
8 68
28 29
8 67
69 96
70 138
37 154
23 121
69 102
65 26
61 130
62 128
49 184
72 136
56 149
6 62
59 136
73 74
13 213
4 67
23 45
69 44
58 11
20 53
63 128
23 44
59 202
23 117
70 124
69 37
