2 101
63 145
50 155
38 197
77 79
5 110
22 29
8 142
25 20
24 155
70 130
69 69
4 105
78 74
54 37
39 3
55 171
4 98
4 103
13 156
6 140
36 198
66 68
12 58
43 199
62 102
26 169
75 81
6 129
74 70
6 127
69 82
26 167
25 170
31 11
43 198
55 38
21 185
63 82
28 156
61 93
4 108
33 197
59 184
53 195
52 29
18 50
3 80
63 111
60 191
60 186
5 106
9 146
66 114
73 80
62 84
21 189
77 80
14 59
53 151
7 122
62 103
6 133
25 146
53 147
76 80
5 113
4 66
24 158
61 111
64 68
66 142
22 181
63 85
51 145
21 183
78 73
5 105
58 55
50 156
22 30
61 149
4 109
63 112
17 55
63 87
20 41
5 109
15 58
54 166
65 115
41 4
60 60
23 149
29 15
21 193
69 134
18 42
6 61
57 176
23 152
49 18
