2 151
46 90
17 131
17 194
16 149
17 140
61 204
62 236
16 244
20 322
21 16
58 132
10 26
11 110
37 34
57 145
67 123
60 238
8 114
12 12
31 340
66 169
15 183
24 341
57 270
18 283
61 237
23 60
61 228
17 161
57 150
20 320
61 169
19 86
9 26
9 118
17 129
20 300
53 287
50 97
7 19
16 256
60 169
19 296
5 12
58 109
16 155
60 202
19 96
61 212
17 163
32 9
15 123
8 21
17 235
17 202
16 212
51 294
21 43
19 285
44 83
16 263
21 81
30 341
9 113
70 174
23 62
32 11
29 16
73 180
31 12
68 174
58 156
10 109
16 259
12 11
49 96
49 299
6 19
50 295
49 296
36 52
60 248
62 225
69 174
17 268
21 310
59 169
60 183
12 29
58 185
16 168
58 145
32 10
5 18
16 198
58 192
36 54
62 235
6 20
60 254
13 31
16 257
17 211
60 201
24 55
17 260
62 116
16 208
40 68
18 285
17 135
57 146
5 15
61 210
55 282
55 277
10 11
16 201
41 70
16 200
39 62
61 250
20 88
58 152
38 2
53 101
16 172
16 234
39 23
38 26
60 195
18 293
60 200
65 185
36 42
11 109
64 126
17 232
60 213
61 239
57 153
17 128
22 73
37 32
35 42
41 320
19 286
48 303
9 23
57 154
39 63
