2 86
28 166
53 70
15 87
41 149
42 5
14 78
43 147
28 167
44 140
18 114
20 39
43 5
18 123
22 184
17 53
26 166
39 156
26 149
54 61
45 133
52 76
50 188
38 162
48 24
19 42
14 191
51 43
18 133
46 130
52 83
29 10
9 61
53 68
28 168
18 181
38 183
23 26
53 83
8 72
46 11
14 76
14 58
49 23
14 77
37 183
26 165
50 30
17 89
41 148
5 65
25 148
51 44
52 62
23 142
26 182
17 91
25 152
16 82
43 176
50 107
11 74
40 153
52 98
18 105
23 174
39 171
52 71
17 180
53 69
16 55
19 136
48 123
48 121
17 105
49 22
28 162
46 181
51 35
36 4
18 42
17 52
21 31
53 80
26 183
40 150
45 188
