2 91
5 81
54 62
24 28
23 31
39 147
20 45
15 85
48 22
26 15
39 178
15 84
27 181
49 19
52 162
40 158
28 12
40 178
49 158
23 24
57 116
54 78
3 81
55 95
54 83
46 9
50 175
39 148
60 184
9 70
55 179
24 27
26 16
52 179
14 84
23 25
49 130
29 9
54 96
57 114
21 36
42 177
49 21
20 50
35 137
15 66
58 171
50 133
54 104
25 117
63 180
53 108
34 132
52 47
40 157
49 18
51 140
61 175
53 55
20 46
23 23
41 6
28 180
6 75
22 30
54 53
26 186
35 134
55 97
50 149
34 183
28 108
29 110
54 61
38 145
37 181
10 83
40 160
49 159
24 93
21 88
37 164
57 115
28 11
37 135
46 173
55 98
55 77
27 182
25 97
55 81
48 141
