2 101
12 219
33 6
40 218
61 85
14 22
43 202
48 156
6 116
6 79
5 115
6 134
14 32
40 193
16 175
13 31
12 210
58 64
19 190
57 62
17 196
52 55
29 3
50 151
59 87
11 154
58 126
8 143
62 70
18 175
50 35
50 154
52 40
43 208
6 132
55 61
6 127
44 14
52 39
24 5
34 7
18 218
38 180
13 32
50 30
17 193
4 86
61 108
21 179
50 29
60 92
52 57
6 128
14 164
57 117
60 86
12 161
5 83
4 108
60 73
44 13
14 165
15 172
13 165
38 192
19 12
52 145
12 160
13 219
41 179
41 198
49 30
58 63
50 153
39 180
41 217
37 9
48 19
58 115
6 58
5 84
47 20
22 178
4 94
61 77
15 201
54 136
6 114
60 104
5 77
14 167
53 57
11 219
58 51
5 58
46 162
20 186
7 140
38 183
5 112
61 90
13 163
