2 141
21 155
20 125
37 252
60 51
70 119
38 239
70 267
8 86
21 102
48 249
50 24
54 236
11 72
63 207
53 26
75 264
55 221
53 234
58 243
53 16
64 80
77 265
54 225
39 251
62 67
20 128
14 72
23 164
12 72
75 163
65 99
55 219
81 167
60 185
57 36
72 127
52 21
3 80
30 247
56 36
64 76
40 220
77 173
62 259
69 115
57 37
65 116
71 174
22 159
23 163
52 23
3 79
22 100
68 264
49 29
15 89
38 60
56 33
32 67
21 71
65 82
70 103
63 63
73 163
29 248
49 26
62 258
56 29
65 101
71 269
64 78
75 270
59 203
22 147
4 80
9 74
24 69
23 165
67 94
80 272
22 163
12 267
22 160
70 129
78 173
51 19
22 103
60 53
20 106
66 105
66 174
76 163
52 19
15 90
17 89
76 266
75 174
68 96
20 145
33 256
69 116
22 152
76 173
23 169
65 113
42 53
50 251
55 236
64 75
39 219
58 197
21 115
12 268
64 175
62 247
21 128
55 222
20 118
81 273
13 72
22 102
24 176
59 47
54 28
54 234
64 119
64 114
68 162
33 67
71 127
64 251
61 58
24 171
25 179
30 68
59 188
62 177
16 89
39 237
53 236
70 118
