2 84
8 163
28 142
14 164
5 67
44 177
7 33
6 117
5 40
6 37
5 90
7 107
29 118
4 62
11 151
28 19
30 35
31 52
28 117
5 82
30 41
10 18
44 178
5 84
9 170
12 10
4 52
6 93
5 91
27 127
43 178
30 145
31 93
4 65
10 120
14 163
31 116
31 80
23 155
33 150
26 137
29 102
28 162
32 88
12 122
31 94
31 76
27 105
12 168
13 166
7 113
5 94
8 31
9 26
45 177
24 157
42 167
29 30
7 168
5 88
40 173
9 19
44 170
30 147
11 121
6 34
7 106
11 122
32 77
4 60
7 100
31 54
37 159
13 148
7 32
25 115
8 167
43 169
4 45
31 147
26 114
9 171
32 57
8 121
15 163
