2 127
65 143
83 244
32 164
40 212
76 240
18 69
28 238
81 247
65 75
62 119
17 95
69 80
18 243
18 106
4 76
20 122
20 125
34 168
40 198
61 72
68 236
38 44
75 234
66 235
66 224
74 88
22 133
23 139
23 234
19 118
79 238
79 92
53 207
48 11
59 182
17 100
23 138
58 60
62 95
19 69
17 243
37 45
55 192
16 91
58 166
27 154
21 237
58 153
20 123
43 204
61 137
57 227
61 129
33 233
62 80
60 65
19 117
62 100
64 234
55 34
23 140
33 172
77 236
5 72
59 230
37 230
18 68
55 35
5 77
47 21
24 141
28 153
37 192
22 137
28 239
67 150
19 249
26 240
7 78
31 163
37 175
15 87
57 46
44 226
57 50
59 62
49 15
71 229
14 248
45 24
73 85
61 138
54 209
49 16
18 101
24 68
72 232
61 150
52 24
58 61
60 152
59 60
56 187
51 226
21 238
78 91
63 140
38 229
63 76
38 177
67 82
61 92
36 185
58 185
54 195
58 186
58 49
31 236
68 80
3 75
47 19
57 168
45 28
44 28
81 246
56 213
72 237
