2 88
22 35
56 99
57 84
46 141
48 133
26 130
19 75
19 51
52 29
27 16
18 79
19 104
25 130
18 82
3 59
3 56
18 106
43 163
55 53
53 124
55 111
28 14
56 70
29 175
56 59
18 52
55 114
56 122
33 150
32 143
56 76
54 36
54 107
55 49
19 94
15 112
55 43
56 71
21 39
19 85
29 14
51 170
57 78
27 134
54 122
58 121
18 84
28 176
56 102
18 85
25 169
18 80
57 83
44 174
19 46
53 31
56 101
56 74
56 54
26 23
5 59
19 74
46 139
56 66
60 182
44 144
25 19
33 153
19 44
34 158
15 183
53 125
26 128
51 169
60 121
17 109
12 62
57 66
56 105
55 39
14 181
30 142
33 149
19 102
56 91
25 23
57 92
18 81
