2 127
49 246
31 13
29 24
27 256
49 195
23 53
8 86
57 80
43 257
14 138
25 208
58 81
8 130
28 224
28 215
25 195
57 115
11 65
65 68
12 170
63 159
50 38
49 36
6 123
24 187
8 76
58 88
59 69
9 76
4 117
23 49
25 192
36 4
43 256
18 149
59 166
30 234
4 109
56 155
61 166
49 190
30 235
57 252
63 263
54 171
20 173
57 127
43 235
42 235
61 159
28 240
54 250
59 99
27 206
3 114
58 105
16 250
58 135
42 16
19 152
14 139
57 75
48 259
13 162
8 127
45 258
52 247
63 162
30 227
26 191
50 260
65 71
7 100
29 255
11 261
9 257
8 262
57 137
7 127
53 261
31 236
56 136
19 61
19 248
52 180
29 22
60 158
66 71
57 139
7 98
22 178
24 196
9 89
43 21
56 138
31 12
23 257
5 119
38 5
49 245
49 188
8 81
45 221
62 160
57 91
8 128
9 74
17 144
63 258
29 19
6 100
9 129
46 208
52 182
59 261
9 78
60 167
19 147
50 36
67 69
68 267
46 28
45 23
57 76
58 115
26 208
45 25
