2 120
13 74
34 4
50 32
29 11
21 158
19 45
29 14
57 110
64 227
17 223
11 242
69 231
31 8
50 167
9 240
29 224
26 22
5 133
55 152
46 22
50 166
59 103
58 111
19 221
31 223
14 95
65 130
71 227
43 221
58 81
31 5
28 16
9 238
23 31
57 71
13 101
24 176
69 138
32 201
30 8
57 107
6 125
55 47
67 222
50 222
55 55
57 58
48 29
24 168
35 222
19 46
24 169
60 66
13 76
5 128
57 114
54 51
18 222
30 13
29 187
18 145
46 177
20 46
67 229
70 135
59 225
57 96
42 200
12 229
14 90
58 84
51 223
19 233
59 215
27 226
19 219
72 228
14 107
48 25
44 187
48 28
14 83
58 215
58 67
24 30
70 225
8 119
11 234
66 220
66 127
41 207
12 79
70 223
53 43
57 75
15 113
37 222
57 118
57 89
9 130
48 176
55 213
58 92
13 91
35 5
11 230
62 135
45 18
57 98
12 231
19 52
11 117
59 101
43 187
45 179
20 163
46 181
68 222
23 34
59 105
