2 130
60 95
27 164
70 247
17 82
58 158
61 59
14 244
60 154
27 177
34 216
59 54
20 141
57 49
52 222
64 117
51 187
18 238
11 130
75 144
11 250
61 69
27 170
61 150
68 243
16 249
43 5
62 102
67 253
25 241
47 199
66 127
23 145
61 105
8 132
35 215
15 64
80 143
63 107
39 231
18 246
19 61
34 207
23 146
61 90
46 5
31 191
33 217
34 205
49 233
13 64
12 246
53 173
41 3
22 152
78 139
80 146
31 187
43 230
48 203
54 23
61 104
30 194
67 60
25 168
51 221
39 230
48 201
23 59
20 124
46 212
33 203
70 63
57 40
18 97
40 230
19 95
62 87
55 29
66 251
49 232
24 159
36 209
18 93
24 153
52 12
28 172
25 55
28 170
56 31
25 153
61 71
49 221
63 106
29 178
52 9
61 151
45 230
63 148
19 101
48 195
51 185
18 140
64 68
15 138
56 38
60 72
57 228
38 13
13 67
47 205
39 7
71 145
47 202
19 100
63 114
24 156
29 180
61 103
28 41
63 247
54 25
46 214
13 71
45 12
63 120
39 9
22 114
79 143
17 126
53 169
