2 118
63 57
9 165
7 160
50 13
7 96
73 68
26 180
18 69
4 134
21 99
14 106
29 154
48 12
51 170
74 157
30 7
3 92
17 164
74 143
52 153
4 143
29 173
50 164
26 15
53 102
29 11
27 176
73 62
56 94
3 139
30 8
29 219
74 130
21 41
4 98
50 159
11 111
56 31
26 204
43 221
26 184
54 94
3 137
49 167
67 167
54 192
27 177
9 162
5 124
72 68
19 51
28 156
67 166
21 36
51 156
48 219
69 121
6 120
33 5
27 18
4 141
74 147
71 126
6 99
22 157
28 174
5 79
53 100
8 98
70 72
53 185
40 222
71 70
53 181
53 105
65 56
5 81
15 70
73 61
59 37
57 33
60 89
29 164
19 58
62 88
56 26
17 167
32 221
25 203
9 163
55 201
52 217
59 158
3 130
53 183
55 189
76 156
51 172
65 165
74 155
29 8
68 57
55 190
75 154
48 220
5 100
4 82
26 210
52 176
9 113
3 132
59 56
37 222
21 95
20 63
19 162
75 149
73 164
