2 104
34 219
49 166
29 188
5 74
47 74
12 135
44 192
49 215
13 140
44 195
34 16
48 211
11 129
37 18
15 22
5 88
41 106
4 77
40 96
14 36
39 46
15 102
39 41
31 5
31 9
28 220
26 216
7 65
19 165
29 221
45 182
27 11
30 193
15 144
6 91
50 144
50 140
17 17
43 220
45 199
44 76
43 186
27 10
46 221
33 10
6 86
15 95
14 144
13 92
16 19
40 98
15 33
20 169
18 14
54 65
38 29
4 79
9 63
40 78
15 151
15 24
48 61
38 23
24 182
15 150
10 119
41 51
20 167
54 66
38 93
27 4
41 72
14 55
38 16
24 184
25 216
24 7
41 104
39 97
16 148
32 10
14 38
43 191
15 23
30 4
39 77
40 47
34 15
37 218
43 193
47 206
49 135
47 58
47 210
46 208
5 84
26 219
46 204
9 93
15 25
29 191
47 114
5 72
45 57
