2 117
40 7
30 200
51 188
28 212
67 119
68 51
64 25
6 122
69 144
67 130
16 130
29 68
67 154
5 120
68 55
29 36
58 175
52 244
41 5
33 256
39 10
74 95
30 42
65 159
24 234
72 78
49 222
40 255
12 113
33 18
30 77
45 4
23 244
24 230
69 119
68 146
47 200
14 96
28 210
8 113
16 113
70 143
25 120
32 22
71 116
19 170
64 121
28 47
66 129
66 36
24 187
28 56
29 197
12 96
29 34
57 177
7 117
11 105
58 176
76 85
68 151
19 90
8 122
67 129
29 49
40 6
28 208
45 254
68 64
24 120
67 157
21 175
11 101
51 239
23 84
10 104
15 153
47 209
15 135
28 54
69 68
14 148
48 195
15 155
52 247
17 163
13 97
64 159
26 117
19 117
5 121
50 188
28 205
71 74
24 231
28 190
68 141
59 14
30 72
54 7
29 193
16 129
68 66
70 72
67 132
64 127
30 71
17 164
11 114
52 239
27 80
24 122
24 229
76 86
48 202
13 140
28 48
