2 86
45 147
17 124
17 20
15 80
17 88
38 177
49 117
17 19
27 178
42 121
45 168
50 106
49 113
48 123
50 117
16 155
16 157
48 126
33 179
19 14
42 131
6 81
47 50
44 41
50 73
50 54
50 72
12 113
50 68
29 180
15 122
43 142
16 153
17 153
2 94
49 119
27 179
10 84
49 121
46 87
43 28
17 55
47 152
50 80
44 30
41 175
8 75
10 85
33 4
50 77
22 123
50 64
43 172
47 164
49 74
22 137
13 92
51 104
45 123
47 49
18 25
43 27
25 7
17 48
44 40
11 69
16 38
13 118
10 71
18 151
35 179
18 152
42 136
50 118
5 90
45 82
6 83
16 46
29 179
24 129
43 120
16 55
27 5
49 61
49 58
32 179
