2 140
26 294
25 204
18 206
23 72
22 198
13 257
4 182
6 196
53 126
55 93
7 204
14 267
14 248
45 276
56 95
47 226
25 56
22 200
49 259
24 45
14 111
59 173
49 256
38 291
43 197
4 184
59 177
26 27
26 204
54 49
8 208
49 252
11 128
56 139
46 218
50 22
25 209
47 266
59 183
4 99
61 71
53 101
25 40
57 185
48 204
7 205
27 25
7 107
7 87
4 162
43 205
55 196
29 13
7 202
58 186
56 59
44 203
51 23
10 130
25 203
59 149
25 39
21 202
52 125
51 129
5 90
26 33
4 186
20 80
36 6
25 195
15 239
60 146
42 287
43 199
42 200
53 116
56 196
24 211
3 93
48 249
16 238
47 16
55 54
61 156
5 182
21 80
60 66
17 112
44 282
56 138
47 233
48 259
25 200
57 191
5 162
46 219
60 74
49 235
16 212
59 163
45 195
19 283
25 37
27 19
55 136
54 47
46 223
54 54
14 245
42 6
54 38
47 225
15 240
48 260
9 134
49 22
44 8
55 55
24 73
51 25
30 11
46 225
48 263
28 12
46 217
5 160
24 41
14 246
24 55
23 73
26 18
4 98
25 32
27 294
6 197
58 99
44 196
61 73
5 150
