2 132
11 160
18 115
52 125
26 228
55 26
5 135
22 197
58 56
58 141
27 31
55 178
27 36
51 128
17 180
8 112
7 114
53 118
68 81
33 11
33 262
48 210
21 127
15 141
15 115
54 169
54 221
32 260
10 124
13 168
21 247
24 201
9 113
22 52
67 88
5 138
23 252
43 4
11 152
27 225
58 64
66 91
26 25
52 123
6 126
66 95
56 258
20 83
4 133
22 61
36 261
54 15
6 137
22 236
6 124
48 206
52 117
57 46
30 14
14 168
55 27
13 117
6 136
21 72
28 200
35 10
11 153
12 97
20 126
10 106
52 11
24 202
57 34
52 114
56 26
37 8
53 188
57 150
48 4
57 54
28 195
57 136
23 243
22 123
5 136
28 192
16 180
20 192
49 5
53 259
50 213
56 41
57 155
55 174
56 24
21 74
58 147
22 119
55 18
59 141
23 119
24 252
31 192
51 213
54 112
7 133
21 246
18 130
59 255
30 201
58 151
22 50
19 192
22 58
27 223
11 120
58 53
57 48
56 34
48 198
49 191
25 231
58 155
53 217
22 53
23 200
57 229
48 205
13 143
49 197
38 261
14 96
35 9
