2 117
23 224
12 146
53 227
51 182
28 198
29 9
13 69
28 10
13 86
12 167
25 219
36 269
55 68
56 248
49 25
51 213
14 176
15 179
4 103
51 204
54 116
15 127
7 120
57 180
28 206
55 60
55 254
28 204
54 117
56 65
35 270
29 195
15 134
29 192
12 168
21 26
45 12
54 235
20 187
12 171
50 204
51 192
59 96
13 174
45 13
60 170
51 201
15 54
58 173
19 33
22 231
22 261
29 190
15 124
14 65
48 20
22 234
42 268
59 86
58 78
14 135
41 269
55 253
17 51
29 202
10 124
57 104
5 117
59 135
28 205
55 259
15 61
29 189
21 253
11 89
58 74
20 36
62 161
23 262
51 30
15 66
58 115
10 149
56 69
59 99
26 16
52 178
31 268
26 217
55 132
21 25
12 166
52 192
50 208
11 158
17 182
59 100
56 64
56 259
25 217
25 220
21 251
57 69
50 203
4 105
58 95
21 236
13 137
57 109
22 226
55 231
23 223
12 159
51 211
12 153
22 258
56 260
