2 123
45 15
6 185
60 102
12 82
56 177
57 171
4 107
54 191
5 254
27 274
4 105
60 81
14 37
13 72
13 38
40 7
53 43
52 36
9 134
8 90
60 72
56 132
55 110
23 8
5 170
59 98
9 233
56 186
9 131
44 13
60 88
14 122
4 161
13 73
42 221
42 227
60 85
43 208
44 219
7 209
12 221
9 130
59 70
60 154
8 212
41 214
14 46
46 19
19 277
5 111
54 45
17 17
13 52
56 115
6 136
53 196
13 58
4 109
5 255
58 63
40 248
56 108
14 69
7 195
56 176
6 256
8 89
59 149
6 249
42 231
12 54
14 63
43 218
13 63
57 140
58 172
8 135
5 248
5 258
49 216
57 179
42 211
14 79
55 121
38 255
4 101
15 75
53 41
55 55
6 118
36 262
6 143
53 198
4 148
6 142
38 4
7 140
41 212
42 9
16 23
42 210
52 196
55 184
27 275
42 240
5 187
8 233
14 47
5 180
55 123
12 217
10 120
6 263
25 4
58 173
59 154
59 90
56 134
6 242
59 141
59 100
7 247
17 19
