2 125
56 274
83 93
70 230
78 203
70 14
78 130
82 184
30 197
77 120
34 256
34 207
61 4
27 56
76 115
37 20
39 18
63 3
30 40
40 213
22 84
80 74
22 164
67 211
5 115
37 228
5 101
33 245
28 48
84 155
30 45
82 105
72 235
21 163
83 102
78 123
23 172
38 222
16 122
83 154
34 241
20 123
21 155
80 139
42 211
23 167
36 210
32 243
32 126
80 141
23 169
33 243
11 120
72 237
77 41
23 125
82 183
78 56
23 148
82 106
33 124
75 114
84 88
72 246
40 218
73 243
68 214
30 44
79 71
34 257
30 43
36 23
33 241
78 117
24 171
77 54
87 169
84 181
78 70
76 41
84 154
83 149
69 262
32 37
17 85
18 85
67 213
32 254
85 156
80 72
78 52
74 212
72 18
77 58
39 216
77 56
35 23
34 236
83 153
28 54
52 274
69 213
24 124
34 34
73 239
78 133
29 192
82 100
50 273
76 32
24 145
31 200
23 165
78 63
4 113
79 140
21 153
66 7
48 274
69 258
9 117
68 216
4 103
74 31
29 123
70 215
