2 167
58 10
88 198
66 325
71 289
80 114
67 261
72 42
68 29
71 306
80 115
28 282
68 238
70 303
15 220
75 125
83 234
25 316
46 335
78 129
84 221
87 170
4 132
88 172
76 145
9 175
72 45
72 244
72 38
80 85
8 186
21 91
32 14
71 42
67 27
18 144
39 247
76 155
48 335
73 71
88 199
69 273
27 262
14 219
6 111
73 56
24 152
26 300
79 91
28 40
9 181
71 297
12 103
32 257
49 3
5 113
27 43
71 245
30 17
68 240
6 138
80 116
6 112
31 278
85 163
64 18
66 255
32 271
81 84
25 60
79 95
85 219
31 258
87 204
11 102
69 236
37 255
16 233
38 238
53 5
38 258
38 254
22 154
51 5
79 107
80 102
21 146
26 292
22 153
78 128
86 217
9 195
12 211
34 253
75 145
80 113
80 111
70 282
80 107
27 39
72 245
73 57
22 253
41 3
78 77
35 10
88 186
19 144
80 250
64 21
89 180
66 248
39 5
51 335
15 224
11 103
74 134
68 271
64 328
25 320
79 252
13 165
80 120
86 167
32 13
27 35
39 248
43 4
85 220
79 158
72 60
67 253
87 177
26 148
86 218
26 149
30 277
69 240
11 200
28 39
76 150
73 55
29 20
27 286
72 63
30 19
89 182
31 14
13 99
75 147
26 45
19 156
55 6
6 109
45 334
72 48
35 264
69 242
79 85
84 239
26 302
15 227
26 65
40 334
75 255
78 126
77 127
32 275
