2 151
13 270
43 342
43 193
20 240
33 17
11 271
38 339
33 283
17 155
42 191
4 329
39 253
44 347
19 248
21 297
42 233
44 326
46 330
32 70
39 340
34 77
39 159
27 37
50 343
40 164
36 107
31 4
41 248
16 148
20 182
42 177
18 245
42 275
18 164
19 89
37 99
20 219
7 333
38 279
19 81
33 300
42 203
44 200
33 76
33 9
38 144
16 160
40 261
18 197
42 218
21 293
19 184
13 132
40 248
37 112
15 109
32 41
42 238
13 119
26 52
36 85
48 335
11 255
29 17
51 346
20 287
5 262
28 322
15 137
23 66
18 246
14 309
42 226
17 100
20 190
18 98
36 89
21 290
41 240
19 202
20 81
43 215
18 99
50 346
24 324
17 158
50 341
20 189
27 42
8 270
33 12
37 90
28 323
8 267
32 300
40 257
35 281
19 238
19 326
39 164
46 350
7 323
31 26
14 122
16 107
38 145
19 91
5 330
30 329
30 61
36 99
18 276
29 56
15 152
43 343
32 40
40 260
18 180
37 125
43 192
37 116
42 195
25 53
15 111
18 205
42 231
19 224
41 237
18 179
16 158
20 289
31 61
44 327
18 279
28 26
42 186
24 61
18 274
26 54
41 178
37 98
10 318
40 259
18 200
30 8
19 210
18 175
42 211
19 194
16 155
37 121
