2 135
88 127
15 139
84 232
87 123
23 80
85 71
91 89
31 34
30 283
100 196
22 217
23 81
31 270
85 147
36 17
11 138
18 150
30 277
99 178
28 246
16 194
98 170
23 85
37 252
4 121
16 94
33 263
20 206
46 296
4 127
80 258
12 171
23 83
25 63
34 257
87 122
94 109
81 274
49 5
79 58
99 212
26 239
90 113
96 224
24 65
95 222
18 142
13 171
20 208
12 99
38 293
17 195
34 291
94 106
79 230
88 139
25 233
24 232
87 144
23 139
100 205
78 237
54 3
86 114
74 17
80 255
89 110
76 27
27 47
52 296
98 172
24 84
19 206
80 264
32 31
24 77
15 157
17 153
29 245
24 75
92 103
61 4
63 296
80 283
87 114
14 188
92 162
88 233
99 204
100 186
99 213
24 73
80 263
79 51
93 229
49 4
92 111
80 277
10 99
6 132
24 66
23 86
78 238
88 130
15 191
75 27
86 113
76 32
12 162
94 104
96 220
87 121
16 139
79 52
5 110
92 231
20 213
79 257
19 210
30 34
24 80
12 178
32 32
13 167
99 210
80 233
35 255
78 240
25 58
39 13
23 222
12 175
85 232
31 267
14 187
