2 157
34 87
8 113
30 272
92 262
34 88
56 334
92 320
96 101
75 12
48 328
9 209
57 334
40 18
94 297
89 161
99 237
69 8
96 118
9 208
92 261
96 116
95 84
89 70
34 70
15 247
64 3
89 145
33 60
99 222
18 137
86 60
34 61
21 264
96 246
69 7
45 11
39 302
9 170
98 230
21 149
74 10
33 64
7 181
6 191
74 11
89 160
95 250
96 108
101 197
20 139
34 50
94 317
92 322
9 213
91 282
95 306
95 83
33 94
100 178
99 211
95 141
85 271
93 255
90 162
35 29
101 202
44 13
46 11
94 310
85 55
67 337
96 107
88 67
66 4
10 131
42 274
92 142
7 179
20 262
83 37
5 111
99 231
21 263
23 267
6 190
89 278
8 180
90 282
89 148
101 181
18 140
25 154
29 271
47 10
22 143
90 264
98 126
5 128
44 15
26 271
34 68
29 272
99 224
11 134
40 315
49 329
83 43
34 84
102 194
38 301
17 133
29 94
42 285
95 301
7 187
97 114
2 129
8 219
90 157
8 217
96 111
89 149
97 120
7 197
44 14
26 95
39 307
8 220
40 286
39 299
13 242
82 34
83 50
90 81
22 148
81 28
25 95
89 73
8 208
83 39
89 280
94 257
83 36
14 246
14 249
50 332
10 170
97 238
15 252
102 185
90 138
14 134
60 3
93 287
51 332
95 302
34 275
