2 156
79 128
37 334
75 241
10 111
16 149
61 287
76 104
59 257
9 112
28 269
12 108
54 329
81 207
65 43
82 186
67 60
21 149
27 273
53 12
9 189
7 144
76 169
60 282
33 9
19 74
10 109
20 90
68 59
7 139
10 177
21 34
19 312
18 323
72 142
45 333
16 160
50 331
25 22
63 37
72 159
82 194
56 326
13 104
72 149
56 324
20 302
74 147
18 56
10 198
77 108
72 88
23 289
20 93
23 144
11 172
69 129
83 195
38 333
19 70
72 160
73 128
22 263
57 21
73 149
78 112
26 277
25 332
22 30
76 233
22 24
20 301
81 185
60 289
62 256
26 270
82 195
73 91
78 115
24 286
18 72
21 330
60 286
73 161
18 314
30 263
45 3
63 260
23 146
83 192
73 154
10 179
78 125
63 258
17 242
76 98
57 318
33 8
18 157
79 220
59 306
60 290
16 150
28 268
70 133
25 266
77 111
82 188
15 150
7 116
71 124
23 266
21 33
78 136
20 48
79 125
39 333
13 167
58 309
79 135
11 212
22 289
26 331
24 284
78 173
68 63
26 262
62 34
79 219
4 127
82 192
13 166
79 129
76 236
14 224
72 140
6 119
70 85
20 306
6 122
75 165
63 257
20 42
76 232
57 316
6 123
59 309
4 128
77 120
15 232
11 207
11 148
65 49
76 109
77 234
82 193
64 262
