2 90
12 123
43 9
45 152
50 72
57 102
17 96
22 83
32 149
60 105
25 21
52 37
22 42
28 171
45 153
24 27
62 108
66 111
52 22
49 177
51 79
18 70
28 184
55 136
23 92
58 50
55 137
65 117
12 101
46 160
54 43
26 18
46 13
21 81
57 101
27 138
21 40
21 91
52 60
28 177
50 94
53 59
49 89
29 14
10 74
29 137
47 193
36 5
9 75
47 14
64 108
9 64
28 181
12 62
22 88
31 151
46 152
21 89
44 140
66 110
20 49
50 173
30 143
4 113
51 38
6 117
61 126
22 92
58 47
36 197
20 134
12 102
31 197
27 176
66 115
21 43
44 11
14 126
67 115
21 48
45 147
54 54
20 44
49 175
5 73
28 173
48 191
4 109
15 127
31 159
28 138
