2 117
86 71
58 3
56 230
17 85
44 52
23 124
21 87
31 154
90 135
31 65
84 151
29 65
49 175
41 210
68 8
85 88
48 153
22 132
69 177
46 31
27 65
71 149
77 32
45 47
71 156
87 146
25 143
44 56
69 167
71 151
49 163
44 147
28 64
37 93
68 9
36 92
47 186
9 84
42 102
44 58
68 225
10 84
47 183
22 121
91 124
45 20
78 50
48 166
57 4
50 12
45 224
60 5
48 168
88 119
45 18
25 109
70 173
79 95
71 190
77 108
40 63
41 212
44 42
22 125
46 32
44 193
48 162
86 82
71 158
70 184
43 146
78 110
71 194
77 102
27 149
70 159
23 135
81 96
45 193
72 16
69 163
88 139
44 49
48 156
28 148
45 45
48 164
60 3
24 137
79 49
46 33
86 63
78 37
30 64
38 103
44 98
85 61
74 203
77 40
76 26
87 118
85 80
71 157
47 148
73 202
45 44
47 151
52 229
48 172
77 107
84 92
71 191
49 159
33 64
23 127
7 77
46 186
