2 120
54 13
55 162
54 181
89 73
20 101
25 140
45 210
37 64
77 18
24 101
89 135
89 121
20 132
35 104
78 199
29 65
78 194
50 34
50 35
89 152
5 85
18 102
89 146
75 170
84 110
48 199
89 129
55 181
50 23
74 176
50 42
52 224
79 212
90 89
82 151
50 25
46 208
51 224
55 171
81 101
79 206
54 227
82 35
75 163
85 56
48 201
48 57
56 229
46 98
22 68
44 148
91 84
46 62
85 113
81 47
90 120
51 21
75 165
24 138
53 227
29 149
55 164
45 98
89 92
47 202
57 229
74 170
28 107
10 73
30 65
20 113
7 78
57 9
88 155
90 77
76 184
55 172
54 155
56 12
89 60
77 187
83 151
67 3
90 72
47 205
55 167
46 203
78 198
81 37
49 144
75 178
90 92
89 118
56 230
18 68
89 127
41 63
32 64
7 75
81 29
82 49
82 152
15 69
43 102
55 170
5 92
78 201
82 102
21 113
23 139
88 114
61 4
46 206
86 99
53 226
39 153
89 87
78 144
49 43
89 124
