2 264
53 140
13 174
21 163
86 282
34 145
26 138
71 51
14 199
125 33
42 156
48 146
135 86
130 129
139 213
101 297
18 168
139 205
133 118
120 260
115 223
127 138
123 28
54 208
26 154
56 136
33 159
6 199
36 167
45 127
70 241
33 164
70 62
107 21
83 238
40 137
42 151
28 146
55 209
134 91
26 149
71 47
56 212
139 210
29 131
52 193
69 59
128 59
119 240
69 136
142 186
34 135
59 235
79 248
12 178
113 225
113 245
132 118
139 157
128 138
43 121
36 168
39 122
76 28
36 131
21 196
56 154
21 157
42 145
135 103
42 105
24 186
39 151
80 224
33 135
51 142
132 128
125 32
35 154
68 73
113 244
79 249
134 106
12 199
119 262
16 182
57 220
39 147
52 169
83 228
22 174
93 9
6 196
109 20
133 149
51 167
135 93
75 30
26 147
104 19
41 153
128 57
51 171
23 157
142 182
100 14
39 128
104 18
74 33
117 13
106 13
28 175
29 147
142 190
83 276
33 126
116 251
19 164
80 249
11 178
127 44
24 162
25 180
11 177
113 237
10 186
33 129
35 136
41 141
90 291
80 246
43 122
49 98
129 134
21 173
17 164
91 295
143 180
32 161
109 283
39 125
21 162
94 8
36 157
27 179
21 187
77 263
43 134
32 130
27 140
3 203
26 178
114 13
44 125
36 141
129 58
140 206
23 152
60 133
23 190
53 200
72 39
7 190
4 200
18 201
38 160
126 42
44 116
121 22
111 233
80 270
25 176
24 167
35 133
138 153
127 142
19 165
129 70
90 293
12 196
114 9
56 214
17 184
22 184
115 228
40 109
57 221
58 238
129 146
48 141
63 144
38 139
27 162
53 161
46 144
38 129
35 152
69 137
135 94
141 160
140 209
55 212
136 84
12 207
59 134
126 38
97 10
107 5
43 151
57 222
26 184
76 236
131 149
128 58
136 81
105 13
36 158
44 104
61 132
136 223
8 195
82 238
69 79
112 240
142 163
9 184
89 11
16 193
84 224
113 224
70 49
112 223
10 210
36 124
81 222
20 199
76 30
141 192
38 162
57 135
14 196
128 142
134 93
128 46
83 16
83 235
82 222
20 166
24 152
37 140
20 179
104 292
106 19
50 179
113 229
32 131
112 8
135 92
84 222
29 149
36 127
24 187
21 172
54 204
138 219
