2 113
69 111
28 249
27 247
12 114
77 145
7 168
60 188
20 192
41 4
68 100
25 188
43 251
20 234
27 18
76 58
4 128
22 59
24 207
70 88
77 138
76 136
53 10
10 109
4 95
69 109
24 27
27 201
23 191
54 238
6 102
75 159
7 108
63 28
59 194
10 173
5 124
23 210
20 227
68 103
60 215
65 183
77 61
46 5
54 242
24 31
55 13
65 44
59 188
65 184
5 157
69 86
78 61
64 37
7 163
17 70
20 240
83 84
20 233
32 249
59 218
27 198
33 251
60 206
77 60
49 6
66 183
50 248
18 69
30 10
22 190
6 158
4 151
58 229
69 99
20 191
12 178
76 132
9 77
26 188
13 180
70 87
71 120
27 200
3 88
22 244
72 168
55 236
68 93
23 208
22 62
22 221
6 159
13 179
75 131
5 145
70 89
22 44
68 105
58 223
25 30
5 125
76 138
25 29
65 36
69 116
69 108
29 11
27 193
10 112
75 147
7 121
39 252
24 205
