2 187
60 305
21 166
65 105
19 182
40 383
61 31
66 9
73 177
22 317
39 378
46 387
25 327
52 355
64 157
57 334
36 36
65 17
72 176
29 348
59 260
77 179
65 18
19 194
62 301
18 182
67 93
34 34
62 285
79 184
63 144
48 67
24 81
59 239
22 299
18 192
50 358
25 60
43 25
65 191
19 197
7 24
53 353
64 212
54 48
63 146
64 201
19 270
60 32
60 275
47 69
39 379
45 385
21 146
34 368
16 45
65 16
16 238
71 188
62 239
57 39
60 116
63 199
29 74
18 193
46 386
7 100
27 28
8 15
22 92
18 260
17 98
65 162
19 23
52 82
61 239
19 202
20 275
64 238
64 269
59 327
49 361
56 339
62 132
19 185
20 276
65 104
46 391
22 152
63 110
64 92
6 15
45 381
51 51
17 235
21 93
41 394
7 27
16 98
60 276
11 110
45 408
65 158
19 198
61 124
64 165
42 409
9 107
21 311
64 225
50 76
27 344
12 112
67 170
22 88
8 30
57 331
16 228
28 349
10 34
19 262
64 93
60 261
18 255
65 106
27 334
80 181
60 280
21 301
43 27
19 246
65 22
62 245
48 65
18 256
55 345
19 247
46 396
19 256
64 224
9 32
40 397
63 206
63 210
59 318
45 405
23 83
20 273
62 288
45 397
44 26
59 321
60 308
24 56
41 403
17 239
41 390
66 4
21 165
61 295
61 297
12 117
18 207
68 187
60 234
21 95
16 221
27 67
64 191
21 172
20 267
62 114
58 313
59 319
11 112
52 50
20 268
18 47
61 122
45 404
19 130
62 29
20 280
19 195
65 167
19 261
67 95
32 361
