2 121
65 37
19 64
32 212
19 68
58 233
53 211
52 188
25 28
68 59
61 29
6 119
31 15
57 249
28 196
66 146
63 180
26 24
57 229
38 8
65 127
18 130
64 140
69 58
63 32
20 65
8 146
57 254
70 171
8 122
7 107
20 60
26 25
14 178
20 179
64 141
68 61
29 21
64 128
57 234
53 202
5 156
30 200
69 152
58 248
58 239
16 135
30 202
52 193
17 88
26 263
58 258
72 164
63 144
29 231
7 150
53 204
57 240
58 241
6 112
6 172
28 191
38 7
30 17
63 124
24 38
18 178
8 121
58 21
73 156
8 105
28 188
53 199
56 230
57 237
23 47
28 181
17 133
27 239
64 130
46 3
21 61
55 226
48 4
58 250
21 58
7 172
58 246
30 225
73 93
48 6
62 137
72 102
64 132
66 178
4 155
73 87
17 130
67 175
68 51
31 269
31 212
17 178
67 47
73 80
18 132
23 44
70 119
25 38
21 52
64 37
28 20
56 260
69 66
74 83
31 207
74 80
63 138
5 171
70 153
73 97
56 224
