2 107
9 139
25 180
28 185
53 15
48 238
18 62
55 236
59 214
5 77
9 111
13 99
39 6
20 54
53 188
62 165
57 87
62 164
24 174
15 98
24 233
64 148
54 16
57 94
54 196
57 100
37 8
23 44
6 116
66 85
58 216
7 128
60 112
57 92
24 178
46 3
23 206
66 86
14 103
56 204
6 127
62 56
52 181
58 212
16 98
20 53
41 5
25 235
42 4
58 230
55 45
62 91
53 10
49 5
56 43
64 152
7 136
22 232
64 154
66 129
51 238
67 66
64 118
27 235
31 20
52 180
7 132
58 224
50 4
67 132
34 12
20 168
32 238
59 230
55 19
26 179
57 231
29 192
22 171
29 237
58 234
59 218
58 87
66 73
59 173
49 239
24 209
58 83
52 8
62 89
56 198
47 3
5 122
23 39
7 72
55 25
65 73
6 131
52 12
25 30
20 56
39 239
61 112
6 121
58 209
3 83
17 63
58 51
