2 146
83 185
25 162
44 223
50 24
82 218
48 182
13 87
10 112
101 102
84 230
53 181
90 37
50 29
42 197
90 54
85 236
26 171
82 216
45 220
25 133
81 249
86 28
91 107
25 143
77 197
75 253
94 97
25 76
16 112
40 118
78 205
34 199
102 85
16 121
100 144
15 120
99 173
95 189
78 188
9 114
48 210
92 63
99 162
55 255
60 255
100 68
12 112
52 200
32 124
100 163
53 17
50 21
41 235
83 223
92 91
101 90
24 146
53 186
99 103
57 13
66 3
89 32
47 47
78 195
76 253
33 196
83 218
51 203
26 132
97 181
101 93
50 28
98 180
43 57
30 74
92 59
90 36
43 67
24 140
82 180
45 191
26 162
25 164
81 13
101 78
43 244
94 96
69 3
60 256
102 92
25 170
83 243
6 118
73 254
86 195
100 151
53 188
84 225
99 178
85 231
42 234
51 23
33 123
9 106
25 171
32 191
35 113
44 53
96 183
26 158
95 104
91 102
85 237
99 141
93 64
69 255
89 42
25 144
42 227
15 121
28 179
82 214
36 112
43 193
90 116
83 219
44 62
98 181
84 240
41 231
94 192
6 116
26 169
78 251
92 92
57 255
77 201
52 193
99 166
26 164
46 217
56 12
43 237
81 248
27 112
100 157
