2 143
79 98
78 103
60 5
90 172
78 102
6 90
16 163
27 67
61 253
23 116
75 111
3 94
79 202
36 186
7 99
17 182
18 168
87 151
33 32
72 238
24 202
32 46
51 256
41 181
74 217
8 88
73 231
88 154
75 113
36 230
18 74
60 4
80 80
88 183
74 229
68 30
18 128
35 228
11 81
72 62
46 249
21 96
8 89
51 255
14 77
75 191
13 95
13 88
69 240
18 170
68 193
15 96
76 224
72 204
18 192
79 71
25 98
79 97
18 157
29 66
17 157
67 190
7 89
61 4
33 34
89 178
85 139
37 179
59 255
10 82
35 100
43 243
81 74
69 24
25 201
18 152
74 211
62 253
65 8
41 239
89 189
74 66
33 45
33 48
72 48
6 102
74 228
67 191
53 258
43 247
13 98
41 242
77 195
17 94
41 14
88 168
71 203
24 70
79 89
14 94
18 173
18 188
80 84
35 207
86 200
81 73
36 184
71 58
81 72
60 255
71 49
86 198
30 98
18 190
87 142
69 34
33 36
19 73
71 182
10 87
22 96
72 60
88 156
17 161
73 229
65 247
38 200
15 99
33 52
77 197
24 69
62 252
75 216
25 202
33 98
64 8
33 58
12 89
90 175
72 61
72 205
70 240
17 153
