2 104
44 188
52 60
50 114
3 99
51 147
5 144
48 46
51 125
40 188
39 189
7 171
6 228
50 160
6 120
6 81
53 131
12 18
5 156
21 243
42 193
36 12
47 39
4 96
9 189
38 15
10 51
11 32
23 243
36 224
52 63
13 109
13 194
51 149
50 105
6 163
39 210
5 165
47 46
50 102
7 181
6 165
20 5
7 173
49 108
40 199
12 198
39 208
6 164
8 77
26 4
11 60
11 63
34 228
39 218
50 115
6 167
19 6
49 106
11 47
51 91
10 38
8 115
6 225
34 230
8 74
4 144
5 164
8 221
52 76
33 4
47 43
5 128
52 75
40 201
34 232
39 205
32 234
5 123
8 187
51 64
6 122
11 39
50 113
27 240
38 210
6 157
12 67
46 181
8 183
50 120
4 97
51 119
13 108
4 149
30 4
39 16
47 176
5 142
48 174
6 121
33 233
40 207
49 52
10 42
