2 121
65 149
74 127
71 63
75 61
32 170
77 84
75 105
61 164
56 9
38 149
62 147
75 93
69 47
73 134
62 170
63 139
51 3
62 183
26 96
38 141
36 28
19 104
64 149
51 5
66 33
32 47
73 100
73 76
65 148
49 4
6 96
35 18
28 147
75 112
75 106
58 8
38 148
18 89
69 65
74 88
60 186
74 125
61 189
34 164
4 96
61 179
70 144
24 98
37 27
61 152
53 199
62 168
7 89
30 189
14 91
74 105
62 137
32 193
69 66
75 78
62 172
61 174
40 202
76 93
61 175
76 62
34 39
75 109
34 41
34 43
61 177
32 194
75 121
69 79
4 95
56 7
37 202
18 123
31 174
74 122
31 146
68 60
71 64
25 66
19 70
34 165
73 79
31 90
32 171
72 68
46 4
55 197
37 152
35 34
69 148
61 172
33 38
28 88
17 116
34 36
33 51
63 136
75 119
71 62
68 62
23 99
67 41
26 143
61 138
33 40
32 89
72 73
44 205
61 176
6 90
10 81
74 95
28 64
34 139
30 190
74 102
