2 109
47 76
45 226
18 16
21 180
34 4
48 99
28 5
13 111
42 101
9 119
20 184
52 148
12 115
19 225
45 218
41 168
7 152
40 179
20 164
43 91
22 175
48 105
21 164
45 53
20 204
40 191
42 199
44 208
17 106
17 38
19 15
6 127
22 170
43 233
43 165
28 237
20 11
14 65
47 161
17 30
48 158
42 193
43 37
46 57
47 79
21 232
30 4
44 45
26 5
4 140
51 155
42 94
19 211
48 100
44 228
43 99
47 83
48 103
5 139
9 154
44 205
48 118
3 97
20 222
4 84
17 37
20 12
20 228
13 113
50 67
33 4
48 157
6 82
11 159
7 121
14 48
20 214
6 81
41 20
11 104
43 28
5 138
6 144
20 200
40 181
43 95
10 118
3 92
39 16
15 60
8 119
14 70
45 222
4 87
18 167
42 96
43 232
34 7
20 192
21 197
8 104
20 229
46 225
49 157
17 107
20 189
43 30
20 225
47 72
