2 139
59 30
72 69
65 79
4 94
61 53
61 117
14 168
56 22
9 142
33 160
66 97
9 135
47 244
70 96
68 153
28 71
20 119
24 118
32 207
69 142
65 74
72 75
22 75
29 220
50 10
64 165
12 80
27 232
72 78
9 153
60 113
3 96
26 116
32 204
27 64
30 222
26 73
56 20
44 244
13 167
9 136
11 156
57 217
65 81
3 92
29 25
53 187
65 82
25 243
56 245
53 190
66 93
58 228
17 179
62 95
56 19
7 103
25 110
12 158
33 12
69 97
14 170
4 92
28 116
69 135
53 201
57 226
30 215
71 67
57 224
72 82
4 96
32 18
29 222
67 155
33 197
56 17
31 206
30 113
61 98
12 164
37 5
69 146
63 69
53 182
62 75
29 35
13 169
60 37
47 7
29 22
67 61
65 70
55 162
3 91
10 155
28 109
58 172
18 78
57 167
63 58
52 203
59 231
63 72
69 139
70 93
8 146
62 100
53 175
42 243
31 208
28 43
8 144
54 208
28 225
30 29
58 171
33 179
61 88
15 110
52 184
71 83
9 141
58 30
27 43
64 126
33 188
27 66
61 47
58 242
71 86
9 128
59 29
8 133
65 61
25 235
17 110
26 63
13 170
