2 137
67 191
37 125
20 215
79 228
51 68
55 100
27 249
77 227
39 308
26 246
24 193
53 78
6 228
43 7
44 9
57 125
83 232
67 180
29 258
30 158
63 289
59 286
30 277
39 97
49 34
44 49
39 121
58 142
43 39
83 236
68 189
68 183
59 148
54 94
48 24
31 154
35 133
67 272
82 234
51 57
63 288
37 296
25 241
37 295
28 176
67 189
41 82
39 119
50 58
44 12
26 244
59 146
44 35
72 237
48 25
53 90
43 30
45 10
49 43
53 86
26 241
52 293
34 145
43 29
33 151
16 207
53 72
44 3
23 199
46 16
23 194
5 225
57 134
33 285
69 199
66 181
21 201
24 192
40 92
52 61
37 126
44 63
70 201
81 230
44 67
71 255
28 268
55 105
51 65
44 26
72 207
34 138
42 83
43 75
38 116
51 63
30 161
36 295
45 8
48 21
66 272
48 18
59 144
21 231
43 44
38 111
16 220
43 72
62 168
76 226
20 206
39 114
31 155
55 121
52 81
49 22
66 180
40 88
66 270
73 223
61 285
48 13
6 229
50 49
27 251
20 207
65 173
54 115
61 150
43 51
55 113
68 192
68 187
42 82
58 133
49 35
43 43
