2 94
22 47
49 37
27 141
51 176
30 202
66 112
28 193
31 5
24 18
52 77
69 120
52 187
17 78
50 170
16 131
48 162
12 80
4 120
53 82
4 125
21 48
42 8
21 65
28 151
20 80
29 200
48 23
51 89
53 193
13 132
54 78
13 79
48 30
9 71
54 136
48 27
27 149
29 172
50 56
54 82
67 112
15 106
52 179
50 165
48 138
25 16
52 70
28 191
49 160
6 129
11 70
21 96
54 84
27 187
29 194
51 97
53 183
41 205
8 111
50 41
53 191
18 134
22 49
20 62
3 122
49 162
29 184
5 118
47 21
22 59
28 159
53 99
53 182
52 193
22 102
31 202
4 118
61 105
54 83
50 37
60 129
27 144
50 50
47 15
14 69
23 35
51 50
49 24
48 158
51 58
53 75
51 200
48 150
46 204
