2 104
11 149
53 146
45 189
48 9
26 214
21 27
42 4
58 102
51 25
27 171
45 5
7 88
20 30
58 108
52 131
45 180
17 47
17 49
26 221
7 85
8 145
26 162
32 237
45 237
27 231
25 226
30 181
19 111
61 95
16 59
14 121
52 229
7 129
37 239
44 174
16 74
52 227
58 99
26 212
50 234
61 81
61 84
26 210
10 149
35 239
47 237
55 140
17 157
45 175
9 146
17 41
16 55
52 126
44 183
51 115
50 21
27 202
53 142
49 234
16 71
44 170
4 101
45 4
8 144
49 205
7 134
50 116
21 23
43 4
26 159
16 64
50 17
9 83
27 210
44 177
49 16
26 217
19 159
24 16
34 5
29 178
19 33
30 182
46 191
50 23
22 27
17 53
61 85
51 149
28 169
52 145
58 103
53 50
51 19
61 86
29 11
15 62
15 76
16 57
49 121
30 183
15 120
52 221
51 214
