2 101
9 140
51 177
21 157
53 20
63 95
51 226
22 60
27 206
26 214
44 228
20 59
51 185
34 230
12 100
67 59
17 111
39 3
15 150
6 126
56 28
26 210
48 11
28 198
65 117
28 10
61 55
31 169
51 157
33 229
56 205
42 230
51 161
28 13
28 200
56 198
22 29
25 102
39 230
44 229
27 205
25 103
20 48
33 172
67 64
20 55
17 153
66 83
22 34
64 137
23 65
67 80
26 203
63 96
27 223
8 140
6 82
8 138
6 134
57 31
31 181
7 124
13 73
65 91
58 35
21 55
23 67
50 17
4 86
59 39
57 33
58 43
52 164
57 32
32 175
32 174
51 165
59 102
58 39
11 146
65 87
66 86
25 211
5 91
56 202
14 113
14 102
29 10
12 146
22 158
18 155
55 212
29 226
28 192
62 54
21 51
23 105
25 159
52 18
56 209
10 99
63 138
