2 133
14 143
63 227
18 105
40 171
8 79
63 16
21 104
18 154
36 189
11 128
39 10
4 95
5 83
16 151
28 171
41 226
83 103
51 228
74 218
56 7
39 9
20 103
75 92
93 114
29 32
17 113
75 69
78 169
82 99
39 223
24 167
82 91
15 151
74 83
23 46
94 158
9 104
76 86
53 5
97 123
77 76
21 66
87 64
14 145
26 38
4 94
85 59
97 130
39 159
10 132
88 164
5 95
66 25
61 228
4 92
75 66
11 135
98 137
98 142
69 150
88 77
34 21
20 66
26 41
75 214
40 175
4 91
38 221
5 90
21 100
97 121
27 38
37 159
11 132
70 34
22 107
20 62
34 20
71 36
89 164
36 169
37 152
74 78
76 87
50 227
74 198
37 163
76 77
98 147
61 14
86 82
76 76
97 127
88 79
40 167
76 204
75 207
75 82
76 70
70 33
3 96
37 160
23 48
35 18
73 221
93 157
87 166
74 68
77 75
85 85
79 81
80 98
83 104
75 83
37 162
71 169
39 147
22 165
76 92
70 165
41 164
5 93
11 124
73 184
41 163
35 213
22 163
30 29
23 103
36 214
85 89
35 174
24 166
