2 121
56 87
23 212
30 12
51 204
49 168
51 224
55 42
26 35
28 170
58 77
25 223
48 185
59 86
55 215
52 22
4 87
54 97
55 88
16 155
48 171
24 212
23 48
49 171
24 216
48 188
53 142
61 89
24 50
27 223
49 147
34 221
6 77
28 156
55 48
55 218
53 144
59 70
56 83
48 174
51 200
26 144
65 128
25 205
58 82
54 221
5 86
24 42
21 68
50 149
65 87
16 157
23 209
58 109
53 25
28 166
30 13
10 134
9 127
24 64
25 204
52 223
66 63
54 101
21 109
53 209
18 110
64 87
64 86
64 84
25 34
12 146
59 78
64 68
55 82
57 75
55 217
10 130
48 162
32 6
56 89
24 49
54 212
27 193
55 97
29 174
48 10
59 77
64 117
56 107
9 125
9 96
43 6
14 113
26 34
65 86
19 110
54 145
5 91
51 17
49 150
29 184
20 109
13 141
26 26
59 147
58 68
54 143
13 146
54 105
52 201
65 72
55 77
65 122
26 198
48 166
52 25
37 221
49 143
39 3
25 23
55 32
