2 122
40 4
13 148
62 104
56 231
27 18
61 195
15 66
44 234
59 47
53 18
25 221
14 68
22 170
62 223
65 95
18 61
69 151
14 151
19 55
58 30
21 99
64 184
64 62
5 86
30 186
66 113
14 69
28 169
32 164
57 176
55 23
65 94
59 167
25 207
25 177
45 4
25 26
58 168
69 148
27 188
18 51
59 44
60 171
69 152
68 119
60 42
39 6
32 168
47 233
50 233
59 40
58 178
70 81
61 49
8 123
58 230
65 181
32 161
53 19
32 178
55 231
26 203
65 212
61 57
69 126
9 125
21 46
13 146
57 32
69 140
31 181
62 100
15 155
28 192
58 170
51 13
14 106
26 219
24 34
30 181
58 176
69 145
66 63
30 185
11 113
68 163
26 28
31 12
53 20
27 154
32 156
70 132
30 227
50 12
4 92
17 103
26 201
30 183
68 155
60 183
16 99
64 99
20 48
67 118
63 60
70 128
24 176
58 169
56 26
28 162
68 123
68 154
22 39
63 202
28 153
65 111
11 101
60 184
5 91
22 42
65 219
49 234
