2 116
71 210
66 95
22 117
20 121
64 31
31 198
19 179
15 74
20 115
65 105
29 217
70 95
16 114
22 118
71 76
61 173
15 164
66 57
61 177
65 193
14 159
51 3
60 244
65 120
65 96
64 37
25 42
69 84
6 100
12 150
35 9
42 244
29 21
63 178
62 181
22 60
56 8
13 137
29 22
14 166
73 172
74 132
12 140
64 108
13 163
13 74
6 81
74 141
73 147
16 115
30 191
63 24
18 176
23 50
30 201
33 191
10 109
19 181
64 241
70 200
13 140
22 64
65 33
19 180
73 224
64 188
71 207
14 112
22 58
66 41
65 44
31 189
65 170
64 106
71 203
66 119
64 186
73 152
22 116
44 3
17 127
30 213
23 61
73 163
65 174
69 67
70 204
74 161
59 11
61 171
74 155
66 176
15 128
13 156
63 23
14 156
73 162
72 166
5 87
67 94
22 59
17 171
13 160
64 109
29 212
65 31
53 5
69 236
25 43
68 236
13 136
34 191
23 65
28 30
20 120
28 21
