2 133
64 195
76 99
62 23
39 72
43 19
64 61
17 83
25 74
24 146
79 137
60 9
37 188
78 159
23 147
75 98
31 85
56 223
55 228
5 98
60 157
61 208
68 84
74 91
22 79
41 210
47 241
45 228
17 72
66 187
44 227
66 55
78 149
79 123
43 221
10 100
79 141
67 161
79 139
62 166
80 127
78 148
46 232
42 219
24 143
35 160
31 72
44 37
34 161
62 35
19 66
78 112
2 107
40 48
38 172
51 238
62 155
37 182
4 100
37 190
31 74
12 86
57 216
9 91
15 74
11 85
37 197
25 151
22 138
14 89
38 198
20 83
80 143
41 165
38 72
61 33
66 185
78 111
44 22
76 104
80 137
36 179
23 130
79 120
57 219
79 155
79 149
68 42
65 59
43 39
62 26
41 216
61 21
24 105
21 83
66 182
39 208
41 212
23 61
44 77
72 87
22 130
9 89
61 29
26 155
22 129
75 103
66 61
23 137
63 76
15 91
43 45
65 193
63 79
24 148
41 47
42 78
27 71
78 120
8 95
79 116
23 134
47 238
44 18
25 59
41 75
38 168
26 72
32 73
79 122
40 206
79 146
4 112
16 73
