2 115
49 158
28 130
46 38
13 125
38 216
15 140
11 104
50 64
15 55
43 126
46 200
24 126
13 95
27 10
51 61
51 65
21 140
44 12
47 18
56 117
40 126
13 93
45 14
12 58
23 189
50 159
9 70
50 135
54 137
27 129
55 137
40 215
42 205
51 178
57 136
18 168
52 136
48 85
55 105
50 181
7 65
27 135
32 213
45 57
55 117
44 203
21 136
40 212
11 106
57 120
41 210
34 222
21 180
43 207
37 6
18 79
24 193
30 207
44 11
5 78
15 141
40 214
16 54
24 127
47 82
12 98
54 102
52 47
55 107
51 57
46 25
48 65
6 77
22 133
4 81
49 188
11 108
42 7
47 131
39 3
49 60
50 161
23 150
24 192
45 13
54 103
22 48
12 93
20 156
49 67
24 19
48 157
45 59
23 128
12 121
52 60
45 73
52 92
53 97
23 27
48 132
41 125
21 75
38 5
14 127
51 47
40 133
27 128
4 78
42 206
51 176
47 78
21 80
28 204
49 64
