2 107
54 137
14 164
50 63
55 80
23 182
53 135
46 169
42 12
18 114
45 25
18 59
27 185
56 152
47 91
12 127
24 181
12 96
17 184
16 180
46 45
48 108
39 239
54 83
39 3
24 27
26 180
17 115
32 9
20 50
48 124
53 70
46 168
25 212
21 42
14 122
51 130
17 63
47 99
48 113
50 202
23 37
53 137
27 20
44 19
54 82
12 158
55 171
11 143
36 240
52 96
57 161
22 184
46 41
13 127
26 183
54 87
51 214
50 220
46 39
12 129
54 84
12 153
46 38
49 232
47 42
50 205
12 140
25 196
25 192
14 168
49 203
16 183
14 163
14 125
53 91
22 40
44 20
36 4
29 227
55 87
50 199
46 36
28 15
56 155
14 169
49 199
47 32
54 171
16 176
25 197
25 205
54 73
25 206
55 143
13 165
28 226
47 182
11 130
14 160
47 94
26 208
16 181
57 164
49 231
23 33
27 225
47 56
