2 123
12 142
35 8
29 81
71 107
59 207
26 52
49 19
31 139
38 144
30 196
47 10
32 190
30 22
18 57
26 35
42 213
54 49
71 80
71 73
38 157
59 76
65 98
33 14
50 37
59 51
59 157
64 80
59 193
33 10
46 11
60 88
40 174
49 46
62 158
68 60
5 164
62 97
11 154
56 184
11 163
67 121
31 209
11 134
61 198
12 135
8 129
22 70
9 156
54 211
50 32
63 53
71 78
27 201
30 26
63 149
38 145
61 52
38 181
10 98
26 89
25 52
51 167
22 71
57 50
24 70
34 187
55 183
37 5
14 142
6 114
52 173
51 211
14 64
52 155
58 74
48 40
48 42
8 122
19 153
5 116
70 70
58 155
28 143
14 61
7 110
17 154
29 80
4 109
15 143
35 136
51 153
42 212
25 49
71 103
55 78
72 78
45 6
21 71
40 172
55 186
66 83
6 107
19 56
62 203
53 67
55 184
63 151
63 155
58 93
40 171
66 126
25 38
5 115
8 120
49 27
59 75
13 139
38 149
12 59
67 131
28 208
46 212
41 4
