2 117
30 207
12 115
54 145
23 45
44 15
6 96
40 8
56 187
26 26
54 146
45 37
6 113
62 56
58 69
45 38
61 195
19 128
17 131
59 47
36 208
30 205
33 135
31 124
13 123
58 136
62 106
46 208
18 67
9 95
48 91
11 124
15 66
7 106
10 92
63 103
32 206
50 59
9 92
63 95
62 104
57 72
58 80
65 67
47 163
23 79
7 88
60 126
14 120
57 74
62 99
17 124
7 97
30 192
53 181
24 56
41 209
24 34
56 83
3 98
20 131
38 168
48 162
46 141
44 209
45 28
46 36
16 128
17 85
62 73
61 194
9 94
16 65
60 124
44 24
23 70
32 139
32 7
24 71
59 125
40 9
63 105
35 154
61 108
55 65
58 137
33 207
33 137
62 199
57 80
9 101
26 30
24 76
26 127
41 7
24 33
23 48
43 18
13 121
43 209
55 205
61 95
43 12
24 37
58 68
50 208
48 163
18 66
16 126
29 125
64 62
36 159
24 50
23 129
48 149
17 134
38 178
11 123
