2 141
108 138
97 48
105 74
58 87
47 103
22 99
109 208
108 114
109 157
75 196
33 92
95 216
55 91
79 4
84 173
73 161
108 71
49 86
27 93
70 27
86 215
81 161
76 195
108 145
96 144
14 108
96 145
73 157
48 120
79 5
82 166
67 41
110 161
67 37
80 155
16 104
67 29
48 122
16 102
81 183
109 114
46 113
71 20
72 162
107 103
12 108
76 148
53 84
12 110
52 123
98 180
15 104
96 175
102 157
31 80
73 160
100 49
108 127
106 164
91 217
96 78
90 31
59 144
74 158
73 13
4 125
102 155
93 155
87 17
62 151
17 103
46 116
54 131
72 19
31 92
92 46
27 85
103 75
3 130
92 43
103 159
105 103
109 203
41 88
25 89
110 149
67 39
68 30
78 211
14 104
76 196
50 98
93 157
95 167
8 117
107 212
56 61
83 215
51 127
103 158
106 103
108 129
82 214
98 216
22 93
110 155
103 49
56 91
56 90
67 38
67 48
67 49
90 34
49 98
66 35
110 59
68 51
95 86
108 121
63 149
80 145
48 119
107 200
8 121
95 145
40 72
76 194
32 91
109 156
66 169
7 121
46 68
93 48
60 60
67 167
71 25
46 67
105 189
66 161
107 165
61 82
