2 108
59 39
67 68
34 29
42 143
14 99
63 178
28 47
21 49
47 212
31 135
74 108
43 140
68 204
59 18
48 212
59 172
14 102
75 94
62 133
14 101
14 65
20 73
33 140
73 146
49 7
12 96
58 214
38 193
8 85
36 25
17 65
38 190
75 134
21 72
59 165
67 80
35 26
74 98
4 62
46 167
45 156
75 99
38 137
42 208
60 41
36 20
36 22
74 88
59 26
39 18
26 129
44 152
59 160
21 120
59 38
64 209
53 3
32 39
20 67
77 125
6 56
60 149
69 82
41 182
42 178
24 126
73 100
6 57
45 165
46 164
59 41
60 162
77 116
11 81
58 14
74 113
71 57
22 49
36 27
68 140
16 65
60 30
60 164
6 64
23 49
17 64
69 197
61 177
31 44
44 158
9 87
72 102
72 145
58 17
71 145
74 142
59 31
44 212
8 55
68 82
60 148
24 123
70 147
44 153
60 166
60 139
48 8
44 162
