2 116
10 14
63 48
9 103
74 169
53 12
72 177
9 159
14 188
6 57
4 13
55 220
38 4
10 15
27 200
75 156
51 233
54 233
73 103
15 46
9 161
7 70
69 184
51 198
8 145
8 143
24 11
52 211
74 148
17 15
9 81
78 39
71 38
10 133
69 187
62 34
63 84
9 76
9 171
63 50
64 59
57 201
8 83
49 234
9 99
75 135
70 181
56 231
54 199
13 25
8 138
62 199
10 94
74 138
9 106
7 75
63 36
63 80
15 42
9 118
21 200
52 12
54 223
53 13
73 174
74 135
63 38
5 56
8 80
16 46
68 35
73 173
10 99
21 14
51 213
9 22
5 66
8 136
74 156
3 15
51 11
25 201
10 115
9 87
68 190
9 95
46 5
61 200
8 153
8 86
66 194
71 178
28 217
66 35
12 19
10 176
65 72
73 41
8 74
49 205
11 15
54 17
75 124
13 24
75 109
67 191
75 108
28 231
76 119
9 144
55 221
9 143
64 72
76 38
6 65
67 98
56 229
