2 123
75 115
38 10
84 56
59 191
77 143
71 183
74 98
13 133
35 10
12 99
5 73
4 69
72 64
47 11
16 153
80 49
13 118
67 61
15 149
76 68
78 145
23 46
25 180
32 202
34 200
74 113
63 198
16 156
65 217
76 98
43 10
20 13
72 111
77 123
34 9
65 189
25 28
8 86
73 113
37 12
78 141
66 54
25 29
23 45
15 150
66 55
69 50
21 25
58 15
77 149
15 153
38 226
41 6
34 12
7 80
25 16
46 227
47 226
60 223
13 139
5 77
7 58
65 212
76 158
76 119
38 14
5 62
22 22
76 120
74 99
24 179
22 174
71 181
66 210
67 44
5 70
38 225
63 219
70 63
22 17
60 187
17 157
38 8
33 17
76 51
32 205
77 129
17 11
71 64
24 41
83 51
15 115
73 51
65 216
16 113
4 63
63 199
79 130
5 61
31 212
35 222
32 210
33 204
48 12
18 168
14 149
22 176
61 221
22 24
42 13
15 51
26 181
72 177
63 188
21 12
84 90
11 95
76 66
79 47
34 223
75 160
76 115
81 74
