2 90
51 43
5 120
18 25
5 134
54 154
44 176
19 182
50 28
6 143
18 166
49 15
6 144
53 154
16 166
57 103
57 98
56 40
60 76
57 84
3 111
5 50
18 23
19 21
62 40
15 35
35 196
29 6
4 57
52 46
63 47
58 95
55 144
39 4
29 196
52 40
57 117
55 132
4 122
53 40
4 74
3 89
52 55
56 111
36 196
57 122
66 45
19 27
57 92
54 39
53 48
3 98
5 53
14 164
18 185
61 75
39 195
24 171
4 66
60 45
4 95
23 171
4 101
47 11
18 28
52 58
53 34
4 127
6 46
24 10
57 114
43 176
51 20
56 132
51 30
4 104
4 135
6 145
57 123
3 73
47 167
58 92
60 86
33 5
19 185
23 193
6 49
61 40
42 167
57 112
4 124
