2 113
70 76
62 125
77 59
67 51
28 217
50 17
28 209
36 240
52 199
65 137
18 45
8 99
26 9
3 67
24 225
62 49
5 77
65 136
27 213
7 100
60 113
17 44
13 20
67 142
11 150
15 180
17 192
15 17
56 234
11 157
66 71
12 60
6 87
65 169
17 188
68 75
65 134
21 197
57 37
27 235
29 197
25 197
60 112
7 96
9 109
5 83
60 117
32 201
50 237
76 54
18 188
10 143
17 29
14 27
5 64
62 51
53 221
63 183
8 109
61 49
27 222
54 28
18 48
58 46
60 122
64 187
14 20
10 132
61 109
45 6
73 54
65 167
48 11
28 236
10 154
9 60
11 127
63 51
35 5
23 229
50 206
68 52
7 90
49 203
70 62
54 220
57 40
13 58
26 197
13 120
76 58
62 100
53 25
50 205
9 143
30 8
18 49
11 153
57 39
60 106
12 117
17 52
9 103
46 7
28 235
67 151
12 127
66 151
67 72
78 55
56 232
7 95
47 238
