141 1
141 2
141 3
141 4
141 5
141 6
142 7
142 8
142 9
142 10
141 11
140 10
139 10
138 10
138 11
138 12
138 13
139 14
138 15
137 15
137 16
136 17
135 16
134 16
133 16
132 16
132 17
132 18
131 19
131 20
130 21
129 20
128 20
127 20
126 20
126 21
125 22
124 22
123 22
123 23
123 24
123 25
122 26
121 26
120 26
119 26
119 27
119 28
119 29
120 29
121 30
122 31
123 31
124 31
125 31
126 32
125 33
124 33
123 33
122 33
121 34
120 34
119 34
118 34
117 34
116 34
115 34
114 34
113 34
112 34
111 34
110 34
109 34
108 34
107 34
106 34
105 34
104 34
103 34
102 34
101 34
100 34
99 34
98 34
97 35
96 35
95 35
94 35
93 35
92 35
91 35
90 35
89 35
88 35
87 36
86 36
85 36
84 36
83 36
82 36
81 36
80 36
79 36
78 37
77 37
76 37
75 37
74 37
73 37
72 37
71 37
70 37
69 37
68 37
67 38
66 38
66 39
65 40
64 40
63 40
62 40
61 41
60 40
59 40
58 40
57 40
56 40
55 40
54 40
53 40
52 41
51 42
50 42
49 42
48 42
47 42
46 42
45 42
44 42
43 42
42 42
41 42
40 41
39 41
38 41
37 41
36 41
35 41
34 41
33 40
32 40
31 40
30 40
29 40
28 40
27 39
26 39
25 39
24 39
23 39
22 39
21 38
20 38
19 38
18 38
17 38
16 38
15 38
14 38
13 38
12 38
11 38
10 38
9 38
8 37
7 37
6 37
5 37
4 37
3 38
2 38
2 39
2 40
2 41
2 42
3 42
4 42
5 43
6 43
7 44
8 44
9 44
10 45
11 45
12 46
13 47
14 47
15 47
16 48
17 49
18 49
19 50
20 51
21 51
22 52
23 53
24 53
25 54
24 55
23 55
22 56
21 57
20 58
19 59
18 60
17 61
16 62
16 63
15 64
14 65
13 65
12 66
11 67
10 67
9 68
8 69
7 69
6 70
6 71
6 72
6 73
7 73
8 73
9 73
10 73
11 73
12 73
13 73
14 73
15 73
16 72
17 72
18 72
19 72
20 72
21 71
22 71
23 70
24 70
25 69
26 69
27 69
28 68
29 67
30 67
31 67
32 66
33 66
34 66
35 65
36 65
37 65
38 64
39 64
40 63
41 63
42 62
43 62
44 62
45 61
46 61
47 60
48 59
49 59
50 60
51 60
52 60
53 60
54 60
55 60
56 60
57 60
58 60
59 60
60 60
61 60
62 60
63 61
63 62
64 62
65 62
66 62
67 62
68 62
69 62
70 61
71 62
72 63
72 64
72 65
73 66
74 66
75 66
76 66
77 67
77 68
78 68
79 68
80 68
81 67
82 68
82 69
83 69
84 69
85 70
86 70
87 70
88 70
89 69
90 69
91 69
92 70
91 71
90 72
90 73
90 74
90 75
91 75
92 75
93 76
94 76
95 76
96 76
97 76
98 75
99 76
99 77
100 77
101 77
102 76
103 76
104 76
105 76
106 75
107 74
108 74
109 73
110 73
111 73
112 73
113 72
113 71
114 70
114 69
115 68
116 68
117 69
117 70
118 70
119 71
119 72
120 72
121 72
122 72
123 72
124 72
125 73
126 73
127 73
128 74
129 74
130 74
131 74
132 75
133 75
134 75
135 75
136 75
137 76
138 76
139 76
140 77
141 77
142 77
143 77
144 78
143 79
142 79
141 79
140 79
139 79
138 79
137 79
136 79
135 79
134 79
134 80
134 81
133 82
132 83
131 83
131 84
131 85
131 86
132 86
133 86
134 87
135 87
136 87
137 87
138 87
139 87
140 88
141 89
141 90
142 90
143 91
144 91
145 91
146 91
147 91
148 91
149 92
149 93
150 93
151 93
152 93
153 93
154 93
155 93
156 93
157 93
158 93
159 94
159 95
160 95
161 95
162 95
163 95
164 95
165 94
166 95
167 95
168 95
169 94
170 93
171 93
172 93
173 93
174 92
175 92
176 92
177 92
178 92
179 92
180 91
180 90
181 89
182 88
182 87
183 86
184 86
185 85
186 84
187 83
188 83
189 82
190 82
191 82
192 81
193 81
194 81
195 81
196 80
197 80
198 80
199 79
200 79
201 79
202 79
203 78
204 78
205 78
206 78
207 78
208 77
209 77
210 76
211 76
212 76
213 75
214 75
215 75
216 75
217 74
218 73
219 73
220 72
221 72
222 72
223 71
224 71
225 71
226 70
227 70
228 70
229 70
230 70
231 69
232 69
233 69
234 69
235 68
236 68
237 67
238 67
239 67
240 66
241 66
242 65
242 64
243 63
244 62
245 61
246 60
247 59
248 58
249 57
249 56
250 55
250 54
251 53
251 52
251 51
251 50
250 50
249 49
248 49
247 49
246 48
247 47
247 46
248 45
248 44
248 43
248 42
248 41
247 41
246 40
245 40
244 39
243 38
242 37
241 37
240 36
239 36
238 36
237 36
236 36
235 36
234 36
233 36
232 36
231 36
230 36
229 36
228 36
227 36
226 36
225 36
224 37
223 37
222 37
221 37
220 37
219 37
218 37
217 37
216 37
215 36
214 36
213 36
212 36
211 36
210 36
209 36
208 36
207 36
206 36
205 36
204 36
203 36
202 36
201 35
200 35
199 35
198 35
197 35
196 35
195 35
194 35
193 35
192 35
191 35
190 34
189 34
188 34
187 34
186 34
185 34
184 34
183 34
182 34
181 33
180 33
179 33
178 33
177 33
176 33
175 33
174 33
173 33
172 33
171 33
170 33
169 32
168 32
167 32
166 32
165 31
164 30
165 29
164 29
163 28
164 27
163 27
162 26
161 25
162 24
161 24
160 23
159 22
160 21
159 21
158 20
159 19
159 18
158 18
157 17
156 16
157 15
156 15
155 14
156 13
155 13
154 12
153 11
152 10
153 9
152 9
151 8
150 7
149 6
148 5
147 4
146 3
145 2
144 2
143 1
142 1
