116 2
115 3
114 3
113 3
112 3
111 3
110 3
109 3
108 3
107 3
106 3
105 3
104 3
103 3
102 3
101 3
100 3
99 3
98 4
97 4
96 4
95 4
94 4
93 4
92 4
91 4
90 4
89 5
88 5
87 5
86 6
85 6
84 5
83 5
82 5
81 6
80 6
79 6
78 6
77 6
76 7
75 7
74 6
73 6
72 7
71 7
70 8
69 7
68 7
67 8
66 7
65 7
64 8
63 8
62 7
61 7
60 8
59 8
58 8
57 8
56 8
55 8
54 9
53 8
52 8
51 9
50 9
49 9
48 9
47 10
46 10
45 10
44 10
43 10
42 10
41 10
40 10
39 10
38 10
37 10
36 10
35 10
34 11
33 11
32 11
31 11
30 11
29 11
28 11
27 11
26 11
25 11
24 11
23 12
22 12
21 11
20 11
19 12
18 12
17 12
16 13
15 13
14 13
13 14
12 14
11 15
10 15
9 15
8 15
7 16
6 17
5 18
4 18
3 19
2 20
2 21
2 22
2 23
2 24
3 25
4 26
5 26
6 26
7 27
8 27
9 27
10 28
9 29
8 29
7 29
6 30
5 30
5 31
6 32
7 32
8 32
9 32
10 32
11 32
12 32
13 32
14 32
15 32
16 32
17 32
18 33
19 33
20 33
21 33
22 33
23 34
24 34
25 34
26 34
27 34
28 34
29 34
30 34
31 34
32 34
33 35
34 35
35 35
36 35
37 35
38 35
39 36
40 36
41 36
42 36
43 36
44 36
45 36
46 37
47 37
48 37
49 37
50 38
51 39
52 40
53 41
54 42
55 43
56 44
57 45
58 46
59 47
59 48
60 49
61 50
62 51
63 51
63 50
64 49
63 49
62 48
62 47
61 47
60 46
60 45
59 44
59 43
58 43
57 42
56 41
55 40
56 39
57 38
58 38
59 38
60 38
61 38
62 38
63 38
64 38
65 38
66 38
67 38
68 38
69 38
70 38
71 39
72 39
73 40
74 40
75 40
76 41
77 41
78 42
79 42
80 42
81 43
82 44
83 44
84 44
85 45
86 45
87 45
88 46
89 46
90 46
91 47
92 47
93 48
94 48
94 47
95 46
96 45
97 44
98 44
99 44
100 44
101 44
101 43
102 42
103 42
104 43
104 42
105 41
106 40
107 40
108 40
109 40
110 40
111 40
112 40
113 40
114 40
115 40
116 40
117 40
118 40
119 40
120 40
121 40
122 40
123 39
124 39
125 40
126 40
127 40
128 40
129 40
130 40
131 40
132 39
133 39
134 40
135 40
136 40
137 40
138 40
139 40
140 40
141 41
142 41
143 42
144 42
145 43
146 43
147 43
148 43
149 44
150 44
151 44
152 44
153 44
154 44
155 44
156 44
157 44
158 44
159 44
160 45
161 45
162 45
163 45
164 45
165 45
166 45
167 45
168 45
169 45
170 45
171 45
172 45
173 45
174 45
175 45
176 45
177 45
178 45
179 45
180 45
181 45
182 45
183 45
184 45
185 45
186 44
187 44
188 44
189 44
190 44
191 44
192 44
193 44
194 44
195 44
196 44
197 44
198 44
199 44
200 44
201 44
202 44
203 44
204 44
205 44
206 44
207 43
208 43
209 43
210 43
211 43
212 43
213 43
214 43
215 43
216 43
217 43
218 43
219 43
220 43
221 43
222 43
223 43
224 43
225 43
226 43
227 43
228 42
229 42
230 42
231 42
232 42
233 42
234 42
235 42
236 42
237 42
238 42
239 42
240 42
241 42
242 42
243 41
244 42
245 41
246 41
247 41
248 41
249 41
250 40
251 40
252 40
253 40
254 40
255 40
256 40
257 40
258 40
259 39
260 39
261 39
262 39
263 39
264 39
265 39
266 38
267 38
268 38
269 38
270 38
271 38
272 38
273 38
274 38
275 37
276 37
277 37
278 37
279 37
280 36
280 35
279 34
280 33
281 33
282 33
283 33
284 33
285 34
286 34
287 34
288 35
289 35
290 35
291 36
292 36
293 36
294 36
295 37
296 37
297 37
298 38
299 38
300 38
301 38
302 39
303 39
304 39
305 39
306 40
307 40
308 40
309 40
310 40
311 39
311 38
312 37
312 36
312 35
312 34
313 33
313 32
313 31
313 30
313 29
313 28
313 27
313 26
313 25
313 24
313 23
312 23
311 22
312 21
312 20
312 19
311 19
310 18
309 18
308 18
307 18
306 18
305 18
304 18
303 19
302 19
301 19
300 19
299 20
298 20
297 20
296 20
295 21
294 21
293 22
292 22
291 22
290 22
289 22
288 23
287 23
286 23
285 23
284 24
283 24
282 24
281 24
280 24
279 23
279 22
280 21
279 21
278 21
277 21
276 21
275 21
274 21
273 21
272 20
271 20
270 20
269 20
268 20
267 20
266 20
265 20
264 19
263 19
262 19
261 19
260 19
259 18
258 18
257 17
256 17
255 17
254 17
253 16
252 16
251 16
250 16
249 16
248 16
247 16
246 16
245 16
244 16
243 16
242 15
241 15
240 15
239 15
238 14
237 14
236 15
235 15
234 14
233 14
232 14
231 13
230 13
229 14
228 14
227 13
226 13
225 13
224 12
223 13
222 13
221 13
220 13
219 13
218 13
217 12
216 12
215 11
214 11
213 11
212 11
211 11
210 11
209 10
208 10
207 10
206 10
205 10
204 10
203 10
202 9
201 9
200 9
199 9
198 9
197 9
196 9
195 8
194 8
193 8
192 8
191 8
190 8
189 8
188 7
187 7
186 7
185 7
184 7
183 7
182 7
181 7
180 6
179 6
178 6
177 6
176 6
175 6
174 6
173 5
172 5
171 5
170 5
169 5
168 5
167 5
166 4
165 4
164 4
163 4
162 4
161 4
160 4
159 3
158 3
157 3
156 3
155 3
154 3
153 3
152 3
151 3
150 3
149 3
148 2
147 2
146 3
145 3
144 2
143 3
142 3
141 3
140 3
139 2
138 2
137 3
136 3
135 2
134 2
133 2
132 2
131 3
130 2
129 2
128 2
127 2
126 3
125 2
124 2
123 2
122 3
121 3
120 3
119 3
118 2
117 2
