163 2
162 3
162 4
163 5
164 6
165 6
166 7
167 8
168 9
169 10
170 10
171 11
172 12
173 12
174 13
175 13
176 14
177 15
178 16
179 17
180 18
181 19
182 20
183 21
184 22
185 23
184 24
183 24
182 24
182 25
182 26
182 27
182 28
181 29
180 29
179 29
178 28
177 28
176 27
175 26
174 25
173 25
172 25
171 24
170 24
169 23
168 23
167 22
166 22
165 22
164 22
163 22
163 23
164 24
164 25
165 26
165 27
166 28
165 29
164 30
163 30
162 30
161 30
160 30
159 29
158 29
157 28
156 27
155 27
154 27
153 26
152 26
151 26
150 26
149 25
148 25
147 25
146 25
146 26
146 27
147 28
148 29
148 30
147 31
146 31
145 31
144 31
143 32
142 32
141 31
142 30
141 30
140 30
139 29
138 29
137 28
136 28
135 28
134 27
133 27
132 27
131 27
130 27
130 28
130 29
131 30
131 31
132 32
132 33
131 34
130 34
129 34
128 34
127 34
126 34
125 35
124 35
123 35
122 35
121 35
120 36
119 36
118 36
117 36
116 36
115 36
114 36
113 36
112 36
111 36
110 36
109 36
108 36
107 36
106 37
105 37
104 37
103 37
102 37
101 37
100 37
99 37
98 37
97 37
96 37
95 37
94 37
93 37
92 36
91 36
90 36
89 36
88 36
87 36
86 36
85 36
84 36
83 36
82 36
81 35
80 35
79 35
78 35
77 35
76 34
75 34
74 34
73 34
72 33
71 33
70 33
69 32
68 32
67 32
66 31
65 31
64 30
63 30
62 30
61 29
60 29
59 28
58 28
57 28
56 27
55 27
54 26
53 26
52 26
51 25
50 25
49 24
48 24
47 24
46 23
45 23
44 23
43 23
42 23
41 23
40 24
39 24
38 25
37 26
36 26
36 27
35 28
35 29
35 30
35 31
35 32
35 33
36 34
36 35
36 36
36 37
36 38
35 39
35 40
34 41
34 42
33 43
32 44
31 45
30 46
29 46
28 47
27 47
26 46
25 47
24 47
23 47
22 47
21 47
20 47
19 47
18 47
17 47
16 47
15 47
14 47
13 47
12 47
11 48
10 48
9 49
8 49
7 50
6 50
5 51
5 52
4 53
4 54
3 55
3 56
3 57
2 58
2 59
2 60
3 61
3 62
4 62
5 62
6 63
7 64
8 65
9 65
9 64
10 63
11 63
12 63
13 63
14 63
15 63
16 63
17 64
18 64
19 64
20 64
21 64
22 64
23 64
24 64
25 64
26 64
27 64
28 64
29 64
30 63
31 63
32 63
33 64
34 63
35 64
36 63
37 63
38 63
39 63
40 63
41 63
42 63
43 63
44 63
45 63
46 62
47 62
48 62
49 62
50 62
51 62
52 62
53 62
54 62
55 62
56 61
57 61
58 61
59 61
60 61
61 61
62 61
63 61
64 61
65 61
66 61
67 60
68 60
69 60
70 60
71 60
72 60
73 60
74 60
75 60
76 60
77 60
78 60
79 60
80 60
81 60
82 60
83 60
84 60
85 60
86 60
87 60
88 60
89 60
90 61
91 61
92 61
93 61
94 61
95 61
96 62
97 62
98 62
99 62
100 62
101 62
102 63
103 63
104 63
105 63
106 63
107 64
108 64
109 64
110 64
111 64
112 64
113 65
114 65
115 65
116 66
117 66
118 66
119 66
120 66
121 67
122 67
123 67
124 67
125 67
126 67
127 68
128 68
129 68
130 68
131 68
132 68
133 68
134 69
135 69
136 69
137 69
138 69
139 69
140 69
141 70
142 70
143 70
144 70
145 70
146 70
147 70
148 71
149 71
150 71
151 71
152 71
153 71
154 72
155 72
156 72
157 72
158 72
159 73
160 74
161 74
162 74
163 74
164 74
165 75
166 75
167 75
168 75
169 76
169 77
169 78
170 78
171 78
172 78
173 78
174 78
175 78
176 78
177 79
178 79
179 79
180 79
181 79
182 79
183 80
184 80
185 80
186 80
187 81
188 81
189 81
190 81
191 81
192 81
193 81
194 81
195 81
196 82
197 82
198 82
199 81
200 82
201 82
202 82
203 82
204 82
205 82
206 82
207 82
208 82
209 82
210 82
211 82
212 82
213 82
214 82
215 82
216 82
217 82
218 82
219 82
220 82
221 82
222 82
223 82
224 81
225 81
226 81
227 81
228 81
229 81
230 81
231 81
232 81
233 81
234 80
235 80
236 80
237 80
238 80
239 80
240 80
241 80
242 80
243 80
244 79
245 79
246 79
247 79
248 79
249 79
250 79
251 79
252 78
253 78
254 78
255 78
256 78
257 78
258 77
259 77
260 77
261 77
262 77
263 76
264 76
265 76
266 76
267 76
268 76
269 75
270 75
271 75
272 75
273 75
274 75
275 76
276 75
276 74
277 73
278 72
279 72
280 71
281 70
282 70
283 70
284 70
285 70
286 70
287 70
288 70
289 70
290 69
291 69
292 69
293 69
294 69
295 69
296 68
297 68
298 68
299 68
300 68
301 67
302 67
303 67
304 67
305 67
306 67
307 67
308 67
309 67
310 67
311 67
312 67
313 66
314 66
314 65
315 64
315 63
315 62
314 62
313 61
312 61
311 60
310 60
309 60
308 59
307 59
306 59
305 59
304 59
303 58
302 58
301 58
300 58
299 57
298 57
297 57
296 56
295 56
294 56
293 55
292 55
291 55
290 54
289 54
288 54
287 53
286 53
285 52
284 52
283 51
282 51
281 50
280 50
279 49
278 49
277 48
276 48
275 47
274 47
273 46
272 46
271 46
270 46
269 46
268 45
267 45
266 45
265 45
264 45
263 45
262 45
261 45
260 45
259 45
258 44
257 44
256 43
255 43
254 42
253 42
252 41
251 41
250 41
249 40
248 40
247 39
246 39
245 39
244 38
243 38
242 38
241 37
240 37
239 37
238 37
237 36
236 36
235 35
234 35
233 35
232 34
231 34
230 33
229 33
228 33
227 32
226 32
225 32
224 31
223 31
222 30
221 30
220 30
219 29
218 29
217 29
216 28
215 28
214 28
213 28
212 27
211 27
210 27
209 27
208 26
207 26
206 26
205 26
204 25
203 25
202 24
201 23
200 22
199 22
198 21
197 20
196 20
195 19
194 18
193 17
192 17
191 16
190 15
189 14
188 13
187 13
186 12
185 12
184 11
183 10
182 10
181 9
180 8
179 8
178 7
177 6
176 6
175 5
174 5
173 5
172 4
171 4
170 3
169 3
168 3
167 2
166 2
165 2
164 2
