196 2
195 3
194 3
193 3
192 3
191 4
190 4
189 4
188 5
187 6
186 7
185 7
184 8
183 9
182 9
181 9
180 10
179 10
178 11
177 12
176 13
175 13
174 14
173 14
172 15
171 15
170 15
169 14
168 14
167 14
166 14
165 14
164 14
163 14
162 13
161 13
160 13
159 13
158 13
157 13
156 13
155 13
154 13
153 12
152 12
151 12
150 12
149 12
148 12
147 12
146 12
145 12
144 12
143 12
142 12
141 11
140 11
139 11
138 11
137 11
136 11
135 11
134 11
133 11
132 11
131 11
130 11
129 11
128 11
127 11
126 11
125 11
124 11
123 11
122 11
121 11
120 11
119 11
118 11
117 11
116 11
115 11
114 11
113 11
112 11
111 11
110 11
109 11
108 11
107 11
106 11
105 11
104 11
103 11
102 10
103 9
103 8
102 8
101 7
100 7
99 8
98 8
97 8
96 8
95 8
94 8
93 9
92 9
91 9
90 9
89 9
88 9
87 10
86 10
85 10
84 10
83 10
82 11
81 11
80 11
79 11
78 11
77 12
76 12
75 12
74 12
73 12
72 12
71 13
70 13
69 13
68 13
67 13
66 13
65 13
64 14
63 14
62 14
61 14
60 14
59 14
58 14
57 14
56 15
55 15
54 15
53 15
52 15
51 15
50 16
49 16
48 16
47 16
46 17
45 17
44 17
43 17
42 18
41 18
40 18
39 18
38 18
37 18
36 19
35 19
34 19
33 19
32 20
31 20
30 21
29 21
28 21
27 21
26 21
25 22
24 22
23 22
22 22
21 22
20 23
19 24
19 25
19 26
19 27
20 28
19 29
18 29
17 29
16 30
15 30
14 30
13 31
12 31
11 32
10 33
9 33
9 34
8 35
7 35
6 36
6 37
6 38
5 39
4 40
3 40
2 40
2 41
3 42
3 43
3 44
4 45
5 46
6 46
7 46
8 47
9 47
10 48
11 49
12 49
13 49
14 49
15 49
16 49
17 50
18 50
19 50
20 50
21 50
22 51
23 51
24 51
25 51
26 52
27 52
28 52
29 52
30 52
31 53
32 53
33 53
34 53
35 53
36 54
37 54
38 54
39 54
40 54
41 54
42 54
43 54
44 54
45 55
46 55
47 55
48 55
49 55
50 55
51 55
52 55
53 55
54 55
55 55
56 55
57 55
58 55
59 55
60 55
61 55
62 55
63 55
64 55
65 55
66 55
67 55
68 55
69 56
70 56
71 56
72 56
73 56
74 56
75 56
76 56
77 56
78 56
79 56
80 56
81 56
82 56
83 56
84 57
85 58
85 59
86 60
86 61
87 62
88 63
88 64
89 65
90 66
91 66
92 67
92 68
93 68
94 69
95 70
96 70
97 71
98 72
99 73
100 74
101 74
102 75
103 75
104 76
105 77
106 77
107 78
108 79
109 80
110 81
111 82
112 82
113 82
114 83
115 83
116 82
117 82
118 81
118 80
119 79
119 78
120 77
119 77
118 76
119 75
119 74
119 73
118 73
117 72
118 71
117 71
116 70
117 69
117 68
116 68
115 67
116 66
115 66
114 65
115 64
114 64
113 63
114 62
114 61
114 60
115 59
116 58
117 58
118 58
119 58
120 58
121 58
122 58
123 57
124 57
125 57
126 57
127 57
128 57
129 57
130 57
131 57
132 57
133 57
134 57
135 57
136 57
137 57
138 57
139 57
140 57
141 57
142 57
143 57
144 57
145 57
146 57
147 57
148 57
149 57
150 57
151 57
152 57
153 57
154 57
155 57
156 57
157 57
158 57
159 57
160 57
161 57
162 57
163 57
164 57
165 57
166 57
167 57
168 57
169 57
170 58
171 58
172 59
173 60
173 61
174 62
175 63
176 64
176 65
177 66
178 67
179 68
180 68
181 69
182 69
183 70
184 70
185 70
186 70
187 70
188 70
189 71
189 70
190 69
191 69
192 69
193 69
194 68
195 68
196 68
197 68
198 67
199 67
200 67
201 66
202 66
203 66
204 66
205 66
206 65
207 65
208 65
209 65
210 64
211 64
212 64
213 63
214 63
215 63
216 63
217 63
218 62
219 62
220 62
221 62
222 61
223 61
224 61
225 61
226 61
227 61
228 60
229 60
230 60
231 60
232 60
233 59
234 59
235 59
236 59
237 59
238 59
239 58
240 58
241 58
242 58
243 58
244 58
245 58
246 58
247 58
248 58
249 58
250 58
251 58
252 58
253 58
254 58
255 58
256 58
257 58
258 58
259 58
260 58
261 58
262 58
263 58
264 57
265 57
266 57
267 57
268 56
269 56
269 55
270 54
270 53
270 52
270 51
271 50
272 50
273 50
274 50
275 50
276 50
277 50
278 50
279 50
280 50
281 51
282 51
283 51
284 51
285 51
286 51
287 51
288 51
289 51
290 51
291 51
292 52
293 52
294 52
295 52
296 52
297 53
298 53
299 54
300 54
301 54
302 55
303 55
304 55
305 56
306 57
307 57
308 57
309 58
310 58
311 59
312 59
313 59
314 60
315 60
316 60
317 61
318 61
319 61
320 62
321 62
322 63
323 63
324 63
325 63
326 64
327 64
328 65
329 65
330 65
331 65
332 66
333 66
334 66
335 66
336 67
337 67
338 67
339 67
340 68
341 68
342 68
343 68
344 68
345 69
346 69
347 68
347 67
348 66
348 65
347 65
346 64
345 63
344 62
345 61
344 61
343 60
342 59
341 58
342 57
341 57
340 57
339 56
340 55
339 55
338 54
339 53
338 53
337 52
336 51
335 50
336 49
336 48
336 47
335 47
334 46
335 45
335 44
335 43
335 42
335 41
335 40
335 39
335 38
336 37
336 36
336 35
336 34
337 33
338 32
338 31
339 30
339 29
339 28
340 27
341 26
341 25
342 24
342 23
342 22
343 21
343 20
343 19
342 19
341 19
340 18
339 18
338 19
337 19
336 19
335 19
334 19
333 19
332 20
331 20
330 21
329 21
328 21
327 21
326 21
325 22
324 22
323 22
322 22
321 23
320 23
319 24
318 24
317 24
316 25
315 25
314 25
313 26
312 26
311 26
310 27
309 27
308 28
307 28
306 28
305 29
304 29
303 29
302 30
301 30
300 30
299 30
298 31
297 31
296 32
295 32
294 33
293 33
292 33
291 33
290 34
289 33
288 33
287 33
286 33
285 33
284 33
283 33
282 33
281 33
280 33
279 32
278 32
277 32
276 32
275 32
274 31
273 31
272 30
273 29
274 28
275 28
276 27
276 26
277 25
276 25
275 24
274 24
273 24
272 24
271 23
270 23
269 23
268 23
267 23
266 23
265 22
264 22
263 22
262 22
261 21
260 21
259 21
258 21
257 21
256 20
255 20
254 20
253 20
252 19
251 19
250 19
249 19
248 18
247 18
246 18
245 17
244 17
243 17
242 16
241 15
240 15
239 15
238 15
237 14
236 14
235 13
234 13
233 13
232 13
231 12
230 11
229 11
228 11
227 10
226 10
225 10
224 9
223 9
222 9
221 8
220 7
219 7
218 6
217 6
216 5
215 5
214 5
213 4
212 4
211 4
210 3
209 3
208 2
207 2
206 2
205 2
204 2
203 2
202 2
201 2
200 2
199 2
198 2
197 2
