361 2
360 3
359 3
358 3
357 3
356 4
355 4
354 4
353 5
352 5
351 6
350 7
349 7
348 8
347 8
346 9
345 10
344 11
343 12
342 12
341 13
340 14
339 14
339 15
338 16
337 17
336 18
335 19
334 20
333 21
332 22
331 23
330 24
329 25
328 26
327 27
326 28
325 28
325 29
324 30
323 31
322 32
321 32
320 33
320 34
319 35
318 36
317 37
316 37
316 38
315 39
314 40
313 40
312 41
311 42
310 43
309 44
308 45
307 45
306 46
305 47
304 48
303 48
302 49
301 49
300 50
299 50
298 50
297 50
296 50
295 50
294 50
293 50
292 50
291 50
290 50
289 50
288 50
287 50
286 50
285 49
286 48
287 48
288 48
289 48
289 47
290 46
290 45
289 45
288 45
287 45
286 45
285 44
284 44
283 44
282 44
281 44
280 44
279 43
278 43
277 43
276 43
275 42
274 42
273 42
272 42
271 42
270 42
269 41
268 41
267 41
266 40
265 39
264 39
263 39
262 39
261 40
260 41
259 41
258 41
257 40
256 40
255 39
254 38
253 37
252 36
251 35
250 35
249 35
248 35
247 35
246 35
245 34
244 34
243 34
242 33
241 33
240 33
239 33
238 33
237 32
238 31
237 31
236 31
235 31
234 30
233 30
232 29
231 29
230 29
229 29
228 29
227 29
226 29
225 29
224 29
223 29
222 29
221 29
220 29
219 30
218 30
217 30
216 30
215 30
214 30
213 30
212 30
211 30
210 29
209 28
208 28
207 27
206 27
205 27
204 27
203 27
202 27
201 26
200 26
199 26
198 26
197 26
196 26
195 25
194 25
193 25
192 25
191 25
190 25
189 25
188 25
187 25
186 25
185 25
184 25
183 25
182 25
181 25
180 25
179 25
178 25
177 25
176 25
175 25
174 25
173 25
172 25
171 25
170 25
169 25
168 25
167 25
166 25
165 25
164 25
163 25
162 25
161 25
160 24
159 24
158 24
157 24
156 24
155 24
154 24
153 24
152 24
151 24
150 24
149 24
148 24
147 24
146 24
145 24
144 23
143 23
142 23
141 24
140 24
139 24
138 24
137 24
136 25
135 25
134 25
133 25
132 25
131 26
130 26
129 26
128 26
127 26
126 27
125 27
124 27
123 28
122 28
121 28
120 29
119 29
118 30
117 31
116 31
115 31
114 31
113 32
112 32
111 32
110 32
109 32
108 32
107 32
106 32
105 33
104 33
103 33
102 33
101 33
100 34
99 34
98 35
97 35
96 35
95 35
94 36
93 36
92 37
91 37
90 37
89 38
88 38
87 38
86 39
85 39
84 40
83 40
82 40
81 41
80 41
79 41
78 42
77 42
76 43
75 43
74 44
73 44
72 45
71 45
70 45
69 46
68 46
67 46
66 47
65 47
64 47
63 47
62 48
61 48
60 48
59 49
58 49
57 49
56 49
55 49
54 49
53 50
52 50
51 50
50 50
49 50
48 50
47 50
46 50
45 50
44 50
43 50
42 50
41 51
40 51
39 51
38 51
37 51
36 51
35 51
34 51
33 51
32 51
31 51
30 51
29 51
28 51
27 51
26 51
25 51
24 51
23 51
22 51
21 51
20 51
19 51
18 51
17 51
16 51
15 51
14 51
13 51
12 51
11 51
10 51
9 51
8 51
7 51
6 51
5 51
4 52
3 52
2 53
2 54
2 55
3 56
4 56
5 56
6 56
7 56
8 56
9 57
10 57
11 57
12 57
13 57
14 57
15 57
16 57
17 57
18 57
19 57
20 57
21 57
22 57
23 57
24 57
25 57
26 57
27 57
28 57
29 57
30 57
31 57
32 57
33 57
34 57
35 58
36 58
37 58
38 58
39 58
40 58
41 58
42 58
43 58
44 58
45 58
46 58
47 59
48 59
49 59
50 59
51 59
52 60
53 60
54 60
55 60
56 61
57 61
58 61
59 62
60 62
61 62
62 63
63 63
64 64
65 64
66 64
67 65
68 66
69 66
70 66
71 67
72 67
73 68
74 68
75 68
76 69
77 69
78 69
79 70
80 70
81 70
82 71
83 71
84 71
85 72
86 73
87 73
88 73
89 73
90 74
91 75
92 75
93 75
94 76
95 76
96 76
97 77
98 77
99 77
100 78
101 78
102 78
103 79
104 79
105 79
106 79
107 79
108 79
109 80
110 80
111 80
112 80
113 80
114 81
115 81
116 81
117 81
118 81
119 82
120 82
121 82
122 82
123 82
124 82
125 82
126 82
127 83
128 83
129 83
130 83
131 83
132 83
133 83
134 83
135 84
136 84
137 84
138 84
139 85
140 85
141 85
142 86
143 86
144 87
145 87
146 87
147 87
148 88
149 88
150 88
151 88
152 89
153 89
154 89
155 89
156 89
157 90
158 90
159 90
160 91
161 91
162 91
163 91
164 91
165 91
166 91
167 91
168 92
169 92
170 92
171 92
172 92
173 93
174 93
175 93
176 93
177 93
178 94
179 94
180 94
181 94
182 94
183 94
184 94
185 93
185 92
184 92
183 91
182 91
181 91
180 91
179 91
178 90
177 90
176 90
175 90
174 90
173 89
172 89
171 89
170 89
169 89
168 88
167 88
166 88
165 88
164 88
163 87
164 86
165 86
166 86
167 86
168 86
169 86
170 87
171 87
172 87
173 87
174 87
175 87
176 87
177 87
178 87
179 87
180 87
181 87
182 87
183 87
184 87
185 87
186 87
187 87
188 86
188 85
189 84
188 84
187 84
186 84
185 84
184 84
183 84
182 84
181 84
180 84
179 84
178 83
179 82
180 82
181 82
182 82
183 82
184 81
185 81
186 81
187 81
188 81
189 81
190 81
191 80
192 80
193 80
194 80
195 80
196 80
197 80
198 80
199 80
200 80
201 80
202 80
203 80
204 79
205 79
206 79
207 79
208 79
209 79
210 79
211 79
212 79
213 78
214 78
215 78
216 78
217 78
218 78
219 79
220 79
221 80
222 80
223 81
224 82
225 82
226 82
227 83
228 83
229 84
230 84
231 84
232 85
233 85
234 86
235 86
236 87
237 87
238 87
239 87
240 88
241 88
242 89
243 89
244 89
245 89
246 89
247 90
248 91
249 91
250 91
251 91
252 91
252 90
253 89
252 89
251 88
250 88
249 87
248 87
247 86
246 85
245 84
244 84
243 83
242 82
241 81
240 80
241 79
241 78
241 77
241 76
242 75
243 75
244 75
245 75
246 74
247 74
248 74
249 74
250 74
251 74
252 74
253 74
254 74
255 75
256 75
257 76
258 77
259 77
260 77
261 78
262 78
263 79
264 79
265 80
266 79
267 79
268 79
269 78
270 78
271 78
272 78
273 77
274 77
275 77
276 77
277 77
278 77
279 77
280 77
281 77
282 77
283 77
284 77
285 77
286 77
287 77
288 77
289 77
290 76
291 76
291 75
291 74
291 73
290 73
289 73
288 73
287 73
286 72
285 72
284 71
285 70
286 70
287 70
288 70
289 70
290 70
291 70
292 70
293 70
294 70
295 70
296 70
297 70
298 70
299 70
300 71
301 72
302 73
303 73
304 74
305 75
306 76
306 77
307 78
308 78
309 79
310 80
310 81
311 82
312 83
313 84
314 85
315 86
315 87
316 88
317 89
318 90
319 91
320 92
321 93
321 94
322 94
323 95
323 96
324 97
325 98
326 98
327 99
328 100
328 101
329 102
330 103
331 103
332 104
332 105
333 106
334 106
335 107
336 108
337 109
338 110
339 111
340 111
341 112
342 113
343 113
344 114
345 115
346 115
347 116
348 116
349 117
350 117
351 118
352 118
353 118
354 119
355 119
356 119
357 120
358 120
359 120
360 120
361 120
362 120
363 120
364 120
365 120
366 120
367 120
368 120
369 119
369 118
370 117
369 117
368 116
367 115
366 115
365 114
364 114
363 114
362 113
361 113
360 112
359 111
358 111
357 110
356 109
355 108
354 107
353 106
352 105
351 104
352 103
351 103
350 102
351 101
350 101
349 101
348 100
349 99
348 99
347 98
346 97
347 96
346 96
345 95
344 94
345 93
344 93
343 92
344 91
343 91
342 90
343 89
342 89
341 88
340 87
339 86
338 85
339 84
338 84
337 83
338 82
337 82
336 81
335 80
336 79
335 79
334 78
333 77
332 76
331 75
330 74
331 73
330 73
329 72
328 71
329 70
329 69
329 68
329 67
329 66
329 65
328 65
327 64
327 63
327 62
328 61
328 60
329 59
328 59
327 58
328 57
329 56
329 55
330 54
331 53
332 52
332 51
333 50
333 49
334 48
335 47
336 46
336 45
337 44
337 43
338 42
338 41
339 40
339 39
340 38
341 37
341 36
342 35
342 34
343 33
343 32
344 31
344 30
345 29
345 28
346 27
347 26
347 25
348 24
349 23
350 22
350 21
351 20
352 19
352 18
353 17
353 16
354 15
355 14
356 13
357 12
358 12
359 11
360 10
361 9
362 9
363 8
364 8
365 8
366 8
367 7
368 7
369 6
370 6
370 5
371 4
371 3
370 3
369 2
368 2
367 2
366 2
365 2
364 2
363 2
362 2
