163 2
162 3
161 3
160 3
159 3
158 3
157 3
156 3
155 3
154 3
153 3
152 4
151 4
150 4
149 4
148 4
147 4
146 4
145 5
144 5
143 5
142 5
141 5
140 5
139 5
138 6
137 6
136 6
135 6
134 7
133 7
132 7
131 8
130 8
129 8
128 8
127 9
126 9
125 9
124 9
123 9
122 9
121 9
120 9
119 9
118 9
117 9
116 9
115 9
114 9
113 9
112 9
111 9
110 9
109 9
108 8
107 8
106 8
105 8
104 8
103 8
102 8
101 8
100 8
99 8
98 8
97 8
96 8
95 9
94 9
93 9
92 9
91 9
90 9
89 9
88 9
87 10
86 10
85 10
84 10
83 10
82 11
81 12
80 12
79 12
78 12
77 13
76 13
75 13
74 14
73 14
72 15
71 16
70 16
69 16
68 17
67 17
66 17
65 18
64 18
63 19
62 19
61 19
60 20
59 21
58 21
57 21
56 22
55 23
54 23
53 24
52 24
51 25
50 25
49 26
48 26
47 27
46 27
45 28
44 29
43 29
42 30
41 31
40 31
39 31
38 32
37 33
36 34
35 34
34 35
33 35
32 36
31 36
30 37
29 38
28 39
27 40
26 40
25 41
25 42
24 43
23 44
22 45
21 45
21 46
20 47
19 48
18 49
17 49
16 49
15 50
14 51
13 52
12 53
11 53
10 54
9 55
8 55
8 56
7 57
6 58
5 59
4 59
4 60
3 61
3 62
2 63
2 64
2 65
3 66
3 67
4 67
5 68
4 69
4 70
4 71
4 72
5 73
6 74
7 74
8 75
9 75
10 76
11 76
12 76
13 76
14 76
15 77
16 77
17 77
18 78
19 78
20 79
20 80
20 81
21 82
22 83
23 83
23 82
24 81
25 81
26 82
27 82
28 82
29 83
30 83
31 83
32 83
33 84
34 84
35 84
36 85
37 85
38 85
39 85
40 85
41 86
42 86
43 86
44 86
45 86
46 86
47 86
48 86
49 86
50 87
51 87
52 87
53 87
54 88
55 88
56 89
57 89
58 89
59 90
60 90
61 90
62 90
63 90
64 91
65 91
66 91
67 91
68 92
69 92
70 92
71 92
72 92
73 93
74 93
75 93
76 93
77 94
78 94
79 94
80 94
81 95
82 95
83 95
84 95
85 95
86 95
87 95
88 95
89 96
90 96
91 96
92 96
93 96
94 96
95 97
96 97
97 98
98 98
99 98
100 98
101 98
102 98
103 98
104 98
105 98
106 99
107 99
108 98
109 99
110 99
111 99
112 99
113 99
114 99
115 99
116 99
117 99
118 99
119 99
120 99
121 99
122 100
123 100
124 100
125 100
126 100
127 101
128 101
129 102
130 102
131 103
132 103
133 103
134 104
135 104
136 104
137 105
138 105
139 105
140 106
141 106
142 107
143 107
144 107
145 107
146 107
147 108
148 108
149 109
150 109
151 109
152 109
153 109
154 110
155 110
156 110
157 110
158 110
159 110
160 110
160 109
161 108
161 107
161 106
161 105
161 104
161 103
161 102
161 101
161 100
161 99
161 98
160 97
161 96
162 96
163 96
164 96
165 96
166 96
167 96
168 96
169 96
170 96
171 96
172 96
173 95
174 96
175 96
176 95
177 95
178 95
179 95
180 95
181 95
182 95
183 95
184 95
185 95
186 95
187 95
188 95
189 95
190 95
191 94
192 94
193 94
194 94
195 94
196 94
197 94
198 94
199 94
200 94
201 93
202 93
203 93
204 93
205 93
206 93
207 93
208 93
209 93
210 93
211 93
212 93
213 93
214 93
215 93
216 93
217 93
218 93
219 94
220 94
221 94
222 94
223 94
224 94
225 94
226 94
227 94
228 94
229 94
230 94
231 94
232 94
233 95
234 95
235 94
236 94
237 94
238 94
239 95
240 95
241 94
242 94
243 94
244 94
244 93
245 92
245 91
245 90
246 89
246 88
245 88
244 87
245 86
245 85
245 84
245 83
245 82
245 81
244 81
243 80
244 79
243 79
242 78
243 77
244 76
245 76
246 76
247 76
248 76
249 77
250 77
251 77
252 77
253 78
254 78
255 79
256 80
257 80
258 80
259 81
260 81
261 82
262 83
263 83
264 84
265 85
266 85
267 86
268 86
269 87
270 88
271 89
272 90
273 91
274 91
275 92
276 93
277 93
278 94
279 94
280 95
281 95
282 96
283 96
284 97
285 98
286 98
287 99
288 99
289 100
290 100
291 101
292 101
293 101
294 102
295 102
296 103
297 103
298 103
299 103
300 103
301 104
302 104
303 104
304 104
305 104
306 104
307 104
308 103
309 103
310 103
311 103
312 102
312 101
313 100
314 99
314 98
315 97
315 96
315 95
316 94
316 93
316 92
316 91
316 90
315 90
314 89
315 88
315 87
315 86
315 85
314 85
313 84
314 83
314 82
313 82
312 81
313 80
312 80
311 79
312 78
312 77
311 77
310 76
309 75
308 74
309 73
308 73
307 72
308 71
307 71
306 70
307 69
306 69
305 68
304 67
303 66
302 65
301 65
300 64
299 63
298 63
297 62
298 61
298 60
299 59
300 58
301 57
301 56
302 55
303 55
304 54
305 53
306 53
306 52
307 51
307 50
308 49
309 48
310 47
311 46
311 45
312 44
313 43
313 42
314 41
315 40
315 39
316 38
317 37
317 36
318 35
318 34
319 33
319 32
320 31
320 30
321 29
321 28
321 27
321 26
322 25
322 24
321 24
320 23
321 22
320 22
319 21
318 20
317 19
316 19
315 18
314 18
313 18
312 18
311 18
310 18
309 18
308 18
307 18
306 18
305 18
304 18
303 18
302 18
301 18
300 19
299 19
298 19
297 19
296 20
295 20
294 20
293 21
292 21
291 21
290 21
289 22
288 22
287 23
286 23
285 23
284 23
283 24
282 24
281 25
280 25
279 26
278 26
277 27
276 27
275 27
274 28
273 28
272 29
271 29
270 30
269 31
268 31
267 32
266 32
265 33
264 34
263 35
262 35
261 36
260 36
259 37
258 38
257 38
256 39
255 39
254 40
253 40
252 41
251 41
250 41
249 41
248 42
247 42
246 42
245 41
244 41
243 41
242 41
241 41
240 41
239 41
238 40
239 39
240 38
241 38
242 38
243 38
244 37
245 37
246 36
247 36
248 36
249 36
250 35
250 34
249 33
250 32
249 32
248 31
247 31
246 30
245 30
244 29
245 28
244 28
243 28
242 27
241 26
240 26
239 25
238 24
237 24
236 23
235 23
234 22
233 22
232 22
231 21
230 21
229 20
228 20
227 19
226 19
225 19
224 18
223 18
222 18
221 17
220 17
219 17
218 17
217 17
216 16
215 16
214 16
213 16
212 16
211 16
210 15
209 15
208 15
207 14
206 14
205 14
204 13
203 13
202 13
201 13
200 12
199 12
198 12
197 12
196 12
195 11
194 11
193 11
192 10
191 10
190 10
189 10
188 10
187 10
186 10
185 9
184 9
183 8
182 8
181 7
180 6
179 6
178 5
177 4
176 4
175 3
174 3
173 2
172 2
171 2
170 2
169 2
168 2
167 2
166 2
165 2
164 2
