80 2
79 3
78 4
77 4
76 4
75 3
74 4
73 5
72 5
71 6
70 6
70 7
70 8
69 9
68 9
67 10
66 11
65 11
65 12
64 13
63 13
62 13
61 14
60 14
59 14
58 14
57 14
56 14
55 14
54 14
53 15
52 15
51 15
50 15
49 15
48 15
47 15
46 16
45 16
44 17
43 17
42 17
41 18
40 18
39 18
38 18
37 18
36 19
35 19
34 19
33 19
32 19
31 20
30 20
29 20
28 20
28 21
27 22
26 22
25 23
24 23
23 23
22 24
21 24
20 24
19 25
18 25
17 25
16 26
15 27
14 27
13 28
12 28
11 28
10 29
9 29
8 30
7 30
7 31
6 32
5 33
4 34
4 35
4 36
3 37
3 38
3 39
3 40
3 41
4 42
4 43
3 44
2 45
2 46
2 47
2 48
3 49
3 50
4 51
5 52
5 53
6 53
7 54
8 55
9 55
10 56
11 57
12 58
13 58
14 59
15 59
16 60
17 61
18 61
19 62
20 63
21 63
22 64
23 64
24 65
25 65
26 65
27 66
28 67
29 67
30 68
31 68
32 68
33 69
34 69
35 69
36 70
37 70
38 70
39 70
40 71
41 71
42 72
43 73
44 73
45 73
46 73
47 73
48 74
49 74
50 74
51 74
52 74
53 75
54 76
54 77
55 78
55 79
55 80
56 81
56 82
56 83
56 84
56 85
57 86
57 87
57 88
57 89
58 90
58 91
59 92
59 93
60 94
60 95
61 96
61 97
61 98
61 99
62 100
62 101
62 102
63 103
63 104
64 105
64 106
64 107
65 108
65 109
65 110
66 111
66 112
67 113
67 114
68 115
68 116
68 117
69 118
69 119
69 120
69 121
70 122
70 123
71 124
72 125
72 126
72 127
72 128
73 128
74 129
75 129
76 128
77 127
78 126
78 125
79 124
80 123
80 122
81 121
81 120
82 119
83 118
83 117
84 116
84 115
85 114
86 113
86 112
87 111
87 110
88 109
89 108
89 107
90 106
90 105
91 104
92 103
92 102
93 101
93 100
94 99
94 98
95 97
96 96
96 95
97 94
98 93
98 92
99 91
100 90
100 89
101 88
101 87
102 86
102 85
103 84
103 83
104 82
104 81
105 80
105 79
105 78
106 77
106 76
106 75
105 75
104 74
104 73
105 72
106 72
107 72
108 72
109 72
110 72
111 73
112 73
113 73
114 74
115 74
116 74
117 75
118 75
119 76
120 76
121 77
122 78
123 78
124 78
125 79
126 79
127 79
128 79
129 79
130 79
131 79
132 79
133 79
134 79
135 79
136 79
137 78
138 78
139 78
140 78
141 77
142 77
143 76
144 75
145 75
146 75
147 74
148 74
149 74
150 73
151 73
152 72
153 71
154 71
155 70
156 70
157 69
158 69
159 68
160 68
161 67
162 66
163 65
164 65
165 64
166 64
167 64
168 63
169 62
170 61
171 60
172 59
173 58
174 58
174 57
175 56
175 55
174 55
173 54
174 53
175 53
176 53
177 53
178 53
179 53
180 53
181 53
182 53
183 53
184 53
185 53
186 54
187 54
188 54
189 54
190 55
191 55
192 55
193 55
194 56
195 57
196 57
197 58
198 58
199 58
200 59
201 59
202 59
203 60
204 60
205 60
206 61
207 62
208 62
209 63
210 63
211 64
212 64
213 64
214 64
215 65
216 65
217 65
218 66
219 67
220 68
221 68
222 68
223 69
224 69
225 69
226 70
227 70
228 70
229 71
230 72
231 72
232 73
233 73
234 73
235 73
236 74
237 74
238 74
239 74
240 75
241 75
242 75
243 75
244 76
245 76
246 76
247 77
248 77
249 77
250 77
251 77
252 77
253 76
253 75
254 74
253 74
252 73
251 72
252 71
251 71
250 70
249 69
248 68
247 67
246 66
245 65
244 64
243 63
242 63
241 62
240 61
241 60
240 60
239 60
238 59
237 58
236 58
235 57
236 56
235 56
234 55
233 55
232 54
231 54
230 53
229 53
228 52
227 51
226 50
225 50
224 49
223 49
222 48
221 47
220 46
221 45
221 44
222 43
223 43
224 42
225 41
226 41
227 40
228 40
229 39
230 39
231 39
232 38
233 38
233 37
234 36
235 35
236 35
237 34
238 34
239 33
240 32
241 31
242 30
243 30
244 29
245 28
246 27
246 26
247 25
248 24
249 23
250 22
251 21
252 21
252 20
252 19
252 18
251 18
250 18
249 18
248 18
247 18
246 18
245 18
244 18
243 19
242 19
241 19
240 19
239 19
238 20
237 20
236 20
235 20
234 21
233 22
232 22
231 23
230 23
229 23
228 23
227 23
226 24
225 24
224 24
223 24
222 25
221 25
220 25
219 25
218 26
217 26
216 27
215 27
214 28
213 28
212 28
211 29
210 29
209 29
208 29
207 29
206 30
205 30
204 30
203 31
202 32
201 32
200 33
199 33
198 33
197 34
196 34
195 34
194 34
193 34
192 35
191 35
190 35
189 35
188 35
187 36
186 37
185 38
184 38
183 38
182 38
181 38
180 38
179 38
178 38
177 37
176 37
175 36
175 35
174 34
173 33
172 32
171 31
170 30
169 30
168 29
167 29
166 28
165 28
164 28
163 27
162 26
161 26
160 25
159 25
158 24
157 24
156 23
155 23
154 22
153 21
152 20
151 20
150 20
149 19
148 19
147 18
146 18
145 18
144 17
143 16
142 15
141 15
140 15
139 15
138 14
137 14
136 14
135 13
134 13
133 13
132 12
131 12
130 12
129 11
128 10
127 11
126 11
125 10
124 11
123 11
122 12
121 11
120 12
119 12
118 13
117 13
116 13
115 13
114 13
113 14
112 14
111 15
110 15
109 15
108 15
107 15
106 16
105 16
104 16
103 15
103 14
103 13
102 12
101 12
100 12
99 11
100 10
99 10
98 10
97 10
96 9
95 9
94 8
94 7
93 7
92 7
91 6
90 6
89 6
88 5
87 5
86 5
85 4
84 4
83 4
82 4
81 3
82 2
81 2
