2 2
2 3
2 4
2 5
2 6
3 6
4 7
5 8
6 8
7 9
8 10
8 11
9 12
10 12
11 13
12 14
13 14
14 15
14 16
14 17
14 18
15 19
15 20
16 21
17 22
17 23
16 24
15 24
15 25
15 26
15 27
15 28
15 29
14 30
14 31
14 32
14 33
14 34
14 35
14 36
15 37
15 38
15 39
16 40
17 40
18 41
18 42
19 43
18 44
17 45
16 46
15 47
15 48
14 49
14 50
14 51
14 52
15 53
15 54
15 55
15 56
15 57
15 58
16 59
16 60
16 61
16 62
15 63
14 64
14 65
13 66
12 66
11 67
11 68
10 69
10 70
10 71
10 72
11 73
10 74
9 74
8 75
7 76
6 77
5 77
5 78
5 79
5 80
5 81
6 81
7 81
8 81
9 80
10 80
11 80
12 80
13 80
14 80
15 80
16 79
17 78
18 78
19 78
20 77
21 76
22 76
23 75
24 75
25 75
26 74
27 73
28 73
29 72
30 71
31 71
32 71
33 70
34 69
35 69
36 68
37 68
38 67
39 66
40 65
41 65
42 65
43 64
44 63
45 63
46 63
47 62
48 62
49 61
50 60
51 60
52 60
53 59
54 59
55 58
56 57
57 57
58 57
59 56
60 56
61 56
62 55
63 55
64 55
65 55
66 55
67 54
68 54
69 54
70 54
71 54
72 54
73 54
74 55
75 55
76 55
77 55
78 55
79 55
80 55
81 55
82 56
82 57
83 57
84 57
85 57
86 57
87 57
88 57
89 57
90 57
91 58
92 59
93 59
94 60
94 61
95 62
96 63
97 64
97 65
97 66
97 67
97 68
97 69
97 70
98 71
99 72
100 72
101 72
102 72
103 73
104 73
105 73
106 73
107 73
108 73
109 73
110 72
111 72
112 72
113 72
114 72
115 71
116 71
117 71
118 70
119 70
120 70
121 69
122 69
123 69
124 69
125 68
126 68
127 68
128 67
129 67
130 67
131 67
132 67
133 66
134 65
135 66
136 66
137 66
138 66
139 66
140 66
141 66
142 66
143 66
144 66
145 66
146 66
147 65
148 65
149 65
150 65
151 66
152 66
153 66
154 67
155 67
156 67
157 66
157 65
156 64
156 63
157 62
158 62
159 61
160 61
161 62
162 62
163 63
163 64
164 64
165 63
166 63
167 64
167 65
167 66
167 67
168 67
169 67
170 67
171 67
172 67
173 67
174 67
175 66
176 65
177 66
178 67
179 67
180 67
181 67
182 67
183 67
184 67
185 67
186 67
187 67
188 67
189 67
190 67
191 67
192 67
193 67
194 67
195 67
196 67
197 67
198 67
199 67
200 67
201 67
202 66
203 66
204 66
205 66
206 66
207 66
208 66
209 66
210 66
211 66
212 66
213 66
214 66
215 66
216 66
217 66
218 65
219 65
220 65
221 65
222 65
223 65
224 64
225 64
226 65
226 66
226 67
227 68
228 69
228 70
229 71
229 72
230 73
230 74
230 75
231 75
232 75
233 74
234 74
235 74
236 74
237 73
237 72
238 71
239 70
240 69
241 68
241 67
242 66
242 65
243 64
243 63
244 62
245 62
246 62
247 62
248 62
249 62
250 62
251 62
252 62
253 62
254 62
255 62
256 61
257 61
258 61
259 61
260 61
261 61
262 61
263 61
264 61
265 61
266 60
267 60
268 60
269 60
270 60
271 60
272 60
273 60
274 60
275 60
276 60
277 59
278 59
279 59
280 59
281 59
282 58
283 58
284 57
285 57
286 57
287 58
288 58
289 58
290 58
291 58
292 57
293 57
294 57
295 57
296 56
297 56
298 56
299 56
300 55
301 55
302 55
303 55
304 54
305 54
306 54
307 54
308 53
309 53
310 53
311 53
312 52
313 52
314 52
315 52
316 52
317 51
318 51
319 51
320 50
321 50
322 50
323 49
324 49
325 49
326 48
327 48
328 48
329 48
330 47
331 47
332 46
333 46
334 46
335 45
336 45
337 45
338 45
339 44
340 43
341 42
342 42
343 41
344 40
345 39
345 38
346 37
346 36
346 35
346 34
345 34
344 33
343 33
342 33
341 32
342 31
342 30
342 29
341 29
340 28
339 28
338 28
337 28
336 28
335 28
334 28
333 27
332 27
331 27
330 27
329 27
328 27
327 27
326 27
325 27
324 27
323 27
322 26
321 26
320 26
319 26
318 26
317 25
316 25
315 25
314 25
313 24
312 24
311 24
310 24
309 24
308 23
307 23
306 23
305 23
304 23
303 23
302 23
301 23
300 22
299 22
298 22
297 22
296 22
295 22
294 22
293 21
292 21
291 21
290 21
289 21
288 21
287 21
286 21
285 21
284 20
283 20
282 20
281 20
280 20
279 20
278 20
277 20
276 20
275 20
274 20
273 20
272 20
271 20
270 20
269 20
268 20
267 20
266 20
265 20
264 20
263 20
262 19
261 19
260 19
259 19
258 19
257 19
256 19
255 19
254 19
253 19
252 19
251 19
250 19
249 19
248 18
247 18
246 18
245 18
244 18
243 18
242 18
241 18
240 18
239 18
238 18
237 18
236 18
235 18
234 18
233 18
232 18
231 17
230 17
229 17
228 17
227 17
226 16
225 15
224 14
225 13
224 13
223 12
222 12
221 11
222 10
222 9
223 8
222 8
221 7
220 6
221 5
220 5
219 4
218 4
217 4
217 5
217 6
216 7
215 6
214 5
213 4
212 3
211 3
210 3
209 4
208 4
207 4
206 4
206 5
206 6
206 7
207 8
208 9
207 10
206 10
205 10
204 10
204 11
204 12
204 13
203 14
202 14
201 14
200 14
199 14
199 15
199 16
199 17
198 18
197 18
196 18
195 18
194 18
193 18
192 18
191 18
190 18
189 18
188 19
187 19
186 19
185 19
184 19
183 19
182 19
181 19
180 19
179 19
178 19
177 19
176 19
175 19
174 19
173 19
172 19
171 19
170 19
169 19
168 20
167 20
166 20
165 20
164 20
163 20
162 20
161 20
160 20
159 20
158 20
157 20
156 20
155 20
154 20
153 20
152 20
151 20
150 20
149 20
148 20
147 20
146 20
145 19
144 19
143 19
142 19
141 18
140 18
139 18
138 18
137 17
136 17
135 16
134 16
133 15
132 14
131 13
130 12
129 12
128 11
127 10
126 9
125 9
124 8
123 7
122 7
121 6
120 6
119 5
118 5
117 5
116 5
115 5
114 5
114 6
114 7
114 8
115 9
114 10
113 10
112 10
111 10
111 11
111 12
111 13
111 14
110 15
109 15
108 16
108 17
107 18
107 19
106 20
106 21
106 22
105 23
105 24
105 25
105 26
105 27
104 28
103 28
102 28
101 28
100 28
99 28
98 28
97 28
96 29
95 29
94 29
93 29
92 29
91 29
90 29
89 29
88 29
87 30
86 30
85 30
84 30
83 30
82 30
81 30
80 30
79 30
78 31
77 31
76 31
75 31
74 31
73 31
72 32
71 32
70 32
69 32
68 32
67 32
66 32
65 32
64 32
63 32
62 32
61 31
60 31
59 31
58 31
57 31
56 30
55 30
54 29
53 29
52 28
51 27
50 27
49 26
48 26
47 25
46 25
45 24
44 23
43 23
42 22
41 22
40 21
39 20
38 19
37 19
36 18
35 18
34 17
33 16
32 16
31 15
30 15
29 14
28 13
27 13
26 12
25 12
24 11
23 10
22 10
21 10
20 9
19 8
18 8
17 7
16 7
15 6
14 6
13 5
12 5
11 5
10 4
9 4
8 4
7 3
6 3
5 3
4 2
3 2
