108 2
108 3
107 4
106 5
106 6
105 7
104 8
103 9
102 10
101 10
100 10
99 10
98 10
97 10
96 10
95 10
94 10
93 10
92 9
91 8
92 7
91 7
90 7
89 8
89 9
88 10
87 11
86 11
85 11
84 11
83 10
84 9
83 9
82 8
83 7
82 7
81 7
81 8
80 9
79 10
79 11
78 12
77 13
76 13
75 14
74 15
73 15
72 15
71 15
70 15
69 15
68 16
67 15
66 14
65 13
66 12
65 12
64 12
63 12
63 13
62 14
62 15
62 16
62 17
61 18
60 19
59 20
58 21
57 21
56 21
55 22
54 22
53 22
52 22
51 22
51 23
50 24
49 24
48 24
47 24
46 24
45 24
44 23
45 22
45 21
44 21
43 21
42 21
42 22
42 23
42 24
41 25
41 26
41 27
40 28
39 29
38 30
37 30
36 30
35 29
34 28
35 27
35 26
34 26
33 25
32 26
32 27
31 28
31 29
30 30
29 30
28 31
27 32
26 33
25 33
24 33
23 32
24 31
24 30
23 30
22 30
21 30
21 31
21 32
21 33
20 34
20 35
19 36
18 37
17 38
16 38
15 37
14 37
14 38
13 39
13 40
12 41
12 42
12 43
12 44
12 45
11 46
10 46
9 46
8 46
7 46
7 47
7 48
7 49
7 50
8 51
8 52
9 53
9 54
8 55
7 56
6 57
5 57
4 58
4 59
3 60
2 61
2 62
2 63
2 64
2 65
3 66
4 67
4 68
4 69
4 70
5 70
6 70
7 71
6 72
5 72
5 73
4 74
4 75
4 76
4 77
4 78
4 79
4 80
4 81
5 82
5 83
5 84
5 85
6 85
7 85
8 85
9 85
10 86
11 87
12 88
13 88
14 89
15 89
16 90
17 90
18 90
19 91
20 92
21 93
22 93
23 94
24 95
25 95
26 96
27 96
28 97
29 98
30 99
31 99
32 100
33 100
34 100
35 101
36 101
37 102
38 102
39 103
40 104
41 104
42 104
43 105
44 106
45 107
46 107
47 107
48 108
49 108
50 109
51 109
52 110
53 110
54 110
55 110
56 111
57 112
58 112
59 113
60 113
61 114
62 114
63 114
64 115
65 115
66 116
67 116
68 116
69 116
70 116
71 116
72 117
73 117
74 118
75 118
76 118
77 119
78 119
79 119
80 119
81 119
82 119
83 119
84 120
85 120
86 120
87 121
88 121
89 122
90 122
91 122
92 122
93 122
94 122
95 122
96 123
97 123
98 123
99 123
100 123
101 123
102 123
103 123
104 124
105 124
106 124
107 124
108 124
109 124
110 124
111 124
112 124
113 124
114 124
115 124
116 124
117 124
118 125
119 125
120 125
121 126
122 126
123 126
124 125
125 125
126 125
127 124
128 124
129 125
130 125
131 125
132 125
133 125
134 125
135 125
136 125
137 126
138 126
139 126
140 127
141 127
142 127
143 126
144 126
145 125
146 125
147 125
148 125
149 125
150 124
151 124
152 124
153 124
154 124
155 124
156 124
157 124
158 124
159 124
160 125
161 125
162 125
163 124
164 124
165 124
166 124
167 123
168 123
169 123
170 123
171 123
172 123
173 123
174 122
175 122
176 122
177 122
178 122
179 122
180 122
181 122
182 122
183 121
184 121
185 121
186 120
187 119
188 119
189 118
190 117
191 117
192 116
193 116
194 116
195 116
196 116
197 116
198 115
199 115
200 114
200 113
201 112
201 111
202 110
203 109
204 108
205 107
206 107
206 106
207 105
208 104
209 103
209 102
210 101
210 100
210 99
210 98
211 97
212 98
212 99
213 100
214 101
215 102
215 103
215 104
216 105
216 106
216 107
217 108
217 109
217 110
218 111
218 112
219 113
220 114
220 115
221 116
222 116
223 117
224 117
225 118
226 119
227 119
228 119
229 119
230 119
231 119
232 119
233 119
234 119
235 119
236 119
237 119
238 119
239 118
240 118
241 118
242 117
243 116
244 116
245 116
245 115
246 114
247 113
248 113
249 112
249 111
250 110
251 109
251 108
252 107
252 106
253 105
253 104
253 103
254 102
254 101
253 101
252 100
253 99
253 98
253 97
252 97
251 96
252 95
251 95
250 94
249 93
248 93
247 93
246 93
245 92
244 91
243 90
242 90
241 90
240 89
241 88
242 88
243 87
244 87
245 87
245 86
246 85
247 85
248 85
249 84
250 83
251 83
252 82
253 82
254 82
255 81
256 81
257 81
258 81
259 82
260 82
261 82
262 82
263 82
264 82
265 82
266 83
267 83
268 83
269 83
270 84
271 84
272 84
273 84
274 85
275 85
276 85
277 85
278 85
279 85
280 85
281 86
282 86
283 86
284 87
285 87
286 87
287 87
288 88
289 88
290 88
291 88
292 88
293 88
294 88
295 89
296 89
297 89
298 89
299 89
300 88
301 88
302 87
303 86
304 85
305 84
305 83
306 82
306 81
307 80
307 79
307 78
307 77
307 76
307 75
307 74
307 73
307 72
307 71
307 70
307 69
307 68
306 68
305 67
306 66
306 65
305 65
304 64
305 63
304 63
303 62
304 61
304 60
303 60
302 59
301 58
300 57
299 57
298 57
297 57
296 57
295 57
294 57
293 57
292 57
291 57
290 57
289 57
288 57
287 57
286 58
285 58
284 58
283 58
282 58
281 59
280 59
279 60
278 60
277 60
276 60
275 60
274 60
273 60
272 60
271 60
270 61
269 61
268 61
267 62
266 62
265 62
264 62
263 62
262 62
261 63
260 63
259 63
258 63
257 63
256 63
255 63
254 63
253 63
252 62
251 62
250 61
249 60
248 60
247 60
246 60
245 59
244 59
243 59
242 58
241 58
240 57
239 57
238 57
237 56
236 56
235 55
236 54
237 54
238 54
239 55
240 55
241 55
242 55
243 55
244 55
245 55
246 55
247 55
248 55
249 55
250 54
251 54
252 54
253 54
254 54
255 53
256 53
257 52
258 51
259 50
259 49
260 48
260 47
261 46
261 45
261 44
261 43
262 42
262 41
262 40
262 39
262 38
262 37
263 36
262 36
261 35
262 34
262 33
262 32
262 31
262 30
262 29
262 28
262 27
261 27
260 26
261 25
261 24
260 24
259 23
260 22
260 21
259 21
258 20
257 19
258 18
257 18
256 17
257 16
256 16
255 16
254 15
253 14
254 13
253 13
252 12
251 11
250 11
249 10
248 10
247 9
246 9
245 8
244 8
243 8
242 8
241 8
240 9
239 9
238 10
237 10
236 11
235 12
234 13
234 14
233 15
232 15
231 16
231 17
230 18
229 18
229 19
228 20
227 21
226 22
225 23
224 24
223 25
223 26
222 27
221 28
221 29
220 30
219 30
219 31
218 32
217 33
216 33
215 33
214 34
213 34
212 34
211 34
210 34
209 34
208 34
207 34
206 34
205 33
206 32
206 31
206 30
206 29
207 28
207 27
207 26
206 25
207 24
206 24
205 24
204 25
203 26
202 27
201 27
200 28
199 28
198 29
197 29
196 29
195 28
196 27
196 26
196 25
196 24
195 24
194 24
193 24
193 25
192 26
191 27
190 27
189 26
188 25
189 24
189 23
189 22
189 21
188 21
187 21
186 22
185 23
184 23
183 23
182 24
181 23
180 23
179 22
178 21
179 20
179 19
179 18
180 17
180 16
179 16
178 15
177 16
176 17
175 18
174 18
173 18
172 18
171 18
170 18
169 18
168 17
167 16
168 15
168 14
168 13
168 12
167 12
166 12
165 12
164 12
163 13
162 14
161 15
160 15
159 15
158 15
157 14
158 13
158 12
158 11
158 10
157 10
156 10
155 10
154 11
153 12
152 12
151 12
150 12
149 12
148 12
147 12
146 11
147 10
147 9
147 8
147 7
147 6
147 5
146 5
145 5
144 6
143 7
142 7
142 8
141 9
140 10
139 10
138 11
137 10
136 9
137 8
137 7
137 6
136 5
135 6
134 7
133 7
133 8
132 9
131 10
130 10
129 10
128 9
129 8
129 7
129 6
129 5
129 4
129 3
128 3
127 3
126 4
125 4
125 5
124 6
123 7
123 8
122 9
121 10
120 10
119 10
118 10
117 10
116 10
115 10
114 10
113 10
112 10
111 9
110 8
111 7
111 6
110 6
109 5
110 4
110 3
109 2
