59 2
58 3
57 3
56 3
55 4
54 4
53 4
52 4
51 4
50 3
49 3
48 3
47 3
46 3
45 3
44 3
43 3
42 3
41 3
40 3
39 3
38 3
37 3
36 3
35 4
34 4
33 4
32 4
31 4
30 4
29 4
28 4
27 4
26 4
25 4
24 4
23 4
22 4
21 5
20 5
19 5
18 5
17 6
16 6
15 6
14 6
13 7
12 7
11 7
10 8
9 8
8 8
7 8
6 9
5 10
4 10
3 11
2 12
2 13
2 14
2 15
2 16
2 17
2 18
2 19
3 20
4 21
5 21
6 21
7 22
8 22
9 22
10 23
11 23
12 23
13 24
14 24
15 25
16 25
17 25
18 24
19 24
20 23
21 23
22 23
23 23
24 23
25 22
26 22
27 22
28 22
29 22
30 22
31 22
32 22
33 22
34 23
35 24
36 25
37 26
38 26
39 26
40 26
41 27
42 27
43 27
44 27
45 28
46 28
47 28
48 28
49 28
50 29
51 29
52 29
53 29
54 29
55 29
56 29
57 29
58 29
59 29
60 29
61 28
62 28
63 28
64 28
65 28
66 28
67 28
68 28
69 28
70 28
71 27
72 27
73 27
74 27
75 27
76 27
77 26
78 26
79 26
80 26
81 26
82 26
83 25
84 25
85 24
86 24
87 24
88 24
89 24
90 24
91 24
92 23
93 23
94 23
95 23
96 24
97 24
98 24
99 24
100 24
101 24
102 24
103 24
104 24
105 24
106 24
107 25
108 25
109 25
110 26
111 26
112 26
113 26
114 26
115 26
116 26
117 26
118 26
119 26
120 27
121 27
122 27
123 27
124 27
125 27
126 27
127 27
128 27
129 27
130 28
131 28
132 28
133 28
134 28
135 28
136 28
137 28
138 28
139 28
140 28
141 28
142 28
143 28
144 28
145 28
146 28
147 28
148 28
149 28
150 28
151 28
152 28
153 28
154 28
155 28
156 28
157 28
158 28
159 28
160 28
161 28
162 28
163 28
164 28
165 28
166 28
167 28
168 28
169 28
170 28
171 28
172 28
173 27
174 27
175 27
176 27
177 27
178 26
179 26
180 26
181 26
182 26
183 25
184 25
185 24
186 24
187 23
188 23
189 23
190 22
191 22
192 22
193 21
194 21
195 21
196 20
197 20
198 19
199 18
200 18
201 18
202 18
203 18
204 17
205 17
206 17
207 17
208 17
209 17
210 16
211 16
212 16
213 16
214 16
215 16
216 16
217 16
218 16
219 16
220 16
221 16
222 16
223 16
224 16
225 16
226 17
227 17
228 17
229 17
230 17
231 18
232 18
233 18
234 18
235 19
236 19
237 20
238 20
239 21
240 21
241 22
242 22
243 22
244 23
245 23
246 23
247 24
248 24
249 25
250 26
251 26
252 26
253 27
254 27
255 27
256 27
257 28
258 28
259 28
260 28
261 28
262 29
263 29
264 29
265 30
266 30
267 30
268 31
269 31
270 31
271 31
272 31
273 31
274 31
274 30
274 29
274 28
273 28
272 28
271 27
270 27
269 26
268 26
267 26
266 25
265 24
264 23
263 23
262 23
261 22
260 22
259 21
258 21
257 21
256 20
255 19
254 18
253 18
252 17
251 17
250 17
249 16
248 16
247 16
246 15
245 14
244 13
243 13
242 13
241 12
240 12
239 12
238 12
237 11
236 11
235 11
234 11
233 11
232 10
231 10
230 9
229 9
228 8
227 8
226 8
225 8
224 7
223 7
222 7
221 7
220 6
219 6
218 6
217 6
216 6
215 6
214 6
213 5
212 5
211 5
210 5
209 5
208 5
207 5
206 5
205 5
204 5
203 5
202 5
201 5
200 5
199 6
198 6
197 6
196 6
195 6
194 6
193 7
192 7
191 7
190 7
189 8
188 8
187 8
186 8
185 9
184 9
183 10
182 11
181 11
180 11
179 11
178 12
177 12
176 12
175 12
174 13
173 13
172 13
171 13
170 13
169 13
168 14
167 14
166 14
165 14
164 14
163 14
162 14
161 14
160 14
159 13
158 13
157 14
156 14
155 13
154 13
153 13
152 13
151 13
150 13
149 13
148 13
147 13
146 13
145 13
144 13
143 13
142 12
141 12
140 12
139 12
138 12
137 12
136 12
135 12
134 11
133 11
132 11
131 11
130 11
129 11
128 11
127 10
126 10
125 9
124 9
123 8
122 8
121 8
120 8
119 8
118 8
117 7
116 7
115 7
114 7
113 7
112 6
111 6
110 6
109 6
108 6
107 6
106 5
105 5
104 5
103 5
102 5
101 5
100 5
99 4
98 4
97 4
96 4
95 4
94 4
93 4
92 4
91 4
90 4
89 4
88 3
87 3
86 3
85 3
84 3
83 3
82 3
81 3
80 3
79 2
78 3
77 2
76 2
75 2
74 2
73 2
72 2
71 2
70 2
69 2
68 2
67 2
66 2
65 2
64 2
63 2
62 2
61 2
60 2
