116 2
116 3
116 4
115 5
114 6
113 6
112 5
113 4
112 4
111 4
110 3
109 3
109 4
108 5
107 6
107 7
106 8
105 8
104 8
103 9
102 9
101 9
100 9
99 9
98 8
97 7
96 6
95 6
94 5
93 5
92 6
92 7
91 8
90 9
89 9
88 9
87 8
86 7
85 8
84 9
84 10
83 11
82 12
81 12
80 12
79 12
78 13
77 12
76 12
75 12
74 11
73 11
72 12
71 13
70 14
69 14
68 14
67 14
66 14
65 13
64 13
63 14
63 15
62 16
61 17
60 17
59 17
58 17
57 17
56 17
56 18
56 19
55 20
54 21
53 21
52 21
51 21
51 22
50 23
49 23
48 23
47 22
46 23
45 24
44 25
43 25
42 26
42 27
42 28
41 29
40 29
39 29
38 29
38 30
37 31
37 32
37 33
36 34
35 35
34 35
33 36
32 36
31 36
30 37
29 37
28 38
27 38
26 39
25 39
24 40
23 40
22 40
21 41
20 42
19 42
18 43
17 43
16 44
15 45
14 46
13 46
12 47
11 47
10 48
9 49
9 50
8 51
7 52
7 53
6 54
6 55
6 56
5 57
4 58
4 59
3 60
3 61
3 62
3 63
3 64
3 65
3 66
3 67
3 68
3 69
4 69
5 70
5 71
5 72
4 73
3 73
3 74
2 75
2 76
2 77
2 78
2 79
3 80
3 81
4 82
5 83
5 84
6 85
7 86
7 87
8 88
9 89
9 90
10 90
11 91
12 91
13 92
14 92
15 93
16 94
17 95
18 95
19 95
20 96
21 96
22 97
23 98
24 98
25 98
26 99
27 100
28 100
29 100
30 101
31 101
32 101
33 102
34 102
35 102
36 102
37 103
38 103
39 104
40 104
41 105
42 105
43 106
44 106
45 106
46 107
47 107
48 108
49 109
50 109
51 109
52 109
53 110
54 111
55 111
56 112
57 112
58 112
59 112
60 113
61 113
62 113
63 113
64 113
65 113
66 113
67 114
68 114
69 114
70 114
71 114
72 114
73 114
74 115
75 115
76 115
77 115
78 115
79 115
80 115
81 115
82 115
83 115
84 115
85 115
86 115
87 115
88 116
89 116
90 116
91 116
92 116
93 116
94 116
95 116
96 116
97 116
98 116
99 116
100 116
101 116
102 116
103 116
104 116
105 116
106 116
107 116
108 116
109 116
110 116
111 116
112 115
113 115
114 115
115 115
116 115
117 115
118 115
119 115
120 115
121 115
122 115
123 115
124 115
125 115
126 114
127 114
128 114
129 114
130 114
131 114
132 113
133 113
134 113
135 113
136 112
137 112
138 112
139 112
140 112
141 112
142 111
143 111
144 111
145 110
146 110
147 110
148 109
149 109
150 109
151 109
152 108
153 108
154 107
155 107
156 106
157 106
158 106
159 106
160 105
161 104
162 104
163 103
164 103
165 103
166 103
167 103
168 103
169 103
170 103
171 103
172 104
173 105
174 105
175 106
176 106
177 106
178 106
179 107
180 107
181 108
182 108
183 108
184 109
185 109
186 109
187 109
188 109
189 110
190 110
191 110
192 110
193 111
194 111
195 111
196 111
197 111
198 111
199 111
200 111
201 111
202 111
203 111
204 111
205 110
206 110
207 110
208 110
209 109
210 109
211 109
212 108
213 107
214 107
215 106
216 105
217 104
218 103
219 102
219 101
220 100
220 99
221 98
221 97
221 96
221 95
221 94
221 93
221 92
221 91
220 91
219 90
220 89
220 88
220 87
219 87
218 86
219 85
219 84
218 84
217 83
218 82
217 82
216 81
215 81
214 80
213 80
212 80
211 79
210 79
209 78
210 77
211 77
212 76
213 76
214 76
215 76
216 76
217 76
218 76
219 75
220 76
221 76
222 77
223 77
224 78
225 79
226 79
227 79
228 80
229 80
230 80
231 80
232 81
233 81
234 81
235 81
236 82
237 83
238 83
239 83
240 84
241 84
242 84
243 84
244 85
245 85
246 86
247 86
248 86
249 87
250 87
251 87
252 87
253 87
254 87
255 87
256 87
257 87
258 88
259 88
260 87
261 87
261 86
262 85
262 84
262 83
262 82
263 81
263 80
263 79
264 78
264 77
264 76
264 75
264 74
264 73
264 72
265 71
265 70
265 69
265 68
265 67
265 66
265 65
265 64
265 63
265 62
265 61
265 60
265 59
265 58
265 57
265 56
264 56
263 55
264 54
264 53
264 52
264 51
263 51
262 50
263 49
263 48
263 47
263 46
263 45
263 44
263 43
263 42
263 41
263 40
263 39
263 38
263 37
263 36
263 35
263 34
263 33
263 32
263 31
263 30
262 30
261 29
262 28
262 27
262 26
261 26
260 26
259 26
258 26
257 26
256 26
255 26
254 26
253 26
252 26
251 26
250 27
249 27
248 28
247 28
246 28
245 29
244 29
243 29
242 29
241 30
240 30
239 31
238 31
237 31
236 32
235 32
234 32
233 33
232 33
231 34
230 34
229 35
228 35
227 35
226 36
225 36
224 37
223 37
222 37
221 38
220 39
219 40
218 40
217 41
216 42
215 43
214 44
213 45
212 46
211 46
210 47
209 47
208 47
207 47
206 47
205 47
204 46
205 45
206 44
207 44
208 43
209 43
210 42
211 41
212 41
213 40
214 40
215 39
215 38
216 37
217 37
218 36
219 35
219 34
220 33
220 32
220 31
221 30
221 29
221 28
221 27
221 26
221 25
221 24
220 24
219 23
220 22
220 21
220 20
219 20
218 19
219 18
218 18
217 17
216 16
215 15
216 14
215 14
214 14
213 14
212 13
211 13
210 12
209 12
208 11
207 11
206 10
205 10
204 10
203 9
202 9
201 9
200 9
199 9
198 9
197 9
196 9
195 9
194 9
193 9
192 9
191 9
190 9
189 9
188 9
187 9
186 9
185 10
184 10
183 10
182 11
181 11
180 11
179 12
178 12
177 12
176 13
175 13
174 13
173 13
172 14
171 14
170 14
169 15
168 16
167 17
166 17
165 18
164 18
163 17
164 16
163 16
162 15
161 14
160 14
159 14
158 14
157 15
156 14
156 13
155 13
154 12
153 12
152 12
151 12
150 12
149 12
148 12
147 12
146 12
145 11
144 10
143 10
142 9
141 9
140 9
139 9
138 8
137 7
136 6
135 5
134 5
133 6
132 6
131 6
130 5
129 4
128 3
127 4
127 5
126 6
125 6
124 7
123 7
122 7
121 7
120 6
119 5
120 4
119 4
118 3
117 2
