185 2
184 3
183 3
182 3
181 4
180 4
179 5
178 5
177 5
176 5
175 6
174 6
173 7
172 7
171 7
170 7
169 7
168 8
167 9
166 10
165 11
164 12
163 13
162 14
161 14
160 15
159 16
158 17
157 18
156 18
155 18
154 19
153 20
152 21
151 22
150 23
149 23
149 24
148 25
147 25
146 25
145 26
144 27
144 28
143 29
142 30
141 31
141 32
140 33
140 34
139 35
139 36
138 37
138 38
137 39
136 40
135 41
134 42
133 43
132 43
131 42
130 42
129 42
128 42
127 42
126 42
125 42
124 42
123 41
122 41
121 41
120 41
119 41
118 41
117 41
116 41
115 41
114 41
113 40
112 39
111 38
110 37
109 36
110 35
109 35
108 34
107 33
108 32
107 32
106 32
106 33
105 34
104 34
103 34
102 35
101 36
100 37
99 37
98 37
97 37
96 38
95 38
94 38
93 38
92 38
91 37
90 37
89 36
88 36
87 35
86 34
85 33
86 32
86 31
85 31
84 30
85 29
85 28
85 27
85 26
85 25
85 24
85 23
84 23
83 23
82 23
81 22
82 21
82 20
81 20
80 19
81 18
81 17
81 16
81 15
81 14
81 13
82 12
82 11
82 10
82 9
82 8
82 7
83 6
83 5
83 4
83 3
82 3
81 3
80 4
79 5
78 6
77 7
76 8
75 9
75 10
74 11
74 12
74 13
73 14
73 15
73 16
72 17
72 18
71 19
71 20
71 21
70 22
70 23
70 24
69 25
69 26
69 27
69 28
68 29
68 30
67 31
67 32
67 33
67 34
66 35
66 36
66 37
66 38
65 39
65 40
65 41
65 42
65 43
64 44
64 45
64 46
64 47
64 48
64 49
63 50
62 51
61 51
60 52
59 52
58 52
57 53
56 53
55 54
54 55
53 56
52 56
51 57
50 58
49 59
48 59
47 60
46 61
45 62
44 62
43 63
42 64
41 64
40 65
39 66
38 67
37 67
36 68
35 69
34 70
33 71
32 72
31 73
30 73
29 74
28 75
27 76
26 77
25 78
24 79
24 80
23 81
22 81
21 82
21 83
20 84
19 85
18 85
17 86
16 87
15 88
14 89
13 89
13 90
12 91
11 92
10 92
10 93
9 94
8 95
7 95
6 96
5 97
4 98
4 99
3 100
3 101
2 102
2 103
2 104
2 105
2 106
3 107
4 108
4 109
5 110
4 111
3 112
3 113
2 114
2 115
2 116
3 117
3 118
4 119
5 120
6 121
7 122
7 123
8 124
9 125
9 126
10 127
11 128
11 129
12 130
13 131
14 132
14 133
15 134
16 134
17 135
17 136
18 137
19 137
20 138
20 139
21 140
22 140
23 141
24 141
25 142
26 142
27 143
28 144
29 145
30 146
31 146
32 147
32 148
33 148
34 148
35 149
35 150
36 151
37 151
38 152
39 152
40 152
41 153
42 153
43 154
44 155
45 156
46 156
47 156
48 157
49 158
50 159
51 159
52 159
53 160
54 161
55 161
56 162
57 162
58 163
59 163
60 163
61 164
62 164
63 164
64 165
65 166
66 166
67 167
68 167
69 167
70 168
71 168
72 169
73 169
74 170
75 170
76 170
77 171
78 172
79 172
80 172
81 173
82 173
83 173
84 174
85 174
86 174
87 174
88 174
89 175
90 175
91 175
92 175
93 176
94 176
95 176
96 177
97 177
98 177
99 178
100 178
101 178
102 178
103 178
104 178
105 178
106 178
107 178
108 178
109 178
110 178
111 178
112 178
113 178
114 177
115 177
116 177
117 177
118 176
119 176
120 176
121 176
122 176
123 175
124 175
125 175
126 175
127 175
128 175
129 174
130 174
131 174
132 174
133 173
134 173
135 174
136 174
137 174
138 174
139 175
140 175
141 176
142 176
143 176
144 177
145 177
146 176
147 176
148 175
148 174
149 173
149 172
150 171
150 170
150 169
151 168
152 169
153 170
153 171
154 172
154 173
155 174
155 175
156 176
157 177
157 178
158 179
158 180
159 181
160 182
160 183
161 184
162 185
163 186
164 187
165 188
165 189
166 189
167 189
168 189
169 189
170 190
171 191
171 192
172 193
173 193
174 193
175 192
176 192
177 193
178 194
179 195
180 195
181 196
182 196
183 196
184 197
185 198
186 198
187 198
187 197
188 196
188 195
188 194
189 193
189 192
190 191
190 190
190 189
190 188
191 187
191 186
191 185
192 184
192 183
193 182
193 181
194 180
194 179
195 178
195 177
196 176
197 175
197 174
198 173
199 172
199 171
200 170
201 170
201 169
202 168
203 167
203 166
204 165
205 164
206 163
207 162
207 161
208 160
209 159
210 158
210 157
211 156
211 155
212 154
213 153
214 152
215 151
215 150
216 149
217 148
217 147
218 146
218 145
219 144
219 143
220 142
220 141
221 140
221 139
222 138
222 137
222 136
223 135
223 134
223 133
224 132
224 131
224 130
224 129
224 128
225 127
224 127
223 126
224 125
224 124
224 123
223 123
222 122
221 121
222 120
221 120
220 120
219 119
220 118
221 118
222 118
223 118
224 118
225 118
226 119
227 119
228 119
229 119
230 119
231 120
232 120
233 120
234 120
235 121
236 122
237 123
238 124
239 125
239 126
240 127
241 127
242 128
242 129
243 130
244 130
245 131
246 132
247 133
248 134
249 135
250 136
251 137
252 137
253 138
254 139
255 140
256 140
257 141
258 141
259 141
260 142
261 142
262 142
263 143
264 143
265 144
266 144
267 145
268 145
269 145
270 145
271 145
272 145
273 145
274 146
275 146
276 146
277 147
278 147
279 147
280 147
281 148
282 148
283 148
284 148
285 148
286 148
287 148
288 148
289 148
290 148
291 148
292 148
293 148
294 148
295 148
296 148
297 148
298 148
299 148
300 148
301 148
302 148
303 148
304 148
305 148
306 148
307 148
308 148
309 147
310 147
311 147
312 147
313 147
314 148
315 148
316 148
317 148
318 148
319 149
320 150
321 150
322 151
323 151
324 151
325 151
326 152
327 152
328 152
329 152
330 152
331 153
332 153
333 153
334 153
335 153
336 153
337 153
338 153
339 153
340 153
341 153
342 153
342 152
342 151
341 151
340 151
339 151
338 151
337 151
336 151
335 151
334 151
333 151
332 151
331 151
330 151
329 150
328 150
327 150
326 149
325 149
324 148
323 148
322 148
321 147
320 147
319 146
318 146
317 145
316 145
315 145
314 145
313 144
312 143
311 142
310 142
309 142
308 142
307 142
306 142
305 142
304 142
303 142
302 142
301 142
300 142
299 142
298 142
297 142
296 142
295 142
294 142
293 142
292 142
291 142
290 142
289 141
288 141
287 141
286 140
285 139
284 138
283 137
282 136
283 135
282 135
281 134
280 133
281 132
281 131
281 130
281 129
281 128
281 127
281 126
281 125
281 124
281 123
281 122
282 121
282 120
282 119
282 118
282 117
283 116
283 115
283 114
283 113
283 112
283 111
283 110
283 109
283 108
283 107
284 106
284 105
284 104
284 103
284 102
284 101
284 100
284 99
284 98
284 97
284 96
284 95
284 94
284 93
283 93
282 92
283 91
283 90
283 89
283 88
283 87
283 86
282 85
282 84
281 83
282 82
282 81
283 80
283 79
283 78
283 77
284 76
285 75
286 74
287 74
288 73
289 73
290 73
291 72
292 72
293 71
294 71
295 70
296 70
297 70
298 70
299 70
300 70
301 70
302 70
303 70
304 70
305 70
306 70
307 70
308 70
309 70
310 70
311 70
312 70
313 70
314 70
315 70
316 70
317 70
318 70
319 70
320 70
321 71
322 71
323 70
324 70
325 70
326 70
327 70
328 70
329 70
330 70
331 70
332 70
333 70
334 69
335 69
336 69
337 69
338 69
339 69
340 69
341 69
342 69
343 69
344 69
344 68
345 67
344 67
343 66
342 66
341 66
340 66
339 66
338 66
337 66
336 66
335 66
334 67
333 67
332 67
331 67
330 67
329 67
328 67
327 67
326 67
325 67
324 67
323 67
322 68
321 68
320 68
319 68
318 67
317 67
316 67
315 67
314 67
313 67
312 67
311 67
310 67
309 67
308 66
307 66
306 66
305 65
304 65
303 65
302 65
301 64
300 64
299 64
298 64
297 64
296 63
295 63
294 63
293 63
292 63
291 63
290 63
289 63
288 63
287 63
286 63
285 63
284 63
283 63
282 63
281 63
280 63
279 63
278 63
277 63
276 64
275 64
274 64
273 64
272 64
271 64
270 64
269 64
268 65
267 65
266 66
265 66
264 67
263 67
262 67
261 68
260 68
259 69
258 69
257 70
256 70
255 70
254 71
253 72
252 73
251 73
250 74
249 74
248 74
247 75
246 75
245 76
245 77
244 78
243 78
243 79
242 80
241 81
240 81
239 81
239 82
238 83
237 83
236 84
235 84
234 85
233 85
232 85
231 86
230 86
229 86
228 87
227 87
226 87
225 87
224 87
223 88
222 88
221 88
220 88
219 87
218 87
217 87
216 86
217 85
217 84
218 83
218 82
218 81
217 81
216 80
217 79
216 79
215 78
216 77
215 77
214 76
215 75
215 74
214 74
213 73
212 72
213 71
213 70
212 70
211 69
212 68
212 67
211 67
210 66
211 65
210 65
209 64
210 63
209 63
208 62
207 61
208 60
207 60
206 59
205 58
206 57
206 56
205 56
204 55
205 54
204 54
203 53
204 52
203 52
202 51
201 50
202 49
202 48
201 48
200 47
199 46
200 45
199 45
198 44
199 43
199 42
198 42
197 41
198 40
197 40
196 39
197 38
197 37
197 36
197 35
196 35
195 34
196 33
196 32
196 31
195 31
194 30
195 29
195 28
194 28
193 27
194 26
194 25
194 24
194 23
193 23
192 22
193 21
193 20
192 20
191 19
192 18
192 17
192 16
192 15
192 14
192 13
192 12
192 11
192 10
192 9
192 8
191 7
191 6
190 5
191 4
191 3
190 3
189 2
188 2
187 2
186 2
