118 2
117 3
116 3
115 3
114 3
113 3
112 3
111 3
110 3
109 4
108 4
107 4
106 4
105 4
104 4
103 4
102 4
101 5
100 5
99 5
98 5
97 5
96 5
95 5
94 5
93 5
92 5
91 6
90 6
89 6
88 6
87 6
86 6
85 6
84 6
83 7
82 7
81 7
80 7
79 7
78 8
77 8
76 9
75 9
74 9
73 10
72 10
71 10
70 10
69 11
68 11
67 11
66 11
65 11
64 12
63 12
62 12
61 12
60 13
59 13
58 14
57 15
56 15
55 15
54 16
53 16
52 16
51 17
50 17
49 18
48 18
48 19
47 20
46 20
45 20
44 21
43 21
42 22
41 22
40 23
39 24
38 25
37 25
36 26
35 26
34 27
33 27
33 28
32 29
31 30
30 30
29 31
28 32
27 33
26 34
25 34
24 35
23 36
23 37
22 38
21 39
20 40
19 41
19 42
18 43
17 44
16 45
15 46
15 47
14 48
13 49
12 50
11 51
11 52
11 53
10 54
9 55
9 56
8 57
8 58
7 59
7 60
6 61
6 62
6 63
5 64
5 65
5 66
5 67
5 68
5 69
5 70
6 71
6 72
6 73
5 74
4 75
3 76
3 77
3 78
3 79
3 80
3 81
3 82
3 83
2 84
2 85
2 86
2 87
2 88
2 89
2 90
2 91
3 92
4 93
4 94
5 95
6 96
6 97
7 98
7 99
8 100
8 101
9 102
10 103
10 104
11 105
12 106
13 107
14 108
15 109
16 110
17 110
18 110
19 111
20 112
20 113
20 114
20 115
21 116
21 117
22 118
23 119
24 120
25 120
26 121
27 122
28 123
29 123
30 123
31 123
32 123
33 123
34 123
35 122
36 122
37 123
38 123
39 124
40 124
41 125
42 125
43 126
44 127
45 128
46 128
47 129
48 129
49 130
50 130
51 131
52 132
53 133
54 133
55 133
56 134
57 134
58 135
59 135
60 136
61 137
62 137
63 138
64 138
65 138
66 139
67 139
68 139
69 140
70 140
71 140
72 140
73 141
74 142
75 142
76 143
77 143
78 143
79 143
80 144
81 144
82 144
83 144
84 144
85 144
86 145
87 145
88 145
89 145
90 145
91 145
92 145
93 145
94 146
95 146
96 146
97 146
98 146
99 146
100 146
101 147
102 147
103 147
104 147
105 147
106 147
107 147
108 147
109 147
110 147
111 147
112 147
113 147
114 147
115 147
116 147
117 147
118 147
119 147
120 147
121 147
122 147
123 147
124 147
125 147
126 147
127 147
128 147
129 147
130 147
131 147
132 147
133 147
134 147
135 147
136 147
137 146
138 146
139 146
140 146
141 146
142 146
143 146
144 146
145 145
146 145
147 145
148 145
149 145
150 145
151 144
152 144
153 144
154 144
155 143
156 143
157 143
158 143
159 142
160 142
161 141
162 141
163 140
164 140
165 140
166 139
167 139
168 139
169 138
170 138
171 137
172 136
173 135
174 135
175 134
176 134
177 134
178 133
179 133
180 132
180 131
181 130
182 130
183 129
184 129
185 128
186 127
186 126
187 125
188 125
189 124
190 123
190 122
191 121
192 120
192 119
193 118
193 117
194 116
194 115
195 114
195 113
196 112
197 111
197 110
198 109
198 108
199 107
199 106
199 105
199 104
200 103
200 102
200 101
200 100
201 99
201 98
201 97
201 96
201 95
202 94
202 93
202 92
202 91
203 90
204 89
205 90
206 90
207 90
208 90
209 90
210 90
211 90
212 91
213 91
214 91
215 91
216 91
217 91
218 91
219 91
220 91
221 91
222 91
223 91
224 91
225 91
226 91
227 91
228 91
229 91
230 90
231 90
232 89
233 88
233 87
234 86
234 85
235 84
235 83
236 82
236 81
236 80
237 79
237 78
237 77
237 76
237 75
237 74
237 73
237 72
237 71
236 71
235 70
236 69
236 68
235 68
234 67
235 66
235 65
234 65
233 64
232 63
231 62
232 61
231 61
230 60
229 60
228 59
227 59
226 59
225 58
224 58
223 57
222 57
221 57
220 57
219 57
218 56
217 57
216 57
215 57
214 57
213 57
212 57
211 57
210 58
209 58
208 58
207 59
206 59
205 58
204 57
205 56
205 55
204 55
203 54
204 53
204 52
204 51
203 51
202 50
203 49
202 49
201 48
202 47
202 46
202 45
201 45
200 44
201 43
201 42
200 42
199 41
200 40
199 40
198 39
197 38
198 37
198 36
197 36
196 35
195 34
196 33
195 33
194 32
193 31
192 30
191 29
192 28
191 28
190 27
189 26
188 25
187 24
186 23
185 22
184 21
183 21
182 20
181 20
180 19
181 18
180 18
179 17
178 17
177 17
176 16
175 15
174 15
173 15
172 14
171 13
170 12
169 12
168 12
167 11
166 11
165 11
164 10
163 10
162 9
161 9
160 8
159 8
158 7
157 7
156 7
155 7
154 6
153 6
152 6
151 6
150 6
149 6
148 6
147 5
146 5
145 5
144 5
143 5
142 5
141 5
140 5
139 5
138 4
137 4
136 4
135 4
134 4
133 3
132 3
131 3
130 3
129 3
128 3
127 2
126 2
125 2
124 2
123 2
122 2
121 2
120 2
119 2
