97 2
96 3
95 3
94 3
93 3
92 3
91 3
90 3
89 3
88 3
87 3
86 4
85 4
84 4
83 5
82 5
81 6
80 6
79 6
78 6
77 6
76 7
75 7
74 7
73 8
72 8
71 8
70 8
69 9
68 9
67 10
66 11
65 11
64 12
63 12
62 12
61 12
60 13
59 13
58 14
57 15
56 16
55 16
54 17
53 17
52 18
51 18
51 19
50 20
49 21
48 21
47 22
46 22
45 23
44 24
43 24
42 25
41 26
40 26
39 27
38 27
38 28
37 29
36 30
35 30
34 31
33 32
32 33
32 34
31 35
30 35
29 36
28 37
28 38
27 39
27 40
26 41
25 41
24 41
23 40
23 39
23 38
23 37
23 36
23 35
23 34
22 33
23 32
23 31
23 30
23 29
23 28
23 27
23 26
24 25
24 24
24 23
24 22
23 22
22 22
22 23
22 24
21 25
21 26
21 27
21 28
21 29
21 30
21 31
21 32
21 33
21 34
21 35
20 36
19 36
18 35
19 34
19 33
19 32
19 31
19 30
19 29
19 28
19 27
19 26
19 25
19 24
19 23
19 22
20 21
20 20
20 19
20 18
19 18
18 18
18 19
18 20
17 21
17 22
17 23
17 24
17 25
17 26
17 27
16 28
16 29
16 30
16 31
15 32
14 32
13 31
14 30
14 29
14 28
14 27
13 27
12 26
13 25
13 24
13 23
13 22
12 22
11 21
12 20
12 19
12 18
11 18
10 17
9 17
9 18
9 19
9 20
9 21
9 22
8 23
7 23
6 22
5 21
4 20
3 20
3 21
3 22
4 23
5 24
5 25
6 26
6 27
7 28
7 29
7 30
6 31
5 31
4 30
5 29
4 29
3 28
2 28
2 29
2 30
3 31
3 32
4 33
4 34
4 35
5 36
5 37
6 38
6 39
6 40
7 41
8 42
8 43
8 44
8 45
9 46
9 47
9 48
9 49
9 50
10 51
10 52
11 53
11 54
11 55
11 56
11 57
11 58
11 59
11 60
11 61
12 62
13 63
13 64
14 65
13 66
12 67
12 68
12 69
11 70
10 71
9 72
9 73
9 74
10 75
9 76
9 77
9 78
9 79
9 80
10 81
11 82
12 83
13 84
14 85
14 86
15 87
16 88
17 89
17 90
18 91
19 92
20 92
21 93
22 94
23 95
24 95
25 95
26 96
27 96
28 96
29 97
30 97
31 97
32 98
33 98
34 99
35 99
36 100
37 100
38 100
39 101
39 102
40 103
40 104
40 105
41 106
42 107
43 108
43 109
44 110
45 111
46 112
46 113
47 114
48 115
49 115
50 115
51 115
52 114
52 113
53 112
54 111
54 110
55 109
55 108
55 107
55 106
55 105
56 104
57 105
58 105
59 105
60 106
61 107
61 108
61 109
61 110
62 111
63 112
63 113
64 114
65 115
66 115
67 116
68 117
69 118
70 119
71 119
72 119
73 119
74 120
75 120
76 120
77 121
78 121
79 121
80 122
81 122
82 123
83 123
84 124
85 124
86 124
87 124
88 125
89 125
90 125
91 125
92 126
93 126
94 126
95 127
96 127
97 128
98 128
99 128
100 129
101 129
102 129
103 129
104 129
105 129
106 129
107 130
108 130
109 130
110 130
111 130
112 130
113 130
114 130
115 130
116 130
117 130
118 130
119 130
120 130
121 130
122 130
123 130
124 130
125 130
126 130
127 130
128 130
129 130
130 130
131 130
132 130
133 130
134 130
135 130
136 129
137 129
138 129
139 129
140 129
141 129
142 128
143 128
144 128
145 128
146 127
147 127
148 126
149 126
150 126
151 126
152 125
153 125
154 125
155 124
156 124
157 124
158 124
159 123
160 123
161 122
162 121
163 121
164 121
165 120
166 120
167 120
168 119
169 119
170 119
171 118
172 117
173 117
174 116
175 116
176 115
177 115
178 114
179 114
179 113
180 112
181 111
182 111
183 110
184 109
185 109
186 109
187 108
188 107
189 106
190 106
191 105
192 105
193 104
194 104
195 104
196 103
197 103
198 102
199 102
200 102
201 101
202 101
203 101
204 100
205 100
206 100
207 99
208 99
209 98
210 97
211 97
212 97
213 96
214 96
215 95
216 95
217 94
218 93
219 93
220 92
221 92
222 91
223 90
224 89
224 88
225 87
226 87
227 87
228 87
229 87
230 87
231 87
232 88
233 88
234 88
235 88
236 89
237 89
238 89
239 90
240 90
241 90
242 90
243 90
244 90
245 90
246 90
247 89
248 89
249 89
250 88
251 88
252 87
253 87
254 87
255 86
256 86
257 85
258 85
258 84
259 83
259 82
260 81
261 80
261 79
262 78
262 77
263 76
263 75
263 74
263 73
263 72
263 71
263 70
262 70
261 69
262 68
261 68
260 67
261 66
260 66
259 65
258 64
257 63
258 62
257 62
256 62
255 61
254 61
253 61
252 60
251 60
250 60
249 59
248 59
247 59
246 58
245 58
244 58
243 58
242 58
241 58
240 58
239 58
238 58
237 59
236 59
235 60
234 60
233 60
232 60
231 60
230 61
229 61
228 61
227 61
226 62
225 62
224 62
223 62
222 62
221 61
222 60
222 59
221 59
220 58
221 57
220 57
219 57
218 56
217 55
216 55
215 54
216 53
215 53
214 52
213 52
212 51
211 50
210 50
209 49
210 48
209 48
208 47
207 46
206 45
205 45
204 44
205 43
204 43
203 42
202 41
201 40
200 39
199 38
198 37
197 36
196 36
195 35
194 34
193 33
192 32
191 31
190 31
189 30
188 30
187 29
188 28
187 28
186 27
185 27
184 26
183 25
182 25
181 24
180 24
179 23
178 23
177 22
176 22
175 21
174 21
173 20
172 19
171 18
170 18
169 17
168 17
167 16
166 16
165 16
164 15
163 14
162 13
161 13
160 13
159 12
158 12
157 12
156 11
155 11
154 10
153 9
152 9
151 8
150 8
149 8
148 7
147 7
146 6
145 6
144 6
143 5
142 5
141 4
140 4
139 3
138 3
137 3
136 3
135 3
134 3
133 2
132 2
131 2
130 2
129 2
128 2
127 2
126 2
125 2
124 2
123 2
122 2
121 2
120 2
119 2
118 2
117 2
116 2
115 2
114 2
113 2
112 2
111 2
110 2
109 2
108 2
107 2
106 2
105 2
104 2
103 2
102 2
101 2
100 2
99 2
98 2
