114 2
113 3
112 3
111 3
110 3
109 3
108 3
107 3
106 3
105 3
104 3
103 3
102 3
101 3
100 3
99 3
98 3
97 3
96 3
95 3
94 3
93 3
92 3
91 3
90 3
89 3
88 3
87 3
86 3
85 3
84 3
83 3
82 3
81 3
80 3
79 3
78 3
77 3
76 3
75 3
74 3
73 3
72 3
71 3
70 3
69 3
68 3
67 3
66 3
65 3
64 3
63 3
62 3
61 3
60 3
59 3
58 3
57 3
56 3
55 3
54 4
53 4
52 4
51 4
50 4
49 4
48 4
47 4
46 5
45 5
44 5
43 6
42 7
41 8
41 9
40 10
39 11
38 11
37 11
36 11
35 11
34 10
33 10
32 10
31 10
30 10
29 10
28 10
27 10
26 10
25 10
24 10
23 10
22 10
21 10
20 10
19 10
18 10
17 10
16 11
15 11
14 11
13 11
12 11
11 12
10 12
9 13
8 13
7 13
6 14
5 15
4 16
3 16
3 17
3 18
2 19
2 20
3 21
3 22
3 23
3 24
3 25
4 25
5 26
6 27
6 28
7 29
8 30
8 31
9 31
10 32
11 33
12 34
13 34
14 35
15 35
16 36
17 37
18 38
19 38
20 38
21 39
22 40
23 40
24 40
25 41
26 41
27 41
28 42
29 42
30 42
31 43
32 43
33 44
34 44
35 44
36 44
37 45
38 45
39 45
40 45
41 46
42 47
42 48
43 49
44 48
45 48
45 47
46 46
47 45
48 45
49 45
50 45
51 45
52 45
53 45
54 45
55 45
56 45
57 45
58 45
59 45
60 45
61 45
62 45
63 45
64 45
65 45
66 45
67 45
68 45
69 45
70 45
71 45
72 45
73 45
74 45
75 45
76 44
77 44
78 44
79 44
80 44
81 44
82 44
83 44
84 44
85 44
86 44
87 44
88 44
89 44
90 44
91 44
92 44
93 44
94 44
95 44
96 44
97 44
98 44
99 44
100 43
101 43
102 43
103 43
104 43
105 43
106 43
107 43
108 43
109 43
110 43
111 43
112 43
113 43
114 43
115 43
116 42
117 42
118 42
119 42
120 42
121 42
122 42
123 42
124 42
125 42
126 41
127 41
128 41
129 41
130 41
131 41
132 41
133 41
134 41
135 41
136 41
137 41
138 41
139 42
140 43
140 44
141 45
142 45
143 45
144 46
145 46
146 47
147 47
148 47
149 47
150 47
151 47
152 47
153 47
154 47
155 47
156 47
157 47
158 47
159 47
160 47
161 47
162 47
163 47
164 47
165 47
166 47
167 46
168 46
169 46
170 46
171 46
172 46
173 46
174 46
175 46
176 46
177 46
178 46
179 46
180 46
181 46
182 45
183 45
184 45
185 45
186 45
187 45
188 45
189 45
190 45
191 45
192 45
193 45
194 45
195 45
196 45
197 44
198 44
199 44
200 44
201 44
202 44
203 44
204 44
205 43
206 43
207 43
208 43
209 43
210 43
211 43
212 43
213 43
214 42
215 42
216 42
217 42
218 42
219 42
220 42
221 42
222 42
223 42
224 41
225 41
226 41
227 41
228 41
229 41
230 41
231 41
232 41
233 41
234 40
235 40
236 40
237 40
238 40
239 39
240 39
241 39
242 39
243 39
244 39
245 39
246 39
247 39
248 39
249 38
250 38
251 38
252 38
253 38
254 38
255 37
256 37
257 37
258 37
259 37
260 37
261 37
262 36
263 36
264 36
265 35
266 35
267 34
268 33
269 33
270 33
271 33
272 33
273 33
274 33
275 33
276 33
277 32
278 32
279 31
280 31
281 30
282 30
283 29
283 28
284 27
284 26
284 25
284 24
284 23
284 22
283 22
282 21
281 20
280 20
279 19
278 19
277 19
276 18
275 18
274 18
273 18
272 18
271 18
270 18
269 18
268 18
267 19
266 18
265 17
264 17
263 16
262 16
261 16
260 15
259 15
258 15
257 14
256 14
255 14
254 14
253 13
252 13
251 13
250 13
249 12
248 12
247 12
246 12
245 12
244 12
243 11
242 11
241 11
240 11
239 11
238 10
237 10
236 10
235 10
234 10
233 10
232 10
231 10
230 10
229 10
228 10
227 9
226 9
225 9
224 9
223 9
222 9
221 9
220 9
219 9
218 8
217 8
216 8
215 8
214 8
213 8
212 8
211 8
210 8
209 8
208 8
207 8
206 8
205 8
204 8
203 7
202 7
201 7
200 7
199 7
198 7
197 7
196 7
195 7
194 7
193 7
192 7
191 7
190 6
189 6
188 6
187 6
186 6
185 6
184 6
183 6
182 6
181 6
180 6
179 6
178 5
177 5
176 5
175 5
174 5
173 5
172 5
171 5
170 5
169 5
168 5
167 5
166 5
165 5
164 5
163 5
162 5
161 5
160 5
159 5
158 5
157 4
156 4
155 4
154 4
153 4
152 4
151 4
150 4
149 4
148 4
147 4
146 4
145 4
144 4
143 4
142 4
141 4
140 4
139 3
138 3
137 3
136 3
135 3
134 3
133 3
132 3
131 3
130 3
129 3
128 3
127 3
126 3
125 3
124 3
123 3
122 3
121 3
120 3
119 3
118 3
117 3
116 3
115 2
