92 2
91 3
90 4
89 4
88 3
87 3
86 3
85 3
84 4
83 5
82 5
81 6
80 6
79 7
79 8
79 9
78 10
78 11
78 12
78 13
77 14
77 15
77 16
77 17
77 18
77 19
77 20
77 21
76 22
76 23
76 24
76 25
76 26
76 27
76 28
75 29
74 29
73 29
72 29
71 29
70 30
69 30
68 30
67 30
66 30
65 30
64 30
63 29
62 29
61 29
60 30
59 30
58 30
57 30
56 30
55 30
54 30
53 29
52 29
51 29
50 29
49 29
48 29
47 29
46 29
45 29
44 29
43 29
42 29
41 29
40 29
39 29
38 29
37 29
36 29
35 29
34 29
33 28
32 28
31 28
30 28
29 28
28 28
27 28
26 28
25 29
24 29
23 29
22 29
21 30
20 30
19 30
18 30
17 31
16 31
15 30
14 30
13 30
12 30
11 31
11 32
10 33
9 33
8 34
7 35
6 35
5 35
5 36
4 37
4 38
4 39
4 40
5 41
5 42
6 43
5 44
4 44
3 44
2 44
2 45
2 46
2 47
3 48
4 49
5 49
6 50
7 51
8 52
9 53
10 54
11 54
12 55
13 56
13 57
14 58
15 59
16 60
17 60
18 61
18 62
19 63
20 64
21 64
22 65
23 65
24 65
25 66
26 67
27 68
28 68
29 69
30 70
31 70
32 71
33 72
34 73
35 73
36 74
37 74
38 75
39 75
40 76
41 77
41 78
41 79
41 80
41 81
41 82
41 83
42 84
43 84
44 85
44 86
44 87
45 87
46 88
47 88
48 88
49 89
50 90
51 90
52 89
53 90
54 90
55 91
55 92
56 92
57 91
58 91
59 91
60 91
61 91
62 92
63 92
64 92
65 91
66 91
67 91
68 91
69 91
70 91
71 90
72 90
73 90
74 90
75 90
76 91
77 91
78 91
79 91
80 91
81 92
82 92
82 91
83 90
83 89
84 88
85 88
86 88
87 88
88 88
89 88
90 88
91 88
92 88
93 88
93 87
94 86
95 85
96 84
97 84
98 84
99 84
100 84
101 84
101 83
102 82
103 81
104 80
105 80
106 80
107 80
108 80
109 79
110 79
110 78
111 77
112 77
112 76
113 75
114 75
115 76
114 77
114 78
114 79
115 79
116 79
117 79
118 79
119 79
120 78
121 78
122 78
123 78
124 78
125 78
126 78
127 78
128 78
129 78
130 79
131 80
131 81
132 82
132 83
133 84
134 85
135 86
136 87
137 88
138 88
139 88
140 89
141 89
142 89
143 89
144 90
145 90
146 90
147 90
148 90
149 90
150 90
151 90
152 91
153 90
154 90
155 90
156 91
157 91
158 92
159 91
160 91
161 91
162 91
163 91
164 90
165 90
166 90
167 90
168 90
169 90
170 90
171 90
172 90
173 90
174 90
175 89
176 89
177 89
178 89
179 88
180 88
181 88
182 88
183 88
184 88
185 87
186 87
187 87
188 86
189 86
190 85
191 85
192 85
193 85
194 84
195 84
196 84
197 83
198 83
199 83
200 82
201 82
202 81
203 81
204 80
205 80
206 80
207 79
208 79
209 78
210 78
211 78
212 77
213 76
214 75
215 75
216 74
217 74
218 73
219 72
220 71
221 70
222 69
223 68
223 67
224 66
224 65
225 64
225 63
224 63
223 62
222 61
221 61
220 61
219 61
218 61
217 60
218 59
219 59
220 59
221 59
222 58
223 58
224 58
225 58
226 58
227 58
228 59
229 59
230 59
231 59
232 59
233 59
234 59
235 60
236 60
237 60
238 61
239 62
240 62
241 63
242 63
243 64
244 64
245 64
246 65
247 65
248 66
249 67
250 68
251 68
252 68
253 68
254 68
255 69
256 69
257 69
258 69
259 70
260 70
261 70
262 70
263 71
264 71
265 72
266 73
267 73
268 73
269 73
270 73
271 73
272 73
273 73
274 73
275 73
276 73
276 72
277 71
278 70
279 69
280 68
280 67
281 66
281 65
282 64
282 63
282 62
282 61
283 60
283 59
283 58
283 57
283 56
283 55
283 54
283 53
283 52
283 51
283 50
283 49
283 48
283 47
283 46
283 45
283 44
283 43
283 42
283 41
282 41
281 40
282 39
282 38
281 38
280 37
281 36
280 36
279 35
278 34
279 33
278 33
277 33
276 32
275 32
274 32
273 32
272 33
271 33
270 33
269 33
268 33
267 34
266 34
265 34
264 34
263 35
262 35
261 35
260 35
259 36
258 36
257 37
256 37
255 38
254 38
253 38
252 38
251 39
250 39
249 39
248 39
247 40
246 40
245 40
244 40
243 41
242 41
241 42
240 43
239 43
238 43
237 44
236 44
235 44
234 45
233 45
232 45
231 45
230 45
229 45
228 45
227 45
226 45
225 45
224 45
223 45
222 45
221 45
220 45
219 45
218 45
217 45
216 45
215 45
214 44
213 44
212 44
211 44
210 44
209 44
208 43
209 42
210 41
211 40
212 40
212 39
213 38
213 37
214 36
214 35
213 35
212 34
211 33
210 32
209 31
208 30
207 30
206 29
205 29
204 28
203 28
202 28
201 27
200 27
199 26
198 25
197 25
196 25
195 24
194 24
193 24
192 24
191 23
190 23
189 22
188 22
187 21
186 21
185 20
184 20
183 20
182 20
181 19
180 19
179 19
178 19
177 19
176 19
175 19
174 18
173 18
172 18
171 18
170 18
169 18
168 19
167 19
166 19
165 19
164 19
163 19
162 19
161 19
160 20
159 20
158 20
157 20
156 21
155 21
154 22
153 23
152 24
151 24
150 25
149 26
148 27
147 28
146 29
145 29
144 30
143 30
142 31
142 32
141 33
140 34
139 34
138 35
137 34
136 34
135 34
134 34
133 34
132 34
131 33
130 32
131 31
131 30
131 29
131 28
131 27
130 27
129 26
130 25
130 24
129 24
128 23
127 23
126 22
125 21
126 20
126 19
125 19
124 18
123 18
122 17
123 16
122 16
121 15
122 14
121 14
120 14
119 13
118 13
117 13
116 12
117 11
116 11
115 10
114 9
113 9
112 9
111 9
110 9
109 8
108 7
109 6
108 6
107 5
106 5
105 5
104 5
103 5
102 5
101 5
100 4
99 4
98 4
97 4
96 4
95 4
94 3
95 2
94 2
93 2
