61 2
60 3
59 4
58 5
57 5
56 6
55 7
54 8
53 9
52 10
51 11
50 12
49 13
49 14
48 15
47 16
46 17
45 18
44 19
43 19
42 19
41 19
40 19
39 19
38 19
37 19
36 18
37 17
36 17
35 17
34 18
33 17
32 17
31 17
30 18
29 17
28 17
27 16
26 16
25 16
24 17
23 18
22 19
21 20
20 21
19 21
18 22
17 23
16 24
15 25
14 26
13 27
13 28
12 29
11 30
11 31
10 32
10 33
9 34
8 35
7 36
6 37
6 38
6 39
5 40
4 41
4 42
3 43
3 44
2 45
2 46
2 47
2 48
2 49
2 50
2 51
3 52
4 53
5 54
6 54
7 54
8 54
9 55
10 55
11 55
12 55
13 55
14 55
15 56
16 56
17 56
18 56
19 56
20 56
21 56
22 57
23 57
24 57
25 58
26 59
27 59
28 59
29 59
30 59
31 59
32 59
33 59
34 59
35 59
36 59
37 59
38 59
39 59
40 60
41 61
42 62
42 63
42 64
42 65
42 66
42 67
43 68
43 69
43 70
44 71
44 72
44 73
45 74
45 75
46 76
47 76
48 77
48 78
48 79
49 80
50 80
51 80
51 79
51 78
51 77
50 77
49 76
49 75
48 74
48 73
47 73
46 72
47 71
48 71
49 71
50 72
51 73
52 72
52 71
51 70
50 69
49 69
48 68
49 67
48 67
47 66
46 65
45 65
44 64
45 63
46 63
47 63
48 64
49 64
50 64
51 64
52 65
53 65
54 65
55 66
56 66
57 66
58 67
59 67
60 68
61 68
62 68
63 69
64 69
65 69
66 69
67 69
68 69
69 69
70 69
71 70
72 70
73 70
74 70
75 70
76 70
77 70
78 70
79 70
80 69
81 69
82 69
83 69
84 69
85 69
86 69
87 69
88 69
89 68
90 68
91 68
92 67
93 67
94 67
95 67
96 66
97 66
98 66
99 66
100 67
100 68
100 69
100 70
101 71
101 72
102 73
102 74
103 75
104 75
105 76
106 76
107 76
108 77
109 77
110 77
111 77
112 77
113 78
114 78
115 78
116 78
117 78
118 78
119 78
120 78
121 79
122 79
123 79
124 79
125 79
126 79
127 79
128 79
129 79
130 79
131 79
132 79
133 79
134 79
135 79
136 79
137 79
138 79
139 79
140 78
141 78
142 78
143 78
144 78
145 77
146 77
147 77
148 77
149 77
150 76
151 76
152 76
153 76
154 76
155 76
156 75
157 75
158 75
159 75
160 75
161 75
162 74
163 74
164 74
165 73
166 73
167 72
168 72
169 71
170 71
171 71
172 70
173 70
174 70
175 69
176 69
177 69
178 68
179 68
180 67
181 66
182 66
183 66
184 65
185 65
186 65
187 65
188 65
189 65
190 65
190 64
191 63
191 62
191 61
190 61
189 61
188 60
189 59
190 59
191 59
192 59
193 59
194 59
195 59
196 59
197 59
198 59
199 59
200 59
201 59
202 59
203 60
204 60
205 60
206 61
207 61
208 61
209 62
210 62
211 63
212 64
213 64
214 64
215 65
216 65
217 65
218 66
219 66
220 66
221 67
222 67
223 68
224 69
225 69
226 69
227 69
228 70
229 70
230 70
231 70
232 70
233 70
233 69
234 68
234 67
235 66
235 65
235 64
236 63
236 62
237 61
237 60
237 59
237 58
238 57
238 56
238 55
238 54
238 53
238 52
238 51
238 50
238 49
238 48
238 47
238 46
238 45
238 44
238 43
238 42
238 41
238 40
237 40
236 39
237 38
237 37
237 36
237 35
236 35
235 34
236 33
236 32
236 31
235 31
234 30
235 29
235 28
234 28
233 27
234 26
233 26
232 25
231 24
230 24
229 24
228 24
227 25
226 25
225 26
224 26
223 26
222 27
221 28
220 28
219 29
218 29
217 29
216 30
215 30
214 30
213 31
212 31
211 31
210 32
209 32
208 33
207 33
206 34
205 34
204 34
203 35
202 35
201 35
200 36
199 36
198 36
197 36
196 36
195 36
194 36
193 36
192 37
191 37
190 37
189 37
188 37
187 37
186 37
185 37
184 36
185 35
184 35
183 35
182 34
181 34
180 33
181 32
180 32
179 32
178 31
177 31
176 30
175 30
174 29
173 29
172 29
171 28
170 27
169 27
168 26
167 26
166 26
165 25
164 25
163 25
162 24
161 24
160 24
159 23
158 23
157 22
156 22
155 21
154 21
153 21
152 20
151 20
150 20
149 20
148 19
147 19
146 19
145 19
144 18
143 18
142 18
141 17
140 17
139 17
138 16
137 16
136 16
135 15
134 15
133 15
132 15
131 14
130 14
129 13
128 13
127 13
126 12
125 12
124 13
123 13
122 13
121 14
120 14
119 15
118 15
117 16
116 16
115 17
114 17
113 18
112 19
111 19
110 20
109 21
108 21
107 21
106 20
105 19
104 19
103 18
102 18
101 17
100 17
99 16
98 16
97 16
96 15
95 15
94 15
93 14
92 13
91 13
90 12
89 12
88 11
87 11
86 11
85 10
84 10
83 10
82 9
81 8
80 7
79 7
78 7
77 6
76 6
75 5
74 5
73 5
72 4
71 3
70 3
69 2
68 2
67 2
66 2
65 2
64 2
63 2
62 2
