129 2
128 3
127 3
126 3
125 3
124 3
123 3
122 4
121 4
120 4
119 4
118 4
117 4
116 4
115 4
114 4
113 4
112 4
111 4
110 4
109 5
108 5
107 5
106 5
105 5
104 5
103 5
102 5
101 6
100 6
99 6
98 6
97 6
96 6
95 6
94 6
93 7
92 7
91 7
90 8
89 8
88 8
87 9
86 9
85 9
84 9
83 9
82 10
81 10
80 10
79 11
78 11
77 11
76 12
75 13
74 14
73 14
72 14
71 15
70 15
69 16
68 16
67 17
66 18
65 19
64 19
63 20
62 20
61 21
60 21
60 22
59 23
58 24
57 24
56 25
55 25
54 25
53 25
52 25
51 25
50 25
49 25
48 25
47 25
46 25
45 25
44 25
43 25
42 25
41 25
40 25
39 26
38 26
37 26
36 26
35 26
34 27
33 27
32 28
31 28
30 29
29 29
28 29
27 30
26 30
25 30
24 31
23 31
22 32
21 33
20 34
19 34
18 35
17 36
16 36
15 37
15 38
14 39
13 40
12 41
11 42
11 43
10 44
9 45
8 46
8 47
7 48
6 49
6 50
5 51
5 52
5 53
4 54
4 55
3 56
3 57
3 58
3 59
2 60
2 61
2 62
3 63
3 64
4 65
3 66
3 67
4 68
5 69
6 70
7 71
7 72
8 73
9 73
10 74
11 74
12 74
13 75
14 75
15 76
16 76
17 76
18 77
19 77
20 77
21 78
22 78
23 78
24 78
25 78
26 79
27 79
28 79
29 79
30 79
31 79
32 79
33 80
34 80
35 80
36 80
37 80
38 80
39 81
40 81
41 81
42 82
43 82
44 82
45 82
46 82
47 83
48 83
49 83
50 83
51 83
52 83
53 83
54 84
55 84
56 84
57 84
58 84
59 84
60 85
61 85
62 85
63 85
64 85
65 86
66 86
67 86
68 86
69 86
70 86
71 87
72 87
73 87
74 87
75 88
76 88
77 88
78 88
79 88
80 88
81 88
82 88
83 88
84 88
85 88
86 88
87 88
88 87
89 87
90 87
91 87
92 87
93 87
94 87
95 87
96 87
97 87
98 87
99 86
100 86
101 86
102 86
103 86
104 86
105 85
106 85
107 85
108 85
109 85
110 85
111 85
112 85
113 85
114 85
115 84
116 84
117 84
118 84
119 84
120 84
121 83
122 83
123 83
124 83
125 83
126 83
127 83
128 82
129 82
130 82
131 82
132 81
133 81
134 81
135 81
136 81
137 81
138 81
139 81
140 80
141 80
142 81
143 82
143 83
144 83
145 84
146 85
147 85
148 86
149 86
150 87
151 88
152 88
153 88
154 88
155 88
156 88
157 88
158 88
159 88
160 88
161 88
162 88
163 88
164 88
165 88
166 88
167 88
168 88
169 88
170 88
171 88
172 88
173 88
174 88
175 88
176 87
177 87
178 87
179 86
180 86
181 86
182 86
183 86
184 86
185 86
186 85
187 85
188 85
189 85
190 85
191 85
192 85
193 85
194 85
195 85
196 85
197 85
198 85
199 84
200 84
201 84
202 84
203 84
204 84
205 84
206 84
207 84
208 84
209 84
210 84
211 84
212 83
213 83
214 83
215 83
216 83
217 83
218 83
219 83
220 83
221 83
222 82
223 82
224 82
225 82
226 82
227 81
228 81
229 81
230 81
231 80
232 80
233 80
234 80
235 80
236 79
237 79
238 79
239 79
240 78
241 78
242 78
243 78
244 78
245 77
246 76
247 76
248 75
249 75
250 75
251 74
252 74
253 73
254 73
255 72
256 71
257 70
258 70
259 70
260 69
261 68
262 68
263 67
263 66
264 65
264 64
264 63
264 62
263 62
262 61
261 60
262 59
263 58
264 59
265 59
266 59
267 59
268 59
269 59
270 60
271 60
272 60
273 60
274 61
275 61
276 61
277 61
278 62
279 62
280 63
281 63
282 64
282 63
283 62
284 61
284 60
285 59
285 58
286 57
286 56
286 55
287 54
287 53
287 52
287 51
287 50
287 49
287 48
287 47
287 46
287 45
286 45
285 44
286 43
286 42
286 41
286 40
285 40
284 39
285 38
285 37
285 36
285 35
284 35
283 34
282 33
281 32
280 31
279 32
278 32
277 33
276 34
275 34
274 34
273 35
272 35
271 35
270 36
269 36
268 36
267 36
266 37
265 38
264 38
263 39
262 39
261 40
260 40
259 40
258 41
257 41
256 40
255 39
256 38
255 38
254 37
255 36
254 36
253 35
252 34
251 33
250 32
251 31
250 31
249 31
248 30
247 30
246 29
245 29
244 28
243 27
242 26
241 25
240 25
239 24
238 24
237 23
236 22
235 21
234 20
233 20
232 19
231 18
230 17
229 16
228 16
227 15
226 15
225 14
224 14
223 13
222 13
221 12
220 11
219 11
218 11
217 11
216 10
215 10
214 10
213 10
212 9
211 9
210 9
209 9
208 9
207 8
206 8
205 8
204 7
203 7
202 7
201 7
200 6
199 6
198 6
197 6
196 6
195 6
194 6
193 6
192 5
191 5
190 5
189 5
188 5
187 5
186 4
185 4
184 4
183 4
182 4
181 4
180 4
179 4
178 4
177 4
176 4
175 4
174 4
173 3
172 3
171 3
170 3
169 3
168 3
167 3
166 3
165 3
164 3
163 2
162 2
161 2
160 2
159 2
158 2
157 2
156 2
155 2
154 3
153 3
152 3
151 3
150 2
149 2
148 3
147 2
146 2
145 2
144 2
143 2
142 2
141 2
140 2
139 2
138 2
137 2
136 2
135 2
134 2
133 2
132 2
131 2
130 2
