147 2
146 3
145 3
144 4
143 4
142 5
141 6
141 7
140 8
139 8
138 9
138 10
137 11
137 12
137 13
137 14
137 15
137 16
137 17
137 18
137 19
137 20
137 21
137 22
137 23
137 24
138 24
139 25
139 26
139 27
139 28
139 29
138 30
137 30
136 30
135 30
134 30
133 30
132 30
131 30
130 30
129 30
128 31
127 31
126 31
125 31
124 31
123 31
122 31
121 31
120 31
119 31
118 31
117 32
116 32
115 32
114 32
113 31
112 31
111 31
110 32
109 32
108 31
107 31
106 31
105 30
104 29
103 28
102 27
101 26
100 26
99 25
98 24
97 23
96 22
95 22
94 21
93 20
92 20
91 19
90 19
89 18
88 17
87 17
86 17
85 16
84 16
83 16
82 15
81 15
80 15
79 15
78 15
78 16
78 17
78 18
78 19
78 20
79 21
79 22
79 23
80 24
81 25
81 26
81 27
81 28
81 29
81 30
81 31
81 32
81 33
81 34
81 35
80 36
79 36
78 37
77 38
76 38
75 39
75 40
74 41
73 41
72 42
71 43
71 44
71 45
70 46
69 46
68 47
67 47
66 47
65 47
64 47
63 48
62 48
61 48
60 48
59 48
58 48
57 47
56 47
55 46
54 46
53 45
52 45
51 45
50 44
49 44
48 43
47 42
46 42
45 41
44 40
43 40
42 39
41 38
40 38
39 37
38 36
37 36
36 35
35 35
34 34
33 33
32 33
31 33
30 32
29 32
28 31
27 31
26 30
25 30
24 29
23 28
22 28
21 27
20 27
19 26
18 26
17 26
16 25
15 25
14 25
13 25
12 24
11 24
10 24
9 24
8 25
7 24
6 24
5 24
4 24
3 24
2 24
2 25
2 26
2 27
3 28
3 29
4 30
5 30
6 31
6 32
6 33
7 34
8 35
9 36
10 37
11 38
12 39
13 40
14 41
13 42
13 43
13 44
13 45
14 45
15 46
15 47
16 48
16 49
17 50
18 51
18 52
19 53
19 54
19 55
20 56
20 57
20 58
20 59
20 60
20 61
21 62
22 63
22 64
22 65
21 66
21 67
20 68
20 69
20 70
20 71
20 72
20 73
20 74
20 75
19 76
19 77
19 78
19 79
18 80
18 81
18 82
18 83
17 84
17 85
16 86
16 87
15 88
15 89
15 90
14 91
14 92
13 93
12 94
12 95
12 96
12 97
12 98
12 99
12 100
12 101
12 102
13 102
14 102
15 102
16 102
17 101
18 101
19 101
20 101
21 100
22 100
23 99
24 99
25 99
26 98
27 98
28 97
29 97
30 97
31 96
32 95
33 95
34 94
35 94
36 93
37 92
38 92
39 91
40 90
41 90
42 89
43 88
44 87
45 86
46 85
47 84
48 83
49 83
50 82
51 81
52 81
53 80
54 79
55 78
56 78
57 77
58 76
59 76
60 75
61 74
62 74
63 73
64 73
65 73
66 73
67 73
68 73
69 73
70 73
71 73
72 73
73 73
74 73
75 74
76 74
77 74
78 74
79 74
80 74
81 75
82 75
83 75
84 76
83 77
82 78
81 79
80 80
80 81
80 82
81 82
82 82
83 82
84 83
85 83
86 84
87 85
88 86
88 87
88 88
88 89
89 90
89 91
89 92
89 93
89 94
89 95
89 96
89 97
89 98
89 99
90 100
90 101
90 102
91 102
92 103
93 104
94 104
95 104
96 104
97 103
98 104
99 104
100 104
101 103
102 102
102 101
103 100
104 99
105 98
106 97
107 97
108 97
109 96
110 95
111 94
112 93
113 92
113 91
114 90
115 89
116 88
116 87
117 86
118 86
119 85
120 84
121 84
122 85
123 85
124 85
125 85
126 85
127 85
128 85
129 85
130 85
131 85
132 85
133 85
134 85
135 85
136 85
137 85
138 85
139 85
140 85
141 85
142 85
143 85
144 85
145 85
146 85
147 85
148 85
149 85
150 85
151 85
152 85
153 85
154 85
155 84
156 84
157 84
158 84
159 84
160 84
161 84
162 84
163 84
164 84
165 84
166 85
165 86
165 87
164 88
164 89
164 90
164 91
164 92
165 93
165 94
165 95
166 96
166 97
166 98
166 99
167 100
167 101
167 102
167 103
168 104
169 105
170 106
170 107
171 108
171 109
172 109
173 109
174 110
174 111
175 111
176 112
176 113
177 113
178 113
179 112
180 111
181 110
181 109
182 108
182 107
183 106
184 105
185 105
186 104
187 103
187 102
188 101
188 100
189 99
189 98
189 97
189 96
190 95
190 94
191 93
191 92
191 91
191 90
192 89
192 88
192 87
193 86
194 85
194 84
195 83
196 82
197 82
198 82
199 82
200 82
201 82
202 82
203 82
204 82
205 82
206 81
207 81
208 81
209 81
210 81
211 81
212 81
213 81
214 81
215 81
216 81
217 81
218 80
219 80
220 80
221 80
222 80
223 79
224 79
225 79
226 79
227 79
228 79
229 79
230 78
231 78
232 78
233 78
234 78
235 78
236 78
237 78
238 77
239 77
240 77
241 76
242 76
243 76
244 76
245 76
246 76
247 75
248 75
249 75
250 75
251 74
252 74
253 74
254 74
255 73
256 73
257 72
258 72
259 71
260 71
261 71
262 71
263 70
264 70
265 70
266 70
267 69
268 68
269 68
270 67
271 67
272 67
273 66
274 65
275 65
276 64
277 64
278 63
279 62
280 61
280 60
281 59
281 58
281 57
281 56
281 55
281 54
281 53
281 52
280 52
279 51
278 50
277 49
276 48
275 48
274 47
273 46
272 46
271 45
270 45
269 44
268 44
267 44
266 43
265 43
264 43
263 42
262 42
261 42
260 41
259 41
258 41
257 41
256 40
255 40
254 40
253 39
252 39
251 39
250 38
249 38
248 38
247 38
246 37
245 37
244 37
243 36
242 36
241 36
240 35
239 35
238 35
237 35
236 35
235 35
234 34
233 34
232 34
231 34
230 34
229 34
228 33
227 33
226 33
225 33
224 33
223 33
222 33
221 33
220 33
219 33
218 33
217 33
216 32
215 32
214 32
213 32
212 32
211 32
210 32
209 31
208 31
207 31
206 31
205 31
204 30
203 30
202 30
201 30
200 30
199 30
198 30
197 30
196 30
195 30
194 30
193 30
192 30
191 30
190 30
189 30
188 29
187 29
186 29
185 29
184 29
183 29
182 29
181 29
180 29
179 29
178 29
177 28
176 28
175 28
174 28
173 28
172 28
171 28
170 28
169 28
168 28
167 28
166 28
165 28
164 27
163 26
162 25
163 24
163 23
162 23
161 22
162 21
161 21
160 20
159 19
160 18
160 17
159 17
158 16
159 15
159 14
158 14
157 13
158 12
157 12
156 11
157 10
156 10
155 9
154 8
155 7
155 6
154 6
153 5
152 4
153 3
152 3
151 2
150 2
149 2
148 2
