146 2
145 3
144 3
143 3
142 3
141 3
140 3
139 3
138 3
137 4
136 4
135 4
134 4
133 4
132 5
131 5
130 6
129 6
128 6
127 7
126 7
125 7
124 8
123 8
122 9
121 9
120 10
119 10
118 11
117 11
116 12
115 12
114 13
113 14
112 15
111 16
110 17
109 18
108 19
107 20
106 21
105 22
104 23
103 24
102 25
102 26
101 27
100 28
100 29
99 30
98 30
97 31
96 32
95 33
94 34
93 35
92 36
91 37
90 38
89 39
88 40
87 41
86 41
85 42
84 43
83 44
82 45
81 46
80 47
79 48
78 49
78 50
77 51
76 52
75 53
74 54
73 55
72 56
71 57
70 58
69 59
68 60
68 61
67 62
67 63
67 64
67 65
66 66
65 67
64 67
63 67
62 67
61 67
60 67
59 67
58 67
57 67
56 67
55 67
54 67
53 67
52 67
51 67
50 66
49 66
48 66
47 66
46 66
45 65
44 65
43 64
42 64
41 64
40 64
39 63
38 63
37 63
36 63
35 62
34 62
33 62
32 61
31 61
30 60
29 60
28 59
27 59
26 58
25 58
24 58
23 58
22 57
21 57
20 56
19 56
18 56
17 55
16 55
15 54
14 54
13 54
12 53
11 53
10 54
9 55
8 56
8 57
7 58
6 59
5 60
5 61
5 62
5 63
4 64
4 65
3 66
3 67
2 68
2 69
2 70
2 71
2 72
2 73
2 74
2 75
2 76
2 77
2 78
2 79
2 80
2 81
2 82
2 83
2 84
2 85
2 86
2 87
2 88
2 89
2 90
2 91
2 92
2 93
2 94
2 95
2 96
2 97
2 98
2 99
3 100
3 101
3 102
4 103
4 104
5 105
5 106
5 107
5 108
5 109
6 110
6 111
7 112
7 113
7 114
8 115
8 116
9 116
10 116
11 115
12 115
13 114
14 114
15 114
16 113
17 113
18 113
19 112
20 112
21 112
22 111
23 111
24 110
25 110
26 109
27 109
28 109
29 108
30 108
31 108
32 108
33 107
34 107
35 106
36 106
37 106
38 105
39 105
40 105
41 104
42 104
43 104
44 104
45 103
46 103
47 103
48 102
49 102
50 101
51 101
52 101
53 100
54 100
55 100
56 99
57 99
58 99
59 99
60 99
61 100
62 101
63 102
64 103
65 103
66 104
67 105
68 105
69 106
70 106
71 107
72 108
73 108
74 109
75 110
76 111
77 111
78 112
79 113
80 114
81 114
82 115
82 116
83 116
84 117
85 118
86 119
87 120
88 121
88 122
89 122
90 123
91 124
91 125
92 126
93 127
94 128
94 129
95 130
96 131
97 132
98 133
99 133
100 134
100 135
101 136
102 137
103 137
104 138
104 139
105 140
105 141
106 141
107 142
108 143
109 143
110 144
111 144
112 145
113 146
114 146
115 147
116 147
117 147
118 148
119 148
120 149
121 149
122 150
123 150
124 151
125 151
126 151
127 151
128 152
129 152
130 152
131 152
132 152
133 153
134 153
135 153
136 153
137 153
138 154
139 154
140 154
141 154
142 154
143 154
144 154
145 154
146 154
147 154
148 154
149 154
150 154
151 154
152 154
153 154
154 154
155 154
156 154
157 154
158 154
159 154
160 154
161 154
162 154
163 154
164 154
165 154
166 153
167 153
168 153
169 153
170 153
171 153
172 153
173 153
174 153
175 153
176 153
177 153
178 153
179 153
180 153
181 152
182 152
183 152
184 152
185 152
186 152
187 152
188 152
189 152
190 152
191 151
192 151
193 151
194 151
195 150
196 150
197 150
198 150
199 150
200 149
201 149
202 149
203 149
204 148
205 148
206 148
207 148
208 147
209 147
210 146
211 146
212 145
213 144
214 143
215 143
215 142
216 141
217 141
218 140
219 139
220 138
221 137
222 136
222 135
223 134
223 133
224 132
225 132
226 131
227 131
228 132
228 133
228 134
227 135
227 136
227 137
227 138
227 139
228 139
229 139
230 139
231 138
232 138
233 137
234 136
234 135
235 134
236 134
237 133
238 132
239 131
240 130
240 129
241 128
241 127
242 126
243 125
244 124
245 123
246 122
247 122
248 122
249 121
250 121
251 120
252 120
253 119
254 119
255 118
256 117
257 117
258 116
259 116
260 115
261 115
262 115
263 115
264 115
265 115
266 114
267 114
268 114
269 114
270 114
271 114
272 114
273 114
274 113
275 113
276 113
277 113
278 112
279 111
280 110
281 109
282 109
283 108
284 108
285 107
286 106
287 106
288 106
289 105
289 104
290 103
290 102
291 101
291 100
291 99
291 98
290 97
290 96
291 95
291 94
291 93
291 92
291 91
290 91
289 90
290 89
289 89
288 88
287 88
286 87
285 86
286 85
285 85
284 85
283 84
282 83
281 82
280 82
279 81
280 80
279 80
278 79
277 78
278 77
277 77
276 77
275 76
276 75
276 74
275 74
274 73
275 72
274 72
273 71
272 70
271 69
272 68
271 68
270 68
269 67
268 66
269 65
268 65
267 64
266 63
265 62
266 61
265 61
264 60
263 59
262 58
261 57
260 56
259 55
260 54
259 54
258 53
257 52
256 51
255 50
256 49
255 49
254 48
253 47
252 46
251 45
250 44
249 43
248 42
247 42
246 41
245 40
244 39
243 38
244 37
243 37
242 36
241 36
240 35
239 34
238 34
237 33
236 32
235 32
234 31
233 30
232 29
231 28
230 28
229 27
228 27
227 26
226 25
225 25
224 24
223 24
222 23
221 22
220 22
219 21
218 20
217 19
216 19
215 18
214 18
213 17
212 17
211 16
210 15
209 15
208 15
207 14
206 14
205 14
204 13
203 13
202 12
201 12
200 11
199 11
198 10
197 10
196 10
195 9
194 9
193 9
192 9
191 8
190 8
189 8
188 7
187 7
186 7
185 6
184 6
183 6
182 6
181 5
180 5
179 5
178 5
177 5
176 4
175 4
174 4
173 4
172 4
171 4
170 3
169 3
168 3
167 3
166 3
165 3
164 3
163 3
162 3
161 2
160 2
159 2
158 2
157 2
156 2
155 2
154 2
153 2
152 2
151 2
150 2
149 2
148 2
147 2
