99 2
98 3
97 3
96 3
95 3
94 3
93 3
92 3
91 3
90 3
89 4
88 4
87 4
86 4
85 4
84 4
83 4
82 5
81 5
80 5
79 6
78 6
77 6
76 7
75 7
74 7
73 7
72 7
71 8
70 8
69 8
68 8
67 8
66 9
65 9
64 9
63 9
62 9
61 10
60 10
59 11
58 11
57 12
56 12
55 12
54 12
53 12
52 12
51 13
50 13
49 13
48 13
47 14
46 14
45 14
44 14
43 15
42 15
41 15
40 15
39 16
38 16
37 16
36 16
35 17
34 17
33 17
32 17
31 18
30 18
29 18
28 19
27 19
26 20
25 21
24 21
23 21
22 22
21 23
20 23
19 24
18 25
17 26
17 27
17 28
17 29
17 30
16 31
15 31
14 30
13 29
12 28
11 28
10 28
9 28
8 28
7 29
6 30
5 31
4 31
3 32
3 33
2 34
2 35
2 36
2 37
2 38
2 39
2 40
2 41
2 42
2 43
2 44
3 45
3 46
4 47
5 48
5 49
6 50
6 51
7 51
8 51
9 51
10 51
11 50
12 50
13 49
14 49
15 48
16 48
17 48
18 47
19 48
20 49
20 50
20 51
21 51
22 52
23 52
24 53
25 53
26 54
27 54
28 55
29 56
30 56
31 56
32 57
33 57
34 57
35 58
36 58
37 58
38 59
39 60
40 61
41 61
42 61
43 62
44 62
45 62
46 62
47 63
48 63
49 63
50 64
51 65
52 65
53 66
54 66
55 66
56 67
57 67
58 68
59 68
60 68
61 68
62 69
63 70
64 70
65 71
66 71
67 71
68 71
69 72
70 72
71 72
72 73
73 73
74 73
75 73
76 74
77 74
78 74
79 75
80 75
81 76
82 76
83 76
84 76
85 76
86 76
87 77
88 77
89 77
90 77
91 77
92 77
93 77
94 77
95 78
96 78
97 78
98 78
99 78
100 78
101 78
102 78
103 78
104 79
105 79
106 79
107 79
108 79
109 79
110 79
111 79
112 79
113 79
114 79
115 79
116 79
117 79
118 79
119 79
120 79
121 79
122 79
123 78
124 78
125 78
126 78
127 78
128 78
129 78
130 78
131 78
132 78
133 78
134 78
135 78
136 78
137 77
138 77
139 77
140 77
141 77
142 77
143 77
144 77
145 77
146 76
147 76
148 76
149 75
150 74
151 73
151 72
152 71
153 70
154 70
155 71
156 71
157 72
158 72
159 72
160 72
160 71
161 70
161 69
161 68
161 67
162 66
162 65
163 64
164 63
165 63
166 63
167 62
168 61
169 61
170 60
171 59
172 58
173 58
174 57
175 57
176 56
177 55
177 54
178 53
179 52
180 52
181 51
181 50
182 49
182 48
183 47
183 46
183 45
183 44
183 43
183 42
182 42
181 41
182 40
182 39
182 38
182 37
182 36
182 35
182 34
182 33
182 32
182 31
181 31
180 30
181 29
181 28
180 28
179 27
180 26
179 26
178 25
179 24
178 24
177 23
178 22
177 22
176 21
175 20
174 19
175 18
175 17
174 17
173 17
172 17
171 16
170 15
169 14
168 14
167 13
166 13
165 12
164 12
163 11
162 10
161 9
160 9
159 9
158 8
157 8
156 8
155 7
154 7
153 7
152 7
151 7
150 6
149 6
148 5
147 5
146 4
145 4
144 4
143 4
142 4
141 3
140 3
139 3
138 3
137 3
136 3
135 2
134 2
133 2
132 2
131 2
130 2
129 2
128 2
127 2
126 2
125 2
124 2
123 2
122 2
121 2
120 2
119 2
118 2
117 2
116 2
115 2
114 2
113 2
112 2
111 2
110 2
109 2
108 2
107 2
106 2
105 2
104 2
103 2
102 2
101 2
100 2
