91 2
90 3
89 4
88 5
87 6
86 7
85 8
85 9
84 10
84 11
83 12
82 13
82 14
81 15
81 16
80 17
80 18
79 19
78 20
77 20
77 21
76 22
76 23
75 24
74 25
73 26
72 27
72 28
71 29
70 29
69 29
68 29
67 29
66 30
65 30
64 29
65 28
64 28
63 27
64 26
64 25
64 24
64 23
64 22
63 22
62 22
61 22
60 22
59 22
58 22
57 21
56 20
57 19
57 18
56 17
55 17
55 18
54 19
53 19
52 20
51 21
50 21
49 20
48 20
47 20
46 19
45 18
44 18
43 19
43 20
42 21
42 22
42 23
42 24
42 25
42 26
42 27
42 28
42 29
42 30
42 31
42 32
41 33
40 34
39 33
38 33
37 33
36 34
35 34
34 35
33 34
32 35
31 35
30 34
29 33
28 34
27 35
26 36
25 36
24 36
23 37
22 37
21 37
20 38
19 39
18 39
17 39
16 40
15 41
14 42
13 43
12 43
12 44
11 45
10 46
9 46
8 46
8 47
8 48
7 49
6 50
5 51
4 52
4 53
3 54
2 55
2 56
2 57
2 58
2 59
3 60
3 61
4 62
5 63
5 64
5 65
5 66
6 67
6 68
7 68
8 68
9 69
10 69
11 69
12 69
13 68
14 68
15 68
16 68
17 68
18 68
19 68
20 69
21 69
22 69
23 69
24 70
25 70
26 70
27 70
28 71
29 71
30 71
31 71
32 72
33 72
34 72
35 72
36 73
37 73
38 73
39 73
40 74
41 74
42 74
43 74
44 75
45 76
45 77
45 78
46 79
46 80
46 81
46 82
47 83
47 84
47 85
48 86
48 87
49 88
50 89
50 90
50 91
51 92
51 93
52 94
52 95
53 96
54 97
55 98
55 99
56 100
57 101
58 100
59 99
60 100
60 101
61 102
62 103
63 103
64 104
65 104
66 104
66 103
67 102
66 102
65 101
64 100
65 99
64 99
63 99
62 98
61 97
60 96
61 95
60 95
59 94
58 93
57 92
56 91
55 90
56 89
55 89
54 88
55 87
54 87
53 86
54 85
53 85
52 84
51 83
52 82
52 81
51 81
50 80
51 79
50 79
49 78
50 77
51 76
52 76
53 76
54 77
55 76
56 77
56 78
57 79
58 79
59 80
60 81
61 82
62 83
63 83
64 83
65 84
66 84
67 85
68 85
69 85
70 85
71 86
72 86
73 86
74 86
75 86
76 86
77 86
78 86
79 86
80 86
81 85
82 85
83 85
84 85
85 85
86 85
87 85
88 85
89 85
90 85
91 85
92 85
93 84
94 84
95 84
96 84
97 84
98 83
99 83
100 84
101 85
102 86
103 87
104 88
105 89
105 90
106 90
107 90
108 91
109 91
110 91
111 91
112 91
113 91
114 91
115 91
116 91
117 91
118 91
119 92
120 92
121 92
122 92
123 92
124 92
125 92
126 92
127 92
128 92
129 92
130 92
131 92
132 92
133 91
134 91
135 91
136 91
137 91
138 91
139 91
140 91
141 91
142 91
143 91
144 91
145 91
146 91
147 91
148 91
149 91
150 91
151 91
152 91
153 91
154 91
155 91
156 91
157 91
158 91
159 91
160 90
161 90
162 90
163 90
164 90
165 89
166 89
167 89
168 89
169 89
170 88
171 88
172 88
173 88
174 88
175 87
176 87
177 87
178 87
179 87
180 87
181 87
182 87
183 86
184 86
185 86
186 86
187 85
188 85
189 85
190 85
191 85
192 84
193 84
194 84
195 83
196 83
197 83
198 83
199 83
200 82
201 82
202 82
203 82
204 81
205 81
206 81
207 81
208 80
209 80
210 79
211 79
212 79
213 79
214 78
215 78
216 78
217 77
218 77
219 76
220 76
221 76
222 75
223 75
224 74
225 74
226 74
227 73
228 73
229 72
229 71
230 70
229 70
228 69
227 68
226 67
227 66
228 66
229 66
230 66
231 66
232 66
233 66
234 66
235 66
236 66
237 66
238 67
239 67
240 68
241 68
242 69
243 69
244 69
245 69
246 69
247 70
248 70
249 70
250 70
251 70
252 70
253 71
254 71
255 71
256 71
257 71
258 71
259 71
260 72
261 72
262 72
263 72
264 72
265 72
266 72
267 72
268 72
269 72
270 72
271 72
272 72
273 72
274 72
275 72
276 72
277 71
278 70
279 70
280 70
281 69
282 68
283 67
283 66
284 65
285 64
285 63
286 62
286 61
286 60
286 59
286 58
286 57
286 56
286 55
286 54
286 53
285 53
284 52
285 51
284 51
283 50
284 49
284 48
284 47
284 46
283 46
282 45
283 44
282 44
281 43
282 42
281 42
280 41
279 41
278 40
277 39
276 38
275 38
274 37
273 37
272 37
271 37
270 37
269 37
268 38
267 38
266 38
265 38
264 38
263 38
262 39
261 39
260 39
259 39
258 39
257 40
256 40
255 40
254 41
253 41
252 41
251 41
250 42
249 42
248 42
247 42
246 43
245 43
244 43
243 43
242 44
241 44
240 45
239 45
238 45
237 46
236 46
235 46
234 46
233 46
232 47
231 47
230 47
229 47
228 47
227 46
226 46
225 46
224 46
223 45
224 44
225 43
226 43
226 42
227 41
226 41
225 41
224 40
223 39
222 38
221 37
220 37
219 36
218 35
217 34
216 33
215 33
214 32
215 31
214 31
213 30
212 29
211 28
210 28
209 27
208 26
207 25
206 25
205 24
204 24
203 24
202 23
201 23
200 23
199 23
198 23
197 23
196 23
195 24
194 24
193 24
192 25
191 25
190 25
189 25
188 26
187 26
186 26
185 26
184 27
183 27
182 28
181 28
180 28
179 29
178 29
177 29
176 29
175 30
174 31
173 31
172 32
171 32
170 32
169 33
168 33
167 34
166 34
165 35
164 36
163 35
162 34
161 33
160 32
159 31
160 30
159 30
158 29
157 29
156 29
155 28
154 27
153 26
152 25
151 25
150 24
149 24
148 23
147 23
146 23
145 22
144 21
143 20
142 20
141 20
140 19
139 19
138 18
137 18
136 17
135 17
134 16
133 16
132 16
131 16
130 15
129 14
128 14
127 14
126 13
125 13
124 12
123 12
122 12
121 11
120 11
119 11
118 10
117 10
116 10
115 9
114 9
113 8
112 8
111 8
110 8
109 7
108 7
107 7
106 6
105 6
104 6
103 5
102 5
101 5
100 4
99 4
98 4
97 4
96 3
95 3
94 3
93 2
92 2
