108 2
107 3
106 3
105 3
104 3
103 3
102 3
101 4
100 4
99 4
98 4
97 4
96 4
95 4
94 5
93 5
92 5
91 5
90 5
89 5
88 6
87 6
86 6
85 6
84 7
83 7
82 7
81 7
80 8
79 8
78 8
77 9
76 9
75 9
74 10
73 10
72 11
71 11
70 11
69 12
68 12
67 12
66 13
65 13
64 14
63 14
62 15
61 15
60 15
59 16
58 16
57 17
56 17
55 17
54 18
53 18
52 19
51 19
50 19
49 20
48 21
47 21
46 22
45 22
44 22
43 23
42 24
41 24
40 25
39 26
38 27
37 27
36 28
35 29
34 30
33 31
32 32
31 33
30 34
29 35
28 35
27 35
26 35
25 34
24 34
23 34
22 34
21 33
20 33
19 33
18 33
17 32
16 32
15 32
14 32
13 32
12 32
11 31
10 31
9 31
8 31
7 31
6 31
5 32
4 32
4 33
3 34
3 35
3 36
3 37
3 38
3 39
2 40
2 41
2 42
2 43
2 44
2 45
2 46
2 47
3 48
3 49
3 50
3 51
3 52
3 53
4 54
4 55
5 56
6 57
7 57
8 57
9 57
10 57
11 56
12 56
13 56
14 56
15 56
16 56
17 55
18 55
19 55
20 54
21 54
22 54
23 54
24 53
25 53
26 53
27 52
28 52
29 53
30 54
31 55
32 55
33 56
33 57
34 57
35 58
36 59
37 59
38 60
39 61
40 62
41 63
42 64
43 64
44 65
45 66
46 66
47 67
48 68
49 68
50 69
51 70
52 71
53 71
54 72
55 72
56 73
57 73
58 73
59 74
60 74
61 74
62 75
63 75
64 76
65 76
66 77
67 77
68 77
69 78
70 78
71 78
72 79
73 79
74 79
75 80
76 80
77 80
78 81
79 81
80 81
81 82
82 82
83 82
84 82
85 83
86 83
87 83
88 84
89 84
90 84
91 85
92 85
93 85
94 85
95 86
96 86
97 86
98 86
99 86
100 86
101 86
102 87
103 87
104 87
105 87
106 87
107 87
108 87
109 88
110 88
111 88
112 88
113 88
114 88
115 88
116 88
117 88
118 88
119 88
120 88
121 88
122 88
123 88
124 88
125 88
126 88
127 88
128 88
129 88
130 88
131 88
132 88
133 88
134 88
135 88
136 88
137 88
138 88
139 88
140 88
141 88
142 88
143 88
144 88
145 87
146 87
147 87
148 87
149 87
150 87
151 87
152 86
153 86
154 86
155 86
156 85
157 85
158 85
159 84
160 84
161 84
162 83
163 82
164 81
165 81
166 80
167 79
168 79
169 78
170 78
171 78
172 78
173 78
174 77
175 76
176 75
177 74
178 73
179 72
180 71
180 70
181 69
182 69
183 69
184 68
185 67
186 67
187 66
188 66
189 65
190 65
191 65
192 64
193 64
194 63
195 62
195 61
196 60
196 59
197 58
198 57
199 57
200 56
201 55
202 54
202 53
203 52
203 51
203 50
203 49
203 48
203 47
203 46
203 45
203 44
202 44
201 43
200 42
201 41
200 41
199 40
200 39
199 39
198 38
197 37
196 36
197 35
196 35
195 34
196 33
195 33
194 32
193 31
192 31
191 30
192 29
191 29
190 29
189 28
188 27
187 26
186 26
185 25
186 24
185 24
184 23
183 22
182 22
181 21
180 20
179 20
178 19
177 18
176 18
175 17
174 17
173 16
172 15
171 15
170 14
169 14
168 13
167 13
166 12
165 12
164 12
163 11
162 10
161 10
160 9
159 9
158 9
157 8
156 8
155 8
154 8
153 7
152 7
151 7
150 6
149 6
148 6
147 6
146 5
145 5
144 5
143 5
142 5
141 4
140 4
139 4
138 4
137 3
136 3
135 3
134 2
133 3
132 3
131 3
130 2
129 2
128 2
127 2
126 2
125 2
124 2
123 2
122 2
121 2
120 2
119 2
118 2
117 2
116 2
115 2
114 2
113 2
112 2
111 2
110 2
109 2
