131 2
130 3
129 3
128 3
127 3
126 3
125 3
124 3
123 3
122 3
121 3
120 3
119 3
118 3
117 3
116 3
115 4
114 4
113 4
112 4
111 4
110 5
109 5
108 5
107 5
106 5
105 5
104 5
103 5
102 6
101 6
100 6
99 6
98 6
97 7
96 7
95 7
94 7
93 7
92 7
91 8
90 8
89 9
88 9
87 10
86 10
85 10
84 10
83 11
82 11
81 11
80 11
79 12
78 12
77 13
76 13
75 13
74 14
73 14
72 14
71 15
70 15
69 15
68 16
67 16
66 16
65 17
64 18
63 19
62 19
61 20
60 20
59 21
58 21
57 21
56 22
55 23
54 24
53 24
52 25
51 25
50 26
49 26
49 27
48 28
47 29
46 29
45 30
44 30
43 31
42 31
41 32
40 33
39 34
38 35
37 35
36 36
35 36
35 37
34 38
33 39
32 39
31 40
30 41
29 42
29 43
28 44
28 45
27 46
26 45
25 46
25 47
25 48
24 49
23 48
22 49
22 50
21 51
20 51
19 50
19 49
18 49
18 50
18 51
18 52
18 53
18 54
18 55
18 56
17 57
16 58
15 59
14 59
13 59
12 60
11 60
10 60
9 61
8 62
7 63
6 64
5 65
4 65
3 65
3 66
2 67
2 68
3 69
3 70
4 71
5 71
6 72
6 73
6 74
7 75
8 76
9 77
9 78
10 79
11 80
12 81
13 82
14 83
14 84
15 85
16 86
17 87
17 88
18 89
19 90
20 91
21 91
22 92
23 93
24 93
25 94
26 94
27 94
28 95
29 95
30 95
31 96
32 96
33 97
34 97
35 98
36 99
36 100
37 101
37 102
38 103
39 104
40 104
41 105
42 106
43 107
44 108
45 108
46 109
47 109
48 109
49 109
50 108
51 107
51 106
52 105
53 104
54 105
55 105
56 105
57 106
57 107
57 108
57 109
58 110
59 111
60 112
61 113
62 113
63 114
64 114
65 114
66 115
67 115
68 115
69 116
70 117
71 118
72 118
73 119
74 119
75 120
76 120
77 120
78 121
79 122
80 122
81 123
82 123
83 124
84 124
85 124
86 125
87 125
88 125
89 126
90 126
91 126
92 127
93 128
94 128
95 128
96 128
97 128
98 129
99 129
100 129
101 129
102 129
103 129
104 129
105 130
106 130
107 130
108 130
109 130
110 130
111 130
112 131
113 131
114 131
115 131
116 132
117 132
118 132
119 132
120 132
121 132
122 132
123 132
124 133
125 133
126 133
127 133
128 133
129 132
130 133
131 133
132 133
133 133
134 133
135 132
136 132
137 132
138 132
139 132
140 132
141 132
142 131
143 131
144 130
145 131
146 130
147 130
148 130
149 130
150 130
151 129
152 129
153 129
154 129
155 129
156 128
157 128
158 128
159 128
160 127
161 127
162 126
163 126
164 125
165 125
166 125
167 124
168 124
169 124
170 123
171 123
172 123
173 122
174 121
175 120
176 120
177 120
178 119
179 119
180 119
181 118
182 117
183 116
184 115
185 115
186 114
187 113
188 113
188 112
189 111
190 110
191 109
192 108
192 107
193 106
193 105
194 104
195 103
195 102
196 101
196 100
197 99
198 98
198 97
199 96
199 95
199 94
200 93
201 92
201 91
202 90
202 89
203 88
203 87
204 86
204 85
205 84
205 83
206 82
206 81
207 80
207 79
207 78
208 77
209 78
210 78
211 78
212 78
213 79
214 79
215 79
216 79
217 79
218 80
219 80
220 80
221 80
222 80
223 81
224 81
225 81
226 82
227 82
228 83
229 84
230 84
231 84
232 85
233 85
234 85
235 86
236 86
237 86
238 87
239 87
240 88
241 89
242 89
243 89
244 90
245 89
246 88
246 87
247 86
248 85
248 84
249 83
249 82
250 81
250 80
251 79
251 78
252 77
252 76
253 75
253 74
254 73
254 72
254 71
254 70
254 69
254 68
255 67
255 66
255 65
255 64
255 63
254 63
253 62
254 61
254 60
254 59
254 58
254 57
254 56
254 55
253 55
252 54
253 53
253 52
253 51
253 50
252 50
251 49
250 48
251 47
250 47
249 46
250 45
249 45
248 44
247 43
246 42
247 41
246 41
245 41
244 41
243 42
242 42
241 43
240 43
239 44
238 44
237 44
236 45
235 45
234 45
233 45
232 46
231 46
230 46
229 47
228 47
227 48
226 49
225 49
224 49
223 50
222 50
221 50
220 51
219 51
218 51
217 52
216 52
215 52
214 52
213 53
212 53
211 53
210 53
209 53
208 53
207 53
206 52
207 51
207 50
207 49
206 49
205 48
206 47
206 46
205 46
204 45
205 44
204 44
203 43
204 42
204 41
203 41
202 40
201 39
200 38
201 37
201 36
200 36
199 35
198 34
199 33
198 33
197 32
198 31
197 31
196 30
195 29
194 28
195 27
194 27
193 26
192 25
191 24
190 23
191 22
190 22
189 21
188 20
187 19
186 18
185 17
184 16
183 15
182 14
181 14
180 13
179 13
178 12
177 12
176 11
175 11
174 11
173 10
172 10
171 9
170 9
169 8
168 8
167 7
166 7
165 7
164 7
163 6
162 6
161 6
160 6
159 5
158 5
157 5
156 5
155 5
154 5
153 5
152 4
151 4
150 4
149 4
148 4
147 3
146 3
145 3
144 3
143 3
142 3
141 3
140 3
139 3
138 3
137 3
136 3
135 2
134 3
133 2
132 2
