373 1
372 2
371 2
370 2
369 2
368 2
367 2
366 2
365 2
364 2
363 2
362 2
361 3
360 3
359 3
358 3
357 3
356 4
355 4
354 4
353 4
352 4
351 5
350 5
349 5
348 6
347 6
346 7
345 7
344 8
343 8
342 9
341 9
340 10
339 10
338 11
337 11
336 12
335 12
334 13
333 13
332 14
331 14
331 15
330 16
329 16
328 17
327 17
326 18
325 18
324 19
323 19
322 20
321 20
320 21
319 22
318 23
317 24
316 24
315 25
314 25
313 25
312 26
311 26
310 26
309 27
308 27
307 26
306 26
305 26
304 26
303 25
302 25
301 25
300 25
299 25
298 25
297 25
296 25
295 25
294 25
293 25
292 24
291 24
290 24
289 24
288 24
287 24
286 24
285 24
284 23
283 23
282 22
283 21
284 21
285 20
286 20
286 19
287 18
286 18
285 17
284 16
283 16
282 15
283 14
282 14
281 14
280 13
279 13
278 12
277 12
276 11
275 11
274 10
273 10
272 10
271 9
270 9
269 8
268 8
267 8
266 7
265 7
264 7
263 7
262 7
261 6
260 7
259 7
258 7
257 7
256 8
255 9
254 9
253 10
252 11
251 12
250 13
249 14
248 15
247 16
246 16
245 17
244 18
243 19
242 20
241 20
240 20
239 20
238 20
237 20
236 20
235 20
234 20
233 20
232 20
231 20
230 20
229 19
228 19
227 19
226 19
225 19
224 19
223 19
222 19
221 19
220 19
219 19
218 19
217 19
216 19
215 19
214 19
213 19
212 19
211 19
210 19
209 19
208 19
207 19
206 19
205 19
204 19
203 19
202 19
201 19
200 19
199 19
198 19
197 19
196 19
195 19
194 19
193 19
192 19
191 19
190 19
189 19
188 19
187 19
186 19
185 19
184 19
183 19
182 19
181 19
180 19
179 19
178 19
177 19
176 19
175 19
174 19
173 19
172 19
171 20
170 20
169 20
168 20
167 20
166 20
165 20
164 20
163 20
162 20
161 20
160 20
159 20
158 20
157 20
156 20
155 20
154 20
153 20
152 20
151 19
152 18
152 17
152 16
152 15
151 14
152 13
152 12
152 11
153 10
152 10
151 9
152 8
152 7
151 7
150 7
149 7
148 6
147 5
148 4
147 4
146 4
145 5
144 5
143 5
142 4
141 5
140 6
139 7
138 8
137 9
136 10
135 11
134 12
133 13
132 14
132 15
131 16
130 17
130 18
129 19
128 20
127 21
126 22
125 23
124 23
123 24
122 24
121 24
120 24
119 24
118 24
117 24
116 24
115 24
114 24
113 24
112 25
111 25
110 25
109 25
108 25
107 25
106 25
105 25
104 25
103 25
102 25
101 26
100 26
99 26
98 26
97 26
96 26
95 26
94 26
93 26
92 26
91 26
90 27
89 27
88 27
87 27
86 27
85 27
84 27
83 27
82 27
81 28
80 28
79 28
78 28
77 28
76 28
75 28
74 29
73 29
72 29
71 29
70 29
69 29
68 29
67 29
66 29
65 29
64 29
63 30
62 30
61 30
60 30
59 30
58 30
57 30
56 30
55 31
54 31
53 31
52 31
51 31
50 31
49 32
48 32
47 32
46 32
45 32
44 32
43 32
42 32
41 33
40 32
39 32
38 33
37 33
36 33
35 33
34 33
33 33
32 34
31 34
30 34
29 34
28 35
27 35
26 35
25 35
24 35
23 36
22 36
21 36
20 36
19 37
18 37
17 37
16 37
15 37
14 38
13 38
12 38
11 39
10 40
9 41
8 41
7 41
6 41
5 42
4 42
3 42
2 42
2 43
2 44
2 45
3 45
4 46
5 46
6 46
7 46
8 47
9 47
10 47
11 48
12 48
13 48
14 48
15 48
16 48
17 49
18 49
19 49
20 50
21 50
22 50
23 50
24 50
25 51
26 51
27 51
28 51
29 51
30 52
31 52
32 52
33 52
34 52
35 52
36 53
37 53
38 53
39 53
40 53
41 53
42 53
43 54
44 54
45 54
46 54
47 54
48 54
49 54
50 54
51 54
52 55
53 55
54 55
55 55
56 56
57 56
58 56
59 56
60 56
61 56
62 56
63 56
64 56
65 56
66 57
67 57
68 58
69 58
70 58
71 58
72 58
73 58
74 59
75 59
76 59
77 59
78 59
79 59
80 59
81 59
82 59
83 59
84 59
85 59
86 59
87 59
88 59
89 59
90 59
91 59
92 59
93 59
94 59
95 59
96 59
97 59
98 59
99 59
100 59
101 59
102 59
103 59
104 59
105 59
106 59
107 59
108 60
109 60
110 60
111 60
112 60
113 60
114 60
115 60
116 60
117 60
118 60
119 60
120 60
121 60
122 60
123 60
124 61
125 62
126 62
127 63
128 64
129 64
130 65
131 66
132 67
133 67
134 67
135 66
136 65
136 64
137 63
137 62
138 61
139 61
140 61
141 61
142 61
143 61
144 61
145 61
146 61
147 61
148 61
149 61
150 60
151 60
152 60
153 60
154 60
155 60
156 61
157 60
158 60
159 60
160 60
161 60
162 60
163 60
164 60
165 60
166 60
167 60
168 60
169 60
170 60
171 60
172 60
173 60
174 60
175 60
176 60
177 60
178 60
179 60
180 60
181 60
182 60
183 59
184 59
185 59
186 59
187 59
188 59
189 59
190 59
191 59
192 59
193 59
194 59
195 59
196 59
197 58
198 58
199 58
200 58
201 58
202 58
203 58
204 58
205 58
206 58
207 58
208 58
209 58
210 57
211 57
212 57
213 57
214 57
215 57
216 57
217 57
218 57
219 57
220 56
221 56
222 56
223 56
224 56
225 56
226 56
227 56
228 56
229 56
230 56
231 55
232 55
233 55
234 55
235 55
236 55
237 54
238 54
239 55
240 55
241 56
242 56
243 57
244 57
245 57
246 58
247 58
248 58
249 59
250 59
251 59
252 60
253 60
254 61
255 61
256 62
257 62
258 63
259 63
260 64
261 64
262 65
263 65
264 66
265 66
266 66
267 66
268 65
268 64
269 63
269 62
269 61
270 60
270 59
271 58
271 57
272 56
273 55
274 54
275 53
276 52
277 52
278 52
279 51
280 51
281 50
282 50
283 50
284 50
285 50
285 49
286 48
285 48
284 48
283 48
282 47
283 46
284 46
285 46
286 46
287 45
288 45
289 45
290 45
291 45
292 45
293 45
294 45
295 44
296 44
297 44
298 44
299 44
300 44
301 44
302 44
303 44
304 45
305 45
306 45
307 45
308 45
309 45
310 46
311 46
312 46
313 46
314 46
315 47
316 48
317 48
318 48
319 49
320 50
321 50
322 51
323 51
324 52
325 52
326 53
327 54
328 54
329 54
330 55
330 56
331 56
332 57
333 57
334 58
335 58
336 59
337 59
338 60
339 60
340 60
341 61
342 61
343 62
344 62
345 62
346 63
347 63
348 64
349 64
350 64
351 65
352 65
353 65
354 66
355 66
356 66
357 66
358 66
359 67
360 67
361 67
362 67
363 67
364 67
365 67
366 67
367 67
368 67
369 67
370 67
370 66
370 65
369 65
368 65
367 65
366 64
365 64
364 63
365 62
364 62
363 61
362 61
361 60
360 59
359 58
358 58
357 57
356 56
355 55
354 54
353 53
352 52
351 51
352 50
351 50
350 49
349 48
348 47
349 46
348 46
347 45
346 44
345 43
346 42
345 42
344 42
343 41
342 40
341 39
342 38
341 38
340 37
341 36
341 35
341 34
341 33
341 32
341 31
342 30
342 29
343 28
344 27
345 26
346 25
347 25
348 24
349 23
350 23
351 22
352 21
353 20
354 20
354 19
355 18
356 18
357 17
358 16
359 15
360 14
360 13
361 12
362 12
363 11
364 10
365 9
366 8
367 8
368 8
369 7
370 7
371 6
372 5
373 4
374 4
375 3
375 2
374 2
