86 2
85 3
84 3
83 3
82 3
81 3
80 3
79 3
78 3
77 4
76 4
75 4
74 4
73 4
72 4
71 4
70 4
69 5
68 5
67 5
66 5
65 5
64 5
63 6
62 6
61 6
60 6
59 6
58 7
57 7
56 7
55 7
54 8
53 8
52 9
51 10
50 10
49 10
48 11
47 11
46 11
45 12
44 12
43 13
42 14
41 15
40 15
39 16
38 16
37 17
36 17
35 18
34 19
33 20
32 20
31 21
30 21
29 22
28 23
27 24
26 25
25 26
24 26
23 27
22 28
22 29
21 30
20 31
19 31
18 32
18 33
17 34
16 35
15 36
15 37
14 38
14 39
13 40
12 41
11 42
11 43
10 44
10 45
9 46
9 47
8 48
8 49
7 50
7 51
7 52
7 53
6 54
6 55
5 56
5 57
5 58
5 59
4 60
4 61
4 62
4 63
4 64
3 65
3 66
3 67
3 68
3 69
3 70
2 71
2 72
2 73
2 74
2 75
2 76
3 77
3 78
3 79
3 80
4 81
5 82
5 83
6 84
7 85
8 85
9 86
9 87
8 88
7 89
6 90
5 91
4 91
3 91
3 92
3 93
3 94
3 95
3 96
3 97
3 98
3 99
3 100
3 101
3 102
3 103
3 104
3 105
3 106
4 107
4 108
5 109
6 110
7 111
8 111
9 112
10 113
10 114
11 114
12 115
13 115
14 116
15 116
16 117
17 118
18 119
19 119
20 119
21 120
22 120
23 120
24 120
25 120
26 121
26 122
26 123
25 124
25 125
25 126
26 127
27 128
28 129
28 130
29 130
30 131
31 132
31 133
31 134
31 135
32 135
33 135
34 135
35 136
35 137
35 138
36 139
37 138
38 138
39 139
40 140
40 141
41 141
42 140
43 140
44 140
45 140
46 140
47 141
47 140
48 139
48 138
49 137
50 136
51 136
52 137
53 138
54 138
55 139
56 139
57 140
58 141
58 142
58 143
59 144
60 145
61 146
62 147
63 148
64 148
65 148
66 149
67 149
68 149
69 150
70 150
71 150
72 150
73 151
74 151
75 152
76 152
77 153
78 153
79 153
80 153
81 153
82 154
83 154
84 154
85 154
86 154
87 154
88 155
89 155
90 155
91 155
92 156
93 156
94 156
95 157
96 157
97 157
98 157
99 157
100 157
101 157
102 157
103 158
104 158
105 158
106 158
107 158
108 158
109 158
110 158
111 158
112 158
113 158
114 158
115 158
116 158
117 158
118 158
119 157
120 157
121 157
122 157
123 157
124 157
125 156
126 156
127 156
128 155
129 155
130 155
131 155
132 155
133 154
134 154
135 154
136 154
137 153
138 153
139 152
140 151
141 150
142 150
143 149
144 149
145 148
146 147
147 146
148 145
149 145
150 144
151 143
152 143
153 142
154 141
155 140
156 139
157 139
158 138
159 137
160 136
161 135
162 135
163 134
164 133
165 133
166 132
167 131
168 130
169 129
170 128
171 128
172 127
173 126
174 125
175 124
176 123
177 123
178 122
179 121
180 121
181 120
182 119
183 119
184 118
184 117
185 116
186 116
187 115
188 114
189 114
189 113
190 112
191 111
192 110
193 109
194 108
194 107
195 106
196 106
197 105
198 104
198 103
199 102
200 101
201 100
202 99
202 98
203 97
204 96
204 95
205 94
205 93
205 92
206 91
207 91
208 92
209 93
210 94
211 94
212 95
213 95
214 95
215 96
216 96
217 96
218 97
219 97
220 98
221 98
222 98
223 98
224 99
225 99
226 98
227 98
228 98
229 98
230 98
231 97
232 97
233 97
234 96
235 96
236 95
237 95
238 94
239 94
239 93
240 92
241 92
242 91
243 90
244 89
245 88
246 87
247 86
248 85
249 84
249 83
250 82
251 81
252 80
253 79
253 78
254 77
254 76
254 75
255 74
255 73
255 72
255 71
254 71
253 70
252 69
251 68
252 67
251 67
250 66
249 65
248 65
247 64
246 63
247 62
246 62
245 61
244 61
243 60
242 59
241 59
240 58
239 57
238 56
237 55
236 55
235 54
234 54
233 53
234 52
233 52
232 52
231 51
230 51
229 51
228 50
227 50
226 50
225 50
224 50
223 50
222 50
221 50
220 51
219 51
218 51
217 51
216 52
215 52
214 53
213 53
212 54
211 54
210 55
209 55
208 56
207 56
206 57
205 58
204 59
203 59
202 60
201 60
200 60
199 60
198 60
197 59
196 58
197 57
197 56
196 56
195 55
196 54
195 54
194 53
193 52
194 51
193 51
192 50
191 49
190 48
189 47
190 46
189 46
188 45
187 44
186 44
185 43
184 42
183 41
182 41
181 40
180 39
179 38
180 37
179 37
178 37
177 36
176 36
175 35
174 34
175 33
174 33
173 32
172 32
171 31
170 31
169 30
168 29
167 28
166 27
165 27
164 26
163 26
162 25
161 25
160 24
159 23
158 22
157 22
156 21
155 21
154 20
153 20
152 19
151 18
150 17
149 17
148 17
147 16
146 16
145 16
144 15
143 15
142 14
141 13
140 13
139 12
138 12
137 12
136 11
135 11
134 11
133 11
132 10
131 10
130 10
129 9
128 9
127 8
126 8
125 7
124 7
123 7
122 7
121 7
120 6
119 6
118 6
117 6
116 6
115 5
114 5
113 5
112 5
111 5
110 5
109 4
108 4
107 4
106 3
105 3
104 3
103 3
102 3
101 3
100 2
99 2
98 2
97 2
96 2
95 2
94 2
93 2
92 2
91 2
90 2
89 2
88 2
87 2
