63 2
62 3
62 4
61 5
60 6
59 7
59 8
59 9
58 10
58 11
57 12
57 13
56 14
55 15
54 16
54 17
53 18
52 19
51 20
50 20
49 20
48 20
47 20
46 20
45 20
44 20
43 20
42 21
41 21
40 21
39 21
38 21
37 21
36 21
35 21
34 22
33 22
32 22
31 22
30 22
29 22
28 23
27 23
26 23
25 23
24 22
24 21
24 20
24 19
24 18
24 17
24 16
23 16
22 16
21 17
20 18
19 18
19 19
19 20
18 21
18 22
18 23
18 24
18 25
18 26
17 27
16 27
15 28
14 28
13 29
12 30
11 29
10 29
9 30
8 31
7 31
7 32
7 33
7 34
7 35
6 36
5 37
4 38
4 39
4 40
3 41
3 42
3 43
2 44
2 45
2 46
2 47
2 48
3 49
3 50
3 51
3 52
3 53
3 54
4 55
5 56
6 57
7 58
8 58
9 58
10 59
11 60
12 60
13 61
14 61
15 62
16 62
17 62
18 63
19 63
20 63
21 63
22 64
23 64
24 64
25 65
26 65
27 65
28 65
29 66
30 66
31 66
32 67
33 67
34 67
35 67
36 68
37 68
38 68
39 68
40 69
41 69
42 69
43 69
44 69
45 69
46 70
47 70
48 70
49 70
50 70
51 71
52 71
53 71
54 71
55 71
56 71
57 71
58 71
59 72
60 72
61 72
62 72
63 72
64 72
65 72
66 72
67 72
68 73
69 73
70 73
71 73
72 73
73 73
74 73
75 73
76 73
77 73
78 73
79 73
80 73
81 73
82 72
83 72
84 72
85 71
86 71
87 71
88 71
89 71
90 70
91 70
92 69
93 69
94 68
95 68
96 68
97 67
98 67
99 67
100 67
101 66
102 66
103 65
104 66
105 67
106 68
107 69
108 69
109 70
110 70
111 70
112 71
113 71
114 72
115 72
116 72
117 73
118 73
119 73
120 73
121 73
122 73
123 73
124 73
125 73
126 73
127 73
128 73
129 73
130 73
131 73
132 73
133 73
134 73
135 73
136 73
137 73
138 73
139 73
140 73
141 73
142 73
143 73
144 73
145 73
146 73
147 73
148 73
149 73
150 73
151 73
152 73
153 73
154 73
155 73
156 73
157 73
158 73
159 73
160 73
161 73
162 73
163 73
164 73
165 73
166 74
167 74
168 74
169 73
170 73
171 73
172 73
173 73
174 73
175 73
176 73
177 74
178 74
179 74
180 73
181 73
182 73
183 73
184 73
185 73
186 73
187 73
188 73
189 73
190 73
191 73
192 73
193 73
194 73
195 73
196 73
197 73
198 73
199 73
200 73
201 73
202 73
203 73
204 74
205 74
206 74
207 74
208 74
209 74
210 73
211 73
212 73
213 73
214 73
215 73
216 73
217 73
218 73
219 73
220 73
221 73
222 73
223 73
224 73
225 73
226 72
227 72
228 72
229 72
230 72
231 72
232 71
233 71
234 71
235 71
236 71
237 70
238 70
239 70
240 70
241 69
242 69
243 69
244 69
245 69
246 68
247 68
248 68
249 67
250 67
251 67
252 67
253 66
254 66
255 65
256 65
257 65
258 65
259 64
260 64
261 63
262 63
263 62
264 62
265 61
266 60
267 59
267 58
268 57
268 56
269 55
270 56
271 56
272 56
273 57
274 57
275 57
276 57
277 57
278 57
279 57
280 57
281 57
282 57
283 57
284 56
285 56
286 56
287 56
288 55
289 55
290 55
291 54
292 53
292 52
293 51
293 50
294 49
294 48
295 47
295 46
295 45
295 44
295 43
294 43
293 42
294 41
293 41
292 40
293 39
292 39
291 38
290 37
289 36
288 36
287 35
286 35
285 35
284 34
283 34
282 34
281 34
280 34
279 33
278 33
277 33
276 33
275 33
274 33
273 34
272 34
271 34
270 34
269 34
268 34
267 34
266 33
267 32
267 31
267 30
267 29
267 28
267 27
266 27
265 26
266 25
265 25
264 24
263 24
262 23
261 23
260 22
259 22
258 21
257 20
256 20
255 20
254 20
253 19
252 19
251 19
250 18
249 18
248 18
247 18
246 18
245 17
244 17
243 17
242 16
241 16
240 16
239 16
238 16
237 15
236 15
235 15
234 14
233 14
232 14
231 14
230 14
229 13
228 13
227 13
226 13
225 13
224 13
223 12
222 12
221 12
220 12
219 11
218 11
217 11
216 11
215 11
214 10
213 10
212 10
211 10
210 10
209 10
208 10
207 9
206 9
205 9
204 9
203 8
202 8
201 8
200 8
199 8
198 8
197 8
196 8
195 8
194 8
193 7
192 7
191 7
190 7
189 7
188 7
187 7
186 7
185 7
184 7
183 7
182 6
181 6
180 6
179 6
178 6
177 6
176 6
175 6
174 6
173 6
172 6
171 6
170 6
169 6
168 6
167 6
166 6
165 6
164 6
163 6
162 6
161 6
160 6
159 6
158 6
157 6
156 6
155 6
154 6
153 6
152 6
151 6
150 6
149 6
148 7
147 7
146 7
145 7
144 7
143 7
142 7
141 7
140 7
139 7
138 7
137 7
136 7
135 6
134 6
133 6
132 6
131 6
130 6
129 6
128 6
127 6
126 6
125 6
124 6
123 6
122 6
121 6
120 6
119 6
118 6
117 6
116 6
115 7
114 7
113 7
112 7
111 7
110 7
109 7
108 7
107 7
106 7
105 7
104 7
103 7
102 7
101 7
100 7
99 7
98 7
97 7
96 7
95 7
94 7
93 7
92 7
91 7
90 7
89 7
88 8
87 8
86 8
85 8
84 8
83 8
82 8
81 8
80 8
79 8
78 8
77 8
76 8
75 8
74 8
73 7
74 6
74 5
73 5
72 5
71 5
71 6
70 7
69 8
68 7
68 6
69 5
68 5
67 5
66 5
65 4
65 3
64 2
