78 2
77 3
76 4
75 5
75 6
74 7
73 8
73 9
72 10
72 11
71 12
70 13
69 14
68 15
68 16
68 17
67 18
67 19
66 20
65 20
64 20
63 20
62 21
61 21
60 21
59 20
60 19
59 19
58 19
57 20
56 20
56 21
55 22
54 23
53 24
52 24
51 25
50 25
49 25
48 25
47 25
46 26
45 27
45 28
44 29
43 29
42 29
41 29
40 28
41 27
41 26
40 26
39 26
39 27
38 28
37 28
36 28
35 28
34 28
33 28
32 28
31 29
30 29
29 29
28 30
27 31
26 31
25 31
24 32
23 33
22 34
21 34
21 35
20 36
19 37
18 38
17 39
16 40
15 41
14 42
13 42
12 43
11 44
10 44
10 45
9 46
8 47
7 48
6 49
6 50
6 51
5 52
4 52
3 53
3 54
2 55
2 56
3 57
4 58
4 59
5 60
5 61
6 62
7 62
8 63
9 63
10 64
11 64
12 64
13 65
14 65
15 66
16 66
17 66
18 67
19 67
20 67
21 67
22 67
23 67
24 68
25 69
26 68
27 68
28 68
29 68
30 68
31 68
32 69
33 69
34 69
35 69
36 69
37 70
38 70
39 71
40 71
41 72
42 72
43 72
44 72
45 72
46 72
47 72
48 72
49 72
50 73
51 73
52 73
53 73
54 74
55 75
55 76
55 77
56 78
56 79
57 79
58 79
59 79
60 79
61 79
62 80
63 81
63 82
64 82
65 82
66 82
67 83
68 84
69 84
70 85
70 86
71 87
72 88
73 88
74 89
75 89
76 90
77 91
78 92
79 92
80 93
81 93
82 93
83 94
84 94
85 94
86 94
87 93
88 93
89 93
90 93
91 93
91 92
91 91
90 91
89 90
88 89
87 89
86 89
85 88
84 87
83 87
82 87
81 86
80 86
79 85
78 84
79 83
80 83
81 84
82 84
83 84
84 83
85 82
86 82
87 82
88 82
89 82
90 82
91 82
92 82
93 82
93 81
94 80
95 79
96 78
97 78
98 78
99 78
100 78
101 78
102 78
103 78
103 77
104 76
104 75
105 74
105 73
106 72
107 72
108 71
109 71
110 71
111 72
112 72
113 72
114 71
114 70
115 69
116 69
117 70
117 71
118 72
118 73
119 74
120 74
121 75
121 76
122 77
123 78
124 78
125 79
126 79
127 79
128 79
129 79
130 79
131 79
132 80
133 80
134 80
135 81
136 81
137 82
138 82
139 82
140 82
141 83
142 83
143 83
144 83
145 83
146 83
147 84
148 84
149 84
150 84
151 84
152 84
153 84
154 84
155 85
156 85
157 85
158 85
159 85
160 85
161 86
162 86
163 86
164 86
165 86
166 86
167 85
168 85
169 85
170 85
171 84
172 84
173 84
174 84
175 83
176 83
177 83
178 82
179 82
180 81
181 80
182 79
183 79
184 78
185 77
185 76
186 75
186 74
185 74
184 75
184 76
183 77
182 77
181 78
180 79
179 80
178 80
177 81
176 82
175 82
174 82
173 82
172 83
171 83
170 83
169 83
168 84
167 84
166 84
165 84
164 84
163 84
162 84
161 84
160 84
159 84
158 84
157 84
156 83
155 83
154 83
153 83
152 83
151 82
150 82
149 82
148 82
147 82
146 82
145 82
144 81
143 81
142 81
141 80
140 80
139 80
138 79
137 79
136 79
135 78
134 78
133 78
132 78
131 78
130 78
129 77
128 77
127 77
126 77
125 77
124 76
124 75
123 75
122 74
122 73
121 72
120 72
119 71
119 70
119 69
118 68
119 67
119 66
120 65
121 64
122 64
123 64
124 64
125 64
126 64
127 64
128 64
129 64
130 64
131 64
132 64
133 65
134 64
135 64
136 64
137 64
138 64
139 64
140 64
141 64
142 64
143 64
144 64
145 63
146 63
147 63
148 63
149 63
150 63
151 63
152 63
153 63
154 63
155 63
156 63
157 63
158 63
159 63
160 63
161 63
162 62
163 62
164 62
165 62
166 62
167 62
168 62
169 62
170 62
171 62
172 62
173 62
174 62
175 62
176 62
177 62
178 62
179 62
180 62
181 62
182 62
183 62
184 62
185 62
186 62
187 62
188 62
189 62
190 62
191 62
192 62
193 62
194 62
195 62
196 62
197 61
198 61
199 61
200 61
201 62
202 62
203 62
204 62
205 63
206 63
207 63
208 64
209 64
210 64
211 64
212 65
213 65
214 66
215 66
216 66
217 67
218 67
219 67
220 67
221 68
222 68
223 68
224 68
225 68
226 69
227 69
228 69
229 69
230 69
231 69
232 70
233 70
234 70
235 71
236 71
237 71
238 72
239 72
240 72
241 72
242 72
243 72
244 73
245 73
246 73
247 73
248 72
249 72
250 72
251 72
252 72
253 71
254 70
255 69
255 68
256 67
257 66
257 65
258 64
258 63
258 62
258 61
259 60
259 59
259 58
259 57
259 56
259 55
259 54
259 53
259 52
259 51
259 50
259 49
259 48
259 47
259 46
259 45
259 44
258 44
257 43
258 42
258 41
258 40
258 39
257 39
256 38
255 38
254 37
253 37
252 37
251 37
250 36
249 37
248 37
247 36
246 37
245 37
244 37
243 37
242 37
241 38
240 38
239 38
238 38
237 38
236 38
235 38
234 38
233 39
232 39
231 39
230 39
229 39
228 40
227 40
226 40
225 41
224 41
223 42
222 42
221 42
220 42
219 43
218 42
217 43
216 43
215 44
214 44
213 44
212 45
211 45
210 46
209 46
208 47
207 47
206 48
205 48
204 48
203 49
202 49
201 49
200 49
199 49
198 49
197 49
196 48
197 47
198 47
198 46
199 45
199 44
200 43
200 42
201 41
201 40
201 39
200 39
199 38
200 37
199 37
198 36
199 35
199 34
198 34
197 33
196 32
195 32
194 31
193 30
192 29
191 28
190 28
189 28
188 28
187 27
186 27
185 27
184 27
183 26
182 26
181 26
180 26
179 25
178 25
177 25
176 25
175 25
174 24
173 24
172 24
171 24
170 24
169 24
168 24
167 23
166 23
165 23
164 23
163 23
162 23
161 23
160 22
159 22
158 22
157 22
156 22
155 21
154 21
153 21
152 21
151 21
150 21
149 21
148 21
147 21
146 21
145 21
144 21
143 20
142 21
141 21
140 21
139 21
138 21
137 21
136 21
135 21
134 21
133 21
132 21
131 21
130 21
129 21
128 22
127 22
126 22
125 22
124 22
123 23
122 23
121 23
120 23
119 23
118 24
117 24
116 24
115 25
114 25
113 26
112 26
111 27
110 27
109 27
108 27
107 27
106 27
105 27
104 26
103 25
104 24
104 23
104 22
105 21
105 20
105 19
106 18
105 18
104 17
105 16
105 15
105 14
105 13
104 13
103 13
102 13
101 12
102 11
101 11
100 10
101 9
100 9
99 9
98 9
97 8
96 7
97 6
96 6
95 6
94 5
93 4
92 4
91 4
90 4
89 4
88 3
87 3
86 3
85 3
84 3
83 2
82 2
81 3
80 3
79 3
