152 2
151 3
150 3
149 3
148 3
147 4
146 4
145 4
144 4
143 4
142 4
141 5
140 5
139 5
138 6
137 6
136 6
135 6
134 6
133 6
132 6
131 7
130 7
129 7
128 7
127 7
126 7
125 7
124 7
123 8
122 8
121 8
120 8
119 8
118 8
117 8
116 8
115 9
114 9
113 9
112 9
111 9
110 9
109 9
108 10
107 10
106 10
105 10
104 11
103 11
102 11
101 11
100 11
99 12
98 13
97 13
96 13
95 13
94 13
93 13
92 13
91 14
90 15
89 15
88 16
87 17
86 18
85 19
84 20
83 21
83 22
82 23
81 23
80 24
80 25
79 26
78 26
77 26
76 26
75 26
74 27
73 27
72 27
71 27
70 27
69 28
68 28
67 28
66 29
65 29
64 29
63 29
62 30
61 30
60 30
59 30
58 31
57 31
56 31
55 31
54 31
53 32
52 32
51 33
50 33
49 33
48 33
47 33
46 33
45 34
44 34
43 34
42 35
41 35
40 35
39 35
38 36
37 36
36 35
35 35
34 35
33 35
32 35
31 36
30 37
29 37
28 38
27 39
26 40
25 41
24 42
23 42
22 42
21 42
20 43
19 43
18 44
17 44
16 45
15 45
14 46
13 46
12 46
11 47
10 46
9 46
8 46
7 46
6 47
5 47
5 48
5 49
5 50
5 51
5 52
5 53
6 54
7 54
8 55
9 56
10 57
9 58
8 58
7 58
6 58
5 58
4 59
3 59
2 59
2 60
2 61
2 62
2 63
3 64
4 64
5 65
6 66
7 66
8 67
9 67
10 68
11 68
12 69
13 70
14 70
15 70
16 71
17 71
18 72
19 72
20 73
21 74
22 74
23 74
24 75
25 75
26 75
27 75
28 75
29 75
30 75
31 76
32 76
33 77
34 77
35 78
36 78
37 78
38 78
39 78
40 78
41 79
42 79
43 80
44 80
45 80
46 81
47 81
48 81
49 81
50 81
51 82
52 82
53 82
54 82
55 83
56 83
57 83
58 83
59 83
60 83
61 83
62 83
63 83
64 84
65 85
65 86
66 87
66 88
67 89
68 90
68 91
69 92
70 93
71 94
71 95
72 96
73 97
74 98
74 99
75 100
76 101
76 102
77 103
77 104
78 104
79 105
80 105
81 105
82 105
83 105
84 105
84 104
85 103
84 103
83 103
82 102
81 102
80 101
79 100
80 99
79 99
78 99
77 98
76 97
77 96
76 96
75 95
74 94
73 93
74 92
73 92
72 91
71 91
70 90
71 89
72 89
73 89
74 89
75 89
76 89
77 89
78 89
79 89
80 90
81 90
82 90
83 90
84 90
85 90
86 91
87 91
88 91
89 91
90 91
91 91
92 91
93 92
94 92
95 93
96 94
97 95
98 95
99 96
100 96
101 96
102 97
103 97
104 97
105 97
106 98
107 98
108 98
109 98
110 99
111 99
112 99
113 99
114 99
115 99
116 99
117 99
118 99
119 99
120 99
121 98
122 98
123 98
124 98
125 98
126 98
127 97
128 97
129 97
130 97
131 97
132 97
133 97
134 97
135 97
136 97
137 97
138 97
139 97
140 97
141 97
142 97
143 97
144 97
145 98
146 98
147 98
148 98
149 98
150 98
151 98
152 98
153 98
154 98
155 98
156 98
157 98
158 98
159 98
160 98
161 98
162 98
163 97
164 97
165 97
166 97
167 96
168 96
169 96
170 96
171 96
172 95
173 95
174 95
175 94
176 94
177 93
178 93
179 93
180 93
181 94
182 95
183 96
183 97
184 97
185 97
186 98
187 98
188 99
189 99
190 99
191 99
192 99
193 99
194 99
195 99
196 99
197 99
198 99
199 99
200 100
201 100
202 100
203 100
204 100
205 100
206 100
207 100
208 100
209 100
210 100
211 100
212 100
213 100
214 100
215 100
216 100
217 100
218 100
219 100
220 100
221 100
222 100
223 99
223 98
224 97
224 96
223 96
222 95
221 94
220 93
219 92
220 91
219 91
218 90
217 90
216 89
215 88
216 87
217 87
218 87
219 87
220 87
221 86
222 86
223 86
224 86
225 86
226 86
227 86
228 86
229 86
230 86
231 86
232 86
233 86
234 86
235 86
236 85
237 85
238 85
239 85
240 85
241 85
242 85
243 85
244 84
245 84
246 84
247 84
248 84
249 84
250 84
251 84
252 83
253 83
254 83
255 83
256 83
257 82
258 82
259 82
260 82
261 82
262 82
263 82
264 81
265 81
266 81
267 81
268 81
269 81
270 81
271 81
272 81
273 81
274 80
275 80
276 80
277 80
278 80
279 80
280 80
281 80
282 80
283 80
284 80
285 79
286 80
287 80
288 81
289 81
290 81
291 82
292 83
293 83
294 84
295 84
296 84
297 85
298 86
299 87
300 87
301 88
302 88
303 88
304 88
305 88
306 88
307 88
308 87
309 86
310 85
311 85
312 85
313 84
314 84
315 84
316 84
317 84
318 84
319 84
320 83
321 83
322 83
323 83
324 83
325 82
326 82
326 81
327 80
326 80
325 79
324 78
323 77
324 76
323 76
322 75
323 74
324 73
325 73
326 74
327 74
328 75
329 75
330 76
331 76
332 77
333 77
334 78
335 78
336 78
337 78
338 79
339 79
340 79
341 80
342 80
343 80
344 80
345 80
346 80
347 80
348 80
349 80
350 80
351 80
352 80
353 80
354 80
355 80
356 80
357 80
358 79
359 79
360 79
361 79
362 78
363 78
364 78
365 77
366 76
367 75
368 75
368 74
369 73
370 72
371 71
371 70
372 69
372 68
372 67
373 66
373 65
374 64
374 63
374 62
374 61
374 60
374 59
374 58
373 58
372 57
373 56
372 56
371 55
372 54
372 53
372 52
372 51
371 51
370 50
369 49
370 48
369 48
368 47
369 46
368 46
367 45
366 44
365 43
364 42
365 41
364 41
363 41
362 40
361 40
360 39
359 39
358 39
357 38
356 38
355 38
354 38
353 38
352 38
351 38
350 38
349 38
348 38
347 38
346 39
345 39
344 39
343 40
342 40
341 40
340 40
339 41
338 41
337 42
336 42
335 42
334 43
333 43
332 43
332 44
331 45
330 45
329 44
330 43
330 42
330 41
330 40
330 39
329 39
328 38
327 37
328 36
327 36
326 35
327 34
326 34
325 33
324 32
323 31
324 30
323 30
322 30
321 29
320 28
319 27
318 26
317 25
316 25
315 24
314 24
313 23
312 23
311 22
310 22
309 22
308 21
307 20
306 20
305 19
304 19
303 19
302 18
301 18
300 18
299 17
298 17
297 17
296 16
295 16
294 16
293 15
292 15
291 15
290 15
289 14
288 14
287 14
286 14
285 13
284 13
283 13
282 13
281 13
280 12
279 12
278 12
277 12
276 11
275 11
274 11
273 11
272 10
271 10
270 10
269 10
268 10
267 10
266 10
265 9
264 9
263 9
262 9
261 9
260 9
259 9
258 9
257 8
256 8
255 8
254 8
253 8
252 8
251 8
250 8
249 8
248 8
247 8
246 8
245 8
244 8
243 7
242 7
241 7
240 7
239 7
238 7
237 7
236 7
235 6
234 6
233 6
232 6
231 6
230 5
229 5
228 5
227 5
226 4
225 4
224 4
223 4
222 3
221 3
220 3
219 3
218 2
217 2
216 2
215 2
214 2
213 2
212 2
211 2
210 2
209 2
208 2
207 3
206 3
205 3
204 3
203 3
202 3
201 3
200 3
199 2
198 2
197 2
196 2
195 2
194 2
193 2
192 2
191 2
190 2
189 2
188 2
187 2
186 2
185 2
184 2
183 2
182 2
181 2
180 2
179 2
178 2
177 2
176 2
175 2
174 2
173 2
172 2
171 2
170 2
169 2
168 2
167 2
166 3
165 3
164 3
163 3
162 2
161 2
160 2
159 2
158 2
157 2
156 2
155 3
154 3
153 2
