132 1
131 2
130 3
129 4
128 5
127 6
126 7
125 6
124 6
123 6
123 7
122 8
122 9
121 10
120 11
119 12
119 13
119 14
118 15
117 16
116 17
116 18
115 19
114 20
113 21
113 22
113 23
112 24
112 25
111 26
110 27
109 27
108 27
107 27
106 27
105 28
104 28
103 28
102 28
101 28
100 29
99 29
98 29
97 29
96 30
95 30
94 31
93 31
92 31
91 31
90 32
89 32
88 32
87 33
86 33
85 33
84 33
83 33
82 33
81 34
80 34
79 34
78 35
77 35
76 35
75 35
74 35
73 36
72 36
71 36
70 36
69 37
68 37
67 37
66 37
65 38
64 38
63 38
62 39
61 39
60 39
59 39
58 40
57 40
56 40
55 41
54 41
53 42
52 42
51 42
50 42
49 42
48 43
47 43
46 43
45 44
44 44
43 44
42 45
41 45
40 45
39 45
38 46
37 46
36 47
35 47
34 47
33 48
32 48
31 48
30 49
29 49
28 49
27 49
26 50
25 50
24 50
23 51
22 51
21 51
20 51
19 52
18 52
17 52
16 52
15 53
14 53
13 53
12 54
11 55
10 55
9 55
8 56
7 56
6 57
5 58
4 58
3 58
2 58
2 59
2 60
2 61
2 62
3 62
4 62
5 63
6 63
7 63
8 63
9 64
10 64
11 64
12 64
13 64
14 64
15 65
16 65
17 65
18 65
19 65
20 65
21 65
22 65
23 66
24 66
25 66
26 66
27 66
28 66
29 67
30 67
31 67
32 67
33 67
34 67
35 67
36 67
37 67
38 67
39 67
40 67
41 67
42 67
43 67
44 67
45 67
46 67
47 67
48 67
49 67
50 67
51 67
52 67
53 67
54 67
55 67
56 67
57 68
58 68
59 68
60 68
61 68
62 68
63 68
64 68
65 68
66 67
67 67
68 67
69 67
70 67
71 67
72 67
73 67
74 67
75 67
76 67
77 67
78 68
79 68
80 68
81 68
82 68
83 68
84 68
85 68
86 68
87 68
88 68
89 68
90 68
91 68
92 68
93 68
94 69
95 69
96 69
97 69
98 69
99 69
100 69
101 69
102 69
103 69
104 69
105 68
106 68
107 68
108 68
109 68
110 68
111 68
112 68
113 68
114 68
115 68
116 68
117 69
118 69
119 70
120 71
121 72
122 73
123 74
124 75
125 75
126 76
127 77
128 77
129 78
130 78
131 79
132 80
133 80
134 81
135 82
136 82
137 83
138 83
139 84
140 84
141 84
142 85
143 85
144 85
144 84
145 83
145 82
145 81
144 81
143 80
144 79
143 79
142 78
141 77
140 76
141 75
140 75
139 74
138 73
137 72
138 71
139 70
140 70
141 70
142 70
143 70
144 70
145 70
146 70
147 70
148 70
149 70
150 70
151 70
152 70
153 70
154 70
155 70
156 70
157 70
158 70
159 70
160 70
161 70
162 70
163 70
164 70
165 70
166 70
167 70
168 70
169 70
170 70
171 70
172 70
173 70
174 70
175 70
176 71
177 71
178 70
179 70
180 70
181 70
182 70
183 70
184 70
185 70
186 69
187 69
188 69
189 69
190 69
191 69
192 69
193 69
194 69
195 69
196 69
197 69
198 69
199 69
200 69
201 69
202 69
203 69
204 69
205 69
206 69
207 69
208 69
209 69
210 69
211 69
212 69
213 70
214 71
215 71
216 72
216 73
217 73
218 74
219 75
220 75
221 76
222 77
223 78
224 79
225 79
226 80
227 80
228 81
229 81
230 81
231 80
232 80
233 79
234 78
235 78
236 77
237 77
238 76
239 76
240 76
241 75
242 75
243 74
244 74
245 74
246 74
247 73
248 73
249 73
249 72
250 71
249 71
248 70
247 69
246 69
245 69
244 68
243 67
243 66
244 65
245 65
246 65
247 65
248 65
249 65
250 65
251 65
252 64
253 64
254 64
255 64
256 64
257 64
258 64
259 64
260 63
261 63
262 63
263 63
264 63
265 63
266 63
267 63
268 62
269 62
270 62
271 62
272 62
273 62
274 62
275 61
276 61
277 61
278 61
279 61
280 60
281 60
282 60
283 60
284 60
285 60
286 59
287 59
288 59
289 59
290 59
291 59
292 59
293 58
294 58
295 58
296 58
297 58
298 58
299 58
300 57
301 57
302 57
303 57
304 57
305 56
306 56
307 56
308 56
309 56
310 56
311 55
312 55
313 55
314 56
315 56
316 56
317 57
318 57
319 58
320 58
321 59
322 59
323 60
324 61
325 62
326 62
327 63
328 64
329 64
330 65
331 66
332 66
333 67
334 67
335 68
336 68
337 69
338 69
339 70
340 70
341 70
342 71
343 71
344 71
345 72
346 73
347 73
348 74
349 74
350 74
351 75
352 75
353 76
354 76
355 76
356 77
357 78
358 78
359 78
360 79
361 80
362 80
363 80
363 79
364 78
364 77
364 76
364 75
363 75
362 74
363 73
362 73
361 72
360 71
361 70
360 70
359 69
360 68
359 68
358 67
357 66
358 65
357 65
356 64
357 63
356 63
355 62
354 61
353 60
352 59
351 59
350 59
349 58
348 57
347 57
346 56
345 55
344 54
343 53
342 53
341 52
340 52
339 52
338 51
337 50
338 49
338 48
338 47
339 46
340 45
341 45
342 44
343 43
344 43
344 42
345 41
346 40
347 39
348 38
349 37
350 36
351 35
352 34
353 33
354 32
355 31
355 30
356 29
356 28
357 27
357 26
358 25
359 24
359 23
360 22
360 21
360 20
360 19
361 18
361 17
361 16
360 16
359 16
358 16
357 17
356 17
355 18
354 18
353 19
352 19
351 20
350 20
349 21
348 21
347 22
346 23
345 24
344 25
343 25
342 26
341 27
340 27
339 27
338 28
337 28
336 29
335 30
334 30
333 31
332 32
331 32
330 32
329 33
328 33
327 34
326 34
325 34
324 35
323 36
322 37
322 38
321 39
320 39
319 39
318 40
317 41
316 41
315 41
314 41
314 42
313 43
312 43
311 43
310 43
309 43
308 43
307 42
306 42
305 42
304 42
303 41
302 41
301 41
300 41
299 40
298 40
297 40
296 40
295 39
294 39
293 39
292 39
291 38
290 38
289 37
288 37
287 37
286 37
285 37
284 36
283 36
282 36
281 36
280 36
279 35
278 35
277 35
276 34
275 34
274 34
273 34
272 34
271 33
270 33
269 33
268 33
267 32
266 32
265 32
264 32
263 32
262 32
261 31
260 31
259 31
258 31
257 30
256 30
255 29
254 29
253 29
252 29
251 29
250 28
249 28
248 27
249 26
249 25
250 24
250 23
249 23
248 23
247 23
246 22
245 22
244 22
243 21
242 21
241 20
240 19
239 19
238 19
237 18
236 18
235 17
234 17
233 16
232 15
231 15
230 14
229 13
228 13
227 13
226 12
225 11
224 11
223 11
222 10
221 10
220 11
219 12
218 13
217 14
216 15
215 16
214 17
213 18
213 19
212 20
211 21
210 22
209 23
208 22
207 22
206 22
205 22
204 22
203 22
202 22
201 21
200 21
199 21
198 21
197 21
196 21
195 21
194 21
193 21
192 21
191 21
190 20
189 20
188 20
187 20
186 20
185 20
184 20
183 20
182 20
181 20
180 20
179 20
178 20
177 20
176 20
175 20
174 20
173 20
172 20
171 20
170 20
169 20
168 20
167 20
166 20
165 20
164 20
163 20
162 20
161 19
160 20
159 20
158 20
157 20
156 20
155 20
154 20
153 20
152 19
153 18
152 18
151 18
150 18
149 18
148 17
147 16
148 15
148 14
147 13
146 13
145 14
144 14
143 14
142 13
143 12
143 11
143 10
143 9
142 9
141 9
140 9
139 10
138 10
137 10
136 9
137 8
137 7
137 6
138 5
137 5
136 5
135 5
134 6
133 6
132 7
131 6
131 5
131 4
132 3
132 2
133 1
