83 2
82 3
81 4
81 5
80 6
79 7
78 8
77 9
77 10
76 11
76 12
75 13
74 14
74 15
74 16
73 17
73 18
72 19
71 20
71 21
70 22
69 22
68 21
69 20
69 19
68 19
67 18
68 17
68 16
69 15
69 14
68 14
67 14
66 14
65 15
64 16
63 15
62 16
61 15
60 14
59 13
60 12
59 12
58 12
57 12
56 13
55 14
54 15
53 16
52 16
51 15
50 14
49 13
50 12
49 12
48 11
47 12
47 13
47 14
47 15
47 16
46 17
46 18
46 19
46 20
46 21
45 22
45 23
45 24
44 25
44 26
43 27
42 27
41 27
40 27
39 27
38 27
37 27
36 28
35 28
34 28
33 28
32 28
31 28
30 29
29 29
28 29
27 29
26 28
25 27
26 26
25 26
24 26
23 27
22 26
21 26
20 27
20 28
19 29
18 29
17 30
16 31
15 32
14 33
13 34
12 35
12 36
11 37
10 38
9 38
8 37
7 38
7 39
8 40
9 41
8 42
7 42
6 43
5 44
4 44
4 45
3 46
3 47
2 48
2 49
2 50
2 51
2 52
2 53
2 54
3 55
3 56
3 57
4 57
5 58
6 58
7 59
8 59
9 59
10 60
11 60
12 61
13 61
14 61
15 61
16 62
17 62
18 62
19 62
20 63
21 63
22 63
23 64
24 64
25 65
26 65
27 66
28 66
29 66
30 66
31 67
32 67
33 67
34 68
35 68
36 68
37 68
38 68
39 69
40 69
41 70
42 70
43 70
44 71
45 71
46 71
47 71
48 71
49 72
50 72
51 72
52 73
53 74
54 75
54 76
55 76
56 77
57 78
58 79
59 80
59 81
60 81
61 82
62 82
63 83
64 84
65 85
65 86
66 87
67 88
68 89
69 90
69 91
70 92
71 93
72 94
73 95
74 96
74 97
75 98
76 99
77 100
78 101
78 102
79 102
79 101
80 100
80 99
80 98
79 98
78 97
77 96
76 95
75 94
76 93
75 93
74 92
73 91
72 90
73 89
72 89
71 88
70 87
69 86
70 85
69 85
68 84
69 83
68 83
67 82
66 81
65 80
64 79
65 78
64 78
63 78
62 78
61 77
60 76
59 76
58 75
59 74
60 73
61 74
62 74
63 74
64 74
65 75
66 75
67 75
68 75
69 75
70 75
71 75
72 76
73 76
74 76
75 76
76 76
77 76
78 76
79 76
80 76
81 76
82 76
83 76
84 76
85 76
86 76
87 76
88 76
89 76
90 76
91 76
92 76
93 76
94 76
95 76
96 76
97 76
98 76
99 77
100 77
101 77
102 77
103 77
104 77
105 77
106 77
107 76
108 76
109 76
110 76
111 76
112 76
113 76
114 76
115 76
116 76
117 76
118 76
119 76
120 76
121 76
122 76
123 76
124 76
125 75
126 75
127 75
128 75
129 74
130 74
131 74
132 75
132 76
133 76
134 77
135 77
136 78
137 78
138 78
139 79
140 80
141 81
142 81
143 81
144 81
145 82
146 82
147 82
148 83
149 83
150 83
151 83
152 83
153 83
154 83
155 84
156 84
157 84
158 84
159 85
160 85
161 85
162 85
163 85
164 85
165 86
166 86
167 86
168 86
169 86
170 86
171 86
172 86
173 86
174 86
175 86
176 86
177 86
178 86
179 86
180 86
181 86
182 86
183 86
184 86
185 86
186 86
187 86
188 86
189 86
190 86
191 86
192 86
193 86
194 86
195 86
196 86
197 86
198 86
199 86
200 86
201 86
202 86
203 86
204 86
205 86
206 86
207 86
208 86
209 86
210 86
211 86
212 86
213 86
214 86
215 86
216 86
217 86
218 86
219 86
220 85
221 85
222 85
223 85
224 84
225 84
226 84
227 84
228 83
229 83
230 83
231 83
232 83
233 82
234 82
235 82
236 81
236 80
237 79
237 78
237 77
237 76
236 76
235 75
236 74
236 73
235 73
234 73
233 72
232 71
231 71
230 70
229 69
230 68
231 68
232 68
233 68
234 68
235 68
236 68
237 68
238 68
239 68
240 69
241 69
242 69
243 69
244 70
245 70
246 71
247 71
248 71
249 71
250 72
251 72
252 72
253 73
254 73
255 74
256 74
257 75
258 76
259 76
260 76
261 77
262 77
263 77
264 78
265 78
266 78
267 79
268 80
269 81
270 81
271 81
272 82
273 82
274 82
275 83
276 83
277 83
278 84
279 85
280 86
281 85
282 84
283 83
284 82
284 81
285 80
285 79
286 78
287 77
287 76
288 75
288 74
288 73
289 72
289 71
290 70
290 69
290 68
290 67
291 66
291 65
291 64
291 63
292 62
292 61
292 60
292 59
292 58
292 57
292 56
292 55
292 54
292 53
292 52
292 51
291 51
290 50
291 49
291 48
291 47
290 47
289 46
290 45
290 44
290 43
289 43
288 42
289 41
288 41
287 40
288 39
287 39
286 38
287 37
286 37
285 36
286 35
285 35
284 34
283 34
282 34
281 34
280 34
279 34
278 34
277 34
276 35
275 35
274 36
273 36
272 37
271 37
270 37
269 37
268 38
267 38
266 38
265 39
264 39
263 39
262 40
261 41
260 42
259 42
258 42
257 43
256 43
255 44
254 44
253 44
252 45
251 46
250 47
249 47
248 47
247 48
246 48
245 48
244 48
243 48
242 48
241 49
240 49
239 49
238 49
237 48
236 48
235 48
234 47
235 46
235 45
236 44
236 43
235 43
234 42
233 42
232 42
231 41
230 40
229 39
228 39
227 38
226 38
225 37
224 37
223 36
222 35
221 34
220 34
219 34
218 33
217 33
216 33
215 32
214 32
213 32
212 31
211 30
210 29
209 29
208 29
207 28
206 28
205 28
204 27
203 27
202 27
201 27
200 26
199 26
198 25
197 24
196 24
195 24
194 24
193 23
192 23
191 23
190 23
189 23
188 22
187 22
186 22
185 22
184 22
183 21
182 21
181 21
180 21
179 21
178 21
177 21
176 22
175 22
174 22
173 23
172 24
171 25
171 26
170 27
170 28
169 29
169 30
169 31
168 32
167 32
166 31
165 30
166 29
165 29
164 29
163 28
162 27
161 26
160 25
161 24
160 24
159 24
158 23
157 23
156 22
155 22
154 21
153 20
152 19
151 19
150 19
149 18
148 18
147 18
146 17
145 17
144 17
143 16
142 16
141 16
140 15
139 15
138 14
137 14
136 14
135 14
134 13
133 13
132 13
131 13
130 12
129 12
128 12
127 12
126 12
125 12
124 12
123 11
122 11
121 11
120 11
119 11
118 10
117 10
116 10
115 9
114 9
113 9
112 9
111 9
110 9
109 9
108 9
107 9
106 9
105 9
104 8
103 8
102 8
101 8
100 8
99 7
98 7
97 7
96 7
95 6
94 6
93 5
92 5
91 4
90 4
89 3
88 3
87 2
86 2
85 2
84 2
