72 2
71 3
70 3
69 3
68 3
67 3
66 4
65 4
64 4
63 5
62 5
61 5
60 5
59 5
58 5
57 5
56 6
55 6
54 6
53 6
52 7
51 7
50 7
49 8
48 8
47 9
46 10
45 10
44 11
43 11
42 12
41 12
40 13
39 14
38 15
37 16
36 16
35 17
35 18
34 19
33 20
32 21
31 22
30 23
29 24
29 25
28 26
28 27
28 28
28 29
29 30
30 31
29 32
29 33
28 34
27 34
26 34
25 35
24 35
23 35
22 35
21 35
20 35
19 35
18 35
17 35
16 35
15 35
14 35
13 35
12 35
11 35
10 35
9 35
8 35
7 35
6 35
5 36
4 37
4 38
3 39
3 40
3 41
2 42
2 43
2 44
2 45
2 46
3 47
3 48
3 49
4 50
4 51
5 52
5 53
5 54
6 55
7 55
8 55
9 55
10 55
11 55
12 55
13 55
14 55
15 55
16 55
17 55
18 54
19 54
20 54
21 54
22 53
23 53
24 53
25 53
26 53
27 52
28 52
29 53
30 53
31 53
32 53
33 54
34 54
35 55
34 56
33 57
32 58
32 59
32 60
32 61
33 62
33 63
33 64
34 64
35 65
36 66
37 66
38 67
39 68
40 69
41 69
42 70
43 70
44 71
45 71
46 71
47 72
48 73
49 73
50 74
51 74
52 75
53 75
54 75
55 76
56 76
57 76
58 77
59 77
60 78
61 78
62 79
63 79
64 79
65 80
66 80
67 80
68 80
69 80
70 80
71 81
72 81
73 81
74 81
75 81
76 81
77 82
78 82
79 82
80 82
81 83
82 83
83 83
84 83
85 84
86 84
87 84
88 84
89 84
90 84
91 84
92 84
93 84
94 84
95 84
96 84
97 84
98 84
99 84
100 84
101 84
102 84
103 84
104 84
105 84
106 84
107 84
108 84
109 84
110 84
111 84
112 84
113 84
114 84
115 84
116 84
117 84
118 84
119 84
120 84
121 84
122 84
123 84
124 84
125 84
126 84
127 84
128 83
129 83
130 83
131 83
132 83
133 83
134 82
135 82
136 82
137 82
138 82
139 81
140 81
141 81
142 81
143 80
144 80
145 80
146 80
147 79
148 79
149 79
150 78
151 77
152 76
153 75
154 74
154 73
155 72
156 71
157 72
157 73
158 74
159 74
160 75
161 75
162 75
163 75
163 74
164 73
164 72
164 71
164 70
164 69
164 68
164 67
165 66
166 65
167 64
168 64
169 63
170 62
171 61
172 60
173 59
174 58
175 57
176 56
176 55
177 54
177 53
178 52
179 51
180 50
181 49
181 48
182 47
182 46
182 45
182 44
182 43
181 43
180 42
181 41
181 40
180 40
179 39
178 38
177 37
178 36
177 36
176 35
175 34
174 33
175 32
174 32
173 31
172 30
171 29
170 29
169 28
168 27
169 26
168 26
167 26
166 25
165 25
164 24
163 23
162 23
161 23
160 22
159 22
158 21
157 21
156 20
155 20
154 20
153 19
152 18
151 18
150 17
149 17
148 16
147 16
146 16
145 15
144 15
143 15
142 14
141 14
140 13
139 12
138 12
137 12
136 12
135 11
134 11
133 11
132 11
131 10
130 10
129 10
128 10
127 9
126 9
125 8
124 8
123 8
122 7
121 7
120 7
119 7
118 7
117 6
116 6
115 6
114 6
113 6
112 6
111 5
110 5
109 5
108 5
107 5
106 5
105 5
104 4
103 4
102 4
101 4
100 4
99 3
98 3
97 3
96 3
95 2
94 2
93 2
92 2
91 2
90 2
89 2
88 2
87 2
86 2
85 2
84 2
83 2
82 2
81 2
80 2
79 2
78 2
77 2
76 2
75 2
74 2
73 2
