102 1
101 2
100 3
99 4
99 5
98 6
97 7
96 8
96 9
95 10
95 11
95 12
94 13
94 14
94 15
93 16
93 17
93 18
92 19
92 20
92 21
91 22
91 23
91 24
91 25
91 26
91 27
90 28
90 29
89 30
88 30
87 30
86 30
85 30
84 30
83 30
82 30
81 30
80 30
79 30
78 30
77 30
76 30
75 30
74 30
73 30
72 30
71 31
70 31
69 31
68 31
67 31
66 31
65 31
64 31
63 32
62 32
61 32
60 32
59 32
58 32
57 32
56 32
55 32
54 33
53 33
52 33
51 33
50 33
49 33
48 33
47 33
46 33
45 33
44 33
43 33
42 33
41 33
40 33
39 33
38 33
37 33
36 34
35 34
34 34
33 34
32 34
31 34
30 35
29 35
28 35
27 36
26 36
25 36
24 37
23 38
22 39
21 39
20 40
19 41
18 42
18 43
17 44
17 45
16 46
16 47
15 48
15 49
14 50
13 51
12 52
11 53
10 54
9 55
8 56
8 57
7 58
6 59
6 60
5 61
4 62
4 63
3 64
3 65
2 66
2 67
2 68
2 69
2 70
3 70
4 71
3 72
3 73
3 74
4 75
4 76
5 77
6 78
7 78
8 78
9 78
10 78
11 79
12 79
13 79
14 80
15 80
16 80
17 81
18 81
19 81
20 81
21 81
22 81
23 81
24 81
25 81
26 81
27 81
28 81
29 81
30 81
31 81
32 81
33 81
34 82
35 82
36 82
37 82
38 82
39 82
40 82
41 83
42 83
43 83
44 83
45 83
46 83
47 83
48 83
49 83
50 83
51 83
52 84
53 84
54 84
55 84
56 84
57 84
58 85
58 86
59 87
60 88
60 89
61 90
61 91
62 92
62 93
63 94
63 95
63 96
64 97
65 98
65 99
66 100
66 101
67 102
67 103
68 104
68 105
69 106
69 107
70 108
71 109
72 110
72 111
73 111
74 112
74 113
75 114
76 114
77 114
78 115
79 115
80 115
81 114
81 113
82 112
82 111
82 110
82 109
82 108
81 108
80 107
79 106
80 105
79 105
78 104
79 103
78 103
77 102
76 101
77 100
76 100
75 99
76 98
75 98
74 97
73 96
74 95
73 95
72 94
73 93
74 92
75 92
76 93
77 94
78 95
79 96
80 96
81 97
82 98
83 99
84 99
85 100
86 100
87 101
88 102
89 103
90 103
91 104
92 105
93 105
94 106
95 106
96 107
97 107
98 108
99 108
100 108
101 109
102 110
103 111
104 111
105 112
106 112
107 113
108 114
109 114
110 114
111 115
112 116
113 116
114 117
115 117
116 117
117 117
118 117
119 118
120 118
121 118
122 118
123 119
124 119
125 119
126 119
127 119
128 120
129 120
130 121
131 121
132 121
133 122
134 122
135 122
136 122
137 122
138 123
139 123
140 123
141 124
142 124
143 124
144 124
145 125
146 125
147 125
148 125
149 125
150 125
151 125
152 125
153 126
154 126
155 126
156 127
157 127
158 127
159 127
160 128
161 128
162 128
163 128
164 128
165 128
166 128
167 128
168 128
169 128
170 128
171 128
172 128
173 128
174 128
175 128
176 128
177 129
178 128
179 128
180 129
181 128
182 129
183 128
184 128
185 128
186 128
187 128
188 128
189 128
190 128
191 127
192 127
193 127
194 126
195 125
196 125
197 125
198 125
199 124
200 123
201 122
202 122
203 121
204 120
205 119
206 119
207 118
208 117
209 117
209 116
210 115
211 114
211 113
212 112
213 111
213 110
214 109
214 108
214 107
215 106
215 105
216 104
216 103
216 102
216 101
216 100
216 99
217 98
217 97
217 96
216 96
215 95
216 94
216 93
216 92
216 91
216 90
215 90
214 89
215 88
214 88
213 87
214 86
213 86
212 86
211 85
210 84
209 83
208 82
207 81
208 80
209 80
210 79
211 79
212 79
213 79
214 78
215 78
216 78
217 78
218 78
219 77
220 77
221 77
222 77
223 76
224 76
225 76
226 76
227 75
228 75
229 75
230 75
231 75
232 75
233 75
234 75
235 75
236 74
237 74
238 74
239 74
240 74
241 74
242 74
243 74
244 74
245 74
246 74
247 74
248 74
249 73
250 73
251 73
252 73
253 73
254 73
255 73
256 73
257 73
258 73
259 73
260 73
261 73
262 73
263 72
264 72
265 72
266 72
267 72
268 72
269 72
270 72
271 71
272 71
273 71
274 71
275 71
276 72
277 72
278 72
279 72
280 72
281 73
282 73
283 73
284 73
285 73
286 73
287 74
288 74
289 74
290 74
291 75
292 75
293 75
294 75
295 75
296 76
297 76
298 77
299 77
300 78
301 78
302 78
303 78
304 79
305 79
306 80
307 80
308 81
309 81
310 81
311 82
312 82
313 83
314 83
315 84
316 84
317 84
318 84
319 85
320 85
321 85
322 86
323 86
324 86
325 87
326 87
327 88
328 88
329 89
330 89
331 89
332 90
333 90
334 91
335 91
336 92
337 92
338 91
338 90
337 89
336 89
335 88
334 87
335 86
334 86
333 85
332 84
331 83
330 82
331 81
331 80
330 80
329 79
330 78
329 78
328 77
329 76
329 75
329 74
328 74
327 73
328 72
328 71
329 70
329 69
329 68
329 67
329 66
329 65
330 64
330 63
330 62
330 61
330 60
330 59
330 58
331 57
331 56
331 55
331 54
331 53
331 52
331 51
331 50
331 49
331 48
331 47
331 46
331 45
331 44
331 43
331 42
331 41
331 40
331 39
332 38
332 37
333 36
333 35
334 34
335 33
336 32
336 31
337 30
338 30
339 29
340 29
341 28
342 28
343 28
343 27
344 26
344 25
343 25
342 25
341 25
340 25
339 25
338 25
337 25
336 25
335 26
334 26
333 26
332 26
331 27
330 27
329 27
328 28
327 28
326 28
325 28
324 28
323 29
322 29
321 29
320 29
319 29
318 30
317 30
316 30
315 31
314 31
313 32
312 33
311 33
310 33
309 34
308 34
307 35
306 36
305 36
304 36
303 37
302 37
301 38
300 39
299 39
298 39
297 40
296 40
295 41
294 41
293 41
292 42
291 43
290 44
289 44
288 45
287 46
286 47
285 47
284 47
283 48
282 48
281 49
280 49
279 49
278 49
277 49
276 49
275 49
274 48
273 48
272 48
271 48
270 48
269 48
268 47
267 47
266 47
265 47
264 47
263 47
262 47
261 47
260 47
259 47
258 47
257 46
256 46
255 46
254 46
253 45
252 45
251 45
250 45
249 45
248 44
247 44
246 44
245 44
244 44
243 44
242 44
241 43
240 43
239 43
238 42
237 42
236 42
235 42
234 41
233 41
232 41
231 41
230 41
229 41
228 41
227 41
226 40
225 40
224 40
223 40
222 40
221 40
220 40
219 39
220 38
220 37
220 36
220 35
220 34
221 33
221 32
222 31
222 30
223 29
224 28
224 27
225 26
224 26
223 25
222 25
221 25
220 24
219 23
218 23
217 22
216 22
215 22
214 21
213 21
212 20
211 20
210 20
209 19
208 19
207 19
206 19
205 19
204 18
203 18
202 18
201 18
200 18
199 18
198 17
197 17
196 17
195 17
194 17
193 17
192 16
191 16
190 16
189 15
188 15
187 15
186 15
185 14
184 14
183 14
182 14
181 14
180 14
179 14
178 14
177 14
176 14
175 14
174 14
173 14
172 14
171 14
170 14
169 14
168 14
167 14
166 15
166 16
165 17
164 18
163 18
163 19
162 20
162 21
161 22
161 23
160 24
159 25
159 26
158 27
157 28
157 29
156 30
155 30
155 31
154 32
153 33
152 33
151 33
150 33
149 33
148 33
147 33
146 33
145 32
144 32
143 32
142 32
141 32
140 32
139 32
138 32
137 32
136 31
137 30
137 29
137 28
136 28
135 28
134 27
133 26
132 25
133 24
133 23
133 22
133 21
134 20
133 20
132 19
131 19
130 19
129 18
130 17
130 16
130 15
129 15
128 14
127 14
126 14
125 13
126 12
126 11
126 10
126 9
125 9
124 9
123 9
122 9
121 9
120 8
121 7
121 6
120 6
119 6
118 6
117 7
116 7
115 7
114 7
113 6
112 6
111 6
110 7
109 8
108 9
107 10
106 11
105 12
105 13
104 14
104 15
103 16
102 17
102 18
101 19
100 20
100 21
99 22
98 21
98 20
98 19
99 18
99 17
100 16
100 15
101 14
101 13
101 12
102 11
102 10
103 9
103 8
104 7
104 6
105 5
105 4
105 3
104 3
104 4
103 5
103 6
102 7
101 8
101 9
101 10
100 11
99 11
99 12
99 13
98 14
98 15
98 16
97 17
97 18
96 19
95 18
95 17
95 16
96 15
96 14
96 13
97 12
97 11
97 10
98 9
98 8
99 7
100 6
100 5
101 4
102 3
102 2
103 1
