60 2
60 3
59 4
59 5
59 6
58 7
58 8
57 9
57 10
57 11
56 12
56 13
56 14
56 15
56 16
55 17
55 18
55 19
55 20
55 21
55 22
54 23
54 24
54 25
54 26
54 27
54 28
54 29
54 30
54 31
54 32
54 33
54 34
54 35
54 36
54 37
54 38
54 39
54 40
54 41
54 42
54 43
54 44
54 45
55 46
55 47
55 48
55 49
55 50
55 51
56 52
56 53
56 54
55 55
54 55
53 55
52 55
51 55
50 56
49 57
48 57
47 58
47 59
46 60
45 61
44 61
43 61
43 62
42 63
42 64
41 65
40 66
39 67
38 67
37 67
36 66
37 65
37 64
37 63
36 63
35 63
34 63
33 64
33 65
32 66
31 66
30 65
30 64
31 63
31 62
31 61
31 60
31 59
30 59
29 58
30 57
29 57
28 57
27 58
26 59
26 60
26 61
26 62
26 63
26 64
26 65
25 66
24 66
23 67
22 67
21 68
20 68
19 67
18 66
19 65
19 64
19 63
19 62
19 61
18 61
17 62
17 63
17 64
17 65
17 66
17 67
17 68
17 69
17 70
17 71
17 72
17 73
17 74
16 75
15 76
14 75
13 75
12 74
13 73
12 73
11 72
10 71
9 72
9 73
10 74
10 75
10 76
10 77
9 78
8 78
7 78
7 79
7 80
6 81
5 81
4 80
3 79
2 79
2 80
2 81
2 82
3 82
4 83
5 83
6 84
6 85
5 86
4 87
4 88
4 89
4 90
4 91
5 92
6 93
5 94
5 95
4 96
4 97
4 98
4 99
4 100
5 101
6 102
5 103
5 104
5 105
5 106
5 107
5 108
5 109
6 110
7 109
7 108
8 107
9 108
9 109
9 110
9 111
10 112
11 113
11 114
12 113
13 112
14 111
15 110
15 109
16 108
16 107
17 106
18 106
19 106
20 106
21 106
22 107
22 108
22 109
22 110
22 111
23 112
23 113
24 113
24 112
25 111
25 110
25 109
26 108
27 108
28 108
29 108
30 108
31 109
32 109
33 110
34 110
35 110
36 111
37 111
38 111
39 111
40 112
41 112
42 112
43 113
44 113
45 113
46 113
47 113
48 113
49 113
50 113
51 113
52 114
53 115
54 116
55 116
56 116
57 117
58 117
59 118
60 118
61 119
62 120
63 120
64 121
65 121
66 121
67 122
67 123
67 124
67 125
67 126
67 127
67 128
67 129
67 130
68 131
68 132
68 133
68 134
68 135
68 136
69 137
69 138
69 139
69 140
70 141
70 142
70 143
70 144
71 145
71 146
71 147
71 148
72 149
72 150
72 151
73 151
73 150
74 149
75 150
75 151
76 152
77 152
77 151
78 150
79 151
80 152
81 153
81 152
82 151
82 150
81 150
80 149
81 148
81 147
82 146
83 147
83 146
84 145
83 144
83 143
82 143
81 142
82 141
81 141
80 140
79 139
80 138
80 137
79 137
78 136
79 135
78 135
77 134
78 133
78 132
78 131
78 130
78 129
78 128
78 127
78 126
78 125
79 124
80 124
81 124
82 124
83 124
84 124
85 124
86 125
87 125
88 125
89 125
90 125
91 125
92 125
93 125
94 125
95 125
96 125
97 125
98 126
99 126
100 126
101 126
102 126
103 126
104 126
105 126
106 126
107 126
108 126
109 126
110 126
111 126
112 125
113 125
114 125
115 125
116 124
117 124
118 124
119 123
120 123
121 122
122 122
123 122
124 121
125 121
126 120
127 120
128 119
129 119
130 119
131 118
132 118
133 118
134 118
135 118
136 117
137 117
138 117
139 117
140 117
141 118
141 119
141 120
142 121
142 122
143 123
144 124
145 125
146 125
147 125
147 124
148 123
149 124
150 125
150 126
151 127
152 128
152 129
153 130
154 131
154 130
155 129
155 128
156 127
157 128
158 129
159 130
160 131
161 132
162 132
162 131
163 130
164 130
165 131
166 132
167 132
168 133
168 132
169 131
170 130
171 131
172 132
173 132
174 133
174 134
175 135
176 135
176 134
177 133
177 132
178 131
179 131
180 132
181 133
182 134
183 135
184 135
185 135
186 136
186 135
187 134
187 133
188 132
189 132
190 133
191 133
192 134
193 135
194 135
195 135
196 136
196 135
197 134
198 134
199 134
200 135
201 135
202 135
203 135
203 134
203 133
203 132
204 131
205 132
206 132
207 132
208 133
209 134
209 133
210 132
211 131
212 132
213 132
214 133
215 133
216 134
217 134
217 133
218 132
219 131
220 132
221 132
221 131
222 130
223 130
224 130
224 129
224 128
224 127
223 127
222 127
221 126
220 126
219 125
220 124
221 124
222 124
222 123
223 122
222 122
221 122
220 121
219 121
218 120
219 119
220 119
220 118
221 117
220 117
219 117
218 116
217 115
216 115
215 114
216 113
215 113
214 113
213 112
212 112
211 111
210 111
209 110
208 109
207 108
206 108
205 107
206 106
207 106
208 106
209 106
210 106
211 105
212 105
213 105
214 105
215 104
216 104
217 104
218 104
219 104
220 104
221 104
222 104
223 105
224 105
225 106
226 106
227 106
228 107
229 107
230 108
231 108
232 109
233 110
234 110
235 111
236 111
237 112
238 112
239 112
240 113
241 113
242 114
243 115
244 115
245 116
246 116
247 116
248 117
249 117
250 117
251 118
252 118
253 118
254 118
255 119
256 120
257 121
258 121
259 121
260 122
261 122
262 122
263 123
264 123
265 124
266 124
267 124
268 125
269 126
270 126
271 126
272 127
273 127
274 128
275 128
276 127
276 126
276 125
277 124
278 124
279 123
279 122
278 121
279 120
279 119
280 118
280 117
281 116
280 116
279 115
280 114
280 113
280 112
281 111
282 111
282 110
283 109
283 108
282 108
281 107
282 106
282 105
283 104
284 103
284 102
283 101
282 101
281 100
282 99
283 98
284 97
284 96
283 95
282 94
283 93
282 92
283 91
283 90
284 89
284 88
283 88
282 88
281 87
282 86
283 85
283 84
284 83
284 82
283 82
282 82
281 82
280 81
281 80
281 79
281 78
281 77
280 76
279 76
278 75
279 74
279 73
279 72
278 71
277 72
276 71
275 70
276 69
276 68
275 68
274 68
273 69
272 69
271 70
270 71
269 71
268 71
267 72
266 72
265 72
264 73
263 73
262 73
261 74
260 74
259 75
258 76
257 76
256 76
255 76
254 76
253 77
252 77
251 77
250 77
249 78
248 78
247 78
246 78
245 79
244 79
243 79
242 80
241 80
240 81
239 81
238 81
237 82
236 82
235 82
234 82
233 83
232 83
231 83
230 84
229 85
228 86
227 86
226 86
225 86
224 86
223 86
222 86
221 86
220 86
219 86
218 86
217 86
216 85
215 86
214 86
213 85
212 85
211 85
210 85
209 85
208 85
207 85
206 84
207 83
208 82
209 82
210 81
211 80
212 79
213 79
214 78
215 78
216 77
217 77
218 76
219 76
219 75
220 74
220 73
220 72
220 71
220 70
220 69
220 68
221 67
221 66
220 66
219 65
220 64
220 63
219 63
218 62
217 61
218 60
218 59
217 59
216 58
215 57
216 56
215 56
214 55
213 54
214 53
213 53
212 52
211 51
210 51
209 50
210 49
210 48
209 48
208 48
207 47
206 47
205 46
204 45
203 46
202 46
201 45
200 45
199 45
198 45
197 45
196 45
195 46
194 46
193 46
192 46
191 46
190 46
189 47
188 47
187 47
186 47
185 47
184 48
183 48
182 48
181 48
180 48
179 49
178 49
177 50
176 51
175 51
174 51
173 51
172 50
171 51
170 51
169 52
168 52
167 53
166 54
166 55
165 56
164 56
163 56
162 56
161 57
160 57
159 58
159 59
158 60
157 61
156 62
155 63
155 64
154 65
154 66
153 67
152 67
151 67
150 67
149 66
150 65
150 64
150 63
151 62
152 61
153 60
153 59
154 58
153 58
152 58
151 58
150 59
149 60
148 59
148 58
148 57
149 56
150 56
150 55
151 54
152 53
153 53
153 52
154 51
153 51
152 51
151 51
150 52
149 52
148 53
148 54
147 55
146 56
145 57
144 56
144 55
145 54
145 53
146 52
146 51
147 50
147 49
148 48
149 48
150 47
150 46
151 45
150 45
149 45
148 45
147 45
146 44
147 43
147 42
146 42
145 42
144 42
143 41
142 42
141 43
140 44
139 45
139 46
138 47
137 46
137 45
137 44
138 43
138 42
139 41
139 40
140 39
141 38
142 38
143 37
144 37
144 36
145 35
145 34
144 34
143 34
142 34
141 34
140 34
139 35
139 36
138 37
137 38
136 39
136 40
135 41
135 42
134 43
133 44
132 45
131 44
131 43
131 42
131 41
131 40
132 39
133 38
134 37
134 36
135 35
136 34
137 33
137 32
138 31
137 31
136 31
135 31
134 32
133 32
132 32
131 33
131 34
130 35
130 36
129 37
129 38
128 39
127 40
127 41
126 42
125 41
125 40
125 39
125 38
125 37
126 36
125 36
124 36
123 37
122 37
122 38
121 39
121 40
120 41
119 42
118 41
118 40
118 39
118 38
118 37
119 36
119 35
120 34
121 34
122 33
123 33
123 32
124 31
124 30
125 29
125 28
124 28
123 28
122 28
121 29
120 28
119 28
118 27
118 26
118 25
117 25
116 25
115 25
114 25
113 24
112 23
111 22
110 22
109 23
108 23
107 23
106 23
105 23
104 23
103 24
102 25
102 26
102 27
101 28
101 29
101 30
100 31
99 30
99 29
98 29
97 29
96 29
95 29
94 29
93 29
93 30
93 31
92 32
91 33
91 34
91 35
90 36
90 37
89 38
89 39
89 40
89 41
89 42
89 43
89 44
89 45
88 46
87 47
86 48
85 48
84 48
83 47
82 46
81 45
82 44
82 43
82 42
82 41
82 40
82 39
82 38
83 37
84 37
84 36
85 35
85 34
85 33
85 32
86 31
86 30
85 30
84 29
83 30
83 31
82 32
81 33
81 34
81 35
80 36
80 37
80 38
80 39
79 40
79 41
79 42
79 43
79 44
78 45
78 46
77 47
76 48
75 48
74 48
73 48
72 47
71 46
72 45
72 44
72 43
72 42
72 41
72 40
72 39
72 38
73 37
73 36
74 35
75 34
76 33
76 32
77 31
76 31
75 30
74 29
73 29
72 29
72 30
72 31
71 32
71 33
71 34
71 35
70 36
70 37
69 38
68 39
67 40
66 40
65 39
66 38
66 37
66 36
66 35
66 34
66 33
66 32
66 31
67 30
67 29
67 28
67 27
67 26
68 25
68 24
69 23
70 23
71 23
72 22
73 22
73 21
74 20
74 19
75 18
75 17
74 17
73 17
72 17
71 17
70 16
69 17
68 18
67 19
66 19
65 18
64 17
63 16
64 15
65 14
66 13
67 13
68 13
69 13
70 12
70 11
71 10
71 9
72 8
71 8
70 8
69 8
68 8
67 8
66 8
65 9
64 9
63 8
63 7
64 6
64 5
64 4
65 3
64 3
63 3
62 3
61 2
