140 2
139 3
138 3
137 3
136 3
135 3
134 3
133 3
132 3
131 3
130 3
129 3
128 3
127 3
126 4
125 4
124 4
123 4
122 4
121 4
120 4
119 4
118 4
117 5
116 5
115 5
114 5
113 5
112 6
111 6
110 6
109 6
108 7
107 7
106 7
105 7
104 8
103 8
102 8
101 9
100 9
99 10
98 10
97 11
96 11
95 11
94 12
93 13
92 14
91 14
90 15
89 16
88 17
87 18
86 19
85 19
85 20
84 21
83 22
82 22
82 23
81 24
80 25
79 26
78 27
77 28
76 29
75 30
74 31
73 32
73 33
72 34
72 35
71 36
71 37
70 38
69 39
68 40
68 41
68 42
68 43
68 44
68 45
67 46
66 46
65 46
64 46
63 46
62 46
61 46
60 45
59 45
58 45
57 45
56 44
55 44
54 44
53 43
52 43
51 42
50 42
49 41
50 40
49 40
48 39
47 39
46 38
45 38
44 37
43 37
42 36
41 35
40 35
39 34
38 33
37 32
36 32
35 31
34 31
33 30
32 30
31 29
30 29
29 29
28 28
27 27
26 27
25 27
24 27
23 26
22 26
21 26
20 26
19 26
18 26
17 27
16 27
15 28
14 29
13 29
13 30
12 31
11 32
10 33
10 34
10 35
10 36
9 37
8 38
7 39
7 40
7 41
7 42
6 43
6 44
6 45
5 46
5 47
5 48
5 49
5 50
5 51
4 52
4 53
3 54
3 55
3 56
3 57
3 58
3 59
2 60
2 61
3 62
3 63
3 64
3 65
3 66
3 67
3 68
4 69
4 70
4 71
4 72
5 73
5 74
5 75
5 76
5 77
5 78
6 79
6 80
6 81
7 82
7 83
7 84
7 85
8 86
9 87
10 88
11 89
12 90
13 91
14 92
15 92
16 92
17 93
18 92
19 92
20 92
21 92
22 92
23 91
24 91
25 91
26 90
27 90
28 89
29 89
30 89
31 88
32 88
33 87
34 87
35 87
36 86
37 86
38 85
39 84
40 84
41 83
42 83
43 82
44 81
45 81
46 80
47 80
48 79
49 78
50 78
51 77
52 77
53 77
54 77
55 77
56 77
57 77
58 77
59 77
60 77
61 78
62 78
63 78
64 79
64 80
64 81
65 82
65 83
65 84
65 85
66 86
67 87
68 88
69 89
70 90
71 91
71 92
72 93
72 94
73 95
74 96
75 97
76 98
76 99
77 99
78 100
79 101
79 102
80 103
81 103
82 104
82 105
83 106
84 107
85 108
86 109
87 110
88 111
89 112
90 113
91 114
91 115
92 115
93 116
94 117
94 118
95 119
96 120
97 121
98 122
99 123
99 124
100 124
101 125
102 126
103 127
104 128
105 129
106 130
107 131
108 131
109 131
110 132
111 132
112 132
113 132
114 133
115 133
116 133
117 133
118 134
119 134
120 134
121 134
122 134
123 134
124 134
125 134
126 134
127 134
128 134
129 134
130 134
131 134
132 134
133 134
134 134
135 134
136 134
137 134
138 134
139 134
140 134
141 134
142 134
143 134
144 134
145 134
146 134
147 134
148 134
149 134
150 134
151 134
152 134
153 134
154 134
155 134
156 134
157 134
158 134
159 134
160 133
161 133
162 133
163 133
164 133
165 132
166 132
167 132
168 132
169 132
170 132
171 131
172 131
173 131
174 131
175 130
176 130
177 129
178 129
179 129
180 129
181 128
182 128
183 128
184 127
185 127
186 126
187 126
188 126
189 125
190 125
191 125
192 124
193 124
194 123
195 123
196 122
197 122
198 121
199 120
200 120
201 119
201 118
202 117
203 116
204 115
205 115
206 114
207 115
207 116
207 117
207 118
207 119
207 120
207 121
207 122
206 123
206 124
206 125
207 125
208 126
209 126
210 127
211 127
212 127
213 126
214 126
215 126
216 126
217 126
217 125
218 124
218 123
219 122
219 121
219 120
218 120
217 119
218 118
218 117
218 116
218 115
218 114
218 113
218 112
217 112
216 111
217 110
217 109
217 108
218 107
219 107
220 107
221 106
222 106
223 105
224 105
225 104
226 104
227 103
228 103
229 102
230 103
231 102
232 102
233 102
234 102
235 101
236 101
237 100
238 99
239 98
240 97
241 97
242 96
243 96
244 95
245 95
246 94
247 94
248 93
249 93
250 92
251 91
252 91
253 91
253 90
254 89
255 89
256 88
257 87
258 87
259 86
260 85
260 84
261 83
261 82
260 82
259 81
260 80
260 79
259 79
258 78
257 77
256 76
255 75
254 74
255 73
256 72
256 71
257 70
257 69
258 68
257 68
256 67
257 66
257 65
257 64
257 63
256 63
255 62
256 61
255 61
254 60
255 59
254 59
253 58
254 57
254 56
254 55
253 55
252 54
253 53
252 53
251 52
252 51
251 51
250 50
251 49
251 48
250 48
249 47
250 46
249 46
248 45
249 44
248 44
247 43
246 42
247 41
246 41
245 40
246 39
245 39
244 38
243 37
242 36
243 35
242 35
241 34
240 34
239 33
240 32
239 32
238 31
237 30
236 30
235 29
234 28
233 28
232 27
231 27
230 26
229 25
228 24
227 23
226 22
225 22
224 22
223 21
222 20
221 20
220 19
219 19
218 18
217 18
216 17
215 17
214 16
213 16
212 16
211 15
210 15
209 14
208 14
207 14
206 13
205 13
204 12
203 12
202 12
201 11
200 11
199 11
198 10
197 10
196 10
195 10
194 9
193 8
192 8
191 8
190 8
189 7
188 7
187 7
186 7
185 6
184 6
183 6
182 5
181 5
180 5
179 5
178 5
177 5
176 5
175 4
174 4
173 4
172 4
171 4
170 3
169 3
168 3
167 3
166 3
165 3
164 3
163 2
162 2
161 2
160 2
159 2
158 2
157 2
156 2
155 2
154 2
153 2
152 2
151 2
150 2
149 2
148 2
147 2
146 2
145 2
144 2
143 2
142 2
141 2
