59 2
58 3
57 3
56 3
55 3
54 3
53 3
52 4
51 5
50 5
49 6
49 7
48 8
47 9
47 10
46 11
46 12
45 13
45 14
44 15
44 16
43 17
42 18
41 18
40 18
39 18
38 18
37 18
36 18
35 18
34 18
33 18
32 17
31 17
30 16
31 15
30 15
29 15
28 14
27 14
26 14
25 14
24 14
23 14
22 14
21 14
20 14
19 15
18 15
17 16
16 17
16 18
15 19
15 20
14 21
14 22
13 23
12 24
11 25
10 26
10 27
9 28
8 29
7 30
6 31
6 32
5 33
5 34
4 35
3 36
3 37
2 38
2 39
2 40
2 41
2 42
2 43
2 44
3 45
3 46
4 47
5 48
6 49
7 50
8 51
8 52
9 52
10 53
11 53
12 54
13 54
14 55
15 56
16 57
17 57
18 58
19 58
20 59
21 59
22 59
23 60
24 60
25 61
26 61
27 62
28 62
29 62
30 63
31 63
32 63
33 63
34 64
35 64
36 64
37 65
38 65
39 66
40 67
41 67
42 67
43 67
44 67
45 68
46 68
47 68
48 68
49 68
50 68
51 68
52 68
53 69
54 69
55 70
56 71
57 72
58 72
59 73
60 74
61 74
62 75
62 76
62 77
63 77
64 77
65 77
66 78
67 78
68 79
69 79
70 80
71 81
72 82
73 82
73 81
74 80
74 79
73 79
72 78
71 78
70 77
69 77
68 76
67 75
66 74
65 73
66 72
66 71
67 70
68 70
69 70
70 70
71 70
72 70
73 70
74 70
75 70
76 70
77 71
78 70
79 70
80 71
81 70
82 70
83 70
84 70
85 70
86 70
87 70
88 70
89 70
90 69
91 69
92 69
93 69
94 69
95 69
96 69
97 69
98 69
99 69
100 69
101 68
102 68
103 68
104 68
105 68
106 68
107 68
108 68
109 69
110 70
111 71
112 72
113 72
114 73
115 74
116 75
117 76
118 77
119 77
120 77
121 77
122 78
123 78
124 78
125 78
126 78
127 78
128 78
129 77
130 77
131 77
132 77
133 77
134 77
135 76
136 76
137 75
138 75
139 74
140 74
141 74
142 74
143 73
144 73
145 73
146 73
147 72
148 72
149 72
150 72
151 71
152 71
153 71
154 70
155 70
156 69
157 69
158 69
159 69
160 68
161 68
162 68
163 68
164 67
165 67
166 67
167 67
168 66
169 66
170 65
171 65
172 64
173 64
174 64
175 63
176 63
177 63
178 62
179 62
180 62
181 62
182 61
183 61
184 61
185 60
186 60
187 59
188 59
189 59
190 59
191 59
192 58
193 58
194 58
195 57
195 56
196 55
196 54
197 53
198 53
199 53
200 53
201 53
202 54
203 54
204 54
205 55
206 56
207 57
208 57
209 58
210 58
211 58
212 59
213 59
214 60
215 61
216 62
217 62
218 63
219 63
220 64
221 64
222 65
223 66
223 67
224 67
225 67
226 67
227 67
227 66
228 65
229 64
229 63
230 62
230 61
231 60
232 59
232 58
233 57
233 56
234 55
234 54
234 53
235 52
235 51
235 50
235 49
236 48
236 47
236 46
237 45
237 44
237 43
237 42
237 41
237 40
237 39
238 38
238 37
238 36
238 35
238 34
238 33
237 33
236 32
237 31
237 30
237 29
237 28
237 27
237 26
236 26
235 25
236 24
235 24
234 23
235 22
235 21
234 21
233 20
232 19
231 18
230 17
229 16
230 15
229 15
228 15
227 14
226 14
225 14
224 14
223 14
222 15
221 16
220 17
219 18
218 18
217 19
216 19
215 20
214 20
213 21
212 22
211 23
210 23
209 24
208 24
207 25
206 25
206 26
205 27
204 28
203 28
202 29
201 30
200 30
200 31
199 32
198 33
197 33
196 34
195 34
194 35
193 35
192 34
191 35
190 34
189 33
188 32
187 31
188 30
187 30
186 30
185 29
184 29
183 28
182 28
181 28
180 27
179 26
178 26
177 25
176 25
175 25
174 24
173 24
172 24
171 24
170 23
169 23
168 23
167 23
166 22
165 22
164 21
163 21
162 20
161 20
160 20
159 19
158 19
157 19
156 19
155 19
154 18
153 18
152 18
151 18
150 18
149 17
148 17
147 16
146 16
145 15
144 15
143 15
142 15
141 15
140 15
139 14
138 14
137 14
136 14
135 14
134 14
133 14
132 14
131 14
130 14
129 14
128 14
127 14
126 14
125 15
124 15
123 15
122 15
121 16
120 16
119 16
118 17
117 18
116 18
115 18
114 19
113 19
112 20
111 20
110 21
110 22
109 23
108 22
107 21
106 20
105 19
104 18
103 18
102 17
101 16
102 15
101 15
100 15
99 15
98 14
97 14
96 13
95 13
94 12
93 11
92 10
91 10
90 10
89 9
88 9
87 9
86 8
85 8
84 8
83 7
82 7
81 6
80 6
79 5
78 5
77 5
76 5
75 5
74 4
73 4
72 4
71 4
70 4
69 4
68 3
67 3
66 3
65 3
64 3
63 3
62 3
61 2
60 2
