141 2
140 3
139 3
138 3
137 3
136 3
135 3
134 4
133 4
132 5
131 5
130 6
129 7
128 8
127 8
126 9
125 10
124 10
123 11
122 12
122 13
121 14
120 14
119 15
118 16
117 17
116 17
115 18
114 19
113 20
112 21
111 22
110 23
109 24
108 25
107 26
106 26
105 27
104 28
103 29
102 29
102 30
101 31
100 31
99 32
98 33
97 33
96 34
95 35
94 35
93 35
92 36
91 36
90 37
89 37
88 38
87 39
86 40
85 40
84 41
83 41
82 41
81 42
80 43
79 43
78 44
77 45
77 46
76 47
76 48
76 49
76 50
75 51
74 51
73 51
72 51
71 51
70 51
69 51
68 51
67 51
66 51
65 51
64 51
63 51
62 50
61 50
60 50
59 50
58 50
57 50
56 49
55 49
54 48
53 48
52 48
51 48
50 47
49 47
48 47
47 46
46 46
45 45
44 45
43 44
42 44
41 44
40 43
39 43
38 43
37 42
36 42
35 42
34 41
33 41
32 40
31 40
30 40
29 39
28 39
27 39
26 38
25 38
24 37
23 37
22 37
21 36
20 36
19 36
18 36
17 36
16 36
15 36
14 36
13 36
12 36
11 37
10 37
10 38
9 39
8 40
7 41
7 42
7 43
6 44
6 45
6 46
5 47
5 48
4 49
4 50
4 51
4 52
4 53
3 54
3 55
3 56
3 57
3 58
3 59
3 60
2 61
2 62
2 63
2 64
2 65
2 66
2 67
2 68
2 69
2 70
2 71
2 72
2 73
2 74
2 75
3 76
3 77
3 78
4 79
4 80
4 81
5 82
6 83
7 83
8 83
9 83
10 83
11 83
12 83
13 83
14 83
15 83
16 82
17 82
18 82
19 82
20 82
21 82
22 82
23 82
24 81
25 81
26 81
27 81
28 81
29 81
30 80
31 80
32 80
33 80
34 80
35 80
36 80
37 80
38 80
39 80
40 80
41 79
42 79
43 79
44 79
45 79
46 79
47 79
48 78
49 78
50 78
51 78
52 77
53 77
54 77
55 77
56 77
57 77
58 77
59 77
60 77
61 77
62 77
63 77
64 77
65 77
66 77
67 78
68 78
69 78
70 78
71 79
70 80
70 81
71 82
71 83
71 84
71 85
72 86
73 87
74 88
74 89
74 90
75 91
76 92
77 93
77 94
78 95
78 96
78 97
79 98
79 99
80 100
81 101
82 102
82 103
83 104
84 105
85 106
85 107
86 108
87 109
88 110
88 111
88 112
89 113
90 114
90 115
91 116
92 117
93 118
94 119
95 120
96 121
97 122
98 122
99 123
99 124
100 124
101 125
102 126
103 126
104 127
105 128
106 129
107 129
108 130
109 130
110 130
111 131
112 132
113 132
114 133
115 133
116 134
117 134
118 134
119 135
120 135
121 136
122 136
123 137
124 137
125 138
126 138
127 138
128 138
129 139
130 139
131 139
132 139
133 140
134 140
135 140
136 140
137 140
138 141
139 141
140 141
141 141
142 141
143 141
144 141
145 142
146 142
147 142
148 142
149 142
150 142
151 142
152 142
153 142
154 142
155 142
156 143
157 142
158 142
159 142
160 142
161 142
162 142
163 143
164 143
165 143
166 143
167 143
168 143
169 142
170 142
171 142
172 142
173 142
174 142
175 142
176 142
177 142
178 142
179 142
180 142
181 142
182 142
183 142
184 142
185 141
186 141
187 141
188 141
189 141
190 141
191 141
192 141
193 141
194 141
195 140
196 140
197 140
198 140
199 140
200 140
201 140
202 139
203 139
204 139
205 139
206 139
207 138
208 138
209 138
210 138
211 137
212 137
213 136
214 136
215 137
215 138
216 139
217 140
218 140
219 140
220 140
221 140
222 139
223 138
223 137
224 136
225 136
226 135
226 134
227 133
228 132
229 132
229 131
230 130
230 129
231 128
232 127
232 126
233 125
234 124
235 123
236 123
237 122
238 121
239 121
240 121
241 120
242 119
243 119
244 118
245 117
246 116
247 116
248 116
249 116
250 116
251 116
252 116
253 116
254 116
255 115
256 114
257 114
258 113
259 113
260 112
261 112
262 112
263 111
264 110
265 110
266 109
267 109
268 108
269 108
270 107
271 107
272 107
273 107
274 106
275 106
276 106
277 105
278 105
279 105
280 104
281 104
282 103
283 102
284 102
285 102
286 101
287 101
288 100
289 99
290 98
291 97
292 97
293 96
294 95
295 95
296 94
296 93
297 92
297 91
297 90
296 89
297 88
296 88
295 87
294 87
293 86
294 85
294 84
294 83
293 83
292 83
291 82
290 82
289 81
288 80
289 79
288 79
287 79
286 78
285 78
284 77
283 76
282 75
283 74
282 74
281 73
280 73
279 72
278 72
277 72
276 71
275 71
274 71
273 70
274 69
273 69
272 68
271 67
270 66
269 65
270 64
269 64
268 63
267 62
268 61
268 60
267 60
266 59
267 58
266 58
265 57
266 56
265 56
264 55
263 54
262 53
263 52
262 52
261 52
260 51
259 50
260 49
259 49
258 48
257 47
256 46
257 45
256 45
255 44
254 43
255 42
254 42
253 42
252 41
251 40
250 39
249 39
248 38
249 37
248 37
247 36
246 36
245 35
244 34
245 33
244 33
243 32
242 32
241 31
240 30
239 29
238 29
237 28
236 27
235 27
234 26
233 25
234 24
233 24
232 24
231 23
230 23
229 22
228 21
227 21
226 20
225 20
224 19
223 18
222 17
221 16
220 16
219 16
218 15
217 15
216 14
215 13
214 13
213 12
212 12
211 11
210 11
209 11
208 10
207 10
206 9
205 9
204 8
203 8
202 8
201 8
200 7
199 7
198 6
197 6
196 5
195 5
194 5
193 5
192 5
191 5
190 4
189 4
188 4
187 4
186 3
185 3
184 3
183 3
182 3
181 3
180 3
179 3
178 3
177 3
176 2
175 2
174 2
173 2
172 2
171 2
170 2
169 2
168 2
167 2
166 2
165 2
164 2
163 2
162 2
161 2
160 2
159 2
158 2
157 2
156 2
155 2
154 2
153 2
152 2
151 2
150 2
149 2
148 2
147 2
146 2
145 2
144 2
143 2
142 2
