108 4
108 5
107 6
106 5
105 5
104 5
104 6
103 7
102 6
102 7
101 8
100 7
99 7
99 8
98 9
97 8
96 8
96 9
95 10
94 9
93 9
93 10
92 11
91 10
91 11
90 12
89 11
89 12
88 13
87 12
87 13
86 14
85 13
85 14
84 15
83 16
82 17
81 16
81 17
80 18
79 17
79 18
78 19
77 20
76 19
76 20
75 21
74 22
73 23
72 22
71 22
71 23
70 24
69 23
68 23
67 23
67 24
66 25
65 24
64 24
63 24
62 24
62 25
61 26
60 25
59 25
58 25
57 25
56 25
55 25
54 25
54 26
53 27
52 26
51 26
50 26
49 26
48 26
47 26
46 26
46 27
45 28
44 27
43 27
42 27
41 27
40 27
39 27
39 28
38 29
37 28
36 28
35 28
34 28
33 28
32 28
31 28
31 29
30 30
29 29
28 29
27 29
26 29
26 30
25 31
24 30
23 30
23 31
22 32
21 31
20 31
19 31
18 31
18 32
17 33
16 32
15 32
15 33
14 34
13 33
12 33
12 34
11 35
10 34
9 34
8 34
8 35
7 36
6 35
6 36
5 37
4 36
4 37
3 38
2 37
2 38
2 39
2 40
2 41
3 42
4 43
5 43
6 44
7 45
8 46
9 47
9 48
10 48
11 48
12 49
13 50
14 50
15 51
16 51
17 52
18 52
19 53
20 53
21 53
22 54
23 54
24 54
25 54
26 55
27 55
28 55
29 56
30 56
31 56
32 56
33 57
34 57
35 57
36 57
37 58
38 58
39 58
40 58
41 58
42 59
43 59
44 59
45 60
46 60
47 60
48 60
49 61
50 61
51 61
52 62
53 62
54 62
55 63
56 63
57 64
58 64
59 64
60 65
61 65
62 66
63 67
64 68
65 69
65 70
65 71
65 72
65 73
65 74
65 75
65 76
65 77
65 78
65 79
65 80
66 81
66 82
66 83
67 84
67 85
67 86
68 87
68 88
68 89
68 90
68 91
68 92
69 93
69 94
70 95
70 96
71 97
71 98
71 99
71 100
72 101
72 102
73 103
73 104
74 105
74 106
74 107
74 108
75 109
75 110
75 111
75 112
76 113
76 114
76 115
77 116
77 117
78 118
79 119
79 120
79 121
80 122
80 123
81 124
82 125
82 126
82 127
83 128
84 129
84 130
85 131
85 132
86 133
86 134
87 135
87 136
88 137
89 138
90 139
90 140
91 141
92 141
93 142
93 143
94 144
95 145
96 146
97 147
97 148
98 149
99 149
100 150
101 151
102 152
103 153
104 154
105 154
106 155
107 156
108 156
109 157
110 157
111 158
112 158
113 158
114 158
115 159
116 159
117 159
118 158
119 158
120 158
121 158
122 158
123 158
124 157
125 157
126 157
127 157
128 157
129 157
130 156
131 156
132 155
133 155
134 154
135 154
136 153
137 153
138 153
139 152
140 152
141 151
142 151
143 150
144 150
145 149
146 149
147 148
148 147
149 147
150 146
151 145
152 145
152 144
153 143
154 142
154 141
155 140
156 140
157 139
157 138
158 137
159 136
160 135
160 134
160 133
161 132
162 131
163 130
163 129
164 128
164 127
164 126
165 125
165 124
165 123
166 122
166 121
166 120
167 119
167 118
168 117
168 116
168 115
168 114
168 113
168 112
169 111
169 110
169 109
170 108
170 107
170 106
171 105
171 104
171 103
171 102
171 101
171 100
171 99
171 98
171 97
171 96
171 95
171 94
172 93
172 92
172 91
172 90
172 89
172 88
172 87
173 86
173 85
173 84
173 83
173 82
173 81
174 80
174 79
174 78
174 77
175 76
175 75
175 74
175 73
176 72
176 71
176 70
177 69
178 68
179 67
179 66
180 65
181 65
182 64
183 64
184 64
185 64
186 63
187 63
188 62
189 62
190 62
191 62
192 62
193 62
194 62
195 62
196 62
197 61
198 61
199 61
200 61
201 60
202 60
203 60
204 60
205 60
206 59
207 59
208 59
209 58
210 58
211 58
212 58
213 57
214 57
215 57
216 56
217 56
218 56
219 55
220 55
221 54
222 54
223 54
224 53
225 53
226 52
227 52
228 52
229 51
230 51
231 50
232 50
233 49
234 49
235 49
236 48
237 48
238 47
239 46
240 46
241 45
242 44
243 43
243 42
244 41
245 40
246 40
246 39
247 38
247 37
247 36
246 35
245 35
244 34
243 34
242 34
241 34
240 33
239 33
238 33
237 33
236 33
235 33
234 33
233 33
232 33
231 33
230 33
229 33
228 33
227 33
226 33
225 33
224 33
223 33
222 33
221 33
220 33
219 33
218 33
217 33
216 33
215 33
214 33
213 33
212 33
211 33
210 33
209 32
208 32
207 32
206 32
205 32
204 32
203 32
202 32
201 32
200 32
199 31
198 31
197 31
196 31
195 31
194 31
193 31
192 30
191 30
190 30
189 30
188 30
187 30
186 30
185 29
184 29
183 29
182 29
181 29
180 29
179 28
178 28
177 28
176 28
175 28
174 28
173 27
172 27
171 27
170 27
169 27
168 26
167 26
166 26
165 25
164 24
164 23
163 22
163 21
162 21
161 20
160 19
159 19
158 18
157 17
156 16
155 16
154 15
154 14
153 14
152 13
151 12
150 12
149 11
148 11
147 10
146 9
145 9
144 8
143 8
142 8
141 7
140 7
139 7
138 6
137 6
136 6
135 5
134 5
133 5
132 5
131 5
130 5
129 5
128 5
127 5
126 5
126 6
125 7
124 6
123 6
122 6
121 6
120 5
119 5
118 5
117 5
116 4
115 4
114 4
113 4
112 4
111 4
110 4
109 4
