176 2
175 3
174 4
173 4
172 5
171 5
170 6
169 7
168 7
167 8
166 8
165 9
164 9
163 10
162 11
161 12
160 12
159 13
158 13
157 14
156 15
155 16
154 16
153 16
152 16
151 16
150 16
149 16
148 16
147 16
146 16
145 16
144 16
143 16
142 16
141 16
140 16
139 16
138 16
137 16
136 16
135 16
134 16
133 15
132 15
131 15
130 15
129 15
128 15
127 15
126 15
125 15
124 15
123 15
122 15
121 15
120 15
119 15
118 15
117 15
116 15
115 15
114 15
113 15
112 15
111 15
110 15
109 15
108 15
107 15
106 15
105 15
104 15
103 15
102 15
101 15
100 15
99 15
98 15
97 15
96 15
95 15
94 15
93 15
92 15
91 15
90 15
89 14
90 13
90 12
89 12
88 12
87 12
86 12
85 12
84 12
83 12
82 12
81 12
80 12
79 13
78 13
77 13
76 13
75 13
74 13
73 13
72 13
71 13
70 13
69 13
68 13
67 13
66 13
65 13
64 13
63 13
62 13
61 13
60 13
59 13
58 13
57 13
56 13
55 13
54 13
53 13
52 13
51 14
50 14
49 14
48 14
47 14
46 14
45 14
44 14
43 14
42 14
41 14
40 14
39 14
38 14
37 14
36 14
35 15
34 15
33 15
32 15
31 15
30 15
29 15
28 15
27 15
26 15
25 15
24 15
23 16
22 16
21 16
20 16
19 16
18 17
17 17
16 18
16 19
17 20
16 21
15 22
14 23
13 23
13 24
12 25
12 26
12 27
11 28
10 28
9 28
8 28
7 29
6 29
5 29
4 29
3 29
2 29
2 30
2 31
2 32
3 33
4 33
5 33
6 33
7 33
8 34
9 34
10 34
11 34
12 34
13 35
14 35
15 36
16 36
17 37
18 37
19 37
20 38
21 38
22 39
23 39
24 40
25 40
26 40
27 41
28 41
29 42
30 42
31 43
32 43
33 43
34 44
35 44
36 44
37 44
38 45
39 45
40 45
41 45
42 45
43 45
44 45
45 45
46 45
47 45
48 45
49 45
50 44
51 44
52 44
53 44
54 44
55 45
56 45
57 46
58 46
59 46
60 46
61 46
62 47
63 47
64 47
65 47
66 48
67 48
68 49
69 49
70 50
71 51
71 52
72 53
73 54
73 55
74 56
74 57
74 58
74 59
75 60
75 61
76 62
77 63
77 64
77 65
78 66
79 67
79 68
80 69
80 70
81 71
82 72
83 73
83 74
84 75
85 76
86 77
86 78
87 79
88 79
89 80
90 80
90 79
91 78
91 77
90 77
89 76
90 75
90 74
90 73
90 72
90 71
90 70
90 69
90 68
90 67
90 66
90 65
90 64
90 63
90 62
90 61
90 60
90 59
90 58
90 57
89 57
88 56
89 55
89 54
90 53
91 53
92 54
93 54
94 54
95 55
96 55
97 55
98 56
99 56
100 56
101 56
102 57
103 57
104 57
105 57
106 57
107 57
108 57
109 57
110 57
111 57
112 57
113 57
114 57
115 58
116 57
117 57
118 57
119 57
120 57
121 57
122 57
123 56
124 56
125 56
126 56
127 56
128 56
129 56
130 56
131 56
132 56
133 55
134 55
135 55
136 55
137 55
138 55
139 55
140 54
141 54
142 54
143 54
144 54
145 53
146 53
147 53
148 53
149 53
150 53
151 53
152 53
153 53
154 52
155 52
156 52
157 53
158 53
159 54
160 55
161 56
162 56
163 57
164 57
165 58
166 58
167 59
168 59
169 60
170 60
171 61
172 61
173 61
174 62
175 63
176 63
177 63
178 63
179 64
180 64
181 64
182 64
183 64
184 64
185 64
186 64
187 64
188 64
189 64
190 63
191 62
192 62
193 61
194 61
195 60
196 60
197 59
198 59
199 58
200 57
201 57
202 56
203 56
204 55
205 55
206 54
207 54
208 53
209 53
210 52
211 51
212 51
213 50
214 50
215 49
216 49
217 49
218 48
219 48
220 47
221 47
222 46
223 45
224 45
225 45
226 44
227 44
228 44
229 43
230 43
231 43
232 42
233 42
234 41
235 41
236 41
237 41
238 40
239 40
240 40
241 40
242 39
243 39
244 39
245 39
246 38
247 38
248 38
249 37
250 37
251 37
252 37
253 37
254 37
255 37
256 36
257 36
258 36
259 36
260 36
261 36
262 36
263 36
264 35
265 35
266 35
267 35
268 35
269 35
270 34
271 34
272 34
273 34
274 34
275 34
276 34
277 34
278 33
279 33
280 33
281 33
282 33
283 33
284 32
284 31
285 30
286 29
287 29
288 29
289 29
290 29
291 30
292 29
293 29
294 30
295 30
296 30
297 30
298 30
299 30
300 30
301 30
302 31
303 31
304 31
305 31
306 31
307 31
308 32
309 32
310 32
311 32
312 33
313 33
314 33
315 33
316 33
317 34
318 34
319 34
320 34
321 34
322 35
323 35
324 35
325 35
326 35
327 36
328 36
329 36
330 36
331 36
332 37
333 36
334 35
334 34
335 33
335 32
336 31
337 30
337 29
338 28
338 27
338 26
339 25
339 24
340 23
340 22
340 21
340 20
340 19
340 18
340 17
340 16
340 15
340 14
339 14
338 13
339 12
339 11
338 11
337 10
338 9
338 8
337 8
336 7
337 6
336 6
335 5
334 4
335 3
334 3
333 3
332 3
331 3
330 3
329 4
328 4
327 4
326 4
325 5
324 5
323 5
322 5
321 6
320 7
319 7
318 7
317 7
316 8
315 8
314 8
313 9
312 9
311 10
310 10
309 10
308 11
307 11
306 11
305 11
304 12
303 12
302 12
301 12
300 13
299 13
298 13
297 13
296 14
295 15
294 15
293 15
292 15
291 15
290 16
289 16
288 16
287 16
286 16
285 17
284 17
283 16
283 15
284 14
284 13
283 13
282 13
281 13
280 13
279 13
278 13
277 13
276 13
275 13
274 13
273 13
272 13
271 13
270 13
269 13
268 13
267 13
266 13
265 13
264 13
263 13
262 13
261 12
260 12
259 12
258 12
257 12
256 12
255 12
254 12
253 12
252 12
251 12
250 12
249 12
248 12
247 12
246 12
245 12
244 11
243 12
242 11
241 12
240 11
239 11
238 11
237 11
236 11
235 11
234 11
233 11
232 11
231 11
230 11
229 11
228 11
227 11
226 10
225 10
224 10
223 10
222 10
221 10
220 10
219 10
218 10
217 10
216 10
215 9
214 9
213 9
212 9
211 9
210 9
209 8
208 8
207 8
206 8
205 8
204 8
203 7
202 7
201 7
200 7
199 7
198 6
197 6
196 6
195 6
194 5
193 5
192 5
191 5
190 5
189 4
188 4
187 4
186 4
185 4
184 4
183 4
182 4
181 4
180 3
179 3
178 3
177 2
