112 2
111 3
110 3
109 3
108 3
107 3
106 3
105 3
104 3
103 3
102 3
101 3
100 3
99 3
98 4
97 4
96 4
95 4
94 4
93 4
92 4
91 4
90 5
89 5
88 5
87 5
86 5
85 5
84 5
83 6
82 6
81 6
80 6
79 6
78 7
77 7
76 7
75 7
74 7
73 8
72 8
71 8
70 9
69 9
68 9
67 10
66 10
65 10
64 10
63 11
62 11
61 11
60 11
59 12
58 12
57 12
56 13
55 13
54 13
53 14
52 14
51 14
50 15
49 15
48 15
47 16
46 17
45 17
44 18
43 18
42 19
41 19
40 19
39 20
38 20
37 21
36 21
35 22
34 23
33 23
32 23
32 24
31 25
30 25
29 25
28 26
27 27
26 27
25 28
24 28
23 29
22 30
21 30
20 31
20 32
20 33
19 34
18 34
17 34
16 34
15 34
14 34
13 33
12 33
11 33
10 33
9 33
8 33
7 33
6 34
5 35
4 36
4 37
3 38
3 39
3 40
3 41
2 42
2 43
2 44
2 45
2 46
2 47
2 48
2 49
2 50
3 51
3 52
4 53
4 54
5 55
6 56
7 57
7 58
8 58
9 58
10 58
11 57
12 57
13 57
14 56
15 56
16 56
17 56
18 56
19 56
20 56
21 56
22 57
21 58
21 59
21 60
22 61
23 61
24 62
24 63
25 64
26 65
27 66
28 67
29 68
30 68
31 69
32 70
33 70
34 71
35 72
36 73
37 74
38 75
39 75
40 76
41 77
42 77
43 78
44 78
45 78
46 79
47 80
48 81
49 81
50 82
51 82
52 83
53 83
54 84
55 84
56 84
57 85
58 85
59 86
60 86
61 86
62 87
63 87
64 87
65 88
66 88
67 88
68 88
69 89
70 90
71 90
72 90
73 90
74 91
75 91
76 91
77 91
78 91
79 92
80 92
81 92
82 92
83 92
84 93
85 93
86 93
87 93
88 93
89 93
90 93
91 94
92 94
93 94
94 94
95 94
96 94
97 94
98 94
99 94
100 94
101 94
102 94
103 94
104 94
105 94
106 94
107 94
108 94
109 94
110 94
111 94
112 94
113 94
114 94
115 94
116 94
117 94
118 94
119 94
120 94
121 94
122 94
123 94
124 94
125 94
126 94
127 94
128 94
129 94
130 94
131 93
132 93
133 93
134 93
135 93
136 93
137 93
138 93
139 93
140 93
141 93
142 93
143 92
144 92
145 92
146 92
147 92
148 92
149 91
150 91
151 91
152 91
153 90
154 90
155 90
156 90
157 89
158 89
159 88
160 88
161 87
162 87
163 87
164 86
165 86
166 85
167 85
168 84
169 84
170 83
170 82
171 81
172 80
173 79
174 78
175 79
176 79
177 78
178 78
179 77
180 77
180 76
181 75
181 74
182 73
183 72
184 72
185 71
186 70
187 70
188 69
189 69
190 68
191 67
192 66
192 65
193 64
194 63
195 63
195 62
196 61
196 60
196 59
197 58
198 58
199 57
200 56
201 55
201 54
202 53
202 52
203 51
203 50
204 49
204 48
204 47
203 47
202 46
203 45
203 44
203 43
202 43
201 42
202 41
202 40
202 39
201 39
200 38
201 37
200 37
199 36
198 35
199 34
198 34
197 33
196 32
197 31
196 31
195 30
194 29
193 29
192 28
191 27
192 26
191 26
190 26
189 25
188 25
187 24
188 23
187 23
186 23
185 22
184 21
183 21
182 20
181 20
180 19
179 18
178 18
177 17
176 17
175 16
174 16
173 15
172 15
171 14
170 14
169 13
168 13
167 12
166 12
165 11
164 11
163 11
162 10
161 10
160 10
159 9
158 9
157 8
156 8
155 8
154 7
153 7
152 7
151 6
150 6
149 6
148 6
147 6
146 5
145 5
144 5
143 5
142 5
141 5
140 4
139 4
138 4
137 4
136 4
135 4
134 3
133 3
132 3
131 3
130 3
129 3
128 3
127 3
126 3
125 3
124 3
123 2
122 2
121 2
120 2
119 2
118 2
117 2
116 2
115 2
114 2
113 2
