105 2
104 3
103 4
102 5
101 6
100 7
100 8
99 9
98 10
97 11
96 12
96 13
95 14
94 15
93 16
92 17
91 18
90 19
90 20
89 21
88 22
87 23
86 24
85 25
85 26
84 27
83 28
82 29
81 30
81 31
80 32
79 33
79 34
78 35
78 36
77 37
76 38
76 39
75 40
74 41
73 42
72 43
71 44
71 45
70 46
70 47
69 48
68 48
67 47
66 46
67 45
66 45
65 44
66 43
66 42
66 41
66 40
66 39
67 38
67 37
67 36
66 35
65 36
64 36
63 37
62 37
61 36
62 35
61 35
60 35
59 35
58 35
57 35
56 34
55 34
55 35
54 36
53 36
52 37
52 38
51 39
51 40
50 41
49 42
48 43
47 43
47 44
46 45
46 46
45 47
44 48
43 49
42 49
42 50
41 51
40 52
39 52
38 52
37 52
36 52
35 52
34 52
33 52
32 51
31 51
30 52
30 53
29 54
28 54
27 54
26 55
25 55
24 55
23 55
22 56
21 56
20 57
19 57
18 58
17 58
16 59
15 60
14 61
13 62
12 62
11 62
10 62
10 63
10 64
10 65
9 66
8 67
7 67
7 68
6 69
5 70
5 71
4 72
3 73
2 74
2 75
2 76
2 77
2 78
2 79
2 80
2 81
3 82
4 82
5 83
6 84
7 84
8 84
9 84
10 85
11 86
12 87
13 88
14 88
15 88
16 89
17 90
18 90
19 90
20 91
21 91
22 92
23 92
24 93
24 94
25 94
26 95
27 94
28 94
29 94
30 95
31 95
32 96
33 96
34 96
35 97
35 98
36 98
37 98
38 98
39 98
40 99
40 100
41 99
42 100
43 100
44 100
45 101
46 102
47 103
47 104
47 105
48 104
49 104
50 105
51 105
52 106
53 107
54 107
55 108
56 108
57 108
58 108
59 108
60 109
61 109
62 110
63 110
64 110
65 111
66 111
67 111
68 111
69 111
70 111
71 112
72 112
73 112
74 112
75 112
76 112
77 113
78 113
79 112
79 111
78 110
79 109
79 108
80 107
81 107
82 107
83 106
84 105
85 106
86 106
87 106
88 106
89 106
89 105
90 104
91 104
92 104
93 105
94 105
95 105
96 104
97 105
98 106
99 107
99 108
100 109
101 110
101 111
102 112
103 112
104 113
105 114
106 115
107 115
108 116
109 117
110 118
111 118
112 118
113 119
114 119
115 119
116 119
117 120
118 120
119 120
120 120
121 120
122 120
123 120
124 120
125 120
126 120
127 120
128 120
129 120
130 120
131 120
132 120
133 120
134 120
135 120
136 119
137 119
138 120
139 120
140 119
141 120
142 119
143 119
144 119
145 119
146 119
147 119
148 119
149 119
150 118
151 118
152 118
153 118
154 117
155 117
156 117
157 117
158 117
159 116
160 116
161 115
162 115
163 115
164 115
165 115
166 115
167 115
168 114
169 114
170 114
171 113
172 113
173 113
174 112
175 112
176 111
177 111
178 111
179 111
180 110
181 110
182 110
183 110
184 109
185 109
186 109
187 108
188 108
189 108
190 107
191 107
192 106
193 106
194 106
195 105
196 105
197 105
198 104
199 104
200 103
201 103
202 103
203 102
204 101
205 101
206 101
207 100
208 100
209 99
210 99
211 98
212 98
213 98
214 98
215 97
216 97
217 96
218 96
219 95
220 95
221 95
222 94
223 94
224 93
225 92
226 92
227 92
228 91
229 91
230 90
231 90
232 89
233 88
233 87
234 86
233 86
232 85
231 85
230 85
229 85
228 85
227 85
226 84
225 84
224 83
225 82
226 82
227 82
228 82
229 82
230 82
231 82
232 82
233 82
234 82
235 82
236 82
237 82
238 82
239 82
240 82
241 82
242 83
243 83
244 83
245 83
246 83
247 83
248 83
249 84
250 84
251 84
252 84
253 85
254 85
255 85
256 86
257 86
258 86
259 86
260 86
261 86
262 86
263 87
264 87
265 87
266 87
267 86
268 86
269 85
270 84
271 83
271 82
272 81
272 80
272 79
272 78
272 77
273 76
273 75
273 74
273 73
273 72
273 71
273 70
273 69
273 68
273 67
273 66
273 65
273 64
273 63
272 63
271 62
272 61
272 60
272 59
271 59
270 58
271 57
270 57
269 56
268 55
269 54
269 53
268 53
267 52
268 51
267 51
266 50
265 49
264 49
263 49
262 49
261 49
260 49
259 49
258 50
257 50
256 50
255 51
254 51
253 51
252 52
251 52
250 52
249 53
248 53
247 54
246 54
245 55
244 55
243 56
242 56
241 57
240 57
239 57
238 57
237 58
236 59
235 60
234 60
233 61
232 61
231 62
230 62
229 62
228 63
227 64
226 64
225 64
224 65
223 65
222 65
221 65
220 65
219 65
218 65
217 66
216 66
215 66
214 66
213 65
214 64
215 63
216 62
216 61
217 60
216 60
215 59
214 58
213 57
212 56
211 55
210 55
209 54
208 53
207 52
206 52
205 51
204 50
203 49
202 48
201 47
200 47
199 46
200 45
199 45
198 44
197 44
196 43
195 43
194 42
193 42
192 41
191 41
190 40
189 40
188 39
189 38
188 38
187 37
186 37
185 36
184 37
183 37
182 38
181 38
180 39
179 40
178 41
177 42
176 42
175 43
174 44
173 44
172 45
171 46
170 46
169 47
168 48
167 49
166 50
165 50
164 51
163 52
162 53
161 54
160 54
159 55
158 56
157 57
156 58
155 59
154 60
153 59
153 58
153 57
153 56
154 55
154 54
155 53
156 52
157 51
157 50
156 49
155 49
154 48
153 47
152 47
151 47
150 46
149 45
148 44
147 44
146 44
145 44
144 43
143 42
142 42
141 42
140 42
139 41
138 40
137 40
136 40
135 40
134 40
133 39
132 39
131 39
130 38
129 38
128 37
127 37
126 37
125 36
124 36
123 36
122 36
121 36
120 35
119 34
120 33
119 33
118 33
117 33
116 33
115 32
114 32
113 32
112 32
111 32
110 31
111 30
110 30
109 30
108 30
107 29
108 28
108 27
107 27
106 27
105 27
104 26
105 25
105 24
105 23
105 22
104 22
103 21
104 20
104 19
103 19
102 18
103 17
103 16
104 15
104 14
104 13
105 12
105 11
105 10
105 9
105 8
105 7
105 6
105 5
105 4
106 3
106 2
