57 1
56 2
56 3
56 4
56 5
55 6
55 7
55 8
55 9
54 10
54 11
54 12
54 13
54 14
54 15
53 16
53 17
53 18
53 19
53 20
53 21
53 22
52 23
52 24
52 25
52 26
52 27
52 28
52 29
52 30
52 31
52 32
52 33
51 34
51 35
51 36
51 37
51 38
51 39
50 40
49 40
48 40
47 40
46 40
45 40
44 41
43 41
42 41
41 40
40 40
39 41
38 42
37 42
36 43
35 43
34 44
33 44
32 45
31 45
30 45
29 45
28 45
27 45
26 45
25 45
24 45
23 45
22 45
21 44
20 44
19 43
18 44
18 45
18 46
17 47
16 47
15 48
15 49
14 50
13 51
12 51
11 51
10 52
10 53
9 54
8 55
7 56
6 56
5 57
5 58
4 59
3 60
2 60
2 61
2 62
2 63
2 64
2 65
3 66
3 67
2 68
2 69
2 70
2 71
3 71
4 72
5 72
6 72
7 72
8 73
9 74
10 74
11 75
12 75
13 75
14 75
15 76
16 76
17 76
18 76
19 76
20 76
21 77
22 77
23 77
24 78
25 78
26 79
27 80
28 80
29 81
30 81
31 81
32 81
33 81
34 81
35 82
36 82
37 83
38 84
39 85
40 85
41 86
42 86
43 87
44 87
45 87
46 87
47 88
48 88
49 88
50 88
51 89
51 90
52 90
53 91
54 91
55 92
56 93
57 94
58 95
59 95
60 95
61 96
62 96
63 96
64 96
65 96
66 96
67 95
68 95
69 95
70 95
71 95
72 96
73 96
74 96
75 96
75 95
75 94
74 94
73 94
72 93
71 93
70 93
69 92
68 92
67 92
66 92
65 92
64 91
63 91
62 91
61 91
60 90
59 90
58 89
57 88
58 87
59 87
60 87
61 87
62 86
63 87
64 86
65 86
66 86
67 86
68 86
69 86
70 86
71 86
72 85
73 85
74 85
75 85
76 84
77 84
78 83
79 83
80 82
81 82
82 82
83 82
84 81
85 81
86 81
87 81
88 81
89 81
90 81
91 81
92 81
93 82
94 83
94 84
95 85
95 86
96 87
97 88
97 89
98 90
99 90
100 90
101 90
102 90
103 91
104 91
105 90
106 90
107 90
108 90
109 90
110 90
111 90
112 91
113 91
114 90
115 90
116 90
117 89
118 89
119 89
120 89
121 89
122 89
123 89
124 89
125 89
126 88
127 88
128 88
129 87
130 87
131 87
132 87
133 87
134 87
135 87
136 86
137 86
138 86
139 86
140 85
141 85
142 85
143 85
144 85
145 84
146 84
147 83
148 83
149 82
150 82
151 82
152 81
153 81
154 80
155 79
155 78
156 77
156 76
156 75
155 75
154 75
153 75
152 75
151 75
150 74
149 74
148 74
147 74
146 73
147 72
148 72
149 72
150 71
151 71
152 71
153 71
154 71
155 71
156 71
157 71
158 71
159 71
160 72
161 72
162 72
163 73
164 74
165 75
166 75
167 76
168 77
169 77
170 78
171 79
172 80
173 80
174 81
175 81
176 82
177 82
178 83
179 84
180 85
181 85
182 86
183 86
184 86
185 86
186 87
187 87
188 87
189 87
190 87
191 87
192 87
193 87
194 87
195 86
196 86
197 86
198 85
199 85
200 84
200 83
201 82
202 81
202 80
203 79
203 78
203 77
204 76
204 75
204 74
205 73
205 72
205 71
205 70
205 69
206 68
206 67
206 66
206 65
207 64
207 63
206 63
205 62
206 61
205 61
204 60
205 59
205 58
205 57
205 56
205 55
204 55
203 54
204 53
204 52
204 51
204 50
204 49
203 49
202 48
203 47
203 46
202 46
201 45
202 44
201 44
200 43
201 42
200 42
199 41
198 41
197 40
196 39
195 38
194 37
193 37
192 37
191 37
190 37
189 37
188 38
187 39
186 40
185 40
184 41
183 41
182 42
181 43
180 44
179 45
178 46
177 47
176 47
176 48
175 49
174 48
173 48
172 49
172 50
173 51
172 52
171 53
171 54
170 55
169 55
168 56
167 57
166 57
165 57
164 58
163 58
162 59
161 59
160 60
159 60
158 60
157 60
156 60
155 59
156 58
157 57
158 57
159 57
160 56
161 56
162 55
163 55
164 54
164 53
165 52
165 51
166 50
166 49
167 48
167 47
167 46
167 45
166 45
165 44
166 43
165 43
164 42
163 41
162 40
161 40
160 39
159 38
158 37
157 37
156 37
155 36
154 36
153 36
152 35
151 35
150 35
149 34
148 34
147 34
146 33
145 33
144 33
143 33
142 32
141 32
140 32
139 32
138 31
137 31
136 31
135 30
134 30
133 30
132 29
131 28
130 28
129 28
128 28
127 28
126 28
125 28
124 28
123 28
122 28
121 28
120 28
119 28
118 28
117 28
116 29
115 29
114 29
113 30
112 30
111 31
110 31
109 31
108 32
107 32
106 33
105 34
104 34
103 35
102 35
101 35
100 36
99 37
98 37
97 38
97 39
96 40
95 40
94 39
94 38
95 37
96 36
97 35
98 34
99 34
99 33
100 32
99 32
98 31
99 30
99 29
100 28
101 27
102 26
103 26
103 25
104 24
103 24
102 24
101 24
100 23
101 22
102 21
103 21
104 21
105 20
105 19
106 18
105 18
104 18
103 18
102 18
101 18
100 18
99 18
98 18
97 17
96 16
97 15
97 14
97 13
98 12
99 11
99 10
100 9
99 9
98 10
97 11
96 11
95 11
94 12
93 12
92 13
91 13
90 13
89 13
88 13
87 13
86 13
85 12
84 11
85 10
85 9
85 8
85 7
86 6
87 5
87 4
88 3
88 2
87 2
86 3
85 3
84 4
83 5
82 6
81 7
80 7
79 8
78 8
77 8
76 8
75 9
74 9
73 9
72 8
71 7
72 6
72 5
72 4
72 3
72 2
71 2
70 2
69 3
68 4
68 5
67 6
66 7
65 7
64 7
63 8
62 8
61 8
60 8
59 7
58 6
57 5
58 4
58 3
58 2
58 1
