92 2
91 3
90 3
89 3
88 3
87 3
86 3
85 4
84 4
83 4
82 4
81 4
80 4
79 5
78 5
77 6
76 6
75 6
74 7
73 7
72 7
71 7
70 8
69 8
68 8
67 9
66 9
65 9
64 9
63 10
62 11
61 11
60 12
59 12
58 13
57 13
56 13
55 14
54 14
53 15
52 16
51 17
50 17
49 18
48 18
47 19
46 19
45 20
44 21
43 22
42 22
41 23
40 24
39 24
38 25
37 26
36 26
35 27
34 27
33 28
33 29
32 30
31 31
30 32
30 33
30 34
30 35
31 36
31 37
30 38
29 37
28 37
27 37
26 37
25 37
24 37
23 37
22 36
21 36
20 36
19 36
18 36
17 36
16 36
15 35
14 35
13 35
12 35
11 35
10 35
9 36
8 36
7 36
6 37
5 37
5 38
4 39
4 40
3 41
3 42
3 43
2 44
2 45
2 46
2 47
2 48
3 49
3 50
4 51
4 52
5 53
6 54
7 55
8 56
9 56
10 56
11 56
12 56
13 56
14 56
15 56
16 56
17 56
18 55
19 55
20 55
21 55
22 54
23 54
24 54
25 54
26 53
27 53
28 53
29 53
30 53
31 53
32 54
33 55
33 56
33 57
33 58
34 59
34 60
34 61
35 61
36 62
37 62
38 63
39 63
40 64
41 65
42 66
43 66
44 66
45 67
46 67
47 68
48 68
49 68
50 69
51 70
52 70
53 71
54 71
55 71
56 71
57 72
58 72
59 72
60 72
61 73
62 73
63 73
64 73
65 74
66 74
67 75
68 76
69 76
70 76
71 76
72 77
73 77
74 77
75 77
76 78
77 78
78 78
79 78
80 79
81 79
82 79
83 80
84 80
85 81
86 81
87 81
88 81
89 81
90 82
91 82
92 82
93 82
94 82
95 83
96 83
97 83
98 83
99 83
100 83
101 83
102 83
103 83
104 84
105 84
106 84
107 84
108 84
109 84
110 84
111 84
112 84
113 84
114 83
115 83
116 83
117 83
118 83
119 83
120 83
121 83
122 83
123 83
124 82
125 82
126 82
127 82
128 82
129 81
130 81
131 81
132 81
133 81
134 80
135 80
136 79
137 79
138 78
139 78
140 78
141 78
142 77
143 77
144 77
145 77
146 76
147 76
148 76
149 75
150 74
151 73
152 72
152 71
153 70
154 71
154 72
155 73
156 74
157 75
158 75
159 75
160 74
161 74
162 73
162 72
163 71
163 70
163 69
163 68
163 67
164 66
165 66
166 66
167 65
168 64
169 64
170 63
171 63
172 62
173 62
174 61
175 60
176 59
177 59
178 58
179 57
179 56
180 55
180 54
181 53
182 52
183 51
183 50
184 49
184 48
184 47
184 46
184 45
184 44
183 44
182 43
183 42
183 41
183 40
183 39
183 38
182 38
181 37
182 36
181 36
180 35
179 34
180 33
179 33
178 32
179 31
178 31
177 30
176 29
177 28
176 28
175 27
174 26
173 25
172 24
171 23
170 22
169 21
168 20
169 19
168 19
167 19
166 18
165 17
164 17
163 16
162 15
163 14
162 14
161 14
160 13
159 13
158 12
157 12
156 11
155 11
154 10
153 9
152 9
151 9
150 8
149 8
148 8
147 7
146 7
145 7
144 7
143 6
142 6
141 5
140 5
139 5
138 4
137 4
136 4
135 4
134 4
133 3
132 3
131 3
130 3
129 3
128 3
127 3
126 3
125 3
124 2
123 2
122 2
121 2
120 2
119 2
118 2
117 2
116 2
115 2
114 2
113 2
112 2
111 2
110 2
109 2
108 2
107 2
106 2
105 2
104 2
103 2
102 2
101 2
100 2
99 2
98 2
97 2
96 2
95 2
94 2
93 2
