111 2
111 3
110 4
109 5
108 6
108 7
108 8
107 9
106 10
105 10
104 9
103 8
104 7
104 6
104 5
104 4
103 4
102 3
101 3
100 3
99 3
99 4
99 5
98 6
97 7
96 7
95 6
94 5
93 5
92 5
91 5
91 6
90 7
90 8
89 9
89 10
88 11
87 12
86 12
85 12
84 12
83 12
82 13
82 14
82 15
82 16
82 17
82 18
82 19
82 20
82 21
82 22
82 23
82 24
82 25
82 26
82 27
81 28
80 28
79 28
78 29
77 29
76 29
75 29
74 30
73 30
72 30
71 30
70 31
69 31
68 31
67 31
66 32
65 32
64 33
63 33
62 33
61 34
60 34
59 34
58 35
57 35
56 36
55 36
54 37
53 37
52 37
51 38
50 38
49 38
48 39
47 39
46 39
45 40
44 40
43 40
42 41
41 41
40 42
39 42
38 42
37 43
36 43
35 44
34 44
33 44
32 45
31 45
30 45
29 46
28 47
27 47
26 47
25 48
24 49
23 49
22 50
21 51
20 51
19 52
18 53
17 54
16 54
16 55
15 56
14 56
13 57
13 58
13 59
12 60
11 60
11 61
10 62
10 63
10 64
10 65
10 66
10 67
10 68
10 69
10 70
11 71
12 72
12 73
13 74
13 75
14 76
15 77
16 78
16 79
16 80
17 81
18 82
17 83
16 83
15 83
14 83
13 83
12 83
11 83
10 83
9 83
8 83
7 84
6 84
5 84
4 84
3 84
2 84
2 85
2 86
2 87
2 88
2 89
2 90
2 91
2 92
3 93
4 93
5 94
6 94
7 95
8 95
9 95
10 96
11 96
12 97
13 97
14 97
15 98
16 99
17 99
18 99
19 100
20 100
21 100
22 100
23 100
24 100
25 101
26 101
27 101
28 101
29 101
30 102
31 102
32 103
33 103
34 104
35 104
36 105
37 105
38 105
39 106
40 106
41 107
42 108
43 108
44 108
45 109
46 109
47 109
48 110
49 110
50 110
51 110
52 111
53 111
54 111
55 111
56 111
57 112
58 112
59 112
60 112
61 113
62 113
63 114
64 114
65 114
66 114
67 115
68 115
69 115
70 115
71 116
72 116
73 116
74 116
75 117
76 118
76 119
75 120
75 121
75 122
75 123
75 124
75 125
75 126
75 127
75 128
75 129
75 130
75 131
75 132
75 133
76 134
76 135
76 136
76 137
76 138
77 139
78 140
78 141
78 142
79 142
80 142
81 142
82 143
82 144
82 145
82 146
83 147
84 148
84 149
85 150
85 151
86 152
87 152
88 152
89 152
90 152
91 152
92 151
92 150
93 149
93 148
94 147
94 146
94 145
95 144
95 143
95 142
95 141
94 141
93 140
94 139
94 138
95 137
96 138
97 138
98 138
99 138
100 137
100 136
101 135
101 134
101 133
101 132
100 132
99 131
100 130
101 130
102 130
103 130
104 130
105 129
105 128
106 127
106 126
106 125
106 124
106 123
106 122
106 121
106 120
105 120
104 119
105 118
106 118
107 118
108 118
109 118
110 118
111 119
112 119
113 119
114 119
115 119
116 119
117 119
118 119
119 119
120 119
121 119
122 119
123 119
124 119
125 119
126 119
127 118
128 118
129 118
130 118
131 118
132 118
133 117
134 117
135 117
136 117
137 117
138 116
139 116
140 116
141 116
142 115
143 115
144 115
145 116
146 116
147 117
148 118
148 119
149 119
150 120
151 121
151 122
152 122
153 123
154 124
154 125
155 126
156 127
157 128
157 129
158 129
159 130
160 131
160 132
161 133
162 134
163 135
164 136
165 136
166 136
167 136
168 135
168 134
169 133
169 132
169 131
168 131
167 130
166 129
167 128
167 127
166 127
165 126
164 125
163 124
164 123
163 123
162 122
161 121
160 120
161 119
161 118
162 117
163 118
164 118
165 119
166 119
167 120
168 120
169 121
170 121
171 122
172 122
173 122
174 122
175 122
176 122
177 122
178 123
179 123
180 123
181 124
182 124
183 124
184 124
185 124
186 124
187 124
188 124
189 124
190 124
191 124
192 124
193 123
193 122
194 121
194 120
194 119
194 118
194 117
194 116
194 115
194 114
193 114
192 113
193 112
194 111
194 110
195 109
195 108
194 108
193 107
192 106
191 106
190 105
191 104
191 103
192 102
192 101
192 100
192 99
192 98
192 97
192 96
192 95
191 95
190 94
191 93
190 93
189 92
190 91
191 90
192 90
193 91
194 91
195 91
196 91
197 92
198 93
199 93
200 94
201 95
202 96
203 97
204 98
205 99
206 100
207 101
208 102
209 103
210 103
211 104
212 104
213 105
213 106
214 107
215 108
216 108
217 109
217 110
218 110
219 111
220 112
221 113
222 113
223 114
223 115
224 115
225 115
226 116
227 117
228 117
229 118
230 118
231 118
232 118
233 118
234 118
235 118
236 118
237 118
238 118
239 117
239 116
240 115
240 114
240 113
240 112
240 111
240 110
240 109
240 108
239 108
238 107
237 106
236 105
235 104
236 103
236 102
236 101
235 100
235 99
236 98
236 97
236 96
235 96
234 95
233 94
232 93
233 92
232 92
231 91
230 90
229 90
228 89
227 88
228 87
229 86
230 85
231 85
232 85
233 84
234 84
235 84
236 83
237 82
238 81
239 80
240 80
241 79
242 79
243 78
243 77
244 76
244 75
245 74
246 74
247 73
248 73
249 72
249 71
250 70
250 69
251 68
252 67
253 67
254 66
255 65
255 64
256 63
256 62
256 61
255 61
254 60
253 60
252 59
253 58
252 58
251 57
250 57
249 57
248 57
247 57
246 57
245 57
244 57
243 57
242 58
241 58
240 58
239 58
238 58
237 59
236 59
235 60
234 60
233 60
232 60
231 61
230 61
229 61
228 62
227 62
226 62
225 62
224 63
223 63
222 63
221 63
220 63
219 64
218 64
217 64
216 64
215 64
214 64
213 65
212 65
211 65
210 65
209 66
208 66
207 66
206 66
205 67
204 67
203 67
202 67
201 67
200 68
199 68
198 68
197 68
196 69
195 69
194 69
193 69
192 68
191 68
190 67
190 66
191 65
191 64
191 63
191 62
191 61
192 60
192 59
191 59
190 58
191 57
191 56
191 55
191 54
192 53
192 52
193 51
193 50
193 49
194 48
194 47
194 46
194 45
194 44
195 43
195 42
195 41
195 40
195 39
195 38
195 37
194 37
193 36
192 35
191 35
190 35
189 35
188 35
187 35
186 35
185 35
184 35
183 35
182 35
181 35
180 35
179 35
178 35
177 35
176 35
175 35
174 35
173 36
172 36
171 36
170 36
169 36
168 36
167 36
166 36
165 37
164 37
163 37
162 38
161 38
160 38
159 39
158 39
157 39
156 40
155 40
154 39
153 38
152 38
151 37
150 36
150 35
151 34
151 33
152 32
152 31
151 31
150 30
149 30
148 30
147 30
146 29
147 28
147 27
148 26
148 25
148 24
147 24
146 23
145 23
144 23
143 23
142 24
141 24
140 23
141 22
142 21
142 20
143 19
143 18
143 17
142 17
141 16
140 16
139 16
138 16
137 17
136 18
135 19
134 19
133 18
134 17
134 16
135 15
135 14
135 13
135 12
134 12
133 11
132 11
131 11
130 11
129 12
128 13
127 14
126 15
125 16
124 15
124 14
124 13
125 12
125 11
126 10
126 9
126 8
126 7
125 7
124 6
123 6
122 6
121 6
121 7
120 8
120 9
119 10
118 11
117 12
116 12
115 11
114 10
115 9
115 8
115 7
116 6
116 5
116 4
116 3
115 3
114 2
113 2
112 2
