87 2
86 3
85 3
84 4
83 5
82 6
81 7
81 8
80 9
79 9
78 10
77 11
76 11
75 11
74 12
73 12
72 13
71 14
70 14
69 14
68 15
67 16
66 16
65 17
64 18
63 18
62 19
61 20
60 20
59 21
58 22
57 23
56 24
56 25
55 26
54 26
53 27
52 27
51 28
50 28
49 29
48 30
47 31
46 31
45 32
44 33
43 33
42 33
41 34
40 35
39 35
38 36
37 37
36 38
35 38
34 39
33 40
32 41
31 42
30 42
29 43
28 43
27 43
26 44
25 44
24 45
24 46
23 47
22 47
21 47
20 47
19 48
19 49
19 50
18 51
18 52
17 53
17 54
17 55
16 56
16 57
15 58
14 59
14 60
13 61
12 62
11 63
10 64
9 64
8 65
7 66
6 67
5 67
4 68
3 69
2 69
2 70
2 71
2 72
3 73
4 73
5 74
6 75
7 76
8 76
9 77
10 77
11 77
12 77
13 78
14 78
15 78
16 78
17 79
17 80
18 81
19 82
20 82
21 82
22 83
23 83
24 83
25 83
26 84
27 84
28 84
29 84
30 84
31 84
32 85
33 85
34 85
35 85
36 85
37 86
37 87
37 88
38 89
39 90
39 91
40 92
41 93
42 94
43 95
44 95
45 96
46 96
47 97
48 97
49 98
50 98
51 99
52 100
53 100
54 101
55 101
56 102
57 102
58 103
59 103
60 103
61 104
62 105
63 105
64 105
65 106
66 106
67 106
68 107
69 107
70 108
71 108
72 108
73 108
74 109
75 109
76 109
77 109
78 109
79 110
80 110
81 110
82 110
83 110
84 111
85 111
86 111
87 111
88 111
89 112
90 112
91 112
92 112
93 112
94 112
95 112
96 112
97 112
98 113
99 113
100 113
101 113
102 113
103 113
104 113
105 113
106 113
107 113
108 113
109 113
110 113
111 113
112 113
113 113
114 113
115 113
116 113
116 112
117 111
117 110
116 110
115 109
114 109
113 108
112 108
111 108
110 107
109 107
108 107
107 106
106 106
105 106
104 105
103 105
102 105
101 104
100 104
99 104
98 103
97 103
96 103
95 102
94 102
93 101
92 101
91 101
90 100
89 100
88 99
87 99
86 98
85 98
84 97
83 97
82 96
81 95
82 94
83 94
84 94
85 94
86 95
87 95
88 95
89 95
90 95
91 95
92 95
93 95
94 96
95 96
95 95
96 94
97 94
98 95
99 95
100 95
101 96
102 96
103 96
104 97
105 97
106 97
107 97
108 97
109 97
110 97
111 97
112 97
113 98
114 98
115 98
116 98
117 98
118 98
119 99
120 99
121 99
122 99
123 99
124 99
125 99
126 99
127 100
128 100
129 100
130 100
131 100
132 100
133 100
134 100
135 100
136 100
137 100
138 100
139 100
140 100
141 100
142 100
143 100
144 100
145 100
146 100
147 100
148 100
149 100
150 101
151 101
152 101
153 101
154 101
155 101
156 101
157 101
158 101
159 101
160 101
161 101
162 101
163 101
164 101
165 100
166 100
167 100
168 100
169 100
170 100
171 100
172 100
173 100
174 100
175 100
176 100
177 100
178 100
179 100
180 100
181 100
182 100
183 100
184 99
184 98
183 97
184 96
185 96
186 96
187 97
188 97
189 97
190 96
191 97
192 97
193 97
194 97
195 97
196 97
197 97
198 97
199 97
200 97
201 97
202 97
203 97
204 97
205 97
206 97
207 97
208 97
209 97
210 97
211 97
212 97
213 97
214 97
215 97
216 97
217 97
218 97
219 97
220 96
221 96
222 97
223 97
224 97
225 96
226 96
227 96
228 96
229 96
230 96
231 96
232 95
233 95
234 95
235 95
236 94
237 94
238 94
239 94
240 94
241 94
242 93
243 93
244 93
245 93
246 92
247 92
248 92
249 92
250 92
251 92
252 93
253 94
254 94
255 95
256 96
257 96
258 97
259 98
260 99
261 99
262 100
263 100
264 101
265 102
266 102
267 103
268 103
269 104
270 104
271 105
272 105
273 106
274 106
275 106
276 106
277 107
278 107
279 107
280 108
281 108
282 108
283 108
284 109
285 109
286 109
287 109
288 108
288 107
289 106
289 105
290 104
291 103
291 102
292 101
293 100
293 99
294 98
295 97
296 96
297 95
297 94
298 93
299 92
300 91
301 90
302 89
303 88
303 87
304 86
305 85
306 84
307 84
308 83
309 82
310 81
311 80
312 79
313 78
314 77
315 77
316 76
317 75
318 74
319 73
320 73
321 72
322 71
323 71
324 70
325 70
326 69
327 68
328 68
329 67
329 66
328 65
327 65
326 64
325 64
324 64
323 64
322 63
321 63
320 63
319 62
318 62
317 62
316 62
315 61
314 61
313 61
312 61
311 60
310 61
309 60
308 60
307 60
306 60
305 60
304 60
303 60
302 60
301 60
300 60
299 60
298 60
297 60
296 60
295 60
294 60
293 60
292 60
291 61
290 61
289 61
288 61
287 61
286 62
285 62
284 62
283 62
282 62
281 62
280 62
279 63
278 63
277 63
276 63
275 63
274 63
273 63
272 63
271 64
270 64
269 64
268 64
267 64
266 64
265 64
264 64
263 64
262 64
261 64
260 64
259 64
258 64
257 64
256 63
255 63
254 63
253 63
252 63
251 63
250 63
249 62
248 62
247 62
246 62
245 62
244 62
243 62
242 61
241 61
240 61
239 61
238 61
237 61
236 61
235 60
234 60
233 60
232 60
231 60
230 60
229 60
228 60
227 60
226 60
225 60
224 60
223 60
222 59
223 58
223 57
223 56
223 55
223 54
223 53
223 52
224 51
224 50
224 49
224 48
224 47
224 46
224 45
224 44
225 43
225 42
225 41
225 40
226 39
226 38
227 37
228 36
228 35
229 34
229 33
230 32
229 32
228 32
227 32
226 32
225 32
224 32
223 32
222 32
221 32
220 33
219 33
218 33
217 33
216 34
215 34
214 35
213 35
212 35
211 36
210 36
209 37
208 37
207 37
206 37
205 38
204 39
203 39
202 39
201 40
200 40
199 41
198 42
197 42
196 43
195 44
194 44
193 45
192 45
191 46
190 46
189 47
188 48
187 48
186 48
185 48
184 47
183 47
182 46
181 46
180 46
179 46
178 45
177 45
176 44
175 44
174 44
173 44
172 44
171 44
170 44
169 43
168 42
168 41
167 40
166 39
165 39
164 38
163 38
162 38
161 37
160 37
159 37
158 36
157 36
156 36
155 35
154 35
153 34
152 34
151 33
150 32
149 31
148 31
147 30
146 29
145 28
144 27
143 27
142 27
141 26
140 26
139 25
138 24
137 24
136 23
135 23
134 22
133 22
132 22
131 22
130 21
129 21
128 21
127 21
126 21
125 20
124 20
123 19
122 18
121 18
120 17
119 17
118 16
117 15
116 15
115 14
114 14
113 14
112 13
111 13
110 13
109 12
108 12
107 12
106 11
105 10
104 9
103 9
102 8
101 7
100 6
99 5
98 5
97 4
96 4
95 3
94 3
93 2
92 2
91 2
90 2
89 2
88 2
