32 2
31 3
31 4
30 5
30 6
29 7
29 8
29 9
29 10
28 11
28 12
28 13
27 14
27 15
27 16
26 17
26 18
26 19
26 20
25 21
25 22
25 23
25 24
25 25
24 26
24 27
23 28
22 28
21 28
20 29
19 30
18 30
17 31
16 31
15 32
14 32
13 33
12 33
11 34
11 35
10 36
9 36
8 37
7 37
6 38
5 38
5 39
4 40
4 41
3 42
2 43
2 44
2 45
2 46
2 47
2 48
2 49
2 50
3 51
3 52
4 53
5 53
6 53
7 54
8 55
9 56
10 56
11 56
12 56
13 57
14 57
15 57
16 57
17 58
18 58
19 58
20 58
21 58
22 58
23 58
24 58
25 59
26 59
27 59
28 59
29 59
30 59
31 59
32 59
33 59
34 59
35 60
36 60
37 59
38 60
39 59
40 59
41 59
42 60
42 61
43 62
43 63
44 64
44 65
45 66
46 67
47 68
47 69
48 70
49 71
50 71
51 72
52 73
53 74
54 75
55 75
56 75
57 76
58 76
59 77
60 77
61 77
62 77
63 77
64 77
65 77
66 78
66 77
67 76
66 75
65 75
64 74
65 73
65 72
64 72
63 72
62 72
61 72
60 72
59 72
58 72
57 72
56 72
55 72
54 71
53 71
52 70
51 69
51 68
50 68
49 67
48 66
47 65
46 64
45 63
46 62
46 61
47 60
48 60
49 60
50 60
51 60
52 61
53 61
54 61
55 61
56 61
57 61
58 61
59 61
60 61
61 61
62 61
63 61
64 61
65 61
66 61
67 61
68 61
69 61
70 61
71 62
72 62
73 62
74 62
75 62
76 62
77 62
78 62
79 62
80 62
81 62
82 62
83 62
84 62
85 62
86 62
87 62
88 62
89 62
90 62
91 62
92 62
93 62
94 63
95 63
96 63
97 63
98 63
99 63
100 63
101 63
102 63
103 63
104 63
105 63
106 63
107 63
108 63
109 63
110 63
111 63
112 63
113 63
114 63
115 63
116 63
117 63
118 63
119 63
120 63
121 63
122 63
123 63
124 63
125 63
126 63
127 63
128 63
129 63
130 64
131 65
132 65
133 66
134 67
135 67
136 68
137 69
138 70
139 70
140 70
141 70
142 70
143 71
144 71
145 71
146 71
147 71
148 71
149 71
150 71
151 71
152 71
153 71
154 71
155 72
156 72
157 72
158 72
159 72
160 72
161 72
162 72
163 72
164 72
165 72
166 72
167 72
168 72
169 72
170 72
171 72
172 72
173 72
174 72
175 72
176 71
177 71
178 71
179 71
180 71
181 71
182 71
183 71
184 71
185 71
186 71
187 71
188 71
189 71
190 71
191 71
192 71
193 71
194 71
195 71
196 70
197 70
198 70
199 70
200 70
201 70
202 70
203 70
204 70
205 70
206 70
207 70
208 70
209 70
210 70
211 69
212 69
213 69
214 69
215 69
216 68
217 68
218 68
219 68
220 67
221 67
222 67
223 67
224 67
225 67
226 67
227 67
228 66
229 66
230 66
231 65
232 65
233 65
234 65
235 65
236 64
237 64
238 64
239 63
240 63
241 62
242 61
242 60
243 59
243 58
242 58
241 57
242 56
243 56
244 56
245 56
246 56
247 56
248 56
249 56
250 57
251 58
252 58
253 59
254 60
254 61
255 61
256 62
257 63
258 63
259 64
260 65
261 66
262 67
263 67
264 68
265 69
266 70
267 71
268 71
269 72
270 72
271 73
272 74
273 75
274 75
275 76
276 76
277 76
278 77
279 77
280 78
281 77
282 76
282 75
283 74
283 73
284 72
284 71
284 70
285 69
285 68
286 67
286 66
286 65
287 64
287 63
287 62
287 61
288 60
288 59
288 58
288 57
288 56
289 55
289 54
289 53
289 52
289 51
290 50
290 49
290 48
290 47
290 46
290 45
290 44
290 43
290 42
290 41
290 40
290 39
290 38
290 37
290 36
290 35
290 34
289 34
288 33
289 32
289 31
289 30
288 30
287 29
288 28
288 27
288 26
287 26
286 25
287 24
286 24
285 23
284 22
283 22
282 22
281 22
280 23
279 23
278 23
277 24
276 25
275 26
274 26
273 27
272 27
271 28
270 28
269 29
268 29
267 30
266 31
265 31
264 32
263 32
262 32
261 33
260 33
259 34
258 35
257 36
256 36
255 37
254 38
253 38
252 39
251 40
250 41
249 41
248 41
247 41
246 41
245 41
244 40
245 39
245 38
244 38
243 37
242 36
241 35
240 34
241 33
240 33
239 33
238 32
237 32
236 32
235 31
234 31
233 31
232 30
231 30
230 29
229 29
228 28
227 28
226 28
225 27
224 27
223 27
222 27
221 27
220 26
219 26
218 26
217 26
216 26
215 25
214 25
213 25
212 24
211 23
210 23
209 23
208 23
207 23
206 23
205 22
204 22
203 22
202 22
201 21
200 21
199 21
198 21
197 21
196 21
195 20
194 20
193 20
192 19
191 19
190 19
189 18
188 18
187 18
186 18
185 18
184 18
183 17
182 17
181 17
180 17
179 17
178 17
177 17
176 17
175 16
174 16
173 16
172 16
171 16
170 16
169 16
168 15
167 15
166 15
165 15
164 14
163 14
162 14
161 14
160 14
159 13
158 13
157 13
156 13
155 13
154 13
153 13
152 13
151 13
150 13
149 12
148 12
147 12
146 12
145 12
144 12
143 12
142 12
141 12
140 12
139 11
138 11
137 11
136 11
135 11
134 11
133 11
132 11
131 11
130 11
129 11
128 11
127 11
126 10
125 10
124 10
123 10
122 10
121 10
120 9
119 9
118 9
117 9
116 8
115 8
114 8
113 8
112 8
111 8
110 8
109 8
108 8
107 8
106 8
105 8
104 8
103 8
102 8
101 8
100 7
99 7
98 7
97 7
96 7
95 7
94 7
93 7
92 7
91 7
90 7
89 7
88 7
87 7
86 7
85 7
84 7
83 7
82 7
81 7
80 7
79 7
78 7
77 7
76 6
75 6
74 7
73 6
72 7
71 7
70 7
69 7
68 7
67 8
66 8
65 8
64 9
63 9
62 10
61 11
60 11
59 11
58 12
57 12
56 13
55 13
54 13
54 14
53 15
52 16
51 16
50 17
49 18
48 19
47 19
46 18
45 18
44 17
43 17
42 16
41 15
42 14
41 14
40 13
39 12
40 11
40 10
40 9
40 8
39 8
38 7
37 7
36 7
35 6
34 5
35 4
34 4
33 3
34 2
33 2
