85 2
84 3
83 3
82 4
81 5
80 5
79 5
78 6
77 7
76 8
76 9
75 10
74 11
73 12
73 13
72 14
71 15
71 16
70 17
70 18
69 19
68 20
67 21
66 22
65 23
64 23
63 23
62 23
61 24
60 24
59 24
58 25
57 25
56 25
55 25
54 25
53 26
52 26
51 26
50 26
49 26
48 26
47 27
46 27
45 27
44 27
43 27
42 28
41 28
40 29
39 29
38 29
37 30
36 30
35 30
34 30
33 31
32 31
31 31
30 32
29 31
29 30
30 29
30 28
29 28
28 29
27 30
26 31
25 32
24 32
23 33
22 34
21 35
20 35
19 36
18 36
17 37
16 37
15 38
14 39
13 40
12 39
11 38
10 39
9 40
8 41
7 42
7 43
6 44
6 45
5 46
4 47
4 48
4 49
3 50
2 51
2 52
2 53
2 54
3 55
3 56
4 57
4 58
4 59
5 60
6 61
7 61
8 62
9 62
10 62
11 63
12 63
13 64
14 64
15 65
16 65
17 65
18 65
19 65
20 65
21 66
22 66
23 66
24 67
25 67
26 67
27 67
28 67
29 68
30 68
31 69
32 69
33 70
34 70
35 70
36 70
37 70
38 70
39 71
40 71
41 71
42 71
43 71
44 71
45 72
46 73
46 74
47 75
48 76
49 77
50 77
51 78
52 79
53 80
54 80
55 80
56 81
56 82
57 83
57 84
58 85
58 86
59 87
59 88
59 89
60 90
61 91
62 92
62 93
62 94
63 95
64 96
65 97
65 98
65 99
66 100
67 101
68 102
69 103
70 102
71 101
72 102
72 103
73 104
74 105
75 106
76 106
77 106
78 105
79 105
80 105
80 104
81 103
80 103
79 102
78 101
77 100
76 99
75 98
76 97
75 97
74 96
73 95
72 94
73 93
72 93
71 92
72 91
71 91
70 90
69 89
68 88
69 87
68 87
67 86
68 85
67 85
66 84
65 83
66 82
66 81
67 80
68 80
69 80
70 80
71 80
72 80
73 79
74 79
75 79
76 79
77 79
78 79
79 79
80 79
81 79
82 78
83 78
84 78
85 78
86 78
87 78
88 78
89 78
89 77
90 76
91 76
92 76
93 76
94 76
95 76
96 75
97 75
97 74
98 73
99 72
100 72
101 72
102 72
103 72
104 71
105 71
106 70
107 70
108 69
109 68
110 68
111 67
112 67
113 67
114 66
115 66
116 66
117 66
118 66
119 66
120 66
121 66
122 65
123 65
124 65
125 65
126 66
127 67
128 67
129 68
129 69
130 70
131 71
132 71
133 72
134 73
135 74
135 75
136 75
137 75
138 74
139 74
140 74
141 75
142 75
143 76
144 76
145 77
146 77
147 78
148 78
148 77
149 76
150 76
151 77
152 77
153 78
154 78
154 77
155 76
156 77
157 77
158 78
159 78
160 78
161 78
161 77
162 76
163 76
164 76
165 77
166 77
167 77
167 76
168 75
169 75
170 75
171 76
172 76
172 75
173 74
174 73
175 73
176 73
177 74
178 73
178 72
179 71
180 71
181 71
182 70
182 69
183 68
184 67
185 66
186 65
186 64
187 63
187 62
187 61
187 60
187 59
188 58
187 58
186 57
185 57
184 57
183 57
182 56
181 56
180 56
179 56
178 55
177 55
176 54
175 53
176 52
177 52
178 52
179 52
180 52
181 52
182 51
183 51
184 51
185 51
186 51
187 50
188 50
189 50
190 50
191 50
192 50
193 50
194 50
195 50
196 50
197 49
198 49
199 49
200 49
201 49
202 49
203 49
204 50
205 50
206 50
207 50
208 51
209 51
210 51
211 51
212 52
213 52
214 52
215 52
216 52
217 52
218 53
219 53
220 54
221 54
222 54
223 55
224 55
225 55
226 55
227 55
228 56
229 56
230 56
231 56
232 56
233 56
234 57
235 57
236 57
237 57
238 57
239 57
240 57
241 58
242 58
243 58
244 59
244 60
245 60
246 59
247 58
248 58
249 57
250 56
251 55
252 54
252 53
253 52
253 51
254 50
254 49
254 48
254 47
254 46
254 45
254 44
254 43
254 42
254 41
254 40
254 39
254 38
254 37
254 36
254 35
254 34
254 33
254 32
253 32
252 31
253 30
253 29
252 29
251 28
252 27
252 26
251 26
250 25
249 24
250 23
250 22
249 22
248 21
247 21
246 20
245 20
244 19
243 19
242 19
241 19
240 20
239 20
238 20
237 20
236 20
235 20
234 21
233 21
232 21
231 21
230 22
229 22
228 22
227 23
226 23
225 24
224 25
223 25
222 26
221 26
220 26
219 27
218 27
217 27
216 28
215 29
214 29
213 30
212 30
211 30
210 30
209 31
208 31
207 31
206 31
205 32
204 32
203 32
202 32
201 33
200 33
199 32
198 33
197 33
196 33
195 33
194 33
193 33
192 33
191 33
190 33
189 33
188 32
187 32
186 31
187 30
188 30
189 29
190 28
191 27
192 26
193 25
194 24
194 23
195 22
195 21
195 20
194 20
193 20
192 19
193 18
192 18
191 17
190 16
189 16
188 15
187 15
186 14
185 13
184 13
183 12
182 12
181 12
180 12
179 12
178 11
177 11
176 11
175 11
174 11
173 10
172 10
171 10
170 10
169 10
168 10
167 10
166 10
165 10
164 10
163 9
162 9
161 9
160 8
159 8
158 8
157 8
156 8
155 7
154 7
153 7
152 7
151 7
150 8
149 8
148 8
147 8
146 8
145 9
144 9
143 10
142 10
141 10
140 10
139 11
138 11
137 11
136 12
135 12
134 12
133 13
132 13
131 14
130 14
129 15
128 15
127 16
126 16
125 17
124 17
123 18
123 19
122 20
121 20
120 21
119 21
118 22
117 22
116 21
117 20
117 19
118 18
118 17
118 16
119 15
119 14
119 13
119 12
119 11
118 11
117 10
116 9
117 8
117 7
116 7
115 7
114 6
113 6
112 5
111 5
110 4
109 4
108 4
107 3
106 3
105 3
104 2
103 2
102 2
101 2
100 2
99 2
98 2
97 2
96 2
95 2
94 2
93 2
92 2
91 2
90 2
89 2
88 2
87 2
86 2
