77 2
77 3
76 4
76 5
75 6
74 6
73 5
72 5
72 6
71 7
71 8
70 9
69 10
68 11
68 12
67 13
67 14
66 15
66 16
65 17
64 18
63 19
62 20
62 21
61 22
61 23
60 24
59 25
58 26
58 27
57 28
57 29
57 30
56 31
56 32
56 33
55 34
55 35
54 36
53 36
52 36
51 36
50 36
49 36
48 36
47 36
46 36
45 36
44 36
43 36
42 36
41 36
40 36
39 36
38 36
37 36
36 36
35 36
34 37
33 37
32 37
31 37
30 37
29 37
28 37
27 38
26 39
25 39
24 39
23 39
23 40
22 41
22 42
21 43
20 44
19 44
19 45
18 46
18 47
17 48
17 49
16 50
15 50
14 51
13 52
13 53
12 54
11 55
10 56
9 56
9 57
8 58
8 59
7 60
6 61
5 61
4 62
3 63
3 64
2 65
2 66
2 67
2 68
2 69
2 70
2 71
2 72
2 73
2 74
3 75
3 76
4 76
5 76
6 77
7 77
8 77
9 77
10 77
11 78
12 78
13 78
14 78
15 78
16 78
17 78
18 79
19 79
20 79
21 79
22 80
23 80
24 80
25 80
26 80
27 81
28 81
29 81
30 81
31 81
32 81
33 82
34 82
35 82
36 82
37 82
38 83
37 84
37 85
36 86
35 86
34 87
33 88
33 89
32 90
31 91
30 92
29 93
29 94
28 95
28 96
27 97
27 98
26 99
26 100
25 101
25 102
24 103
24 104
24 105
24 106
24 107
24 108
24 109
25 109
26 109
26 108
27 107
27 106
28 105
29 106
29 107
29 108
29 109
29 110
30 111
30 112
31 112
32 112
32 111
33 110
33 109
33 108
33 107
33 106
34 105
34 104
34 103
35 102
36 101
36 100
37 99
37 98
38 97
38 96
39 95
39 94
40 93
41 94
41 95
41 96
40 97
40 98
40 99
39 100
39 101
39 102
39 103
38 104
38 105
38 106
38 107
38 108
38 109
38 110
38 111
38 112
38 113
39 114
39 113
40 112
40 111
40 110
40 109
41 108
41 107
41 106
41 105
41 104
42 103
42 102
42 101
43 100
43 99
43 98
44 97
45 96
45 95
46 94
46 93
46 92
47 91
47 90
47 89
48 88
49 87
50 88
51 89
51 90
51 91
51 92
52 93
52 94
52 95
53 96
53 97
53 98
53 99
54 100
54 101
55 102
55 103
56 104
56 105
56 106
57 107
57 108
58 109
58 110
59 110
60 110
61 111
62 112
62 113
63 114
63 115
63 116
64 116
65 117
65 118
66 118
67 118
68 119
69 119
70 120
71 121
72 122
73 121
74 121
75 121
76 120
77 120
78 120
79 120
80 120
80 119
81 118
81 117
81 116
81 115
81 114
81 113
81 112
81 111
81 110
81 109
80 109
79 108
78 107
79 106
79 105
78 105
77 104
78 103
77 103
76 102
75 101
76 100
76 99
76 98
75 98
74 97
73 97
72 96
73 95
72 95
71 94
70 93
71 92
70 92
69 92
68 91
67 90
68 89
67 89
66 88
65 87
66 86
67 85
68 85
69 85
70 85
71 85
72 85
73 85
74 85
75 85
76 85
77 85
78 85
79 85
80 85
81 85
82 85
83 85
84 85
85 85
86 84
87 84
88 84
89 84
90 84
91 84
92 84
93 84
94 84
95 84
96 83
97 83
98 83
99 83
100 83
101 83
102 83
103 82
104 82
105 82
106 82
107 82
108 82
109 83
110 84
111 85
111 86
112 87
113 88
113 89
114 90
115 90
116 90
117 90
118 90
119 90
120 90
121 90
122 90
123 90
124 90
125 90
126 90
127 90
128 90
129 90
130 90
131 90
132 90
133 90
134 90
135 90
136 90
137 90
138 90
139 90
140 89
141 89
142 89
143 89
144 89
145 89
146 89
147 88
148 88
149 88
150 88
151 88
152 87
153 87
154 87
155 86
156 86
157 86
158 86
159 86
160 85
161 85
162 84
163 84
164 84
165 83
166 83
167 82
168 82
169 81
170 81
171 80
172 80
173 79
174 79
175 78
176 78
177 77
178 77
179 77
180 77
180 76
181 75
181 74
180 74
179 73
178 73
177 72
177 71
178 70
179 70
180 70
181 70
182 70
183 70
184 70
185 69
186 69
187 69
188 69
189 70
190 70
191 70
192 70
193 70
194 70
195 70
196 71
197 71
198 72
199 72
200 72
201 73
202 73
203 73
204 73
205 74
206 74
207 75
208 75
209 76
210 76
211 77
212 77
213 77
214 77
215 78
216 78
217 78
218 79
219 79
220 80
221 80
222 80
223 81
224 81
225 81
226 82
227 82
228 82
229 83
230 83
231 83
232 84
233 84
234 84
235 85
236 85
237 85
238 85
239 86
240 86
241 86
242 87
243 87
244 87
244 86
245 85
245 84
244 83
245 82
245 81
245 80
245 79
245 78
245 77
244 77
243 76
244 75
244 74
244 73
244 72
243 72
242 71
243 70
242 70
241 69
242 68
242 67
241 67
240 66
241 65
241 64
241 63
241 62
241 61
241 60
241 59
240 59
239 58
240 57
240 56
241 55
241 54
241 53
242 52
242 51
243 50
243 49
244 48
244 47
244 46
244 45
245 44
245 43
245 42
245 41
245 40
246 39
246 38
246 37
246 36
246 35
246 34
246 33
246 32
245 32
244 31
243 31
242 32
241 32
240 32
239 33
238 33
237 33
236 33
235 34
234 34
233 35
232 35
231 35
230 36
229 36
228 36
227 37
226 37
225 38
224 38
223 39
222 39
221 39
220 40
219 40
218 41
217 41
216 41
215 42
214 43
213 43
212 44
211 44
210 44
209 45
208 46
207 46
206 46
205 47
204 47
203 48
202 48
201 48
200 48
199 48
198 49
197 49
196 50
195 50
194 50
193 50
192 51
191 51
190 51
189 51
188 51
187 51
186 52
185 52
184 52
183 52
182 52
181 51
180 51
179 51
178 51
177 51
176 50
177 49
178 48
179 48
180 47
181 46
182 45
183 45
184 44
185 44
186 43
186 42
187 41
187 40
186 40
185 39
184 39
183 39
182 39
181 38
180 38
179 37
178 37
177 37
176 36
175 36
174 36
173 36
172 36
171 35
170 35
169 35
168 35
167 34
166 34
165 34
164 34
163 33
162 33
161 33
160 33
159 32
158 32
157 32
156 32
155 32
154 32
153 31
152 31
151 31
150 31
149 31
148 30
147 30
146 30
145 30
144 30
143 29
142 29
141 29
140 29
139 28
138 28
137 28
136 28
135 28
134 28
133 28
132 27
131 27
130 27
129 27
128 27
127 27
126 27
125 27
124 26
123 26
122 26
121 26
120 26
119 26
118 26
117 26
116 26
115 26
114 27
113 28
113 29
112 30
112 31
112 32
111 33
111 34
110 35
109 36
108 37
107 38
106 37
106 36
106 35
106 34
105 34
104 34
103 34
102 33
103 32
103 31
102 31
101 31
100 30
101 29
101 28
101 27
102 26
101 26
100 25
99 24
100 23
100 22
100 21
101 20
100 20
99 20
98 20
97 20
96 19
97 18
97 17
97 16
97 15
97 14
96 14
95 14
94 14
93 14
92 13
93 12
93 11
93 10
94 9
93 9
92 9
91 9
90 9
89 8
90 7
90 6
90 5
89 4
88 4
87 4
86 3
87 2
86 2
85 2
84 2
83 3
82 3
81 4
80 4
79 3
80 2
79 2
78 2
