74 2
73 3
72 3
71 3
70 4
69 4
68 5
68 6
67 7
66 7
65 8
64 9
63 10
63 11
62 12
61 13
60 13
59 14
59 15
58 16
57 17
56 18
55 19
55 20
54 21
53 21
52 21
51 21
50 21
49 21
48 21
47 21
46 21
45 21
44 21
43 21
42 21
41 21
40 21
39 21
38 21
37 21
36 21
35 21
34 21
33 21
32 21
31 21
30 21
29 21
28 21
27 21
26 21
25 21
24 21
23 21
22 21
21 21
20 21
19 21
18 21
17 21
16 21
15 21
14 21
13 21
12 21
11 21
10 22
9 22
8 23
7 24
7 25
7 26
7 27
7 28
7 29
7 30
7 31
6 32
6 33
6 34
5 35
5 36
5 37
4 38
4 39
4 40
4 41
3 42
3 43
2 44
2 45
2 46
2 47
2 48
2 49
2 50
2 51
3 52
4 53
4 54
5 54
6 55
7 56
8 57
9 57
10 57
11 57
12 57
13 58
14 58
15 58
16 58
17 58
18 58
19 58
20 58
21 59
22 59
23 59
24 59
25 59
26 59
27 59
28 60
29 60
30 60
31 60
32 60
33 60
34 60
35 61
36 61
37 61
38 61
39 62
39 63
40 64
40 65
40 66
40 67
41 68
41 69
41 70
41 71
42 72
42 73
43 74
43 75
43 76
44 77
44 78
45 79
45 80
46 81
46 82
47 83
48 84
49 85
49 86
50 87
51 87
52 88
52 87
53 86
52 85
52 84
52 83
53 82
53 81
52 80
51 79
50 78
49 77
48 76
47 75
48 74
47 74
46 73
47 72
46 72
45 71
46 70
46 69
46 68
45 68
44 67
45 66
44 66
43 65
44 64
44 63
45 62
46 62
47 62
48 63
49 63
50 63
51 63
52 63
53 64
54 64
55 64
56 64
57 65
58 65
59 65
60 65
61 66
62 66
63 66
64 66
65 66
66 66
67 66
68 66
69 66
70 66
71 67
72 67
73 67
74 67
75 67
76 67
77 67
78 67
79 67
80 67
81 67
82 67
83 67
84 67
85 67
86 67
87 67
88 67
89 67
90 66
91 66
92 66
93 66
94 67
95 68
95 69
96 70
96 71
97 72
97 73
98 74
98 75
99 76
100 77
101 78
102 79
102 80
103 81
104 82
105 82
106 83
107 83
108 83
109 83
110 83
111 83
112 83
113 84
114 84
115 84
116 84
117 84
118 84
119 84
120 84
121 84
122 84
123 84
124 83
125 83
126 83
127 83
128 83
129 83
130 83
131 83
132 83
133 83
134 83
135 83
136 83
137 83
138 83
139 83
140 83
141 83
142 83
143 83
144 83
145 83
146 83
147 83
148 83
149 83
150 83
151 83
152 83
153 83
154 82
155 82
156 82
157 82
158 82
159 82
160 82
161 82
162 82
163 81
164 81
165 81
166 81
167 81
168 81
169 81
170 81
171 80
172 80
173 80
174 79
175 79
176 79
177 78
178 78
179 78
180 78
181 77
182 77
183 77
184 77
185 76
186 76
187 76
188 75
189 74
190 74
191 73
192 73
193 73
194 72
195 72
195 71
195 70
194 70
193 70
192 69
191 68
190 67
189 66
190 65
189 65
188 64
189 63
189 62
190 61
191 61
192 61
193 61
194 61
195 61
196 62
197 62
198 62
199 63
200 63
201 63
202 64
203 65
204 66
205 66
206 66
207 67
208 67
209 67
210 68
211 68
212 69
213 69
214 70
215 71
216 71
217 71
218 72
219 72
220 72
221 72
222 73
223 73
224 74
225 74
226 75
227 75
228 76
229 76
230 76
231 76
232 75
233 74
234 73
235 72
236 72
237 71
237 70
238 69
238 68
239 67
239 66
240 65
240 64
241 63
241 62
242 61
242 60
242 59
243 58
243 57
243 56
243 55
243 54
243 53
244 52
244 51
244 50
243 50
242 49
243 48
243 47
243 46
243 45
243 44
242 44
241 43
242 42
242 41
242 40
241 40
240 39
241 38
240 38
239 37
238 36
239 35
238 35
237 34
236 33
235 32
234 32
233 32
232 32
231 32
230 32
229 32
228 33
227 33
226 33
225 33
224 34
223 34
222 34
221 34
220 35
219 35
218 35
217 36
216 37
215 37
214 37
213 38
212 38
211 38
210 38
209 39
208 39
207 39
206 40
205 40
204 41
203 42
202 42
201 42
200 43
199 43
198 43
197 44
196 44
195 44
194 45
193 45
192 45
191 45
190 44
189 43
188 42
189 41
189 40
189 39
189 38
189 37
190 36
190 35
191 34
192 34
193 33
194 33
194 32
195 31
195 30
194 30
193 30
192 29
191 29
190 28
189 28
188 28
187 28
186 27
185 27
184 27
183 26
182 26
181 25
180 24
179 24
178 24
177 23
176 23
175 23
174 22
173 22
172 22
171 21
170 21
169 20
168 20
167 19
166 19
165 19
164 18
163 18
162 18
161 18
160 17
159 17
158 17
157 16
156 16
155 15
154 14
153 14
152 14
151 13
150 13
149 13
148 12
147 12
146 12
145 11
144 11
143 10
142 10
141 9
140 9
139 9
138 9
137 8
136 8
135 8
134 8
133 8
132 7
131 7
130 8
129 8
128 8
127 8
126 9
125 9
124 10
123 10
122 10
121 11
120 11
119 11
118 11
117 11
116 11
115 11
114 10
113 10
112 10
111 9
110 9
109 9
108 9
107 9
106 9
105 8
104 8
103 8
102 8
101 8
100 7
99 7
98 7
97 7
96 7
95 7
94 6
93 6
92 5
91 5
90 5
89 4
88 4
87 4
86 4
85 3
84 3
83 3
82 3
81 3
80 3
79 3
78 2
77 2
76 2
75 2
