82 2
82 3
82 4
82 5
82 6
82 7
82 8
82 9
82 10
82 11
82 12
82 13
83 14
83 15
83 16
83 17
83 18
83 19
83 20
83 21
83 22
83 23
83 24
82 25
81 25
80 24
79 23
78 22
77 21
76 20
77 19
76 19
75 18
74 17
73 16
72 15
71 16
71 17
71 18
71 19
72 20
72 21
72 22
73 23
73 24
74 25
74 26
74 27
74 28
74 29
73 30
72 31
71 31
70 30
69 30
68 30
68 31
68 32
69 33
70 34
71 35
71 36
72 37
73 37
74 38
74 39
75 40
75 41
74 42
73 42
72 42
71 42
70 42
69 42
68 42
67 43
66 44
65 45
64 46
63 47
62 48
61 48
60 48
59 47
58 47
57 47
56 46
57 45
57 44
57 43
57 42
57 41
57 40
56 40
55 40
54 41
53 41
52 41
52 42
52 43
51 44
50 45
50 46
49 47
48 47
47 47
46 47
45 47
44 48
43 48
42 49
41 49
40 49
39 50
38 50
37 51
36 51
35 52
34 53
34 54
33 55
32 56
31 56
30 57
30 58
29 59
28 60
28 61
27 62
26 63
25 63
24 63
23 63
22 63
21 63
20 63
19 64
18 64
17 65
16 66
15 67
15 68
14 69
13 69
13 70
12 71
12 72
12 73
11 74
11 75
10 76
9 77
8 78
8 79
7 80
7 81
7 82
7 83
6 84
5 85
4 85
3 86
2 87
2 88
2 89
3 90
3 91
4 92
5 93
5 94
6 95
7 96
8 97
9 98
10 98
11 99
12 99
13 100
14 101
15 101
16 102
16 103
17 103
18 104
19 105
20 106
21 107
22 108
23 109
24 110
24 111
25 111
26 112
27 113
28 113
29 113
30 114
31 115
32 115
33 116
34 117
35 117
36 117
37 118
38 118
39 119
40 119
41 119
42 120
43 120
44 120
45 121
46 121
47 121
48 121
49 122
50 122
51 122
52 122
53 123
54 123
55 123
56 123
57 124
58 124
59 124
60 125
61 125
62 125
63 125
64 126
65 126
66 126
67 126
68 127
69 127
70 127
71 128
72 128
73 128
74 128
75 128
76 128
77 129
78 129
79 129
80 129
81 129
82 130
83 130
84 130
85 130
86 130
87 130
88 130
89 131
90 131
91 131
92 131
93 131
94 131
95 131
96 132
97 133
97 134
98 135
99 136
100 137
101 138
101 139
102 140
103 141
104 142
105 143
105 144
106 145
107 145
108 146
108 147
109 148
110 148
111 149
111 150
112 151
113 152
113 153
114 153
115 154
116 155
117 155
118 156
119 155
119 154
118 153
119 152
118 152
117 152
116 151
115 150
116 149
116 148
115 148
114 147
115 146
114 146
113 145
114 144
115 144
116 144
117 144
118 145
119 145
120 146
121 146
122 147
123 148
124 149
125 149
126 150
127 150
128 150
129 150
130 150
131 150
132 150
133 150
134 150
135 149
136 148
137 148
138 147
139 147
139 146
140 145
140 144
141 143
141 142
141 141
141 140
141 139
141 138
140 138
139 137
138 136
137 135
138 134
137 134
136 133
135 132
134 131
133 130
132 129
133 128
134 127
135 126
136 126
137 126
138 126
139 126
140 126
141 125
142 125
143 125
144 125
145 125
146 125
147 125
148 125
149 126
149 127
150 128
151 129
152 130
152 131
153 131
154 132
155 133
155 134
156 135
156 136
157 137
158 138
159 138
160 139
160 140
161 140
162 141
163 140
163 139
162 138
161 137
160 136
160 135
159 135
158 135
157 134
158 133
157 133
156 132
157 131
158 130
159 130
160 131
161 131
162 132
163 133
164 133
165 134
166 135
167 135
168 136
169 136
170 137
171 137
172 138
173 138
174 139
175 139
176 140
177 140
178 141
179 142
180 142
181 142
181 141
181 140
180 140
179 139
180 138
179 138
178 137
177 136
178 135
178 134
178 133
177 133
176 132
177 131
178 131
179 131
180 132
181 132
182 133
183 133
184 133
185 133
186 134
187 134
188 134
189 134
190 135
191 135
192 136
193 136
193 135
194 134
194 133
193 133
192 133
191 133
190 132
191 131
192 131
193 131
194 131
195 131
196 130
197 130
198 130
199 130
200 129
201 128
202 128
203 127
204 127
204 126
205 125
205 124
206 123
206 122
206 121
207 120
207 119
207 118
206 118
205 117
204 116
205 115
204 115
203 114
202 114
201 114
200 113
199 113
198 113
197 112
196 112
195 112
194 111
195 110
196 110
197 110
198 109
199 109
200 109
201 109
202 108
203 108
204 108
205 108
206 108
207 107
208 107
209 107
210 107
211 108
212 108
213 109
214 109
215 109
216 110
217 110
218 110
219 110
220 110
221 111
222 111
223 111
224 111
225 112
226 112
227 112
228 112
229 113
230 113
231 113
232 113
233 113
234 114
235 114
236 114
237 115
238 115
239 115
240 115
241 116
242 116
243 116
244 117
245 117
246 117
247 117
248 118
249 118
250 118
251 118
252 118
253 119
254 119
255 119
256 119
257 119
258 120
259 120
260 120
261 120
262 121
263 121
264 121
265 121
266 121
267 120
267 119
268 118
268 117
268 116
268 115
268 114
268 113
268 112
269 111
269 110
269 109
269 108
270 107
270 106
271 105
270 104
270 103
270 102
270 101
271 100
271 99
271 98
271 97
271 96
271 95
271 94
271 93
271 92
271 91
271 90
271 89
270 89
269 88
270 87
270 86
270 85
269 85
268 84
269 83
269 82
269 81
269 80
269 79
268 79
267 78
268 77
268 76
268 75
268 74
267 74
266 73
267 72
267 71
266 71
265 70
264 69
263 68
262 68
261 67
260 68
259 68
258 68
257 68
256 69
255 69
254 69
253 69
252 69
251 70
250 70
249 70
248 70
247 70
246 71
245 71
244 71
243 72
242 72
241 72
240 73
239 73
238 73
237 73
236 73
235 74
234 74
233 75
232 75
231 75
230 75
229 76
228 76
227 77
226 77
225 77
224 77
223 78
222 78
221 78
220 79
219 79
218 79
217 79
216 80
215 80
214 80
213 80
212 80
211 80
210 80
209 80
208 80
207 81
206 81
205 80
204 80
203 80
202 80
201 80
200 79
199 79
198 79
197 79
196 78
195 78
194 78
193 77
192 77
191 76
192 75
193 75
194 74
195 74
196 74
197 74
198 74
199 73
200 73
200 72
201 71
201 70
201 69
201 68
201 67
201 66
201 65
200 65
199 64
200 63
200 62
200 61
200 60
200 59
200 58
200 57
200 56
199 56
198 55
199 54
199 53
198 53
197 52
198 51
198 50
197 50
196 49
197 48
197 47
197 46
196 46
195 45
196 44
196 43
195 43
194 42
195 41
194 41
193 40
194 39
194 38
193 38
192 37
191 36
190 35
191 34
190 34
189 33
188 33
187 33
186 33
185 32
184 32
183 33
182 33
181 33
180 33
179 33
178 34
177 35
176 35
175 36
174 35
174 34
173 33
172 33
171 34
170 35
169 36
168 37
167 38
166 38
166 39
165 40
164 40
163 41
162 42
161 43
160 44
159 45
158 46
157 46
156 47
155 47
154 47
153 46
154 45
154 44
154 43
154 42
155 41
154 41
153 41
152 41
151 42
150 43
149 43
148 44
147 44
146 43
145 42
146 41
146 40
146 39
146 38
147 37
147 36
146 35
145 36
144 37
143 38
142 38
141 38
140 37
140 36
140 35
141 34
141 33
141 32
141 31
142 30
141 30
140 30
139 30
138 31
138 32
137 33
136 33
135 33
134 32
135 31
134 31
133 30
134 29
134 28
134 27
134 26
134 25
134 24
135 23
135 22
134 22
133 23
132 24
131 25
130 26
129 27
128 27
127 26
128 25
128 24
128 23
128 22
129 21
129 20
130 19
130 18
129 18
128 18
127 19
126 20
125 21
124 22
123 23
122 22
122 21
121 21
120 21
119 20
120 19
120 18
120 17
120 16
121 15
121 14
122 13
121 13
120 13
119 13
119 14
118 15
117 16
116 17
115 17
114 17
113 17
112 16
113 15
113 14
112 14
111 13
112 12
112 11
112 10
113 9
113 8
113 7
113 6
112 6
111 7
111 8
111 9
110 10
110 11
109 12
108 13
108 14
107 15
106 16
105 17
104 16
103 16
102 15
101 14
102 13
102 12
102 11
102 10
101 10
100 9
101 8
101 7
101 6
101 5
101 4
101 3
101 2
100 2
99 3
99 4
99 5
98 6
97 7
97 8
97 9
97 10
96 11
96 12
95 13
95 14
94 15
94 16
93 17
92 17
91 17
90 16
89 15
90 14
89 14
88 13
89 12
88 12
87 11
88 10
87 10
86 9
87 8
86 8
85 7
86 6
86 5
85 5
84 4
85 3
85 2
84 2
83 2
