66 2
65 3
64 4
63 5
63 6
63 7
62 8
61 9
60 10
60 11
59 12
58 13
57 14
57 15
56 16
56 17
55 18
54 19
53 20
52 20
51 20
50 20
49 20
48 20
47 20
46 20
45 20
44 20
43 20
42 20
41 20
40 20
39 20
38 20
37 21
36 21
35 21
34 21
33 21
32 22
31 22
30 22
29 22
28 22
27 22
26 23
25 23
24 23
23 22
24 21
24 20
25 19
25 18
24 17
25 16
24 16
23 16
22 16
21 17
21 18
21 19
21 20
21 21
20 22
20 23
20 24
19 25
18 26
17 27
16 27
15 28
14 28
13 28
12 28
11 28
11 29
10 30
9 30
8 30
8 31
8 32
8 33
8 34
8 35
7 36
6 37
5 38
5 39
4 40
4 41
3 42
2 43
2 44
2 45
2 46
3 47
3 48
3 49
3 50
3 51
4 52
4 53
5 54
6 55
7 55
8 56
9 57
10 57
11 58
12 59
13 60
14 60
15 60
16 61
17 61
18 61
19 62
20 62
21 62
22 63
23 63
24 64
25 64
26 64
27 65
28 65
29 65
30 66
31 66
32 66
33 66
34 67
35 68
36 67
37 68
38 68
39 68
40 68
41 68
42 69
43 69
44 69
45 69
46 70
47 70
48 70
49 70
50 70
51 70
52 71
53 71
54 71
55 71
56 71
57 72
58 72
59 72
60 72
61 72
62 72
63 72
64 72
65 73
66 73
67 73
68 73
69 73
70 73
71 74
72 74
73 74
74 74
75 74
76 74
77 74
78 74
79 74
80 74
81 74
82 74
83 73
84 73
85 72
86 72
87 72
88 72
89 71
90 71
91 70
92 70
93 70
94 70
95 69
96 69
97 69
98 68
99 68
100 68
101 67
102 67
103 67
104 67
105 68
106 69
107 69
108 70
109 71
110 71
111 72
112 72
113 73
114 74
115 74
116 74
117 75
118 75
119 75
120 75
121 75
122 75
123 75
124 75
125 75
126 75
127 75
128 75
129 75
130 75
131 75
132 75
133 75
134 75
135 75
136 75
137 75
138 75
139 75
140 75
141 75
142 75
143 75
144 75
145 75
146 75
147 75
148 76
149 76
150 76
151 76
152 76
153 76
154 76
155 76
156 76
157 76
158 76
159 76
160 76
161 76
162 76
163 77
164 77
165 77
166 77
167 77
168 77
169 77
170 77
171 77
172 76
173 76
174 76
175 77
176 77
177 77
178 77
179 77
180 77
181 77
182 77
183 77
184 77
185 77
186 77
187 77
188 77
189 77
190 77
191 77
192 77
193 77
194 77
195 77
196 77
197 77
198 77
199 77
200 77
201 77
202 77
203 77
204 77
205 78
206 78
207 78
208 78
209 78
210 78
211 78
212 78
213 78
214 78
215 78
216 78
217 78
218 78
219 77
220 77
221 77
222 77
223 77
224 77
225 77
226 77
227 77
228 77
229 77
230 77
231 76
232 76
233 76
234 76
235 75
236 75
237 75
238 75
239 75
240 75
241 74
242 74
243 74
244 74
245 74
246 73
247 73
248 72
249 72
250 72
251 72
252 71
253 71
254 71
255 71
256 71
257 70
258 70
259 70
260 70
261 69
262 69
263 68
264 68
265 67
266 67
267 66
267 65
268 64
268 63
268 62
269 61
270 61
271 61
272 62
273 62
274 62
275 62
276 63
277 63
278 63
279 63
280 63
281 63
282 63
283 63
284 62
285 62
286 62
287 62
288 62
289 61
290 61
291 60
292 60
293 59
294 58
294 57
295 56
296 55
296 54
297 53
297 52
297 51
297 50
297 49
296 49
295 48
296 47
295 47
294 46
293 45
294 44
293 44
292 44
291 43
290 42
289 41
288 41
287 40
286 40
285 39
284 39
283 39
282 39
281 39
280 39
279 39
278 39
277 39
276 39
275 39
274 39
273 39
272 39
271 39
270 39
269 39
268 39
267 38
268 37
268 36
269 35
269 34
269 33
268 33
267 32
268 31
268 30
267 30
266 29
265 29
264 28
263 28
262 27
261 27
260 26
259 26
258 26
257 25
256 25
255 25
254 24
253 24
252 23
251 23
250 23
249 22
248 22
247 22
246 22
245 22
244 21
243 21
242 21
241 20
240 20
239 20
238 20
237 19
236 19
235 19
234 19
233 18
232 18
231 18
230 18
229 17
228 17
227 17
226 17
225 17
224 16
223 16
222 15
221 15
220 15
219 15
218 14
217 14
216 14
215 14
214 14
213 14
212 14
211 13
210 13
209 13
208 13
207 12
206 12
205 12
204 12
203 12
202 12
201 12
200 12
199 11
198 11
197 11
196 11
195 11
194 11
193 11
192 10
191 10
190 10
189 10
188 10
187 10
186 10
185 10
184 10
183 10
182 10
181 9
180 9
179 9
178 9
177 9
176 9
175 9
174 9
173 9
172 9
171 9
170 9
169 9
168 9
167 9
166 9
165 9
164 9
163 9
162 9
161 9
160 9
159 9
158 9
157 9
156 9
155 9
154 9
153 9
152 9
151 9
150 9
149 9
148 9
147 9
146 9
145 9
144 9
143 9
142 9
141 9
140 9
139 9
138 9
137 9
136 9
135 9
134 8
133 8
132 8
131 8
130 8
129 8
128 8
127 8
126 8
125 8
124 8
123 8
122 8
121 8
120 8
119 8
118 8
117 8
116 8
115 8
114 8
113 8
112 8
111 8
110 8
109 8
108 8
107 8
106 8
105 8
104 8
103 8
102 8
101 8
100 8
99 8
98 8
97 8
96 8
95 8
94 8
93 8
92 8
91 8
90 8
89 9
88 9
87 9
86 9
85 9
84 9
83 9
82 9
81 9
80 9
79 9
78 9
77 9
76 9
75 8
76 7
76 6
76 5
75 5
74 5
73 5
72 6
71 5
70 5
69 5
68 5
67 4
68 3
68 2
67 2
