97 2
96 3
95 3
94 3
93 3
92 3
91 3
90 3
89 4
88 4
87 4
86 5
85 5
84 5
83 6
82 6
81 6
80 6
79 6
78 6
77 7
76 7
75 7
74 7
73 8
72 8
71 8
70 8
69 8
68 9
67 9
66 10
65 10
64 11
63 11
62 11
61 12
60 12
59 12
58 13
57 13
56 13
55 13
54 14
53 14
52 15
51 15
50 16
49 16
48 16
47 17
46 17
45 17
44 18
43 18
42 18
41 19
40 19
39 20
38 20
37 21
36 21
35 21
34 22
33 22
32 23
31 24
30 25
29 25
28 26
27 26
26 27
25 28
24 29
23 30
22 30
21 31
20 32
19 33
18 34
17 35
16 36
15 37
14 38
14 39
13 40
12 41
11 42
10 43
10 44
10 45
9 46
9 47
9 48
9 49
9 50
9 51
9 52
9 53
10 54
9 55
8 56
7 57
7 58
7 59
6 60
5 61
5 62
5 63
4 64
4 65
3 66
3 67
3 68
3 69
3 70
3 71
2 72
2 73
2 74
2 75
2 76
2 77
2 78
2 79
3 80
3 81
3 82
4 83
5 84
6 85
7 85
8 86
9 87
10 88
11 89
12 90
13 90
14 91
15 91
16 92
17 92
18 93
19 93
20 94
21 95
22 95
23 96
23 97
23 98
24 99
24 100
25 101
26 102
26 103
27 104
28 105
29 105
30 106
31 107
32 107
33 107
34 107
35 106
35 105
36 104
36 103
37 102
38 101
39 101
40 101
41 101
42 102
43 103
43 104
43 105
44 105
45 106
46 107
47 108
48 109
49 109
50 110
51 110
52 111
53 111
54 112
55 113
55 114
56 114
57 115
58 115
59 115
60 116
61 116
62 117
63 118
64 119
65 119
66 119
67 120
68 120
69 121
70 121
71 121
72 122
73 123
74 123
75 124
76 124
77 124
78 124
79 125
80 125
81 125
82 125
83 125
84 126
85 126
86 126
87 126
88 126
89 127
90 127
91 128
92 128
93 128
94 128
95 129
96 129
97 129
98 129
99 129
100 129
101 129
102 129
103 129
104 129
105 129
106 129
107 129
108 129
109 129
110 129
111 129
112 129
113 129
114 129
115 129
116 129
117 129
118 129
119 129
120 129
121 129
122 129
123 129
124 129
125 129
126 129
127 129
128 129
129 129
130 129
131 129
132 129
133 129
134 129
135 129
136 128
137 128
138 128
139 127
140 127
141 127
142 127
143 126
144 126
145 126
146 126
147 125
148 125
149 125
150 124
151 124
152 124
153 123
154 123
155 122
156 121
157 121
158 121
159 120
160 120
161 119
162 119
163 119
164 118
165 117
166 116
167 116
168 115
169 115
170 114
171 114
172 113
173 112
174 111
175 111
176 110
177 109
178 109
178 108
179 107
180 106
181 105
182 105
183 104
183 103
184 102
185 101
186 100
187 99
188 98
189 97
190 96
191 95
192 94
192 93
193 92
194 91
194 90
195 89
195 88
196 87
196 86
197 85
198 84
198 83
199 82
200 81
201 81
202 82
203 82
204 82
205 82
206 82
207 82
208 83
209 84
210 85
211 85
212 85
213 86
214 86
215 87
216 87
217 88
218 89
218 90
219 90
220 91
221 91
222 92
223 92
224 93
225 94
226 95
227 95
228 96
229 96
230 97
231 96
232 95
233 94
233 93
234 92
235 91
236 90
237 89
237 88
238 87
238 86
239 85
239 84
240 83
240 82
241 81
241 80
242 79
242 78
242 77
242 76
242 75
243 74
243 73
243 72
243 71
243 70
243 69
243 68
243 67
243 66
242 66
241 65
242 64
242 63
242 62
242 61
241 61
240 60
241 59
241 58
241 57
241 56
240 56
239 55
240 54
239 54
238 53
239 52
239 51
238 51
237 50
238 49
237 49
236 48
237 47
236 47
235 47
234 47
233 47
232 47
231 48
230 48
229 48
228 49
227 49
226 49
225 50
224 50
223 50
222 50
221 51
220 51
219 51
218 51
217 52
216 52
215 52
214 52
213 53
212 53
211 54
210 55
209 55
208 55
207 55
206 55
205 56
204 56
203 56
202 56
201 56
200 55
201 54
201 53
200 53
199 52
200 51
199 51
198 50
197 49
196 48
197 47
196 47
195 46
194 45
193 44
192 43
193 42
192 42
191 41
190 41
189 40
188 39
187 38
188 37
187 37
186 37
185 36
184 35
183 34
182 33
181 32
180 32
179 31
178 30
177 30
176 29
175 28
174 27
173 27
172 26
171 25
170 25
169 24
168 23
167 22
166 22
165 21
164 20
163 20
162 19
161 19
160 18
159 18
158 17
157 17
156 16
155 16
154 15
153 14
152 13
151 13
150 12
149 12
148 12
147 11
146 11
145 11
144 10
143 10
142 9
141 8
140 8
139 8
138 7
137 7
136 7
135 7
134 6
133 6
132 6
131 6
130 5
129 5
128 4
127 4
126 4
125 3
124 3
123 3
122 3
121 3
120 3
119 3
118 3
117 2
116 2
115 2
114 2
113 2
112 2
111 2
110 2
109 2
108 2
107 2
106 2
105 2
104 2
103 2
102 2
101 2
100 2
99 2
98 2
