125 2
124 3
124 4
124 5
123 6
122 6
121 6
120 7
119 8
119 9
119 10
118 11
117 11
117 12
116 13
116 14
115 15
114 15
114 16
113 17
113 18
112 19
112 20
112 21
111 22
110 23
109 24
109 25
109 26
108 27
107 28
106 29
105 30
104 30
103 30
102 30
101 30
100 30
99 30
98 30
97 31
96 31
95 31
94 31
93 31
92 31
91 31
90 31
89 31
88 32
87 32
86 32
85 32
84 32
83 32
82 32
81 32
80 32
79 32
78 32
77 33
76 33
75 33
74 33
73 33
72 33
71 33
70 33
69 34
68 34
67 34
66 34
65 34
64 35
63 35
62 35
61 35
60 35
59 35
58 36
57 36
56 37
55 36
54 36
53 36
53 37
52 38
51 38
50 39
49 39
48 39
47 40
46 40
45 40
44 41
43 41
42 42
41 42
40 42
39 43
38 43
37 44
36 44
35 44
34 45
33 45
32 45
31 46
30 46
29 47
28 47
27 47
26 47
25 48
24 48
23 49
22 49
21 49
20 50
19 51
18 51
17 51
16 52
15 53
14 53
13 53
12 54
11 54
11 55
10 56
10 57
9 58
8 59
7 60
6 61
5 62
4 63
3 63
2 63
2 64
2 65
2 66
2 67
2 68
2 69
2 70
3 71
4 72
4 73
4 74
5 74
6 74
7 74
8 74
9 75
10 76
11 77
12 77
13 77
14 77
15 77
16 77
17 78
18 78
19 79
20 79
21 79
22 79
23 80
24 80
25 80
26 80
27 80
28 80
29 80
30 80
31 80
32 81
33 81
34 81
35 81
36 81
37 81
38 82
39 82
40 82
41 82
42 82
43 82
44 82
45 82
46 82
47 82
48 83
49 83
50 83
51 82
52 83
53 83
54 83
55 82
56 82
57 82
58 83
59 83
60 83
61 83
62 83
63 83
64 83
65 83
66 83
67 84
68 84
69 84
70 84
71 83
72 84
73 84
74 84
75 83
76 83
77 83
78 83
79 83
80 83
81 83
82 83
83 83
84 83
85 83
86 83
87 84
87 85
88 86
88 87
88 88
88 89
89 90
89 91
89 92
89 93
90 94
90 95
91 96
92 96
93 97
94 98
95 98
96 99
97 99
98 99
99 99
100 99
101 99
102 99
103 100
104 100
105 101
106 101
107 101
108 101
109 101
110 100
110 99
111 98
112 98
113 99
114 99
115 99
116 99
117 99
118 99
119 99
120 98
120 97
121 96
122 95
123 95
124 95
125 95
126 95
127 95
128 95
129 95
130 95
131 95
132 94
132 93
133 92
134 91
135 91
136 90
137 89
138 89
139 89
140 88
141 88
142 88
143 87
143 86
144 85
145 84
146 83
147 83
148 83
149 82
150 82
151 82
152 82
153 82
154 81
155 81
156 81
157 81
158 81
159 81
160 81
161 81
162 81
163 81
164 81
165 81
166 81
167 81
168 81
169 81
170 81
171 81
172 81
173 81
174 81
175 81
176 80
177 80
178 80
179 80
180 80
181 80
182 80
183 80
184 80
185 80
186 80
187 80
188 80
189 80
190 79
191 79
192 79
193 79
194 79
195 79
196 79
197 79
198 79
199 79
200 79
201 79
202 79
203 79
204 80
204 81
205 82
206 82
207 82
208 81
208 80
209 79
210 79
211 80
211 81
212 81
213 82
214 83
215 84
216 84
217 85
217 86
218 86
219 87
220 88
221 89
222 89
223 90
224 90
225 90
226 90
227 90
228 90
229 90
230 90
231 90
232 90
233 89
233 88
234 87
235 86
236 86
237 85
237 84
238 83
239 82
239 81
240 80
241 79
242 79
243 78
244 77
244 76
245 75
246 74
246 73
247 72
248 71
249 70
250 70
251 70
252 70
253 70
254 70
255 70
256 70
257 70
258 70
259 71
260 71
261 72
262 72
263 72
264 73
265 74
266 74
267 75
268 75
269 76
270 76
271 77
272 78
273 79
274 79
275 80
276 80
277 80
278 81
279 81
280 81
281 82
282 83
283 83
284 83
285 84
286 84
287 84
288 84
289 84
290 85
291 85
292 85
293 85
294 85
295 86
296 86
297 86
298 86
299 86
300 86
301 86
302 86
303 85
303 84
304 83
304 82
303 82
302 81
301 81
300 81
299 80
300 79
300 78
299 78
298 77
297 76
296 75
297 74
297 73
296 73
295 72
294 71
293 70
294 69
294 68
294 67
294 66
294 65
293 65
292 64
291 64
290 63
289 62
288 61
289 60
289 59
290 58
290 57
291 56
291 55
291 54
291 53
292 52
293 51
293 50
294 49
295 48
296 47
296 46
297 45
298 44
298 43
299 42
300 41
301 40
302 40
303 39
303 38
304 37
304 36
303 36
302 35
301 35
300 35
299 34
298 34
297 34
296 35
295 35
294 35
293 36
292 36
291 36
290 36
289 37
288 37
287 38
286 38
285 38
284 39
283 39
282 40
281 40
280 41
279 41
278 41
277 42
276 42
275 43
274 44
273 44
272 45
271 46
270 46
269 46
268 47
267 47
266 48
265 48
264 49
263 49
262 50
261 50
260 50
259 51
258 51
257 52
256 52
255 52
254 52
253 52
252 52
251 52
250 52
249 52
248 52
247 52
246 52
245 52
244 52
243 51
242 51
241 51
240 50
239 50
238 49
237 48
236 48
235 48
234 48
233 49
232 49
231 48
230 47
229 46
228 46
227 46
226 46
225 46
224 46
223 47
222 47
221 47
220 47
219 47
218 47
217 47
216 46
215 46
214 46
213 46
212 46
211 46
210 46
209 45
208 45
207 45
206 45
205 45
204 45
203 45
202 44
201 44
200 44
199 44
198 44
197 44
196 43
195 43
194 43
193 43
192 43
191 43
190 42
189 42
188 42
187 42
186 42
185 42
184 41
183 41
182 41
181 41
180 41
179 40
178 40
177 40
176 40
175 40
174 40
173 40
172 40
171 40
170 39
169 38
170 37
170 36
170 35
169 34
170 33
170 32
170 31
171 30
170 30
169 29
168 29
167 29
166 29
165 29
164 30
163 30
162 29
163 28
163 27
163 26
162 26
161 25
160 24
161 23
160 23
159 22
158 22
157 22
156 21
157 20
156 20
155 19
154 18
153 18
152 17
153 16
152 16
151 15
150 15
149 15
148 15
147 14
148 13
147 13
146 12
145 12
144 12
143 11
144 10
144 9
143 9
142 8
141 8
140 8
139 9
138 9
137 10
136 11
135 12
134 12
133 11
134 10
135 9
136 8
137 7
137 6
138 5
137 5
136 4
135 3
134 3
133 3
132 3
131 3
130 3
129 2
128 2
127 2
126 2
