175 2
175 3
174 4
173 3
172 3
171 3
171 4
170 5
170 6
170 7
170 8
171 9
171 10
171 11
171 12
170 13
169 13
168 13
167 13
166 13
165 13
164 13
164 14
164 15
164 16
164 17
164 18
164 19
164 20
163 21
162 21
161 21
161 22
161 23
161 24
160 25
159 25
158 25
158 26
158 27
158 28
157 29
157 30
156 31
156 32
155 33
154 33
153 33
152 33
151 33
151 34
151 35
151 36
150 37
149 37
148 38
147 38
146 38
145 38
144 38
143 38
142 38
141 38
140 38
139 38
138 39
137 39
136 38
135 38
134 38
133 39
132 39
131 39
130 39
129 39
128 39
127 40
126 40
125 40
124 40
123 40
122 40
121 40
120 40
119 40
118 40
117 40
116 41
115 41
114 41
113 41
112 41
111 41
110 41
109 41
108 41
107 41
106 41
105 42
104 42
103 42
102 42
101 42
100 42
99 42
98 42
97 42
96 42
95 42
94 42
93 42
92 42
91 42
90 41
89 41
88 41
87 42
86 43
85 44
84 44
83 44
82 44
81 44
80 44
79 44
78 45
77 45
76 45
75 45
74 45
73 45
72 45
71 46
70 46
69 46
68 46
67 46
66 47
65 47
64 47
63 47
62 47
61 47
60 47
59 47
58 47
57 47
56 47
55 47
54 46
53 46
52 46
51 46
50 46
49 46
48 46
47 46
46 45
45 45
44 45
43 44
42 43
41 43
40 43
39 43
38 42
37 42
36 42
35 41
34 41
33 41
32 41
31 40
30 40
29 40
28 39
27 39
26 39
25 38
24 38
23 38
22 38
21 38
20 38
20 39
19 40
18 40
18 41
17 42
16 43
15 43
14 43
13 43
12 44
11 44
10 44
10 45
9 46
8 46
7 46
7 47
7 48
7 49
8 50
9 50
10 50
11 51
12 51
13 52
14 52
15 52
16 53
16 54
17 55
18 55
19 55
20 56
20 57
20 58
19 59
19 60
18 61
17 61
16 61
15 62
14 62
14 63
13 64
12 64
12 65
11 66
10 66
9 67
8 68
7 68
6 69
5 69
5 70
4 71
3 71
2 72
2 73
2 74
2 75
2 76
3 76
4 76
5 76
6 76
7 76
8 76
9 76
10 76
11 76
12 76
13 76
14 76
15 75
16 75
17 75
18 75
19 75
20 75
21 74
22 74
23 73
24 73
25 73
26 72
27 72
28 72
29 71
30 71
31 71
32 70
33 71
34 71
35 71
36 70
37 69
38 68
39 68
40 68
41 67
42 67
43 67
44 67
45 66
46 66
47 66
48 65
49 65
50 65
51 64
52 64
53 64
54 64
55 64
56 63
57 63
58 63
59 63
60 63
61 63
62 63
63 63
64 63
65 63
66 63
67 63
68 63
69 63
70 63
71 63
72 63
73 63
74 64
75 64
76 64
77 64
78 64
79 64
80 64
81 64
82 65
81 66
80 66
79 67
78 67
77 68
77 69
77 70
78 70
79 70
80 70
81 71
82 72
83 72
84 72
85 73
85 74
85 75
86 75
87 76
87 77
88 77
89 78
90 78
91 78
92 79
91 80
90 80
89 81
89 82
89 83
89 84
90 85
91 85
92 85
93 85
94 84
95 84
96 84
97 83
97 82
98 81
99 80
100 79
101 78
102 77
102 76
103 75
103 74
104 73
104 72
105 71
105 70
106 69
107 68
108 68
109 68
110 68
111 69
112 69
113 69
114 69
115 69
116 70
117 70
118 70
119 70
120 70
121 70
122 70
123 70
124 70
125 70
126 70
127 70
128 71
129 71
130 71
131 71
132 71
133 71
134 71
135 71
136 71
137 71
138 71
139 71
140 72
141 72
142 72
143 72
144 72
145 72
146 72
147 72
148 72
149 72
150 72
151 72
152 72
153 72
154 73
155 73
156 73
157 73
158 73
159 73
160 73
161 73
162 73
163 73
164 73
165 73
166 73
167 72
168 73
169 73
170 74
171 74
172 73
173 73
174 74
173 75
172 76
171 77
171 78
171 79
171 80
170 81
169 81
168 82
167 82
166 82
165 82
164 82
163 82
162 83
161 83
160 83
159 84
159 85
159 86
160 86
161 86
162 86
163 86
164 87
164 88
163 89
163 90
163 91
163 92
164 93
165 93
166 93
167 92
168 92
169 92
170 93
171 93
172 94
172 95
172 96
173 97
173 98
174 98
175 98
176 99
177 99
178 99
179 100
180 101
181 102
182 102
183 102
184 101
185 101
186 101
187 100
188 100
189 99
190 98
191 97
192 96
193 95
194 94
195 93
195 92
196 91
196 90
197 89
198 88
199 88
200 87
201 86
202 85
203 84
203 83
204 82
204 81
204 80
205 79
205 78
206 77
206 76
207 75
208 74
209 74
210 74
211 74
212 74
213 74
214 74
215 74
216 74
217 73
218 73
219 73
220 73
221 73
222 73
223 73
224 73
225 72
226 72
227 72
228 72
229 71
230 71
231 71
232 71
233 71
234 71
235 71
236 70
237 70
238 70
239 70
240 70
241 69
242 69
243 69
244 69
245 69
246 69
247 69
248 69
249 69
250 69
251 68
252 68
253 68
254 68
255 68
256 68
257 68
258 67
259 67
260 67
261 67
262 67
263 67
264 67
265 67
266 67
267 67
268 67
269 66
270 66
271 66
272 66
273 66
274 66
275 66
276 65
277 65
278 65
279 65
280 64
281 64
282 64
283 63
284 63
285 62
286 62
287 61
288 60
288 59
289 58
289 57
290 56
291 56
292 55
292 54
293 53
293 52
292 52
291 51
290 51
289 51
288 50
287 49
286 48
285 48
284 48
283 47
282 47
281 46
280 46
279 46
278 45
277 45
276 45
275 45
274 44
273 43
272 43
271 43
270 43
269 43
268 42
267 42
266 41
265 41
264 41
263 41
262 40
261 40
260 40
259 39
258 39
257 39
256 39
255 39
254 39
253 39
252 38
251 38
250 38
249 38
248 38
247 38
246 38
245 38
244 38
243 38
242 38
241 38
240 38
239 37
238 37
237 37
236 37
235 37
234 37
233 37
232 37
231 37
230 37
229 37
228 37
227 37
226 37
225 37
224 37
223 37
222 37
221 37
220 37
219 37
218 37
217 37
216 36
215 36
214 36
213 36
212 36
211 36
210 36
209 36
208 36
207 36
206 36
205 36
204 36
203 36
202 36
201 36
200 36
199 36
198 36
197 35
196 35
195 35
194 36
193 36
192 36
191 35
190 34
191 33
191 32
191 31
191 30
190 30
189 29
190 28
190 27
190 26
190 25
190 24
190 23
190 22
190 21
189 21
188 20
187 19
186 19
185 18
184 17
185 16
185 15
185 14
184 14
183 13
184 12
184 11
183 11
182 10
183 9
183 8
182 8
181 7
182 6
181 6
180 5
179 5
178 4
179 3
178 3
177 2
176 2
