81 2
80 3
79 3
78 3
77 3
76 3
75 3
74 3
73 3
72 3
71 4
70 4
69 4
68 4
67 4
66 4
65 5
64 5
63 6
62 6
61 6
60 6
59 6
58 6
57 7
56 7
55 7
54 7
53 7
52 8
51 8
50 8
49 9
48 9
47 9
46 9
45 10
44 10
43 11
42 11
41 12
40 13
39 13
38 13
37 14
36 15
35 15
34 16
33 16
32 17
31 18
30 18
29 18
28 19
27 20
26 20
25 21
24 22
23 22
22 23
21 24
20 25
19 26
19 27
18 28
18 29
17 30
17 31
16 32
15 32
15 33
14 34
13 35
12 36
12 37
11 38
11 39
10 40
9 41
9 42
9 43
8 44
7 45
7 46
6 47
6 48
6 49
5 50
5 51
5 52
5 53
4 54
4 55
4 56
3 57
3 58
3 59
3 60
3 61
3 62
3 63
3 64
2 65
2 66
2 67
2 68
2 69
2 70
2 71
2 72
2 73
2 74
2 75
2 76
2 77
2 78
2 79
3 80
3 81
3 82
3 83
3 84
3 85
3 86
3 87
4 88
4 89
4 90
5 91
5 92
6 93
6 94
6 95
6 96
6 97
7 98
7 99
8 100
8 101
9 102
9 103
10 104
11 105
12 106
13 107
14 108
15 109
16 109
17 110
18 111
18 112
19 113
20 114
21 115
22 116
23 117
24 117
25 118
26 119
27 119
28 119
29 120
29 121
30 121
31 121
32 122
33 122
34 123
35 124
36 124
37 125
38 126
39 127
40 127
41 128
42 128
43 129
44 129
45 129
46 129
47 129
48 129
49 129
50 129
51 129
52 129
53 129
54 130
55 130
56 130
57 130
58 131
59 132
60 132
61 133
62 133
63 133
64 134
65 134
66 134
67 134
68 134
69 134
70 134
71 134
72 134
73 134
74 134
75 134
76 134
77 134
78 134
79 134
80 134
81 134
82 134
83 134
84 133
85 133
86 133
87 133
88 133
89 133
90 132
91 132
92 132
93 132
94 132
95 131
96 131
97 131
98 131
99 130
100 130
101 130
102 130
103 130
104 130
105 130
106 130
107 130
108 130
109 130
110 130
111 130
112 130
113 130
114 129
115 129
116 129
117 128
118 128
119 128
120 128
121 127
122 127
123 127
124 127
125 127
126 126
127 126
128 126
129 126
130 126
131 125
132 125
133 125
134 125
135 125
136 124
137 124
138 124
139 124
140 123
141 123
142 123
143 123
144 122
145 122
146 121
147 121
148 121
149 120
150 120
151 120
152 119
153 119
154 119
155 118
156 118
157 118
158 117
159 116
159 115
160 114
160 113
160 112
161 111
161 110
160 110
159 109
160 108
159 108
158 107
157 107
156 107
155 107
154 106
153 106
152 106
151 106
150 106
149 106
148 106
147 106
146 106
145 106
144 106
143 106
142 106
141 106
140 106
139 106
138 106
137 107
136 107
135 107
134 107
133 107
132 107
131 108
130 108
129 108
128 108
127 108
126 109
125 109
124 109
123 109
122 109
121 109
120 110
119 110
118 110
117 110
116 110
115 110
114 110
113 110
112 110
111 111
110 111
109 111
108 111
107 111
106 112
105 112
104 112
103 112
102 112
101 112
100 112
99 112
98 112
97 112
96 112
95 112
94 112
93 112
92 112
91 112
90 112
89 112
88 112
87 112
86 112
85 112
84 112
83 112
82 112
81 112
80 112
79 112
78 112
77 112
76 112
75 112
74 112
73 112
72 111
71 111
70 111
69 111
68 111
67 111
66 110
65 110
64 110
63 110
62 109
61 109
60 109
59 109
58 108
57 108
56 108
55 108
54 107
53 107
52 106
51 106
50 105
49 105
48 105
47 104
46 104
45 103
44 103
43 102
42 101
41 101
40 100
39 99
38 99
37 98
36 97
35 96
34 96
33 95
32 94
31 93
30 92
31 91
30 91
29 90
28 89
29 88
28 88
27 87
28 86
28 85
27 85
26 84
25 83
26 82
26 81
25 81
24 80
25 79
25 78
25 77
25 76
25 75
25 74
25 73
25 72
25 71
26 70
26 69
27 68
27 67
27 66
28 65
28 64
28 63
29 62
30 61
30 60
31 59
32 58
33 57
33 56
34 55
34 54
35 53
36 52
37 51
38 51
39 50
40 50
41 49
42 49
43 49
44 49
45 48
46 48
47 48
48 47
49 47
50 47
51 47
52 47
53 47
54 46
55 46
56 46
57 46
58 46
59 46
60 46
61 46
62 46
63 46
64 46
65 46
66 46
67 46
68 45
69 45
70 45
71 45
72 45
73 45
74 45
75 45
76 45
77 45
78 45
79 45
80 45
81 45
82 45
83 45
84 44
85 44
86 44
87 44
88 44
89 44
90 44
91 44
92 45
93 45
94 45
95 45
96 45
97 45
98 45
99 45
100 45
101 46
102 46
103 46
104 46
105 46
106 46
107 46
108 46
109 46
110 46
111 46
112 46
113 46
114 46
115 46
116 46
117 46
118 46
119 46
120 46
121 46
122 46
123 46
124 46
125 47
126 47
127 47
128 47
129 47
130 47
131 47
132 47
133 48
134 48
135 48
136 48
137 48
138 49
139 49
140 49
141 50
142 50
143 50
144 50
145 50
146 50
147 51
148 51
149 51
150 51
151 51
152 51
153 51
154 51
155 51
156 51
157 51
158 51
159 51
160 51
161 51
162 51
163 51
164 51
165 51
166 51
167 51
168 51
169 51
170 51
171 51
172 51
173 51
174 51
175 51
176 51
177 51
178 50
179 50
180 50
181 50
182 50
183 50
184 49
185 49
186 49
187 49
188 48
189 48
190 48
191 48
192 48
193 47
194 48
195 48
196 48
197 48
198 48
199 48
200 48
201 48
202 49
203 49
204 50
205 50
206 50
207 50
208 50
209 50
210 50
211 50
212 50
213 50
214 50
215 50
216 50
217 50
218 50
219 50
220 50
221 49
222 49
223 49
224 49
225 49
226 49
227 48
228 48
229 48
230 48
231 47
232 47
233 47
234 47
235 47
236 46
237 46
238 46
239 45
240 45
241 45
242 44
243 44
244 43
245 43
246 42
247 41
248 41
249 41
250 40
251 39
252 38
253 38
254 37
255 37
256 36
257 36
258 36
259 36
260 36
261 35
262 35
263 35
264 34
265 34
266 33
267 32
268 32
269 32
270 31
271 30
271 29
272 28
272 27
271 27
270 26
269 25
268 25
267 25
266 25
265 25
264 24
265 23
266 23
267 22
268 22
269 22
270 22
271 21
271 20
272 19
272 18
272 17
271 17
270 16
269 15
268 14
267 14
266 13
265 13
264 13
263 12
262 12
261 12
260 11
259 11
258 10
257 10
256 9
255 9
254 8
253 8
252 7
251 7
250 7
249 6
248 6
247 6
246 6
245 5
244 5
243 5
242 5
241 5
240 4
239 4
238 4
237 4
236 4
235 4
234 4
233 4
232 4
231 4
230 4
229 4
228 4
227 4
226 4
225 4
224 4
223 4
222 4
221 5
220 5
219 5
218 5
217 5
216 5
215 5
214 5
213 5
212 5
211 5
210 5
209 5
208 5
207 5
206 5
205 5
204 5
203 6
202 6
201 6
200 6
199 6
198 6
197 7
196 7
195 7
194 7
193 7
192 7
191 7
190 7
189 7
188 7
187 7
186 7
185 7
184 7
183 7
182 7
181 7
180 7
179 7
178 7
177 7
176 6
175 6
174 6
173 6
172 6
171 5
170 5
169 5
168 4
167 4
166 4
165 4
164 4
163 5
162 5
161 5
160 6
159 6
158 6
157 6
156 7
155 7
154 7
153 7
152 7
151 7
150 7
149 6
148 6
147 6
146 6
145 6
144 6
143 6
142 5
141 5
140 5
139 5
138 5
137 5
136 4
135 4
134 4
133 4
132 4
131 4
130 4
129 4
128 4
127 4
126 4
125 4
124 4
123 3
122 3
121 3
120 3
119 3
118 3
117 3
116 3
115 3
114 3
113 3
112 2
111 2
110 2
109 2
108 2
107 2
106 2
105 2
104 2
103 2
102 2
101 2
100 2
99 2
98 2
97 2
96 2
95 2
94 2
93 2
92 2
91 2
90 2
89 2
88 2
87 2
86 2
85 2
84 2
83 2
82 2
