102 2
101 3
100 4
100 5
99 6
98 7
97 8
97 9
97 10
96 11
96 12
95 13
94 13
94 14
93 15
93 16
92 17
92 18
91 19
90 20
90 21
90 22
89 23
89 24
89 25
88 26
88 27
87 28
86 29
86 30
86 31
85 32
84 33
83 34
82 34
81 34
80 34
79 34
78 35
77 35
76 35
75 35
74 35
73 35
72 36
71 36
70 36
69 36
68 36
67 36
66 37
65 37
64 37
63 37
62 37
61 37
60 37
59 37
58 37
57 37
56 37
55 38
54 38
53 38
52 38
51 38
50 38
49 38
48 38
47 38
46 39
45 39
44 39
43 39
42 39
41 39
40 39
39 40
38 40
37 40
36 40
35 41
34 41
33 41
32 41
31 41
30 41
29 41
28 41
27 42
26 42
25 42
24 42
23 42
22 42
21 42
20 42
19 42
18 42
17 42
16 42
15 42
14 43
13 43
12 43
11 43
10 43
9 44
8 44
7 44
6 45
5 45
4 45
4 46
3 47
2 47
2 48
2 49
2 50
2 51
2 52
2 53
2 54
3 55
4 55
5 56
5 57
6 58
7 58
8 58
9 59
10 59
11 60
12 61
13 62
14 62
15 62
16 62
17 62
18 63
19 64
20 64
21 65
22 65
23 66
24 66
25 66
26 67
27 68
27 69
28 69
29 69
30 69
31 69
32 68
33 68
34 69
35 70
36 70
37 71
38 72
39 72
40 72
41 73
42 73
43 74
44 75
45 75
46 75
47 74
48 75
49 75
50 76
51 76
52 76
53 77
54 77
55 77
56 77
57 78
58 78
59 78
60 78
61 78
62 78
63 79
64 79
65 79
66 80
67 81
68 81
69 81
70 81
71 81
72 82
73 82
74 82
75 82
76 83
77 83
78 83
79 83
80 84
81 84
82 85
82 86
82 87
83 87
84 88
85 88
86 88
87 88
88 88
89 89
90 89
91 89
92 89
93 89
94 89
95 90
96 90
97 90
98 90
99 90
100 90
101 89
102 88
102 87
103 86
104 86
105 85
106 85
107 84
107 83
108 82
109 81
110 82
111 82
112 82
113 82
114 81
115 81
116 81
117 80
118 80
119 80
120 79
121 80
122 80
123 80
124 80
125 79
126 78
127 78
128 78
129 78
130 78
131 77
132 77
133 78
134 78
135 78
136 77
137 76
138 76
139 75
140 74
141 74
142 74
143 73
144 73
145 73
146 72
147 72
148 71
149 71
150 70
151 70
152 69
153 69
154 69
155 69
156 70
156 71
156 72
157 72
158 72
159 73
159 74
160 74
161 75
162 76
163 77
164 77
165 77
166 78
166 79
167 79
168 79
169 78
169 77
170 76
170 75
170 74
171 73
171 72
172 71
172 70
173 69
174 69
175 69
176 68
176 67
177 66
177 65
178 64
179 64
180 64
181 64
182 64
183 64
184 64
185 63
186 63
187 63
188 63
189 63
190 63
191 63
192 63
193 63
194 63
195 63
196 63
197 64
198 64
199 64
200 65
201 65
202 66
203 67
204 67
205 68
205 69
206 69
207 69
208 70
209 71
210 72
211 73
212 73
213 74
214 75
215 76
216 76
217 77
218 78
219 78
220 78
221 79
222 79
223 79
224 79
225 79
226 80
227 80
228 80
229 80
230 79
230 78
231 77
230 77
229 76
230 75
229 75
228 74
229 73
229 72
228 72
227 71
226 70
225 69
224 69
223 69
222 68
221 67
220 66
220 65
221 64
222 65
223 65
224 65
225 65
226 65
227 64
227 63
228 62
228 61
227 61
226 60
225 59
224 59
223 58
222 58
221 57
221 56
222 55
222 54
223 53
224 52
225 52
226 51
226 50
227 49
227 48
228 47
229 46
229 45
230 44
231 43
232 42
233 42
234 42
235 41
235 40
236 39
236 38
237 37
238 37
239 36
239 35
240 34
239 34
238 33
237 32
236 31
235 31
234 31
233 32
232 32
231 33
230 33
229 34
228 34
227 35
226 35
225 36
224 36
223 36
222 37
221 37
220 38
219 38
218 38
217 38
217 39
216 40
215 40
214 41
213 41
212 41
211 42
210 43
209 44
208 44
207 45
206 46
205 46
204 47
203 47
202 47
201 47
200 47
199 47
198 47
197 47
196 46
195 46
194 46
193 46
192 46
191 46
190 46
189 45
188 45
187 45
186 45
185 45
184 45
183 44
182 44
181 44
180 43
179 43
178 43
177 42
178 41
178 40
178 39
177 39
176 38
175 37
174 36
173 36
172 36
171 37
170 37
169 38
168 39
167 40
166 40
165 39
164 39
163 39
162 39
161 39
160 39
159 39
158 38
157 38
156 38
155 38
154 38
153 38
152 37
151 37
150 37
149 37
148 37
147 37
146 36
145 36
144 36
143 36
142 36
141 36
140 36
139 36
138 35
137 35
136 35
135 35
134 35
133 34
132 34
131 34
130 34
129 34
128 34
127 34
126 34
125 34
124 34
123 33
124 32
123 32
122 31
121 31
120 30
119 29
118 29
117 28
116 27
115 26
116 25
115 25
114 24
115 23
114 23
113 22
112 22
111 22
110 21
111 20
111 19
111 18
111 17
110 17
109 16
108 15
109 14
108 14
107 13
106 13
105 12
105 11
105 10
106 9
106 8
106 7
106 6
105 6
104 5
105 4
105 3
104 3
103 2
