62 2
62 3
62 4
62 5
62 6
62 7
63 8
63 9
63 10
63 11
63 12
63 13
63 14
63 15
62 16
61 16
60 17
59 17
58 17
57 17
56 18
55 17
54 17
53 16
52 16
51 16
51 17
50 18
49 18
48 18
47 18
46 18
45 18
44 18
43 18
42 18
41 19
40 19
39 19
38 19
37 19
36 19
35 19
34 19
33 19
32 19
31 19
30 19
29 19
28 18
27 18
26 18
25 18
24 18
23 17
22 16
21 16
20 15
19 14
18 13
17 12
16 12
15 11
14 10
13 10
12 9
11 9
10 9
9 8
8 8
7 8
6 7
5 7
4 7
3 7
2 7
2 8
2 9
2 10
2 11
2 12
3 13
4 13
5 14
5 15
6 16
6 17
7 18
8 19
8 20
8 21
8 22
7 23
6 23
5 24
5 25
4 26
3 27
2 28
2 29
2 30
2 31
2 32
2 33
3 33
4 33
5 33
6 33
7 33
8 33
9 33
10 33
11 33
12 32
13 32
14 32
15 32
16 31
17 31
18 30
19 30
20 29
21 28
22 27
23 27
24 27
25 26
26 26
27 26
28 26
29 26
30 26
31 25
32 26
33 26
34 26
35 26
36 26
37 26
38 27
38 28
39 28
40 28
41 27
42 27
43 27
44 27
45 28
46 28
47 28
48 28
49 28
50 28
51 28
52 28
53 28
54 29
55 29
56 29
57 29
58 29
59 29
60 30
60 31
61 32
61 33
61 34
62 35
63 36
63 37
63 38
63 39
63 40
64 40
65 40
66 40
67 40
68 39
69 38
70 38
71 37
72 37
73 36
74 35
75 34
75 33
76 32
77 31
77 30
78 29
79 29
80 29
81 29
82 29
83 29
84 29
85 29
86 30
87 30
88 30
89 30
90 30
91 29
92 30
93 30
94 30
95 30
96 30
97 29
98 29
99 29
100 29
101 29
102 29
103 29
104 29
105 29
106 29
107 29
108 29
109 29
110 29
111 29
112 29
113 29
114 29
115 30
116 30
117 30
118 30
119 30
120 30
121 30
122 30
123 30
124 30
125 30
126 30
127 30
128 30
129 30
130 30
131 30
132 31
133 31
134 31
135 31
136 31
137 31
138 31
139 31
140 31
141 31
142 31
143 31
144 31
145 31
146 31
147 31
148 31
149 32
150 32
151 32
152 32
153 32
154 32
155 32
156 32
157 32
158 32
159 32
160 32
161 32
162 32
163 32
164 32
165 32
166 33
167 33
168 33
169 33
170 33
171 33
172 33
173 33
174 33
175 33
176 33
177 33
178 33
179 33
180 33
181 33
182 33
183 34
184 34
185 34
186 34
187 34
188 34
189 34
190 34
191 34
192 34
193 34
194 34
195 34
196 34
197 34
198 34
199 34
200 34
201 34
202 34
203 34
204 34
205 34
206 34
207 34
208 34
209 34
210 34
211 34
212 34
213 34
214 33
215 33
216 33
217 33
218 33
219 33
220 33
221 33
222 33
223 33
224 33
225 33
226 33
227 33
228 32
229 32
230 32
231 32
232 32
233 32
234 32
235 32
236 32
237 32
238 32
239 32
240 31
241 31
242 31
243 31
244 31
245 31
246 31
247 31
248 31
249 31
250 31
251 31
252 31
253 30
254 30
255 30
256 30
257 30
258 30
259 29
260 29
261 29
262 29
263 29
264 29
265 29
266 28
267 28
268 28
269 28
270 28
271 28
272 28
273 28
274 28
275 28
276 27
277 27
278 27
279 27
280 27
281 27
282 27
283 27
284 27
285 27
286 27
287 27
288 27
289 27
290 27
291 26
292 26
293 26
294 26
295 26
296 26
297 26
298 26
299 26
300 26
301 26
302 26
303 26
304 26
305 26
306 26
307 26
308 26
309 26
310 27
311 27
312 27
313 27
314 27
315 26
315 25
316 24
317 24
318 24
319 24
320 24
321 24
322 24
323 24
324 23
325 23
326 23
327 23
328 23
329 22
329 21
328 20
327 20
326 20
325 20
324 20
323 20
322 20
321 20
320 20
319 20
318 20
317 20
316 20
315 20
314 20
313 20
312 20
311 20
310 20
309 20
308 20
307 20
306 19
305 19
304 19
303 19
302 19
301 19
300 19
299 19
298 19
297 19
296 20
295 19
294 19
293 19
292 19
291 19
290 19
289 19
288 19
287 19
286 19
285 19
284 19
283 19
282 19
281 19
280 19
279 19
278 19
277 18
276 18
275 18
274 18
273 18
272 18
271 18
270 17
269 17
268 17
267 17
266 17
265 17
264 17
263 16
262 16
261 16
260 16
259 16
258 16
257 16
256 16
255 16
254 16
253 16
252 16
251 16
250 16
249 15
248 15
247 15
246 15
245 15
244 15
243 15
242 15
241 15
240 15
239 15
238 15
237 15
236 15
235 15
234 15
233 15
232 15
231 16
230 16
229 16
228 16
227 16
226 16
225 16
224 16
223 16
222 16
221 16
220 16
219 16
218 16
217 16
216 16
215 16
214 16
213 16
212 17
211 17
210 17
209 17
208 17
207 17
206 17
205 17
204 17
203 17
202 17
201 17
200 17
199 17
198 16
197 16
196 16
195 16
194 16
193 16
192 16
191 16
190 16
189 16
188 16
187 16
186 16
185 16
184 16
183 16
182 16
181 16
180 16
179 15
178 15
177 15
176 15
175 15
174 16
173 16
172 16
171 16
170 16
169 16
168 16
167 16
166 15
165 15
164 15
163 15
162 15
161 15
160 15
159 15
158 15
157 15
156 15
155 15
154 15
153 15
152 15
151 15
150 15
149 15
148 15
147 15
146 15
145 15
144 15
143 15
142 15
141 15
140 15
139 15
138 14
137 14
136 14
135 14
134 14
133 14
132 14
131 14
130 14
129 14
128 14
127 14
126 14
125 14
124 14
123 14
122 14
121 13
120 13
119 13
118 13
117 13
116 12
115 12
114 11
113 10
112 10
111 11
111 12
111 13
110 14
109 15
108 15
107 15
106 15
105 14
104 14
103 14
102 14
101 14
100 14
99 15
98 15
97 15
96 15
95 14
94 14
93 14
92 13
91 13
90 13
89 13
88 13
88 14
87 15
86 15
85 15
84 15
83 14
82 14
81 13
82 12
81 12
80 11
79 11
78 10
77 9
76 8
75 7
74 6
73 6
72 5
71 5
70 5
69 4
68 3
67 3
66 3
65 3
64 2
63 2
