59 2
58 3
57 3
56 3
55 3
54 3
53 3
52 4
51 4
50 4
49 4
48 4
47 5
46 5
45 5
44 5
43 5
42 6
41 6
40 6
39 7
38 7
37 7
36 7
35 8
34 8
33 8
32 9
31 9
30 9
29 10
28 10
27 10
26 11
25 11
24 12
23 12
22 12
21 13
20 14
19 14
18 15
17 15
16 16
15 17
14 17
13 18
12 19
11 20
10 20
10 21
9 22
8 22
7 23
7 24
6 25
5 26
4 27
4 28
4 29
3 30
3 31
3 32
3 33
3 34
2 35
2 36
2 37
2 38
2 39
2 40
2 41
2 42
2 43
2 44
2 45
2 46
2 47
2 48
3 49
3 50
3 51
3 52
3 53
4 54
4 55
4 56
5 57
6 58
7 59
7 60
8 60
9 61
10 62
10 63
11 63
12 64
13 65
14 65
15 66
16 67
17 67
18 67
19 68
20 68
21 68
22 69
23 69
24 69
25 70
26 70
27 70
28 70
29 70
30 70
31 70
32 71
33 71
34 71
35 71
36 71
37 71
38 71
39 70
40 70
41 70
42 70
43 70
44 70
45 70
46 70
47 69
48 69
49 69
50 69
51 68
52 68
53 68
54 68
55 67
56 67
57 67
58 66
59 66
60 66
61 65
62 65
63 64
64 64
65 64
66 63
67 63
68 62
69 62
70 62
71 61
72 61
73 60
74 60
75 59
76 59
77 59
78 58
79 58
80 58
81 57
82 57
83 57
84 56
85 56
86 56
87 55
88 55
89 55
90 54
91 54
92 54
93 53
94 53
95 53
96 52
97 52
98 52
99 52
100 51
101 51
102 51
103 51
104 50
105 50
106 50
107 50
108 50
109 50
110 49
111 49
112 49
113 49
114 49
115 49
116 49
117 49
118 49
119 49
120 49
121 49
122 49
123 49
124 49
125 49
126 49
127 49
128 49
129 49
130 49
131 49
132 49
133 49
134 49
135 49
136 49
137 49
138 49
139 49
140 49
141 49
142 49
143 49
144 49
145 49
146 49
147 49
148 49
149 49
150 49
151 49
152 49
153 49
154 49
155 49
156 49
157 49
158 49
159 49
160 49
161 49
162 49
163 50
164 50
165 50
166 50
167 50
168 50
169 50
170 50
171 51
172 51
173 51
174 51
175 51
176 51
177 52
178 52
179 52
180 52
181 53
182 53
183 53
184 53
185 53
186 54
187 54
188 55
189 55
190 55
191 55
192 55
193 55
194 56
195 56
196 56
197 56
198 56
199 56
200 57
201 57
202 57
203 57
204 57
205 57
206 57
207 57
208 57
209 57
210 57
211 56
212 56
213 56
214 56
215 56
216 55
217 55
218 55
219 55
220 55
221 55
222 54
223 54
224 54
225 54
226 54
227 54
228 54
229 54
230 54
231 54
232 54
233 54
234 54
235 54
236 54
237 54
238 54
239 54
240 54
241 54
242 54
243 54
244 54
245 54
246 54
247 54
248 54
249 54
250 54
251 54
252 54
253 54
254 54
255 54
256 54
257 54
258 54
259 54
260 53
261 53
262 53
263 52
263 51
264 50
263 50
262 49
261 49
260 49
259 49
258 48
257 48
256 48
255 48
254 47
253 47
252 47
251 47
250 46
249 46
248 46
247 46
246 46
245 46
244 45
243 45
242 45
241 45
240 45
239 45
238 45
237 45
236 44
235 44
234 44
233 44
232 44
231 44
230 44
229 44
228 44
227 44
226 44
225 44
224 44
223 44
222 44
221 44
220 44
219 44
218 45
217 45
216 45
215 45
214 45
213 45
212 45
211 45
210 45
209 45
208 46
207 46
206 46
205 46
204 46
203 46
202 45
201 45
200 45
199 45
198 45
197 45
196 44
195 44
194 44
193 44
192 43
191 43
190 43
189 42
188 42
187 42
186 41
185 41
184 41
183 41
182 41
181 40
180 40
179 40
178 40
177 39
176 39
175 39
174 39
173 39
172 39
171 39
170 38
169 38
168 38
167 38
166 38
165 38
164 38
163 38
162 37
161 37
160 37
159 37
158 37
157 37
156 37
155 37
154 37
153 37
152 37
151 37
150 37
149 37
148 37
147 37
146 37
145 37
144 37
143 37
142 37
141 37
140 36
139 36
138 36
137 36
136 36
135 36
134 36
133 36
132 36
131 36
130 36
129 36
128 36
127 36
126 36
125 36
124 36
123 36
122 36
121 36
120 36
119 36
118 36
117 36
116 36
115 36
114 36
113 37
112 37
111 37
110 37
109 37
108 37
107 37
106 37
105 37
104 38
103 38
102 38
101 38
100 38
99 39
98 39
97 39
96 39
95 39
94 40
93 40
92 40
91 41
90 41
89 41
88 41
87 42
86 42
85 42
84 43
83 43
82 43
81 43
80 44
79 44
78 45
77 45
76 45
75 46
74 46
73 46
72 46
71 47
70 48
69 48
68 48
67 49
66 49
65 49
64 50
63 50
62 50
61 51
60 51
59 51
58 52
57 52
56 52
55 53
54 53
53 53
52 54
51 54
50 54
49 55
48 55
47 55
46 55
45 55
44 56
43 56
42 56
41 57
40 57
39 57
38 57
37 57
36 57
35 57
34 57
33 57
32 57
31 57
30 56
29 56
28 56
27 55
26 55
25 55
24 54
23 53
22 53
21 52
20 51
19 50
18 50
17 49
18 48
18 47
17 47
16 46
15 45
16 44
16 43
15 43
14 42
15 41
15 40
15 39
16 38
16 37
17 36
17 35
18 34
18 33
19 32
20 31
21 30
22 29
23 29
24 28
25 27
26 27
27 26
28 25
29 24
30 24
31 24
32 23
33 23
34 23
35 22
36 22
37 22
38 21
39 21
40 21
41 21
42 20
43 20
44 20
45 20
46 19
47 19
48 19
49 18
50 18
51 18
52 18
53 17
54 17
55 17
56 17
57 17
58 16
59 16
60 16
61 16
62 16
63 16
64 16
65 16
66 16
67 15
68 15
69 15
70 15
71 15
72 15
73 15
74 15
75 15
76 16
77 16
78 16
79 16
80 16
81 16
82 17
83 17
84 17
85 17
86 18
87 18
88 18
89 18
90 18
91 19
92 19
93 19
94 19
95 20
96 20
97 20
98 20
99 21
100 21
101 21
102 21
103 21
104 22
105 22
106 22
107 22
108 22
109 22
110 23
111 23
112 23
113 23
114 23
115 23
116 24
117 24
118 24
119 24
120 24
121 25
122 25
123 25
124 25
125 25
126 25
127 25
128 25
129 25
130 25
131 25
132 25
133 25
134 26
135 26
136 26
137 26
138 26
139 26
140 26
141 26
142 26
143 26
144 26
145 26
146 27
147 27
148 27
149 27
150 27
151 28
152 28
153 28
154 28
155 28
156 28
157 28
158 28
159 28
160 29
161 29
162 29
163 29
164 29
165 29
166 29
167 29
168 29
169 29
170 30
171 30
172 30
173 30
174 30
175 30
176 30
177 31
178 31
179 31
180 31
181 31
182 31
183 32
184 32
185 32
186 32
187 32
188 32
189 32
190 32
191 32
192 33
193 33
194 33
195 33
196 33
197 33
198 33
199 33
200 33
201 33
202 33
203 33
204 33
205 33
206 33
207 33
208 32
209 32
210 32
211 32
212 32
213 32
214 32
215 31
216 31
217 31
218 31
219 31
220 31
221 31
222 32
223 32
224 32
225 33
226 34
227 34
228 34
229 35
230 35
231 35
232 35
233 35
234 35
235 35
236 35
237 35
238 35
239 35
240 35
241 35
242 35
243 34
244 34
245 34
246 35
247 35
248 36
249 36
250 36
251 36
252 36
253 36
254 36
255 36
256 36
257 36
258 36
259 37
260 37
261 37
262 37
263 37
264 36
264 35
265 34
266 33
267 32
267 31
268 30
268 29
267 29
266 28
265 28
264 27
263 26
262 26
261 26
260 25
259 25
258 25
257 24
256 24
255 23
254 23
253 23
252 22
251 22
250 22
249 21
248 21
247 21
246 21
245 20
244 20
243 20
242 20
241 19
240 19
239 18
238 18
237 18
236 18
235 18
234 18
233 17
232 17
231 17
230 17
229 17
228 17
227 17
226 17
225 17
224 17
223 17
222 17
221 17
220 17
219 17
218 16
217 16
216 16
215 17
214 17
213 17
212 17
211 17
210 17
209 17
208 17
207 18
206 18
205 18
204 18
203 18
202 18
201 18
200 18
199 18
198 18
197 18
196 18
195 18
194 18
193 18
192 18
191 18
190 18
189 17
188 17
187 17
186 17
185 17
184 17
183 17
182 16
181 16
180 16
179 16
178 16
177 16
176 16
175 16
174 15
173 15
172 15
171 15
170 15
169 15
168 15
167 15
166 14
165 14
164 14
163 14
162 14
161 14
160 14
159 14
158 14
157 14
156 14
155 13
154 13
153 13
152 13
151 13
150 13
149 13
148 13
147 13
146 13
145 13
144 13
143 12
142 12
141 12
140 12
139 12
138 12
137 12
136 12
135 12
134 12
133 12
132 12
131 12
130 12
129 12
128 12
127 11
126 11
125 11
124 11
123 11
122 11
121 11
120 11
119 10
118 10
117 10
116 10
115 10
114 10
113 9
112 9
111 9
110 9
109 9
108 9
107 9
106 8
105 8
104 8
103 8
102 7
101 7
100 7
99 7
98 7
97 6
96 6
95 6
94 6
93 5
92 5
91 5
90 5
89 5
88 4
87 4
86 4
85 4
84 4
83 3
82 3
81 3
80 3
79 3
78 2
77 2
76 2
75 2
74 2
73 2
72 2
71 2
70 2
69 2
68 2
67 2
66 2
65 2
64 2
63 2
62 2
61 2
60 2
