130 2
129 3
128 3
128 4
127 5
126 6
125 7
124 8
123 8
122 9
121 9
120 10
119 10
118 11
117 12
116 13
115 13
115 14
114 15
113 15
112 16
111 17
111 18
110 19
109 19
108 20
107 20
106 20
105 20
104 20
103 20
102 20
101 20
100 20
99 20
98 20
97 20
96 20
95 20
94 21
93 21
92 21
91 21
90 21
89 21
88 21
87 21
86 21
85 21
84 21
83 21
82 22
81 22
80 22
79 22
78 22
77 23
76 23
75 23
74 23
73 23
72 23
71 24
70 24
69 24
68 24
67 24
66 25
65 25
64 25
63 25
62 25
61 25
60 26
59 26
58 26
57 27
56 27
55 27
54 28
53 28
52 29
51 29
50 29
49 30
48 30
47 30
46 30
45 30
44 30
43 30
42 31
41 31
40 31
39 31
38 32
37 32
36 32
35 32
34 33
33 33
32 34
31 34
30 34
29 35
28 36
27 36
26 37
26 38
26 39
25 40
24 40
23 41
22 42
21 43
20 43
19 44
18 45
17 45
16 46
15 46
14 46
13 47
12 48
11 48
10 49
9 49
8 50
7 50
6 51
5 52
4 52
3 52
2 52
2 53
2 54
2 55
2 56
2 57
2 58
3 59
3 60
3 61
3 62
4 62
5 63
6 63
7 63
8 63
9 63
10 63
11 64
11 65
12 66
13 66
14 67
15 67
16 67
17 67
18 67
19 68
20 68
21 68
22 68
23 68
24 68
25 68
26 69
27 69
28 69
29 69
30 69
31 69
32 69
33 70
34 70
35 70
36 70
37 70
38 70
39 71
40 71
41 71
42 71
43 71
44 71
45 71
46 71
47 71
48 71
49 72
50 72
51 72
52 72
53 73
54 73
55 73
56 74
57 74
58 74
59 74
60 74
61 74
62 74
63 74
64 74
65 74
66 74
67 74
68 74
69 74
70 74
71 74
72 74
73 74
74 74
75 74
76 74
77 74
78 74
79 74
80 75
81 75
82 75
83 75
84 75
85 75
86 75
87 75
88 75
89 75
90 75
91 75
92 75
93 75
94 75
95 75
96 75
97 76
97 77
97 78
97 79
97 80
97 81
98 82
98 83
99 84
99 85
100 86
100 87
101 88
101 89
102 90
103 90
104 91
105 92
105 93
105 94
105 95
106 96
107 97
108 98
108 99
109 99
110 100
111 101
112 101
113 101
114 101
115 102
116 102
117 102
118 102
119 103
120 103
121 103
122 103
123 103
124 103
125 103
126 103
127 103
128 103
129 103
130 102
131 102
132 102
133 102
134 102
135 102
136 102
137 102
138 102
139 101
140 102
141 102
142 102
143 103
144 104
145 104
146 104
147 103
147 102
148 101
147 101
146 100
145 99
144 99
143 99
142 98
141 98
140 98
139 97
138 97
137 97
136 96
135 95
135 94
136 93
136 92
137 91
138 91
139 91
140 91
141 90
141 89
142 88
142 87
143 86
144 86
145 86
146 86
147 87
148 87
149 87
150 87
151 88
152 88
153 88
154 89
155 89
156 89
157 89
158 89
159 88
159 87
160 86
160 85
159 85
158 84
157 83
156 83
155 84
154 84
153 83
152 83
151 83
150 82
149 81
148 81
147 81
146 81
145 81
144 81
143 80
142 80
141 80
140 79
139 78
138 77
138 76
139 75
138 75
137 74
137 73
138 72
139 72
140 72
141 72
142 71
143 71
144 71
145 70
146 69
147 70
148 71
149 70
150 70
151 70
152 70
153 69
154 69
155 69
156 69
157 69
158 69
159 69
160 69
161 69
162 69
163 69
164 68
165 68
166 68
167 68
168 68
169 68
170 68
171 68
172 68
173 67
174 67
175 67
176 67
177 67
178 66
179 66
180 66
181 66
182 66
183 66
184 66
185 66
186 66
187 67
188 67
189 68
189 69
190 70
191 71
192 71
193 71
194 72
194 73
194 74
195 74
196 75
196 76
197 76
198 76
199 76
200 77
201 78
201 79
202 79
203 80
204 81
205 82
205 83
206 83
207 83
208 83
209 83
210 83
211 83
212 82
212 81
213 80
214 79
215 79
216 79
217 79
218 78
219 78
220 78
221 77
222 77
223 76
224 75
225 75
226 74
226 73
227 72
227 71
228 70
228 69
227 69
226 68
225 67
224 66
225 65
226 65
227 65
228 65
229 65
230 66
231 66
232 66
233 67
234 67
235 67
236 67
237 67
238 68
239 68
240 69
241 70
242 70
243 70
244 71
245 71
246 71
247 71
248 71
249 72
250 72
251 73
252 73
253 74
254 74
255 74
256 75
257 75
258 76
259 77
260 77
261 78
262 78
263 79
264 80
265 80
266 81
267 82
268 82
269 83
270 83
271 84
272 84
273 84
274 84
275 85
275 86
276 87
277 87
278 87
279 87
280 86
281 86
282 86
283 86
284 86
285 87
286 87
287 88
288 88
289 88
290 88
291 87
291 86
292 85
291 85
290 84
289 84
288 83
288 82
287 82
286 81
285 81
284 81
283 82
282 82
281 81
281 80
281 79
282 78
282 77
282 76
282 75
282 74
281 74
280 73
281 72
281 71
280 71
279 70
278 69
277 69
276 69
275 69
274 69
273 68
272 68
271 68
270 68
269 68
268 69
267 69
266 68
267 67
267 66
267 65
268 64
269 65
270 66
271 66
272 66
273 65
274 64
274 63
275 62
276 61
277 62
277 63
277 64
278 65
279 64
279 63
280 62
280 61
281 60
282 59
283 59
284 58
284 57
285 56
284 56
283 55
284 54
285 54
286 54
287 53
288 53
289 53
290 53
291 52
292 51
293 51
294 50
294 49
295 48
295 47
295 46
296 45
297 45
297 44
298 43
298 42
298 41
299 40
299 39
300 38
299 38
298 37
299 36
300 35
300 34
299 33
298 33
297 33
296 32
295 32
294 32
293 33
292 33
291 32
290 32
289 32
288 32
287 32
286 33
286 34
285 35
284 35
283 35
282 35
281 35
280 35
279 35
278 35
277 35
276 35
275 35
274 36
273 36
272 36
271 37
270 37
269 38
268 38
267 38
266 39
265 39
264 39
263 40
262 41
261 41
260 42
259 42
258 42
257 43
256 43
255 43
254 43
253 43
252 43
251 43
250 43
249 43
248 43
247 43
246 43
245 43
244 43
243 43
242 43
241 43
240 42
239 42
238 42
237 42
236 42
235 42
234 42
233 41
232 41
231 41
230 41
229 41
228 41
227 41
226 41
225 41
224 41
223 41
222 41
221 41
220 41
219 40
218 39
217 39
216 38
215 38
214 38
213 37
212 37
211 37
210 37
209 37
208 37
207 37
206 37
205 37
204 37
203 37
202 36
201 36
200 36
199 36
198 35
197 35
196 35
195 35
194 34
193 33
194 32
194 31
195 30
194 30
193 29
192 29
191 29
190 29
189 28
188 28
187 28
186 28
185 28
184 28
183 28
182 27
181 27
180 27
179 27
178 27
177 26
178 25
179 25
180 25
181 25
182 24
183 23
184 23
185 23
186 23
187 23
188 23
189 22
190 22
191 21
191 20
192 19
192 18
191 18
190 17
189 17
188 17
187 17
186 18
185 18
184 18
183 19
182 19
181 19
180 19
179 19
178 19
177 19
176 19
175 19
174 19
173 18
174 17
174 16
173 15
172 15
171 15
170 16
169 16
169 17
168 18
167 18
166 18
165 17
166 16
165 16
164 15
163 15
162 14
161 14
160 14
159 13
158 12
157 12
156 12
155 12
154 13
153 13
152 13
151 12
152 11
153 10
154 9
154 8
155 7
154 7
153 6
152 6
151 5
150 4
149 4
148 4
148 5
147 6
146 6
145 5
144 5
143 5
142 5
142 6
141 7
140 7
139 6
140 5
140 4
139 4
138 3
137 3
136 2
135 2
134 2
133 2
132 2
131 2
