140 2
139 3
138 4
137 5
137 6
136 7
136 8
135 9
134 10
134 11
134 12
133 13
132 14
132 15
131 16
131 17
131 18
130 19
130 20
129 21
129 22
128 23
128 24
128 25
127 26
127 27
127 28
126 29
126 30
125 31
125 32
125 33
125 34
125 35
125 36
124 37
123 37
122 38
121 38
120 38
119 38
118 38
117 38
116 38
115 38
114 38
113 38
112 38
111 38
110 38
109 38
108 38
107 38
106 38
105 38
104 39
103 39
102 39
101 39
100 39
99 39
98 39
97 39
96 39
95 39
94 39
93 39
92 39
91 39
90 39
89 39
88 39
87 39
86 39
85 39
84 39
83 39
82 39
81 40
80 40
79 40
78 40
77 40
76 40
75 40
74 40
73 40
72 40
71 40
70 40
69 40
68 41
67 41
66 41
65 41
64 41
63 41
62 41
61 42
60 42
59 42
58 42
57 42
56 42
55 42
54 43
53 43
52 43
51 43
50 44
49 44
48 44
47 44
46 44
45 44
44 45
43 45
42 45
41 45
40 46
39 46
38 46
37 46
36 46
35 46
34 47
33 47
32 48
31 48
30 49
29 49
28 49
27 50
26 50
25 50
24 51
23 51
22 51
21 52
20 52
19 52
18 53
17 53
16 53
15 53
14 54
13 54
12 54
11 55
10 55
9 56
8 56
7 57
6 58
5 59
4 59
3 60
2 60
2 61
2 62
2 63
2 64
2 65
3 66
4 67
4 68
5 69
5 70
6 71
7 71
8 72
9 73
10 74
11 75
12 75
13 75
14 76
14 77
15 77
16 78
17 78
18 79
19 79
20 80
21 80
22 80
23 80
24 80
25 81
26 81
27 82
27 83
28 83
29 84
29 85
30 85
31 85
32 85
33 85
34 84
35 85
35 86
35 87
36 88
37 88
38 88
39 89
40 89
41 89
42 89
43 89
44 90
44 91
44 92
45 92
46 92
47 92
48 92
49 92
50 93
51 93
52 94
53 94
54 94
55 95
56 95
57 95
58 95
59 96
60 96
61 96
62 96
63 97
64 97
65 98
66 98
67 98
68 98
69 98
70 99
71 99
72 99
73 100
74 100
75 100
76 100
77 101
78 101
79 101
80 101
81 101
82 101
83 102
84 102
85 102
86 102
87 102
88 102
89 102
90 103
91 103
92 103
93 103
94 103
95 104
96 104
97 104
98 104
99 104
100 104
101 104
102 104
103 104
104 104
105 104
106 104
107 104
108 105
109 105
110 105
111 105
112 106
113 106
114 106
115 105
116 105
117 105
118 105
119 105
120 105
121 105
122 105
123 105
124 105
125 105
126 105
127 105
128 105
129 105
130 105
131 105
132 105
133 105
134 105
135 105
136 105
137 105
138 105
139 106
139 107
140 108
140 109
140 110
141 110
142 110
143 111
143 112
144 113
144 114
145 115
146 116
146 117
146 118
147 119
147 120
148 120
149 121
149 122
149 123
150 124
151 125
151 126
152 126
153 126
154 125
154 124
155 123
155 122
156 121
157 120
157 119
158 118
158 117
158 116
158 115
158 114
158 113
158 112
159 111
159 110
159 109
159 108
159 107
159 106
159 105
159 104
160 103
161 103
162 103
163 102
164 102
165 102
166 102
167 102
168 102
169 102
170 101
171 101
172 101
173 100
174 100
175 100
176 100
177 100
178 99
179 99
180 99
181 98
182 98
183 98
184 98
185 98
186 98
187 97
188 97
189 97
190 97
191 96
192 96
193 96
194 96
195 95
196 95
197 94
198 94
199 94
200 93
201 93
202 93
203 92
204 92
205 92
206 91
207 91
208 91
209 92
209 93
210 94
211 94
212 95
212 96
213 97
214 97
215 97
216 97
217 97
218 97
219 96
219 95
220 94
221 93
221 92
222 91
223 90
224 89
225 88
226 87
227 86
227 85
228 84
228 83
229 82
229 81
230 80
230 79
231 78
232 78
233 77
234 77
235 76
236 76
237 75
238 75
239 75
240 74
241 74
242 74
243 74
244 74
245 74
246 74
247 74
248 75
249 75
250 75
251 75
252 76
253 76
254 77
255 78
256 78
257 79
258 79
259 79
260 79
261 80
261 81
261 82
262 82
263 83
263 84
264 84
265 85
266 85
267 86
268 86
269 87
270 87
271 87
272 87
273 88
273 89
273 90
274 90
275 91
276 92
277 92
278 93
279 94
280 94
281 95
282 95
283 96
284 97
285 97
286 98
286 99
287 99
288 100
289 101
290 101
291 101
292 102
293 103
294 103
295 104
296 104
297 105
298 106
299 106
300 107
301 107
302 108
303 108
304 109
305 110
306 110
307 110
308 111
309 111
310 111
311 112
312 112
313 112
314 112
315 112
316 112
317 112
318 112
319 112
320 111
320 110
321 109
321 108
320 108
319 107
320 106
320 105
319 105
318 104
317 103
316 103
315 104
314 104
313 103
312 102
311 102
310 101
309 100
308 99
307 98
306 97
307 96
307 95
306 95
305 94
304 94
303 93
302 92
301 91
300 91
299 90
298 89
297 88
296 87
295 86
294 86
293 85
292 84
291 83
290 82
289 81
288 81
287 80
286 79
285 78
284 77
283 76
282 76
281 75
280 74
279 73
278 72
277 71
276 70
275 69
274 68
273 67
274 66
273 66
272 65
271 64
272 63
271 63
270 62
271 61
271 60
271 59
271 58
271 57
271 56
271 55
272 54
273 53
273 52
274 51
274 50
275 49
276 48
276 47
277 46
278 45
279 44
280 43
281 43
282 42
283 41
284 40
285 39
286 38
287 37
288 36
289 35
290 34
291 33
292 32
293 31
294 30
295 30
296 29
296 28
297 27
298 26
298 25
299 24
300 23
301 22
301 21
302 20
303 19
304 18
305 17
305 16
306 15
306 14
307 13
308 12
309 11
310 10
311 9
312 9
313 8
314 8
315 7
316 7
317 6
318 6
319 5
319 4
320 3
319 3
318 2
317 2
316 2
315 2
314 2
313 2
312 2
311 2
310 2
309 2
308 2
307 3
306 4
305 4
304 5
303 5
302 6
301 6
300 7
299 7
298 8
297 9
296 9
295 10
294 10
293 11
292 12
291 12
290 13
289 13
288 14
287 15
286 15
285 16
284 17
283 18
282 19
281 19
281 20
280 21
279 21
278 22
277 23
276 23
275 24
274 25
273 25
272 26
271 27
270 28
269 28
269 29
268 30
267 30
266 31
265 32
264 33
263 33
262 34
262 35
261 36
260 37
259 38
258 38
257 39
256 40
255 41
254 42
253 43
252 43
251 44
250 45
249 46
248 47
247 47
246 48
245 49
244 50
243 50
242 51
241 51
240 51
239 51
238 51
237 51
236 51
235 51
234 51
233 51
232 51
231 51
230 51
229 51
228 51
227 51
226 51
225 51
224 51
223 51
222 51
221 51
220 51
219 51
218 51
217 51
216 50
215 50
214 50
213 50
212 50
211 50
210 50
209 50
208 50
207 50
206 50
205 50
204 49
203 49
202 49
201 49
200 49
199 49
198 49
197 48
196 48
195 48
194 48
193 48
192 48
191 48
190 47
189 47
188 47
187 47
186 47
185 47
184 46
183 46
182 46
181 46
180 46
179 46
178 46
177 46
176 46
175 46
174 46
173 45
172 45
171 45
170 45
169 44
168 44
167 44
166 44
165 44
164 44
163 43
162 43
161 42
162 41
161 41
160 40
159 40
158 39
157 39
156 38
157 37
156 37
155 36
154 36
153 35
152 35
151 34
150 33
149 32
150 31
149 31
148 30
149 29
149 28
148 28
147 27
148 26
148 25
148 24
147 24
146 23
147 22
147 21
147 20
146 20
145 19
144 18
145 17
145 16
145 15
144 15
143 14
144 13
144 12
145 11
145 10
145 9
145 8
145 7
145 6
145 5
144 5
143 4
144 3
143 3
142 2
141 2
