280 2
279 3
278 3
277 3
276 3
275 3
274 3
273 3
272 3
271 3
270 4
269 4
268 4
267 4
266 4
265 4
264 4
263 4
262 4
261 4
260 5
259 5
258 5
257 5
256 5
255 5
254 5
253 5
252 5
251 5
250 5
249 5
248 5
247 5
246 5
245 5
244 5
243 5
242 5
241 5
240 5
239 5
238 5
237 5
236 5
235 5
234 5
233 5
232 5
231 5
230 5
229 5
228 5
227 5
226 5
225 5
224 5
223 5
222 5
221 5
220 5
219 5
218 5
217 5
216 5
215 5
214 5
213 5
212 5
211 5
210 5
209 5
208 5
207 5
206 5
205 5
204 5
203 5
202 5
201 5
200 5
199 4
198 4
197 4
196 4
195 4
194 4
193 4
192 4
191 4
190 4
189 4
188 4
187 4
186 4
185 4
184 4
183 3
182 3
181 3
180 3
179 3
178 3
177 3
176 3
175 3
174 3
173 3
172 3
171 3
170 3
169 3
168 3
167 3
166 3
165 3
164 3
163 3
162 3
161 4
160 4
159 4
158 4
157 4
156 4
155 4
154 4
153 4
152 4
151 4
150 4
149 4
148 4
147 4
146 4
145 5
144 5
143 5
142 5
141 5
140 5
139 5
138 5
137 5
136 5
135 5
134 5
133 5
132 5
131 5
130 5
129 6
128 6
127 6
126 6
125 6
124 6
123 6
122 6
121 7
120 7
119 7
118 7
117 7
116 7
115 7
114 7
113 7
112 7
111 7
110 7
109 7
108 7
107 7
106 8
105 8
104 8
103 8
102 8
101 8
100 8
99 8
98 8
97 8
96 8
95 8
94 8
93 8
92 8
91 8
90 8
89 8
88 8
87 8
86 8
85 8
84 8
83 8
82 8
81 8
80 8
79 8
78 8
77 8
76 8
75 8
74 8
73 8
72 8
71 8
70 8
69 8
68 8
67 8
66 8
65 8
64 8
63 8
62 8
61 8
60 8
59 8
58 8
57 8
56 8
55 8
54 8
53 8
52 8
51 7
50 7
49 7
48 7
47 7
46 7
45 7
44 7
43 7
42 7
41 7
40 7
39 7
38 7
37 7
36 7
35 7
34 7
33 7
32 6
31 6
30 6
29 6
28 6
27 6
26 6
25 6
24 6
23 6
22 6
21 6
20 6
19 6
18 6
17 6
16 6
15 6
14 6
13 6
12 6
11 6
10 6
9 6
8 6
7 6
6 6
5 7
4 7
3 7
2 7
2 8
2 9
2 10
2 11
3 11
4 12
5 12
6 12
7 13
8 14
9 14
10 14
11 14
12 14
13 14
14 14
15 14
16 14
17 14
18 14
19 14
20 14
21 15
22 15
23 15
24 15
25 15
26 15
27 15
28 15
29 15
30 16
31 16
32 16
33 16
34 16
35 16
36 16
37 16
38 17
39 17
40 17
41 17
42 17
43 17
44 18
45 18
46 18
47 18
48 18
49 18
50 19
51 19
52 19
53 19
54 19
55 19
56 20
57 20
58 20
59 20
60 20
61 20
62 20
63 19
64 19
65 19
66 19
67 19
68 19
69 20
70 20
71 20
72 20
73 20
74 20
75 20
76 20
77 20
78 20
79 20
80 20
81 20
82 20
83 20
84 20
85 20
86 20
87 20
88 20
89 20
90 19
91 19
92 19
93 19
94 19
95 19
96 20
97 20
98 20
99 20
100 20
101 20
102 20
103 20
104 20
105 20
106 20
107 20
108 20
109 19
110 19
111 19
112 19
113 19
114 19
115 19
116 19
117 19
118 19
119 19
120 19
121 19
122 19
123 19
124 19
125 19
126 19
127 18
128 18
129 18
130 18
131 18
132 18
133 18
134 18
135 18
136 18
137 18
138 17
139 17
140 17
141 17
142 17
143 17
144 17
145 17
146 17
147 16
148 16
149 16
150 16
151 16
152 16
153 16
154 16
155 16
156 16
157 16
158 16
159 16
160 16
161 16
162 16
163 16
164 15
165 15
166 15
167 15
168 15
169 15
170 15
171 15
172 14
173 14
174 14
175 14
176 14
177 14
178 14
179 14
180 14
181 15
182 15
183 15
184 15
185 15
186 15
187 15
188 15
189 15
190 15
191 15
192 15
193 15
194 15
195 15
196 15
197 15
198 15
199 15
200 15
201 15
202 15
203 15
204 15
205 15
206 15
207 15
208 15
209 15
210 15
211 15
212 15
213 15
214 15
215 15
216 15
217 15
218 15
219 15
220 15
221 15
222 15
223 16
224 16
225 16
226 16
227 16
228 16
229 16
230 16
231 16
232 16
233 16
234 16
235 16
236 16
237 16
238 16
239 16
240 16
241 16
242 16
243 16
244 16
245 16
246 16
247 16
248 16
249 16
250 16
251 16
252 15
253 15
254 15
255 15
256 15
257 15
258 15
259 15
260 15
261 15
262 15
263 15
264 15
265 15
266 15
267 15
268 15
269 15
270 15
271 15
272 15
273 15
274 15
275 15
276 15
277 15
278 15
279 15
280 15
281 15
282 14
283 14
284 14
285 14
286 14
287 14
288 14
289 14
290 14
291 14
292 14
293 14
294 14
295 13
296 13
297 13
298 13
299 13
300 13
301 13
302 13
303 13
304 13
305 12
306 12
307 11
307 10
308 9
308 8
308 7
307 7
306 6
305 6
304 5
303 5
302 5
301 4
300 4
299 4
298 3
297 3
296 3
295 3
294 3
293 3
292 2
291 2
290 2
289 2
288 2
287 2
286 2
285 2
284 2
283 2
282 2
281 2
