126 2
125 3
124 3
123 3
122 3
121 3
120 3
119 3
118 3
117 3
116 3
115 3
114 4
113 4
112 4
111 4
110 4
109 5
108 5
107 5
106 5
105 5
104 6
103 6
103 7
103 8
102 9
101 9
100 9
99 9
98 10
97 10
96 10
95 10
94 11
93 12
92 12
91 13
90 13
89 14
88 14
87 15
86 15
85 15
84 15
83 15
82 16
81 16
80 16
79 16
78 16
77 16
76 17
75 17
74 17
73 17
72 17
71 17
70 18
69 18
68 18
67 18
66 18
65 18
64 19
63 19
62 19
61 19
60 19
59 20
58 20
57 20
56 20
55 20
54 21
53 21
52 21
51 21
50 22
49 22
48 22
47 23
46 23
45 23
44 24
43 24
42 25
41 25
40 25
39 26
38 27
37 27
36 27
35 28
34 28
33 29
32 29
31 29
30 30
29 30
28 31
27 31
26 31
25 32
24 32
23 33
22 33
21 33
20 34
19 35
18 35
17 35
16 36
15 36
14 36
13 37
12 37
11 38
10 39
9 39
8 40
7 40
6 41
5 41
4 42
3 43
2 44
2 45
2 46
2 47
2 48
2 49
2 50
3 51
4 52
4 53
4 54
4 55
4 56
5 57
5 58
6 58
7 58
8 59
9 59
10 59
11 59
12 59
13 59
14 59
15 59
16 59
17 60
18 60
19 60
20 60
21 61
22 61
23 61
24 62
25 62
26 62
27 62
28 63
29 63
30 63
31 63
32 63
33 64
34 64
35 64
36 64
37 64
38 64
39 64
40 64
41 64
42 64
43 64
44 64
45 64
46 64
47 64
48 64
49 64
50 64
51 64
52 65
53 65
54 65
55 65
56 65
57 65
58 65
59 65
60 65
61 65
62 65
63 65
64 65
65 65
66 65
67 66
68 66
69 66
70 66
71 66
72 67
73 67
74 67
75 67
76 67
77 68
78 68
79 68
80 68
81 68
82 69
82 70
82 71
83 72
83 73
83 74
84 75
84 76
84 77
85 78
85 79
85 80
85 81
85 82
86 83
86 84
86 85
87 85
88 86
88 87
88 88
89 89
89 90
90 91
91 91
92 91
93 91
94 91
95 90
95 89
96 88
96 87
96 86
96 85
97 84
97 83
97 82
97 81
98 80
98 79
99 78
99 77
99 76
99 75
99 74
99 73
99 72
99 71
99 70
100 69
101 70
102 70
103 70
104 70
105 70
106 70
107 70
108 70
109 70
110 70
111 70
112 69
113 69
114 69
115 69
116 69
117 69
118 68
119 68
120 68
121 68
122 67
123 68
124 68
125 68
126 69
125 70
125 71
125 72
125 73
126 74
126 75
126 76
127 77
128 78
129 79
130 80
131 80
132 80
133 80
134 80
135 81
135 82
136 82
137 83
138 83
139 83
140 83
141 83
142 83
143 83
144 83
145 83
146 84
147 84
148 84
149 84
150 84
151 84
152 84
153 84
154 84
155 84
156 84
157 84
158 85
159 85
160 84
161 83
162 82
162 81
163 80
164 81
164 82
164 83
165 84
166 84
167 84
168 84
169 84
170 84
171 84
172 84
173 84
174 84
175 84
176 84
177 84
178 84
179 84
180 84
181 84
182 84
183 83
184 83
185 83
186 82
187 82
188 82
189 81
190 81
191 81
192 81
193 80
194 80
195 80
196 80
197 79
198 79
199 79
200 78
201 78
202 78
203 77
204 77
205 77
206 76
207 76
208 76
209 76
210 76
211 75
212 75
213 75
214 75
215 75
216 75
217 74
218 74
219 74
220 74
221 73
222 73
223 73
224 73
225 73
226 72
227 72
228 72
229 72
230 72
231 71
232 71
233 71
234 70
235 70
236 70
237 70
238 70
239 70
240 70
241 70
242 69
243 69
244 69
245 69
246 68
247 68
248 68
249 68
250 67
251 67
252 67
253 67
254 66
255 66
256 66
257 66
258 66
259 66
260 65
261 65
262 65
263 64
264 64
265 64
266 64
267 63
268 62
269 63
269 64
270 64
271 65
272 66
273 66
274 67
275 68
276 68
277 69
278 70
279 70
280 70
281 71
282 72
283 72
284 73
285 73
286 73
287 74
288 74
289 75
290 75
291 75
292 76
293 76
294 77
295 77
296 77
297 78
298 78
299 78
300 78
301 78
302 78
303 77
304 76
304 75
305 74
305 73
306 72
306 71
306 70
305 70
304 69
304 68
304 67
305 66
305 65
306 64
306 63
306 62
306 61
306 60
306 59
306 58
306 57
306 56
306 55
306 54
306 53
306 52
307 51
307 50
307 49
307 48
308 47
308 46
309 45
309 44
309 43
309 42
309 41
309 40
309 39
309 38
309 37
309 36
309 35
309 34
309 33
310 32
310 31
310 30
310 29
311 28
311 27
311 26
310 26
309 25
308 25
307 25
306 25
305 25
304 25
303 25
302 25
301 25
300 26
299 26
298 26
297 26
296 27
295 27
294 27
293 28
292 28
291 29
290 29
289 30
288 31
287 31
286 32
285 32
284 33
283 33
282 34
281 34
280 34
279 35
278 35
277 35
276 35
275 36
274 36
273 37
272 38
271 38
270 38
269 39
268 38
268 37
269 36
268 36
267 35
266 34
265 33
264 33
263 32
262 32
261 32
260 31
259 31
258 31
257 30
256 30
255 30
254 30
253 29
252 29
251 28
250 28
249 28
248 27
247 27
246 27
245 27
244 27
243 27
242 27
241 26
240 26
239 26
238 26
237 26
236 25
235 25
234 24
233 24
232 23
231 23
230 23
229 22
228 22
227 22
226 22
225 21
224 21
223 21
222 20
221 20
220 20
219 20
218 19
217 19
216 18
215 18
214 18
213 18
212 17
211 17
210 17
209 16
208 16
207 16
206 15
205 15
204 15
203 15
202 14
201 14
200 14
199 14
198 13
197 13
196 13
195 13
194 13
193 12
192 12
191 12
190 12
189 12
188 11
187 11
186 11
185 10
184 10
183 9
182 9
181 9
180 9
179 8
178 8
177 8
176 8
175 8
174 7
173 6
172 6
171 5
170 5
169 5
168 5
167 5
166 5
165 4
164 4
163 4
162 4
161 4
160 4
159 3
158 3
157 3
156 3
155 3
154 3
153 3
152 3
151 3
150 3
149 3
148 3
147 3
146 3
145 3
144 3
143 3
142 3
141 3
140 3
139 3
138 3
137 3
136 3
135 3
134 3
133 3
132 3
131 3
130 2
129 2
128 2
127 2
