105 2
104 3
103 3
102 4
101 4
100 5
99 5
98 6
97 7
96 7
95 8
94 9
93 9
92 9
91 10
90 11
89 11
88 12
87 12
86 13
85 14
84 14
83 14
82 15
81 16
80 16
79 16
78 16
77 17
76 18
75 18
74 18
73 18
72 18
71 19
70 19
69 19
68 20
67 20
66 20
65 20
64 20
63 21
62 21
61 21
60 21
59 21
58 21
57 21
56 21
55 22
54 22
53 22
52 23
51 23
50 23
49 23
48 24
47 24
46 24
45 25
44 25
43 25
42 26
41 26
40 27
39 27
38 27
37 28
36 28
35 28
34 29
33 30
32 30
31 30
30 31
29 32
28 33
27 33
26 34
25 35
24 36
23 36
23 37
22 38
21 39
20 40
19 41
18 42
17 43
16 44
15 45
14 46
14 47
13 48
12 49
11 50
11 51
10 52
9 53
8 54
8 55
8 56
7 57
6 57
5 57
4 57
4 58
3 59
3 60
2 61
1 61
1 62
0 63
0 64
0 65
0 66
1 67
1 68
2 69
2 70
3 71
3 72
4 73
5 74
6 75
6 76
6 77
7 78
7 79
7 80
8 81
8 82
9 83
10 83
11 84
11 85
12 85
13 86
14 87
14 88
14 89
14 90
14 91
14 92
15 92
16 92
17 92
18 92
19 92
20 93
20 94
21 94
22 95
23 96
24 96
25 96
26 97
27 98
28 98
29 98
30 99
31 100
32 100
33 100
34 101
35 101
36 102
37 103
38 103
39 103
40 104
41 105
42 105
43 106
44 106
45 106
46 107
47 107
48 107
49 108
50 108
51 108
52 109
53 110
53 111
53 112
53 113
53 114
52 115
52 116
52 117
52 118
52 119
52 120
52 121
52 122
52 123
52 124
52 125
52 126
52 127
52 128
52 129
53 130
53 131
54 131
55 131
56 130
56 129
57 128
58 127
59 127
60 126
61 127
62 128
63 128
64 127
64 126
65 125
65 124
66 123
67 122
67 121
68 120
69 120
70 120
71 119
72 118
73 117
73 116
74 115
75 115
76 114
77 114
78 114
79 114
80 114
81 114
82 114
83 114
84 114
85 114
86 114
87 114
88 114
89 114
90 114
91 115
91 116
91 117
92 117
93 117
94 117
95 116
95 115
96 114
97 113
98 113
99 113
100 113
101 113
102 113
103 113
104 113
105 113
106 114
107 114
108 115
109 116
110 117
111 118
112 119
113 120
114 121
115 122
115 123
116 124
117 124
118 125
118 126
119 127
120 127
121 128
121 129
122 130
123 131
124 131
125 132
126 132
127 131
127 130
128 129
128 128
129 127
128 127
127 126
126 126
125 125
125 124
126 123
127 122
127 121
128 120
128 119
129 118
130 117
130 116
131 115
132 115
133 114
133 113
134 112
135 112
136 112
137 111
138 110
139 110
140 109
141 108
142 107
143 107
144 106
145 106
146 105
147 104
148 103
149 103
150 102
151 102
152 101
153 101
154 100
155 100
156 99
157 98
158 98
159 98
160 97
161 96
162 96
163 96
164 95
165 95
166 96
167 96
168 96
169 96
170 95
170 94
171 93
171 92
172 91
173 91
174 90
175 90
176 90
177 89
178 89
179 88
180 88
181 88
182 87
183 87
184 87
185 86
186 86
187 87
188 87
189 87
190 86
191 85
192 84
193 85
194 85
195 86
196 86
197 87
198 88
199 88
200 89
201 90
202 90
203 91
204 92
205 92
206 93
207 94
208 95
209 95
210 96
211 97
212 97
213 98
214 99
215 100
216 101
217 101
218 102
219 103
220 103
221 104
222 104
223 105
224 105
225 104
226 103
227 103
228 102
228 101
229 100
229 99
228 99
227 98
228 97
229 96
230 95
231 94
231 93
232 92
233 91
234 90
235 89
236 88
237 87
237 86
238 85
238 84
238 83
238 82
239 81
239 80
239 79
239 78
239 77
239 76
239 75
239 74
239 73
239 72
239 71
238 71
237 70
238 69
238 68
238 67
237 67
236 66
237 65
236 65
235 64
234 63
235 62
235 61
235 60
235 59
234 58
235 57
236 57
237 57
238 56
239 56
240 55
240 54
241 53
241 52
242 51
242 50
242 49
242 48
242 47
242 46
242 45
241 44
240 44
239 45
238 45
237 45
236 45
235 46
234 46
233 46
232 47
231 47
230 47
229 48
228 48
227 48
226 49
225 49
224 49
223 50
222 50
221 50
220 51
219 51
218 52
217 52
216 53
215 53
214 54
213 54
212 55
211 55
210 56
209 57
208 57
207 57
206 58
205 58
204 58
203 59
202 59
201 59
200 59
199 60
198 60
197 61
196 61
195 62
194 61
193 60
192 60
191 60
190 61
189 60
188 60
187 60
186 59
185 59
184 59
183 58
182 58
181 57
180 57
179 56
178 55
177 55
176 54
175 54
174 53
173 53
172 52
171 52
170 51
169 50
168 50
167 49
166 49
165 48
164 48
163 47
162 46
161 46
160 45
159 45
158 44
157 44
156 43
155 43
154 43
153 42
152 42
151 41
150 41
149 40
148 40
147 39
146 38
145 37
144 37
143 37
142 36
141 36
140 36
139 35
138 34
137 33
136 32
135 31
134 31
133 30
132 29
131 29
130 28
129 27
128 27
127 26
126 26
125 25
126 24
125 24
124 23
125 22
124 22
123 21
122 20
123 19
122 19
121 18
120 18
119 17
120 16
119 16
118 15
119 14
119 13
119 12
119 11
118 10
118 9
119 8
119 7
119 6
119 5
120 4
119 4
118 3
117 3
116 3
115 3
114 3
113 3
112 3
111 3
110 4
109 5
108 4
107 3
106 2
