13 2
13 3
13 4
13 5
13 6
13 7
13 8
13 9
13 10
13 11
12 12
12 13
11 14
11 15
11 16
11 17
11 18
12 19
13 20
13 21
14 22
14 23
14 24
14 25
14 26
13 27
12 28
12 29
11 30
10 31
9 32
8 33
7 33
7 34
7 35
6 36
6 37
5 38
4 38
3 39
3 40
3 41
3 42
4 43
5 43
6 43
7 43
8 42
9 42
10 42
11 42
12 41
13 41
14 41
15 40
16 40
17 40
18 40
19 39
20 38
21 37
22 37
23 36
24 36
25 35
26 34
27 34
28 33
29 32
30 32
31 31
32 31
33 30
34 30
35 29
36 29
37 29
38 28
39 27
40 27
41 27
42 27
43 27
44 27
45 27
46 28
47 28
48 28
49 28
50 29
50 30
51 30
52 30
53 31
54 31
55 31
56 32
57 32
58 32
59 32
60 32
61 33
61 34
62 34
63 34
64 35
65 35
66 35
67 36
68 36
69 36
70 36
71 36
72 36
73 35
74 36
75 36
76 37
77 37
78 36
79 36
80 36
81 37
81 38
81 39
81 40
80 41
79 42
78 42
77 43
76 43
75 44
74 44
74 45
74 46
74 47
75 47
76 48
77 48
78 48
79 48
80 48
81 48
82 48
83 48
84 48
85 48
86 48
87 47
88 47
89 47
90 46
91 46
92 45
93 45
94 45
95 44
96 44
97 44
98 44
99 43
100 43
101 43
102 42
103 42
104 41
105 41
106 40
107 40
108 41
109 41
110 41
111 41
112 41
113 41
114 41
115 41
116 41
117 41
118 42
119 42
120 42
121 42
122 42
123 42
124 42
125 43
126 43
127 43
128 43
129 43
130 43
131 43
132 43
133 43
134 43
135 44
136 45
137 45
138 45
139 46
138 47
138 48
138 49
137 50
136 50
135 51
135 52
135 53
135 54
135 55
135 56
135 57
135 58
136 58
137 58
138 58
139 57
140 57
141 56
142 56
143 55
144 54
145 54
146 53
146 52
147 51
148 51
149 50
149 49
150 48
151 47
152 47
153 48
153 49
154 49
155 49
156 49
157 50
156 51
155 52
154 53
153 54
152 55
151 55
150 55
149 56
149 57
149 58
150 58
151 58
152 58
153 58
154 58
155 58
156 57
156 56
157 55
158 55
159 54
160 53
161 52
162 51
163 50
163 49
164 48
164 47
165 46
166 45
167 45
168 45
169 45
170 45
171 45
172 45
173 45
174 45
175 45
176 45
177 45
178 45
179 45
180 45
181 45
182 45
183 45
184 45
185 45
186 45
187 45
188 45
189 45
190 45
191 45
192 45
193 45
194 45
195 45
196 45
197 45
198 45
199 45
200 45
201 45
202 45
203 45
204 45
205 45
206 45
207 45
208 45
209 45
210 45
211 45
212 45
213 45
214 45
215 45
216 45
217 45
218 45
219 45
220 45
221 45
222 45
223 45
224 45
225 45
226 45
227 45
228 45
229 45
230 45
231 45
232 45
233 45
234 45
235 45
236 45
237 45
238 45
239 44
240 44
241 44
242 44
243 44
244 44
245 44
246 44
247 44
248 44
249 44
250 44
251 44
252 44
253 44
254 44
255 44
256 44
257 44
258 44
259 44
260 44
261 44
262 44
263 44
264 44
265 43
266 43
267 43
268 44
269 44
270 44
271 43
272 43
273 43
274 43
275 43
276 43
277 43
278 42
279 42
280 42
281 42
282 42
283 42
284 42
285 42
286 41
287 41
288 41
289 41
290 41
291 40
292 40
293 40
294 40
295 39
296 39
297 39
298 39
299 38
300 38
301 38
302 38
303 38
304 37
305 37
306 37
307 37
308 37
309 37
310 37
311 36
312 36
313 36
314 36
315 36
316 36
317 36
318 36
319 36
320 36
321 36
322 35
323 35
324 35
325 35
326 35
327 35
328 34
329 34
330 34
331 33
331 32
332 31
332 30
331 30
330 29
331 28
330 28
329 27
328 27
327 26
326 26
325 26
324 26
323 26
322 26
321 26
320 26
319 26
318 26
317 26
316 26
315 26
314 26
313 26
312 26
311 26
310 26
309 26
308 26
307 26
306 26
305 26
304 26
303 26
302 26
301 26
300 26
299 27
298 27
297 27
296 27
295 27
294 26
293 26
292 26
291 26
290 26
289 26
288 26
287 26
286 26
285 26
284 26
283 25
282 25
281 25
280 25
279 25
278 25
277 25
276 25
275 25
274 25
273 25
272 25
271 24
270 24
269 24
268 24
267 24
266 24
265 24
264 24
263 24
262 24
261 23
260 23
259 23
258 24
257 23
256 23
255 23
254 23
253 23
252 23
251 23
250 23
249 23
248 23
247 23
246 23
245 23
244 23
243 23
242 23
241 22
240 22
239 22
238 22
237 22
236 22
235 22
234 22
233 22
232 21
231 21
230 21
229 21
228 21
227 21
226 21
225 21
224 21
223 21
222 21
221 21
220 21
219 21
218 21
217 21
216 21
215 21
214 21
213 21
212 21
211 21
210 21
209 21
208 21
207 21
206 21
205 21
204 21
203 21
202 21
201 21
200 21
199 21
198 21
197 21
196 21
195 21
194 21
193 21
192 21
191 21
190 21
189 21
188 21
187 21
186 21
185 21
184 21
183 21
182 21
181 21
180 21
179 21
178 21
177 21
176 21
175 21
174 21
173 21
172 21
171 21
170 21
169 21
168 21
167 21
166 20
165 20
164 20
163 20
162 20
161 20
160 20
159 20
158 20
157 20
156 20
155 20
154 20
153 20
152 20
151 20
150 20
149 20
148 20
147 20
146 20
145 20
144 20
143 20
142 20
141 20
140 20
139 20
138 20
137 20
136 20
135 20
134 20
133 20
132 20
131 20
130 19
129 19
128 19
127 19
126 19
125 19
124 19
123 19
122 19
121 19
120 19
119 19
118 19
117 19
116 19
115 19
114 18
113 18
112 18
111 18
110 18
109 18
108 17
107 17
106 16
105 15
104 14
103 14
102 13
101 13
100 13
99 12
98 12
97 11
96 11
95 10
94 10
93 9
92 9
91 9
90 9
89 9
88 8
87 8
86 8
85 8
84 8
83 8
82 8
81 8
80 8
79 8
79 9
79 10
79 11
79 12
80 12
81 13
82 14
81 15
80 15
79 16
78 16
77 16
76 16
75 17
74 17
73 17
72 17
71 17
70 17
69 17
68 17
67 17
66 17
65 17
64 17
63 17
62 17
61 17
60 17
59 17
58 17
57 17
56 17
55 17
54 16
53 16
52 16
51 16
50 16
49 16
48 16
47 16
46 16
45 16
44 16
43 16
42 16
41 16
40 16
39 16
38 16
37 16
36 16
35 15
34 14
33 13
32 13
31 12
30 11
29 11
28 10
27 9
26 8
25 7
24 7
23 6
22 5
21 5
20 5
19 4
18 3
17 3
16 3
15 2
14 2
