106 2
106 3
106 4
105 5
104 5
104 6
104 7
103 8
102 8
101 8
101 9
100 10
99 11
98 11
98 12
98 13
97 14
96 14
95 14
95 15
94 16
93 16
93 17
93 18
92 19
92 20
92 21
91 22
90 22
89 22
88 22
87 22
86 21
85 21
84 21
83 21
82 20
81 20
80 20
79 19
78 19
77 19
76 19
75 18
74 18
73 17
72 16
71 16
70 16
69 16
68 16
67 17
66 17
65 17
64 17
63 18
62 18
61 19
60 20
60 21
59 22
58 23
58 24
58 25
58 26
58 27
58 28
57 29
56 29
56 30
56 31
56 32
56 33
55 34
54 34
53 34
52 35
51 35
50 35
49 35
48 35
47 35
46 35
45 35
44 35
43 35
42 35
41 35
40 35
39 34
38 34
37 34
36 33
35 33
34 32
33 32
32 31
31 31
30 30
29 29
28 29
27 28
26 27
25 26
24 26
23 25
22 24
21 24
20 23
19 22
18 22
17 22
16 21
15 21
14 20
13 20
12 20
11 19
10 19
9 19
8 19
7 19
6 20
6 21
6 22
6 23
6 24
6 25
6 26
6 27
6 28
6 29
6 30
6 31
6 32
6 33
6 34
6 35
6 36
7 37
7 38
7 39
7 40
7 41
7 42
7 43
6 44
5 45
4 45
4 46
3 47
3 48
3 49
3 50
2 51
2 52
2 53
2 54
2 55
2 56
2 57
2 58
2 59
3 59
4 59
5 59
6 59
7 59
8 59
9 59
10 59
11 59
12 59
13 59
14 59
15 58
16 58
17 58
18 58
19 57
20 57
21 57
22 56
23 56
24 56
25 56
26 55
27 55
28 55
29 55
30 55
31 54
32 54
33 54
34 54
35 55
36 55
37 55
38 55
39 55
40 55
41 55
42 55
43 55
44 55
45 55
46 55
47 55
48 55
49 56
50 56
51 56
52 56
53 56
54 57
54 58
54 59
54 60
54 61
54 62
54 63
54 64
55 65
55 66
55 67
55 68
55 69
56 70
56 71
56 72
56 73
56 74
57 75
58 76
59 76
60 76
61 77
61 78
62 78
63 78
64 78
65 78
66 77
67 78
68 78
69 78
70 77
71 76
71 75
72 74
72 73
73 72
73 71
74 70
75 69
76 69
77 68
78 68
79 67
80 67
81 67
82 67
83 67
84 67
85 67
86 67
87 67
88 67
89 67
90 67
91 67
92 67
93 67
94 67
95 67
96 67
97 67
98 67
99 67
100 67
101 67
102 67
103 66
104 66
105 66
106 66
107 66
108 66
109 66
110 66
111 66
112 65
113 64
114 65
115 65
116 65
117 65
118 65
119 64
120 64
121 64
122 65
122 66
121 67
120 68
120 69
119 70
118 71
118 72
118 73
118 74
119 74
120 74
121 74
122 74
123 73
124 73
125 72
126 72
127 71
128 71
129 70
130 71
130 72
130 73
130 74
130 75
130 76
131 76
132 76
133 76
134 77
135 77
136 77
137 76
137 75
138 74
138 73
139 72
140 71
140 70
141 69
141 68
141 67
142 66
142 65
142 64
142 63
143 62
143 61
143 60
144 59
145 59
146 58
147 58
148 58
149 57
150 57
151 57
152 56
153 56
154 56
155 55
156 55
157 55
158 54
159 54
160 53
161 53
162 52
163 52
164 51
165 51
166 50
166 49
167 48
168 47
169 47
170 47
171 47
172 46
173 45
174 45
175 44
176 43
177 42
178 41
179 41
180 40
180 39
181 38
182 38
183 37
183 36
184 35
185 34
185 33
186 32
186 31
187 30
187 29
188 28
188 27
188 26
188 25
187 25
186 24
185 23
184 22
183 21
182 21
181 21
180 21
179 21
178 21
177 21
176 21
175 21
174 21
173 21
172 21
171 21
170 21
169 21
168 21
167 21
166 21
165 20
164 20
163 20
162 20
161 20
160 19
159 19
158 19
157 19
156 19
155 19
154 19
153 18
152 18
151 18
150 18
149 18
148 18
147 17
146 17
145 17
144 17
143 17
142 17
141 16
140 16
139 16
138 16
137 16
136 16
135 16
134 16
133 16
132 15
131 14
132 13
132 12
131 12
130 11
129 10
128 10
127 10
126 9
125 9
124 8
123 7
124 6
123 6
122 5
121 5
120 5
119 5
118 5
117 4
116 3
115 3
114 3
113 3
113 4
112 5
111 5
110 4
109 3
108 2
107 2
