183 2
182 3
181 3
180 3
179 3
178 3
177 4
176 4
175 4
174 4
173 4
172 4
171 4
170 4
169 4
168 4
167 4
166 4
165 4
164 4
163 5
162 5
161 5
160 5
159 5
158 5
157 6
156 6
155 6
154 6
153 6
152 6
151 6
150 6
149 6
148 6
147 7
146 7
145 8
144 8
143 8
142 8
141 8
140 8
139 8
138 8
137 9
136 9
135 9
134 10
133 10
132 10
131 10
130 10
129 10
128 11
127 11
126 12
125 12
124 12
123 12
122 12
121 12
120 12
119 13
118 14
117 14
116 14
115 14
114 14
113 15
112 15
111 16
110 16
109 16
108 17
107 17
106 17
105 17
104 17
103 18
102 18
102 19
101 20
100 20
99 20
98 20
98 21
97 22
96 23
95 23
94 23
93 23
92 23
91 24
90 24
89 24
88 25
87 25
86 26
85 26
84 26
83 26
82 27
81 28
80 28
79 29
78 29
77 29
76 30
75 30
74 31
73 32
72 32
71 32
70 33
69 34
68 35
67 35
66 35
66 36
65 37
64 37
63 37
62 38
61 38
60 38
59 38
59 39
59 40
58 41
57 42
56 42
55 42
54 42
53 41
52 41
51 41
50 41
49 40
48 40
47 40
46 40
45 39
44 39
43 38
42 38
41 38
40 38
39 38
38 37
37 37
36 36
35 36
34 35
33 35
32 35
31 34
30 34
29 34
28 33
27 33
26 32
25 32
24 32
23 32
22 32
21 32
20 31
19 31
18 30
17 30
16 30
15 30
14 30
13 29
12 29
11 29
10 29
9 29
8 29
7 29
6 29
5 29
4 29
3 29
3 30
3 31
3 32
3 33
3 34
3 35
3 36
3 37
3 38
3 39
3 40
3 41
3 42
3 43
3 44
3 45
3 46
3 47
3 48
3 49
3 50
3 51
3 52
3 53
3 54
2 55
2 56
2 57
2 58
2 59
2 60
2 61
2 62
2 63
2 64
2 65
2 66
2 67
2 68
2 69
2 70
2 71
2 72
2 73
2 74
2 75
2 76
2 77
3 78
3 79
3 80
3 81
3 82
3 83
3 84
4 85
4 86
5 87
5 88
6 89
6 90
6 91
6 92
6 93
6 94
6 95
6 96
6 97
7 98
8 98
9 98
10 98
11 98
12 98
13 98
14 98
15 98
16 98
17 97
18 97
19 97
20 96
21 96
22 96
23 96
24 95
25 95
26 95
27 94
28 93
29 93
30 93
31 92
32 91
33 91
34 91
35 90
36 89
37 89
38 88
39 88
40 87
41 87
42 87
43 87
44 86
45 86
46 85
47 85
48 85
49 85
50 84
51 84
52 83
53 83
54 82
55 82
56 82
57 83
58 83
59 84
60 84
61 85
62 85
63 86
64 86
65 86
66 87
67 87
68 88
69 88
70 89
71 90
72 91
73 91
74 92
75 92
76 92
77 93
78 93
79 94
80 94
81 95
82 95
83 96
84 96
85 96
86 97
86 98
87 98
88 99
89 99
90 100
91 100
92 101
93 102
94 103
95 103
96 103
97 104
98 104
99 105
100 105
101 105
102 105
103 106
104 106
105 106
106 107
107 107
108 107
109 108
110 108
111 108
112 109
113 110
114 110
115 110
116 110
117 110
118 110
119 111
119 112
120 112
121 112
122 112
123 112
124 112
125 112
126 112
127 112
128 111
129 111
130 110
131 110
132 110
133 110
134 110
135 110
136 110
137 109
138 108
139 107
140 106
141 105
142 105
143 104
144 104
145 104
146 105
147 105
148 105
149 105
150 106
151 106
152 106
153 107
154 107
155 107
156 107
157 107
158 107
159 107
160 107
161 107
162 107
163 107
164 108
165 108
166 108
167 109
167 110
166 111
166 112
166 113
165 114
164 115
163 115
163 116
163 117
163 118
162 119
162 120
162 121
162 122
162 123
161 124
161 125
161 126
161 127
161 128
161 129
162 129
163 130
163 131
163 132
164 132
165 132
166 132
167 132
168 131
169 131
170 130
171 130
172 130
173 129
174 129
175 129
176 128
177 127
178 128
179 128
180 128
181 128
182 128
183 127
184 127
185 126
186 125
187 124
188 123
188 122
189 121
189 120
190 119
191 118
192 117
193 116
194 115
195 114
195 113
196 112
197 111
198 110
198 109
199 108
200 107
201 107
202 107
203 106
204 106
205 106
206 106
207 105
208 105
209 105
210 105
211 104
212 104
213 103
214 103
215 103
216 102
217 102
218 102
219 102
220 102
221 101
222 101
223 101
224 100
225 100
226 100
227 99
228 99
229 99
230 98
231 98
232 98
233 98
234 97
235 97
236 96
237 96
238 96
239 95
240 95
241 95
242 94
243 94
244 94
245 94
246 94
247 93
248 93
249 92
250 92
251 92
252 92
253 91
254 91
255 91
256 91
257 90
258 90
259 89
260 89
261 89
262 89
263 89
264 88
265 88
266 88
267 88
268 88
269 87
270 87
271 86
272 86
273 86
274 85
275 84
276 83
277 82
278 82
279 81
279 80
280 79
280 78
280 77
280 76
280 75
279 75
278 74
277 73
277 72
278 71
279 70
280 69
281 69
282 68
282 67
283 66
283 65
283 64
283 63
282 63
281 62
282 61
281 61
280 60
279 59
280 58
280 57
279 57
278 56
279 55
278 55
277 54
276 53
277 52
276 52
275 51
274 50
273 49
274 48
273 48
272 47
271 47
270 46
271 45
270 45
269 44
268 43
267 42
268 41
267 41
266 40
265 39
264 38
263 37
262 36
261 35
260 34
259 34
258 33
257 32
258 31
257 31
256 30
255 29
254 29
253 28
252 27
251 27
250 26
249 25
248 25
247 24
246 23
245 23
244 22
243 22
242 22
241 21
240 21
239 20
238 20
237 20
236 20
235 19
234 19
233 18
232 18
231 18
230 18
229 17
228 17
227 17
226 16
225 16
224 16
223 16
222 16
221 15
220 15
219 15
218 14
217 14
216 14
215 14
214 14
213 14
212 13
211 13
210 13
209 12
208 12
207 12
206 11
207 10
206 10
205 9
206 8
205 8
204 7
203 6
202 6
201 6
200 6
199 6
198 6
197 7
196 6
195 5
194 4
193 3
192 2
191 2
190 2
189 2
188 2
187 2
186 2
185 2
184 2
