118 4
118 5
117 6
116 5
116 6
115 7
114 8
113 9
112 8
112 9
111 10
111 11
110 12
109 13
108 14
107 13
107 14
106 15
105 16
105 17
104 18
103 19
102 20
101 21
100 22
99 23
98 24
97 23
97 24
96 25
95 26
94 27
93 28
92 29
91 28
90 28
89 28
88 28
88 29
87 30
86 29
85 29
84 29
83 29
82 29
81 29
80 29
79 29
78 29
77 29
76 29
75 29
74 29
74 30
73 31
72 30
71 30
70 30
69 30
69 31
68 32
67 31
66 31
65 31
64 31
64 32
63 33
62 32
61 32
60 32
59 32
58 32
58 33
57 34
56 33
55 33
54 33
53 33
53 34
52 35
51 34
50 34
49 34
48 34
47 34
47 35
46 36
45 35
45 36
44 37
43 36
43 37
42 38
41 37
40 37
39 37
38 37
37 37
37 38
36 39
35 38
34 38
33 38
33 39
32 40
31 39
30 39
29 39
29 40
28 41
27 40
26 40
25 40
24 40
24 41
23 42
22 41
21 41
20 41
20 42
19 43
18 42
17 42
17 43
16 44
15 43
14 43
14 44
13 45
12 46
11 47
10 46
9 46
9 47
8 48
7 49
7 50
7 51
7 52
7 53
7 54
6 55
6 56
5 57
4 56
3 56
3 57
2 58
2 59
2 60
2 61
2 62
3 63
4 64
5 64
6 65
7 66
8 67
9 68
10 68
11 69
12 69
13 70
14 71
14 72
15 72
16 73
17 74
18 75
19 76
20 77
21 77
22 77
23 77
24 77
25 78
26 78
27 79
28 79
29 80
30 81
31 81
32 81
33 81
34 82
35 83
36 83
37 84
38 84
39 85
40 86
41 86
42 86
43 86
44 87
45 87
46 87
47 88
48 88
49 88
50 88
51 89
52 89
53 90
54 90
55 91
56 91
57 91
58 91
59 91
60 92
61 92
62 92
63 92
64 92
65 92
66 93
67 93
68 93
69 93
70 93
71 93
72 93
73 93
74 94
75 94
76 94
77 94
78 95
79 95
80 95
81 95
82 94
83 95
83 96
84 96
85 96
86 96
87 96
88 96
89 96
90 96
91 96
92 96
93 96
94 96
95 96
96 96
97 96
98 96
99 96
100 96
101 96
102 97
102 98
102 99
102 100
103 100
104 100
105 100
106 99
107 99
108 99
109 98
110 97
111 96
112 96
113 96
114 96
115 96
116 96
117 95
118 95
119 95
120 95
121 94
122 94
123 94
124 93
125 93
126 93
127 93
128 93
129 93
130 92
131 92
132 92
133 92
134 92
135 92
136 92
137 92
138 92
139 92
140 91
141 90
142 90
143 90
144 90
145 89
146 88
147 88
148 88
149 88
150 88
151 88
152 88
153 87
154 86
155 86
156 86
157 86
158 86
159 86
160 86
161 86
162 86
163 86
164 87
165 87
166 87
167 87
168 86
169 86
170 86
171 85
171 84
171 83
170 82
171 81
172 81
173 81
174 80
175 80
176 80
177 79
178 79
179 78
180 78
181 78
182 77
183 77
184 76
185 75
186 74
187 74
188 73
189 73
190 72
191 72
192 72
193 72
194 72
195 72
196 72
197 72
198 72
199 72
200 73
201 73
202 73
203 73
204 73
205 74
206 74
207 74
208 74
209 74
210 75
211 75
212 75
213 76
214 76
215 77
216 77
217 77
218 77
219 78
220 78
221 79
222 79
223 79
224 79
225 80
226 80
227 80
228 80
229 80
230 81
231 81
232 81
233 81
234 82
235 82
236 82
237 82
238 83
239 83
240 83
241 83
242 84
243 85
244 85
245 86
246 86
247 86
248 86
249 86
250 87
251 87
252 87
253 87
254 87
255 87
256 87
257 87
258 87
259 87
260 87
261 86
261 85
261 84
260 83
260 82
259 81
258 81
257 80
256 80
255 79
254 79
253 78
252 77
251 77
250 76
249 76
248 76
247 75
247 74
246 73
245 72
244 72
243 71
242 71
241 71
240 70
239 69
238 68
237 68
236 67
235 67
234 67
233 66
232 66
231 65
230 65
229 65
228 64
227 64
226 63
225 63
224 62
223 62
222 62
221 61
222 60
223 60
224 60
225 60
226 60
227 59
228 58
229 57
230 56
231 55
232 55
233 54
234 54
235 54
236 53
237 53
237 52
238 51
239 51
240 50
241 50
242 49
243 49
244 48
245 48
245 47
246 46
247 45
248 45
249 44
250 44
251 43
252 42
253 42
254 41
255 40
256 40
257 39
257 38
257 37
258 36
258 35
257 34
256 34
255 33
254 33
253 33
252 33
251 33
250 33
249 33
248 33
247 33
246 33
245 33
245 34
244 35
243 34
242 34
241 34
241 35
240 36
239 35
238 35
238 36
237 37
236 36
236 37
235 38
234 37
233 37
233 38
232 39
231 38
230 38
229 38
229 39
228 40
227 39
226 39
226 40
225 41
224 40
223 40
223 41
222 42
221 41
220 41
219 41
219 42
218 43
217 42
216 42
216 43
215 44
214 43
213 43
213 44
212 45
211 44
211 45
210 46
209 45
209 46
208 47
207 46
206 46
205 46
205 47
204 48
203 47
202 47
201 47
201 48
200 49
199 48
198 48
197 48
196 48
195 48
194 48
193 49
192 49
191 48
190 48
189 48
188 47
187 47
186 47
185 47
184 46
183 46
182 46
181 46
180 45
179 45
178 45
177 44
176 44
175 43
174 43
173 43
172 43
171 43
170 43
169 42
168 42
167 42
166 42
165 42
164 41
163 41
162 41
161 41
160 41
159 40
158 40
157 40
156 40
155 40
154 40
153 39
152 39
151 39
150 39
149 39
148 39
147 38
146 38
145 38
144 38
143 38
142 37
141 37
140 37
139 37
138 37
137 36
136 36
135 35
134 35
133 35
132 34
131 33
130 32
129 31
128 31
127 30
127 29
127 28
126 27
126 26
126 25
126 24
125 23
125 22
125 21
125 20
124 19
123 19
122 18
121 18
120 17
121 16
122 16
123 16
123 15
124 14
124 13
124 12
124 11
124 10
123 9
123 8
123 7
122 6
121 5
120 5
119 4
