153 2
153 3
153 4
153 5
153 6
153 7
153 8
153 9
153 10
152 11
151 10
150 9
149 8
148 8
147 7
146 7
145 7
145 8
145 9
144 10
143 11
142 10
141 9
142 8
141 8
140 7
139 7
138 7
137 6
136 6
135 6
134 6
133 6
132 7
131 7
130 7
129 7
128 6
127 6
126 6
125 6
124 6
124 7
123 8
122 8
121 7
120 7
119 7
118 7
117 7
116 7
115 7
114 7
113 8
112 8
111 8
110 8
109 8
109 9
109 10
108 11
107 10
106 10
105 10
104 10
104 11
104 12
104 13
105 14
106 14
107 15
107 16
107 17
108 18
109 19
110 20
109 21
108 21
107 20
106 20
105 19
104 19
103 19
102 18
101 18
100 17
99 17
98 17
97 16
96 16
95 16
94 16
93 16
92 16
91 16
90 16
89 16
88 15
87 15
86 15
86 16
85 17
84 17
83 17
82 17
81 17
81 18
80 19
79 19
78 19
78 20
78 21
78 22
79 22
80 23
79 24
78 24
77 24
76 24
75 23
74 23
73 23
72 23
71 23
71 24
71 25
71 26
70 27
69 27
68 27
67 26
66 26
65 26
64 26
64 27
64 28
63 29
62 29
61 29
60 29
59 29
58 30
57 30
56 30
55 31
54 31
53 31
52 31
51 31
50 31
49 31
48 32
47 32
47 33
47 34
47 35
48 35
49 36
50 36
51 37
52 37
53 37
54 38
55 38
56 38
57 38
58 38
59 38
60 39
61 39
62 39
63 39
64 39
65 40
66 40
67 40
68 40
69 41
68 42
67 42
66 42
65 42
64 43
63 43
62 43
61 43
60 44
59 44
58 44
57 44
56 44
55 44
54 43
53 43
52 43
51 42
50 42
49 42
48 42
47 41
46 41
45 41
44 40
43 40
42 40
41 40
40 39
39 39
38 38
37 38
36 38
35 37
34 37
33 37
32 36
31 36
30 35
29 35
28 35
27 35
26 34
25 34
24 34
23 33
22 33
21 33
20 33
19 32
18 32
17 32
16 32
15 31
14 31
13 31
12 31
11 31
10 31
9 31
8 31
7 30
6 30
5 30
4 31
4 32
4 33
4 34
5 34
6 35
7 36
7 37
7 38
7 39
7 40
7 41
6 42
6 43
5 44
5 45
4 46
4 47
4 48
3 49
3 50
2 51
2 52
2 53
2 54
2 55
3 56
3 57
4 58
5 59
6 60
7 61
7 62
6 63
6 64
6 65
6 66
7 67
7 68
7 69
7 70
8 70
9 71
8 72
7 72
7 73
6 74
5 75
4 75
4 76
4 77
4 78
5 78
6 78
7 78
8 78
9 78
10 78
11 78
12 78
13 78
14 78
15 78
16 78
17 78
18 78
19 78
20 77
21 77
22 77
23 77
24 77
25 77
26 77
27 77
28 76
29 76
30 76
31 76
32 76
33 75
34 75
35 75
36 75
37 74
38 74
39 74
40 74
41 74
42 74
43 73
44 73
45 73
46 73
47 73
48 72
49 72
50 72
51 72
52 72
53 71
54 71
55 71
56 71
57 70
58 70
59 70
60 70
61 70
62 70
63 71
64 72
65 72
66 73
67 74
67 75
68 75
69 76
70 77
70 78
71 78
72 79
73 79
74 80
75 81
76 82
77 83
78 83
79 84
80 84
81 85
81 86
82 87
83 88
84 88
85 89
86 89
87 89
88 90
89 90
90 91
91 92
91 93
92 93
93 93
94 93
95 93
96 93
97 93
98 93
99 94
99 95
99 96
100 96
101 96
102 96
103 97
104 98
105 98
106 98
107 98
108 98
109 98
110 98
111 98
112 99
113 100
113 101
114 101
115 101
116 101
117 101
118 101
119 101
120 100
121 99
122 99
123 100
124 100
125 100
126 99
127 99
128 98
129 97
130 96
131 95
131 94
132 93
133 92
134 91
134 90
135 89
136 88
137 87
138 87
139 86
140 85
141 85
142 85
143 85
144 85
145 85
146 86
147 86
148 86
149 86
150 86
151 86
152 87
153 87
154 87
155 87
156 87
157 88
158 88
159 88
160 88
161 88
162 88
163 88
164 89
165 89
166 89
167 89
168 89
169 89
170 89
171 88
172 88
173 88
174 88
175 89
174 90
173 91
172 91
171 92
171 93
170 94
170 95
170 96
170 97
170 98
170 99
170 100
170 101
169 102
169 103
169 104
169 105
169 106
170 107
170 108
170 109
171 110
172 111
172 112
173 113
174 113
175 113
176 113
177 113
178 113
179 113
180 113
181 113
182 113
183 113
184 112
185 111
186 110
186 109
187 108
188 108
189 107
189 106
190 105
190 104
191 103
191 102
191 101
192 100
192 99
193 98
193 97
194 96
194 95
194 94
195 93
195 92
195 91
195 90
196 89
197 89
198 89
199 89
200 89
201 88
202 88
203 88
204 87
205 87
206 86
207 86
208 86
209 86
210 85
211 85
212 85
213 85
214 85
215 84
216 84
217 83
218 83
219 83
220 83
221 83
222 84
223 84
224 84
225 84
226 84
227 84
228 84
229 83
230 82
231 81
232 81
233 80
234 80
235 79
236 79
237 79
238 79
239 78
240 78
241 77
242 77
243 77
244 77
245 76
246 76
247 76
248 76
249 76
250 76
251 76
252 76
253 75
254 75
255 75
256 75
257 75
258 75
259 75
260 75
261 75
262 75
263 75
264 74
264 73
265 72
265 71
265 70
265 69
264 69
263 68
262 67
261 66
262 65
262 64
262 63
262 62
262 61
263 60
263 59
264 58
265 57
265 56
266 55
266 54
267 53
267 52
267 51
267 50
267 49
267 48
266 48
265 47
264 47
263 46
264 45
263 45
262 44
261 43
260 42
259 41
258 40
257 40
256 39
255 38
254 37
255 36
254 36
253 35
252 34
253 33
252 33
251 32
250 31
249 31
248 30
247 29
246 28
245 27
244 26
243 25
242 25
241 24
240 23
239 22
238 22
237 22
236 21
235 21
234 21
233 21
232 21
231 21
230 21
229 21
228 21
227 21
226 21
225 21
224 21
223 21
222 21
221 21
220 21
219 21
218 22
217 22
216 22
215 22
214 22
213 22
212 22
211 22
210 22
209 22
208 22
207 22
206 22
205 22
204 22
203 22
202 22
201 22
200 21
201 20
201 19
200 19
199 18
198 18
197 18
196 18
195 17
196 16
196 15
196 14
195 14
194 13
193 13
192 13
191 14
190 15
189 14
188 14
187 13
186 13
185 12
186 11
186 10
186 9
185 9
184 8
183 7
182 7
181 7
181 8
181 9
180 10
180 11
180 12
180 13
179 14
178 14
177 14
176 14
175 13
176 12
175 12
174 11
173 10
172 10
171 10
170 10
169 10
169 11
169 12
168 13
167 13
166 13
165 14
164 14
163 14
162 14
161 14
160 13
161 12
160 12
159 11
158 11
157 10
158 9
157 9
156 8
155 7
156 6
156 5
156 4
156 3
155 3
154 2
