65 2
65 3
65 4
65 5
65 6
65 7
66 8
67 9
66 10
65 10
64 11
63 10
62 10
61 10
60 9
59 8
58 8
57 8
57 9
56 10
56 11
56 12
56 13
55 14
54 15
53 15
52 15
51 15
50 15
49 15
48 16
47 17
46 16
45 16
44 15
43 15
42 15
41 14
40 13
39 13
38 13
37 12
36 11
35 11
34 10
33 9
32 9
31 8
30 8
29 7
28 7
27 7
26 6
25 6
24 6
23 5
22 5
21 4
20 4
19 4
18 4
17 4
16 4
15 4
14 4
13 4
12 4
11 4
10 4
10 5
10 6
10 7
11 7
12 7
13 7
14 7
15 7
16 7
17 7
18 8
18 9
18 10
18 11
18 12
18 13
19 13
20 13
21 13
22 13
23 14
23 15
23 16
23 17
24 17
25 18
25 19
26 19
27 19
28 19
29 20
28 21
28 22
27 23
26 23
25 24
24 24
23 25
22 26
21 26
20 26
19 26
18 27
17 28
16 28
15 29
14 29
14 30
13 31
12 31
12 32
11 33
10 33
9 34
8 34
8 35
7 36
6 37
5 37
5 38
5 39
5 40
6 41
5 42
4 42
3 42
2 42
2 43
2 44
2 45
3 45
4 45
5 45
6 45
7 45
8 45
9 44
10 44
11 44
12 43
13 43
14 43
15 42
16 42
17 41
18 41
19 40
20 40
21 39
22 39
23 38
24 38
25 37
26 37
27 36
28 36
29 36
30 35
31 35
32 34
33 34
34 33
35 33
36 32
37 32
38 31
39 31
40 31
41 30
42 30
43 29
44 29
45 30
46 30
47 30
48 30
49 30
50 31
51 31
52 32
53 32
54 33
54 34
54 35
54 36
55 37
55 38
56 39
57 39
58 39
59 38
60 38
61 38
62 38
63 38
64 39
63 40
62 41
62 42
62 43
63 43
64 43
65 43
66 43
67 43
68 42
69 42
70 42
71 42
72 41
72 40
73 39
74 40
74 41
75 41
76 42
77 42
78 42
79 42
80 42
81 41
82 41
83 41
84 41
85 41
86 42
86 43
87 43
88 43
89 43
90 42
91 41
92 41
93 40
94 40
95 40
96 40
97 40
98 40
99 40
100 40
101 40
102 40
103 40
104 40
105 40
106 40
107 40
108 40
109 40
110 40
111 40
112 40
113 40
114 40
115 40
116 40
117 40
118 40
119 39
120 39
121 39
122 39
123 39
124 39
125 39
126 39
127 39
128 39
129 38
130 38
131 38
132 38
133 38
134 38
135 38
136 38
137 38
138 38
139 37
140 37
141 37
142 37
143 37
144 37
145 37
146 36
147 36
148 36
149 36
150 35
151 35
152 35
153 35
154 35
155 34
156 33
156 32
157 31
158 30
159 31
159 32
160 32
161 32
162 32
163 31
164 31
165 31
166 31
167 30
168 30
169 29
170 29
171 28
172 27
173 26
174 26
175 25
175 24
176 23
175 23
174 22
173 21
174 20
174 19
173 19
172 18
171 18
170 17
169 16
168 16
167 15
166 15
165 15
164 15
163 14
162 14
161 14
160 13
159 13
158 13
157 13
156 13
155 13
154 12
153 12
152 12
151 12
150 12
149 11
148 11
147 11
146 11
145 11
144 11
143 11
142 10
141 10
140 10
139 10
138 10
137 10
136 10
135 10
134 10
133 10
132 10
131 10
130 10
129 10
128 10
127 10
126 10
125 10
124 10
123 10
122 10
121 10
120 10
119 9
118 9
117 9
116 9
115 9
114 9
113 9
112 10
111 10
110 10
109 10
108 10
107 10
106 10
105 10
104 10
103 10
102 10
101 10
100 10
99 10
98 10
97 10
96 10
95 10
94 10
93 10
92 10
91 10
90 10
89 10
88 10
87 10
86 10
85 10
84 11
83 11
82 11
81 11
80 11
79 11
78 10
77 9
76 8
75 7
76 6
75 6
74 5
73 4
72 3
71 2
70 2
69 2
68 3
67 2
66 2
