170 5
169 6
169 7
168 8
167 7
166 7
166 8
165 9
164 8
164 9
163 10
163 11
163 12
162 13
162 14
162 15
162 16
161 17
160 16
160 17
159 18
158 19
157 18
157 19
156 20
155 21
154 20
153 20
152 20
151 20
151 21
150 22
149 21
148 21
147 21
146 21
145 21
144 21
143 21
142 21
141 21
140 21
139 21
138 21
137 21
136 21
136 22
135 23
134 22
133 22
132 22
131 22
130 22
129 22
128 22
127 22
126 22
125 22
124 22
123 22
122 22
121 22
120 22
119 22
118 22
117 22
116 22
115 22
114 22
113 22
112 22
111 22
110 22
109 22
108 22
108 23
107 24
106 23
105 23
104 23
103 23
102 23
102 24
101 25
100 24
99 24
98 24
97 24
97 25
96 26
95 25
94 25
93 25
92 25
91 25
90 25
89 24
88 23
87 23
86 22
85 22
85 23
84 24
84 25
85 26
84 27
83 28
82 27
81 27
80 27
79 27
79 28
78 29
77 28
77 29
76 30
75 29
75 30
74 31
73 30
72 30
71 30
71 31
70 32
69 31
68 31
67 31
66 31
65 31
64 31
63 31
63 32
62 33
61 32
60 32
60 33
59 34
58 33
57 33
56 33
55 33
54 32
53 32
52 32
51 32
50 31
49 31
48 31
47 31
46 30
45 30
44 30
43 29
42 28
41 28
40 27
39 27
38 27
37 26
36 26
35 25
34 25
33 24
32 23
31 23
30 22
29 22
28 22
27 21
26 21
25 20
24 19
23 19
22 18
21 18
20 17
19 17
18 16
17 16
16 15
15 14
14 14
13 13
12 13
11 12
10 12
10 13
9 14
9 15
9 16
9 17
10 18
10 19
10 20
11 21
12 22
12 23
13 24
14 24
15 24
16 25
17 26
17 27
18 27
19 27
20 28
20 29
20 30
21 31
21 32
21 33
21 34
22 34
23 35
23 36
23 37
22 38
21 39
20 40
20 41
20 42
19 43
18 42
17 42
16 42
15 42
14 42
13 42
12 42
11 42
10 42
10 43
9 44
9 45
10 46
9 47
8 48
7 49
6 48
5 48
4 48
3 48
3 49
2 50
2 51
2 52
2 53
2 54
3 54
4 55
5 55
6 55
7 55
8 56
8 57
8 58
9 58
10 58
11 58
12 58
13 58
14 58
15 58
16 58
17 57
18 57
19 57
20 57
21 57
22 57
23 56
24 56
25 56
26 56
27 56
28 56
29 56
30 55
31 55
32 55
33 54
34 54
35 54
36 53
37 53
38 53
39 53
40 53
41 53
42 52
43 52
44 52
45 52
46 52
47 52
48 52
49 52
50 52
51 52
52 52
53 52
54 52
55 53
56 53
57 53
58 53
59 53
60 54
61 54
62 55
63 56
64 56
65 56
66 56
67 57
68 57
69 57
70 57
71 57
72 57
73 58
74 58
75 58
76 58
77 59
78 59
79 59
80 59
81 59
82 60
83 60
84 60
85 60
86 61
87 61
88 61
89 61
90 61
91 62
92 62
93 62
94 62
95 62
96 63
97 63
98 63
99 64
100 64
101 65
102 65
103 65
104 65
105 65
106 66
107 66
108 66
109 66
110 66
111 66
112 66
113 67
114 67
115 67
116 67
117 67
118 67
119 68
120 68
121 68
122 68
123 69
124 69
125 69
126 70
127 70
128 70
129 70
130 70
131 70
132 70
133 70
134 70
135 70
136 71
137 71
138 71
139 71
140 72
141 72
142 72
143 72
144 72
145 72
146 72
147 72
148 72
149 73
150 73
151 73
152 73
153 73
154 73
155 74
156 75
156 76
157 76
158 76
159 76
160 75
161 75
162 76
162 77
163 78
164 78
165 79
164 80
163 81
162 82
162 83
162 84
163 84
164 85
164 86
164 87
165 87
166 87
167 87
168 88
168 89
167 90
167 91
167 92
167 93
167 94
167 95
168 95
169 96
169 97
169 98
170 98
171 98
172 98
173 98
174 98
175 98
176 98
176 97
176 96
177 95
177 94
177 93
177 92
177 91
178 90
178 89
178 88
178 87
179 86
179 85
180 84
180 83
180 82
180 81
181 80
181 79
182 78
182 77
183 76
184 75
184 74
185 73
186 72
187 71
188 71
189 71
190 71
191 71
192 71
193 71
194 71
195 71
196 71
197 71
198 71
199 71
200 71
201 71
202 71
203 71
204 70
205 70
206 70
207 70
208 70
209 70
210 70
211 70
212 70
213 70
214 70
215 70
216 70
217 69
218 69
219 69
220 69
221 69
222 69
223 69
224 68
225 68
226 68
227 68
228 67
229 67
230 67
231 67
232 67
233 67
234 67
235 67
236 66
237 66
238 66
239 66
240 66
241 66
242 66
243 65
244 65
245 65
246 65
247 65
248 65
249 64
250 64
251 64
252 64
253 63
254 63
255 63
256 62
257 62
258 62
259 62
260 62
261 61
262 61
263 61
264 61
265 61
266 60
267 60
268 60
269 60
270 60
271 59
272 59
273 59
274 59
275 58
276 58
277 58
278 58
279 57
280 57
281 57
282 57
283 56
284 56
285 56
286 55
287 55
288 54
289 53
290 53
291 53
292 52
293 52
294 51
294 50
294 49
294 48
295 47
296 46
296 45
296 44
296 43
295 42
295 41
294 40
293 39
292 39
291 38
290 38
289 37
288 37
287 36
286 36
285 35
284 34
283 33
282 33
281 32
280 32
279 31
278 31
277 31
276 30
275 30
274 30
273 30
272 29
271 29
270 28
269 28
268 27
267 27
266 27
265 27
264 26
263 26
262 26
261 26
260 26
259 26
258 26
257 25
256 25
255 25
254 25
253 25
252 25
251 25
250 25
249 25
248 25
247 25
246 25
245 24
244 24
243 24
242 23
241 23
240 22
239 22
238 22
237 22
236 22
235 22
234 22
233 22
232 22
231 21
230 21
229 21
228 21
227 21
226 21
225 21
224 21
223 21
222 21
221 21
220 21
219 20
218 20
217 20
216 20
215 20
214 20
213 20
212 20
211 20
210 20
209 20
208 20
207 20
206 20
205 19
204 19
203 19
202 19
201 19
200 19
199 19
198 19
197 19
196 19
195 19
194 19
193 19
192 19
191 19
190 19
189 19
188 19
187 19
186 19
185 19
184 19
183 19
182 19
181 19
180 19
179 19
178 19
177 18
177 17
177 16
177 15
177 14
177 13
177 12
176 11
176 10
176 9
175 8
174 7
173 7
172 6
171 5
