88 4
88 5
87 6
86 7
85 8
85 9
85 10
85 11
84 12
83 12
82 12
81 11
80 11
79 11
78 10
77 10
76 10
76 11
75 12
75 13
75 14
75 15
74 16
73 15
72 15
72 16
71 17
70 16
69 16
68 16
67 16
66 16
65 16
64 16
63 16
62 16
61 16
60 16
59 16
59 17
58 18
57 17
56 17
55 17
54 17
53 17
52 17
52 18
51 19
50 18
49 18
48 18
47 18
46 18
45 18
45 19
44 20
43 19
42 19
41 19
40 19
39 19
38 19
37 19
36 19
35 19
34 19
33 19
33 20
32 21
31 20
30 20
30 21
29 22
28 21
27 21
26 21
25 21
25 22
24 23
23 22
22 22
21 22
20 21
19 20
18 20
17 19
16 19
15 19
14 18
13 18
12 17
11 17
10 16
9 15
8 15
7 14
6 14
5 14
4 14
3 13
3 14
2 15
2 16
3 17
4 17
5 18
5 19
6 20
6 21
7 22
8 23
8 24
9 25
9 26
10 26
11 27
11 28
11 29
10 30
9 29
9 30
8 31
7 32
7 33
6 34
5 35
5 36
5 37
5 38
6 38
7 38
8 38
9 38
10 38
11 38
12 37
13 37
14 36
15 36
16 36
17 36
18 36
19 35
20 35
21 35
22 35
23 35
24 35
25 35
26 35
27 35
28 35
29 35
30 35
31 35
32 35
33 35
34 35
35 36
36 36
37 36
38 36
39 36
40 36
41 36
42 36
43 36
44 36
45 36
46 36
47 36
48 36
49 36
50 36
51 36
52 36
53 37
54 37
55 37
56 37
57 37
58 37
59 37
60 37
61 37
62 37
63 37
64 37
65 37
66 37
67 37
68 37
69 37
70 37
71 38
72 38
73 38
74 38
75 38
76 38
77 38
78 38
79 38
80 38
81 39
81 40
81 41
82 42
83 42
84 43
84 44
84 45
84 46
85 46
86 47
86 48
86 49
86 50
87 51
88 51
89 51
90 51
91 52
91 53
92 54
93 55
93 56
94 56
95 56
96 56
97 56
98 56
99 56
100 56
101 55
102 55
103 55
104 55
104 54
104 53
104 52
104 51
104 50
105 49
105 48
105 47
105 46
105 45
105 44
105 43
105 42
105 41
105 40
105 39
106 38
107 37
108 37
109 37
110 37
111 37
112 37
113 37
114 37
115 37
116 37
117 37
118 37
119 37
120 37
121 37
122 37
123 37
124 37
125 37
126 37
127 37
128 37
129 37
130 37
131 37
132 36
133 36
134 36
135 36
136 37
137 37
138 37
139 37
140 36
141 36
142 36
143 36
144 36
145 36
146 35
147 35
148 35
149 35
150 35
151 35
152 35
153 35
154 34
155 34
156 34
157 34
158 34
159 34
160 34
161 34
162 33
163 33
164 33
165 32
166 32
167 31
168 31
169 31
170 31
171 31
172 30
173 30
173 29
173 28
173 27
173 26
173 25
172 24
171 23
170 22
169 21
168 20
167 20
166 19
165 19
164 19
163 18
162 18
161 18
160 18
159 18
158 17
157 17
156 17
155 16
154 16
153 16
152 17
151 16
150 16
149 15
148 15
147 15
146 15
145 15
144 14
144 13
144 12
144 11
144 10
143 9
142 8
141 8
140 7
140 8
139 9
138 8
137 8
137 9
136 10
135 11
134 10
133 10
132 9
132 10
131 11
131 12
132 13
132 14
131 15
130 14
129 14
128 14
127 14
126 14
125 14
124 14
123 14
122 14
121 14
120 14
119 14
118 14
117 14
116 14
115 14
114 14
113 14
112 14
111 14
110 14
109 14
108 14
107 14
106 14
105 14
104 13
103 13
102 13
101 13
100 13
99 13
98 13
97 13
96 13
95 13
94 13
93 13
92 13
91 12
92 11
92 10
92 9
92 8
92 7
92 6
91 5
90 5
89 4
