352 2
351 3
350 3
349 3
349 4
349 5
348 6
347 6
346 6
345 6
344 6
343 7
342 7
341 7
340 8
339 8
338 9
337 9
336 10
335 10
334 11
333 11
332 12
331 13
330 13
329 13
328 14
327 15
326 15
325 16
324 17
323 17
322 18
321 18
320 19
319 19
318 20
317 20
316 21
315 21
314 22
313 22
312 22
311 23
310 23
309 23
308 23
307 23
306 22
305 22
304 22
303 21
302 21
301 21
300 21
299 20
298 20
297 20
296 19
295 19
294 19
293 18
292 18
291 18
290 17
289 16
289 15
289 14
290 13
289 13
288 12
287 11
287 10
288 9
288 8
289 7
290 7
291 7
292 6
292 5
291 4
290 4
289 4
288 4
287 4
286 4
285 4
284 4
283 4
282 5
281 5
280 5
279 5
278 6
277 6
276 7
275 7
274 7
273 8
272 8
271 8
270 8
269 8
268 8
267 9
266 9
265 10
264 10
263 10
262 11
261 11
260 12
259 12
258 12
257 12
256 12
255 12
254 12
253 11
252 11
251 11
250 11
249 11
248 11
247 11
246 10
245 10
244 10
243 10
242 10
241 10
240 10
239 10
238 10
237 10
236 10
235 10
234 9
233 9
232 9
231 9
230 9
229 9
228 9
227 9
226 9
225 9
224 9
223 9
222 9
221 9
220 8
219 8
218 8
217 8
216 8
215 8
214 8
213 8
212 8
211 8
210 8
209 8
208 8
207 8
206 8
205 8
204 8
203 8
202 8
201 8
200 8
199 8
198 8
197 8
196 8
195 8
194 8
193 8
192 7
191 7
190 7
189 7
188 7
187 7
186 7
185 7
184 7
183 7
182 7
181 7
180 7
179 7
178 7
177 7
176 7
175 7
174 7
173 7
172 7
171 7
170 8
169 8
168 8
167 8
166 8
165 8
164 8
163 8
162 8
161 8
160 8
159 8
158 8
157 8
156 8
155 8
154 8
153 8
152 8
151 8
150 9
149 9
148 9
147 9
146 9
145 9
144 9
143 9
142 9
141 9
140 9
139 10
138 10
137 10
136 10
135 10
134 10
133 10
132 10
131 11
130 11
129 11
128 11
127 11
126 11
125 11
124 12
123 12
122 12
121 13
120 13
119 13
118 13
117 14
116 14
115 14
114 14
113 15
112 15
111 15
110 16
109 16
108 16
107 17
106 17
105 17
104 17
103 18
102 18
101 18
100 18
99 19
98 19
97 19
96 19
95 20
94 20
93 20
92 20
91 21
90 21
89 21
88 21
87 22
86 22
85 22
84 23
83 23
82 23
81 24
80 24
79 24
78 24
77 24
76 24
75 24
74 24
73 24
72 24
71 24
71 25
71 26
71 27
71 28
72 29
73 29
74 30
75 30
76 31
76 32
76 33
75 34
74 35
73 35
72 36
71 36
70 36
69 36
68 37
67 37
66 37
65 37
64 38
63 38
62 38
61 38
60 39
59 39
58 39
57 39
56 39
55 40
54 40
53 40
52 40
51 40
50 41
49 41
48 41
47 42
46 42
45 42
44 43
43 43
42 43
41 43
40 43
39 44
38 44
37 44
36 45
35 45
34 45
33 45
32 46
31 46
30 47
29 47
28 47
27 47
26 48
25 48
24 49
23 49
22 49
21 49
20 50
19 50
18 50
17 50
16 51
15 51
14 51
13 51
12 52
11 52
10 52
9 53
8 53
7 53
6 54
5 54
4 54
3 54
2 55
2 56
2 57
2 58
3 58
4 58
5 58
6 58
7 58
8 58
9 58
10 58
11 57
12 57
13 57
14 56
15 56
16 56
17 56
18 55
19 55
20 55
21 54
22 54
23 54
24 54
25 54
26 53
27 53
28 52
29 52
30 52
31 51
32 51
33 51
34 51
35 50
36 50
37 50
38 49
39 49
40 49
41 49
42 49
43 48
44 48
45 48
46 48
47 47
48 47
49 47
50 47
51 46
52 46
53 46
54 46
55 46
56 45
57 45
58 45
59 45
60 45
61 45
62 44
63 44
64 44
65 44
66 44
67 44
68 44
69 43
70 43
71 43
72 43
73 43
74 43
75 43
76 43
77 43
78 44
79 44
80 44
81 44
82 45
83 45
84 45
85 46
86 46
87 46
88 46
89 45
90 46
91 46
92 47
92 48
93 48
94 48
95 48
96 48
97 48
98 48
99 48
100 48
101 49
102 49
103 49
104 49
105 49
106 49
107 49
108 49
109 49
110 49
111 48
112 49
112 50
113 50
114 50
115 50
116 50
117 50
118 50
119 50
120 50
121 50
122 50
123 50
124 50
125 50
126 50
127 50
128 50
129 50
130 50
131 49
132 50
133 50
134 50
135 50
136 49
137 48
138 48
139 47
140 47
141 47
142 48
142 49
142 50
143 50
144 50
145 50
146 50
147 50
148 49
149 49
150 48
151 48
152 48
153 48
154 49
155 50
156 51
157 51
158 51
159 51
160 51
161 51
162 51
163 51
164 50
165 49
166 50
167 50
168 50
169 50
170 50
171 49
172 49
173 49
174 49
175 50
175 51
176 51
177 51
178 51
179 51
180 51
181 51
182 51
183 51
184 51
185 51
186 51
187 51
188 50
189 51
190 51
191 51
192 51
193 50
194 50
195 50
196 50
197 50
198 50
199 50
200 50
201 50
202 50
203 50
204 50
205 50
206 50
207 50
208 50
209 50
210 50
211 50
212 50
213 50
214 50
215 50
216 50
217 49
218 49
219 49
220 50
221 50
222 50
223 50
224 50
225 50
226 50
227 50
228 50
229 50
230 49
231 49
232 49
233 50
233 51
233 52
233 53
233 54
234 55
234 56
235 57
235 58
236 58
237 58
238 58
239 58
240 58
241 58
242 58
243 58
244 58
245 58
246 58
247 58
248 57
249 57
250 56
251 56
252 55
252 54
253 53
254 53
255 53
256 53
257 52
257 51
256 50
257 49
258 49
259 49
260 49
261 49
262 49
263 49
264 48
265 48
266 48
267 48
268 48
269 48
270 48
271 48
272 47
273 47
274 47
275 47
276 47
277 47
278 46
279 46
280 46
281 46
282 46
283 45
284 45
285 45
286 45
287 45
288 45
289 45
290 45
291 44
292 44
293 44
294 44
295 44
296 44
297 44
298 44
299 44
300 44
301 43
302 43
303 43
304 42
305 42
306 42
307 41
308 41
309 41
310 41
311 40
312 40
313 40
314 40
315 41
315 42
316 43
317 43
318 44
318 45
319 45
320 46
321 47
321 48
322 48
323 49
324 50
325 51
326 52
327 52
328 53
328 54
329 54
330 55
331 55
332 56
333 56
334 57
335 58
336 58
337 59
338 60
339 60
340 61
341 61
342 62
343 62
344 63
345 63
346 64
347 65
348 66
349 66
350 67
351 67
352 68
353 68
354 68
355 69
356 70
357 70
358 71
359 71
360 71
361 72
362 72
363 72
364 73
364 74
365 74
366 74
367 74
368 74
369 73
369 72
370 71
370 70
370 69
369 69
368 68
369 67
368 67
367 66
366 65
365 65
364 64
363 63
362 62
363 61
363 60
362 60
361 59
360 58
359 57
358 56
357 55
356 54
355 53
354 52
353 51
352 51
351 50
350 49
351 48
350 48
349 47
348 46
347 45
346 45
345 44
344 43
343 42
342 41
341 40
340 40
339 39
338 38
337 37
338 36
337 36
336 35
335 34
336 33
336 32
337 31
336 31
335 30
334 30
333 29
333 28
334 27
335 27
336 27
337 26
338 26
339 25
340 24
341 24
342 23
343 23
344 23
345 23
346 22
346 21
347 20
347 19
348 18
349 17
350 16
351 15
352 14
353 15
354 15
355 14
356 13
357 13
358 12
358 11
359 10
360 9
361 8
362 8
363 8
364 8
365 7
365 6
366 5
366 4
365 4
364 3
363 3
362 3
361 3
360 3
359 3
358 3
357 3
356 2
355 2
354 2
353 2
