7 4
7 5
6 6
6 7
7 8
7 9
8 10
8 11
8 12
9 13
9 14
10 15
11 16
11 17
11 18
12 19
13 20
13 21
14 22
14 23
15 24
15 25
16 26
17 27
18 28
19 29
20 30
20 31
20 32
21 33
22 34
23 35
24 36
24 37
25 38
26 39
27 40
27 41
28 42
28 43
27 44
27 45
26 46
25 47
24 48
23 49
22 50
21 51
20 52
19 53
19 54
18 55
17 56
16 57
15 58
14 59
13 60
12 61
11 62
10 63
9 62
8 62
8 63
7 64
6 65
5 66
4 65
4 66
3 67
3 68
3 69
2 70
2 71
2 72
2 73
2 74
2 75
3 75
4 75
5 75
6 75
7 75
8 74
9 74
10 73
11 73
12 72
13 72
14 71
15 71
16 71
17 71
18 70
19 70
20 69
21 68
22 67
23 67
24 67
25 66
26 66
27 65
28 65
29 64
30 64
31 64
32 63
33 63
34 62
35 62
36 61
37 61
38 61
38 60
39 59
40 59
41 58
42 58
43 58
44 57
45 57
46 57
47 56
48 56
49 56
50 56
51 57
52 57
53 57
54 57
55 58
56 58
57 58
58 59
59 59
60 60
61 60
62 61
63 61
64 61
65 61
66 62
67 62
68 62
69 62
70 63
71 63
72 63
73 64
74 64
75 64
76 65
77 65
78 65
79 65
80 66
81 66
82 66
83 66
84 67
85 67
86 67
87 68
88 68
89 68
90 69
91 69
92 70
93 70
94 70
95 70
96 71
97 71
98 71
99 71
100 71
101 72
102 72
103 72
104 72
105 72
106 73
107 73
108 74
109 74
110 74
111 75
112 75
113 75
114 75
115 75
116 75
117 76
118 76
119 76
120 76
121 76
122 76
123 77
124 77
125 77
126 77
127 77
128 77
129 77
130 77
131 78
132 79
132 80
133 81
134 81
135 82
136 82
137 83
138 83
139 83
140 83
141 84
142 84
143 84
144 85
145 86
146 86
147 87
147 88
147 89
148 90
148 91
149 92
149 93
149 94
150 95
150 96
150 97
150 98
150 99
151 100
151 101
151 102
151 103
152 103
153 103
154 103
155 103
156 103
157 102
158 101
158 100
159 99
160 98
160 97
161 96
161 95
162 94
163 93
163 92
164 91
164 90
165 89
165 88
166 87
167 86
167 85
168 84
169 83
170 82
171 81
172 80
173 80
174 80
175 80
176 80
177 80
178 80
179 80
180 80
181 80
182 80
183 80
184 80
185 80
186 80
187 80
188 80
189 80
190 80
191 80
192 80
193 79
194 79
195 79
196 79
197 79
198 78
199 78
200 78
201 78
202 78
203 78
204 77
205 77
206 77
207 77
208 77
209 77
210 77
211 77
212 77
213 77
214 77
215 76
216 76
217 76
218 76
219 76
220 76
221 76
222 76
223 75
224 75
225 75
226 75
227 75
228 75
229 75
230 75
231 74
232 74
233 74
234 74
235 73
236 73
237 73
238 72
239 72
240 72
241 72
242 72
243 72
244 71
245 71
246 71
247 71
248 71
249 71
250 71
251 70
252 70
253 70
254 70
255 70
256 70
257 69
258 69
259 69
260 68
261 67
262 67
263 67
264 67
265 67
266 66
267 66
268 66
269 66
270 66
271 65
272 65
273 65
274 65
275 65
276 64
277 64
278 64
279 64
280 63
281 63
282 63
283 62
284 62
285 62
286 61
287 61
288 61
289 61
290 60
291 60
292 59
293 58
294 58
295 58
296 58
297 57
298 56
298 55
298 54
298 53
298 52
299 51
300 50
300 49
300 48
300 47
299 46
298 45
297 45
296 44
295 44
294 43
293 43
292 42
291 42
290 41
289 41
288 40
287 40
286 39
285 38
284 38
283 37
282 37
281 37
280 36
279 36
278 35
277 35
276 34
275 33
274 33
273 32
272 32
271 32
270 32
269 31
268 31
267 31
266 31
265 30
264 30
263 30
262 30
261 29
260 29
259 29
258 28
257 28
256 28
255 28
254 27
253 27
252 27
251 27
250 27
249 26
248 26
247 26
246 26
245 26
244 25
243 25
242 25
241 25
240 24
239 24
238 24
237 24
236 24
235 24
234 24
233 24
232 24
231 24
230 24
229 23
228 23
227 23
226 23
225 23
224 23
223 23
222 22
221 22
220 22
219 22
218 21
217 21
216 21
215 21
214 21
213 21
212 21
211 21
210 21
209 21
208 21
207 20
206 20
205 20
204 20
203 20
203 21
202 22
201 21
200 21
199 21
198 20
197 20
196 20
195 19
194 19
193 18
192 18
191 18
190 18
189 18
188 18
187 18
186 18
185 18
184 18
183 18
182 18
181 18
180 18
179 18
178 18
177 18
176 18
175 18
174 18
173 18
172 17
172 16
171 15
171 14
171 13
170 12
170 11
170 10
169 9
169 8
168 7
168 6
167 5
166 5
165 4
164 4
163 4
163 5
162 6
161 7
161 8
160 9
160 10
159 11
159 12
159 13
158 14
158 15
158 16
158 17
158 18
157 19
156 18
156 19
155 20
154 19
153 19
152 19
151 19
150 19
149 19
149 20
148 21
147 20
146 20
145 20
144 20
143 20
143 21
142 22
141 21
140 21
139 21
138 21
137 21
136 21
135 21
134 21
133 21
132 21
131 21
130 21
129 21
128 21
127 21
126 21
125 21
124 21
124 22
123 23
122 22
121 22
121 23
120 24
119 23
118 23
118 24
117 25
116 24
115 24
114 24
113 24
112 24
112 25
111 26
110 25
109 25
108 25
107 25
106 25
105 25
105 26
104 27
103 26
102 26
101 26
100 26
99 26
98 26
97 26
96 26
95 26
94 26
93 26
92 26
91 26
90 26
89 26
88 25
87 25
87 26
86 27
85 26
85 27
84 28
83 27
83 28
82 29
82 30
81 31
80 30
80 31
79 32
78 31
77 31
77 32
76 33
75 32
74 32
73 32
73 33
72 34
71 33
71 34
70 35
69 34
68 34
68 35
67 36
66 35
65 35
64 35
63 35
63 36
62 37
61 36
60 36
59 36
58 36
58 37
57 38
56 37
55 37
54 37
53 37
52 37
51 37
50 36
49 36
48 36
47 35
46 35
45 34
44 33
43 32
42 31
41 30
40 29
39 28
38 27
37 26
36 25
35 25
34 24
33 23
32 22
31 22
30 21
30 20
29 19
28 19
27 18
26 17
25 17
24 16
24 15
23 14
22 14
21 13
20 12
19 12
18 11
17 10
16 9
15 8
14 7
13 7
12 6
11 6
10 5
9 5
8 4
