326 2
325 3
324 3
323 3
322 4
321 4
320 5
319 5
318 6
317 7
316 7
315 8
314 9
313 9
312 10
311 11
310 11
309 11
308 12
307 13
306 13
305 14
304 15
303 15
303 16
302 17
301 17
300 18
299 18
298 19
297 20
296 20
295 21
294 22
293 22
292 22
291 23
290 23
289 23
288 24
287 24
286 23
285 23
284 23
283 23
282 23
281 23
280 22
279 22
278 22
277 21
276 20
275 20
274 19
273 19
272 19
271 19
270 18
269 18
268 18
267 17
268 16
267 16
266 15
265 14
266 13
266 12
266 11
267 10
267 9
268 8
268 7
267 6
266 6
265 6
264 6
263 7
262 8
261 8
260 8
259 8
258 8
257 8
256 8
255 9
254 9
253 10
252 10
251 11
250 11
249 12
248 13
247 13
246 14
245 15
244 15
243 16
242 17
241 17
240 17
239 17
238 17
237 17
236 17
235 18
234 18
233 18
232 18
231 18
230 18
229 18
228 18
227 18
226 18
225 18
224 18
223 18
222 18
221 18
220 18
219 18
218 18
217 18
216 18
215 18
214 18
213 18
212 18
211 18
210 18
209 18
208 18
207 18
206 18
205 18
204 18
203 18
202 18
201 18
200 18
199 18
198 18
197 18
196 18
195 18
194 18
193 18
192 18
191 18
190 18
189 18
188 18
187 18
186 18
185 18
184 18
183 18
182 18
181 18
180 18
179 18
178 18
177 18
176 18
175 18
174 18
173 18
172 18
171 18
170 18
169 18
168 18
167 18
166 18
165 18
164 18
163 18
162 18
161 18
160 18
159 18
158 18
157 18
156 18
155 18
154 18
153 18
152 18
151 18
150 18
149 18
148 18
147 18
146 18
145 18
144 18
143 18
142 17
141 17
140 17
139 17
138 17
137 17
136 17
135 17
134 17
133 17
132 16
133 15
133 14
132 13
131 13
130 13
129 13
128 13
127 13
126 14
125 14
124 14
123 14
122 14
121 14
120 14
119 14
118 15
117 15
116 15
115 15
114 15
113 15
112 16
111 16
110 16
109 16
108 16
107 16
106 16
105 16
104 16
103 16
102 16
101 16
100 16
99 16
98 16
97 16
96 16
95 16
94 17
93 17
92 17
91 17
90 17
89 17
88 16
87 16
86 16
85 16
84 16
83 16
82 16
81 16
80 16
79 16
78 16
77 16
76 16
75 17
74 17
73 17
72 17
71 17
70 17
69 17
68 17
67 17
66 18
65 18
64 18
63 18
62 18
61 18
60 17
59 17
58 17
57 17
56 17
55 16
54 16
53 16
52 16
51 16
50 16
50 17
50 18
50 19
51 20
52 20
53 21
52 22
51 22
50 22
49 22
48 22
47 22
46 22
45 22
44 22
43 22
42 22
41 22
40 22
39 22
38 22
37 22
36 22
35 22
34 22
33 22
32 22
31 22
30 22
29 22
28 22
27 22
26 22
25 22
24 22
23 22
22 22
21 22
20 22
19 22
18 22
17 22
16 22
15 23
14 23
13 23
12 23
11 23
10 23
9 23
8 23
7 23
6 23
5 23
4 23
3 23
2 23
2 24
2 25
2 26
3 26
4 26
5 26
6 26
7 27
8 27
9 27
10 27
11 27
12 27
13 27
14 27
15 27
16 27
17 27
18 27
19 27
20 27
21 27
22 27
23 28
24 28
25 28
26 28
27 28
28 28
29 28
30 28
31 28
32 28
33 28
34 28
35 28
36 28
37 28
38 28
39 28
40 28
41 28
42 28
43 28
44 28
45 28
46 28
47 28
48 29
49 29
50 29
51 30
52 30
53 31
54 31
55 32
56 33
57 33
58 33
59 34
60 34
61 34
62 35
63 35
64 35
65 36
66 36
67 37
68 37
69 37
70 38
71 38
72 38
73 38
74 39
75 39
76 39
77 39
78 39
79 40
80 40
81 40
82 40
83 40
84 40
85 40
86 40
87 40
88 41
89 41
90 41
91 41
92 41
93 41
94 41
95 41
96 42
97 42
98 42
99 42
100 42
101 42
102 42
103 42
104 42
105 42
106 43
107 43
108 43
109 43
110 43
111 43
112 43
113 43
114 44
115 44
116 44
117 44
118 44
119 44
120 44
121 44
122 44
123 45
124 45
125 45
126 45
127 45
128 45
129 45
130 45
131 46
132 46
133 46
134 46
135 46
136 46
137 46
138 46
139 47
140 47
141 47
142 47
143 47
144 47
145 47
146 47
147 47
148 47
149 47
150 47
151 48
152 48
153 48
154 48
155 48
156 48
157 48
158 48
159 48
160 48
161 48
162 48
163 48
164 48
165 48
166 48
167 48
168 48
169 48
170 48
171 48
172 48
173 48
174 48
175 48
176 48
177 48
178 48
179 48
180 48
181 48
182 48
183 48
184 48
185 48
186 48
187 48
188 48
189 48
190 48
191 48
192 48
193 47
194 47
195 47
196 47
197 47
198 47
199 47
200 47
201 47
202 47
203 47
204 47
205 47
206 47
207 47
208 47
209 48
208 49
208 50
208 51
208 52
208 53
208 54
208 55
208 56
208 57
209 57
210 57
211 57
212 58
213 58
214 58
215 58
216 58
217 57
218 56
219 56
220 56
221 55
222 54
223 54
224 54
225 54
226 54
227 53
228 52
228 51
229 50
229 49
229 48
229 47
229 46
230 45
231 45
232 45
233 45
234 45
235 45
236 45
237 45
238 45
239 45
240 45
241 45
242 44
243 44
244 44
245 44
246 44
247 44
248 43
249 43
250 43
251 43
252 43
253 43
254 43
255 43
256 42
257 42
258 42
259 42
260 41
261 41
262 41
263 41
264 41
265 41
266 40
267 40
268 40
269 40
270 40
271 40
272 40
273 39
274 39
275 39
276 39
277 39
278 38
279 38
280 38
281 38
282 38
283 38
284 38
285 38
286 38
287 38
288 38
289 38
290 38
291 37
292 37
293 37
294 37
295 38
296 38
297 39
297 40
298 41
299 41
300 42
300 43
301 43
302 43
303 44
303 45
304 46
305 46
306 47
306 48
307 48
308 49
309 50
310 50
311 50
312 51
312 52
313 52
314 52
315 53
315 54
316 54
317 54
318 55
319 56
320 57
321 57
322 57
323 58
324 58
325 59
326 59
327 59
328 59
329 60
330 60
331 60
332 60
333 61
334 61
335 61
336 61
337 61
338 61
339 61
340 60
340 59
341 58
341 57
341 56
340 56
339 55
338 55
337 54
336 54
335 53
336 52
335 52
334 51
333 51
332 50
331 49
332 48
332 47
332 46
332 45
331 45
330 44
329 43
328 43
327 43
326 43
325 42
326 41
325 41
324 40
323 40
322 40
321 39
322 38
322 37
322 36
322 35
321 35
320 34
319 33
318 33
317 32
316 31
315 30
316 29
316 28
316 27
316 26
317 25
318 24
319 23
319 22
320 21
321 20
321 19
322 18
322 17
322 16
322 15
323 14
324 14
325 14
326 14
327 14
328 13
328 12
329 11
329 10
330 9
330 8
330 7
331 6
332 6
333 6
334 5
334 4
335 3
334 3
333 2
332 2
331 2
330 2
329 2
328 2
327 2
