105 2
105 3
104 4
103 5
102 5
101 5
100 5
100 6
99 7
98 8
97 8
96 9
95 10
94 10
93 10
92 10
92 11
92 12
91 13
90 13
89 14
88 14
87 15
86 15
85 16
84 16
83 16
82 16
81 16
80 17
79 17
79 18
79 19
78 20
77 20
76 20
75 20
74 20
73 21
72 22
72 23
71 24
70 24
69 24
68 25
67 26
66 27
65 27
65 28
65 29
65 30
64 31
63 31
62 31
61 32
60 33
59 34
59 35
58 36
57 37
56 37
56 38
56 39
55 40
54 41
54 42
53 43
52 43
51 44
50 45
49 46
48 47
47 48
46 49
45 50
44 50
43 50
42 51
41 51
40 51
39 51
38 51
37 51
36 52
35 52
34 52
33 52
32 52
31 52
30 53
29 53
28 53
27 53
26 53
25 53
24 54
23 54
22 54
21 55
20 55
19 55
18 55
17 55
16 56
15 56
14 56
13 56
12 56
11 56
10 57
9 57
8 57
7 57
6 57
6 58
5 59
4 59
3 59
2 59
2 60
2 61
2 62
2 63
2 64
3 65
3 66
3 67
4 68
4 69
5 69
6 69
7 70
8 71
8 72
9 72
10 73
11 73
12 73
13 73
14 73
15 73
16 73
17 74
18 74
19 74
20 74
21 74
22 74
23 74
24 74
25 74
26 75
26 76
27 76
28 76
29 76
30 76
31 76
32 76
33 76
34 77
35 77
36 78
37 78
38 77
38 76
39 75
40 76
41 77
42 78
43 78
44 78
45 78
46 78
47 77
48 78
49 78
50 78
51 78
52 78
53 78
54 79
55 79
56 79
57 79
58 79
59 79
60 79
61 79
62 79
63 79
64 79
65 79
66 79
67 79
68 79
69 80
70 80
71 80
72 80
73 79
74 79
75 79
76 79
77 79
78 79
79 79
80 78
81 77
82 77
83 77
84 76
85 76
86 76
87 76
88 77
89 77
90 77
91 78
92 79
93 79
94 79
95 80
96 81
96 82
97 83
98 83
99 84
100 85
100 86
100 87
101 87
102 87
103 87
104 87
105 87
106 87
107 87
108 87
109 88
110 88
111 88
112 88
113 89
114 89
115 89
116 89
117 90
118 90
119 90
120 90
121 90
122 90
123 90
124 90
125 90
126 90
127 90
128 90
129 91
130 91
131 91
132 91
133 91
134 91
135 90
135 89
134 88
134 87
135 86
135 85
134 84
133 84
132 83
131 82
132 81
132 80
132 79
133 78
133 77
134 76
135 75
136 74
136 73
137 72
138 72
139 72
140 72
141 72
142 72
143 72
144 72
145 71
146 71
147 71
148 71
149 71
150 72
151 72
152 73
153 74
154 74
155 75
156 76
157 76
158 77
159 78
160 78
161 79
161 80
162 80
163 81
164 82
165 83
166 84
167 85
168 85
169 86
170 87
171 87
172 88
173 89
174 89
175 90
176 91
177 91
178 92
179 93
180 93
181 94
182 94
183 94
184 95
185 95
186 95
187 95
188 94
188 93
189 92
189 91
189 90
189 89
188 89
187 88
186 87
185 86
184 85
183 84
184 83
183 83
182 82
181 81
180 80
179 79
178 79
177 78
176 77
175 76
174 75
173 74
172 73
171 73
170 72
169 71
168 70
167 69
166 68
167 67
166 67
165 66
166 65
166 64
166 63
167 62
167 61
167 60
168 59
169 59
170 59
171 58
172 58
173 58
174 57
175 56
176 55
176 54
177 53
178 52
179 52
180 51
180 50
181 49
180 49
179 48
178 48
177 48
176 48
175 48
174 48
173 49
172 49
171 49
170 49
169 50
168 50
167 51
166 51
165 51
164 52
163 52
162 52
161 52
160 52
159 52
159 53
159 54
158 55
157 55
156 56
155 56
154 57
153 57
152 57
151 58
150 58
149 59
148 59
147 59
146 59
145 58
144 58
143 57
142 57
141 57
140 56
141 55
142 54
142 53
141 52
140 52
139 52
138 52
137 51
137 50
138 49
137 49
136 48
135 48
134 49
133 49
132 49
131 49
130 49
129 49
128 49
127 49
126 49
125 49
124 49
123 49
122 49
121 49
120 49
119 49
118 50
117 50
116 50
115 50
114 49
113 48
112 47
111 47
110 47
109 47
108 47
107 47
106 47
105 47
104 47
103 47
102 47
101 46
100 46
99 45
100 44
101 43
102 43
103 43
104 43
105 43
106 43
107 42
108 42
109 42
110 42
111 41
111 40
112 39
113 38
113 37
112 36
111 36
110 36
109 35
110 34
111 34
112 34
113 34
114 33
115 33
116 32
116 31
117 30
117 29
117 28
116 28
115 27
114 26
115 25
116 25
117 24
118 23
119 22
120 21
120 20
121 19
120 19
119 18
118 18
117 17
118 16
118 15
119 14
119 13
119 12
120 11
120 10
121 9
121 8
120 8
119 7
118 7
117 7
116 7
115 7
114 6
113 5
112 4
111 4
110 4
109 3
108 2
107 2
106 2
