156 2
155 3
154 3
153 3
152 3
151 3
150 3
149 3
148 4
147 4
146 5
145 5
144 4
143 3
142 3
141 3
140 3
139 3
138 3
137 4
136 4
135 4
134 4
134 5
133 6
132 6
131 6
130 7
129 7
128 7
127 7
126 8
125 8
124 9
123 9
122 8
121 8
120 8
119 8
118 8
117 8
117 9
117 10
116 11
115 11
114 11
113 11
112 11
111 11
110 11
109 11
108 12
107 13
106 13
105 13
104 14
103 14
102 14
101 14
101 15
100 16
99 16
98 16
97 16
96 16
95 16
94 16
94 17
94 18
94 19
93 20
92 20
91 20
90 20
89 20
88 20
87 21
86 21
85 22
84 22
83 22
82 23
81 23
80 23
79 23
78 23
77 24
76 24
75 25
74 25
73 25
72 25
71 25
71 26
71 27
70 28
69 28
68 29
67 29
66 30
65 30
64 31
63 32
62 32
61 33
60 33
59 33
58 34
57 34
56 34
55 35
54 35
54 36
54 37
54 38
53 39
52 39
51 39
51 40
51 41
50 42
49 42
48 41
47 41
46 41
45 41
44 41
43 41
42 41
41 41
40 41
39 40
38 40
37 40
36 40
35 40
34 39
33 39
32 39
31 39
30 39
29 38
28 38
27 38
26 38
25 38
24 38
23 37
22 37
21 37
20 37
19 37
18 37
17 37
16 36
15 36
14 36
13 36
12 37
11 37
10 37
9 37
8 37
7 38
7 39
7 40
6 41
6 42
6 43
6 44
6 45
5 46
5 47
5 48
5 49
5 50
4 51
4 52
4 53
3 54
2 54
2 55
2 56
2 57
2 58
2 59
3 60
3 61
4 62
4 63
4 64
3 65
3 66
3 67
3 68
3 69
3 70
4 70
5 71
5 72
5 73
6 74
7 74
8 74
9 74
10 74
11 75
10 76
9 76
8 76
7 77
7 78
7 79
7 80
7 81
7 82
8 82
9 83
9 84
10 85
11 86
11 87
12 88
13 89
14 89
15 89
16 89
17 89
18 89
19 89
20 89
21 89
22 89
23 89
24 88
25 88
26 87
27 87
28 87
29 86
30 86
31 85
32 85
33 84
34 84
35 84
36 83
37 83
38 82
39 82
40 82
41 81
42 81
43 80
44 80
45 80
46 79
47 79
48 78
49 78
50 78
51 78
52 77
53 77
54 78
54 79
54 80
55 81
56 81
57 82
58 83
58 84
59 84
60 84
61 85
62 85
63 86
64 87
65 88
66 88
67 88
68 89
69 89
70 90
71 91
71 92
71 93
72 94
73 94
74 95
75 95
76 96
77 96
78 97
79 97
80 97
81 98
82 98
83 99
84 99
85 99
86 100
87 100
88 100
89 101
90 101
91 101
92 101
93 101
94 102
95 102
96 102
97 103
98 103
99 103
100 103
101 102
102 102
103 102
104 102
105 102
106 102
107 101
108 101
109 102
109 103
110 103
111 103
112 103
113 102
114 101
115 101
116 101
117 101
118 101
119 102
119 103
120 103
121 103
122 102
123 101
124 100
125 99
126 98
127 97
128 96
129 96
130 95
131 94
132 94
133 94
134 94
135 94
136 95
137 95
138 95
139 95
140 95
141 95
142 95
143 95
144 95
145 95
146 95
147 95
148 96
148 97
148 98
148 99
147 100
147 101
147 102
147 103
146 104
145 104
144 104
144 105
144 106
144 107
145 108
145 109
146 109
147 109
148 108
149 108
150 108
151 108
152 107
153 107
154 107
155 107
156 107
157 107
158 106
159 106
160 106
161 106
162 106
163 106
164 105
165 105
166 105
167 104
168 103
169 103
170 102
171 101
172 100
173 99
174 98
175 97
175 96
176 95
177 95
178 94
179 94
180 93
181 93
182 93
183 92
184 92
185 92
186 92
187 92
188 92
189 91
190 91
191 91
192 91
193 91
194 90
195 90
196 90
197 90
198 90
199 89
200 89
201 89
202 88
203 88
204 87
205 87
206 87
207 86
208 86
209 86
210 86
211 85
212 85
213 85
214 85
215 84
216 84
217 84
218 83
219 83
220 83
221 82
222 81
223 81
224 80
225 80
226 79
227 79
228 78
229 77
230 76
231 76
232 75
233 74
234 74
235 73
236 72
236 71
237 70
238 70
239 69
239 68
240 67
239 67
238 66
237 66
236 66
235 65
236 64
237 63
238 62
239 61
240 60
241 60
242 60
243 60
244 59
244 58
245 57
245 56
245 55
246 54
246 53
246 52
245 52
244 51
245 50
245 49
244 49
243 48
244 47
243 47
242 46
243 45
242 45
241 44
242 43
241 43
240 42
239 41
240 40
239 40
238 39
237 38
236 37
237 36
236 36
235 35
236 34
235 34
234 33
235 32
234 32
233 31
234 30
234 29
233 29
232 28
231 27
230 26
231 25
231 24
230 24
229 23
228 22
227 21
226 20
225 19
224 18
223 17
222 16
221 16
220 16
219 15
218 15
217 14
216 14
215 14
214 13
213 13
212 13
211 13
210 12
209 12
208 12
207 12
206 11
205 11
204 11
203 11
202 11
201 11
200 11
199 11
198 11
197 11
196 10
195 10
194 10
193 10
192 10
191 10
190 10
189 10
188 10
187 10
186 10
185 10
184 9
183 9
182 9
181 9
180 8
179 7
178 6
177 6
176 5
175 4
174 4
173 4
172 4
171 5
170 5
169 5
168 4
167 4
166 3
165 3
164 3
163 3
162 4
161 4
160 3
159 3
158 2
157 2
