121 2
120 3
119 4
118 5
117 5
116 5
115 6
114 6
113 7
112 8
111 8
111 9
110 10
109 11
108 11
108 12
107 13
106 14
106 15
106 16
106 17
107 18
107 19
106 20
106 21
106 22
106 23
106 24
106 25
106 26
105 27
104 27
103 27
102 26
101 26
100 25
99 24
98 23
97 22
98 21
97 21
96 20
97 19
97 18
96 18
95 17
94 16
93 16
92 15
91 14
90 14
89 13
88 12
87 12
86 11
85 10
84 10
83 9
82 9
81 8
80 8
79 7
78 7
77 6
76 6
75 6
74 5
73 5
72 5
71 4
70 4
69 4
68 4
67 5
66 5
65 5
64 4
63 4
62 4
61 5
60 5
59 6
58 7
57 8
56 9
56 10
55 11
55 12
55 13
55 14
56 15
55 16
54 17
54 18
54 19
54 20
54 21
54 22
55 23
55 24
56 25
56 26
56 27
57 27
58 28
58 29
58 30
58 31
58 32
59 32
60 33
61 33
62 33
63 33
64 33
65 34
66 34
67 34
68 35
69 35
70 35
71 36
72 37
73 37
74 37
75 37
76 38
77 38
78 39
79 39
80 39
81 39
82 40
83 40
84 40
85 41
86 41
87 42
88 42
89 42
90 43
91 43
92 43
93 43
94 44
93 45
92 46
91 47
91 48
91 49
91 50
90 51
90 52
90 53
90 54
90 55
90 56
90 57
90 58
90 59
90 60
91 60
92 60
93 60
94 61
94 62
94 63
94 64
94 65
94 66
94 67
94 68
94 69
94 70
93 71
92 71
91 72
90 73
89 74
88 74
87 75
86 76
85 76
84 77
83 77
82 78
81 78
80 79
79 80
78 81
77 81
76 82
75 82
74 82
73 83
72 84
72 85
72 86
71 87
70 87
69 88
68 88
67 88
66 88
65 88
64 89
63 89
62 89
62 90
61 91
60 92
60 93
59 94
59 95
58 96
57 97
56 98
55 99
54 99
53 99
52 100
51 101
50 101
49 101
48 100
47 100
46 100
45 99
44 99
43 98
42 98
41 98
40 97
39 97
38 97
37 97
36 97
35 97
34 97
33 97
32 97
31 96
30 96
29 96
28 96
27 96
26 95
25 95
24 95
23 95
22 95
21 95
20 95
19 95
18 94
17 94
16 94
15 94
14 93
13 93
12 93
11 93
10 93
9 93
8 93
7 93
6 93
5 93
4 93
3 93
2 93
2 94
2 95
2 96
2 97
2 98
3 99
3 100
4 101
4 102
5 102
6 103
7 104
8 105
9 105
10 106
11 106
12 107
13 107
14 107
15 108
16 108
17 109
18 109
19 110
20 111
21 111
22 112
23 112
24 112
25 112
26 113
27 114
28 114
29 114
30 114
31 115
32 115
33 115
34 115
35 115
36 115
37 115
38 115
39 116
40 116
41 116
42 117
43 117
44 117
45 117
46 117
47 118
48 118
49 118
50 117
51 117
52 117
53 117
54 116
55 116
56 116
57 116
58 116
59 116
60 117
61 117
62 117
63 118
64 118
65 118
66 117
67 117
68 117
69 117
70 118
71 118
72 118
73 118
74 118
75 118
76 118
77 118
78 118
79 118
80 118
81 118
82 119
83 119
84 119
85 119
86 119
87 119
88 119
89 119
90 119
91 119
92 119
93 119
94 120
95 120
96 120
97 119
98 119
99 119
100 119
101 119
102 119
103 119
104 119
105 119
106 119
107 119
108 119
109 119
110 119
111 119
112 119
113 119
114 119
115 119
116 119
117 118
118 118
119 118
120 118
121 118
122 118
123 117
124 117
125 117
126 117
127 117
128 117
129 117
130 117
131 117
132 117
133 116
134 116
135 116
136 116
137 116
138 116
139 115
140 115
141 115
142 115
143 116
144 116
145 117
145 118
145 119
145 120
145 121
145 122
145 123
145 124
146 125
146 126
147 126
148 127
149 127
150 127
151 128
152 129
153 129
154 129
155 130
156 130
157 130
158 130
159 130
160 129
161 129
162 129
163 129
164 129
165 129
166 130
167 130
168 130
169 129
170 129
171 129
172 129
173 129
174 129
175 129
176 128
177 128
178 128
179 128
180 128
181 128
182 128
183 128
184 128
185 127
186 127
187 127
188 126
189 125
190 125
191 125
192 125
193 125
194 125
195 125
196 124
197 124
198 124
199 124
200 125
201 125
202 125
203 125
204 125
205 125
206 125
207 125
208 125
209 125
210 125
211 125
212 124
213 124
214 124
215 124
216 124
217 124
218 124
219 124
220 124
221 124
222 124
223 124
224 123
225 123
226 123
227 123
228 122
229 122
230 122
231 121
232 121
233 120
234 120
235 119
236 118
237 118
238 118
239 117
240 117
241 116
242 115
243 115
244 114
245 113
246 112
247 112
248 111
249 110
250 109
251 108
252 107
253 106
254 105
255 104
255 103
256 102
257 101
257 100
258 99
258 98
259 97
260 97
261 96
262 95
263 94
264 94
265 93
265 92
266 91
266 90
266 89
266 88
266 87
267 86
268 85
268 84
269 83
269 82
270 81
271 80
272 79
273 78
273 77
274 76
274 75
274 74
275 73
276 72
276 71
277 70
277 69
277 68
277 67
278 66
278 65
278 64
279 63
279 62
279 61
280 60
281 59
281 58
282 57
282 56
282 55
282 54
281 54
280 53
280 52
281 51
281 50
282 49
282 48
282 47
282 46
282 45
282 44
282 43
282 42
281 42
280 41
281 40
281 39
281 38
281 37
281 36
281 35
281 34
280 34
279 33
278 33
277 32
276 31
275 31
274 30
275 29
275 28
275 27
274 27
273 26
272 26
271 25
270 24
269 23
268 22
267 21
266 20
265 20
264 19
265 18
264 18
263 17
262 16
261 15
260 14
259 14
258 14
257 14
256 14
255 14
254 14
253 14
252 14
251 14
250 13
249 12
248 11
249 10
248 10
247 9
248 8
248 7
248 6
248 5
247 5
246 4
245 4
244 4
243 4
242 5
241 5
240 5
239 4
238 4
237 3
236 3
235 3
234 3
233 4
233 5
233 6
232 7
231 7
230 7
229 7
228 7
227 6
226 6
225 6
224 6
223 6
222 6
221 6
220 6
219 6
218 5
217 5
216 5
215 5
214 6
213 6
212 7
211 7
210 8
209 8
208 8
207 8
206 8
205 8
204 8
203 8
202 8
201 8
200 8
199 8
198 8
197 8
196 8
195 8
194 8
193 9
192 9
191 9
190 10
189 10
188 10
187 10
186 10
185 10
184 9
183 9
182 9
181 8
180 7
179 7
178 7
177 8
176 8
175 7
174 6
173 6
172 6
171 6
171 7
170 8
169 8
168 8
167 8
166 8
165 7
166 6
165 6
164 5
163 4
162 4
161 4
160 4
159 4
158 4
157 4
156 4
155 3
154 3
153 3
153 4
152 5
151 5
150 6
149 7
148 7
147 7
146 6
147 5
146 5
145 4
144 3
143 3
142 3
141 3
140 3
139 3
138 3
137 3
136 3
135 3
134 2
133 2
132 2
131 2
130 2
129 2
128 2
127 2
126 2
125 2
124 2
123 2
122 2
