110 5
109 6
108 7
107 8
106 7
105 7
104 6
104 7
103 8
102 9
101 8
100 8
99 8
98 8
98 9
97 10
97 11
96 12
95 13
94 14
93 13
92 13
92 14
91 15
91 16
91 17
91 18
91 19
90 20
90 21
89 22
88 21
88 22
87 23
87 24
87 25
87 26
87 27
86 28
85 27
85 28
84 29
84 30
84 31
84 32
84 33
84 34
83 35
82 34
82 35
81 36
81 37
82 38
82 39
83 40
84 41
85 42
85 43
85 44
85 45
86 46
86 47
87 48
87 49
88 49
89 50
88 51
88 52
87 53
86 52
85 52
84 51
83 50
82 49
81 49
80 48
79 47
79 46
78 45
77 45
76 44
75 44
74 44
73 44
72 43
71 42
70 41
69 41
68 40
68 41
67 42
66 42
65 41
65 40
64 39
63 39
62 38
62 39
61 40
60 40
59 39
58 39
57 38
56 38
55 38
54 38
53 38
52 38
51 37
50 36
49 36
48 35
47 35
47 36
46 37
45 36
44 35
43 34
42 33
41 32
40 31
39 30
39 29
39 28
38 27
37 26
36 25
35 24
34 23
34 22
33 21
32 20
32 19
31 18
30 17
29 16
28 15
28 14
27 13
26 12
25 11
24 10
23 9
22 8
21 8
20 7
20 8
19 9
18 8
18 9
17 10
17 11
16 12
15 11
14 10
13 10
12 9
12 10
11 11
11 12
11 13
11 14
12 15
12 16
11 17
10 17
9 17
8 16
8 17
7 18
7 19
7 20
6 21
5 20
5 21
4 22
4 23
4 24
3 25
3 26
2 27
2 28
2 29
2 30
2 31
2 32
2 33
3 34
4 35
5 36
5 37
6 37
7 37
8 37
9 37
10 38
11 39
11 40
12 40
13 40
14 40
15 40
16 40
17 40
18 40
19 40
20 40
21 40
22 41
23 41
24 41
25 41
26 41
27 42
28 42
29 43
30 43
31 43
32 43
33 43
34 44
35 45
36 45
37 46
36 47
36 48
36 49
36 50
37 50
38 51
38 52
39 52
40 53
40 54
41 55
41 56
42 57
43 58
44 58
45 59
45 60
45 61
46 61
47 62
48 62
49 63
50 63
51 64
52 65
52 66
52 67
53 68
54 68
55 69
56 70
57 71
58 71
59 72
58 73
57 74
57 75
57 76
58 76
59 76
60 76
61 76
62 76
63 77
63 78
63 79
64 80
64 81
63 82
62 81
62 82
61 83
61 84
61 85
61 86
62 86
63 87
64 88
64 89
63 90
62 91
61 90
61 91
60 92
59 93
58 94
57 93
56 93
55 93
54 93
54 94
53 95
52 96
51 97
50 96
49 96
48 96
47 96
46 96
45 97
45 98
44 99
43 98
42 98
41 98
40 99
39 100
38 99
37 99
37 100
36 101
35 100
35 101
34 102
34 103
33 104
32 103
32 104
31 105
30 106
30 107
30 108
30 109
31 110
30 111
29 112
29 113
29 114
30 115
30 116
29 117
29 118
29 119
30 120
31 121
32 122
31 123
31 124
31 125
31 126
32 126
33 126
34 127
34 128
34 129
34 130
34 131
34 132
35 132
36 132
37 132
38 131
39 132
40 132
41 132
42 132
43 132
44 132
45 131
46 131
47 130
48 129
49 129
50 128
51 127
52 126
53 125
54 124
55 124
56 123
57 122
58 121
59 121
60 120
61 120
62 119
63 118
64 119
64 120
65 121
65 122
65 123
66 124
66 125
67 125
68 125
69 125
70 126
69 127
68 128
68 129
69 129
70 130
70 131
71 132
71 133
71 134
72 134
73 135
73 136
74 136
75 137
75 138
74 139
74 140
74 141
74 142
74 143
74 144
74 145
75 145
76 145
77 145
78 144
79 143
80 143
81 144
82 145
82 146
81 147
80 148
80 149
81 149
82 150
83 151
83 152
84 152
85 152
86 152
87 153
87 154
87 155
88 155
89 155
90 156
90 157
90 158
91 158
92 158
93 158
93 157
93 156
94 155
95 155
96 156
96 157
96 158
97 158
98 158
99 158
100 158
101 158
102 158
103 159
102 160
102 161
102 162
102 163
103 163
104 163
105 164
106 164
107 164
108 164
108 163
109 162
110 163
111 164
111 165
112 165
113 165
114 165
115 164
116 164
117 164
118 163
119 164
119 165
119 166
120 166
121 166
122 166
123 165
124 165
124 164
125 163
126 164
126 165
127 166
128 166
129 166
130 166
131 165
132 165
133 165
134 165
135 165
136 165
137 164
138 164
139 164
140 164
141 164
142 163
142 162
143 161
144 162
144 163
144 164
145 164
146 164
147 164
148 164
149 164
150 164
151 164
151 163
152 162
153 162
154 162
155 162
156 161
157 161
158 160
159 159
160 159
161 159
162 158
163 158
164 158
164 157
164 156
164 155
165 154
165 153
166 152
167 152
168 152
169 152
170 152
170 151
171 150
172 150
172 149
173 148
174 148
175 148
175 147
176 146
177 146
178 146
179 146
179 145
179 144
179 143
180 142
180 141
180 140
180 139
180 138
181 137
182 136
183 136
184 135
185 135
186 135
187 135
187 134
187 133
187 132
186 131
185 131
184 130
184 129
185 128
186 128
187 128
188 128
188 127
188 126
189 125
189 124
188 123
188 122
189 121
189 120
190 119
191 118
191 117
191 116
191 115
190 114
189 114
188 113
189 112
190 112
191 112
192 112
193 111
194 110
194 109
193 108
192 108
191 107
191 106
190 105
189 104
190 103
191 103
192 103
193 103
194 103
194 102
194 101
193 100
194 99
194 98
193 97
192 97
191 96
190 96
189 95
190 94
191 93
191 92
190 91
189 91
188 90
189 89
189 88
189 87
189 86
189 85
189 84
189 83
189 82
188 81
188 80
188 79
187 78
187 77
186 76
185 75
186 74
186 73
185 72
184 71
183 71
182 70
182 69
182 68
181 67
181 66
180 65
179 65
178 64
177 63
177 62
177 61
177 60
177 59
176 58
175 57
174 57
173 56
172 55
171 54
170 54
169 53
168 53
167 53
166 52
167 51
168 50
169 50
169 49
168 48
167 48
166 47
165 47
164 47
163 46
162 46
161 45
160 44
160 43
159 42
158 42
157 41
156 41
155 41
154 41
153 41
153 42
152 43
151 44
150 43
149 42
149 41
150 40
150 39
150 38
149 37
148 37
147 36
146 36
145 36
144 35
144 36
143 37
142 38
141 37
140 36
139 36
138 35
138 36
137 37
137 38
136 39
136 40
135 41
134 40
133 40
132 39
131 39
130 38
130 39
129 40
128 41
127 40
127 39
126 38
125 38
124 37
123 37
122 37
121 37
120 37
119 36
119 35
118 34
118 33
118 32
118 31
118 30
119 29
120 28
120 27
121 26
121 25
122 24
122 23
123 22
123 21
124 20
124 19
124 18
123 17
123 16
123 15
123 14
123 13
123 12
124 11
124 10
124 9
123 8
122 8
121 7
120 7
120 8
119 9
119 10
118 11
117 10
116 9
115 9
114 8
113 8
112 7
112 6
111 5
