228 2
227 3
226 3
225 3
224 3
223 3
222 3
221 4
220 4
219 4
218 4
217 4
216 4
215 3
214 3
213 3
212 3
211 3
210 3
209 3
208 3
207 3
206 3
205 3
204 3
203 4
202 4
201 4
200 4
199 3
198 3
197 3
196 3
195 3
194 3
193 3
192 3
191 4
190 4
189 4
188 4
187 4
186 4
185 4
184 4
183 4
182 4
181 4
180 4
179 4
178 4
177 4
176 4
175 4
174 4
173 4
172 4
171 4
170 4
169 4
168 5
167 5
166 5
165 5
164 5
163 5
162 5
161 5
160 5
159 5
158 5
157 5
156 5
155 5
154 5
153 5
152 5
151 5
150 5
149 5
148 5
147 5
146 6
145 6
144 6
143 6
142 6
141 6
140 6
139 6
138 6
137 6
136 6
135 6
134 6
133 6
132 6
131 7
130 7
129 7
128 7
127 7
126 7
125 7
124 7
123 7
122 7
121 7
120 7
119 7
118 7
117 7
116 7
115 7
114 8
113 8
112 8
111 8
110 8
109 8
108 8
107 8
106 8
105 8
104 8
103 8
102 8
101 8
100 7
99 7
98 7
97 7
96 7
95 7
94 7
93 7
92 7
91 6
90 6
89 6
88 6
87 6
86 6
86 7
86 8
85 9
84 9
83 9
82 9
81 9
80 10
79 10
78 10
77 10
76 10
75 10
74 11
73 11
72 11
71 12
70 12
69 12
68 13
67 13
66 13
65 13
64 14
63 14
62 14
61 15
60 15
59 15
58 16
57 16
56 16
55 16
54 16
53 16
52 16
51 16
50 16
49 16
48 16
47 16
46 16
45 16
44 16
43 16
42 15
41 15
40 15
39 15
38 15
37 15
36 14
35 14
34 14
33 14
32 14
31 14
30 14
29 13
28 13
27 13
26 13
25 13
24 13
23 12
22 12
21 12
20 12
19 12
18 12
17 12
16 12
15 12
14 12
13 12
12 12
11 12
10 12
9 13
8 13
7 13
6 13
6 14
6 15
6 16
6 17
7 18
7 19
7 20
8 20
9 20
10 20
11 20
12 20
13 20
14 20
15 21
16 22
17 23
17 24
17 25
16 26
15 27
14 28
13 29
12 29
11 30
11 31
10 32
9 32
8 33
7 33
7 34
6 35
6 36
6 37
5 38
4 38
3 38
2 38
2 39
2 40
2 41
3 41
4 41
5 41
6 41
7 41
8 41
9 41
10 41
11 40
12 40
13 40
14 40
15 40
16 39
17 39
18 39
19 39
20 39
21 38
22 38
23 37
24 37
25 37
26 37
27 36
28 36
29 35
30 35
31 34
32 34
33 33
34 33
35 32
36 32
37 31
38 31
39 30
40 29
41 29
42 29
43 28
44 28
45 28
46 28
47 28
48 28
49 28
50 28
51 28
52 28
53 28
54 28
55 28
56 28
57 28
58 28
59 29
60 29
61 29
62 29
63 30
64 30
65 31
66 32
67 32
68 32
69 32
70 32
71 32
72 33
73 33
74 34
75 35
75 36
76 37
77 37
78 38
78 39
78 40
79 40
80 40
81 40
82 40
83 40
84 40
85 40
86 39
87 39
88 39
89 38
90 38
91 37
92 37
93 37
94 36
95 36
96 36
97 35
98 35
99 35
100 34
101 34
102 35
103 35
104 35
105 35
106 35
107 35
108 35
109 34
110 34
111 34
112 34
113 34
114 34
115 34
116 34
117 34
118 34
119 34
120 34
121 34
122 34
123 34
124 34
125 34
126 34
127 34
128 34
129 34
130 34
131 34
132 34
133 34
134 34
135 34
136 34
137 34
138 34
139 34
140 33
141 33
142 33
143 33
144 33
145 33
146 33
147 33
148 33
149 33
150 33
151 33
152 33
153 33
154 33
155 33
156 33
157 33
158 33
159 33
160 33
161 33
162 33
163 33
164 33
165 33
166 33
167 33
168 33
169 33
170 33
171 33
172 33
173 33
174 33
175 33
176 33
177 33
178 33
179 33
180 33
181 33
182 33
183 33
184 33
185 33
186 33
187 33
188 33
189 33
190 33
191 33
192 33
193 33
194 33
195 33
196 34
197 34
198 34
199 33
200 33
201 33
202 33
203 33
204 33
205 33
206 34
207 34
208 34
209 33
210 33
211 33
212 33
213 33
214 33
215 34
216 34
217 34
218 33
219 33
220 33
221 33
222 33
223 33
224 33
225 33
226 33
227 33
228 33
229 33
230 33
231 33
232 33
233 33
234 33
235 33
236 32
236 31
237 30
238 31
238 32
239 32
240 32
241 32
242 32
243 32
244 32
245 32
246 32
247 32
248 32
249 32
250 32
251 32
252 32
253 32
254 32
255 32
256 32
257 32
258 32
259 32
260 32
261 32
262 32
263 32
264 32
265 32
266 32
267 32
268 32
269 32
270 32
271 32
272 32
273 31
274 31
275 32
275 33
276 33
277 33
278 33
279 33
280 32
281 31
281 30
282 29
283 30
284 30
285 30
286 30
287 30
288 30
289 29
290 29
291 29
292 29
293 29
294 29
295 29
296 28
297 28
298 28
299 28
300 28
301 28
302 28
303 28
304 28
305 28
306 28
307 28
308 28
309 28
310 28
311 29
312 29
313 29
314 29
315 29
316 29
317 29
318 29
319 29
320 28
321 28
322 28
323 28
324 27
325 27
326 27
327 27
328 27
329 28
330 28
331 28
332 28
333 28
334 28
335 28
336 28
337 28
338 28
339 28
340 28
341 28
342 28
343 28
344 28
345 28
346 28
347 28
348 28
349 28
350 28
351 28
352 28
353 28
354 28
355 28
356 28
357 28
358 28
359 28
360 28
361 28
362 28
363 28
364 28
365 27
365 26
366 25
365 25
364 24
363 24
362 24
361 24
360 24
359 24
358 24
357 24
356 24
355 23
354 23
353 23
352 23
351 23
350 23
349 23
348 23
347 23
346 23
345 23
344 22
343 22
342 22
341 22
340 22
339 22
338 22
337 21
336 21
335 21
334 21
333 21
332 21
331 21
330 21
329 20
328 20
327 20
326 20
325 20
324 20
323 19
322 19
321 18
322 17
321 17
320 16
321 15
320 15
319 14
318 14
317 14
316 14
315 14
314 14
313 13
312 13
311 13
310 13
309 13
308 13
307 13
306 12
305 12
304 12
303 12
302 12
301 12
300 11
299 11
298 11
297 11
296 10
295 10
294 10
293 10
292 10
291 10
290 9
289 9
288 9
287 9
286 9
285 9
284 8
283 8
282 8
281 8
280 8
279 8
278 8
277 7
276 7
275 7
274 7
273 6
272 6
271 5
270 4
269 4
268 4
267 4
266 4
265 4
264 3
263 3
262 3
261 3
260 3
259 3
258 3
257 3
256 3
255 3
254 4
253 4
252 3
251 2
250 2
249 2
248 2
247 2
246 2
245 2
244 2
243 2
242 2
241 2
240 2
239 2
238 2
237 2
236 2
236 3
235 4
234 3
233 2
232 2
231 2
230 2
229 2
