182 3
182 4
182 5
182 6
182 7
183 8
184 9
185 10
186 11
186 12
187 13
188 14
189 15
189 16
190 17
191 18
190 19
189 19
188 18
187 18
186 17
185 17
184 16
183 15
182 14
181 14
180 14
179 13
178 13
177 13
177 14
176 15
175 15
175 16
174 17
173 17
172 17
172 18
172 19
172 20
173 21
174 22
175 22
176 22
177 22
178 23
179 24
179 25
180 26
180 27
179 28
178 28
177 28
176 28
175 28
174 28
173 28
172 28
171 28
170 28
169 28
168 28
167 28
166 28
165 28
164 28
163 28
162 28
161 29
160 29
159 29
158 29
157 29
156 29
155 29
154 29
153 29
152 29
151 29
150 29
149 29
148 29
147 29
146 29
145 30
144 30
143 30
142 30
141 30
140 30
139 31
138 31
137 31
136 31
135 31
134 31
133 31
132 32
131 32
130 32
129 32
128 32
127 32
126 32
125 32
124 33
123 33
122 33
121 33
120 33
119 34
118 34
117 34
116 34
115 34
114 35
113 35
112 35
111 35
110 36
109 36
108 36
107 36
106 36
105 36
104 36
103 36
102 37
101 37
100 37
99 37
98 37
97 37
96 37
95 37
94 38
93 38
92 38
91 38
90 38
89 38
88 38
87 38
86 38
85 38
84 38
83 38
82 39
81 39
80 39
79 39
78 39
77 39
76 39
75 39
74 39
73 40
72 40
71 40
70 40
69 40
68 40
67 40
66 40
65 40
64 40
63 40
62 40
61 40
60 40
59 40
58 40
57 40
56 40
55 40
54 40
53 40
52 40
51 40
50 40
49 41
48 41
47 41
46 41
45 41
44 41
43 41
42 41
41 41
40 41
39 41
38 41
37 41
36 41
35 42
34 42
33 42
32 42
31 42
30 42
29 42
28 42
27 42
26 42
25 42
24 42
23 42
22 42
21 42
20 42
19 42
18 42
17 42
16 42
15 42
14 42
13 42
12 42
11 42
10 42
9 42
8 42
7 42
6 42
5 42
4 42
3 42
2 42
2 43
2 44
2 45
3 45
4 45
5 45
6 45
7 45
8 46
9 46
10 46
11 47
12 47
13 47
14 47
15 47
16 48
17 48
18 48
19 48
20 49
21 49
22 49
23 49
24 49
25 49
26 49
27 49
28 49
29 49
30 49
31 50
32 50
33 50
34 50
35 50
36 51
37 51
38 51
39 51
40 51
41 51
42 51
43 51
44 51
45 52
46 52
47 52
48 52
49 52
50 52
51 53
52 53
53 53
54 53
55 53
56 53
57 53
58 53
59 54
60 54
61 54
62 54
63 54
64 54
65 54
66 55
67 55
68 55
69 55
70 56
71 56
72 56
73 56
74 56
75 56
76 56
77 56
78 56
79 57
80 57
81 57
82 57
83 58
84 58
85 58
86 58
87 58
88 58
89 58
90 58
91 58
92 58
93 59
94 59
95 59
96 59
97 59
98 60
99 60
100 60
101 60
102 60
103 60
104 60
105 60
106 61
107 61
108 61
109 61
110 61
111 61
112 61
113 62
114 62
115 62
116 62
117 63
118 63
119 63
120 63
121 63
122 63
123 64
124 64
125 64
126 64
127 64
128 64
129 65
130 65
131 65
132 65
133 65
134 66
135 66
136 66
137 67
138 67
139 67
140 67
141 67
142 68
143 68
144 68
145 69
146 69
147 69
148 69
149 69
150 69
151 70
152 70
153 70
154 70
155 71
156 71
157 71
158 71
159 72
160 72
161 72
162 72
163 72
164 73
165 73
166 73
167 73
168 74
169 74
170 75
171 76
172 77
173 77
174 77
175 77
176 77
177 77
178 77
179 78
180 78
181 78
182 79
183 79
184 79
185 79
186 80
185 81
184 81
183 82
183 83
183 84
183 85
184 85
185 85
186 85
187 84
188 83
189 83
190 82
191 81
192 81
193 80
194 79
195 79
196 79
197 78
198 77
199 77
200 76
201 76
202 76
203 76
204 76
205 76
206 76
207 76
208 76
209 76
210 76
211 76
212 76
213 76
214 76
215 76
216 76
217 76
218 77
219 77
220 77
221 77
222 77
223 77
224 77
225 77
226 76
227 76
228 76
229 76
230 76
231 75
232 75
233 74
234 73
235 73
236 73
237 73
238 74
238 75
238 76
238 77
239 77
240 77
241 77
242 78
243 78
244 79
245 79
246 79
247 80
247 81
248 81
249 81
250 82
250 83
251 83
252 84
253 84
254 84
255 84
256 83
256 82
257 81
257 80
257 79
256 79
255 78
254 77
253 76
254 75
254 74
255 73
256 72
257 72
258 72
259 72
260 72
261 72
262 72
263 72
264 72
265 71
266 70
267 69
268 68
269 67
270 66
271 65
271 64
272 63
273 63
274 63
275 62
276 62
277 61
278 61
279 61
280 60
281 60
282 59
283 58
284 58
285 57
286 57
287 57
288 57
289 56
290 56
291 56
292 56
293 55
294 55
295 55
296 54
297 54
298 54
299 53
300 53
301 52
302 51
302 50
303 49
302 49
301 48
300 48
299 48
298 48
297 48
296 48
295 47
294 47
293 47
292 46
291 46
290 46
289 45
288 45
287 44
286 44
285 44
284 43
283 43
282 43
281 42
280 42
279 41
278 41
277 41
276 40
275 39
274 39
273 38
272 38
271 37
270 37
269 37
268 37
267 36
266 36
265 36
264 36
263 35
262 35
261 35
260 35
259 34
258 34
257 34
256 34
255 33
254 33
253 33
252 32
251 32
250 32
249 32
248 31
247 31
246 31
245 31
244 30
243 30
242 30
241 30
240 30
239 29
238 29
237 29
236 29
235 28
234 28
233 28
232 28
231 28
230 28
229 28
228 27
227 27
226 27
225 27
224 27
223 27
222 27
221 27
220 26
219 26
218 26
217 26
216 26
215 26
214 26
213 26
212 26
211 26
210 26
209 25
208 25
207 25
206 25
205 25
204 24
203 23
202 22
203 21
203 20
202 20
201 19
200 18
199 17
200 16
200 15
199 15
198 14
197 13
198 12
197 12
196 11
197 10
196 10
195 9
194 8
195 7
194 7
193 6
194 5
193 5
192 4
191 3
190 3
189 3
189 4
189 5
188 6
187 6
186 5
185 4
184 3
183 3
