11 4
11 5
10 6
9 5
8 5
7 5
6 5
6 6
5 7
5 8
5 9
5 10
4 11
3 12
2 13
2 14
3 14
4 15
5 16
6 17
7 17
8 17
9 17
10 18
11 18
12 19
13 20
14 20
15 20
16 21
17 22
18 23
19 23
20 23
21 24
22 24
23 25
24 26
25 26
26 26
27 27
28 28
29 29
30 29
31 29
32 29
33 30
34 30
35 30
36 31
37 31
38 32
38 33
39 34
40 35
41 36
41 37
42 38
43 39
43 40
44 40
45 41
45 42
46 43
47 44
47 45
48 46
49 47
50 48
50 49
50 50
50 51
50 52
51 52
52 52
53 52
54 53
55 54
56 55
57 56
57 57
58 58
59 59
59 60
60 60
61 61
61 62
62 63
63 64
64 65
64 66
65 66
66 67
66 68
66 69
67 69
68 69
69 70
69 71
70 72
71 72
72 73
72 74
73 75
74 76
75 77
76 78
77 79
78 80
79 81
79 82
80 83
81 83
82 84
82 85
83 86
84 87
84 88
84 89
84 90
84 91
84 92
84 93
83 94
82 93
82 94
81 95
80 96
79 97
78 96
78 97
77 98
76 97
76 98
75 99
74 100
73 101
72 102
71 101
71 102
70 103
69 104
68 105
67 104
67 105
66 106
65 105
65 106
64 107
63 108
63 109
63 110
63 111
64 111
65 112
64 113
64 114
64 115
64 116
65 117
65 118
65 119
65 120
65 121
65 122
66 122
67 122
68 123
69 124
70 125
71 125
72 125
73 125
74 125
75 125
75 124
76 123
77 123
78 122
79 121
80 120
81 119
82 118
83 117
84 116
85 115
86 115
87 115
88 115
89 115
90 115
91 115
92 116
93 117
93 118
94 119
94 120
94 121
95 122
95 123
95 124
96 125
96 126
97 127
97 128
98 129
99 130
100 131
101 132
101 133
102 133
103 134
104 135
105 135
106 136
106 137
106 138
107 138
108 138
109 138
110 139
110 140
111 140
112 141
113 142
114 143
115 144
116 144
117 144
118 145
119 145
120 145
121 146
122 146
123 147
123 148
124 148
125 148
126 148
127 149
128 149
129 149
130 149
131 149
132 149
133 149
134 149
135 150
136 150
137 150
138 150
139 150
140 150
141 150
142 150
143 150
144 150
145 150
146 150
147 150
148 149
149 149
150 149
151 149
152 149
153 149
154 149
155 149
156 149
157 149
158 149
159 148
160 148
161 148
162 148
163 147
164 147
165 147
166 147
167 146
168 146
169 146
170 146
171 146
172 146
173 146
174 146
175 145
176 145
177 145
178 144
179 144
180 144
180 143
181 142
182 141
183 141
183 140
184 139
185 138
185 137
186 136
186 135
187 134
188 133
189 132
190 132
190 131
190 130
191 129
191 128
192 127
192 126
193 125
193 124
193 123
194 122
194 121
194 120
194 119
195 118
195 117
195 116
195 115
195 114
195 113
195 112
195 111
195 110
195 109
195 108
195 107
195 106
195 105
195 104
195 103
195 102
195 101
195 100
194 99
194 98
194 97
194 96
194 95
194 94
193 93
193 92
193 91
193 90
193 89
193 88
192 87
192 86
192 85
192 84
192 83
191 82
190 81
190 80
190 79
189 78
189 77
188 76
187 75
187 74
186 73
186 72
185 71
184 70
184 69
183 68
183 67
182 66
181 65
180 64
180 63
179 62
178 61
177 60
176 59
175 58
174 57
173 56
172 55
171 54
170 53
169 53
168 52
167 52
166 51
165 51
164 50
163 50
162 49
161 49
160 48
159 48
158 47
157 47
156 46
155 46
154 46
153 46
152 46
151 46
150 46
149 46
148 46
147 46
146 46
145 45
145 44
144 43
143 43
142 42
141 42
140 41
141 40
141 39
142 38
143 37
143 36
143 35
144 34
145 33
146 33
147 33
147 32
147 31
148 30
148 29
149 28
150 27
150 26
150 25
150 24
149 23
148 22
147 22
146 21
145 21
144 21
143 20
142 20
141 19
140 19
139 19
138 18
137 18
136 18
135 18
134 18
133 18
132 19
131 19
130 18
129 18
128 18
127 18
126 18
125 18
124 18
124 19
123 20
123 21
123 22
123 23
123 24
123 25
123 26
123 27
123 28
123 29
123 30
123 31
122 32
122 33
122 34
122 35
122 36
122 37
121 38
120 37
119 37
119 38
118 39
118 40
119 41
120 42
120 43
119 44
118 45
117 44
116 44
115 44
114 44
113 44
112 44
111 44
110 44
109 44
108 44
107 43
106 43
105 42
104 42
103 41
102 41
101 41
100 41
99 40
98 40
97 39
96 39
95 38
94 38
93 38
92 38
91 38
90 38
89 37
89 36
88 35
87 35
86 34
86 35
85 36
84 35
83 35
82 35
81 35
80 35
79 34
78 34
77 33
76 33
75 32
74 31
73 31
72 30
71 31
70 31
69 30
68 30
67 30
66 30
65 29
64 29
63 29
62 29
61 29
60 29
59 29
58 29
57 29
56 29
55 29
54 28
53 28
52 28
51 28
50 28
49 27
48 27
47 27
46 27
45 26
44 26
43 25
42 25
41 24
40 23
39 22
38 22
37 21
36 21
35 20
34 19
33 18
32 17
32 16
31 15
30 15
29 14
28 14
27 13
26 12
25 11
24 10
23 9
22 8
21 7
20 6
19 6
18 5
17 5
16 5
15 5
14 4
13 4
12 4
