216 2
216 3
216 4
216 5
216 6
215 7
214 7
213 8
212 8
211 9
211 10
210 11
209 11
208 11
207 11
206 11
206 12
206 13
206 14
206 15
206 16
206 17
207 18
206 19
206 20
206 21
205 22
204 22
203 22
202 22
201 22
200 22
199 22
198 22
197 22
196 22
195 23
194 23
193 23
192 23
191 23
190 23
189 23
188 23
187 23
186 23
185 23
184 23
183 23
182 24
181 24
180 24
179 24
178 24
177 24
176 24
175 24
174 24
173 24
172 24
171 25
170 25
169 25
168 25
167 25
166 25
165 26
164 26
163 26
162 26
161 26
160 26
159 26
158 26
157 26
156 27
155 27
154 27
153 27
152 27
151 27
150 27
149 27
148 27
147 27
146 27
145 27
144 27
143 28
142 28
141 28
140 28
139 28
138 28
137 28
136 28
135 28
134 28
133 28
132 28
131 28
130 28
129 28
128 28
127 28
126 28
125 28
124 28
123 28
122 28
121 28
120 28
119 28
118 28
117 28
116 28
115 28
114 28
113 28
112 28
111 28
110 28
109 27
108 27
107 27
106 27
105 27
104 27
103 27
102 27
101 27
100 27
99 27
98 27
97 27
96 27
95 27
94 27
93 27
92 27
91 27
90 27
89 27
88 27
87 27
86 27
85 27
84 27
83 27
82 27
81 27
80 27
79 27
78 27
77 27
76 28
75 28
74 28
73 28
72 28
71 28
70 28
69 29
68 29
67 29
66 29
65 29
64 29
63 29
62 30
61 30
60 30
59 30
58 31
57 31
56 31
55 31
54 31
53 32
52 32
51 32
50 32
49 32
48 32
47 32
46 33
45 33
44 33
43 33
42 33
41 33
40 33
39 33
38 33
37 33
36 33
35 33
34 33
33 34
32 34
31 34
30 34
29 34
28 34
27 34
26 34
25 34
24 34
23 34
22 34
22 35
21 36
20 36
19 36
18 36
17 36
16 37
15 38
14 38
13 39
12 40
11 41
10 41
9 42
8 43
8 44
7 45
6 45
5 46
5 47
4 48
3 49
2 50
2 51
2 52
2 53
2 54
3 54
4 54
5 54
6 54
7 53
8 52
9 52
10 51
11 51
12 50
13 49
14 48
15 47
16 47
17 46
18 45
19 45
20 45
21 45
22 44
23 44
24 44
25 44
26 44
27 45
28 46
29 47
30 47
31 47
32 47
33 47
34 47
35 47
36 46
37 46
38 46
39 47
38 48
37 49
36 50
36 51
36 52
37 52
38 52
39 52
40 51
41 51
42 51
43 51
44 51
45 51
46 51
47 51
48 50
49 50
50 50
51 50
52 51
52 52
52 53
52 54
53 54
54 54
55 53
56 52
57 52
58 52
59 52
60 51
61 51
62 50
63 50
64 49
65 49
66 49
67 50
67 51
67 52
68 52
69 52
70 51
71 51
72 50
73 49
74 49
75 49
76 48
77 48
78 48
79 49
80 49
81 49
82 49
83 49
84 49
85 49
86 49
87 50
88 50
89 50
90 50
91 50
92 49
93 50
93 51
93 52
94 52
95 52
96 52
97 53
98 54
99 54
100 54
101 54
102 55
103 55
104 55
105 56
105 57
105 58
105 59
105 60
106 60
107 60
108 60
109 61
110 61
111 61
112 61
113 61
114 61
115 61
116 60
117 60
118 60
119 59
120 59
121 59
122 58
123 58
124 58
125 57
126 57
127 57
128 58
129 58
130 58
131 58
132 59
132 60
132 61
133 61
134 61
135 61
136 62
137 63
138 63
139 64
140 65
141 65
142 65
143 65
144 66
145 66
146 66
147 65
148 65
149 65
150 65
151 65
152 64
153 63
154 63
155 63
156 62
157 62
158 62
159 62
160 63
161 63
162 63
163 64
163 65
164 65
165 65
166 66
166 67
167 67
168 67
169 68
169 69
170 69
171 70
171 71
172 72
172 73
173 74
174 74
175 74
176 73
177 72
178 73
179 73
180 72
181 71
182 71
183 71
184 71
185 71
186 72
187 72
188 72
189 73
190 73
191 73
192 73
193 74
194 74
195 75
196 75
197 75
198 76
199 76
200 76
201 77
202 77
203 77
204 77
205 77
206 77
207 77
208 77
209 77
210 77
211 77
212 77
213 77
214 77
215 77
216 77
217 77
218 77
219 77
220 77
221 77
222 78
221 79
220 80
220 81
220 82
220 83
220 84
220 85
220 86
220 87
220 88
221 89
222 89
223 88
224 87
224 86
225 85
226 85
227 84
228 83
229 82
230 81
231 80
231 79
232 78
232 77
233 76
234 76
235 77
236 77
237 77
238 77
239 77
240 77
241 77
242 77
243 76
244 76
245 76
246 76
247 76
248 75
249 75
250 75
251 74
252 74
253 73
254 73
255 73
256 73
257 72
258 72
259 72
260 72
261 72
262 71
263 71
264 71
265 71
266 70
267 70
268 70
269 70
270 69
271 69
272 69
273 69
274 69
275 69
276 69
277 68
278 68
279 69
280 69
281 69
282 69
283 70
284 70
285 70
286 70
287 70
288 70
289 70
290 70
291 70
292 70
293 70
294 70
295 70
296 70
297 69
298 68
299 68
300 68
301 68
302 68
303 67
303 66
304 65
304 64
304 63
304 62
304 61
303 61
302 60
303 59
304 59
305 59
306 58
306 57
307 56
307 55
308 54
309 54
310 54
311 53
312 53
313 52
314 52
315 52
316 51
317 51
318 50
319 50
320 49
321 48
322 47
323 46
324 45
325 44
325 43
326 42
326 41
325 41
324 40
323 40
322 39
321 39
320 39
319 38
318 38
317 38
316 38
315 38
314 38
313 37
312 36
311 36
310 35
309 35
308 34
307 33
306 33
305 32
304 32
303 31
302 31
301 31
300 30
299 29
298 29
297 29
296 28
295 28
294 27
293 27
292 27
291 26
290 26
289 26
288 26
287 25
286 25
285 24
284 24
283 24
282 24
281 24
280 24
279 24
278 24
277 24
276 24
275 24
274 24
273 23
272 23
271 23
270 23
269 23
268 23
267 23
266 23
265 23
264 23
263 23
262 22
261 22
260 22
259 22
258 22
257 23
256 23
255 23
254 23
253 23
252 23
251 23
250 22
249 22
248 22
247 22
246 22
245 22
244 22
243 21
242 21
241 21
240 21
239 21
238 21
237 21
236 21
235 21
234 22
233 22
232 21
231 20
230 19
231 18
230 18
229 17
228 16
227 15
228 14
227 14
226 13
225 13
224 12
225 11
225 10
225 9
224 9
223 8
222 7
223 6
223 5
222 5
221 4
220 3
219 2
218 2
217 2
