119 2
118 3
117 3
116 3
116 4
115 5
114 5
113 6
112 7
111 7
110 6
109 6
108 6
108 7
108 8
108 9
107 10
106 10
105 10
104 10
104 11
104 12
104 13
103 14
102 14
101 15
100 16
99 17
98 18
97 18
96 18
96 19
95 20
95 21
94 22
93 21
92 21
91 21
90 22
89 22
88 22
87 23
86 23
85 23
84 22
83 22
82 22
82 23
81 24
80 24
79 24
78 24
77 24
76 23
75 23
74 23
74 24
73 25
72 25
71 25
70 25
69 25
68 26
67 26
66 26
65 26
64 25
63 25
62 25
62 26
61 27
60 27
59 27
58 26
57 26
56 25
55 25
54 25
54 26
54 27
53 28
52 29
51 28
50 27
49 26
48 26
48 27
47 28
46 28
46 29
46 30
45 31
44 31
43 30
42 30
41 30
40 31
39 31
39 32
38 33
37 33
36 33
35 34
34 34
33 33
32 33
31 33
31 34
30 35
29 35
28 36
27 36
26 36
25 36
24 36
24 37
23 38
22 38
21 38
20 38
19 39
18 40
17 40
16 40
15 40
14 40
13 40
12 40
12 41
11 42
10 43
9 43
8 43
7 43
7 44
7 45
7 46
6 47
6 48
5 49
5 50
4 51
3 52
2 53
2 54
2 55
2 56
3 57
4 57
5 57
6 57
7 57
8 57
9 58
9 59
10 60
11 60
12 61
13 62
14 63
15 63
16 64
16 65
17 65
18 65
19 66
20 67
21 68
22 68
23 68
24 69
24 70
25 70
26 70
27 71
28 71
29 72
30 72
31 72
32 73
33 73
34 74
35 74
36 75
37 75
38 75
39 75
40 75
41 76
42 76
43 76
44 77
45 77
46 78
46 79
47 79
48 80
49 80
50 79
51 78
52 78
53 78
54 78
55 79
55 80
55 81
56 82
57 82
58 82
59 81
60 80
61 81
62 81
63 81
64 80
65 81
66 81
67 81
68 82
68 83
69 83
70 83
71 82
72 82
73 82
74 83
75 83
76 83
77 83
78 83
79 83
80 83
81 84
81 85
82 85
83 85
84 84
85 85
85 86
85 87
85 88
85 89
85 90
85 91
85 92
86 92
87 92
88 92
89 92
90 93
90 94
90 95
90 96
91 96
92 97
92 98
93 99
93 100
93 101
93 102
93 103
93 104
93 105
94 105
95 105
96 105
97 106
98 106
99 107
100 108
100 109
101 109
102 110
103 110
104 111
104 112
104 113
104 114
105 114
106 115
107 115
108 115
109 114
110 114
111 114
112 113
113 112
113 111
112 110
111 109
112 108
112 107
112 106
112 105
113 104
113 103
114 102
113 102
112 101
113 100
114 99
114 98
115 97
115 96
115 95
116 94
116 93
117 92
117 91
117 90
118 89
119 90
119 91
120 91
121 91
122 92
123 92
124 92
125 91
125 90
126 89
126 88
125 88
124 87
123 86
124 85
125 84
126 84
127 84
128 84
129 84
130 84
131 84
132 84
133 83
133 82
134 81
135 82
136 83
137 83
138 84
139 84
140 84
141 83
142 82
143 82
144 82
145 83
146 83
147 83
148 83
149 83
150 82
151 82
152 83
153 83
154 82
154 81
153 80
154 79
155 79
156 79
157 80
157 81
158 81
159 81
160 81
161 81
162 81
163 81
164 81
165 81
166 80
167 80
168 79
169 79
170 79
171 79
172 79
173 80
173 81
174 82
174 83
175 83
176 84
177 85
178 85
179 85
180 86
180 87
179 88
178 89
178 90
178 91
179 92
179 93
180 93
181 93
182 93
183 92
184 92
185 92
186 93
186 94
187 95
188 96
189 97
189 98
190 98
191 98
192 97
193 96
193 95
194 94
195 93
196 94
197 94
198 93
198 92
199 91
198 91
197 90
196 89
197 88
198 87
199 86
199 85
200 84
201 84
202 83
203 83
204 82
205 81
205 80
206 79
207 79
208 78
208 77
209 76
210 76
211 75
211 74
212 73
211 72
212 71
213 70
214 70
215 70
216 69
217 69
218 69
219 69
220 68
221 68
222 68
223 68
224 69
224 70
225 70
226 70
227 69
228 68
229 68
230 68
231 68
232 67
233 66
234 66
235 66
236 66
237 66
238 66
239 66
240 67
240 68
241 68
242 68
243 68
244 68
245 69
246 69
247 70
247 71
248 71
249 71
250 71
251 71
252 72
253 72
254 72
255 73
256 74
257 74
258 74
259 75
260 75
261 76
262 77
263 77
264 77
265 78
266 78
267 79
268 79
269 80
270 80
271 81
272 81
273 82
273 83
273 84
274 84
275 84
276 85
277 85
278 85
279 85
280 86
281 86
282 86
283 87
283 88
284 88
285 88
286 89
287 89
288 89
289 90
290 91
291 91
292 92
293 92
294 93
295 93
296 93
297 92
297 91
298 90
297 90
296 89
297 88
296 88
295 87
294 87
293 86
292 85
293 84
293 83
292 83
291 82
292 81
292 80
293 79
292 79
291 78
290 78
289 78
288 77
287 76
286 75
285 74
284 73
285 72
284 72
283 71
282 71
281 70
280 69
279 68
278 67
277 66
276 66
275 65
274 64
275 63
274 63
273 62
274 61
273 61
272 60
271 59
270 58
271 57
272 57
273 56
273 55
274 54
274 53
274 52
274 51
274 50
275 49
276 48
277 47
278 46
279 45
279 44
280 43
281 42
281 41
282 40
283 39
284 38
285 37
286 36
287 35
288 34
289 33
290 32
291 31
292 30
293 29
294 28
294 27
295 26
296 25
296 24
297 23
297 22
297 21
297 20
298 19
298 18
297 18
296 17
295 17
294 18
293 18
292 18
291 18
290 19
289 19
288 20
287 21
286 21
285 22
284 22
283 22
282 23
281 24
280 24
279 25
278 25
277 26
276 26
275 27
274 27
273 28
272 29
271 30
270 30
269 30
269 31
268 32
267 32
266 33
265 33
264 34
263 34
262 35
261 36
260 36
259 37
258 38
257 38
256 38
255 39
254 40
253 40
252 41
251 41
250 42
249 43
248 44
247 44
246 45
245 46
244 46
243 46
242 47
241 48
240 48
239 49
238 49
237 49
236 50
235 50
234 49
233 49
232 49
231 49
230 48
229 48
228 48
227 47
226 46
225 46
224 47
223 47
222 46
221 45
220 45
219 45
218 45
217 45
216 44
215 44
214 43
213 43
212 42
211 42
210 42
209 41
210 40
209 40
208 39
207 38
208 37
209 37
210 36
210 35
209 34
208 33
207 33
206 33
205 33
204 33
204 34
203 35
202 34
202 33
202 32
201 32
200 31
199 30
198 29
197 28
196 28
195 28
194 28
193 27
192 26
191 25
190 25
189 25
188 24
189 23
189 22
190 21
190 20
190 19
189 19
188 18
187 17
186 17
185 17
184 17
183 17
182 17
181 18
180 18
179 18
178 18
178 19
177 20
176 19
175 19
174 19
174 20
173 21
172 21
171 21
171 22
170 23
169 23
168 23
167 24
166 24
165 24
165 25
164 26
163 26
162 26
161 26
160 26
159 27
158 27
157 28
156 28
155 27
154 26
153 26
152 26
151 26
150 25
149 25
148 25
147 25
146 24
147 23
147 22
146 22
145 21
144 21
143 21
142 21
141 20
140 20
139 20
138 20
137 20
137 21
136 22
135 22
134 21
133 21
132 21
131 22
130 22
129 22
128 22
127 22
126 21
125 21
124 20
123 19
122 18
122 17
122 16
123 15
123 14
123 13
123 12
124 11
125 11
126 10
127 10
128 9
129 8
129 7
130 6
130 5
130 4
129 4
128 3
127 2
126 2
125 2
124 2
123 2
122 2
121 2
120 2
