138 4
137 5
136 5
135 5
134 5
133 5
132 6
131 6
130 6
129 6
128 7
127 7
126 7
125 8
124 8
123 8
122 9
121 9
120 10
119 10
118 10
117 11
116 11
115 12
114 12
113 13
112 14
111 14
110 15
109 15
108 16
107 16
106 17
105 17
104 17
103 17
102 17
101 17
100 17
99 18
98 19
97 20
96 20
95 21
94 22
93 23
92 23
91 24
91 25
90 26
89 27
88 28
87 28
86 29
85 30
84 31
83 32
82 32
81 33
80 34
79 35
78 35
78 36
77 37
76 37
75 38
74 39
73 40
72 41
71 42
70 43
69 44
68 45
68 46
67 47
66 48
65 49
64 50
63 51
62 52
61 53
61 54
60 55
59 56
58 57
57 58
56 58
55 58
54 59
53 59
52 59
51 60
50 60
49 60
48 60
47 61
46 61
45 62
44 63
43 63
42 64
41 65
40 66
39 66
38 67
38 68
37 69
36 69
35 70
34 71
33 72
32 73
31 74
30 75
29 75
29 76
28 77
27 77
26 77
25 78
24 78
23 79
22 80
22 81
21 82
21 83
20 84
19 85
18 86
18 87
17 88
16 89
15 90
15 91
14 92
13 93
13 94
12 95
12 96
12 97
11 98
10 99
9 100
9 101
9 102
9 103
8 104
8 105
7 106
6 106
6 107
5 108
4 109
3 110
3 111
2 112
2 113
2 114
2 115
2 116
2 117
3 118
3 119
4 119
5 120
6 120
7 121
8 121
9 121
10 121
11 122
11 123
12 124
12 125
13 125
14 126
15 127
16 127
17 127
18 128
19 129
20 129
21 130
22 131
23 131
24 132
25 132
26 133
27 133
28 134
29 134
30 135
31 135
32 136
33 137
34 137
35 138
36 139
37 139
38 140
38 141
39 141
40 142
41 142
42 143
43 143
44 144
45 145
46 145
47 146
48 146
49 146
50 147
51 147
52 148
53 148
54 148
55 149
56 149
57 150
58 150
59 150
60 150
61 151
62 151
63 151
64 152
65 152
66 152
67 153
67 154
67 155
67 156
67 157
67 158
67 159
67 160
67 161
67 162
67 163
68 164
68 165
68 166
68 167
68 168
68 169
68 170
68 171
69 171
70 170
71 170
71 169
71 168
71 167
71 166
71 165
71 164
70 163
71 162
72 162
73 161
74 160
75 159
76 159
77 159
78 160
78 161
78 162
78 163
79 164
79 165
80 166
80 167
81 168
81 169
81 170
82 171
82 172
83 173
83 174
84 175
84 176
84 177
85 178
86 179
87 179
88 178
89 178
89 177
89 176
89 175
89 174
89 173
89 172
89 171
88 170
89 169
90 168
91 167
92 167
93 168
94 169
95 170
95 171
96 172
97 173
98 174
99 175
100 176
101 177
102 178
103 179
104 180
105 181
106 181
107 180
108 180
108 179
107 178
107 177
107 176
106 175
106 174
106 173
105 172
106 171
107 171
106 170
107 169
108 169
109 170
110 171
111 172
112 173
113 174
114 175
115 176
116 177
117 177
118 178
118 179
119 179
120 180
121 180
122 179
123 179
122 178
122 177
121 176
120 175
119 175
118 174
118 173
119 172
118 171
119 170
120 169
121 168
122 169
123 169
124 170
125 171
126 171
127 172
128 173
129 173
130 174
131 175
132 175
133 176
133 177
134 177
135 177
136 177
137 176
138 176
138 175
137 174
137 173
136 172
136 171
136 170
135 169
136 168
137 168
138 169
139 169
140 170
141 170
142 171
143 171
144 172
145 172
146 172
147 172
148 171
149 171
148 170
148 169
147 168
146 167
146 166
147 165
148 165
149 166
150 166
151 166
152 167
153 168
154 168
155 169
156 169
157 170
158 170
159 171
160 172
161 172
162 171
163 171
162 170
162 169
161 168
161 167
160 166
159 166
158 166
157 165
156 164
155 164
154 163
155 162
156 162
157 162
158 162
159 163
160 164
161 164
162 165
163 165
164 166
165 166
166 166
167 167
168 167
169 167
170 168
171 168
172 168
173 167
173 166
172 165
173 164
174 164
175 164
176 165
177 165
178 165
179 165
180 166
181 166
182 166
183 167
184 168
185 168
186 168
187 169
188 170
189 170
190 170
191 170
192 169
193 169
194 169
195 170
196 170
197 170
198 171
199 171
200 171
201 171
202 172
203 172
204 173
205 173
206 173
207 174
208 174
209 174
210 174
211 174
212 175
213 175
214 175
215 175
216 175
217 174
218 173
219 172
220 172
220 171
219 170
220 169
221 169
221 168
220 167
220 166
219 165
219 164
219 163
218 162
218 161
217 160
216 159
215 158
214 157
213 157
212 156
212 155
211 154
210 153
209 152
209 151
208 150
207 149
206 149
205 148
204 148
203 148
202 147
201 147
200 146
199 146
198 145
199 144
200 143
201 143
200 142
200 141
199 140
198 140
197 139
196 139
195 139
194 139
193 138
194 137
195 137
196 137
197 137
198 137
199 137
200 137
201 137
202 137
203 136
203 135
202 134
201 134
200 134
199 134
198 134
197 133
196 133
195 133
194 133
193 132
192 132
191 132
190 131
191 130
192 130
193 130
194 130
195 130
196 130
197 130
198 129
198 128
197 127
196 126
195 126
194 126
193 126
192 126
191 125
192 124
193 124
194 123
195 123
196 123
197 122
198 122
199 122
200 122
201 122
202 122
203 122
204 123
205 123
206 123
207 124
208 124
209 125
210 125
211 126
212 126
213 127
214 127
215 127
216 128
217 128
218 129
219 129
220 129
221 130
222 130
223 131
224 131
225 131
226 132
227 132
228 133
229 134
230 134
231 135
232 135
233 136
234 137
235 137
236 138
237 138
238 139
239 139
240 140
241 140
242 141
243 141
244 141
245 142
246 142
247 142
248 143
249 143
250 143
251 143
252 143
253 143
254 144
255 144
256 144
257 143
258 142
259 142
258 141
258 140
258 139
258 138
257 137
258 136
259 136
259 135
259 134
258 133
259 132
260 132
260 131
260 130
260 129
259 128
260 127
261 127
261 126
261 125
261 124
261 123
260 122
261 121
262 120
263 120
263 119
262 118
263 117
264 117
264 116
263 115
263 114
262 113
263 112
264 112
264 111
263 110
263 109
263 108
263 107
262 106
262 105
262 104
262 103
261 102
261 101
261 100
260 99
260 98
259 97
259 96
258 95
258 94
258 93
258 92
258 91
258 90
258 89
258 88
257 87
257 86
257 85
256 84
256 83
256 82
256 81
255 80
255 79
254 78
254 77
253 76
252 76
251 76
250 76
249 77
248 77
247 77
246 77
245 77
244 78
243 78
242 79
241 79
240 79
239 80
238 80
237 81
236 81
235 82
234 82
233 83
232 83
231 84
230 84
229 85
228 86
227 86
226 87
225 87
224 88
223 88
222 88
221 89
220 89
219 90
218 90
217 91
216 91
215 92
214 92
213 93
212 93
211 94
210 94
209 95
208 95
207 96
206 97
205 97
204 98
203 98
202 98
201 98
200 98
199 98
198 98
197 97
198 96
199 95
200 94
201 94
200 93
200 92
199 91
198 90
199 89
200 88
201 87
202 87
203 87
204 87
205 86
206 85
207 85
207 84
208 83
208 82
208 81
209 80
209 79
209 78
209 77
210 76
211 76
212 76
212 75
211 74
212 73
213 73
214 73
214 72
213 71
213 70
212 70
211 69
212 68
213 67
214 67
214 66
213 65
213 64
212 63
212 62
212 61
211 60
211 59
210 58
209 58
208 58
207 57
206 57
205 56
206 55
207 55
206 54
206 53
205 52
204 51
203 50
202 50
201 50
200 49
200 48
199 47
198 47
197 47
196 47
195 47
194 47
193 47
192 48
191 48
190 48
189 49
188 49
187 49
186 50
185 50
184 50
183 50
182 51
181 51
180 50
179 50
178 49
177 48
176 47
175 47
174 47
173 48
172 48
171 49
170 49
169 49
168 50
167 50
166 51
165 51
164 51
163 52
162 52
161 52
160 53
159 54
158 55
157 55
156 55
155 56
154 55
153 54
154 53
155 53
156 52
157 52
157 51
156 50
156 49
155 48
154 48
153 49
152 49
151 50
150 50
149 51
148 51
147 52
146 52
145 53
144 53
143 54
142 54
141 54
140 55
139 56
138 56
137 57
136 58
135 59
134 60
133 61
132 62
131 62
130 62
129 62
128 62
127 62
126 62
125 61
124 61
123 61
122 61
121 61
120 61
119 61
118 61
117 61
116 60
115 59
116 58
117 57
117 56
116 55
115 55
114 55
113 54
114 53
115 53
114 52
115 51
116 50
117 49
118 49
119 48
120 47
121 47
122 46
123 45
124 44
125 43
126 43
125 42
126 41
127 41
128 41
129 41
130 40
131 40
132 40
133 40
134 40
135 40
136 39
137 39
138 38
139 37
140 37
139 36
140 35
141 34
142 33
143 32
144 31
145 30
146 29
147 28
148 28
149 27
150 26
151 26
152 25
153 25
154 24
155 24
156 24
157 23
157 22
156 21
156 20
155 19
156 18
157 17
157 16
156 15
155 14
154 14
153 14
152 14
151 13
150 12
150 11
149 10
150 9
151 8
152 8
153 7
153 6
152 5
151 5
150 5
149 5
148 6
147 6
146 6
145 6
144 7
143 6
143 5
142 4
141 4
140 4
139 4
