145 2
144 3
143 3
142 3
141 4
140 4
139 5
138 5
137 5
136 5
135 5
134 5
133 5
132 5
131 6
130 6
129 6
128 7
127 7
126 7
125 8
124 8
123 8
122 9
121 9
120 10
119 10
118 10
117 10
116 11
115 11
114 11
113 12
112 12
111 12
110 13
109 13
108 13
107 14
106 14
105 14
104 15
103 15
102 15
101 16
100 16
99 16
98 17
97 17
96 17
95 17
94 18
93 18
92 19
91 19
90 19
89 19
88 19
87 19
86 19
85 19
84 19
83 19
82 19
81 20
80 20
79 20
78 20
77 20
76 20
75 20
74 20
73 20
72 20
71 21
70 21
69 21
68 21
67 21
66 22
65 22
64 22
63 22
62 23
61 23
60 23
59 24
58 24
57 24
56 24
55 25
54 25
53 25
52 25
51 26
50 26
49 26
48 27
47 28
46 28
45 29
44 30
43 30
42 31
41 31
40 32
39 32
38 33
37 34
36 34
35 35
34 36
33 36
32 37
31 37
30 38
29 39
28 40
27 40
26 41
26 42
25 43
24 44
23 44
22 45
21 46
20 47
19 47
18 48
17 48
16 49
15 49
14 50
13 50
12 51
11 51
10 52
10 53
9 54
8 55
8 56
7 57
7 58
6 59
5 60
4 60
4 61
4 62
3 63
3 64
2 65
2 66
2 67
2 68
2 69
2 70
2 71
3 72
3 73
3 74
4 75
4 76
4 77
5 78
6 79
6 80
7 81
7 82
7 83
8 84
8 85
9 86
10 87
10 88
11 89
12 90
13 91
13 92
14 93
15 93
16 94
16 95
17 96
18 96
19 97
19 98
20 98
21 99
22 100
23 101
24 101
25 102
26 103
27 104
28 104
29 105
30 106
31 106
32 106
33 107
34 107
35 107
36 108
37 108
38 109
39 110
40 110
41 110
42 111
43 111
44 111
45 112
46 112
47 113
48 113
49 114
50 114
51 114
52 115
53 115
54 115
55 116
56 116
57 116
58 117
59 117
60 117
61 117
62 117
63 118
64 118
65 118
66 118
67 118
68 118
69 119
70 119
71 119
72 119
73 119
74 120
75 120
76 120
77 120
78 120
79 121
80 121
81 121
82 122
83 122
84 123
85 123
86 124
87 124
88 124
89 125
90 125
91 126
92 126
93 126
94 127
95 127
96 128
97 128
98 128
99 129
100 129
101 129
102 129
103 130
104 130
105 130
106 130
107 130
108 130
109 131
110 131
111 131
112 131
113 131
114 131
115 131
116 131
117 131
118 131
119 131
120 132
121 132
122 132
123 132
124 131
124 130
125 129
125 128
124 128
123 127
122 126
121 125
122 124
123 123
124 123
125 123
126 123
127 123
128 124
129 124
130 125
131 125
132 125
133 126
134 126
135 127
136 127
137 127
138 128
139 128
140 128
141 128
142 128
143 128
144 129
145 129
146 129
147 130
148 130
149 130
150 130
151 130
152 130
153 130
154 130
155 130
156 130
157 130
158 130
159 130
160 130
161 130
162 130
163 130
164 130
165 130
166 130
167 130
168 129
168 128
169 127
169 126
169 125
168 125
167 124
167 123
168 122
168 121
169 120
169 119
169 118
170 117
171 116
171 115
172 114
173 114
174 113
174 112
175 111
175 110
175 109
175 108
176 107
177 106
178 106
179 105
180 104
181 103
181 102
182 101
183 100
184 99
185 98
186 98
187 97
187 96
188 95
188 94
188 93
189 92
190 92
191 91
192 90
193 90
194 89
194 88
195 87
195 86
195 85
196 84
197 83
197 82
198 81
198 80
198 79
198 78
198 77
198 76
199 75
200 75
201 75
202 75
203 75
204 75
205 75
206 75
207 75
208 75
209 76
210 76
211 77
212 77
213 77
214 78
215 78
216 78
217 79
218 79
219 79
220 80
221 81
222 81
223 81
224 82
225 82
226 83
227 83
228 83
229 84
230 84
231 85
232 85
233 86
234 87
235 87
236 87
237 88
238 88
239 88
240 89
241 90
242 90
243 91
244 91
245 91
246 92
247 92
248 92
249 93
250 94
251 94
252 94
253 94
254 95
255 95
256 96
257 96
258 96
259 96
260 97
261 97
262 97
263 97
264 97
265 97
266 97
267 97
268 97
269 97
270 97
271 96
271 95
272 94
272 93
271 93
270 92
269 91
270 90
269 90
268 89
267 89
266 88
267 87
266 87
265 86
264 86
263 85
264 84
263 84
262 83
261 83
260 82
261 81
260 81
259 80
258 79
259 78
259 77
259 76
258 76
257 75
256 74
255 74
254 74
253 74
252 74
251 74
250 74
249 73
250 72
250 71
249 71
248 70
247 70
246 70
245 69
244 69
243 68
244 67
243 67
242 66
241 65
240 65
239 64
238 63
237 63
236 62
237 61
237 60
237 59
237 58
237 57
237 56
237 55
237 54
237 53
237 52
237 51
237 50
237 49
237 48
238 47
239 46
240 45
241 44
242 43
243 42
244 42
245 41
246 40
247 39
248 38
249 37
249 36
250 35
250 34
250 33
250 32
251 31
252 31
253 30
253 29
254 28
254 27
255 26
256 25
256 24
257 23
257 22
258 21
259 20
260 19
260 18
261 17
261 16
262 15
262 14
262 13
262 12
263 11
263 10
264 9
264 8
264 7
263 7
262 6
261 6
260 6
259 6
258 6
257 6
256 7
255 7
254 8
253 8
252 8
251 9
250 10
249 10
248 11
247 11
246 11
245 12
244 13
243 13
242 14
241 14
240 15
239 16
238 16
237 17
236 18
235 19
234 20
233 21
232 22
232 23
231 24
230 25
229 25
228 26
227 27
226 28
225 29
224 29
223 30
222 31
221 31
220 32
219 33
218 34
217 35
216 36
215 37
214 37
213 38
212 39
211 39
210 40
209 41
208 42
207 43
206 43
205 44
204 44
203 44
202 45
201 45
200 45
199 46
198 46
197 47
196 47
195 47
194 47
193 47
192 47
191 47
190 47
189 47
188 47
187 47
186 46
185 46
184 46
183 46
182 46
181 46
180 45
179 45
178 45
177 45
176 45
175 45
174 45
173 45
172 45
171 44
170 44
169 44
168 44
167 43
166 43
165 42
166 41
167 40
167 39
168 38
168 37
168 36
167 36
166 35
165 35
164 34
163 34
162 34
161 33
162 32
161 32
160 31
159 30
158 29
157 28
156 28
155 27
154 27
153 26
152 26
151 25
152 24
151 24
150 23
149 22
150 21
150 20
149 20
148 19
149 18
149 17
150 16
150 15
150 14
151 13
152 13
153 12
154 11
154 10
155 9
155 8
155 7
154 7
153 6
154 5
153 5
152 4
151 3
150 2
149 2
148 2
147 2
146 2
