98 4
98 5
97 6
96 7
95 6
94 6
94 7
93 8
92 8
91 8
90 7
89 7
89 8
88 9
87 9
86 8
85 8
84 7
83 7
83 8
82 9
81 10
81 11
80 12
80 13
80 14
80 15
79 16
79 17
79 18
78 19
77 18
76 18
75 17
74 17
73 17
72 17
71 16
70 16
69 16
68 16
67 16
66 16
65 15
64 15
63 15
62 15
61 15
60 15
59 15
58 14
57 14
56 14
55 14
54 14
53 14
52 14
51 14
50 14
49 14
48 14
47 14
46 14
45 14
44 14
43 14
42 14
41 14
40 14
39 14
39 15
38 16
37 15
36 15
35 15
34 15
33 15
32 15
32 16
31 17
30 16
30 17
29 18
28 19
27 18
26 18
26 19
25 20
24 21
23 22
22 23
21 24
20 25
20 26
19 27
19 28
18 29
18 30
17 31
16 32
15 33
15 34
14 35
13 34
13 35
12 36
11 37
10 36
10 37
9 38
8 39
7 38
6 38
6 39
5 40
4 41
3 42
3 43
3 44
3 45
2 46
2 47
2 48
2 49
2 50
3 50
4 51
5 52
5 53
6 54
7 55
8 56
9 57
9 58
10 59
9 60
8 61
7 62
6 61
6 62
5 63
4 64
4 65
5 66
5 67
6 67
7 68
8 68
9 68
10 68
11 69
12 69
13 70
14 71
15 71
16 71
17 71
18 72
19 73
20 73
21 74
22 75
22 76
23 76
24 76
25 76
26 75
27 76
28 76
29 76
30 76
31 76
32 76
33 77
33 78
34 78
35 78
36 78
37 78
38 78
39 78
40 79
41 79
42 79
43 80
44 80
45 80
46 80
47 80
48 80
49 80
50 80
51 80
52 80
53 80
54 80
55 80
56 80
57 81
58 82
59 82
60 82
61 82
62 83
63 83
64 83
65 84
66 84
67 84
68 85
69 86
69 87
69 88
69 89
69 90
69 91
69 92
69 93
69 94
69 95
69 96
69 97
69 98
69 99
69 100
69 101
69 102
69 103
70 104
70 105
70 106
71 106
72 107
73 107
74 107
75 107
76 107
77 107
78 107
79 108
79 109
80 109
81 109
82 109
83 109
84 109
85 109
86 108
87 108
88 108
89 107
90 107
90 106
90 105
90 104
91 103
91 102
91 101
91 100
91 99
91 98
91 97
91 96
91 95
92 94
92 93
92 92
92 91
92 90
92 89
91 88
90 87
89 87
88 86
89 85
90 85
91 85
92 85
93 85
94 86
95 86
96 86
97 86
98 86
99 86
100 86
101 86
102 86
103 86
104 86
105 86
106 87
106 88
107 88
108 88
109 88
110 88
111 88
112 88
113 88
114 88
115 88
116 88
117 88
118 88
119 88
120 88
121 88
122 88
123 88
124 88
125 88
125 87
126 86
127 86
128 86
129 86
130 86
131 86
132 86
133 85
134 85
135 85
136 86
136 87
136 88
136 89
136 90
137 91
137 92
137 93
137 94
138 94
139 94
140 94
141 94
142 95
143 95
144 96
144 97
145 97
146 98
146 99
146 100
147 100
148 100
149 100
150 100
151 100
152 100
153 100
154 100
155 101
156 101
157 101
158 101
159 101
160 101
161 101
162 101
163 101
164 101
165 101
166 101
166 100
166 99
166 98
165 97
164 96
164 95
163 94
162 94
161 93
160 93
159 92
159 91
159 90
158 89
158 88
159 87
160 87
161 87
162 88
162 89
163 90
164 90
165 91
166 92
167 93
168 93
169 93
170 94
171 94
172 95
173 95
174 95
175 95
176 95
176 94
177 93
178 93
179 93
180 93
181 93
182 93
183 93
184 92
185 92
186 91
187 90
188 90
189 89
190 89
191 88
192 88
193 88
194 88
195 88
196 88
197 87
198 86
199 86
199 85
200 84
200 83
200 82
201 81
202 81
203 80
204 80
205 80
206 79
207 78
207 77
208 76
209 76
210 76
211 75
212 75
213 74
213 73
213 72
214 71
215 70
216 70
217 70
218 69
219 68
219 67
219 66
219 65
220 64
221 64
222 65
223 65
224 65
225 65
226 66
227 67
228 67
229 68
230 68
231 69
232 70
233 71
234 72
235 72
236 73
236 74
236 75
236 76
237 76
238 77
238 78
239 78
240 78
241 78
242 79
243 79
244 80
244 81
244 82
244 83
245 83
246 84
247 85
248 86
249 86
250 86
251 86
252 86
253 87
254 88
255 89
256 89
257 89
258 89
259 89
260 89
261 89
262 88
262 87
262 86
262 85
263 84
263 83
263 82
264 81
264 80
265 79
265 78
265 77
265 76
265 75
264 74
265 73
266 72
267 71
267 70
267 69
268 68
269 67
269 66
270 65
270 64
270 63
270 62
270 61
270 60
270 59
271 58
271 57
272 56
273 55
274 55
275 55
275 54
275 53
275 52
276 51
276 50
276 49
276 48
276 47
275 46
275 45
275 44
275 43
275 42
275 41
275 40
275 39
275 38
275 37
275 36
275 35
274 34
273 33
273 32
273 31
273 30
273 29
273 28
272 27
272 26
272 25
271 24
271 23
271 22
270 21
270 20
270 19
270 18
270 17
269 16
269 15
269 14
268 13
267 13
266 12
265 12
264 12
264 13
263 14
262 13
261 13
261 14
260 15
260 16
259 17
258 16
257 16
257 17
256 18
255 17
254 17
254 18
253 19
252 18
251 18
251 19
250 20
249 21
248 22
247 23
246 22
245 22
245 23
244 24
243 23
242 23
242 24
241 25
240 26
239 25
239 26
238 27
237 26
237 27
236 28
235 29
234 28
233 28
233 29
232 30
231 29
230 29
230 30
229 31
228 32
227 31
226 31
225 31
224 31
223 30
222 30
221 29
220 29
219 29
218 29
217 29
216 28
215 27
214 26
213 25
212 24
212 23
213 22
214 22
215 21
215 20
215 19
215 18
214 17
213 17
212 16
211 16
211 17
210 18
209 19
208 20
207 20
206 19
205 19
204 18
203 18
202 18
201 18
201 19
200 20
199 19
198 18
197 18
196 17
195 17
194 17
193 17
192 17
191 17
190 17
189 17
188 16
187 16
186 15
185 15
184 14
183 13
182 13
181 12
180 12
179 12
178 12
177 12
176 12
175 11
174 11
173 10
172 10
171 10
170 10
169 10
168 9
167 9
166 8
165 8
164 8
163 8
163 9
162 10
161 9
161 10
160 11
159 10
158 10
157 10
156 10
155 9
154 9
153 9
152 9
151 8
150 8
149 7
149 8
148 9
147 8
146 8
146 9
145 10
144 9
143 9
142 9
141 9
141 10
140 11
139 10
138 10
137 9
136 9
135 9
134 8
133 8
132 8
131 8
130 8
129 8
128 8
127 8
127 9
126 10
126 11
125 12
124 11
123 11
122 10
121 10
120 9
119 9
119 10
118 11
117 10
116 10
115 9
114 9
113 9
112 8
111 8
110 7
109 7
108 7
107 6
106 6
105 6
105 7
104 8
103 7
102 6
101 5
100 5
99 4
