135 2
134 3
133 4
132 5
131 6
131 7
130 8
129 8
128 9
128 10
127 11
126 12
126 13
125 14
124 15
123 16
122 17
121 18
120 19
120 20
119 21
118 22
117 23
116 24
115 25
114 26
114 27
113 28
112 29
111 29
111 30
110 31
109 32
108 32
107 33
106 33
105 33
104 34
103 34
102 34
101 34
100 34
99 34
98 34
97 34
96 35
95 34
94 34
93 34
92 34
91 34
90 34
89 34
88 34
87 34
86 34
85 34
84 34
83 34
82 34
81 34
80 34
79 35
78 35
77 35
76 35
75 35
74 35
73 35
72 35
71 36
70 36
69 36
68 36
67 36
66 36
65 36
64 37
63 37
62 37
61 37
60 37
59 37
58 38
57 38
56 38
55 39
54 39
53 39
52 39
51 40
50 40
49 40
48 40
47 41
46 41
45 41
44 42
43 42
42 42
41 43
40 43
39 43
38 44
37 44
36 45
35 45
34 45
33 46
32 46
31 46
30 46
29 47
28 47
27 47
26 47
25 48
24 48
23 49
22 49
21 49
20 50
19 50
18 51
17 51
16 52
15 53
14 53
13 53
13 54
13 55
13 56
13 57
13 58
13 59
13 60
13 61
14 62
14 63
14 64
15 65
14 66
13 66
12 66
11 65
10 65
9 65
8 64
7 64
6 64
5 64
4 64
3 65
3 66
2 67
2 68
2 69
2 70
2 71
2 72
2 73
3 74
4 75
5 76
6 77
7 78
8 79
8 80
8 81
9 82
10 83
11 84
12 85
13 86
14 87
15 87
16 88
17 89
18 90
19 90
20 91
21 92
22 92
23 93
24 93
25 93
26 94
27 94
28 94
29 95
30 96
31 96
32 97
33 98
34 98
35 99
36 100
37 101
38 101
39 102
40 103
41 103
42 104
43 104
44 104
45 105
46 105
47 106
48 106
49 106
50 106
51 106
52 106
53 106
54 107
55 107
56 107
57 107
58 108
59 108
60 108
61 109
62 109
63 109
64 110
65 110
66 110
67 111
68 111
69 112
70 112
71 112
72 112
73 113
74 113
75 113
76 113
77 113
78 113
79 114
80 114
81 114
82 114
83 114
84 114
85 114
86 115
87 115
88 115
89 115
90 115
91 115
92 116
92 117
92 118
93 119
93 120
93 121
93 122
94 123
94 124
94 125
94 126
94 127
95 128
95 129
96 130
96 131
97 132
97 133
97 134
97 135
97 136
98 137
98 138
99 139
99 140
100 141
100 142
100 143
101 144
101 145
102 146
103 147
103 148
104 149
105 150
106 150
107 151
108 152
109 152
110 152
111 152
112 152
113 151
114 150
115 150
116 150
117 149
117 148
118 147
119 146
120 147
121 147
122 147
123 147
124 146
124 145
125 144
125 143
125 142
125 141
126 140
126 139
127 138
127 137
127 136
127 135
127 134
127 133
127 132
127 131
128 130
128 129
128 128
128 127
128 126
127 126
126 125
127 124
127 123
127 122
127 121
126 121
125 120
124 119
123 118
122 117
121 116
120 115
121 114
122 114
123 114
124 114
125 114
126 113
127 113
128 113
129 113
130 113
131 113
132 112
133 112
134 112
135 112
136 111
137 111
138 111
139 111
140 111
141 110
142 110
143 111
144 111
145 111
146 111
147 112
148 113
148 114
149 115
149 116
149 117
150 118
150 119
151 120
151 121
151 122
152 123
153 124
153 125
154 126
154 127
155 128
156 129
156 130
157 130
158 130
159 130
160 131
160 132
161 133
162 134
163 134
164 134
165 134
166 133
166 132
167 131
167 130
168 129
168 128
169 127
170 127
171 127
172 126
172 125
173 124
174 123
175 122
176 122
177 121
178 120
179 120
180 119
180 118
181 117
182 117
183 116
183 115
184 114
184 113
185 112
186 111
186 110
187 109
188 109
189 108
189 107
190 106
190 105
191 104
192 104
193 103
194 102
195 101
196 100
197 100
198 99
198 98
199 97
200 96
200 95
201 94
202 93
203 92
203 91
204 90
205 89
206 88
206 87
207 86
208 86
209 85
209 84
210 83
211 82
212 81
212 80
213 79
214 78
215 77
216 77
217 77
218 77
219 77
220 77
221 77
222 77
223 77
224 77
225 78
226 79
227 79
228 80
229 81
230 82
231 82
232 83
233 84
234 85
235 86
236 86
237 87
238 88
239 89
240 90
241 91
242 92
243 93
244 94
245 94
246 95
246 96
247 96
248 97
249 98
250 99
251 99
252 100
253 101
254 101
255 102
256 103
257 103
258 104
259 105
260 106
261 107
262 107
263 107
264 108
265 109
266 110
267 110
268 110
269 111
270 111
271 111
272 111
273 111
274 110
274 109
275 108
275 107
275 106
275 105
274 105
273 104
272 103
273 102
272 102
271 101
270 100
269 99
270 98
269 98
268 97
269 96
268 96
267 95
268 94
267 94
266 93
267 92
266 92
265 91
264 90
263 89
262 88
261 87
262 86
261 86
260 85
259 84
260 83
259 83
258 82
259 81
258 81
257 80
256 79
255 78
256 77
255 77
254 76
253 75
254 74
253 74
252 73
253 72
252 72
251 71
252 70
251 70
250 69
251 68
251 67
251 66
252 65
252 64
252 63
252 62
252 61
252 60
252 59
253 58
253 57
253 56
253 55
254 54
255 53
255 52
256 51
256 50
257 49
258 48
258 47
259 46
260 45
260 44
261 43
262 42
263 41
264 40
265 39
266 38
267 37
267 36
268 35
269 34
269 33
270 32
271 31
272 30
272 29
273 28
274 27
275 26
275 25
276 24
277 23
277 22
278 21
278 20
278 19
278 18
277 18
276 17
275 17
274 17
273 17
272 18
271 18
270 18
269 18
268 19
267 19
266 20
265 20
264 21
263 21
262 22
261 22
261 23
260 24
259 24
258 25
257 26
256 27
255 27
255 28
254 29
253 29
252 30
251 31
250 31
249 31
248 32
247 33
246 33
245 34
244 35
243 35
242 36
241 37
240 38
239 39
238 39
237 40
236 41
235 41
234 42
233 43
232 43
232 44
231 45
230 45
229 45
228 46
227 47
226 47
225 48
224 49
223 49
222 49
221 50
220 50
219 50
218 51
217 51
216 51
215 51
214 51
213 50
212 50
211 50
210 50
209 50
208 49
207 49
206 49
205 49
204 49
203 49
202 49
201 49
200 48
199 48
198 48
197 48
196 47
195 47
194 47
193 47
192 46
191 46
190 46
189 46
188 45
187 45
186 45
185 45
184 44
183 44
182 44
181 44
180 43
179 43
178 43
177 43
176 42
175 42
174 42
173 42
172 42
171 42
170 42
169 41
168 41
167 40
166 39
167 38
166 38
165 37
164 36
163 35
162 34
161 34
160 33
161 32
161 31
160 31
159 30
158 29
157 28
156 27
155 26
154 25
153 24
154 23
154 22
154 21
153 21
152 20
153 19
152 19
151 18
150 17
149 16
150 15
150 14
149 14
148 13
149 12
149 11
148 11
147 10
146 9
147 8
147 7
147 6
146 6
145 5
144 4
143 3
142 2
141 2
140 2
139 2
138 2
137 2
136 2
