103 2
102 3
101 3
100 3
99 3
98 3
97 3
96 3
95 3
94 4
93 4
92 4
91 4
90 4
89 4
88 5
87 5
86 5
85 6
84 6
83 6
82 7
81 8
80 9
79 9
79 10
79 11
78 12
77 12
76 12
76 13
76 14
76 15
75 16
74 17
73 18
73 19
72 20
71 21
70 21
69 21
68 21
67 21
66 21
65 21
64 21
63 21
62 22
61 22
60 22
59 22
58 22
57 22
56 22
55 22
54 22
53 22
52 23
51 23
50 23
49 23
48 24
47 24
46 23
45 23
44 23
43 23
43 24
42 25
41 25
40 26
39 26
38 26
37 26
36 26
35 27
34 27
33 27
33 28
32 29
31 29
30 29
29 30
28 30
27 30
26 30
25 31
24 31
23 31
22 31
21 32
20 32
19 32
18 32
17 32
16 33
15 33
14 33
13 34
12 34
11 34
10 35
9 36
8 37
7 37
7 38
6 39
5 39
4 40
4 41
3 42
3 43
3 44
2 45
2 46
2 47
2 48
2 49
2 50
3 50
4 51
3 52
2 52
2 53
2 54
2 55
2 56
2 57
2 58
2 59
3 60
3 61
4 61
5 61
6 61
7 62
7 63
7 64
8 64
9 64
10 64
11 65
12 66
12 67
13 67
14 67
15 67
16 68
16 69
17 69
18 70
19 70
20 71
21 72
22 73
23 73
24 73
25 74
26 75
27 76
28 76
29 77
30 77
31 78
32 78
33 79
34 80
35 80
36 81
37 81
38 82
39 83
40 83
41 83
42 84
43 84
44 85
45 86
46 86
47 86
48 87
49 88
50 89
51 89
52 89
53 90
54 91
55 91
56 92
57 92
58 92
59 93
60 93
61 94
61 95
62 95
63 95
64 95
65 95
66 96
65 97
65 98
65 99
65 100
65 101
65 102
65 103
65 104
65 105
65 106
65 107
65 108
65 109
65 110
66 111
66 112
66 113
66 114
67 115
67 116
68 117
68 118
68 119
68 120
69 121
69 122
69 123
70 123
71 124
71 125
72 125
73 124
74 123
75 122
76 121
77 120
78 121
78 122
78 123
79 123
80 123
81 123
82 123
83 122
83 121
84 120
83 119
84 118
85 117
85 116
86 115
86 114
86 113
86 112
85 112
84 111
83 110
84 109
85 108
86 108
87 107
87 106
88 105
88 104
88 103
87 103
86 102
85 101
84 100
85 99
86 99
87 99
88 99
89 99
90 100
91 100
92 100
93 100
94 100
95 101
96 101
97 101
98 101
99 101
100 101
101 101
102 102
103 102
104 102
105 102
106 102
107 101
108 102
108 103
109 103
110 103
111 103
112 103
113 102
114 102
115 102
116 102
117 102
118 102
119 101
120 101
121 101
122 101
123 101
124 100
125 100
126 100
127 100
128 99
129 99
130 99
131 99
132 99
133 99
134 99
135 98
136 99
137 100
137 101
137 102
138 102
139 102
140 103
140 104
141 105
142 106
142 107
143 107
144 107
145 107
146 107
147 106
148 106
149 106
150 106
151 106
152 106
153 106
154 107
155 107
156 107
157 106
158 106
159 106
160 106
161 106
162 106
163 106
164 106
165 105
166 105
167 104
168 103
168 102
169 101
170 101
171 101
172 101
173 101
174 100
175 99
176 98
176 97
177 96
178 96
179 96
180 96
181 96
182 95
182 94
183 93
184 93
185 93
186 92
187 92
188 92
189 92
190 92
191 91
191 90
190 89
191 88
192 88
193 88
194 87
195 86
196 85
197 85
198 84
199 83
200 82
201 82
202 81
202 80
203 79
203 78
203 77
202 77
201 76
200 76
199 76
198 75
199 74
200 73
201 72
202 72
203 72
204 72
205 72
206 72
207 72
208 72
209 73
210 73
211 73
212 73
213 74
214 74
215 74
216 74
217 75
217 76
218 76
219 76
220 76
221 76
222 77
223 77
224 77
225 77
226 77
227 78
228 78
229 78
230 78
231 78
232 79
233 79
234 79
235 79
236 79
237 80
238 80
239 80
240 80
241 80
242 80
243 80
244 80
245 80
246 79
247 79
248 79
249 79
250 79
251 78
252 78
253 78
254 77
254 76
255 75
255 74
255 73
255 72
256 71
256 70
256 69
256 68
256 67
256 66
256 65
256 64
256 63
256 62
256 61
257 60
258 59
258 58
257 57
256 56
257 55
257 54
257 53
257 52
256 51
256 50
257 49
257 48
256 48
255 47
256 46
256 45
256 44
255 44
254 43
255 42
255 41
255 40
255 39
255 38
255 37
254 37
253 36
254 35
254 34
253 34
252 33
253 32
252 32
251 31
250 30
251 29
251 28
251 27
251 26
251 25
251 24
251 23
251 22
251 21
251 20
250 20
249 19
248 19
247 19
246 19
245 19
244 18
243 18
242 18
241 18
240 18
239 19
238 19
237 20
236 20
235 20
234 21
233 21
232 21
231 22
230 22
229 22
228 23
227 24
226 24
225 25
224 25
223 25
222 26
221 26
220 27
219 27
218 27
217 27
217 28
216 29
215 30
214 30
213 31
212 32
211 32
210 32
210 33
209 34
208 35
207 35
206 35
205 36
204 36
203 36
202 36
201 36
200 36
199 36
198 36
197 36
197 37
196 38
195 38
194 37
193 37
192 37
191 37
190 36
191 35
192 35
193 35
194 35
195 34
196 34
197 34
198 33
199 32
200 33
201 32
201 31
202 30
202 29
201 29
200 28
199 28
198 29
197 29
196 29
195 28
194 27
193 27
192 26
191 26
190 26
189 25
188 24
187 24
186 24
185 23
184 23
183 23
182 23
181 22
180 22
179 22
178 22
177 22
176 22
175 21
174 21
173 21
172 21
171 21
170 21
169 21
168 21
167 21
166 20
165 20
164 19
163 19
162 19
161 18
160 18
159 18
158 17
157 16
156 16
155 15
154 15
153 14
152 14
151 14
150 14
149 14
148 14
147 13
146 13
145 13
144 12
143 12
142 11
141 11
140 11
139 11
138 10
137 10
136 10
135 9
134 9
133 9
132 9
131 8
130 8
129 8
128 7
127 6
126 6
125 7
124 7
123 6
122 6
121 5
120 5
119 5
118 4
117 4
116 4
115 4
114 4
113 3
112 3
111 3
110 3
109 3
108 3
107 3
106 3
105 2
104 2
