150 2
149 3
148 3
147 3
147 4
147 5
147 6
148 6
149 7
148 8
147 8
146 8
145 9
145 10
144 11
143 12
142 13
142 14
141 15
140 16
139 17
139 18
139 19
139 20
138 21
137 21
136 21
135 21
134 21
133 21
132 21
131 21
130 21
129 21
128 20
127 19
126 19
126 20
125 21
124 21
123 21
122 21
121 21
120 21
119 21
118 21
117 22
116 22
115 22
114 22
113 22
112 22
111 22
110 22
109 22
108 22
107 22
106 22
105 22
104 23
103 23
102 23
101 23
100 23
99 23
98 23
97 23
96 23
95 23
94 23
93 23
92 23
91 24
90 24
89 24
88 24
87 24
86 24
85 24
84 24
83 25
82 25
81 25
80 25
79 25
78 25
77 25
76 25
75 25
74 25
73 25
72 25
71 25
70 26
69 26
68 26
67 26
66 26
65 26
64 27
63 27
62 27
61 27
60 27
59 27
58 27
57 27
56 28
55 28
54 28
53 29
52 29
51 29
50 29
49 29
48 29
47 29
46 30
45 30
44 30
43 30
42 30
41 31
40 31
39 31
38 31
37 31
36 32
35 32
34 32
33 32
32 32
31 32
30 32
29 33
28 33
27 33
26 33
25 33
24 33
23 33
22 34
21 34
20 34
19 34
18 34
17 34
16 34
15 34
14 35
13 35
12 35
11 35
10 35
9 36
8 36
7 37
6 37
5 37
4 37
3 37
2 37
2 38
2 39
2 40
2 41
2 42
2 43
3 43
4 43
5 44
5 45
6 45
7 46
8 46
9 46
10 46
11 46
12 46
13 46
14 46
15 47
16 47
17 47
18 47
19 48
20 48
21 48
22 49
23 49
24 49
25 50
26 50
27 50
28 51
29 51
30 51
31 51
32 52
33 52
34 52
35 53
36 53
37 53
38 53
39 54
40 54
41 54
42 54
43 54
44 55
45 56
46 56
47 56
48 57
49 57
50 57
51 57
52 57
53 58
54 58
55 58
56 58
57 58
58 58
59 59
60 59
61 59
62 60
63 60
64 60
65 60
66 60
67 60
68 60
69 61
70 61
71 61
72 61
73 61
74 62
75 62
76 62
77 62
78 62
79 62
80 62
81 62
82 62
83 62
84 62
85 62
86 62
87 62
88 63
89 63
90 63
91 63
92 63
93 63
94 63
95 63
96 63
97 64
98 64
99 64
100 64
101 64
102 64
103 64
104 64
105 64
106 64
107 64
108 64
109 64
110 64
111 64
112 64
113 64
114 64
115 64
116 64
117 65
118 65
119 65
120 65
121 65
122 65
123 66
123 67
123 68
123 69
123 70
123 71
123 72
123 73
123 74
123 75
123 76
122 77
122 78
122 79
122 80
122 81
122 82
123 82
124 83
125 83
126 82
127 81
128 80
129 80
130 80
131 80
132 81
133 82
134 83
134 84
134 85
135 86
136 86
137 86
138 87
139 87
140 86
140 85
141 84
140 84
139 83
140 82
140 81
139 81
138 80
139 79
138 79
137 78
138 77
139 77
140 77
141 78
142 78
143 79
143 80
144 80
145 80
146 80
147 79
147 78
148 77
148 76
149 75
150 74
151 73
151 72
152 71
153 70
154 70
155 70
156 69
157 69
158 69
159 69
160 69
161 69
162 69
163 69
164 69
165 69
166 69
167 69
168 69
169 69
170 69
171 69
172 69
173 69
174 69
175 69
176 69
177 69
178 69
179 69
180 69
181 69
182 69
183 69
184 69
185 69
186 69
187 69
188 69
189 69
190 69
191 69
192 69
193 69
194 69
195 69
196 69
197 69
198 69
199 69
200 70
201 70
202 70
203 70
204 70
205 70
206 70
207 70
208 70
209 70
210 70
211 70
212 70
213 70
214 70
215 70
216 70
217 70
218 71
219 71
220 72
220 73
221 73
222 73
223 74
224 75
225 75
226 75
227 76
227 77
228 77
229 77
230 77
231 77
232 77
233 76
234 75
235 75
236 75
237 76
238 77
239 77
240 77
241 77
242 76
242 75
243 74
244 73
245 73
246 74
247 74
248 74
249 74
250 73
250 72
251 71
252 72
253 72
254 72
255 72
256 72
257 71
257 70
258 69
257 69
256 68
256 67
257 66
258 66
259 66
260 66
261 66
262 66
263 66
264 66
265 65
266 65
267 65
268 65
269 65
270 64
271 64
272 64
273 64
274 64
275 64
276 64
277 64
278 64
279 64
280 64
281 64
282 63
283 64
284 64
285 64
286 63
287 63
288 63
289 63
290 62
291 62
292 62
293 62
294 62
295 62
296 63
297 63
298 63
299 63
300 64
301 64
302 64
303 65
304 66
305 66
306 66
307 67
308 67
309 68
310 68
311 69
312 69
313 70
314 70
315 70
316 71
317 71
318 71
319 72
320 72
321 73
322 74
323 74
324 75
325 75
326 76
327 76
328 77
329 77
330 78
331 78
332 78
333 79
334 79
335 80
336 80
337 80
338 81
339 81
340 82
341 82
342 83
343 83
344 83
345 84
346 84
347 84
348 85
349 85
350 85
351 85
352 86
353 86
354 86
355 85
356 85
357 84
357 83
358 82
357 82
356 81
355 81
354 81
353 80
352 80
351 80
350 80
349 79
348 78
347 77
346 76
347 75
347 74
346 74
345 73
345 72
345 71
346 70
346 69
347 68
347 67
347 66
346 66
345 65
344 65
343 65
342 64
341 64
340 64
339 63
340 62
340 61
340 60
339 60
338 59
337 58
338 57
338 56
337 56
336 55
335 54
334 53
335 52
336 52
337 51
337 50
338 49
339 48
340 48
341 47
341 46
342 45
343 45
344 46
345 46
346 46
347 45
348 44
349 44
350 44
351 44
352 44
353 44
354 43
354 42
353 41
352 41
351 41
350 41
349 41
348 40
348 39
349 38
350 39
351 39
352 39
353 39
354 39
355 39
356 40
357 41
358 41
359 41
360 41
361 40
361 39
362 38
363 39
364 39
365 39
366 39
367 38
368 37
369 36
369 35
370 34
370 33
370 32
369 32
368 31
369 30
369 29
369 28
369 27
368 27
367 26
366 26
365 26
364 26
363 26
362 26
361 26
360 26
359 26
358 26
357 26
356 26
355 27
354 27
353 27
352 27
351 27
350 27
349 28
348 28
347 28
346 28
345 29
344 29
343 29
342 29
341 30
340 30
339 30
338 30
337 30
336 30
335 31
334 31
333 31
332 32
331 32
330 32
329 32
328 32
327 33
326 33
325 33
324 33
323 34
322 34
321 34
320 35
319 35
318 35
317 35
316 36
315 36
314 36
313 37
312 37
311 37
310 37
309 38
308 38
307 38
306 38
305 39
304 39
303 39
302 39
301 39
300 39
299 39
298 39
297 39
296 39
295 39
294 39
293 38
292 38
291 38
290 37
289 37
288 37
287 37
286 37
285 37
284 37
283 36
282 36
281 36
280 36
279 36
278 36
277 35
276 35
275 35
274 35
273 35
272 34
271 34
270 34
269 34
268 34
267 34
266 33
265 33
264 33
263 33
262 32
261 32
260 32
259 31
258 31
257 31
256 30
255 30
254 30
253 30
252 30
251 29
252 28
252 27
251 26
251 25
252 24
251 24
250 23
249 23
248 22
249 21
250 20
250 19
251 18
251 17
250 17
249 16
248 16
247 15
246 14
245 14
244 13
243 12
242 12
241 12
240 12
240 13
239 14
238 14
237 14
236 14
235 14
234 15
233 15
232 15
231 16
230 17
229 18
228 18
227 18
226 18
225 18
224 19
223 20
222 20
221 20
220 21
219 22
218 22
217 23
216 24
215 24
214 24
213 24
212 24
211 24
210 24
209 24
208 24
207 24
206 24
205 24
204 24
203 23
202 23
201 23
200 23
199 23
198 23
197 23
196 23
195 23
194 23
193 22
192 22
191 22
190 22
189 22
188 22
187 22
186 22
185 22
184 21
183 21
182 21
181 21
180 21
179 21
178 21
177 21
176 21
175 21
174 21
173 21
172 21
171 21
170 21
169 21
168 21
167 21
166 20
165 19
165 18
166 17
167 16
168 15
169 14
169 13
170 12
170 11
170 10
169 10
168 9
167 9
166 8
165 7
164 6
163 5
162 5
161 6
160 7
159 6
159 5
160 4
160 3
159 3
158 2
157 2
156 2
155 3
154 4
153 4
152 3
151 2
