155 2
155 3
155 4
155 5
155 6
155 7
156 7
157 7
158 7
159 8
159 9
159 10
158 11
157 11
156 11
155 10
154 9
153 9
152 9
151 9
150 9
149 8
148 7
147 7
146 6
145 5
144 5
143 6
142 6
142 7
142 8
142 9
142 10
143 10
144 10
145 11
145 12
145 13
146 14
147 15
147 16
147 17
146 18
145 18
144 17
143 16
142 15
141 15
140 15
139 14
138 14
137 14
136 14
135 13
134 13
133 13
132 13
131 13
130 13
129 14
128 15
127 15
126 15
125 15
124 15
124 16
124 17
124 18
124 19
124 20
125 20
126 21
127 22
126 23
125 23
124 23
123 24
123 25
123 26
123 27
124 27
125 28
124 29
123 29
122 29
121 29
120 30
119 30
118 29
117 29
116 28
115 28
114 28
113 28
112 28
112 29
111 30
110 31
109 30
108 30
107 30
106 30
105 29
104 28
103 28
102 28
101 28
100 29
99 28
98 27
97 27
96 27
95 27
94 27
93 27
92 26
91 26
90 26
89 26
88 25
87 24
86 24
85 24
84 24
83 24
82 24
81 24
80 24
79 24
78 24
77 25
76 26
75 26
75 27
75 28
75 29
75 30
74 31
73 31
72 32
71 32
70 32
70 33
70 34
69 35
68 36
67 36
67 37
66 38
65 39
65 40
65 41
65 42
64 43
64 44
64 45
64 46
64 47
64 48
64 49
64 50
64 51
64 52
65 53
65 54
64 55
63 55
63 56
62 57
61 57
60 57
59 58
58 58
57 59
56 59
55 59
54 58
53 57
52 56
51 56
50 56
49 56
48 56
47 56
46 56
45 56
44 55
43 55
42 55
41 55
40 55
39 55
38 55
37 55
36 55
35 55
34 55
33 55
32 55
31 55
30 54
29 53
28 53
27 53
26 53
25 53
24 53
23 54
22 54
21 54
20 54
19 54
18 53
17 53
16 53
15 53
14 53
13 53
12 53
11 52
10 52
9 52
8 52
7 52
6 53
5 54
4 54
3 54
2 54
2 55
2 56
2 57
2 58
2 59
2 60
2 61
2 62
2 63
2 64
2 65
2 66
2 67
2 68
3 69
3 70
3 71
3 72
3 73
4 73
5 74
5 75
5 76
5 77
5 78
5 79
5 80
5 81
5 82
5 83
6 84
6 85
6 86
6 87
6 88
6 89
6 90
6 91
6 92
6 93
6 94
6 95
6 96
6 97
6 98
6 99
6 100
6 101
7 101
8 102
8 103
8 104
9 105
10 106
11 106
12 106
13 106
14 106
15 106
16 106
17 106
18 105
19 105
20 105
21 105
22 104
23 104
24 103
25 103
26 103
27 102
28 102
29 101
30 101
31 100
32 100
33 99
34 99
35 99
36 99
37 98
38 98
39 98
40 97
41 97
42 96
43 96
44 96
45 95
46 95
47 94
48 94
49 94
50 93
51 92
52 92
53 91
54 90
55 90
56 89
57 88
58 88
59 89
60 89
61 89
62 89
63 90
62 91
61 92
61 93
61 94
61 95
61 96
61 97
60 98
59 99
59 100
59 101
59 102
59 103
59 104
60 104
61 105
62 105
63 105
64 105
65 106
66 106
67 106
68 106
69 106
70 106
71 106
72 106
73 106
74 106
75 106
76 105
77 105
78 105
79 105
80 105
81 105
82 105
83 105
84 104
85 104
86 104
87 104
88 104
89 105
90 106
91 106
92 106
93 106
94 106
95 106
96 106
97 106
98 106
99 106
100 105
101 106
102 106
103 106
104 106
105 106
106 105
107 105
108 105
109 105
110 105
111 104
112 104
113 104
114 104
115 104
116 104
117 103
118 103
119 103
120 103
121 103
122 103
123 103
124 102
125 102
126 101
126 100
127 99
128 99
129 99
130 99
131 99
132 100
132 101
133 101
134 101
135 101
136 101
137 101
138 101
139 101
140 102
140 103
141 103
142 103
143 103
144 103
145 103
146 102
147 102
148 103
148 104
149 104
150 104
151 104
152 104
153 104
154 104
155 105
156 105
157 105
158 105
159 105
160 105
161 105
162 105
163 105
164 105
165 105
166 105
167 105
168 105
169 105
170 105
171 105
172 105
173 105
174 105
175 105
176 105
177 105
178 105
179 105
180 105
181 105
182 105
183 105
184 104
185 104
186 104
187 104
188 103
189 103
190 103
191 103
192 103
193 104
194 104
195 104
196 104
197 104
198 104
199 104
200 104
201 104
202 104
203 104
204 103
205 103
206 103
207 103
208 103
209 103
210 102
211 102
212 102
213 102
214 102
215 101
216 101
217 101
218 101
219 100
219 99
220 98
221 99
221 100
222 100
223 100
224 100
225 101
226 102
227 102
228 102
229 102
230 101
230 100
231 99
232 98
233 98
234 98
235 98
236 98
237 98
238 98
239 98
240 98
241 97
242 96
243 96
244 96
245 96
246 96
247 95
248 95
249 95
250 95
251 95
252 94
253 94
254 94
255 94
256 94
257 93
258 92
259 91
260 90
261 89
262 88
263 87
264 86
264 85
265 84
266 85
267 85
268 85
269 85
270 84
270 83
271 82
271 81
272 80
273 79
273 78
274 77
274 76
273 76
272 75
271 74
272 73
273 72
273 71
274 70
274 69
274 68
274 67
274 66
273 66
272 65
271 64
272 63
271 63
270 62
269 61
268 61
267 60
266 59
267 58
266 58
265 57
264 56
263 56
262 55
261 54
262 53
261 53
260 52
259 52
258 51
257 50
256 49
255 48
254 48
253 47
252 46
251 46
250 46
249 45
250 44
249 44
248 43
247 42
246 42
245 42
244 42
243 41
242 41
241 41
240 41
239 40
238 40
237 40
236 40
235 40
234 40
233 40
232 40
231 39
230 39
229 38
230 37
229 37
228 36
227 36
226 36
225 36
224 36
223 36
222 36
222 37
222 38
222 39
222 40
222 41
221 42
221 43
220 44
219 44
218 43
219 42
219 41
218 40
217 39
218 38
219 38
220 37
220 36
219 35
218 34
217 34
216 34
215 34
214 33
213 32
212 32
211 31
212 30
211 30
210 29
209 29
208 28
207 28
206 28
205 28
204 27
203 27
202 27
201 27
200 27
199 27
198 27
197 27
196 26
195 26
194 26
193 25
192 24
191 23
190 22
191 21
191 20
191 19
190 19
189 18
190 17
189 17
188 16
187 15
186 14
185 14
185 15
185 16
185 17
185 18
184 19
183 18
182 17
181 16
182 15
181 15
180 14
179 13
178 12
179 11
178 11
177 10
176 9
177 8
176 8
175 7
174 6
173 5
172 5
171 5
170 5
170 6
170 7
170 8
170 9
169 10
168 10
167 9
166 8
165 7
164 6
163 6
162 5
161 4
160 4
159 3
158 2
157 2
156 2
