110 2
110 3
109 4
108 5
107 6
106 6
105 6
104 5
105 4
104 4
103 3
102 3
101 3
100 3
100 4
99 5
99 6
99 7
98 8
97 9
97 10
96 11
96 12
96 13
96 14
95 15
95 16
95 17
94 18
93 18
92 18
91 18
90 18
89 18
89 19
89 20
89 21
88 22
88 23
88 24
88 25
88 26
88 27
88 28
88 29
87 30
86 30
85 30
84 30
83 30
82 30
81 30
80 31
79 31
78 31
77 31
76 31
75 31
74 31
73 31
72 31
71 31
70 31
69 32
68 32
67 32
66 32
65 32
64 33
63 33
62 33
61 33
60 34
59 34
58 34
57 35
56 35
55 35
54 36
53 36
52 37
51 37
50 37
49 38
48 38
47 38
46 39
45 39
44 39
43 39
42 39
41 40
40 41
39 41
38 41
37 41
36 42
35 42
34 43
33 43
32 43
31 44
30 45
29 45
28 46
27 46
26 47
25 47
24 48
23 49
22 49
21 49
20 50
19 51
18 52
17 53
16 53
15 54
14 55
13 56
12 57
12 58
12 59
12 60
12 61
12 62
12 63
12 64
12 65
12 66
12 67
13 68
13 69
13 70
14 71
14 72
15 73
14 74
13 74
12 73
11 73
10 73
9 73
8 72
7 72
6 72
5 72
4 72
3 73
3 74
3 75
2 76
2 77
2 78
2 79
2 80
2 81
3 82
4 83
5 83
6 84
7 85
8 86
8 87
9 88
10 89
11 89
12 90
12 91
13 91
14 92
15 93
16 93
17 94
18 95
19 95
20 96
21 96
22 96
23 97
24 98
25 99
26 100
27 101
27 102
28 103
29 104
30 105
31 105
32 106
33 107
34 107
35 108
36 109
37 109
38 110
39 110
40 110
41 111
42 111
43 112
44 112
45 112
46 112
47 113
48 113
49 113
50 114
51 114
52 114
53 114
54 115
55 115
56 116
57 116
58 116
59 116
60 117
61 117
62 117
63 118
64 118
65 118
66 118
67 119
68 119
69 119
70 120
71 120
72 120
73 120
74 120
75 120
76 121
76 122
76 123
76 124
76 125
76 126
76 127
76 128
76 129
76 130
76 131
76 132
76 133
77 134
77 135
77 136
77 137
77 138
77 139
77 140
77 141
78 142
78 143
78 144
79 145
80 146
81 147
81 148
82 149
82 150
83 151
84 152
85 152
86 153
87 153
88 153
89 154
90 155
91 155
92 155
93 155
94 155
95 155
96 155
97 154
97 153
98 152
98 151
98 150
99 149
100 148
101 147
102 146
103 145
103 144
104 143
104 142
104 141
104 140
104 139
105 138
106 138
107 137
107 136
108 135
108 134
109 133
110 132
110 131
111 130
111 129
111 128
111 127
111 126
112 125
112 124
113 123
113 122
114 121
114 120
115 119
116 118
117 118
118 118
119 118
120 118
121 118
122 118
123 118
124 118
125 118
126 118
127 118
128 118
129 118
130 118
131 118
132 118
133 118
134 117
135 117
136 117
137 117
138 117
139 117
140 117
141 116
142 116
143 115
144 115
145 115
146 114
147 114
148 114
149 114
150 115
150 116
150 117
151 118
151 119
152 120
153 120
154 121
154 122
155 123
155 124
156 125
156 126
156 127
157 128
157 129
158 130
158 131
159 132
159 133
159 134
160 135
161 135
162 135
163 135
164 135
165 134
165 133
166 132
166 131
166 130
165 130
164 129
165 128
165 127
165 126
164 126
163 125
164 124
164 123
163 123
162 122
163 121
164 120
165 121
166 122
167 122
168 123
168 124
169 125
170 126
171 127
172 127
173 128
174 128
175 129
176 130
177 131
178 132
179 133
179 134
180 134
181 135
182 136
182 137
183 137
184 138
185 139
186 140
187 140
188 141
189 142
190 142
191 143
192 143
193 143
194 143
195 142
196 141
197 141
198 141
199 140
200 139
201 139
202 138
202 137
203 136
203 135
203 134
203 133
203 132
203 131
203 130
203 129
203 128
204 127
204 126
205 125
205 124
204 124
203 123
202 122
203 121
203 120
202 119
203 118
203 117
204 116
204 115
204 114
203 114
202 113
201 112
200 112
199 111
198 110
199 109
200 109
201 109
202 109
203 109
204 108
204 107
205 106
205 105
205 104
204 104
203 103
204 102
204 101
204 100
205 99
205 98
205 97
205 96
204 96
203 95
204 94
204 93
203 93
202 92
203 91
204 90
205 90
206 90
207 91
208 91
209 91
210 92
211 93
212 93
213 93
214 94
215 95
216 96
217 96
218 97
219 98
220 98
221 99
222 100
223 100
224 101
225 102
226 102
227 103
228 104
229 104
230 105
231 106
232 106
233 107
234 108
235 108
236 109
237 110
238 111
239 111
240 111
241 112
242 112
243 113
244 113
245 114
246 114
247 114
248 115
249 115
250 116
251 116
252 116
253 117
254 117
255 117
256 117
257 117
258 116
259 115
259 114
260 113
260 112
260 111
260 110
261 109
261 108
261 107
260 107
259 106
260 105
260 104
260 103
260 102
259 102
258 101
259 100
258 100
257 99
258 98
258 97
257 97
256 96
255 95
254 94
253 94
252 94
251 93
250 93
249 93
248 92
249 91
248 91
247 90
246 89
245 89
244 88
243 87
242 86
241 85
240 85
239 85
238 84
239 83
240 82
240 81
241 80
241 79
241 78
241 77
242 76
243 75
244 75
245 75
246 75
247 74
247 73
248 72
249 72
250 71
251 71
252 70
253 69
254 68
255 67
255 66
256 65
257 65
258 64
259 63
260 62
261 61
261 60
262 59
263 58
264 57
264 56
265 55
265 54
265 53
265 52
265 51
265 50
265 49
264 49
263 48
262 48
261 48
260 48
259 48
258 48
257 48
256 48
255 48
254 48
253 48
252 48
251 48
250 48
249 49
248 49
247 49
246 50
245 50
244 50
243 50
242 51
241 51
240 52
239 52
238 52
237 53
236 53
235 54
234 54
233 55
232 55
231 55
230 56
229 57
228 57
227 58
226 58
225 59
224 59
223 59
222 60
221 60
220 61
219 61
218 62
217 62
216 62
215 63
214 63
213 64
212 64
211 64
210 65
209 65
208 66
207 66
206 66
205 66
204 67
203 67
202 67
201 67
200 67
199 67
198 67
197 67
196 66
195 65
194 64
195 63
196 63
197 63
198 62
199 62
200 61
201 61
202 60
203 59
203 58
204 57
204 56
205 55
205 54
206 53
206 52
206 51
206 50
206 49
206 48
207 47
207 46
208 45
208 44
209 43
209 42
210 41
210 40
211 39
211 38
210 38
209 37
209 36
210 35
210 34
211 33
211 32
210 32
209 31
208 30
209 29
209 28
209 27
209 26
209 25
208 25
207 24
206 24
205 24
204 23
203 23
202 23
201 23
200 22
199 21
198 21
197 21
196 21
195 22
194 22
193 22
192 23
191 23
190 24
189 24
188 24
187 25
186 25
185 25
184 26
183 26
182 27
181 28
180 28
179 28
178 29
177 30
176 30
175 31
174 31
173 31
172 32
171 32
170 33
169 33
168 34
167 35
166 35
165 35
164 36
163 36
162 37
161 37
160 37
159 37
158 37
157 37
156 37
155 37
154 36
155 35
155 34
154 34
153 33
152 33
151 32
150 31
151 30
151 29
151 28
150 28
149 27
148 26
149 25
149 24
149 23
149 22
149 21
148 21
147 20
146 20
145 20
144 20
143 20
142 19
143 18
143 17
143 16
143 15
142 15
141 14
140 14
139 14
138 14
137 14
136 15
135 16
134 16
133 17
132 16
132 15
133 14
133 13
134 12
134 11
134 10
134 9
133 9
132 8
131 8
130 8
129 8
128 9
127 10
126 9
126 8
126 7
126 6
125 6
124 5
123 4
122 4
121 4
120 4
119 5
118 6
117 7
116 6
115 6
114 5
115 4
115 3
114 3
113 2
112 2
111 2
