128 2
127 3
127 4
126 5
126 6
126 7
125 8
124 9
124 10
123 11
123 12
123 13
123 14
123 15
122 16
122 17
122 18
122 19
121 20
120 20
119 21
118 22
118 23
118 24
118 25
117 26
117 27
116 28
116 29
115 30
115 31
115 32
115 33
115 34
115 35
115 36
115 37
114 38
113 38
112 38
111 39
110 39
109 39
108 39
107 39
106 39
105 39
104 39
103 40
102 40
101 40
100 40
99 40
98 40
97 40
96 40
95 40
94 40
93 40
92 40
91 40
90 40
89 40
88 41
87 41
86 41
85 41
84 41
83 41
82 41
81 41
80 41
79 41
78 41
77 41
76 41
75 41
74 41
73 41
72 41
71 41
70 41
69 41
68 41
67 41
66 41
65 41
64 41
63 41
62 42
61 42
60 42
59 42
58 42
57 42
56 42
55 42
54 42
53 42
52 42
51 42
50 42
49 42
48 42
47 43
46 43
45 43
44 43
43 43
42 44
41 44
40 45
39 46
38 46
37 46
36 47
35 47
34 47
33 48
32 48
31 48
30 49
29 49
28 50
27 50
26 50
25 51
24 51
23 52
22 53
21 53
20 54
19 54
18 55
17 55
16 55
16 56
15 57
14 57
13 57
12 57
11 57
10 58
9 58
8 59
8 60
8 61
8 62
8 63
8 64
8 65
8 66
8 67
8 68
9 69
10 70
11 71
11 72
12 73
13 74
14 75
15 76
16 76
17 77
17 78
18 78
19 79
20 80
21 81
22 82
23 83
23 84
23 85
24 86
23 87
22 87
21 87
20 87
19 87
18 87
17 87
16 87
15 87
14 87
13 88
12 88
11 88
10 88
9 88
8 88
7 88
6 89
5 89
4 90
3 90
2 90
2 91
2 92
2 93
2 94
2 95
2 96
2 97
2 98
3 99
4 100
5 101
6 101
7 102
8 102
9 102
10 103
11 103
12 103
13 103
14 103
15 104
16 104
17 104
18 104
19 104
20 105
21 105
22 105
23 105
24 105
25 105
26 105
27 105
28 105
29 106
30 106
31 106
32 106
33 106
34 107
35 107
36 107
37 108
38 108
39 108
40 108
41 108
42 108
43 109
44 109
45 109
46 109
47 109
48 109
49 110
50 110
51 110
52 110
53 110
54 111
55 111
56 111
57 111
58 112
59 112
60 112
61 112
62 112
63 112
64 112
65 112
66 113
67 113
68 113
69 113
70 113
71 113
72 114
73 114
74 114
75 114
76 114
77 115
78 115
79 115
80 115
81 115
82 116
83 116
84 116
85 116
86 117
87 117
88 117
89 117
90 117
91 118
92 118
93 118
94 118
95 119
96 119
97 119
98 119
99 119
100 120
101 120
102 120
103 120
104 121
105 122
106 123
106 124
106 125
107 126
108 127
109 128
109 129
110 130
111 131
112 132
112 133
112 134
113 135
114 136
115 137
115 138
116 139
117 140
118 141
118 142
119 142
120 143
121 144
121 145
122 146
123 147
124 148
125 149
126 150
127 151
128 151
129 152
130 152
131 152
132 152
133 151
134 150
135 149
135 148
136 147
136 146
136 145
136 144
136 143
136 142
135 141
135 140
136 139
136 138
136 137
136 136
135 136
134 135
133 134
132 133
133 132
133 131
133 130
133 129
133 128
132 128
131 127
131 126
132 125
132 124
133 123
134 123
135 123
136 123
137 123
138 124
139 124
140 124
141 124
142 124
143 124
144 124
145 124
146 124
147 124
148 124
149 123
149 122
150 121
151 120
152 120
153 120
154 120
155 120
156 120
157 119
158 119
159 119
160 119
161 119
162 119
163 119
164 119
165 119
166 119
167 119
168 119
169 118
170 118
171 118
172 118
173 118
174 117
175 117
176 117
177 117
178 117
179 117
180 117
181 117
182 116
183 116
184 116
185 116
186 116
187 116
188 116
189 116
190 116
191 116
192 116
193 116
194 116
195 116
196 116
197 116
198 116
199 116
200 116
201 117
202 117
203 118
204 119
205 119
206 120
207 121
207 122
208 122
209 123
210 124
211 124
212 125
213 126
214 127
215 128
216 129
217 130
218 131
219 132
220 133
221 134
222 135
223 135
224 136
225 137
226 137
227 138
228 139
229 139
230 139
231 139
232 139
233 138
233 137
234 136
234 135
234 134
234 133
235 132
235 131
235 130
235 129
234 129
233 128
234 127
234 126
234 125
235 124
235 123
236 122
236 121
237 120
237 119
237 118
237 117
238 116
239 115
239 114
240 113
240 112
241 111
241 110
241 109
242 108
243 107
244 106
245 105
246 104
247 103
248 103
249 102
250 101
251 100
252 100
253 99
254 99
255 98
256 98
257 98
258 98
259 98
260 97
261 97
262 97
263 97
264 97
265 96
266 96
267 96
268 96
269 96
270 96
271 95
272 95
273 95
274 95
275 95
276 95
277 95
278 95
279 95
280 96
281 96
282 96
283 97
284 98
285 98
286 98
287 99
288 99
289 100
290 100
291 101
292 102
293 103
294 103
295 104
296 105
297 105
298 105
299 106
300 107
301 107
302 108
303 108
304 109
305 110
306 110
307 111
307 112
308 112
309 112
310 113
311 113
312 114
313 115
314 116
315 116
316 117
317 118
318 119
319 119
320 120
321 121
322 122
323 122
324 122
325 123
326 124
327 124
328 125
328 126
328 127
329 127
330 128
330 129
331 129
332 130
333 130
334 130
335 131
336 132
337 133
338 133
339 133
340 133
341 134
342 135
343 135
344 135
345 135
346 135
347 135
348 135
349 135
350 134
350 133
351 132
351 131
351 130
351 129
350 129
349 128
350 127
350 126
350 125
349 125
348 124
349 123
349 122
349 121
348 121
347 120
348 119
348 118
347 118
346 117
347 116
346 116
345 115
346 114
346 113
346 112
346 111
346 110
346 109
345 109
344 108
345 107
344 107
343 106
342 105
343 104
343 103
342 103
341 102
340 101
341 100
341 99
341 98
341 97
341 96
340 96
339 95
340 94
339 94
338 93
337 92
338 91
337 91
336 90
337 89
337 88
336 88
335 87
334 86
333 85
334 84
333 84
332 83
333 82
333 81
332 81
331 80
332 79
332 78
331 78
330 77
331 76
331 75
331 74
331 73
332 72
333 71
333 70
334 69
335 68
336 68
337 68
338 67
339 66
339 65
340 64
341 63
342 62
342 61
343 60
344 59
344 58
345 57
345 56
346 55
346 54
347 53
348 52
348 51
349 50
349 49
350 48
350 47
350 46
351 45
351 44
352 43
352 42
353 41
353 40
354 39
355 38
355 37
356 36
356 35
356 34
356 33
356 32
355 32
354 31
353 30
352 30
351 30
350 30
349 30
348 30
347 31
346 31
345 31
344 32
343 32
342 32
341 33
340 33
339 33
338 34
337 34
336 35
335 35
334 36
333 36
332 37
332 38
332 39
331 40
330 40
329 40
328 40
327 40
326 41
325 41
324 42
323 42
322 42
321 43
320 44
319 44
318 45
317 46
316 46
315 47
314 47
313 48
312 48
311 49
310 49
309 50
308 50
307 51
306 51
305 52
304 53
303 53
302 54
301 55
300 55
299 55
298 56
297 56
296 57
295 58
294 58
293 58
292 59
291 59
290 60
289 60
288 60
287 61
286 61
285 61
284 62
283 62
282 62
281 62
280 62
279 62
278 62
277 62
276 62
275 62
274 62
273 61
272 61
271 61
270 61
269 61
268 61
267 60
266 60
265 60
264 59
263 59
262 59
261 59
260 58
259 58
258 58
257 58
256 57
255 57
254 57
253 57
252 57
251 56
250 56
249 56
248 56
247 55
246 55
245 55
244 54
243 54
242 53
241 52
240 51
241 50
241 49
240 49
239 48
238 48
237 48
236 47
235 46
234 46
233 45
232 44
231 43
232 42
231 42
230 41
229 41
228 41
227 40
226 39
225 38
226 37
226 36
226 35
225 35
224 34
223 34
222 34
221 33
222 32
223 31
223 30
224 29
224 28
224 27
223 27
222 26
223 25
223 24
223 23
223 22
223 21
223 20
223 19
223 18
223 17
222 17
221 16
222 15
222 14
222 13
221 13
220 12
221 11
220 11
219 10
218 10
217 10
216 10
215 10
214 10
213 11
212 12
211 12
210 13
209 14
208 14
207 15
206 16
205 16
204 17
203 18
202 19
201 20
200 21
199 22
198 22
197 23
196 24
196 25
195 26
194 26
193 26
193 27
192 28
191 28
190 29
190 30
189 31
188 32
187 32
187 33
186 34
185 34
184 35
184 36
183 37
182 38
181 38
180 38
179 38
178 38
177 39
176 39
175 39
174 39
173 39
172 39
171 39
170 39
169 39
168 39
167 39
166 38
167 37
167 36
166 36
165 35
164 34
163 34
162 33
161 32
160 31
159 30
158 29
159 28
158 28
157 27
156 27
155 26
154 25
153 24
152 23
151 22
152 21
152 20
152 19
151 19
150 18
149 17
148 16
147 15
148 14
148 13
148 12
148 11
147 11
146 10
145 10
144 9
145 8
145 7
145 6
145 5
145 4
144 4
143 3
142 2
141 2
140 2
139 2
139 3
138 4
137 4
136 4
135 3
134 2
133 2
132 2
131 2
130 2
129 2
