182 2
182 3
182 4
182 5
181 6
180 6
179 6
178 5
177 5
176 5
175 5
174 4
173 4
172 4
171 4
170 4
169 4
168 5
167 5
166 5
165 5
164 5
163 5
162 5
161 5
160 5
160 6
159 7
158 7
157 7
156 7
155 7
155 8
155 9
155 10
155 11
154 12
153 12
153 13
153 14
152 15
151 15
150 16
149 16
148 16
147 16
146 16
145 16
144 16
143 17
142 17
141 18
140 18
139 18
139 19
138 20
137 20
136 20
135 19
134 18
133 18
132 18
131 18
130 18
129 18
128 17
127 17
126 17
125 17
124 17
123 18
122 18
121 18
120 18
119 18
118 17
117 17
116 17
115 17
114 18
113 18
112 17
111 17
110 17
109 18
108 18
107 18
106 18
105 18
104 19
103 19
102 19
101 20
100 20
99 20
99 21
98 22
97 22
96 22
95 23
94 23
94 24
93 25
92 25
91 25
90 25
89 25
88 26
88 27
88 28
87 29
86 29
86 30
85 31
85 32
85 33
85 34
85 35
84 36
83 36
82 37
81 37
80 37
79 37
78 38
77 38
76 38
75 38
74 38
73 38
72 39
71 39
70 39
69 39
68 39
67 39
66 39
65 39
64 39
63 39
62 39
61 39
60 39
59 39
58 38
57 38
56 38
55 37
54 36
53 36
52 36
51 36
51 37
50 38
49 37
48 36
47 36
46 36
45 35
44 35
43 35
42 35
41 34
40 34
39 33
38 33
37 33
36 33
35 32
34 32
33 32
32 31
31 31
30 31
29 30
28 30
27 30
26 30
25 29
24 29
23 29
22 28
21 28
20 28
19 27
18 27
17 27
16 27
15 27
14 27
13 27
12 27
11 27
10 27
9 27
8 27
7 27
7 28
6 29
6 30
5 31
5 32
5 33
5 34
6 35
6 36
7 36
8 37
8 38
9 38
10 39
11 40
11 41
12 42
12 43
13 43
14 44
13 45
13 46
12 47
12 48
11 49
10 50
10 51
10 52
9 53
9 54
8 55
7 55
6 55
6 56
6 57
5 58
4 59
4 60
3 61
2 61
2 62
2 63
2 64
2 65
2 66
2 67
2 68
2 69
3 69
4 70
4 71
5 71
6 71
7 72
7 73
8 73
9 73
10 73
11 73
12 73
13 74
14 74
15 74
16 73
17 73
18 73
19 73
20 73
21 73
22 72
23 72
24 72
25 72
26 72
27 72
28 72
29 72
30 72
31 71
32 71
33 71
34 71
35 71
36 71
37 70
38 70
39 70
40 70
41 70
42 70
43 69
44 69
45 69
46 69
47 69
48 68
49 68
50 67
51 67
52 66
53 66
54 66
55 65
56 65
57 65
58 64
59 64
60 64
61 64
62 64
63 64
64 63
65 63
66 63
67 63
68 63
69 63
70 63
71 64
72 64
73 64
74 64
75 64
76 64
77 64
78 64
79 64
80 65
81 66
81 67
80 68
80 69
80 70
80 71
80 72
80 73
80 74
81 74
82 74
83 74
84 74
85 75
86 76
87 77
88 77
89 77
90 77
91 77
92 77
93 77
94 77
95 77
96 77
97 77
98 77
99 77
100 77
101 77
102 77
103 77
104 77
105 77
106 77
107 77
108 77
109 76
109 75
108 74
109 73
110 73
111 73
112 73
113 73
114 72
115 72
116 73
117 74
118 75
119 75
120 75
121 75
122 75
123 75
124 75
125 75
126 75
127 74
128 74
129 74
130 74
131 74
132 74
133 74
134 74
135 74
136 74
137 74
138 74
139 74
140 75
141 75
142 75
143 75
144 75
145 75
146 75
147 75
148 75
149 75
150 75
151 76
152 76
153 76
154 76
155 76
156 77
157 77
158 77
159 77
160 77
161 77
162 78
163 78
164 78
165 78
166 78
167 78
168 78
169 78
170 78
171 78
172 78
173 79
174 79
175 79
176 80
175 81
174 81
174 82
174 83
174 84
174 85
174 86
175 86
176 86
177 86
178 87
179 87
180 87
181 86
182 86
183 85
184 85
185 85
186 85
187 85
188 85
189 85
190 84
191 84
192 83
193 83
194 82
195 82
196 82
197 81
198 81
199 81
200 80
201 80
202 80
203 79
204 78
205 78
206 78
207 77
208 77
209 76
210 76
211 75
212 75
213 75
214 75
215 74
216 74
217 73
218 73
219 73
220 73
221 73
222 72
223 72
224 71
225 71
226 71
227 71
228 71
229 71
230 71
231 71
232 71
233 70
234 70
235 70
236 70
237 70
238 70
239 70
240 70
241 69
242 69
243 69
244 69
245 69
246 69
247 68
248 68
249 68
250 68
251 68
252 68
253 68
254 67
255 66
256 66
257 66
258 65
259 65
260 65
261 65
262 64
263 64
264 64
265 64
266 64
267 64
268 63
269 63
270 63
271 63
272 62
273 62
274 62
275 61
276 60
277 60
278 60
279 59
280 59
281 58
282 58
283 57
284 57
285 57
286 56
286 55
287 54
288 53
289 52
289 51
290 50
291 49
292 48
293 47
293 46
294 45
294 44
293 44
292 43
291 42
290 42
289 42
288 41
289 40
288 40
287 39
286 38
285 38
284 37
283 37
282 36
281 35
280 35
279 35
278 35
277 34
276 34
275 33
274 33
273 33
272 32
271 31
270 31
269 31
268 30
267 30
266 29
265 29
264 28
263 28
262 28
261 27
260 26
259 26
258 25
257 25
256 24
255 24
254 23
253 23
252 22
251 22
250 22
249 21
248 21
247 20
246 19
245 19
244 19
243 19
242 18
241 18
240 18
239 17
238 17
237 17
236 17
235 16
234 16
233 16
232 15
231 15
230 15
229 14
228 14
227 14
226 14
225 14
224 13
223 13
222 13
221 13
220 12
219 12
218 12
217 12
216 12
215 12
214 12
213 12
212 12
211 11
210 11
209 11
208 12
207 11
206 11
205 11
204 10
205 9
204 9
203 8
202 8
201 8
200 8
199 7
198 6
197 6
196 6
195 6
194 5
193 4
192 4
191 4
190 4
189 4
188 4
187 4
186 3
185 2
184 2
183 2
