247 4
247 5
246 6
246 7
246 8
245 9
245 10
245 11
245 12
244 13
244 14
244 15
243 16
243 17
243 18
243 19
243 20
242 21
242 22
242 23
242 24
243 25
243 26
242 27
242 28
242 29
242 30
242 31
242 32
242 33
242 34
242 35
242 36
243 37
243 38
243 39
243 40
243 41
243 42
243 43
242 44
242 45
241 46
241 47
240 48
239 49
238 50
237 51
236 50
235 50
234 50
233 50
232 50
231 50
230 50
229 50
228 50
227 50
226 50
225 50
224 50
223 50
222 50
221 50
220 50
219 50
218 50
217 50
216 50
215 50
214 50
213 50
212 50
211 50
210 50
209 50
208 50
207 50
206 50
205 50
204 50
203 50
202 50
201 50
200 50
199 50
198 50
197 50
197 51
196 52
195 51
194 51
193 51
192 51
191 51
190 51
189 51
188 51
187 51
186 51
185 51
184 51
184 52
183 53
182 52
181 52
180 52
180 53
179 54
178 53
177 53
176 53
176 54
175 55
174 54
173 54
172 54
171 54
170 54
169 54
168 54
167 54
166 54
166 55
165 56
164 55
163 55
162 55
161 55
161 56
160 57
159 56
158 56
157 56
157 57
156 58
155 57
154 57
153 57
152 57
151 57
150 57
150 58
149 59
148 58
147 58
146 58
146 59
145 60
144 59
143 59
143 60
142 61
141 60
140 60
139 60
138 60
137 60
136 60
135 60
135 61
134 62
133 61
132 61
132 62
131 63
130 62
129 62
128 63
127 63
126 62
125 62
124 62
123 62
122 62
121 61
120 61
119 61
118 61
117 61
117 62
116 63
116 64
115 65
114 64
114 65
113 66
112 65
112 66
111 67
110 66
109 66
108 66
108 67
107 68
106 69
105 68
105 69
104 70
103 69
102 69
101 69
101 70
100 71
99 70
99 71
98 72
97 71
96 71
95 71
94 71
93 71
92 70
91 70
90 70
89 69
88 69
87 69
86 69
85 68
84 68
83 68
82 67
81 67
80 67
79 66
78 66
77 66
76 66
75 66
74 66
73 66
72 65
71 65
70 65
69 65
68 65
67 64
66 64
65 64
64 64
63 64
62 64
61 64
60 63
59 63
58 63
57 63
56 63
55 63
54 63
53 63
52 63
51 63
50 63
49 63
48 63
47 63
46 63
45 63
44 63
43 63
42 63
41 63
40 63
39 63
38 63
37 63
36 63
35 63
34 63
33 63
32 63
31 63
30 63
29 63
28 63
27 63
26 63
25 63
24 63
23 63
22 63
21 63
20 63
19 63
18 63
17 63
16 63
15 63
14 63
13 63
13 64
12 65
11 64
10 64
9 64
8 64
8 65
7 66
6 65
5 65
5 66
4 67
3 66
3 67
2 68
2 69
3 70
4 70
5 70
6 71
7 71
8 71
9 71
10 71
11 71
12 71
13 72
14 72
15 73
16 74
17 74
18 74
19 74
20 74
21 74
22 74
23 74
24 74
25 73
26 74
27 74
28 74
29 74
30 74
31 74
32 74
33 74
34 74
35 75
36 75
37 75
38 75
39 75
40 75
41 76
42 76
43 76
44 76
45 76
46 76
47 76
48 77
49 77
50 78
51 78
52 78
53 79
54 79
55 79
56 79
57 79
58 80
59 80
60 80
61 80
62 81
63 81
64 82
65 82
66 82
67 82
68 82
69 83
70 84
71 84
72 85
73 85
74 85
75 85
76 85
77 85
78 86
79 86
80 86
81 87
82 87
83 88
84 88
85 88
86 89
87 90
87 91
88 92
89 93
89 94
90 95
90 96
90 97
90 98
90 99
90 100
90 101
90 102
91 103
91 104
92 105
93 105
94 105
95 105
96 105
97 105
98 105
99 104
100 103
101 102
102 102
102 101
103 100
104 99
105 98
106 98
107 98
108 97
108 96
108 95
109 94
109 93
109 92
110 91
111 90
111 89
112 88
113 88
114 88
115 88
116 88
117 88
118 88
119 88
120 88
121 88
122 88
123 88
124 88
125 88
126 88
127 88
128 88
129 88
130 88
131 89
132 89
133 89
134 89
135 89
136 89
137 89
138 89
139 89
140 89
141 89
142 89
143 89
144 90
145 90
146 90
147 90
148 91
149 91
150 91
151 91
152 91
153 92
154 92
155 92
156 92
157 92
158 92
159 92
160 92
161 92
162 92
163 92
164 92
165 92
166 92
167 93
168 93
169 93
170 93
171 93
172 93
173 93
174 93
175 93
176 93
177 93
178 93
179 94
179 95
180 96
180 97
180 98
181 99
182 100
182 101
183 101
184 101
185 101
186 101
187 101
188 100
189 100
190 100
191 100
192 99
193 99
194 99
195 98
196 98
197 97
198 96
199 96
199 95
200 94
201 94
202 94
203 94
204 94
205 94
206 94
207 94
208 94
209 94
210 94
211 94
212 94
213 94
214 94
215 94
216 94
217 94
218 94
219 94
220 94
221 94
222 94
223 94
224 94
225 94
226 94
227 94
228 94
229 94
230 94
231 94
232 94
233 94
234 94
235 94
236 94
237 94
238 94
239 94
240 94
241 94
242 94
243 94
244 95
245 95
246 95
247 96
248 96
249 96
250 97
251 97
252 97
253 97
254 97
255 98
256 98
257 98
258 98
259 98
260 98
261 99
262 99
263 99
264 99
265 99
266 99
267 99
268 99
269 100
270 101
271 101
272 102
272 103
272 104
272 105
272 106
272 107
272 108
272 109
272 110
272 111
272 112
273 113
274 114
275 114
276 114
277 114
278 114
279 115
280 115
281 115
282 115
283 115
284 115
285 115
286 115
287 115
288 115
289 115
290 114
291 114
292 114
293 114
294 114
295 113
296 112
297 112
298 111
299 111
300 110
301 109
302 108
303 108
304 108
305 108
306 108
307 108
308 108
309 108
310 108
311 107
312 107
313 107
314 107
315 107
316 106
317 106
318 106
319 106
320 106
321 106
322 106
323 106
324 105
325 105
325 104
326 103
327 103
328 103
329 103
330 102
331 102
332 102
333 102
334 102
335 102
336 101
337 101
338 101
339 101
340 101
341 101
342 101
343 101
344 102
344 103
343 104
342 105
342 106
341 107
340 108
339 109
338 110
337 109
337 110
336 111
335 112
334 113
333 114
333 115
333 116
334 117
335 118
336 119
337 119
338 120
339 120
340 120
341 120
342 120
343 120
344 120
345 120
346 120
347 120
348 120
349 120
350 120
351 120
352 120
353 120
354 119
355 119
356 119
357 118
358 118
359 117
359 116
360 115
361 114
362 113
363 113
363 112
364 111
365 111
366 110
367 109
368 108
368 107
369 106
370 105
370 104
371 103
371 102
372 101
372 100
373 99
373 98
374 97
375 96
375 95
376 94
377 93
377 92
378 91
378 90
379 89
379 88
380 87
380 86
380 85
380 84
381 83
381 82
381 81
381 80
382 79
382 78
382 77
382 76
382 75
382 74
382 73
382 72
382 71
382 70
381 69
381 68
381 67
380 66
380 65
380 64
379 63
379 62
379 61
379 60
379 59
379 58
379 57
379 56
379 55
379 54
378 53
378 52
378 51
377 50
376 49
376 48
375 47
374 47
373 46
373 45
373 44
373 43
373 42
374 41
374 40
374 39
373 38
372 38
371 37
370 37
369 36
368 36
367 36
366 35
365 35
364 35
363 35
362 35
361 35
360 35
359 35
358 35
358 36
357 37
356 36
355 36
355 37
354 38
353 37
352 37
351 37
350 37
350 38
349 39
348 38
347 38
347 39
346 40
345 39
345 40
344 41
344 42
344 43
344 44
344 45
345 46
345 47
345 48
346 49
346 50
346 51
347 52
347 53
347 54
347 55
347 56
348 57
348 58
348 59
348 60
348 61
348 62
348 63
347 64
346 63
345 63
345 64
344 65
343 64
343 65
342 66
341 65
340 64
339 64
338 63
337 63
336 63
335 63
334 63
333 63
332 63
331 63
330 62
329 62
328 62
327 62
326 62
325 61
325 62
324 63
323 64
322 63
321 63
320 63
319 63
318 63
317 63
316 63
315 63
314 63
313 63
312 63
311 63
310 63
309 62
308 61
307 61
306 60
305 60
304 60
303 60
302 60
301 60
300 60
299 59
298 59
297 59
296 58
295 58
294 58
293 57
292 57
291 57
290 57
289 57
288 57
287 57
286 56
285 56
284 56
283 55
282 55
281 54
280 53
280 52
279 51
278 50
277 49
276 48
276 47
275 46
275 45
274 44
273 43
273 42
272 41
272 40
271 39
271 38
271 37
270 36
270 35
269 34
269 33
269 32
269 31
268 30
268 29
268 28
267 27
267 26
266 25
266 24
265 23
264 22
264 21
264 20
264 19
264 18
263 17
262 16
262 15
261 14
260 14
259 13
259 12
258 11
257 11
256 10
255 9
254 8
253 7
252 6
251 6
250 5
249 5
248 4
