89 4
89 5
88 6
87 5
86 5
85 5
85 6
84 7
83 6
82 6
82 7
81 8
80 7
79 7
78 7
78 8
77 9
76 8
75 8
75 9
74 10
73 9
72 9
71 9
71 10
70 11
69 10
68 10
68 11
67 12
66 11
65 11
64 11
63 11
62 11
61 11
60 11
59 11
58 11
57 11
56 11
55 11
54 11
54 12
53 13
52 12
51 12
50 12
49 12
48 12
47 12
47 13
46 14
45 13
44 13
43 13
42 13
42 14
41 15
40 14
39 14
38 14
37 14
36 14
36 15
35 16
34 15
33 15
32 15
31 15
31 16
30 17
29 16
28 16
27 16
27 17
26 18
25 17
25 18
24 19
23 18
23 19
22 20
21 19
20 19
20 20
19 21
18 20
17 20
17 21
16 22
15 21
15 22
14 23
13 22
13 23
12 24
11 23
11 24
10 25
9 26
8 25
7 25
7 26
6 27
5 26
4 26
4 27
3 28
2 29
2 30
2 31
2 32
2 33
3 34
3 35
4 36
4 37
5 37
6 38
7 39
8 40
7 41
6 42
5 41
4 41
4 42
3 43
3 44
3 45
3 46
3 47
4 48
4 49
5 50
6 51
7 52
7 53
8 54
9 54
10 54
11 54
12 54
13 53
13 52
13 51
14 50
15 50
16 50
17 50
18 50
19 51
20 51
21 52
22 53
23 53
24 54
25 54
26 55
27 55
28 55
29 55
30 56
31 57
32 57
33 58
34 58
35 59
36 59
37 60
38 60
39 60
40 61
41 61
42 62
43 62
44 63
45 63
46 63
47 64
48 64
49 65
50 65
51 66
52 66
53 67
54 67
55 67
56 68
57 68
58 69
59 69
60 69
61 69
62 70
63 70
64 70
65 70
66 70
67 70
68 71
69 71
70 71
71 71
72 71
73 71
74 71
75 71
76 71
77 71
78 71
79 71
80 71
81 71
82 71
83 71
84 71
85 71
86 71
87 71
88 71
89 71
90 71
91 71
92 71
93 71
94 70
95 70
96 70
97 70
98 70
99 70
100 70
101 70
102 70
103 70
104 69
105 69
106 69
107 69
108 69
109 69
110 69
111 69
112 69
113 68
114 68
115 68
116 67
117 66
118 65
119 65
120 65
121 65
122 65
123 64
124 64
125 64
126 64
127 64
128 64
129 64
130 64
131 64
132 64
133 64
134 64
135 64
136 64
137 64
138 64
139 64
140 64
141 64
142 64
143 63
144 63
145 63
146 63
147 63
148 63
149 63
150 63
151 63
152 63
153 63
154 63
155 63
156 62
157 62
158 62
159 62
160 62
161 62
162 62
163 62
164 61
165 61
166 61
167 61
168 61
169 60
170 60
171 60
172 60
173 60
174 60
175 60
176 60
177 59
178 59
179 59
180 59
181 59
182 59
183 59
184 58
185 58
186 58
187 58
188 58
189 58
190 58
191 58
192 58
193 58
194 57
195 57
196 57
197 57
198 57
199 57
200 57
201 57
202 57
203 57
204 57
205 57
206 57
207 57
208 56
209 55
210 55
211 55
212 55
213 55
214 55
215 56
216 56
217 56
218 56
219 56
220 56
221 55
222 54
223 54
224 54
225 54
226 54
227 54
228 54
229 54
230 53
230 52
230 51
231 50
232 50
233 50
234 50
235 50
236 50
237 51
238 51
239 51
240 51
241 51
242 51
243 51
244 51
245 51
246 51
247 51
248 51
249 51
250 51
251 51
252 51
253 51
254 50
255 49
256 48
257 48
258 47
258 46
258 45
258 44
258 43
258 42
258 41
258 40
258 39
258 38
258 37
258 36
257 35
256 34
255 34
254 33
253 33
252 33
251 33
250 33
249 33
248 33
247 33
246 33
245 33
244 33
243 33
242 33
242 34
241 35
240 34
239 34
238 34
237 34
237 35
236 36
235 35
234 35
233 35
232 34
232 33
232 32
231 31
230 31
229 30
228 30
227 29
226 29
225 29
224 29
223 29
222 29
221 29
220 29
219 28
218 28
217 28
216 28
215 28
214 28
213 28
212 27
211 27
210 27
209 27
208 27
207 27
206 27
205 27
204 27
203 27
202 27
201 27
200 27
199 27
198 27
197 27
196 27
195 27
194 27
193 27
192 26
191 26
190 26
189 26
188 26
187 25
186 25
185 25
184 25
183 24
182 24
181 24
180 24
179 24
178 24
177 24
176 24
175 24
174 24
173 23
172 23
171 23
170 23
169 23
168 23
167 23
166 23
165 23
164 23
163 23
162 23
161 23
160 23
159 23
158 23
157 23
156 22
155 22
154 22
153 22
152 22
151 22
150 22
149 21
148 21
147 21
146 20
145 20
144 20
143 20
142 19
141 19
140 19
139 19
138 18
137 18
136 18
135 17
134 17
133 17
132 17
131 17
130 16
129 16
128 16
127 15
126 15
125 15
124 15
123 15
122 14
121 14
120 14
119 14
118 14
117 14
116 14
115 14
114 14
113 13
112 13
111 13
110 13
109 13
108 13
107 13
106 13
105 13
104 13
103 13
102 13
101 13
100 13
99 13
98 13
97 13
96 13
95 13
94 13
93 12
93 11
94 10
95 10
96 10
97 10
98 9
98 8
98 7
97 6
96 5
95 5
94 4
93 4
92 4
91 4
90 4
