41 4
41 5
40 6
39 5
38 5
37 5
36 5
36 6
35 7
34 6
33 6
33 7
32 8
31 7
30 7
30 8
29 9
28 8
28 9
27 10
26 11
25 10
25 11
24 12
23 11
23 12
22 13
21 12
21 13
20 14
19 15
18 16
17 17
16 16
16 17
15 18
14 19
13 20
12 21
11 22
11 23
10 24
10 25
9 26
9 27
8 28
7 29
7 30
6 31
6 32
6 33
5 34
5 35
4 36
4 37
4 38
4 39
4 40
4 41
3 42
3 43
3 44
3 45
3 46
2 47
2 48
2 49
2 50
2 51
2 52
3 53
3 54
3 55
3 56
3 57
3 58
3 59
3 60
3 61
4 62
4 63
4 64
4 65
4 66
4 67
4 68
5 69
5 70
5 71
6 72
6 73
7 74
7 75
7 76
8 77
8 78
9 79
10 80
10 81
11 82
11 83
11 84
12 85
12 86
13 86
14 87
15 88
15 89
16 89
17 90
18 91
18 92
19 92
20 93
21 94
22 94
23 95
24 96
25 96
26 97
27 98
28 98
29 98
30 99
31 99
32 99
33 100
34 101
35 101
36 101
37 101
38 102
39 102
40 102
41 103
42 103
43 103
44 103
45 103
46 103
47 104
48 104
49 104
50 104
51 104
52 104
53 104
54 104
55 105
56 105
57 105
58 105
59 105
60 105
61 106
62 106
63 106
64 106
65 106
66 106
67 106
68 106
69 106
70 106
71 106
72 106
73 107
74 107
75 107
76 107
77 107
78 107
79 107
80 107
81 107
82 107
83 107
84 107
85 107
86 107
87 107
88 107
89 107
90 107
91 107
92 107
93 107
94 107
95 107
96 108
97 108
98 108
99 108
100 108
101 108
102 108
103 108
104 108
105 108
106 108
107 108
108 108
109 108
110 108
111 108
112 108
113 108
114 108
115 108
116 108
117 108
118 108
119 108
120 108
121 108
122 108
123 109
124 109
125 109
126 109
127 109
128 108
129 108
130 108
131 108
132 108
133 108
134 108
135 108
136 108
137 108
138 108
139 108
140 108
141 107
142 107
143 107
144 106
145 106
146 106
147 106
148 106
149 106
150 105
151 105
152 105
153 105
154 105
155 105
156 105
157 105
158 105
159 105
160 105
161 105
162 105
163 105
164 105
165 105
166 105
167 105
168 105
169 105
170 105
171 105
172 105
173 105
174 105
175 105
176 105
177 105
178 105
179 105
180 105
181 105
182 105
183 105
184 105
185 105
186 105
187 105
188 105
189 105
190 105
191 105
192 105
193 105
194 104
195 104
196 104
197 104
198 104
199 104
200 104
201 104
202 104
203 104
204 104
205 104
206 103
207 103
208 102
209 102
210 102
211 101
212 100
213 99
214 98
215 97
216 96
217 95
218 95
219 94
220 94
221 93
222 92
223 92
224 91
224 90
224 89
224 88
223 87
222 87
221 86
222 85
222 84
222 83
222 82
222 81
221 80
220 80
219 79
218 79
217 79
216 79
215 79
214 78
213 78
212 78
211 77
210 77
209 77
208 77
207 77
206 77
205 76
204 75
203 75
202 74
201 74
200 74
199 73
198 73
197 73
196 72
195 72
194 72
193 72
192 72
191 72
191 73
190 74
189 73
188 73
187 73
186 73
185 73
185 74
184 75
183 74
182 74
182 75
181 76
180 77
179 76
178 76
178 77
177 78
176 77
175 77
174 77
173 76
172 76
171 76
170 76
169 76
168 76
167 76
166 75
165 75
164 75
163 75
162 75
161 75
160 75
159 75
158 74
157 74
156 74
155 74
154 74
153 74
152 74
151 74
150 74
149 74
148 74
147 74
146 74
145 74
145 75
144 76
143 75
142 75
141 75
140 75
139 75
139 76
138 77
137 76
136 76
135 76
134 76
133 76
132 76
131 76
131 77
130 78
129 79
128 78
127 78
126 79
125 78
124 78
123 77
122 77
121 77
120 77
119 77
118 77
117 77
116 77
115 77
114 77
113 77
113 78
112 79
111 78
110 78
109 78
108 78
108 79
107 80
106 79
105 79
104 79
104 80
103 81
102 80
101 80
100 80
99 80
98 80
97 80
96 80
95 80
94 80
93 80
92 80
91 80
90 80
89 80
88 80
87 80
86 80
85 80
84 80
83 80
82 80
81 80
80 80
79 80
78 80
77 80
76 80
75 80
74 80
73 80
72 80
71 80
70 80
69 80
68 80
67 80
66 80
65 80
64 80
63 80
62 80
61 80
60 80
59 80
58 80
57 80
56 80
55 80
54 80
53 80
52 80
51 80
50 79
49 79
48 79
47 79
46 78
45 78
44 78
43 77
42 77
41 77
40 76
39 76
38 75
37 74
36 73
35 72
34 71
33 70
32 69
31 68
30 67
29 66
29 65
29 64
28 63
28 62
27 61
27 60
26 59
26 58
26 57
26 56
26 55
25 54
25 53
25 52
25 51
25 50
25 49
25 48
25 47
26 46
26 45
26 44
26 43
26 42
26 41
27 40
27 39
27 38
28 37
28 36
29 35
29 34
29 33
30 32
30 31
31 30
32 29
32 28
33 27
34 27
35 26
36 25
36 24
37 23
38 22
39 21
40 21
41 21
42 20
43 20
44 20
45 19
46 19
47 19
48 18
49 18
50 18
51 18
52 18
53 17
54 17
55 17
56 17
57 17
58 17
59 17
60 17
61 17
62 17
63 17
64 17
65 18
66 18
67 18
68 18
69 18
70 18
71 18
72 19
73 19
74 19
75 19
76 20
77 20
78 20
79 20
80 20
81 20
82 20
83 20
84 20
85 19
86 19
87 19
88 19
89 18
89 17
89 16
89 15
89 14
88 13
87 13
86 12
85 12
84 11
83 10
82 10
81 9
80 9
79 9
78 8
77 8
76 7
75 7
74 7
73 7
72 6
71 6
70 6
69 6
68 5
67 5
66 5
65 5
64 4
63 4
62 4
61 4
60 4
59 4
58 4
57 4
56 4
55 4
54 4
53 4
52 4
51 4
50 4
49 4
48 4
47 4
46 4
45 4
44 4
43 4
42 4
