93 4
93 5
92 6
92 7
92 8
93 9
94 10
94 11
94 12
94 13
94 14
94 15
95 16
95 17
95 18
94 19
93 19
92 19
91 18
90 18
89 18
88 17
88 18
87 19
87 20
88 21
89 21
90 22
90 23
90 24
90 25
90 26
91 27
92 27
93 28
94 29
95 30
96 31
95 32
94 33
93 32
92 32
91 32
91 33
90 34
89 33
88 33
88 34
87 35
86 34
85 34
84 34
84 35
83 36
82 35
81 35
80 35
80 36
79 37
78 36
78 37
77 38
76 37
75 37
74 37
74 38
73 39
72 38
71 38
70 38
69 38
69 39
68 40
67 39
66 39
65 39
64 39
64 40
63 41
62 40
61 40
60 40
59 40
59 41
58 42
57 41
56 41
55 41
54 41
53 40
52 40
51 40
50 40
49 40
48 40
47 39
46 39
45 39
44 39
43 39
42 38
41 38
40 37
39 37
38 37
37 37
36 37
35 36
34 36
33 36
32 35
31 35
30 35
29 35
28 34
27 34
26 34
25 33
24 33
23 33
22 32
21 32
20 32
19 31
18 31
17 30
16 30
15 30
14 30
13 30
12 29
11 29
10 29
9 29
8 29
7 29
6 29
5 29
5 30
4 31
3 30
3 31
2 32
2 33
3 33
4 34
5 35
5 36
6 37
7 37
8 38
8 39
9 40
10 41
11 42
12 42
13 43
14 44
15 44
16 44
17 45
18 46
18 47
18 48
19 48
20 48
21 48
22 49
23 50
23 51
23 52
24 52
25 53
26 53
27 54
26 55
25 56
25 57
25 58
24 59
24 60
23 61
23 62
22 63
21 64
20 63
20 64
19 65
19 66
19 67
19 68
19 69
18 70
17 71
17 72
17 73
18 74
17 75
17 76
17 77
17 78
16 79
15 78
15 79
14 80
14 81
14 82
13 83
13 84
13 85
12 86
12 87
12 88
11 89
11 90
11 91
11 92
12 92
13 92
14 92
15 92
16 92
17 92
18 92
19 91
20 91
21 90
22 89
23 88
24 88
25 87
26 86
27 85
28 84
29 84
30 83
31 82
32 81
33 81
34 80
35 79
36 79
37 78
38 77
39 76
40 75
41 75
42 74
43 73
44 72
45 71
46 70
47 69
48 68
49 68
50 67
51 66
52 66
53 65
54 64
55 64
56 63
57 63
58 62
59 62
60 61
61 61
62 61
63 60
64 60
65 60
66 60
67 59
68 59
69 59
70 59
71 59
72 59
73 59
74 59
75 59
76 59
77 59
78 60
79 60
80 60
81 61
82 61
83 62
84 62
85 62
86 63
87 64
88 64
89 65
90 65
91 65
92 65
93 65
94 65
95 66
95 67
95 68
94 69
93 70
92 71
91 72
90 71
90 72
89 73
89 74
90 74
91 75
91 76
91 77
92 77
93 77
94 77
95 77
96 78
96 79
95 80
95 81
95 82
96 82
97 82
98 83
97 84
97 85
97 86
97 87
98 87
99 88
99 89
98 90
97 91
97 92
97 93
98 93
99 93
100 93
101 92
102 92
103 91
104 91
105 90
106 90
107 90
108 89
109 89
110 88
111 88
112 87
112 86
113 85
113 84
114 83
115 82
115 81
116 80
116 79
117 78
118 77
119 76
119 75
120 74
121 73
122 72
123 72
124 72
125 73
126 73
127 73
128 73
129 73
130 73
131 74
132 74
133 74
134 74
135 74
136 75
137 75
138 75
139 75
140 75
141 76
142 76
143 76
144 76
145 76
146 76
147 76
148 77
149 77
150 77
151 77
152 77
153 78
154 78
155 78
156 78
157 78
158 78
159 78
160 78
161 78
162 78
163 78
164 78
165 79
164 80
163 81
162 82
162 83
163 84
164 85
165 85
166 86
167 87
168 87
169 87
170 87
171 87
172 87
173 87
174 87
175 86
176 86
177 86
178 85
179 84
180 83
181 83
182 83
183 83
184 82
185 82
186 83
186 84
185 85
184 86
183 87
183 88
182 89
181 90
180 91
180 92
179 93
179 94
179 95
180 95
181 96
182 96
183 96
184 97
184 98
184 99
185 99
186 99
187 99
188 98
189 97
190 96
190 95
191 94
191 93
192 92
193 91
193 90
194 89
195 88
196 89
196 90
197 91
196 92
197 93
196 94
196 95
196 96
196 97
196 98
197 98
198 98
199 99
200 100
201 100
202 100
203 100
203 99
202 98
202 97
201 96
200 95
200 94
200 93
200 92
200 91
200 90
200 89
200 88
200 87
200 86
200 85
200 84
200 83
200 82
201 81
202 81
203 81
204 81
205 81
206 81
207 81
208 81
209 81
210 81
211 81
212 80
213 80
214 80
215 80
216 80
217 80
218 79
219 79
220 79
221 79
222 79
223 79
224 79
225 79
226 79
227 78
228 78
229 78
230 78
231 77
232 77
233 77
234 76
235 76
236 76
237 76
238 75
239 74
240 74
241 74
242 73
243 73
244 73
245 73
246 72
247 72
248 72
249 72
250 71
251 71
252 70
253 70
254 70
255 69
256 69
257 69
258 68
259 68
260 68
261 67
262 67
263 67
264 66
265 66
266 66
267 66
268 65
269 65
270 65
271 64
272 64
273 64
274 63
275 62
276 62
277 61
278 60
279 59
280 59
281 58
282 57
283 56
283 55
284 54
285 53
285 52
286 51
286 50
286 49
286 48
286 47
286 46
286 45
285 44
285 43
284 42
283 41
282 40
281 39
280 38
279 38
278 37
277 37
276 37
275 36
274 36
273 36
272 36
271 35
270 35
269 35
268 35
267 34
266 34
265 34
264 33
263 33
262 33
261 32
260 32
259 32
258 32
257 32
256 32
255 31
254 31
253 31
252 30
251 30
250 30
249 30
248 30
247 29
246 29
245 29
244 28
243 28
242 28
241 28
240 28
239 27
238 27
237 26
236 26
235 26
235 27
234 28
233 27
232 27
231 27
230 27
229 27
228 26
227 26
226 26
225 26
224 26
223 26
222 26
221 26
220 26
219 26
218 26
217 26
216 26
215 26
214 26
213 26
212 26
211 26
210 26
209 25
208 25
207 25
206 25
205 25
204 25
203 25
202 25
201 25
200 25
199 25
198 25
197 25
196 25
195 24
194 24
193 24
192 24
191 24
190 24
189 24
188 24
187 24
186 24
185 23
184 23
183 23
182 23
181 23
180 23
179 23
178 23
177 23
176 23
175 23
174 23
173 23
172 23
171 23
170 23
169 23
168 23
167 23
166 23
165 23
164 22
164 21
164 20
163 19
162 19
161 18
160 18
159 17
158 16
157 15
156 15
155 16
155 17
155 18
155 19
156 20
157 20
158 21
158 22
157 23
156 22
155 23
154 22
153 21
152 20
151 20
150 19
149 19
148 19
147 19
146 19
145 18
144 17
143 16
142 15
141 15
140 14
139 14
138 14
137 14
137 15
136 16
136 17
136 18
137 19
138 20
139 21
140 21
141 22
142 22
143 23
143 24
142 25
141 24
140 24
139 24
138 24
137 24
136 24
135 24
135 25
134 26
133 25
132 25
131 25
130 25
130 26
129 27
128 26
127 26
126 26
125 26
124 26
123 26
122 26
121 26
120 26
120 27
119 28
118 27
117 27
116 27
115 27
114 27
113 27
112 26
111 25
110 24
109 24
108 23
108 22
107 21
106 20
106 19
105 18
104 17
103 16
103 15
102 14
102 13
101 12
100 11
99 10
99 9
98 8
97 7
96 6
95 5
94 5
