88 4
88 5
87 6
86 5
85 5
84 5
83 5
82 5
81 5
80 5
79 5
78 5
77 5
76 5
75 5
74 5
73 5
72 5
71 5
70 5
69 5
68 5
67 5
66 5
65 5
64 5
63 5
62 5
61 5
60 5
59 5
58 5
57 5
56 5
55 5
54 5
53 5
52 5
51 5
50 5
49 5
48 5
47 5
46 5
45 5
44 5
44 6
43 7
42 6
41 6
40 6
39 6
39 7
38 8
37 7
36 7
35 7
35 8
34 9
33 8
32 8
31 8
30 8
29 8
28 8
28 9
27 10
26 9
25 9
24 9
24 10
23 11
22 10
21 10
21 11
20 12
19 13
18 14
17 13
17 14
16 15
15 16
14 15
14 16
13 17
12 18
11 19
10 20
9 19
8 19
7 19
7 20
6 21
5 22
4 23
3 24
2 25
2 26
3 26
4 27
5 27
6 27
7 27
8 27
9 28
9 29
8 30
7 29
6 29
6 30
5 31
5 32
5 33
6 34
7 34
8 34
9 34
10 34
11 34
12 34
13 34
14 34
15 34
16 34
17 34
18 34
19 34
20 34
21 34
22 34
23 34
24 34
25 34
26 34
27 34
28 34
29 34
30 34
31 34
32 34
33 34
34 34
35 34
36 34
37 34
38 34
39 34
40 34
41 34
42 34
43 34
44 34
45 34
46 34
47 34
48 33
49 33
50 32
51 32
52 31
53 31
54 31
55 30
56 30
57 29
58 29
59 29
60 29
61 29
62 29
63 29
64 29
65 29
66 29
67 29
68 30
69 30
70 30
71 30
72 30
73 30
74 30
75 30
76 30
77 30
78 30
79 30
80 30
81 30
82 30
83 30
84 30
85 30
86 30
87 30
88 30
89 30
90 30
91 29
92 29
93 29
94 29
95 29
96 30
97 30
98 30
99 30
100 30
101 30
102 30
103 30
104 30
105 30
106 30
107 30
108 30
109 30
110 30
111 30
112 30
113 30
114 30
115 30
116 30
117 30
118 30
119 30
120 30
121 30
122 30
123 30
124 30
125 30
126 31
127 31
128 31
129 31
130 31
131 31
132 31
133 31
134 31
135 30
136 30
137 30
138 30
139 30
140 30
141 30
142 30
143 30
144 30
145 30
146 30
147 30
148 30
149 30
150 30
151 30
152 30
153 30
154 30
155 30
156 31
157 31
158 31
159 31
160 31
161 31
162 31
163 31
164 31
165 31
166 31
167 31
168 31
169 31
170 31
171 31
172 31
173 31
174 31
175 32
176 32
177 33
178 34
179 34
180 34
181 35
182 36
183 37
184 38
185 39
186 40
186 41
187 42
187 43
187 44
188 45
188 46
189 47
189 48
189 49
189 50
189 51
189 52
189 53
189 54
189 55
188 56
188 57
188 58
187 59
187 60
187 61
186 62
186 63
185 64
184 65
183 66
182 67
181 68
180 69
179 70
178 71
177 72
176 71
175 71
175 72
174 73
173 72
173 73
172 74
171 75
170 74
170 75
169 76
168 75
167 75
166 75
165 75
165 76
164 77
163 76
162 76
161 76
160 76
159 76
158 76
157 76
157 77
156 78
155 77
154 77
153 77
152 77
151 77
150 77
149 77
148 77
147 77
146 77
145 77
144 77
143 77
142 77
141 77
140 77
139 77
138 77
137 77
136 77
135 77
134 77
133 77
132 77
131 77
130 77
129 77
128 77
127 77
126 77
125 77
124 77
123 77
122 77
121 77
120 77
119 77
118 77
117 77
117 78
116 79
115 78
114 78
113 78
113 79
112 80
111 79
110 79
109 79
108 79
108 80
107 81
106 80
105 80
104 80
103 80
102 80
101 80
100 80
100 81
99 82
98 81
97 81
96 81
95 81
94 81
93 80
93 81
92 82
91 81
90 81
89 81
88 81
87 81
86 81
85 81
84 81
83 81
82 81
81 81
80 81
79 81
78 81
77 81
76 81
75 81
74 81
73 81
72 81
71 81
70 81
69 81
68 81
67 81
66 81
65 81
64 81
63 81
63 82
62 83
61 82
60 82
59 82
59 83
58 84
57 83
57 84
56 85
56 86
56 87
57 88
58 88
59 88
60 88
61 88
62 88
63 89
64 89
65 89
66 89
67 89
68 89
69 89
70 89
71 90
72 90
73 90
74 90
75 90
76 90
77 91
78 91
79 91
80 91
81 91
82 91
83 91
84 91
85 91
86 91
87 91
88 91
89 91
90 91
91 91
92 91
93 91
94 91
95 92
96 92
97 92
98 92
99 92
100 92
101 92
102 92
103 92
104 92
105 92
106 92
107 92
108 92
109 92
110 92
111 92
112 92
113 92
114 92
115 92
116 92
117 92
118 92
119 92
120 92
121 92
122 92
123 93
124 93
125 93
126 93
127 94
128 94
129 94
130 94
131 94
132 94
133 94
134 94
135 94
136 94
137 93
138 93
139 93
140 93
141 93
142 93
143 93
144 93
145 93
146 94
147 94
148 94
149 94
150 94
151 94
152 94
153 94
154 94
155 94
156 94
157 94
158 94
159 94
160 93
161 93
162 93
163 93
164 93
165 93
166 93
167 93
168 93
169 93
170 93
171 93
172 93
173 93
174 93
175 93
176 93
177 92
178 92
179 92
180 92
181 91
182 91
183 91
184 90
185 89
186 88
187 88
188 87
189 86
190 85
191 85
192 84
193 84
194 83
195 82
196 82
197 81
197 80
198 79
199 79
200 78
201 77
202 76
202 75
203 74
204 73
204 72
204 71
204 70
205 69
205 68
205 67
206 66
207 65
207 64
207 63
207 62
207 61
207 60
208 59
208 58
208 57
208 56
209 55
209 54
208 53
208 52
208 51
208 50
208 49
208 48
208 47
208 46
208 45
208 44
207 43
207 42
207 41
207 40
206 39
206 38
206 37
205 36
205 35
204 34
204 33
203 32
203 31
203 30
202 29
201 28
200 27
199 26
198 25
197 24
196 23
196 22
195 21
194 21
193 20
192 19
191 19
190 18
189 17
188 16
187 16
186 15
185 15
184 14
183 14
182 13
181 13
180 12
179 11
178 11
177 10
176 10
175 10
174 10
173 9
172 9
171 9
170 8
169 8
168 8
167 8
166 8
165 7
164 7
163 7
162 7
161 7
160 7
159 7
158 7
157 6
156 6
155 6
154 6
153 6
152 6
151 6
150 6
149 6
148 6
147 6
146 6
145 6
144 5
143 5
142 5
141 5
140 5
139 5
138 5
137 5
136 5
135 5
134 5
133 5
132 5
131 5
130 5
129 5
128 5
127 5
126 6
125 5
124 5
123 5
122 5
121 5
120 5
119 5
118 5
117 4
116 4
115 4
114 4
113 4
112 4
111 4
110 4
109 4
108 4
107 4
106 4
105 4
104 4
103 4
102 4
101 4
100 4
99 4
98 4
97 4
96 4
95 4
94 4
93 4
92 4
91 4
90 4
89 4
