114 2
113 3
112 3
111 3
110 3
109 3
108 3
107 4
106 4
105 4
104 4
103 5
102 5
101 5
100 5
99 6
98 6
97 6
96 6
95 6
94 6
93 7
92 7
91 7
90 8
89 8
88 8
87 8
86 9
85 9
84 10
83 10
82 10
81 11
80 11
79 12
78 12
77 12
76 13
75 13
74 13
73 14
72 15
71 15
70 16
69 16
68 16
67 16
67 17
66 18
65 19
64 19
63 19
62 20
61 20
60 21
59 21
58 22
57 23
56 24
55 24
54 25
53 26
52 26
51 26
50 27
49 27
48 27
47 27
46 27
45 28
44 28
43 28
42 27
41 27
40 27
39 26
38 26
37 26
36 25
37 24
36 24
35 23
34 23
33 23
32 23
31 23
30 23
29 22
28 22
27 21
26 20
25 20
24 20
23 19
22 19
21 18
20 17
19 17
18 17
17 16
16 15
15 14
14 14
13 14
12 13
11 12
10 11
9 11
8 11
7 11
6 11
5 11
4 10
3 10
2 10
2 11
2 12
2 13
2 14
2 15
2 16
2 17
3 17
4 17
5 17
6 17
7 18
8 19
8 20
9 20
10 21
10 22
9 23
9 24
9 25
9 26
10 27
10 28
10 29
10 30
10 31
10 32
10 33
9 34
9 35
9 36
9 37
9 38
9 39
9 40
9 41
9 42
9 43
10 44
10 45
10 46
10 47
10 48
10 49
10 50
10 51
10 52
10 53
10 54
10 55
10 56
10 57
10 58
11 59
11 60
11 61
11 62
11 63
10 64
9 65
8 66
8 67
7 68
6 68
6 69
6 70
6 71
6 72
7 72
8 72
9 72
10 72
11 72
12 72
13 71
14 70
15 69
16 69
17 69
18 68
19 68
20 67
21 67
22 66
23 66
24 66
25 65
26 64
27 64
28 63
29 63
30 62
31 62
32 61
33 61
34 61
35 60
36 60
37 59
38 59
39 59
40 58
41 58
42 58
43 58
44 58
45 58
46 57
47 57
48 57
49 57
50 57
51 58
51 59
52 59
53 60
54 60
55 60
56 60
57 60
58 61
59 62
60 62
61 62
62 63
63 63
64 64
65 65
66 65
67 65
68 66
69 66
70 67
71 68
72 68
73 69
74 70
75 70
76 70
77 71
78 71
79 72
80 72
81 73
82 73
83 74
84 74
85 74
86 74
87 75
88 75
89 76
89 77
90 77
91 77
92 77
93 77
94 76
95 76
96 76
97 76
98 76
99 76
100 77
101 77
102 77
103 77
104 77
105 76
106 76
107 76
108 75
109 74
110 74
111 73
112 72
113 71
114 71
115 71
116 70
117 70
118 70
119 71
120 71
121 71
122 71
123 71
124 71
125 71
126 71
127 70
128 70
129 70
130 70
131 70
132 70
133 70
134 70
135 70
136 71
135 72
134 72
133 73
133 74
133 75
134 75
135 75
136 76
136 77
135 78
134 78
134 79
134 80
134 81
134 82
134 83
135 83
136 83
137 84
137 85
138 86
139 87
139 88
140 88
141 88
142 89
142 90
142 91
143 92
143 93
144 93
145 93
146 93
147 92
148 91
148 90
149 89
149 88
149 87
150 86
150 85
149 84
149 83
149 82
150 81
150 80
149 80
148 79
149 78
149 77
149 76
149 75
149 74
149 73
149 72
149 71
150 70
151 70
152 70
153 70
154 70
155 70
156 69
157 69
158 69
159 69
160 69
161 69
162 69
163 69
164 69
165 68
166 68
167 68
168 67
169 67
170 67
171 66
172 65
173 65
174 65
175 64
176 64
177 63
178 63
179 62
180 62
181 61
182 61
183 61
184 60
185 59
186 59
187 58
188 57
189 56
190 56
191 55
192 54
193 54
194 53
195 53
196 52
197 52
198 51
199 51
200 50
201 49
201 48
202 47
202 46
201 45
202 44
203 43
203 42
204 41
204 40
204 39
203 39
202 38
201 37
200 36
199 36
198 36
197 35
196 34
195 33
194 33
193 32
192 32
191 32
190 31
189 31
188 30
187 30
186 29
185 29
184 28
183 27
182 27
181 26
180 26
179 25
178 25
177 25
176 24
175 23
174 23
173 22
172 22
171 22
170 21
169 20
168 19
167 19
166 19
165 20
164 20
163 20
162 20
161 19
160 18
159 18
158 18
157 19
156 19
155 18
156 17
156 16
155 16
154 15
153 14
154 13
153 13
152 12
153 11
152 11
151 10
150 9
149 9
148 8
147 8
146 7
145 7
144 6
143 5
142 5
141 4
140 4
139 4
138 4
137 3
136 3
135 3
134 3
133 2
132 2
131 2
130 2
129 2
128 2
127 2
126 2
125 2
124 2
123 2
122 2
121 2
120 2
119 2
118 2
117 2
116 2
115 2
