57 1
57 2
56 3
55 4
55 5
54 6
54 7
54 8
54 9
53 10
52 10
51 10
50 10
49 9
48 9
47 9
47 10
46 11
45 10
44 10
43 10
42 10
42 11
41 12
40 13
39 14
38 15
37 14
37 15
36 16
35 17
34 18
34 19
34 20
33 21
33 22
33 23
32 24
31 25
31 26
31 27
30 28
29 29
28 28
28 29
27 30
26 29
25 29
24 29
23 29
22 29
21 29
20 29
19 28
18 28
17 27
16 27
15 26
14 26
13 25
12 25
11 25
10 25
9 25
8 25
8 26
7 27
6 28
5 29
4 30
4 31
3 32
2 33
2 34
2 35
2 36
2 37
2 38
2 39
2 40
2 41
3 42
3 43
4 44
5 45
6 46
7 47
8 47
9 47
10 47
11 46
12 45
13 45
14 45
15 44
16 44
17 43
18 42
19 41
20 41
21 41
22 40
23 40
24 39
25 39
26 39
27 39
28 40
29 40
30 40
31 41
31 42
31 43
31 44
31 45
31 46
31 47
31 48
31 49
31 50
31 51
31 52
32 53
33 53
34 53
35 53
36 54
36 55
36 56
37 57
38 58
39 58
40 58
41 58
42 58
43 58
44 58
45 59
45 60
45 61
45 62
46 63
46 64
46 65
47 66
48 66
49 66
50 67
51 67
52 68
53 68
54 68
55 69
56 70
57 70
58 70
59 70
60 71
61 72
62 72
63 72
64 72
65 72
66 72
67 71
68 70
69 70
69 69
70 68
71 68
72 68
73 68
74 67
75 67
76 67
77 66
78 65
78 64
78 63
79 62
80 62
81 62
81 61
82 60
82 59
83 58
84 57
85 57
86 56
87 55
88 55
89 54
90 54
91 53
92 53
93 53
94 52
94 51
95 50
96 50
97 50
98 49
99 48
100 48
101 47
102 46
103 45
104 44
105 43
106 42
107 41
108 41
109 41
110 41
111 40
112 39
113 39
114 39
115 39
116 38
117 37
118 37
119 37
119 36
119 35
119 34
119 33
118 32
117 32
116 31
115 31
114 31
113 30
112 30
111 29
110 28
109 28
108 27
107 26
107 25
106 25
105 24
104 23
103 22
103 21
103 20
102 20
101 19
100 18
99 17
98 16
97 15
96 15
95 14
94 14
93 13
92 13
91 12
90 12
89 12
88 12
87 11
86 11
85 10
84 10
83 10
82 9
81 8
80 7
79 7
78 6
77 6
76 5
75 4
74 4
73 3
72 3
71 2
70 2
69 2
68 2
67 2
66 2
65 2
64 2
63 2
62 1
61 1
60 1
59 1
58 1
