172 2
171 3
170 3
169 3
168 3
167 3
166 3
165 3
164 3
163 3
162 4
161 4
160 4
159 4
158 4
157 4
156 5
155 5
154 5
153 5
152 5
151 5
150 5
149 5
148 5
147 6
146 7
145 7
144 7
143 7
142 7
141 7
141 8
140 9
139 9
138 9
137 10
136 10
135 10
134 10
133 11
132 11
131 11
130 12
129 12
128 12
127 13
126 14
125 13
124 13
123 13
123 14
122 15
121 15
120 16
119 16
118 16
117 16
116 17
115 17
114 17
113 17
112 17
111 18
110 18
109 18
108 18
107 18
106 18
105 19
104 18
103 18
102 18
101 19
100 19
99 19
98 19
97 19
96 19
95 19
94 19
93 19
92 19
91 19
90 20
89 20
88 20
87 20
86 20
85 21
84 21
83 21
82 22
81 22
80 23
79 23
78 24
77 25
76 26
75 27
75 28
74 29
74 30
73 31
72 31
71 32
70 33
69 33
68 33
67 34
67 35
67 36
66 37
65 37
65 38
64 39
63 39
62 39
62 40
61 41
60 41
59 41
58 42
57 43
56 44
55 45
54 45
53 46
52 47
51 48
50 49
49 50
48 51
47 52
46 52
45 52
45 53
45 54
44 55
43 56
42 57
42 58
41 59
40 60
40 61
39 62
38 63
38 64
37 65
37 66
36 67
36 68
36 69
36 70
35 71
35 72
34 73
34 74
33 75
33 76
33 77
33 78
32 79
32 80
31 81
31 82
31 83
30 84
30 85
30 86
30 87
30 88
29 89
29 90
29 91
29 92
29 93
29 94
29 95
29 96
29 97
29 98
29 99
29 100
29 101
28 102
27 102
26 102
25 102
24 103
23 103
22 103
21 103
20 103
19 104
18 104
17 104
16 105
15 105
14 106
13 106
12 107
11 107
10 107
10 108
9 109
8 109
7 110
6 111
5 112
4 113
3 113
3 114
3 115
2 116
2 117
2 118
2 119
2 120
3 121
4 121
5 121
6 121
7 121
8 121
9 121
10 121
11 121
12 121
13 121
14 121
15 121
16 122
17 122
18 122
19 122
20 122
21 122
22 122
23 122
24 122
25 122
26 122
27 122
28 122
29 121
30 121
31 120
32 120
33 119
34 118
35 118
36 119
37 120
38 120
39 121
40 121
41 121
42 122
43 123
44 123
45 123
46 123
47 123
48 123
49 123
50 123
51 124
52 124
53 124
54 125
55 126
56 126
57 126
58 127
59 127
60 127
61 127
62 127
63 128
64 128
65 128
66 127
67 126
67 125
68 124
68 123
68 122
68 121
68 120
67 120
66 119
67 118
66 118
65 117
64 116
63 115
64 114
63 114
62 113
61 113
60 112
59 111
58 111
57 110
56 109
55 109
54 108
53 107
52 106
51 105
50 104
49 104
48 104
47 103
46 103
45 102
46 101
46 100
46 99
47 98
48 97
49 96
50 95
51 94
52 93
53 92
54 91
55 90
56 90
57 90
58 90
59 90
60 90
61 90
62 90
63 90
64 90
65 90
66 89
67 89
68 89
69 89
70 89
71 89
72 89
73 89
74 88
75 88
76 88
77 88
78 89
79 89
80 89
81 88
82 89
83 89
84 90
85 90
86 90
87 91
88 92
89 92
90 93
91 94
92 94
93 94
94 94
95 94
96 95
97 96
98 97
99 97
100 97
101 97
102 97
103 97
104 97
105 97
106 97
107 98
108 99
109 100
110 100
111 101
112 101
113 102
114 102
115 102
116 102
117 102
118 103
119 103
120 104
121 105
122 105
123 105
124 106
125 106
126 106
127 106
128 106
129 106
130 105
131 105
132 105
133 104
134 105
135 105
136 105
137 104
138 103
139 103
140 104
141 104
142 104
143 103
144 103
145 103
146 103
147 103
148 103
149 102
150 102
151 102
152 102
153 102
154 102
155 102
156 102
157 102
158 102
159 102
160 102
161 103
162 103
163 103
164 103
165 103
166 103
167 104
168 104
169 104
170 104
171 104
172 104
173 104
174 104
175 104
176 104
177 104
178 105
179 105
180 105
181 105
182 105
183 105
184 105
185 105
186 106
187 106
188 106
189 106
190 107
191 107
192 107
193 107
194 107
195 107
196 107
197 107
198 107
199 107
200 108
201 108
202 108
203 108
204 108
205 108
206 108
207 108
208 108
209 108
210 108
211 108
212 108
213 108
214 108
215 108
216 108
217 108
218 108
219 108
220 108
221 108
222 108
223 108
224 108
225 108
226 108
227 108
228 108
229 108
230 108
231 108
232 108
233 108
234 108
235 108
236 109
237 109
238 109
239 109
240 110
241 110
242 110
243 111
242 112
242 113
242 114
243 114
244 114
245 113
245 112
246 111
247 111
248 111
249 111
250 112
251 112
252 112
253 112
254 113
255 113
256 113
257 113
258 114
259 114
260 114
261 114
262 114
263 114
264 114
265 114
266 114
267 114
268 114
269 114
270 114
271 114
272 114
273 114
274 115
275 115
276 114
277 113
278 113
279 113
280 113
281 113
282 113
283 113
284 112
285 112
286 112
287 112
288 112
289 112
290 112
291 112
292 112
293 112
294 112
295 112
296 112
297 113
298 113
299 113
300 113
301 113
302 113
303 113
304 113
305 113
306 114
307 115
308 115
309 114
310 115
311 115
312 114
313 115
314 115
315 115
316 115
317 115
318 116
319 116
320 116
321 117
322 117
323 117
324 117
325 117
326 118
327 119
328 119
329 119
330 119
331 120
332 120
333 120
334 120
335 120
336 120
337 120
338 121
339 121
340 120
341 120
342 120
343 120
344 120
345 120
346 119
347 120
348 120
349 119
350 119
351 119
352 119
353 118
354 118
355 118
356 118
357 118
358 117
359 118
360 117
361 118
362 117
363 117
364 117
365 117
366 117
367 117
368 117
369 117
370 117
371 117
372 116
373 116
374 116
375 115
376 114
377 114
378 114
379 113
380 113
381 113
382 112
383 113
384 113
384 112
385 111
386 110
387 110
387 109
388 108
387 107
388 106
388 105
389 104
389 103
390 102
390 101
391 100
391 99
392 98
392 97
392 96
393 95
393 94
393 93
393 92
392 91
393 90
393 89
394 88
394 87
394 86
394 85
394 84
394 83
394 82
394 81
394 80
394 79
394 78
394 77
394 76
394 75
394 74
394 73
394 72
394 71
394 70
393 70
392 69
393 68
393 67
393 66
393 65
393 64
392 64
391 63
392 62
392 61
392 60
392 59
392 58
392 57
392 56
391 56
390 55
389 54
388 53
389 52
388 52
387 51
386 50
385 49
384 48
383 48
382 47
381 46
380 46
379 45
378 45
377 44
376 44
375 43
374 43
373 43
372 43
371 42
370 42
369 42
368 41
367 41
366 41
365 40
364 40
363 40
362 40
361 39
360 39
359 39
358 39
357 38
356 38
355 38
354 38
353 37
352 37
351 37
350 37
349 36
348 36
347 36
346 36
345 36
344 35
343 35
342 35
341 35
340 34
339 34
338 34
337 33
336 33
335 33
334 33
333 32
332 32
331 32
330 31
329 31
328 31
327 30
326 30
325 30
324 29
323 29
322 29
321 28
320 28
319 28
318 27
317 27
316 27
315 26
314 26
313 26
312 25
311 25
310 25
309 25
308 24
307 23
308 22
308 21
309 20
310 21
311 21
312 21
313 21
314 20
315 20
316 19
317 18
318 18
319 19
320 19
321 19
322 18
323 18
324 18
325 17
326 17
327 17
328 16
329 15
330 15
331 14
332 14
333 13
334 12
335 12
336 12
337 12
338 11
339 11
340 11
341 11
342 11
343 11
344 10
345 10
346 9
347 9
348 8
349 8
350 7
351 6
351 5
352 4
352 3
351 3
350 2
349 2
348 2
347 2
346 2
345 2
344 2
343 2
342 2
341 2
340 2
339 2
338 2
337 2
336 2
335 2
334 3
333 3
332 3
331 3
330 3
329 3
328 3
327 4
326 4
325 4
324 4
323 5
322 4
321 4
320 4
319 5
318 5
317 6
316 6
315 6
314 6
313 7
312 7
311 7
310 7
309 7
308 8
307 8
306 9
305 9
304 9
303 9
302 10
301 10
300 10
299 11
298 10
297 10
296 10
296 11
295 12
294 12
293 12
292 12
291 12
290 12
289 12
288 12
287 13
286 13
285 14
284 14
283 14
282 13
281 12
280 12
279 12
278 13
277 13
276 13
275 13
274 13
273 13
272 13
271 13
270 12
269 11
268 11
267 11
266 12
265 12
264 12
263 12
262 12
261 11
260 11
259 11
258 11
257 11
256 11
255 11
254 10
253 10
252 10
251 10
250 10
249 10
248 10
247 10
246 10
245 9
244 9
243 9
242 9
241 9
240 9
239 9
238 8
237 8
236 8
235 8
234 7
233 7
232 7
231 7
230 7
229 7
228 7
227 6
226 6
225 6
224 5
223 5
222 5
221 5
220 5
219 5
218 4
217 4
216 4
215 4
214 4
213 4
212 3
211 3
210 3
209 3
208 3
207 3
206 3
205 3
204 3
203 3
202 3
201 3
200 2
199 2
198 2
197 2
196 2
195 2
194 2
193 2
192 2
191 2
190 2
189 2
188 2
187 2
186 2
185 2
184 2
183 2
182 2
181 2
180 2
179 2
178 2
177 2
176 2
175 2
174 2
173 2
