128 2
127 3
126 3
125 3
124 3
123 3
122 3
121 3
120 3
119 3
118 3
117 4
116 4
115 4
114 4
113 4
112 4
111 4
110 4
109 4
108 4
107 4
106 4
105 4
104 4
103 4
102 4
101 4
100 4
99 4
98 4
97 4
96 4
95 4
94 4
93 4
92 4
91 4
90 4
89 4
88 4
88 5
87 6
86 6
85 6
84 6
83 6
82 7
81 7
80 7
79 7
78 7
77 7
76 8
75 8
74 8
73 8
72 8
71 9
70 9
69 9
68 9
67 9
66 9
66 10
65 11
64 11
63 11
62 11
61 11
60 11
59 11
58 11
57 11
56 12
55 12
54 13
53 13
52 13
51 14
50 14
49 14
48 15
47 15
46 15
45 15
45 16
44 17
43 17
43 18
43 19
42 20
41 20
40 20
39 20
38 21
38 22
37 23
36 23
35 22
34 22
33 22
32 21
31 21
30 21
29 20
28 20
27 19
26 19
25 19
24 18
23 17
22 17
21 16
20 16
19 15
18 15
17 14
16 14
15 13
14 13
13 12
12 12
11 12
10 12
9 12
9 13
8 14
8 15
8 16
7 17
6 17
6 18
6 19
6 20
5 21
5 22
4 23
4 24
4 25
4 26
4 27
3 28
3 29
3 30
3 31
3 32
3 33
3 34
3 35
3 36
3 37
3 38
3 39
2 40
2 41
2 42
2 43
2 44
2 45
2 46
2 47
2 48
2 49
2 50
2 51
2 52
3 53
3 54
3 55
3 56
3 57
3 58
4 59
5 60
6 61
7 62
8 62
9 62
10 62
11 62
12 61
13 61
14 60
15 60
16 59
17 59
18 59
19 58
20 58
21 58
22 58
23 57
24 57
25 56
26 56
27 56
28 55
29 55
30 55
31 54
32 54
33 53
34 53
35 54
35 55
35 56
35 57
35 58
36 59
36 60
37 60
38 61
38 62
39 62
40 62
41 63
42 63
43 63
44 64
44 65
45 66
46 67
46 68
47 68
48 69
49 69
50 70
51 70
52 71
53 71
54 71
55 72
56 72
57 72
58 73
59 73
60 73
61 74
61 75
61 76
61 77
62 77
63 77
64 77
65 77
66 77
67 77
68 76
69 77
69 78
69 79
70 79
71 79
72 79
73 79
74 80
75 80
76 80
77 80
78 80
79 81
80 81
81 81
82 81
83 81
84 82
85 82
86 82
87 82
88 82
89 82
90 82
91 82
92 82
93 82
94 82
95 82
96 82
97 82
98 82
99 82
100 82
101 82
102 82
103 81
104 81
105 81
106 81
107 80
108 80
109 80
110 80
111 79
112 79
113 78
114 77
115 77
116 77
117 77
118 77
119 77
120 77
121 77
122 77
123 77
124 77
125 77
126 76
127 76
128 76
129 77
128 78
128 79
127 80
127 81
127 82
127 83
126 84
126 85
126 86
126 87
126 88
126 89
126 90
126 91
127 91
128 91
129 91
130 91
131 90
132 89
133 89
134 88
135 87
136 86
137 86
138 85
139 84
140 83
141 82
142 81
143 80
144 79
145 78
146 77
147 76
148 75
148 74
149 73
150 72
151 73
151 74
151 75
152 75
153 75
154 76
155 76
156 76
157 75
158 74
159 74
160 74
161 73
162 72
163 72
164 71
165 71
166 71
167 72
167 73
168 73
169 73
170 73
171 72
172 71
173 71
174 70
175 69
176 69
177 68
178 67
179 66
179 65
180 64
179 63
180 62
181 61
182 61
183 61
184 60
185 61
185 62
186 63
187 63
188 63
189 62
190 61
191 60
192 60
193 59
194 58
195 58
196 58
197 57
198 56
199 56
200 55
200 54
201 53
201 52
202 51
203 52
204 53
204 54
205 55
206 55
207 55
208 55
209 55
210 55
211 54
211 53
212 52
212 51
212 50
212 49
211 49
210 48
209 47
210 46
210 45
210 44
210 43
211 42
212 42
213 42
214 42
215 41
215 40
216 39
216 38
215 38
214 37
213 36
212 35
211 34
210 34
209 33
208 32
207 32
206 32
205 32
204 31
203 31
202 30
201 30
200 29
199 29
198 28
197 27
196 27
195 27
194 26
193 25
192 25
191 24
190 23
189 22
188 21
187 20
186 20
185 19
184 18
183 17
182 17
181 17
180 17
179 16
178 16
177 16
176 16
175 15
174 15
173 15
172 14
171 14
170 14
169 14
168 13
167 13
166 13
165 12
164 12
163 12
162 12
161 12
160 11
159 10
158 9
157 8
156 7
155 7
154 6
153 6
152 6
151 5
150 4
149 4
148 4
147 4
146 4
145 4
144 4
143 4
142 3
141 3
140 3
139 3
138 3
137 3
136 3
135 3
134 3
133 3
132 3
131 2
130 2
129 2
