106 2
105 3
104 3
103 3
102 3
101 3
100 3
99 3
98 3
97 3
96 3
95 3
94 3
93 3
92 3
91 3
90 3
89 3
88 3
87 4
86 4
85 4
84 4
83 4
82 4
81 4
80 5
79 5
78 5
77 5
76 5
75 5
74 6
73 6
72 6
71 6
70 7
69 7
68 7
67 8
66 8
65 8
64 9
63 9
62 9
61 9
60 10
59 10
58 10
57 10
56 10
55 10
54 11
53 11
52 11
51 11
50 11
49 12
48 12
47 12
46 12
45 12
44 12
43 13
42 13
41 13
40 14
39 14
38 14
37 15
36 15
35 16
34 16
33 17
32 17
31 18
30 19
29 19
28 20
27 20
26 20
25 21
24 22
23 22
22 23
21 23
20 24
19 25
18 26
17 27
16 27
15 28
14 29
13 30
12 31
12 32
11 33
10 34
9 35
9 36
8 37
7 38
6 39
6 40
6 41
5 42
4 43
4 44
4 45
3 46
2 47
2 48
2 49
2 50
3 51
3 52
3 53
4 53
5 53
6 54
7 54
8 55
9 56
10 56
11 56
12 57
13 57
14 58
15 58
16 58
17 58
18 58
19 59
20 59
21 59
22 60
23 60
24 61
25 61
26 61
27 61
28 61
29 62
30 62
31 63
32 63
33 63
34 63
35 63
36 64
37 64
38 64
39 64
40 65
41 65
42 65
43 66
44 66
45 66
46 67
47 67
48 67
49 67
50 67
51 68
52 68
53 68
54 68
55 69
56 69
57 69
58 70
59 70
60 70
61 70
62 71
63 71
64 71
65 72
66 72
67 72
68 73
69 73
70 73
71 73
72 74
73 74
74 74
75 74
76 74
77 75
78 75
79 75
80 75
81 75
82 75
83 75
84 76
85 76
86 76
87 76
88 77
89 78
90 79
91 79
92 80
93 80
94 80
95 81
96 81
97 82
98 83
99 83
100 83
101 84
102 84
103 84
104 84
105 84
106 84
107 84
108 83
108 82
109 81
109 80
109 79
109 78
110 77
111 77
112 76
113 76
114 76
115 76
116 76
117 76
118 75
119 75
120 75
121 75
122 75
123 75
124 74
125 74
126 74
127 74
128 74
129 73
130 73
131 73
132 73
133 72
134 72
135 72
136 71
137 71
138 71
139 70
140 70
141 70
142 69
143 69
144 69
145 68
146 68
147 67
148 67
149 67
150 67
151 66
152 65
153 65
154 65
155 65
156 64
157 64
158 63
159 63
160 62
161 62
162 62
163 61
164 61
165 61
166 60
167 60
168 60
169 59
170 59
171 59
172 58
173 58
174 58
175 57
176 57
177 57
178 57
179 56
180 56
181 56
182 55
183 55
184 55
185 55
186 55
187 54
188 54
189 54
190 54
191 54
192 53
193 53
194 53
195 53
196 53
197 52
198 52
199 52
200 52
201 51
202 51
203 51
204 50
205 50
206 49
207 49
208 49
209 49
210 48
211 48
212 48
213 48
214 47
215 47
216 47
217 47
218 46
219 46
220 46
221 45
222 45
223 45
224 45
225 44
226 44
227 44
228 43
229 43
230 43
231 42
232 42
233 42
234 42
235 42
236 42
237 41
238 41
239 41
240 40
241 40
242 40
243 40
244 40
245 40
246 40
247 41
247 42
247 43
247 44
248 44
249 44
250 44
251 43
252 42
253 43
253 44
253 45
253 46
254 46
255 47
256 47
257 47
258 47
259 46
260 46
261 46
262 45
263 45
264 44
265 43
266 42
267 41
268 40
268 39
269 38
269 37
270 36
270 35
270 34
270 33
270 32
270 31
271 30
271 29
271 28
271 27
271 26
270 26
269 25
270 24
269 24
268 23
267 22
268 21
268 20
267 20
266 19
267 18
266 18
265 17
264 16
263 15
262 14
261 13
260 12
259 11
258 10
257 10
256 10
255 10
254 10
253 11
253 12
253 13
253 14
253 15
253 16
253 17
253 18
253 19
253 20
253 21
253 22
253 23
252 24
251 25
250 25
249 25
248 24
247 24
246 24
245 24
244 24
243 23
242 23
241 23
240 22
239 22
238 22
237 22
236 22
235 22
234 22
233 21
232 21
231 21
230 21
229 21
228 20
227 20
226 20
225 20
224 20
223 20
222 19
221 19
220 19
219 19
218 19
217 18
216 18
215 18
214 18
213 18
212 17
211 17
210 17
209 17
208 17
207 16
206 16
205 16
204 15
203 15
202 15
201 15
200 15
199 14
198 14
197 13
196 13
195 13
194 13
193 13
192 12
191 12
190 12
189 12
188 12
187 11
186 11
185 11
184 11
183 11
182 10
181 10
180 10
179 10
178 10
177 10
176 10
175 10
174 10
173 10
172 10
171 10
170 9
169 9
168 9
167 9
166 9
165 9
164 9
163 8
162 8
161 8
160 8
159 7
158 7
157 7
156 7
155 7
154 7
153 7
152 6
151 6
150 6
149 6
148 6
147 6
146 6
145 6
144 5
143 5
142 5
141 5
140 5
139 4
138 4
137 4
136 4
135 4
134 4
133 4
132 4
131 4
130 4
129 4
128 4
127 4
126 4
125 3
124 3
123 3
122 3
121 3
120 3
119 3
118 3
117 3
116 3
115 3
114 3
113 2
112 2
111 2
110 2
109 3
108 2
107 2
