104 2
103 3
102 3
101 3
100 3
99 3
98 3
97 4
96 4
95 4
94 4
93 4
92 5
91 5
90 5
89 6
88 6
87 6
86 7
85 7
84 7
83 7
82 8
81 8
80 9
79 9
78 9
77 10
76 11
75 11
74 12
73 13
72 14
71 14
70 15
69 16
68 16
67 16
66 17
65 18
64 18
63 19
62 19
61 20
60 20
59 21
58 21
57 22
56 22
55 22
54 23
53 23
52 24
51 24
50 25
49 25
48 25
47 25
46 25
45 25
44 25
43 25
42 25
41 25
40 25
39 24
38 24
37 23
36 23
35 23
34 22
33 22
32 21
31 21
30 20
29 19
28 19
27 18
26 18
25 17
24 16
23 16
22 15
21 14
20 14
19 14
18 13
17 13
16 12
15 11
14 11
13 10
12 10
11 9
10 9
9 8
8 8
7 8
6 8
5 8
4 8
4 9
4 10
4 11
4 12
4 13
4 14
5 15
5 16
5 17
5 18
6 19
6 20
7 21
7 22
7 23
7 24
7 25
6 26
6 27
6 28
6 29
6 30
6 31
6 32
6 33
6 34
6 35
5 36
5 37
5 38
5 39
5 40
5 41
5 42
5 43
5 44
5 45
5 46
5 47
5 48
5 49
5 50
5 51
5 52
5 53
6 53
7 54
7 55
7 56
7 57
6 58
6 59
6 60
5 61
4 62
3 63
2 63
2 64
2 65
2 66
2 67
2 68
3 68
4 68
5 68
6 68
7 68
8 67
9 66
10 66
11 65
12 65
13 64
14 64
15 63
16 63
17 62
18 62
19 61
20 61
21 60
22 60
23 59
24 59
25 58
26 58
27 57
28 57
29 56
30 56
31 56
32 56
33 56
34 56
35 55
36 55
37 55
38 54
39 54
40 53
41 53
42 53
43 52
44 52
45 52
46 52
47 53
48 53
49 53
50 54
51 55
52 55
53 56
54 57
55 57
56 58
57 58
58 59
59 59
60 60
61 60
62 61
63 61
64 62
65 63
66 63
67 63
68 64
69 64
70 65
71 65
72 65
73 66
74 66
75 67
76 67
77 68
78 68
79 68
80 68
81 69
82 69
83 69
84 70
85 70
86 70
87 70
88 70
89 71
90 71
91 71
92 71
93 71
94 71
95 71
96 71
97 71
98 71
99 71
100 71
101 71
102 71
103 71
104 71
105 71
106 71
107 71
108 71
109 70
110 69
111 69
112 69
113 69
114 69
115 69
116 69
117 69
118 69
119 69
120 69
121 69
122 69
123 69
124 69
125 69
126 69
127 69
128 69
129 70
128 71
127 71
127 72
126 73
126 74
126 75
126 76
126 77
126 78
127 79
127 80
127 81
128 82
128 83
129 83
130 84
130 85
130 86
130 87
130 88
131 88
132 88
133 87
134 86
134 85
135 84
135 83
136 82
136 81
137 80
137 79
138 78
138 77
138 76
138 75
139 74
139 73
140 72
140 71
141 70
142 69
143 68
144 67
145 66
146 66
147 66
148 66
149 67
150 67
151 67
152 67
153 67
154 66
155 66
156 66
157 66
158 65
159 64
160 63
161 63
162 63
163 63
164 62
165 62
166 62
167 61
168 60
169 60
170 60
171 60
172 60
173 60
174 59
175 59
176 58
177 57
178 57
179 56
180 55
181 55
182 55
183 54
184 54
185 54
186 53
187 52
188 52
189 51
190 50
191 49
192 48
193 48
194 48
195 47
196 47
197 47
198 47
199 46
200 46
201 46
202 45
202 44
203 43
203 42
202 42
201 41
202 40
203 39
203 38
204 37
204 36
204 35
204 34
203 34
202 33
203 32
202 32
201 31
200 30
199 30
198 30
197 29
196 28
195 28
194 27
193 26
192 26
191 25
190 24
189 23
188 23
187 22
186 22
185 21
184 21
183 20
182 20
181 19
180 19
179 18
178 18
177 17
176 16
175 16
174 16
173 15
172 15
171 14
170 14
169 14
168 13
167 13
166 12
165 12
164 12
163 11
162 11
161 11
160 10
159 10
158 10
157 10
156 10
155 10
154 10
153 9
152 9
151 9
150 9
149 9
148 9
147 8
146 8
145 8
144 8
143 7
142 7
141 7
140 6
139 6
138 6
137 5
136 5
135 5
134 4
133 4
132 4
131 4
130 4
129 4
128 3
127 3
126 3
125 3
124 3
123 3
122 2
121 2
120 2
119 2
118 2
117 2
116 2
115 2
114 2
113 2
112 2
111 2
110 2
109 2
108 2
107 2
106 2
105 2
