65 3
64 4
63 4
63 5
62 6
61 6
61 7
60 8
59 9
58 9
58 10
57 11
56 11
55 12
54 12
53 12
52 12
51 12
50 12
49 12
48 12
47 12
46 12
45 12
44 12
43 12
42 13
41 13
40 13
39 13
38 13
37 13
36 13
35 13
34 13
33 13
32 13
31 13
30 14
29 14
28 14
27 15
26 15
25 15
24 16
23 16
22 16
21 17
20 17
19 17
18 17
17 17
16 17
15 18
14 18
13 18
12 18
11 18
10 18
9 18
8 18
7 19
6 19
5 19
4 20
3 20
3 21
3 22
2 23
2 24
2 25
2 26
3 26
4 27
5 27
6 28
7 29
8 29
9 29
10 30
11 31
12 32
12 33
12 34
13 35
14 36
15 37
16 38
16 39
17 40
18 40
19 41
20 42
21 42
22 42
23 42
24 42
25 43
26 43
27 43
28 43
29 43
30 43
31 43
32 44
33 44
34 44
35 44
36 45
37 45
38 45
39 45
40 46
41 46
42 46
43 47
44 47
45 47
46 47
47 47
48 48
49 48
50 48
51 48
52 49
53 49
54 49
55 49
56 49
57 49
58 49
59 49
60 49
61 50
62 50
63 50
64 50
65 50
66 50
67 50
68 50
69 50
70 50
71 50
72 50
73 50
74 50
75 50
76 50
77 50
78 50
79 50
80 50
81 50
82 50
83 50
84 50
85 50
86 50
87 50
88 50
89 50
90 50
91 50
92 50
93 50
94 49
95 49
96 49
97 49
98 49
99 49
100 49
101 49
102 49
103 49
104 49
105 49
106 48
107 48
108 48
109 49
110 49
111 49
112 48
113 48
114 48
115 49
116 49
117 49
118 49
119 49
120 50
121 50
122 51
123 51
124 52
125 52
126 52
127 52
128 52
129 52
130 52
131 51
131 50
132 49
132 48
131 48
130 47
129 46
130 45
131 44
132 43
133 42
134 42
135 42
136 41
137 41
138 41
139 40
140 40
141 40
142 40
143 39
144 39
145 39
146 38
147 38
148 38
149 38
150 37
151 37
152 37
153 37
154 37
155 37
156 37
157 36
158 36
159 36
160 36
161 36
162 36
163 36
164 37
165 37
166 38
167 39
168 39
169 39
170 40
171 40
172 41
173 42
174 42
175 42
176 42
177 42
178 42
179 41
179 40
180 39
180 38
180 37
179 37
178 36
177 35
178 34
178 33
177 33
176 32
175 31
176 30
175 29
175 28
176 27
176 26
177 25
177 24
178 23
179 22
179 21
180 20
180 19
180 18
180 17
179 17
178 16
177 16
176 16
175 17
174 17
173 18
172 19
171 19
170 20
169 21
168 21
167 22
166 23
165 24
164 24
163 23
162 23
161 23
160 23
159 23
158 23
157 22
156 22
155 22
154 22
153 22
152 21
151 21
150 21
149 21
148 21
147 21
146 21
145 21
144 21
143 20
142 20
141 20
140 20
139 20
138 20
137 19
136 19
135 19
134 19
133 19
132 18
131 18
130 18
129 18
128 18
127 18
126 18
125 17
124 17
123 17
122 17
121 17
120 17
119 17
118 17
117 17
116 17
115 17
114 17
113 16
112 16
111 16
110 16
109 15
108 15
107 15
106 15
105 14
104 14
103 14
102 13
101 13
100 13
99 13
98 12
97 12
96 12
95 12
94 12
93 11
92 11
91 11
90 11
89 11
88 11
87 10
86 10
85 10
84 10
83 10
82 10
81 10
80 10
79 10
78 9
77 9
76 9
75 9
74 9
73 9
72 9
71 9
70 9
69 8
70 7
70 6
71 5
71 4
70 4
69 3
68 3
67 3
66 3
