218 4
218 5
217 6
216 7
216 8
216 9
216 10
216 11
217 12
217 13
217 14
217 15
216 16
216 17
216 18
216 19
216 20
215 21
214 22
213 21
212 21
211 21
210 21
209 20
208 20
207 19
206 18
205 17
204 16
203 15
203 14
202 13
201 13
200 12
200 11
199 10
198 10
197 9
196 9
195 8
194 7
193 7
192 6
191 6
190 6
189 6
189 7
188 8
187 7
186 7
186 8
185 9
184 10
183 9
182 9
181 9
180 9
179 10
178 10
177 9
176 9
176 10
175 11
174 12
173 11
172 11
171 11
170 11
170 12
169 13
168 12
168 13
167 14
166 13
165 13
164 13
163 13
162 12
161 12
160 12
160 13
159 14
158 13
157 13
157 14
156 15
155 14
154 14
153 14
152 14
151 14
151 15
150 16
149 15
148 15
147 15
146 14
145 14
145 15
144 16
143 15
142 15
141 15
141 16
140 17
139 16
138 16
137 16
136 16
135 16
134 16
133 16
132 16
131 16
131 17
130 18
129 19
128 18
127 18
126 18
125 18
124 18
123 18
122 18
121 18
120 18
119 18
118 19
117 19
116 18
115 18
115 19
114 20
113 19
112 19
112 20
111 21
110 20
109 20
108 20
107 20
106 20
105 20
104 20
103 20
103 21
102 22
101 21
101 22
100 23
99 22
98 22
97 22
96 22
95 22
95 23
94 24
93 23
92 23
91 23
90 23
89 23
88 23
87 23
86 23
85 22
84 22
83 21
82 21
81 20
80 20
79 20
79 21
78 22
77 23
76 23
75 22
74 22
74 23
73 24
72 23
72 24
71 25
70 24
70 25
69 26
68 25
68 26
67 27
66 28
66 29
66 30
66 31
66 32
66 33
66 34
66 35
66 36
66 37
67 38
67 39
67 40
66 41
65 40
64 40
63 40
62 40
61 40
60 40
60 41
59 42
58 41
57 41
56 41
55 41
54 41
53 41
52 41
51 41
50 41
49 41
48 41
47 41
46 41
45 41
44 41
43 40
42 40
41 39
40 39
39 38
38 38
37 38
36 38
35 38
34 38
33 38
32 38
31 38
30 37
29 37
28 37
27 37
26 37
25 37
24 37
23 36
22 36
21 36
20 36
19 36
18 36
17 36
16 36
15 36
14 36
13 36
12 36
11 36
10 36
9 36
8 36
7 36
6 36
5 36
4 36
3 35
3 36
2 37
2 38
2 39
2 40
2 41
2 42
2 43
3 44
3 45
4 46
4 47
4 48
4 49
4 50
4 51
4 52
4 53
4 54
4 55
3 56
3 57
3 58
2 59
2 60
2 61
2 62
2 63
2 64
3 64
4 64
5 64
6 64
7 64
8 64
9 64
10 64
11 64
12 64
13 63
14 63
15 63
16 63
17 63
18 63
19 63
20 63
21 63
22 63
23 63
24 63
25 63
26 63
27 62
28 62
29 62
30 62
31 62
32 61
33 61
34 61
35 60
36 60
37 60
38 60
39 59
40 59
41 59
42 58
43 58
44 57
45 57
46 57
47 57
48 56
49 56
50 56
51 56
52 56
53 56
54 56
55 56
56 56
57 56
58 56
59 56
60 56
61 56
62 56
63 57
63 58
62 59
62 60
61 61
61 62
61 63
62 64
63 65
64 65
65 66
66 66
67 66
68 66
69 66
70 66
71 66
72 67
73 67
74 67
75 67
76 67
77 67
78 67
79 67
80 67
81 67
82 67
83 68
84 68
85 68
86 68
87 67
88 67
89 68
90 68
91 68
92 68
93 68
94 68
95 67
96 67
97 67
98 67
99 67
100 67
101 67
102 67
103 67
104 67
105 67
106 67
107 67
108 67
109 67
110 67
111 67
112 67
113 67
114 67
115 67
116 67
117 68
118 68
119 68
120 68
121 68
122 68
123 68
124 68
125 69
126 69
127 69
128 70
129 70
130 70
131 71
132 71
133 71
134 71
135 71
136 71
137 71
138 72
139 72
140 72
141 72
142 72
143 72
144 72
145 73
146 73
147 73
148 74
149 74
150 74
151 74
152 74
153 74
154 74
155 74
156 74
157 74
158 75
159 75
160 75
161 75
162 75
163 75
164 76
165 76
166 76
167 77
168 77
169 77
170 77
171 77
172 77
173 77
174 77
175 77
176 77
177 77
178 77
179 77
180 77
181 77
182 77
183 77
184 77
185 77
186 77
187 77
188 77
189 77
190 76
191 75
192 74
193 74
194 73
195 72
196 71
197 71
198 71
199 71
200 71
201 71
202 71
203 71
204 71
205 71
206 71
207 71
208 72
209 72
210 72
211 72
212 72
213 72
214 72
215 72
216 73
217 73
218 73
219 73
220 73
221 73
222 73
223 73
224 73
225 73
226 73
227 73
228 73
229 73
230 73
231 73
232 73
233 73
234 73
235 73
236 73
237 72
238 72
239 72
240 72
241 72
242 72
243 72
244 72
245 72
246 72
247 72
248 72
249 72
250 71
251 71
252 71
253 71
254 71
255 71
256 71
257 71
258 71
259 71
260 71
261 71
262 71
263 70
264 70
265 70
266 70
267 69
268 69
269 69
270 69
271 68
272 68
273 68
274 68
275 68
276 68
277 67
278 67
279 67
280 67
281 67
282 67
283 67
284 66
285 66
286 66
287 66
288 66
289 65
290 65
291 65
292 64
293 64
294 64
295 64
296 63
297 63
298 63
299 63
300 62
301 62
302 61
303 61
304 60
305 60
306 60
307 60
308 60
309 59
310 58
311 58
312 57
313 57
314 57
315 56
316 56
317 55
318 54
319 54
320 54
321 53
322 52
323 52
324 51
324 50
324 49
324 48
324 47
324 46
324 45
324 44
324 43
324 42
324 41
324 40
324 39
324 38
323 37
322 37
321 36
320 36
319 35
318 35
317 35
316 35
315 35
314 35
313 34
312 34
311 34
310 33
309 33
308 33
307 32
306 32
305 32
304 32
303 32
302 32
301 32
300 31
299 31
298 31
297 30
296 30
295 30
294 30
293 29
292 29
291 29
290 29
289 29
288 29
287 29
286 29
285 28
284 28
283 28
282 28
281 28
280 28
279 27
278 27
277 27
276 27
275 27
274 26
273 26
272 26
271 26
270 26
269 26
268 26
267 26
266 26
265 26
264 25
263 25
262 25
261 25
260 24
259 24
258 24
257 24
256 24
255 23
254 23
253 23
252 23
251 23
250 23
249 23
248 23
247 23
246 23
245 23
244 23
243 23
242 22
241 21
240 20
239 19
238 18
237 17
236 16
235 15
235 14
234 13
233 12
232 11
231 10
230 9
230 8
229 7
228 6
227 6
226 5
225 5
224 5
223 5
222 6
221 5
220 5
219 4
