168 2
168 3
167 4
166 4
165 4
165 5
165 6
165 7
164 8
163 8
162 7
161 6
162 5
161 5
160 4
159 3
158 3
157 3
157 4
157 5
157 6
157 7
158 8
158 9
158 10
159 11
159 12
159 13
159 14
159 15
160 16
161 17
161 18
161 19
162 20
162 21
162 22
162 23
162 24
162 25
163 26
164 27
164 28
164 29
163 30
162 31
162 32
162 33
161 34
160 34
159 34
158 33
157 33
156 33
155 33
154 33
153 33
152 33
151 33
150 32
149 32
148 31
147 31
146 31
145 31
144 32
143 32
142 32
141 32
140 32
139 32
138 32
137 31
136 30
135 30
134 30
133 30
133 31
132 32
131 32
130 32
129 32
128 32
127 32
126 32
125 32
124 32
123 32
122 32
121 32
120 32
119 31
118 30
119 29
119 28
118 27
118 26
119 25
119 24
119 23
118 23
117 22
116 22
115 21
114 21
113 20
114 19
113 19
112 18
113 17
112 17
111 16
110 15
109 14
108 13
107 12
106 12
105 12
104 12
103 12
102 11
101 10
100 10
99 10
98 10
97 10
96 10
95 10
94 11
93 11
92 11
91 11
90 11
89 11
88 12
87 13
86 14
85 14
85 15
84 16
83 16
82 16
81 16
81 17
80 18
79 19
79 20
78 21
77 21
76 21
76 22
75 23
74 23
73 23
72 23
72 24
72 25
71 26
70 26
69 27
68 28
67 28
67 29
66 30
65 31
64 31
64 32
64 33
64 34
63 35
62 36
61 36
61 37
61 38
60 39
60 40
59 41
59 42
58 43
58 44
57 45
57 46
57 47
57 48
57 49
57 50
57 51
57 52
57 53
57 54
57 55
57 56
56 57
55 58
54 58
53 57
52 56
51 55
50 54
49 53
48 52
47 51
46 51
45 50
44 49
43 48
42 48
41 48
40 47
39 47
38 47
37 47
36 47
35 47
34 47
33 47
32 46
31 46
30 46
29 47
28 47
27 48
26 48
25 47
24 47
23 47
22 47
21 47
20 47
19 47
18 48
17 49
16 49
15 49
14 49
13 49
12 49
11 49
11 50
11 51
11 52
12 53
12 54
12 55
12 56
11 57
11 58
10 59
10 60
10 61
9 62
8 63
8 64
7 65
7 66
7 67
7 68
6 69
6 70
5 71
4 71
3 71
2 71
2 72
2 73
2 74
3 75
3 76
4 77
4 78
4 79
4 80
4 81
4 82
4 83
4 84
3 85
2 85
2 86
2 87
2 88
2 89
3 90
4 90
5 91
6 92
6 93
6 94
7 95
7 96
7 97
7 98
7 99
8 100
9 101
10 102
11 103
12 104
13 105
14 106
15 106
16 107
17 107
18 107
19 107
20 107
21 107
22 107
23 107
24 107
25 107
26 106
27 106
28 106
29 106
30 106
31 106
32 106
33 106
34 106
35 105
35 104
36 103
37 103
38 102
39 103
40 104
41 104
42 104
43 104
44 104
45 103
46 102
47 102
48 102
49 103
49 104
48 105
47 106
47 107
47 108
47 109
47 110
47 111
47 112
47 113
48 114
48 115
48 116
49 117
50 117
51 118
50 119
50 120
50 121
51 122
52 123
52 124
53 125
54 125
55 126
56 127
57 128
57 129
58 130
59 131
60 131
61 132
62 133
62 134
63 135
64 136
65 136
66 137
66 138
67 139
68 140
69 140
70 141
71 141
72 142
73 143
74 143
75 143
76 143
77 143
78 143
79 144
80 144
81 144
82 144
83 144
84 144
85 144
86 144
87 144
88 144
89 143
90 142
91 142
92 142
93 142
94 142
95 142
96 142
97 141
97 140
98 139
99 138
100 138
101 137
102 136
103 137
104 138
104 139
105 140
106 140
107 139
108 139
109 139
110 139
111 140
112 140
113 140
114 139
114 138
115 137
116 137
117 137
118 138
119 139
120 139
121 140
122 141
123 142
124 143
125 144
125 145
126 146
127 147
128 148
128 149
127 150
127 151
127 152
128 153
129 153
130 153
131 153
132 154
133 154
134 154
135 153
136 153
137 153
138 153
139 152
140 152
141 152
142 152
143 152
144 152
145 152
146 152
147 152
148 151
148 150
149 149
150 149
151 148
152 148
153 147
154 147
155 147
156 146
157 146
158 145
159 145
160 144
161 143
162 143
163 142
164 141
165 141
166 140
167 140
168 139
169 139
170 138
171 138
172 137
173 136
174 136
175 135
176 134
177 134
178 133
179 133
180 133
181 133
182 132
182 131
183 130
183 129
184 128
185 128
186 127
187 126
188 126
189 125
190 124
191 124
192 123
193 122
194 122
195 122
196 121
197 120
198 120
199 119
200 118
201 118
202 117
203 116
204 116
205 115
206 114
207 113
208 113
209 112
210 111
211 110
212 109
213 108
214 107
215 106
216 105
217 105
218 104
218 103
219 102
220 102
221 101
222 100
223 99
224 98
225 97
226 97
227 96
227 95
228 94
228 93
229 92
229 91
230 90
231 90
232 89
233 88
233 87
234 86
234 85
234 84
234 83
234 82
234 81
234 80
234 79
234 78
233 78
232 77
231 76
230 76
229 75
230 74
229 74
228 73
229 72
228 72
227 71
228 70
227 70
226 69
225 68
224 67
223 66
224 65
224 64
223 64
222 63
221 63
220 63
219 63
218 63
217 63
216 62
215 61
214 61
213 60
212 59
211 58
210 58
209 57
208 56
207 55
206 54
205 53
204 52
203 51
202 51
201 50
200 49
199 48
198 47
197 46
196 45
195 44
194 43
193 43
192 42
191 41
190 40
189 40
188 39
187 39
186 38
185 38
184 37
183 36
184 35
184 34
184 33
184 32
183 32
182 31
183 30
183 29
183 28
182 28
181 27
182 26
182 25
182 24
181 24
180 23
179 22
180 21
179 21
178 20
179 19
179 18
178 18
177 17
178 16
177 16
176 15
175 14
176 13
176 12
176 11
175 11
174 10
175 9
174 9
173 8
174 7
174 6
173 6
172 5
173 4
172 4
171 3
170 2
169 2
