118 4
118 5
117 6
117 7
118 8
118 9
119 10
119 11
120 11
121 12
122 13
122 14
122 15
123 15
124 16
125 17
125 18
125 19
126 20
127 21
128 22
128 23
129 23
130 24
130 25
131 26
131 27
132 27
133 28
134 29
134 30
134 31
134 32
135 33
136 34
136 35
135 36
135 37
134 38
133 39
132 38
131 38
131 39
130 40
129 39
128 39
127 39
126 39
125 39
124 39
123 39
122 39
121 39
120 39
119 38
118 38
117 38
116 38
115 38
114 38
113 38
113 39
112 40
111 39
110 39
109 39
108 39
107 39
106 39
105 39
104 39
103 39
102 39
101 38
100 37
99 36
99 35
99 34
98 33
98 32
97 31
97 30
96 29
95 29
94 28
93 28
92 28
91 28
90 28
89 28
88 28
87 27
86 27
85 27
84 27
83 27
82 27
82 28
81 29
80 30
79 31
78 30
78 31
77 32
76 31
75 31
74 31
73 31
73 32
72 33
71 34
70 35
69 36
68 35
68 36
67 37
67 38
66 39
65 40
64 39
63 39
63 40
62 41
61 42
61 43
60 44
59 45
58 46
57 47
56 48
55 49
55 50
55 51
54 52
53 53
52 54
51 53
51 54
50 55
50 56
49 57
49 58
49 59
49 60
49 61
49 62
48 63
47 64
47 65
47 66
47 67
47 68
48 69
48 70
47 71
46 71
45 70
44 69
43 68
42 68
41 67
40 66
39 66
38 65
37 64
36 64
35 63
34 63
33 62
32 62
31 61
30 61
29 60
28 60
27 59
26 59
25 58
24 58
23 58
22 58
21 58
20 58
19 58
18 58
17 58
16 58
15 58
14 58
13 58
13 59
12 60
11 61
10 62
10 63
9 64
8 65
7 66
7 67
7 68
6 69
6 70
6 71
5 72
4 73
4 74
3 75
3 76
3 77
3 78
3 79
2 80
2 81
2 82
2 83
2 84
2 85
2 86
2 87
2 88
2 89
2 90
2 91
2 92
3 93
2 94
2 95
2 96
3 97
3 98
2 99
2 100
2 101
2 102
2 103
3 104
3 105
3 106
3 107
3 108
4 109
4 110
4 111
4 112
4 113
5 114
5 115
6 116
6 117
7 118
7 119
8 120
9 120
10 121
10 122
11 122
12 122
13 122
14 122
15 121
16 121
17 121
18 121
19 121
20 121
21 121
22 121
23 121
24 121
25 120
26 120
27 120
28 120
29 119
30 119
31 118
32 118
33 117
34 117
35 117
36 116
37 115
38 115
39 114
40 113
41 113
42 112
43 112
44 111
45 112
45 113
45 114
45 115
45 116
44 117
44 118
43 119
42 120
42 121
42 122
43 122
44 123
45 124
45 125
46 125
47 125
48 125
49 126
50 126
51 126
52 127
52 128
53 129
54 129
55 130
56 131
57 132
58 132
59 132
60 132
61 133
61 134
62 134
63 135
64 136
65 137
65 138
65 139
66 140
67 140
68 140
69 140
70 140
71 140
72 140
73 141
74 141
75 141
76 141
77 141
78 141
79 141
80 141
81 141
82 140
83 140
84 140
85 139
86 139
87 138
87 137
88 136
89 135
90 134
90 133
91 132
92 133
93 133
94 134
94 135
94 136
95 136
96 136
97 136
98 135
99 135
100 136
101 137
101 138
100 139
99 140
99 141
99 142
100 142
101 142
102 142
103 142
104 142
105 142
106 142
107 142
108 141
109 142
109 143
109 144
110 144
111 144
112 144
113 143
114 143
115 143
116 142
117 142
118 141
119 141
120 141
121 141
122 141
123 141
124 140
125 140
126 140
127 140
128 139
129 138
130 138
131 138
132 138
133 138
134 137
135 137
136 137
137 136
138 136
139 136
139 135
139 134
139 133
140 132
141 132
142 131
143 131
144 130
145 130
146 129
147 129
148 129
149 129
150 129
151 129
152 129
153 129
154 128
154 127
154 126
155 125
156 125
157 124
158 123
159 123
160 122
161 122
162 121
163 120
164 120
165 119
166 118
167 117
168 117
169 116
170 116
171 115
172 114
173 113
174 112
175 112
176 111
177 110
178 110
179 109
180 108
181 108
182 107
183 106
184 105
185 104
186 103
187 102
188 102
188 101
188 100
189 99
190 98
190 97
191 96
192 96
193 95
193 94
193 93
194 92
194 91
195 90
196 89
197 89
197 88
197 87
197 86
197 85
197 84
197 83
197 82
196 81
196 80
196 79
195 78
194 77
194 76
193 75
193 74
192 73
191 72
190 71
189 70
188 69
187 68
186 67
185 66
184 65
183 65
182 64
182 63
181 62
180 62
179 61
178 60
177 59
176 58
175 57
174 56
173 55
173 54
172 53
171 52
170 51
169 50
168 49
167 48
166 47
166 46
165 45
164 45
163 44
162 43
161 43
160 42
159 41
159 40
158 39
158 38
157 37
157 36
156 35
156 34
155 33
154 32
154 31
153 30
153 29
152 28
151 27
150 26
150 25
149 24
148 23
147 22
147 21
146 20
145 19
144 18
144 17
143 16
143 15
142 14
142 13
141 12
140 11
139 10
139 9
138 8
137 8
136 7
136 6
135 5
134 5
133 4
132 4
131 4
131 5
130 6
130 7
131 8
131 9
132 10
133 11
134 12
134 13
134 14
135 15
136 16
137 17
137 18
138 19
139 20
140 21
140 22
140 23
141 24
141 25
142 26
141 27
140 27
139 26
138 25
138 24
137 23
136 22
135 21
135 20
134 19
133 18
132 17
131 16
130 15
130 14
129 13
128 12
127 11
127 10
126 9
125 9
124 8
124 7
123 6
122 6
121 5
120 5
119 4
