122 2
122 3
121 4
121 5
121 6
120 7
120 8
120 9
120 10
120 11
119 12
119 13
119 14
119 15
119 16
119 17
119 18
119 19
120 20
119 21
119 22
119 23
118 24
118 25
117 26
117 27
117 28
116 29
115 29
114 30
113 31
112 32
111 32
110 32
109 32
108 31
107 31
106 31
105 32
104 32
103 32
102 32
101 31
100 31
99 31
98 31
97 31
96 31
95 30
94 30
93 30
92 30
91 30
90 30
89 30
88 30
87 29
86 28
85 28
84 29
83 28
82 28
81 28
80 28
79 28
78 28
77 28
76 28
75 28
74 27
75 26
75 25
75 24
75 23
74 23
73 22
74 21
73 21
72 20
71 20
70 19
69 18
68 18
67 19
66 19
66 20
65 21
64 22
64 23
64 24
64 25
65 25
66 26
66 27
66 28
65 29
64 29
63 30
62 30
61 30
60 30
59 31
58 32
57 32
57 33
57 34
57 35
56 36
56 37
56 38
56 39
55 40
54 40
53 39
52 39
51 39
51 40
51 41
51 42
51 43
51 44
51 45
50 46
49 46
48 46
47 46
47 47
47 48
47 49
47 50
47 51
47 52
48 53
47 54
46 55
45 55
44 55
43 54
42 54
41 54
40 53
39 53
38 53
37 52
36 52
35 51
34 51
33 50
32 50
31 49
30 49
29 48
28 48
27 48
26 47
25 47
24 47
23 46
22 45
21 45
20 44
19 44
18 44
17 43
16 43
15 42
14 42
13 42
12 42
11 42
10 43
9 43
9 44
9 45
9 46
8 47
7 47
7 48
7 49
7 50
7 51
6 52
5 52
5 53
5 54
5 55
4 56
3 56
2 56
2 57
2 58
2 59
3 60
4 60
5 60
6 60
7 61
7 62
6 63
5 63
4 63
3 64
2 64
2 65
2 66
2 67
3 67
4 67
5 68
4 69
4 70
4 71
4 72
5 73
5 74
6 74
7 74
8 75
8 76
8 77
9 77
10 78
10 79
11 80
11 81
11 82
12 83
13 83
14 83
15 83
16 83
17 83
18 83
19 83
20 83
21 82
22 82
23 82
24 81
25 81
26 80
27 80
28 80
29 80
30 79
31 79
32 78
33 78
34 78
35 78
36 77
37 76
38 76
39 76
40 76
41 76
42 76
43 75
44 75
45 76
46 76
47 76
48 77
48 78
48 79
49 79
50 80
50 81
50 82
50 83
51 84
52 84
53 85
53 86
53 87
53 88
54 88
55 88
56 88
57 88
58 89
58 90
59 91
59 92
59 93
59 94
60 94
61 94
62 95
63 95
64 95
65 96
66 96
67 97
67 98
68 99
69 99
70 99
71 98
72 97
73 98
74 98
75 98
76 97
77 96
78 95
78 94
79 93
80 93
81 94
81 95
82 95
83 95
84 95
85 94
86 94
87 94
88 94
89 94
90 94
91 95
92 95
93 96
94 97
94 98
95 98
96 99
97 100
98 100
99 101
100 101
101 102
101 103
102 104
103 105
103 106
104 107
105 108
106 108
107 109
108 110
109 111
110 112
111 112
112 112
113 113
113 114
114 114
115 114
116 114
117 114
118 114
119 115
118 116
118 117
118 118
118 119
119 119
120 120
120 121
121 122
122 122
123 122
124 122
125 121
126 120
127 119
128 118
128 117
129 116
128 116
127 115
128 114
128 113
128 112
129 111
129 110
129 109
130 108
131 107
131 106
132 105
132 104
132 103
132 102
132 101
132 100
132 99
132 98
133 97
133 96
133 95
133 94
133 93
134 92
134 91
134 90
134 89
134 88
135 87
135 86
135 85
136 84
136 83
137 82
138 82
139 81
140 80
141 79
142 78
143 77
144 77
145 76
145 75
146 74
147 73
147 72
148 71
149 70
150 70
151 69
152 68
152 67
153 66
154 66
155 65
156 64
156 63
157 62
157 61
157 60
157 59
157 58
157 57
157 56
156 56
155 55
154 54
153 54
152 53
151 52
150 51
149 51
148 51
147 51
146 50
145 50
144 49
143 48
142 48
141 48
140 47
139 47
138 46
139 45
138 45
137 44
136 43
135 42
134 42
133 41
132 40
131 40
130 39
129 38
128 38
127 37
126 36
125 35
124 35
123 34
122 34
121 33
122 32
122 31
122 30
122 29
122 28
122 27
122 26
122 25
123 24
123 23
123 22
123 21
123 20
123 19
123 18
124 17
124 16
124 15
125 14
125 13
126 12
126 11
126 10
126 9
126 8
126 7
126 6
127 5
127 4
127 3
126 3
125 2
124 2
123 2
