102 2
101 3
100 4
99 5
99 6
99 7
98 8
97 9
96 9
95 10
94 11
93 12
92 12
91 13
90 14
89 14
88 14
88 15
88 16
87 17
86 18
85 18
84 18
83 18
82 18
81 18
80 18
79 19
78 19
77 19
76 19
75 19
74 19
73 19
72 19
71 19
70 19
69 19
68 19
67 19
66 20
65 20
64 20
63 20
62 20
61 20
60 20
59 20
58 20
57 20
56 20
55 20
54 21
53 21
52 21
51 21
50 20
49 20
48 20
47 19
46 19
45 19
44 19
43 19
42 19
41 18
42 17
41 17
40 16
39 15
40 14
40 13
39 13
38 12
37 12
36 12
35 12
35 13
35 14
35 15
35 16
35 17
36 18
36 19
37 20
37 21
38 22
38 23
37 24
36 24
35 25
34 25
33 26
32 26
31 27
30 27
29 27
28 28
27 28
26 28
25 29
24 29
23 30
22 30
21 30
20 31
19 31
18 32
17 33
16 33
15 34
14 35
13 35
12 35
12 36
11 37
10 37
10 38
9 39
8 39
7 39
6 39
5 39
5 40
5 41
4 42
3 43
3 44
3 45
3 46
2 47
2 48
2 49
2 50
2 51
2 52
3 53
4 54
5 55
6 56
7 57
8 57
9 58
10 59
11 60
12 61
13 62
14 62
15 62
16 63
17 63
18 64
19 64
20 65
21 65
22 65
23 66
24 67
25 67
26 67
27 68
28 69
29 69
30 70
31 70
32 71
33 71
34 72
35 73
36 73
37 73
38 74
39 75
40 75
41 76
42 76
43 76
44 77
45 78
46 78
47 79
48 79
49 79
50 80
51 80
52 80
53 81
54 81
55 82
56 82
57 83
58 83
59 83
60 84
61 84
62 84
63 85
64 85
65 85
66 85
67 86
68 86
69 86
70 87
71 87
72 87
73 87
74 87
75 87
76 87
77 87
78 88
79 88
80 87
80 86
81 85
80 85
79 84
78 83
78 82
79 81
80 81
81 80
81 79
82 78
83 78
84 78
85 78
86 77
87 77
88 76
89 75
90 75
91 74
92 73
93 72
94 72
95 73
96 74
97 75
98 75
99 76
99 77
100 77
101 78
102 79
103 80
103 81
104 82
105 83
106 84
107 84
108 85
109 85
110 86
111 86
112 86
113 87
114 87
115 87
116 87
117 86
118 85
118 84
119 83
119 82
120 81
120 80
120 79
121 78
121 77
121 76
122 75
122 74
123 73
124 72
125 71
126 70
127 69
128 68
129 67
130 66
131 65
131 64
132 63
133 62
134 62
135 61
136 60
137 59
137 58
138 57
138 56
139 55
140 55
141 54
142 54
143 54
144 54
145 54
146 53
147 53
148 53
149 53
150 53
151 53
152 53
153 54
153 55
154 56
155 56
156 57
156 58
157 58
158 59
159 60
160 61
161 62
162 63
163 63
164 64
165 65
166 65
167 66
168 67
169 67
170 67
171 68
172 68
173 68
174 68
175 67
176 66
176 65
177 64
177 63
178 62
178 61
178 60
179 59
179 58
180 57
180 56
180 55
181 54
181 53
182 52
182 51
182 50
182 49
183 48
183 47
183 46
183 45
184 44
184 43
184 42
184 41
183 41
182 40
183 39
183 38
183 37
183 36
182 36
181 35
182 34
181 34
180 33
181 32
181 31
180 31
179 30
178 29
179 28
179 27
178 27
177 26
178 25
177 25
176 24
175 24
174 24
173 25
172 25
171 26
170 26
169 27
168 27
167 28
166 28
165 28
164 29
163 30
162 30
161 31
160 31
159 32
158 32
157 33
156 34
155 35
154 35
153 35
153 36
152 37
151 37
150 37
149 38
148 38
147 38
146 38
145 39
144 38
143 38
142 38
141 38
140 37
139 37
138 37
137 37
136 37
135 36
134 35
133 34
132 33
131 33
130 32
129 31
128 30
127 29
126 28
125 28
124 27
123 27
122 26
121 26
120 25
119 25
118 24
117 23
116 23
115 22
114 22
113 21
114 20
113 20
112 19
111 18
112 17
112 16
112 15
112 14
112 13
112 12
112 11
112 10
112 9
112 8
112 7
112 6
112 5
112 4
111 4
110 3
109 2
108 2
107 2
106 2
105 2
104 2
103 2
