287 4
287 5
286 6
285 5
285 6
284 7
284 8
284 9
283 10
282 11
281 10
280 10
279 10
278 10
277 10
276 10
275 9
275 10
274 11
273 12
272 13
271 13
270 13
269 12
269 13
268 14
268 15
268 16
267 17
266 16
266 17
265 18
265 19
265 20
265 21
265 22
264 23
263 24
262 25
262 26
262 27
262 28
262 29
262 30
262 31
262 32
261 33
260 32
259 32
259 33
258 34
257 33
256 33
255 33
254 33
254 34
253 35
252 34
251 34
250 34
249 34
248 34
247 34
246 34
245 34
244 34
243 34
242 34
241 34
240 34
239 34
239 35
238 36
237 35
236 35
235 35
234 35
234 36
233 37
232 36
231 36
230 35
229 35
228 35
227 35
227 36
226 37
225 36
225 37
224 38
223 37
222 37
221 37
220 37
219 37
218 37
217 37
217 38
216 39
215 38
214 38
213 38
212 38
211 38
210 38
209 38
208 38
207 38
206 38
205 38
204 39
203 39
202 38
201 38
200 37
199 37
198 37
198 38
197 39
196 40
195 39
194 39
193 39
192 39
191 39
190 39
189 39
188 39
188 40
187 41
186 40
185 40
184 40
183 40
182 40
181 40
180 40
179 40
178 40
177 39
176 38
175 38
174 37
173 37
173 38
172 39
171 39
170 38
169 37
168 36
167 36
166 37
165 37
164 36
163 36
162 35
161 35
160 35
159 35
159 36
158 37
157 38
156 39
156 40
155 41
154 42
153 41
152 41
151 42
151 43
151 44
151 45
150 46
149 45
149 46
148 47
148 48
147 49
146 50
145 51
144 50
143 50
142 50
141 50
140 50
139 49
138 49
137 48
137 49
136 50
136 51
135 52
134 51
133 51
132 51
131 51
130 51
129 51
129 52
128 53
127 52
126 52
125 51
124 50
123 50
122 51
122 52
121 53
120 52
119 52
118 52
117 52
116 52
115 52
114 52
113 52
112 52
111 52
110 52
109 52
108 52
107 52
106 52
105 52
104 52
103 52
102 52
101 52
100 52
99 52
98 52
97 52
96 51
96 52
95 53
94 54
93 53
92 53
91 53
90 53
89 53
89 54
88 55
87 54
86 54
85 53
84 53
83 54
82 55
81 54
80 53
79 52
78 51
77 50
76 49
75 49
74 48
73 48
72 48
71 48
70 48
69 48
68 47
67 47
66 46
65 46
64 46
63 46
62 46
61 46
60 45
59 45
58 45
57 45
56 45
55 45
54 45
54 46
53 47
52 48
52 49
52 50
51 51
50 52
50 53
50 54
51 54
52 55
52 56
52 57
51 58
50 57
49 57
48 57
47 56
46 56
45 56
44 56
43 55
42 55
41 55
41 56
40 57
40 58
40 59
39 60
38 59
37 59
36 59
35 59
35 60
34 61
33 60
32 60
31 60
30 60
30 61
29 62
28 61
27 61
26 61
25 61
24 60
24 61
23 62
22 63
21 62
21 63
20 64
19 63
18 63
17 63
16 63
15 63
14 63
13 63
13 64
12 65
11 64
10 64
9 64
8 64
7 64
7 65
6 66
5 65
4 65
3 65
3 66
2 67
2 68
2 69
3 70
4 71
5 71
6 71
7 72
8 73
9 74
10 74
11 74
12 74
13 74
14 74
15 75
16 75
17 75
18 75
19 75
20 75
21 75
22 76
23 76
24 76
25 76
26 75
27 75
28 75
29 75
30 75
31 75
32 75
33 75
34 75
35 74
36 75
36 76
37 76
38 76
39 76
40 76
41 75
42 74
43 74
44 73
45 72
46 72
47 71
48 71
49 71
50 71
51 71
52 70
53 70
54 70
55 70
56 69
57 68
58 68
59 68
60 68
61 68
62 68
63 67
64 67
65 67
66 67
67 68
67 69
68 69
69 69
70 68
70 67
71 66
72 66
73 65
74 65
75 65
76 65
77 65
78 65
79 65
80 65
81 65
82 65
83 65
84 65
85 65
86 65
87 65
88 65
89 65
90 65
91 65
92 65
93 65
94 65
95 65
96 65
97 65
98 65
99 65
100 65
101 65
102 65
103 65
104 65
105 65
106 65
107 66
107 67
107 68
108 68
109 68
110 68
111 67
112 67
113 66
114 67
114 68
115 68
116 68
117 67
118 66
119 66
120 67
121 67
122 68
122 69
122 70
123 70
124 70
125 69
126 68
127 68
128 68
129 68
130 68
131 68
132 68
133 68
134 68
135 68
136 69
137 69
138 69
139 69
140 70
141 70
142 71
142 72
143 72
144 72
145 72
146 73
146 74
147 74
148 75
149 75
150 75
151 74
151 73
151 72
152 71
153 71
154 71
155 71
156 71
157 71
158 71
159 71
160 71
161 71
162 71
163 71
164 71
165 71
166 71
167 71
168 71
169 71
170 71
171 71
172 71
173 71
174 71
175 72
176 72
177 73
178 73
179 73
180 72
181 71
182 72
183 72
184 72
185 72
186 73
187 73
188 73
189 73
190 73
191 74
192 74
193 74
194 74
195 74
196 74
197 75
198 75
199 76
200 76
201 76
202 76
203 77
204 77
205 77
206 77
207 77
208 77
209 78
210 78
211 78
212 78
213 78
214 78
215 78
216 79
217 79
218 80
219 80
220 81
220 82
221 82
222 82
223 81
224 81
225 81
226 81
227 81
228 80
229 80
230 80
231 80
232 80
233 80
234 81
235 81
236 81
237 81
238 81
239 81
240 81
241 81
242 81
243 81
244 82
245 82
246 82
247 82
248 82
249 82
250 82
251 82
252 82
253 82
254 82
255 82
256 82
257 82
258 82
259 82
260 82
261 82
262 82
263 83
262 84
261 85
261 86
261 87
262 87
263 87
264 88
265 89
265 90
265 91
265 92
265 93
266 93
267 94
267 95
267 96
268 96
269 97
269 98
269 99
269 100
269 101
270 101
271 101
272 102
272 103
272 104
272 105
273 106
274 107
274 108
275 108
276 108
277 108
278 109
279 109
280 109
281 108
281 107
282 106
283 105
284 104
285 103
286 102
287 102
288 101
289 101
290 100
290 99
290 98
291 97
291 96
291 95
292 94
293 93
293 92
294 91
294 90
295 89
296 88
296 87
296 86
297 85
298 84
299 83
300 83
301 83
302 82
303 82
304 82
305 82
306 82
307 82
308 82
309 82
310 82
311 82
312 82
313 81
314 81
315 81
316 80
317 80
318 80
319 80
320 79
321 80
321 81
322 81
323 81
324 80
325 79
326 79
327 79
328 79
329 79
330 79
331 79
332 78
333 78
334 78
335 78
336 78
337 78
338 78
339 78
340 78
341 78
342 78
343 78
344 79
345 79
346 79
347 78
348 77
349 76
350 76
351 75
352 75
353 75
354 74
355 74
356 74
357 73
358 73
359 73
360 72
360 71
361 70
361 69
362 68
363 68
364 67
365 66
366 65
367 64
367 63
367 62
367 61
367 60
367 59
366 58
366 57
366 56
365 55
364 54
363 54
362 53
361 52
360 51
359 50
358 49
357 48
356 48
355 47
354 47
353 46
352 46
351 46
350 46
349 46
348 46
347 46
346 46
345 46
344 46
343 45
342 45
341 44
340 44
339 44
338 44
337 43
336 43
335 44
334 44
333 43
333 42
332 41
331 41
330 40
329 39
328 39
327 38
326 38
325 38
324 37
323 37
322 37
321 36
320 36
319 36
318 35
317 35
316 34
315 34
314 34
313 33
312 33
311 32
310 32
310 33
309 34
308 33
307 33
306 33
305 33
304 33
304 34
303 35
302 34
301 34
300 34
299 33
298 32
297 31
296 30
296 29
296 28
296 27
296 26
296 25
296 24
295 23
295 22
294 21
294 20
294 19
294 18
294 17
293 16
293 15
293 14
293 13
293 12
293 11
292 10
291 9
291 8
291 7
290 6
289 5
288 5
