81 2
81 3
80 4
79 4
78 4
77 4
77 5
77 6
77 7
76 8
75 8
74 8
73 8
72 8
71 9
70 9
69 9
69 10
68 11
68 12
68 13
68 14
69 14
70 15
71 16
72 16
73 17
73 18
72 19
71 19
70 20
69 20
68 20
67 20
66 20
65 20
64 20
63 21
62 21
61 21
60 21
59 22
58 22
58 23
57 24
56 24
55 24
54 24
53 24
52 24
51 25
50 25
49 25
48 25
47 26
46 26
45 27
44 27
43 27
42 27
41 27
40 27
39 27
38 28
37 28
36 28
35 29
34 29
33 30
32 31
31 31
30 31
30 32
29 33
28 33
27 33
26 33
25 33
24 34
23 35
22 35
21 36
20 36
19 37
18 38
17 39
16 40
15 41
15 42
14 43
14 44
13 45
12 45
11 45
10 46
10 47
9 48
8 49
7 49
6 50
5 51
5 52
4 53
3 54
3 55
2 56
2 57
2 58
2 59
2 60
2 61
2 62
2 63
3 64
4 65
4 66
5 67
6 68
7 68
8 69
9 70
9 71
10 72
11 73
11 74
11 75
11 76
11 77
12 78
13 79
14 80
14 81
15 81
16 82
17 83
17 84
18 85
19 85
20 86
20 87
21 88
22 89
23 90
24 91
25 92
26 92
27 93
27 94
28 94
29 95
30 95
31 96
32 97
33 97
34 97
35 97
36 98
37 98
38 99
39 99
40 99
41 99
42 99
43 100
44 100
45 100
46 100
47 100
48 100
49 100
50 101
51 101
52 101
53 101
54 101
55 101
56 101
57 101
58 101
59 101
60 100
61 99
62 99
63 100
64 100
65 100
66 100
67 100
68 100
69 100
70 100
71 101
71 102
72 102
73 102
74 103
75 103
76 103
77 103
78 103
79 103
80 104
81 105
81 106
81 107
82 108
82 109
83 110
83 111
84 111
85 111
86 111
87 110
88 110
89 110
90 109
91 109
92 109
93 108
94 108
95 107
96 107
97 106
98 106
99 106
100 106
101 106
102 106
103 105
104 104
105 104
106 103
107 103
108 103
109 102
110 103
110 104
110 105
110 106
111 106
112 106
113 106
114 106
115 105
116 105
117 106
118 106
119 106
120 106
121 106
122 106
123 105
124 105
125 105
126 105
127 105
128 105
129 105
130 105
131 105
132 104
133 104
134 104
135 103
136 102
137 102
138 102
139 102
140 102
141 101
142 101
143 100
144 99
145 99
146 99
147 99
148 99
149 98
150 97
151 97
152 97
153 96
154 96
155 95
156 94
157 94
158 93
159 93
160 92
161 91
162 91
163 91
164 90
165 90
166 89
167 88
168 88
169 87
170 86
171 86
172 86
173 85
174 85
175 84
176 84
177 85
178 85
179 85
180 84
181 84
182 84
183 84
184 83
185 83
186 83
187 82
188 82
189 83
189 84
189 85
189 86
190 87
190 88
190 89
191 89
192 89
193 89
194 89
195 89
196 89
197 89
198 89
199 89
200 89
201 88
202 88
203 88
204 87
205 87
206 87
207 86
208 85
209 84
209 83
210 82
210 81
210 80
209 80
208 79
209 78
208 78
207 77
206 76
205 75
206 74
207 73
208 73
209 73
210 73
211 73
212 73
213 72
214 72
215 71
216 71
217 71
218 71
219 71
220 71
221 71
222 71
223 71
224 72
224 73
225 73
226 73
227 73
228 74
229 74
230 74
231 74
232 74
233 74
234 74
235 75
236 75
237 75
238 75
239 75
240 75
241 75
242 75
243 75
244 75
245 75
246 75
247 75
248 75
249 75
250 75
251 75
252 75
253 75
254 74
255 74
256 73
257 73
258 72
258 71
259 70
259 69
259 68
259 67
259 66
259 65
259 64
259 63
259 62
258 62
257 61
258 60
258 59
258 58
258 57
258 56
259 55
259 54
259 53
259 52
259 51
259 50
259 49
259 48
259 47
259 46
259 45
258 45
257 44
258 43
258 42
258 41
258 40
258 39
257 39
256 38
255 37
254 36
253 35
252 35
251 35
250 35
249 35
248 35
247 35
246 36
245 36
244 36
243 36
242 36
241 37
240 37
239 37
238 38
237 38
236 38
235 39
234 40
233 40
232 41
231 41
230 42
229 42
228 43
227 43
226 43
225 44
224 44
223 45
222 45
221 45
220 45
219 46
218 46
217 46
216 46
215 46
214 46
213 46
212 45
211 45
210 45
209 45
208 44
207 44
206 44
205 43
204 43
203 43
202 43
201 42
200 42
199 42
198 41
197 41
196 40
195 40
194 39
193 39
192 39
191 38
190 38
189 38
188 37
189 36
189 35
190 34
190 33
190 32
190 31
191 30
191 29
191 28
190 28
189 27
190 26
190 25
190 24
190 23
190 22
190 21
190 20
190 19
190 18
190 17
190 16
190 15
190 14
190 13
190 12
189 12
188 11
187 11
186 10
185 10
184 10
183 10
182 10
181 11
180 11
179 11
178 12
177 12
176 13
175 14
174 14
173 15
172 16
171 17
170 18
170 19
169 20
168 20
168 21
167 22
167 23
167 24
166 25
165 26
164 27
163 28
162 28
161 29
160 28
159 28
158 28
157 28
156 28
155 27
154 27
153 27
152 27
151 26
150 26
149 26
148 25
147 25
146 25
145 25
144 25
143 24
142 24
141 24
140 23
139 23
138 23
137 23
136 23
135 23
134 22
133 22
132 22
131 22
130 22
129 22
128 21
127 21
126 21
125 21
124 21
123 21
122 21
121 20
120 20
119 20
118 20
117 20
116 20
115 20
114 20
113 20
112 19
111 19
110 19
109 20
108 20
107 20
106 20
105 20
104 20
103 20
102 20
101 20
100 21
99 21
98 21
97 21
96 21
95 21
94 21
93 21
92 21
91 20
92 19
93 18
94 18
95 17
96 17
97 16
98 16
99 15
100 15
101 15
102 14
103 13
103 12
104 11
103 11
102 10
101 10
100 9
99 8
98 7
97 6
98 5
97 5
96 4
95 4
94 4
93 4
92 3
91 2
90 2
89 2
88 2
87 2
86 2
85 2
84 2
83 2
82 2
