69 2
68 3
67 3
66 3
65 3
64 3
64 4
64 5
64 6
64 7
64 8
64 9
65 9
66 10
67 11
67 12
67 13
68 13
69 14
69 15
70 16
71 17
70 18
69 18
68 19
67 19
66 19
65 19
64 20
63 20
62 20
61 20
60 20
59 20
58 20
57 20
56 20
55 20
54 21
53 21
52 20
51 20
50 20
49 21
48 21
47 21
46 21
45 21
44 21
43 21
42 21
41 21
40 20
39 20
38 20
37 19
36 18
35 18
34 18
33 17
32 17
31 16
30 16
29 15
28 14
27 14
26 13
25 13
24 13
23 12
22 11
21 11
20 11
19 11
18 10
17 10
16 10
15 10
14 10
13 10
12 10
11 10
10 10
9 10
8 10
7 10
6 10
5 10
5 11
5 12
5 13
5 14
5 15
5 16
5 17
5 18
5 19
5 20
4 21
4 22
4 23
3 24
3 25
3 26
3 27
3 28
3 29
4 30
4 31
4 32
3 33
3 34
3 35
2 36
2 37
2 38
2 39
2 40
2 41
3 42
3 43
3 44
3 45
3 46
3 47
4 48
5 48
6 48
7 48
8 48
9 48
10 48
11 48
12 48
13 48
14 48
15 48
16 48
17 48
18 48
19 48
20 47
21 47
22 47
23 47
24 46
25 46
26 45
27 45
28 44
29 44
30 43
31 42
32 42
33 42
34 41
35 41
36 41
37 41
38 41
39 41
40 41
41 40
42 40
43 39
44 39
45 39
46 39
47 39
48 39
49 40
50 40
51 40
52 40
53 41
54 41
55 41
56 41
57 42
58 42
59 42
60 42
61 42
62 43
63 43
64 43
65 43
66 44
67 44
68 44
69 45
68 46
68 47
68 48
68 49
68 50
69 51
69 52
69 53
69 54
68 55
68 56
68 57
68 58
69 58
70 58
71 58
72 58
73 58
74 58
75 58
76 57
77 56
78 55
79 55
80 55
81 54
82 53
83 52
84 52
85 51
86 50
87 50
88 49
89 48
90 47
91 47
92 48
93 48
94 48
95 49
96 50
97 50
98 51
99 51
100 52
101 52
102 53
103 54
104 54
105 55
106 55
107 56
108 56
109 56
110 57
111 57
112 57
113 57
114 58
115 58
116 58
117 59
118 59
119 59
120 59
121 60
122 60
123 61
124 61
125 61
126 61
127 61
128 62
129 62
130 62
131 62
132 62
133 62
134 62
135 62
136 62
137 62
138 62
139 62
140 62
141 62
142 62
143 62
144 62
145 62
146 62
147 62
148 62
149 62
150 62
151 61
152 61
153 61
154 61
155 60
156 60
157 60
158 59
159 59
160 59
161 58
162 58
163 58
164 57
165 57
166 57
167 57
168 56
169 55
170 55
171 54
172 54
173 53
174 53
175 53
176 52
177 51
178 51
179 50
180 49
181 48
182 47
183 47
184 47
185 46
186 46
187 46
188 46
189 46
190 46
191 45
192 44
193 43
194 42
195 41
196 40
197 39
197 38
198 37
199 36
200 35
200 34
201 33
201 32
201 31
200 31
199 30
200 29
200 28
199 28
198 27
197 26
198 25
197 25
196 24
195 23
194 22
193 21
192 21
191 20
192 19
191 19
190 18
189 17
188 17
187 16
186 16
185 15
184 15
183 14
182 14
181 14
180 13
179 13
178 12
177 12
176 12
175 11
174 11
173 11
172 10
171 10
170 10
169 9
168 9
167 9
166 8
165 8
164 8
163 7
162 7
161 7
160 6
159 6
158 6
157 5
156 5
155 5
154 5
153 4
152 4
151 4
150 4
149 4
148 4
147 4
146 3
145 3
144 3
143 3
142 3
141 3
140 3
139 3
138 3
137 3
136 3
135 3
134 3
133 3
132 3
131 3
130 3
129 3
128 3
127 3
126 3
125 3
124 3
123 4
122 4
121 4
120 4
119 4
118 4
117 5
116 5
115 5
114 5
113 5
112 6
111 6
110 6
109 6
108 6
107 6
106 7
105 7
104 7
103 8
102 8
101 8
100 8
99 9
98 9
97 9
96 10
95 10
94 10
93 10
92 11
91 11
90 11
89 10
88 9
87 9
86 9
85 8
84 8
83 7
82 6
81 6
80 6
79 5
78 5
77 4
76 4
75 3
74 3
73 3
72 3
71 2
70 2
