254 0
253 1
252 2
251 3
251 4
251 5
250 6
250 7
250 8
249 9
249 10
248 11
247 12
247 13
247 14
246 15
245 16
244 17
243 18
242 17
241 17
241 18
240 19
239 20
239 21
239 22
239 23
239 24
240 24
241 25
242 26
243 27
244 28
245 29
245 30
244 31
243 31
242 31
241 31
240 31
239 31
238 31
237 31
236 31
235 31
234 31
233 31
232 31
231 31
230 31
229 31
228 31
227 31
226 31
225 31
225 32
224 33
223 32
222 32
221 32
220 32
219 32
218 32
217 32
216 32
216 33
215 34
214 33
213 33
212 33
211 33
210 33
209 33
209 34
208 35
207 34
206 34
205 34
204 34
203 34
202 34
201 34
200 34
199 34
199 35
198 36
197 35
196 35
196 36
195 37
194 36
193 36
192 36
191 36
190 36
189 36
188 36
187 36
187 37
186 38
185 37
184 37
183 36
182 35
181 35
180 34
180 35
179 36
178 35
177 35
176 35
175 35
174 35
173 34
172 34
171 33
170 32
169 32
168 31
167 31
166 30
165 30
164 30
163 30
162 30
162 31
161 32
160 31
159 31
158 31
158 32
157 33
156 32
155 32
154 32
153 32
152 32
152 33
151 34
151 35
150 36
149 37
148 38
147 37
146 37
145 37
144 37
143 37
142 37
141 37
141 38
140 39
139 40
138 39
137 39
136 39
135 39
134 39
133 39
132 39
131 39
130 39
129 39
128 39
127 39
126 39
125 39
124 39
124 40
123 41
122 40
121 40
120 40
119 40
118 40
117 40
116 40
115 40
114 40
113 40
112 40
111 40
110 40
109 40
109 41
108 42
107 41
106 41
105 41
104 41
103 41
102 41
101 41
100 41
99 41
98 41
97 41
96 40
96 41
95 42
94 43
93 42
92 42
91 42
90 42
89 42
88 42
87 42
86 42
85 42
85 43
84 44
83 43
82 43
81 43
80 43
79 43
78 43
78 44
77 45
76 44
75 44
74 44
74 45
73 46
72 45
71 45
70 45
69 45
68 45
67 44
66 43
65 43
64 42
64 43
63 44
63 45
62 46
61 45
60 45
59 45
59 46
58 47
57 46
56 46
55 46
54 45
53 44
54 43
55 43
56 42
55 41
56 40
55 39
54 39
53 38
52 37
51 37
50 36
49 36
48 36
47 36
46 36
45 36
44 36
43 36
42 36
41 36
40 36
39 36
38 36
38 37
37 38
37 39
37 40
37 41
37 42
37 43
37 44
38 44
39 45
40 46
40 47
41 47
42 48
42 49
41 50
40 51
39 52
38 51
38 52
37 53
36 54
35 55
34 54
34 55
33 56
32 55
32 56
31 57
30 56
30 57
29 58
28 57
27 57
27 58
26 59
25 58
25 59
24 60
23 59
23 60
22 61
21 60
20 60
19 60
19 61
18 62
17 61
17 60
17 59
17 58
16 58
15 57
14 57
14 58
14 59
14 60
14 61
14 62
15 63
14 64
13 65
12 64
11 64
11 65
10 66
9 65
9 66
8 67
7 68
6 69
5 68
4 68
4 69
3 70
2 71
2 72
2 73
2 74
3 74
4 74
5 74
6 74
7 74
8 73
9 73
10 73
11 73
12 73
13 73
14 73
15 72
16 72
16 71
17 70
18 70
19 70
20 69
21 69
22 68
23 67
24 67
25 67
26 67
27 66
28 66
29 66
30 66
31 65
32 65
33 65
34 64
35 64
36 63
37 63
38 63
39 62
40 62
41 62
42 62
43 62
44 62
45 61
46 61
47 60
48 60
49 59
50 59
51 59
52 59
53 59
54 59
55 59
56 60
57 60
58 60
59 60
59 59
59 58
60 57
61 57
62 56
63 56
64 56
65 56
66 56
67 56
68 56
69 56
70 56
71 57
72 57
73 58
74 58
75 58
76 58
77 59
78 59
79 59
80 59
81 59
82 59
83 59
84 59
85 59
86 59
87 59
88 60
89 60
90 60
91 60
92 60
93 60
94 60
95 60
96 60
97 61
98 61
99 61
100 61
101 61
102 61
103 61
104 61
105 61
106 62
107 62
108 62
109 62
110 62
111 62
112 62
113 62
114 62
115 62
116 62
117 62
118 62
119 62
120 62
121 62
122 62
123 62
124 62
125 62
126 62
127 62
128 62
129 62
130 62
131 62
132 62
133 62
134 62
135 62
136 62
137 62
138 63
139 63
140 63
141 63
142 63
143 64
144 64
145 64
146 64
147 64
148 64
149 65
150 65
151 66
152 66
153 67
154 67
155 68
156 68
157 69
158 69
159 70
160 70
161 70
162 70
163 71
164 71
165 71
166 71
167 71
168 71
169 70
170 70
171 70
172 69
173 68
174 67
175 67
176 66
177 66
178 67
179 67
180 67
181 67
182 67
183 67
184 67
185 68
186 68
187 68
188 69
189 69
190 69
191 69
192 70
193 70
194 70
195 70
196 70
197 70
198 71
199 71
200 71
201 71
202 71
203 72
204 72
205 72
206 72
207 72
208 73
209 73
210 73
211 73
212 73
213 73
214 73
215 73
216 73
217 73
218 74
219 74
220 75
221 75
222 75
223 75
224 74
225 74
226 75
227 75
228 75
229 75
230 75
231 76
232 76
233 76
234 76
235 76
236 76
237 76
238 76
239 76
240 76
241 76
242 76
243 77
244 78
243 79
242 80
241 81
240 82
239 81
238 81
238 82
237 83
236 84
235 85
235 86
235 87
235 88
236 88
237 89
238 89
239 89
240 90
241 91
242 92
242 93
243 93
244 93
245 94
245 95
245 96
246 96
247 97
246 98
246 99
246 100
247 101
247 102
247 103
247 104
248 105
247 106
247 107
246 108
246 109
246 110
246 111
247 112
248 112
249 113
250 113
251 113
252 113
253 112
254 112
255 112
256 111
257 111
257 110
258 109
259 108
260 107
260 106
261 105
262 105
262 104
263 103
264 102
264 101
264 100
265 99
265 98
266 97
266 96
267 95
267 94
268 93
269 93
269 92
269 91
269 90
270 89
271 88
271 87
271 86
272 85
272 84
273 83
274 83
274 82
274 81
275 80
276 79
277 78
278 78
279 77
280 77
281 77
282 77
283 77
284 77
285 77
286 77
287 77
288 76
289 76
290 76
291 76
292 76
293 76
294 76
295 76
296 76
297 76
298 76
299 76
300 76
301 76
302 76
303 76
304 76
305 76
306 75
307 75
308 75
309 75
310 75
311 75
312 75
313 74
314 74
315 74
316 73
317 73
318 73
319 73
320 73
320 72
321 71
322 71
323 71
324 71
325 70
326 70
327 70
328 70
329 70
330 69
331 69
332 68
333 67
334 67
335 67
336 67
337 66
338 66
339 66
340 66
341 65
342 65
343 65
344 64
345 64
346 63
347 63
348 62
349 62
349 61
349 60
350 59
350 58
350 57
350 56
350 55
350 54
349 53
348 52
347 51
346 50
345 50
344 49
343 49
342 48
341 48
340 47
339 47
338 46
337 46
336 45
335 45
334 44
333 43
332 43
331 42
330 42
329 41
328 41
327 41
326 41
325 40
324 40
323 40
322 40
321 40
320 40
319 40
318 40
317 39
316 39
315 38
314 38
313 37
312 37
311 37
310 37
309 37
308 37
307 36
306 36
305 36
304 36
303 35
302 35
301 35
300 35
299 34
298 34
297 34
296 34
295 34
294 34
293 34
292 34
291 34
290 34
289 34
288 34
287 34
286 34
285 34
284 34
283 33
282 33
281 33
280 33
279 32
278 32
277 31
276 31
275 30
275 29
274 28
274 27
274 26
273 25
273 24
272 23
272 22
271 21
271 20
271 19
270 18
270 17
270 16
270 15
270 14
270 13
269 12
268 11
268 10
268 9
267 8
267 7
267 6
266 5
266 4
265 3
265 2
264 1
263 1
262 0
261 0
260 0
259 0
258 0
257 0
256 0
255 0
