51 2
50 3
49 3
48 3
47 3
46 3
45 3
45 4
45 5
45 6
45 7
45 8
45 9
45 10
45 11
46 12
47 13
47 14
47 15
47 16
47 17
47 18
47 19
46 20
45 20
44 20
43 20
42 20
41 20
40 20
39 20
38 20
37 19
36 19
35 19
34 19
33 18
32 17
31 16
30 16
29 15
28 15
27 14
26 13
25 12
24 12
23 11
22 10
21 10
20 9
19 8
18 8
17 7
16 7
15 6
14 6
13 6
12 6
11 5
10 5
9 5
8 6
8 7
7 8
6 9
5 10
5 11
5 12
5 13
4 14
4 15
4 16
4 17
4 18
4 19
3 20
2 20
2 21
2 22
2 23
2 24
2 25
2 26
2 27
2 28
2 29
2 30
2 31
3 32
4 32
5 33
6 33
7 33
8 33
9 33
10 33
11 33
12 33
13 33
14 33
15 33
16 33
17 33
18 33
19 33
20 33
21 33
22 33
23 33
24 33
25 33
26 33
27 33
28 33
29 33
30 33
31 34
32 34
33 35
34 35
35 35
36 35
37 36
38 36
39 36
40 36
41 37
42 37
43 37
44 37
45 38
46 38
47 39
47 40
47 41
46 42
46 43
46 44
45 45
44 45
44 46
44 47
44 48
44 49
44 50
45 51
45 52
45 53
46 53
47 53
48 53
49 53
50 53
51 53
52 53
53 52
54 52
55 51
56 51
57 50
58 49
59 48
60 48
61 47
61 46
62 45
63 45
64 45
65 44
66 44
67 43
68 43
69 43
70 43
71 42
72 42
73 42
74 43
75 43
76 44
77 44
78 45
78 46
79 46
80 47
81 48
82 48
83 48
84 49
85 49
86 49
87 49
88 49
89 49
90 50
91 50
92 50
93 50
94 50
95 50
96 50
97 50
98 51
99 51
100 51
101 51
102 51
103 51
104 51
105 51
106 51
107 51
108 51
109 51
110 51
111 51
112 51
113 50
114 50
115 50
116 50
117 50
118 50
119 50
120 50
121 50
122 50
123 50
124 50
125 49
126 49
127 49
128 48
129 48
130 48
131 47
132 47
133 47
134 46
135 45
136 45
137 44
138 44
139 44
140 43
141 43
142 43
143 43
144 43
145 43
146 43
147 43
148 43
149 43
150 42
151 42
152 42
153 42
154 41
155 41
156 41
157 40
158 40
159 40
160 39
161 39
162 39
163 38
164 38
165 37
166 36
166 35
167 34
167 33
167 32
168 31
168 30
168 29
168 28
168 27
169 26
169 25
168 24
168 23
169 22
169 21
169 20
168 20
167 19
166 19
165 19
164 18
165 17
165 16
164 16
163 15
162 14
161 14
160 13
159 13
158 13
157 13
156 12
155 11
154 11
153 11
152 11
151 10
150 10
149 10
148 9
147 9
146 9
145 9
144 8
143 8
142 8
141 7
140 7
139 7
138 7
137 7
136 7
135 7
134 7
133 7
132 7
131 7
130 7
129 7
128 7
127 7
126 7
125 6
124 6
123 6
122 6
121 6
120 6
119 6
118 6
117 6
116 6
115 6
115 7
114 8
113 8
112 9
111 9
110 9
109 9
108 9
107 9
106 9
105 9
104 9
103 9
102 9
101 9
100 10
99 10
98 10
97 9
96 8
95 8
94 8
93 8
93 9
92 10
91 11
90 11
89 11
88 11
87 11
86 11
85 12
84 12
83 12
82 12
81 12
80 12
79 12
78 11
77 11
76 11
75 10
74 10
73 10
72 10
71 10
70 10
69 9
68 9
67 8
66 8
65 7
64 6
63 6
62 5
61 5
60 5
59 4
58 4
57 3
56 3
55 3
54 2
53 2
52 2
