114 2
113 3
112 3
111 3
110 3
109 3
108 3
108 4
107 5
106 6
105 6
104 6
103 6
103 7
102 8
101 9
100 10
99 9
98 9
97 9
97 10
96 11
95 11
94 11
93 11
92 11
92 12
91 13
90 13
89 13
88 13
88 14
87 15
86 15
85 16
84 16
83 16
82 16
81 16
81 17
81 18
80 19
79 19
78 19
78 20
77 21
76 21
75 21
74 21
73 21
72 21
71 21
70 20
69 20
68 20
67 19
66 19
65 19
64 18
63 18
62 18
61 18
60 18
59 18
58 18
57 18
56 18
55 18
54 18
53 19
52 19
52 20
52 21
52 22
52 23
52 24
53 25
54 25
55 26
55 27
56 28
57 28
58 29
58 30
59 31
59 32
60 33
61 34
61 35
61 36
61 37
61 38
61 39
62 39
63 39
64 39
65 40
65 41
64 42
63 43
62 43
61 43
60 44
59 44
58 45
57 45
56 45
55 45
54 45
53 45
52 45
51 45
50 44
49 44
48 44
47 43
46 42
45 42
44 41
43 41
42 41
41 40
40 40
39 39
38 38
37 37
36 36
35 36
34 36
33 36
32 35
31 35
30 34
29 33
28 33
27 32
26 31
25 31
24 30
23 29
22 29
21 28
20 27
19 26
18 26
17 25
16 25
15 25
14 24
13 23
12 23
11 22
10 22
9 22
8 21
7 21
6 21
5 20
4 20
3 20
2 21
2 22
2 23
2 24
2 25
3 25
4 26
5 26
6 27
6 28
7 28
8 29
9 29
10 30
10 31
10 32
10 33
10 34
10 35
10 36
11 36
12 36
13 37
14 38
14 39
14 40
14 41
15 41
16 42
17 42
18 43
19 43
20 44
20 45
21 46
22 46
23 47
23 48
23 49
23 50
24 51
24 52
24 53
24 54
25 54
26 54
27 55
28 56
28 57
28 58
28 59
27 60
27 61
27 62
27 63
27 64
27 65
26 66
25 67
24 68
23 68
22 69
21 69
21 70
21 71
21 72
22 73
21 74
20 74
20 75
20 76
20 77
20 78
20 79
19 80
18 80
17 80
16 80
16 81
15 82
14 82
13 83
13 84
13 85
13 86
12 87
12 88
12 89
11 90
11 91
11 92
11 93
11 94
11 95
11 96
12 96
13 96
14 97
15 97
16 96
17 95
18 95
19 94
20 94
21 93
22 92
23 91
24 90
25 89
26 89
27 88
28 87
29 86
30 85
31 84
32 84
33 83
34 82
35 81
36 81
37 80
38 79
38 78
39 77
40 77
41 76
42 75
43 75
44 75
45 74
46 73
47 73
48 72
49 71
50 71
51 70
52 70
53 70
54 69
55 69
56 69
57 69
58 70
57 71
56 71
55 72
55 73
55 74
55 75
56 75
57 76
58 76
59 77
60 77
61 78
62 78
63 78
64 79
65 79
66 79
67 80
68 80
69 80
70 81
71 81
72 82
73 82
74 82
75 83
76 83
77 83
78 83
79 83
80 84
81 84
82 84
83 84
84 85
85 85
86 86
87 86
88 87
89 87
90 87
91 87
92 87
93 86
94 86
95 86
96 86
97 86
98 86
99 87
100 87
101 87
102 87
103 87
104 88
105 88
106 88
107 88
108 88
109 89
110 89
111 89
112 90
111 91
111 92
111 93
112 93
113 93
114 93
115 93
116 93
117 93
118 94
119 94
120 94
121 94
122 94
123 94
124 94
125 93
126 94
127 94
128 95
129 95
130 95
131 95
132 94
133 93
134 93
135 93
136 93
137 94
138 94
139 94
140 94
141 94
142 94
143 94
144 93
145 93
146 93
147 93
148 92
149 92
150 92
151 92
152 91
153 91
154 91
155 91
156 91
157 91
158 90
159 90
160 90
161 90
162 90
163 89
164 89
165 89
166 88
167 88
168 88
169 88
170 88
171 87
172 87
173 86
174 86
175 86
176 85
177 84
178 84
179 84
180 84
181 83
182 83
183 83
184 82
185 82
186 82
187 81
188 81
189 80
190 79
191 79
192 79
193 78
194 78
195 77
196 76
197 76
198 75
199 74
200 73
201 72
202 72
203 72
204 71
205 71
206 70
207 70
208 70
209 70
210 69
211 68
211 67
212 66
211 66
210 65
211 64
210 64
209 63
208 62
209 61
209 60
209 59
209 58
209 57
209 56
209 55
210 54
210 53
209 53
208 52
207 51
208 50
207 50
206 49
205 49
204 48
203 48
202 47
203 46
202 46
201 45
200 44
199 43
200 42
199 42
198 41
197 40
196 39
195 39
194 38
193 37
192 36
191 35
190 34
189 34
188 33
187 33
186 32
185 31
184 30
183 30
182 30
181 29
182 28
182 27
182 26
181 26
180 25
179 24
178 24
177 24
176 23
175 22
174 22
173 21
172 20
171 19
170 19
169 18
168 18
167 18
166 17
165 17
164 17
163 16
162 16
161 16
160 15
159 15
158 14
157 14
156 14
155 13
154 13
153 13
152 12
151 12
150 12
149 12
148 12
147 11
146 11
145 11
144 11
143 11
142 11
141 10
140 10
139 10
138 10
137 9
136 8
135 8
134 8
133 8
132 7
131 7
130 6
129 6
128 6
127 5
126 5
125 5
124 5
123 5
122 4
121 4
120 3
119 3
118 3
117 3
116 2
115 2
