130 2
129 3
128 3
127 4
126 4
125 5
124 5
123 6
122 6
121 7
120 7
119 8
118 8
117 8
116 9
115 10
114 10
113 11
112 11
111 11
110 12
109 12
108 12
107 12
106 13
105 13
104 13
103 13
102 13
101 13
100 13
99 13
98 12
97 12
96 12
95 12
94 12
93 11
92 11
91 11
90 11
89 11
88 10
87 10
86 10
85 10
84 9
83 9
82 9
81 9
80 9
79 9
78 9
77 9
76 9
75 9
74 9
73 9
72 9
71 9
70 9
69 9
68 9
67 9
66 8
65 8
64 8
63 8
62 8
61 8
60 8
59 8
58 8
57 8
56 8
55 8
54 8
53 9
52 9
51 9
50 8
49 8
48 8
47 8
46 8
46 9
45 10
44 10
43 11
42 11
41 11
40 11
39 11
38 11
37 11
36 11
35 11
34 11
33 11
32 11
31 12
30 12
29 12
28 12
27 13
26 13
25 13
24 13
23 13
22 13
21 14
20 14
19 15
18 15
17 15
16 15
15 15
14 15
14 16
14 17
13 18
12 19
11 19
10 19
10 20
9 21
8 21
7 21
7 22
7 23
6 24
5 25
5 26
5 27
4 28
3 29
3 30
3 31
2 32
2 33
2 34
2 35
3 36
4 36
5 37
5 38
5 39
5 40
5 41
6 42
7 43
7 44
7 45
7 46
8 46
9 46
10 47
10 48
11 48
12 48
13 48
14 48
15 47
16 47
17 48
18 48
19 48
20 48
21 48
22 48
23 48
24 48
25 48
26 48
27 48
28 48
29 48
30 48
31 48
32 48
33 48
34 49
35 49
36 49
37 50
38 50
39 50
40 50
41 51
42 51
43 51
44 51
45 52
46 52
47 53
48 54
49 54
50 54
51 54
52 54
53 54
54 55
55 55
56 55
57 55
58 55
59 55
60 55
61 55
62 55
63 55
64 55
65 55
66 55
67 55
68 55
69 55
70 55
71 55
72 55
73 55
74 55
75 55
76 55
77 55
78 55
79 55
80 55
81 54
82 54
83 54
84 54
85 54
86 54
87 54
88 54
89 54
90 54
91 53
92 53
93 53
94 52
95 52
96 51
97 51
98 51
99 50
100 49
101 49
102 48
103 47
104 47
105 46
106 47
107 47
108 48
109 48
110 49
111 49
112 50
113 50
114 51
115 51
116 52
117 53
118 54
119 54
120 54
121 55
122 55
123 56
124 56
125 56
126 57
127 57
128 57
129 57
130 57
131 57
132 57
133 56
133 55
134 54
134 53
134 52
133 52
132 51
131 51
130 50
131 49
130 49
129 48
128 48
127 47
128 46
127 46
126 45
125 45
124 44
125 43
126 43
127 42
128 42
129 42
130 42
131 42
132 42
133 42
134 42
135 42
136 41
137 41
138 41
139 41
140 41
141 41
142 41
143 41
144 40
145 40
146 40
147 40
148 40
149 40
150 40
151 40
152 39
153 39
154 39
155 39
156 39
157 40
158 40
159 40
160 40
161 40
162 41
163 41
164 41
165 42
166 42
167 42
168 42
169 43
170 43
171 43
172 43
173 43
174 44
175 44
176 44
177 44
178 45
179 45
180 45
181 46
182 46
183 46
184 46
185 46
186 46
187 46
188 46
189 46
190 46
191 46
192 46
193 45
193 44
194 43
194 42
194 41
193 41
192 40
193 39
192 39
191 38
192 37
192 36
192 35
192 34
191 34
190 33
191 32
191 31
191 30
191 29
191 28
191 27
191 26
191 25
191 24
191 23
192 22
192 21
193 20
193 19
193 18
194 17
193 17
192 16
191 15
190 15
189 15
188 16
187 16
186 16
185 16
184 16
183 16
182 16
181 16
180 17
179 17
178 17
177 17
176 17
175 18
174 18
173 18
172 18
171 19
170 19
169 19
168 20
167 20
166 20
165 20
164 20
163 21
162 21
161 22
160 22
159 22
158 23
157 23
156 24
155 24
154 24
153 25
152 25
151 25
150 25
149 25
148 25
147 24
146 24
145 24
144 24
143 24
142 24
141 23
140 23
139 23
138 23
137 22
136 22
135 22
134 22
133 22
132 21
131 21
130 21
129 21
128 20
127 19
128 18
129 17
130 16
130 15
131 14
132 13
133 12
134 11
135 11
136 10
136 9
137 8
138 7
138 6
139 5
139 4
139 3
138 3
137 2
136 2
135 2
134 2
133 2
132 2
131 2
