58 2
58 3
57 4
57 5
57 6
57 7
57 8
57 9
57 10
57 11
57 12
57 13
58 14
58 15
58 16
59 17
59 18
60 19
60 20
61 21
62 21
63 22
62 23
61 24
60 25
59 25
58 26
57 26
56 26
55 26
54 26
53 26
52 27
51 27
50 28
49 28
48 28
47 28
46 28
45 28
45 29
44 30
43 30
42 31
41 31
40 31
39 32
38 32
37 32
36 31
35 31
34 31
33 30
32 30
31 30
30 29
29 29
28 28
27 27
26 27
25 27
24 26
23 26
22 25
21 25
20 24
19 24
18 23
17 23
16 23
15 22
14 21
13 21
12 21
11 21
10 20
9 20
8 19
7 19
6 19
5 19
4 20
3 20
3 21
3 22
3 23
3 24
3 25
3 26
3 27
3 28
3 29
3 30
3 31
2 32
2 33
2 34
2 35
2 36
2 37
2 38
2 39
2 40
2 41
2 42
2 43
2 44
2 45
2 46
2 47
2 48
2 49
2 50
2 51
3 52
3 53
3 54
3 55
3 56
3 57
4 58
4 59
4 60
5 61
6 62
6 63
6 64
6 65
7 66
7 67
8 68
9 69
10 69
11 69
12 68
13 68
14 67
15 66
16 65
17 64
18 65
18 66
18 67
19 68
20 67
20 66
21 65
20 65
19 65
18 64
19 63
20 63
21 62
22 61
23 60
24 60
25 59
26 58
27 57
28 56
29 56
30 55
31 54
32 53
33 53
34 52
35 51
36 50
37 49
38 48
39 47
40 47
41 47
42 47
43 47
44 47
45 48
46 48
47 48
48 48
49 48
50 48
51 48
52 48
53 48
54 48
55 48
56 48
57 48
58 49
59 49
60 49
61 49
62 49
63 49
64 49
65 49
66 49
67 50
66 51
66 52
65 53
64 54
63 55
63 56
62 57
61 58
60 59
60 60
60 61
59 62
59 63
59 64
59 65
59 66
60 67
61 67
62 66
63 66
64 66
65 65
66 65
67 64
68 64
69 64
70 63
71 62
72 62
73 61
74 60
75 60
76 60
77 59
78 58
79 58
80 57
81 56
82 56
83 55
84 55
85 56
86 57
87 58
88 59
89 60
90 60
91 61
92 62
93 63
94 64
95 65
96 65
97 65
98 66
99 67
100 67
101 68
102 69
103 69
104 69
105 70
106 71
107 71
108 71
109 72
110 72
111 73
112 73
113 73
114 73
115 73
116 73
117 74
118 74
119 74
120 74
121 74
122 75
123 75
124 75
125 75
126 75
127 76
128 76
129 76
130 76
131 76
132 76
133 77
134 77
135 77
136 77
137 77
138 77
139 77
140 77
141 77
142 77
143 77
144 76
145 76
146 76
147 76
148 76
149 76
150 75
151 75
152 75
153 74
154 73
155 73
156 72
157 72
158 71
159 70
160 69
161 69
162 68
163 67
164 66
165 65
166 64
166 63
167 62
168 62
169 61
170 61
171 61
172 60
173 60
174 60
175 59
175 58
176 57
177 57
178 56
178 55
177 54
178 53
179 53
180 53
181 54
182 55
183 56
184 56
185 55
186 54
187 54
188 53
189 52
190 51
191 50
192 49
193 48
194 47
195 46
196 45
197 44
197 43
198 42
198 41
198 40
198 39
198 38
198 37
197 37
196 36
195 35
194 34
193 33
192 32
191 31
190 31
189 30
188 29
187 28
186 28
185 27
184 26
183 25
182 24
181 24
180 23
179 22
180 21
179 21
178 20
177 19
176 18
175 17
174 17
173 17
172 17
171 18
170 17
169 16
168 16
168 17
167 18
166 18
165 17
164 17
163 17
162 17
161 17
160 16
159 16
158 16
157 15
156 15
155 15
154 15
153 15
152 15
151 14
150 14
149 14
148 14
147 14
146 14
145 13
144 13
143 13
142 13
141 13
140 12
139 11
138 11
137 11
136 11
135 11
134 12
133 12
132 12
131 12
130 12
129 12
128 12
127 12
126 12
125 12
124 12
123 12
122 12
121 12
120 12
119 12
118 12
117 12
116 12
115 12
114 12
113 11
112 11
111 11
110 11
109 11
108 12
107 12
106 12
105 12
104 12
103 13
102 13
101 13
100 13
99 13
98 14
97 14
96 14
95 14
94 14
93 14
92 14
91 14
90 14
89 14
88 14
88 15
87 16
86 16
85 16
84 15
83 15
82 15
81 16
80 15
79 14
78 14
77 14
76 13
75 12
74 12
73 11
74 10
73 10
72 9
73 8
72 8
71 7
70 7
69 6
68 5
67 5
66 5
65 5
64 4
63 3
62 2
61 2
60 2
59 2
