119 2
118 3
117 4
116 4
115 4
114 4
113 3
112 3
111 3
111 4
111 5
110 6
109 5
108 5
107 5
106 5
106 6
105 7
104 7
103 7
102 7
101 7
101 8
100 9
99 9
98 9
97 9
96 10
95 10
94 10
93 10
92 10
92 11
91 12
90 12
89 12
89 13
88 14
87 14
86 14
85 14
85 15
84 16
83 16
82 16
81 16
80 17
80 18
79 19
78 19
77 20
76 20
75 20
74 20
73 20
72 20
71 20
70 20
70 21
69 22
68 22
67 22
66 22
65 22
64 23
63 24
62 24
61 24
60 23
59 23
58 23
57 24
56 24
55 24
54 24
53 24
52 24
51 24
51 25
51 26
51 27
52 27
53 27
54 28
55 28
56 28
57 29
58 29
59 29
60 30
61 30
62 30
63 31
64 31
65 32
66 33
65 34
64 34
63 34
62 35
61 35
60 35
59 35
58 35
57 35
56 36
55 36
54 36
53 36
52 35
51 35
50 35
49 35
48 35
47 35
46 34
45 34
44 34
43 33
42 33
41 33
40 32
39 32
38 32
37 32
36 32
35 31
34 31
33 31
32 30
31 30
30 30
29 30
28 30
27 29
26 29
25 29
24 29
23 29
22 28
21 28
20 28
19 28
18 28
17 28
16 27
15 27
14 27
13 27
12 27
11 27
10 27
9 27
8 27
7 27
6 27
5 27
4 27
3 28
2 28
2 29
2 30
2 31
3 31
4 31
5 31
6 31
7 32
8 33
9 33
10 33
11 33
12 34
13 35
13 36
13 37
13 38
14 38
15 38
16 39
16 40
17 40
18 40
19 41
19 42
20 42
21 43
21 44
22 44
23 44
24 44
25 45
25 46
25 47
26 47
27 47
28 47
29 48
30 49
29 50
28 50
28 51
27 52
26 53
26 54
25 55
24 55
23 56
22 57
21 57
21 58
21 59
21 60
22 61
22 62
22 63
22 64
21 65
21 66
21 67
20 68
19 69
18 70
17 71
17 72
16 73
15 74
14 75
14 76
14 77
14 78
15 78
16 78
17 78
18 78
19 77
20 77
21 77
22 76
23 76
24 75
25 75
26 74
27 73
28 73
29 72
30 71
31 71
32 71
33 70
34 69
35 69
36 68
37 67
38 66
39 65
40 65
41 65
42 64
43 63
44 63
45 62
46 62
47 61
48 61
49 60
50 59
51 59
52 59
53 58
54 58
55 58
56 57
57 57
58 57
59 57
60 57
61 58
62 58
63 59
64 59
65 59
66 59
67 60
66 61
65 62
64 62
63 63
62 64
61 64
60 65
60 66
60 67
60 68
60 69
61 70
62 70
63 70
64 70
65 70
66 70
67 70
68 71
68 72
68 73
69 73
70 73
71 73
72 73
73 74
74 75
75 75
76 75
77 75
78 75
79 75
80 75
81 75
82 75
83 75
84 74
85 74
86 74
87 74
88 74
89 75
90 75
91 75
92 75
93 74
94 74
95 74
96 74
97 74
98 75
99 75
100 76
101 76
102 76
103 76
104 77
105 77
106 77
107 78
108 78
109 78
110 78
111 78
112 79
113 79
114 80
115 80
116 80
117 80
118 80
119 80
120 81
121 81
122 81
123 81
124 81
125 81
126 81
127 81
128 81
129 80
130 80
131 81
131 82
130 83
130 84
130 85
130 86
130 87
130 88
130 89
130 90
131 91
131 92
131 93
132 94
132 95
133 96
134 97
135 98
135 99
136 99
137 100
137 101
138 101
139 101
140 102
140 103
141 103
142 103
143 102
144 101
144 100
145 99
145 98
145 97
146 96
146 95
147 94
147 93
148 92
148 91
148 90
148 89
149 88
149 87
149 86
149 85
149 84
149 83
149 82
150 81
150 80
151 79
151 78
152 77
153 77
154 76
155 76
156 75
157 75
158 75
159 75
160 74
161 73
162 73
163 73
164 72
165 71
166 71
167 70
168 69
169 68
170 68
171 67
172 66
173 66
174 66
175 65
176 64
177 63
178 62
179 61
179 60
180 59
181 58
182 57
182 56
183 55
183 54
184 53
184 52
185 51
186 50
187 49
188 48
189 47
189 46
190 45
190 44
190 43
190 42
190 41
190 40
190 39
189 39
188 38
187 37
188 36
187 36
186 35
185 34
184 33
183 32
184 31
183 31
182 30
181 30
180 29
179 28
178 28
177 27
176 26
175 25
174 25
173 24
172 24
171 23
170 22
169 21
168 21
167 20
166 19
165 19
164 18
163 18
162 17
161 16
160 16
159 15
158 15
157 14
156 14
155 13
154 13
153 12
152 12
151 12
150 11
149 11
148 11
147 11
146 11
145 11
144 10
143 9
142 9
141 8
140 7
139 7
138 7
137 6
136 6
135 5
134 5
133 4
132 4
131 4
130 3
129 3
128 2
127 2
126 2
125 2
124 3
123 3
122 3
121 2
120 2
