133 2
132 3
131 3
130 3
129 4
128 4
127 4
126 5
125 6
124 6
124 7
123 8
122 9
121 10
120 11
119 11
118 11
117 11
116 11
115 11
114 11
113 11
112 12
111 12
110 13
110 14
110 15
109 16
108 16
107 16
106 16
105 16
105 17
104 18
103 18
102 18
101 18
100 18
99 19
98 19
98 20
97 21
96 21
95 21
94 21
93 21
92 22
91 22
90 22
89 22
88 23
87 24
86 24
85 25
84 26
83 26
82 27
81 27
80 27
79 27
78 28
77 28
77 29
76 30
75 30
74 31
73 31
72 32
71 33
70 33
69 33
69 34
68 35
67 35
66 35
65 35
64 35
63 35
63 36
63 37
63 38
62 39
61 40
60 40
59 39
58 39
57 39
56 39
56 40
56 41
55 42
54 42
53 41
52 41
51 41
50 41
49 41
48 41
47 41
46 41
45 41
44 41
43 41
42 41
41 41
40 41
39 42
38 41
37 40
36 39
35 38
34 38
33 39
32 39
31 39
31 40
31 41
30 42
29 41
28 41
27 41
26 41
25 41
24 40
23 40
22 39
21 39
20 39
19 38
18 38
17 38
16 37
15 37
14 37
13 37
12 37
11 36
10 36
9 36
8 37
7 36
6 36
5 36
5 37
5 38
5 39
5 40
4 41
3 41
3 42
3 43
3 44
3 45
3 46
2 47
2 48
2 49
2 50
2 51
3 52
3 53
3 54
3 55
4 55
5 56
5 57
6 58
7 59
8 59
9 59
10 59
11 59
12 59
13 59
14 59
15 59
16 59
17 58
18 58
19 58
20 57
21 56
22 56
23 55
24 55
25 54
26 54
27 54
28 53
29 53
30 53
31 54
30 55
29 56
29 57
28 58
27 58
26 59
26 60
26 61
27 61
28 61
29 61
30 61
31 62
32 63
32 64
33 65
34 65
35 66
36 66
37 67
38 68
39 68
40 68
41 68
42 69
42 70
43 71
43 72
44 73
45 74
46 75
47 76
48 76
49 76
50 76
51 76
52 76
53 75
54 75
55 75
56 74
57 73
58 73
59 73
60 73
61 73
62 74
62 75
63 75
64 76
65 76
66 77
66 78
67 79
68 79
69 79
70 79
71 80
72 81
72 82
73 82
74 82
75 83
76 83
77 83
78 84
79 85
80 85
81 85
82 86
83 86
84 87
85 87
86 88
87 88
88 88
89 89
90 89
91 89
92 90
92 91
93 91
94 91
95 91
96 91
97 91
98 91
99 91
100 91
101 92
102 92
103 92
104 92
105 92
106 92
107 93
108 93
109 93
110 94
111 94
112 95
113 96
113 97
114 97
115 97
116 98
117 99
118 99
119 99
120 99
121 99
122 98
123 98
124 98
125 98
126 99
126 100
126 101
127 101
128 101
129 100
130 101
130 102
131 102
132 103
132 104
132 105
133 105
134 105
135 105
136 106
136 107
137 107
138 107
139 107
140 107
141 107
142 107
143 107
144 107
145 107
146 107
147 107
148 106
149 105
149 104
150 103
150 102
150 101
150 100
150 99
150 98
150 97
150 96
149 96
148 95
149 94
149 93
150 92
151 92
152 92
153 92
154 92
155 92
156 91
157 91
158 92
159 92
160 92
161 91
162 91
163 91
164 91
165 91
166 90
167 90
168 90
169 90
170 90
171 90
172 90
173 89
174 89
175 89
176 89
177 89
178 88
179 88
180 87
181 87
182 86
183 86
184 86
185 86
186 86
187 86
188 86
189 85
190 85
191 85
192 84
193 84
194 84
195 83
196 82
196 81
197 80
197 79
198 78
199 77
200 76
200 75
201 74
201 73
202 72
203 72
204 71
205 70
206 69
207 69
208 68
209 67
210 66
211 65
212 64
213 63
214 62
214 61
215 60
215 59
215 58
215 57
216 56
216 55
216 54
216 53
216 52
215 52
214 51
215 50
215 49
214 49
213 48
214 47
213 47
212 46
211 45
210 44
209 43
208 42
209 41
208 41
207 40
206 39
205 39
204 38
203 37
202 36
201 36
200 35
199 34
198 34
197 34
196 33
197 32
196 32
195 31
196 30
195 30
194 29
193 28
193 27
193 26
194 25
193 25
192 24
191 24
190 23
189 23
188 22
187 22
186 21
185 21
184 20
183 20
182 20
181 20
180 20
179 20
178 20
177 20
176 20
175 20
174 19
173 19
172 18
171 18
170 18
169 18
168 17
167 17
166 17
165 17
164 17
163 16
162 16
161 16
160 16
159 15
158 15
157 14
156 14
155 14
154 14
153 15
152 15
151 15
150 15
149 14
148 14
147 14
146 14
145 15
144 14
143 14
142 14
142 15
141 16
140 16
139 15
140 14
140 13
140 12
140 11
140 10
140 9
139 9
138 8
137 7
138 6
137 6
136 5
137 4
136 4
135 3
134 2
