135 4
135 5
134 6
133 5
132 5
132 6
131 7
130 6
129 6
128 6
128 7
127 8
126 9
125 8
125 9
124 10
123 11
122 12
121 13
120 14
119 15
118 16
117 17
116 16
115 16
114 16
113 15
112 15
111 15
110 14
109 14
108 14
107 14
107 15
106 16
105 15
104 15
104 16
103 17
102 18
101 17
101 18
100 19
99 20
98 21
98 22
97 23
97 24
96 25
96 26
96 27
95 28
95 29
94 30
93 29
93 30
92 31
91 32
90 33
89 32
89 33
88 34
87 35
87 36
86 37
86 38
86 39
85 40
84 41
84 42
84 43
83 44
82 45
82 46
82 47
82 48
82 49
81 50
81 51
81 52
81 53
81 54
81 55
81 56
81 57
81 58
81 59
80 60
79 59
78 58
77 58
76 57
75 57
74 56
73 56
72 56
71 56
70 56
69 56
68 56
67 56
66 56
65 56
64 56
63 56
62 55
61 55
60 56
59 56
58 55
57 55
57 56
56 57
55 56
54 56
53 56
52 56
51 56
50 56
49 56
48 56
47 56
46 56
45 56
44 56
43 56
42 56
41 56
41 57
40 58
39 57
38 57
37 57
36 57
35 57
34 57
33 57
32 57
31 57
30 57
29 57
29 58
28 59
27 58
26 58
25 58
24 58
24 59
23 60
22 59
21 59
21 60
20 61
19 60
18 60
17 60
16 60
16 61
15 62
14 63
13 62
13 63
12 64
11 63
10 63
10 64
9 65
8 66
7 67
6 66
6 67
5 68
5 69
4 70
3 71
2 72
2 73
2 74
2 75
2 76
2 77
2 78
2 79
3 80
4 81
5 81
6 82
7 82
8 83
9 84
10 85
11 85
12 85
13 86
14 86
15 87
16 88
17 88
18 88
19 89
20 89
21 90
22 91
23 91
24 91
25 91
26 92
27 93
28 94
29 94
30 94
31 94
32 95
33 95
34 96
35 97
36 97
37 97
38 97
39 98
40 99
41 99
42 100
43 100
44 100
45 100
46 101
47 102
48 103
49 103
50 103
51 103
52 104
53 104
54 104
55 105
56 105
57 105
58 106
59 106
60 107
61 107
62 108
63 108
64 109
65 110
66 111
67 112
67 113
68 114
69 115
69 116
69 117
70 118
70 119
70 120
71 121
71 122
71 123
71 124
72 125
72 126
72 127
72 128
72 129
72 130
72 131
72 132
73 133
73 134
73 135
73 136
73 137
73 138
73 139
73 140
73 141
73 142
73 143
73 144
73 145
73 146
73 147
73 148
72 149
72 150
72 151
73 152
73 153
73 154
73 155
73 156
73 157
73 158
73 159
73 160
73 161
73 162
73 163
73 164
73 165
74 166
74 167
74 168
74 169
74 170
74 171
75 172
75 173
75 174
76 175
76 176
77 177
77 178
77 179
78 180
78 181
79 182
79 183
80 184
80 185
80 186
81 187
81 188
82 189
82 190
83 191
83 192
84 193
84 194
85 195
86 196
86 197
87 198
88 199
88 200
89 201
90 202
90 203
91 203
92 204
92 205
93 206
94 207
95 208
95 209
96 209
97 210
97 211
98 212
99 212
100 213
100 214
101 215
102 216
102 217
102 218
103 218
104 219
104 220
105 221
105 222
105 223
106 224
106 225
106 226
107 227
107 228
107 229
108 230
108 231
109 232
110 233
110 234
110 235
111 235
112 236
112 237
113 238
114 238
115 239
116 239
117 240
118 240
119 240
120 240
121 239
122 239
123 239
124 238
125 238
126 238
127 238
128 238
129 238
130 238
131 238
131 237
132 236
133 236
134 237
135 238
136 238
137 238
138 238
139 238
140 238
141 238
142 238
143 237
144 237
145 236
146 236
147 235
148 235
149 235
150 235
151 235
152 234
153 234
154 233
155 233
156 233
157 232
158 232
159 232
160 232
161 232
162 231
163 231
164 230
165 230
166 229
167 229
168 229
169 228
170 227
171 227
172 226
173 226
174 225
175 224
176 223
177 223
178 222
178 221
179 220
180 220
181 219
182 218
183 217
183 216
184 215
185 214
185 213
186 212
187 212
187 211
187 210
188 209
188 208
189 207
189 206
190 205
190 204
191 203
191 202
192 201
192 200
193 199
193 198
194 197
194 196
195 195
195 194
195 193
196 192
196 191
196 190
197 189
197 188
198 187
198 186
198 185
198 184
198 183
199 182
199 181
199 180
199 179
199 178
200 177
200 176
200 175
200 174
201 173
201 172
201 171
201 170
201 169
201 168
201 167
202 166
202 165
202 164
202 163
202 162
202 161
202 160
203 159
203 158
203 157
203 156
203 155
203 154
203 153
203 152
203 151
203 150
203 149
203 148
203 147
203 146
203 145
203 144
203 143
203 142
203 141
203 140
203 139
203 138
203 137
203 136
203 135
203 134
203 133
203 132
203 131
203 130
203 129
203 128
203 127
203 126
203 125
203 124
203 123
203 122
203 121
203 120
203 119
203 118
203 117
203 116
203 115
203 114
203 113
203 112
204 111
205 110
205 109
206 108
207 107
208 106
209 105
210 105
211 105
212 104
213 104
214 104
215 104
216 104
217 104
218 103
219 103
220 103
221 103
222 103
223 103
224 102
225 102
226 102
227 102
228 101
229 101
230 100
231 100
232 100
233 100
234 100
235 99
236 99
237 99
238 98
239 98
240 98
241 97
242 97
243 97
244 97
245 97
246 96
247 96
248 96
249 95
250 95
251 95
252 94
253 94
254 94
255 94
256 94
257 93
258 93
259 93
260 92
261 92
262 91
263 91
264 91
265 91
266 91
267 90
268 90
269 89
270 89
271 88
272 88
273 88
274 88
275 87
276 87
277 86
278 85
279 85
279 84
279 83
280 82
281 81
281 80
281 79
280 78
280 77
280 76
279 75
279 74
278 73
277 72
276 71
275 70
274 70
273 69
272 68
271 67
270 67
269 66
268 66
267 65
266 64
265 64
264 63
263 63
262 62
261 62
260 61
259 61
258 60
257 60
256 60
255 59
254 59
253 58
252 58
251 58
250 57
249 57
248 57
247 57
246 57
245 57
244 57
243 57
242 56
241 56
240 56
239 56
238 56
237 56
236 56
235 56
234 56
233 56
232 56
231 56
230 56
229 56
228 56
227 55
226 55
225 55
224 55
223 55
222 55
221 55
220 54
219 54
218 53
218 54
217 55
216 54
216 55
215 56
214 55
213 55
212 55
211 55
210 55
209 55
208 55
207 55
206 55
205 55
205 56
204 57
203 56
202 56
201 56
200 56
199 56
198 56
197 56
197 57
196 58
195 57
194 57
193 58
192 57
191 56
191 55
190 54
190 53
190 52
190 51
190 50
190 49
191 48
191 47
191 46
192 45
192 44
192 43
192 42
191 41
190 40
189 39
189 38
189 37
189 36
189 35
188 34
187 33
186 32
185 31
184 30
183 30
182 29
182 28
181 27
181 26
180 25
180 24
179 23
179 22
178 21
177 21
176 20
175 20
174 20
173 20
172 19
171 19
170 18
170 17
170 16
170 15
169 14
169 13
168 12
167 12
166 11
165 11
164 10
163 10
162 9
161 9
160 9
159 8
158 8
157 8
156 8
155 8
154 8
153 8
152 8
152 9
151 10
150 9
149 9
148 9
147 8
146 7
145 7
144 6
143 6
142 6
141 5
140 5
139 5
138 4
137 4
136 4
