149 2
149 3
149 4
149 5
149 6
149 7
150 7
151 8
152 9
152 10
152 11
152 12
153 13
153 14
154 15
153 16
153 17
153 18
153 19
153 20
153 21
152 22
151 23
150 23
149 24
148 25
147 26
146 26
146 27
145 28
144 28
143 28
142 29
141 29
140 29
139 29
138 30
137 30
136 30
135 30
134 30
133 30
132 31
131 31
130 31
129 31
128 31
127 31
126 31
125 32
124 32
123 32
122 32
121 31
120 30
119 30
118 29
117 29
116 29
115 29
114 29
113 29
112 29
111 30
110 31
109 31
108 32
107 32
106 33
106 34
105 35
104 35
103 35
102 36
101 37
100 37
99 38
98 38
97 38
97 39
97 40
96 41
95 41
94 41
93 42
92 43
91 44
90 45
89 46
88 46
87 47
86 48
85 48
85 49
84 50
83 51
82 51
81 51
80 52
79 52
78 52
77 53
76 53
75 53
74 53
73 53
72 54
71 54
70 54
69 54
68 54
67 55
66 55
65 55
64 55
63 55
62 56
61 56
60 56
59 56
58 57
57 57
56 57
55 57
54 57
53 57
52 57
51 58
50 58
49 58
48 58
47 58
46 58
45 58
44 58
43 57
42 56
41 56
40 55
41 54
40 54
39 53
40 52
39 52
38 51
37 50
36 49
35 48
34 48
33 47
32 46
31 45
30 44
29 43
28 42
27 42
26 41
25 40
24 40
23 39
22 39
21 38
20 37
19 37
18 36
17 36
16 35
15 35
14 34
13 34
12 34
11 34
10 34
9 33
8 33
7 33
6 33
5 33
4 33
3 33
2 33
2 34
2 35
2 36
3 36
4 37
5 38
6 38
7 39
8 40
8 41
9 42
10 43
11 44
11 45
12 46
13 47
14 48
14 49
15 50
15 51
16 52
16 53
17 54
18 55
19 56
19 57
20 58
21 59
22 60
22 61
22 62
23 63
22 64
22 65
22 66
21 67
20 68
20 69
19 70
19 71
18 72
17 73
16 74
16 75
16 76
15 77
15 78
14 79
14 80
14 81
13 82
12 83
12 84
11 85
11 86
11 87
10 88
10 89
10 90
10 91
10 92
10 93
11 93
12 93
13 92
14 92
15 92
16 91
17 91
18 90
19 90
20 89
21 89
22 88
23 88
24 87
25 86
26 85
27 84
28 84
29 83
29 82
30 81
31 81
32 80
32 79
33 78
34 77
35 76
36 75
37 74
38 73
38 72
39 71
40 70
41 69
42 68
43 68
44 68
45 68
46 68
47 68
48 68
49 69
50 69
51 69
52 69
53 69
54 69
55 69
56 70
57 70
58 70
59 70
60 71
61 71
62 71
63 71
64 71
65 71
66 71
67 71
68 72
69 72
70 72
71 72
72 72
73 73
74 73
75 73
76 73
77 74
78 74
79 74
80 74
81 75
82 76
83 77
83 78
84 79
84 80
84 81
85 82
86 83
87 83
88 84
89 85
90 85
91 86
91 87
92 87
93 87
94 88
95 89
96 90
97 91
97 92
97 93
97 94
98 94
99 94
100 94
101 94
102 93
103 93
104 93
105 92
106 92
107 91
108 90
109 89
110 88
111 88
112 88
113 87
114 87
115 87
116 87
117 86
118 86
119 86
120 86
121 86
122 86
123 86
124 86
125 86
126 87
127 87
128 87
129 87
130 87
131 87
132 87
133 87
134 87
135 87
136 88
137 88
138 88
139 88
140 88
141 88
142 88
143 88
144 88
145 88
146 88
147 88
148 88
149 88
150 88
151 88
152 88
153 88
154 88
155 88
156 89
156 90
157 90
158 90
159 90
160 91
160 92
160 93
160 94
160 95
159 96
159 97
159 98
159 99
159 100
159 101
159 102
159 103
160 103
161 103
162 102
163 101
164 100
165 99
165 98
166 97
166 96
167 95
167 94
168 93
168 92
169 91
169 90
169 89
169 88
170 87
171 86
172 86
173 86
174 86
175 86
176 86
177 86
178 86
179 85
180 85
181 85
182 85
183 85
184 85
185 84
186 84
187 84
188 84
189 83
190 82
191 82
192 81
193 81
194 80
195 79
196 79
197 78
198 78
199 78
200 77
201 77
202 76
203 75
204 75
205 74
206 73
207 73
208 73
209 72
210 71
211 71
212 70
213 69
214 68
215 67
216 67
217 66
218 65
219 64
220 63
220 62
221 61
221 60
221 59
221 58
221 57
220 57
219 56
220 55
220 54
219 54
218 53
217 53
216 52
215 51
214 50
213 50
212 49
211 49
210 48
209 48
208 47
207 46
206 45
205 44
204 43
203 42
202 41
201 40
200 39
199 38
198 37
197 37
196 37
195 36
194 36
193 35
192 35
191 35
190 34
189 34
188 34
187 33
186 33
185 33
184 32
183 32
182 31
181 31
180 30
179 30
178 30
177 29
176 29
175 29
174 28
173 28
172 28
171 27
170 27
169 26
168 26
167 26
166 25
167 24
166 24
165 23
166 22
165 22
164 21
165 20
165 19
164 19
163 18
162 17
161 16
162 15
161 15
160 14
159 13
158 12
159 11
158 11
157 10
156 9
157 8
156 8
155 7
154 6
155 5
154 5
153 4
154 3
153 3
152 2
151 2
150 2
