244 4
244 5
243 6
242 5
241 5
240 5
239 5
238 5
237 5
236 5
235 5
234 5
233 5
232 5
231 5
230 5
229 5
228 5
227 5
226 5
225 5
224 5
223 5
222 5
221 5
220 5
219 5
218 5
217 5
216 5
215 5
214 5
213 5
213 6
212 7
211 6
210 6
209 6
208 6
207 6
206 6
205 6
205 7
204 8
203 7
202 7
202 8
201 9
200 8
199 8
198 8
197 8
196 8
196 9
195 10
194 9
193 9
193 10
192 11
191 10
191 11
190 12
189 11
188 11
187 11
186 11
186 12
185 13
184 12
184 13
183 14
182 13
182 14
181 15
180 16
179 15
179 16
178 17
177 16
176 16
175 16
174 16
173 16
172 16
171 15
170 15
169 15
168 14
167 14
166 14
165 13
164 13
163 12
162 12
161 11
161 12
160 13
159 14
158 15
157 16
156 17
155 18
155 19
154 20
153 19
152 19
151 19
150 19
149 19
148 19
148 20
147 21
146 20
145 20
144 20
143 20
142 20
141 20
140 20
139 20
139 21
138 22
137 21
136 21
135 21
134 21
133 21
132 21
131 21
130 21
129 21
128 21
127 20
126 20
126 21
125 22
124 21
123 21
122 21
121 21
120 21
119 21
118 21
117 21
116 21
115 21
114 21
113 21
112 21
111 21
110 21
110 22
109 23
108 22
107 22
106 22
105 22
104 22
103 22
102 22
101 22
100 22
99 22
98 22
97 22
96 22
95 22
94 22
93 22
92 22
91 22
90 22
89 22
89 23
88 24
87 23
86 23
85 23
85 24
84 25
83 24
82 24
81 23
80 23
79 22
78 22
77 21
76 20
75 20
74 19
73 19
72 19
71 19
70 18
69 17
68 17
67 16
66 16
65 16
64 15
63 14
62 14
61 13
60 13
59 12
58 12
57 12
56 12
55 12
55 13
54 14
53 13
52 13
52 14
51 15
50 16
50 17
50 18
50 19
50 20
50 21
51 22
51 23
51 24
52 24
53 25
54 25
55 26
55 27
54 28
53 27
52 27
51 27
51 28
50 29
49 30
48 29
47 29
46 29
46 30
45 31
45 32
44 33
43 32
42 32
41 31
40 31
40 32
39 33
38 32
38 33
37 34
36 33
35 33
34 33
33 33
33 34
32 35
31 34
31 35
30 36
29 37
28 36
27 36
26 36
26 37
25 38
24 39
23 38
23 39
22 40
21 39
20 39
19 39
18 39
18 40
17 41
16 42
15 43
14 42
14 43
13 44
12 43
12 44
11 45
10 44
10 45
9 46
8 45
7 45
6 45
5 45
5 46
4 47
3 48
2 49
2 50
2 51
3 51
4 51
5 51
6 51
7 51
8 51
9 52
10 52
11 52
12 52
13 52
14 52
15 53
16 53
17 53
18 53
19 53
20 53
21 53
22 53
23 53
24 53
25 52
26 52
27 52
28 52
29 52
30 52
31 51
32 51
33 51
34 51
35 50
36 50
37 50
38 50
39 49
40 49
41 49
42 49
43 48
44 48
45 48
46 47
47 47
48 47
49 47
50 46
51 46
52 46
53 46
53 45
54 44
55 44
56 44
57 44
58 43
59 43
60 43
61 42
62 41
63 41
64 41
65 41
66 41
67 40
68 40
69 39
70 39
71 38
72 38
73 38
74 37
75 37
76 37
77 37
78 37
79 37
80 37
81 36
82 37
83 37
84 37
85 37
86 37
87 37
88 37
89 37
90 37
91 37
92 37
93 37
94 37
95 37
96 37
97 37
98 37
99 38
100 38
101 38
102 38
103 38
104 38
105 38
106 38
107 38
108 38
109 38
110 39
111 39
112 39
113 39
114 40
115 40
116 41
117 41
118 41
119 41
120 41
121 41
122 41
123 42
122 43
122 44
121 45
120 44
119 44
118 44
118 45
117 46
117 47
117 48
117 49
116 50
115 49
115 50
114 51
114 52
114 53
114 54
113 55
112 56
112 57
112 58
113 58
114 59
115 59
116 59
117 59
117 58
118 57
119 57
120 57
121 57
122 56
123 56
124 56
125 55
126 55
127 54
128 53
129 53
130 53
131 53
132 53
133 53
134 52
135 51
136 50
137 50
138 50
138 49
139 48
140 48
141 47
142 47
143 47
144 47
145 46
146 47
147 47
148 47
149 47
150 47
151 47
152 47
153 47
154 47
155 47
156 47
157 48
158 48
159 48
160 48
161 48
162 48
163 49
164 49
165 49
166 49
167 49
168 49
169 49
170 50
171 50
172 50
173 50
174 50
175 50
176 50
177 50
178 50
179 50
180 50
181 50
182 50
183 50
184 51
185 51
186 51
187 51
188 51
189 51
190 51
191 51
192 52
193 52
194 52
195 52
196 52
197 52
198 53
199 53
200 53
201 53
202 53
203 53
204 53
205 53
206 53
207 53
208 53
209 53
210 53
211 53
212 54
213 55
214 56
215 57
215 58
216 59
216 60
216 61
216 62
217 62
218 63
218 64
219 65
219 66
220 66
221 66
222 66
223 65
224 65
225 65
226 65
227 65
228 64
229 64
230 64
231 64
232 64
233 63
234 62
235 61
236 61
237 60
238 60
239 59
240 59
241 59
242 59
243 58
243 57
244 56
245 56
246 55
247 55
248 55
249 55
250 54
251 54
252 54
253 54
254 54
255 54
256 54
257 54
258 54
259 54
260 54
261 54
262 53
263 53
264 53
265 53
266 53
267 53
268 53
269 54
269 55
270 55
271 55
272 55
273 55
274 54
275 54
276 53
277 53
278 53
278 52
279 51
280 51
281 50
282 50
283 49
284 48
285 48
286 48
287 47
288 47
289 47
290 47
291 47
292 47
293 47
294 47
295 47
296 46
297 46
298 46
299 46
300 45
301 45
302 45
303 45
304 45
305 44
306 44
307 44
308 44
309 44
310 45
310 46
311 46
312 46
313 46
313 45
313 44
314 43
315 43
316 43
317 42
318 42
319 42
320 42
321 42
322 41
323 41
324 41
325 41
326 41
327 41
328 41
329 40
330 40
331 40
332 40
333 39
334 39
335 38
336 38
337 38
338 38
339 38
340 38
341 38
342 38
343 37
344 37
345 37
346 36
347 36
348 36
349 36
350 36
351 35
352 35
353 35
354 35
355 34
356 34
357 34
358 33
359 33
360 33
361 33
362 32
363 31
363 30
363 29
363 28
363 27
363 26
362 25
362 24
361 23
360 23
359 22
358 22
357 21
356 21
355 20
354 20
353 20
352 20
351 19
350 19
349 19
348 19
347 19
346 19
345 19
344 19
343 18
342 18
341 17
340 17
339 16
338 16
337 16
336 16
335 16
334 16
333 16
332 16
331 16
330 15
330 14
329 13
328 13
327 12
326 12
325 12
324 11
323 11
322 11
321 11
320 11
319 11
318 11
317 11
316 11
315 11
314 11
313 11
312 11
311 10
310 10
310 11
309 12
308 11
307 11
306 11
305 11
304 11
303 11
302 11
301 11
300 11
299 11
298 11
297 11
296 11
295 11
294 11
293 11
292 11
291 11
290 11
289 11
288 11
287 11
286 11
285 11
284 11
283 11
282 10
281 10
280 10
279 10
278 10
277 9
276 9
275 9
274 9
273 8
272 8
271 8
270 8
269 8
268 8
267 8
266 8
265 7
264 7
263 7
262 7
261 7
260 7
259 7
258 6
257 6
256 6
255 6
254 6
253 6
252 6
251 6
250 6
249 6
248 6
247 6
246 5
245 5
