152 2
151 3
150 4
149 4
148 4
147 4
146 4
145 4
144 5
143 5
142 5
141 5
140 4
139 3
138 3
137 3
136 3
135 4
134 5
133 5
132 5
131 6
130 6
129 6
128 6
127 6
126 6
125 6
124 6
123 6
122 6
121 6
120 6
119 6
118 6
117 6
116 6
115 6
114 6
113 7
112 7
111 6
110 5
109 5
108 5
107 5
106 6
105 6
104 6
104 7
103 8
102 8
101 8
100 8
99 9
98 9
97 9
96 8
95 7
94 7
93 7
92 7
91 7
90 7
89 7
88 8
87 8
86 7
85 6
84 6
83 6
82 6
82 7
81 8
80 8
80 9
79 10
79 11
79 12
78 13
77 13
76 13
75 13
74 14
73 14
72 15
71 15
70 16
69 17
68 17
67 18
66 18
65 19
64 19
63 19
63 20
62 21
61 21
61 22
60 23
59 24
58 24
57 24
56 25
55 25
54 24
53 23
52 23
51 23
50 23
50 24
50 25
50 26
50 27
49 28
48 28
47 29
46 29
45 30
45 31
44 32
43 32
42 32
41 33
40 34
39 34
38 34
37 35
36 35
35 36
34 37
33 37
32 38
31 38
30 38
29 39
28 40
27 40
26 41
25 42
24 42
23 43
22 44
21 45
20 45
19 46
18 46
17 46
16 47
15 47
14 48
13 48
13 49
12 50
11 50
10 51
9 52
8 53
7 53
7 54
6 55
5 56
4 56
4 57
4 58
4 59
3 60
2 60
2 61
2 62
2 63
3 64
3 65
3 66
3 67
3 68
4 69
4 70
5 71
5 72
5 73
5 74
6 74
7 75
8 75
9 75
10 75
11 75
12 75
13 76
14 77
15 77
16 78
16 79
17 80
18 80
19 80
20 80
21 81
21 82
22 82
23 82
24 82
25 82
26 83
26 84
26 85
27 85
28 85
29 85
30 85
31 85
32 85
33 86
34 86
35 86
36 87
37 87
38 87
39 88
40 89
41 89
42 89
43 90
44 91
44 92
44 93
45 93
46 93
47 94
48 94
49 94
50 95
51 95
52 96
53 96
54 97
55 97
56 97
57 97
58 97
59 96
60 97
60 98
61 98
62 98
63 98
64 98
65 99
66 100
66 101
67 101
68 101
69 100
70 101
71 101
72 102
72 103
72 104
73 104
74 104
75 105
76 105
77 105
78 105
79 105
80 106
81 106
82 106
83 106
84 107
85 107
86 107
87 108
88 108
89 108
90 108
91 109
92 109
93 109
94 109
95 109
96 108
97 108
98 108
99 108
100 109
101 109
102 109
103 109
104 109
105 109
106 109
107 109
108 109
109 109
110 109
111 109
112 109
113 109
114 109
115 109
116 109
117 110
117 111
118 111
119 111
120 111
121 110
122 109
123 110
124 110
125 110
126 110
127 111
127 112
128 112
129 112
130 112
131 112
132 112
133 112
134 111
135 110
136 110
137 111
138 111
139 111
140 112
140 113
141 113
142 113
143 113
144 113
145 113
146 113
147 113
148 113
149 112
149 111
150 110
151 110
152 111
153 112
154 112
155 112
156 112
157 111
158 110
159 110
160 111
161 111
162 111
163 111
164 110
165 110
166 110
167 110
168 110
169 109
169 108
170 107
171 107
172 107
173 107
174 107
175 107
176 107
177 106
177 105
178 104
179 105
179 106
180 106
181 105
181 104
182 103
183 102
184 102
185 101
186 100
187 99
188 99
189 99
190 99
191 98
191 97
192 96
192 95
193 94
194 94
195 94
196 93
197 92
198 91
198 90
199 89
200 88
200 87
201 86
202 87
202 88
203 89
204 89
205 89
206 89
207 88
207 87
208 86
209 85
209 84
210 83
210 82
210 81
209 81
208 80
209 79
209 78
209 77
209 76
209 75
209 74
210 73
211 73
212 72
212 71
213 70
214 69
215 68
216 67
217 66
218 65
218 64
219 63
220 62
221 61
221 60
222 59
223 58
224 57
224 56
225 55
225 54
225 53
225 52
225 51
226 50
226 49
226 48
226 47
226 46
226 45
226 44
226 43
226 42
225 42
224 41
225 40
224 40
223 39
222 38
221 37
222 36
222 35
221 35
220 34
219 33
220 32
220 31
219 31
218 30
217 30
216 30
215 29
214 28
213 27
212 26
211 25
210 25
209 24
210 23
209 23
208 22
207 21
206 20
205 19
204 18
203 17
202 17
201 17
200 17
199 16
198 15
197 15
196 15
195 14
194 14
193 13
192 13
191 12
190 12
189 11
188 11
187 11
186 11
185 10
184 9
183 8
182 8
181 7
180 7
179 7
178 6
177 6
176 6
175 6
174 5
173 5
172 5
171 4
170 4
169 4
168 4
167 4
166 4
165 4
164 4
163 3
162 3
161 3
160 3
159 3
158 3
157 3
156 3
155 3
154 2
153 2
