44 2
44 3
44 4
44 5
44 6
44 7
44 8
44 9
44 10
44 11
44 12
45 13
46 14
46 15
46 16
46 17
47 18
47 19
47 20
48 21
49 21
50 22
51 22
52 22
53 23
52 24
51 24
50 25
49 25
48 25
47 25
46 25
45 25
44 26
43 26
42 26
41 26
40 27
39 27
38 27
37 28
36 28
35 28
34 28
33 28
32 29
31 29
30 28
29 28
28 28
27 27
26 27
25 26
24 26
23 26
22 25
21 25
20 24
19 23
18 23
17 22
16 22
15 22
14 22
13 21
12 21
11 21
10 21
9 21
8 21
8 22
7 23
6 24
5 25
5 26
5 27
4 28
4 29
3 30
2 30
2 31
2 32
2 33
3 34
3 35
3 36
3 37
3 38
3 39
3 40
4 41
4 42
4 43
4 44
4 45
4 46
5 46
6 46
7 47
8 47
9 48
10 49
11 49
12 49
13 49
14 49
15 49
16 48
17 48
18 47
19 47
20 47
21 46
22 46
23 46
24 46
25 46
26 45
27 45
28 45
29 45
30 44
31 44
32 44
33 44
34 44
35 44
36 44
37 44
38 44
39 45
40 45
41 45
42 45
43 45
44 46
45 46
46 46
47 46
48 46
49 46
50 46
51 47
51 48
50 49
49 49
48 50
47 50
47 51
47 52
47 53
46 54
46 55
46 56
46 57
46 58
46 59
46 60
46 61
46 62
46 63
46 64
47 65
47 66
48 66
49 66
50 66
51 66
52 66
53 66
54 66
55 66
56 66
57 66
58 66
59 65
60 65
61 65
62 65
63 64
64 63
65 62
65 61
66 60
67 60
68 59
69 58
69 57
70 56
70 55
70 54
71 53
71 52
72 51
73 52
73 53
74 54
75 54
76 54
77 55
78 55
79 56
80 56
81 57
81 58
81 59
82 59
83 59
84 60
84 61
85 62
86 62
87 62
88 62
89 63
90 64
91 64
92 65
92 66
92 67
93 67
94 67
95 68
96 68
97 68
98 68
99 69
100 69
101 69
102 69
103 70
104 70
105 71
106 71
107 71
108 71
109 72
110 72
111 72
112 73
113 73
114 73
115 73
116 73
117 73
118 74
119 74
120 74
121 74
122 73
123 73
124 73
125 73
126 73
127 73
128 73
129 73
130 73
131 74
132 74
133 74
134 73
135 73
136 73
137 72
138 72
139 72
140 72
141 72
142 72
143 72
144 72
145 72
146 72
147 71
148 70
149 70
150 70
151 70
152 70
153 69
154 69
155 68
156 67
157 67
158 67
159 66
159 65
160 64
161 64
162 63
163 63
164 62
165 62
166 61
167 61
168 61
169 61
170 60
171 60
172 60
173 60
174 59
175 59
176 60
177 60
178 60
179 60
180 60
181 59
182 59
183 59
184 58
185 58
186 58
187 57
188 56
189 56
190 55
191 54
192 54
193 53
194 53
195 52
196 51
197 50
198 49
199 48
200 47
201 46
201 45
202 44
202 43
203 42
203 41
203 40
203 39
203 38
203 37
203 36
202 36
201 35
202 34
202 33
201 33
200 32
201 31
200 31
199 30
200 29
199 29
198 28
199 27
199 26
199 25
199 24
198 24
197 23
198 22
197 22
196 21
195 20
194 19
193 19
192 18
191 17
190 16
189 16
188 16
187 15
186 14
185 14
184 14
183 15
182 15
181 15
180 14
179 14
178 13
177 13
176 13
175 13
174 12
173 12
172 11
171 11
170 11
169 11
168 10
167 10
166 10
165 9
164 9
163 9
162 9
161 9
160 9
159 9
158 9
157 9
156 9
155 8
154 8
153 8
152 8
151 8
150 8
149 8
148 8
147 8
146 8
145 8
144 8
143 8
142 8
141 7
140 7
139 7
138 7
137 6
136 6
135 6
134 6
133 6
132 6
131 6
130 6
129 6
128 5
127 5
126 5
125 5
124 5
123 4
122 4
121 4
120 4
119 5
118 5
117 5
116 5
115 5
114 4
113 4
112 4
111 4
110 4
110 5
109 6
108 6
107 6
106 6
105 6
104 6
104 7
103 8
102 8
101 8
100 8
99 8
98 9
97 9
96 9
95 10
94 10
93 10
92 10
91 11
90 12
89 12
88 12
87 12
86 12
85 13
84 13
83 13
82 14
81 14
80 14
79 14
78 15
77 16
76 16
75 16
74 15
73 14
72 13
71 12
70 12
69 11
68 10
67 9
66 9
65 8
64 7
63 7
62 6
61 6
60 5
59 5
58 5
57 4
56 4
55 4
54 3
53 3
52 3
51 3
50 3
49 3
48 3
47 2
46 2
45 2
