152 2
151 3
150 3
149 3
148 3
147 4
146 4
145 5
144 6
144 7
143 8
142 9
141 10
141 11
140 12
140 13
139 14
139 15
138 16
138 17
138 18
138 19
137 20
136 20
136 21
136 22
135 23
135 24
134 25
133 26
132 25
131 25
130 25
129 25
128 25
127 25
126 25
125 24
124 24
123 23
122 23
121 23
120 23
119 23
118 23
117 23
116 23
115 23
114 23
113 23
112 22
111 21
110 21
109 21
108 21
107 21
106 20
105 20
104 19
103 19
102 19
101 19
100 19
99 20
98 20
97 19
96 18
95 18
94 18
93 18
92 18
91 18
90 18
89 18
88 18
87 18
86 19
85 19
84 19
83 19
82 20
81 20
80 19
79 19
78 19
77 19
76 19
75 19
74 19
73 19
72 19
71 19
70 19
69 19
68 20
67 20
66 20
65 20
64 20
63 20
62 20
61 19
60 19
59 18
58 18
57 18
56 18
55 18
54 19
53 19
52 19
51 19
50 19
49 19
48 20
47 20
46 20
45 20
44 20
43 20
42 20
41 21
40 21
39 21
38 22
37 22
36 22
35 22
34 22
33 22
32 22
31 22
30 23
29 23
28 23
27 24
26 24
25 25
25 26
25 27
24 28
23 29
23 30
23 31
22 32
21 32
20 32
19 32
19 33
19 34
19 35
18 36
17 36
16 37
15 37
14 37
14 38
14 39
14 40
13 41
12 41
12 42
11 43
10 43
9 44
8 45
7 45
7 46
7 47
7 48
7 49
6 50
6 51
6 52
5 53
4 54
3 55
2 55
2 56
2 57
2 58
3 59
3 60
4 61
4 62
5 63
6 64
6 65
7 65
8 66
9 67
9 68
10 69
11 70
12 70
13 70
14 70
15 70
16 71
17 72
17 73
18 73
19 73
20 74
20 75
21 75
22 76
23 76
24 77
25 77
26 78
27 78
28 79
29 79
30 80
31 80
32 81
33 81
34 81
35 82
36 82
37 83
38 83
39 84
40 84
41 85
41 86
42 86
43 86
44 87
44 88
45 88
46 88
47 87
48 87
49 87
50 87
51 88
52 88
53 88
54 88
55 88
56 88
57 89
58 89
59 89
60 89
61 88
62 89
62 90
62 91
63 92
64 92
65 91
66 90
67 90
68 90
69 89
70 89
71 89
72 89
73 89
74 89
75 90
76 90
77 90
78 90
79 90
80 90
81 90
82 90
83 90
84 90
85 90
86 90
87 91
87 92
88 92
89 92
90 92
91 91
92 91
93 91
94 91
95 92
96 92
97 92
98 92
99 92
100 91
101 91
102 91
103 91
104 91
105 91
106 91
107 91
108 91
109 91
110 90
111 90
112 90
113 90
114 90
115 90
116 89
117 89
118 89
119 89
120 88
121 88
122 88
123 88
124 87
125 87
126 87
127 87
128 87
129 86
130 86
131 86
132 85
133 85
134 84
135 84
136 83
137 83
138 83
139 82
140 82
141 82
142 81
143 81
144 80
145 79
146 78
147 77
148 77
149 76
150 75
151 75
152 75
153 76
153 77
154 78
154 79
154 80
154 81
155 82
155 83
156 84
156 85
157 86
158 87
158 88
159 89
159 90
160 91
161 92
161 93
161 94
161 95
162 95
163 95
164 94
165 94
166 94
167 94
168 94
169 94
170 94
171 93
171 92
172 91
172 90
172 89
173 88
174 88
175 88
176 87
176 86
177 85
177 84
177 83
177 82
177 81
177 80
177 79
177 78
177 77
177 76
177 75
177 74
177 73
177 72
177 71
177 70
177 69
177 68
177 67
176 67
175 66
174 65
173 64
172 64
171 63
172 62
173 61
174 61
175 61
176 61
177 61
178 62
179 62
180 62
181 61
182 61
183 61
184 61
185 61
186 61
187 61
188 61
189 62
190 62
191 62
192 61
193 62
194 62
195 63
195 64
195 65
196 65
197 65
198 65
199 66
200 66
201 66
202 67
203 67
204 68
205 69
206 69
207 70
208 70
209 70
210 71
211 71
212 71
213 72
214 72
215 72
216 72
217 72
218 72
219 72
220 72
221 72
222 72
223 72
224 71
224 70
225 69
226 68
227 67
227 66
228 65
229 65
230 64
230 63
229 62
228 61
229 60
229 59
229 58
229 57
229 56
229 55
230 54
230 53
231 52
231 51
232 50
231 50
230 49
230 48
231 47
231 46
232 45
231 45
230 44
229 43
228 42
229 41
229 40
228 40
227 39
228 38
227 38
226 37
227 36
227 35
226 35
225 34
226 33
226 32
226 31
226 30
225 30
224 29
225 28
225 27
224 27
223 26
224 25
223 25
222 24
223 23
222 23
221 22
220 21
219 20
220 19
219 19
218 18
217 17
216 17
215 16
214 15
213 15
212 14
211 14
210 14
209 14
208 14
207 13
206 13
205 13
205 14
204 15
203 16
202 16
201 17
200 18
199 19
199 20
199 21
198 22
197 22
196 22
196 23
196 24
195 25
194 26
194 27
193 28
193 29
193 30
192 31
191 31
190 31
190 32
190 33
190 34
190 35
189 36
188 37
187 37
186 38
185 38
184 38
183 38
182 38
181 38
180 38
179 38
178 38
177 38
176 38
175 39
174 39
173 39
172 39
171 39
170 39
169 38
168 38
167 38
166 38
165 38
164 38
163 38
162 38
161 37
160 37
159 36
158 35
157 35
156 36
155 36
154 36
153 35
153 34
154 33
155 32
156 31
157 30
158 29
159 29
160 29
161 28
162 27
162 26
163 25
163 24
163 23
164 22
165 21
165 20
166 19
165 19
164 19
163 19
162 18
163 17
163 16
163 15
163 14
163 13
163 12
162 12
161 11
162 10
161 10
160 9
159 8
160 7
159 7
158 6
157 5
156 4
157 3
156 3
155 2
154 2
153 2
