107 2
106 3
105 3
104 3
103 3
102 3
101 3
100 4
99 4
98 4
97 4
96 4
95 3
94 3
93 3
93 4
93 5
92 6
91 6
90 6
89 6
88 6
87 6
86 6
85 7
84 8
83 8
82 8
81 8
80 8
79 8
78 9
77 9
76 9
75 9
74 10
73 9
72 9
71 8
70 8
69 8
68 8
67 8
66 8
65 8
64 7
63 7
62 7
61 7
60 7
59 7
58 7
57 7
56 7
55 7
54 7
53 8
52 8
51 8
50 8
49 8
48 8
47 8
46 8
45 9
45 10
45 11
45 12
45 13
45 14
46 15
45 16
44 17
44 18
44 19
44 20
43 21
43 22
43 23
43 24
43 25
44 26
44 27
44 28
44 29
45 29
46 29
47 29
48 29
49 29
50 29
51 30
50 31
49 31
48 31
47 32
46 33
45 33
44 33
43 33
42 33
41 34
40 34
39 34
38 35
37 35
36 35
35 36
34 36
33 36
32 37
31 37
30 37
29 36
28 36
27 36
26 36
25 36
24 35
23 35
22 34
21 34
20 34
19 33
18 33
17 33
16 32
15 32
14 32
13 32
12 32
11 32
10 32
9 32
8 32
7 32
6 33
5 34
5 35
4 36
4 37
4 38
4 39
4 40
3 41
2 42
2 43
2 44
2 45
2 46
3 47
3 48
4 49
4 50
4 51
5 52
5 53
6 54
7 54
8 55
9 55
10 56
11 56
12 56
13 56
14 56
15 56
16 56
17 55
18 55
19 54
20 54
21 53
22 53
23 53
24 53
25 53
26 52
27 52
28 52
29 51
30 51
31 51
32 50
33 50
34 50
35 50
36 50
37 51
38 51
39 51
40 52
40 53
40 54
40 55
40 56
40 57
40 58
40 59
40 60
40 61
41 62
41 63
41 64
41 65
42 66
43 67
44 68
45 69
45 70
46 70
47 71
47 72
48 73
49 73
50 74
51 75
52 75
53 75
54 75
55 75
56 75
57 74
58 74
59 73
60 73
61 72
62 72
63 71
64 70
64 69
65 68
65 67
66 66
67 66
68 65
69 64
70 64
71 64
72 64
73 65
74 66
74 67
75 67
76 67
77 68
78 68
79 68
80 69
80 70
80 71
80 72
81 72
82 72
83 72
84 72
85 72
86 73
87 74
87 75
87 76
88 76
89 76
90 77
91 77
92 77
93 78
93 79
94 79
95 79
96 79
97 79
98 80
99 81
100 81
101 81
102 81
103 82
104 82
105 83
106 83
107 83
108 82
109 82
110 82
111 83
112 83
113 83
114 83
115 83
116 83
117 84
118 84
119 84
120 84
121 84
122 84
123 84
124 84
125 84
126 84
127 84
128 84
129 84
130 84
131 84
132 84
133 84
134 84
135 84
136 84
137 84
138 84
139 84
140 84
141 84
142 84
143 84
144 84
145 84
146 84
147 84
148 84
149 84
150 83
151 83
152 83
153 83
154 83
155 83
156 82
157 81
157 80
158 79
159 78
160 78
161 78
162 78
163 77
164 76
165 75
166 74
167 73
168 73
169 72
170 71
171 72
171 73
172 73
173 73
174 72
175 72
176 72
177 72
178 72
179 72
180 72
181 71
182 71
183 71
184 70
185 70
186 70
187 69
188 69
189 68
190 68
191 68
192 68
193 67
194 67
195 67
196 66
197 66
198 66
199 66
200 66
201 65
202 64
202 63
203 62
203 61
203 60
204 59
204 58
204 57
205 56
206 55
207 54
208 53
208 52
209 51
209 50
209 49
208 49
207 48
206 47
205 46
206 45
205 45
204 44
205 43
204 43
203 42
202 41
203 40
203 39
203 38
202 38
201 37
202 36
202 35
202 34
202 33
202 32
201 32
200 31
201 30
200 30
199 29
200 28
199 28
198 27
197 26
196 25
197 24
196 24
195 23
196 22
195 22
194 21
193 21
192 22
191 22
190 21
189 20
188 19
187 18
186 17
185 17
184 16
183 15
182 15
181 15
180 14
179 13
178 13
177 13
176 12
175 11
174 10
173 10
172 10
171 10
170 10
169 10
168 9
167 9
166 8
165 8
164 8
163 7
162 7
161 7
160 8
159 8
158 8
157 8
156 7
155 6
154 6
153 6
152 6
151 5
150 5
149 5
148 5
147 5
146 4
145 3
144 3
143 3
142 4
141 4
140 3
139 3
138 3
137 2
136 2
135 2
134 3
133 3
132 4
131 3
130 3
129 3
128 3
127 3
126 3
125 3
124 3
123 3
122 3
121 2
120 2
119 2
118 3
117 3
116 3
115 3
114 3
113 3
112 3
111 3
110 3
109 2
108 2
