163 7
162 8
161 8
160 8
159 8
158 8
157 8
156 8
155 8
154 8
153 8
152 8
151 9
150 9
149 9
148 9
147 9
146 9
145 9
144 9
143 10
142 10
141 10
140 10
139 11
138 11
137 11
136 11
135 11
134 11
133 11
132 11
131 11
130 11
129 11
128 11
127 11
126 11
126 12
125 13
124 13
123 14
122 14
121 14
120 14
119 14
118 14
117 14
116 15
115 15
114 15
113 16
112 16
111 16
110 16
109 17
108 17
107 18
106 18
105 18
104 19
103 19
102 19
101 20
100 20
99 20
98 21
97 21
96 22
95 22
94 22
93 22
92 23
91 23
90 24
89 24
88 24
87 24
86 24
85 25
84 25
83 25
82 25
81 26
80 26
79 26
78 26
77 26
76 27
75 27
74 27
73 28
72 28
71 28
70 29
69 29
68 29
67 30
66 30
65 30
64 30
63 30
62 31
61 31
60 31
59 31
58 32
57 32
56 32
55 32
54 32
53 32
52 32
51 32
50 33
49 33
48 33
47 33
46 34
45 34
44 34
43 34
42 34
41 34
40 35
39 35
38 35
37 35
36 35
35 35
34 36
33 36
32 36
31 36
30 36
29 37
28 37
27 37
26 37
25 37
24 37
23 38
22 38
21 38
21 39
20 40
19 40
18 40
17 40
16 40
15 40
14 40
13 40
12 40
11 40
10 40
9 40
8 41
7 41
6 41
5 42
4 42
3 43
2 44
2 45
2 46
2 47
2 48
2 49
3 50
3 51
4 52
5 53
6 54
6 55
7 56
8 56
9 57
10 58
11 59
12 59
13 60
14 60
15 60
16 61
17 61
18 62
19 62
20 62
21 63
22 63
23 63
24 64
25 65
26 65
27 65
28 66
29 67
30 67
31 67
32 68
33 69
34 70
35 70
36 71
37 72
38 72
39 73
40 73
41 73
42 74
42 75
43 75
44 75
45 76
46 76
47 77
48 77
49 77
50 78
51 78
52 79
53 79
54 79
55 80
56 80
57 80
58 81
59 81
60 82
61 82
62 82
63 82
64 83
65 83
66 83
67 84
68 84
69 84
70 84
71 84
72 85
73 85
74 86
75 86
76 87
77 87
78 87
79 87
80 87
81 88
82 88
83 88
84 88
85 89
86 89
87 89
88 90
89 90
90 91
91 91
92 91
93 91
94 91
95 91
96 92
97 92
98 93
99 93
100 93
101 93
102 94
102 95
103 96
104 96
105 96
106 96
107 96
108 96
109 96
110 95
111 95
112 96
113 96
114 96
115 96
116 96
117 96
118 96
119 96
120 96
121 96
122 96
123 96
124 96
125 96
126 96
127 96
128 96
129 96
130 96
131 96
132 96
133 96
134 96
135 96
136 96
137 96
138 96
139 96
140 96
141 96
142 96
143 96
144 96
145 96
146 96
147 96
148 96
149 96
150 96
151 96
152 96
153 96
154 96
155 96
156 96
157 96
158 96
159 96
160 96
161 96
162 96
163 96
164 96
165 96
166 96
167 96
168 96
169 96
170 96
171 96
172 96
173 96
174 96
175 96
176 96
177 96
178 96
179 96
180 96
181 96
182 96
183 96
184 96
185 96
186 96
187 96
188 96
189 96
190 96
191 96
192 96
193 96
194 96
195 96
196 96
197 96
198 96
199 96
200 96
201 96
202 96
203 96
204 96
205 96
206 96
207 95
208 95
209 95
210 95
211 94
212 94
213 94
214 93
215 93
216 93
217 92
218 92
219 92
220 92
221 91
222 91
223 90
224 90
225 89
226 88
227 88
228 88
229 88
230 87
231 86
232 86
233 85
234 84
235 84
236 84
237 84
238 83
239 82
240 81
241 80
242 79
243 78
244 77
245 77
246 77
247 77
248 77
249 76
250 75
250 74
251 73
251 72
251 71
252 70
253 70
254 70
255 70
256 69
257 68
258 68
259 67
259 66
260 65
261 64
262 63
263 63
264 63
265 63
266 62
267 61
268 60
269 59
270 58
270 57
271 56
271 55
272 54
273 54
274 53
274 52
275 51
275 50
275 49
275 48
275 47
275 46
275 45
275 44
275 43
274 43
273 42
272 41
271 41
270 40
269 39
268 39
267 38
266 37
265 36
264 35
263 35
262 35
261 34
260 33
259 32
258 32
257 32
256 31
255 31
254 31
253 30
252 30
251 29
250 29
249 29
248 29
247 28
246 28
245 28
244 27
243 27
242 26
241 25
240 25
239 25
238 24
237 24
236 24
235 24
234 24
233 23
232 23
231 23
230 23
229 22
228 22
227 22
226 22
225 22
224 22
223 22
222 22
221 21
220 21
219 21
218 20
217 20
216 19
217 18
217 17
217 16
216 16
215 15
214 15
213 15
212 15
211 15
210 14
209 14
208 14
207 14
206 13
205 13
204 13
203 12
202 12
201 12
200 12
199 12
198 11
197 11
196 11
195 11
194 10
193 10
192 10
191 10
190 9
189 9
188 9
187 9
186 9
185 9
184 9
183 8
182 8
181 8
180 8
179 8
178 8
177 8
176 8
175 8
174 8
173 8
172 8
171 8
170 8
169 7
168 7
167 7
166 7
165 7
164 7
