69 4
68 5
67 6
66 6
65 6
64 6
63 6
62 6
61 6
60 7
59 7
58 7
57 7
56 7
55 7
54 7
53 7
52 7
52 8
51 9
50 9
49 9
48 9
47 9
46 10
45 10
44 10
43 10
42 11
41 11
40 12
39 13
38 13
37 13
36 14
35 15
34 15
34 16
33 17
32 17
31 18
30 19
29 20
29 21
28 22
27 22
26 23
25 23
25 24
24 25
23 25
22 25
22 26
21 27
20 27
20 28
19 29
18 29
17 30
17 31
17 32
16 33
15 33
15 34
15 35
15 36
14 37
13 37
12 38
11 38
10 39
10 40
10 41
9 42
9 43
9 44
8 45
7 45
6 45
5 46
5 47
5 48
4 49
4 50
4 51
3 52
2 53
2 54
2 55
2 56
2 57
2 58
2 59
2 60
2 61
2 62
3 63
3 64
3 65
3 66
4 67
5 68
5 69
5 70
6 70
7 70
8 71
8 72
8 73
9 73
10 74
10 75
11 76
12 76
13 77
13 78
14 79
15 79
16 80
16 81
16 82
16 83
16 84
16 85
17 85
18 85
19 84
20 85
21 86
21 87
21 88
22 89
23 90
24 90
25 90
26 91
27 92
27 93
27 94
28 95
28 96
28 97
29 97
30 98
30 99
30 100
30 101
31 101
32 101
33 102
33 103
33 104
34 104
35 104
36 105
36 106
37 106
38 106
39 106
40 106
41 106
42 107
43 108
43 109
43 110
44 110
45 110
46 110
47 110
48 109
49 109
50 109
51 109
52 109
53 109
54 110
54 111
54 112
55 113
56 114
56 115
56 116
56 117
57 117
58 117
59 117
60 116
60 115
61 114
62 114
63 115
64 115
65 115
66 115
67 115
68 115
69 115
70 115
71 115
72 115
73 115
74 115
75 114
76 115
77 115
78 115
79 115
80 115
81 115
82 115
83 115
84 115
85 115
86 115
87 115
88 115
89 115
90 115
91 115
92 114
93 114
94 114
95 115
96 115
97 115
98 114
99 114
100 113
100 112
101 111
102 111
103 112
103 113
104 113
105 113
106 113
107 113
108 113
109 113
110 112
111 112
112 112
113 113
113 114
113 115
113 116
114 117
114 118
114 119
113 120
112 120
111 120
111 121
111 122
111 123
112 124
113 124
114 124
115 124
116 124
117 124
118 124
119 124
120 123
121 122
121 121
122 120
122 119
123 118
124 117
125 117
126 117
127 117
128 116
128 115
129 114
130 114
131 115
132 116
132 117
133 117
134 117
135 117
136 116
136 115
137 114
137 113
138 112
139 111
140 111
141 111
142 111
143 110
144 110
145 110
146 109
146 108
147 107
147 106
147 105
148 104
148 103
148 102
149 101
150 101
151 100
152 100
153 99
154 98
155 98
156 98
157 98
158 97
159 96
160 96
161 96
162 95
163 95
164 95
165 94
166 94
167 93
168 93
169 92
170 92
171 91
172 91
173 91
174 90
175 89
176 89
177 89
178 88
179 87
180 86
181 85
182 84
183 83
184 82
185 81
186 80
187 80
188 79
189 79
190 79
191 79
192 79
193 79
194 78
195 77
196 77
197 76
197 75
198 74
199 73
200 72
200 71
201 70
202 70
203 70
204 70
205 69
206 68
207 67
208 66
209 66
210 65
211 64
211 63
212 62
212 61
212 60
212 59
212 58
212 57
212 56
212 55
212 54
213 53
213 52
212 52
211 51
212 50
212 49
212 48
212 47
212 46
212 45
211 45
210 44
209 43
208 43
207 42
208 41
207 41
206 40
205 39
204 39
203 38
202 38
201 37
200 37
199 36
198 35
197 35
196 35
195 34
196 33
195 33
194 32
193 32
192 31
191 31
190 31
189 31
188 30
187 30
186 29
185 28
184 27
183 26
182 26
181 26
180 25
179 24
178 24
177 24
176 24
175 24
174 24
173 24
172 24
171 23
172 22
171 22
170 21
169 21
168 21
167 20
166 19
165 19
164 20
163 20
162 20
161 19
160 19
159 18
158 17
157 17
156 16
155 15
154 14
153 14
152 14
151 14
150 14
149 14
148 13
147 13
146 12
145 12
144 12
143 12
142 11
141 11
140 11
139 11
138 10
137 10
136 10
135 9
134 9
133 8
132 8
131 8
130 8
129 8
128 7
127 7
126 7
125 7
124 7
123 6
122 6
121 6
120 6
119 6
118 6
117 5
116 5
115 5
114 5
113 5
112 5
111 5
110 4
109 4
108 4
107 4
106 4
105 4
104 4
103 4
102 4
101 4
100 4
99 4
98 4
97 4
96 4
95 4
94 4
93 5
92 5
91 5
90 5
89 4
88 4
87 4
86 4
85 4
84 4
83 4
82 5
81 5
80 5
79 5
78 5
77 6
76 6
75 6
74 5
73 4
72 4
71 4
70 4
