276 4
276 5
275 6
275 7
274 8
274 9
274 10
273 11
272 10
271 10
271 11
270 12
269 13
268 13
267 12
266 12
265 12
265 13
264 14
263 15
263 16
263 17
264 18
264 19
264 20
265 21
265 22
266 23
267 24
268 25
268 26
269 27
269 28
269 29
269 30
268 31
267 30
266 30
265 30
264 30
263 30
262 30
261 30
260 30
259 30
258 29
257 29
256 29
255 29
254 29
253 29
252 29
251 29
250 29
249 29
248 29
247 29
246 29
245 29
244 29
243 29
242 29
241 29
240 29
239 29
238 29
237 29
236 29
235 29
234 29
233 29
232 28
231 28
231 29
230 30
229 29
228 29
227 29
226 29
225 29
225 30
224 31
223 30
222 30
221 30
220 30
219 30
218 30
217 30
216 30
215 30
214 30
213 30
212 30
211 30
210 30
209 30
208 30
207 30
206 30
205 30
204 30
203 30
202 30
201 30
200 30
199 30
198 30
197 30
196 30
195 30
194 30
193 30
192 30
191 30
190 30
189 30
188 30
187 30
186 30
185 30
184 30
183 30
182 30
181 30
180 30
179 30
178 30
177 30
176 30
175 30
174 30
174 31
173 32
172 31
171 31
170 31
169 31
168 31
167 31
166 31
165 31
165 32
164 33
163 32
162 32
162 33
161 34
160 33
159 33
158 33
157 33
157 34
156 35
155 34
154 34
154 35
153 36
152 35
151 35
151 36
150 37
149 36
148 36
147 36
147 37
146 38
145 37
145 38
144 39
143 40
142 39
141 39
141 40
140 41
139 42
138 43
137 42
136 42
135 42
134 42
133 42
132 42
131 42
130 41
129 40
128 40
127 39
126 39
125 39
124 39
123 39
122 39
121 39
120 39
120 40
119 41
118 42
117 43
116 42
116 43
115 44
115 45
114 46
113 47
112 48
111 49
110 50
109 49
108 49
107 49
106 49
105 49
105 50
104 51
103 50
102 50
101 50
100 50
99 49
98 49
98 50
97 51
96 50
95 50
94 50
93 50
93 51
92 52
91 51
90 51
89 51
88 51
88 52
87 53
86 52
85 52
84 52
83 52
82 52
81 52
81 53
80 54
79 53
78 53
77 53
76 53
75 53
74 53
73 53
72 53
71 53
70 52
69 52
68 51
67 51
66 50
65 50
64 49
63 49
62 49
61 48
60 48
59 47
58 46
57 46
56 45
55 45
54 44
53 44
52 43
51 43
50 42
49 42
48 42
47 42
46 42
45 42
44 42
43 41
42 41
42 42
41 43
40 44
39 45
39 46
39 47
38 48
38 49
37 50
37 51
36 52
36 53
35 54
35 55
34 56
33 57
32 58
31 59
30 58
30 59
29 60
28 61
27 62
26 63
25 62
24 62
24 63
23 64
22 65
21 66
20 67
19 68
18 69
17 68
16 68
15 68
14 67
13 67
12 67
11 66
10 66
9 66
8 65
8 66
7 67
6 68
6 69
5 70
5 71
5 72
5 73
5 74
4 75
3 76
2 77
2 78
2 79
3 80
3 81
3 82
3 83
3 84
3 85
3 86
3 87
4 88
4 89
4 90
4 91
5 92
5 93
6 94
6 95
7 96
8 96
9 97
10 97
11 97
12 97
13 97
14 97
15 98
16 98
17 98
18 98
18 97
19 96
20 96
21 95
22 95
23 94
24 93
25 93
26 92
27 92
28 91
29 90
30 90
31 89
32 88
33 88
34 87
35 86
36 85
37 85
38 84
39 84
40 83
41 82
42 81
43 81
44 80
45 79
46 78
47 78
48 78
49 77
50 77
51 76
52 75
53 75
54 74
55 74
56 73
57 73
58 73
59 72
60 71
61 70
62 70
63 70
64 70
65 70
66 70
67 70
68 70
69 70
70 69
71 69
72 69
73 69
74 69
75 69
76 69
77 70
78 70
79 70
80 70
81 70
82 70
83 71
84 72
85 72
86 73
87 73
88 73
89 73
90 73
91 73
92 73
93 73
94 73
95 73
96 72
97 72
98 72
99 72
99 71
100 70
101 70
102 69
103 69
104 68
105 68
106 68
107 68
108 68
109 67
110 68
111 68
112 68
113 68
114 69
114 70
114 71
114 72
114 73
115 73
116 74
117 75
118 75
119 75
120 76
121 76
122 76
123 76
124 76
125 76
126 76
127 76
128 76
129 76
130 75
131 75
132 75
133 74
134 74
135 74
136 73
137 73
138 72
139 72
140 72
141 73
142 73
143 73
144 73
145 73
146 74
147 74
148 74
149 74
150 74
151 75
152 75
153 75
154 75
155 75
156 76
157 76
158 77
159 77
160 78
161 78
162 78
163 78
164 79
165 79
166 79
167 80
168 81
169 81
170 81
171 81
172 82
173 83
174 83
175 84
176 84
177 84
178 84
179 85
180 85
181 86
182 87
183 87
184 87
185 87
186 87
187 87
188 87
189 88
190 88
191 88
192 88
193 88
194 88
195 88
196 89
197 89
198 89
199 89
200 89
201 89
202 89
203 89
204 89
205 90
206 90
207 90
208 90
209 90
210 90
211 90
212 90
213 90
214 90
215 90
216 90
217 90
218 91
219 91
220 92
221 92
222 92
223 92
224 92
225 92
226 91
227 92
228 92
229 92
230 92
231 92
232 92
233 92
234 92
235 92
236 93
237 93
238 93
239 93
240 93
241 93
242 92
243 91
244 91
245 91
246 91
247 91
248 91
249 91
250 91
251 91
252 90
253 90
254 90
255 90
256 91
255 92
255 93
254 94
254 95
253 96
253 97
252 98
252 99
252 100
253 101
254 101
255 102
256 102
257 103
257 104
257 105
257 106
257 107
258 107
259 107
260 108
260 109
261 109
262 110
263 111
263 112
263 113
264 113
265 113
266 114
267 114
268 115
269 115
270 115
271 115
272 115
273 115
274 114
275 113
275 112
276 111
277 110
277 109
278 108
278 107
279 106
279 105
280 104
280 103
281 102
281 101
282 100
282 99
283 98
283 97
284 96
284 95
284 94
285 93
285 92
285 91
285 90
286 89
286 88
287 87
288 87
289 87
290 87
290 86
291 85
292 85
293 85
294 85
295 86
296 86
297 86
298 86
299 86
300 87
301 87
302 87
303 87
304 87
305 87
306 87
307 87
308 87
309 87
310 87
311 87
312 87
313 86
314 86
315 86
316 85
317 85
318 84
319 84
320 84
321 84
322 84
323 84
324 83
325 83
326 83
327 82
328 82
329 82
330 82
331 81
332 81
333 81
334 81
335 81
336 81
337 81
338 81
339 80
340 79
341 79
342 78
343 78
344 78
345 78
346 77
347 76
348 76
349 75
350 75
351 75
352 74
353 74
354 74
355 73
356 73
356 72
357 71
358 70
359 69
359 68
360 67
361 67
361 66
362 65
362 64
362 63
362 62
362 61
362 60
362 59
362 58
362 57
361 56
361 55
360 54
359 53
359 52
358 51
357 50
356 50
355 49
354 49
353 48
352 47
351 46
350 46
349 45
348 44
347 44
346 43
345 43
344 43
343 42
342 42
341 42
340 41
339 40
338 40
337 39
336 39
335 39
334 39
333 38
332 38
331 38
330 37
329 37
328 37
327 36
326 36
325 36
324 36
323 36
322 36
321 36
320 36
319 36
318 36
317 35
316 35
315 35
314 34
313 34
312 34
311 34
310 34
309 33
308 33
307 33
306 33
305 33
304 34
303 34
302 33
301 33
300 33
299 33
298 33
297 33
296 33
295 33
294 33
293 32
293 31
293 30
293 29
292 28
292 27
292 26
292 25
291 24
291 23
291 22
291 21
291 20
291 19
291 18
291 17
291 16
291 15
291 14
291 13
291 12
291 11
290 10
290 9
290 8
290 7
289 6
288 5
287 5
286 4
285 4
284 4
283 4
282 4
281 4
280 4
279 4
278 4
277 4
