93 0
93 1
92 2
91 1
90 1
89 1
89 2
88 3
87 4
86 5
85 6
84 7
84 8
83 9
82 10
81 11
81 12
80 13
80 14
80 15
80 16
79 17
78 18
77 17
77 18
76 19
76 20
75 21
74 20
74 21
73 22
72 23
71 24
70 23
70 24
69 25
68 24
67 24
67 25
66 26
65 27
64 26
64 27
63 28
62 27
62 28
61 29
60 30
59 29
59 30
58 31
57 32
56 31
55 31
54 31
53 31
53 32
52 33
51 32
51 33
50 34
50 35
49 36
48 37
48 38
48 39
48 40
48 41
47 42
47 43
47 44
46 45
45 44
44 43
43 42
42 41
41 40
40 39
39 38
38 37
37 36
36 35
35 34
35 33
35 32
34 31
33 31
32 30
31 30
30 29
29 28
28 27
27 27
26 26
25 26
24 26
23 25
22 25
21 25
20 24
19 24
18 24
17 24
17 25
16 26
15 27
14 26
14 27
13 28
12 27
12 28
11 29
10 30
10 31
9 32
8 33
7 34
7 35
6 36
5 37
4 38
4 39
4 40
4 41
3 42
3 43
3 44
3 45
3 46
3 47
3 48
2 49
2 50
2 51
2 52
2 53
2 54
3 55
3 56
3 57
3 58
4 59
4 60
4 61
4 62
4 63
5 64
5 65
6 65
7 66
7 67
8 68
8 69
8 70
9 70
10 71
11 72
12 73
13 73
14 73
15 73
16 73
17 73
18 73
19 73
20 73
21 72
22 72
23 72
24 72
25 72
26 72
27 71
28 71
29 71
30 71
31 70
32 70
33 69
34 69
35 69
36 69
37 68
38 68
39 68
40 68
41 67
42 67
43 67
44 67
45 67
46 66
47 66
48 67
48 68
48 69
49 70
49 71
49 72
50 73
51 74
51 75
52 76
52 77
53 78
53 79
53 80
53 81
54 81
55 81
56 82
56 83
56 84
56 85
57 86
57 87
57 88
58 88
59 88
60 88
61 89
61 90
62 91
63 92
63 93
64 93
65 94
65 95
66 96
66 97
67 98
67 99
68 100
69 101
70 102
71 103
71 104
72 105
72 106
72 107
72 108
73 108
74 108
75 109
75 110
75 111
76 112
77 113
78 113
79 114
80 115
81 115
82 116
83 116
84 116
85 116
86 116
87 116
88 116
89 116
90 116
91 116
92 115
93 115
94 115
95 115
96 115
97 115
98 115
99 115
100 115
101 115
102 115
103 116
104 116
105 116
106 116
107 116
108 116
108 115
109 114
110 114
111 114
112 114
113 114
114 113
115 113
116 113
117 114
118 114
119 114
120 114
121 114
122 114
122 113
122 112
123 111
124 111
125 111
126 111
127 110
128 110
129 110
129 109
130 108
131 108
132 107
133 106
133 105
134 104
134 103
135 102
136 101
137 100
138 100
139 99
140 99
141 99
142 98
143 97
144 97
145 96
146 96
147 95
148 95
148 94
149 93
150 93
151 92
152 92
153 91
154 90
155 90
156 90
156 89
157 88
158 88
159 88
159 87
160 86
161 86
162 85
163 84
164 83
165 83
166 82
167 82
168 81
169 81
170 80
171 80
172 79
173 79
174 78
175 78
175 77
176 76
177 75
178 74
179 74
179 73
180 72
181 71
182 71
183 70
184 70
185 69
185 68
185 67
185 66
185 65
185 64
185 63
185 62
185 61
185 60
185 59
185 58
185 57
184 56
183 55
182 54
181 54
180 53
179 53
178 53
177 53
176 53
175 53
174 52
173 51
172 50
171 49
171 48
170 47
169 46
168 45
167 44
166 43
165 42
165 41
164 40
163 40
162 39
162 38
161 37
160 36
159 35
158 34
157 34
156 33
156 32
155 31
154 30
153 29
152 28
151 27
150 27
149 26
148 26
147 25
146 25
145 24
144 23
143 22
142 21
141 20
140 20
139 19
139 18
138 17
137 17
136 16
135 15
134 14
134 13
133 12
132 11
131 11
130 10
130 9
129 8
128 8
127 7
126 7
125 7
124 6
123 6
122 6
121 5
120 5
119 5
118 5
117 4
116 4
115 4
114 4
114 5
113 6
112 5
111 5
110 4
109 3
108 2
107 2
106 1
105 1
104 1
103 1
102 1
101 1
100 1
99 1
98 0
97 0
96 0
95 0
94 0
