125 2
124 3
123 3
122 3
121 4
120 4
119 5
118 5
117 5
116 6
115 6
114 6
113 6
112 7
111 7
110 8
109 8
108 8
107 8
106 9
105 10
104 10
103 10
102 11
101 11
100 12
99 12
98 12
97 12
96 13
95 13
94 14
93 14
92 14
91 15
90 15
89 16
88 16
87 16
86 17
85 17
84 18
83 18
82 19
81 19
80 20
79 20
78 20
77 21
76 21
75 22
74 22
73 22
72 22
71 23
70 23
69 23
68 23
67 24
66 24
65 24
64 25
63 25
62 25
62 26
61 27
60 27
59 28
58 28
57 28
56 28
55 29
54 29
53 29
52 29
51 30
50 30
49 31
48 31
47 32
46 33
45 33
45 34
44 35
43 35
42 36
41 37
40 37
39 37
38 38
37 39
36 40
35 41
34 41
33 42
32 43
32 44
31 45
30 45
29 45
28 45
27 46
27 47
27 48
27 49
27 50
27 51
28 51
29 52
28 53
28 54
27 55
26 55
25 55
24 56
23 56
22 56
21 55
22 54
22 53
21 53
20 52
19 52
18 52
17 52
16 53
16 54
15 55
14 55
13 56
12 57
11 58
10 59
9 60
8 61
7 62
6 63
5 64
5 65
5 66
4 67
3 67
2 67
2 68
2 69
2 70
2 71
2 72
2 73
2 74
2 75
2 76
3 76
4 76
5 77
5 78
6 78
7 78
8 77
9 78
9 79
9 80
9 81
10 81
11 82
12 82
13 83
14 83
15 84
16 85
17 86
18 86
19 87
20 88
21 89
22 90
23 91
24 91
25 92
26 93
27 94
28 95
29 95
30 96
31 97
32 98
33 98
34 99
35 100
36 100
37 101
38 102
39 102
40 103
41 103
42 104
43 105
44 105
45 106
46 106
47 107
48 107
49 108
50 108
51 109
52 109
53 109
54 110
55 110
56 111
57 112
58 112
59 112
60 113
61 114
62 114
63 115
64 115
65 115
66 115
67 116
68 116
69 117
70 117
71 117
72 118
73 118
74 119
75 119
76 119
77 120
78 120
79 120
80 121
81 121
82 122
83 122
84 122
85 123
86 123
87 123
88 123
89 124
90 124
91 124
92 124
93 124
94 125
95 125
96 125
97 125
98 125
99 125
100 125
101 125
102 125
103 126
104 126
105 126
106 126
107 126
108 126
109 126
110 126
111 126
112 126
113 126
114 126
115 126
116 126
117 126
118 126
119 126
120 126
121 125
122 125
123 125
124 125
125 125
126 125
127 125
128 125
129 125
130 125
131 125
132 125
133 125
134 125
135 125
136 125
137 124
138 124
139 124
140 124
141 124
142 124
143 124
144 124
145 124
146 124
147 123
148 123
149 123
150 123
151 123
152 122
152 121
153 120
153 119
154 118
154 117
154 116
155 115
155 114
156 113
156 112
156 111
156 110
157 109
157 108
158 107
159 106
160 105
161 104
162 104
163 103
164 102
165 102
166 101
167 100
168 100
169 99
170 98
171 98
172 98
173 97
174 96
175 96
176 95
177 94
178 94
179 93
180 93
181 92
182 92
183 91
184 90
185 90
186 89
187 88
188 87
189 86
189 85
190 84
191 83
192 82
193 81
194 81
195 81
196 81
197 81
198 81
199 81
200 81
201 81
202 81
203 81
204 81
205 81
206 81
207 81
208 81
209 82
210 82
211 82
212 82
213 82
214 82
215 82
216 82
217 82
218 83
219 83
220 83
221 83
222 83
223 83
224 83
225 83
226 83
227 83
228 83
229 83
230 83
231 83
232 84
233 84
234 84
235 84
236 84
237 84
238 84
239 84
240 84
241 84
242 84
243 83
244 83
245 83
246 83
247 82
248 81
248 80
249 79
249 78
249 77
249 76
249 75
249 74
249 73
249 72
249 71
249 70
250 69
250 68
250 67
250 66
250 65
250 64
249 64
248 63
249 62
249 61
249 60
249 59
249 58
249 57
249 56
249 55
249 54
249 53
249 52
249 51
248 51
247 50
248 49
248 48
248 47
247 47
246 46
245 45
244 45
243 45
242 45
241 45
240 45
239 46
238 45
237 44
236 44
235 44
234 44
234 45
233 46
232 46
231 46
230 46
229 47
228 47
227 47
226 47
225 47
224 48
223 48
222 49
221 49
220 49
219 49
218 49
217 50
216 50
215 50
214 51
213 51
212 51
211 51
210 51
209 51
208 52
207 52
206 52
205 52
204 52
203 53
202 53
201 53
200 53
199 54
198 54
197 54
196 54
195 54
194 54
193 54
192 54
191 55
190 54
189 53
190 52
189 52
188 51
189 50
188 50
187 49
186 48
185 47
184 46
183 45
182 44
181 44
180 43
179 42
178 41
177 40
176 39
175 38
174 37
173 36
172 35
171 35
170 34
169 33
168 32
167 32
166 31
165 30
164 30
163 29
162 29
161 28
160 27
159 27
158 26
157 26
156 25
157 24
156 24
155 23
154 23
153 22
152 21
151 20
150 20
149 19
148 18
147 17
146 16
145 15
144 14
143 13
142 12
141 12
140 11
141 10
140 10
139 9
138 8
137 7
136 6
135 5
134 4
133 3
132 2
131 2
130 2
129 2
128 2
127 2
126 2
