94 2
93 3
92 3
91 3
90 3
89 3
88 3
87 4
86 4
85 4
84 4
83 4
82 4
81 4
80 5
79 5
78 5
77 5
76 5
75 5
74 5
73 6
72 6
71 6
70 6
69 6
68 6
67 6
66 7
65 7
64 8
63 9
62 10
61 10
60 11
59 11
58 12
57 13
56 13
55 13
54 13
53 13
52 13
51 13
50 13
49 14
48 14
47 14
46 14
45 15
44 15
43 16
42 16
41 17
40 17
39 18
38 18
37 18
37 19
36 20
35 20
34 21
33 22
32 23
31 24
30 25
29 25
28 25
27 26
26 27
25 28
24 28
23 29
22 29
21 30
20 31
19 32
18 32
17 33
16 34
15 34
14 35
13 36
12 36
11 37
10 37
9 38
8 38
7 39
6 40
5 40
4 41
4 42
3 43
2 44
2 45
2 46
2 47
3 48
3 49
3 50
3 51
3 52
3 53
4 54
5 54
6 55
6 56
7 57
7 58
8 58
9 59
10 60
11 60
12 61
13 62
14 62
15 63
15 64
15 65
16 65
17 66
18 67
18 68
18 69
19 70
19 71
19 72
19 73
20 74
21 74
22 75
22 76
23 77
24 77
25 78
25 79
26 80
26 81
27 82
27 83
28 84
29 85
30 86
31 86
32 87
33 87
34 87
35 88
36 89
37 90
38 90
39 90
40 90
41 91
42 91
43 91
44 92
45 92
46 92
47 92
48 93
49 94
50 94
51 94
52 94
53 94
54 93
55 93
56 93
57 92
58 92
59 92
60 92
61 91
62 91
63 92
64 93
65 93
66 94
67 94
68 95
69 95
70 96
71 96
72 97
73 98
74 98
75 98
76 98
77 98
78 98
79 99
80 100
81 100
82 101
83 101
84 101
85 101
86 102
87 102
88 102
89 102
90 102
91 102
92 102
93 103
93 104
94 104
95 104
96 104
97 104
98 104
99 104
100 104
101 105
102 106
103 106
104 106
105 107
106 107
107 107
108 107
109 107
110 107
111 107
112 107
113 107
114 107
115 107
116 107
117 106
118 106
119 106
120 106
121 106
122 106
123 106
124 106
125 106
126 106
127 105
128 105
129 105
130 105
131 104
132 104
133 104
134 103
135 103
136 103
137 102
138 101
139 101
140 101
141 101
142 101
143 100
144 99
145 98
146 97
147 97
148 96
149 95
150 94
151 93
152 92
153 91
154 90
154 89
155 88
156 88
157 87
157 86
158 85
159 84
160 83
161 82
162 81
163 80
164 79
165 78
165 77
166 76
166 75
167 74
168 74
169 74
170 74
171 74
172 74
173 74
174 74
175 75
176 75
177 75
178 74
179 75
179 76
180 77
181 78
182 78
183 78
184 79
185 80
186 80
187 80
188 81
189 81
190 82
191 82
192 82
193 83
194 83
195 83
196 83
197 83
198 83
199 84
199 85
200 85
201 85
202 85
203 85
204 85
205 84
205 83
206 82
206 81
207 80
207 79
208 78
208 77
209 76
209 75
210 74
210 73
210 72
211 71
211 70
211 69
211 68
210 67
211 66
212 66
213 65
213 64
214 63
214 62
214 61
213 61
212 60
213 59
213 58
213 57
212 57
211 56
210 55
211 54
210 54
209 53
210 52
210 51
210 50
210 49
209 49
208 48
209 47
208 47
207 46
208 45
208 44
207 44
206 43
207 42
206 42
205 41
204 40
203 39
204 38
204 37
204 36
203 36
202 35
201 34
200 34
199 34
198 35
197 35
196 35
195 35
194 35
193 35
192 36
191 36
190 37
189 37
188 37
187 38
186 39
185 39
184 39
183 40
182 41
181 41
180 42
179 42
178 43
177 43
176 43
175 43
174 44
173 45
172 45
171 46
170 46
169 47
168 47
167 46
168 45
168 44
168 43
168 42
167 42
166 41
167 40
167 39
167 38
166 38
165 37
164 36
165 35
164 35
163 34
164 33
163 33
162 32
161 31
160 30
159 29
158 28
159 27
158 27
157 26
156 25
155 24
154 23
153 22
152 21
151 20
150 19
149 18
150 17
150 16
149 16
148 15
147 14
146 14
145 13
146 12
145 12
144 11
145 10
144 10
143 9
142 8
141 8
140 8
139 7
140 6
139 6
138 5
137 5
136 5
135 5
134 5
133 5
132 5
131 5
130 5
129 5
128 5
127 4
126 4
125 4
124 4
123 4
122 4
121 4
120 3
119 3
118 3
117 3
116 3
115 3
114 2
113 2
112 2
111 2
110 2
109 2
108 2
107 2
106 2
105 2
104 2
103 2
102 2
101 2
100 2
99 2
98 2
97 2
96 2
95 2
