154 2
153 3
152 3
151 3
150 3
149 3
148 3
147 3
146 3
145 3
144 3
143 3
142 4
141 4
140 4
139 4
138 4
137 4
136 4
135 4
134 5
133 5
132 5
131 5
130 5
129 5
128 5
127 5
126 6
125 6
124 6
123 6
122 7
121 7
120 7
119 7
118 8
117 8
116 8
115 8
114 9
113 9
112 9
111 10
110 10
109 10
108 10
107 11
106 11
105 11
104 11
103 11
102 12
101 12
100 12
99 12
98 12
97 12
96 13
95 13
94 13
93 13
92 13
91 14
90 14
89 14
88 15
87 15
86 15
85 15
84 16
83 16
82 16
81 16
80 17
79 17
78 17
77 17
76 17
75 18
74 18
73 18
72 19
71 19
70 19
69 19
68 20
67 20
66 20
65 20
64 20
63 21
62 21
61 21
60 21
59 22
58 22
57 22
56 22
55 23
54 23
53 23
52 23
51 23
50 23
49 24
48 24
47 24
46 25
45 25
44 25
43 25
42 25
42 26
41 27
40 27
39 27
38 28
37 28
36 28
35 28
34 29
33 29
32 29
31 29
30 29
29 30
28 30
27 30
26 31
25 31
24 32
23 32
22 32
21 33
20 33
19 33
18 33
17 33
16 33
15 33
14 33
13 33
12 33
11 34
10 34
9 34
8 34
7 34
6 35
5 35
4 35
3 35
3 36
3 37
3 38
3 39
2 40
2 41
2 42
2 43
2 44
2 45
2 46
3 47
3 48
3 49
4 50
5 51
6 51
7 52
8 53
9 53
10 54
11 54
12 55
13 55
14 55
15 55
16 56
16 57
17 57
18 58
19 58
20 58
21 59
22 59
23 60
24 60
25 61
25 62
26 62
27 63
28 63
29 63
30 64
31 64
32 65
33 65
34 65
35 66
36 66
37 66
38 66
39 67
40 67
41 68
42 68
43 69
44 69
45 70
46 70
47 70
48 71
49 71
50 71
51 71
52 72
53 72
54 72
55 72
56 73
57 73
58 73
59 74
60 74
61 74
62 74
63 74
64 75
65 75
66 75
67 75
68 75
69 75
70 76
71 76
72 76
73 76
74 76
75 77
75 78
75 79
76 79
77 79
78 79
79 80
80 80
81 80
82 80
83 80
84 81
85 81
86 81
87 82
88 82
89 82
90 82
91 82
92 82
93 83
94 83
95 83
96 83
97 84
98 84
99 84
100 84
101 85
102 85
103 85
104 85
105 86
106 86
107 86
108 87
109 87
110 87
111 87
112 87
113 87
114 87
115 87
116 87
117 88
118 88
119 88
120 88
121 88
122 89
122 90
123 90
124 90
125 90
126 90
127 89
128 89
129 89
130 89
131 89
132 89
133 90
133 91
134 91
135 91
136 91
137 91
138 91
139 90
140 91
141 91
142 91
143 91
144 91
145 91
146 91
147 90
148 90
149 90
150 90
151 90
152 90
153 90
154 90
155 90
156 90
157 90
158 91
159 91
160 91
161 91
162 91
163 91
164 91
165 91
166 91
167 91
168 91
169 90
170 90
171 90
172 91
173 91
174 91
175 91
176 91
177 91
178 91
179 91
180 91
181 91
182 91
183 91
184 91
185 91
186 91
187 90
188 91
189 91
190 91
191 91
192 91
193 91
194 91
195 91
196 91
197 91
198 91
199 91
200 90
201 89
202 89
203 90
204 90
205 90
206 90
207 90
208 90
209 90
210 89
211 88
212 88
213 88
214 88
215 88
216 88
217 87
218 87
219 87
220 87
221 87
222 87
223 87
224 87
225 87
226 87
227 87
228 87
229 87
230 87
231 87
232 86
233 86
234 86
235 86
236 85
237 85
238 84
239 84
240 84
241 83
242 82
243 82
244 82
245 82
246 81
247 80
248 80
249 80
250 80
251 80
252 79
253 78
254 78
255 78
256 78
257 77
258 76
259 76
260 75
261 74
262 73
263 73
264 72
265 72
266 71
267 71
268 71
269 71
270 71
271 71
272 71
273 71
274 71
275 70
276 70
277 69
278 69
279 68
280 67
281 66
282 65
283 65
284 64
285 63
286 62
287 62
288 61
289 60
290 59
291 58
292 57
293 56
294 55
294 54
295 53
295 52
296 51
296 50
296 49
297 48
297 47
297 46
296 46
295 45
296 44
296 43
296 42
295 42
294 41
295 40
295 39
294 39
293 38
292 37
291 36
292 35
291 35
290 34
289 33
288 32
289 31
288 31
287 30
286 30
285 29
286 28
285 28
284 27
283 27
282 26
281 25
280 25
279 24
278 23
277 22
276 22
275 21
274 21
273 20
272 20
271 19
270 19
269 19
268 18
267 18
266 18
265 17
264 17
263 16
262 16
261 15
260 15
259 14
258 14
257 13
256 13
255 13
254 12
253 11
252 11
251 11
250 11
249 10
248 10
247 10
246 9
245 9
244 9
243 9
242 8
241 8
240 8
239 8
238 8
237 7
236 7
235 7
234 7
233 7
232 7
231 7
230 8
229 7
228 6
227 6
226 6
225 6
224 6
223 7
222 7
221 6
220 5
219 5
218 5
217 5
216 4
215 4
214 4
213 4
212 4
211 4
210 4
209 3
208 3
207 3
206 3
205 3
204 3
203 3
202 3
201 4
200 4
199 4
198 4
197 4
196 4
195 4
194 4
193 5
192 5
191 5
190 5
189 5
188 4
187 3
186 3
185 3
184 2
183 2
182 2
181 2
180 2
179 2
178 2
177 2
176 2
175 2
174 2
173 2
172 2
171 3
170 2
169 2
168 2
167 2
166 2
165 2
164 2
163 2
162 2
161 2
160 2
159 2
158 2
157 2
156 2
155 2
