123 2
122 3
121 3
120 3
119 3
118 3
117 3
116 4
115 4
114 4
113 4
112 4
111 4
110 5
109 5
108 5
107 4
106 4
105 4
104 5
103 5
102 4
101 4
100 4
99 5
98 5
97 5
96 5
95 5
94 6
93 6
92 5
91 4
90 4
89 4
88 5
87 5
86 5
85 5
84 6
83 6
82 6
82 7
81 8
80 7
79 7
78 7
77 7
76 7
75 8
74 8
73 8
72 8
71 8
70 9
69 9
68 9
67 9
66 9
66 10
66 11
65 12
64 12
63 12
62 12
61 13
60 14
59 13
58 12
57 12
56 13
56 14
55 15
54 15
53 15
52 16
51 17
50 18
49 19
48 19
47 19
46 20
45 21
44 21
43 22
42 22
42 23
41 24
40 25
39 25
38 25
37 26
36 27
36 28
35 29
34 30
33 31
33 32
32 33
32 34
31 35
30 36
30 37
29 38
28 38
27 39
26 40
25 41
24 42
23 43
22 43
22 44
21 45
20 45
19 46
18 47
17 48
16 49
15 50
15 51
14 52
13 52
13 53
13 54
12 55
11 56
10 56
9 57
8 57
8 58
7 59
7 60
6 61
5 61
5 62
5 63
5 64
5 65
5 66
4 67
3 67
2 67
2 68
2 69
2 70
2 71
2 72
3 73
3 74
3 75
4 76
4 77
5 77
6 78
7 79
8 80
9 81
10 82
10 83
11 84
12 85
13 86
14 87
15 88
16 89
17 90
18 91
19 92
20 93
21 93
22 94
22 95
23 95
24 95
25 96
26 96
27 96
28 97
29 97
30 98
31 98
32 98
33 99
34 99
35 100
36 100
37 101
38 101
39 102
40 102
41 103
41 104
41 105
40 106
39 106
39 107
39 108
39 109
40 110
40 111
40 112
40 113
41 113
42 114
42 115
43 116
44 117
45 118
45 119
45 120
45 121
46 121
47 121
48 120
49 119
49 118
50 117
51 116
52 116
53 115
53 114
54 113
55 112
56 112
57 113
57 114
58 115
59 115
60 116
60 117
61 118
61 119
62 119
63 120
63 121
64 121
65 122
65 123
66 123
67 123
68 124
69 125
70 125
71 125
72 125
73 126
74 127
75 128
76 129
77 130
78 130
79 130
80 131
80 132
81 132
82 133
83 133
84 133
85 133
86 132
86 131
87 130
88 131
88 132
89 133
89 134
90 135
91 135
92 135
93 135
94 136
94 137
95 137
96 137
97 136
98 137
99 137
100 136
100 135
101 134
102 135
102 136
103 137
104 137
105 136
106 135
107 135
108 136
108 137
109 137
110 136
111 135
112 135
113 136
114 137
114 138
115 138
116 137
117 136
118 137
119 137
120 137
121 136
122 137
123 137
124 137
125 137
126 137
127 137
128 137
129 136
130 137
131 137
132 137
133 136
134 136
135 136
136 136
137 136
138 136
139 135
140 136
141 136
142 136
143 135
144 135
145 134
146 133
147 133
148 133
149 133
150 133
151 133
152 132
153 131
154 132
155 132
156 132
157 131
158 131
159 130
160 129
161 129
162 129
163 128
164 128
165 128
166 128
167 128
168 128
169 127
169 126
170 125
171 125
172 125
173 125
174 124
175 124
176 124
177 123
178 123
179 122
180 122
181 122
182 122
183 121
184 120
185 119
186 119
187 119
188 118
189 118
190 117
191 116
192 115
193 114
194 114
195 113
195 112
196 111
197 111
198 110
198 109
199 108
200 107
201 106
202 105
203 104
204 103
204 102
205 101
205 100
206 99
206 98
207 97
207 96
208 95
208 94
208 93
209 92
209 91
209 90
209 89
209 88
210 87
211 86
212 86
213 87
214 87
215 88
215 89
216 89
217 90
218 91
219 91
220 92
221 93
222 93
223 94
224 94
225 94
226 95
227 95
228 96
229 97
230 97
231 97
232 98
233 98
234 99
235 99
236 100
237 100
238 101
239 101
240 102
241 102
242 102
243 101
243 100
244 99
244 98
244 97
245 96
246 95
246 94
247 93
248 92
248 91
249 90
250 89
251 88
252 88
253 87
253 86
254 85
255 84
255 83
256 82
257 81
257 80
258 79
259 79
260 78
260 77
261 76
262 75
262 74
263 73
262 73
261 72
260 71
259 70
260 69
260 68
259 68
258 67
259 66
259 65
258 65
257 64
258 63
257 63
256 62
255 62
254 61
255 60
254 60
253 59
254 58
254 57
254 56
253 56
252 55
253 54
252 54
251 53
250 52
249 51
248 50
249 49
248 49
247 48
248 47
248 46
248 45
247 45
246 44
245 44
244 44
243 43
242 43
241 43
240 43
239 43
238 44
237 44
236 44
235 44
234 44
233 45
232 45
231 45
230 45
229 45
228 46
227 46
226 46
225 47
224 47
223 47
222 47
221 47
220 48
219 48
218 49
217 49
216 50
215 50
214 51
213 52
212 52
211 51
210 51
209 50
209 49
209 48
210 47
210 46
209 46
208 45
209 44
209 43
208 43
207 42
208 41
208 40
207 40
206 39
207 38
206 38
205 37
206 36
205 36
204 35
203 35
202 35
201 34
202 33
201 33
200 32
199 32
198 31
199 30
198 30
197 29
196 28
195 28
194 27
193 26
192 26
191 25
190 25
189 24
188 24
187 23
186 23
185 22
184 21
183 21
182 21
181 20
180 20
179 20
178 19
177 19
176 19
175 18
174 17
173 16
172 16
171 15
170 14
169 14
168 14
167 13
166 13
165 13
164 13
163 12
162 11
161 11
160 11
159 11
158 10
157 9
156 9
155 8
154 7
153 7
152 8
151 8
150 7
149 6
148 5
147 5
146 5
145 6
144 6
143 5
144 4
143 4
142 3
141 3
140 2
139 2
138 2
137 2
136 2
135 2
134 2
133 3
132 3
131 3
130 3
129 2
128 2
127 2
126 2
125 2
124 2
