110 4
109 5
108 5
107 6
106 6
105 6
104 6
103 6
102 5
101 5
100 5
99 6
98 7
97 8
96 8
95 9
94 8
93 8
92 8
91 9
90 9
89 10
88 10
87 11
86 11
85 11
84 12
83 12
82 12
81 13
80 13
79 14
78 14
77 15
76 15
75 15
74 15
73 15
72 15
71 15
70 15
69 16
68 16
67 16
66 17
65 17
64 18
63 18
62 19
62 20
61 21
60 21
59 21
58 22
57 23
56 23
55 24
54 24
53 25
52 26
51 26
51 27
50 28
49 29
48 29
47 29
47 30
46 31
45 31
44 32
44 33
43 34
42 35
41 35
41 36
40 37
40 38
39 39
38 39
37 39
36 40
36 41
35 42
34 43
33 44
33 45
33 46
33 47
32 48
32 49
32 50
31 51
30 51
30 52
30 53
29 54
28 54
27 54
26 53
25 53
24 53
23 53
22 53
21 53
20 53
19 53
18 53
17 53
16 53
15 53
14 53
13 53
12 53
12 54
11 55
10 55
9 56
8 57
7 57
7 58
6 59
5 60
4 60
3 61
3 62
2 63
2 64
2 65
2 66
2 67
3 68
3 69
4 69
5 70
5 71
5 72
6 72
7 73
7 74
8 75
9 75
10 75
11 75
12 76
12 77
12 78
13 79
13 80
14 80
15 80
16 80
17 81
17 82
18 82
19 82
20 82
21 82
22 82
23 82
24 81
25 81
26 81
27 81
28 81
29 80
30 80
31 80
32 79
33 79
34 79
35 78
36 78
37 79
37 80
37 81
37 82
37 83
37 84
37 85
37 86
37 87
37 88
37 89
37 90
38 90
39 91
39 92
39 93
40 94
40 95
40 96
41 97
41 98
42 99
43 99
44 99
45 99
46 99
47 100
47 101
47 102
48 103
49 103
50 103
51 103
52 103
53 104
54 104
55 104
56 104
57 105
57 106
58 106
59 106
60 105
61 106
62 106
63 107
63 108
64 108
65 109
65 110
66 110
67 110
68 110
69 110
70 110
71 111
71 112
72 112
73 112
74 113
75 113
76 113
77 113
78 113
79 113
80 113
81 113
82 113
83 113
84 114
85 114
86 115
87 115
88 115
89 116
90 116
91 116
92 117
93 117
94 117
95 117
96 117
97 117
98 117
99 118
100 118
101 118
102 118
103 118
104 119
104 120
105 120
106 119
107 118
108 119
108 120
109 120
110 120
111 120
112 120
113 119
114 120
114 121
115 121
116 121
117 121
118 120
119 119
120 119
121 120
122 120
123 120
124 119
125 119
126 119
127 119
128 119
129 119
130 119
131 119
132 118
133 118
134 117
135 117
136 117
137 117
138 117
139 116
140 116
141 115
142 115
143 115
144 115
145 115
146 115
147 115
148 114
149 114
150 115
151 115
152 114
153 113
154 113
155 113
156 113
157 112
157 111
158 110
159 109
160 108
161 107
162 106
163 106
164 105
165 105
166 104
166 103
167 102
167 101
168 100
168 99
169 98
169 97
170 96
170 95
171 94
172 94
173 95
174 96
174 97
175 98
176 98
177 98
178 97
179 97
180 96
181 95
182 94
183 93
184 92
184 91
185 90
185 89
186 88
186 87
186 86
186 85
186 84
187 83
188 82
189 81
190 80
191 79
192 78
193 77
194 77
195 76
196 75
197 74
198 73
199 72
200 71
200 70
201 69
201 68
202 67
202 66
202 65
201 65
200 64
199 63
200 62
200 61
200 60
199 60
198 59
199 58
198 58
197 57
198 56
198 55
197 55
196 54
197 53
196 53
195 52
196 51
196 50
195 50
194 49
193 48
192 47
193 46
192 46
191 45
190 44
189 43
190 42
189 42
188 41
187 40
186 39
185 38
184 37
183 36
182 35
181 35
180 34
181 33
180 33
179 32
178 31
177 31
176 31
175 30
174 30
173 29
172 28
171 28
170 28
169 27
168 27
167 26
166 26
165 25
164 25
163 24
162 24
161 24
160 23
159 23
158 23
157 22
156 21
155 20
154 19
153 18
152 17
153 16
152 16
151 15
150 14
149 13
148 12
147 11
146 10
147 9
146 9
145 8
144 7
143 7
142 7
141 6
140 6
139 6
139 7
138 8
137 8
136 8
135 8
134 7
133 6
132 6
131 6
130 7
129 6
128 6
127 5
126 5
125 5
124 5
123 5
122 5
121 5
120 5
119 6
118 6
117 7
116 7
115 7
114 6
113 5
112 4
111 4
