87 2
86 3
85 3
84 3
83 3
82 3
81 3
80 3
79 3
78 3
77 3
76 3
75 4
74 4
73 4
72 4
71 4
70 4
69 4
68 4
67 4
66 5
65 5
64 5
63 5
62 5
61 5
60 5
59 5
58 5
57 5
56 5
55 5
54 5
54 6
53 7
52 8
51 8
50 8
49 9
49 10
48 11
47 12
47 13
47 14
46 15
45 15
44 15
43 16
42 17
41 17
40 18
39 19
38 19
37 20
36 20
35 21
34 22
33 22
32 23
31 24
30 24
29 25
28 25
27 26
26 27
25 27
24 28
23 29
22 30
21 30
20 31
19 32
18 32
17 32
16 32
15 32
14 32
13 32
12 32
11 32
10 32
9 32
8 32
7 32
7 33
7 34
7 35
6 36
5 36
4 36
3 36
2 36
2 37
2 38
2 39
2 40
2 41
2 42
2 43
3 44
3 45
4 46
5 47
6 48
7 49
8 50
9 51
10 51
11 52
12 53
12 54
13 54
14 55
15 55
16 56
17 56
18 57
19 58
20 59
21 60
22 60
23 61
24 62
25 63
26 64
27 64
28 65
29 65
30 65
31 65
32 66
33 67
34 67
35 68
36 69
37 70
38 71
39 71
40 72
41 73
42 74
43 75
44 76
45 77
46 77
47 78
48 78
49 78
50 79
51 79
52 80
53 81
54 81
55 82
56 82
57 82
58 83
59 83
60 83
61 84
62 84
63 84
64 85
65 85
66 85
67 86
68 86
69 86
70 86
71 86
72 87
73 87
74 87
75 87
76 87
77 87
78 87
79 88
80 88
81 88
82 88
83 88
84 89
85 89
86 89
87 89
88 89
89 89
90 89
91 89
92 89
93 90
94 90
95 90
96 90
97 90
98 90
99 90
100 90
101 90
102 90
103 90
104 89
105 89
106 89
107 89
108 89
109 89
110 89
111 88
112 88
113 88
114 88
115 88
116 88
117 88
118 88
119 88
120 87
121 87
122 87
123 87
124 86
125 86
126 86
127 86
128 85
129 85
130 84
131 83
132 83
133 83
134 82
135 82
136 82
137 81
138 80
138 79
139 78
139 77
140 76
141 75
141 74
142 73
142 72
142 71
143 70
143 69
143 68
144 67
144 66
145 65
146 64
147 63
147 62
148 61
148 60
149 59
150 59
151 59
152 60
153 60
154 60
155 61
156 61
157 62
158 62
159 63
160 64
161 64
162 64
163 65
163 66
164 67
165 67
166 67
167 67
168 67
169 67
170 68
170 69
171 69
172 69
173 70
174 70
175 71
176 71
177 71
178 71
179 71
180 71
181 72
182 72
183 72
184 72
185 72
186 71
187 71
188 70
188 69
189 68
189 67
189 66
189 65
190 64
190 63
190 62
190 61
191 60
191 59
191 58
191 57
191 56
191 55
191 54
191 53
191 52
191 51
191 50
191 49
191 48
191 47
191 46
191 45
191 44
191 43
191 42
191 41
190 41
189 40
190 39
190 38
189 38
188 37
187 37
186 37
185 37
184 37
183 37
182 37
181 37
180 37
179 37
178 37
177 37
176 37
175 37
174 37
173 37
172 37
171 37
170 37
169 37
168 37
167 37
166 37
165 37
164 37
163 37
162 37
161 37
160 37
159 37
158 37
157 37
156 37
155 37
154 37
153 37
152 37
151 36
150 36
149 35
148 34
149 33
149 32
149 31
149 30
148 30
147 29
146 29
145 29
144 28
145 27
145 26
145 25
144 25
143 24
144 23
144 22
143 22
142 21
143 20
143 19
142 19
141 18
140 17
139 16
138 15
137 14
136 13
137 12
136 12
135 11
134 10
133 9
132 9
131 9
130 8
129 8
128 8
127 7
126 7
125 7
124 7
123 7
122 7
121 7
120 6
119 6
118 6
117 6
116 6
115 5
114 5
113 5
112 5
111 4
110 4
109 4
108 3
107 3
106 3
105 3
104 3
103 3
102 3
101 3
100 3
99 3
98 2
97 2
96 2
95 2
94 2
93 2
92 2
91 2
90 2
89 2
88 2
