78 2
77 3
76 3
75 3
74 3
73 3
72 4
71 4
70 4
69 4
68 4
67 5
66 5
65 5
64 6
63 6
62 6
61 6
60 6
59 6
58 7
57 7
56 7
55 7
54 8
53 8
52 8
51 9
50 9
49 9
48 9
47 10
46 11
45 11
44 12
43 12
42 12
41 13
40 13
39 13
38 14
37 15
36 15
35 15
34 16
33 16
32 17
31 17
30 17
29 18
28 19
27 20
26 20
25 21
24 22
23 22
22 22
22 23
21 24
20 24
19 25
18 25
17 26
16 26
15 27
14 27
13 27
12 27
11 28
10 29
9 30
8 30
7 31
6 32
6 33
5 34
4 35
3 36
2 37
2 38
2 39
2 40
2 41
2 42
2 43
2 44
2 45
2 46
2 47
2 48
2 49
3 50
4 51
5 52
6 53
7 54
8 55
9 55
10 56
10 57
11 57
12 58
13 59
14 59
15 60
16 61
17 61
18 61
19 62
20 62
21 62
22 63
23 64
24 64
25 64
26 65
27 65
28 66
29 67
30 67
31 68
32 69
33 70
34 70
35 71
36 72
37 73
38 74
39 75
40 75
41 76
42 77
43 77
44 77
45 77
46 76
47 75
48 75
49 76
50 76
51 76
52 76
53 76
54 76
55 77
56 77
57 77
58 77
59 77
60 78
61 78
62 78
63 78
64 78
65 78
66 78
67 79
68 79
69 79
70 79
71 79
72 79
73 79
74 79
75 79
76 80
77 80
78 80
79 80
80 80
81 80
82 81
83 81
84 81
85 81
86 81
87 81
88 82
89 82
90 82
91 82
92 81
93 81
94 82
95 82
96 82
97 81
98 81
99 81
100 81
101 81
102 80
103 80
104 79
105 79
106 78
107 78
108 77
109 77
110 76
111 75
112 74
113 73
114 73
115 73
116 72
117 71
118 71
119 70
120 69
121 69
122 68
122 67
123 66
124 66
125 66
126 65
127 64
128 64
129 64
130 63
131 62
132 62
133 61
134 60
135 59
136 59
137 58
138 57
139 56
140 56
141 55
142 54
143 54
144 53
145 52
146 52
147 52
148 52
149 52
150 52
151 53
152 53
153 53
154 53
155 54
156 54
157 54
158 54
159 54
160 54
161 54
162 54
163 55
164 55
165 55
166 55
167 55
168 56
169 56
170 56
171 56
172 56
173 56
174 56
175 56
176 56
177 57
178 57
179 57
180 57
181 57
182 57
183 57
184 57
185 57
186 57
187 57
188 57
189 56
189 55
188 54
189 53
189 52
190 51
190 50
189 50
188 49
187 48
187 47
187 46
188 45
189 44
189 43
190 42
190 41
191 40
191 39
191 38
191 37
190 37
189 36
190 35
190 34
189 34
188 33
189 32
189 31
189 30
189 29
189 28
189 27
188 27
187 26
188 25
187 25
186 24
185 24
184 24
183 24
182 23
181 23
180 23
179 23
178 23
177 23
176 23
175 24
174 24
173 24
172 24
171 25
170 25
169 25
168 25
167 25
166 26
165 26
164 26
163 26
162 27
161 27
160 27
159 28
158 28
157 28
156 29
155 29
154 29
153 29
152 29
151 29
150 29
149 29
148 29
147 30
146 30
145 30
144 29
143 28
142 28
141 27
140 26
139 26
138 25
137 24
136 24
135 23
134 22
133 21
132 20
131 20
130 19
129 18
128 18
127 17
126 16
125 16
124 16
123 15
122 14
121 13
120 13
119 13
118 12
117 11
116 11
115 11
114 10
113 10
112 9
111 9
110 9
109 8
108 7
107 7
106 7
105 6
104 6
103 6
102 5
101 5
100 4
99 4
98 3
97 3
96 3
95 2
94 2
93 2
92 2
91 2
90 2
89 2
88 2
87 2
86 2
85 2
84 2
83 2
82 2
81 2
80 2
79 2
