84 2
83 3
82 3
81 3
80 3
79 3
78 3
77 3
76 4
75 4
74 4
73 4
72 5
71 5
70 6
69 6
68 6
67 7
66 7
65 8
64 9
63 9
62 10
61 11
60 12
60 13
59 14
58 14
57 15
57 16
56 17
55 18
54 19
53 20
53 21
52 22
51 22
51 23
51 24
50 25
50 26
49 27
48 27
47 27
46 28
46 29
46 30
45 31
45 32
45 33
44 34
43 35
42 35
41 35
40 35
39 35
38 35
37 35
36 34
35 34
34 34
33 34
32 34
31 33
30 33
29 33
28 33
27 33
26 33
25 33
24 33
23 32
22 32
21 32
20 32
19 32
18 32
17 31
16 31
15 31
14 31
13 31
12 31
11 31
10 31
9 31
8 31
7 31
6 31
5 32
5 33
5 34
4 35
4 36
3 37
3 38
2 39
2 40
2 41
2 42
2 43
2 44
2 45
2 46
2 47
2 48
2 49
2 50
2 51
2 52
2 53
2 54
2 55
2 56
2 57
2 58
2 59
2 60
3 61
3 62
4 62
5 62
6 62
7 62
8 62
9 62
10 62
11 62
12 62
13 62
14 62
15 62
16 62
17 62
18 62
19 62
20 62
21 61
22 61
23 61
24 61
25 61
26 61
27 61
28 61
29 61
30 61
31 60
32 60
33 60
34 60
35 59
36 59
37 59
38 58
39 58
40 58
41 58
42 57
43 58
43 59
44 60
44 61
45 62
45 63
45 64
45 65
45 66
45 67
45 68
45 69
46 70
47 71
47 72
48 73
48 74
49 75
50 76
51 77
52 77
53 78
54 79
54 80
54 81
55 82
55 83
56 84
57 85
57 86
58 86
59 87
60 88
61 88
62 89
63 89
64 90
65 90
66 91
67 91
68 92
69 92
70 92
71 93
72 93
73 93
74 93
75 93
76 93
77 94
78 94
79 94
80 94
81 95
82 95
83 96
84 96
85 96
86 96
87 96
88 97
89 97
90 97
91 97
92 97
93 98
94 98
95 98
96 98
97 98
98 98
99 98
100 98
101 98
102 99
103 99
104 99
105 99
106 99
107 99
108 99
109 99
110 99
111 99
112 99
113 99
114 99
115 99
116 98
117 98
118 98
119 97
120 97
121 96
122 95
123 95
124 94
125 93
126 93
127 92
128 92
129 92
130 91
131 91
132 91
133 90
134 90
135 90
136 89
137 88
138 87
139 87
140 87
141 87
142 87
143 87
144 86
145 86
146 85
147 84
148 83
149 83
150 82
151 81
152 80
153 79
154 79
155 79
156 78
156 77
157 76
158 76
159 76
160 76
161 76
162 75
163 75
164 74
165 73
166 72
167 72
168 71
168 70
169 69
168 69
167 68
168 67
168 66
169 65
170 65
171 64
171 63
172 62
173 63
174 64
174 65
175 65
176 65
177 65
178 65
179 65
180 64
180 63
181 62
182 62
183 62
184 61
184 60
185 59
185 58
185 57
185 56
185 55
184 55
183 54
182 53
182 52
182 51
183 50
183 49
182 49
181 48
180 47
179 47
178 47
177 47
176 47
175 46
174 46
173 45
172 44
171 43
170 42
169 41
170 40
169 40
168 39
167 39
166 39
165 38
165 37
164 37
163 36
162 36
161 36
160 35
161 34
161 33
160 33
159 32
158 31
157 31
156 30
155 30
154 29
155 28
154 28
153 27
152 27
151 26
150 25
149 25
148 24
147 24
146 24
145 23
144 22
145 21
144 21
143 20
144 19
143 19
142 18
141 17
140 16
141 15
141 14
140 14
139 13
138 12
137 11
136 10
135 9
134 9
133 9
132 8
131 8
130 8
129 8
128 7
127 7
126 7
125 7
124 7
123 6
122 6
121 6
120 6
119 6
118 7
117 6
116 6
115 6
114 6
113 6
112 6
111 6
110 5
109 4
108 4
107 3
106 3
105 2
104 2
103 2
102 2
101 2
100 2
99 2
98 2
97 2
96 2
95 2
94 2
93 2
92 2
91 2
90 2
89 2
88 2
87 2
86 2
85 2
