82 2
81 3
80 3
79 3
78 3
77 3
76 3
75 4
74 4
73 5
72 5
71 5
70 6
69 6
68 7
67 7
66 8
65 8
64 9
63 9
62 9
61 10
60 11
59 11
58 11
57 12
56 12
55 13
54 14
53 14
52 15
51 15
50 16
49 17
48 17
47 18
46 19
45 19
44 20
43 21
42 21
42 22
41 23
40 23
39 24
38 25
37 26
36 27
35 28
35 29
34 30
34 31
33 32
33 33
33 34
33 35
33 36
33 37
32 38
31 38
30 38
29 37
28 37
27 37
26 36
25 36
24 36
23 36
22 36
21 36
20 36
19 36
18 37
17 37
16 37
15 37
14 37
13 38
12 38
11 39
10 40
10 41
9 42
8 43
7 43
7 44
6 45
5 46
5 47
4 48
4 49
3 50
3 51
2 52
2 53
2 54
2 55
2 56
3 57
4 58
4 59
4 60
4 61
5 62
5 63
6 63
7 63
8 64
8 65
9 65
10 66
11 67
11 68
12 68
13 68
14 69
15 70
16 70
17 70
18 70
19 70
20 70
21 70
22 70
23 70
24 70
25 70
26 70
27 69
28 68
29 68
30 68
31 69
31 70
31 71
31 72
32 73
33 74
33 75
34 76
34 77
34 78
35 79
35 80
36 80
37 81
37 82
38 83
38 84
39 84
40 85
41 86
42 86
43 87
44 88
45 88
46 88
47 89
47 90
48 91
49 91
50 92
51 92
52 93
52 94
53 94
54 95
55 96
56 97
57 98
58 98
59 98
60 98
61 99
62 100
63 100
64 101
65 101
66 102
67 102
68 102
69 102
70 103
71 103
72 103
73 104
74 104
75 105
76 105
77 105
78 105
79 105
80 105
81 105
82 106
83 106
84 106
85 106
86 107
87 107
88 107
89 107
90 107
91 107
92 107
93 107
94 107
95 107
96 107
97 107
98 107
99 107
100 107
101 107
102 107
103 107
104 107
105 107
106 107
107 107
108 107
109 107
110 107
111 107
112 107
113 107
114 107
115 107
116 107
117 107
118 107
119 107
120 107
121 107
122 107
123 108
124 108
125 108
126 108
127 108
128 108
129 107
130 107
131 107
132 107
133 107
134 107
135 107
136 107
137 107
138 106
139 106
140 105
141 105
142 106
143 106
144 106
145 106
146 105
147 105
148 105
149 104
150 104
151 104
152 104
153 104
154 104
155 104
156 103
157 102
158 101
159 101
160 101
161 101
162 101
163 101
164 100
165 100
166 100
167 99
168 99
169 99
170 98
170 97
171 96
172 96
173 96
174 96
175 96
176 95
177 95
178 94
178 93
179 92
180 92
181 92
182 91
183 91
184 90
185 89
186 89
187 89
188 88
189 88
190 87
190 86
191 85
192 84
193 83
193 82
194 81
194 80
195 79
195 78
196 77
197 76
197 75
198 74
198 73
199 72
200 71
201 70
201 69
202 68
202 67
203 66
204 65
205 64
206 64
207 64
208 63
209 62
209 61
210 60
210 59
211 58
211 57
211 56
212 55
213 54
213 53
214 52
214 51
214 50
214 49
214 48
214 47
214 46
213 46
212 45
211 45
210 45
209 45
208 45
207 44
206 43
205 42
204 42
203 41
202 40
203 39
202 39
201 38
200 38
199 38
198 37
199 36
199 35
198 35
197 34
196 34
195 34
194 33
195 32
194 32
193 31
194 30
193 30
192 29
191 28
190 27
189 27
188 26
189 25
188 25
187 24
188 23
187 23
186 22
185 22
184 22
183 22
182 21
181 21
180 20
179 20
178 19
177 19
176 18
175 18
174 18
173 18
172 18
172 19
172 20
172 21
172 22
171 23
170 22
169 21
168 21
167 20
166 19
165 18
164 18
163 17
162 16
161 16
160 15
161 14
160 14
159 13
158 12
157 12
156 12
155 13
154 12
153 11
152 11
151 10
150 10
149 9
148 9
147 9
146 9
145 8
144 8
143 7
142 7
141 7
140 7
139 6
138 5
137 5
136 5
135 5
134 5
133 6
132 6
131 6
130 5
129 5
128 5
127 5
126 4
125 4
124 4
123 4
122 4
121 4
120 4
119 4
118 4
117 4
116 4
115 4
114 4
113 4
112 4
111 4
110 4
109 4
108 4
107 4
106 4
105 4
104 4
103 4
102 3
101 3
100 3
99 3
98 3
97 2
96 2
95 2
94 2
93 2
92 2
91 2
90 2
89 2
88 2
87 2
86 2
85 2
84 2
83 2
