129 4
129 5
128 6
127 7
126 8
126 9
126 10
126 11
125 12
124 12
124 13
123 14
122 13
122 14
121 15
121 16
121 17
121 18
120 19
119 20
119 21
119 22
119 23
119 24
118 25
117 26
117 27
117 28
117 29
117 30
118 31
119 32
118 33
117 33
116 33
115 32
114 32
113 32
113 33
112 34
112 35
112 36
112 37
113 37
114 38
114 39
114 40
115 41
116 42
116 43
117 44
117 45
118 46
119 46
120 47
121 47
122 47
123 47
124 48
125 48
126 48
127 48
128 48
129 48
130 48
131 48
132 48
133 48
134 48
135 48
136 48
137 48
138 48
139 48
140 49
141 49
142 49
143 49
144 49
145 49
146 50
147 50
148 50
149 51
150 51
151 51
152 51
153 52
154 52
155 53
154 54
153 54
152 54
152 55
151 56
150 55
149 55
148 55
147 55
146 55
146 56
145 57
144 56
143 56
142 56
142 57
141 58
140 57
139 57
138 57
137 57
136 56
136 57
135 58
134 59
133 58
132 58
131 58
130 58
129 58
128 58
128 59
127 60
126 59
125 59
124 59
124 60
123 61
122 60
121 60
120 60
119 60
118 60
117 60
116 60
115 60
115 61
114 62
113 61
112 61
111 61
110 61
109 61
108 61
107 61
106 61
105 61
104 61
103 61
102 61
102 62
101 63
100 62
99 62
98 62
97 62
96 62
95 62
94 62
93 62
92 62
91 62
90 62
89 62
88 62
88 63
87 64
86 63
85 63
84 63
83 63
82 63
81 63
80 63
79 63
78 63
77 63
76 63
75 63
74 63
73 63
72 63
71 63
70 63
69 62
68 62
67 62
66 62
65 62
64 62
63 62
62 62
61 62
60 62
59 62
58 62
57 62
56 62
55 62
54 62
53 62
52 62
51 62
50 62
49 62
48 62
47 62
46 62
45 62
44 62
43 62
42 62
41 62
40 62
39 62
38 62
37 61
36 61
35 61
34 61
33 60
32 60
31 60
30 59
29 59
28 59
27 58
26 58
25 57
24 57
23 56
22 56
21 56
20 56
19 55
18 55
18 56
17 57
16 56
15 56
14 55
13 54
12 54
11 53
10 53
9 52
8 52
7 52
6 51
5 51
4 51
3 51
3 52
2 53
2 54
2 55
2 56
3 57
4 58
5 59
6 59
7 60
8 61
9 61
10 61
11 62
12 62
13 63
14 63
15 63
16 63
17 64
18 64
19 65
20 65
21 65
22 66
23 66
24 66
25 67
26 67
27 67
28 68
29 68
30 68
31 68
32 68
33 68
34 69
35 69
36 69
37 70
38 70
39 71
40 71
41 71
42 72
43 72
44 73
45 74
46 74
47 74
48 75
49 75
50 75
51 76
52 76
53 77
54 77
55 78
56 78
57 79
58 79
59 79
60 80
61 80
62 81
63 81
64 81
65 81
66 82
67 82
68 82
69 82
70 83
71 83
72 83
73 83
74 84
75 84
76 84
77 84
78 85
79 85
80 85
81 85
82 86
83 86
84 86
85 86
86 86
87 87
88 87
89 87
90 87
91 88
92 88
93 88
94 88
95 88
96 88
97 89
98 89
99 89
100 89
101 89
102 89
103 90
104 90
105 90
106 90
107 90
108 90
109 90
110 91
111 91
112 91
113 91
114 91
115 91
116 91
117 91
118 91
119 92
120 92
121 92
122 92
123 92
124 92
125 92
126 92
127 93
128 93
129 93
130 93
131 93
132 93
133 93
134 93
135 93
136 93
137 94
138 94
139 94
140 94
141 94
142 94
143 94
144 94
145 94
146 94
147 94
148 94
149 94
150 94
151 94
152 94
153 95
154 95
155 95
156 95
157 95
158 95
159 95
160 96
161 96
162 96
163 97
164 97
165 97
166 98
165 99
164 100
163 101
162 102
161 101
161 102
160 103
159 104
158 103
158 104
157 105
156 106
155 105
155 106
154 107
153 108
152 107
152 108
151 109
150 110
149 111
148 112
147 113
146 114
145 115
144 114
143 114
143 115
142 116
141 115
141 116
140 117
140 118
140 119
139 120
138 121
137 122
137 123
136 124
135 125
135 126
135 127
134 128
134 129
134 130
134 131
134 132
134 133
134 134
134 135
134 136
134 137
134 138
134 139
134 140
134 141
134 142
134 143
134 144
134 145
134 146
134 147
134 148
134 149
134 150
135 150
136 150
137 150
138 150
139 150
140 149
141 149
142 148
143 148
144 148
145 148
146 149
145 150
145 151
144 152
143 153
143 154
143 155
143 156
143 157
143 158
143 159
143 160
143 161
144 161
145 162
146 163
147 163
148 163
149 164
149 165
150 165
151 166
151 167
152 167
153 167
154 167
155 168
155 169
156 169
157 169
158 169
159 169
160 168
161 167
162 167
163 166
164 165
165 164
166 163
167 163
168 163
169 162
170 162
171 162
172 162
173 161
174 160
174 159
174 158
175 157
175 156
176 155
176 154
176 153
176 152
176 151
176 150
176 149
176 148
176 147
176 146
176 145
176 144
176 143
176 142
177 141
177 140
177 139
177 138
177 137
177 136
178 135
178 134
178 133
179 132
179 131
179 130
179 129
179 128
179 127
179 126
179 125
179 124
180 123
180 122
180 121
181 120
181 119
181 118
182 117
182 116
182 115
182 114
182 113
182 112
182 111
182 110
183 109
183 108
183 107
183 106
183 105
184 104
184 103
184 102
185 101
185 100
185 99
185 98
185 97
186 96
187 96
188 96
189 96
190 96
191 96
192 96
193 95
194 95
195 95
196 95
197 95
198 95
199 95
200 95
201 94
202 94
203 94
204 94
205 93
206 93
207 93
208 93
209 92
210 92
211 92
212 92
213 92
214 91
215 91
216 90
217 90
218 90
219 90
220 90
221 89
222 89
223 88
224 88
225 88
226 87
227 87
228 86
229 86
230 85
231 85
232 84
233 83
234 82
234 81
234 80
234 79
234 78
234 77
234 76
234 75
234 74
234 73
234 72
234 71
234 70
234 69
234 68
234 67
233 66
232 66
231 65
230 64
229 64
228 63
227 63
226 62
225 62
224 61
223 61
222 61
221 61
220 60
219 60
218 59
217 59
216 59
215 58
214 58
213 58
212 58
211 57
210 57
209 57
208 57
207 56
206 56
205 56
204 56
203 55
202 55
201 55
200 54
199 54
198 54
197 54
196 53
195 53
194 53
193 53
192 53
191 53
190 53
189 52
188 52
187 52
186 52
185 52
184 52
183 52
182 51
182 50
182 49
181 48
180 47
180 46
179 45
178 44
177 43
177 42
177 41
176 40
176 39
175 38
175 37
175 36
174 35
174 34
173 33
172 32
172 31
171 30
171 29
170 28
170 27
169 26
168 25
168 24
167 23
166 22
165 21
165 20
165 19
165 18
165 17
164 16
163 15
163 14
162 13
162 12
161 11
160 10
159 10
158 9
157 9
156 8
155 8
154 7
153 7
152 7
151 6
150 6
149 6
148 5
147 5
146 5
145 5
145 6
144 7
143 6
142 6
141 6
140 6
139 6
138 5
137 5
136 4
135 4
134 4
133 4
132 4
131 4
130 4
