163 2
163 3
163 4
163 5
164 6
165 7
165 8
166 9
166 10
166 11
165 12
164 12
163 11
162 10
161 9
160 8
159 8
158 8
157 8
156 8
155 8
154 8
153 8
152 7
151 7
150 7
149 7
148 7
147 7
146 7
145 7
144 7
143 7
142 7
141 6
140 6
139 6
138 6
137 6
136 7
135 6
134 6
133 6
132 5
131 5
130 5
129 5
128 5
127 5
126 5
125 5
124 5
123 5
122 5
121 5
120 5
119 5
118 6
117 5
116 5
115 5
114 5
113 5
112 6
111 6
110 6
109 6
108 6
107 6
106 6
105 6
104 6
103 6
102 6
101 6
100 6
99 7
98 7
97 7
96 8
95 8
94 8
93 8
92 9
91 9
90 9
89 10
88 10
87 10
86 10
85 10
84 11
83 11
82 11
81 12
80 12
79 12
78 13
77 13
76 13
75 14
74 15
73 15
72 15
71 15
70 16
69 16
68 17
67 18
66 18
65 18
64 18
63 19
62 19
62 20
61 21
60 21
59 21
58 21
57 22
56 22
56 23
55 24
54 24
53 24
52 24
51 24
51 25
50 26
49 26
48 26
47 26
46 26
46 27
45 28
44 28
43 28
42 28
41 28
40 29
40 30
40 31
41 32
42 33
43 33
44 34
45 34
46 34
47 35
48 36
49 36
50 36
51 37
52 37
53 37
54 38
53 39
52 39
51 39
50 39
49 39
48 39
47 38
46 38
45 38
44 38
43 37
42 37
41 37
40 37
39 37
38 37
37 36
36 36
35 36
34 35
33 35
32 35
31 35
30 35
29 35
28 35
27 35
26 35
25 34
24 34
23 34
22 33
21 33
20 33
19 32
18 32
17 31
16 31
15 30
14 30
13 30
12 30
11 30
10 30
9 30
8 30
7 30
6 30
5 30
4 30
3 30
3 31
3 32
3 33
4 34
5 35
5 36
6 37
7 38
6 39
5 39
5 40
5 41
6 42
7 42
8 43
7 44
6 44
5 44
4 44
4 45
4 46
5 47
6 48
5 49
4 49
3 49
2 49
2 50
2 51
2 52
3 53
3 54
3 55
3 56
4 57
5 58
6 58
7 58
8 59
7 60
6 60
5 60
4 60
4 61
4 62
5 63
6 63
7 63
8 63
9 64
10 64
11 65
10 66
9 66
8 67
7 67
6 68
5 68
5 69
5 70
5 71
5 72
4 73
4 74
4 75
5 76
6 76
7 77
7 78
8 79
9 79
10 80
11 80
12 80
13 80
14 80
15 80
16 80
17 80
18 79
19 79
20 79
21 79
22 78
23 78
24 78
25 78
26 78
27 77
28 77
29 77
30 76
31 76
32 76
33 75
34 75
35 74
36 74
37 74
38 74
39 74
40 74
41 73
42 73
43 73
44 73
45 73
46 73
47 72
48 72
49 72
50 72
51 72
52 72
53 72
54 72
55 73
54 74
53 75
52 75
51 75
50 76
49 77
48 77
47 78
46 79
45 79
45 80
45 81
46 82
47 83
48 83
49 84
50 84
51 84
52 84
53 84
54 85
55 85
56 85
57 85
58 85
59 86
60 87
61 87
62 87
63 87
64 87
65 88
66 89
67 89
68 89
69 89
70 89
71 90
72 90
73 91
74 91
75 91
76 91
77 91
78 92
79 92
80 92
81 92
82 92
83 92
84 92
85 93
86 93
87 94
88 94
89 94
90 94
91 93
92 93
93 94
94 95
95 95
96 95
97 95
98 95
99 95
100 96
101 96
102 96
103 96
104 96
105 96
106 95
107 95
108 96
109 96
110 96
111 96
112 95
113 95
114 94
115 94
116 94
117 94
118 94
119 94
120 94
121 93
122 92
123 92
124 92
125 92
126 92
127 91
128 90
129 89
129 88
130 87
131 86
132 86
133 86
134 86
135 86
136 86
137 86
138 86
139 85
140 85
141 85
142 84
143 83
144 83
145 83
146 83
147 83
148 83
149 83
150 83
151 83
152 83
153 83
154 83
155 84
156 85
155 86
154 86
153 86
152 86
151 86
150 87
150 88
150 89
151 90
152 90
153 91
152 92
151 92
151 93
150 94
149 94
149 95
149 96
148 97
148 98
147 99
146 100
146 101
145 102
144 102
143 103
142 104
141 105
140 105
139 106
138 107
137 107
136 108
135 108
134 109
134 110
134 111
135 112
136 112
137 111
138 111
139 110
140 110
141 109
142 110
142 111
141 112
140 113
140 114
140 115
141 116
142 116
143 115
144 114
145 113
146 112
147 111
148 110
148 109
149 108
150 107
151 106
152 105
153 104
154 104
155 103
155 102
156 101
157 101
158 100
159 99
160 98
161 97
162 96
163 95
164 94
165 93
166 92
167 91
167 90
168 89
169 88
170 87
170 86
171 85
172 85
173 85
174 85
175 85
176 84
177 84
178 84
179 83
180 83
181 83
182 83
183 83
184 83
185 82
186 82
187 82
188 82
189 82
190 82
191 81
192 81
193 81
194 81
195 80
196 80
197 80
198 80
199 80
200 80
201 79
202 79
203 79
204 79
205 78
206 78
207 78
208 77
209 77
210 77
211 76
212 76
213 76
214 75
215 74
216 74
217 73
218 72
219 71
220 70
221 70
222 69
223 69
224 68
225 68
226 67
227 67
228 66
229 65
229 64
230 63
230 62
229 62
228 61
229 60
230 59
231 58
231 57
232 56
232 55
232 54
231 54
230 53
229 53
228 52
227 51
226 50
225 50
224 49
223 48
222 47
221 46
220 45
219 44
218 43
217 42
216 41
215 40
214 39
213 38
214 37
213 37
212 36
211 35
210 34
209 33
210 32
209 32
208 31
207 30
206 29
205 29
204 28
203 28
202 27
201 27
200 27
199 26
198 25
197 25
196 25
195 24
194 24
193 23
192 23
191 22
190 21
189 21
188 21
187 21
186 20
185 20
184 20
183 20
182 19
181 19
180 19
179 19
178 18
177 18
176 17
175 16
176 15
175 15
174 14
173 13
172 13
171 12
172 11
172 10
171 10
170 9
171 8
170 8
169 7
168 6
167 5
168 4
167 4
166 3
165 2
164 2
