171 2
170 3
169 4
168 4
168 5
167 6
166 6
165 6
164 7
163 7
162 8
161 8
160 8
159 8
158 9
157 9
156 9
155 9
154 10
154 11
153 12
152 12
151 12
150 13
150 14
150 15
149 16
148 16
147 17
146 17
146 18
146 19
145 20
144 20
143 20
143 21
143 22
143 23
143 24
142 25
141 25
140 25
139 25
138 25
137 26
136 26
135 26
134 26
133 26
132 26
131 26
130 26
129 27
128 27
127 27
126 27
125 27
124 28
123 28
122 28
121 28
120 29
119 29
118 29
117 29
116 29
115 30
114 30
113 30
112 31
111 31
110 31
109 31
108 32
107 32
106 32
105 32
104 33
103 33
102 33
101 33
100 33
99 34
98 34
97 34
96 34
95 34
94 35
93 35
92 35
91 35
90 35
89 35
88 36
87 36
86 36
85 36
84 36
83 36
82 36
81 37
80 37
79 37
78 37
77 37
76 37
75 37
74 37
73 37
72 38
71 38
70 38
69 38
68 38
67 39
66 39
65 39
64 39
63 40
62 40
61 40
60 41
59 41
58 41
57 41
56 41
55 40
54 40
53 40
52 40
51 39
50 39
49 39
48 38
47 38
46 38
45 38
44 38
43 37
42 37
41 36
40 36
39 36
38 35
37 35
36 34
35 34
34 34
33 33
32 32
31 32
30 32
29 32
28 31
27 31
26 30
25 30
24 30
23 29
22 29
21 28
20 28
19 28
18 27
17 26
16 26
15 26
14 25
13 25
12 24
11 24
10 23
9 23
8 22
7 21
6 21
5 21
4 21
3 21
2 21
2 22
2 23
2 24
2 25
2 26
2 27
2 28
3 29
3 30
4 31
3 32
3 33
3 34
3 35
3 36
3 37
4 38
4 39
4 40
5 41
5 42
5 43
4 44
4 45
4 46
4 47
4 48
4 49
5 50
5 51
5 52
5 53
6 53
7 53
8 53
9 54
9 55
9 56
9 57
9 58
8 59
7 59
6 59
6 60
6 61
6 62
6 63
6 64
6 65
5 66
4 67
4 68
3 69
3 70
3 71
3 72
3 73
3 74
4 74
5 74
6 74
7 73
8 73
9 74
10 74
11 74
12 73
13 73
14 73
15 72
16 71
17 71
18 71
19 70
20 70
21 70
22 69
23 69
24 68
25 68
26 67
27 66
28 66
29 65
30 65
31 65
32 65
33 65
34 64
35 63
36 63
37 63
38 62
39 61
40 61
41 60
42 59
43 58
44 58
45 58
46 58
47 57
48 57
49 57
50 57
51 57
52 57
53 56
54 56
55 56
56 56
57 56
58 56
59 56
60 56
61 56
62 56
63 56
64 56
65 57
66 58
66 59
66 60
66 61
66 62
66 63
67 63
68 63
69 63
70 63
71 63
72 63
73 63
74 63
75 63
76 62
76 61
77 60
78 59
79 59
80 60
79 61
78 62
78 63
78 64
78 65
78 66
78 67
78 68
78 69
78 70
79 70
80 70
81 70
82 71
82 72
83 72
84 72
85 72
86 72
87 72
88 71
89 72
89 73
90 73
91 73
92 74
93 74
94 74
95 74
96 74
97 74
98 74
99 73
100 73
101 73
102 73
103 72
104 71
105 71
106 70
107 70
108 69
109 69
110 68
111 68
112 68
113 68
114 69
115 69
116 69
117 69
118 69
119 69
120 69
121 69
122 69
123 69
124 69
125 68
126 68
127 68
128 68
129 68
130 68
131 68
132 68
133 68
134 68
135 68
136 68
137 68
138 68
139 68
140 68
141 68
142 68
143 68
144 68
145 68
146 68
147 68
148 68
149 68
150 68
151 68
152 68
153 68
154 69
155 69
156 69
157 69
158 69
159 69
160 69
161 70
162 70
163 70
164 70
165 70
166 70
167 70
168 71
169 71
170 71
171 71
172 71
173 71
174 71
175 71
176 71
177 71
178 71
179 71
180 71
181 71
182 70
183 69
184 69
185 69
186 70
186 71
185 72
184 73
183 73
182 74
182 75
182 76
182 77
183 77
184 77
185 77
186 77
187 76
188 76
189 75
190 75
191 74
192 74
193 73
194 73
195 72
196 72
197 71
198 71
199 70
200 70
201 70
202 70
203 71
204 71
205 71
206 71
207 71
208 71
209 71
210 71
211 71
212 71
213 71
214 71
215 71
216 71
217 71
218 71
219 70
220 70
221 70
222 70
223 70
224 70
225 69
226 69
227 68
228 68
229 68
230 68
231 68
232 67
233 67
234 67
235 66
236 66
237 65
238 65
239 64
240 63
241 62
242 61
243 61
244 60
244 59
245 58
244 58
243 57
242 57
241 57
240 56
239 55
240 54
239 54
238 53
237 53
236 53
235 52
234 51
233 50
232 49
231 49
230 48
229 47
228 47
227 46
226 45
225 45
224 44
225 43
224 43
223 42
222 41
221 40
222 39
222 38
221 38
220 37
219 37
218 36
217 35
216 35
215 35
214 35
213 34
212 34
211 33
210 33
209 33
208 32
207 32
206 32
205 32
204 32
203 32
202 32
201 32
200 32
199 32
198 31
197 31
196 31
195 30
194 30
193 29
192 29
191 29
190 29
189 28
188 28
187 28
186 28
185 28
184 28
183 27
182 26
183 25
183 24
182 24
181 23
182 22
181 22
180 21
181 20
181 19
181 18
180 18
179 17
180 16
180 15
180 14
179 14
178 13
179 12
179 11
179 10
179 9
178 9
177 8
178 7
177 7
176 6
177 5
176 5
175 4
176 3
175 3
174 2
173 2
172 2
