159 2
159 3
159 4
159 5
160 6
161 7
161 8
162 9
163 10
162 11
161 11
160 10
159 9
158 9
157 8
156 7
155 6
154 5
153 5
152 5
152 6
152 7
152 8
153 9
154 10
154 11
153 12
152 12
151 12
150 12
149 11
148 10
147 9
146 8
145 8
144 8
144 9
144 10
144 11
143 12
142 12
141 12
141 13
141 14
140 15
139 15
139 16
139 17
139 18
139 19
140 20
141 21
142 22
141 23
140 23
139 23
139 24
139 25
139 26
140 27
139 28
138 28
137 27
136 27
135 27
134 27
133 27
133 28
133 29
132 30
131 31
130 31
129 31
128 31
127 31
126 30
125 29
124 29
123 29
122 28
121 27
120 27
120 28
120 29
119 30
118 29
117 29
116 29
115 28
114 28
113 28
112 28
112 29
111 30
110 30
109 29
108 29
107 29
106 29
105 29
104 29
103 30
102 30
101 29
100 29
99 29
98 29
97 29
96 29
95 29
94 29
93 30
93 31
93 32
92 33
91 32
90 32
89 32
88 32
87 32
86 32
85 32
84 32
83 32
82 32
81 32
80 31
79 31
78 31
77 31
76 31
76 32
76 33
77 34
78 34
79 35
78 36
77 36
76 36
75 35
74 35
73 35
72 34
71 34
70 34
69 34
68 35
68 36
68 37
67 38
66 38
65 38
64 38
63 39
62 39
61 39
60 39
59 39
59 40
59 41
59 42
60 43
61 44
61 45
61 46
60 47
59 47
58 47
57 48
56 48
55 48
54 48
53 48
52 48
51 47
50 47
49 47
48 47
47 47
46 46
45 46
44 46
43 45
42 45
41 45
40 44
39 44
38 44
37 44
36 44
35 43
34 43
33 43
32 42
31 42
30 42
29 42
28 41
27 41
26 41
25 41
24 40
23 40
22 40
21 39
20 39
19 38
18 38
17 38
16 37
15 37
14 37
13 36
12 36
11 35
10 35
9 34
8 34
7 34
7 35
7 36
7 37
8 38
8 39
8 40
8 41
8 42
9 43
10 44
11 45
12 45
13 45
14 46
15 46
16 46
17 47
18 48
19 49
20 50
19 51
18 51
17 51
16 50
15 50
14 50
13 50
12 50
11 50
10 50
9 50
9 51
9 52
9 53
10 54
11 55
12 56
13 56
14 56
15 57
14 58
13 58
12 59
12 60
12 61
12 62
11 63
10 64
9 65
8 66
7 67
6 68
5 69
4 69
3 70
2 70
2 71
2 72
3 73
4 73
5 73
6 73
7 73
8 72
9 72
10 72
11 72
12 72
13 72
14 71
15 71
16 71
17 71
18 71
19 71
20 70
21 70
22 70
23 70
24 70
25 70
26 69
27 70
28 70
29 69
30 68
31 68
32 68
33 67
34 67
35 67
36 67
37 67
38 66
39 66
40 66
41 65
42 65
43 65
44 65
45 64
46 64
47 64
48 64
49 64
50 63
51 63
52 63
53 63
54 64
54 65
54 66
55 67
56 67
57 67
58 67
59 67
60 67
61 68
60 69
59 69
58 70
57 70
56 71
56 72
56 73
57 74
58 74
59 73
60 73
61 72
62 72
63 72
64 71
65 72
66 73
67 73
68 74
68 75
68 76
69 77
70 77
71 76
72 76
73 77
74 78
75 78
76 77
77 77
78 76
79 75
80 75
81 74
82 74
83 73
84 74
84 75
84 76
85 77
86 78
87 79
88 79
89 78
90 78
91 77
92 76
93 75
94 75
95 74
96 74
97 73
98 72
99 71
100 70
101 71
101 72
101 73
101 74
100 75
99 75
99 76
99 77
99 78
100 79
101 79
102 79
103 78
104 77
105 77
106 76
107 75
108 74
109 73
110 74
110 75
111 76
112 76
113 77
112 78
112 79
112 80
113 81
114 81
115 80
116 79
117 78
117 77
118 76
119 77
120 77
121 77
122 78
123 78
124 78
125 77
126 77
127 77
128 78
129 79
130 79
131 80
132 80
133 81
134 81
135 81
136 81
137 81
138 80
139 80
140 80
141 80
142 80
143 79
144 79
145 79
146 79
147 79
148 79
149 79
150 79
151 79
152 79
153 79
154 79
155 80
156 80
157 80
158 79
159 79
160 79
161 78
162 78
163 78
164 78
165 79
166 80
167 80
168 80
169 80
170 80
171 81
172 81
173 81
174 81
175 82
176 82
177 82
178 81
179 81
180 81
181 80
182 80
183 80
184 79
185 79
186 79
187 79
188 78
189 77
190 76
191 76
192 76
193 76
194 76
195 76
196 76
197 76
198 75
199 74
200 74
201 74
202 74
203 74
204 73
205 74
206 74
207 74
208 74
209 74
210 73
211 74
212 74
213 74
214 74
215 73
216 72
217 72
218 72
219 72
220 72
221 72
222 71
223 71
224 71
225 70
226 70
227 69
228 68
229 68
230 67
231 66
232 66
233 66
234 66
235 65
236 64
236 63
237 62
236 62
235 61
234 60
233 60
232 59
231 58
230 58
229 57
230 56
229 56
228 55
227 54
226 53
225 52
226 51
225 51
224 50
223 49
222 48
222 47
222 46
223 45
222 45
221 44
220 44
219 43
220 42
219 42
218 41
219 40
219 39
218 39
217 38
218 37
217 37
216 36
215 36
214 35
213 34
212 34
211 34
210 33
209 33
208 32
207 31
206 31
205 31
204 32
203 31
202 31
201 31
200 31
199 31
198 31
197 30
196 30
195 30
194 30
193 30
192 29
191 29
190 29
189 29
188 29
187 29
186 28
185 28
184 28
183 27
182 26
181 25
180 24
181 23
181 22
180 22
179 21
180 20
180 19
179 19
178 18
177 17
176 16
175 15
176 14
175 14
174 13
173 12
172 11
173 10
172 10
171 9
170 8
169 7
168 6
167 6
166 6
165 6
164 5
163 4
162 3
161 2
160 2
