146 2
146 3
145 4
144 4
143 4
142 4
142 5
142 6
141 7
141 8
141 9
142 10
143 11
143 12
144 13
145 13
146 14
147 15
148 16
149 17
150 18
151 19
152 20
153 21
152 22
151 22
150 21
149 20
148 20
147 19
146 19
145 18
144 17
143 17
142 16
141 15
140 14
139 14
138 14
138 15
138 16
138 17
138 18
138 19
138 20
138 21
138 22
138 23
138 24
139 25
139 26
140 27
141 28
140 29
139 29
138 29
137 29
136 29
136 30
135 31
134 31
133 31
132 31
131 30
130 30
129 29
128 29
127 28
126 28
125 28
124 27
123 27
122 27
121 27
120 26
119 26
118 26
117 26
116 26
115 25
114 25
113 25
112 25
111 26
110 25
109 25
108 25
107 25
107 26
106 27
105 27
105 28
104 29
103 29
102 29
101 28
100 28
99 28
98 28
97 28
97 29
96 30
95 30
94 30
93 30
93 31
92 32
91 32
90 32
89 32
89 33
88 34
87 34
86 34
86 35
85 36
84 36
83 37
82 37
81 37
80 37
79 37
78 36
77 36
76 36
75 36
74 36
73 37
72 37
72 38
71 39
70 39
70 40
69 41
68 41
67 41
66 41
65 41
65 42
64 43
63 43
62 43
61 43
60 43
59 43
58 43
57 43
57 44
57 45
56 46
55 46
54 46
53 46
52 47
51 46
50 45
49 46
48 45
47 44
46 44
45 43
44 43
43 43
42 42
41 42
40 42
39 42
38 41
37 41
36 41
35 41
34 40
33 40
32 39
31 39
30 39
29 39
28 39
27 38
26 38
25 37
24 36
23 36
22 36
21 35
20 35
19 34
18 34
17 34
16 34
15 33
14 33
13 33
12 33
11 32
10 32
9 32
8 32
7 32
6 32
5 32
4 32
3 32
3 33
3 34
3 35
4 36
4 37
4 38
4 39
4 40
4 41
4 42
5 43
5 44
5 45
5 46
5 47
6 48
6 49
7 50
8 51
7 52
6 52
6 53
6 54
6 55
6 56
5 57
5 58
5 59
5 60
6 61
5 62
4 63
4 64
4 65
4 66
3 67
2 67
2 68
2 69
2 70
3 71
4 71
5 71
6 71
7 71
8 71
9 71
10 71
11 70
12 70
13 69
14 69
15 69
16 69
17 69
18 69
19 69
20 69
21 69
22 68
23 68
24 68
25 68
26 67
27 67
28 67
29 67
30 66
31 66
32 66
33 66
34 66
35 65
36 64
37 64
38 64
39 64
40 64
41 63
42 63
43 63
44 62
45 62
46 62
47 62
48 62
49 62
50 62
51 62
52 62
53 62
54 62
55 62
56 63
57 63
58 64
57 65
57 66
57 67
58 68
59 68
60 69
61 70
62 70
63 70
64 70
65 69
66 69
67 69
68 69
69 69
70 69
71 69
72 69
73 69
74 70
75 70
76 70
77 71
78 71
79 71
80 71
81 72
82 73
83 73
84 73
85 73
86 73
87 73
88 73
89 73
90 73
91 73
92 73
93 74
94 74
95 74
96 74
97 75
97 76
97 77
98 78
99 78
100 78
101 78
102 79
102 80
102 81
103 82
104 83
105 83
106 83
107 82
108 82
109 82
110 81
111 81
112 80
113 79
114 78
115 78
116 77
117 76
118 75
119 75
120 75
121 75
122 75
123 75
124 75
125 76
126 76
127 76
128 76
129 76
130 76
131 76
132 76
133 76
134 76
135 77
136 77
137 77
138 78
139 78
140 78
141 78
142 79
143 79
144 79
145 78
146 78
147 78
148 78
149 78
150 78
151 78
152 78
153 78
154 77
155 77
156 77
157 77
158 77
159 77
160 77
161 78
160 79
159 80
158 80
157 80
156 80
155 81
154 81
153 82
152 82
151 83
150 83
149 83
148 83
147 83
146 84
145 84
144 84
144 85
144 86
145 87
146 88
147 88
148 89
149 90
150 90
151 90
152 89
153 89
154 89
155 89
156 89
157 89
158 88
159 87
160 87
161 87
162 86
163 85
164 85
165 84
166 84
167 85
166 86
165 87
164 88
163 89
162 90
161 91
160 92
159 92
158 93
158 94
158 95
157 96
156 96
156 97
156 98
157 99
158 99
159 99
160 98
161 98
162 97
163 97
164 96
165 96
166 96
167 96
168 96
169 96
170 95
171 94
172 93
173 93
174 92
175 91
176 90
177 89
178 89
179 88
179 87
180 86
181 85
182 84
183 83
184 82
185 82
186 83
186 84
185 85
185 86
185 87
185 88
185 89
185 90
185 91
184 92
184 93
184 94
183 95
182 96
182 97
181 98
181 99
181 100
180 101
180 102
179 103
178 104
178 105
178 106
178 107
178 108
179 109
180 109
181 108
181 107
182 106
182 105
183 104
183 103
184 102
185 101
185 100
186 99
187 98
188 97
189 97
190 97
191 96
192 96
193 96
194 95
195 94
196 94
197 93
198 92
199 92
200 91
201 90
202 89
202 88
203 87
203 86
203 85
203 84
203 83
203 82
203 81
202 81
201 80
200 79
201 78
200 78
199 77
200 76
201 76
202 76
203 76
204 76
205 76
206 76
207 76
208 76
209 75
210 75
211 75
212 75
213 75
214 75
215 75
216 75
217 74
218 74
219 74
220 74
221 74
222 73
223 73
224 73
225 72
226 72
227 72
228 72
229 71
230 71
231 71
232 71
233 71
234 71
235 71
236 71
237 71
238 71
239 71
240 72
241 72
242 72
243 72
244 72
245 71
245 70
246 69
245 69
244 68
243 68
242 67
241 66
240 66
239 65
240 64
241 63
241 62
242 61
241 61
240 60
239 60
238 60
237 60
236 60
235 59
236 58
235 58
234 57
233 56
234 55
233 55
232 54
231 53
232 52
231 52
230 51
229 50
228 49
227 48
226 47
227 46
226 46
225 45
224 44
223 43
224 42
223 42
222 41
223 40
223 39
222 39
221 38
220 37
219 36
220 35
219 35
218 34
217 34
216 33
215 32
214 31
213 31
212 30
211 30
210 29
209 29
208 28
207 28
206 28
205 28
204 28
203 28
202 27
201 27
200 27
199 27
198 27
197 27
196 26
195 26
194 26
193 25
192 25
191 25
190 25
189 24
188 24
187 24
186 24
185 23
184 23
183 23
182 23
181 23
180 23
179 23
178 23
177 22
176 21
177 20
176 20
175 19
174 19
173 18
172 17
171 16
170 15
169 15
168 14
167 13
166 13
165 12
164 11
163 10
162 9
161 9
160 9
159 8
158 7
157 7
156 6
155 5
154 5
153 4
152 4
151 4
150 3
149 2
148 2
147 2
