158 4
158 5
158 6
158 7
159 8
160 9
161 10
162 11
163 12
164 13
165 14
165 15
166 16
166 17
167 18
167 19
168 20
168 21
169 22
169 23
170 24
170 25
170 26
169 27
168 26
167 25
166 24
165 23
164 23
163 23
162 23
161 23
160 23
159 22
158 22
157 22
156 22
155 22
154 22
153 22
152 22
151 21
150 21
149 21
148 21
147 21
146 21
145 21
144 21
143 21
142 21
141 21
140 21
139 21
138 21
137 21
136 21
135 21
134 21
133 21
132 21
131 21
130 22
129 22
128 22
127 22
126 23
125 23
124 23
123 23
122 23
121 23
120 23
119 23
118 24
117 24
116 24
115 24
114 25
113 25
112 25
111 25
110 25
109 25
108 25
107 25
106 26
105 26
104 26
103 27
102 27
101 27
100 27
99 27
98 28
97 28
96 28
95 28
94 29
93 29
92 30
91 30
90 30
89 31
88 31
87 31
86 32
85 33
84 33
83 34
82 35
81 35
80 36
79 36
78 36
77 36
76 37
75 37
74 38
73 39
72 39
71 40
70 40
69 41
68 42
67 42
66 43
65 43
64 43
63 43
62 44
61 44
60 44
60 45
59 46
58 46
57 46
56 46
55 46
54 47
53 47
52 47
51 48
50 48
49 49
48 50
47 50
46 51
45 51
44 51
43 51
42 52
42 53
42 54
43 55
44 55
45 56
46 56
47 57
48 57
49 58
50 59
49 60
48 60
47 59
46 59
45 59
44 59
43 59
42 58
41 58
40 58
39 58
38 58
37 58
36 57
35 57
34 57
33 57
32 57
31 57
30 56
29 56
28 55
27 55
26 55
25 55
24 55
23 54
22 54
21 54
20 54
19 54
18 53
17 53
16 53
15 54
14 54
13 54
12 54
11 54
10 54
9 54
8 55
7 56
6 57
6 58
5 59
4 59
3 59
2 60
2 61
2 62
3 63
4 64
5 64
6 65
7 65
8 65
9 65
10 65
11 65
12 66
13 66
14 66
15 66
16 67
15 68
14 68
13 68
12 68
11 69
10 70
9 70
8 71
7 71
6 71
5 71
4 72
4 73
4 74
3 75
2 76
2 77
2 78
3 79
4 80
5 80
6 80
7 80
8 81
7 82
6 82
6 83
6 84
6 85
7 86
8 86
9 86
10 86
11 86
12 87
11 88
10 88
10 89
10 90
10 91
9 92
8 92
7 92
6 93
5 94
5 95
5 96
5 97
5 98
6 99
7 100
8 101
9 101
10 101
11 101
12 101
13 101
14 101
15 101
16 101
17 101
18 101
19 101
20 101
21 101
22 101
23 100
24 100
25 100
26 100
27 99
28 99
29 99
30 98
31 98
32 98
33 97
34 97
35 97
36 97
37 96
38 96
39 96
40 96
41 95
42 95
43 95
44 94
45 94
46 94
47 94
48 94
49 93
50 93
51 93
52 93
53 93
54 94
53 95
52 95
51 95
50 96
49 96
48 96
47 96
46 96
46 97
46 98
46 99
47 100
48 100
49 101
50 101
51 101
52 101
53 101
54 102
55 102
56 102
57 101
58 102
59 103
60 103
61 104
62 104
63 105
64 105
65 105
66 105
67 105
68 105
69 106
70 107
71 108
72 108
73 109
74 109
75 109
76 110
77 110
78 110
79 111
80 111
81 111
82 112
83 112
84 112
85 113
86 113
87 113
88 113
89 114
90 114
91 114
92 114
93 115
94 115
95 115
96 115
97 116
98 116
99 116
100 116
101 116
102 116
103 116
104 117
105 117
106 117
107 117
108 117
109 117
110 117
111 117
112 117
113 117
114 117
115 117
116 117
117 117
118 117
119 117
120 117
121 117
122 116
123 115
124 115
125 115
126 115
127 114
128 114
129 114
130 113
131 112
132 111
133 110
134 110
135 109
136 108
137 107
137 106
138 105
139 104
140 103
141 104
142 105
143 105
144 105
145 104
146 104
147 104
148 104
149 103
150 103
151 103
152 103
153 103
154 102
155 102
156 102
157 102
158 102
159 103
159 104
160 105
160 106
160 107
160 108
159 109
159 110
159 111
158 112
157 113
156 114
155 115
154 116
153 117
152 118
151 118
150 119
149 120
148 121
147 121
146 122
145 122
144 122
143 123
142 124
141 125
140 126
139 126
138 127
137 128
136 128
135 129
134 130
133 130
133 131
133 132
133 133
134 134
135 134
136 133
137 133
138 133
139 132
140 132
141 131
142 130
143 130
144 131
143 132
142 133
141 134
140 135
139 135
139 136
139 137
140 138
141 138
142 138
143 138
144 137
145 136
146 135
147 134
148 134
149 133
150 133
151 132
152 131
153 131
154 130
155 129
156 128
157 127
157 126
158 125
159 124
160 123
161 122
162 121
163 120
164 119
165 118
166 117
167 116
168 115
169 114
170 113
171 112
172 111
173 110
174 109
175 108
176 108
177 107
178 106
179 105
180 104
180 103
181 102
182 101
183 100
184 100
185 100
186 100
187 99
188 99
189 99
190 98
191 98
192 98
193 97
194 97
195 96
196 96
197 96
198 96
199 96
200 95
201 94
202 94
203 94
204 93
205 93
206 93
207 92
208 93
209 93
210 93
211 92
212 92
213 91
214 91
215 90
216 90
217 90
218 89
218 88
219 87
220 86
221 85
222 85
223 84
224 83
225 82
226 81
227 80
228 79
228 78
229 77
230 76
231 75
232 74
233 73
234 72
234 71
235 70
236 69
236 68
237 67
237 66
237 65
237 64
236 64
235 63
236 62
236 61
235 61
234 60
233 59
232 58
231 57
230 57
229 56
228 55
227 54
226 53
225 52
224 52
223 51
222 50
221 49
220 48
219 47
220 46
219 46
218 45
217 44
218 43
218 42
218 41
217 41
216 40
217 39
216 39
215 38
214 37
213 36
212 35
211 34
210 34
209 34
208 34
207 34
206 33
205 33
204 33
203 33
202 32
201 32
200 32
199 32
198 32
197 32
196 32
195 32
194 31
193 31
192 31
191 31
190 30
189 30
188 30
187 30
186 30
185 30
184 30
183 30
182 30
181 30
180 29
181 28
181 27
180 27
179 26
180 25
179 25
178 24
177 23
178 22
177 22
176 21
177 20
176 20
175 19
174 18
173 17
172 16
171 15
170 14
169 13
170 12
169 12
168 11
167 11
166 10
167 9
166 9
165 8
164 7
163 6
162 6
161 5
160 4
159 4
