167 2
167 3
167 4
167 5
167 6
166 7
165 7
164 7
163 7
162 7
161 7
160 6
159 6
158 6
157 6
156 6
155 6
155 7
154 8
153 8
152 7
151 7
150 7
149 7
148 7
147 7
146 8
145 8
144 8
143 8
142 8
141 8
140 8
139 9
138 9
137 9
136 9
135 9
134 10
133 10
132 10
131 10
130 10
129 10
128 10
127 10
126 11
125 11
124 11
123 11
122 12
121 11
120 11
119 10
118 10
117 10
116 10
115 10
115 11
114 12
113 13
112 13
111 13
111 14
110 15
110 16
109 17
108 17
107 17
106 18
105 18
104 18
103 19
102 19
101 19
100 20
99 20
98 20
97 21
96 21
95 21
94 21
93 22
92 22
91 22
90 22
89 22
89 23
88 24
87 24
87 25
86 26
85 26
84 26
83 27
82 27
81 27
80 28
79 28
78 28
77 29
76 29
75 29
74 30
73 30
72 30
71 31
70 31
69 32
68 32
67 33
66 33
65 33
64 34
63 34
62 35
61 35
60 35
59 35
58 35
57 35
56 36
55 36
54 35
53 35
52 35
51 35
50 35
49 35
48 35
47 35
46 34
45 34
44 34
43 34
42 34
41 34
40 33
39 33
38 33
37 33
36 32
35 32
34 32
33 32
32 32
31 31
30 31
29 31
28 31
27 31
26 31
25 31
24 31
23 31
23 32
22 33
21 33
20 34
19 35
18 36
17 36
16 37
15 38
14 38
13 39
12 40
11 40
10 41
9 42
8 42
8 43
7 44
6 44
5 45
4 46
4 47
3 48
2 49
2 50
2 51
2 52
2 53
2 54
3 55
4 55
5 56
5 57
6 57
7 58
8 59
8 60
9 61
10 61
11 62
12 62
13 62
14 63
14 64
14 65
15 65
16 66
17 66
18 66
19 67
20 68
21 68
22 68
23 69
24 69
25 69
26 69
27 69
28 69
29 69
30 69
31 69
32 69
33 68
34 68
35 68
36 68
37 68
38 67
39 67
40 67
41 67
42 66
43 66
44 66
45 66
46 66
47 65
48 65
49 65
50 65
51 65
52 64
53 64
54 64
55 63
56 64
57 64
58 64
59 64
60 64
61 63
62 63
63 64
64 64
65 64
66 65
66 66
66 67
66 68
67 69
68 69
69 70
69 71
70 72
71 73
72 73
73 73
74 73
75 74
76 74
77 75
78 76
78 77
78 78
79 78
80 79
81 79
82 79
83 80
84 80
85 80
86 80
87 81
88 81
89 81
90 81
91 81
92 82
93 82
94 83
94 84
95 85
96 86
97 87
98 87
99 87
100 87
101 87
102 87
103 86
104 86
105 85
106 85
107 85
108 85
109 85
110 85
111 85
112 85
113 85
114 85
115 85
116 85
117 86
117 87
118 87
119 87
120 87
121 87
122 87
123 86
124 86
125 85
126 85
127 84
128 84
129 83
129 82
130 81
131 80
132 81
133 81
134 81
135 81
136 81
137 81
138 81
139 81
140 81
141 82
142 82
143 82
144 82
145 82
146 82
147 82
148 82
149 82
150 83
151 83
152 83
153 83
154 83
155 83
156 83
157 83
158 83
159 83
160 83
161 82
162 82
163 83
162 84
161 85
160 86
159 86
158 87
157 87
156 87
155 87
154 88
153 88
152 89
151 90
150 90
149 90
148 91
147 91
146 91
145 92
144 92
143 92
142 93
141 94
140 94
139 94
138 95
137 95
136 95
135 96
134 96
134 97
134 98
134 99
134 100
134 101
135 101
136 101
137 101
138 100
139 100
140 100
141 101
140 102
139 103
138 103
137 104
136 104
135 104
134 105
133 105
132 105
132 106
132 107
132 108
132 109
132 110
133 110
134 110
135 110
136 110
137 110
138 109
139 109
140 109
141 109
142 108
143 108
144 108
145 107
146 107
147 107
148 106
149 106
150 105
151 105
152 105
153 104
154 104
155 103
156 103
157 103
158 102
159 101
160 101
161 101
162 100
163 99
164 99
165 98
166 97
167 96
168 96
169 95
170 94
171 93
172 93
173 92
174 91
175 90
176 89
177 88
177 87
178 86
179 85
180 84
181 83
181 82
182 81
183 81
184 81
185 81
186 81
187 80
188 80
189 79
190 79
191 78
192 78
193 78
194 77
195 77
196 76
197 76
198 76
199 75
200 75
201 74
202 73
203 73
204 72
205 71
206 71
207 70
208 69
209 69
210 68
210 67
211 66
212 66
213 66
214 65
215 64
216 64
217 63
218 62
218 61
219 60
220 60
221 59
222 58
223 57
224 56
225 55
226 54
227 53
228 52
229 51
229 50
230 49
230 48
230 47
230 46
231 45
231 44
231 43
230 43
229 42
230 41
230 40
229 40
228 39
227 39
226 38
225 37
224 37
223 36
222 36
221 36
220 35
219 34
218 34
217 33
216 33
215 33
214 32
213 32
212 31
211 31
210 30
209 30
208 29
207 29
206 28
205 28
204 28
203 27
202 27
201 27
200 26
199 26
198 26
197 25
196 25
195 25
194 24
193 24
192 24
191 24
190 24
189 23
188 23
187 23
186 22
185 22
184 22
183 22
182 22
181 21
180 20
179 19
180 18
180 17
180 16
180 15
179 15
178 14
177 13
178 12
177 12
176 11
177 10
177 9
177 8
176 8
175 7
176 6
175 6
174 5
173 4
172 3
171 2
170 2
169 2
168 2
