124 2
124 3
124 4
124 5
124 6
124 7
123 8
122 8
121 9
121 10
121 11
121 12
121 13
121 14
120 15
119 15
118 15
117 15
116 16
115 16
114 16
114 17
114 18
114 19
113 20
113 21
112 22
111 23
110 24
109 24
108 24
107 24
106 24
105 24
104 24
103 23
104 22
103 22
102 21
101 20
100 19
101 18
101 17
101 16
100 16
99 15
98 15
97 15
96 14
95 14
94 14
93 15
92 15
91 15
90 16
89 17
88 17
87 18
86 19
85 19
84 20
83 20
82 21
81 22
80 22
79 23
78 24
77 24
76 25
75 26
74 27
73 28
72 29
71 29
70 30
69 31
68 31
67 32
66 33
65 33
64 34
63 35
62 36
61 37
60 37
59 38
59 39
58 40
57 40
56 41
56 42
55 43
54 44
54 45
54 46
54 47
53 48
52 49
51 49
50 49
49 50
48 50
47 50
46 49
45 48
44 48
43 47
42 46
41 46
40 45
39 45
38 44
37 43
36 43
35 42
34 41
33 41
32 41
31 40
30 39
29 38
28 38
27 37
26 37
25 36
24 36
23 36
22 36
21 36
20 37
19 37
18 37
17 37
16 37
15 38
14 38
13 38
12 39
11 39
10 39
9 40
8 41
7 42
7 43
6 44
6 45
5 46
5 47
4 48
4 49
3 50
3 51
2 52
2 53
2 54
2 55
2 56
2 57
2 58
2 59
3 59
4 58
4 57
5 56
5 55
5 54
6 53
6 52
7 51
7 50
7 49
8 48
8 47
9 46
10 45
11 44
12 44
13 43
14 43
15 43
16 43
17 44
18 44
19 44
20 45
21 46
21 47
21 48
22 49
22 50
21 51
21 52
21 53
21 54
20 55
20 56
20 57
20 58
21 59
21 60
22 61
23 62
23 63
22 64
21 64
20 65
19 65
18 65
17 65
16 65
15 65
14 65
13 65
12 65
11 65
10 64
9 64
8 64
7 64
6 63
5 62
4 61
3 61
2 61
2 62
2 63
2 64
2 65
3 66
4 66
5 67
6 67
7 68
8 68
9 68
10 68
11 68
12 68
13 68
14 68
15 68
16 68
17 68
18 68
19 68
20 68
21 68
22 69
22 70
21 71
20 71
19 72
18 73
17 73
16 73
15 73
14 73
13 73
12 73
11 73
10 72
9 72
8 72
8 73
8 74
8 75
9 75
10 76
11 77
12 77
13 77
14 77
15 77
16 77
17 77
18 77
19 77
20 77
21 77
22 77
23 77
24 77
25 77
26 77
27 77
28 76
29 76
30 75
31 74
32 73
33 73
34 72
35 71
36 70
37 70
37 69
38 68
39 68
40 67
40 66
41 65
42 64
43 64
44 63
45 62
46 61
47 60
48 59
49 59
50 59
51 59
52 59
53 60
53 61
54 61
55 62
56 63
56 64
57 64
58 65
59 66
60 67
61 67
62 68
62 69
63 69
64 70
65 71
66 72
67 72
68 73
68 74
69 74
70 75
71 76
72 76
73 77
74 78
75 79
76 80
77 80
78 81
79 81
80 81
81 81
82 82
83 82
84 82
85 82
86 81
87 81
88 81
89 80
90 80
91 80
92 80
93 79
94 79
95 79
96 78
97 78
98 78
99 79
100 79
101 79
102 80
102 81
102 82
103 82
104 82
105 83
106 84
107 85
108 86
109 86
110 86
111 87
112 87
113 87
114 88
114 89
115 89
116 89
117 89
118 89
119 89
120 89
121 89
122 89
123 89
124 89
125 89
126 89
127 89
128 89
129 89
130 89
131 89
132 89
133 88
134 88
135 88
136 88
137 88
138 87
139 87
140 87
141 87
142 87
143 86
144 86
145 86
146 86
147 85
148 85
149 85
150 84
151 84
152 84
153 84
154 83
155 83
156 83
157 83
158 82
159 82
160 82
161 82
162 81
163 81
164 81
165 81
166 81
167 80
168 80
169 79
170 78
171 78
172 77
173 77
174 76
175 76
176 75
177 75
178 74
179 73
180 73
181 72
182 71
183 70
184 70
184 69
185 68
186 68
187 67
188 66
189 65
190 64
191 63
192 63
192 62
193 61
194 60
195 60
195 59
196 58
196 57
196 56
197 55
197 54
197 53
197 52
197 51
197 50
197 49
197 48
197 47
196 46
195 45
194 45
193 45
192 44
193 43
192 42
191 41
190 40
189 40
188 40
187 39
186 38
185 37
184 36
183 36
182 35
181 35
180 34
179 34
178 33
177 33
176 33
175 32
174 32
173 31
172 31
171 31
170 30
169 30
168 29
167 28
166 28
165 28
164 27
163 27
162 27
161 27
160 27
159 27
158 26
157 26
156 26
155 26
154 26
153 26
152 25
151 25
150 25
149 25
148 25
147 25
146 25
145 24
146 23
145 22
145 21
144 20
143 19
142 18
142 17
141 16
140 15
139 14
139 13
138 13
137 12
137 11
136 10
136 9
135 8
134 8
133 7
133 6
132 5
131 4
131 3
130 3
129 2
128 2
127 2
126 2
125 2
