114 2
114 3
114 4
114 5
115 6
116 7
117 8
118 9
119 10
118 11
118 12
118 13
119 14
120 15
119 16
118 16
117 16
116 16
115 16
114 16
113 16
112 16
111 16
110 16
109 16
108 16
107 16
106 17
105 17
104 17
103 17
102 17
101 17
100 17
99 17
98 17
97 17
96 17
95 17
94 17
93 16
92 15
91 14
90 13
89 12
88 12
87 11
86 11
85 11
84 10
83 10
82 10
81 10
80 10
79 10
78 9
79 8
78 8
77 7
76 6
75 6
74 6
73 6
72 6
71 7
70 7
70 8
69 9
69 10
68 11
67 11
66 11
65 12
64 12
64 13
63 14
62 14
61 15
60 16
59 17
58 18
57 19
56 20
55 21
54 22
53 22
53 23
52 24
51 24
50 25
50 26
49 27
48 28
47 29
47 30
46 31
46 32
46 33
46 34
46 35
46 36
45 37
44 37
44 38
44 39
43 40
43 41
43 42
43 43
43 44
44 44
45 45
45 46
45 47
44 48
43 48
42 49
41 49
40 49
39 49
38 48
37 47
36 47
35 46
34 45
33 45
32 44
33 43
32 43
31 42
30 41
31 40
30 40
29 39
28 38
27 37
26 36
25 35
24 35
23 34
22 33
21 33
20 32
19 32
18 31
17 31
16 30
15 29
14 29
13 29
12 29
11 28
10 28
9 28
8 28
7 28
7 29
7 30
7 31
7 32
7 33
8 34
8 35
8 36
8 37
8 38
7 39
7 40
7 41
6 42
6 43
6 44
5 45
5 46
5 47
5 48
5 49
5 50
5 51
5 52
5 53
5 54
5 55
4 56
4 57
4 58
4 59
4 60
4 61
4 62
4 63
4 64
4 65
4 66
4 67
4 68
5 69
5 70
5 71
5 72
5 73
5 74
5 75
4 76
4 77
3 78
3 79
2 80
2 81
2 82
2 83
2 84
3 85
4 85
5 85
6 85
7 84
8 84
9 84
10 84
11 83
12 83
13 83
14 83
15 82
16 82
17 82
18 81
19 81
20 81
21 80
22 80
23 79
24 79
25 78
26 77
27 76
28 76
29 75
30 74
31 73
32 72
33 71
34 71
35 70
36 69
37 68
38 68
39 67
39 66
40 65
41 65
42 66
43 66
44 67
43 68
42 69
41 70
40 71
39 72
39 73
39 74
39 75
40 76
40 77
40 78
40 79
41 80
42 81
42 82
43 82
44 83
44 84
44 85
45 85
46 86
47 87
47 88
48 88
49 88
50 88
51 89
52 89
53 90
54 90
55 91
56 91
57 92
58 92
59 93
60 94
61 95
62 96
63 97
64 97
65 97
66 97
67 97
68 97
69 97
70 96
71 95
72 95
73 95
74 95
75 95
76 95
77 96
77 97
78 97
79 97
80 96
81 96
82 96
83 96
84 95
84 94
85 93
85 92
86 91
86 90
87 89
88 89
89 88
90 88
91 89
92 90
93 90
94 91
94 92
95 93
96 93
97 94
97 95
98 95
99 96
100 97
101 97
102 97
103 98
104 98
105 99
105 100
105 101
105 102
105 103
105 104
106 104
107 105
107 106
106 107
106 108
106 109
106 110
107 110
108 110
109 110
110 110
111 110
112 110
113 110
114 110
115 110
116 110
117 109
118 109
119 109
120 109
121 109
122 109
123 109
124 108
125 108
126 108
127 107
128 107
129 106
130 106
131 106
132 105
133 105
134 104
135 103
136 103
137 103
138 102
139 101
140 100
141 100
142 99
143 98
144 98
145 97
146 96
147 95
148 94
149 94
150 93
151 92
152 91
153 91
154 90
155 90
156 89
157 89
158 89
159 88
160 88
161 88
162 87
163 87
164 87
165 87
166 86
167 87
168 87
169 86
170 85
171 84
172 83
173 82
174 82
175 81
176 80
177 80
178 79
179 78
180 77
181 77
182 76
183 76
184 75
185 74
186 74
187 73
188 73
189 73
190 72
191 72
192 71
193 70
194 69
195 69
196 69
197 68
197 67
198 66
198 65
197 64
197 63
198 62
198 61
199 60
200 59
200 58
201 57
201 56
201 55
200 55
199 54
198 54
198 55
198 56
197 57
196 58
195 58
194 57
195 56
195 55
196 54
196 53
195 53
194 52
193 51
192 50
191 49
190 48
189 48
188 47
187 47
186 47
185 46
184 46
183 46
182 45
181 45
180 44
179 44
178 43
177 42
176 41
175 41
174 40
173 40
172 40
171 40
170 39
171 38
171 37
170 37
169 36
168 36
167 35
166 34
165 33
164 32
163 31
162 31
161 30
160 29
159 28
158 27
157 27
156 26
155 26
154 25
153 24
152 24
151 24
150 24
149 23
148 23
147 22
146 22
145 22
144 22
143 22
142 21
141 20
140 20
139 20
138 19
137 19
136 18
137 17
137 16
136 16
135 15
134 14
133 13
132 12
133 11
132 11
131 10
130 9
129 8
128 8
127 7
126 6
125 6
124 5
123 5
122 4
121 4
120 3
119 3
118 2
117 2
116 2
115 2
