74 2
73 3
72 3
71 4
70 4
70 5
69 6
68 7
68 8
68 9
68 10
68 11
67 12
66 13
66 14
65 15
65 16
64 17
63 17
62 17
62 18
62 19
62 20
62 21
62 22
62 23
61 24
60 25
59 25
58 25
57 26
56 27
55 28
54 28
54 29
54 30
54 31
53 32
52 32
51 33
50 33
50 34
50 35
50 36
50 37
49 38
48 38
48 39
48 40
47 41
46 41
45 42
45 43
45 44
45 45
44 46
44 47
44 48
43 49
42 49
41 49
40 49
39 49
38 50
37 50
36 50
35 50
34 50
33 50
32 50
31 50
30 50
29 50
28 50
27 51
26 51
25 51
24 51
23 52
22 52
21 52
20 52
19 52
18 52
17 53
16 54
15 54
14 54
13 55
12 55
11 55
10 56
9 56
8 57
7 57
6 58
5 58
4 58
3 58
3 59
3 60
3 61
3 62
3 63
4 64
5 64
6 65
7 66
7 67
7 68
6 69
5 69
4 69
3 69
2 69
2 70
2 71
2 72
2 73
2 74
2 75
2 76
3 77
4 77
5 78
6 78
7 79
8 80
9 81
10 82
11 82
12 83
13 84
14 84
15 85
16 86
17 86
18 87
19 88
20 88
21 88
22 89
23 90
24 91
25 91
26 91
27 92
28 92
29 93
30 93
31 93
32 94
33 95
34 95
35 95
36 95
37 95
38 95
39 95
40 95
41 95
42 96
43 96
44 96
45 96
46 97
47 97
48 97
49 97
50 97
51 97
52 98
52 99
51 100
50 101
50 102
50 103
50 104
50 105
50 106
50 107
50 108
50 109
50 110
50 111
50 112
50 113
50 114
51 115
50 116
49 117
48 118
47 118
47 119
47 120
47 121
48 121
49 121
50 121
51 120
52 119
53 119
54 118
55 118
56 119
55 120
54 121
54 122
54 123
55 124
55 125
56 126
56 127
56 128
57 129
57 130
58 131
58 132
59 133
59 134
59 135
60 136
60 137
61 137
62 138
62 139
62 140
63 141
64 141
65 142
66 143
67 143
68 144
69 144
70 144
71 145
72 145
73 145
74 145
75 145
76 145
77 145
78 145
79 145
80 145
81 144
82 143
83 143
84 143
85 143
86 143
87 143
88 142
89 141
90 140
90 139
91 138
91 137
91 136
91 135
91 134
90 134
89 133
90 132
89 132
88 131
89 130
90 129
91 130
92 131
93 132
94 132
95 133
96 134
97 134
98 133
99 132
99 131
100 130
100 129
100 128
100 127
100 126
100 125
99 125
98 124
99 123
98 123
97 122
96 121
97 120
96 120
95 119
94 118
95 117
95 116
95 115
94 115
93 114
94 113
94 112
94 111
94 110
93 110
92 109
93 108
93 107
92 107
91 106
90 105
89 104
90 103
89 103
88 102
87 101
86 101
85 100
84 99
85 98
84 98
83 97
84 96
85 96
86 96
87 96
88 96
89 96
90 95
91 95
92 95
93 95
94 95
95 95
96 95
97 95
98 95
99 95
100 95
101 95
102 95
103 95
104 94
105 94
106 94
107 94
108 94
109 94
110 93
111 93
112 93
113 93
114 93
115 93
116 92
117 92
118 92
119 92
120 92
121 91
122 91
123 91
124 91
125 90
126 90
127 90
128 90
129 90
130 89
131 89
132 89
133 88
134 88
135 88
136 88
137 88
138 87
139 87
140 86
141 86
142 86
143 86
144 86
145 86
146 86
147 86
148 86
149 86
150 86
151 86
152 86
153 85
154 85
155 85
156 85
157 85
158 85
159 85
160 85
161 85
162 84
163 84
164 84
165 84
166 84
167 84
168 84
169 84
170 84
171 84
172 84
173 83
174 83
175 83
176 83
177 83
178 83
179 83
180 83
181 83
182 83
183 83
184 83
185 83
186 83
187 83
188 83
189 83
190 83
191 83
192 83
193 83
194 82
195 82
196 82
197 82
198 82
199 82
200 82
201 82
202 82
203 82
204 82
205 82
206 82
207 82
208 82
209 82
210 82
211 81
212 81
213 81
214 81
215 81
216 81
217 82
218 82
219 82
220 82
221 82
222 82
223 82
224 82
225 83
226 83
227 84
228 84
229 84
230 85
231 85
232 85
233 85
234 85
235 86
236 86
237 86
238 86
239 86
240 86
241 86
242 86
243 86
244 87
245 87
246 87
247 87
248 86
249 85
249 84
250 83
250 82
250 81
249 81
248 80
247 79
248 78
247 78
246 77
245 77
244 76
243 76
242 75
241 75
240 75
239 74
238 74
237 74
236 73
235 73
234 73
233 73
232 72
231 72
230 72
229 72
228 72
227 72
226 71
225 71
224 71
223 71
222 71
221 71
220 71
219 71
218 71
217 72
216 72
215 72
214 72
213 72
212 72
211 72
210 72
209 71
208 71
207 70
206 70
205 69
204 69
203 68
202 68
201 68
200 67
199 67
198 66
197 66
196 66
195 66
194 65
193 65
192 65
191 65
190 64
189 64
188 64
187 64
186 64
185 63
184 63
183 63
182 63
181 62
180 62
179 62
178 62
177 61
176 61
175 61
174 61
173 61
172 61
171 61
170 60
169 59
168 59
167 59
166 59
165 59
164 59
163 58
162 58
161 58
160 58
159 58
158 57
157 57
156 57
155 57
154 57
153 57
152 57
151 56
150 56
149 56
148 56
147 56
146 56
145 56
144 56
143 56
142 55
141 55
140 55
139 55
138 55
137 55
136 55
135 55
134 55
133 55
132 54
131 54
130 54
129 54
128 54
127 54
126 54
125 54
124 54
123 53
122 53
121 53
120 53
119 53
118 53
117 53
116 53
115 53
114 54
113 53
112 53
111 53
110 52
109 52
108 51
109 50
108 50
107 49
106 49
105 49
104 49
103 48
104 47
105 46
106 46
107 45
107 44
108 43
108 42
108 41
108 40
108 39
108 38
107 38
106 37
105 36
106 35
106 34
106 33
107 32
107 31
107 30
108 29
108 28
108 27
108 26
107 26
106 25
105 24
106 23
106 22
106 21
105 21
104 20
105 19
105 18
104 18
103 17
102 16
101 15
100 14
99 13
98 12
99 11
98 11
97 10
96 10
95 9
94 8
95 7
94 7
93 6
92 5
91 4
90 4
89 3
88 3
87 2
86 2
85 2
84 2
83 2
82 2
81 2
80 2
79 2
78 2
77 2
76 2
75 2
