256 2
255 3
254 3
253 4
252 5
252 6
252 7
252 8
252 9
252 10
252 11
252 12
252 13
253 14
253 15
254 16
254 17
255 18
255 19
255 20
255 21
256 22
256 23
257 24
257 25
257 26
258 27
258 28
259 29
259 30
260 31
260 32
259 33
258 33
257 34
256 34
255 35
254 36
253 37
252 38
251 39
250 40
249 40
248 40
247 40
246 40
245 40
244 40
243 40
242 40
241 40
240 40
239 41
238 41
237 41
236 41
235 41
234 42
233 42
232 42
231 42
230 42
229 42
228 43
227 43
226 43
225 43
224 43
223 43
222 43
221 44
220 44
219 44
218 44
217 44
216 45
215 45
214 45
213 45
212 45
211 45
210 46
209 46
208 46
207 46
206 46
205 46
204 47
203 47
202 47
201 47
200 47
199 47
198 47
197 47
196 47
195 47
194 47
193 47
192 47
191 47
190 47
189 47
188 48
187 48
186 48
185 48
184 48
183 48
182 48
181 48
180 48
179 48
178 48
177 48
176 48
175 48
174 48
173 47
172 47
171 47
170 47
169 46
168 46
167 45
166 45
165 44
164 43
163 42
162 42
161 41
160 40
159 40
158 40
157 40
156 39
155 39
154 39
153 38
152 38
151 38
150 38
149 38
148 38
147 38
146 38
145 39
145 40
145 41
145 42
145 43
145 44
145 45
145 46
145 47
145 48
144 49
144 50
143 51
142 52
142 53
141 54
140 54
139 55
138 56
138 57
137 58
136 59
135 59
134 60
133 60
132 60
131 60
130 61
129 61
128 61
127 61
126 61
125 61
124 61
123 62
122 62
121 62
120 63
119 63
118 64
117 63
116 63
115 63
114 62
113 62
112 62
111 62
110 61
109 61
108 61
107 61
106 61
105 61
104 60
103 60
102 60
101 60
100 59
99 59
98 59
97 58
96 58
95 58
94 58
93 58
92 57
91 57
90 57
89 57
88 57
87 57
86 56
85 56
84 56
83 56
82 56
81 56
80 56
79 55
78 55
77 55
76 55
75 55
74 55
73 54
72 54
71 54
70 54
69 54
68 54
67 54
66 54
65 54
64 54
63 54
62 54
61 54
60 54
59 54
58 54
57 54
56 54
55 54
54 54
53 54
52 54
51 54
50 54
49 54
48 54
47 54
46 54
45 54
44 54
43 54
42 54
41 54
40 54
39 54
38 54
37 54
36 54
35 54
34 54
33 54
32 54
31 54
30 54
29 54
28 54
27 54
26 54
25 54
24 54
23 54
22 54
21 54
20 54
19 54
18 54
17 54
16 54
15 54
14 54
13 54
12 54
11 54
10 54
9 54
8 54
7 54
6 54
5 54
4 55
3 55
2 56
2 57
2 58
2 59
2 60
2 61
2 62
2 63
3 64
3 65
4 66
5 66
6 67
7 67
8 67
9 68
10 69
11 69
12 70
13 70
14 71
15 71
16 72
17 73
18 73
19 73
20 74
21 74
22 74
23 73
24 73
25 72
26 72
27 71
28 70
29 70
30 70
31 71
32 71
33 72
34 72
35 73
36 73
37 74
38 74
39 74
40 75
41 75
42 75
43 75
44 76
45 76
46 76
47 77
48 77
49 77
50 77
51 77
52 78
53 78
54 78
55 79
56 79
57 79
58 80
59 80
60 80
61 81
62 81
63 82
64 82
65 83
66 83
67 83
68 84
69 84
70 84
71 84
72 85
73 85
74 86
75 86
76 87
77 88
78 88
79 89
80 90
81 90
82 91
82 92
81 93
80 94
79 95
78 96
77 97
77 98
76 99
75 100
74 101
73 102
72 103
71 104
70 105
70 106
70 107
70 108
70 109
70 110
71 110
72 111
73 111
74 111
75 111
76 111
77 111
78 110
79 110
80 110
81 110
82 110
83 110
84 110
85 109
86 109
87 109
88 108
89 108
90 108
91 107
92 107
93 107
94 106
95 106
96 105
97 105
98 105
99 105
100 104
101 103
102 103
103 102
103 101
104 100
105 100
106 99
107 99
108 98
109 98
110 97
111 96
112 95
113 94
114 93
115 92
116 91
117 90
118 89
119 88
120 87
121 86
122 85
123 84
124 84
125 83
126 83
127 83
128 83
129 83
130 83
131 82
132 82
133 82
134 82
135 82
136 82
137 82
138 81
139 81
140 82
141 82
142 83
143 83
144 84
144 85
145 85
146 85
147 85
148 86
148 87
149 87
150 87
151 88
151 89
150 90
150 91
149 92
149 93
149 94
149 95
149 96
149 97
150 98
151 98
152 98
153 98
154 98
155 98
156 98
157 98
158 98
159 97
160 97
161 97
162 96
163 96
164 95
165 94
166 94
167 93
168 92
169 91
170 91
171 90
172 90
173 90
174 90
175 90
176 89
176 88
177 87
178 86
179 85
180 85
181 85
182 85
183 85
184 85
185 85
186 85
187 85
188 85
189 85
190 85
191 85
192 86
193 86
194 86
195 86
196 86
197 86
198 86
199 87
199 88
199 89
199 90
200 91
201 91
202 92
203 93
203 94
204 95
205 96
205 97
206 98
207 99
207 100
208 101
208 102
209 103
210 103
211 103
212 103
213 103
214 103
215 103
216 103
217 103
218 103
219 102
220 102
221 101
222 101
223 101
224 100
225 99
226 99
227 98
228 98
229 98
230 98
231 97
232 97
233 96
234 96
235 95
236 95
237 95
238 94
239 94
240 94
241 94
242 94
243 94
244 94
245 94
246 94
247 94
248 94
249 94
250 94
251 94
252 94
253 94
254 94
255 94
256 95
257 95
258 95
259 95
260 95
261 95
262 95
263 95
264 96
265 96
266 96
267 96
268 96
269 96
270 96
271 96
272 96
273 96
274 96
275 96
276 96
277 97
278 97
279 97
280 97
281 97
282 97
283 97
284 97
285 97
286 97
287 97
288 97
289 97
290 97
291 97
292 97
293 97
294 97
295 97
296 97
297 97
298 97
299 97
300 96
301 96
302 96
303 96
304 96
305 96
306 96
307 96
308 96
309 96
310 96
311 96
312 96
313 96
314 96
315 96
316 95
317 95
318 95
319 95
320 96
320 97
320 98
320 99
320 100
321 101
322 102
322 103
323 104
324 105
325 106
326 107
327 108
327 109
328 110
328 111
329 112
330 113
330 114
331 115
331 116
332 117
332 118
332 119
333 120
333 121
334 122
334 123
334 124
335 125
335 126
336 127
336 128
336 129
337 130
337 131
337 132
338 133
338 134
338 135
339 136
339 137
339 138
339 139
340 140
340 141
341 142
341 143
341 144
342 145
342 146
342 147
343 148
343 149
344 150
345 150
346 150
347 149
348 148
349 147
349 146
350 145
350 144
351 143
351 142
352 141
352 140
352 139
353 138
353 137
354 136
354 135
354 134
355 133
355 132
355 131
356 130
356 129
356 128
356 127
357 126
357 125
357 124
358 123
358 122
358 121
358 120
359 119
359 118
359 117
360 116
360 115
360 114
360 113
361 112
361 111
361 110
362 109
362 108
362 107
362 106
363 105
363 104
363 103
364 102
364 101
364 100
364 99
364 98
364 97
365 96
365 95
365 94
365 93
366 92
366 91
366 90
366 89
367 88
368 87
369 87
370 87
371 87
372 87
373 87
374 87
375 87
376 87
377 87
378 88
379 88
380 88
381 88
382 88
383 88
384 88
385 88
386 88
387 88
388 88
389 88
390 88
391 87
392 87
393 87
394 86
395 86
396 85
397 85
398 84
399 84
400 84
401 84
402 84
403 84
404 83
405 83
406 83
407 83
408 82
409 82
410 82
411 82
412 81
413 81
414 81
415 80
416 80
417 79
418 79
419 79
420 78
421 78
422 77
423 77
424 77
425 77
426 77
427 77
428 76
429 76
430 75
431 75
432 74
433 74
434 73
435 73
436 73
437 73
438 73
439 72
440 71
441 70
442 70
443 69
444 68
445 67
446 66
446 65
447 64
447 63
447 62
447 61
447 60
447 59
447 58
446 58
445 57
446 56
445 56
444 55
443 54
442 54
441 54
440 54
439 53
438 53
437 52
436 52
435 51
434 51
433 50
432 50
431 50
430 49
429 49
428 49
427 48
426 48
425 48
424 47
423 47
422 47
421 47
420 47
419 47
418 46
417 46
416 46
415 45
414 45
413 45
412 45
411 45
410 45
409 44
408 44
407 44
406 44
405 44
404 43
403 43
402 43
401 42
400 42
399 42
398 42
397 41
396 41
395 41
394 40
393 40
392 40
391 40
390 40
389 40
388 40
387 40
386 39
385 39
384 39
383 39
382 38
381 38
380 38
379 37
378 37
377 37
376 37
375 37
374 36
373 36
372 36
371 36
370 36
369 35
368 35
367 35
366 35
365 35
364 34
363 34
362 34
361 34
360 34
359 34
358 33
357 33
356 33
355 33
354 33
353 33
352 33
351 33
350 33
349 33
348 33
347 33
346 33
345 33
344 33
343 33
342 33
341 33
340 33
339 33
338 33
337 33
336 33
335 32
334 32
333 32
332 32
331 32
330 32
329 32
328 32
327 32
326 32
325 32
324 32
323 32
322 32
321 32
320 31
319 31
318 31
317 31
316 31
315 31
314 30
313 30
312 30
311 29
310 29
309 28
308 27
307 26
306 26
305 26
304 25
303 24
302 23
301 22
300 21
299 20
298 19
297 19
296 19
295 18
294 17
293 16
292 15
291 14
290 13
289 13
288 12
287 12
286 11
285 11
284 10
283 9
282 8
281 8
280 7
279 7
278 6
277 5
276 5
275 5
274 5
273 5
272 4
271 4
270 4
269 3
268 3
267 3
266 2
265 2
264 2
263 2
262 2
261 2
260 2
259 2
258 2
257 2
