69 2
69 3
68 4
68 5
67 6
67 7
67 8
67 9
66 10
66 11
65 12
64 13
64 14
64 15
64 16
64 17
63 18
62 17
61 17
60 17
59 17
58 16
59 15
58 15
57 14
56 13
55 13
54 13
54 14
54 15
54 16
54 17
55 18
55 19
55 20
55 21
55 22
55 23
55 24
55 25
55 26
55 27
54 28
53 28
52 29
51 29
50 29
49 30
48 30
47 30
46 31
45 32
44 32
43 33
42 34
41 34
40 35
39 35
38 36
37 36
36 37
35 37
35 38
34 39
33 39
32 40
31 40
30 41
29 42
28 42
27 43
26 43
25 44
24 44
23 45
22 45
21 45
20 46
19 47
18 47
18 48
17 49
16 50
15 50
15 51
15 52
14 53
13 54
12 55
11 55
10 55
10 56
9 57
8 58
7 59
7 60
6 61
5 62
5 63
5 64
4 65
3 66
2 66
2 67
2 68
2 69
3 70
4 70
5 71
4 72
4 73
4 74
4 75
5 76
5 77
6 77
7 78
8 78
9 78
10 79
10 80
11 80
12 81
13 81
14 81
15 82
16 82
17 82
18 83
19 83
20 83
21 83
22 84
23 84
24 84
25 84
26 84
27 85
28 85
29 85
30 85
31 85
32 85
33 85
34 85
35 86
36 86
37 86
38 86
39 86
40 86
41 86
42 86
43 86
44 86
45 87
46 87
47 87
48 87
49 87
50 88
51 88
52 88
53 89
54 89
55 89
56 89
57 90
58 90
59 90
60 91
61 92
62 92
63 93
64 94
64 95
64 96
64 97
64 98
65 99
65 100
66 101
66 102
67 103
67 104
67 105
67 106
67 107
68 108
68 109
69 110
69 111
70 112
70 113
71 114
72 115
73 116
74 117
75 117
76 117
77 118
78 118
79 118
80 118
81 119
82 119
83 119
84 120
85 120
86 120
87 120
88 120
89 120
90 120
91 119
91 118
92 117
92 116
91 116
90 115
89 115
88 115
87 115
86 114
85 114
84 113
83 113
82 112
83 111
83 110
84 109
84 108
84 107
85 106
85 105
85 104
85 103
86 102
87 102
88 103
89 104
90 105
91 105
92 106
93 107
94 108
95 108
96 109
96 110
97 110
98 111
99 111
100 111
101 111
102 111
103 110
103 109
104 108
104 107
103 107
102 106
101 106
100 105
99 104
98 103
97 102
98 101
97 101
96 100
95 99
94 98
93 97
92 96
91 95
92 94
93 94
94 94
95 94
96 94
97 93
98 93
99 93
100 93
101 92
102 93
103 92
104 92
105 92
106 92
107 92
108 92
109 92
110 92
111 91
112 91
113 91
114 91
115 91
116 90
117 89
118 88
119 87
120 87
121 86
122 86
123 87
124 88
125 89
125 90
126 91
126 92
127 93
127 94
128 94
129 95
130 95
131 94
131 93
132 92
133 92
134 92
135 93
136 94
137 94
138 94
139 95
140 95
141 95
142 96
143 96
144 96
145 97
146 97
147 98
148 98
149 99
150 99
151 99
152 98
152 97
153 96
153 95
154 94
155 93
156 93
157 94
158 94
159 94
160 93
160 92
161 91
161 90
161 89
161 88
161 87
161 86
160 86
159 85
158 84
159 83
158 83
157 82
156 82
155 81
154 80
155 79
156 79
157 79
158 79
159 79
160 79
161 79
162 79
163 79
164 79
165 79
166 79
167 79
168 79
169 79
170 79
171 79
172 80
173 80
174 80
175 80
176 80
177 80
178 80
179 80
180 80
181 80
182 80
183 80
184 80
185 81
186 81
187 81
188 81
189 81
190 81
191 82
192 82
193 82
194 82
195 83
196 83
197 83
198 84
199 84
200 84
201 84
202 85
203 85
204 85
205 85
206 85
207 85
208 85
209 85
210 86
211 86
212 86
213 86
214 86
215 86
216 86
217 86
218 86
219 86
220 86
221 85
222 85
223 85
224 85
225 84
225 83
226 82
226 81
226 80
225 80
224 79
225 78
225 77
225 76
224 76
223 75
224 74
224 73
224 72
223 72
222 71
223 70
223 69
223 68
223 67
223 66
223 65
223 64
223 63
222 63
221 62
222 61
222 60
222 59
223 58
224 57
224 56
225 55
225 54
225 53
226 52
225 52
224 51
223 51
222 51
221 50
222 49
221 49
220 48
219 48
218 48
217 48
216 48
215 48
214 48
213 48
212 48
211 48
210 49
209 49
208 49
207 49
206 50
205 50
204 50
203 50
202 50
201 51
200 51
199 52
198 52
197 52
196 53
195 53
194 54
193 54
192 55
191 55
190 55
189 55
188 56
187 56
186 57
185 57
184 57
183 58
182 58
181 58
180 59
179 59
178 59
177 59
176 59
175 60
174 59
173 59
172 59
171 59
170 59
169 58
169 57
170 56
170 55
169 55
168 54
168 53
169 52
169 51
170 50
169 50
168 49
167 48
168 47
168 46
168 45
167 45
166 44
167 43
167 42
167 41
166 41
165 40
164 40
163 39
162 39
161 39
160 39
159 39
158 39
157 39
156 39
155 39
154 39
153 39
152 39
151 39
150 39
149 38
148 37
147 37
146 37
145 37
144 38
143 38
142 38
141 39
140 39
139 39
138 38
137 37
136 37
135 37
134 37
133 36
132 36
131 36
130 35
131 34
131 33
131 32
130 32
129 31
128 31
127 30
128 29
128 28
127 28
126 27
125 27
124 27
123 26
124 25
124 24
124 23
124 22
123 22
122 21
121 21
120 21
119 22
118 22
117 22
116 23
115 23
114 23
113 22
114 21
114 20
113 19
112 18
113 17
113 16
114 15
113 15
112 14
111 14
110 14
109 15
108 15
107 15
106 16
105 16
104 15
104 14
105 13
104 13
103 12
102 12
101 12
100 13
99 13
98 14
97 14
96 15
95 15
94 14
95 13
96 12
96 11
97 10
97 9
96 8
95 8
94 8
93 9
92 10
91 11
90 11
89 12
88 12
87 13
86 14
85 14
84 15
83 15
82 16
81 15
80 14
81 13
81 12
82 11
83 10
83 9
84 8
85 7
85 6
86 5
86 4
87 3
86 3
85 2
84 2
83 3
82 3
81 3
81 4
81 5
80 6
79 6
79 7
79 8
79 9
78 10
77 11
76 11
76 12
76 13
75 14
74 14
73 15
72 15
71 14
72 13
72 12
72 11
72 10
72 9
72 8
72 7
72 6
72 5
72 4
72 3
71 3
70 2
