132 2
131 3
130 4
130 5
130 6
130 7
129 8
128 8
127 7
126 6
125 6
124 6
123 6
122 6
122 7
122 8
121 9
120 9
119 8
118 8
117 8
116 8
115 9
114 10
114 11
113 12
112 12
111 12
110 12
109 11
108 10
107 10
106 10
106 11
105 12
105 13
104 14
103 14
102 14
101 14
100 14
100 15
100 16
99 17
98 18
97 18
96 19
95 19
94 19
94 20
94 21
94 22
93 23
92 23
91 23
90 23
90 24
90 25
90 26
90 27
89 28
88 28
87 28
86 27
87 26
86 26
85 25
86 24
85 24
84 23
83 23
82 23
81 22
80 21
79 20
80 19
80 18
80 17
79 17
78 16
77 16
76 16
75 16
74 16
73 16
72 17
71 18
70 18
70 19
69 20
68 20
67 20
66 20
65 21
64 21
63 22
62 22
61 22
60 22
59 23
58 23
57 23
56 23
56 24
56 25
56 26
56 27
55 28
54 28
53 28
52 28
52 29
52 30
51 31
50 31
49 31
48 31
47 31
47 32
46 33
46 34
46 35
46 36
46 37
46 38
45 39
44 38
43 37
44 36
43 36
42 35
41 35
40 34
41 33
41 32
40 32
39 31
38 31
37 30
38 29
38 28
37 28
36 27
35 26
36 25
35 25
34 24
33 23
32 22
33 21
32 21
31 20
30 20
29 19
28 18
27 18
26 18
25 17
24 17
23 17
22 17
21 17
21 18
21 19
20 20
19 21
18 21
18 22
17 23
17 24
16 25
15 25
14 26
13 27
12 28
12 29
12 30
11 31
11 32
10 33
10 34
10 35
10 36
9 37
9 38
9 39
8 40
7 40
7 41
6 42
6 43
6 44
5 45
4 45
4 46
4 47
4 48
3 49
3 50
3 51
3 52
3 53
2 54
2 55
2 56
2 57
2 58
2 59
3 60
3 61
3 62
3 63
3 64
3 65
3 66
3 67
3 68
3 69
4 70
4 71
4 72
4 73
5 74
5 75
5 76
5 77
6 78
7 79
8 80
8 81
9 81
10 82
11 83
12 83
13 83
14 83
15 83
16 83
17 83
18 83
19 82
20 82
21 82
22 81
23 81
24 80
25 80
26 79
27 78
28 78
29 77
30 76
31 76
32 76
33 75
34 74
35 74
36 73
37 72
37 71
38 70
39 70
40 69
41 68
42 68
43 67
44 66
45 66
46 66
47 66
48 66
49 67
50 67
51 67
52 67
53 67
54 68
55 68
56 68
57 69
58 69
59 70
58 71
57 71
56 71
55 71
54 71
53 71
52 71
51 72
50 72
49 72
48 73
47 73
46 73
45 74
45 75
44 76
43 77
42 78
42 79
42 80
42 81
42 82
42 83
42 84
42 85
43 86
44 87
44 88
44 89
45 90
46 90
47 90
48 90
49 91
50 92
51 92
52 93
53 93
54 93
55 93
56 93
57 93
58 92
59 92
60 92
61 91
62 91
63 91
64 90
65 90
66 90
67 90
68 91
69 92
68 93
68 94
68 95
68 96
69 96
70 96
71 96
72 96
73 95
74 94
75 94
76 93
77 92
78 92
79 92
80 92
81 91
82 90
83 89
83 88
84 87
85 87
86 86
86 85
87 84
88 84
89 83
90 83
91 83
92 83
93 83
94 82
95 82
96 82
97 82
98 81
99 81
100 81
101 81
102 81
103 82
103 83
103 84
104 85
105 85
106 85
107 85
108 86
109 86
110 86
111 86
112 86
113 87
114 88
114 89
115 89
116 90
117 90
118 90
119 90
120 91
120 92
120 93
121 93
122 93
123 93
124 94
125 94
126 94
127 95
127 96
128 96
129 96
130 96
131 95
132 95
133 94
134 94
135 93
136 92
137 91
138 90
138 89
139 88
140 87
140 86
141 85
142 84
143 83
144 82
144 81
145 80
146 80
147 79
148 79
149 79
150 79
151 78
152 78
153 77
154 77
155 77
156 76
157 76
158 76
159 76
160 76
161 76
162 75
163 75
164 75
165 75
166 75
167 75
168 74
169 74
170 73
171 72
172 72
173 71
174 71
175 70
176 70
177 70
178 69
179 69
180 69
181 69
182 68
183 68
184 68
185 68
186 67
187 67
188 66
189 66
190 65
191 64
192 64
193 63
194 62
195 61
196 60
197 59
198 58
199 57
200 56
201 55
201 54
202 53
203 52
204 51
204 50
205 49
205 48
205 47
205 46
204 46
203 45
202 44
201 44
200 44
199 44
198 43
199 42
199 41
199 40
198 40
197 39
196 38
195 37
194 37
193 37
192 36
191 36
190 36
189 36
188 36
187 36
186 36
185 36
184 36
183 37
182 37
181 36
182 35
182 34
182 33
181 33
180 32
179 32
178 31
177 31
176 31
175 30
174 30
173 29
172 29
171 29
170 29
169 29
168 29
167 30
166 30
165 30
164 30
163 29
162 28
161 27
160 27
159 27
158 27
157 27
156 27
155 27
154 28
153 28
152 27
151 27
150 26
151 25
151 24
151 23
152 22
152 21
153 20
152 20
151 19
150 19
149 20
148 21
147 20
146 20
145 19
146 18
146 17
147 16
147 15
147 14
147 13
147 12
147 11
147 10
147 9
147 8
147 7
147 6
146 6
145 5
144 5
143 5
142 5
142 6
142 7
142 8
141 9
140 10
139 11
138 11
137 10
138 9
138 8
137 8
136 7
137 6
137 5
137 4
137 3
136 3
135 2
134 2
133 2
