206 2
205 3
204 3
204 4
204 5
204 6
204 7
203 8
202 7
201 6
200 6
199 5
198 4
197 3
196 3
195 3
194 3
193 3
192 3
191 3
191 4
190 5
189 4
188 4
187 4
186 4
185 4
184 5
183 5
182 6
181 6
180 5
179 5
178 5
177 4
176 4
175 4
174 4
173 4
172 5
171 4
170 4
169 4
168 4
167 4
166 4
165 4
164 4
163 5
162 5
161 6
160 6
159 6
158 7
157 7
156 7
155 7
154 7
153 7
152 7
151 8
150 8
149 8
148 8
147 8
146 8
145 8
144 8
143 8
142 9
141 9
140 9
139 9
138 8
137 8
136 8
135 8
134 8
133 8
132 8
131 8
130 8
129 8
129 9
128 10
127 10
126 10
125 10
124 10
123 9
122 9
121 9
120 9
119 9
118 9
117 9
117 10
117 11
116 12
115 12
114 12
113 12
112 12
111 12
111 13
111 14
110 15
109 16
108 15
107 15
106 15
105 15
104 15
103 15
102 15
101 15
101 16
100 17
99 17
99 18
99 19
98 20
97 21
96 21
95 21
94 21
93 22
92 22
91 22
90 22
89 22
88 22
87 22
86 22
85 22
85 23
84 24
83 24
82 25
81 25
80 25
79 25
78 25
77 25
76 26
75 27
74 27
73 28
72 28
71 28
70 28
69 28
68 28
67 29
66 29
66 30
66 31
66 32
66 33
66 34
65 35
64 35
63 35
62 35
61 35
60 35
59 35
59 36
58 37
57 37
56 37
55 37
54 37
53 38
52 38
51 38
51 39
51 40
51 41
51 42
51 43
52 43
53 43
54 43
55 44
54 45
53 46
52 46
51 47
50 47
49 47
48 47
47 47
46 48
45 48
44 48
43 48
42 48
41 48
40 48
39 48
38 48
37 47
36 47
35 46
34 45
33 45
32 45
31 44
30 44
29 44
28 43
27 43
26 43
25 43
24 42
23 42
22 42
21 41
20 41
19 41
18 41
17 41
16 41
15 41
14 41
13 42
12 42
11 42
11 43
11 44
10 45
10 46
9 47
8 47
8 48
8 49
7 50
6 51
5 51
5 52
5 53
5 54
4 55
4 56
4 57
4 58
4 59
4 60
5 61
4 62
4 63
4 64
4 65
4 66
3 67
3 68
3 69
2 70
2 71
2 72
2 73
2 74
2 75
3 75
4 75
5 76
5 77
5 78
5 79
5 80
5 81
6 82
6 83
6 84
6 85
7 85
8 86
8 87
9 87
10 87
11 88
11 89
11 90
11 91
11 92
12 92
13 92
14 92
15 92
16 92
17 92
18 93
18 94
18 95
19 96
20 96
21 96
22 96
23 96
24 96
25 95
26 95
27 95
28 95
29 94
30 94
31 94
32 93
33 93
34 93
35 92
36 92
37 92
38 91
39 90
40 90
41 89
42 88
43 88
44 87
45 87
46 86
47 86
48 85
49 84
50 84
51 85
52 85
53 86
54 86
55 86
56 86
57 87
57 88
58 88
59 88
60 89
61 89
62 89
63 89
64 89
65 89
66 90
67 91
67 92
68 93
69 93
70 93
71 93
72 93
73 93
74 93
75 93
76 93
77 93
78 93
79 94
79 95
80 95
81 95
82 95
83 95
84 95
85 96
86 96
87 96
88 96
89 96
90 97
91 98
91 99
92 99
93 99
94 99
95 99
96 99
97 99
98 99
99 99
100 99
101 99
102 99
103 100
103 101
103 102
104 102
105 102
106 103
106 104
106 105
107 105
108 105
109 105
110 105
111 105
112 105
113 105
114 105
115 105
116 105
117 106
117 107
118 107
119 107
120 107
121 107
122 107
123 107
124 107
125 108
125 109
125 110
126 110
127 110
128 110
129 110
130 109
131 109
132 109
133 109
134 108
135 108
136 109
137 109
138 109
139 109
140 109
141 109
142 109
143 108
144 109
144 110
144 111
145 111
146 111
147 111
148 110
148 109
149 108
149 107
148 107
147 106
147 105
148 104
149 104
150 103
151 102
152 102
153 101
154 101
155 100
156 100
157 100
158 100
159 100
160 100
161 100
162 100
163 101
164 101
165 101
166 101
167 101
168 101
169 101
170 101
171 101
172 101
173 101
174 101
175 101
176 101
177 101
178 101
179 101
180 101
181 101
182 101
183 101
184 101
185 101
186 101
187 102
188 102
189 102
190 102
191 102
192 103
192 104
193 104
194 105
193 106
192 107
192 108
192 109
192 110
192 111
193 112
193 113
193 114
193 115
194 115
195 116
195 117
196 118
196 119
196 120
197 120
198 121
199 121
200 121
201 121
202 121
203 122
203 123
203 124
203 125
203 126
203 127
204 128
204 129
204 130
204 131
204 132
204 133
204 134
204 135
204 136
204 137
203 138
203 139
202 140
202 141
201 142
201 143
201 144
201 145
202 145
203 145
204 145
205 145
206 145
207 144
207 143
208 142
208 141
208 140
209 139
209 138
209 137
209 136
209 135
210 134
210 133
210 132
210 131
210 130
211 129
211 128
211 127
211 126
211 125
212 124
212 123
212 122
212 121
212 120
212 119
213 118
213 117
213 116
214 115
215 114
215 113
216 112
216 111
216 110
216 109
215 109
214 108
215 107
215 106
215 105
215 104
215 103
215 102
216 101
217 101
218 101
219 101
220 101
221 101
222 100
223 100
224 100
225 100
226 100
227 100
228 99
229 99
230 99
231 98
232 98
233 97
234 97
235 97
236 96
237 96
238 96
239 96
240 96
241 95
242 95
243 95
244 95
245 95
246 94
247 94
248 94
249 93
250 93
251 93
252 92
253 92
254 91
255 91
256 90
257 90
258 89
259 88
260 87
261 86
262 85
263 85
264 84
265 83
266 82
267 81
267 80
268 79
268 78
268 77
269 76
269 75
269 74
270 73
270 72
270 71
270 70
270 69
270 68
269 68
268 67
269 66
268 66
267 65
268 64
268 63
268 62
268 61
268 60
268 59
268 58
267 58
266 57
267 56
266 56
265 55
266 54
265 54
264 53
265 52
265 51
265 50
264 50
263 49
264 48
263 48
262 47
263 46
262 46
261 45
262 44
262 43
261 43
260 42
259 41
260 40
259 40
258 39
259 38
258 38
257 37
258 36
257 36
256 35
255 34
254 33
253 32
252 31
251 30
250 29
249 29
248 28
247 27
246 26
245 26
244 25
243 24
242 23
241 22
240 22
239 22
238 21
237 21
236 20
235 20
234 19
233 19
232 18
233 17
233 16
232 16
231 15
232 14
231 14
230 13
231 12
230 12
229 11
228 10
227 9
226 8
225 7
224 6
223 6
222 5
221 4
220 4
219 4
218 3
217 3
216 3
215 2
214 2
213 2
212 2
211 2
210 2
209 2
208 2
207 2
