67 2
66 3
65 3
64 4
63 4
62 4
61 5
60 5
59 5
58 5
57 5
56 5
56 6
56 7
56 8
55 9
54 10
53 10
52 10
52 11
51 12
50 12
49 12
48 13
47 13
46 14
45 14
44 14
43 14
42 15
41 15
40 15
39 15
38 15
37 15
36 15
35 16
34 16
33 16
32 16
31 16
30 16
29 16
29 17
28 18
27 19
26 19
25 20
24 20
23 20
22 21
21 21
20 21
19 22
18 22
17 23
16 24
15 24
14 24
13 25
12 25
11 26
10 26
9 27
8 28
7 28
6 29
5 30
4 31
3 31
3 32
3 33
3 34
3 35
2 36
2 37
2 38
2 39
3 40
3 41
4 42
5 42
6 43
6 44
7 44
8 44
9 45
10 46
11 46
12 46
13 46
14 47
15 47
16 47
17 48
18 49
19 49
20 50
21 51
22 51
23 52
24 53
25 53
26 54
27 54
28 54
29 55
30 55
31 55
32 56
33 56
34 56
35 56
36 57
37 57
38 58
38 59
39 59
40 59
41 58
42 58
43 59
44 59
45 59
46 59
47 59
48 59
49 59
50 59
51 59
52 60
52 61
51 62
51 63
51 64
51 65
52 65
53 66
53 67
54 68
54 69
54 70
55 71
55 72
56 73
56 74
57 75
58 75
59 75
60 75
61 74
61 73
62 72
63 71
64 70
65 69
65 68
66 67
66 66
66 65
66 64
66 63
66 62
66 61
67 60
68 60
69 60
70 60
71 60
72 60
73 60
74 60
75 60
76 60
77 60
78 60
79 60
80 60
81 60
82 60
83 60
84 60
85 60
86 60
87 60
88 60
89 60
90 60
91 60
92 60
93 60
94 60
95 60
96 60
97 60
98 61
99 61
100 62
101 63
101 64
102 65
102 66
103 67
104 68
105 69
106 69
107 69
108 70
109 70
110 70
111 71
112 71
113 71
114 70
115 70
116 70
117 70
118 70
119 70
120 70
121 71
122 71
123 71
124 71
125 71
126 71
127 70
128 70
129 69
129 68
130 67
130 66
131 65
132 65
133 65
134 65
135 64
136 63
137 63
138 63
139 62
139 61
140 60
141 61
141 62
141 63
142 63
143 63
144 62
145 61
146 61
147 61
148 60
149 60
150 60
151 60
152 60
153 60
154 59
155 59
156 58
157 58
158 58
159 58
160 58
161 58
162 57
163 57
164 57
165 57
166 56
167 56
168 56
169 56
170 56
171 55
172 55
173 54
174 54
175 54
176 54
177 55
178 55
179 55
180 55
181 56
182 56
183 56
184 57
185 57
186 58
187 58
188 58
189 59
190 59
191 60
192 60
193 60
194 61
195 62
196 62
197 63
198 64
199 64
200 65
201 65
202 65
203 66
204 67
205 67
206 68
207 68
208 68
209 69
210 69
211 69
212 69
213 68
213 67
214 66
214 65
213 65
212 64
213 63
213 62
212 61
213 60
213 59
212 58
211 57
212 56
213 56
214 55
214 54
215 53
215 52
215 51
214 51
213 50
214 49
214 48
215 47
215 46
215 45
216 44
216 43
216 42
216 41
215 41
214 40
215 39
215 38
216 37
216 36
216 35
216 34
215 34
214 33
215 32
215 31
215 30
215 29
215 28
215 27
215 26
215 25
215 24
216 23
215 23
214 22
213 22
212 22
211 21
210 21
209 21
208 21
207 21
206 22
205 22
204 22
203 23
202 23
202 24
201 25
200 26
199 26
198 27
197 27
196 28
195 28
194 28
193 29
192 29
191 30
190 30
189 30
188 31
187 31
186 31
185 31
184 31
183 31
182 31
181 31
180 32
179 31
178 31
177 31
176 31
175 31
174 31
173 30
174 29
175 29
176 29
177 28
177 27
176 26
175 25
174 25
173 25
172 24
171 24
170 24
169 24
168 24
167 23
168 22
169 21
169 20
170 19
170 18
169 18
168 17
167 17
166 17
165 17
164 16
163 15
162 15
161 15
160 15
159 14
158 14
157 13
156 13
155 12
154 12
153 12
152 11
153 10
152 10
151 9
150 9
149 10
148 10
147 9
148 8
148 7
147 6
146 6
145 6
144 7
143 7
142 7
141 8
140 9
139 9
138 10
137 9
136 8
135 7
134 7
133 7
132 8
131 9
130 9
129 9
128 9
127 9
126 10
125 10
124 9
123 9
122 8
121 8
120 7
119 7
118 7
117 7
116 7
115 7
114 7
113 6
112 6
111 6
110 6
109 6
108 6
107 7
106 7
105 7
104 6
105 5
104 5
103 4
102 3
101 2
100 2
100 3
99 4
98 4
97 4
96 4
95 4
94 3
93 3
92 3
91 3
90 3
89 3
88 3
87 3
86 3
85 3
84 3
83 3
82 3
81 3
80 3
79 3
78 3
77 3
76 3
75 3
74 3
73 3
72 3
71 3
70 2
69 2
68 2
