77 2
77 3
76 4
76 5
75 6
75 7
74 8
74 9
73 10
73 11
72 12
71 12
70 11
69 10
68 10
67 9
66 8
65 7
64 7
63 7
62 7
62 8
61 9
61 10
61 11
60 12
60 13
60 14
60 15
60 16
60 17
60 18
60 19
60 20
59 21
58 20
57 19
56 19
55 19
54 19
53 19
53 20
53 21
53 22
53 23
53 24
53 25
54 26
54 27
54 28
54 29
55 30
56 31
56 32
57 33
56 34
55 34
54 34
53 34
52 35
51 35
50 36
49 36
48 36
47 37
46 37
45 37
44 38
44 39
43 40
42 40
41 40
40 40
39 40
38 40
37 40
36 40
35 40
34 40
33 40
32 41
31 41
30 41
29 41
28 42
27 43
26 44
25 44
24 45
23 46
22 46
22 47
22 48
21 49
21 50
21 51
20 52
19 52
18 52
17 52
16 52
15 52
14 53
13 53
12 53
11 54
10 55
9 56
8 56
7 56
6 57
5 58
5 59
5 60
4 61
4 62
4 63
4 64
4 65
4 66
4 67
4 68
3 69
2 70
2 71
2 72
2 73
2 74
2 75
2 76
2 77
2 78
2 79
2 80
3 80
4 80
5 80
6 80
7 80
8 81
9 81
10 82
10 83
11 84
12 84
13 84
14 85
15 86
15 87
16 87
17 88
18 89
19 89
20 90
21 91
22 91
23 91
24 92
25 92
26 92
27 92
28 93
29 94
30 94
31 94
32 94
33 94
34 95
35 95
36 95
37 95
38 95
39 95
40 95
41 95
42 95
43 96
44 96
45 96
46 96
47 96
48 96
49 96
50 96
51 97
51 98
51 99
52 99
53 99
54 99
55 99
56 99
57 99
58 99
59 99
60 99
61 99
62 99
63 99
64 99
65 100
66 101
66 102
65 103
64 102
63 102
62 102
61 102
60 102
60 103
60 104
60 105
60 106
60 107
60 108
60 109
60 110
61 111
62 111
63 111
64 111
65 112
66 113
67 114
67 115
68 115
69 116
70 116
71 116
72 116
73 116
74 116
75 116
76 116
77 116
78 116
79 115
80 114
81 114
82 114
83 114
84 114
85 114
86 113
87 112
88 112
89 112
90 112
91 112
92 112
93 112
94 112
95 111
95 110
96 109
96 108
96 107
97 106
98 106
99 106
100 106
101 106
102 106
103 106
104 105
104 104
105 103
104 103
103 102
104 101
105 101
106 101
107 101
108 101
109 101
110 101
111 102
111 103
111 104
110 105
109 106
109 107
109 108
110 108
111 108
112 108
113 108
114 108
115 108
116 108
117 108
118 107
119 106
120 106
120 105
121 104
121 103
121 102
121 101
121 100
120 100
119 100
118 100
117 99
116 99
115 99
114 99
113 100
112 100
111 99
112 98
112 97
113 96
114 96
115 95
116 94
116 93
117 92
117 91
116 91
115 90
114 89
115 88
116 88
117 87
118 87
119 88
120 89
121 90
121 91
121 92
122 92
123 92
124 92
125 93
124 94
124 95
124 96
125 96
126 96
127 96
128 96
129 97
130 98
131 98
132 99
133 100
134 100
135 101
136 102
137 103
138 103
139 104
140 104
141 104
142 104
143 104
144 104
145 105
146 105
147 105
148 106
149 106
150 106
151 107
152 107
153 107
154 107
155 107
156 106
156 105
157 104
157 103
158 102
159 102
160 102
161 102
162 102
163 102
164 102
165 102
166 102
167 101
168 100
169 100
170 99
171 98
171 97
172 96
172 95
173 94
173 93
173 92
173 91
173 90
173 89
173 88
173 87
173 86
173 85
174 84
175 85
176 85
177 85
178 86
179 86
180 87
181 87
182 88
183 88
184 89
185 89
186 89
187 89
188 89
189 89
190 90
191 90
192 90
193 90
194 91
195 91
196 91
197 91
198 91
199 91
200 91
201 92
202 92
203 92
204 92
205 92
206 92
207 92
208 91
209 90
210 90
211 90
212 89
212 88
213 87
213 86
213 85
214 84
215 83
215 82
216 81
216 80
216 79
216 78
216 77
216 76
216 75
216 74
216 73
216 72
216 71
216 70
216 69
216 68
216 67
216 66
216 65
216 64
216 63
216 62
216 61
216 60
216 59
216 58
216 57
216 56
216 55
215 55
214 54
215 53
215 52
215 51
215 50
214 50
213 49
214 48
213 48
212 47
213 46
212 46
211 45
212 44
211 44
210 43
209 42
210 41
209 41
208 40
209 39
208 39
207 38
206 37
205 37
204 37
203 37
202 37
201 37
200 38
199 38
198 38
197 39
197 40
197 41
197 42
197 43
196 44
195 43
194 42
193 42
192 42
191 42
190 42
190 43
189 44
188 44
187 45
186 46
185 47
184 47
183 48
182 49
181 50
180 51
179 52
178 52
177 53
176 54
175 55
174 55
173 56
172 56
171 57
170 57
169 58
168 58
167 57
168 56
168 55
169 54
169 53
169 52
169 51
170 50
170 49
170 48
170 47
170 46
170 45
170 44
169 44
168 43
167 42
166 41
167 40
167 39
166 39
165 38
166 37
165 37
164 36
165 35
164 35
163 34
162 33
163 32
162 32
161 31
160 31
159 31
158 30
157 30
156 29
155 29
154 29
153 29
152 29
151 29
150 29
149 29
148 30
147 30
146 30
145 30
144 30
143 31
142 31
141 30
140 30
139 30
138 30
137 30
136 30
135 31
134 32
133 33
132 33
131 34
130 34
129 35
128 34
127 34
126 33
127 32
127 31
127 30
127 29
127 28
127 27
127 26
127 25
126 25
125 24
124 24
123 23
124 22
124 21
123 21
122 20
121 20
120 20
119 20
118 20
117 19
118 18
117 18
116 17
115 17
114 17
113 17
112 16
113 15
112 15
111 14
110 14
109 14
108 14
107 14
106 15
105 15
104 14
103 13
104 12
104 11
104 10
103 10
102 9
101 9
100 9
99 9
98 9
97 10
97 11
96 12
95 11
94 10
95 9
94 9
93 8
94 7
93 7
92 6
91 6
90 6
89 6
88 6
87 7
86 7
86 8
86 9
85 10
84 9
83 8
84 7
83 7
82 6
83 5
83 4
82 4
81 3
80 2
79 2
78 2
