221 4
221 5
220 6
219 5
218 5
217 5
216 5
216 6
215 7
214 8
214 9
213 10
212 11
211 10
210 11
209 11
208 10
207 10
206 10
205 9
204 9
204 10
203 11
202 10
201 10
200 10
199 10
198 9
197 9
196 9
195 9
194 9
193 8
192 8
191 7
190 7
190 8
189 9
188 8
187 8
186 8
185 8
184 8
184 9
183 10
182 9
181 9
180 9
179 9
178 9
178 10
177 11
176 10
176 11
175 12
174 11
173 11
172 11
171 11
171 12
170 13
169 12
168 12
167 12
166 12
165 12
164 12
163 12
162 12
161 12
160 12
159 12
158 12
157 12
156 11
155 11
154 10
154 11
153 12
152 11
151 10
150 10
149 9
148 9
147 9
146 9
145 8
144 8
143 8
142 8
141 8
140 8
139 8
138 8
137 8
136 8
135 8
134 8
133 8
133 9
132 10
131 9
130 9
129 9
128 9
128 10
127 11
126 10
125 10
124 10
123 9
123 10
122 11
121 12
120 11
119 11
118 11
117 11
116 11
115 11
114 11
113 11
112 11
111 11
110 11
110 12
109 13
108 12
107 12
106 12
105 12
104 12
103 12
103 13
102 14
101 13
100 13
100 14
99 15
98 14
97 14
96 14
95 14
94 14
93 14
93 15
92 16
91 15
91 16
90 17
89 16
88 16
87 16
86 16
86 17
85 18
84 17
83 17
82 17
81 17
80 17
79 17
79 18
78 19
77 20
76 19
75 19
75 20
74 21
73 20
73 21
72 22
71 23
70 22
69 22
69 23
68 24
67 23
67 24
66 25
65 26
64 25
64 26
63 27
62 26
61 26
60 26
59 26
58 26
57 26
57 27
56 28
55 27
55 28
54 29
53 28
52 28
51 28
50 28
49 27
48 27
47 27
46 27
45 27
44 27
43 27
42 27
41 27
40 27
39 27
38 27
37 27
36 27
35 27
34 26
33 26
32 25
32 26
31 27
31 28
30 29
29 28
28 28
27 28
26 28
25 28
24 28
23 28
22 28
21 28
20 28
19 28
18 28
18 29
17 30
16 31
15 32
14 31
13 31
12 31
11 31
11 32
10 33
9 34
8 35
7 36
7 37
6 38
6 39
6 40
6 41
6 42
6 43
6 44
6 45
6 46
6 47
6 48
6 49
7 49
8 50
8 51
8 52
9 52
10 53
11 54
12 54
13 55
14 55
15 55
16 55
17 56
18 56
19 56
20 57
21 57
22 57
23 57
24 57
25 57
26 58
27 58
28 58
29 58
30 58
31 58
32 58
33 58
34 58
35 58
36 58
37 58
38 58
39 58
40 58
41 58
42 58
43 58
44 58
45 57
46 57
47 57
48 57
49 56
50 56
51 57
51 58
51 59
51 60
51 61
51 62
52 63
52 64
53 64
54 65
55 65
56 65
57 65
58 66
59 66
60 67
60 68
61 68
62 68
63 68
64 68
65 68
66 68
67 68
68 68
69 69
70 69
71 69
72 69
73 68
74 68
75 68
76 68
77 68
78 69
78 70
78 71
79 71
80 71
81 71
82 71
83 70
84 69
85 69
86 68
87 68
88 68
89 68
90 68
91 68
92 69
93 69
94 69
95 70
96 70
97 70
98 70
99 70
100 70
101 70
102 70
103 70
104 70
105 70
106 70
107 70
108 70
109 70
110 70
111 70
112 70
113 69
114 69
115 69
116 69
117 69
118 69
119 69
120 69
121 69
122 69
123 69
124 69
125 69
126 69
127 69
128 69
129 68
130 68
131 68
132 68
133 68
134 68
135 67
136 67
137 67
138 67
139 67
140 67
141 67
142 66
143 66
144 66
145 66
146 66
147 66
148 65
149 65
150 65
151 65
152 65
153 64
154 64
155 64
156 64
157 64
158 64
158 63
158 62
159 61
159 60
160 59
160 58
161 57
162 57
163 56
164 55
165 54
166 53
167 54
168 55
168 56
169 57
169 58
169 59
169 60
169 61
169 62
169 63
170 64
169 65
169 66
169 67
169 68
169 69
169 70
169 71
169 72
169 73
169 74
169 75
169 76
169 77
168 78
168 79
168 80
167 81
166 82
165 83
164 82
164 83
163 84
162 85
162 86
163 86
164 86
165 86
166 86
167 86
168 85
169 85
170 84
170 83
171 82
171 81
172 80
173 80
174 81
173 82
173 83
172 84
172 85
172 86
172 87
171 88
171 89
170 90
169 91
169 92
169 93
169 94
169 95
169 96
169 97
170 97
171 97
172 97
172 96
173 95
173 94
174 93
174 92
174 91
174 90
175 89
176 88
177 87
178 86
179 85
180 85
181 86
181 87
181 88
180 89
179 90
178 91
178 92
178 93
177 94
176 95
176 96
175 97
175 98
174 99
174 100
173 101
172 102
172 103
171 104
170 103
170 104
169 105
168 106
167 107
167 108
167 109
168 109
169 109
170 109
171 108
172 108
173 107
174 107
174 106
175 105
176 105
176 104
177 103
177 102
178 101
179 100
180 99
180 98
180 97
181 96
182 95
182 94
183 93
183 92
184 91
185 90
186 89
186 88
187 87
188 87
189 86
190 85
191 85
192 86
193 86
194 87
195 88
196 89
195 90
195 91
195 92
194 93
194 94
193 95
192 96
192 97
192 98
191 99
191 100
191 101
190 102
190 103
191 103
192 103
193 103
194 102
194 101
195 100
195 99
196 98
197 97
197 96
198 95
198 94
199 93
200 92
201 93
202 94
203 95
204 95
205 95
206 95
206 94
206 93
206 92
206 91
206 90
207 89
208 88
209 87
209 86
209 85
209 84
209 83
209 82
210 81
210 80
210 79
211 78
211 77
212 76
212 75
212 74
212 73
212 72
213 71
213 70
213 69
213 68
213 67
213 66
214 65
214 64
214 63
214 62
214 61
214 60
214 59
214 58
215 57
215 56
215 55
216 54
217 55
218 55
219 55
220 55
221 54
222 54
223 54
224 54
225 54
226 54
227 54
228 54
229 54
230 54
231 54
232 53
233 53
234 53
235 53
236 53
237 53
238 53
239 53
240 53
241 53
242 53
243 53
244 53
245 53
246 53
247 53
248 52
249 52
250 52
251 52
252 52
253 52
254 52
255 52
256 52
257 52
258 52
259 51
260 50
261 49
262 48
263 48
264 48
265 47
266 47
267 46
268 46
269 46
270 45
271 45
272 45
273 44
273 43
273 42
273 41
273 40
273 39
272 39
271 40
270 39
270 38
270 37
270 36
269 35
268 35
267 34
268 33
269 32
269 31
269 30
269 29
268 28
267 27
266 26
265 26
264 25
263 25
262 25
261 24
260 24
259 23
258 23
257 23
256 23
255 23
254 23
253 22
252 22
251 22
250 22
249 22
248 22
247 22
246 21
245 21
244 21
243 21
242 21
241 20
240 20
239 20
238 20
237 20
236 20
235 20
234 20
233 19
232 19
231 19
230 19
229 18
228 18
227 18
226 18
225 18
224 17
223 17
222 17
221 16
220 15
219 14
219 13
219 12
220 11
221 10
221 9
222 8
223 8
224 8
225 8
225 7
225 6
224 5
223 5
222 4
