97 0
96 1
96 2
95 3
94 4
93 5
92 6
92 7
93 8
93 9
93 10
93 11
94 11
95 12
95 13
94 14
93 14
92 14
91 14
90 14
89 14
88 14
87 14
86 14
86 15
85 16
84 15
83 15
82 15
82 16
81 17
80 16
79 17
78 16
78 15
77 14
76 13
75 12
74 11
73 11
72 12
72 13
71 14
70 14
69 13
68 13
67 12
66 12
65 11
64 11
63 11
62 11
61 10
60 10
60 11
59 12
59 13
59 14
58 15
57 14
56 14
55 14
54 14
53 13
52 13
51 12
50 12
49 12
48 12
48 13
47 14
46 13
46 14
45 15
44 16
44 17
43 18
43 19
43 20
43 21
43 22
42 23
41 22
40 22
39 21
38 21
37 20
36 20
35 19
34 18
33 18
32 17
31 17
30 16
29 16
28 15
27 14
26 14
25 13
24 13
23 12
22 12
21 11
20 11
19 10
18 10
17 9
16 9
15 9
14 8
13 8
12 8
12 9
11 10
10 11
9 10
9 11
8 12
7 13
6 14
5 15
4 16
4 17
3 18
3 19
3 20
3 21
3 22
3 23
3 24
3 25
3 26
3 27
3 28
3 29
3 30
3 31
2 32
2 33
2 34
2 35
2 36
3 37
3 38
4 38
5 39
6 39
7 40
7 41
8 42
8 43
9 44
10 44
11 44
12 44
13 44
14 44
15 44
16 45
17 45
18 45
19 45
20 45
21 45
22 45
22 44
23 43
24 43
25 43
26 43
27 43
28 43
29 42
30 42
31 42
32 42
33 42
34 41
35 41
36 41
37 40
38 40
39 40
40 41
39 42
38 43
37 44
37 45
37 46
36 47
36 48
36 49
36 50
36 51
36 52
36 53
36 54
36 55
36 56
36 57
36 58
37 59
38 60
39 61
40 62
41 62
42 63
43 63
44 63
45 64
45 65
45 66
46 66
47 66
48 66
49 67
50 67
51 67
52 67
53 68
53 69
53 70
54 70
55 70
56 70
57 70
58 70
59 70
60 70
61 70
62 70
63 70
64 70
64 69
65 68
66 68
67 67
68 67
69 67
69 66
70 65
71 65
72 65
73 66
73 67
74 67
75 67
76 67
77 67
78 67
79 67
80 67
81 68
81 69
81 70
81 71
82 71
83 71
84 71
85 71
86 72
86 73
85 74
85 75
85 76
86 76
87 76
88 76
89 77
89 78
89 79
90 79
91 79
92 79
93 79
94 79
95 79
96 80
96 81
96 82
96 83
96 84
97 84
98 84
99 84
100 84
101 84
102 83
103 82
103 81
104 80
105 80
106 80
106 79
107 78
108 77
109 77
110 76
111 77
111 78
111 79
111 80
111 81
111 82
111 83
110 84
109 85
109 86
109 87
109 88
109 89
110 89
111 89
112 89
113 89
114 89
115 89
115 88
115 87
115 86
116 85
117 85
117 84
117 83
117 82
118 81
118 80
119 79
120 78
121 77
121 76
122 75
123 76
123 77
124 78
125 78
126 78
127 78
128 78
129 78
129 77
129 76
129 75
129 74
129 73
130 72
131 72
132 72
133 72
133 71
133 70
133 69
133 68
132 67
131 66
132 65
133 64
134 64
135 63
136 63
137 63
138 63
139 63
140 63
141 62
142 62
143 62
143 61
144 60
145 59
146 58
147 58
148 58
149 58
150 58
151 58
152 58
153 58
154 58
155 58
156 58
157 57
158 56
159 56
160 55
161 54
162 53
163 52
164 51
165 51
166 51
167 51
168 51
168 50
169 49
170 49
170 48
171 47
172 46
173 45
174 44
174 43
174 42
174 41
174 40
174 39
173 38
172 37
172 36
172 35
171 34
171 33
170 32
169 31
168 30
167 29
166 28
165 27
164 26
163 25
162 25
161 24
160 24
159 24
158 23
157 23
156 23
155 22
154 22
153 21
152 21
151 21
150 20
149 20
148 20
147 20
146 20
145 20
144 20
143 19
142 19
141 19
140 19
139 19
138 19
137 18
136 18
135 18
134 18
133 18
132 18
131 18
130 18
129 18
128 18
127 18
126 18
125 17
124 17
123 17
122 17
121 16
121 15
120 14
120 13
119 12
118 11
117 10
117 9
116 8
115 8
114 7
114 6
113 5
112 5
111 4
110 4
109 3
108 2
107 2
106 1
105 1
104 1
103 0
102 0
101 0
100 0
99 0
98 0
