84 2
83 3
82 4
81 4
81 5
80 6
79 7
78 8
78 9
77 10
76 11
75 12
74 13
73 14
72 14
72 15
71 16
70 17
69 18
68 18
67 18
66 18
65 18
64 19
63 19
62 19
61 19
60 19
59 19
58 19
57 19
56 19
55 19
54 19
53 20
52 20
51 20
50 20
49 20
48 21
47 21
46 22
45 22
44 23
43 23
42 23
41 24
40 25
39 25
38 25
37 26
36 26
35 27
34 27
33 28
32 28
31 29
30 29
29 30
28 31
27 31
26 32
25 32
25 33
24 34
23 34
22 35
21 35
21 36
20 37
19 37
18 38
17 39
16 39
15 40
14 41
13 42
12 42
12 43
11 44
10 44
9 45
8 46
7 47
6 48
6 49
5 50
4 51
3 52
3 53
2 54
2 55
2 56
2 57
2 58
2 59
2 60
2 61
2 62
2 63
2 64
2 65
3 66
3 67
3 68
4 68
5 69
6 70
7 71
8 72
9 73
10 74
11 75
12 76
13 76
14 76
15 77
15 78
16 78
17 78
18 79
19 79
20 80
21 80
22 80
23 80
24 81
25 82
26 82
27 83
28 83
29 83
30 83
31 84
32 85
33 85
34 85
35 86
36 86
37 86
38 87
39 87
40 88
41 88
42 89
43 89
44 89
45 90
46 90
47 90
48 90
49 91
50 91
51 91
52 92
53 92
54 92
55 93
56 93
57 93
58 93
59 94
60 94
61 94
62 94
63 95
63 96
63 97
63 98
63 99
63 100
63 101
63 102
63 103
63 104
63 105
63 106
63 107
63 108
63 109
63 110
63 111
63 112
64 113
64 114
64 115
64 116
64 117
64 118
65 119
66 120
67 121
67 122
68 123
68 124
69 124
70 125
70 126
71 127
71 128
72 128
73 128
74 127
75 126
76 126
77 125
78 125
79 124
79 123
80 122
81 122
82 121
83 120
84 119
85 118
85 117
86 116
86 115
86 114
87 113
87 112
87 111
88 110
88 109
89 108
89 107
90 106
90 105
91 104
91 103
91 102
90 102
89 101
88 100
87 99
86 98
87 97
88 97
89 97
90 97
91 97
92 97
93 97
94 97
95 97
96 97
97 97
98 97
99 97
100 97
101 97
102 97
103 97
104 97
105 97
106 98
107 98
108 98
109 98
110 98
111 98
112 98
113 98
114 98
115 98
116 98
117 99
118 99
119 100
120 101
121 102
122 103
123 103
124 103
125 103
126 103
127 104
128 104
129 104
130 104
131 104
132 105
133 105
134 105
135 105
136 105
137 104
138 104
139 104
140 105
141 105
142 105
143 105
144 105
145 105
146 105
147 105
148 105
149 105
150 105
151 105
152 105
153 105
154 105
155 105
156 105
157 105
158 105
159 105
160 105
161 104
162 103
163 104
164 104
165 104
166 103
167 103
168 103
169 103
170 103
171 103
172 103
173 103
174 103
175 103
176 102
176 101
177 100
178 99
179 99
180 99
181 99
182 100
183 100
184 100
185 99
186 98
186 97
187 96
188 96
189 96
190 96
191 96
192 95
193 95
194 95
195 95
196 94
197 93
197 92
196 91
195 90
194 90
193 90
192 90
191 89
190 89
189 88
188 87
187 87
186 87
185 86
184 86
183 85
184 84
184 83
183 83
182 82
181 82
180 81
181 80
180 80
179 79
178 79
177 79
176 78
177 77
177 76
178 75
179 75
180 75
181 75
182 75
183 75
184 75
185 75
186 75
187 75
188 74
189 74
190 74
191 74
192 74
193 74
194 74
195 73
196 73
197 73
198 73
199 73
200 73
201 73
202 73
203 73
204 73
205 73
206 73
207 72
208 72
209 72
210 72
211 71
212 71
213 71
214 71
215 70
216 70
217 70
218 69
219 69
220 69
221 69
222 69
223 69
224 68
225 68
226 68
227 67
228 67
229 67
230 66
231 66
232 66
233 65
234 64
235 63
235 62
236 61
235 61
234 60
233 60
232 60
231 59
230 59
229 58
230 57
230 56
230 55
230 54
230 53
230 52
231 51
231 50
232 49
232 48
232 47
231 47
230 46
229 45
230 44
231 44
232 43
232 42
233 41
234 41
235 40
236 40
237 39
237 38
238 37
237 37
236 36
235 36
234 36
233 36
232 36
231 36
230 36
229 36
228 36
227 36
226 36
225 36
224 36
223 35
222 35
221 35
220 35
219 35
218 35
217 35
216 35
215 35
214 35
213 35
212 35
211 35
210 35
209 35
208 35
207 35
206 35
205 36
204 36
203 36
202 36
201 37
200 37
199 37
198 38
197 38
196 38
195 39
194 39
193 39
192 39
191 39
190 39
189 38
189 37
190 36
191 36
192 35
192 34
193 33
192 33
191 32
190 32
189 31
188 30
187 29
186 28
185 27
184 27
183 27
182 27
181 26
180 25
179 25
178 25
177 25
176 25
175 24
174 23
173 23
172 23
171 22
170 22
169 22
168 22
167 21
166 21
165 21
164 20
163 20
162 20
161 20
160 19
159 19
158 19
157 19
156 19
155 19
154 18
153 18
152 18
151 18
150 18
149 18
148 18
147 17
146 17
145 17
144 17
143 16
142 15
141 15
140 14
139 14
138 14
137 14
136 14
135 13
134 12
133 11
132 11
131 11
130 10
129 10
128 10
127 10
126 9
125 9
124 8
123 8
122 7
121 7
120 7
119 7
118 7
117 6
116 6
115 6
114 5
113 5
112 4
111 4
110 4
109 4
108 4
107 4
106 4
105 4
104 4
103 4
102 4
101 4
100 3
99 2
98 2
97 2
96 2
95 2
94 2
93 2
92 2
91 2
90 2
89 2
88 2
87 2
86 2
85 2
