88 2
88 3
87 4
86 5
86 6
86 7
86 8
85 9
85 10
84 11
83 11
82 10
81 9
82 8
82 7
81 7
80 6
79 6
78 5
79 4
78 4
77 3
76 3
76 4
76 5
76 6
76 7
75 8
75 9
75 10
75 11
75 12
75 13
75 14
74 15
73 15
72 14
71 13
70 13
69 12
68 11
67 10
68 9
67 9
66 8
65 8
64 8
64 9
64 10
64 11
64 12
64 13
64 14
64 15
64 16
64 17
63 18
62 18
61 18
60 18
60 19
60 20
60 21
60 22
60 23
60 24
61 25
60 26
59 27
58 27
57 27
56 28
55 28
54 29
53 29
52 29
51 29
50 29
49 29
48 30
47 30
46 31
45 31
44 31
43 31
42 31
41 31
40 31
39 32
38 32
37 32
36 33
35 32
34 32
33 32
32 33
31 33
30 34
29 34
28 35
27 35
26 35
25 36
25 37
24 38
23 39
23 40
22 41
21 41
20 41
19 41
18 41
17 42
16 43
15 44
14 45
13 46
12 46
11 47
10 47
9 47
8 47
8 48
8 49
7 50
6 50
5 50
5 51
4 52
3 52
3 53
2 54
2 55
2 56
2 57
3 58
3 59
3 60
3 61
4 61
5 61
6 62
6 63
7 64
7 65
7 66
8 67
7 68
6 69
6 70
5 71
5 72
5 73
5 74
5 75
5 76
6 77
7 78
8 78
9 78
10 79
11 79
12 79
13 80
14 81
14 82
13 83
13 84
13 85
13 86
13 87
13 88
13 89
13 90
14 90
15 91
16 92
17 93
18 93
19 93
20 94
21 94
22 94
23 94
24 95
25 95
26 96
27 96
28 96
29 97
30 98
31 98
32 98
33 98
34 98
35 98
36 98
37 99
38 99
39 99
40 100
41 100
42 101
43 101
44 102
45 102
46 103
47 103
48 104
49 104
50 104
51 105
52 105
53 106
54 106
55 106
56 107
57 107
58 107
59 107
60 108
61 108
62 108
63 108
64 108
65 108
66 108
67 108
68 108
69 108
70 108
71 108
72 108
73 108
74 107
75 107
76 107
77 108
78 108
79 109
80 110
80 111
81 112
82 113
83 114
83 115
83 116
84 116
85 117
85 118
85 119
85 120
86 121
86 122
87 123
88 123
89 124
90 125
91 125
92 126
92 127
92 128
92 129
93 129
94 129
95 130
95 131
96 132
97 132
98 133
99 133
100 133
101 132
101 131
102 130
103 130
104 130
105 131
106 131
107 131
108 131
109 131
110 131
111 131
112 132
113 133
114 133
115 133
116 133
117 133
118 133
119 133
120 133
121 133
122 133
123 133
124 133
125 133
126 133
127 132
127 131
128 130
128 129
128 128
129 127
129 126
128 126
127 125
128 124
129 124
130 123
130 122
131 121
131 120
131 119
131 118
131 117
131 116
130 116
129 115
130 114
130 113
130 112
130 111
130 110
129 110
128 109
127 108
128 107
128 106
128 105
128 104
127 104
126 103
125 102
124 101
123 100
122 99
121 98
122 97
121 97
120 96
119 95
118 94
118 93
119 92
120 92
121 92
122 92
123 92
124 92
125 92
126 92
127 92
128 91
128 90
129 89
130 89
131 89
132 89
133 89
134 88
135 88
136 88
137 89
138 89
139 89
140 89
141 89
142 89
143 89
144 89
145 90
146 91
147 92
148 92
149 93
150 94
151 94
152 95
153 95
154 95
155 95
156 95
157 95
158 96
159 96
160 96
161 97
162 97
163 98
164 98
165 98
166 99
167 99
168 99
169 99
170 99
171 98
171 97
172 96
173 97
174 97
175 97
176 98
177 98
178 98
179 98
180 98
181 98
182 98
183 98
184 98
185 98
186 98
187 97
187 96
188 95
188 94
189 93
189 92
190 91
190 90
189 90
188 89
189 88
189 87
189 86
188 86
187 85
186 84
185 83
186 82
185 82
184 81
183 80
182 79
181 78
182 77
183 77
184 77
185 76
186 76
187 76
188 76
189 76
190 76
191 76
192 77
193 77
194 77
195 77
196 77
197 77
198 78
199 79
200 79
201 79
202 78
203 78
204 79
205 79
206 79
207 79
208 79
209 79
210 79
211 79
212 79
213 79
214 79
215 79
216 79
217 79
218 79
219 79
220 79
221 79
222 79
223 79
224 79
225 79
226 79
227 79
228 79
229 79
230 79
231 79
232 79
233 79
234 79
235 78
236 78
237 77
237 76
238 75
238 74
238 73
238 72
238 71
238 70
238 69
238 68
238 67
238 66
238 65
238 64
238 63
238 62
238 61
238 60
238 59
238 58
238 57
238 56
238 55
238 54
238 53
237 53
236 52
235 51
236 50
236 49
236 48
237 47
237 46
237 45
237 44
236 44
235 43
236 42
235 42
234 41
235 40
234 40
233 39
234 38
234 37
233 37
232 36
233 35
232 35
231 34
230 34
229 34
228 34
227 34
226 34
225 34
224 34
223 34
222 34
221 34
220 34
219 34
219 35
218 36
217 36
216 37
215 37
214 38
213 39
212 39
211 39
211 40
210 41
209 42
208 43
207 43
207 44
206 45
205 45
204 45
203 46
202 47
201 47
200 48
199 49
198 50
197 51
196 51
195 52
194 53
193 53
192 54
191 53
191 52
192 51
192 50
192 49
193 48
193 47
193 46
193 45
193 44
194 43
194 42
194 41
194 40
193 40
192 39
191 38
190 37
189 36
188 35
187 34
186 33
185 33
184 32
183 31
182 30
181 29
180 28
179 27
178 27
177 26
176 25
175 25
174 25
173 24
172 23
171 22
170 22
169 21
168 20
167 19
166 18
165 18
164 18
163 17
162 16
161 16
160 16
159 16
158 15
157 15
156 15
155 15
154 15
153 15
152 15
151 15
150 15
149 16
148 17
147 18
146 19
145 19
144 19
143 19
142 20
141 20
140 19
139 18
138 18
137 18
136 18
135 17
134 16
135 15
134 15
133 14
132 14
131 14
130 14
129 15
128 15
127 14
126 13
125 12
124 12
123 11
122 10
121 9
120 9
119 9
118 10
117 11
116 10
115 9
114 8
113 7
112 7
111 8
111 9
110 10
109 10
108 9
109 8
109 7
108 7
107 6
106 6
105 7
104 7
103 7
102 8
101 7
100 6
99 5
100 4
99 4
98 3
97 3
96 4
95 5
94 6
93 6
92 5
91 5
90 4
91 3
90 3
89 2
