250 4
250 5
249 6
248 5
248 6
247 7
246 8
246 9
246 10
245 11
244 12
243 13
243 14
243 15
243 16
242 17
242 18
241 19
240 20
239 21
239 22
239 23
239 24
239 25
239 26
240 27
240 28
241 29
241 30
242 31
242 32
241 33
240 32
239 32
238 32
237 32
236 32
235 32
234 32
233 32
232 32
232 33
231 34
230 33
230 34
229 35
228 36
227 35
226 35
225 34
224 34
224 35
223 36
222 35
221 35
220 35
219 35
218 35
217 35
216 35
215 35
215 36
214 37
213 38
212 37
211 37
211 38
210 39
209 38
208 38
207 38
206 39
205 39
204 38
203 38
202 38
201 38
200 38
199 38
198 38
198 39
197 40
196 39
196 40
195 41
194 40
193 40
192 39
191 39
190 38
189 38
189 39
188 40
188 41
188 42
188 43
187 44
186 45
185 44
184 44
183 44
182 44
181 44
180 44
180 45
179 46
178 45
178 44
177 43
176 43
175 44
175 45
174 46
173 45
172 45
171 45
170 45
169 45
168 45
167 45
166 45
165 45
164 45
163 45
162 45
161 45
160 44
159 44
158 43
158 44
157 45
156 44
156 45
155 46
154 45
153 45
152 45
151 45
150 45
149 46
148 46
147 45
146 45
145 45
145 46
144 47
143 48
142 49
141 50
141 51
141 52
140 53
139 52
139 53
138 54
137 53
136 52
136 51
136 50
136 49
135 48
134 48
133 47
132 47
131 47
131 48
130 49
129 48
128 48
127 48
126 48
125 48
124 48
123 48
122 48
121 48
120 48
119 48
118 48
117 48
116 48
115 48
114 48
114 49
113 50
112 49
111 49
110 49
109 49
108 49
107 49
106 49
105 48
104 48
103 48
103 49
102 50
101 51
100 52
100 53
99 54
98 53
97 53
96 53
95 53
94 53
93 53
92 53
91 52
90 51
89 51
88 50
87 50
86 50
85 49
84 48
83 48
82 47
81 48
80 47
79 47
78 46
77 46
76 46
75 45
74 45
73 45
72 45
71 45
70 45
70 46
69 47
68 48
68 49
68 50
67 51
66 52
65 53
64 52
64 53
63 54
63 55
63 56
62 57
61 56
61 57
60 58
59 57
59 58
58 59
57 58
57 59
56 60
55 59
54 59
53 59
53 60
52 61
51 60
51 61
50 62
49 61
49 62
48 63
47 62
46 62
45 62
44 62
43 62
42 62
42 63
41 64
40 65
39 66
38 65
37 65
36 65
35 65
35 66
34 67
33 66
33 67
32 68
31 67
31 68
30 69
29 68
28 68
27 68
27 69
26 70
25 71
24 72
23 73
22 73
21 73
20 72
19 72
18 72
17 72
16 72
15 71
14 71
13 71
12 70
11 69
10 69
9 68
9 69
8 70
7 69
7 70
6 71
5 72
5 73
5 74
5 75
4 76
3 75
3 76
2 77
2 78
2 79
3 79
4 80
4 81
5 82
4 83
4 84
4 85
5 86
6 87
7 87
8 87
9 87
10 88
11 88
12 88
13 88
14 88
15 88
16 87
17 87
18 87
19 87
20 87
21 87
22 87
23 87
24 86
25 86
26 86
27 86
28 86
29 87
30 87
31 87
32 87
32 86
33 85
34 86
35 86
36 86
37 86
38 86
39 86
39 85
40 84
41 84
42 83
43 83
44 83
45 83
46 83
47 82
48 82
49 82
50 82
51 82
52 82
53 81
54 81
55 81
56 81
57 81
58 81
59 81
60 81
61 81
62 81
63 81
64 81
65 81
66 81
67 81
67 80
68 79
69 78
70 78
71 78
72 78
73 78
74 78
75 78
76 78
77 78
78 78
78 77
78 76
79 75
80 75
81 75
82 75
83 75
84 75
85 74
86 74
87 74
88 74
89 73
90 73
91 73
92 73
93 73
94 72
95 72
96 72
97 73
97 74
98 75
99 76
100 76
101 76
102 76
103 76
104 76
105 75
106 75
107 75
108 75
109 75
110 75
110 74
111 73
112 73
113 73
114 72
115 71
116 71
117 70
118 70
119 69
120 69
121 68
122 68
123 67
124 67
125 67
126 67
127 66
128 66
129 66
130 66
131 65
132 65
133 65
134 64
135 64
136 64
137 64
138 64
139 64
140 65
141 65
142 65
143 65
144 65
145 65
146 66
147 66
148 66
149 66
150 66
151 66
152 66
153 65
154 65
155 64
156 64
157 64
158 64
159 64
160 64
161 64
162 64
163 64
164 64
165 64
166 65
167 65
168 65
169 65
170 64
171 64
172 64
173 64
174 64
175 64
176 64
177 64
178 65
179 65
180 65
181 65
182 64
183 64
184 64
185 64
186 64
187 65
188 65
189 65
190 65
191 65
192 65
193 66
194 67
195 67
196 67
197 68
198 69
198 70
199 70
200 70
201 71
202 72
203 72
204 73
205 73
206 74
207 74
208 74
209 74
210 74
211 74
212 74
213 74
214 74
215 75
216 75
217 75
218 75
219 75
220 75
221 75
222 75
223 75
224 76
225 76
226 76
227 76
228 76
229 77
230 77
231 78
232 78
233 78
234 78
235 78
236 78
237 79
237 80
237 81
237 82
236 83
236 84
235 85
234 86
234 87
234 88
234 89
234 90
235 90
236 91
236 92
236 93
236 94
237 94
238 95
238 96
239 96
240 97
240 98
241 98
242 99
243 100
243 101
244 102
244 103
244 104
245 105
246 106
246 107
246 108
247 109
247 110
248 110
249 110
250 111
251 111
252 111
253 111
254 111
255 111
256 111
257 111
258 110
259 109
260 108
261 107
262 107
263 106
264 106
265 106
266 106
266 105
266 104
266 103
266 102
267 101
267 100
268 99
268 98
269 97
270 97
271 97
272 96
272 95
273 94
273 93
273 92
273 91
273 90
274 89
274 88
275 87
275 86
276 85
277 84
278 84
278 83
278 82
279 81
280 81
281 81
282 81
283 81
284 81
285 81
286 80
287 80
288 80
289 80
290 80
291 80
292 80
293 80
294 80
295 80
296 80
297 80
298 80
299 80
300 80
301 79
302 79
303 80
304 81
305 81
306 81
306 80
306 79
307 78
308 78
309 78
310 78
311 78
312 77
313 77
314 77
315 77
316 77
317 76
318 76
319 76
320 77
320 78
320 79
321 79
322 79
323 79
323 78
323 77
324 76
325 76
326 76
327 76
328 76
329 76
330 76
331 76
331 75
331 74
332 73
333 73
334 73
335 72
336 71
337 71
338 71
339 71
340 71
340 70
341 69
341 68
342 67
342 66
343 65
343 64
343 63
344 62
344 61
344 60
344 59
343 58
343 57
343 56
342 55
341 54
340 54
339 53
338 52
337 51
336 50
335 49
334 49
333 48
332 47
331 47
330 46
329 46
328 45
327 45
326 44
325 44
324 43
324 44
323 45
322 44
321 44
320 44
319 44
318 43
317 43
316 43
315 43
315 44
314 45
313 44
313 43
313 42
312 41
311 41
310 40
309 40
308 40
307 40
306 40
305 39
304 39
303 39
302 39
301 39
300 39
299 38
298 38
297 37
297 38
296 39
295 38
294 38
293 37
292 37
291 38
290 37
289 37
288 36
287 36
286 36
285 36
284 36
283 37
282 36
281 35
280 34
279 33
279 32
279 31
279 30
279 29
278 28
277 27
276 27
275 26
274 25
274 24
274 23
273 22
272 21
273 20
273 19
273 18
272 17
271 17
270 16
269 15
269 14
268 13
267 12
267 11
266 10
265 9
264 8
263 8
262 7
261 7
260 7
259 6
258 6
257 5
256 5
255 4
254 4
253 4
252 4
251 4
