59 2
59 3
58 4
57 5
56 5
56 6
56 7
56 8
55 9
55 10
54 11
53 11
52 10
51 9
52 8
51 8
50 7
49 7
48 7
47 8
47 9
47 10
47 11
47 12
47 13
47 14
46 15
46 16
46 17
46 18
46 19
45 20
44 20
43 21
42 21
41 22
40 22
39 22
38 22
37 22
36 23
35 23
34 24
33 25
33 26
32 27
31 27
30 27
29 27
28 27
27 27
26 27
25 27
24 27
23 27
22 27
21 27
20 28
19 28
18 28
17 29
16 30
15 30
15 31
14 32
13 32
12 32
11 32
10 32
9 33
8 33
7 33
6 34
5 35
4 35
4 36
3 37
3 38
3 39
2 40
2 41
2 42
2 43
2 44
2 45
3 46
4 47
4 48
4 49
5 50
6 51
7 52
7 53
8 54
9 55
10 56
10 57
11 58
12 59
12 60
13 60
14 61
15 62
16 63
17 63
18 64
19 65
20 65
21 66
22 66
23 67
24 67
25 67
26 68
27 68
28 68
29 69
30 69
31 69
32 69
33 69
34 69
35 69
36 70
37 70
38 70
39 70
40 70
41 70
42 70
43 70
44 70
45 70
46 70
47 70
48 71
49 72
50 73
51 74
51 75
52 75
53 76
53 77
54 78
55 78
56 79
57 79
58 80
59 80
60 81
61 82
62 83
63 83
64 84
64 85
65 85
66 86
67 86
68 86
68 85
69 84
69 83
69 82
68 81
69 80
70 80
71 80
72 80
73 80
74 80
75 79
75 78
76 77
77 76
78 76
79 76
80 76
81 76
82 76
83 76
84 75
85 75
86 75
87 75
88 75
89 74
90 74
91 74
92 73
93 73
94 73
95 72
96 71
97 70
98 69
99 70
100 71
101 71
102 72
102 73
103 73
104 73
105 73
106 73
107 72
108 72
109 73
110 73
111 73
112 73
113 73
114 72
115 71
115 70
116 69
117 69
118 69
119 70
120 70
121 70
122 70
123 70
124 70
125 70
126 70
127 71
128 71
129 70
129 69
130 68
131 67
131 66
132 65
133 64
133 63
134 62
133 62
132 61
131 60
130 60
129 59
128 59
127 59
126 58
127 57
128 57
129 57
130 57
131 58
132 58
133 58
134 58
135 59
135 60
136 60
137 60
138 60
139 60
140 61
141 61
142 62
143 62
144 62
145 63
146 63
147 63
148 64
149 64
150 64
151 65
152 65
153 66
154 66
155 66
156 67
157 67
158 67
159 66
160 66
161 65
162 64
162 63
163 62
163 61
163 60
164 59
164 58
164 57
165 56
165 55
165 54
165 53
165 52
166 51
167 50
167 49
166 48
165 47
165 46
166 45
166 44
165 44
164 43
165 42
165 41
165 40
165 39
165 38
164 38
163 37
164 36
163 36
162 35
161 35
160 35
159 35
158 35
157 35
156 35
155 35
154 35
153 35
152 35
151 36
150 36
149 36
148 36
147 36
146 37
145 37
144 37
143 37
142 37
141 37
140 38
139 38
138 39
137 39
136 39
135 39
134 40
133 40
132 39
133 38
133 37
134 36
134 35
134 34
134 33
133 33
132 32
131 31
132 30
132 29
132 28
131 28
130 27
131 26
131 25
130 25
129 24
130 23
129 23
128 22
127 21
126 20
125 19
124 19
123 19
122 19
121 19
120 18
119 18
118 18
117 18
116 18
115 18
114 18
113 18
112 18
111 19
110 19
109 19
108 19
107 19
106 20
105 20
105 21
104 22
103 22
102 22
101 21
100 21
99 21
98 21
97 20
97 19
98 18
97 18
96 17
95 17
94 17
93 18
92 17
92 16
92 15
93 14
92 14
91 13
90 12
91 11
90 11
89 10
88 10
87 10
86 10
85 11
84 11
83 12
82 11
81 10
82 9
81 9
80 8
79 8
78 9
77 10
76 10
75 9
74 8
75 7
75 6
74 6
73 5
72 5
71 6
70 7
70 8
69 9
68 8
67 7
67 6
67 5
68 4
67 4
66 3
65 3
64 3
64 4
63 5
62 4
62 3
61 3
60 2
