102 2
102 3
101 4
100 5
99 6
98 5
98 4
97 4
96 3
95 3
94 3
93 4
93 5
92 6
91 5
90 4
89 4
88 4
87 4
87 5
87 6
87 7
86 8
85 9
85 10
84 11
84 12
84 13
83 14
83 15
82 16
82 17
81 18
81 19
81 20
80 21
79 22
78 23
77 24
76 25
75 25
74 25
73 26
72 26
71 26
70 26
69 26
68 25
67 25
66 25
65 25
64 25
63 25
62 25
61 25
60 26
59 26
58 27
57 27
56 27
55 27
54 28
53 28
52 28
51 29
50 29
49 29
48 29
47 29
46 30
45 30
44 30
43 30
42 30
41 30
40 30
39 30
38 30
37 30
36 30
35 30
34 31
33 31
32 32
31 32
30 32
29 32
28 33
27 33
26 33
25 33
24 33
23 34
22 34
21 34
20 35
19 35
18 35
17 36
16 36
15 36
14 36
13 36
12 37
11 37
10 37
9 37
8 37
7 37
7 38
7 39
7 40
7 41
7 42
6 43
5 43
4 44
3 44
2 45
2 46
2 47
3 48
4 48
5 48
6 49
7 49
8 49
9 50
10 50
11 50
12 50
13 50
14 50
15 51
16 51
17 51
18 51
19 51
20 52
21 52
22 52
23 52
24 52
25 52
26 52
27 52
28 52
29 52
30 52
31 52
32 52
33 52
34 52
35 52
36 52
37 52
38 52
39 52
40 52
41 52
42 52
43 52
44 52
45 52
46 52
47 52
48 52
49 52
50 52
51 53
52 53
53 53
54 53
55 53
56 53
57 53
58 54
59 54
60 54
61 54
62 55
63 55
64 55
65 55
66 55
67 55
68 55
69 55
70 55
71 56
72 56
73 56
74 56
75 56
76 57
77 57
78 58
79 58
80 59
81 59
82 59
83 59
84 59
85 59
86 59
87 59
88 59
89 59
90 59
91 59
92 59
93 59
94 59
95 59
96 59
97 59
98 59
99 59
100 59
101 59
102 59
103 59
104 58
105 58
106 58
107 58
108 58
109 58
110 58
111 58
112 58
113 57
114 57
115 57
116 57
117 57
118 57
119 57
120 57
121 57
122 57
123 57
124 56
125 56
126 56
127 56
128 55
129 55
130 55
131 55
132 54
133 54
134 53
135 53
136 53
137 53
138 53
139 53
140 53
141 53
142 54
143 54
144 55
145 55
146 56
147 56
148 56
149 55
150 55
151 55
152 56
153 57
154 57
155 57
156 57
157 57
158 56
159 57
160 57
161 57
162 57
163 56
164 55
165 56
166 56
167 57
168 57
169 57
170 56
171 55
172 55
173 55
174 55
175 55
176 55
177 54
178 53
179 54
180 54
181 54
182 54
183 54
184 54
185 54
186 53
186 52
185 51
186 50
187 50
188 50
189 50
190 50
191 51
192 51
193 50
194 49
195 49
196 50
197 50
198 50
199 50
200 50
201 50
202 49
203 48
204 48
205 48
206 48
207 48
208 48
209 48
210 48
211 48
212 48
213 48
214 48
215 48
216 49
217 49
218 49
219 48
220 48
221 48
222 49
223 49
224 49
225 50
226 50
227 50
228 50
229 49
229 48
230 47
230 46
230 45
229 45
228 44
229 43
230 43
231 43
232 43
233 43
234 43
235 42
236 42
237 42
238 42
239 43
240 43
241 43
242 44
243 45
244 45
245 45
246 46
247 46
248 47
249 47
250 47
251 48
252 48
253 49
254 49
255 50
256 50
257 51
258 51
259 51
260 52
261 52
262 52
263 53
264 53
265 53
266 53
267 52
268 51
268 50
269 49
269 48
269 47
270 46
270 45
270 44
271 43
271 42
270 41
271 40
271 39
272 38
272 37
272 36
272 35
271 35
270 34
270 33
271 32
271 31
272 30
272 29
272 28
272 27
272 26
272 25
271 25
270 24
271 23
270 23
269 22
268 21
267 20
266 19
265 19
264 20
263 20
262 20
261 21
260 21
259 21
258 22
257 22
256 23
255 23
254 23
253 24
252 24
251 25
250 25
249 25
248 26
247 26
246 27
245 27
244 27
243 27
242 28
241 29
240 29
239 29
238 30
237 30
236 30
235 31
234 31
233 32
232 32
231 32
230 32
229 32
228 33
227 33
226 33
225 33
224 33
223 33
222 32
223 31
222 31
221 30
220 30
219 30
218 30
217 30
216 30
215 31
214 31
213 30
214 29
213 29
212 28
211 28
210 29
209 29
208 29
207 29
206 29
205 29
204 30
203 30
202 30
201 29
202 28
201 28
200 27
199 27
198 27
197 27
196 28
195 28
194 29
193 29
192 29
191 29
190 29
189 29
188 30
187 30
186 29
187 28
187 27
186 27
185 26
184 26
183 27
182 27
181 28
180 28
179 28
178 28
177 28
176 27
177 26
176 26
175 25
174 25
173 25
172 26
171 25
171 24
172 23
172 22
171 22
170 21
169 21
168 22
167 21
166 21
165 20
164 20
163 20
162 20
161 20
160 20
159 21
158 22
157 22
156 23
155 23
154 23
153 22
153 21
154 20
155 19
156 19
157 18
157 17
158 16
159 16
160 15
160 14
161 13
160 13
159 12
158 11
159 10
158 10
157 9
156 9
155 9
154 9
153 10
152 11
151 12
150 12
149 13
149 14
148 15
147 15
146 16
145 17
144 18
143 18
142 19
141 20
140 20
139 21
138 22
137 23
136 23
135 24
134 24
133 23
132 23
131 23
130 24
129 24
128 23
129 22
129 21
128 21
127 20
126 20
125 20
124 21
123 22
122 23
121 23
120 24
119 24
118 24
117 23
118 22
119 22
120 21
121 20
122 20
123 19
123 18
124 17
123 17
122 16
121 16
120 16
119 15
120 14
120 13
121 12
120 12
119 11
118 11
117 11
116 12
116 13
115 14
114 14
113 14
112 15
111 16
110 16
109 16
108 16
107 15
108 14
108 13
109 12
109 11
110 10
109 10
108 9
107 9
106 10
105 10
104 9
103 8
104 7
104 6
104 5
105 4
105 3
104 3
103 2
