78 2
77 3
76 3
75 4
74 5
73 6
72 7
71 6
71 5
72 4
71 4
70 3
69 3
68 3
68 4
67 5
67 6
66 7
65 7
65 8
64 9
63 8
62 7
61 7
60 8
60 9
59 10
58 10
58 11
57 12
56 13
56 14
56 15
56 16
55 17
54 17
53 17
52 17
51 17
50 18
49 18
48 18
47 19
46 19
45 19
44 20
43 20
42 20
41 20
40 21
39 21
38 21
37 21
36 21
35 21
34 21
33 22
32 22
31 22
30 22
29 22
28 22
27 22
26 23
25 23
24 23
23 23
22 23
21 23
20 23
19 23
18 23
17 23
16 23
15 24
14 24
13 25
12 25
11 25
10 25
9 25
8 25
7 25
7 26
7 27
6 28
6 29
6 30
6 31
6 32
6 33
6 34
6 35
6 36
6 37
5 38
5 39
5 40
5 41
6 41
7 42
6 43
6 44
5 45
5 46
4 47
3 47
2 48
2 49
2 50
2 51
3 52
4 53
5 53
6 53
7 53
8 53
9 53
10 54
11 54
12 54
13 54
14 53
15 53
16 53
17 52
18 51
19 51
20 51
21 52
21 53
22 54
23 54
24 55
24 56
24 57
24 58
24 59
25 60
25 61
26 62
27 63
28 64
29 64
30 64
31 63
32 64
32 65
33 66
34 66
35 66
36 66
37 66
38 66
39 66
40 66
41 66
42 67
42 68
43 68
44 68
45 68
46 68
47 68
48 68
49 68
50 67
51 68
52 68
53 68
54 68
55 68
56 68
57 68
58 69
58 70
59 70
60 70
61 70
62 70
63 71
63 72
63 73
64 74
64 75
64 76
65 76
66 75
66 74
67 73
68 72
68 71
69 70
70 70
71 70
72 70
73 71
73 72
74 73
74 74
74 75
75 75
76 76
76 77
77 77
78 77
79 76
79 75
80 74
79 73
79 72
80 71
81 70
82 70
83 69
84 70
84 71
84 72
85 72
86 72
87 72
88 72
89 72
90 73
91 74
92 74
93 73
93 72
94 71
94 70
94 69
93 69
92 68
93 67
94 67
95 67
96 67
97 66
98 65
99 64
100 64
101 64
102 64
103 64
104 64
105 63
105 62
106 61
107 61
108 61
109 62
108 63
108 64
108 65
108 66
109 66
110 66
111 67
112 67
113 67
114 67
115 67
116 67
117 67
118 67
119 67
120 67
121 67
122 67
123 67
124 67
125 67
126 67
127 67
128 68
129 68
130 68
131 67
131 66
132 65
133 65
134 65
135 65
136 65
137 65
138 65
139 65
140 65
141 65
142 64
143 63
143 62
144 61
144 60
145 59
146 59
147 59
148 58
148 57
149 56
150 56
151 57
152 57
153 57
154 58
155 58
156 58
157 59
158 59
159 59
160 59
161 60
162 60
163 60
164 60
165 60
166 61
167 61
168 62
169 62
170 62
171 62
172 62
173 63
174 63
175 63
176 63
177 64
178 64
179 64
180 64
181 64
182 64
183 64
184 64
185 63
186 62
186 61
187 60
187 59
186 59
185 58
186 57
186 56
186 55
185 55
184 54
185 53
185 52
185 51
185 50
184 50
183 49
184 48
184 47
183 47
182 46
183 45
183 44
183 43
183 42
183 41
183 40
183 39
183 38
183 37
184 36
184 35
185 34
185 33
185 32
185 31
185 30
185 29
185 28
184 28
183 27
184 26
184 25
183 25
182 24
183 23
182 23
181 22
180 22
179 22
178 22
177 22
176 23
175 23
174 23
173 24
172 24
171 25
170 25
169 26
168 26
167 27
166 28
165 28
164 29
163 29
162 30
161 30
160 31
159 32
158 32
157 32
156 33
155 34
154 34
153 35
152 35
151 35
150 36
149 36
148 36
147 37
146 37
145 36
145 35
146 34
146 33
146 32
146 31
145 31
144 30
145 29
145 28
145 27
145 26
144 26
143 25
142 24
141 23
142 22
141 22
140 21
139 21
138 20
139 19
138 19
137 18
136 18
135 17
134 17
133 16
132 16
131 16
130 16
129 16
128 15
127 15
126 15
125 15
124 15
123 15
122 14
121 14
120 14
119 13
118 13
117 12
116 11
115 11
114 11
113 11
112 11
111 11
110 11
109 11
108 11
107 11
106 11
105 11
104 11
103 10
102 9
101 9
100 9
99 8
98 8
97 8
96 7
95 6
94 6
93 6
92 7
91 7
90 6
91 5
90 5
89 4
88 4
87 5
86 5
85 5
84 6
83 6
82 6
81 5
81 4
82 3
81 3
80 2
79 2
