257 2
257 3
257 4
256 5
255 6
254 7
253 8
252 9
251 10
250 10
249 11
248 12
247 12
246 13
245 14
244 14
243 15
242 16
241 16
240 17
239 17
238 18
237 18
236 19
235 19
234 20
233 20
232 21
231 22
230 22
229 23
228 23
227 24
226 24
225 25
224 25
223 25
222 25
221 25
220 26
219 26
218 26
217 26
216 27
215 27
214 27
213 27
212 28
211 28
210 28
209 29
208 29
207 29
206 29
205 29
204 30
203 30
202 30
201 30
200 31
199 31
198 31
197 31
196 31
195 31
194 32
193 32
192 32
191 32
190 32
189 32
188 32
187 33
186 33
185 33
184 33
183 34
182 34
181 34
180 34
179 34
178 35
177 35
176 35
175 35
174 36
173 36
172 36
171 37
170 37
169 37
168 37
167 38
166 38
165 38
164 38
163 38
162 38
161 38
160 38
159 38
158 39
157 39
156 39
155 39
154 38
155 37
155 36
155 35
154 35
153 34
154 33
154 32
154 31
153 31
152 30
151 29
150 28
151 27
150 27
149 26
148 25
147 24
146 23
145 22
144 21
143 20
144 19
143 19
142 18
141 17
140 17
139 16
138 15
137 15
136 14
135 14
134 13
133 13
132 13
131 13
130 12
129 12
128 12
127 12
126 12
125 12
124 12
123 12
122 12
121 12
120 12
119 12
118 12
118 13
118 14
117 15
116 16
115 16
115 17
114 18
113 18
112 19
111 19
111 20
110 21
109 21
108 20
109 19
108 19
107 18
106 17
105 16
104 15
103 15
102 15
101 15
100 14
99 13
98 12
97 12
96 11
95 11
94 10
93 10
92 10
91 10
90 10
89 10
88 10
87 10
86 10
85 10
84 11
83 11
83 12
83 13
82 14
81 14
80 15
80 16
79 17
78 18
78 19
78 20
77 21
76 22
76 23
76 24
76 25
76 26
76 27
76 28
76 29
76 30
76 31
76 32
76 33
76 34
76 35
75 36
74 36
73 36
72 36
71 36
70 36
69 36
68 36
67 36
66 36
65 36
64 36
63 36
62 36
61 36
60 36
59 36
58 36
57 36
56 37
55 37
54 37
53 37
52 37
51 37
50 38
49 38
48 38
47 38
46 38
45 38
44 39
43 39
42 39
41 39
40 39
39 40
38 40
37 40
36 41
35 41
34 41
33 41
32 42
31 42
30 42
29 43
29 44
28 45
27 44
26 43
25 43
24 42
23 41
22 41
21 41
20 41
20 42
19 43
18 43
17 44
16 44
15 44
14 44
13 44
12 45
11 46
10 46
10 47
9 48
8 48
7 49
7 50
6 51
5 51
5 52
4 53
3 54
3 55
2 56
2 57
2 58
2 59
2 60
2 61
2 62
2 63
2 64
2 65
2 66
2 67
3 68
3 69
4 70
4 71
5 72
6 73
6 74
7 75
8 76
9 77
10 77
11 77
12 77
13 77
14 77
15 78
15 79
15 80
15 81
16 82
17 82
18 82
19 82
20 82
21 82
22 82
23 82
24 82
25 82
26 82
27 82
28 82
29 82
30 83
31 84
32 84
33 84
34 85
35 85
36 86
37 86
38 86
39 87
40 87
41 87
42 88
43 88
44 88
45 89
46 89
47 89
48 89
49 90
50 90
51 90
52 91
53 91
54 91
55 91
56 92
57 92
58 92
59 92
60 92
61 92
62 93
63 93
64 93
65 93
66 93
67 93
68 93
69 93
70 93
71 93
72 93
73 93
74 93
75 93
76 93
77 94
77 95
77 96
77 97
78 97
79 98
79 99
79 100
79 101
80 102
80 103
80 104
81 105
81 106
82 107
82 108
82 109
82 110
82 111
83 112
84 113
84 114
84 115
85 116
86 117
87 118
87 119
88 120
88 121
89 121
90 122
90 123
91 123
92 123
93 122
94 122
95 122
96 122
97 122
98 121
99 120
100 120
101 120
102 119
102 118
103 117
104 117
105 117
106 116
106 115
107 114
107 113
108 112
108 111
109 110
110 109
110 108
111 107
111 106
111 105
112 104
112 103
113 102
114 103
115 104
116 105
117 105
118 106
119 107
120 107
121 107
122 108
123 108
124 108
125 108
126 108
127 109
128 109
129 109
130 108
130 107
131 106
131 105
132 104
133 104
134 104
135 104
136 104
137 103
138 102
138 101
139 100
140 100
141 99
142 98
143 97
144 96
145 96
146 96
147 95
147 94
148 93
148 92
148 91
148 90
149 89
149 88
149 87
148 87
147 86
146 85
147 84
148 84
149 84
150 84
151 83
152 83
153 82
154 82
155 82
156 81
157 80
158 80
159 79
160 78
161 78
162 77
163 76
164 75
165 75
166 74
167 73
168 73
169 72
170 71
171 71
172 71
173 70
174 70
175 69
176 68
177 68
178 68
179 67
180 66
181 65
182 64
183 64
184 63
185 63
186 62
187 62
188 61
189 60
189 59
190 58
191 58
192 57
193 57
194 57
195 57
196 56
197 55
198 55
199 54
200 53
201 53
202 52
203 51
204 51
205 50
206 50
207 49
208 48
209 48
210 47
211 46
212 45
213 45
214 44
215 43
216 43
217 42
218 42
219 41
220 41
221 40
222 39
223 39
224 38
225 37
226 36
227 35
228 34
229 34
230 33
231 32
232 31
233 31
234 30
235 29
236 28
237 27
238 26
239 25
240 25
241 25
242 24
243 23
244 23
245 22
246 22
247 21
248 20
249 20
250 19
251 19
252 18
253 18
254 17
255 17
256 16
257 15
258 14
259 13
260 12
261 11
262 10
262 9
263 8
263 7
263 6
263 5
263 4
262 4
261 3
260 2
259 2
258 2
