64 2
63 3
62 4
62 5
62 6
62 7
62 8
62 9
61 10
60 11
59 12
58 12
57 11
58 10
58 9
57 9
56 8
55 8
55 9
54 10
54 11
54 12
54 13
53 14
52 14
52 15
52 16
52 17
52 18
52 19
52 20
52 21
52 22
51 23
50 23
49 24
48 24
47 24
46 25
45 25
44 25
43 26
42 27
41 28
40 28
39 28
38 29
37 29
36 30
35 30
34 31
33 31
32 32
31 32
30 33
29 33
28 34
27 34
26 35
25 35
24 36
23 37
22 37
21 37
20 38
19 39
18 39
17 40
16 40
15 41
14 41
13 42
12 43
11 43
10 44
9 45
8 45
7 46
6 47
5 48
4 48
3 49
2 50
2 51
2 52
2 53
2 54
2 55
3 55
4 56
4 57
5 57
6 58
7 59
8 60
9 60
10 61
11 62
12 63
13 64
14 64
15 65
16 66
17 67
18 68
19 68
20 69
21 70
22 71
23 71
24 72
25 72
26 73
27 73
28 74
29 74
30 75
31 75
32 75
33 75
34 76
35 76
36 76
37 77
38 77
39 77
40 77
41 77
42 77
43 77
44 77
45 78
46 78
47 79
48 79
49 79
50 80
51 80
52 80
53 80
54 81
55 81
56 81
57 81
58 81
59 81
60 81
61 81
62 82
62 83
63 84
64 85
65 86
65 87
65 88
66 89
66 90
67 91
67 92
68 93
69 94
70 95
70 96
71 97
72 97
73 97
74 97
75 98
76 99
77 100
78 100
79 101
80 102
81 102
82 103
83 103
84 103
85 102
85 101
86 100
86 99
87 98
87 97
87 96
87 95
86 94
86 93
87 92
87 91
87 90
87 89
87 88
87 87
87 86
86 86
85 85
84 85
83 84
82 84
81 84
80 83
81 82
82 81
83 81
84 81
85 81
86 81
87 81
88 81
89 80
90 80
91 80
92 80
93 80
94 80
95 80
96 80
97 80
98 80
99 80
100 80
101 80
102 80
103 80
104 80
105 80
106 80
107 79
108 79
109 79
110 79
111 78
112 78
113 78
114 79
115 79
116 80
117 81
118 82
119 83
120 84
121 84
122 84
123 85
124 85
125 86
125 87
126 88
127 88
128 89
129 90
130 90
131 91
132 91
133 91
134 90
134 89
133 88
132 87
133 86
132 86
131 85
131 84
132 83
133 83
134 84
135 84
136 84
137 84
138 84
139 84
140 84
141 84
142 84
143 84
144 84
145 84
146 83
147 82
147 81
148 80
148 79
148 78
148 77
148 76
148 75
149 74
149 73
150 72
150 71
150 70
150 69
150 68
150 67
150 66
149 66
148 65
148 64
149 63
150 63
151 63
152 63
153 63
154 62
155 62
156 62
157 62
158 62
159 62
160 62
161 62
162 62
163 62
164 62
165 63
166 63
167 63
168 64
169 64
170 65
171 65
172 66
173 66
174 67
175 67
176 68
177 68
178 69
179 69
180 70
181 70
182 71
183 71
184 71
185 72
186 72
187 73
188 73
189 73
190 74
191 74
192 74
193 74
194 74
195 74
196 74
197 74
198 73
198 72
199 71
199 70
198 70
197 69
198 68
198 67
198 66
198 65
197 65
196 64
197 63
197 62
196 62
195 61
196 60
196 59
196 58
195 58
194 57
195 56
194 56
193 55
192 54
193 53
193 52
193 51
193 50
193 49
193 48
193 47
193 46
193 45
193 44
193 43
194 42
194 41
194 40
195 39
195 38
194 38
193 37
194 36
194 35
195 34
195 33
194 33
193 32
194 31
194 30
193 30
192 29
193 28
193 27
193 26
192 26
191 25
190 25
189 25
188 25
187 26
186 26
185 27
184 27
183 28
182 28
181 29
180 30
179 31
178 32
177 32
177 33
176 34
175 34
174 35
173 36
172 37
171 37
170 38
169 39
168 39
167 40
166 40
165 40
164 41
163 41
162 42
161 42
160 43
159 43
158 43
157 43
156 43
155 42
154 41
153 40
152 39
151 39
150 38
149 37
148 36
149 35
149 34
148 33
147 33
146 32
147 31
146 31
145 30
144 30
143 29
144 28
144 27
143 27
142 26
141 26
140 26
139 26
138 26
137 25
136 25
135 24
134 23
133 23
132 23
131 23
130 23
129 23
128 23
127 22
126 22
125 22
124 22
123 22
122 22
121 21
122 20
121 20
120 19
119 19
118 19
117 18
118 17
117 17
116 16
115 16
114 15
114 14
113 14
112 13
111 13
110 14
109 13
109 12
110 11
109 11
108 10
107 10
106 11
105 11
104 11
103 10
102 9
101 8
100 8
99 8
98 9
97 10
96 9
96 8
97 7
96 7
95 6
94 6
93 6
92 7
91 7
90 6
91 5
91 4
92 3
91 3
90 2
89 2
88 3
87 4
86 5
85 6
84 6
83 7
82 7
81 6
82 5
81 5
80 4
79 4
78 5
77 6
76 6
75 7
74 6
74 5
75 4
75 3
74 3
73 2
72 2
71 3
70 4
70 5
70 6
69 7
68 7
67 8
66 8
65 7
66 6
66 5
66 4
67 3
66 3
65 2
