78 2
77 3
76 3
75 3
74 3
73 3
73 4
72 5
71 4
70 4
69 4
68 4
68 5
67 6
66 6
65 7
64 7
63 8
62 8
61 8
60 9
59 9
58 10
57 10
56 11
55 11
54 11
54 12
53 13
52 14
51 14
51 15
50 16
49 17
48 17
47 17
46 17
45 17
44 18
43 18
42 18
41 19
40 19
39 20
38 21
37 21
36 21
35 22
34 22
33 22
32 22
31 23
30 23
29 23
28 23
27 24
26 24
26 25
25 26
24 26
23 26
22 27
21 27
20 27
19 28
18 28
17 27
16 27
15 27
14 28
13 29
13 30
12 31
11 31
10 32
9 33
8 33
7 34
6 35
5 35
4 36
3 37
2 38
2 39
2 40
2 41
3 42
4 43
4 44
4 45
5 46
6 47
7 48
7 49
7 50
8 51
9 51
10 52
11 52
12 53
12 54
13 55
14 55
15 56
16 56
17 57
18 57
19 58
20 58
21 58
22 59
23 59
24 60
25 60
26 60
27 60
28 60
29 60
30 61
31 62
32 62
33 62
34 62
35 62
36 62
37 62
38 62
39 63
39 64
39 65
40 65
41 65
42 65
43 66
44 66
45 67
46 67
47 67
48 67
49 67
50 67
51 67
52 68
52 69
53 69
54 69
55 70
56 70
57 70
58 70
59 71
60 71
61 72
62 73
63 74
63 75
64 76
65 77
65 78
65 79
66 80
67 81
68 82
68 83
69 83
70 83
71 83
72 84
72 85
72 86
73 87
73 88
73 89
73 90
74 91
75 92
76 93
77 93
78 93
79 93
80 94
80 95
81 95
82 95
83 95
84 95
85 95
86 94
86 93
87 92
87 91
86 91
85 90
86 89
86 88
86 87
86 86
86 85
86 84
86 83
86 82
86 81
85 81
84 80
83 80
82 79
83 78
83 77
83 76
83 75
83 74
82 74
81 73
82 72
83 72
84 72
85 72
86 72
87 73
88 73
89 73
90 73
91 73
92 73
93 73
94 73
95 73
96 73
97 73
98 73
99 73
100 73
101 73
102 73
103 73
104 73
105 73
106 73
107 72
108 71
109 71
110 71
111 72
111 73
112 73
113 74
114 75
115 76
115 77
116 77
117 77
118 78
119 78
120 79
121 80
122 80
123 80
124 79
125 79
126 79
127 80
128 80
129 81
130 81
131 81
132 81
133 81
134 81
135 81
136 81
137 81
138 81
139 81
140 80
140 79
141 78
142 78
143 78
144 78
145 77
146 77
147 76
148 76
149 75
150 74
151 74
152 74
153 73
154 72
155 72
156 72
157 71
158 70
159 69
160 69
161 68
162 68
163 67
164 67
165 66
166 66
167 66
168 66
169 66
170 66
171 65
172 64
173 64
174 64
175 64
176 64
177 63
178 63
179 63
180 62
180 61
181 60
182 59
183 59
184 58
185 58
186 58
187 58
188 57
189 56
189 55
190 54
191 54
192 54
193 54
194 54
195 54
196 53
197 53
198 53
199 53
200 53
201 54
202 54
203 54
204 54
205 54
206 54
207 55
208 55
209 55
210 55
211 55
212 55
213 56
214 56
215 56
216 56
217 56
218 57
219 57
220 57
221 57
222 58
223 58
224 58
225 58
226 58
227 58
228 58
229 58
230 58
231 58
232 57
233 56
233 55
234 54
234 53
233 53
232 52
233 51
233 50
233 49
233 48
233 47
232 47
231 46
232 45
232 44
232 43
232 42
232 41
232 40
232 39
232 38
232 37
232 36
232 35
232 34
232 33
232 32
232 31
232 30
232 29
232 28
232 27
232 26
232 25
232 24
232 23
232 22
232 21
231 21
230 20
229 20
228 20
227 19
226 19
225 19
224 19
223 19
222 20
221 20
220 20
219 20
218 21
217 21
216 21
215 21
214 21
213 21
212 22
211 22
210 23
209 23
208 23
207 23
206 24
205 24
204 24
203 25
202 25
201 25
200 26
199 26
198 26
197 26
197 27
196 28
195 28
194 29
193 29
192 30
191 30
190 31
189 31
188 32
187 32
186 32
185 31
184 30
183 29
182 28
181 28
180 27
179 26
178 25
177 25
176 26
175 26
174 26
173 26
172 26
171 26
170 25
169 24
168 24
167 24
166 24
165 24
164 24
163 24
162 24
161 24
160 24
159 24
158 24
157 24
156 24
155 23
154 23
153 23
152 23
151 23
150 23
149 23
148 23
147 23
146 23
145 22
144 21
143 20
142 20
141 20
140 20
139 20
138 20
137 20
136 20
135 20
134 20
133 20
132 20
131 21
130 21
129 20
128 20
127 20
126 20
125 20
124 20
123 20
122 19
121 18
120 18
119 17
120 16
119 16
118 15
117 15
116 15
115 15
114 14
113 14
112 13
111 13
110 13
109 12
108 12
107 12
106 11
105 11
104 11
103 11
102 10
101 10
100 10
99 9
98 8
97 8
96 8
95 8
94 8
93 7
92 7
91 7
90 6
91 5
90 5
89 4
88 3
87 3
86 3
85 3
84 3
83 3
82 3
81 4
80 3
79 2
