93 2
93 3
92 4
91 4
90 5
89 5
88 5
87 5
87 6
86 7
86 8
85 9
84 9
83 10
82 11
81 12
81 13
80 14
80 15
79 16
78 16
77 16
77 17
77 18
76 19
75 19
74 19
73 19
72 19
72 20
71 21
70 21
69 21
68 22
67 22
66 22
65 23
64 24
63 24
62 25
61 25
60 25
59 26
58 26
57 25
56 25
55 25
54 25
53 26
52 26
51 26
50 26
49 27
48 27
47 27
46 27
45 27
44 27
43 28
42 28
41 28
40 28
39 28
38 28
37 28
36 29
35 29
34 29
33 29
32 29
31 30
30 30
29 30
28 30
27 31
26 30
25 30
24 30
23 30
22 30
21 30
20 30
19 30
18 30
17 30
16 31
15 31
14 31
13 32
12 32
11 32
10 33
9 33
8 34
7 35
6 36
5 37
4 38
3 39
2 40
2 41
2 42
2 43
2 44
2 45
3 46
3 47
3 48
4 48
5 49
6 50
7 51
7 52
7 53
8 53
9 54
9 55
10 55
11 55
12 55
13 56
14 56
15 56
16 57
17 57
18 57
19 57
20 57
21 57
22 57
23 58
24 58
25 58
26 59
27 59
28 60
29 60
30 61
31 61
32 62
33 62
34 62
35 63
36 63
37 64
38 64
39 64
40 65
41 65
42 65
43 66
43 67
44 67
45 67
46 66
47 67
48 67
49 68
50 68
51 68
52 68
53 69
54 69
55 69
56 69
57 70
58 71
59 72
60 73
60 74
61 74
62 75
62 76
63 76
64 77
65 78
66 78
67 78
68 77
69 76
70 76
71 77
72 78
73 78
74 78
75 78
76 79
77 80
77 81
77 82
77 83
77 84
77 85
78 86
79 87
79 88
80 89
80 90
81 91
82 92
83 93
84 93
85 94
86 94
87 94
88 94
89 94
90 94
91 94
92 95
93 95
94 95
95 95
96 95
97 95
98 95
99 94
100 94
101 93
102 93
103 93
104 92
105 91
106 91
107 90
108 90
109 90
110 90
111 89
112 88
113 87
114 87
115 86
115 85
114 84
113 84
112 83
111 83
110 83
109 82
108 82
107 81
106 81
105 80
104 79
103 79
102 78
101 78
100 77
99 76
98 75
97 75
96 74
95 74
94 73
95 72
96 72
97 72
98 72
99 72
100 72
101 72
102 72
103 72
104 71
105 71
106 71
107 71
108 71
109 71
110 71
111 71
112 71
113 71
114 71
115 71
116 71
117 71
118 71
119 71
120 71
121 70
122 70
123 69
124 68
125 68
126 68
127 68
128 67
129 67
130 67
131 67
132 66
133 66
134 66
135 66
136 66
137 65
138 65
139 65
140 65
141 64
142 64
143 64
144 64
145 64
146 63
147 63
148 63
149 62
150 62
151 62
152 62
153 62
154 61
155 61
156 61
157 61
158 61
159 60
160 60
161 60
162 60
163 59
164 59
165 59
166 58
167 58
168 58
169 58
170 57
171 57
172 57
173 57
174 56
175 56
176 56
177 55
178 55
179 55
180 54
181 54
182 54
183 54
184 53
185 53
186 53
187 53
188 52
189 52
190 52
191 51
192 51
193 51
194 50
195 50
196 50
197 50
198 49
199 49
200 49
201 49
202 48
203 48
204 48
205 48
206 47
207 47
208 47
209 46
210 46
211 46
212 46
213 46
214 46
215 45
216 45
217 45
218 44
219 44
220 44
221 44
222 44
223 43
224 43
225 43
226 43
227 43
228 42
229 42
230 42
231 42
232 41
233 41
234 41
235 40
236 40
237 40
238 40
239 40
240 41
241 41
242 41
243 41
244 42
245 42
246 42
247 42
248 42
249 42
250 43
251 43
252 43
253 43
254 43
255 43
256 43
257 43
258 43
259 43
260 43
261 43
262 42
263 41
264 40
265 39
265 38
266 37
266 36
266 35
267 34
267 33
267 32
267 31
267 30
267 29
266 29
265 28
264 28
263 28
262 28
261 28
260 29
259 29
258 29
257 29
256 29
255 30
254 30
253 30
252 30
251 30
250 30
249 31
248 31
247 31
246 31
245 31
244 31
243 32
242 32
241 32
240 32
239 32
238 32
237 33
236 33
235 33
234 33
233 33
232 33
231 33
230 33
229 33
228 33
227 33
226 33
225 33
224 33
223 33
222 33
221 32
220 32
219 32
218 32
217 32
216 32
215 32
214 33
213 33
212 33
211 33
210 33
209 33
208 33
207 33
206 33
205 33
204 33
203 33
202 33
201 33
200 33
199 33
198 33
197 33
196 33
195 33
194 33
193 33
192 33
191 33
190 33
189 33
188 34
187 34
186 34
185 34
184 34
183 34
182 34
181 34
180 34
179 34
178 34
177 34
176 34
175 34
174 34
173 34
172 34
171 34
170 34
169 34
168 34
167 34
166 34
165 34
164 34
163 35
162 35
161 35
160 35
159 35
158 35
157 35
156 35
155 35
154 35
153 35
152 35
151 35
150 35
149 35
148 35
147 35
146 35
145 35
144 35
143 34
142 34
141 34
140 34
139 34
138 34
137 34
136 34
135 34
134 34
133 33
132 33
131 33
130 33
129 33
128 33
127 32
126 32
125 32
124 32
123 31
122 31
121 30
120 30
119 30
118 30
117 30
116 29
115 29
114 29
113 29
112 28
111 28
110 28
109 28
108 28
107 27
106 27
105 27
104 27
103 27
102 26
103 25
104 24
105 24
106 24
107 23
108 23
109 23
110 22
111 22
112 22
113 22
114 22
115 21
116 21
117 21
118 21
119 21
120 20
121 19
121 18
120 17
119 17
118 17
117 17
116 16
115 15
114 14
113 13
114 12
113 12
112 11
111 10
110 9
109 9
108 9
107 8
106 7
105 6
104 5
103 5
102 5
101 5
100 5
99 4
98 3
97 2
96 2
95 2
94 2
