266 4
266 5
265 6
264 7
264 8
263 9
263 10
263 11
263 12
263 13
263 14
263 15
263 16
263 17
262 18
262 19
262 20
262 21
262 22
261 23
260 23
259 23
258 23
257 22
256 22
255 22
254 22
253 22
252 22
251 21
250 21
249 21
248 21
247 20
246 20
245 20
244 20
243 20
242 20
241 19
240 19
239 19
238 19
237 19
236 19
235 18
234 18
233 18
232 17
231 17
230 17
229 17
228 17
227 17
226 17
225 17
224 17
223 17
222 17
221 17
220 17
219 16
218 16
217 16
216 16
215 16
214 16
213 15
212 15
211 15
210 15
209 15
208 15
207 15
206 15
205 15
204 15
203 15
202 15
201 15
200 15
199 15
198 15
197 15
196 15
195 15
194 14
193 14
192 14
191 14
190 14
189 14
188 14
187 14
187 15
186 16
185 15
184 15
183 15
182 15
181 14
180 14
179 14
178 14
177 13
176 13
176 14
175 15
174 14
173 14
172 14
171 13
170 13
169 13
168 13
168 14
167 15
166 14
165 14
164 14
163 14
162 14
161 14
161 15
160 16
159 15
158 15
157 15
156 15
155 15
154 15
153 14
152 14
151 14
150 13
149 13
148 12
147 12
146 11
145 11
144 11
143 11
142 11
141 11
140 11
139 11
138 11
137 11
136 11
136 12
135 13
134 14
133 15
132 16
131 17
130 18
129 17
129 18
128 19
127 20
126 19
125 19
124 19
123 19
122 19
121 19
120 19
119 18
118 18
117 18
116 17
115 17
114 17
113 17
112 16
111 15
110 15
109 14
108 13
107 12
106 12
105 11
105 10
104 9
103 9
102 8
102 9
101 10
100 9
99 9
98 9
97 9
96 9
95 9
94 9
93 8
92 8
92 9
91 10
90 9
89 9
88 9
87 9
87 10
86 11
85 10
84 10
84 11
83 12
82 13
81 14
81 15
80 16
80 17
79 18
79 19
79 20
78 21
77 22
76 21
75 21
74 21
73 20
72 20
71 20
70 20
69 20
68 20
67 20
66 20
65 20
64 20
63 19
62 19
61 19
60 19
59 19
58 19
57 19
56 19
55 19
54 19
53 19
52 19
51 19
50 19
49 19
48 19
47 19
46 19
45 19
44 18
44 17
44 16
43 15
42 15
41 16
41 17
41 18
41 19
40 20
39 21
38 20
37 20
37 21
36 22
35 23
34 24
33 23
33 24
32 25
31 26
30 25
30 26
29 27
28 28
27 27
27 28
26 29
25 28
25 29
24 30
23 31
22 32
21 31
21 32
20 33
19 34
18 35
17 34
17 35
16 36
16 37
15 38
14 39
13 40
12 41
11 42
10 41
10 42
9 43
8 42
7 42
6 42
6 43
5 44
4 43
4 44
3 45
2 46
2 47
2 48
2 49
3 50
3 51
3 52
3 53
3 54
4 55
4 56
5 57
5 58
6 59
7 59
8 59
9 59
10 59
11 59
12 59
13 59
14 59
15 59
16 59
16 58
16 57
17 56
18 56
19 56
20 55
21 55
22 54
23 54
24 53
25 53
26 53
27 52
28 52
29 51
30 51
31 50
32 50
33 49
34 49
35 49
36 49
37 49
38 48
39 48
40 48
41 47
42 47
43 46
44 46
45 45
46 45
47 45
48 45
49 45
50 44
51 44
52 44
53 43
54 43
55 43
56 43
57 43
58 43
59 43
60 43
61 42
62 42
63 41
64 41
65 41
66 40
67 40
68 40
69 40
70 39
71 39
72 39
73 40
74 41
74 42
74 43
75 44
75 45
76 46
76 47
76 48
76 49
76 50
77 51
77 52
78 53
79 53
80 53
81 53
82 53
83 53
84 53
85 53
86 53
87 53
88 53
89 53
90 53
91 53
92 52
93 52
94 52
95 52
96 52
97 52
98 52
99 52
100 52
101 52
102 52
103 52
104 52
105 52
106 51
107 51
108 51
109 52
110 52
111 52
112 52
113 52
114 52
115 53
115 54
115 55
116 55
117 55
118 55
119 54
120 54
121 54
122 54
123 53
124 53
125 53
126 52
127 52
128 52
129 52
130 52
131 53
132 53
133 53
134 53
135 53
136 53
137 53
138 53
139 53
140 53
141 53
142 54
143 54
144 54
145 54
146 54
147 54
148 55
149 55
150 56
151 56
152 56
153 56
154 56
155 56
156 57
157 58
158 59
159 59
160 60
161 61
161 62
162 62
163 63
164 64
165 65
166 66
166 67
167 67
168 67
169 67
170 67
171 68
172 68
173 68
174 68
175 69
176 69
177 69
178 69
179 69
180 69
181 70
181 71
182 71
183 71
184 71
185 71
186 71
187 71
188 71
189 71
190 71
191 71
192 71
193 71
194 71
195 71
196 71
197 71
198 71
199 71
200 71
201 70
202 70
203 70
204 70
205 70
206 70
207 69
208 69
209 69
210 69
211 69
212 68
213 68
214 68
215 68
216 68
217 68
218 68
219 68
220 68
221 67
222 67
223 67
224 67
225 67
226 68
226 69
227 69
228 69
229 69
229 68
230 67
231 67
232 66
233 66
234 66
235 66
236 66
237 66
238 66
239 67
240 67
241 67
242 67
243 67
244 67
245 67
246 67
247 67
248 67
249 67
250 67
251 67
252 67
253 67
254 68
255 68
256 68
257 68
258 68
259 68
260 68
261 69
262 69
263 69
264 69
265 70
265 71
265 72
266 73
266 74
266 75
267 76
268 77
268 78
269 79
269 80
270 81
270 82
271 82
272 82
273 82
274 82
275 81
276 81
277 81
278 81
279 80
280 80
281 80
282 80
283 79
284 79
285 79
286 78
287 78
288 77
289 76
290 76
291 75
292 75
292 74
293 73
294 73
295 73
296 73
297 73
298 73
299 73
300 73
301 72
302 72
303 72
304 72
305 72
306 72
307 72
308 73
308 74
308 75
309 75
310 75
311 75
312 75
313 75
313 74
313 73
313 72
314 71
315 71
316 71
317 71
318 71
319 71
320 71
321 71
322 71
323 71
324 70
325 70
326 69
327 68
328 68
329 67
330 67
331 66
332 65
333 65
334 65
335 65
336 65
336 64
337 63
338 62
339 62
340 62
341 61
342 60
343 59
344 59
344 58
345 57
346 56
347 56
348 56
349 56
349 55
349 54
350 53
350 52
351 51
352 51
353 50
354 49
355 49
356 48
357 47
357 46
358 45
359 44
359 43
360 42
361 42
361 41
361 40
361 39
362 38
362 37
362 36
362 35
362 34
361 33
360 32
359 32
358 31
357 30
356 29
355 29
354 28
353 28
352 28
351 28
350 28
349 28
348 27
347 27
346 27
345 26
344 26
343 25
342 25
341 25
340 24
339 24
338 24
337 24
336 24
335 24
334 23
333 23
332 23
331 23
331 24
330 25
329 24
328 24
327 24
326 24
325 24
324 24
323 24
322 24
321 24
320 24
319 24
318 24
317 23
316 23
316 24
315 25
314 24
313 24
312 24
311 23
310 23
309 23
308 23
307 23
306 23
305 23
304 23
303 23
302 23
302 24
301 25
300 24
299 24
298 23
298 22
297 21
296 21
295 22
294 21
293 20
293 19
293 18
292 17
291 17
290 16
289 15
288 14
287 13
286 12
285 12
284 11
284 10
283 9
282 9
281 8
280 8
279 7
278 6
277 6
276 5
275 5
274 5
273 5
272 5
271 4
270 4
269 4
268 4
267 4
