121 4
121 5
120 6
120 7
119 8
119 9
118 10
118 11
117 12
116 13
115 14
114 13
113 13
112 13
111 13
110 12
109 11
108 11
107 10
106 10
105 9
104 9
103 8
102 8
101 8
100 8
99 8
98 8
97 8
96 7
95 7
94 7
93 7
93 8
92 9
91 10
90 10
89 10
88 9
87 9
86 9
85 9
85 10
84 11
83 12
82 13
81 14
80 15
79 14
78 14
78 15
77 16
76 17
75 18
75 19
74 20
73 21
73 22
72 23
71 23
70 23
69 22
68 22
68 23
67 24
67 25
66 26
66 27
66 28
67 29
66 30
65 30
64 29
63 29
62 29
61 29
60 29
59 29
58 29
57 29
56 29
55 29
54 29
53 29
52 29
51 29
50 29
49 29
48 29
48 30
47 31
46 30
45 30
44 30
43 30
42 30
41 30
40 30
39 30
38 30
37 30
36 29
35 29
34 29
33 29
32 28
31 28
30 28
29 28
28 28
27 28
26 28
25 28
24 28
23 28
22 28
21 28
20 28
19 28
18 28
17 28
16 28
16 29
15 30
14 29
14 30
13 31
12 30
12 31
11 32
10 33
9 32
9 33
8 34
7 35
6 36
5 37
5 38
4 39
4 40
3 41
2 42
2 43
2 44
2 45
2 46
2 47
3 48
3 49
3 50
4 51
4 52
4 53
4 54
4 55
5 56
5 57
5 58
6 59
6 60
7 60
8 61
9 62
9 63
10 64
11 65
12 66
12 67
13 67
14 68
15 69
16 70
17 70
18 70
19 70
20 70
21 71
22 71
23 72
24 73
25 73
26 73
27 73
28 73
29 73
30 73
31 74
31 75
32 75
33 75
34 76
35 77
36 78
36 79
37 79
38 80
38 81
39 81
40 81
41 81
42 81
43 81
44 82
44 83
45 83
46 83
47 83
48 83
49 84
49 85
49 86
50 86
51 86
52 86
53 87
54 87
55 87
56 87
57 88
58 88
59 88
60 88
61 89
62 90
62 91
63 91
64 91
65 91
66 91
67 92
67 93
67 94
66 95
65 96
65 97
65 98
65 99
65 100
65 101
65 102
65 103
65 104
66 105
67 105
68 105
69 105
70 106
71 107
71 108
72 109
73 110
73 111
73 112
74 113
74 114
74 115
74 116
75 116
76 116
77 115
78 116
79 116
80 117
80 118
80 119
80 120
81 120
82 120
83 120
84 120
85 120
86 119
87 119
88 119
89 119
90 119
91 120
91 121
92 121
93 121
94 121
95 121
96 121
97 121
98 121
99 121
100 121
101 121
102 121
103 121
104 121
105 120
106 119
107 118
108 118
109 118
110 118
111 117
112 116
112 115
113 114
114 115
115 116
115 117
115 118
116 118
117 119
118 119
119 120
120 121
120 122
121 122
122 123
123 123
124 124
125 124
126 125
127 125
128 125
129 125
130 125
131 125
132 125
133 125
134 124
135 124
136 124
137 123
138 122
139 121
140 121
141 120
141 119
142 118
143 117
144 116
145 115
146 115
147 115
148 114
148 113
149 112
150 111
151 111
152 110
153 109
154 109
155 108
156 108
157 108
158 107
159 107
160 107
161 106
162 106
163 106
164 105
164 104
163 103
162 103
161 102
160 102
159 102
158 102
157 102
156 102
155 102
154 102
153 101
152 101
151 101
150 101
149 101
148 101
147 100
146 100
145 100
144 100
143 99
142 99
141 98
140 98
139 97
138 97
137 97
137 98
136 99
135 98
134 97
133 97
132 97
131 97
130 96
131 95
132 94
133 94
134 94
135 94
136 94
137 94
138 93
139 93
140 93
141 93
142 93
143 93
144 92
145 92
146 92
147 91
148 91
149 91
150 90
151 90
152 90
153 90
154 90
155 90
156 90
157 89
157 88
158 87
159 87
160 87
161 87
162 87
163 87
164 87
165 87
166 86
167 86
168 85
169 85
170 84
170 83
170 82
171 81
172 81
173 80
174 80
175 80
176 79
177 78
178 78
179 78
180 77
181 77
182 76
183 76
184 75
185 74
186 74
187 74
188 73
189 73
190 72
191 72
192 71
193 71
194 71
195 70
196 70
197 69
198 69
199 68
200 68
201 68
202 67
203 67
204 66
205 66
206 66
207 66
208 65
209 65
210 65
211 64
212 64
213 64
214 63
215 63
216 63
217 62
218 62
219 62
220 62
221 62
222 62
223 61
224 61
225 61
226 61
227 61
228 60
229 60
230 60
231 60
232 60
233 59
234 58
235 58
236 59
237 59
238 59
239 59
240 59
241 59
242 59
243 59
244 59
245 58
246 58
247 58
248 58
249 58
250 57
251 57
252 57
253 57
254 57
255 57
256 57
257 57
258 56
259 56
260 56
261 56
262 56
263 56
264 56
265 55
266 55
267 55
268 55
269 55
270 55
271 55
272 54
273 54
274 54
275 54
276 54
277 54
278 54
279 54
280 53
281 53
282 53
283 53
284 52
285 52
286 52
287 52
288 51
289 51
290 51
291 51
292 51
293 51
294 50
295 50
296 50
297 50
298 50
299 50
300 49
301 48
300 47
299 46
298 45
297 45
296 44
295 44
294 44
293 44
292 44
291 44
290 44
289 44
288 44
288 45
287 46
286 45
285 45
284 45
283 45
282 45
281 45
280 45
279 45
278 45
277 44
276 44
275 44
274 44
273 44
272 44
272 45
271 46
270 47
269 46
268 46
267 46
266 45
265 45
264 45
263 45
262 45
261 45
260 45
259 45
258 45
257 45
256 45
255 45
254 44
253 44
252 44
251 44
250 44
249 43
248 43
247 43
246 43
245 42
244 42
243 42
242 41
241 41
240 41
239 41
238 40
237 40
236 40
235 39
234 39
233 39
232 38
231 38
230 37
229 37
228 37
227 37
226 37
225 37
224 36
223 36
222 36
221 36
220 35
219 35
218 35
217 35
216 35
215 35
214 34
213 34
212 34
211 34
210 34
209 34
208 34
207 33
206 33
205 33
204 33
203 33
202 33
201 33
200 33
199 33
198 33
197 33
196 33
195 33
194 33
193 33
192 33
191 33
190 32
189 32
189 33
188 34
187 33
186 33
185 33
184 33
183 33
182 33
181 33
180 33
179 33
178 33
177 32
176 32
176 33
175 34
174 33
173 33
172 34
171 34
170 33
169 33
168 33
167 33
166 33
165 33
164 33
163 33
162 33
161 33
160 33
159 33
159 34
158 35
157 34
156 34
155 34
154 34
153 34
152 34
151 34
150 34
149 34
148 34
147 34
146 34
145 33
144 33
143 34
142 34
141 35
140 34
139 34
138 34
137 33
136 33
135 33
134 33
133 33
132 33
131 33
130 32
131 31
132 31
133 31
134 31
135 30
136 30
137 30
138 29
139 29
140 29
141 29
142 28
143 28
144 28
145 27
146 27
147 28
148 28
149 28
150 28
151 27
152 27
153 27
154 27
155 27
156 27
157 27
158 27
159 27
160 26
161 26
162 26
163 26
164 26
165 25
165 24
164 23
163 23
162 22
161 22
160 22
159 21
160 20
161 19
162 19
162 18
161 17
160 16
159 16
158 15
157 15
156 15
155 15
154 15
153 15
152 15
151 15
150 15
149 14
148 13
147 13
146 12
145 12
144 11
143 10
142 9
141 8
140 8
139 7
138 7
137 6
136 6
135 5
134 5
133 5
132 5
131 5
130 4
129 4
128 4
127 4
126 4
125 4
124 4
123 4
122 4
