122 4
122 5
121 6
120 7
119 8
118 9
117 8
116 8
116 9
115 10
114 11
113 10
112 10
111 9
110 9
110 10
109 11
108 12
107 11
106 11
105 11
104 11
104 12
103 13
102 12
101 12
101 13
100 14
99 13
98 13
98 14
97 15
96 14
96 15
95 16
94 15
93 15
93 16
92 17
91 16
90 16
89 16
88 16
87 16
87 17
86 18
85 17
84 17
84 18
83 19
82 18
81 17
80 17
79 16
78 16
77 16
76 16
76 17
75 18
74 19
73 18
72 18
71 17
71 18
70 19
69 18
68 17
67 17
66 16
65 16
65 17
64 18
64 19
63 20
62 19
61 19
61 20
60 21
59 20
58 20
57 20
56 20
55 20
54 20
54 21
53 22
52 21
51 22
50 22
49 21
48 21
47 21
46 21
46 22
45 23
45 24
44 25
43 24
43 25
42 26
41 27
40 26
39 26
39 27
38 28
37 27
36 27
35 27
35 28
34 29
33 28
32 28
32 29
31 30
30 31
29 30
28 30
28 31
27 32
27 33
26 34
25 33
24 33
23 33
22 33
21 33
20 33
20 34
19 35
18 34
17 34
17 35
16 36
15 37
14 38
13 39
12 38
11 38
11 39
10 40
9 41
8 40
8 41
7 42
7 43
6 44
5 45
5 46
4 47
4 48
3 49
3 50
3 51
3 52
3 53
3 54
2 55
2 56
3 57
3 58
4 59
4 60
4 61
5 61
6 61
7 61
8 61
9 62
8 63
7 64
7 65
8 65
9 66
10 67
10 68
11 68
12 68
13 68
14 68
15 68
16 68
17 68
18 68
19 69
19 70
19 71
19 72
20 72
21 72
22 72
23 73
24 74
25 74
26 74
27 74
28 74
29 74
30 75
30 76
30 77
31 77
32 77
33 78
33 79
34 79
35 80
36 80
37 81
38 82
39 82
40 82
41 83
42 83
43 84
44 84
45 84
46 84
47 84
48 84
49 84
50 85
50 86
51 86
52 86
53 87
53 88
54 88
55 88
56 89
57 90
57 91
58 91
59 91
60 91
60 90
61 89
62 89
63 90
64 90
65 90
66 90
67 90
68 90
69 90
70 90
71 90
72 90
73 90
74 90
75 90
76 90
77 90
78 90
79 90
80 90
81 91
82 91
83 91
84 92
85 92
86 92
87 92
88 92
89 93
90 93
91 93
92 93
93 94
93 95
94 95
95 95
96 95
97 96
98 96
99 96
100 97
101 97
102 97
103 97
104 98
105 98
106 98
107 98
108 99
109 99
110 99
111 100
112 100
113 101
114 101
115 102
116 102
117 103
118 104
119 105
119 106
120 106
121 106
122 106
123 106
124 106
125 106
126 106
127 107
128 107
129 107
130 107
131 107
132 107
133 107
134 107
135 107
136 107
137 108
138 108
139 108
140 108
140 107
139 106
138 105
137 105
136 104
135 104
134 104
133 103
132 103
131 103
130 102
129 101
128 100
127 99
126 99
125 98
124 97
123 96
122 96
121 95
120 95
119 94
118 93
117 93
116 92
116 91
115 90
114 90
113 91
112 91
111 91
110 90
109 90
108 89
107 89
106 88
105 87
104 87
103 86
102 86
101 85
100 85
99 84
98 84
97 83
98 82
99 82
100 81
100 80
100 79
101 78
102 78
103 77
104 77
105 77
106 77
107 77
108 77
108 76
109 75
110 74
111 74
112 73
113 73
114 73
115 73
116 73
117 73
118 73
119 73
120 73
121 72
122 72
123 72
124 72
125 72
126 72
127 72
128 72
129 72
130 71
131 71
132 72
133 72
134 72
135 72
136 71
137 71
138 71
139 71
140 71
141 70
142 70
143 70
144 70
145 70
146 70
147 70
148 70
149 70
150 70
151 70
152 69
153 69
154 69
155 69
156 69
157 69
158 69
159 69
160 68
161 68
162 68
163 68
164 68
165 68
166 68
167 68
168 68
169 68
170 68
171 68
172 68
173 68
174 68
175 67
176 67
177 67
178 67
179 67
180 67
181 67
182 67
183 66
184 66
185 66
186 66
187 66
188 66
189 66
190 66
191 66
192 66
193 66
194 66
195 65
196 65
197 65
198 66
199 66
200 66
201 66
202 65
203 65
204 65
205 65
206 65
207 64
208 64
209 64
210 64
211 64
212 64
213 64
214 63
215 63
216 63
217 63
218 63
219 64
220 64
221 64
222 64
223 63
224 63
225 63
226 63
227 63
228 63
229 63
230 63
231 63
232 63
233 63
234 63
235 63
236 63
237 62
238 63
239 63
240 63
241 63
242 63
243 63
244 63
245 63
246 62
247 62
248 63
249 63
250 63
251 63
252 63
253 63
254 63
255 63
256 63
257 62
258 63
259 63
260 63
261 63
262 63
263 63
264 63
265 63
266 63
267 63
268 64
269 64
270 64
271 64
272 63
273 62
274 62
275 62
276 62
277 62
278 62
279 62
280 62
281 61
282 61
283 61
284 61
285 61
286 61
287 61
288 61
289 61
290 61
291 61
292 61
293 61
294 61
295 61
296 61
297 61
298 61
299 61
300 61
301 61
302 61
303 61
304 61
305 61
306 61
307 61
308 61
309 61
310 62
311 62
312 63
313 63
314 63
315 63
315 62
315 61
314 60
313 59
312 58
311 58
310 57
309 57
308 56
307 56
306 56
305 56
304 56
303 55
302 55
301 55
300 55
299 55
298 55
297 55
296 55
295 55
294 55
293 54
292 54
291 54
290 54
289 54
288 54
287 54
286 54
285 54
284 54
283 53
282 53
281 53
280 52
279 52
278 51
277 51
276 50
275 50
274 49
273 49
273 50
272 51
271 50
270 50
269 49
268 48
267 48
266 49
265 50
264 49
263 49
262 48
261 48
260 48
259 48
258 48
257 48
256 47
255 47
254 47
253 47
252 46
251 46
250 45
249 45
248 45
247 45
246 45
245 45
244 45
243 45
242 45
241 44
240 44
239 43
238 43
237 43
236 43
235 43
234 43
233 42
232 41
231 41
230 40
229 40
228 40
228 41
227 42
226 43
225 42
224 42
223 42
222 42
221 41
220 40
219 40
218 39
217 39
216 39
215 39
214 39
213 38
212 38
211 37
210 37
210 38
209 39
209 40
208 41
207 40
206 39
205 39
204 38
203 37
202 37
201 36
200 36
199 36
199 37
198 38
197 39
196 38
195 38
194 37
193 36
192 36
191 35
190 35
189 35
189 36
188 37
187 36
186 36
185 36
184 35
183 35
182 34
181 34
180 34
180 35
179 36
178 37
177 36
176 36
175 35
174 35
173 35
172 35
171 35
170 34
169 34
168 34
167 34
166 34
165 34
164 34
163 34
162 34
161 34
160 34
159 34
158 34
157 34
156 34
155 34
154 34
153 33
152 33
152 34
151 35
150 34
149 34
148 33
147 33
147 34
146 35
145 34
144 34
143 34
142 34
141 34
140 34
139 34
138 34
137 34
136 34
135 34
134 34
133 34
132 34
131 34
130 34
129 34
128 34
127 34
126 35
125 35
124 34
123 34
122 34
121 34
120 34
119 34
118 34
117 34
116 34
115 34
114 34
113 34
112 34
111 33
110 33
109 33
108 33
107 32
106 32
105 32
104 31
103 31
102 30
101 30
100 30
99 30
98 30
97 30
96 30
95 30
94 30
94 31
93 32
92 31
92 30
92 29
92 28
93 27
94 26
95 25
96 25
97 24
98 24
98 23
99 22
100 22
101 22
102 21
103 21
104 21
105 20
106 19
107 19
108 18
109 18
110 17
111 17
112 17
113 16
114 16
115 16
116 17
117 17
118 17
118 16
118 15
119 14
120 13
121 13
122 13
123 13
124 13
125 12
126 12
127 12
128 12
129 12
130 12
131 13
132 14
133 15
133 16
134 17
135 17
136 17
137 17
137 16
137 15
137 14
137 13
136 12
135 11
134 10
133 10
132 9
131 9
130 8
129 8
128 7
128 6
127 5
126 5
125 4
124 4
123 4
