168 2
167 3
166 3
165 3
164 3
163 3
162 3
161 3
160 3
159 3
158 3
157 4
156 4
155 4
154 4
154 5
153 6
152 7
151 7
150 8
149 8
148 9
147 10
146 9
145 9
144 9
143 8
142 8
141 8
140 8
139 8
139 9
138 10
137 10
136 10
136 11
136 12
136 13
136 14
137 15
138 16
138 17
139 17
140 18
140 19
140 20
140 21
140 22
140 23
140 24
140 25
141 26
142 27
143 28
143 29
143 30
143 31
143 32
143 33
143 34
144 34
145 35
144 36
143 36
142 37
141 37
140 37
139 38
138 38
137 38
136 39
135 39
134 40
133 40
132 40
131 41
130 41
129 41
128 41
127 42
126 42
125 42
124 42
123 43
122 43
121 43
120 44
119 44
118 44
117 44
116 45
115 45
114 45
113 45
112 46
111 46
110 47
109 47
108 47
107 47
106 47
105 48
104 48
103 48
102 49
101 49
100 49
99 49
98 49
97 49
96 50
95 50
94 50
93 50
92 51
91 51
90 51
89 51
88 52
87 52
86 52
85 53
84 53
83 53
82 53
81 53
80 53
79 54
78 54
77 54
76 54
75 54
74 54
73 55
72 55
71 55
70 55
69 56
68 56
67 56
66 56
65 57
64 57
63 57
62 58
61 58
60 58
59 58
58 58
57 59
56 59
55 59
54 59
53 60
52 60
51 60
50 61
49 61
48 61
47 61
46 61
45 61
44 62
43 62
42 62
41 62
40 62
39 62
38 62
37 62
36 62
35 62
34 62
33 62
32 62
31 62
30 61
29 61
28 61
27 61
26 61
25 61
24 61
23 61
22 61
21 61
20 61
19 61
18 60
17 60
16 60
15 60
14 60
13 60
12 60
11 60
10 60
9 60
8 60
7 61
6 61
5 61
5 62
5 63
5 64
4 65
3 65
2 66
2 67
2 68
2 69
2 70
3 70
4 70
5 70
6 70
7 71
8 72
9 73
10 73
11 73
12 73
13 74
14 74
15 74
16 74
17 74
18 73
19 73
20 73
21 73
22 73
23 73
24 73
25 72
26 72
27 72
28 72
29 71
30 71
31 71
32 71
33 70
34 70
35 70
36 70
37 70
38 70
39 70
40 70
41 70
42 70
43 70
44 70
45 71
46 71
47 71
48 71
49 71
50 71
51 72
52 72
53 72
54 72
55 72
56 72
57 73
58 73
59 73
60 73
61 73
62 74
63 74
64 74
65 74
66 75
67 75
68 75
69 76
70 76
71 76
72 76
73 77
74 77
75 77
76 77
77 77
78 78
79 78
80 78
81 78
82 78
83 79
84 79
85 79
86 79
87 79
88 79
89 79
90 80
91 80
92 80
93 80
94 80
95 80
96 81
97 81
98 81
99 81
100 81
101 81
102 82
103 82
104 82
105 82
106 83
107 83
108 83
109 83
110 84
111 84
112 84
113 85
114 85
115 85
116 85
117 86
118 86
119 86
120 86
121 87
122 87
123 88
124 88
125 88
126 88
127 89
128 89
129 89
130 89
131 90
132 90
133 90
134 91
135 91
136 92
137 92
138 92
139 92
140 93
141 93
142 93
143 94
142 95
141 96
140 97
140 98
140 99
140 100
140 101
140 102
140 103
139 104
139 105
138 106
138 107
137 108
136 109
136 110
136 111
136 112
136 113
136 114
136 115
136 116
136 117
136 118
137 118
138 118
139 119
140 120
140 121
141 121
142 122
143 122
144 122
145 123
146 123
147 123
148 123
149 124
150 125
151 125
152 125
153 126
154 126
155 126
156 126
157 126
158 126
159 125
160 126
160 127
161 127
162 128
163 128
164 128
165 128
166 128
167 127
168 127
169 127
170 127
171 126
172 127
173 127
174 127
175 127
176 126
177 125
178 126
179 126
180 126
181 127
182 127
183 127
184 126
184 125
185 124
186 123
187 123
188 123
189 124
190 124
191 124
192 123
192 122
193 121
194 121
195 121
196 121
197 120
198 119
199 118
200 117
201 116
202 115
202 114
203 113
203 112
203 111
203 110
203 109
203 108
203 107
204 106
205 106
206 105
207 105
208 105
209 105
210 104
211 104
212 104
213 104
214 104
215 103
216 103
217 103
218 103
219 102
220 102
221 102
222 102
223 101
224 101
225 101
226 101
227 100
228 100
229 100
230 99
231 98
232 98
233 98
234 97
235 97
236 97
237 96
238 96
239 95
240 95
241 95
242 94
243 94
244 93
245 93
246 92
247 92
248 92
249 91
250 91
251 91
252 90
253 89
254 89
255 88
256 87
257 86
258 86
259 85
260 85
261 85
262 84
263 83
264 83
265 82
266 81
267 80
268 79
268 78
269 77
269 76
270 75
270 74
270 73
271 72
271 71
271 70
271 69
272 68
271 68
270 67
269 66
270 65
270 64
270 63
270 62
270 61
270 60
269 60
268 59
267 58
266 57
267 56
267 55
267 54
266 54
265 53
264 52
263 51
262 51
261 51
260 51
259 51
258 52
257 52
256 51
255 50
256 49
256 48
256 47
255 47
254 46
253 46
252 46
251 46
250 45
249 45
248 44
247 44
246 43
245 42
244 41
243 41
242 40
241 40
240 39
239 39
238 38
237 38
236 37
235 37
234 36
233 36
232 35
231 35
230 34
229 33
228 33
227 32
226 32
225 32
224 32
223 32
222 31
221 31
220 31
219 31
218 30
217 30
216 30
215 30
214 30
213 29
212 29
211 28
210 28
209 27
208 27
207 27
206 26
205 25
206 24
206 23
206 22
206 21
206 20
206 19
206 18
206 17
206 16
207 15
207 14
207 13
206 13
205 12
204 12
203 12
202 11
201 10
200 9
199 8
198 8
197 8
196 8
195 8
194 7
193 6
192 5
191 5
190 4
189 4
188 4
187 4
186 4
185 4
184 4
183 4
182 4
181 3
180 3
179 3
178 3
177 3
176 3
175 2
174 2
173 2
172 2
171 2
170 2
169 2
