124 2
123 3
122 3
121 3
121 4
120 5
119 5
118 5
117 5
116 5
115 5
115 6
115 7
114 8
113 8
113 9
113 10
113 11
112 12
111 12
110 13
110 14
110 15
109 16
108 16
107 16
107 17
106 18
105 19
105 20
105 21
105 22
104 23
103 24
102 24
102 25
101 26
100 26
99 26
98 26
97 27
96 27
96 28
95 29
94 29
93 29
92 30
91 30
90 31
89 31
88 31
87 31
86 32
85 32
84 32
83 32
82 32
81 31
80 31
79 31
78 31
77 31
76 32
76 33
76 34
75 35
74 35
73 35
72 35
71 35
70 35
69 35
68 36
67 36
66 36
65 36
64 36
63 36
62 36
61 37
60 36
59 36
58 36
57 36
56 36
55 36
54 35
53 35
52 35
51 35
50 35
49 35
48 34
47 34
46 34
45 33
44 33
43 33
42 32
41 32
40 32
39 32
38 31
37 31
36 31
35 30
34 30
33 30
32 30
31 29
30 29
29 28
28 28
27 28
26 28
25 27
24 27
23 27
22 27
21 26
20 26
19 26
18 26
17 26
16 25
15 25
14 25
13 25
12 25
11 25
10 25
9 25
8 24
7 24
6 24
5 25
4 25
4 26
4 27
4 28
4 29
5 30
5 31
5 32
5 33
5 34
5 35
5 36
5 37
4 38
4 39
4 40
4 41
4 42
3 43
2 43
2 44
2 45
2 46
3 47
4 48
4 49
4 50
5 51
5 52
5 53
6 54
6 55
5 56
4 56
4 57
4 58
4 59
4 60
5 60
6 60
7 61
7 62
6 63
5 63
5 64
5 65
5 66
5 67
5 68
5 69
6 70
7 71
7 72
7 73
7 74
7 75
7 76
7 77
7 78
7 79
7 80
7 81
8 81
9 81
10 81
11 81
12 81
13 81
14 81
15 81
16 81
17 81
18 81
19 80
20 80
21 80
22 80
23 80
24 79
25 79
26 78
27 78
28 78
29 77
30 77
31 77
32 76
33 76
34 75
35 75
36 74
37 74
38 73
39 73
40 73
41 72
42 71
43 71
44 70
45 70
46 70
47 69
48 69
49 68
50 68
51 68
52 67
53 67
54 67
55 66
56 66
57 66
58 65
59 65
60 64
61 64
62 64
63 63
64 63
65 63
66 63
67 63
68 63
69 62
70 63
71 64
70 65
69 66
68 67
67 68
66 68
65 68
64 68
63 69
63 70
63 71
63 72
63 73
64 73
65 73
66 73
67 73
68 74
68 75
68 76
69 76
70 76
71 76
72 76
73 76
74 75
75 75
76 75
77 75
78 76
79 76
80 76
81 76
82 76
83 76
84 75
85 75
86 75
87 76
87 77
87 78
88 78
89 78
90 78
91 77
92 77
93 78
93 79
94 79
95 79
96 79
97 79
98 79
99 79
100 79
101 79
102 79
103 79
104 79
105 79
106 79
107 79
108 80
109 80
110 80
111 80
112 80
113 80
114 79
115 80
115 81
116 81
117 81
118 81
119 81
120 81
121 80
122 80
123 80
124 81
125 81
126 81
127 81
128 81
129 82
130 82
131 82
132 81
133 81
134 81
135 81
136 81
137 81
138 81
139 81
140 81
141 81
142 80
143 81
144 81
145 81
146 80
147 80
148 80
149 79
150 79
151 79
152 79
153 79
154 79
155 78
156 78
157 77
158 76
159 76
160 76
161 77
160 78
160 79
159 80
158 81
157 82
156 83
155 83
155 84
155 85
155 86
155 87
156 87
157 88
158 88
159 88
160 87
161 88
162 88
163 88
164 88
165 88
166 88
167 87
168 87
169 87
170 88
171 88
172 88
173 88
174 88
175 88
176 88
177 87
178 87
179 87
180 87
181 87
182 87
183 86
184 86
185 86
186 86
187 86
188 85
189 85
190 85
191 86
191 87
192 87
193 87
194 87
195 86
196 85
197 85
198 85
199 85
200 84
201 84
202 84
203 84
204 84
205 84
206 84
207 85
208 85
209 85
210 85
211 85
212 85
213 85
214 86
215 86
216 86
217 86
218 86
219 87
220 87
221 87
222 87
223 87
224 88
225 88
226 89
227 89
228 89
229 89
230 88
230 87
231 86
232 86
233 86
234 86
235 87
235 88
236 89
237 89
238 89
239 88
240 87
240 86
241 85
242 84
243 83
244 83
245 82
245 81
246 80
246 79
247 78
248 78
249 77
250 77
251 77
252 77
253 77
254 76
255 75
256 75
257 75
258 75
259 74
260 73
261 72
261 71
262 70
263 70
264 69
265 68
266 67
267 66
267 65
268 64
269 63
270 62
270 61
271 60
271 59
272 58
273 57
274 56
275 55
276 54
276 53
277 52
277 51
278 50
278 49
279 48
279 47
279 46
280 45
280 44
281 43
281 42
281 41
280 41
279 40
280 39
279 39
278 38
277 37
276 37
275 37
274 37
273 37
272 36
273 35
272 35
271 34
270 33
271 32
271 31
270 31
269 30
268 29
267 29
266 28
265 27
264 27
263 27
262 26
263 25
262 25
261 24
260 24
259 23
258 23
257 23
256 23
255 23
254 23
253 24
252 24
251 24
250 24
249 23
248 23
247 23
246 23
245 23
244 23
243 23
242 24
241 24
240 24
239 23
240 22
239 22
238 21
237 21
236 21
235 20
234 20
233 20
232 19
231 19
230 19
229 19
228 18
227 18
226 18
225 18
224 17
223 17
222 16
221 16
220 16
219 17
218 17
217 17
216 17
215 16
214 16
213 16
212 16
211 16
210 16
209 17
208 16
207 16
206 16
205 16
204 16
203 15
202 15
201 15
200 15
199 15
198 15
197 15
196 15
195 14
194 14
193 14
192 14
191 14
190 13
191 12
190 12
189 11
190 10
189 10
188 9
187 8
186 7
185 7
184 6
183 6
182 5
183 4
182 4
181 3
180 3
179 3
178 3
177 3
176 3
175 3
174 4
173 4
172 4
171 4
170 4
170 5
169 6
168 6
167 6
166 6
165 6
165 7
165 8
164 9
164 10
164 11
163 12
162 12
161 13
161 14
161 15
160 16
159 16
158 16
157 15
156 14
155 13
154 13
153 12
152 11
151 10
150 9
149 9
148 8
147 8
146 8
145 8
144 7
143 7
142 6
141 5
140 4
139 4
138 4
137 4
136 4
135 4
134 4
133 3
132 2
131 2
130 2
129 2
128 2
127 2
126 2
125 2
