71 4
70 5
69 6
68 7
67 7
66 7
66 8
65 9
65 10
64 11
64 12
64 13
64 14
65 15
64 16
64 17
64 18
64 19
64 20
63 21
62 20
61 19
60 18
59 17
58 17
57 16
56 15
55 15
54 15
53 15
53 16
53 17
53 18
53 19
53 20
54 20
55 20
56 21
56 22
57 22
58 22
59 23
60 24
61 25
62 26
62 27
62 28
62 29
62 30
61 31
61 32
61 33
61 34
60 35
59 35
58 34
57 34
56 34
55 34
54 34
53 34
52 34
51 34
50 34
49 34
48 34
47 34
46 34
45 34
44 34
43 34
42 34
41 34
40 34
39 34
38 34
37 35
36 35
35 35
34 35
33 35
32 35
31 35
30 35
29 36
28 37
27 37
26 37
25 37
24 37
23 37
22 37
21 37
20 37
19 37
18 38
17 39
16 40
15 41
14 41
13 41
12 42
11 42
10 43
9 43
8 43
7 43
7 44
6 45
6 46
5 47
4 47
3 48
2 49
2 50
2 51
2 52
2 53
3 54
3 55
4 56
5 56
6 57
6 58
7 58
8 59
8 60
9 60
10 61
11 61
12 62
12 63
12 64
13 64
14 65
15 66
16 67
17 67
18 67
19 67
20 67
21 67
22 66
23 66
24 67
25 68
25 69
26 70
27 71
28 71
29 71
30 71
31 71
32 72
33 72
34 73
34 74
35 74
36 74
37 74
38 74
39 74
40 74
41 73
42 73
43 73
44 73
45 73
46 73
47 73
48 74
49 75
50 75
51 75
52 75
53 75
54 75
55 75
56 76
55 77
54 77
54 78
54 79
53 80
52 80
51 80
50 81
50 82
50 83
50 84
50 85
49 86
49 87
49 88
49 89
48 90
48 91
47 92
47 93
47 94
46 95
46 96
46 97
46 98
47 98
48 98
49 98
50 98
51 97
51 96
52 95
52 94
53 93
54 94
55 95
55 96
55 97
55 98
55 99
55 100
55 101
55 102
55 103
55 104
55 105
55 106
55 107
55 108
56 108
57 108
58 108
59 108
60 107
61 108
62 108
63 108
64 108
65 108
66 108
67 108
67 107
68 106
68 105
68 104
68 103
67 103
66 102
67 101
67 100
68 99
68 98
68 97
68 96
68 95
68 94
68 93
68 92
69 91
70 92
70 93
70 94
71 95
71 96
72 96
73 97
73 98
73 99
74 100
75 100
76 100
77 99
77 98
76 97
77 96
77 95
78 94
79 93
80 93
81 93
82 94
82 95
82 96
82 97
82 98
83 98
84 98
85 98
86 97
86 96
87 95
88 94
89 93
89 92
90 91
90 90
90 89
90 88
91 87
91 86
90 86
89 85
88 84
89 83
90 82
91 81
91 80
92 79
92 78
92 77
92 76
93 75
94 75
95 74
95 73
96 72
97 71
98 71
99 71
100 71
101 70
102 70
103 70
104 70
105 70
106 70
107 70
108 69
109 69
110 68
111 68
112 68
113 68
114 68
115 67
116 67
117 67
118 67
119 67
120 66
121 66
122 66
123 66
124 66
125 66
126 66
127 66
128 66
129 65
130 65
131 65
132 65
133 65
134 65
135 64
136 63
137 63
138 63
139 63
140 62
141 62
142 62
143 61
144 61
145 61
146 60
147 60
148 60
149 60
150 60
151 59
152 58
153 58
154 58
155 57
156 56
157 56
158 56
159 56
160 56
161 55
162 55
163 54
164 53
165 53
166 53
167 53
168 53
169 53
170 53
171 53
172 53
173 53
174 54
175 54
176 54
177 55
178 55
179 55
180 55
181 55
182 56
183 56
184 56
185 56
186 57
187 57
188 57
189 57
190 57
191 57
192 57
193 57
194 57
195 56
196 55
197 54
197 53
198 52
199 51
200 51
201 50
201 49
202 48
202 47
202 46
201 46
200 45
199 44
199 43
200 42
200 41
199 41
198 40
197 40
196 41
195 41
194 41
193 40
192 39
191 39
191 40
190 41
189 41
188 41
187 40
186 40
185 40
184 40
183 40
182 40
181 40
180 40
179 40
178 40
177 41
176 41
175 41
174 41
173 41
172 41
171 41
170 41
169 41
168 41
167 41
166 40
165 40
164 40
163 40
162 40
161 41
160 41
159 41
158 41
157 41
156 41
155 40
154 40
153 40
152 40
151 40
150 41
149 41
148 41
147 41
146 41
145 41
144 41
143 41
142 41
141 41
140 41
139 40
138 40
137 40
136 41
135 41
134 41
133 41
132 41
131 41
130 41
129 41
128 40
127 39
126 38
125 38
124 38
123 38
122 38
121 38
120 38
119 38
118 39
117 39
116 39
115 39
114 39
113 40
112 40
111 41
110 41
109 41
108 41
107 41
106 40
105 40
104 41
103 41
102 41
101 41
100 40
101 39
101 38
100 38
99 37
98 37
98 38
98 39
98 40
97 41
96 41
95 41
94 41
93 41
92 41
91 41
90 40
89 40
88 40
87 40
86 40
85 40
84 40
83 40
82 39
83 38
84 38
85 37
86 37
87 37
88 38
89 37
90 37
91 36
92 36
93 36
94 35
94 34
93 33
92 32
93 31
93 30
94 29
94 28
94 27
94 26
94 25
93 25
92 24
93 23
93 22
92 22
91 21
92 20
92 19
92 18
92 17
92 16
92 15
91 15
90 14
89 14
88 14
87 14
87 15
86 16
85 16
84 15
85 14
85 13
86 12
86 11
87 10
87 9
86 9
85 8
84 8
83 8
82 8
81 9
80 8
80 7
81 6
80 6
79 5
78 4
77 4
76 4
75 4
74 4
73 4
72 4
