122 2
122 3
121 4
120 4
119 4
118 4
117 4
116 5
115 5
114 6
113 6
112 6
111 6
110 6
109 7
108 7
107 7
106 7
105 7
104 7
103 8
102 8
101 9
100 9
99 9
98 9
97 10
96 10
95 10
94 10
93 11
92 11
91 12
90 12
89 12
88 13
87 13
86 14
85 14
84 14
83 15
82 16
81 16
80 16
79 17
78 17
77 17
76 18
75 19
74 19
73 20
72 20
71 21
70 22
69 22
68 22
67 22
66 22
65 22
64 23
64 24
64 25
63 26
62 27
61 27
60 28
59 29
58 30
57 30
57 31
56 32
55 32
54 33
54 34
54 35
53 36
52 36
51 36
50 37
49 37
48 37
47 38
46 38
45 39
44 38
43 38
42 38
41 38
40 38
39 38
38 37
37 37
36 37
35 37
34 37
33 36
32 36
31 36
30 36
29 36
28 36
27 36
26 35
25 35
24 35
23 35
22 35
21 34
20 34
19 34
18 34
17 34
16 34
15 33
14 33
13 33
12 33
11 33
10 33
9 33
8 33
7 33
6 33
5 34
4 34
3 34
3 35
3 36
3 37
3 38
3 39
4 40
4 41
4 42
4 43
4 44
4 45
4 46
4 47
4 48
4 49
4 50
4 51
4 52
4 53
4 54
4 55
4 56
4 57
4 58
4 59
4 60
5 61
6 61
7 61
8 62
9 63
9 64
9 65
8 66
7 67
6 67
5 67
4 67
3 68
2 69
2 70
2 71
2 72
3 72
4 72
5 73
5 74
6 74
7 75
8 75
9 75
10 75
11 75
12 75
13 75
14 75
15 75
16 75
17 74
18 74
19 74
20 74
21 74
22 73
23 73
24 73
25 73
26 73
27 73
28 73
29 72
30 72
31 72
32 72
33 71
34 71
35 71
36 70
37 70
38 70
39 70
40 70
41 70
42 69
43 69
44 69
45 68
46 68
47 69
48 70
48 71
48 72
49 72
50 72
51 73
51 74
52 75
53 75
54 76
55 77
56 77
57 78
57 79
58 79
59 80
60 80
61 81
62 81
63 82
64 83
65 84
66 85
67 85
68 86
69 86
70 87
71 88
71 89
72 89
73 90
74 90
75 90
76 90
77 90
78 90
79 90
80 91
81 91
82 91
83 91
84 91
85 91
86 91
87 91
88 91
89 91
90 91
91 91
92 91
93 91
94 91
95 91
96 91
97 91
98 90
99 89
100 89
101 88
102 87
103 88
103 89
104 89
105 89
106 88
107 88
108 87
109 87
110 87
111 86
112 85
113 85
114 85
115 84
116 84
117 85
118 85
119 85
120 85
121 85
122 85
123 85
124 85
125 85
126 85
127 85
128 85
129 86
128 87
127 88
126 89
126 90
126 91
126 92
126 93
126 94
125 95
125 96
125 97
125 98
125 99
126 100
127 100
128 100
129 100
130 100
131 100
132 100
133 100
134 100
135 99
136 98
137 98
138 97
139 96
140 96
141 95
142 94
143 93
144 92
145 91
146 91
147 90
147 89
148 88
148 87
149 86
150 85
151 85
152 84
153 84
154 84
155 84
156 84
157 84
158 84
159 84
160 84
161 84
162 84
163 84
164 84
165 83
166 83
167 83
168 83
169 83
170 83
171 82
172 82
173 82
174 82
175 82
176 82
177 81
178 81
179 81
180 80
181 80
182 80
183 80
184 79
185 79
186 79
187 79
188 78
189 78
190 78
191 77
192 77
193 77
194 76
195 76
196 76
197 75
198 75
199 74
200 73
201 73
202 72
203 71
204 70
205 69
206 69
207 68
208 67
208 66
209 65
209 64
209 63
209 62
208 62
207 61
206 61
205 60
206 59
206 58
205 58
204 57
205 56
204 56
203 55
204 54
203 54
202 53
203 52
202 52
201 51
200 50
199 49
198 48
197 47
196 46
195 45
194 44
195 43
194 43
193 42
192 41
191 41
190 40
189 39
188 39
187 38
186 37
185 37
184 36
183 35
182 35
181 34
180 34
179 33
178 33
177 32
176 32
175 31
174 31
173 31
172 30
171 30
170 29
169 29
168 29
167 28
166 28
165 28
164 27
163 27
162 27
161 27
160 26
159 26
158 25
157 25
156 24
155 23
154 23
153 23
152 23
151 22
152 21
153 20
153 19
154 18
154 17
153 17
152 16
151 15
150 14
151 13
150 13
149 12
148 11
147 10
148 9
147 9
146 8
145 7
144 7
143 7
142 6
143 5
142 5
141 4
140 4
139 4
138 4
137 3
136 3
135 3
134 3
133 3
132 3
131 3
130 3
129 3
128 3
127 2
126 2
125 2
124 2
123 2
