83 6
83 7
82 8
81 7
80 7
79 7
78 7
77 7
76 7
75 7
74 7
73 7
72 7
71 7
70 7
69 8
68 8
67 8
66 9
65 9
64 9
64 10
64 11
63 12
62 12
61 12
60 13
59 13
58 14
58 15
58 16
58 17
57 18
56 18
55 18
54 19
53 19
52 20
51 20
50 20
49 20
48 21
47 21
46 21
45 22
44 22
43 22
42 23
41 23
40 23
39 24
38 24
37 25
36 25
35 25
34 25
33 26
32 27
31 27
30 28
29 29
28 29
27 30
26 30
25 31
24 32
23 32
22 33
21 34
20 34
19 35
18 36
17 36
16 37
15 38
14 38
13 39
12 40
11 41
10 41
10 42
9 43
8 44
7 44
6 45
5 46
4 46
3 47
3 48
3 49
3 50
3 51
3 52
4 53
5 54
4 55
3 55
2 55
2 56
2 57
2 58
2 59
2 60
2 61
3 62
3 63
3 64
4 65
5 66
6 66
7 67
8 67
9 68
10 69
11 69
12 70
13 70
14 70
15 71
16 71
17 71
18 71
19 71
20 72
21 73
22 73
23 74
24 74
25 75
26 75
27 76
28 76
29 76
30 77
31 77
32 77
33 78
34 78
35 78
36 79
37 79
38 79
39 80
40 80
41 81
42 81
43 82
44 83
45 83
46 84
47 84
48 84
49 85
50 85
51 85
52 85
53 86
54 86
55 86
56 86
57 87
57 88
57 89
57 90
58 91
58 92
58 93
59 94
59 95
60 96
60 97
60 98
60 99
60 100
61 101
61 102
62 103
62 104
63 105
63 106
63 107
63 108
64 109
64 110
65 111
65 112
66 113
66 114
66 115
67 116
67 117
67 118
68 118
69 119
70 120
70 121
70 122
70 123
71 124
72 125
72 126
72 127
73 128
74 129
74 130
75 131
75 132
76 132
77 132
78 132
78 131
79 130
78 130
77 129
78 128
77 128
76 127
77 126
76 126
75 125
76 124
75 124
74 123
73 122
74 121
74 120
73 120
72 119
73 118
72 118
71 117
72 116
72 115
72 114
72 113
71 113
70 112
71 111
71 110
71 109
70 108
70 107
71 106
71 105
71 104
72 103
72 102
73 101
73 100
73 99
73 98
74 97
75 96
75 95
76 94
76 93
76 92
76 91
76 90
77 89
77 88
76 88
75 87
76 86
77 86
78 86
79 86
80 86
81 86
82 86
83 86
84 86
85 86
86 86
87 86
88 86
89 86
90 86
91 86
92 87
93 88
94 89
95 90
96 91
97 91
98 92
99 92
100 93
101 94
102 94
103 95
104 95
105 95
106 95
107 96
108 96
109 96
110 96
111 96
112 96
113 97
114 97
115 97
116 97
117 97
118 98
119 98
120 98
121 98
122 98
123 98
124 98
125 98
126 98
127 98
128 98
129 98
130 98
131 98
132 99
133 99
134 100
135 100
136 100
137 100
138 100
139 100
140 100
141 100
142 100
143 100
144 100
145 100
146 100
147 100
148 100
149 100
150 100
151 100
152 100
153 100
154 100
155 100
156 100
157 100
158 100
159 100
160 100
161 100
162 100
163 100
164 99
164 98
163 97
162 96
161 96
160 95
159 94
160 93
159 93
158 92
157 92
156 91
157 90
156 90
155 89
154 88
153 87
152 86
151 85
150 84
151 83
150 83
149 82
148 81
149 80
148 80
147 79
146 78
145 77
144 76
143 75
142 74
143 73
144 73
145 73
146 74
147 74
148 75
149 75
150 75
151 76
152 77
153 77
154 77
155 78
156 79
157 79
158 80
159 80
160 80
161 81
162 81
163 82
164 82
165 82
166 83
167 83
168 84
169 84
170 84
171 85
172 85
173 86
174 86
175 87
176 87
177 87
178 88
179 88
180 88
181 88
182 88
183 88
184 88
185 89
186 89
187 89
188 89
189 90
190 90
191 91
192 91
193 91
194 92
195 92
196 92
197 92
198 92
199 91
199 90
198 89
197 88
196 88
195 87
194 87
193 86
192 86
191 86
190 85
189 85
188 84
187 83
186 83
185 83
184 82
183 81
184 80
185 80
186 79
187 78
188 78
189 77
190 77
191 76
192 75
193 74
193 73
194 72
194 71
193 71
192 70
192 69
193 68
194 68
195 68
196 68
197 67
197 66
196 65
195 65
194 64
193 63
194 62
195 61
196 60
197 60
198 59
199 59
200 58
200 57
201 56
200 56
199 55
200 54
200 53
200 52
199 52
198 51
197 51
196 50
195 50
194 49
193 48
192 48
191 47
190 46
189 45
188 44
187 43
186 42
185 41
186 40
185 40
184 39
185 38
184 38
183 37
184 36
185 35
186 34
187 34
188 33
189 33
190 32
191 32
192 32
193 32
194 32
195 32
196 32
197 32
198 32
199 31
200 31
201 31
202 30
202 29
201 28
200 28
199 27
198 27
197 27
196 27
195 27
194 27
193 27
192 27
191 27
190 27
189 27
188 27
187 27
186 27
185 28
184 28
183 28
182 28
181 28
180 29
179 29
178 29
177 29
176 29
175 29
174 30
173 30
172 31
171 31
170 32
169 33
168 34
167 35
166 35
165 36
164 36
163 37
162 37
161 38
160 38
159 39
158 39
157 40
156 40
155 41
154 41
153 42
152 43
151 43
150 42
151 41
152 40
153 39
154 38
155 37
155 36
156 35
156 34
157 33
157 32
158 31
159 30
160 29
160 28
161 27
161 26
161 25
162 24
163 23
164 23
165 22
166 22
167 21
168 21
169 20
169 19
170 18
169 18
168 17
167 17
166 18
165 18
164 18
163 18
162 18
161 18
160 18
159 19
158 19
157 19
156 19
155 18
154 18
153 17
152 17
151 17
150 17
149 16
148 16
147 16
146 16
145 16
144 16
143 16
142 16
141 16
140 16
139 16
138 16
137 16
136 15
135 15
134 15
133 15
132 15
131 15
130 15
129 14
128 14
127 14
126 14
125 14
124 14
123 14
122 14
121 14
120 14
119 13
118 13
117 13
116 12
115 12
114 12
113 13
112 13
111 13
110 12
109 12
108 12
107 11
106 11
105 11
104 10
103 9
102 9
101 9
101 10
100 11
99 11
98 10
97 10
96 10
95 9
94 9
93 9
92 8
91 8
90 7
89 7
88 7
87 6
86 6
85 6
84 6
