87 2
86 3
85 3
84 3
83 3
82 3
81 3
80 3
80 4
79 5
78 5
77 5
76 5
76 6
75 7
74 8
73 7
72 6
71 5
70 5
69 5
68 5
67 5
66 6
66 7
66 8
66 9
65 10
64 11
64 12
63 13
62 14
61 15
61 16
61 17
60 18
59 19
58 19
57 20
56 19
55 19
54 19
53 19
52 19
51 19
50 19
49 20
48 20
47 20
46 20
45 20
44 21
43 21
42 21
41 21
40 22
39 22
38 23
37 23
36 23
35 24
34 24
33 25
32 25
31 25
30 26
29 26
28 26
28 27
27 28
26 28
25 28
24 28
24 29
23 30
22 31
21 31
20 32
19 33
18 33
17 33
16 33
15 33
15 34
14 35
13 35
12 35
12 36
11 37
10 37
9 37
8 38
7 39
6 40
6 41
6 42
6 43
5 44
5 45
4 46
3 46
2 46
2 47
2 48
2 49
2 50
2 51
2 52
2 53
2 54
2 55
2 56
2 57
2 58
2 59
2 60
3 61
3 62
3 63
3 64
4 65
5 66
6 67
7 67
8 67
9 68
10 68
11 69
12 70
12 71
13 71
14 72
15 73
16 73
17 74
18 75
19 76
20 77
21 77
22 78
23 79
24 79
25 80
26 81
27 81
28 82
29 82
30 82
31 83
32 84
33 84
34 85
35 86
36 86
37 86
38 87
39 87
40 87
41 87
42 88
43 88
44 88
45 89
46 89
47 90
48 90
49 90
50 91
51 91
52 92
52 93
52 94
52 95
53 96
53 97
53 98
54 99
54 100
54 101
54 102
54 103
55 104
55 105
55 106
55 107
56 108
56 109
57 110
58 111
58 112
58 113
59 114
60 115
60 116
61 117
61 118
62 118
63 119
64 120
65 121
66 122
66 123
67 123
68 123
69 123
70 123
71 122
71 121
72 120
72 119
72 118
72 117
73 116
74 115
74 114
75 113
75 112
75 111
74 111
73 110
74 109
74 108
74 107
75 106
75 105
75 104
75 103
75 102
76 101
76 100
75 100
74 99
73 98
74 97
73 97
72 96
71 95
70 94
71 93
72 93
73 94
74 94
75 94
76 94
77 94
78 94
79 94
80 94
81 94
82 94
83 94
84 94
85 94
86 94
87 94
88 94
89 94
90 94
91 94
92 94
93 94
94 94
95 94
96 94
97 94
98 94
99 94
100 94
101 94
102 94
103 94
104 94
105 94
106 93
107 93
108 93
109 93
110 93
111 93
112 93
113 93
114 93
115 92
116 92
117 92
118 92
119 92
120 92
121 92
122 92
123 93
124 93
125 94
126 94
127 95
128 95
129 96
130 97
131 97
132 97
133 97
134 97
135 97
136 97
137 97
138 97
139 97
140 96
141 96
142 96
143 95
144 95
145 94
146 93
147 93
148 92
149 91
150 91
151 91
152 90
153 90
154 90
155 89
156 88
157 88
158 87
159 86
160 86
161 85
162 84
163 83
164 82
165 81
166 80
167 79
168 78
168 77
169 76
170 75
171 75
172 75
173 75
174 74
174 73
175 72
175 71
176 70
176 69
177 68
178 68
179 69
180 69
181 70
182 70
183 70
184 71
185 71
186 71
187 72
188 72
189 72
190 73
191 73
192 73
193 74
194 74
195 74
196 74
197 75
198 75
199 75
200 75
201 75
202 76
203 76
204 77
205 77
206 77
207 77
208 77
209 77
210 78
211 78
212 78
213 78
214 78
215 78
216 78
217 78
218 78
219 77
220 77
221 77
222 77
223 77
224 76
225 75
225 74
226 73
226 72
226 71
225 71
224 70
223 69
224 68
223 68
222 67
223 66
223 65
223 64
223 63
222 63
221 62
222 61
221 60
222 59
222 58
223 57
223 56
223 55
223 54
223 53
223 52
223 51
223 50
223 49
223 48
223 47
222 47
221 46
222 45
222 44
222 43
222 42
222 41
222 40
223 39
223 38
224 37
224 36
224 35
225 34
225 33
224 33
223 32
222 32
221 32
220 32
219 32
218 32
217 32
216 32
215 32
214 32
213 32
212 32
211 32
210 32
209 32
208 32
207 32
206 32
205 32
204 32
203 33
202 33
201 33
200 33
199 33
198 34
197 34
196 34
195 34
194 34
193 34
192 35
191 35
190 35
189 35
188 35
187 35
186 36
185 36
184 36
183 36
182 36
181 37
180 37
179 37
178 37
177 38
176 38
175 37
174 36
173 36
172 36
171 35
170 35
169 34
168 34
167 33
166 33
165 32
164 31
163 31
162 30
161 29
160 29
159 28
158 27
157 26
156 26
155 26
154 25
153 24
152 24
151 23
150 23
149 22
148 22
147 21
146 21
145 20
144 20
143 19
142 18
141 18
140 18
139 17
138 17
137 16
136 15
135 15
134 14
133 13
132 13
131 13
130 12
129 11
128 11
127 11
126 11
125 11
124 11
123 12
122 12
121 11
120 11
119 11
118 11
117 10
116 10
115 9
114 9
113 9
112 9
111 9
110 9
109 9
108 8
107 7
106 6
105 6
104 6
103 6
102 6
101 6
100 6
99 5
98 5
97 5
96 5
95 5
94 6
93 5
92 4
91 3
90 2
89 2
88 2
