78 2
77 3
77 4
76 5
75 6
74 6
74 7
73 8
72 8
71 8
70 8
69 8
68 7
69 6
69 5
68 5
67 4
66 4
65 4
64 5
64 6
63 7
62 6
61 5
60 4
59 3
58 3
57 3
56 3
55 3
54 4
54 5
53 6
52 7
51 8
51 9
51 10
50 11
49 11
48 11
47 10
48 9
48 8
48 7
47 7
46 6
45 6
44 6
43 6
43 7
42 8
42 9
42 10
41 11
41 12
41 13
40 14
39 14
38 14
38 15
38 16
38 17
38 18
38 19
38 20
38 21
37 22
36 22
35 22
34 23
33 23
32 23
31 24
30 24
29 25
28 26
27 26
26 27
25 28
24 28
23 29
22 30
21 30
20 31
19 32
19 33
18 34
17 35
16 35
15 36
15 37
14 38
13 39
12 39
12 40
11 41
10 42
9 42
9 43
8 44
7 45
6 45
5 45
4 46
3 47
3 48
2 49
2 50
2 51
2 52
2 53
2 54
3 55
3 56
3 57
3 58
4 59
5 60
6 61
7 61
8 62
9 63
10 63
11 64
12 65
13 65
14 65
15 66
15 67
16 67
17 68
18 69
19 70
20 71
21 72
22 73
23 74
24 75
25 76
26 76
27 77
28 78
29 79
30 79
31 79
32 80
33 81
34 81
35 82
36 82
37 82
38 83
39 83
40 84
41 85
42 85
43 86
44 87
45 88
45 89
46 90
46 91
47 92
48 93
48 94
49 95
50 96
50 97
51 97
52 98
53 99
54 99
55 100
56 101
57 101
58 102
58 103
59 103
60 103
61 103
62 103
63 102
64 101
64 100
65 99
65 98
66 97
66 96
66 95
66 94
66 93
66 92
67 91
67 90
67 89
66 89
65 88
66 87
67 87
68 87
69 87
70 88
71 88
72 88
73 88
74 88
75 88
76 89
77 89
78 89
79 89
80 89
81 88
82 88
83 89
83 90
83 91
84 92
84 93
84 94
84 95
84 96
85 97
86 98
86 99
86 100
87 101
87 102
87 103
88 103
89 102
89 101
90 100
90 99
90 98
91 97
92 98
93 99
94 100
95 101
96 102
97 103
98 104
98 105
99 105
100 106
101 106
102 105
102 104
103 103
103 102
103 101
102 100
103 99
104 99
105 99
106 99
107 100
108 101
109 102
110 102
111 101
111 100
112 99
112 98
113 97
114 98
115 98
116 98
117 98
118 98
119 97
119 96
118 95
117 94
118 93
119 93
120 94
121 94
122 94
123 94
124 94
125 93
125 92
126 91
127 90
128 90
129 90
130 90
131 90
132 90
133 89
134 88
135 87
136 87
137 87
138 86
138 85
139 84
140 84
141 84
142 84
143 84
144 84
145 83
146 82
147 82
148 81
149 80
150 79
150 78
151 77
151 76
151 75
151 74
151 73
150 73
149 72
150 71
150 70
150 69
150 68
149 68
148 67
149 66
149 65
150 64
151 64
152 64
153 65
153 66
154 66
155 67
156 68
157 69
158 70
159 71
160 71
161 72
162 73
163 73
164 74
165 74
166 75
167 76
168 76
169 77
170 78
171 78
172 78
173 79
174 80
175 80
176 80
177 81
178 81
179 81
180 81
181 82
182 82
183 82
184 82
185 82
186 82
187 81
187 80
188 79
188 78
187 78
186 77
185 76
186 75
185 75
184 74
183 73
182 72
181 71
182 70
181 70
180 69
181 68
180 68
179 67
178 66
177 65
176 64
175 63
174 62
173 61
172 60
171 59
172 58
172 57
171 57
170 56
169 55
168 54
169 53
169 52
169 51
169 50
170 49
171 48
171 47
172 46
172 45
172 44
173 43
173 42
174 41
174 40
175 39
175 38
176 37
177 36
177 35
178 34
178 33
179 32
180 31
180 30
181 29
181 28
182 27
182 26
182 25
183 24
183 23
183 22
184 21
184 20
185 19
184 19
183 18
182 18
181 18
180 18
179 19
178 19
177 20
176 20
175 21
174 21
173 22
172 23
171 23
170 24
169 25
168 25
167 26
166 27
165 28
164 28
163 29
162 30
161 31
160 32
159 33
158 33
158 34
157 35
156 36
156 37
155 38
154 39
153 39
152 38
152 37
153 36
153 35
154 34
154 33
153 33
152 32
151 31
150 31
149 31
148 30
147 30
146 30
145 29
144 29
143 29
142 28
141 28
140 28
139 27
138 27
137 27
136 26
135 25
134 25
133 25
132 24
131 23
130 22
129 22
128 22
127 22
126 21
125 20
124 19
123 19
122 18
121 18
120 18
119 17
118 16
117 16
116 16
115 16
114 15
113 14
112 13
111 12
110 12
109 12
108 11
107 10
106 10
105 10
104 10
103 10
102 10
101 9
100 8
99 7
98 7
97 7
96 7
95 7
94 8
93 8
92 8
91 8
90 7
91 6
90 6
89 5
88 5
87 5
86 6
85 7
84 6
83 5
84 4
84 3
83 3
82 2
81 2
80 2
79 2
