93 2
93 3
92 4
92 5
91 6
90 6
89 6
89 7
88 8
87 9
87 10
86 11
86 12
85 13
84 14
84 15
83 16
83 17
82 18
82 19
82 20
81 21
81 22
80 23
80 24
80 25
79 26
78 27
77 27
77 28
77 29
77 30
76 31
75 31
74 31
73 31
72 31
71 31
70 32
69 32
68 32
67 32
66 32
65 32
64 32
63 32
62 33
61 33
60 33
59 33
58 33
57 33
56 33
55 34
54 34
53 34
52 34
51 34
50 34
49 35
48 35
47 35
46 35
45 35
44 36
43 36
42 36
41 36
40 36
39 37
38 37
37 37
36 37
35 38
34 38
33 39
32 39
31 39
30 39
29 40
28 40
27 40
26 40
25 41
24 41
23 41
22 42
21 42
20 42
19 43
18 43
17 44
16 44
15 44
14 44
14 45
13 46
12 46
11 47
10 48
9 48
8 49
7 50
6 51
5 52
4 52
4 53
4 54
4 55
4 56
4 57
4 58
3 59
3 60
3 61
3 62
2 63
2 64
2 65
2 66
3 66
4 66
5 66
6 67
7 67
8 68
9 68
10 69
11 69
12 70
13 71
13 72
14 72
15 72
16 72
17 73
18 73
19 73
20 74
20 75
21 75
22 75
23 75
24 76
25 77
26 77
27 77
28 77
29 78
30 78
31 79
31 80
32 80
33 81
34 81
35 82
36 82
37 82
38 83
39 83
40 83
41 83
42 84
42 85
43 85
44 85
45 85
46 85
47 85
48 84
49 84
50 84
51 85
52 85
53 86
54 86
55 86
56 86
57 86
58 87
59 87
60 87
61 87
62 87
63 87
64 87
65 88
66 88
67 88
68 88
69 88
70 88
71 88
72 89
72 90
72 91
72 92
72 93
72 94
72 95
72 96
73 97
73 98
74 99
74 100
74 101
74 102
75 103
75 104
75 105
76 106
77 107
78 108
79 109
80 109
81 109
82 109
83 109
84 108
85 107
86 107
87 107
88 106
88 105
89 104
89 103
89 102
90 101
90 100
91 99
92 98
93 97
93 96
94 95
94 94
94 93
93 92
94 91
95 91
96 91
97 91
98 91
99 91
100 91
101 91
102 91
103 91
104 91
105 90
106 90
107 90
108 90
109 90
110 90
111 90
112 90
113 90
114 90
115 90
116 90
117 90
118 90
119 90
120 90
121 90
122 90
123 90
124 90
125 89
126 89
127 89
128 89
129 89
130 89
131 89
132 89
133 89
134 88
135 88
136 88
137 88
138 88
139 88
140 88
141 88
142 88
143 88
144 88
145 88
146 88
147 88
148 87
149 87
150 88
150 89
151 90
152 91
153 91
154 91
155 91
156 92
157 93
157 94
158 95
158 96
159 97
160 97
161 98
162 98
163 98
164 97
165 96
165 95
166 94
167 93
168 92
169 91
170 91
171 90
172 90
173 89
174 89
175 88
176 88
177 87
178 87
179 86
180 85
181 85
182 85
183 84
184 84
185 84
186 84
187 84
188 83
189 83
190 82
191 82
192 82
193 81
194 81
195 80
196 80
197 80
198 79
199 79
200 78
201 78
202 78
203 77
204 77
205 77
206 76
207 75
208 75
209 74
210 74
211 73
212 73
213 73
214 72
215 72
216 72
217 72
218 71
219 71
220 71
221 70
222 70
223 69
224 69
225 69
226 69
227 69
228 70
229 70
230 71
231 71
232 71
233 72
234 72
235 73
236 74
237 74
238 75
239 76
240 76
241 77
242 78
243 79
244 80
245 81
246 82
247 83
248 84
249 85
250 85
251 86
252 87
253 88
254 88
255 89
256 90
257 90
258 91
259 92
260 93
260 94
261 94
262 94
263 94
264 94
265 95
265 96
266 96
267 97
268 97
269 97
270 97
271 98
272 98
273 98
274 98
275 98
276 98
277 98
278 97
278 96
279 95
278 95
277 94
276 94
275 94
274 93
275 92
274 92
273 91
272 90
271 89
270 88
269 87
268 86
267 85
268 84
268 83
267 83
266 82
267 81
266 81
265 80
264 79
263 78
262 77
263 76
263 75
262 75
261 74
260 74
259 73
258 72
257 71
258 70
258 69
257 69
256 68
255 67
254 66
255 65
255 64
255 63
254 62
254 61
255 60
256 60
257 59
257 58
258 57
259 56
260 55
260 54
261 53
262 53
263 52
263 51
264 50
265 50
266 49
267 48
268 47
268 46
269 45
270 44
271 44
272 43
273 42
274 41
275 41
276 41
277 40
277 39
278 38
278 37
279 36
280 36
281 35
282 34
283 34
284 33
285 33
286 32
286 31
285 30
284 30
283 30
282 29
281 29
280 29
279 29
278 29
277 29
276 29
275 29
274 30
273 30
272 30
271 30
270 31
269 32
268 32
267 32
266 33
265 33
264 34
263 34
262 34
261 34
260 35
259 35
258 35
258 36
257 37
256 38
255 39
254 39
253 40
252 41
251 41
250 41
249 42
248 43
247 43
246 44
245 45
244 45
243 46
242 47
241 48
240 48
239 49
238 49
237 49
236 50
235 51
234 51
233 51
232 52
231 52
230 52
229 52
228 53
227 53
226 53
225 53
224 53
223 53
222 53
221 53
220 52
219 51
218 51
217 50
216 50
215 49
214 49
213 49
212 49
211 48
210 48
209 48
208 48
207 48
206 48
205 47
204 47
203 47
202 46
201 46
200 46
199 46
198 45
197 44
196 44
195 44
194 43
193 43
192 42
191 41
190 41
189 41
188 41
187 41
186 41
185 40
184 39
183 38
182 38
181 39
180 39
179 38
178 37
177 36
176 36
175 35
174 34
173 34
172 34
171 33
170 33
169 33
168 32
167 31
166 30
165 29
164 28
163 27
162 26
163 25
162 25
161 24
160 24
159 24
158 25
157 25
156 26
155 27
154 28
153 28
152 29
151 29
150 30
149 31
148 32
147 32
146 32
145 32
144 32
143 33
142 32
141 32
140 32
139 32
138 32
137 32
136 32
135 32
134 32
133 31
132 31
131 30
130 30
129 30
128 31
127 30
126 30
125 29
124 29
123 29
122 28
121 28
120 27
119 26
118 25
117 25
116 25
115 24
114 24
113 23
114 22
114 21
113 21
112 20
111 20
110 19
109 18
108 17
107 16
106 15
107 14
106 14
105 13
106 12
106 11
106 10
105 10
104 9
103 8
104 7
104 6
103 6
102 5
101 5
100 4
99 3
98 3
97 4
96 3
95 2
94 2
