129 6
129 7
128 8
127 8
126 9
125 9
124 9
123 9
122 9
121 8
120 7
119 7
118 8
117 8
116 8
115 8
114 8
113 8
112 9
111 9
110 9
109 9
108 9
107 9
106 9
105 9
104 9
103 9
103 10
102 11
101 11
100 11
99 11
98 11
97 11
97 12
97 13
97 14
96 15
95 14
94 14
93 14
92 14
91 15
90 15
89 16
88 17
87 17
86 18
85 18
85 19
85 20
84 21
83 21
82 21
81 21
80 21
79 21
79 22
79 23
78 24
78 25
77 26
76 26
75 27
74 27
73 28
72 28
71 29
70 30
69 30
68 31
67 32
67 33
66 34
65 34
64 35
63 35
62 35
61 36
60 36
59 37
58 37
57 38
56 39
55 39
54 39
53 40
52 41
51 40
50 40
49 40
48 40
47 40
46 40
45 39
44 39
43 38
42 38
41 38
40 37
39 37
38 37
37 37
36 37
35 36
34 36
33 36
32 35
31 35
30 35
29 34
28 34
27 34
26 34
25 34
24 34
23 34
22 34
21 34
20 34
19 34
18 34
17 34
16 34
15 35
14 35
13 35
12 36
11 36
10 37
9 37
8 38
8 39
8 40
7 41
6 41
5 42
4 43
3 43
2 44
2 45
2 46
2 47
3 47
4 47
5 47
6 47
7 46
8 46
9 46
10 46
11 47
10 48
10 49
10 50
10 51
10 52
10 53
10 54
10 55
10 56
10 57
10 58
10 59
10 60
11 61
11 62
11 63
11 64
11 65
11 66
11 67
11 68
11 69
11 70
10 71
9 72
8 72
7 73
6 74
5 74
4 74
3 74
2 75
2 76
2 77
2 78
3 79
4 79
5 79
6 80
7 80
8 80
9 80
10 80
11 81
12 81
13 81
14 81
15 81
16 82
17 82
18 82
19 82
20 82
21 81
22 81
23 81
24 81
25 80
26 80
27 80
28 80
29 80
30 79
31 79
32 79
33 78
34 78
35 78
36 77
37 77
38 77
39 76
40 76
41 76
42 75
43 75
44 75
45 74
46 74
47 73
48 74
49 74
50 75
51 75
52 75
53 76
54 77
55 77
56 78
57 79
58 80
59 81
59 82
59 83
60 84
61 84
62 85
63 85
64 86
65 87
66 88
66 89
67 90
67 91
68 91
69 91
70 92
70 93
71 94
71 95
72 95
73 96
74 96
75 96
76 96
77 96
78 96
79 97
79 98
80 98
81 98
82 97
83 97
84 98
85 99
85 100
86 100
87 100
88 100
89 100
90 100
91 100
92 100
93 100
94 100
95 100
96 100
97 100
98 100
99 100
100 100
101 99
102 98
103 98
104 99
105 100
106 100
107 100
108 100
109 100
110 99
111 99
112 98
113 97
114 97
115 98
116 98
117 98
118 98
119 98
120 98
121 98
122 98
123 98
124 98
125 98
126 98
127 98
128 98
129 98
130 98
131 99
132 99
133 99
134 99
135 99
136 99
137 99
138 99
139 99
140 99
141 99
142 99
143 100
143 101
143 102
143 103
142 104
141 105
140 106
139 107
138 108
137 109
136 110
135 110
135 111
135 112
135 113
135 114
135 115
136 115
137 115
138 115
139 114
140 114
141 114
142 114
143 113
144 113
145 112
146 112
147 111
148 110
149 111
149 112
150 113
151 114
151 115
152 116
152 117
153 118
153 119
154 120
154 121
155 122
155 123
155 124
155 125
155 126
155 127
155 128
156 129
157 129
158 129
159 129
159 128
160 127
160 126
161 125
161 124
162 123
162 122
162 121
163 120
163 119
164 118
164 117
165 116
165 115
165 114
165 113
165 112
165 111
166 110
166 109
166 108
166 107
167 106
167 105
168 104
168 103
168 102
168 101
168 100
168 99
169 98
170 97
171 96
172 96
173 96
174 95
175 95
176 94
177 94
178 93
179 93
180 92
181 92
182 92
183 91
184 90
185 89
186 89
187 88
188 87
189 87
190 87
191 86
192 85
193 85
194 84
195 84
196 84
197 83
198 82
199 82
200 81
201 81
202 80
203 79
204 79
205 78
206 77
207 76
208 75
209 75
210 74
211 73
212 72
213 72
214 71
215 70
216 70
217 69
218 69
219 68
219 67
220 66
221 65
222 64
223 63
223 62
224 61
224 60
224 59
224 58
224 57
225 56
225 55
225 54
225 53
224 53
223 52
224 51
224 50
224 49
223 49
222 48
221 47
222 46
222 45
221 45
220 44
219 43
218 43
217 43
216 43
215 43
214 42
213 41
212 41
211 41
210 40
209 40
208 39
207 39
206 38
205 37
204 37
203 37
202 36
201 35
200 35
199 34
198 34
197 34
196 34
195 33
194 32
193 32
192 31
191 31
190 30
189 30
188 30
187 29
186 29
185 29
184 28
183 28
182 27
181 26
180 26
179 25
178 25
177 24
178 23
177 23
176 22
175 22
174 22
173 21
172 21
171 21
170 21
169 21
168 21
167 21
166 20
167 19
166 19
165 18
166 17
165 17
164 16
165 15
164 15
163 14
162 13
161 13
160 13
159 13
158 13
157 12
156 12
155 11
154 11
153 10
152 10
151 10
150 9
149 9
148 9
147 9
146 8
145 7
144 6
143 6
142 6
141 6
140 6
139 6
138 6
137 6
136 6
135 6
134 6
133 6
132 6
131 6
130 6
