177 2
177 3
177 4
176 5
175 5
174 5
173 5
172 4
171 3
170 3
169 3
168 4
167 5
166 4
165 4
164 4
163 4
162 4
161 4
160 4
159 4
158 4
157 3
156 3
155 3
154 3
153 4
152 4
151 4
150 5
149 5
148 6
147 6
146 7
145 7
144 7
143 7
142 8
141 8
140 8
139 9
138 9
137 9
136 9
135 9
134 9
134 10
133 11
132 11
131 11
131 12
130 13
129 13
128 12
127 12
126 11
125 11
124 12
123 13
122 13
121 14
120 14
119 15
118 15
117 15
117 16
117 17
116 18
115 18
114 18
113 18
112 19
111 19
110 19
110 20
110 21
110 22
110 23
109 24
108 24
107 24
106 24
105 24
105 25
104 26
103 26
102 26
101 26
100 26
99 26
99 27
98 28
97 28
97 29
97 30
96 31
95 31
94 31
93 31
92 31
91 32
90 32
89 32
89 33
89 34
89 35
88 36
87 37
86 38
85 38
84 39
83 39
82 39
82 40
81 41
80 42
79 43
78 43
77 43
76 44
75 45
74 46
74 47
73 48
72 48
71 48
71 49
70 50
70 51
69 52
68 52
67 53
67 54
66 55
65 55
64 54
63 53
62 52
61 52
60 51
59 50
58 49
57 48
56 47
55 46
54 45
53 44
52 43
51 42
50 41
49 40
48 39
47 39
46 38
45 37
44 36
43 35
42 35
41 34
40 33
39 33
38 33
37 32
36 32
35 31
34 31
33 30
32 30
31 30
30 29
29 29
28 29
27 29
26 29
25 29
24 29
23 29
22 29
21 29
20 29
19 29
18 29
17 29
16 30
15 30
14 30
13 30
12 31
11 31
10 32
9 33
8 34
7 34
7 35
6 36
5 37
4 38
3 38
2 39
2 40
2 41
2 42
3 43
2 44
2 45
2 46
2 47
2 48
2 49
2 50
3 50
4 51
4 52
5 53
6 53
7 52
8 51
8 50
9 49
8 49
7 48
6 48
5 47
6 46
7 45
8 44
9 43
10 42
10 41
11 40
10 40
9 39
10 38
11 37
12 36
13 35
14 35
15 34
16 34
17 34
18 33
19 33
20 33
21 33
22 33
23 33
24 33
25 34
26 34
27 34
28 34
29 35
30 36
30 37
30 38
31 38
32 39
33 40
33 41
33 42
32 43
31 43
30 44
29 45
29 46
29 47
30 47
31 48
30 49
29 49
28 50
28 51
28 52
28 53
28 54
27 55
26 55
26 56
26 57
26 58
27 58
28 59
28 60
28 61
28 62
28 63
28 64
27 65
27 66
27 67
26 68
26 69
25 70
25 71
25 72
25 73
25 74
24 75
23 75
23 76
23 77
23 78
23 79
23 80
23 81
23 82
23 83
24 83
25 84
24 85
23 85
22 85
21 85
20 86
19 86
18 87
17 87
16 87
15 87
14 87
13 87
12 87
12 88
12 89
12 90
12 91
13 91
14 91
15 91
16 92
17 92
18 92
19 92
20 92
21 92
22 92
23 92
24 92
25 92
26 92
27 91
28 91
29 91
30 91
31 90
32 90
33 90
34 89
35 89
36 89
37 89
38 88
39 88
40 88
41 88
42 87
43 86
44 86
45 85
46 85
47 84
48 84
49 84
50 83
51 83
52 82
53 82
54 81
55 80
56 80
57 80
58 80
59 80
60 79
61 78
62 78
63 77
64 77
65 78
65 79
66 79
67 80
67 81
68 82
69 82
70 82
71 82
72 82
73 83
73 84
73 85
73 86
74 86
75 86
76 86
77 86
78 87
78 88
78 89
79 90
80 90
81 90
82 89
83 90
84 90
85 91
85 92
86 92
87 92
88 93
89 94
90 94
91 95
92 95
93 95
94 96
95 96
96 97
96 98
97 98
98 99
99 99
100 100
101 100
102 101
103 102
104 102
105 103
105 104
106 105
107 105
108 105
109 106
109 107
110 107
111 107
112 107
113 107
114 108
115 108
116 109
117 110
118 110
119 110
120 110
121 111
122 111
123 112
124 112
125 113
126 113
127 113
128 114
129 114
130 114
131 115
132 116
132 117
133 117
134 117
135 117
136 116
137 116
138 116
139 117
140 117
141 117
142 117
143 118
144 118
145 118
146 118
147 118
148 119
149 119
150 119
151 120
151 121
152 121
153 121
154 121
155 120
156 119
157 119
158 120
159 120
160 120
161 120
162 121
163 121
164 120
165 119
166 119
167 120
168 120
169 120
170 119
171 119
172 118
173 117
174 117
175 117
176 116
177 116
178 116
179 115
180 114
181 115
181 116
182 117
182 118
182 119
182 120
182 121
182 122
183 122
184 122
185 121
186 122
187 122
188 122
189 122
190 122
191 122
192 121
193 121
194 121
195 121
196 121
197 121
198 121
199 120
199 119
200 118
200 117
200 116
201 115
202 114
203 114
204 114
205 114
206 113
206 112
207 111
207 110
206 109
207 108
208 108
209 107
209 106
210 105
211 105
212 105
213 104
214 104
215 103
216 102
217 102
218 102
219 101
220 101
221 101
222 100
223 100
224 99
225 98
226 98
227 97
228 96
229 96
230 95
231 94
232 94
233 93
233 92
234 91
235 91
236 90
237 89
237 88
238 87
238 86
239 85
240 84
241 83
242 83
243 82
244 82
245 81
246 80
247 80
248 80
249 79
250 79
251 78
252 77
252 76
253 75
253 74
253 73
253 72
254 71
254 70
255 69
255 68
255 67
255 66
254 66
253 65
252 65
251 64
250 64
249 63
248 62
247 61
246 61
245 60
244 59
243 58
242 57
241 56
240 55
239 55
238 54
239 53
238 53
237 52
236 51
235 50
234 49
233 48
234 47
235 46
236 46
237 46
238 45
239 45
240 45
241 46
242 46
243 46
244 46
245 46
246 46
247 45
247 44
248 43
248 42
248 41
247 41
246 40
245 40
244 40
243 40
242 40
241 39
240 39
239 39
238 39
237 38
236 38
235 38
234 37
233 37
232 37
231 36
230 36
229 36
228 36
227 35
226 35
225 35
224 34
223 34
222 33
221 33
220 32
219 32
218 31
217 31
216 30
215 29
214 29
213 28
212 27
211 27
210 26
209 26
208 25
207 24
208 23
208 22
208 21
207 21
206 20
207 19
207 18
207 17
206 17
205 16
206 15
205 15
204 14
205 13
205 12
205 11
205 10
204 10
203 9
204 8
203 8
202 7
203 6
202 6
201 5
202 4
201 4
200 3
199 3
199 4
199 5
199 6
199 7
198 8
197 7
196 6
195 5
196 4
196 3
195 3
194 2
193 2
192 2
191 2
191 3
190 4
189 5
188 4
187 3
186 2
185 2
184 2
183 2
183 3
182 4
181 4
180 3
179 2
178 2
