118 2
118 3
118 4
117 5
116 4
115 3
114 3
113 3
113 4
112 5
112 6
112 7
111 8
110 8
109 8
108 7
107 6
106 5
105 5
105 6
104 7
103 7
103 8
103 9
102 10
101 9
100 9
99 8
98 7
97 7
96 7
96 8
96 9
95 10
95 11
95 12
94 13
93 12
92 12
91 12
90 12
89 13
89 14
89 15
88 16
87 15
86 14
85 14
84 14
83 14
82 14
82 15
82 16
82 17
82 18
81 19
80 19
79 20
78 20
77 20
76 20
75 20
74 21
73 20
72 20
71 20
71 21
70 22
69 22
68 22
67 23
66 23
65 23
64 23
63 23
62 23
61 23
60 23
59 23
58 24
57 24
56 24
55 24
54 24
53 24
52 24
51 24
50 24
49 25
48 25
47 26
47 27
46 28
46 29
46 30
46 31
46 32
46 33
46 34
46 35
47 36
46 37
46 38
46 39
46 40
47 41
47 42
47 43
47 44
47 45
48 46
48 47
49 48
49 49
50 50
51 51
51 52
51 53
51 54
50 55
50 56
50 57
49 58
48 57
47 57
46 57
45 56
44 55
43 55
42 54
41 54
40 53
39 53
38 52
37 52
36 52
35 51
34 50
33 50
32 49
31 49
30 48
29 47
28 47
27 47
26 46
25 45
24 45
23 44
22 43
21 43
20 43
19 42
18 42
17 41
16 40
15 40
14 40
13 40
12 40
11 40
10 39
9 39
8 39
7 39
6 39
5 39
4 39
3 39
2 39
2 40
2 41
2 42
2 43
3 44
3 45
4 45
5 46
5 47
6 48
7 49
8 50
8 51
9 52
10 53
10 54
11 55
11 56
11 57
12 58
12 59
13 60
14 61
14 62
14 63
14 64
14 65
14 66
14 67
15 68
15 69
15 70
15 71
14 72
14 73
14 74
14 75
14 76
14 77
14 78
13 79
13 80
12 81
12 82
12 83
11 84
11 85
10 86
9 87
8 88
8 89
8 90
7 91
6 92
5 92
5 93
5 94
5 95
6 96
7 97
8 97
9 97
10 97
11 97
12 97
13 97
14 97
15 97
16 96
17 96
18 96
19 96
20 95
21 95
22 94
23 94
24 93
25 92
26 92
27 91
28 91
29 90
30 89
31 89
32 89
33 88
34 87
35 87
36 86
37 86
38 85
39 84
40 84
41 83
42 83
43 82
44 81
45 81
46 81
47 82
47 83
46 84
45 85
45 86
45 87
44 88
44 89
44 90
44 91
43 92
43 93
43 94
43 95
44 96
45 97
45 98
46 99
47 99
48 100
49 101
50 101
51 102
52 102
53 102
54 102
55 102
56 102
57 103
57 104
57 105
58 105
59 105
60 105
61 106
62 106
63 107
63 108
63 109
64 110
65 110
66 110
67 110
68 111
68 112
69 112
70 112
71 113
71 114
71 115
72 116
73 117
74 117
75 117
76 116
77 116
78 116
79 116
80 117
80 118
81 118
82 118
83 119
84 119
85 119
86 119
87 118
88 118
89 118
90 118
91 119
92 119
93 119
94 119
95 119
96 119
97 119
98 119
99 118
100 119
101 119
102 119
103 119
104 119
105 119
106 119
107 119
108 119
109 119
110 118
111 118
112 118
113 118
114 118
115 118
116 118
117 119
118 119
119 119
120 119
121 119
122 119
123 119
124 119
125 118
126 118
127 118
128 118
129 118
130 119
131 120
131 121
131 122
132 122
133 121
134 120
135 120
136 120
137 119
138 118
139 119
140 119
141 119
142 119
143 119
144 119
145 119
146 119
147 119
148 119
149 120
148 121
147 122
146 121
145 122
144 123
143 123
142 124
142 125
142 126
142 127
143 127
144 128
144 129
144 130
143 131
143 132
143 133
143 134
144 134
145 134
146 134
147 133
147 132
148 131
148 130
149 129
149 128
150 127
151 126
152 125
152 124
153 123
154 122
155 121
156 120
157 119
157 118
158 117
158 116
159 115
160 114
161 113
162 113
163 114
164 114
165 114
166 114
167 114
168 114
169 114
170 115
171 115
172 114
172 113
173 112
172 112
171 111
172 110
171 110
170 109
170 108
171 107
172 107
173 107
174 106
175 106
176 105
177 104
178 104
179 104
180 103
180 102
181 101
182 101
183 101
184 100
185 99
186 98
187 97
188 96
189 96
190 95
191 94
192 93
193 92
194 92
195 93
196 93
197 92
197 91
198 90
198 89
199 88
200 87
201 87
202 87
203 86
204 86
205 86
206 85
206 84
207 83
207 82
208 81
208 80
208 79
209 78
209 77
209 76
209 75
209 74
210 73
211 72
211 71
212 70
211 70
210 69
211 68
211 67
210 67
209 66
208 66
207 66
206 66
205 66
204 66
203 65
202 64
203 63
203 62
202 62
201 61
202 60
201 60
200 59
199 58
198 57
197 56
196 55
195 54
194 53
193 52
192 51
191 51
190 50
189 49
188 48
187 47
186 46
185 45
184 44
183 43
184 42
183 42
182 41
181 40
180 40
179 39
178 38
177 37
176 36
175 36
174 35
173 35
172 34
171 34
170 33
169 32
170 31
170 30
170 29
170 28
170 27
169 27
168 26
169 25
169 24
169 23
169 22
169 21
168 21
167 20
166 20
165 20
164 20
163 19
162 18
163 17
162 17
161 16
162 15
162 14
162 13
162 12
161 12
160 11
159 11
158 11
157 11
157 12
156 13
155 13
154 12
155 11
154 11
153 10
152 9
151 8
150 7
151 6
150 6
149 5
148 5
147 5
146 5
145 6
144 6
143 7
142 6
141 5
140 5
139 5
138 5
137 5
137 6
137 7
136 8
135 7
134 6
133 5
132 4
131 4
130 4
129 3
128 3
127 3
126 3
126 4
126 5
125 6
124 5
123 4
122 4
121 3
120 2
119 2
