114 4
114 5
114 6
114 7
114 8
114 9
114 10
113 11
112 10
111 9
110 9
109 9
109 10
109 11
108 12
107 11
106 11
105 10
104 9
103 8
102 7
101 7
100 7
100 8
100 9
100 10
99 11
98 11
97 11
97 12
97 13
96 14
95 14
94 14
93 14
93 15
92 16
91 16
90 16
89 16
88 16
88 17
88 18
87 19
86 19
85 19
85 20
84 21
83 22
82 22
81 22
80 22
79 22
78 22
78 23
78 24
77 25
76 25
75 25
74 26
73 26
72 26
72 27
71 28
70 28
69 28
68 28
67 29
66 29
65 30
64 31
63 32
62 32
61 32
60 33
59 34
58 34
57 35
56 36
55 37
54 38
53 38
52 39
51 40
50 41
49 41
49 42
48 43
47 44
46 44
45 45
44 46
43 47
43 48
42 49
41 49
41 50
40 51
39 51
38 52
37 52
36 52
35 52
34 52
33 52
32 51
31 51
30 51
29 51
28 51
27 50
26 50
25 50
24 50
23 50
22 49
21 49
20 49
19 49
18 48
17 48
16 48
15 48
14 48
13 48
12 48
11 48
10 48
9 47
8 47
7 47
6 47
5 47
4 47
3 47
2 47
2 48
2 49
2 50
3 51
3 52
3 53
3 54
3 55
4 56
5 57
5 58
5 59
6 60
6 61
7 61
8 61
9 61
10 61
11 61
12 62
11 63
10 63
9 63
8 64
7 64
7 65
7 66
7 67
7 68
8 69
7 70
7 71
6 72
6 73
6 74
6 75
6 76
6 77
6 78
7 78
8 78
9 78
10 78
11 77
12 77
13 77
14 76
15 76
16 76
17 76
18 75
19 75
20 75
21 75
22 74
23 74
24 74
25 73
26 73
27 73
28 72
29 72
30 72
31 72
32 71
33 71
34 71
35 71
36 71
37 71
38 71
39 71
40 71
41 72
41 73
41 74
42 74
43 75
44 75
45 75
46 76
47 77
48 77
49 78
49 79
50 80
51 80
52 80
53 81
54 82
55 82
56 82
57 83
58 84
59 84
60 85
61 86
61 87
61 88
61 89
62 89
63 89
64 89
65 89
66 89
67 89
68 89
69 90
70 90
71 90
72 90
73 90
74 91
75 91
76 91
77 91
78 92
79 92
80 92
81 92
82 92
83 92
84 93
85 93
86 93
87 93
88 93
89 94
90 94
91 94
92 94
93 95
93 96
94 96
95 96
96 95
97 95
98 96
99 96
100 96
101 96
102 96
103 97
103 98
103 99
102 100
102 101
102 102
102 103
102 104
103 104
104 104
105 104
106 104
107 104
107 103
108 102
108 101
108 100
108 99
109 98
110 97
111 96
112 96
113 96
114 97
115 97
116 97
117 97
118 96
119 96
120 96
121 96
122 96
123 96
124 95
125 95
126 94
127 94
128 95
128 96
129 96
130 97
130 98
130 99
130 100
131 100
132 100
133 99
134 98
135 97
135 96
136 95
136 94
136 93
136 92
137 91
138 90
138 89
139 88
140 88
141 87
142 87
143 86
144 85
145 84
146 83
147 83
148 82
149 81
150 80
151 79
152 78
153 78
154 77
155 76
155 75
156 74
157 73
158 72
159 72
160 71
160 70
161 69
161 68
160 67
161 66
162 65
162 64
163 63
163 62
164 61
165 60
165 59
166 58
166 57
166 56
166 55
167 54
167 53
166 52
165 51
166 50
166 49
166 48
166 47
166 46
165 46
164 45
163 44
162 43
163 42
162 42
161 41
162 40
161 40
160 39
159 38
158 37
159 36
158 36
157 35
158 34
157 34
156 33
155 33
154 32
153 31
152 30
151 29
150 29
149 28
148 27
147 27
146 27
145 26
144 26
143 25
142 25
141 24
140 24
139 23
138 23
137 23
136 22
135 21
134 21
133 21
132 20
131 20
130 20
129 20
128 19
127 19
126 19
125 18
124 18
123 17
124 16
123 16
122 15
123 14
123 13
122 13
121 12
122 11
121 11
120 10
121 9
121 8
121 7
121 6
120 6
119 5
118 4
117 4
116 4
115 4
