114 2
113 3
112 3
111 3
110 3
109 3
108 4
107 4
106 4
105 4
104 4
103 5
102 5
101 5
100 5
99 6
98 6
97 7
96 7
95 7
94 7
93 7
92 8
91 8
90 8
89 8
88 9
87 9
86 9
85 10
84 11
83 11
82 11
81 11
80 11
79 12
78 12
77 13
76 14
75 14
74 14
74 15
73 16
72 16
71 16
70 16
69 17
68 17
67 17
67 18
67 19
66 20
65 20
64 21
63 21
62 21
62 22
61 23
60 23
59 24
58 25
57 25
56 26
55 26
54 26
53 27
52 28
51 28
51 29
50 30
49 30
48 31
48 32
47 33
46 33
46 34
45 35
44 35
43 35
42 34
41 34
40 33
39 33
38 32
37 32
36 32
35 31
34 31
33 31
32 31
31 31
30 30
29 30
28 30
27 29
26 29
25 29
24 29
23 29
22 29
21 29
20 29
19 29
18 29
17 29
16 29
15 29
14 29
13 29
12 29
11 29
10 29
9 29
9 30
9 31
8 32
7 32
6 32
5 32
4 31
3 31
2 31
2 32
2 33
2 34
3 35
4 35
5 35
6 35
7 35
8 35
9 35
10 35
11 36
12 36
13 36
14 37
15 37
16 38
17 39
17 40
18 41
18 42
18 43
18 44
18 45
18 46
18 47
19 48
19 49
19 50
19 51
20 52
19 53
19 54
19 55
19 56
18 57
18 58
18 59
18 60
18 61
18 62
18 63
17 64
17 65
17 66
17 67
17 68
16 69
15 70
14 71
13 71
12 71
11 72
10 73
10 74
10 75
10 76
11 76
12 76
13 76
14 76
15 76
16 76
17 76
18 76
19 76
20 76
21 76
22 76
23 76
24 75
25 75
26 75
27 75
28 75
29 75
30 75
31 75
32 74
33 74
34 73
35 73
36 73
37 72
38 72
39 72
40 71
41 71
42 70
43 70
44 69
45 69
46 68
47 68
48 67
49 67
50 66
51 66
52 66
53 66
54 66
55 67
54 68
53 69
52 70
51 71
50 71
49 72
48 73
47 74
46 75
46 76
46 77
46 78
46 79
46 80
47 80
48 80
49 80
50 80
51 80
52 81
53 82
54 83
55 84
56 84
57 84
58 85
59 85
60 86
61 86
62 86
63 87
64 87
65 88
66 88
67 89
68 89
69 89
70 89
71 89
72 89
73 89
74 90
74 91
75 92
76 92
77 92
78 92
79 92
80 93
81 93
82 93
83 93
84 93
85 94
86 94
87 94
88 95
89 95
90 95
91 95
92 95
93 95
94 95
95 95
96 95
97 95
98 94
99 95
100 95
101 95
102 95
103 95
104 96
105 96
106 96
107 96
108 95
109 95
110 95
111 94
112 94
113 94
114 94
115 94
116 94
117 93
118 93
119 92
120 92
121 91
122 91
123 90
124 89
125 89
126 90
126 91
126 92
127 92
128 92
129 92
130 92
131 92
132 92
133 91
134 91
135 91
136 91
137 91
138 92
138 93
138 94
137 95
137 96
137 97
137 98
137 99
137 100
136 101
136 102
136 103
136 104
136 105
136 106
137 107
138 107
139 107
140 107
141 106
142 105
143 104
144 103
144 102
145 101
145 100
146 99
146 98
147 97
147 96
148 95
148 94
149 93
150 92
150 91
151 90
151 89
151 88
151 87
152 86
153 85
154 85
155 84
156 84
157 83
158 82
159 82
160 81
161 81
162 80
163 80
164 79
165 78
166 78
167 77
168 76
169 76
170 75
171 75
172 74
173 73
174 73
175 72
176 71
177 71
178 70
179 69
180 68
181 68
182 67
183 67
184 66
185 66
186 65
187 65
188 64
189 64
190 63
191 62
191 61
192 60
192 59
193 58
193 57
193 56
192 56
191 55
190 54
191 53
190 53
189 52
188 51
187 50
186 49
185 48
184 47
185 46
184 46
183 45
184 44
183 44
182 43
181 42
182 41
182 40
182 39
181 39
180 38
181 37
181 36
180 36
179 35
180 34
180 33
179 33
178 32
177 31
176 30
177 29
176 29
175 28
174 27
173 26
172 25
171 24
170 23
169 23
168 22
167 21
167 20
168 19
168 18
169 17
168 17
167 16
166 16
165 16
164 15
163 14
162 14
161 13
160 12
159 11
158 10
157 9
156 8
155 8
154 8
153 7
152 7
151 6
150 5
149 5
148 5
147 5
146 4
145 4
144 4
143 4
142 3
141 3
140 3
139 3
138 3
137 3
136 3
135 2
134 2
133 2
132 2
131 2
130 2
129 2
128 2
127 2
126 2
125 2
124 2
123 2
122 2
121 2
120 2
119 2
118 2
117 2
116 2
115 2
