57 2
56 3
55 3
54 3
53 3
52 3
51 4
50 4
49 4
48 4
47 5
46 5
45 6
44 6
43 7
42 7
41 8
40 8
39 9
38 9
37 10
36 11
35 12
34 13
33 13
32 14
31 15
30 15
29 15
28 16
27 16
26 17
25 18
24 19
23 19
22 20
21 21
20 21
19 22
18 23
17 24
16 25
15 26
14 27
14 28
13 29
12 30
12 31
11 32
10 33
9 34
9 35
8 36
7 36
7 37
6 38
6 39
5 40
4 41
4 42
3 43
3 44
2 45
2 46
2 47
2 48
2 49
2 50
2 51
2 52
2 53
3 54
3 55
4 56
5 56
6 57
7 58
8 58
9 59
10 60
11 60
12 61
13 62
14 63
15 64
16 65
17 66
18 66
19 67
20 67
21 68
22 68
23 69
24 69
25 70
26 71
27 71
28 71
29 72
30 72
31 73
32 73
33 74
34 74
35 74
36 75
37 75
38 75
39 75
40 75
41 76
42 76
43 77
44 78
45 79
45 80
46 81
46 82
47 83
48 84
49 85
49 86
49 87
50 88
51 89
52 90
52 91
53 92
54 93
55 94
55 95
56 96
57 96
58 95
58 94
59 93
59 92
58 92
57 91
58 90
57 90
56 89
57 88
57 87
57 86
57 85
57 84
57 83
57 82
57 81
57 80
57 79
56 79
55 78
54 77
55 76
56 76
57 76
58 76
59 76
60 77
61 78
62 78
63 79
64 80
65 81
66 82
67 82
68 83
69 84
70 84
71 84
72 84
73 84
74 84
75 84
76 84
77 84
78 84
79 84
80 84
81 84
82 85
83 85
84 85
85 85
86 85
87 85
88 84
89 84
90 84
91 84
92 83
93 83
94 83
95 83
96 82
97 82
98 81
99 80
100 81
101 81
102 81
103 80
104 79
105 79
106 78
107 77
108 77
109 77
110 77
111 76
112 75
113 74
114 74
115 73
116 73
117 72
118 72
119 72
120 71
121 70
122 70
123 69
123 68
124 67
125 66
126 66
127 66
128 65
128 64
129 63
130 62
131 61
132 60
133 60
134 60
135 59
136 58
136 57
137 56
138 56
139 56
140 57
141 58
142 58
143 59
144 60
145 60
146 61
147 62
148 62
149 63
150 64
151 64
152 65
153 66
154 66
155 67
156 68
157 68
158 69
159 69
160 70
161 70
162 70
163 71
164 71
165 71
166 72
167 72
168 72
169 72
170 72
171 71
171 70
172 69
171 69
170 68
169 68
168 67
169 66
168 66
167 65
166 64
167 63
166 63
165 62
166 61
166 60
165 60
164 59
165 58
165 57
166 56
166 55
166 54
166 53
166 52
166 51
166 50
166 49
166 48
166 47
166 46
166 45
166 44
166 43
166 42
166 41
166 40
166 39
166 38
166 37
165 37
164 36
165 35
165 34
165 33
165 32
165 31
165 30
165 29
166 28
166 27
166 26
167 25
168 25
169 24
170 23
171 23
172 22
172 21
173 20
172 20
171 19
170 19
169 19
168 19
167 19
166 20
165 20
164 20
163 21
162 21
161 21
160 22
159 22
158 23
157 24
156 24
155 24
154 25
153 26
152 26
151 27
150 28
149 29
148 30
147 30
147 31
146 32
145 32
144 33
143 34
142 35
141 35
140 36
139 37
138 38
137 38
136 38
135 39
134 39
133 38
134 37
133 37
132 36
131 36
130 35
129 35
128 34
127 33
126 32
127 31
127 30
126 30
125 29
124 29
123 29
122 28
123 27
122 27
121 26
120 25
121 24
120 24
119 23
118 22
117 22
116 21
115 20
114 19
113 18
112 17
111 17
110 16
109 16
108 15
107 15
106 14
105 13
104 13
103 12
102 11
101 10
100 10
99 10
98 9
97 9
96 8
95 8
94 8
93 8
92 8
91 8
90 7
89 7
88 7
87 6
86 6
85 6
84 6
83 6
82 5
81 5
80 4
79 4
78 4
77 4
76 4
75 4
74 4
73 3
72 3
71 3
70 3
69 3
68 3
67 2
66 2
65 2
64 2
63 2
62 2
61 2
60 2
59 2
58 2
