140 2
139 3
138 3
137 3
136 4
135 5
134 5
133 6
132 6
131 6
130 7
129 8
128 8
127 9
126 10
125 11
124 12
123 12
122 13
121 13
120 14
119 15
118 15
117 15
116 16
115 16
114 17
113 17
112 18
111 18
110 18
109 18
108 19
107 19
106 19
105 19
104 19
103 19
102 19
101 19
100 19
99 19
98 19
97 20
96 20
95 20
94 20
93 20
92 20
91 20
90 20
89 20
88 20
87 20
86 20
85 20
84 20
83 20
82 20
81 20
80 20
79 21
78 21
77 21
76 21
75 21
74 21
73 22
72 22
71 22
70 22
69 23
68 23
67 23
66 23
65 23
64 23
63 23
62 23
61 24
60 24
59 24
58 23
57 23
56 23
55 23
55 24
54 25
53 25
52 26
51 26
50 26
49 26
48 26
47 27
46 27
45 28
44 28
43 28
42 29
41 29
40 29
39 29
38 29
37 29
36 29
35 29
34 29
33 29
32 30
31 30
30 30
29 30
28 30
27 30
26 30
25 30
24 31
23 31
22 31
21 31
20 31
19 31
18 32
17 32
16 33
15 34
14 34
13 34
12 35
11 36
10 36
9 37
8 37
7 37
6 38
5 38
4 39
3 40
2 40
2 41
2 42
2 43
2 44
2 45
3 46
4 47
4 48
5 48
6 49
7 50
8 51
9 51
10 52
11 52
12 53
13 53
14 53
15 54
16 54
17 55
18 55
19 55
20 55
21 55
22 55
23 56
24 56
25 56
26 56
27 57
28 57
29 57
30 58
31 58
32 58
33 58
34 58
35 58
36 58
37 58
38 58
39 59
40 59
41 59
42 59
43 60
44 61
45 61
46 61
47 61
48 61
49 61
50 61
51 62
52 62
53 62
54 62
55 62
56 62
57 62
58 63
59 63
60 63
61 63
62 64
63 65
63 66
64 66
65 66
66 65
67 66
68 66
69 66
70 67
71 68
72 68
73 68
74 69
75 69
76 70
77 70
78 70
79 71
80 72
81 72
82 72
83 72
84 73
85 73
86 73
87 74
88 74
89 74
90 75
91 75
92 75
93 75
94 76
95 76
96 76
97 76
98 76
99 77
100 77
101 77
102 77
103 78
104 78
105 78
106 78
107 78
108 78
109 79
110 79
111 79
112 79
113 79
114 79
115 79
116 79
117 79
118 79
119 79
120 79
121 79
122 79
123 79
124 79
125 79
126 79
127 80
128 80
129 80
130 79
131 79
132 79
133 79
134 79
135 79
136 79
137 79
138 79
139 79
140 79
141 79
142 79
143 79
144 79
145 79
146 78
147 78
148 78
149 78
150 78
151 78
152 77
153 77
154 77
155 77
156 77
157 76
158 76
159 76
160 76
161 76
162 75
163 75
164 75
165 75
166 75
167 74
168 74
169 74
170 74
171 73
172 73
173 73
174 73
175 73
176 72
177 72
178 72
179 72
180 71
181 71
182 71
183 71
184 70
185 70
186 70
187 70
188 69
189 69
190 69
191 68
192 68
193 68
194 68
195 67
196 67
197 66
198 65
199 64
200 64
201 64
202 63
203 63
204 62
205 62
206 61
207 60
208 59
209 59
210 59
211 59
212 58
213 58
214 58
215 57
216 57
217 56
218 57
218 58
218 59
218 60
218 61
218 62
219 62
220 62
221 62
222 62
223 62
224 62
225 62
226 62
227 61
227 60
228 59
228 58
228 57
228 56
228 55
229 54
230 53
230 52
231 51
232 50
233 50
234 49
235 49
236 49
237 48
238 48
239 48
240 48
241 48
242 48
243 47
244 47
245 47
246 46
247 46
248 46
249 46
250 45
251 45
252 45
253 45
254 44
255 44
256 44
257 44
258 43
259 43
260 43
261 43
262 43
263 43
264 42
265 42
266 42
267 42
268 41
269 41
270 41
271 41
272 41
273 41
274 41
275 41
276 42
277 42
278 42
279 43
280 44
281 45
282 45
283 46
283 47
284 47
285 48
286 48
287 49
287 50
288 51
289 52
289 53
290 53
291 54
292 55
293 56
294 56
295 57
296 58
297 58
298 59
299 59
300 60
301 61
302 61
303 61
304 61
305 61
306 61
307 61
308 60
309 59
309 58
310 57
310 56
311 55
311 54
311 53
311 52
310 52
309 51
310 50
310 49
310 48
310 47
310 46
311 45
312 44
313 43
314 43
315 42
316 42
317 41
318 41
319 41
320 40
321 40
322 39
323 39
324 38
325 38
326 37
327 37
328 36
329 35
330 34
331 33
332 33
333 34
334 34
335 35
336 35
337 35
338 35
339 35
340 35
341 35
342 34
342 33
343 32
343 31
344 30
344 29
344 28
345 27
345 26
346 25
347 25
348 24
348 23
349 22
350 21
351 20
351 19
352 18
352 17
352 16
352 15
353 14
353 13
353 12
354 11
354 10
354 9
355 8
355 7
354 7
353 6
352 5
351 4
350 4
349 4
348 4
347 4
346 5
345 5
344 5
343 5
342 6
341 6
340 6
339 7
338 7
337 7
336 8
335 8
334 8
333 9
332 9
331 9
330 10
329 10
328 11
327 11
326 12
325 12
324 12
323 13
322 13
321 13
320 14
319 14
318 15
317 15
316 15
315 16
314 16
313 16
312 16
311 17
310 17
309 18
308 18
307 19
306 19
305 19
304 20
303 20
302 20
301 21
300 21
299 21
298 21
297 22
296 22
295 22
294 23
293 23
292 23
291 23
290 24
289 24
288 24
287 25
286 25
285 26
284 26
283 25
282 25
281 25
280 25
279 25
278 24
277 24
276 24
275 24
274 24
273 24
272 24
271 24
270 24
269 24
268 24
267 24
266 23
265 23
264 22
263 21
262 20
261 20
260 19
259 18
260 17
260 16
259 16
258 15
257 15
256 14
255 14
254 14
253 15
252 15
251 15
250 15
249 16
248 16
247 17
246 18
245 18
244 19
243 19
242 20
241 21
240 22
239 22
238 22
237 22
236 22
235 21
234 21
233 21
232 21
231 21
230 21
229 22
228 22
227 22
226 22
225 22
224 22
223 22
222 22
221 22
220 22
219 22
218 22
217 22
216 22
215 21
214 21
213 21
212 21
211 21
210 21
209 21
208 21
207 21
206 21
205 21
204 21
203 21
202 21
201 21
200 21
199 21
198 21
197 21
196 21
195 21
194 20
193 19
192 19
191 19
190 19
189 20
188 20
187 20
186 19
185 19
184 19
183 19
182 19
181 19
180 18
179 18
178 18
177 18
176 18
175 18
174 18
173 18
172 18
171 18
170 18
169 17
168 17
167 17
166 17
165 17
164 17
163 17
162 17
161 17
160 17
159 18
158 18
157 18
156 18
155 17
154 17
153 16
154 15
153 15
152 14
153 13
153 12
153 11
152 11
151 10
150 9
151 8
151 7
151 6
150 6
149 5
148 4
147 3
146 3
145 2
144 2
143 2
142 2
141 2
