54 2
53 3
52 3
51 3
50 4
49 5
48 5
47 6
46 6
45 7
44 7
43 7
42 8
41 8
40 9
39 9
38 10
38 11
37 12
36 13
35 13
34 14
33 15
32 15
31 15
30 16
29 17
28 17
27 18
26 18
25 19
24 19
23 20
22 20
21 21
20 22
19 22
19 23
18 24
17 24
16 25
15 26
14 27
14 28
13 29
12 29
11 30
10 31
9 32
8 33
8 34
7 35
6 36
5 37
5 38
5 39
5 40
4 41
4 42
3 43
2 44
2 45
2 46
2 47
2 48
2 49
2 50
2 51
2 52
2 53
2 54
2 55
3 55
4 56
5 57
5 58
6 59
7 60
8 61
9 62
10 63
11 64
12 65
13 65
14 66
14 67
15 68
16 69
17 69
18 70
19 71
20 71
21 72
22 73
23 74
24 74
25 75
26 76
27 76
28 77
29 77
30 78
31 78
32 78
33 79
34 79
35 79
36 79
37 80
38 81
39 81
40 82
41 83
42 84
42 85
43 85
44 85
45 86
46 87
47 87
48 87
49 88
49 89
50 89
51 90
52 90
53 91
54 91
55 91
56 90
56 89
57 88
57 87
56 87
55 86
56 85
57 85
58 85
59 85
60 86
61 86
62 86
63 86
64 85
64 84
65 83
65 82
66 81
67 81
68 81
69 81
70 81
71 81
72 81
73 81
74 81
75 82
76 82
77 82
78 82
79 82
80 82
81 82
82 82
83 82
84 82
85 81
86 81
87 81
88 81
89 81
90 81
91 81
92 80
93 80
94 80
95 79
96 79
97 78
98 78
99 77
100 77
101 77
102 76
103 76
104 76
105 75
106 74
107 74
108 73
109 72
110 71
111 71
112 70
113 69
114 69
115 68
116 67
117 67
118 66
119 65
120 65
121 64
122 63
123 63
124 63
125 62
126 61
127 61
128 60
129 60
130 60
131 59
132 58
133 58
134 57
135 57
136 56
136 55
137 54
138 54
139 55
140 56
141 56
142 56
143 56
144 57
145 58
146 58
147 59
148 59
149 60
150 60
151 60
152 61
153 61
154 62
155 62
156 63
157 63
158 63
159 64
160 64
161 64
162 65
163 65
164 65
165 65
166 65
167 65
168 64
168 63
169 62
169 61
169 60
169 59
169 58
169 57
168 57
167 56
166 56
165 56
164 56
163 55
164 54
164 53
163 53
162 52
163 51
163 50
162 50
161 49
160 48
161 47
160 47
159 46
160 45
161 44
161 43
162 42
162 41
163 40
163 39
163 38
163 37
163 36
163 35
164 34
164 33
164 32
165 31
165 30
166 29
166 28
166 27
167 26
168 25
168 24
169 23
170 23
171 22
172 22
173 21
174 20
175 20
176 20
177 19
178 18
179 18
180 18
181 17
182 17
183 17
184 17
185 17
186 17
187 16
187 15
186 14
185 14
184 14
183 14
182 14
181 14
180 14
179 14
178 14
177 14
176 14
175 14
174 15
173 15
172 15
171 15
170 15
169 15
168 15
167 16
166 16
165 17
164 17
163 17
162 18
161 18
160 19
159 19
158 20
157 20
156 21
155 21
154 22
153 23
152 24
151 24
150 25
149 25
148 26
147 26
146 27
145 28
144 28
143 28
142 29
141 29
140 30
139 31
138 30
137 30
136 30
135 30
134 30
133 30
132 29
131 29
130 28
129 28
128 28
127 27
126 27
125 26
124 26
123 26
122 25
121 24
120 24
119 24
118 23
117 22
116 22
115 21
114 21
113 20
112 20
111 19
110 19
109 18
108 17
107 16
106 16
105 15
104 14
103 14
102 13
101 13
100 12
99 12
98 11
97 10
96 10
95 10
94 9
93 9
92 8
91 8
90 8
89 7
88 7
87 7
86 6
85 6
84 6
83 6
82 6
81 5
80 5
79 5
78 4
77 4
76 4
75 4
74 4
73 3
72 3
71 3
70 3
69 3
68 3
67 3
66 3
65 3
64 3
63 3
62 3
61 2
60 2
59 2
58 2
57 2
56 2
55 2
