59 2
58 3
57 3
56 3
55 3
54 3
53 3
53 4
52 5
51 5
50 5
49 6
48 6
47 6
46 6
46 7
45 8
44 8
43 9
42 10
41 10
40 10
39 10
38 11
37 12
36 13
35 13
34 13
34 14
34 15
33 16
33 17
33 18
32 19
32 20
31 21
30 22
29 22
28 23
27 24
26 25
25 26
24 27
23 28
22 29
21 30
20 30
19 31
18 32
17 33
16 34
15 35
14 35
14 36
13 37
12 38
12 39
11 40
11 41
10 42
9 43
8 44
8 45
8 46
8 47
7 48
6 49
6 50
5 51
5 52
5 53
4 54
3 54
2 55
2 56
2 57
2 58
2 59
2 60
2 61
2 62
2 63
2 64
3 65
4 65
5 66
5 67
6 67
7 68
8 69
9 69
10 70
11 71
12 72
13 72
14 73
14 74
15 74
16 75
17 76
18 77
19 77
20 78
21 78
22 79
23 80
24 81
25 82
26 82
27 83
28 84
29 85
29 86
30 86
31 86
32 86
33 87
34 88
35 88
36 89
37 90
37 91
37 92
37 93
38 94
38 95
38 96
38 97
39 98
39 99
39 100
40 101
40 102
40 103
40 104
41 105
42 106
43 107
43 108
44 109
45 110
46 111
46 112
46 113
47 113
48 112
48 111
49 110
49 109
49 108
50 107
50 106
50 105
50 104
50 103
51 102
51 101
52 100
52 99
52 98
52 97
53 96
53 95
53 94
53 93
52 93
51 92
50 91
51 90
51 89
52 88
53 88
54 88
55 88
56 88
57 88
58 88
59 88
60 88
61 89
62 89
63 90
64 90
65 91
66 92
67 92
68 93
69 94
70 95
71 96
71 97
72 97
73 98
74 99
74 100
75 100
76 101
77 101
78 101
79 101
80 101
81 101
82 102
83 102
84 102
85 102
86 102
87 102
88 101
89 101
90 101
91 101
92 101
93 100
94 100
95 100
96 100
97 99
98 99
99 99
100 99
101 99
102 99
103 98
103 97
104 96
104 95
104 94
105 93
106 93
107 92
108 92
109 92
110 93
111 93
112 93
113 93
114 92
115 92
116 91
117 91
118 90
119 89
120 88
121 88
122 87
123 86
124 86
125 85
126 84
127 83
128 82
129 81
130 81
131 81
132 80
133 79
133 78
134 77
135 77
136 77
137 78
138 79
139 80
140 81
141 82
142 82
143 83
144 84
145 84
146 85
147 86
148 86
149 87
150 88
151 88
152 89
153 89
154 90
155 90
156 90
157 91
158 91
159 91
160 91
161 91
162 91
163 91
164 91
165 91
166 90
166 89
167 88
166 88
165 87
164 87
163 87
162 86
161 85
160 84
159 83
160 82
159 82
158 81
159 80
158 80
157 79
158 78
157 77
157 76
158 75
158 74
158 73
158 72
158 71
158 70
158 69
158 68
159 67
159 66
159 65
159 64
159 63
159 62
160 61
160 60
160 59
160 58
160 57
160 56
160 55
160 54
160 53
161 52
161 51
161 50
162 49
162 48
163 47
163 46
164 45
165 44
166 43
167 42
168 42
169 41
170 41
171 40
172 40
173 40
174 40
175 40
176 40
177 39
178 38
178 37
177 36
176 36
175 36
174 36
173 36
172 36
171 36
170 36
169 36
168 36
167 36
166 36
165 36
164 36
163 36
162 37
161 37
160 37
159 37
158 37
157 38
156 38
155 39
154 40
153 40
152 40
151 41
150 42
149 42
148 43
147 43
146 44
145 44
144 45
143 45
142 46
141 47
140 47
139 48
138 49
137 50
136 50
135 51
134 51
133 52
132 52
131 53
130 53
129 53
128 53
127 53
126 52
127 51
127 50
128 49
128 48
128 47
128 46
129 45
129 44
130 43
130 42
131 41
132 40
133 39
133 38
134 37
134 36
134 35
133 35
132 34
131 34
130 33
129 32
128 31
127 30
126 30
125 29
126 28
125 28
124 27
123 26
122 25
123 24
122 24
121 23
120 22
119 21
118 20
117 19
116 18
115 17
114 16
113 16
112 15
111 15
110 14
109 13
108 12
107 12
106 11
105 11
104 10
103 10
102 10
101 9
100 8
99 8
98 7
97 7
96 7
95 7
94 6
93 5
92 5
91 5
90 4
89 4
88 3
87 3
86 3
85 4
84 5
83 5
82 6
81 5
80 4
79 4
78 4
77 5
76 5
75 4
74 3
73 3
72 3
71 3
70 3
69 3
68 3
67 3
66 3
65 3
64 3
63 3
62 3
61 2
60 2
