117 2
117 3
116 4
115 4
114 4
113 4
112 4
111 4
110 4
109 4
108 4
107 4
106 4
105 5
104 5
103 5
102 5
101 5
100 5
99 5
98 5
97 5
96 6
95 6
94 6
93 6
92 7
91 7
90 7
89 7
88 7
87 7
86 7
85 7
84 8
83 9
82 9
81 9
80 9
79 9
79 10
78 11
77 11
76 11
75 12
74 12
73 12
72 13
71 13
70 14
69 14
68 14
68 15
67 16
66 16
65 17
64 17
63 18
62 19
61 19
61 20
60 21
59 21
58 21
57 22
56 23
55 24
54 25
53 26
52 26
52 27
51 28
50 29
49 29
49 30
48 31
47 31
46 32
46 33
46 34
46 35
47 36
47 37
47 38
47 39
47 40
47 41
47 42
48 43
47 44
46 44
45 43
44 42
43 41
42 40
41 39
40 39
39 38
38 37
37 36
36 35
35 34
34 34
33 33
32 32
31 31
30 30
29 29
28 29
27 28
26 27
25 26
24 26
23 26
22 25
21 25
20 25
19 24
18 24
17 24
16 24
15 23
14 23
13 23
12 23
11 23
10 23
9 23
8 23
7 23
6 23
5 23
4 22
3 22
2 22
2 23
2 24
2 25
2 26
3 27
4 27
5 27
6 27
7 27
8 28
9 28
10 28
11 28
12 29
13 29
14 30
15 30
16 31
17 32
18 33
18 34
18 35
19 35
20 36
20 37
20 38
20 39
20 40
20 41
19 42
19 43
19 44
19 45
19 46
19 47
19 48
19 49
19 50
19 51
18 52
18 53
18 54
18 55
19 56
19 57
19 58
19 59
19 60
19 61
19 62
19 63
19 64
19 65
19 66
19 67
20 68
20 69
20 70
20 71
21 72
21 73
21 74
21 75
21 76
20 77
20 78
19 79
18 80
17 81
16 81
15 82
14 82
13 83
12 83
11 83
10 83
9 83
8 84
7 84
7 85
7 86
7 87
8 87
9 87
10 88
11 88
12 89
12 90
13 90
14 90
15 89
16 89
17 88
18 88
19 88
20 87
21 87
22 87
23 87
24 86
25 86
26 86
27 85
28 84
29 83
30 83
31 82
32 81
33 81
34 80
35 80
36 79
37 78
38 78
39 77
40 77
41 77
42 77
43 77
44 77
45 77
46 78
47 78
48 78
49 78
50 78
51 79
52 80
53 81
53 82
54 83
55 83
56 83
57 84
57 85
58 85
59 86
60 87
61 88
61 89
62 89
63 90
64 91
65 92
66 92
67 93
68 94
69 94
70 95
71 96
72 97
72 98
73 98
74 97
75 96
76 96
77 96
78 96
79 96
80 96
81 97
82 97
83 97
84 98
85 98
86 98
87 98
88 98
89 98
90 98
91 98
92 99
93 99
94 99
95 99
96 100
96 101
97 101
98 101
99 100
100 100
101 99
102 99
103 99
104 100
104 101
105 101
106 101
107 101
108 101
109 101
110 101
111 101
112 100
113 101
114 101
115 100
115 99
116 98
117 97
118 97
119 96
120 96
121 96
122 96
123 96
124 97
125 98
125 99
125 100
124 101
124 102
124 103
124 104
124 105
124 106
124 107
124 108
124 109
123 110
122 111
121 111
121 112
121 113
121 114
121 115
122 115
123 115
124 115
125 115
126 114
127 113
128 112
129 111
130 111
131 110
131 109
132 108
133 107
134 106
134 105
135 104
135 103
136 102
137 101
137 100
138 99
139 98
140 98
141 98
142 98
143 98
144 98
145 97
146 96
147 96
148 96
149 97
150 98
151 98
152 98
153 99
154 100
155 101
155 102
156 102
157 101
157 100
158 99
158 98
158 97
158 96
158 95
158 94
158 93
158 92
158 91
159 90
160 90
161 89
162 89
163 89
164 88
165 88
166 87
167 86
168 85
169 84
170 84
171 84
172 84
173 84
174 83
174 82
175 81
176 81
177 80
178 79
179 78
180 77
181 76
182 75
183 74
184 73
185 72
186 71
187 70
187 69
188 68
188 67
189 66
189 65
189 64
189 63
188 63
187 62
188 61
188 60
188 59
187 59
186 58
187 57
186 57
185 56
184 55
185 54
185 53
185 52
184 52
183 51
184 50
184 49
184 48
183 48
182 47
181 47
180 46
181 45
181 44
181 43
181 42
181 41
181 40
181 39
180 39
179 38
178 37
177 36
176 36
175 35
174 34
173 34
172 34
171 34
170 34
169 33
168 32
167 32
166 31
165 30
164 29
163 28
162 28
161 28
160 27
161 26
160 26
159 25
158 25
157 24
158 23
157 23
156 22
155 21
154 20
155 19
155 18
154 18
153 17
152 16
151 15
150 14
149 14
148 13
147 12
146 12
145 11
146 10
145 10
144 9
143 9
142 10
141 9
140 8
139 7
138 6
137 6
136 6
135 6
134 6
133 6
132 5
131 5
130 4
129 3
128 3
127 4
126 5
125 4
124 4
123 4
122 5
121 5
120 4
119 3
118 2
