104 2
103 3
103 4
103 5
102 6
101 6
100 6
99 6
98 7
97 7
96 7
95 7
94 8
93 8
92 9
91 9
90 10
89 9
88 8
87 8
86 9
85 9
84 10
83 11
83 12
83 13
82 14
81 13
80 13
79 13
78 12
77 12
76 12
76 13
76 14
76 15
75 16
74 17
73 18
72 18
72 19
71 20
70 20
69 21
68 22
67 22
67 23
66 24
65 24
65 25
64 26
63 26
63 27
62 28
61 28
61 29
60 30
59 30
58 30
58 31
58 32
58 33
58 34
57 35
57 36
57 37
57 38
57 39
57 40
57 41
57 42
58 43
58 44
58 45
58 46
58 47
58 48
58 49
59 49
60 48
61 49
61 50
61 51
60 52
59 51
58 51
57 51
56 50
55 50
54 49
53 48
52 48
51 47
50 46
49 46
48 45
47 44
46 43
45 42
44 42
43 41
42 40
41 40
40 39
39 38
38 38
37 37
36 37
35 36
34 36
33 35
32 35
31 34
30 34
29 33
28 33
27 32
26 32
25 32
24 32
23 31
22 31
21 31
20 31
19 31
18 31
17 32
16 32
15 32
14 32
13 32
12 32
11 32
10 33
9 33
8 33
7 33
6 33
5 34
4 34
3 35
2 35
2 36
2 37
2 38
3 38
4 38
5 38
6 38
7 38
8 38
9 38
10 38
11 38
12 38
13 38
14 38
15 38
16 38
17 39
18 39
19 39
20 40
21 41
22 42
23 43
24 44
25 45
26 46
26 47
26 48
26 49
26 50
26 51
27 52
26 53
26 54
26 55
26 56
27 57
27 58
27 59
27 60
27 61
27 62
27 63
27 64
27 65
27 66
27 67
27 68
27 69
28 70
28 71
28 72
28 73
28 74
28 75
28 76
28 77
28 78
28 79
27 80
27 81
26 82
26 83
25 84
25 85
24 86
23 86
23 87
22 88
21 89
20 90
19 90
18 91
17 91
16 91
15 92
14 92
13 92
12 92
11 93
10 93
9 93
8 93
7 93
7 94
7 95
7 96
7 97
8 97
9 97
10 97
11 97
12 97
13 97
14 97
15 97
16 98
17 98
18 98
19 98
20 98
21 98
22 97
23 97
24 97
25 97
26 97
27 97
28 96
29 96
30 95
31 95
32 94
33 94
34 93
35 93
36 92
37 91
38 91
39 90
40 89
41 89
42 88
43 87
44 87
45 86
46 85
47 84
47 83
48 82
49 83
49 84
49 85
49 86
49 87
50 87
51 88
52 89
52 90
53 91
54 91
55 92
55 93
55 94
56 94
57 95
58 96
59 97
60 98
61 98
62 99
63 100
63 101
64 101
65 102
66 103
67 104
68 105
68 106
69 106
70 107
71 108
72 108
73 109
74 109
75 110
76 110
77 110
78 111
79 111
80 111
81 112
82 113
83 113
84 113
85 113
86 113
87 114
87 115
87 116
88 116
89 116
90 116
91 117
91 118
92 118
93 119
94 119
95 119
96 119
97 120
98 120
99 120
100 120
101 121
102 122
103 122
104 122
105 122
106 122
107 122
108 122
109 123
110 123
111 123
112 123
113 123
114 123
115 122
116 122
117 123
118 123
119 123
120 124
121 124
122 123
123 122
124 122
125 122
126 122
127 122
128 122
129 122
130 122
131 122
132 123
133 124
133 125
133 126
133 127
132 128
131 129
130 130
130 131
130 132
130 133
130 134
130 135
130 136
131 136
132 136
133 136
134 135
135 134
136 134
137 133
138 132
139 131
139 130
140 129
141 128
142 127
143 126
144 125
145 125
146 124
147 124
148 123
149 122
149 121
150 120
150 119
150 118
149 117
150 116
151 115
151 114
152 113
152 112
153 111
154 110
155 109
156 109
157 109
158 109
159 109
160 108
161 108
162 108
163 107
164 107
165 107
166 106
167 106
168 105
169 105
170 104
171 104
172 104
173 103
174 102
175 102
176 101
177 101
178 100
179 100
180 99
181 98
182 97
183 97
184 96
185 95
186 94
187 93
188 92
189 91
190 91
191 90
192 90
193 90
194 90
195 89
196 89
197 88
197 87
196 86
196 85
197 84
198 83
198 82
199 81
199 80
199 79
198 79
197 78
198 77
197 77
196 76
197 75
197 74
197 73
197 72
197 71
197 70
197 69
197 68
197 67
197 66
197 65
196 65
195 64
196 63
195 63
194 62
195 61
195 60
195 59
194 59
193 58
194 57
193 57
192 56
191 55
192 54
192 53
191 53
190 52
189 51
188 50
187 49
186 48
185 47
184 46
185 45
184 45
183 44
184 43
183 43
182 42
181 42
180 41
181 40
180 40
179 39
178 39
177 38
176 37
175 36
174 35
173 35
172 34
173 33
172 33
171 32
172 31
172 30
172 29
172 28
172 27
171 27
170 26
169 25
168 24
169 23
168 23
167 22
166 21
165 20
166 19
165 19
164 18
163 18
162 17
161 16
162 15
161 15
160 14
159 14
158 13
157 13
156 13
155 12
154 11
153 10
152 9
151 9
150 9
149 10
148 9
147 8
146 8
145 8
144 8
143 8
142 7
141 7
140 7
139 7
138 7
137 7
136 6
135 6
134 6
133 6
132 6
131 6
130 6
129 6
128 5
127 5
126 5
125 5
124 5
123 5
122 4
121 4
120 4
119 4
118 4
117 4
116 4
115 3
114 3
113 3
112 3
111 3
110 3
109 3
108 3
107 2
106 2
105 2
