106 2
105 3
104 3
103 3
102 3
101 4
100 4
99 4
98 4
97 5
96 5
95 5
94 6
93 6
92 6
91 7
90 7
89 7
88 7
87 7
86 7
85 8
84 8
83 8
82 8
81 8
80 8
79 9
78 9
77 9
76 9
75 10
74 11
73 11
72 11
71 12
70 12
69 13
68 14
67 15
66 15
66 16
65 17
64 17
63 17
63 18
62 19
61 19
60 19
59 20
58 21
57 21
57 22
56 23
55 24
54 25
53 26
52 27
52 28
51 29
50 30
49 31
49 32
48 33
48 34
47 35
46 36
46 37
46 38
46 39
45 40
45 41
45 42
45 43
45 44
45 45
45 46
45 47
45 48
46 49
46 50
47 51
48 51
49 52
50 53
51 54
52 55
53 55
54 56
54 57
53 58
52 58
51 59
50 58
49 58
48 58
47 57
46 57
45 57
44 57
43 57
42 58
41 58
40 58
39 58
38 57
37 56
36 55
36 54
36 53
37 52
36 52
35 51
34 51
33 50
32 49
31 48
30 47
29 46
28 46
27 45
26 44
25 44
24 43
23 42
22 42
21 41
20 41
19 41
18 40
17 40
16 40
15 39
14 39
13 39
12 38
11 38
10 38
9 38
8 38
7 38
6 38
5 39
4 39
3 39
3 40
2 41
2 42
2 43
3 44
4 44
5 44
6 45
7 46
8 47
9 48
9 49
10 50
11 51
11 52
11 53
11 54
11 55
11 56
11 57
12 58
12 59
13 60
13 61
14 62
14 63
14 64
14 65
14 66
14 67
15 68
15 69
15 70
14 71
14 72
14 73
14 74
13 75
12 76
11 77
11 78
10 79
10 80
9 81
8 82
7 82
6 83
6 84
6 85
7 86
8 86
9 86
10 86
11 87
12 87
13 87
14 87
15 87
16 87
17 87
18 87
19 87
20 86
21 86
22 86
23 86
24 85
25 85
26 85
27 84
28 84
29 84
30 83
31 83
32 83
33 82
34 82
35 81
36 80
37 80
38 80
39 79
40 79
41 79
42 78
43 78
44 78
45 77
46 77
47 77
48 76
49 76
50 76
51 76
52 76
53 76
54 75
55 75
56 76
56 77
55 78
54 79
53 80
52 81
52 82
51 83
50 84
49 85
49 86
49 87
49 88
49 89
49 90
49 91
49 92
49 93
49 94
50 95
51 95
52 96
53 97
54 98
55 99
56 100
57 101
58 101
59 101
60 102
61 103
62 103
63 104
64 104
65 105
66 106
67 106
68 106
69 107
70 107
71 107
72 108
73 108
74 108
75 109
76 109
77 109
78 109
79 110
80 110
81 110
82 111
83 111
84 111
85 111
86 111
87 111
88 111
89 111
90 111
91 112
92 112
93 112
94 112
95 112
96 112
97 111
98 111
99 111
100 110
101 110
102 110
103 109
104 108
105 107
106 107
107 107
108 106
109 106
110 105
111 105
112 104
113 104
114 103
115 102
116 101
116 100
117 99
117 98
118 97
119 96
119 95
120 94
121 93
122 92
123 92
124 93
123 94
123 95
123 96
123 97
124 98
124 99
124 100
124 101
124 102
125 103
125 104
125 105
126 106
126 107
126 108
126 109
126 110
127 111
128 112
129 112
130 111
131 110
131 109
132 108
133 107
133 106
134 105
134 104
134 103
135 102
135 101
135 100
136 99
136 98
136 97
136 96
137 95
137 94
137 93
137 92
137 91
137 90
138 89
139 89
140 88
141 88
142 88
143 87
144 87
145 86
146 85
147 85
148 84
149 83
150 82
151 81
152 80
153 80
154 79
155 78
156 78
157 77
158 76
159 76
160 75
161 74
162 74
163 73
164 72
165 71
166 70
167 70
168 69
169 68
170 67
171 67
172 66
173 66
174 65
174 64
175 63
175 62
174 62
173 61
174 60
174 59
175 58
176 57
177 56
177 55
178 54
178 53
177 53
176 52
175 51
174 50
173 49
174 48
173 48
172 47
171 46
172 45
171 45
170 44
169 43
170 42
169 42
168 41
169 40
168 40
167 39
166 38
165 37
166 36
165 36
164 35
163 35
162 34
163 33
162 33
161 32
160 32
159 31
158 30
157 29
156 28
155 28
154 27
153 26
152 26
151 25
150 24
149 23
148 22
147 21
146 21
145 20
144 19
143 19
142 18
141 18
140 17
139 16
140 15
139 15
138 14
139 13
138 13
137 12
136 12
135 11
134 10
135 9
134 9
133 8
132 8
131 8
130 8
129 8
128 7
129 6
128 6
127 5
126 4
125 4
124 4
123 5
122 5
121 4
122 3
121 3
120 2
119 2
118 2
117 3
116 3
115 3
114 3
113 3
112 3
111 3
110 3
109 2
108 2
107 2
