218 2
218 3
217 4
216 4
215 4
214 4
213 4
212 3
211 3
210 3
209 3
208 3
207 4
206 4
205 4
204 4
203 4
202 4
201 4
200 4
200 5
200 6
199 7
198 7
197 6
198 5
197 5
196 4
195 4
195 5
194 6
193 6
192 6
191 6
190 6
189 6
188 6
187 6
186 5
185 5
184 5
183 5
183 6
183 7
183 8
184 9
184 10
185 11
186 12
185 13
184 14
183 14
182 13
181 12
180 11
179 10
178 9
179 8
179 7
179 6
178 6
177 5
176 5
175 5
174 5
174 6
174 7
173 8
172 9
171 8
170 8
169 7
168 7
167 7
166 7
166 8
166 9
166 10
167 11
166 12
165 12
164 13
163 13
162 12
161 11
160 11
159 11
158 12
157 12
156 13
155 13
154 13
153 13
152 13
151 13
150 13
150 14
149 15
148 15
147 16
146 16
145 16
144 15
143 15
142 15
141 16
140 17
139 18
138 19
137 19
136 19
136 20
135 21
134 22
133 23
132 23
131 23
130 23
129 23
128 24
127 25
126 26
126 27
125 28
124 28
123 27
122 27
121 27
120 27
119 27
118 27
117 27
116 26
115 26
114 26
113 26
112 26
111 26
110 26
109 25
108 25
107 25
106 25
105 24
104 24
103 24
102 24
101 24
100 24
99 24
98 23
97 23
96 23
95 23
94 23
93 23
92 23
91 23
90 24
90 25
90 26
90 27
91 28
90 29
89 29
88 30
88 31
87 32
86 32
85 32
84 33
83 34
82 34
81 35
80 36
79 37
78 38
77 38
76 39
75 39
74 40
73 40
72 40
71 40
70 40
69 40
68 40
67 41
66 41
65 41
64 41
63 42
62 42
61 42
60 43
59 43
58 43
57 42
56 42
55 42
54 41
53 41
52 41
51 41
50 40
49 40
48 40
47 40
46 39
45 39
44 39
43 38
42 38
41 38
40 37
39 37
38 37
37 36
36 36
35 36
34 36
33 35
32 35
31 34
30 34
29 34
28 33
27 33
26 33
25 32
24 32
23 32
22 31
21 31
20 31
19 30
18 30
17 30
16 30
15 29
14 29
13 29
12 28
11 28
10 27
9 27
8 27
7 27
6 27
5 26
4 26
3 26
2 26
2 27
2 28
2 29
3 30
4 30
5 31
6 32
6 33
6 34
6 35
7 35
8 36
8 37
8 38
9 38
10 38
11 39
12 39
13 40
13 41
14 41
15 42
16 43
16 44
17 45
18 45
19 46
20 46
21 47
22 47
23 48
24 48
25 49
25 50
25 51
26 51
27 52
28 52
29 53
29 54
28 55
28 56
27 57
26 58
25 59
24 60
23 61
22 62
22 63
22 64
22 65
21 66
20 67
19 67
18 68
17 69
17 70
16 71
16 72
16 73
16 74
16 75
15 76
14 77
13 77
13 78
12 79
12 80
12 81
12 82
13 82
14 82
15 82
16 82
17 81
18 81
19 81
20 80
21 79
22 79
23 79
24 78
25 78
26 77
27 77
28 76
29 76
30 75
31 75
32 75
33 74
34 74
35 73
36 72
37 72
38 71
39 71
40 70
41 70
42 69
43 69
44 68
45 68
46 67
47 67
48 66
49 66
50 65
51 65
52 64
53 63
54 63
55 63
56 62
57 62
58 62
59 61
60 61
61 61
62 61
63 61
64 61
65 62
66 62
67 63
68 63
69 63
70 63
71 63
72 63
73 62
74 62
75 62
76 62
77 62
78 62
79 62
80 63
81 63
82 63
83 63
84 64
85 64
86 64
87 65
88 66
88 67
89 67
90 67
91 68
92 68
93 69
93 70
94 71
94 72
95 73
96 74
96 75
96 76
96 77
96 78
97 79
98 79
99 79
100 78
101 78
102 78
103 77
104 77
105 76
106 75
107 74
108 74
109 74
110 73
111 72
112 72
113 71
114 71
115 70
116 70
117 69
118 69
119 69
120 69
121 69
122 69
123 69
124 68
125 68
126 68
127 68
128 68
129 68
130 68
131 68
132 68
133 68
134 68
135 68
136 68
137 68
138 69
139 69
140 69
141 69
142 69
143 68
144 68
145 68
146 68
147 68
148 68
149 68
150 68
151 68
152 68
153 68
154 68
155 68
156 68
157 68
158 68
159 68
160 68
161 68
162 68
163 68
164 68
165 68
166 68
167 68
168 68
169 68
170 68
171 68
172 68
173 68
174 68
175 68
176 68
177 68
178 68
179 68
180 68
181 68
182 68
183 69
184 69
185 69
186 69
187 69
188 69
189 69
190 69
191 69
192 69
193 69
194 69
195 69
196 69
197 68
198 68
199 68
200 68
201 68
202 68
203 68
204 68
205 68
206 68
207 68
208 68
209 68
210 68
211 68
212 68
213 68
214 68
215 68
216 68
217 68
218 68
219 68
220 68
221 69
222 69
223 69
224 69
225 69
226 69
227 69
228 69
229 69
230 68
231 68
232 68
233 68
234 68
235 68
236 68
237 68
238 68
239 68
240 67
241 67
242 67
243 67
244 67
245 67
246 67
247 67
248 67
249 67
250 67
251 67
252 67
253 67
254 66
255 66
256 66
257 66
258 66
259 66
260 66
261 66
262 66
263 66
264 65
265 65
266 65
267 65
268 65
269 65
270 64
271 64
272 64
273 64
274 64
275 64
276 64
277 64
278 64
279 64
280 64
281 64
282 63
283 63
284 63
285 63
286 63
287 63
288 63
289 63
290 63
291 63
292 63
293 63
294 63
295 63
296 63
297 62
298 62
299 62
300 61
301 61
302 61
303 61
304 61
305 61
306 60
307 60
308 60
309 59
310 59
311 59
312 59
313 59
314 58
315 58
316 58
317 58
318 58
319 58
320 58
321 58
322 58
323 58
324 58
325 58
326 57
327 57
328 57
329 57
330 56
331 56
332 56
333 56
334 55
335 55
336 54
337 54
338 53
339 53
340 52
341 52
342 52
343 51
344 50
345 50
346 49
346 48
347 47
347 46
347 45
346 45
345 44
344 43
343 42
342 41
341 41
340 40
339 40
338 39
337 39
336 38
335 38
334 38
333 38
332 38
331 37
330 37
329 36
328 36
327 35
326 35
325 34
324 34
323 34
322 33
321 33
320 33
319 32
318 32
317 32
316 31
315 31
314 31
313 30
312 30
311 29
310 29
309 29
308 29
307 29
306 29
305 28
304 28
303 28
302 28
301 28
300 28
299 27
298 27
297 27
296 26
295 26
294 26
293 26
292 26
291 26
290 26
289 25
288 25
287 25
286 24
285 24
284 24
283 24
282 23
281 23
280 23
279 23
278 22
277 22
276 21
276 20
277 19
277 18
277 17
277 16
277 15
277 14
277 13
277 12
277 11
277 10
277 9
277 8
276 8
275 7
274 7
273 7
272 7
271 7
270 7
269 7
268 6
267 5
266 5
265 5
264 5
263 5
262 5
261 5
260 5
259 4
258 4
257 4
256 4
255 4
254 4
254 5
253 6
252 6
251 6
250 6
249 6
248 6
247 6
246 5
245 4
244 4
243 4
243 5
243 6
242 7
241 7
240 7
239 7
238 7
237 7
236 7
235 7
234 6
233 5
232 5
231 5
230 5
229 6
228 6
227 6
226 6
225 6
224 5
223 5
222 5
221 4
222 3
221 3
220 2
219 2
