187 2
186 3
185 3
184 3
183 3
182 3
181 4
180 4
179 4
178 5
177 5
176 5
175 6
174 7
173 8
172 8
171 9
170 10
169 11
168 11
167 12
166 13
165 13
165 14
164 15
163 15
162 16
161 17
160 17
159 18
158 18
157 18
156 18
155 19
154 19
153 19
152 19
151 19
150 19
149 19
148 19
147 19
146 19
145 19
144 19
143 19
142 19
141 19
140 19
139 19
138 19
137 19
136 19
135 19
134 19
133 19
132 19
131 18
130 18
129 18
128 18
127 18
126 18
125 18
124 18
123 18
122 18
121 18
120 18
119 18
118 18
117 18
116 18
115 18
114 18
113 18
112 18
111 19
110 19
109 19
108 19
107 19
106 19
105 19
104 19
103 19
102 19
101 19
100 19
99 19
98 19
97 19
96 19
95 19
94 19
93 19
92 19
91 19
90 19
89 20
88 20
87 20
86 20
85 20
84 21
83 21
82 21
81 22
80 22
79 22
78 22
77 22
76 22
75 22
74 23
73 23
72 23
71 23
70 23
69 23
68 23
67 24
66 24
65 24
64 24
63 24
62 24
61 25
60 25
59 25
58 26
57 26
56 26
55 26
54 27
53 27
52 27
51 27
50 27
49 28
48 28
47 28
46 29
45 29
44 29
43 29
42 29
41 30
40 30
39 30
38 31
37 31
36 32
35 33
34 33
33 33
32 34
31 34
30 34
29 35
28 35
27 35
26 35
25 36
24 36
23 36
22 36
21 37
20 37
19 37
18 38
17 38
16 38
15 39
14 39
13 40
12 40
11 41
10 41
9 42
8 42
7 42
6 43
5 43
4 44
4 45
4 46
4 47
4 48
5 49
6 49
7 50
8 51
9 51
10 52
9 53
8 54
7 54
6 54
5 54
4 54
3 54
2 55
2 56
2 57
2 58
2 59
2 60
3 61
3 62
4 63
5 64
6 65
7 65
8 66
9 66
10 67
11 67
12 67
13 68
14 68
15 69
16 69
17 69
18 70
19 70
20 71
21 71
22 72
23 72
24 72
25 73
26 73
27 74
28 74
29 74
30 75
31 75
32 75
33 75
34 75
35 75
36 75
37 76
38 76
39 77
40 77
41 77
42 77
43 77
44 78
45 78
46 78
47 79
48 79
49 79
50 79
51 80
52 80
53 80
54 80
55 81
56 81
57 81
58 81
59 82
60 82
61 82
62 82
63 83
64 83
65 83
66 83
67 83
68 83
69 84
70 84
71 84
72 84
73 84
74 84
75 84
76 84
77 84
78 85
79 85
80 85
81 86
82 86
83 87
84 88
85 88
86 89
87 89
88 89
89 90
90 90
91 91
92 91
93 91
94 92
95 92
96 93
97 93
98 93
99 93
100 94
101 94
102 95
103 95
104 95
105 95
106 95
107 95
108 95
109 96
110 96
111 95
111 94
112 93
113 92
114 91
114 90
115 89
114 89
113 88
112 88
111 88
110 88
109 88
108 88
107 87
106 86
107 85
108 85
109 85
110 85
111 85
112 85
113 85
114 85
115 85
116 85
117 85
118 85
119 85
120 86
121 86
122 86
123 86
124 85
125 85
126 85
127 85
128 85
129 85
130 85
131 85
132 85
133 85
134 85
135 85
136 85
137 85
138 85
139 85
140 85
141 85
142 84
143 84
144 84
145 84
146 84
147 84
148 84
149 85
150 85
151 85
152 84
153 84
154 84
155 85
156 85
157 85
158 85
159 85
160 85
161 85
162 85
163 85
164 84
165 84
166 84
167 84
168 84
169 84
170 84
171 84
172 84
173 84
174 84
175 84
176 84
177 84
178 84
179 84
180 83
181 83
182 83
183 83
184 83
185 83
186 83
187 83
188 83
189 83
190 83
191 83
192 84
193 84
194 85
195 86
196 86
197 87
198 88
199 89
199 90
200 90
201 90
202 91
203 92
204 93
205 93
206 93
207 94
208 95
209 95
210 95
211 95
212 96
213 96
214 96
215 96
216 96
217 95
217 94
218 93
217 93
216 92
215 91
216 90
215 90
214 89
213 88
214 87
213 87
212 86
213 85
212 85
211 84
212 83
212 82
213 81
214 80
215 79
216 79
217 79
218 79
219 78
220 78
221 78
222 78
223 78
224 77
225 77
226 77
227 76
228 76
229 76
230 76
231 77
232 77
233 77
234 77
235 76
236 75
237 74
238 74
239 74
240 74
241 74
242 74
243 74
244 74
245 74
246 74
247 73
248 72
249 72
250 72
251 72
252 71
253 71
254 72
255 72
256 72
257 72
258 71
259 70
260 70
261 70
262 70
263 70
264 70
265 70
266 70
267 70
268 69
269 69
270 68
271 68
272 68
273 68
274 68
275 68
276 68
277 69
278 70
279 70
280 71
281 72
282 72
283 73
284 74
285 74
286 75
287 75
288 76
289 77
290 78
291 79
292 79
293 79
294 80
295 80
296 81
297 81
298 82
299 82
300 82
301 83
302 83
303 83
304 84
305 84
306 84
307 85
308 85
309 86
310 86
311 86
312 86
313 87
314 87
315 88
316 88
317 88
318 88
319 89
320 89
321 90
322 90
323 90
324 90
325 90
326 90
327 90
328 90
329 90
330 90
331 89
331 88
332 87
332 86
331 86
330 85
329 85
328 85
327 84
328 83
327 83
326 82
325 81
324 80
323 80
322 79
321 78
322 77
321 77
320 76
319 76
318 75
319 74
318 74
317 73
316 73
315 72
314 71
313 70
312 70
311 69
310 68
309 67
308 67
307 66
306 65
305 65
304 64
305 63
304 62
304 61
305 60
305 59
306 58
307 57
307 56
308 55
309 54
310 54
311 53
312 52
313 52
314 51
314 50
315 49
316 48
317 47
318 47
319 46
319 45
320 44
321 43
322 42
323 42
324 41
325 40
326 40
327 39
327 38
328 37
328 36
328 35
328 34
327 34
326 33
325 33
324 33
323 33
322 33
321 33
320 33
319 34
318 34
317 34
316 34
315 34
314 34
313 34
312 35
311 35
310 35
309 35
308 36
307 36
306 36
305 36
304 37
303 37
302 37
301 38
300 38
299 39
298 39
297 39
296 40
295 41
294 41
293 42
292 42
291 43
290 43
289 44
288 45
287 45
286 46
285 47
284 47
283 48
282 49
281 49
280 50
279 51
278 52
277 52
276 53
275 53
274 53
273 52
272 51
271 51
270 50
269 50
268 49
267 49
266 49
265 49
264 49
263 49
262 49
261 48
260 48
259 47
258 46
257 46
256 45
255 45
254 45
253 46
252 45
251 45
250 44
249 43
248 42
247 42
246 42
245 42
244 42
243 43
242 43
241 42
240 42
239 41
238 40
237 40
236 40
235 40
234 40
233 40
232 40
231 39
230 39
229 38
228 37
227 37
226 36
225 36
224 36
223 36
222 36
221 36
220 36
219 35
218 35
217 34
216 34
215 34
214 33
213 33
212 33
211 33
210 33
209 32
208 31
207 31
206 31
205 31
204 31
203 30
202 30
201 29
200 29
199 28
198 27
197 27
196 27
195 26
194 25
193 25
192 24
191 24
190 23
189 22
190 21
189 21
188 20
187 19
188 18
187 18
186 17
187 16
187 15
187 14
187 13
187 12
187 11
187 10
187 9
188 8
189 7
190 6
191 5
191 4
192 3
191 3
190 2
189 2
188 2
