117 2
116 3
115 3
114 3
113 3
112 3
111 3
110 3
109 3
108 3
107 3
106 3
105 3
104 3
103 4
102 4
101 4
100 4
99 5
98 5
97 5
96 5
95 5
94 6
93 6
92 6
91 6
90 6
89 6
88 6
87 7
86 7
85 7
84 8
83 8
82 8
81 8
80 8
79 8
78 9
77 10
76 11
75 11
74 12
73 13
72 14
71 14
70 15
69 16
68 16
68 17
67 18
66 19
65 19
64 19
63 20
62 21
61 22
61 23
61 24
60 25
59 26
58 27
57 28
57 29
56 30
56 31
56 32
55 33
55 34
54 35
54 36
53 37
52 37
51 38
51 39
50 40
50 41
50 42
49 43
48 43
47 43
46 42
45 42
44 42
43 41
42 40
41 40
40 39
39 39
38 38
37 38
36 37
35 37
34 36
33 36
32 35
31 35
30 34
29 34
28 34
27 33
26 33
25 33
24 33
23 32
22 32
21 32
20 32
19 32
18 32
17 32
16 32
15 32
14 32
13 32
12 32
11 32
10 32
9 32
8 32
7 32
6 33
5 33
4 33
3 33
2 33
2 34
2 35
2 36
3 37
4 37
5 37
6 37
7 37
8 37
9 37
10 37
11 37
12 37
13 37
14 38
15 38
16 38
17 38
18 39
18 40
19 41
20 42
21 43
22 44
22 45
23 46
23 47
23 48
23 49
23 50
23 51
23 52
23 53
23 54
22 55
21 55
21 56
20 57
20 58
20 59
20 60
21 61
21 62
21 63
21 64
21 65
21 66
21 67
21 68
20 69
20 70
20 71
20 72
20 73
20 74
20 75
20 76
19 77
19 78
19 79
18 80
17 80
16 80
15 81
14 81
13 81
12 82
11 82
10 82
9 82
8 82
7 82
6 82
5 82
4 82
3 82
3 83
3 84
3 85
3 86
4 86
5 87
6 87
7 87
8 87
9 87
10 88
11 88
12 88
13 88
14 88
15 88
16 88
17 88
18 88
19 88
20 88
21 88
22 87
23 87
24 87
25 86
26 86
27 86
28 86
29 86
30 85
31 85
32 85
33 84
34 84
35 83
36 83
37 82
38 82
39 82
40 81
41 81
42 81
43 80
44 79
45 79
46 79
47 78
48 78
49 77
50 77
51 78
51 79
51 80
51 81
51 82
51 83
51 84
52 85
52 86
53 86
54 87
54 88
55 89
55 90
56 91
57 92
57 93
58 93
59 94
59 95
60 95
61 95
62 96
62 97
63 97
64 98
65 99
66 99
67 100
68 101
69 101
70 102
71 103
72 103
73 103
74 104
74 105
75 105
76 105
77 106
78 107
79 107
80 108
81 108
82 109
83 109
84 109
85 109
86 110
87 110
88 110
89 110
90 110
91 111
91 112
91 113
92 113
93 113
94 113
95 112
96 112
97 113
98 113
99 113
100 113
101 113
102 112
103 112
104 111
105 111
106 111
107 111
108 111
109 111
110 111
111 110
112 110
113 109
114 109
115 109
116 108
117 108
118 108
119 108
120 108
121 107
122 106
123 106
124 107
125 107
126 106
127 105
128 105
129 105
130 104
131 105
131 106
131 107
131 108
131 109
132 110
132 111
133 112
133 113
133 114
134 115
134 116
134 117
134 118
135 118
136 118
137 118
138 118
139 118
140 118
141 117
142 116
143 115
144 114
145 113
146 112
147 111
148 110
148 109
149 108
149 107
150 106
150 105
151 104
151 103
152 102
152 101
153 100
153 99
154 98
155 98
156 98
157 98
158 97
159 97
160 96
161 96
162 96
163 95
164 95
165 94
166 94
167 93
168 93
169 92
170 92
171 91
172 90
173 89
174 88
175 88
176 87
177 87
178 86
179 85
180 85
181 84
182 83
183 82
184 82
185 81
186 80
187 80
188 79
189 78
190 77
191 76
192 75
193 75
194 74
194 73
195 72
196 71
197 70
197 69
198 68
198 67
199 66
199 65
199 64
199 63
199 62
199 61
199 60
199 59
199 58
198 58
197 57
198 56
197 56
196 55
197 54
196 54
195 53
196 52
196 51
195 51
194 50
195 49
195 48
194 48
193 47
194 46
194 45
193 45
192 44
191 43
190 42
189 41
188 40
187 39
188 38
187 38
186 37
185 36
184 35
183 34
182 33
181 32
180 31
179 30
178 29
177 29
176 28
175 27
174 27
173 26
172 25
171 24
170 23
169 23
168 22
167 21
166 21
165 21
164 20
163 20
162 19
161 19
160 18
159 18
158 17
157 16
156 16
155 15
156 14
156 13
155 13
154 12
153 11
152 10
151 10
150 10
149 9
148 8
147 8
146 7
145 7
144 6
143 5
142 5
141 4
140 3
139 3
138 2
137 2
136 2
135 2
134 2
133 2
132 2
131 2
130 2
129 2
128 2
127 2
126 2
125 2
124 2
123 2
122 2
121 2
120 2
119 2
118 2
