89 2
89 3
88 4
87 4
86 5
85 6
84 6
83 7
82 8
82 9
81 10
80 11
79 12
78 13
78 14
78 15
77 16
76 17
75 18
75 19
74 20
73 20
72 20
71 20
70 20
69 20
68 21
67 21
66 21
65 21
64 21
63 22
62 22
61 22
60 22
59 22
58 23
57 23
56 23
55 23
54 24
53 24
52 24
51 24
50 24
49 24
48 24
47 24
46 25
45 25
44 25
43 25
42 26
41 26
40 26
39 27
38 27
37 27
36 27
35 28
34 28
33 29
32 29
31 29
30 29
29 30
28 30
27 30
26 31
25 31
24 31
23 32
22 32
21 32
20 33
19 33
18 34
17 34
16 34
15 34
14 35
13 35
12 36
11 36
10 36
9 37
8 37
7 37
6 38
5 38
4 39
3 39
3 40
3 41
3 42
2 43
2 44
2 45
2 46
2 47
3 48
4 49
5 49
6 50
7 50
8 51
9 52
10 52
11 52
12 53
13 54
14 55
15 55
16 55
17 56
18 56
19 56
20 57
21 57
22 57
23 58
24 58
25 58
26 59
27 59
28 59
29 59
30 60
31 60
32 61
33 61
34 61
35 62
36 62
37 62
38 62
39 63
40 63
41 63
42 63
43 63
44 63
45 63
46 63
47 64
47 65
48 65
49 65
50 65
51 65
52 66
53 66
54 66
55 66
56 66
57 66
58 67
59 68
59 69
60 70
60 71
60 72
60 73
60 74
61 75
61 76
62 77
63 78
63 79
63 80
64 81
65 82
66 82
67 82
68 81
68 80
69 79
70 78
71 77
71 76
72 75
72 74
73 73
74 72
74 71
75 70
76 70
77 70
78 70
79 70
80 71
81 71
82 72
83 72
84 72
85 72
86 72
87 72
88 72
89 72
90 72
91 72
92 72
93 72
94 72
95 72
96 72
97 72
98 72
99 72
100 72
101 72
102 72
103 72
104 72
105 72
106 72
107 72
108 72
109 72
110 72
111 72
112 72
113 72
114 72
115 72
116 72
117 72
118 72
119 72
120 72
121 72
122 72
123 72
124 72
125 72
126 72
127 71
128 71
129 71
130 71
131 71
132 71
133 71
134 71
135 71
136 71
137 71
138 71
139 71
140 71
141 71
142 70
143 70
144 70
145 70
146 70
147 69
148 69
149 69
150 69
151 69
152 69
153 69
154 68
155 68
156 68
157 68
158 69
158 70
159 70
160 71
161 72
162 73
163 74
164 75
165 76
166 77
167 78
168 78
169 79
170 80
171 80
172 81
173 81
174 82
175 82
176 81
176 80
177 79
177 78
176 78
175 77
176 76
175 76
174 75
175 74
174 74
173 73
172 72
171 71
172 70
171 70
170 69
169 69
168 68
169 67
170 67
171 66
172 66
173 65
174 65
175 64
176 64
177 64
178 63
179 62
180 62
181 62
182 62
183 62
184 61
185 61
186 60
187 60
188 60
189 59
190 59
191 58
192 58
193 58
194 58
195 57
196 57
197 57
198 56
199 55
200 55
201 55
202 55
203 55
204 54
205 54
206 54
207 53
208 53
209 52
210 52
211 52
212 52
213 52
214 52
215 51
216 50
217 50
218 50
219 50
220 50
221 50
222 49
223 48
224 48
225 48
226 48
227 48
228 48
229 47
230 47
231 47
232 47
233 48
234 48
235 49
236 50
237 51
238 52
239 53
240 54
241 55
242 56
243 57
243 58
244 59
245 60
246 61
247 62
248 63
249 64
250 65
251 66
252 66
253 67
254 68
255 69
256 70
257 70
258 71
259 72
260 72
261 73
262 74
263 74
264 75
265 76
266 76
267 77
267 78
268 78
269 78
270 78
271 78
272 78
273 78
274 78
275 78
276 77
276 76
277 75
277 74
277 73
276 73
275 72
274 71
273 71
272 70
271 69
272 68
272 67
272 66
271 66
270 65
269 64
268 63
267 62
266 61
265 60
266 59
265 59
264 58
265 57
264 57
263 56
262 56
261 56
260 55
261 54
261 53
261 52
260 52
259 51
258 51
257 50
258 49
257 49
256 48
257 47
257 46
256 46
255 45
256 44
256 43
256 42
255 42
254 41
255 40
256 40
257 40
258 39
258 38
259 37
259 36
259 35
260 34
261 34
262 33
262 32
263 31
263 30
264 29
265 29
266 28
267 28
268 28
269 27
269 26
270 25
271 25
272 24
272 23
273 22
274 21
275 21
276 20
277 20
278 19
278 18
279 17
279 16
279 15
280 14
281 14
282 14
283 13
284 12
284 11
285 10
284 10
283 9
282 9
281 9
280 9
279 9
278 9
277 9
276 9
275 10
274 10
273 10
272 11
271 11
270 11
269 12
268 12
267 13
266 13
265 14
264 14
263 15
262 15
261 16
260 16
259 16
258 17
257 18
256 18
255 19
254 19
253 20
252 20
251 21
250 21
249 22
248 23
247 23
246 24
245 24
244 25
243 26
242 27
241 28
240 28
239 29
238 30
237 30
236 31
235 32
234 32
233 32
232 33
231 33
230 34
229 33
228 33
227 33
226 33
225 32
224 32
223 32
222 32
221 31
220 31
219 31
218 31
217 30
216 30
215 30
214 30
213 29
212 29
211 29
210 29
209 29
208 29
207 29
206 28
205 28
204 27
203 27
202 27
201 27
200 27
199 27
198 27
197 26
196 26
195 26
194 25
193 25
192 24
191 24
190 24
189 24
188 25
187 25
186 24
185 24
184 23
183 23
182 22
181 22
180 22
179 22
178 22
177 22
176 22
175 22
174 22
173 22
172 22
171 21
170 21
169 21
168 20
167 20
166 20
165 20
164 20
163 19
162 18
161 18
160 18
159 17
158 17
157 17
156 17
155 16
156 15
157 14
158 13
159 12
160 11
161 10
162 9
162 8
163 7
162 7
161 6
160 6
159 6
158 6
157 7
156 7
155 7
154 8
153 8
152 8
151 9
150 10
149 11
148 11
147 12
146 13
145 13
144 14
143 14
142 15
141 16
140 16
139 17
138 17
137 18
136 18
135 18
134 18
133 18
132 18
131 18
130 18
129 17
129 16
129 15
130 14
129 14
128 14
127 14
126 13
127 12
126 12
125 11
124 11
123 12
122 13
121 12
120 12
119 12
118 12
117 13
116 13
115 12
114 11
113 11
112 11
111 11
110 10
109 10
108 10
107 10
106 10
105 11
104 10
104 9
103 9
102 8
101 7
100 7
99 7
98 7
97 7
96 6
97 5
97 4
97 3
96 3
95 2
94 2
93 2
92 2
91 2
90 2
