150 2
150 3
150 4
150 5
150 6
150 7
150 8
150 9
150 10
150 11
150 12
150 13
150 14
150 15
150 16
150 17
149 18
149 19
148 20
147 21
146 22
145 23
144 24
143 24
142 25
141 25
140 25
139 25
138 26
137 27
136 27
135 27
134 27
133 27
132 28
131 28
130 28
129 28
128 28
127 28
126 28
125 28
124 28
123 29
122 29
121 29
120 29
119 29
118 29
117 29
116 29
115 29
114 29
113 29
112 30
111 30
110 30
109 30
108 30
107 31
106 31
105 30
106 29
105 29
104 28
103 27
104 26
104 25
103 24
102 23
103 22
102 22
101 21
102 20
101 20
100 19
99 19
98 19
97 19
96 19
96 20
96 21
96 22
96 23
96 24
96 25
96 26
96 27
96 28
95 29
94 29
93 30
92 31
91 31
90 32
89 33
88 33
88 34
87 35
86 36
85 36
84 36
83 37
82 37
81 37
80 37
79 38
78 39
77 39
76 40
75 40
74 40
73 40
72 40
71 40
70 41
69 42
68 43
67 43
66 43
65 43
64 43
63 43
62 44
61 44
60 44
59 44
58 44
57 45
57 46
56 47
55 48
54 48
53 48
52 49
51 49
50 50
49 50
48 50
47 50
46 50
45 50
44 51
43 52
42 52
41 52
40 52
39 52
38 52
37 53
36 53
35 53
34 53
33 53
32 53
31 53
30 52
29 52
28 51
28 50
28 49
27 48
26 48
25 47
25 46
25 45
26 44
25 44
24 44
23 44
22 43
23 42
22 42
21 41
20 40
21 39
20 39
19 38
20 37
19 37
18 36
17 35
16 34
15 33
14 32
13 31
14 30
13 30
12 29
11 28
10 27
9 27
8 26
7 26
6 25
5 25
4 25
3 25
2 25
2 26
2 27
2 28
2 29
3 30
4 31
4 32
4 33
4 34
5 35
6 36
7 37
7 38
7 39
7 40
8 41
9 42
10 43
10 44
10 45
10 46
11 47
11 48
11 49
12 50
12 51
12 52
12 53
13 54
13 55
13 56
13 57
13 58
13 59
13 60
12 61
12 62
12 63
11 64
11 65
11 66
10 67
10 68
10 69
10 70
9 71
9 72
8 73
8 74
8 75
7 76
7 77
6 78
6 79
5 80
5 81
4 82
4 83
3 84
2 85
2 86
2 87
2 88
2 89
3 89
4 89
5 89
6 88
7 88
8 88
9 87
10 87
11 87
12 86
12 85
13 84
14 83
15 82
16 81
16 80
17 79
18 78
19 77
20 76
21 75
22 74
22 73
23 72
23 71
24 70
25 69
25 68
26 67
27 66
28 65
29 64
30 63
31 62
32 61
33 61
34 61
35 61
36 62
37 63
37 64
38 64
39 64
40 63
41 63
42 63
43 63
44 64
45 64
46 64
47 64
48 64
49 64
50 65
51 66
52 66
53 66
54 66
55 66
56 67
56 68
57 68
58 68
59 68
60 68
61 69
61 70
62 71
62 72
63 72
64 72
65 72
66 72
67 72
68 72
69 73
70 74
70 75
71 75
72 75
73 75
74 75
75 75
76 75
77 76
78 77
78 78
78 79
79 80
80 81
81 81
82 82
83 83
83 84
83 85
83 86
83 87
83 88
83 89
83 90
83 91
83 92
83 93
83 94
84 95
85 95
86 95
87 95
88 95
89 94
89 93
90 92
90 91
90 90
91 89
91 88
92 87
93 86
93 85
94 84
95 83
96 83
97 83
98 83
99 84
100 84
101 84
102 84
103 84
104 84
105 84
106 84
107 84
108 84
109 84
110 84
111 84
112 85
113 85
114 85
115 85
116 85
117 85
118 85
119 85
120 85
121 85
122 85
123 85
124 85
125 86
126 86
127 86
128 86
129 86
130 86
131 86
132 86
133 86
134 86
135 86
136 86
137 86
138 86
139 86
140 86
141 86
142 86
143 86
144 86
145 86
146 86
147 86
148 86
149 86
150 86
151 86
152 86
153 86
154 86
155 86
156 86
157 87
157 88
157 89
157 90
157 91
157 92
157 93
157 94
157 95
158 95
159 95
160 95
161 95
162 96
162 97
162 98
162 99
162 100
163 101
163 102
163 103
164 104
164 105
164 106
165 106
166 106
167 105
168 105
169 104
169 103
170 102
170 101
170 100
171 99
171 98
172 97
173 96
173 95
174 94
174 93
174 92
173 92
172 91
173 90
173 89
173 88
173 87
174 86
174 85
175 84
176 84
177 84
178 83
179 83
180 83
181 83
182 83
183 83
184 82
185 82
186 82
187 82
188 82
189 82
190 81
191 81
192 81
193 80
194 80
195 80
196 79
197 79
198 78
199 78
200 77
201 77
202 77
203 76
204 76
205 75
206 75
207 74
208 74
209 74
210 73
211 73
212 73
213 72
214 71
215 71
216 70
217 70
218 69
219 68
220 68
221 67
222 67
223 67
224 67
225 66
225 65
226 64
227 63
228 62
229 61
230 60
231 60
232 59
232 58
233 57
233 56
233 55
233 54
232 54
231 53
230 52
229 51
228 50
227 50
226 49
225 49
224 49
223 48
222 48
221 47
220 47
219 46
218 45
217 45
216 45
215 44
214 44
213 43
212 43
211 42
210 42
209 41
208 41
207 40
206 40
205 39
204 39
203 38
202 38
201 38
200 37
199 37
198 37
197 36
196 36
195 35
194 35
193 35
192 34
191 34
190 34
189 34
188 34
187 34
186 33
185 33
184 33
183 32
182 32
181 32
180 31
179 30
178 30
177 30
176 30
175 30
174 29
173 29
172 29
171 29
170 29
169 28
170 27
170 26
170 25
170 24
170 23
170 22
170 21
170 20
169 20
168 19
167 18
168 17
167 17
166 16
165 15
164 14
163 13
162 12
161 11
162 10
161 10
160 9
159 8
158 8
157 7
158 6
157 6
156 5
155 4
154 4
153 3
152 2
151 2
