108 2
107 3
106 4
105 5
104 6
104 7
103 8
102 9
101 10
101 11
100 12
100 13
99 14
98 15
98 16
97 17
96 18
95 19
95 20
95 21
94 22
94 23
94 24
93 25
93 26
93 27
92 28
92 29
91 30
91 31
90 32
90 33
89 34
88 34
87 34
86 35
85 35
84 35
83 35
82 35
81 35
80 36
79 36
78 36
77 36
76 36
75 37
74 37
73 37
72 37
71 37
70 38
69 38
68 38
67 38
66 39
65 39
64 39
63 39
62 40
61 40
60 40
59 40
58 40
57 41
56 41
55 41
54 41
53 42
52 42
51 42
50 42
49 43
48 43
47 44
46 44
45 44
44 44
43 45
42 45
41 45
40 46
39 46
38 46
37 47
36 47
35 47
34 48
33 48
32 48
31 49
30 49
29 49
28 50
27 50
26 51
25 51
24 52
23 52
22 52
21 53
20 53
19 54
18 54
17 55
16 55
15 55
14 56
13 56
12 56
11 57
10 57
9 57
9 58
8 59
7 59
6 59
5 60
4 60
3 60
3 61
3 62
3 63
3 64
3 65
3 66
2 67
2 68
2 69
2 70
2 71
3 72
4 73
5 73
6 74
7 75
8 75
9 76
10 77
11 78
12 79
13 79
14 80
15 81
16 81
17 82
18 83
19 83
20 83
21 84
21 85
22 85
23 85
24 86
25 86
26 87
26 88
27 88
28 88
29 89
30 89
31 90
32 91
33 91
34 91
35 92
36 92
37 93
38 94
38 95
39 95
40 95
41 96
42 96
43 96
44 97
45 97
46 98
47 98
48 98
49 98
50 98
51 98
52 98
53 98
54 99
54 100
55 100
56 100
57 101
58 101
59 101
60 102
61 102
62 102
63 102
64 102
65 102
66 102
67 101
68 101
69 101
70 102
71 102
72 103
72 104
73 104
74 104
75 104
76 104
77 104
78 104
79 104
80 104
81 105
82 105
83 105
84 105
85 105
86 105
87 105
88 105
89 105
90 105
91 105
92 106
92 107
92 108
92 109
92 110
92 111
93 111
94 112
94 113
94 114
94 115
94 116
94 117
95 117
96 118
96 119
96 120
97 120
98 121
98 122
99 122
100 123
101 124
101 125
102 125
103 126
104 127
105 128
106 128
107 128
108 128
109 127
110 126
110 125
111 124
110 124
109 123
108 122
109 121
109 120
109 119
109 118
110 117
110 116
111 115
111 114
111 113
111 112
111 111
112 110
112 109
112 108
112 107
111 107
110 106
111 105
112 105
113 105
114 105
115 105
116 105
117 105
118 105
119 105
120 105
121 105
122 105
123 105
124 105
125 105
126 106
127 106
128 106
129 106
130 106
131 106
132 106
133 106
134 106
135 106
136 106
137 106
138 106
139 106
140 106
141 106
142 106
143 106
144 106
145 106
146 106
147 106
148 106
149 106
150 106
151 106
152 106
153 106
154 106
155 106
156 106
157 106
158 106
159 106
160 106
161 105
162 105
163 105
164 105
165 105
166 104
167 104
168 104
169 104
170 104
171 104
172 104
173 103
174 103
175 103
176 103
177 102
178 102
179 102
180 102
181 101
181 100
180 99
181 98
182 97
182 96
183 95
184 96
184 97
185 98
185 99
185 100
185 101
186 101
187 101
188 100
189 99
190 99
191 99
192 99
193 99
194 99
195 99
196 99
197 100
198 100
199 101
200 101
201 101
202 101
203 101
204 101
205 101
206 101
207 101
208 101
209 101
210 101
211 101
212 101
213 101
214 101
215 100
216 100
217 100
218 100
219 99
220 99
221 99
222 98
223 97
223 96
224 95
224 94
223 94
222 93
221 93
220 92
219 92
218 92
217 92
216 92
215 92
214 91
213 91
212 91
211 91
210 90
211 89
212 88
213 88
214 87
215 87
216 86
217 85
218 85
219 85
220 84
221 83
222 83
223 82
224 82
225 82
226 81
227 81
228 80
229 81
230 81
231 81
232 81
233 81
234 80
234 79
235 78
235 77
236 76
237 76
238 75
239 75
240 75
241 75
242 74
243 74
244 73
245 73
246 73
247 73
248 73
249 72
250 71
251 71
252 71
253 71
254 72
255 72
256 72
257 71
258 70
259 69
260 69
261 69
262 69
263 69
264 69
265 69
266 69
267 68
268 68
269 68
270 68
271 68
272 68
273 68
274 68
275 68
276 69
277 70
277 71
278 72
278 73
279 74
279 75
279 76
280 77
281 78
282 79
282 80
282 81
282 82
283 83
283 84
284 85
284 86
285 87
285 88
285 89
285 90
286 91
287 92
288 93
288 94
288 95
289 96
290 97
291 98
291 99
292 100
293 101
294 102
294 103
295 104
296 105
297 106
297 107
298 108
299 109
300 110
301 111
301 112
302 113
303 114
304 114
305 115
306 115
307 115
308 114
308 113
309 112
308 112
307 111
306 110
307 109
307 108
307 107
307 106
307 105
306 105
305 104
306 103
305 103
304 102
305 101
304 101
303 100
304 99
303 99
302 98
303 97
303 96
303 95
302 95
301 94
302 93
302 92
303 91
303 90
303 89
303 88
302 88
301 87
300 86
301 85
300 85
299 84
300 83
299 83
298 82
299 81
299 80
298 80
297 79
298 78
297 78
296 77
297 76
297 75
297 74
297 73
297 72
296 72
295 71
296 70
296 69
297 68
297 67
297 66
297 65
297 64
298 63
298 62
298 61
298 60
298 59
298 58
298 57
299 56
300 55
300 54
301 53
301 52
302 51
302 50
303 49
303 48
304 47
304 46
305 45
306 44
306 43
307 42
308 42
309 41
309 40
310 39
311 38
312 37
312 36
313 35
313 34
314 33
315 32
316 31
317 30
318 29
319 28
320 27
320 26
321 25
321 24
322 23
321 23
320 22
319 22
318 22
317 22
316 22
315 23
314 23
313 24
312 24
311 24
310 25
309 26
308 26
308 27
307 28
306 28
305 29
304 30
303 31
302 31
302 32
301 33
300 34
300 35
299 36
298 36
297 37
296 38
295 39
294 40
293 41
292 42
291 42
291 43
290 44
289 45
288 46
287 47
286 48
285 49
285 50
284 51
283 52
282 52
282 53
281 54
280 54
279 54
279 55
278 56
278 57
277 58
276 58
275 59
274 59
273 58
272 58
271 58
270 58
269 58
268 57
267 57
266 57
265 56
264 56
263 55
262 55
261 55
260 55
259 55
258 55
257 54
256 53
255 53
254 53
253 53
252 53
251 53
250 53
249 52
248 51
247 51
246 51
245 51
244 51
243 51
242 50
241 49
240 48
239 48
238 48
237 49
236 49
235 48
234 48
233 47
232 46
231 46
230 46
229 46
228 46
227 46
226 46
225 46
224 45
223 44
222 43
221 43
220 43
219 43
218 43
217 42
216 42
215 42
214 41
213 41
212 40
211 40
210 39
209 39
208 39
207 39
206 39
205 39
204 38
203 38
202 37
201 37
200 36
199 35
200 34
201 34
202 34
203 33
204 33
205 33
206 33
207 32
208 31
208 30
207 29
206 29
205 28
204 28
203 28
202 28
201 28
200 28
199 28
198 28
197 28
196 28
195 28
194 28
193 28
192 28
191 28
190 28
189 28
188 28
187 28
186 28
185 29
184 29
183 29
182 29
181 30
180 30
179 30
178 30
177 30
176 30
175 31
174 31
173 31
172 31
171 31
170 31
169 31
168 31
167 31
166 31
165 31
164 31
163 31
162 31
161 31
160 31
159 31
158 30
157 30
156 30
155 30
154 30
153 30
152 29
151 29
150 29
149 29
148 29
147 30
146 30
145 29
144 29
143 29
142 29
141 29
140 29
139 29
138 28
137 28
136 28
135 28
134 28
133 28
132 28
131 27
130 26
129 26
128 26
127 26
126 26
125 26
124 26
123 25
122 24
121 24
120 24
119 24
118 23
119 22
118 22
117 21
116 20
117 19
116 19
115 18
115 17
115 16
116 15
116 14
115 14
114 13
113 12
114 11
114 10
114 9
114 8
113 8
112 7
113 6
112 6
111 5
112 4
112 3
111 3
110 2
109 2
