91 2
90 3
89 3
89 4
88 5
87 6
86 6
86 7
85 8
85 9
84 10
84 11
83 12
83 13
83 14
82 15
82 16
81 17
81 18
81 19
80 20
80 21
80 22
79 23
79 24
79 25
78 26
78 27
78 28
78 29
77 30
77 31
77 32
76 33
76 34
75 35
74 36
73 36
72 36
71 36
70 36
69 36
68 36
67 36
66 36
65 36
64 36
63 37
62 37
61 38
60 38
59 38
58 38
57 38
56 38
55 38
54 38
53 38
52 38
51 38
50 38
49 38
48 39
47 39
46 39
45 39
44 39
43 40
42 40
41 40
40 40
39 40
38 41
37 41
36 41
35 42
34 42
33 41
32 41
31 41
31 42
30 43
29 43
28 43
27 43
26 44
25 44
24 44
23 44
22 44
21 43
20 43
19 43
18 43
17 43
16 44
15 44
14 45
13 45
12 46
11 47
10 48
9 49
9 50
8 51
7 52
6 52
6 53
5 54
4 54
3 55
3 56
2 57
2 58
2 59
2 60
2 61
2 62
2 63
3 64
4 65
5 65
6 66
6 67
7 67
8 68
9 69
10 70
11 71
12 71
13 72
14 73
15 74
16 74
17 74
18 74
19 74
20 74
21 74
22 74
23 74
24 74
25 74
26 74
27 74
28 74
29 75
30 75
31 75
32 75
33 75
34 75
35 76
36 76
37 77
38 77
39 77
40 77
41 77
42 78
43 78
44 79
45 79
46 80
47 80
48 80
49 80
50 80
51 80
52 81
53 81
54 81
55 82
56 82
57 82
58 83
59 83
60 83
61 83
62 84
63 84
64 84
65 84
66 84
67 84
68 84
69 84
70 84
71 84
72 84
73 84
74 84
75 85
75 86
76 87
77 88
78 89
78 90
78 91
79 92
80 93
80 94
81 95
82 96
82 97
83 98
84 99
84 100
85 101
85 102
86 103
87 104
87 105
88 106
89 107
89 108
90 109
91 110
92 111
93 111
94 112
94 113
95 114
96 114
97 114
98 115
99 116
100 116
101 116
102 116
103 115
104 114
104 113
105 112
105 111
105 110
105 109
106 108
106 107
107 106
107 105
107 104
108 103
108 102
109 101
109 100
109 99
109 98
109 97
110 96
110 95
109 95
108 94
109 93
109 92
108 92
107 91
106 90
107 89
108 88
109 88
110 88
111 88
112 88
113 88
114 88
115 88
116 88
117 87
118 87
119 87
120 87
121 87
122 87
123 87
124 87
125 87
126 87
127 87
128 87
129 87
130 87
131 87
132 87
133 87
134 87
135 87
136 87
137 87
138 87
139 87
140 87
141 87
142 87
143 87
144 87
145 87
146 87
147 87
148 87
149 87
150 87
151 87
152 87
153 87
154 87
155 87
156 87
157 87
158 87
159 88
160 88
161 88
162 88
163 88
164 88
165 88
166 88
167 88
168 88
169 88
170 88
171 88
172 88
173 88
174 88
175 88
176 88
177 88
178 87
179 87
180 87
181 87
182 87
183 87
184 87
185 87
186 87
187 87
188 87
189 86
190 86
191 86
192 86
193 86
194 86
195 86
196 85
197 85
198 85
199 84
200 84
201 83
202 83
203 83
204 83
205 83
206 83
207 82
208 82
209 81
210 81
211 80
212 80
213 80
214 80
215 80
216 80
217 79
218 79
219 79
220 79
221 78
222 78
223 78
224 78
225 77
226 77
227 77
228 77
229 77
230 77
231 77
232 77
233 78
234 78
235 79
236 80
237 80
238 80
239 80
240 80
241 80
242 80
243 80
244 80
245 79
246 79
247 78
248 77
249 77
250 76
251 75
252 74
253 74
254 74
255 74
256 73
257 73
258 73
259 73
260 72
261 72
262 72
263 71
264 71
265 71
266 71
267 71
268 71
269 71
270 71
271 70
272 70
273 70
274 70
275 69
276 69
277 69
278 69
279 68
280 68
281 68
282 68
283 68
284 68
285 68
286 68
287 68
288 69
289 70
290 70
291 71
292 72
293 73
294 74
295 75
296 76
297 77
298 78
299 79
300 80
301 81
302 82
303 83
304 83
305 84
306 85
307 86
308 86
309 87
310 87
311 87
312 87
313 87
314 87
315 87
316 87
317 87
318 87
319 86
319 85
320 84
320 83
320 82
320 81
320 80
320 79
321 78
321 77
321 76
321 75
321 74
321 73
321 72
322 71
323 70
323 69
324 68
325 67
326 66
327 66
328 65
329 65
330 64
331 64
332 63
333 63
334 63
335 62
336 61
337 60
338 60
339 59
340 58
341 57
341 56
342 55
343 54
344 54
345 54
346 54
347 54
348 54
349 54
350 54
351 54
352 53
352 52
353 51
353 50
353 49
353 48
354 47
354 46
355 45
355 44
355 43
355 42
354 42
353 41
354 40
354 39
353 39
352 38
353 37
353 36
353 35
352 35
351 34
352 33
352 32
352 31
351 31
350 30
349 30
348 30
347 30
346 30
345 31
344 31
343 31
342 31
341 32
340 32
339 32
338 32
337 32
336 33
335 33
334 34
333 34
332 35
331 35
330 35
329 36
328 36
327 37
326 38
325 38
324 38
323 39
322 39
321 40
320 40
319 40
318 41
317 42
316 43
315 43
314 43
313 44
312 45
311 46
310 46
309 46
308 47
307 47
306 48
305 49
304 49
303 49
302 50
301 51
300 52
299 52
298 52
297 53
296 54
295 54
294 55
293 55
292 55
291 55
290 55
289 55
288 55
287 55
286 55
285 55
284 55
283 55
282 55
281 54
280 54
279 54
278 54
277 54
276 54
275 54
274 54
273 54
272 54
271 54
270 54
269 54
268 54
267 54
266 54
265 54
264 54
263 54
262 54
261 54
260 53
259 53
258 53
257 53
256 52
255 52
254 51
253 50
252 49
251 48
250 47
249 46
248 46
247 46
246 46
245 46
244 46
243 46
242 46
241 46
240 46
239 46
238 46
237 46
236 46
235 46
234 46
233 46
232 46
231 46
230 46
229 46
228 46
227 46
226 46
225 46
224 46
223 46
222 46
221 45
220 44
219 43
218 43
217 43
216 42
215 42
214 41
213 41
212 40
211 40
210 40
209 39
208 39
207 39
206 39
205 38
204 38
203 38
202 38
201 38
200 38
199 38
198 37
197 37
196 37
195 37
194 37
193 37
192 36
191 36
190 36
189 36
188 35
187 35
186 35
185 35
184 35
183 35
182 34
181 34
180 34
179 34
178 33
177 33
176 33
175 33
174 32
173 32
172 32
171 32
170 32
169 32
168 32
167 32
166 31
165 31
164 31
163 31
162 30
161 30
160 30
159 29
158 29
157 29
156 29
155 29
154 29
153 29
152 29
151 28
150 28
149 28
148 28
147 28
146 27
145 27
144 27
143 27
142 27
141 27
140 27
139 27
138 27
137 26
136 26
135 26
134 26
133 26
132 26
131 26
130 27
129 27
128 27
127 27
126 27
125 27
124 28
123 28
122 28
121 28
120 28
119 28
118 28
117 29
116 29
115 29
114 29
113 29
112 29
111 29
110 29
109 29
108 29
107 29
106 30
105 30
104 30
103 30
102 30
101 30
100 29
100 28
100 27
101 26
101 25
101 24
102 23
102 22
102 21
103 20
103 19
103 18
103 17
102 17
101 16
100 15
99 14
98 13
97 12
98 11
98 10
97 10
96 9
95 8
96 7
95 7
94 6
93 5
94 4
94 3
93 3
92 2
