209 2
208 3
208 4
208 5
208 6
208 7
208 8
208 9
208 10
207 11
207 12
207 13
207 14
207 15
207 16
207 17
207 18
208 19
208 20
208 21
208 22
208 23
208 24
208 25
208 26
207 27
206 28
205 28
204 29
203 29
202 29
201 30
200 30
199 30
198 31
197 31
196 31
195 31
194 31
193 31
192 31
191 31
190 31
189 31
188 32
187 33
186 33
185 33
184 33
183 33
182 33
181 33
180 34
179 34
178 34
177 34
176 34
175 34
174 34
173 34
172 34
171 35
170 35
169 36
168 36
167 36
166 36
165 37
164 37
163 37
162 37
161 37
160 37
159 37
158 38
157 38
156 38
155 38
155 39
154 40
153 40
152 40
151 40
150 41
149 41
148 41
147 41
146 42
145 42
144 42
143 42
142 43
141 43
140 44
139 44
138 45
137 45
136 45
135 45
134 46
133 46
132 47
131 47
130 47
129 48
128 48
127 48
126 48
125 48
124 49
123 49
122 49
121 49
120 49
119 49
118 50
117 50
116 51
115 51
114 51
113 52
112 53
111 53
110 54
109 54
108 54
107 54
106 54
105 54
104 55
103 56
102 56
101 56
100 57
99 57
98 57
97 57
96 57
95 57
94 58
93 58
92 59
91 58
90 58
89 57
88 57
87 57
86 57
85 57
84 56
83 56
82 55
81 55
80 55
79 55
78 55
77 54
76 54
75 54
74 54
73 54
72 54
71 54
70 54
69 54
68 54
67 54
66 54
65 54
64 54
63 54
62 54
61 53
60 53
59 53
58 53
57 53
56 53
55 53
54 53
53 53
52 53
51 53
50 52
49 52
48 52
47 51
46 51
45 51
44 52
43 52
42 52
41 52
40 51
39 51
38 51
37 51
36 51
35 51
34 51
33 51
32 51
31 51
30 51
29 51
28 50
27 50
26 50
25 49
24 49
23 48
22 48
21 48
20 48
19 48
18 48
17 47
16 47
15 47
14 47
13 46
12 46
11 46
10 45
9 45
8 45
7 45
6 45
5 45
4 45
3 45
2 46
2 47
2 48
2 49
3 50
4 50
5 51
6 52
7 53
8 53
9 54
10 55
11 56
12 56
13 57
14 58
14 59
15 59
16 59
17 59
18 59
19 59
20 59
21 59
22 60
23 61
24 61
25 62
26 62
27 62
28 62
29 62
30 63
31 64
32 64
33 64
34 65
35 65
36 65
37 65
38 65
39 66
40 66
41 66
42 66
43 66
44 66
45 66
46 67
47 67
48 67
49 67
50 67
51 68
52 68
53 69
54 69
55 70
56 70
57 70
58 70
59 70
60 70
61 71
62 71
63 72
64 73
65 73
66 73
67 73
68 74
69 75
70 75
71 76
72 76
73 76
74 77
74 78
75 79
75 80
75 81
75 82
75 83
75 84
75 85
75 86
75 87
75 88
75 89
75 90
75 91
75 92
75 93
75 94
75 95
76 95
77 95
78 95
79 95
80 95
81 94
82 94
83 93
84 93
85 92
86 92
87 91
88 91
89 90
90 89
91 88
91 87
92 86
92 85
93 84
93 83
94 82
94 81
95 80
96 79
96 78
97 77
97 76
98 75
99 74
100 74
101 74
102 74
103 74
104 74
105 74
106 74
107 75
108 75
109 76
110 77
111 77
112 77
113 77
114 77
115 78
115 79
115 80
115 81
115 82
115 83
116 84
117 84
118 84
119 84
120 84
121 83
122 83
123 83
124 83
125 82
126 82
127 81
128 80
129 79
130 78
130 77
131 76
132 76
133 76
134 76
135 76
136 76
137 76
138 76
139 76
140 76
141 76
142 76
143 76
144 76
145 76
146 76
147 76
148 76
149 76
150 76
151 76
152 76
153 77
154 77
155 77
156 78
156 79
157 80
158 80
159 80
160 80
161 81
162 81
163 81
164 81
165 80
166 80
167 81
168 81
169 81
170 81
171 81
172 81
173 81
174 81
175 81
176 80
177 80
178 80
179 80
180 80
181 80
182 80
183 80
184 80
185 80
186 80
187 80
188 80
189 80
190 80
191 80
192 81
193 81
194 81
195 82
196 82
197 82
198 82
199 82
200 82
201 83
202 83
203 83
204 83
205 83
206 83
207 83
208 83
209 84
210 84
211 84
212 84
213 85
214 85
215 85
216 85
217 86
218 86
219 86
220 86
221 86
222 86
223 86
224 86
225 86
226 87
227 87
228 87
229 87
230 87
231 87
232 87
233 87
234 87
235 87
236 87
237 87
238 87
239 88
240 88
241 88
242 88
243 88
244 88
245 88
246 88
247 89
248 89
249 89
250 89
251 90
251 91
251 92
251 93
251 94
251 95
251 96
250 97
250 98
250 99
250 100
250 101
250 102
250 103
250 104
250 105
250 106
250 107
250 108
249 109
249 110
249 111
249 112
249 113
248 114
248 115
248 116
248 117
248 118
248 119
248 120
249 121
249 122
249 123
250 124
250 125
251 125
252 125
253 124
253 123
254 122
255 121
256 120
257 119
257 118
258 117
259 116
259 115
260 114
260 113
261 112
262 111
263 110
264 109
265 108
265 107
266 106
266 105
266 104
267 103
267 102
268 101
268 100
269 99
269 98
269 97
270 96
270 95
270 94
271 93
271 92
272 91
272 90
273 89
274 88
275 87
275 86
276 85
277 84
278 83
279 83
280 82
281 82
282 82
283 82
284 82
285 82
286 82
287 82
288 81
289 81
290 81
291 80
292 80
293 80
294 79
295 79
296 78
297 77
298 77
299 76
300 75
301 74
302 74
303 73
304 73
305 72
306 71
307 71
308 71
309 71
310 70
311 70
312 69
313 69
314 68
315 68
316 68
317 67
318 67
319 67
320 67
321 66
322 66
323 65
324 64
324 63
325 62
326 62
327 61
328 61
329 60
330 59
331 59
332 58
333 57
334 57
335 57
336 56
337 55
338 54
339 54
340 53
341 52
342 51
343 51
344 51
345 50
345 49
346 48
346 47
347 46
347 45
348 44
348 43
348 42
347 42
346 41
345 41
344 41
343 41
342 41
341 41
340 41
339 41
338 41
337 41
336 41
335 41
334 41
333 40
332 40
331 40
330 40
329 40
328 40
327 40
326 40
325 39
324 39
323 39
322 39
321 39
320 39
319 39
318 39
317 39
316 39
315 39
314 39
313 39
312 39
311 39
310 39
309 39
308 38
307 38
306 38
305 38
304 38
303 38
302 38
301 37
300 37
299 37
298 37
297 37
296 37
295 37
294 37
293 36
292 36
291 36
290 37
289 37
288 36
287 36
286 36
285 36
284 36
283 36
282 36
281 36
280 35
279 35
278 35
277 35
276 35
275 35
274 35
273 35
272 35
271 35
270 35
269 35
268 35
267 35
266 35
265 35
264 35
263 35
262 35
261 35
260 35
259 34
258 34
257 34
256 34
255 34
254 34
253 34
252 34
251 34
250 33
249 33
248 33
247 32
246 32
245 32
244 31
243 31
242 31
241 31
240 30
239 29
238 28
237 28
236 27
237 26
236 26
235 25
234 24
235 23
234 23
233 22
232 21
231 20
232 19
231 19
230 18
229 17
228 17
227 16
228 15
227 15
226 14
225 13
224 12
223 11
222 10
223 9
222 9
221 8
220 8
219 7
218 6
217 5
216 5
215 4
214 3
213 3
212 2
211 2
210 2
