92 2
91 3
90 3
89 3
88 3
87 3
86 3
85 3
84 3
83 3
82 3
81 4
80 4
79 4
78 5
77 5
76 5
75 4
74 4
73 4
72 4
71 3
70 3
69 3
68 3
67 3
66 3
65 3
64 3
63 3
62 3
61 3
60 3
59 3
58 3
57 3
56 3
55 3
54 3
53 3
52 3
51 4
50 4
49 4
48 4
47 5
46 5
45 6
45 7
45 8
44 9
44 10
43 11
42 11
41 12
40 13
39 13
38 14
37 14
36 15
35 15
34 16
33 17
32 17
31 18
30 18
29 19
28 19
27 20
26 20
25 20
24 20
23 21
22 21
21 22
20 22
19 23
18 23
17 24
16 24
15 25
14 25
13 26
12 27
11 28
10 29
9 30
8 29
7 29
6 29
5 29
4 29
4 30
4 31
4 32
4 33
4 34
5 34
6 34
7 35
7 36
7 37
7 38
8 38
9 39
9 40
9 41
10 41
11 42
11 43
11 44
11 45
12 45
13 45
14 45
15 45
16 44
17 43
18 43
19 43
20 44
21 44
22 44
23 45
24 45
25 45
26 45
27 46
28 47
29 47
30 47
31 48
31 49
32 49
33 50
34 51
34 52
35 53
35 54
35 55
35 56
35 57
36 57
37 57
38 57
39 57
40 56
40 55
41 54
42 53
43 53
44 53
45 54
46 54
47 54
48 55
49 55
50 55
51 56
52 56
53 56
54 56
55 57
56 57
57 57
58 57
59 57
60 57
61 57
62 57
63 57
64 57
65 57
66 57
67 57
68 57
69 57
70 57
71 57
72 57
73 57
74 57
75 57
76 57
77 57
78 57
79 57
80 57
81 57
82 57
83 56
84 56
85 56
86 56
87 57
88 57
89 57
90 56
91 56
92 56
93 56
94 57
95 58
96 59
97 59
98 59
99 59
100 59
101 59
102 59
103 59
104 59
105 59
106 59
107 59
108 58
109 58
110 58
111 58
112 57
113 57
114 57
115 57
116 57
117 57
118 57
119 56
120 56
121 56
122 56
123 56
124 56
125 56
126 56
127 56
128 56
129 56
130 56
131 56
132 56
133 56
134 56
135 56
136 56
137 56
138 56
139 56
140 56
141 56
142 56
143 56
144 56
145 56
146 56
147 56
148 55
149 55
150 55
151 55
152 55
153 54
154 54
155 54
156 54
157 54
158 53
159 53
160 53
161 53
162 52
163 52
164 52
165 52
166 52
167 51
168 51
169 51
170 51
171 51
172 51
173 51
174 50
175 50
176 49
177 49
178 49
179 48
180 48
181 47
182 47
183 46
184 46
185 46
186 45
187 45
188 45
189 44
190 44
191 44
192 43
193 43
194 43
195 42
196 42
197 41
198 40
199 40
200 39
201 39
202 38
203 37
204 37
205 36
206 35
207 34
207 33
208 32
208 31
208 30
208 29
208 28
207 28
206 27
205 26
206 25
205 25
204 24
203 24
202 24
201 23
200 22
199 22
198 22
197 21
196 21
195 21
194 20
193 20
192 20
191 20
190 19
189 19
188 18
187 17
186 16
185 16
184 16
183 17
182 17
181 16
180 16
179 16
178 16
177 16
176 15
175 14
174 13
173 13
172 12
171 12
170 12
169 12
168 12
167 13
166 13
165 13
164 13
163 13
162 12
161 12
160 12
159 12
158 11
157 11
156 11
155 10
154 10
153 10
152 10
151 9
150 9
149 9
148 9
147 8
146 8
145 8
144 8
143 8
142 8
141 8
140 8
139 8
138 8
137 7
136 7
135 7
134 7
133 7
132 7
131 7
130 7
129 7
128 6
127 6
126 6
125 6
124 6
123 6
122 6
121 6
120 6
119 6
118 6
117 6
116 6
115 6
114 6
113 6
112 6
111 6
110 6
109 6
108 6
107 5
106 5
105 5
104 5
103 4
102 3
101 3
100 4
99 4
98 4
97 4
96 3
95 2
94 2
93 2
