146 2
145 3
144 4
143 5
142 6
141 7
140 8
140 9
140 10
139 11
138 12
137 13
137 14
136 15
135 16
134 17
134 18
134 19
133 20
132 21
131 22
131 23
131 24
130 25
129 26
129 27
128 28
128 29
128 30
128 31
127 32
126 32
125 32
124 33
123 33
122 33
121 34
120 34
119 35
118 35
117 35
116 36
115 36
114 36
113 37
112 38
111 38
110 38
109 38
108 39
107 39
106 40
105 40
104 41
103 41
102 41
101 42
100 42
99 42
98 43
97 44
96 44
95 45
94 45
93 45
92 46
91 46
90 47
89 47
88 47
87 48
86 48
85 48
84 49
83 49
82 49
81 50
80 50
79 50
78 50
77 50
76 50
75 49
74 49
73 49
72 50
71 50
70 51
69 51
68 51
67 51
66 51
65 51
64 51
63 51
62 51
61 51
60 51
59 51
58 51
57 51
56 51
55 51
54 50
53 50
52 50
51 50
50 50
49 50
48 50
47 50
46 50
45 50
44 50
43 49
42 49
41 49
40 49
39 49
38 49
37 49
36 49
35 49
34 49
33 49
32 48
31 48
30 48
29 48
28 48
27 48
26 48
25 48
24 48
23 47
22 47
21 47
20 47
19 47
18 47
17 47
16 47
15 47
14 47
13 47
12 47
11 47
10 47
9 47
8 47
7 47
6 46
5 46
4 46
3 46
2 46
2 47
2 48
2 49
2 50
3 50
4 50
5 50
6 51
7 51
8 51
9 51
10 51
11 51
12 51
13 52
14 52
15 52
16 52
17 52
18 52
19 52
20 52
21 52
22 53
23 53
24 53
25 53
26 53
27 53
28 53
29 53
30 53
31 53
32 54
33 54
34 54
35 54
36 54
37 54
38 54
39 54
40 54
41 55
42 55
43 55
44 55
45 55
46 55
47 55
48 55
49 55
50 55
51 55
52 55
53 56
54 56
55 56
56 56
57 56
58 56
59 56
60 56
61 56
62 57
63 57
64 57
65 57
66 57
67 58
68 58
69 58
70 58
71 59
72 59
73 59
74 59
75 60
76 60
77 61
78 61
79 62
80 62
81 63
80 64
79 64
78 64
77 64
76 65
75 65
74 66
73 66
72 66
71 66
70 67
69 67
68 68
67 68
66 68
65 69
64 69
63 70
62 70
61 71
60 72
59 72
58 73
57 73
57 74
57 75
57 76
57 77
58 77
59 77
60 77
61 76
62 76
63 76
64 76
65 76
66 76
67 77
67 78
68 78
69 79
70 80
71 80
72 80
73 81
74 82
74 83
75 83
76 83
77 83
78 84
78 85
78 86
79 86
80 87
81 87
82 87
83 88
84 88
85 89
86 89
87 89
88 90
89 90
90 90
91 91
92 91
93 91
94 91
95 91
96 91
97 92
98 92
99 92
100 92
101 92
102 92
103 92
104 93
105 93
106 93
107 93
108 93
109 93
110 93
111 93
112 93
113 94
114 94
115 94
116 94
117 94
118 94
119 94
120 94
121 94
122 94
123 94
124 95
125 95
126 95
127 95
128 95
129 95
130 95
131 95
132 95
133 96
134 96
135 96
136 97
137 97
138 97
139 97
140 97
141 97
142 97
143 97
144 98
145 98
146 98
147 98
148 98
149 98
150 98
151 98
152 98
153 99
154 99
155 99
156 99
157 99
158 99
159 99
160 99
161 99
162 100
163 100
164 100
165 100
166 100
167 100
168 100
169 100
170 99
171 100
172 100
173 100
174 100
175 100
176 100
177 100
178 100
179 100
180 100
181 100
182 100
183 100
184 100
185 100
186 100
187 100
188 100
189 100
190 100
191 100
192 100
193 100
194 100
195 100
196 101
197 101
198 101
199 101
200 101
201 101
202 101
203 101
204 101
205 101
206 101
207 101
208 101
209 101
210 101
211 101
212 101
213 101
214 100
215 100
216 100
217 100
218 100
219 100
220 100
221 100
222 100
223 100
224 100
225 101
226 101
227 101
228 101
229 101
230 101
231 101
232 102
233 102
234 102
235 102
236 103
236 104
237 105
238 105
239 106
240 106
241 107
242 107
243 107
244 108
245 108
246 108
247 109
248 109
249 109
250 109
251 110
252 110
253 110
254 110
255 111
256 111
257 111
258 111
259 112
260 112
261 112
262 112
263 113
264 113
265 113
266 114
267 114
268 114
269 114
270 114
271 113
271 112
272 111
271 111
270 110
269 110
268 109
269 108
268 108
267 107
266 106
265 105
264 104
265 103
264 103
263 102
262 102
261 101
262 100
262 99
262 98
263 97
264 97
265 97
266 96
267 96
268 95
269 95
270 94
271 94
272 94
273 93
274 92
275 92
276 92
277 92
278 91
279 91
280 91
281 90
282 90
283 90
284 90
285 89
286 89
287 88
288 88
289 87
290 87
291 87
292 86
293 87
294 87
295 87
296 87
297 88
298 89
299 89
300 89
301 89
302 89
303 88
304 88
305 88
306 87
307 87
308 87
309 87
310 87
311 86
312 86
313 86
314 86
315 86
316 85
316 84
315 83
314 83
313 83
312 82
311 82
310 82
309 81
310 80
311 79
312 79
313 79
314 79
315 78
316 78
317 78
318 78
319 78
320 77
321 77
322 77
323 76
324 76
325 76
326 76
327 75
328 75
329 75
330 75
331 75
332 75
333 75
334 75
335 76
336 77
337 77
338 77
339 76
340 76
341 76
342 77
343 77
344 77
345 78
346 78
347 79
348 80
349 80
350 81
351 82
352 83
352 84
353 84
354 85
355 85
356 86
356 87
357 88
358 88
359 89
360 89
361 90
361 91
362 91
363 92
364 93
365 93
366 94
367 95
368 95
369 96
370 97
371 97
372 98
373 99
374 99
375 100
376 100
377 101
378 101
379 102
380 102
381 103
382 103
383 104
384 104
385 105
386 105
387 106
388 106
389 106
390 107
391 107
392 107
393 107
394 106
394 105
393 104
392 103
391 102
390 101
389 101
388 100
387 99
386 99
385 98
384 97
383 96
382 95
381 95
380 94
379 93
378 92
377 92
376 91
375 90
374 89
373 88
372 87
371 86
370 85
369 84
368 83
367 82
366 82
365 81
364 80
363 79
362 78
361 77
360 76
359 75
358 74
357 73
356 72
357 71
357 70
357 69
357 68
357 67
357 66
357 65
357 64
357 63
357 62
357 61
356 61
355 60
354 59
353 58
354 57
354 56
354 55
354 54
354 53
354 52
354 51
355 50
356 49
356 48
357 47
357 46
357 45
358 44
359 43
359 42
360 41
360 40
361 39
361 38
362 37
362 36
363 35
364 34
365 33
365 32
366 31
367 30
368 29
368 28
369 27
370 26
371 25
372 24
373 23
374 22
375 21
375 20
376 19
377 18
378 17
379 16
380 15
380 14
381 13
380 13
379 12
378 12
377 13
376 13
375 13
374 14
373 14
372 15
371 15
370 16
369 17
368 17
367 18
366 19
365 19
364 20
363 21
362 22
361 23
360 24
359 25
358 26
357 27
356 28
355 29
355 30
354 31
353 32
352 32
352 33
351 34
351 35
350 36
350 37
349 38
348 39
347 40
347 41
346 42
345 43
344 44
344 45
343 46
342 47
341 48
341 49
340 50
339 51
338 52
338 53
338 54
337 55
336 55
335 56
334 57
333 58
332 58
331 58
330 58
329 58
328 58
327 58
326 58
325 58
324 58
323 57
322 57
321 57
320 57
319 56
318 56
317 56
316 55
315 55
314 55
313 54
312 54
311 54
310 54
309 54
308 53
309 52
310 51
311 50
312 50
313 50
314 49
315 49
316 48
316 47
315 46
314 46
313 46
312 46
311 46
310 46
309 47
308 47
307 47
306 47
305 47
304 46
303 46
302 45
301 44
300 44
299 44
298 44
297 45
296 45
295 46
294 46
293 47
292 48
291 47
290 47
289 47
288 47
287 46
286 46
285 46
284 46
283 46
282 45
281 45
280 45
279 45
278 44
277 44
276 44
275 44
274 44
273 43
272 43
271 43
270 42
269 42
268 42
267 42
266 41
265 41
264 41
263 41
262 41
261 40
260 40
259 39
258 39
257 39
256 39
255 39
254 38
253 38
252 38
251 38
250 38
249 38
248 38
247 37
246 37
245 37
244 37
243 37
242 37
241 37
240 37
239 36
238 36
237 36
236 36
235 36
234 36
233 36
232 36
231 35
230 35
229 35
228 35
227 35
226 35
225 35
224 34
223 34
222 34
221 34
220 34
219 34
218 34
217 34
216 34
215 34
214 34
213 34
212 33
211 33
210 33
209 33
208 33
207 34
206 34
205 33
204 33
203 33
202 33
201 33
200 33
199 33
198 33
197 33
196 33
195 33
194 33
193 33
192 33
191 33
190 33
189 33
188 33
187 33
186 33
185 33
184 33
183 33
182 33
181 33
180 33
179 33
178 32
177 32
176 32
175 32
174 32
173 32
172 31
171 31
170 31
169 30
168 29
167 29
166 29
165 29
164 28
163 27
162 26
161 26
160 26
159 26
158 26
157 26
156 25
155 24
154 23
155 22
154 22
153 21
154 20
153 20
152 19
152 18
152 17
153 16
153 15
153 14
153 13
153 12
152 12
151 11
152 10
152 9
152 8
152 7
152 6
152 5
152 4
152 3
151 3
150 2
149 2
148 2
147 2
