302 2
301 3
300 3
299 3
298 4
297 4
296 5
295 6
294 7
293 7
292 8
291 9
290 9
289 10
288 11
287 12
286 12
286 13
285 14
284 14
283 15
283 16
282 17
281 17
280 18
280 19
279 20
278 21
277 22
277 23
276 24
275 25
274 26
274 27
273 28
273 29
272 30
272 31
272 32
271 33
270 34
269 35
269 36
268 37
267 38
266 39
265 40
264 41
263 42
262 43
261 44
260 44
259 44
258 44
257 44
256 44
255 44
254 44
253 43
252 43
251 43
250 42
249 42
248 42
247 41
246 41
245 41
244 41
243 41
242 41
241 40
240 40
239 40
238 39
237 38
236 38
235 38
234 38
233 38
232 38
231 38
230 38
229 37
228 36
227 35
226 35
225 35
224 35
223 35
222 36
221 35
220 35
219 35
218 34
219 33
218 33
217 32
216 31
215 31
214 31
213 32
212 32
211 32
210 33
209 32
208 32
207 31
206 30
205 29
204 28
203 28
202 28
201 28
200 29
199 29
198 29
197 29
196 29
195 28
194 28
193 27
192 26
191 26
190 26
189 26
188 26
187 26
186 26
185 26
184 26
183 25
182 24
181 24
180 24
179 24
178 23
177 22
178 21
178 20
179 19
180 18
181 17
182 16
182 15
183 14
183 13
183 12
183 11
182 11
181 10
180 10
179 10
178 11
177 11
176 11
175 12
174 12
173 12
172 12
171 13
170 13
169 14
168 14
167 15
166 15
165 15
164 16
163 17
162 17
161 18
160 18
159 19
158 19
158 20
157 21
156 21
155 21
154 21
153 22
152 22
151 22
150 22
149 22
148 21
147 20
146 20
145 20
144 20
143 19
142 19
141 18
140 18
139 18
138 19
137 19
136 18
135 17
134 17
133 17
132 16
131 16
130 16
129 17
128 17
127 18
126 18
125 18
124 17
123 17
122 17
121 18
120 17
119 17
118 17
117 17
116 18
115 18
114 19
113 19
112 20
111 21
110 21
109 22
108 22
107 22
106 22
105 21
106 20
107 19
108 18
109 17
110 16
111 15
112 14
112 13
111 12
110 12
109 13
108 13
107 14
106 15
105 15
105 16
104 17
103 16
102 15
101 15
100 15
99 15
98 16
97 15
96 15
95 15
94 15
93 15
92 15
91 16
90 16
89 17
88 18
87 18
86 19
85 19
84 20
83 20
82 21
81 22
80 22
79 23
78 24
77 25
76 25
75 26
74 26
73 26
72 26
71 26
70 26
69 27
68 27
67 27
66 27
65 28
64 28
63 28
62 28
61 29
60 29
59 30
58 30
57 30
56 30
55 30
54 30
53 31
52 31
51 31
50 31
49 32
48 32
47 32
46 33
45 33
44 33
43 34
42 34
41 34
40 35
39 35
38 35
37 35
36 36
35 36
34 36
33 36
32 37
31 37
30 37
29 37
28 37
27 38
26 38
25 38
24 38
23 39
22 39
21 39
20 40
19 40
18 41
17 41
16 41
15 41
14 41
13 42
12 42
11 42
10 42
9 43
8 44
7 44
6 44
5 45
4 45
3 46
3 47
3 48
3 49
4 50
3 51
2 51
2 52
2 53
2 54
2 55
2 56
2 57
3 58
3 59
4 60
5 61
6 61
7 62
8 63
9 63
10 64
11 65
12 65
13 66
14 67
15 67
16 67
17 68
18 68
19 69
20 70
21 70
22 70
23 71
24 71
25 72
26 72
27 73
28 73
29 73
30 74
31 74
32 74
33 74
34 75
35 75
36 75
37 75
38 76
39 76
40 76
41 77
42 77
43 78
44 78
45 78
46 78
47 79
48 79
49 79
50 79
51 79
52 80
53 80
54 80
55 80
56 81
57 81
58 81
59 81
60 82
61 82
62 82
63 82
64 82
65 83
66 83
67 83
68 83
69 83
70 84
71 84
72 84
73 84
74 85
75 86
75 87
75 88
75 89
76 90
76 91
76 92
76 93
76 94
76 95
77 96
77 97
77 98
78 99
78 100
78 101
79 102
79 103
79 104
79 105
80 106
81 107
81 108
82 109
83 110
84 110
85 110
86 109
87 108
87 107
88 106
88 105
88 104
89 103
90 102
90 101
91 100
91 99
92 98
92 97
92 96
92 95
92 94
92 93
93 92
93 91
94 90
94 89
94 88
95 87
96 88
97 88
98 88
99 88
100 88
101 88
102 88
103 88
104 88
105 88
106 87
106 86
107 85
108 85
109 85
110 84
111 83
112 83
113 83
114 83
115 83
116 84
117 84
118 85
119 85
120 85
121 84
122 84
123 84
124 84
125 84
126 84
127 83
128 83
129 83
130 83
131 83
132 83
133 82
134 82
135 81
136 82
136 83
137 83
138 83
139 83
140 83
141 82
142 81
143 81
144 82
145 82
146 82
147 82
148 82
149 81
150 81
151 81
152 81
153 81
154 80
155 79
156 78
157 78
158 79
159 79
160 78
161 77
162 77
163 77
164 76
165 76
166 77
166 78
167 78
168 77
169 76
170 76
171 75
172 76
173 76
174 76
175 76
176 76
177 77
178 78
179 78
180 79
181 80
181 81
182 82
183 83
184 83
185 84
186 85
187 85
188 86
189 86
190 87
191 87
192 88
193 88
194 88
195 89
196 90
197 90
198 90
199 90
200 90
201 90
202 89
202 88
203 87
203 86
203 85
202 85
201 84
200 84
199 84
198 83
199 82
198 82
197 81
196 81
195 80
196 79
195 79
194 78
193 77
192 76
191 75
192 74
193 73
194 72
195 71
196 70
197 70
198 71
199 71
200 71
201 70
202 70
203 70
204 70
205 69
206 68
207 67
208 66
209 65
210 66
211 66
212 66
213 66
214 66
215 66
216 65
217 64
218 63
219 63
220 63
221 62
222 62
223 63
224 63
225 63
226 62
227 61
228 60
229 60
230 59
231 59
232 59
233 59
234 58
235 57
236 57
237 57
238 56
239 55
240 56
240 57
241 57
242 57
243 57
244 57
245 56
246 56
247 55
248 54
249 54
250 54
251 53
252 53
253 54
254 54
255 54
256 54
257 54
258 54
259 54
260 54
261 55
262 56
263 57
263 58
264 59
265 60
266 61
266 62
267 63
268 64
269 65
269 66
270 67
271 68
272 69
272 70
273 71
273 72
274 72
275 73
276 74
276 75
277 76
277 77
278 78
279 79
280 80
280 81
281 82
282 83
283 84
284 85
285 85
286 86
287 87
288 87
289 88
290 89
291 90
292 90
293 91
294 91
295 92
296 92
297 93
297 94
298 94
299 94
300 94
301 94
302 93
303 93
304 92
305 91
305 90
306 89
305 89
304 88
303 87
302 87
301 87
300 87
299 86
298 85
297 84
296 83
297 82
297 81
296 81
295 80
294 79
295 78
294 78
293 77
292 77
291 77
290 76
289 75
289 74
290 73
290 72
291 71
291 70
291 69
290 69
289 68
288 67
289 66
288 66
287 65
288 64
287 64
286 63
285 62
286 61
285 61
284 60
285 59
284 59
283 58
282 57
283 56
283 55
282 54
282 53
283 52
283 51
283 50
283 49
283 48
283 47
283 46
284 45
284 44
283 43
284 42
284 41
285 40
285 39
285 38
286 37
287 36
287 35
288 34
288 33
288 32
289 31
289 30
290 29
290 28
291 27
291 26
292 25
292 24
293 23
293 22
294 21
294 20
295 19
296 18
296 17
297 16
297 15
297 14
298 13
299 12
299 11
300 10
301 10
302 9
303 8
304 7
305 6
306 6
307 5
307 4
308 3
307 3
306 2
305 2
304 2
303 2
