2 2
2 3
2 4
2 5
2 6
2 7
3 7
4 7
5 8
6 8
7 8
8 8
9 8
10 9
11 9
12 9
13 9
14 9
15 10
16 10
17 10
18 10
19 10
20 10
21 10
22 10
23 10
24 11
25 11
26 11
27 11
28 11
29 11
30 11
31 11
32 11
33 11
34 11
35 11
36 11
37 11
38 11
39 12
40 12
41 12
42 12
43 12
44 12
45 12
46 13
47 13
48 13
49 13
50 13
51 13
52 13
53 13
54 13
55 13
56 13
57 13
58 13
59 13
60 13
61 13
62 13
63 14
64 14
65 14
66 14
67 14
68 14
69 14
70 14
71 14
72 14
73 14
74 14
75 14
76 14
77 14
78 14
79 14
80 15
81 15
82 15
83 15
84 15
85 15
86 15
87 15
88 15
89 16
90 16
91 16
92 16
93 17
94 17
95 18
96 19
97 20
98 21
99 22
99 23
100 24
101 25
101 26
102 27
102 28
102 29
102 30
102 31
102 32
102 33
102 34
102 35
102 36
102 37
101 38
101 39
101 40
101 41
100 42
100 43
100 44
100 45
99 46
99 47
99 48
99 49
98 50
97 51
96 51
96 52
96 53
96 54
96 55
95 56
94 56
94 57
93 58
93 59
92 60
92 61
92 62
91 63
91 64
91 65
91 66
91 67
91 68
91 69
91 70
91 71
91 72
90 73
90 74
90 75
89 76
88 77
88 78
88 79
89 80
89 81
88 82
87 82
86 83
85 82
84 82
83 81
82 81
81 81
80 81
79 81
78 80
77 80
76 80
75 79
74 79
73 79
72 79
71 78
70 78
69 78
68 77
67 77
66 76
65 76
64 76
63 76
62 75
61 75
60 74
59 74
58 74
57 74
56 74
55 74
54 74
53 74
52 74
51 74
50 74
50 75
50 76
50 77
50 78
50 79
50 80
50 81
51 82
52 82
53 83
53 84
54 84
55 85
56 86
57 86
58 87
59 88
60 89
60 90
61 91
62 92
63 93
64 94
65 94
66 95
66 96
67 97
67 98
67 99
67 100
67 101
67 102
67 103
68 104
68 105
68 106
68 107
67 108
66 108
65 108
65 109
65 110
65 111
65 112
66 112
67 112
68 113
68 114
68 115
68 116
68 117
67 118
67 119
67 120
67 121
67 122
67 123
67 124
67 125
68 126
68 127
68 128
68 129
68 130
68 131
69 131
70 131
71 130
72 130
73 129
74 129
75 128
75 127
76 126
77 125
78 124
79 123
80 122
81 121
81 120
82 119
83 118
84 117
84 116
85 115
85 114
86 113
86 112
87 111
88 111
89 110
90 109
90 108
91 107
92 107
93 108
94 109
94 110
94 111
95 112
96 112
97 113
97 114
97 115
97 116
97 117
98 117
99 117
100 118
100 119
100 120
101 120
102 121
102 122
103 123
103 124
104 125
105 125
106 126
106 127
107 128
107 129
107 130
108 131
109 132
110 133
111 134
111 135
112 136
113 136
114 137
114 138
114 139
114 140
114 141
114 142
114 143
114 144
114 145
114 146
114 147
114 148
114 149
113 150
113 151
112 152
111 153
111 154
111 155
111 156
111 157
111 158
111 159
111 160
112 160
113 160
114 159
115 159
116 158
117 157
118 157
119 156
120 155
121 155
122 154
123 153
124 153
125 152
126 151
127 151
128 151
129 151
130 150
131 149
132 148
133 148
134 147
135 147
136 146
137 145
138 145
139 144
140 143
141 142
142 142
143 142
144 141
145 140
146 139
147 138
148 138
149 137
150 137
151 136
152 135
153 134
154 134
155 133
156 132
157 132
158 132
159 131
160 131
161 130
162 129
163 128
164 128
165 128
166 129
165 130
165 131
164 132
163 133
162 134
161 135
160 136
159 137
158 137
157 138
156 139
155 139
154 140
153 141
153 142
153 143
153 144
154 144
155 144
156 143
157 142
158 142
159 141
160 141
161 141
162 140
163 140
164 139
165 138
166 138
167 137
168 136
169 136
170 135
171 134
172 134
173 133
174 133
175 132
176 131
177 130
177 129
178 128
179 127
180 126
181 125
182 124
183 123
184 122
184 121
185 120
186 119
187 118
188 117
189 117
190 116
190 115
191 114
192 113
193 112
194 111
195 110
196 109
196 108
197 107
197 106
198 105
199 104
199 103
200 102
200 101
200 100
201 99
201 98
201 97
201 96
201 95
201 94
201 93
202 92
202 91
203 90
203 89
203 88
203 87
203 86
204 85
205 84
206 84
207 84
208 83
209 83
210 83
211 83
212 83
213 82
214 82
215 81
216 80
217 79
218 79
219 78
220 77
221 76
221 75
222 74
222 73
223 72
223 71
223 70
223 69
223 68
223 67
223 66
222 66
221 65
220 65
219 65
218 65
217 65
216 65
215 65
214 65
213 65
212 65
211 65
210 64
209 64
208 64
207 64
206 64
205 64
204 64
203 64
202 64
201 63
200 62
199 61
198 60
197 59
198 58
197 58
196 57
195 56
194 55
195 54
194 54
193 53
192 52
191 51
192 50
192 49
192 48
191 48
190 47
189 46
188 45
189 44
188 44
187 43
186 43
185 42
184 41
183 41
182 41
181 41
180 41
179 40
178 39
177 38
176 37
175 36
174 35
173 34
172 33
171 32
170 31
169 30
168 30
167 29
166 28
165 28
164 27
163 27
162 26
161 25
160 25
159 25
158 24
157 24
156 24
155 23
154 22
153 22
152 22
151 22
150 21
149 20
148 20
147 19
146 19
145 19
144 18
143 18
142 17
141 17
140 17
139 17
138 16
139 15
138 15
137 14
136 14
135 14
134 13
133 13
132 13
131 13
130 12
129 12
128 12
127 11
126 11
125 11
124 11
123 11
122 10
121 10
120 10
119 10
118 10
117 10
116 9
115 9
114 9
113 9
112 9
111 9
110 9
109 9
108 8
107 8
106 8
105 8
104 7
103 7
102 7
101 7
100 7
99 7
98 7
97 7
96 6
95 6
94 6
93 6
92 6
91 6
90 6
89 6
88 6
87 6
86 7
85 7
84 7
83 7
82 7
81 7
80 7
79 7
78 7
77 7
76 7
75 7
74 7
73 7
72 7
71 8
70 8
69 8
68 8
67 8
66 8
65 8
64 8
63 8
62 7
61 7
60 7
59 7
58 7
57 7
56 7
55 7
54 7
53 7
52 7
51 7
50 7
49 7
48 7
47 7
46 7
45 7
44 6
43 6
42 6
41 6
40 6
39 6
38 6
37 6
36 6
35 6
34 6
33 6
32 6
31 6
30 6
29 6
28 6
27 6
26 5
25 5
24 5
23 5
22 4
21 4
20 4
19 4
18 4
17 4
16 4
15 4
14 3
13 3
12 3
11 3
10 3
9 2
8 2
7 2
6 2
5 2
4 2
3 2
