117 2
116 3
115 4
114 4
114 5
113 6
113 7
112 8
111 8
111 9
110 10
110 11
109 12
109 13
109 14
109 15
108 16
108 17
108 18
108 19
108 20
107 21
107 22
107 23
107 24
107 25
107 26
107 27
107 28
107 29
106 30
106 31
106 32
106 33
106 34
106 35
105 36
105 37
105 38
105 39
105 40
105 41
105 42
104 43
104 44
104 45
104 46
103 47
103 48
102 49
101 49
100 50
99 50
98 50
97 50
97 51
96 52
95 52
94 52
93 52
93 53
93 54
92 55
91 55
90 56
89 57
88 58
87 58
86 59
85 60
84 61
83 62
82 62
81 63
80 64
79 65
78 65
78 66
77 67
76 67
75 67
74 66
73 65
72 65
72 66
72 67
72 68
72 69
72 70
71 71
70 72
69 73
68 73
67 74
66 75
65 75
64 75
64 76
63 77
62 77
61 78
60 78
59 78
59 79
58 80
57 80
56 80
55 80
55 81
55 82
55 83
54 84
53 84
52 84
51 85
50 86
49 86
48 87
47 87
47 88
46 89
45 89
44 89
43 89
42 89
41 89
40 89
39 89
38 89
38 90
38 91
38 92
37 93
36 93
35 94
34 94
33 94
32 95
31 96
30 96
29 96
28 96
27 96
27 97
26 98
25 98
24 98
23 98
22 99
21 100
20 100
19 101
18 101
17 101
16 101
15 102
14 102
13 103
12 103
11 103
10 104
9 104
8 105
7 105
6 105
5 106
4 106
3 106
2 106
2 107
2 108
2 109
3 110
3 111
3 112
4 112
5 112
6 112
7 112
8 112
9 112
10 111
11 111
12 110
13 110
14 110
15 109
16 109
17 109
18 108
19 108
20 107
21 107
22 107
23 107
24 106
25 106
26 105
27 105
28 105
29 105
30 104
31 104
32 103
33 104
34 104
35 103
36 102
37 102
38 102
39 102
40 102
41 102
42 102
43 102
44 102
45 101
46 101
47 101
48 101
49 100
50 99
51 99
52 99
53 99
54 99
55 99
56 100
55 101
54 102
53 103
52 104
52 105
51 106
50 106
49 106
48 107
47 108
47 109
47 110
46 111
45 112
44 113
43 114
42 115
41 116
40 117
39 118
38 119
37 120
36 121
35 121
35 122
34 123
33 124
32 125
32 126
32 127
32 128
33 128
34 128
35 128
36 127
37 126
38 126
39 125
40 125
41 124
42 123
43 123
44 123
45 122
46 121
47 120
48 119
49 118
50 117
51 116
52 116
53 116
54 115
55 115
56 114
57 114
58 114
59 113
60 112
61 112
62 112
63 111
64 111
65 110
66 110
67 110
68 109
69 109
70 109
71 109
72 109
73 108
74 107
75 107
76 107
77 107
78 107
79 107
80 106
81 106
82 106
83 105
84 106
85 106
86 105
87 104
88 104
89 104
90 104
91 104
92 104
93 104
94 104
95 104
96 103
97 103
98 103
99 103
100 103
101 103
102 103
103 102
104 102
105 102
106 102
107 102
108 102
109 102
110 102
111 102
112 101
113 100
114 100
115 100
116 100
117 100
118 99
119 99
120 99
121 98
122 98
123 97
124 97
125 97
126 97
127 97
128 97
129 96
130 96
131 96
132 95
133 95
134 95
135 94
136 94
137 94
138 94
139 94
140 93
141 93
142 93
143 92
144 92
145 92
146 91
147 91
148 91
149 91
150 91
151 91
152 91
153 90
154 90
155 90
156 90
157 90
158 90
159 90
160 90
161 89
162 89
163 89
164 89
165 89
166 89
167 90
168 90
169 90
170 89
171 88
172 88
173 88
174 88
175 89
176 89
177 88
178 87
179 87
180 87
181 87
182 87
183 87
184 87
185 87
186 88
187 88
188 88
189 87
190 87
191 87
192 87
193 87
194 87
195 87
196 87
197 87
198 87
199 87
200 87
201 87
202 87
203 87
204 88
205 88
206 88
207 88
208 89
209 90
210 91
210 92
210 93
210 94
210 95
210 96
211 97
211 98
211 99
211 100
212 100
213 101
213 102
213 103
213 104
213 105
214 105
215 106
216 107
216 108
216 109
217 110
218 110
219 111
219 112
220 113
221 114
222 115
223 116
224 117
225 118
226 119
227 119
228 120
229 120
230 121
231 122
232 122
233 123
234 123
235 123
236 122
237 121
237 120
238 119
239 119
240 119
241 118
241 117
242 116
242 115
241 115
240 114
239 114
238 114
237 114
236 113
237 112
237 111
236 111
235 110
236 109
235 109
234 108
235 107
235 106
235 105
235 104
235 103
235 102
235 101
236 100
237 99
237 98
238 97
239 96
240 95
241 95
242 95
243 94
244 93
245 93
246 93
247 93
248 93
249 92
250 91
251 90
252 90
253 89
254 89
255 89
256 89
257 89
258 89
259 88
260 88
261 88
262 88
263 88
264 88
265 88
266 88
267 87
268 87
269 87
270 87
271 87
272 87
273 87
274 87
275 88
275 89
276 89
277 89
278 89
279 90
280 90
281 91
282 92
283 92
284 92
285 92
286 91
286 90
287 89
288 89
289 89
290 89
291 89
292 89
293 89
294 89
295 89
296 89
297 89
298 89
299 89
300 90
300 91
300 92
301 92
302 92
303 91
304 90
304 89
305 88
304 88
303 87
304 86
305 86
306 86
307 86
308 86
309 86
310 87
311 87
312 87
313 87
314 87
315 87
316 87
317 88
318 88
319 88
320 88
321 89
322 90
323 91
323 92
324 93
324 94
324 95
325 96
325 97
325 98
326 99
326 100
327 101
328 102
328 103
328 104
328 105
328 106
328 107
329 107
330 108
330 109
330 110
330 111
330 112
331 112
332 113
332 114
333 115
333 116
334 117
334 118
335 119
335 120
336 121
336 122
336 123
337 123
338 124
338 125
339 126
340 127
340 128
341 129
341 130
342 131
343 132
343 133
344 134
345 135
346 136
346 137
347 138
347 139
348 140
349 141
350 142
351 143
351 144
352 145
352 146
353 146
354 147
355 148
356 149
357 150
358 151
359 152
360 153
361 153
362 154
363 155
364 155
365 155
366 155
367 154
367 153
368 152
367 152
366 151
365 150
366 149
365 149
364 148
363 147
362 146
361 145
362 144
362 143
361 143
360 142
359 141
358 140
359 139
358 139
357 138
356 137
355 136
356 135
356 134
355 134
354 133
355 132
354 132
353 131
352 130
353 129
353 128
352 128
351 127
352 126
351 126
350 125
349 124
350 123
350 122
349 122
348 121
349 120
349 119
349 118
348 118
347 117
348 116
348 115
347 115
346 114
345 113
346 112
346 111
345 111
344 110
345 109
345 108
345 107
344 107
343 106
342 105
341 104
342 103
342 102
342 101
342 100
342 99
341 99
340 98
339 97
340 96
340 95
340 94
341 93
342 92
343 92
344 92
345 91
346 90
346 89
345 88
344 87
344 86
345 85
345 84
345 83
345 82
345 81
345 80
345 79
345 78
345 77
345 76
346 75
347 74
348 73
349 72
350 71
351 71
352 70
353 69
354 68
355 68
356 67
357 66
358 66
359 65
360 64
361 64
362 63
363 63
364 63
365 62
366 62
367 61
368 61
369 60
370 60
371 59
372 58
373 57
374 57
375 56
376 56
377 55
378 55
379 54
380 54
381 54
382 53
383 52
384 52
385 51
386 51
387 51
388 50
389 49
389 48
390 47
390 46
390 45
389 45
388 44
387 44
386 44
385 44
384 44
383 44
382 44
381 44
380 44
379 45
378 45
377 45
376 46
375 46
374 46
373 47
372 47
371 47
370 48
369 48
368 49
367 49
366 49
365 50
364 50
363 50
362 51
361 51
360 51
359 52
358 52
357 53
356 53
355 53
354 54
353 54
352 55
351 55
350 56
349 56
348 56
347 57
346 58
345 59
344 59
343 59
342 60
341 60
340 61
339 61
338 62
337 62
336 62
335 63
334 63
333 64
332 64
331 65
330 65
329 66
328 66
327 67
326 67
325 66
324 66
323 66
322 66
321 66
320 66
320 67
320 68
319 69
318 69
317 69
316 69
315 69
314 69
313 68
312 68
311 67
310 67
309 67
308 68
307 68
306 67
305 67
304 67
303 67
302 66
301 66
300 66
299 66
298 66
297 66
296 65
295 65
294 65
293 65
292 64
291 64
290 63
289 62
288 62
287 62
286 62
285 62
284 62
283 62
282 62
281 62
280 62
279 61
278 61
277 61
276 61
275 60
274 59
273 59
272 59
271 59
270 59
269 59
268 59
267 58
266 57
265 56
264 56
263 55
262 54
261 54
260 53
259 52
258 52
257 51
256 50
255 49
254 49
253 49
252 48
251 47
250 47
249 46
248 46
247 46
246 45
245 45
244 45
243 44
242 43
241 43
240 42
239 42
238 41
237 41
236 41
235 41
234 40
233 39
232 39
231 39
230 39
229 38
228 38
227 38
226 38
225 37
224 37
223 37
222 37
221 36
220 36
219 36
218 36
217 36
216 35
215 35
214 35
213 35
212 35
211 34
210 34
209 34
208 34
207 34
206 33
205 33
204 33
203 33
202 32
201 32
200 32
199 32
198 32
197 32
196 32
195 32
194 31
193 31
192 31
191 31
190 31
189 31
188 31
187 31
186 31
185 31
184 30
183 30
182 30
181 30
180 30
179 30
178 30
177 30
176 30
175 30
174 29
173 29
172 29
171 29
170 29
169 29
168 29
167 29
166 28
165 28
164 28
163 28
162 28
161 28
160 27
159 27
158 27
157 27
156 27
155 27
154 27
153 27
152 26
151 26
150 26
149 26
148 26
147 26
146 25
145 25
144 24
143 24
142 24
141 24
140 23
139 23
138 23
137 22
136 22
135 22
134 22
133 22
132 21
131 20
130 19
129 19
128 18
129 17
129 16
128 16
127 15
126 14
125 13
126 12
126 11
125 11
124 10
125 9
125 8
125 7
125 6
124 6
123 5
122 4
123 3
122 3
121 2
120 2
119 2
118 2
