102 4
102 5
101 6
101 7
100 8
99 9
98 8
97 8
96 8
96 9
95 10
94 11
93 12
92 13
91 12
90 12
89 12
89 13
88 14
87 15
86 16
85 15
84 15
83 15
83 16
82 17
81 18
80 17
79 17
78 17
78 18
77 19
76 20
75 21
74 22
73 21
73 22
72 23
71 22
70 22
70 23
69 24
68 23
68 24
67 25
66 26
65 25
65 26
64 27
63 26
63 27
62 28
61 29
60 30
59 29
58 29
58 30
57 31
56 32
55 33
54 32
54 33
53 34
52 35
51 34
51 35
50 36
49 35
49 36
48 37
47 36
47 37
46 38
46 39
45 40
44 41
43 40
42 40
42 41
41 42
40 41
40 42
39 43
38 42
38 43
37 44
36 43
35 43
35 44
34 45
33 44
32 44
32 45
31 46
30 45
29 45
29 46
28 47
27 46
26 46
26 47
25 48
24 47
24 48
23 49
22 50
21 51
20 52
19 53
18 54
17 55
16 56
15 55
15 56
14 57
13 58
12 59
12 60
11 61
10 62
9 61
9 62
8 63
7 62
6 62
5 62
5 63
4 64
4 65
5 66
5 67
4 68
4 69
4 70
4 71
4 72
4 73
4 74
4 75
4 76
3 77
3 78
2 79
2 80
2 81
3 81
4 82
3 83
3 84
3 85
3 86
3 87
4 88
4 89
5 90
5 91
5 92
6 93
7 94
8 94
9 95
9 96
9 97
10 98
10 99
10 100
11 101
11 102
12 102
13 102
14 103
14 104
15 105
15 106
16 106
17 107
18 108
19 109
20 109
21 110
22 111
23 112
24 112
25 112
26 112
27 113
28 114
29 115
30 115
31 116
32 116
33 117
34 117
35 118
36 119
37 120
38 120
39 121
39 122
40 123
41 124
42 125
43 126
44 126
45 127
45 128
46 129
47 130
47 131
48 131
49 131
50 132
51 133
51 134
52 134
53 134
54 135
55 135
56 136
57 137
58 138
59 138
60 139
61 139
62 140
63 140
64 141
65 142
66 143
67 143
68 143
69 144
70 145
71 146
72 146
73 147
74 148
75 149
76 149
77 149
78 150
79 151
80 152
81 152
82 152
83 153
84 153
85 154
86 155
87 155
88 156
89 157
90 158
91 158
92 159
93 159
94 160
95 160
96 161
97 161
98 161
99 161
100 161
101 161
102 161
103 161
104 161
105 161
106 161
107 161
108 160
109 160
109 159
110 158
110 157
111 156
112 155
113 154
113 153
114 152
115 151
115 150
116 149
117 148
118 147
119 146
120 145
120 144
121 143
122 142
122 141
123 140
124 140
125 139
126 138
127 137
128 136
129 135
130 134
131 133
132 134
132 135
133 135
134 135
135 135
136 135
137 135
138 135
139 135
140 135
141 136
141 137
142 137
143 137
144 137
145 136
146 136
147 136
148 136
149 136
150 136
151 135
152 135
153 135
154 134
154 133
155 132
156 132
157 131
157 130
158 129
159 128
159 127
160 126
161 125
161 124
162 123
163 122
163 121
164 120
165 120
165 119
166 118
166 117
167 116
168 115
169 114
170 113
171 112
171 111
172 110
173 110
173 109
174 108
175 108
175 107
175 106
176 105
177 104
178 104
179 104
180 104
180 103
181 102
182 102
183 101
184 101
185 101
186 100
187 100
188 100
189 100
190 99
191 99
192 99
193 99
194 98
195 98
196 97
197 97
198 97
199 97
200 97
201 97
202 96
203 96
204 95
205 95
206 95
207 96
208 96
209 97
210 97
211 97
212 97
213 97
214 97
215 97
216 97
216 96
216 95
217 94
217 93
218 92
219 92
220 91
221 91
222 90
223 90
224 89
225 89
226 89
227 89
228 89
229 88
230 88
231 89
232 89
233 89
234 90
235 91
236 92
237 92
238 92
239 93
240 93
241 93
242 93
243 93
244 92
245 92
245 91
246 90
247 90
247 89
247 88
246 87
247 86
248 86
249 86
250 86
251 85
251 84
252 83
253 83
254 83
255 83
256 83
257 82
258 83
259 83
260 84
261 85
262 86
262 87
263 88
264 89
264 90
265 91
265 92
265 93
266 93
267 94
268 95
269 96
269 97
270 98
270 99
271 100
272 101
272 102
273 103
274 103
275 104
276 104
277 105
278 105
279 105
280 105
281 104
282 103
283 102
283 101
283 100
283 99
283 98
283 97
284 96
284 95
284 94
285 93
285 92
285 91
285 90
286 89
287 88
287 87
288 86
289 85
290 84
291 83
292 83
293 82
294 82
295 81
296 80
297 79
297 78
298 77
298 76
298 75
298 74
298 73
299 72
299 71
299 70
299 69
300 68
300 67
300 66
299 65
298 65
297 64
296 64
295 63
294 63
293 63
292 63
291 63
290 63
289 63
289 64
288 65
287 64
286 64
285 64
284 64
283 64
282 63
281 63
280 62
280 63
279 64
278 65
277 66
276 67
275 66
274 66
273 66
273 67
272 68
271 67
270 67
269 67
268 67
268 68
267 69
266 68
265 68
264 68
264 69
263 70
262 69
261 69
261 70
260 71
259 70
258 70
257 70
256 70
255 70
254 69
253 69
252 69
251 69
250 69
249 69
248 68
247 68
247 69
246 70
245 69
244 69
243 69
242 68
241 68
241 69
240 70
239 69
238 69
237 69
236 69
235 68
234 68
234 69
233 70
232 69
231 69
230 69
229 68
228 68
227 68
226 68
225 68
225 69
224 70
223 69
222 69
221 69
220 69
219 69
218 69
217 69
216 69
215 69
214 69
213 69
212 69
211 69
210 69
209 69
208 69
208 70
207 71
206 70
205 70
204 70
203 70
202 70
201 70
200 70
199 70
198 70
197 70
196 70
195 70
194 70
193 70
192 70
191 70
190 70
189 70
188 70
187 70
186 70
185 70
184 70
183 70
182 70
181 70
180 70
179 70
178 70
177 69
176 68
175 67
175 66
175 65
174 64
174 63
173 62
172 61
171 60
170 59
169 59
168 58
167 57
166 56
165 56
164 55
163 55
162 54
162 53
161 52
160 52
159 51
159 50
158 49
158 48
158 47
157 46
157 45
156 44
156 43
155 42
154 41
153 41
152 40
151 40
150 40
149 39
148 39
147 39
147 40
146 41
145 40
144 40
143 40
142 40
141 40
141 41
140 42
139 41
138 40
138 39
137 38
137 37
136 36
136 35
135 34
134 33
133 32
132 31
131 30
130 29
130 28
129 27
128 26
127 25
127 24
126 23
125 22
124 21
124 20
123 19
122 18
122 17
122 16
121 15
120 14
120 13
119 12
119 11
119 10
118 9
118 8
117 7
116 7
115 6
114 6
113 5
112 5
111 5
110 4
109 4
108 4
107 4
106 5
105 5
104 4
103 4
