154 2
154 3
154 4
153 5
152 5
151 5
150 5
149 5
148 5
147 5
146 5
145 5
144 4
143 4
142 4
142 5
142 6
141 7
140 7
139 7
138 7
137 7
136 7
135 7
134 7
133 7
132 7
132 8
132 9
131 10
130 9
129 9
128 9
127 9
126 9
125 9
124 9
123 9
123 10
123 11
122 12
121 12
120 12
119 12
118 12
117 12
116 12
115 12
114 13
114 14
114 15
113 16
112 16
111 16
110 16
109 16
108 16
107 17
106 17
105 17
104 18
103 18
102 18
101 18
100 18
99 19
98 19
97 19
96 19
95 19
94 20
93 21
92 22
91 22
90 22
89 23
88 23
87 23
86 23
85 23
84 24
83 25
82 25
81 26
80 26
79 26
78 27
77 27
76 27
75 27
74 28
73 28
72 28
71 29
70 29
69 30
68 30
67 30
66 31
65 31
64 32
63 33
62 33
61 33
60 34
59 34
58 35
57 35
56 36
56 37
56 38
55 39
54 40
53 41
53 42
53 43
53 44
54 45
55 45
56 45
57 46
57 47
57 48
58 48
59 49
60 50
61 50
62 51
63 52
64 53
65 54
66 55
67 55
68 56
69 57
68 58
67 58
66 58
65 57
64 57
63 57
62 57
61 57
60 57
59 56
58 56
57 56
56 55
55 55
54 55
53 55
52 54
51 54
50 54
49 53
48 53
47 52
46 51
45 51
44 51
43 51
42 51
41 50
40 50
39 50
38 49
37 49
36 48
35 48
34 48
33 47
32 47
31 46
30 46
29 46
28 45
27 45
26 45
25 44
24 44
23 43
22 43
21 43
20 43
19 42
18 42
17 42
16 42
15 42
14 41
13 41
12 41
11 41
10 41
9 41
8 41
7 41
6 41
5 41
4 42
4 43
4 44
4 45
4 46
4 47
5 48
5 49
6 50
7 51
7 52
8 53
9 54
10 55
11 56
12 57
12 58
13 59
13 60
13 61
14 62
14 63
15 64
15 65
16 66
16 67
16 68
17 69
18 70
18 71
19 72
19 73
19 74
18 75
17 76
16 76
16 77
16 78
15 79
14 80
13 81
13 82
12 83
11 84
11 85
10 86
9 87
8 88
7 89
7 90
7 91
6 92
5 93
4 94
4 95
3 96
2 97
2 98
2 99
2 100
2 101
3 102
4 102
5 103
6 103
7 103
8 103
9 102
10 102
11 102
12 102
13 102
14 102
15 101
16 101
17 101
18 101
19 101
20 100
21 100
22 100
23 100
24 99
25 99
26 98
27 98
28 97
29 97
30 96
31 96
32 95
33 95
34 94
35 94
36 94
37 93
38 93
39 92
40 92
41 92
42 91
43 91
44 90
45 90
46 90
47 89
48 88
49 87
50 87
51 87
52 86
53 86
54 85
55 85
56 84
57 84
58 84
59 83
60 83
61 83
62 82
63 82
64 82
65 83
65 84
65 85
64 86
64 87
63 88
62 89
62 90
62 91
61 92
60 93
60 94
59 95
59 96
59 97
59 98
58 99
58 100
57 101
56 102
56 103
56 104
56 105
56 106
56 107
55 108
55 109
55 110
55 111
55 112
55 113
56 114
56 115
56 116
56 117
56 118
56 119
57 119
58 120
59 121
60 121
61 122
62 122
63 122
64 122
65 122
66 122
67 122
68 122
69 122
70 123
71 123
72 123
73 123
74 123
75 123
76 123
77 123
78 123
79 123
80 123
81 124
82 125
83 125
84 125
85 125
86 125
87 125
88 125
89 125
90 125
91 125
92 125
93 125
94 124
95 124
96 124
97 124
98 125
99 125
100 125
101 125
102 125
103 125
104 125
105 125
106 126
107 126
108 126
109 126
110 126
111 126
112 126
113 126
114 126
115 126
116 126
117 126
118 126
119 126
120 126
121 126
122 126
123 126
124 126
125 126
126 126
127 127
128 127
129 127
130 127
131 127
132 127
133 128
134 128
135 128
136 128
137 128
138 128
139 128
140 128
141 128
142 128
143 128
144 128
145 128
146 128
147 128
148 128
149 128
150 128
151 128
152 128
153 128
154 128
155 127
156 127
157 127
158 127
159 127
160 127
161 127
162 126
163 126
164 126
165 126
166 126
167 126
168 126
169 126
170 126
171 126
172 126
173 126
174 126
175 126
176 127
175 128
174 128
174 129
174 130
174 131
175 131
176 131
177 131
178 131
179 130
180 130
181 130
182 130
183 129
184 129
185 129
186 128
187 128
188 128
189 128
190 127
191 127
192 127
193 126
194 126
195 126
196 125
197 125
198 124
199 124
200 124
201 123
202 123
203 122
204 122
205 122
206 121
207 121
208 121
209 120
210 119
211 119
212 118
213 118
214 118
215 117
216 117
217 117
218 117
219 116
220 116
221 116
222 115
223 115
224 115
225 114
226 114
227 114
228 113
229 112
230 112
231 112
232 111
233 111
234 110
235 110
236 109
237 109
238 109
239 108
240 108
241 108
242 108
243 107
244 107
245 107
246 106
247 106
248 106
249 105
250 105
251 105
252 104
253 104
254 103
255 103
256 102
257 102
258 101
259 100
260 100
261 99
262 99
263 98
264 98
265 97
266 97
267 96
268 96
269 95
270 95
271 94
272 93
273 93
274 92
275 91
276 91
277 90
277 89
278 88
278 87
279 86
280 85
281 84
281 83
282 82
283 81
283 80
284 79
284 78
284 77
283 77
282 76
283 75
283 74
282 74
281 73
282 72
281 72
280 71
279 71
278 70
279 69
278 69
277 68
278 67
278 66
277 66
276 65
277 64
277 63
276 63
275 62
274 61
275 60
274 60
273 59
274 58
273 58
272 57
271 56
270 55
269 54
268 53
267 52
266 51
265 50
264 49
263 48
262 48
261 47
260 47
259 46
258 46
257 45
256 45
255 44
254 43
253 42
254 41
253 41
252 40
251 39
250 38
249 38
248 37
247 36
246 35
245 34
244 33
243 32
242 32
241 31
240 30
239 30
238 29
239 28
238 28
237 27
236 27
235 26
234 25
233 25
232 24
233 23
232 23
231 22
230 21
229 21
228 20
227 19
226 19
225 18
224 18
223 17
222 17
221 16
220 15
219 15
218 14
217 14
216 13
215 13
214 13
213 13
212 13
211 12
210 12
209 11
208 11
207 11
206 10
205 10
204 10
203 10
202 10
201 10
200 10
199 9
198 9
197 9
196 8
195 8
194 8
193 7
192 7
191 7
190 7
189 6
188 6
187 6
186 5
185 5
184 5
183 5
182 4
181 4
180 4
179 4
178 4
177 4
176 4
175 4
174 4
173 4
172 4
171 4
170 4
169 3
168 3
167 3
166 3
165 3
164 3
163 3
162 3
161 2
160 2
159 2
158 2
157 2
156 2
155 2
