43 2
43 3
42 4
41 3
40 3
39 3
38 3
37 3
37 4
36 5
36 6
36 7
36 8
35 9
35 10
35 11
34 12
34 13
34 14
33 15
33 16
33 17
32 18
32 19
32 20
31 21
31 22
31 23
31 24
31 25
30 26
30 27
30 28
30 29
29 30
28 30
28 31
28 32
28 33
28 34
28 35
29 36
29 37
29 38
29 39
29 40
29 41
29 42
29 43
29 44
29 45
29 46
29 47
29 48
29 49
29 50
29 51
29 52
29 53
29 54
29 55
29 56
30 57
30 58
30 59
31 60
32 61
31 62
30 62
29 61
28 61
27 61
26 61
25 61
24 60
23 60
22 60
21 60
20 60
19 59
18 59
17 58
16 58
15 58
14 59
13 59
12 58
11 58
10 58
9 58
8 58
7 58
6 58
5 58
4 58
3 58
2 59
2 60
2 61
2 62
2 63
3 64
4 64
5 65
5 66
5 67
5 68
5 69
5 70
6 71
6 72
6 73
7 74
7 75
7 76
6 77
6 78
6 79
6 80
6 81
6 82
7 83
7 84
7 85
8 85
9 85
10 85
11 85
12 85
13 85
14 85
15 85
16 84
17 84
18 83
19 83
20 83
21 82
22 82
23 82
24 81
25 81
26 80
27 80
28 79
29 79
30 79
31 78
32 78
33 78
34 79
34 80
33 81
33 82
32 83
31 84
30 85
30 86
30 87
30 88
30 89
30 90
29 91
29 92
29 93
29 94
29 95
29 96
29 97
29 98
29 99
29 100
29 101
29 102
29 103
29 104
29 105
29 106
30 107
30 108
30 109
31 110
32 111
33 112
34 112
35 112
36 112
37 112
38 112
39 112
40 112
41 112
42 111
43 111
44 111
45 112
46 113
47 113
48 113
49 112
50 112
51 113
52 113
53 113
54 113
55 113
56 113
57 113
58 113
59 112
60 112
61 111
62 111
63 112
64 112
65 112
66 111
67 111
68 110
69 110
70 109
71 109
72 108
73 108
74 108
75 108
76 108
77 107
78 107
79 107
80 107
81 107
82 107
83 106
84 106
85 106
86 106
87 107
87 108
87 109
88 109
89 109
90 110
90 111
91 111
92 112
91 113
91 114
91 115
91 116
91 117
92 117
93 118
93 119
92 120
92 121
92 122
92 123
92 124
93 125
93 126
93 127
93 128
93 129
94 129
95 129
96 129
97 129
98 129
99 129
100 128
101 129
102 129
103 128
104 127
105 126
106 125
106 124
107 123
107 122
107 121
107 120
108 119
109 118
110 118
111 117
111 116
112 115
112 114
112 113
112 112
112 111
112 110
113 109
113 108
113 107
113 106
113 105
113 104
112 104
111 103
112 102
112 101
112 100
111 100
110 99
111 98
111 97
112 96
113 95
114 95
115 95
116 94
117 94
118 93
119 92
120 92
121 91
122 90
123 89
123 88
124 87
125 86
126 85
126 84
127 83
127 82
128 81
129 80
129 79
130 78
131 77
132 76
132 75
133 74
134 74
135 73
136 72
137 71
138 70
139 69
140 69
141 68
141 67
142 66
142 65
143 64
143 63
142 63
141 62
142 61
141 61
140 60
139 59
138 59
137 58
136 57
135 57
134 56
133 56
132 55
133 54
132 54
131 53
130 52
129 51
130 50
129 50
128 49
127 49
126 48
127 47
126 47
125 46
124 45
123 44
124 43
123 43
122 42
123 41
122 41
121 40
122 39
121 39
120 38
119 38
118 37
119 36
119 35
118 35
117 34
116 33
115 32
116 31
115 31
114 30
113 29
112 28
113 27
112 27
111 26
110 25
109 24
110 23
109 23
108 22
107 21
106 20
107 19
106 19
105 18
104 18
103 17
104 16
103 16
102 15
101 15
100 14
99 13
98 12
97 11
96 10
95 9
94 9
93 8
92 7
91 7
90 7
89 6
88 5
87 5
86 5
85 5
84 5
83 5
82 5
81 5
80 4
79 4
78 4
77 4
76 4
75 5
74 5
73 5
72 4
71 4
70 4
69 4
68 4
67 4
66 3
65 3
64 3
63 3
62 3
61 3
60 3
59 3
58 3
57 3
56 3
55 3
54 3
53 3
52 3
51 3
50 3
49 3
48 3
47 3
46 2
45 2
44 2
