90 2
89 3
89 4
88 5
88 6
87 7
86 8
86 9
85 10
85 11
85 12
84 13
84 14
83 15
82 15
81 15
80 15
79 14
80 13
80 12
80 11
79 11
78 10
77 10
76 10
75 10
74 10
73 9
72 8
71 8
70 7
69 7
68 7
68 8
67 9
66 10
66 11
65 12
64 12
63 13
63 14
63 15
62 16
61 16
60 16
59 16
58 16
57 15
57 14
57 13
57 12
57 11
56 11
55 10
54 10
53 10
52 10
52 11
52 12
52 13
52 14
51 15
50 15
49 15
49 16
49 17
49 18
48 19
48 20
48 21
47 22
46 23
45 23
44 23
43 23
42 23
41 23
40 22
41 21
41 20
40 20
39 19
40 18
40 17
40 16
39 16
38 15
37 14
36 14
35 14
34 14
34 15
34 16
34 17
34 18
34 19
34 20
35 20
36 21
36 22
36 23
37 24
37 25
37 26
38 27
38 28
38 29
38 30
39 31
38 32
37 33
36 34
35 34
34 35
33 36
32 36
32 37
31 38
30 39
29 40
28 41
27 42
26 43
25 44
24 45
23 46
22 47
21 47
20 48
19 48
18 49
17 50
16 50
15 50
15 51
14 52
13 52
12 52
11 53
10 54
9 55
8 56
7 57
7 58
6 59
5 60
4 61
3 62
3 63
2 64
2 65
2 66
2 67
2 68
2 69
2 70
3 71
4 72
4 73
4 74
4 75
4 76
5 77
6 77
7 78
8 79
9 80
10 81
11 81
12 81
13 82
13 83
14 83
15 84
16 84
17 85
18 86
19 86
20 87
21 87
22 88
23 89
24 89
25 90
26 90
27 91
28 92
29 92
30 93
31 93
32 94
33 94
34 95
35 95
36 96
37 96
38 96
39 97
40 97
41 98
42 98
43 99
44 99
45 99
46 100
47 100
48 100
49 101
50 101
51 101
52 102
53 102
54 102
55 103
56 103
57 103
58 103
59 103
60 103
61 104
61 105
62 106
63 107
64 108
64 109
65 109
66 110
67 111
68 112
69 113
70 114
71 115
72 115
73 116
74 117
75 117
76 118
76 119
77 120
78 120
79 120
80 120
81 120
82 120
83 120
84 119
85 118
86 117
86 116
87 115
87 114
87 113
87 112
87 111
86 111
85 110
86 109
87 108
88 107
89 106
90 105
91 105
92 105
93 106
94 106
95 106
96 106
97 106
98 106
99 106
100 106
101 106
102 106
103 107
103 108
103 109
103 110
103 111
103 112
103 113
103 114
104 115
104 116
104 117
104 118
105 119
105 120
106 120
107 119
107 118
108 117
108 116
108 115
108 114
108 113
109 112
110 113
111 113
112 113
113 114
114 114
115 115
115 116
116 117
116 118
117 118
118 118
119 119
120 119
121 118
121 117
122 116
121 116
120 115
121 114
121 113
122 112
123 112
124 112
125 112
126 112
127 112
128 113
129 113
130 113
131 113
132 113
133 112
133 111
134 110
135 109
136 108
137 108
138 108
139 109
140 109
141 109
142 110
143 110
144 110
145 109
145 108
146 107
145 107
144 106
143 105
143 104
144 103
145 103
146 103
147 103
148 103
149 103
150 102
150 101
151 100
152 99
153 99
154 99
155 99
156 99
157 98
158 97
159 98
160 98
161 98
162 99
163 99
164 99
165 98
166 98
167 97
168 97
169 97
170 96
170 95
171 94
172 93
172 92
173 91
174 91
175 90
176 89
176 88
177 87
177 86
178 85
178 84
179 83
180 82
180 81
181 80
182 79
183 78
183 77
184 76
185 75
186 74
187 73
188 73
189 73
190 73
191 73
192 74
192 75
193 76
194 76
195 77
196 78
197 79
198 79
199 80
200 81
201 81
202 82
202 83
203 84
204 85
205 86
206 87
207 88
208 89
209 90
210 90
211 91
212 92
213 92
214 93
214 94
215 95
216 95
217 96
218 96
219 97
220 97
221 98
222 98
223 99
224 99
225 100
226 100
227 100
228 100
229 100
230 100
231 100
232 100
233 100
234 99
235 98
235 97
236 96
236 95
235 95
234 94
233 93
234 92
233 92
232 91
233 90
233 89
233 88
232 88
231 87
232 86
231 86
230 85
229 84
228 83
227 82
226 81
227 80
227 79
226 79
225 78
226 77
225 77
224 76
225 75
225 74
225 73
224 73
223 72
224 71
224 70
224 69
224 68
224 67
225 66
225 65
226 64
227 63
227 62
228 61
228 60
229 59
229 58
230 57
231 56
232 55
233 54
234 54
235 53
235 52
236 51
236 50
237 49
238 48
239 47
239 46
240 45
240 44
240 43
240 42
241 41
241 40
242 39
242 38
242 37
241 37
240 36
239 36
238 36
237 36
236 36
235 36
234 36
233 37
232 37
231 37
230 38
229 38
228 38
227 38
226 38
225 39
224 39
223 40
222 40
221 41
220 41
219 42
218 43
217 43
216 43
215 44
214 45
213 46
212 46
211 47
210 48
209 49
208 49
207 50
206 51
205 51
204 52
203 53
202 53
201 54
200 54
199 55
198 55
197 56
196 56
195 57
194 57
193 57
192 58
191 59
190 59
189 59
188 58
188 57
189 56
189 55
189 54
189 53
188 53
187 52
186 51
187 50
187 49
186 49
185 48
186 47
185 47
184 46
183 45
182 45
181 45
180 44
179 44
178 43
177 43
176 43
175 42
174 41
173 41
172 40
171 39
170 39
169 38
168 37
167 37
166 37
165 36
164 35
163 35
162 35
161 35
160 35
159 35
158 34
157 34
156 34
155 34
154 33
155 32
155 31
154 31
153 30
152 30
151 29
150 29
149 29
148 28
147 27
146 27
145 26
146 25
146 24
145 23
144 23
143 24
142 24
141 24
140 23
139 23
138 23
137 22
138 21
138 20
138 19
137 19
136 18
135 18
134 18
133 18
132 18
131 18
130 18
129 18
128 18
127 18
126 17
127 16
127 15
128 14
127 14
126 13
125 13
124 14
123 14
122 14
121 15
120 15
119 15
118 15
117 14
118 13
118 12
118 11
118 10
117 10
116 9
115 9
114 9
113 10
112 10
111 10
110 10
109 11
108 12
107 13
106 13
105 12
104 12
103 11
104 10
104 9
105 8
104 8
103 7
102 7
101 8
100 9
99 9
99 10
98 11
97 12
96 13
95 14
94 14
93 14
92 14
91 13
92 12
92 11
93 10
94 9
94 8
95 7
95 6
95 5
95 4
95 3
94 3
93 2
92 2
91 2
