65 2
65 3
64 4
63 5
63 6
63 7
63 8
62 9
61 10
61 11
60 12
60 13
60 14
60 15
59 16
59 17
58 18
58 19
57 20
57 21
56 22
55 22
54 23
53 23
52 23
51 24
50 24
49 24
48 25
47 25
46 25
45 26
44 26
43 26
42 27
41 27
40 27
39 28
38 28
37 28
36 29
35 29
34 29
33 30
32 30
31 31
30 31
29 31
28 32
27 32
26 33
25 33
24 33
23 34
22 34
21 35
20 35
19 36
18 36
17 37
16 38
15 38
14 39
13 40
12 40
11 41
10 42
9 42
8 43
8 44
7 45
6 45
5 46
5 47
4 48
4 49
3 50
3 51
2 52
2 53
2 54
2 55
2 56
3 57
3 58
3 59
3 60
3 61
3 62
3 63
4 64
4 65
5 66
6 66
7 66
8 67
9 68
10 68
11 69
12 69
13 70
14 70
15 71
16 71
17 72
18 72
19 72
20 73
21 73
22 74
23 75
24 75
25 75
26 76
27 76
28 77
29 78
30 78
31 79
32 79
33 79
34 80
35 81
36 81
37 82
38 82
39 82
40 83
41 83
42 83
43 84
44 84
45 84
46 85
47 85
48 85
49 86
50 86
51 87
52 87
53 88
54 88
55 88
56 89
56 90
56 91
56 92
56 93
56 94
57 95
57 96
58 97
58 98
59 99
59 100
59 101
59 102
60 103
60 104
61 105
62 106
62 107
62 108
62 109
62 110
63 110
64 110
65 111
65 112
66 112
67 112
68 112
69 111
69 110
70 109
70 108
70 107
70 106
71 105
71 104
71 103
71 102
72 101
72 100
73 99
74 99
75 99
76 99
77 98
77 97
78 96
77 96
76 95
75 94
74 93
73 92
74 91
75 91
76 91
77 92
78 92
79 92
80 93
80 94
80 95
81 96
82 96
83 97
83 98
84 98
85 98
86 99
87 100
87 101
88 102
89 102
90 103
91 103
92 103
93 103
94 103
95 103
96 103
97 104
98 104
99 104
100 104
101 105
102 105
103 105
104 105
105 106
106 106
107 105
107 104
108 103
109 103
110 104
111 104
112 105
112 106
112 107
112 108
113 108
114 108
115 108
116 107
116 106
117 105
118 106
118 107
119 107
120 107
121 107
122 107
123 107
124 107
125 107
126 107
127 107
128 106
128 105
129 104
130 104
131 105
132 106
133 106
134 105
135 104
136 104
137 104
138 104
139 103
140 102
141 102
142 103
143 104
144 104
145 104
146 103
146 102
147 101
148 101
149 102
150 102
151 103
152 103
153 102
153 101
154 100
155 100
156 101
157 101
158 101
159 101
160 101
161 101
162 102
163 102
164 102
165 101
165 100
164 99
163 98
162 98
161 98
160 97
159 96
160 95
161 95
162 96
163 96
164 96
165 97
166 97
167 97
168 98
169 98
170 97
171 96
172 96
173 95
174 95
175 96
176 96
177 96
178 95
179 94
180 93
181 93
182 93
183 93
184 93
185 93
186 93
187 92
188 91
188 90
189 89
190 88
191 88
192 88
193 87
193 86
194 85
195 85
196 85
197 85
198 85
199 85
200 85
201 85
202 85
203 84
204 84
205 84
206 84
207 84
208 84
209 83
210 82
211 81
212 81
213 80
214 79
215 79
216 79
217 79
218 78
219 77
220 76
221 76
222 76
223 75
224 75
225 74
226 74
227 73
228 73
229 73
230 72
231 71
231 70
232 69
233 69
234 69
235 69
236 68
237 68
238 68
239 68
240 67
241 68
242 68
243 68
244 69
245 69
246 69
247 69
248 69
249 70
249 71
249 72
250 73
251 74
252 74
253 75
253 76
254 77
255 77
256 78
256 79
257 80
258 81
259 82
260 83
261 84
262 85
263 85
264 86
264 87
265 88
266 88
267 89
268 90
269 91
270 92
271 92
272 93
273 94
274 94
275 95
276 95
277 96
278 96
279 97
280 97
281 98
282 98
283 98
284 99
285 99
286 99
287 99
288 98
288 97
289 96
289 95
288 95
287 94
286 93
287 92
286 92
285 91
284 90
283 89
284 88
284 87
284 86
284 85
283 85
282 84
283 83
282 83
281 82
282 81
282 80
281 80
280 79
281 78
281 77
281 76
281 75
281 74
280 73
280 72
281 71
281 70
281 69
281 68
281 67
281 66
281 65
281 64
281 63
281 62
281 61
281 60
281 59
281 58
281 57
281 56
280 55
280 54
281 53
281 52
281 51
280 51
279 50
279 49
280 48
280 47
281 46
281 45
281 44
281 43
281 42
281 41
281 40
282 39
282 38
282 37
282 36
282 35
282 34
282 33
283 32
283 31
284 30
284 29
284 28
284 27
285 26
285 25
286 24
286 23
287 22
287 21
288 20
288 19
287 19
286 18
285 18
284 19
283 19
282 20
281 20
280 20
279 21
278 22
277 23
276 23
275 24
274 24
273 25
272 26
271 26
270 27
269 28
268 29
267 29
267 30
266 31
265 32
264 33
263 34
262 35
261 35
261 36
260 37
259 38
258 39
257 40
257 41
256 42
255 43
254 44
253 45
252 46
251 47
250 47
250 48
249 49
248 49
247 50
246 51
245 51
244 52
243 52
242 53
241 53
240 53
239 53
238 53
237 53
236 52
235 51
234 50
235 49
235 48
234 48
233 47
232 46
231 45
230 45
229 44
230 43
229 43
228 42
227 41
226 41
225 41
224 41
223 41
222 40
221 40
220 40
219 40
218 39
217 39
216 38
215 37
214 36
213 36
212 35
211 35
210 34
209 34
208 34
207 33
206 32
205 31
204 31
203 31
202 30
201 30
200 29
199 29
198 29
197 29
196 28
195 27
194 27
193 27
192 27
191 26
190 25
189 25
188 25
187 25
186 25
185 25
184 24
183 23
182 22
181 22
180 22
179 22
178 22
177 21
176 21
175 20
174 20
173 19
172 19
171 19
170 19
169 19
168 19
167 19
166 18
165 17
164 17
163 16
162 16
161 16
160 16
159 15
158 15
157 15
156 14
155 14
154 14
153 13
152 13
151 13
150 13
149 12
148 12
147 12
146 12
145 12
144 11
143 11
142 11
141 11
140 11
139 11
138 11
137 11
136 11
135 11
134 11
133 12
132 11
131 10
130 10
129 10
128 11
127 11
126 12
125 12
124 12
123 13
122 13
121 14
120 14
119 13
120 12
120 11
120 10
120 9
121 8
121 7
122 6
122 5
121 5
120 4
119 4
118 4
117 4
116 3
115 3
114 4
113 5
112 6
111 7
110 8
109 8
109 9
108 10
107 10
106 11
105 11
104 10
105 9
105 8
106 7
107 6
107 5
106 4
105 4
104 4
103 4
102 4
101 3
100 2
99 2
98 3
97 4
96 5
96 6
95 7
94 8
93 7
93 6
94 5
94 4
95 3
94 3
93 2
92 2
91 3
90 4
89 4
89 5
88 6
87 5
86 5
85 4
84 3
83 3
82 3
81 4
80 4
80 5
79 6
78 6
77 6
76 6
75 6
74 5
73 4
72 4
72 5
71 6
71 7
70 8
69 8
68 7
68 6
68 5
68 4
68 3
67 3
66 2
