78 2
77 3
76 3
75 3
74 3
73 4
72 4
71 4
70 5
69 5
68 6
67 6
66 7
65 7
64 7
63 8
62 8
61 9
60 9
59 9
58 10
57 10
56 10
55 11
54 11
53 12
52 12
51 12
50 13
49 13
48 14
47 14
46 14
45 15
44 15
43 16
42 16
41 17
40 17
39 17
38 18
37 18
36 19
35 19
34 19
33 20
32 21
31 21
30 21
29 22
28 22
27 23
26 23
25 24
24 24
23 25
22 26
21 27
20 27
19 28
18 29
17 29
16 30
15 31
14 31
13 32
12 33
11 33
10 34
9 35
8 35
7 36
6 37
5 37
4 38
3 39
2 40
2 41
2 42
2 43
2 44
3 45
4 45
5 45
6 45
7 44
8 43
9 42
10 41
11 41
12 40
13 40
14 39
15 38
16 38
17 37
18 36
19 36
20 35
21 34
22 33
23 33
24 33
25 32
26 32
27 31
28 30
29 30
30 29
31 28
32 28
33 27
34 27
35 26
36 26
37 25
38 25
39 25
40 24
41 24
42 24
43 23
44 23
45 22
46 22
47 21
48 21
49 20
50 20
51 19
52 19
53 19
54 18
55 18
56 18
57 17
58 17
59 16
60 16
61 16
62 16
63 15
64 15
65 14
66 14
67 13
68 13
69 13
70 12
71 12
72 11
73 11
74 10
75 10
76 10
77 9
78 9
79 8
80 8
81 8
82 8
83 8
84 8
85 8
86 8
87 8
88 8
89 9
90 9
91 9
92 9
93 10
94 10
95 11
96 11
97 11
98 11
99 12
100 12
101 12
102 13
103 13
104 13
105 14
106 14
107 15
108 16
109 16
110 16
111 17
112 18
113 19
114 20
115 21
115 22
115 23
115 24
115 25
116 26
116 27
115 28
114 29
113 29
112 30
112 31
112 32
111 33
110 34
110 35
110 36
109 37
108 37
107 37
106 38
105 39
104 40
104 41
104 42
103 43
102 44
101 43
100 44
99 45
98 46
97 46
96 47
95 48
94 49
94 50
93 51
92 52
91 51
90 51
89 51
88 51
88 52
88 53
87 54
86 54
85 54
84 54
83 55
82 55
81 56
80 56
79 56
78 57
77 58
76 58
76 59
76 60
75 61
74 61
74 62
73 63
72 63
71 63
71 64
70 65
70 66
69 67
69 68
68 69
67 70
67 71
66 72
66 73
66 74
65 75
65 76
65 77
65 78
65 79
65 80
65 81
65 82
65 83
65 84
65 85
65 86
66 87
66 88
67 89
68 90
68 91
68 92
69 93
68 94
67 94
67 95
66 96
65 96
65 97
65 98
65 99
65 100
65 101
65 102
64 103
63 103
62 103
61 103
60 104
59 104
58 104
57 105
56 105
55 106
54 105
53 104
52 103
51 102
50 102
50 103
50 104
50 105
50 106
49 107
49 108
49 109
48 110
47 110
46 110
46 111
46 112
46 113
46 114
46 115
46 116
46 117
46 118
47 119
48 120
48 121
47 122
47 123
47 124
48 125
49 125
50 125
51 125
52 124
53 123
54 123
55 122
56 122
57 122
58 121
59 120
60 120
61 120
62 119
63 118
64 118
65 117
66 116
67 115
68 114
69 114
70 114
71 113
72 114
72 115
72 116
72 117
72 118
72 119
72 120
72 121
71 122
71 123
71 124
71 125
71 126
71 127
71 128
71 129
71 130
71 131
71 132
71 133
71 134
71 135
71 136
71 137
71 138
72 139
72 140
72 141
73 142
74 143
74 144
75 145
76 145
77 146
78 146
79 146
80 146
81 145
82 145
83 145
84 145
85 145
86 144
87 143
88 142
89 142
90 142
91 142
92 142
93 141
94 141
95 140
96 140
97 139
98 139
99 139
100 138
101 138
102 138
103 138
104 137
105 136
106 136
107 136
108 136
109 136
110 136
111 137
111 138
111 139
111 140
112 141
113 141
114 141
115 141
116 142
116 143
116 144
117 145
118 145
119 145
120 144
121 144
122 144
123 143
124 143
125 142
126 142
127 141
128 141
129 141
130 141
131 140
132 140
133 139
134 138
135 137
136 137
137 136
138 136
139 135
140 134
141 133
142 132
143 131
144 130
145 129
146 128
147 127
148 126
149 126
150 126
151 126
152 126
153 126
154 125
155 125
156 124
157 124
158 124
159 123
160 123
161 123
162 122
163 122
164 121
165 120
166 119
167 118
168 117
169 116
170 115
171 114
172 113
173 112
174 111
174 110
175 109
176 108
177 107
177 106
178 105
178 104
179 103
180 102
180 101
181 100
181 99
181 98
181 97
182 96
182 95
183 94
183 93
184 92
184 91
184 90
184 89
185 88
185 87
186 86
186 85
186 84
185 84
184 83
183 82
182 81
181 80
180 80
179 81
178 80
177 80
176 79
177 78
177 77
177 76
177 75
177 74
177 73
176 73
175 72
174 72
173 72
172 72
171 72
170 71
171 70
170 70
169 69
168 68
167 67
168 66
168 65
167 65
166 64
167 63
166 63
165 62
166 61
165 61
164 60
165 59
164 58
164 57
165 56
164 56
163 55
162 54
163 53
162 53
161 52
160 51
159 51
158 50
157 49
156 48
155 47
154 47
153 46
152 45
151 45
150 45
149 45
148 44
148 43
148 42
149 41
149 40
148 40
147 39
148 38
148 37
147 37
146 36
145 36
144 35
143 34
142 33
141 32
142 31
141 31
140 30
139 30
138 30
137 29
136 28
135 28
134 27
133 26
134 25
133 25
132 24
131 24
130 23
129 22
128 21
127 20
126 20
125 19
124 18
123 18
122 17
121 17
120 16
119 15
118 14
117 13
116 13
115 12
114 11
113 11
112 10
111 10
110 9
109 8
108 7
107 7
106 7
105 7
104 6
103 6
102 5
101 5
100 5
99 4
98 4
97 4
96 3
95 3
94 2
93 2
92 2
91 2
90 2
89 2
88 2
87 2
86 2
85 2
84 2
83 2
82 2
81 2
80 2
79 2
