81 3
80 4
79 4
78 4
77 4
76 5
75 5
74 5
73 5
72 5
71 6
70 6
69 7
68 8
68 9
67 10
67 11
66 12
65 13
65 14
65 15
64 16
63 17
63 18
62 19
62 20
62 21
62 22
61 23
61 24
60 25
59 26
58 26
57 26
56 27
55 27
54 27
53 27
52 28
51 28
50 28
49 28
48 28
47 29
46 29
45 29
44 30
43 30
42 30
41 31
40 31
39 31
38 32
37 32
36 33
35 33
34 33
33 34
32 34
31 34
30 34
29 35
28 35
27 36
26 36
25 36
24 37
23 37
22 38
21 39
20 39
19 40
18 40
17 40
17 41
16 42
15 42
15 43
14 44
14 45
13 46
12 47
11 47
11 48
10 49
9 50
8 50
7 51
6 52
5 53
5 54
5 55
5 56
4 57
3 57
3 58
2 59
2 60
2 61
2 62
2 63
2 64
2 65
3 66
3 67
3 68
3 69
4 70
4 71
5 72
6 73
7 74
7 75
8 75
9 76
10 77
11 77
12 78
13 79
14 80
15 81
15 82
16 82
17 83
18 83
19 84
20 85
21 85
22 85
23 86
24 87
25 88
26 88
27 89
28 89
29 90
30 91
31 91
32 91
33 91
34 92
35 92
36 91
37 90
38 90
39 91
39 92
39 93
40 93
41 94
41 95
41 96
42 96
43 96
44 96
45 97
45 98
45 99
46 99
47 100
48 101
49 101
50 101
51 100
52 100
53 101
54 102
55 102
56 102
57 103
58 104
59 104
60 104
61 105
61 106
61 107
61 108
62 109
62 110
63 111
63 112
64 113
64 114
65 115
65 116
65 117
65 118
66 119
66 120
66 121
67 122
68 123
68 124
68 125
69 126
69 127
70 128
71 129
72 130
73 131
73 132
74 133
75 134
76 135
77 135
78 135
79 135
80 136
81 136
82 135
83 134
83 133
84 132
84 131
85 130
86 130
87 129
87 128
88 127
87 127
86 126
87 125
88 124
89 123
90 122
91 122
92 121
92 120
91 119
90 119
89 119
88 119
87 118
86 117
87 116
86 116
85 115
86 114
87 113
88 113
89 113
90 113
91 113
92 113
93 113
94 113
95 113
96 113
97 112
98 112
99 112
100 112
101 112
102 112
103 112
104 111
105 111
106 111
107 111
108 111
109 111
110 111
111 111
112 111
113 111
114 111
115 110
116 110
117 110
118 110
119 110
120 109
121 109
122 109
123 108
124 107
125 106
126 107
126 108
127 108
128 109
129 110
129 111
130 112
131 113
132 114
133 114
134 114
135 114
136 114
137 115
138 115
139 115
140 114
141 114
142 114
143 115
144 115
145 115
146 116
147 116
148 116
149 116
150 116
151 116
152 116
153 116
154 116
155 115
156 115
157 115
158 115
159 114
160 114
161 114
162 113
163 113
164 113
165 112
165 111
166 110
167 110
168 110
169 109
170 109
171 109
172 108
173 107
174 107
175 106
176 105
177 105
178 104
179 104
180 103
181 103
182 103
183 102
184 101
185 101
186 100
187 99
187 98
188 97
189 97
190 96
191 96
192 95
193 95
194 94
195 93
196 92
197 92
198 91
199 91
200 90
200 89
201 88
201 87
201 86
201 85
202 84
203 85
203 86
204 86
205 86
206 86
207 87
208 87
209 87
210 87
211 87
212 87
213 88
214 88
215 88
216 88
217 89
218 89
219 89
220 89
221 89
222 90
223 90
224 91
225 91
226 91
227 91
228 91
229 92
230 92
231 92
232 92
233 92
234 92
235 93
236 93
237 93
238 93
239 93
240 92
241 92
242 92
243 91
244 90
244 89
245 88
245 87
245 86
245 85
246 84
246 83
245 83
244 82
245 81
245 80
245 79
246 78
246 77
246 76
246 75
246 74
246 73
246 72
246 71
246 70
246 69
246 68
246 67
246 66
246 65
246 64
246 63
246 62
247 61
247 60
247 59
247 58
247 57
247 56
247 55
247 54
247 53
247 52
247 51
247 50
248 49
248 48
248 47
248 46
248 45
248 44
247 44
246 43
245 42
244 42
243 42
242 42
241 42
240 42
239 42
238 42
237 42
236 42
235 42
234 43
233 43
232 43
231 43
230 43
229 43
228 43
227 43
226 44
225 44
224 44
223 44
222 44
221 45
220 45
219 45
218 45
217 46
216 46
215 46
214 46
213 46
212 47
211 47
210 47
209 47
208 47
207 47
206 47
205 48
204 48
203 48
202 48
201 47
200 46
199 46
198 45
199 44
198 44
197 43
196 42
195 41
194 41
193 40
192 40
191 39
190 38
189 38
188 37
187 37
186 36
185 36
184 36
183 35
182 35
181 35
180 34
179 34
178 33
177 33
176 32
175 31
174 31
173 30
172 30
171 30
170 29
169 28
168 28
167 27
166 27
165 27
164 26
163 26
162 26
161 25
160 25
159 24
158 23
157 23
156 23
155 22
154 21
153 21
152 21
151 20
150 20
149 19
148 19
147 18
146 18
145 18
144 17
143 17
142 16
141 16
140 16
139 16
138 15
137 14
136 14
135 13
134 13
133 13
132 12
131 12
130 12
129 11
128 11
127 11
126 11
125 11
124 10
123 10
122 10
121 9
120 9
119 9
118 9
117 9
116 9
115 8
114 8
113 8
112 7
111 7
110 7
109 7
108 7
107 7
106 6
105 6
104 6
103 6
102 6
101 5
100 5
99 5
98 5
97 5
96 5
95 5
94 4
93 4
92 4
91 4
90 4
89 4
88 5
87 5
86 5
85 4
84 3
83 3
82 3
