90 2
89 3
88 3
87 4
86 4
86 5
85 6
84 6
83 6
83 7
83 8
82 9
81 10
80 11
80 12
80 13
80 14
80 15
80 16
80 17
79 18
79 19
79 20
79 21
79 22
79 23
79 24
79 25
78 26
77 27
77 28
77 29
77 30
77 31
76 32
75 33
74 34
74 35
74 36
74 37
73 38
72 39
71 40
71 41
71 42
70 43
69 43
68 44
67 45
67 46
66 47
65 48
64 48
63 49
63 50
62 51
61 51
60 52
59 53
59 54
58 55
57 55
57 56
56 57
55 58
54 59
54 60
53 61
52 61
51 62
51 63
50 64
49 65
48 66
48 67
47 68
46 69
45 70
45 71
44 72
44 73
43 74
42 74
41 73
40 72
39 71
38 70
37 70
36 69
35 68
34 68
33 67
32 66
31 65
30 64
29 63
28 62
27 62
26 61
25 60
24 59
23 58
22 57
21 56
20 55
19 55
18 54
17 53
16 53
15 52
14 52
13 52
12 51
11 51
10 50
9 50
8 50
7 50
6 49
5 49
4 49
3 49
2 49
2 50
2 51
2 52
3 53
3 54
4 55
4 56
4 57
4 58
4 59
5 60
5 61
5 62
5 63
5 64
6 65
7 66
7 67
7 68
8 69
8 70
8 71
8 72
8 73
8 74
9 75
9 76
9 77
8 78
8 79
8 80
8 81
8 82
8 83
8 84
8 85
8 86
8 87
8 88
9 89
9 90
9 91
9 92
9 93
9 94
9 95
8 96
8 97
8 98
8 99
8 100
8 101
8 102
8 103
8 104
8 105
7 106
7 107
6 108
6 109
6 110
6 111
5 112
5 113
5 114
5 115
5 116
5 117
5 118
5 119
5 120
5 121
5 122
5 123
6 123
7 123
8 123
9 123
10 123
11 122
12 122
13 121
14 121
15 120
16 119
17 119
18 118
19 117
20 116
21 115
22 114
22 113
23 112
24 111
25 110
26 109
27 108
28 107
29 106
30 105
31 104
32 103
33 102
34 101
35 100
36 99
37 98
38 97
39 96
40 95
41 95
42 95
43 95
44 95
45 94
46 94
47 95
48 96
48 97
48 98
49 99
50 100
51 101
51 102
52 102
53 103
54 104
54 105
55 106
56 107
57 108
58 109
59 110
60 111
60 112
61 113
62 113
63 114
63 115
64 116
64 117
65 118
66 119
67 120
67 121
67 122
68 123
68 124
68 125
69 125
70 126
70 127
71 128
71 129
71 130
72 131
73 132
74 132
75 133
75 134
75 135
76 136
76 137
77 138
77 139
77 140
78 140
79 141
79 142
79 143
80 143
81 144
81 145
81 146
81 147
82 148
83 149
84 149
85 149
86 150
86 151
86 152
86 153
86 154
86 155
86 156
86 157
86 158
86 159
85 160
84 161
83 161
83 162
83 163
83 164
83 165
83 166
84 166
85 166
86 166
87 166
88 166
89 166
90 166
91 165
92 165
93 164
94 163
95 162
96 162
97 161
98 160
99 159
100 158
101 158
102 157
103 156
104 156
105 155
106 155
107 155
108 155
109 155
110 155
111 155
112 155
113 154
113 153
114 152
114 151
115 150
115 149
115 148
116 147
116 146
116 145
116 144
117 143
118 142
119 141
120 140
121 140
122 139
123 139
124 139
125 138
126 138
127 137
128 137
129 137
130 136
131 136
132 135
133 135
134 135
135 134
136 134
137 134
138 134
139 133
140 132
141 132
142 131
143 130
144 130
145 129
146 128
147 127
148 126
149 126
150 125
151 125
152 124
152 123
153 122
154 122
155 121
156 120
157 120
158 119
158 118
159 117
160 117
161 117
162 116
162 115
163 114
164 113
165 113
166 112
167 111
168 110
169 110
170 109
171 108
172 107
173 106
174 105
175 104
176 103
177 102
178 101
179 100
180 99
181 98
182 97
183 96
184 95
184 94
185 93
185 92
185 91
186 90
187 89
187 88
188 87
188 86
187 86
186 85
185 85
184 85
183 85
182 84
183 83
183 82
184 81
184 80
184 79
184 78
183 78
182 77
183 76
182 76
181 75
180 74
181 73
180 73
179 72
180 71
179 71
178 70
177 69
176 68
175 67
174 66
173 65
172 64
171 64
170 63
169 62
168 61
167 60
166 59
165 58
164 57
163 56
162 55
161 54
160 53
161 52
160 52
159 51
158 50
157 50
156 49
155 48
154 48
153 47
152 47
151 46
150 45
149 45
148 44
147 44
146 43
145 43
144 43
143 42
142 42
141 41
140 41
139 41
138 40
137 40
136 39
135 38
134 38
133 38
132 37
131 37
130 37
129 37
128 36
127 36
126 36
125 36
124 35
123 35
122 35
121 34
120 34
119 34
118 33
117 33
116 32
115 31
114 30
115 29
114 29
113 28
112 27
111 26
112 25
111 25
110 24
111 23
110 23
109 22
108 21
109 20
108 20
107 19
108 18
107 18
106 17
105 16
106 15
105 15
104 14
105 13
104 13
103 12
102 11
101 10
102 9
102 8
101 8
100 7
99 6
98 5
97 5
96 4
95 3
94 3
93 2
92 2
91 2
