73 4
72 5
71 5
70 6
69 7
68 8
68 9
67 10
66 11
65 12
64 12
63 12
62 13
61 14
60 14
60 15
59 16
58 16
57 16
57 17
56 18
55 18
54 19
53 20
52 21
51 21
50 22
49 23
48 23
47 23
46 23
45 24
44 24
43 25
42 25
41 26
40 26
39 26
38 27
37 27
36 28
35 28
34 28
33 29
32 29
31 30
30 30
29 31
28 31
27 32
26 32
25 33
24 33
23 34
22 35
21 35
20 36
19 37
18 37
17 38
16 39
15 40
14 40
13 41
12 42
11 43
10 44
9 45
8 45
8 46
7 47
6 47
5 48
4 49
3 50
2 51
2 52
2 53
2 54
2 55
2 56
2 57
2 58
2 59
2 60
2 61
2 62
3 63
3 64
3 65
4 66
4 67
4 68
5 69
5 70
6 71
7 72
8 73
9 74
10 75
11 76
12 77
13 78
14 78
15 79
16 80
17 81
18 81
19 82
20 82
21 83
22 84
23 85
24 85
25 85
26 85
27 86
28 87
29 88
30 88
31 88
32 88
33 89
34 90
35 90
36 90
37 90
38 91
39 92
40 92
41 93
42 93
43 93
44 93
45 93
46 93
47 93
48 93
49 93
50 94
51 95
51 96
51 97
51 98
52 99
52 100
53 101
54 102
54 103
54 104
55 105
56 106
56 107
57 108
57 109
58 110
59 111
60 112
61 113
62 113
63 114
64 115
65 115
66 116
67 116
68 116
69 116
70 117
71 117
72 116
73 115
73 114
74 113
74 112
75 111
75 110
75 109
75 108
74 108
73 107
72 106
71 105
70 104
69 103
68 102
69 101
70 101
71 102
72 102
73 102
74 102
75 102
76 101
76 100
75 99
74 98
73 98
72 98
71 97
72 96
73 96
74 96
75 96
76 96
77 96
78 96
79 96
80 96
81 96
82 96
83 95
84 95
85 96
86 96
87 96
88 96
89 96
90 96
91 96
92 95
93 95
94 95
95 95
96 94
97 94
98 95
99 95
100 95
101 95
102 95
103 94
104 94
105 94
106 94
107 93
108 93
109 93
110 93
111 93
112 93
113 94
114 95
115 96
116 96
117 96
118 97
119 97
120 97
121 97
122 98
123 98
124 98
125 98
126 98
127 98
128 98
129 98
130 98
131 98
132 99
133 99
134 99
135 99
136 99
137 99
138 98
139 98
140 98
141 98
142 97
143 97
144 97
145 96
146 95
147 95
148 94
149 94
150 93
151 92
152 91
153 90
154 89
155 88
156 87
157 86
158 85
159 85
160 84
161 83
161 82
162 81
163 81
164 81
165 81
166 81
167 81
168 80
169 80
170 79
171 79
172 79
173 79
174 78
175 78
176 78
177 78
178 78
179 78
180 78
181 79
182 79
183 79
184 80
185 80
186 80
187 80
188 80
189 80
190 80
191 81
192 81
193 81
194 81
195 81
196 82
197 82
198 82
199 83
200 83
201 83
202 83
203 83
204 84
205 84
206 84
207 84
208 84
209 84
210 85
211 85
212 85
213 85
214 85
215 85
216 85
217 85
218 84
219 83
219 82
220 81
220 80
220 79
220 78
220 77
220 76
221 75
221 74
222 73
222 72
223 71
223 70
223 69
223 68
223 67
223 66
223 65
223 64
223 63
223 62
223 61
223 60
223 59
223 58
223 57
223 56
223 55
224 54
225 53
225 52
226 51
225 51
224 50
223 49
222 49
221 48
220 48
219 48
218 48
217 48
216 48
215 48
214 48
213 48
212 48
211 47
210 47
209 47
208 47
207 47
206 47
205 47
204 47
203 47
202 47
201 47
200 47
199 47
198 47
197 47
196 47
195 47
194 47
193 47
192 47
191 47
190 47
189 47
188 47
187 47
186 47
185 48
184 48
183 48
182 48
181 48
180 49
179 49
178 48
179 47
179 46
178 46
177 45
178 44
179 43
179 42
180 41
179 41
178 40
177 40
176 40
175 40
174 39
173 38
172 38
171 38
170 37
169 37
168 37
167 36
166 36
165 36
164 36
163 36
162 35
161 35
160 35
159 35
158 35
157 34
156 34
155 33
154 33
153 33
152 33
151 33
150 32
149 32
148 32
147 31
146 31
145 31
144 30
143 30
142 30
141 29
140 29
139 29
138 28
137 28
136 27
135 27
134 27
133 26
132 26
131 26
130 25
129 25
128 25
127 25
126 24
125 23
124 23
123 22
122 22
121 22
120 21
119 21
118 20
117 20
116 20
115 20
114 19
113 19
112 18
111 18
110 17
109 17
108 17
107 16
106 16
105 16
104 15
105 14
104 14
103 13
102 13
101 13
100 13
99 13
98 13
97 13
96 12
97 11
96 11
95 10
94 10
93 10
92 10
91 9
90 8
89 7
88 7
87 7
86 7
85 7
84 7
83 7
82 7
81 7
80 7
79 6
78 5
77 4
76 4
75 4
74 4
