68 2
67 3
66 3
65 3
64 3
63 4
62 4
61 4
60 4
59 5
58 6
57 6
56 6
55 7
54 8
53 9
53 10
52 11
51 12
50 12
49 13
48 14
47 15
46 16
45 17
44 18
43 19
43 20
42 21
41 22
40 22
40 23
39 24
38 25
37 25
37 26
36 27
35 28
34 28
34 29
34 30
33 31
32 32
31 33
30 34
30 35
29 36
29 37
28 38
27 39
26 39
26 40
25 41
24 41
23 42
22 43
21 44
20 45
19 46
18 47
17 48
16 49
15 50
14 50
14 51
13 52
12 52
11 53
11 54
10 55
9 55
8 56
7 57
7 58
6 59
6 60
5 61
4 62
3 63
3 64
2 65
2 66
2 67
2 68
3 69
3 70
4 71
4 72
5 73
5 74
5 75
6 76
6 77
6 78
6 79
6 80
6 81
7 82
7 83
7 84
8 85
8 86
8 87
9 88
9 89
10 90
10 91
11 92
11 93
12 94
13 95
13 96
14 97
14 98
15 99
15 100
16 101
17 102
18 103
18 104
19 105
20 106
20 107
20 108
20 109
20 110
21 111
21 112
22 113
22 114
22 115
23 116
23 117
23 118
23 119
23 120
24 121
25 122
25 123
26 124
26 125
26 126
26 127
27 128
27 129
28 130
29 131
29 132
29 133
29 134
30 135
30 136
30 137
31 138
31 139
32 140
33 141
34 142
35 143
36 144
37 145
38 145
39 146
40 147
41 147
42 148
43 149
44 149
45 149
46 149
47 149
48 149
49 149
50 149
51 149
52 148
53 148
54 148
55 148
56 148
57 148
58 148
59 147
60 147
61 147
62 147
63 147
64 147
65 146
66 146
67 146
68 146
69 145
70 145
71 145
72 144
73 144
74 143
75 143
76 143
77 142
78 141
79 141
80 140
81 140
82 140
83 139
84 139
85 138
86 137
87 137
88 136
89 135
90 134
91 133
92 133
93 132
94 131
95 130
96 129
96 128
97 127
98 126
99 125
100 124
100 123
101 122
102 121
103 120
104 121
105 121
106 121
107 121
108 121
109 121
110 121
111 121
112 121
113 121
114 120
115 120
116 120
117 119
118 119
119 119
120 119
121 118
122 118
123 118
124 117
125 116
126 116
127 115
128 114
129 114
130 113
131 113
132 112
133 111
133 110
134 109
134 108
134 107
135 106
135 105
136 104
136 103
136 102
137 101
137 100
138 99
139 99
140 98
141 98
142 98
143 98
144 98
145 98
146 98
147 97
148 97
149 97
150 96
151 96
152 96
153 96
154 95
155 95
156 95
157 95
158 95
159 94
160 94
161 93
161 92
162 91
161 91
160 90
159 90
158 90
157 90
156 90
155 90
154 90
153 90
152 89
153 88
154 88
155 87
156 87
157 87
158 87
159 86
160 86
161 86
162 86
163 85
164 85
165 85
166 84
167 84
168 84
169 84
170 83
171 82
172 82
173 82
174 81
175 81
176 81
177 81
178 80
179 80
180 80
181 80
182 80
183 80
184 79
185 80
186 80
187 80
188 79
189 79
190 79
191 80
192 80
193 80
194 80
195 81
196 81
197 81
198 82
199 82
200 82
201 83
202 83
203 84
204 84
205 85
206 85
207 85
208 85
209 86
210 86
211 87
212 87
213 87
214 88
215 89
216 89
217 89
218 90
219 90
220 91
221 91
222 91
223 92
224 92
225 93
226 93
227 94
228 94
229 94
230 95
231 95
232 95
233 96
234 96
235 97
236 97
237 97
238 97
239 96
239 95
240 94
240 93
239 93
238 92
237 91
236 91
235 91
234 90
233 90
232 89
231 89
230 88
229 88
228 88
227 88
226 87
225 86
224 86
223 86
222 85
221 85
220 84
219 84
218 83
217 83
216 82
215 82
214 81
213 80
212 80
211 80
210 79
209 79
208 79
207 78
206 78
205 77
206 76
207 75
207 74
208 73
207 73
206 72
205 72
204 72
203 72
202 72
201 73
200 73
199 73
198 73
197 73
196 73
195 73
194 73
193 73
192 73
191 73
190 73
189 73
188 73
187 73
186 73
185 73
184 73
183 73
182 73
181 73
180 73
179 73
178 73
177 73
176 73
175 73
174 73
173 73
172 73
171 73
170 73
169 73
168 73
167 74
166 74
165 74
164 74
163 74
162 75
161 75
160 75
159 75
158 75
157 75
156 76
155 76
154 76
153 76
152 76
151 75
152 74
153 73
154 73
155 72
156 72
157 71
158 70
159 69
159 68
160 67
160 66
160 65
159 65
158 64
157 64
156 64
155 64
154 64
153 64
152 65
151 65
150 66
149 66
148 66
147 66
146 66
145 65
146 64
146 63
146 62
146 61
145 61
144 60
145 59
144 59
143 58
142 57
143 56
142 56
141 55
140 55
139 54
138 54
137 54
136 55
135 55
134 55
133 54
134 53
133 53
132 52
133 51
132 51
131 50
130 49
129 48
128 47
127 46
126 45
127 44
126 44
125 43
124 42
123 41
124 40
124 39
123 39
122 38
121 37
120 36
119 35
118 34
117 33
116 32
115 31
114 30
113 29
112 29
111 28
110 27
109 26
108 25
107 24
106 24
105 24
104 23
103 22
102 21
101 20
100 19
101 18
100 18
99 17
98 17
97 16
96 15
95 15
94 15
93 14
92 13
91 13
90 12
89 11
88 10
87 9
86 9
85 8
84 7
83 7
82 7
81 6
80 6
79 5
78 4
77 4
76 3
75 3
74 2
73 2
72 2
71 2
70 2
69 2
