74 2
73 3
72 3
71 4
70 4
69 5
68 6
67 6
66 5
67 4
66 4
65 3
64 3
63 3
62 4
61 4
61 5
60 6
59 7
58 8
58 9
58 10
57 11
56 12
56 13
55 14
55 15
54 16
53 16
53 17
52 18
51 19
50 19
49 19
48 20
47 20
46 20
45 21
44 21
43 22
42 22
41 23
40 23
39 24
38 25
37 25
36 26
35 26
34 27
33 27
32 27
31 28
30 29
29 29
28 30
27 30
26 30
25 31
24 32
23 32
22 33
21 33
20 33
19 34
18 35
17 35
16 36
15 37
15 38
14 39
13 39
12 40
11 41
10 42
9 43
8 44
7 45
6 46
6 47
5 48
4 49
3 50
3 51
2 52
2 53
2 54
2 55
2 56
3 57
3 58
4 59
5 60
6 61
7 62
8 63
8 64
8 65
8 66
9 67
10 67
11 68
12 68
13 69
14 69
15 70
15 71
16 71
17 72
18 72
19 73
20 73
21 74
22 74
23 74
24 74
25 74
26 74
27 75
28 75
29 76
30 76
31 77
32 77
33 77
34 78
35 78
36 78
37 79
38 80
38 81
38 82
39 83
40 83
41 83
42 84
43 85
44 85
45 85
46 86
47 86
48 87
49 87
50 87
51 87
52 87
53 87
54 88
54 89
54 90
54 91
54 92
54 93
54 94
55 95
55 96
55 97
55 98
55 99
56 100
56 101
56 102
57 103
58 104
58 105
59 106
60 107
60 108
60 109
61 110
61 111
61 112
62 113
62 114
63 114
64 114
65 113
66 114
66 115
67 115
68 115
69 115
70 115
71 114
71 113
72 112
72 111
72 110
71 110
70 109
69 109
68 108
68 107
69 106
70 107
71 107
72 107
73 107
74 106
74 105
75 104
75 103
75 102
75 101
75 100
75 99
76 98
77 97
77 96
78 95
78 94
77 94
76 93
77 92
78 92
79 92
80 92
81 92
82 92
83 92
84 92
85 92
86 93
87 93
88 93
89 93
90 93
91 93
92 93
93 93
94 92
95 92
96 93
97 93
98 93
99 92
100 92
101 92
102 92
103 92
104 92
105 92
106 92
107 92
108 92
109 91
110 91
111 91
112 91
113 90
114 89
115 89
116 89
117 89
118 89
119 89
120 89
121 90
122 90
123 91
124 91
125 92
126 92
127 92
128 92
129 92
130 92
131 92
132 93
133 93
134 93
135 93
136 93
137 94
138 94
139 94
140 94
141 93
142 92
143 92
144 92
145 92
146 91
147 90
148 90
149 90
150 89
151 89
152 89
153 88
154 87
155 87
156 87
157 87
158 87
159 86
160 85
160 84
161 83
162 82
163 82
164 81
165 80
166 79
167 79
168 79
169 78
170 78
171 77
171 76
172 75
173 75
174 74
175 74
176 73
177 72
178 71
179 70
180 70
181 71
182 71
183 71
184 71
185 72
186 72
187 72
188 72
189 72
190 73
191 74
192 74
193 75
194 75
195 76
196 76
197 77
198 77
199 78
200 79
201 79
202 80
203 80
204 80
205 81
206 81
207 81
208 82
209 82
210 82
211 83
212 83
213 83
214 84
215 84
216 84
217 84
218 84
219 85
220 85
221 85
222 84
222 83
223 82
223 81
223 80
222 80
221 79
220 78
221 77
221 76
221 75
221 74
222 73
222 72
222 71
222 70
223 69
223 68
224 67
224 66
224 65
224 64
224 63
224 62
224 61
224 60
224 59
224 58
224 57
224 56
224 55
224 54
224 53
225 52
225 51
225 50
225 49
225 48
225 47
225 46
225 45
225 44
225 43
225 42
225 41
225 40
226 39
227 39
228 38
228 37
229 36
228 36
227 35
226 35
225 35
224 35
223 35
222 35
221 35
220 35
219 36
218 36
217 36
216 36
215 36
214 36
213 36
212 37
211 37
210 37
209 37
208 37
207 37
206 38
205 38
204 38
203 38
202 38
201 38
200 39
199 39
198 39
197 40
196 40
195 40
194 40
193 40
192 41
191 41
190 41
189 41
188 41
187 41
186 41
185 41
184 42
183 42
182 42
181 42
180 42
179 42
178 41
177 40
176 39
175 39
174 38
173 38
172 37
171 36
170 36
169 35
168 34
167 34
166 34
165 33
164 32
163 31
162 31
161 30
160 30
159 29
158 29
157 29
156 28
155 27
154 26
153 25
152 25
151 24
150 23
149 23
148 23
147 22
146 22
145 21
144 20
143 20
142 20
141 20
140 20
139 19
138 19
137 19
136 19
135 19
134 19
133 18
132 17
131 17
130 17
129 16
128 16
127 16
126 16
125 15
124 14
123 14
122 14
121 14
120 13
119 13
118 13
117 13
116 12
115 11
114 11
113 11
112 11
111 11
110 11
109 12
108 12
107 12
106 13
105 13
104 13
103 13
102 13
101 13
100 13
99 12
100 11
100 10
99 10
98 9
97 8
96 8
95 7
94 7
93 7
92 7
91 7
90 7
89 7
88 7
87 7
86 6
87 5
86 5
85 4
84 4
83 4
82 4
81 4
80 3
79 3
78 2
77 2
76 2
75 2
