168 2
167 3
166 3
165 4
164 5
163 5
162 5
161 6
160 7
159 7
158 8
157 8
156 9
155 9
154 9
153 10
152 11
151 11
150 11
149 11
148 12
147 12
146 12
145 13
144 13
143 13
142 14
141 15
140 15
139 15
138 16
137 16
136 16
135 16
134 16
133 16
132 16
131 16
130 16
129 16
128 17
127 17
126 17
125 17
124 17
123 17
122 17
121 18
120 18
119 18
118 18
117 18
116 18
115 18
114 18
113 18
112 18
111 18
110 18
109 18
108 18
107 18
106 18
105 17
104 17
103 17
103 18
102 19
101 19
100 19
99 19
98 19
97 20
96 20
95 20
94 20
93 20
92 21
91 21
90 21
89 21
88 21
87 22
86 22
85 22
84 22
83 23
82 23
81 23
80 23
79 23
79 24
78 25
77 25
76 25
75 25
74 26
73 26
72 27
71 27
70 27
69 27
68 27
67 28
66 28
65 28
64 28
63 28
63 29
62 30
61 30
60 31
59 31
58 31
57 32
56 32
55 33
54 34
53 34
52 34
51 34
50 34
49 34
48 35
47 35
46 35
45 35
44 35
43 36
42 36
41 36
40 36
39 36
38 37
37 37
36 37
35 37
34 37
33 37
32 38
31 38
30 38
29 38
28 38
27 39
26 39
25 39
24 39
23 40
22 40
21 40
20 40
19 40
18 40
17 41
16 41
15 41
14 41
13 41
12 41
11 41
10 41
9 41
8 42
7 42
6 42
5 43
4 43
3 44
3 45
3 46
2 47
2 48
2 49
2 50
3 50
4 51
5 52
6 53
7 53
8 53
9 54
10 54
11 54
12 55
13 55
14 55
15 56
16 56
17 56
18 57
19 57
20 57
21 57
22 58
23 58
24 58
25 58
26 58
27 59
28 59
29 59
30 59
31 59
32 59
33 59
34 60
35 60
36 60
37 60
38 60
39 60
40 60
41 61
42 61
43 61
44 61
45 61
46 61
47 62
48 62
49 62
50 62
51 62
52 62
53 62
54 63
55 63
56 63
57 63
58 63
59 64
60 65
61 65
62 65
63 64
64 65
65 65
66 65
67 65
68 65
69 65
70 65
71 65
72 66
73 66
74 66
75 66
76 66
77 65
78 65
79 66
80 66
81 66
82 66
83 66
84 66
85 66
86 67
87 68
88 68
89 68
90 69
91 69
92 69
93 69
94 70
95 70
96 70
97 70
98 71
98 72
99 73
99 74
100 75
101 76
101 77
101 78
102 79
103 80
104 81
104 82
105 83
105 84
106 85
107 86
107 87
108 88
109 89
110 90
111 91
112 91
113 91
114 91
115 90
116 90
117 90
118 90
119 89
120 88
120 87
121 86
121 85
122 84
123 83
124 83
125 82
126 81
127 81
128 81
129 80
130 80
131 80
132 81
133 82
134 82
135 83
136 83
137 84
138 84
139 85
140 85
141 86
142 86
143 86
144 85
144 84
145 83
144 83
143 82
142 81
142 80
143 79
144 79
145 79
146 79
147 79
148 79
149 79
150 79
151 80
152 80
153 80
154 80
155 79
156 79
157 79
158 79
159 79
160 79
161 79
162 80
163 80
164 80
165 80
166 81
167 81
168 81
169 82
170 82
171 82
172 82
173 83
174 83
175 83
176 83
177 83
178 83
179 83
180 84
181 84
182 84
183 84
184 84
185 84
186 84
187 84
188 84
189 84
190 84
191 84
192 84
193 84
194 84
195 84
196 84
197 85
198 85
199 85
200 85
201 84
202 84
203 84
204 84
205 84
206 84
207 84
208 84
209 84
210 84
211 85
212 85
213 85
214 85
215 85
216 85
217 85
218 85
219 85
220 85
221 85
222 85
223 86
224 86
225 86
226 85
227 85
228 85
229 85
230 85
231 85
232 85
233 84
234 84
235 84
236 84
237 84
238 84
239 85
240 85
241 85
242 84
243 84
244 84
245 84
246 85
247 85
248 85
249 85
250 85
251 85
252 86
253 86
254 86
255 86
256 86
257 86
258 87
259 87
260 87
261 87
262 88
263 88
264 88
265 88
266 88
267 88
268 88
269 88
270 87
271 86
271 85
272 84
271 84
270 83
269 83
268 83
267 83
266 82
265 82
264 81
263 80
262 80
261 80
260 79
261 78
262 78
263 78
264 78
265 78
266 77
267 77
268 77
269 77
270 77
271 77
272 77
273 77
274 76
275 76
276 76
277 76
278 76
279 76
280 76
281 76
282 76
283 75
284 75
285 75
286 75
287 75
288 75
289 75
290 74
291 74
292 74
293 74
294 73
295 73
296 73
297 73
298 73
299 72
300 72
301 72
302 71
303 71
304 71
305 71
306 70
307 71
308 71
309 71
310 71
311 72
312 72
313 72
314 73
315 73
316 73
317 73
318 73
319 74
320 74
321 74
322 74
323 75
324 75
325 75
326 75
327 75
328 76
329 76
330 76
331 76
332 76
333 76
334 77
335 77
336 77
337 77
338 77
339 77
340 77
341 78
342 78
343 78
344 78
345 78
346 78
347 78
348 78
349 78
350 78
351 77
351 76
352 75
352 74
352 73
352 72
352 71
351 71
350 70
351 69
351 68
351 67
350 67
349 66
348 65
347 64
348 63
347 63
346 62
345 61
346 60
345 60
344 59
345 58
344 58
343 57
342 56
343 55
342 55
341 54
342 53
342 52
341 52
340 51
341 50
341 49
341 48
341 47
341 46
340 46
339 45
340 44
340 43
340 42
339 42
338 41
339 40
339 39
339 38
340 37
341 37
342 36
343 35
344 35
345 34
346 34
347 33
347 32
348 31
348 30
347 30
346 29
345 28
344 27
345 26
344 26
343 25
342 24
343 23
342 23
341 22
342 21
341 21
340 20
339 19
340 18
339 18
338 17
339 16
339 15
338 15
337 14
336 13
335 13
334 12
333 11
334 10
333 10
332 9
331 8
330 7
329 7
328 7
327 8
327 9
327 10
327 11
327 12
327 13
326 14
326 15
326 16
326 17
326 18
325 19
325 20
324 21
324 22
324 23
323 24
323 25
323 26
323 27
323 28
323 29
322 30
322 31
321 32
321 33
320 34
320 35
320 36
320 37
319 38
318 39
318 40
317 41
317 42
317 43
317 44
316 45
315 46
314 47
314 48
314 49
313 50
312 50
311 51
311 52
310 53
309 53
308 54
307 54
306 54
305 54
304 54
303 54
302 53
301 53
300 53
299 53
298 52
297 52
296 51
295 50
294 50
293 49
292 48
293 47
293 46
292 46
291 45
290 44
289 43
290 42
290 41
290 40
289 40
288 39
287 38
286 37
285 37
284 37
283 37
282 37
281 37
280 38
279 39
278 39
277 40
276 41
275 41
274 41
273 42
272 42
271 43
270 44
269 44
268 44
267 45
266 45
265 45
264 45
263 45
262 44
261 44
260 44
259 44
258 44
257 44
256 43
255 43
254 43
253 43
252 43
251 42
250 42
249 42
248 42
247 42
246 41
245 41
244 41
243 41
242 40
241 40
240 40
239 39
238 39
237 39
236 39
235 38
234 38
233 38
232 38
231 37
230 37
229 37
228 37
227 37
226 36
225 36
224 36
223 35
222 35
221 35
220 34
219 34
218 34
217 34
216 34
215 34
214 33
213 33
212 32
211 32
210 32
209 32
208 32
207 31
206 31
205 31
204 30
203 29
202 29
201 28
200 27
201 26
200 26
199 25
198 25
197 24
196 23
195 23
194 22
193 21
192 20
191 20
190 19
191 18
191 17
190 17
189 16
190 15
189 15
188 14
187 13
188 12
187 12
186 11
187 10
186 10
185 9
184 8
183 7
182 6
181 5
180 4
179 3
178 3
177 2
176 2
175 2
174 2
173 2
172 2
171 2
170 2
169 2
