121 2
120 3
119 3
118 3
117 3
116 3
115 3
114 4
113 5
112 5
111 5
110 5
109 5
108 6
107 7
106 7
105 7
104 7
103 7
102 7
101 7
100 7
100 8
99 9
98 9
97 10
96 11
95 11
94 10
93 10
92 10
92 11
92 12
92 13
92 14
91 15
90 15
89 15
88 15
87 15
86 15
85 15
84 15
83 15
82 16
81 16
80 16
79 16
78 16
77 17
76 17
75 17
74 17
74 18
74 19
74 20
73 21
72 21
71 20
70 20
69 19
68 19
67 19
66 19
65 19
64 19
63 20
62 20
62 21
61 22
60 22
59 22
58 22
58 23
58 24
57 25
56 24
55 24
54 24
53 25
52 25
51 26
51 27
51 28
51 29
52 29
53 30
53 31
53 32
53 33
53 34
54 35
54 36
53 37
52 37
51 37
50 36
49 36
48 36
47 35
46 34
45 34
44 33
45 32
44 32
43 31
42 31
41 30
42 29
41 29
40 28
39 27
38 27
37 27
36 26
35 25
34 25
33 24
32 24
31 23
30 22
29 22
28 21
27 21
26 20
25 20
24 19
23 19
22 18
21 18
20 18
19 17
18 17
17 17
16 17
15 16
14 15
13 15
12 15
11 15
10 15
9 14
8 14
7 14
6 14
5 14
4 15
4 16
4 17
4 18
4 19
4 20
5 21
5 22
5 23
5 24
5 25
6 26
7 27
6 28
5 28
4 28
3 29
3 30
3 31
3 32
4 33
3 34
3 35
3 36
3 37
3 38
3 39
3 40
3 41
3 42
3 43
3 44
3 45
3 46
3 47
3 48
3 49
3 50
3 51
3 52
3 53
3 54
3 55
3 56
2 57
2 58
2 59
2 60
3 60
4 60
5 61
4 62
3 62
3 63
3 64
3 65
3 66
3 67
4 68
3 69
3 70
3 71
3 72
3 73
3 74
3 75
4 76
5 76
6 77
7 77
8 77
9 77
10 77
11 76
12 76
13 76
14 76
15 76
16 76
17 76
18 76
19 75
20 75
21 75
22 75
23 75
24 74
25 74
26 74
27 74
28 73
29 73
30 73
31 72
32 72
33 71
34 70
35 70
36 69
37 69
38 69
39 68
40 67
41 66
42 65
43 65
44 64
45 64
46 64
47 64
48 64
49 64
50 64
51 64
52 64
53 64
54 64
55 65
55 66
55 67
56 68
55 69
54 70
53 71
53 72
53 73
54 74
55 74
56 74
57 74
58 74
59 74
60 74
61 75
62 75
63 76
64 76
65 77
66 77
67 78
67 79
68 79
69 79
70 79
71 80
72 81
73 81
74 82
75 82
76 83
77 84
78 84
79 84
80 84
81 85
82 85
83 85
84 85
85 86
86 86
87 86
88 86
89 87
90 87
91 87
92 87
93 87
94 87
95 87
96 87
97 86
98 87
99 88
100 88
101 88
102 87
103 86
104 85
105 85
106 86
106 87
107 87
108 88
109 88
110 88
111 88
112 88
113 89
114 89
115 89
116 89
117 89
118 89
119 89
120 88
121 88
122 88
123 89
124 89
125 89
126 88
127 88
128 88
129 89
130 89
131 89
132 89
133 89
134 89
135 89
136 89
137 89
138 89
139 89
140 89
141 89
142 89
143 89
144 90
143 91
142 92
142 93
142 94
142 95
142 96
143 96
144 96
145 97
146 97
147 97
148 97
149 98
148 99
148 100
148 101
148 102
148 103
148 104
149 104
150 104
151 105
150 106
150 107
150 108
150 109
150 110
150 111
150 112
150 113
150 114
151 114
152 114
153 114
154 114
155 113
156 113
157 112
158 112
159 111
160 111
161 111
162 111
163 110
163 109
164 108
165 107
165 106
166 105
166 104
166 103
167 102
167 101
168 100
168 99
168 98
168 97
168 96
169 95
170 94
171 94
172 93
172 92
171 91
170 90
170 89
171 88
171 87
172 86
173 86
174 85
175 85
176 85
177 84
178 84
179 84
180 84
181 83
182 83
183 83
184 83
185 82
186 81
187 81
188 81
189 80
190 80
191 80
192 79
192 78
193 77
194 77
195 77
196 76
197 76
198 76
199 76
200 75
201 74
202 73
203 73
204 72
205 72
206 72
207 72
208 72
209 72
210 71
211 70
212 70
213 70
214 69
215 68
216 68
217 67
217 66
218 65
219 65
220 64
220 63
221 62
221 61
222 60
223 59
223 58
224 57
225 56
226 55
227 54
227 53
228 52
228 51
228 50
228 49
228 48
227 47
228 46
228 45
227 44
226 44
225 43
224 43
223 42
224 41
225 40
226 39
227 39
228 39
229 38
229 37
230 36
230 35
230 34
230 33
229 33
228 32
229 31
229 30
229 29
229 28
230 27
230 26
231 25
230 25
229 24
228 23
227 22
226 21
225 20
224 20
223 19
222 18
221 17
220 17
219 16
218 16
217 15
216 15
215 14
214 14
213 14
212 13
211 13
210 13
209 13
208 13
207 13
206 13
205 13
204 13
203 13
202 13
201 13
200 13
199 13
198 13
197 13
196 12
195 12
194 12
193 12
192 12
191 11
190 11
189 11
188 11
187 11
186 12
185 11
184 11
183 11
182 11
181 11
180 11
179 11
178 11
177 11
176 11
175 11
174 11
173 11
172 11
171 11
170 11
169 11
168 10
167 10
166 9
165 9
164 9
163 8
162 8
161 7
160 7
159 6
158 6
157 6
156 6
155 6
154 6
153 5
152 5
151 5
150 5
149 5
148 5
147 4
146 4
145 4
144 4
143 4
142 4
141 3
140 3
139 3
138 3
137 3
136 3
135 3
134 3
133 3
132 3
131 2
130 2
129 2
128 2
127 2
126 3
125 2
124 2
123 2
122 2
