112 2
111 3
110 3
109 3
108 3
107 3
106 3
106 4
105 5
104 5
103 5
102 4
101 4
100 4
99 4
98 4
97 5
96 5
95 5
94 5
93 5
93 6
92 7
91 7
90 7
89 7
88 7
87 7
86 7
85 7
84 7
83 7
82 7
81 7
80 7
79 8
78 9
77 9
76 9
75 9
74 10
73 10
72 11
71 11
70 11
69 12
68 13
67 14
66 14
65 14
64 14
63 14
62 15
61 16
60 16
59 17
58 17
57 18
56 18
55 19
54 19
53 20
52 21
51 21
50 22
49 22
48 23
48 24
47 25
46 25
45 26
45 27
45 28
45 29
45 30
46 31
46 32
45 33
44 33
43 33
42 33
41 32
40 32
39 32
38 32
37 31
36 30
35 29
34 28
33 28
32 27
31 26
30 26
29 26
28 25
27 24
26 23
25 23
24 23
23 22
22 22
21 21
20 21
19 21
18 20
17 20
16 20
15 19
14 19
13 19
12 19
11 19
10 19
9 19
8 19
7 19
6 19
5 20
5 21
5 22
5 23
5 24
5 25
5 26
4 27
4 28
4 29
4 30
4 31
3 32
3 33
3 34
3 35
3 36
3 37
3 38
2 39
2 40
2 41
2 42
2 43
2 44
2 45
2 46
2 47
2 48
2 49
2 50
2 51
2 52
2 53
2 54
2 55
3 56
3 57
3 58
3 59
3 60
3 61
3 62
3 63
3 64
3 65
3 66
3 67
3 68
3 69
4 69
5 69
6 70
7 70
8 70
9 70
10 70
11 70
12 69
13 69
14 69
15 69
16 68
17 68
18 68
19 68
20 68
21 67
22 67
23 67
24 66
25 66
26 65
27 65
28 64
29 64
30 64
31 63
32 63
33 63
34 63
35 62
36 62
37 61
38 61
39 60
40 60
41 59
42 59
43 59
44 58
45 58
46 58
47 58
48 58
49 59
48 60
48 61
48 62
48 63
48 64
49 65
50 66
51 66
52 67
53 67
54 68
55 68
56 69
56 70
57 70
58 71
59 72
60 72
61 73
62 74
63 74
64 75
65 76
66 76
67 76
68 76
69 76
70 77
71 77
72 78
73 78
74 78
75 78
76 78
77 78
78 78
79 78
80 78
81 77
82 77
83 77
84 77
85 77
86 76
87 76
88 75
89 75
90 75
91 75
92 74
93 74
94 74
95 74
96 74
97 74
98 75
99 75
100 75
101 76
102 76
103 76
104 76
105 76
106 76
107 76
108 76
109 76
110 76
111 76
112 76
113 76
114 76
115 76
116 76
117 76
118 76
119 76
120 77
119 78
118 79
118 80
118 81
118 82
118 83
119 84
120 84
121 84
122 85
123 85
124 85
125 85
126 85
127 85
128 85
129 85
130 86
130 87
130 88
130 89
131 90
131 91
131 92
131 93
131 94
130 95
130 96
130 97
130 98
131 98
132 98
133 98
134 98
135 98
136 97
137 96
138 96
139 95
140 94
141 93
142 92
142 91
143 90
143 89
143 88
144 87
144 86
144 85
145 84
145 83
146 82
146 81
147 80
147 79
147 78
147 77
148 76
148 75
149 74
150 74
151 74
152 73
153 73
154 73
155 72
156 72
157 72
158 71
159 71
160 71
161 70
162 70
163 70
164 69
165 69
166 69
167 68
168 67
169 67
170 66
171 66
172 65
173 65
174 64
175 64
176 64
177 63
178 63
179 62
180 62
181 61
182 60
183 60
184 59
185 58
186 57
187 57
188 56
189 55
189 54
190 53
191 52
192 51
193 50
194 49
194 48
195 47
195 46
196 45
196 44
196 43
196 42
195 42
194 41
193 40
194 39
194 38
194 37
194 36
194 35
193 35
192 34
193 33
193 32
193 31
193 30
193 29
192 29
191 28
190 27
189 26
188 25
187 25
186 24
185 24
184 24
183 24
182 24
181 23
180 23
179 23
178 22
177 22
176 22
175 21
174 21
173 21
172 20
171 20
170 20
169 19
168 19
167 19
166 18
165 18
164 18
163 18
162 17
161 17
160 17
159 16
158 16
157 16
156 16
155 15
154 15
153 15
152 14
151 14
150 14
149 14
148 14
147 13
146 13
145 12
144 12
143 11
142 10
141 10
140 9
139 8
138 7
137 6
136 6
135 5
134 5
133 4
132 4
131 4
130 4
129 4
128 4
127 3
126 3
125 3
124 3
123 3
122 3
121 2
120 2
119 2
118 2
117 2
116 2
115 2
114 2
113 2
