139 2
138 3
137 3
136 4
135 4
134 4
133 4
132 4
131 4
130 4
129 5
128 5
127 5
126 6
125 6
124 6
123 6
122 6
121 7
120 7
119 7
118 7
117 8
116 8
115 8
114 9
113 9
112 9
111 10
110 10
109 10
108 10
107 10
107 11
106 12
105 12
104 12
103 12
102 12
101 13
100 13
99 14
98 15
97 15
96 14
95 14
94 14
94 15
94 16
93 17
92 17
91 17
90 17
89 18
88 18
88 19
87 20
86 20
85 19
84 18
83 18
82 18
81 18
81 19
81 20
81 21
81 22
81 23
80 24
79 24
78 25
77 25
77 26
76 27
75 27
74 28
73 27
72 27
71 27
71 28
71 29
71 30
71 31
71 32
70 33
69 33
68 33
68 34
67 35
66 35
65 35
64 36
63 36
62 36
61 36
61 37
61 38
61 39
60 40
59 40
58 40
57 41
56 41
55 41
55 42
54 43
53 43
52 43
51 42
50 41
49 41
48 41
47 40
46 40
45 39
44 39
43 38
42 37
41 37
40 36
39 35
38 34
37 33
36 33
35 33
34 32
33 31
32 31
31 31
30 30
29 30
28 29
29 28
29 27
28 27
27 26
26 25
25 25
24 25
23 24
22 23
21 23
20 22
19 22
18 21
17 21
16 21
15 20
14 20
13 20
12 19
11 19
10 19
9 19
8 19
7 18
6 18
5 18
4 18
3 18
2 18
2 19
2 20
2 21
2 22
2 23
3 23
4 24
5 25
6 25
7 26
8 27
8 28
8 29
8 30
8 31
7 32
7 33
6 34
6 35
6 36
6 37
6 38
6 39
5 40
5 41
5 42
4 43
4 44
4 45
3 46
3 47
3 48
3 49
3 50
3 51
3 52
3 53
3 54
2 55
2 56
2 57
2 58
2 59
2 60
2 61
2 62
3 63
3 64
3 65
3 66
3 67
3 68
3 69
3 70
3 71
3 72
4 73
4 74
4 75
4 76
4 77
4 78
4 79
5 80
5 81
4 82
4 83
3 84
3 85
2 86
2 87
2 88
2 89
3 89
4 89
5 89
6 89
7 88
8 88
9 88
10 88
11 88
12 87
13 87
14 87
15 87
16 87
17 87
18 87
19 86
20 86
21 86
22 86
23 85
24 86
25 86
26 86
27 85
27 84
28 83
28 82
29 81
30 81
31 81
32 80
33 80
34 79
35 78
36 78
37 78
38 77
39 77
40 77
41 76
42 76
43 75
44 74
45 74
46 74
47 74
48 74
49 74
50 74
51 75
52 76
52 77
53 77
54 77
55 78
56 78
57 79
58 79
59 79
60 79
61 80
61 81
61 82
62 83
62 84
63 84
64 85
64 86
65 86
66 87
67 87
68 87
69 88
69 89
69 90
70 91
70 92
71 92
72 92
73 93
73 94
74 94
75 94
76 94
77 94
78 94
79 94
80 95
80 96
81 96
82 96
83 96
84 97
85 98
86 98
87 98
88 97
89 97
90 98
91 99
91 100
92 100
93 100
94 100
95 100
96 101
97 101
98 100
98 99
99 98
100 99
101 100
101 101
102 101
103 101
104 101
105 101
106 101
107 100
108 99
109 99
110 98
111 98
112 98
113 97
114 97
115 96
116 95
117 95
118 96
118 97
119 98
120 98
121 98
122 98
123 98
124 99
125 99
126 99
127 99
128 99
129 99
130 99
131 98
132 99
133 99
134 99
135 98
136 99
137 99
138 99
139 99
140 99
141 99
142 99
143 99
144 98
145 99
146 100
147 100
148 100
149 100
150 100
151 99
152 99
153 99
154 98
155 98
156 97
157 97
158 97
159 96
160 96
161 96
162 97
162 98
161 99
161 100
161 101
161 102
161 103
161 104
162 105
162 106
162 107
163 108
163 109
163 110
163 111
164 111
165 112
166 112
167 113
167 114
168 114
169 114
170 113
171 113
172 112
172 111
173 110
174 109
175 108
175 107
176 106
176 105
177 104
178 103
179 102
179 101
180 100
180 99
181 98
181 97
182 96
182 95
183 94
183 93
184 92
185 91
186 91
187 91
188 90
189 89
190 89
191 89
192 88
192 87
193 86
194 85
195 84
195 83
196 82
197 82
198 82
199 82
200 82
201 82
202 81
203 81
204 81
205 80
206 79
207 79
208 78
209 78
210 77
211 77
212 76
213 75
214 74
215 73
215 72
216 71
217 71
218 70
219 69
220 68
221 67
221 66
222 65
223 64
223 63
224 62
224 61
225 60
225 59
225 58
225 57
225 56
225 55
226 54
226 53
227 52
227 51
227 50
226 50
225 49
226 48
225 48
224 47
223 46
222 46
221 45
222 44
221 44
220 43
219 42
218 41
219 40
218 40
217 39
216 38
215 37
216 36
215 36
214 35
213 35
212 35
211 34
210 33
209 33
208 32
207 32
206 31
205 31
204 30
203 30
202 29
203 28
202 28
201 27
200 27
199 26
198 25
197 25
196 25
195 25
194 24
193 23
192 23
191 23
190 23
189 23
188 23
187 22
186 21
185 21
184 21
183 21
182 20
181 19
180 19
179 18
178 18
177 18
176 17
175 16
176 15
176 14
175 14
174 13
175 12
174 12
173 11
174 10
173 10
172 9
171 8
170 7
171 6
171 5
170 4
169 4
168 4
167 4
166 4
165 3
164 3
163 3
162 3
161 3
160 3
159 3
158 3
157 3
156 3
155 3
154 3
153 3
152 3
151 3
150 3
149 3
148 3
147 3
146 3
145 3
144 3
143 3
142 3
141 2
140 2
