87 2
86 3
85 3
84 3
83 3
82 3
81 3
80 3
79 4
78 4
78 5
77 6
76 6
75 6
74 6
73 7
73 8
72 9
71 9
70 9
69 10
68 10
67 10
66 11
65 11
64 11
63 11
62 12
61 12
60 13
59 13
58 13
57 14
56 14
55 14
54 14
53 15
52 15
51 15
50 16
49 16
48 16
47 17
46 17
45 17
44 17
43 17
42 17
41 18
40 19
39 19
38 19
37 20
36 20
35 21
35 22
34 23
33 23
32 23
31 22
30 22
29 22
28 21
27 21
26 20
25 20
24 20
23 19
22 19
21 18
20 18
19 17
18 17
17 17
16 16
15 15
14 15
13 14
12 14
11 13
10 13
9 12
8 12
7 11
6 11
5 11
4 11
4 12
4 13
4 14
4 15
4 16
4 17
4 18
3 19
3 20
3 21
3 22
3 23
3 24
3 25
3 26
3 27
3 28
2 29
2 30
2 31
2 32
2 33
2 34
2 35
2 36
2 37
2 38
2 39
2 40
2 41
2 42
2 43
2 44
2 45
2 46
2 47
2 48
2 49
2 50
2 51
2 52
3 53
4 54
5 54
6 54
7 54
8 54
9 53
10 53
11 53
12 53
13 52
14 52
15 52
16 52
17 51
18 51
19 51
20 51
21 51
22 51
23 50
24 50
25 50
26 50
27 49
28 49
29 49
30 48
31 47
32 47
33 47
34 48
35 49
35 50
36 51
37 52
38 53
38 54
39 54
40 55
41 56
41 57
42 57
43 58
44 59
45 60
46 60
47 61
48 62
49 62
50 63
51 63
52 64
53 65
54 65
55 65
56 65
57 65
58 65
59 65
60 64
61 64
62 64
63 64
64 64
65 64
66 64
67 64
68 64
69 64
70 64
71 64
72 64
73 64
74 64
75 64
76 64
77 64
78 64
79 65
80 65
81 65
82 65
83 66
84 66
85 66
86 66
87 67
88 67
89 67
90 67
91 67
92 67
93 67
94 67
95 67
96 67
97 67
98 66
99 66
100 66
101 66
102 66
103 66
104 66
105 66
106 66
107 66
108 66
109 67
109 68
109 69
109 70
109 71
109 72
109 73
109 74
109 75
109 76
109 77
109 78
109 79
109 80
109 81
109 82
110 82
111 83
112 84
113 84
114 84
115 84
116 84
117 83
118 82
119 82
120 81
121 80
121 79
122 78
122 77
123 76
124 75
125 74
125 73
126 72
127 71
128 70
128 69
129 68
129 67
129 66
130 65
131 64
132 63
133 63
134 63
135 62
136 62
137 62
138 61
139 61
140 61
141 60
142 60
143 59
144 59
145 58
146 58
147 57
148 57
149 56
150 56
151 55
152 55
153 54
154 54
155 53
156 53
157 53
158 52
159 52
160 51
161 51
162 51
163 50
164 50
165 49
166 49
167 48
168 47
169 46
170 46
171 45
172 44
173 43
174 42
174 41
175 40
176 39
176 38
177 37
177 36
177 35
177 34
177 33
178 32
178 31
177 31
176 30
177 29
177 28
176 28
175 27
176 26
175 26
174 25
175 24
174 24
173 23
172 23
171 22
170 21
169 21
168 20
167 19
166 18
165 18
164 18
163 17
162 16
161 16
160 16
159 16
158 15
157 15
156 15
155 15
154 14
153 14
152 14
151 14
150 14
149 13
148 13
147 13
146 13
145 13
144 12
143 12
142 12
141 12
140 11
139 11
138 11
137 11
136 10
135 10
134 10
133 10
132 10
131 10
130 10
129 9
128 9
127 9
126 8
125 7
124 7
123 6
122 5
121 4
120 3
119 3
118 2
117 2
116 2
115 2
114 2
113 2
112 2
111 2
110 2
109 2
108 2
107 2
106 2
105 2
104 3
103 3
102 3
101 3
100 3
99 3
98 3
97 2
96 2
95 2
94 3
93 2
92 2
91 2
90 2
89 2
88 2
