183 5
183 6
182 7
181 7
180 7
179 7
178 7
177 7
176 7
175 8
174 9
173 9
172 9
171 9
170 9
169 9
168 9
167 10
166 10
165 10
164 11
163 11
162 11
161 11
160 11
159 11
158 11
157 11
156 12
155 13
154 13
153 13
152 13
151 13
150 14
149 14
148 14
147 14
146 15
145 15
144 15
143 16
142 16
141 16
140 16
139 17
138 17
137 17
136 18
135 18
134 18
133 18
132 19
131 19
130 19
129 20
128 20
127 20
126 20
125 21
124 21
123 21
122 22
121 23
120 23
119 23
118 23
117 24
116 24
115 24
114 24
113 25
112 25
111 25
110 25
109 26
108 26
107 26
106 27
105 27
104 27
103 27
102 27
101 28
100 28
99 28
98 29
97 29
96 29
95 30
94 30
93 30
92 31
91 31
90 32
89 32
88 32
87 33
86 33
85 33
84 33
83 33
82 34
81 34
81 35
81 36
81 37
80 38
79 38
78 38
77 39
76 39
76 40
76 41
76 42
76 43
77 44
78 44
79 44
80 44
81 44
82 44
83 44
84 44
85 44
86 45
85 46
84 46
83 46
82 46
81 46
81 47
80 48
79 47
78 47
77 47
76 47
75 46
74 46
73 45
72 45
71 44
70 44
69 44
68 43
67 42
66 42
65 42
64 41
63 41
62 40
61 40
60 39
59 39
58 38
57 38
56 37
55 37
54 36
53 36
52 35
51 35
50 35
49 34
48 34
47 34
46 33
45 33
44 33
43 33
42 32
41 32
40 32
39 32
38 32
37 32
36 32
35 32
34 32
33 33
32 33
31 33
30 33
29 33
28 33
27 33
26 34
25 34
24 34
23 34
22 35
21 35
20 35
19 35
18 35
17 35
16 35
15 35
14 36
13 36
12 36
11 36
10 36
9 35
8 35
7 35
6 35
5 34
4 34
3 34
2 35
2 36
2 37
2 38
3 39
4 39
5 39
6 39
7 40
8 40
9 41
10 41
11 41
12 41
13 41
14 41
15 41
16 41
17 41
18 41
19 41
20 41
21 41
22 41
23 42
24 42
25 42
26 42
27 42
28 42
29 42
30 42
31 42
32 43
33 44
33 45
33 46
34 47
35 48
34 49
33 49
33 50
33 51
33 52
33 53
33 54
33 55
33 56
33 57
33 58
33 59
33 60
33 61
33 62
33 63
33 64
33 65
34 66
34 67
34 68
34 69
34 70
34 71
34 72
34 73
34 74
34 75
34 76
34 77
34 78
33 79
33 80
33 81
33 82
33 83
33 84
33 85
33 86
33 87
33 88
32 89
31 90
30 91
29 92
28 92
27 92
26 93
25 93
24 94
23 94
22 95
21 95
20 95
19 95
18 96
17 96
16 97
15 97
14 97
13 97
12 97
11 97
10 97
9 97
8 97
7 97
7 98
7 99
7 100
8 101
8 102
9 102
10 103
11 103
12 103
13 103
14 103
15 103
16 103
17 103
18 103
19 103
20 103
21 103
22 103
23 103
24 102
25 102
26 102
27 102
28 102
29 101
30 101
31 101
32 101
33 101
34 100
35 100
36 100
37 100
38 99
39 99
40 99
41 99
42 98
43 98
44 97
45 97
46 97
47 97
48 96
49 96
50 96
51 96
52 96
53 96
54 96
55 95
56 94
57 93
58 93
59 93
60 92
61 92
62 92
63 91
64 91
65 91
66 90
67 90
68 90
69 89
70 89
71 88
72 89
72 90
72 91
72 92
72 93
73 94
74 94
75 95
76 95
77 96
78 97
79 98
80 98
81 99
82 99
83 100
84 101
85 101
86 101
87 102
88 102
89 103
90 103
91 104
92 104
93 105
94 105
95 105
96 106
97 107
98 107
99 108
100 108
101 109
102 109
103 110
104 110
105 111
106 111
107 111
108 111
109 111
110 112
111 112
112 113
113 113
114 113
115 113
116 113
117 114
118 114
119 114
120 114
121 114
122 113
123 113
124 113
125 113
126 113
127 113
128 113
129 113
130 113
131 114
132 114
133 115
134 115
135 115
136 115
137 115
138 114
139 114
140 114
141 114
142 114
143 114
144 114
145 114
146 114
147 114
148 114
149 114
150 114
151 114
152 114
153 114
154 113
155 113
156 113
157 112
158 111
159 111
160 111
161 110
162 110
163 110
164 110
165 110
166 111
167 111
168 111
169 112
170 112
171 112
172 112
173 112
174 112
175 112
176 112
177 112
178 113
179 113
180 113
181 113
182 113
183 113
184 113
185 113
186 113
187 113
188 114
189 114
190 114
191 114
192 115
192 116
192 117
192 118
192 119
191 120
191 121
191 122
191 123
192 124
192 125
192 126
192 127
193 128
193 129
193 130
193 131
193 132
193 133
192 134
191 135
191 136
191 137
191 138
191 139
192 139
193 139
194 139
195 138
196 138
197 137
198 136
199 136
200 136
201 135
202 134
203 134
204 133
205 132
206 131
207 130
208 130
209 129
209 128
210 127
210 126
210 125
211 124
211 123
212 122
212 121
213 120
213 119
213 118
213 117
213 116
213 115
213 114
213 113
214 112
214 111
214 110
214 109
215 108
216 108
217 108
218 108
219 108
220 108
221 108
222 108
223 107
224 107
225 107
226 107
227 107
228 106
229 106
230 106
231 106
232 106
233 105
234 105
235 105
236 104
237 104
238 104
239 104
240 103
241 102
242 102
243 102
244 101
245 101
246 101
247 101
248 101
249 100
250 100
251 100
252 99
253 99
254 99
255 98
256 98
257 98
258 97
259 96
260 96
261 96
262 95
263 94
264 94
265 93
266 92
267 91
268 91
269 90
269 89
270 88
271 87
272 86
272 85
273 84
274 84
275 83
275 82
276 81
276 80
277 79
277 78
278 77
279 76
279 75
280 74
280 73
280 72
280 71
280 70
280 69
279 69
278 68
279 67
279 66
279 65
278 65
277 64
278 63
278 62
277 62
276 61
277 60
277 59
277 58
278 57
278 56
278 55
279 54
279 53
279 52
279 51
279 50
278 50
277 49
278 48
278 47
277 47
276 46
277 45
276 45
275 44
276 43
275 43
274 42
273 42
272 41
271 40
270 39
269 39
268 38
267 38
266 37
265 37
264 36
263 36
262 35
261 35
260 35
259 34
258 34
257 33
256 33
255 33
254 32
253 32
252 32
251 32
250 31
249 31
248 31
247 31
246 30
245 30
244 30
243 30
242 29
241 29
240 29
239 29
238 28
237 28
236 28
235 28
234 28
233 28
232 27
231 27
230 27
229 26
228 26
227 26
226 26
225 26
224 26
223 25
222 25
221 25
220 24
219 23
218 22
217 21
218 20
217 20
216 19
217 18
217 17
216 17
215 16
216 15
215 15
214 14
213 13
212 12
213 11
212 11
211 10
210 10
209 9
210 8
209 8
208 7
207 7
206 7
205 7
204 7
203 7
202 8
201 8
200 7
199 7
198 6
197 6
196 6
195 6
194 5
193 5
192 5
191 5
190 5
189 6
188 6
187 6
186 5
185 5
184 5
