164 2
163 3
162 3
161 3
160 3
159 3
158 3
157 3
156 3
155 3
154 4
153 4
152 4
151 4
150 4
149 4
148 4
147 4
146 5
145 5
144 5
143 6
142 6
141 6
140 6
139 7
138 7
137 7
136 7
135 8
134 8
133 9
132 10
131 10
130 10
129 10
128 10
127 10
126 11
125 12
124 12
123 12
122 13
121 13
120 14
119 15
118 15
117 15
116 15
115 16
114 16
113 16
112 16
111 16
110 17
109 17
108 17
107 18
106 18
105 18
104 19
103 19
102 19
101 19
100 20
99 20
98 20
97 20
96 19
95 19
94 19
93 19
92 19
91 19
91 20
91 21
91 22
90 23
89 23
88 23
87 23
86 23
85 23
84 23
83 24
82 24
81 24
80 25
79 25
78 25
77 25
76 25
75 26
74 26
73 26
72 26
71 26
71 27
70 28
69 28
68 28
67 29
66 29
65 29
64 30
63 30
62 30
61 31
61 32
61 33
61 34
61 35
61 36
62 36
63 36
64 37
65 38
64 39
63 40
62 41
61 40
60 40
59 40
58 40
57 40
56 39
55 39
54 39
53 39
52 38
51 37
50 37
49 36
48 35
47 34
46 34
45 34
44 34
43 34
42 33
41 32
40 32
39 31
38 31
37 30
36 30
35 30
34 29
33 28
32 28
31 27
30 27
29 26
28 25
27 25
26 25
25 24
24 24
23 24
22 23
21 23
20 23
19 22
18 22
17 22
16 22
15 22
14 22
13 22
12 22
11 22
10 21
9 21
8 21
7 20
6 20
5 20
4 21
3 22
2 23
2 24
2 25
2 26
3 27
4 27
5 27
6 27
7 28
8 29
9 30
10 31
10 32
10 33
10 34
11 34
12 35
12 36
13 37
14 38
15 39
14 40
14 41
14 42
14 43
14 44
14 45
14 46
14 47
14 48
14 49
14 50
14 51
14 52
14 53
14 54
14 55
14 56
14 57
14 58
14 59
14 60
14 61
14 62
14 63
14 64
13 65
13 66
13 67
13 68
14 69
14 70
14 71
14 72
15 73
15 74
15 75
14 76
14 77
14 78
14 79
14 80
14 81
14 82
13 83
12 83
12 84
11 85
10 86
9 87
9 88
8 89
7 90
6 91
5 91
4 92
4 93
4 94
4 95
4 96
4 97
4 98
5 99
6 99
7 99
8 99
9 99
10 99
11 99
12 99
13 99
14 98
15 98
16 97
17 97
18 98
17 99
17 100
17 101
17 102
18 102
19 102
19 101
20 100
20 99
21 98
21 97
22 96
23 95
24 94
25 94
26 93
27 93
28 93
29 92
30 92
31 91
32 91
33 91
34 91
35 90
36 89
37 88
38 88
39 88
40 87
41 87
42 86
43 86
44 85
45 85
46 84
47 84
48 83
49 82
50 82
51 82
52 81
53 80
54 80
55 79
56 79
57 78
58 78
59 78
60 78
61 77
62 77
63 77
64 78
63 79
62 80
61 80
60 81
60 82
60 83
61 84
61 85
61 86
61 87
62 88
63 89
64 90
65 91
66 91
67 92
68 92
69 92
70 93
70 94
71 95
72 95
73 95
74 96
75 97
76 97
77 97
78 98
79 98
80 99
81 99
82 99
83 99
84 100
85 100
86 100
87 101
88 101
89 101
90 101
91 101
92 101
93 102
94 102
95 102
96 102
97 102
98 102
99 103
100 103
101 103
102 103
103 103
104 103
105 103
106 103
107 103
108 103
109 103
110 103
111 103
112 103
113 103
114 103
115 103
116 103
117 103
118 103
119 103
120 103
121 103
122 102
123 102
124 102
125 102
126 102
127 102
128 103
129 103
130 103
131 103
132 103
133 103
134 103
135 103
136 103
137 104
138 104
139 104
140 104
141 104
142 104
143 105
144 105
145 105
146 105
147 105
148 105
149 105
150 105
151 105
152 105
153 105
154 105
155 105
156 105
157 105
158 105
159 105
160 105
161 105
162 105
163 105
164 105
165 105
166 105
167 105
168 105
169 105
170 106
170 107
170 108
170 109
170 110
169 111
169 112
169 113
169 114
170 114
171 114
172 114
173 115
174 115
175 115
176 116
177 116
178 116
179 116
180 116
181 117
181 118
181 119
181 120
180 121
179 122
178 122
178 123
178 124
177 125
177 126
177 127
177 128
178 128
179 128
180 127
180 126
181 125
182 124
183 123
184 122
184 121
185 120
185 119
186 118
187 117
188 118
188 119
188 120
188 121
188 122
188 123
188 124
188 125
189 126
190 127
190 128
191 128
192 129
192 130
192 131
192 132
192 133
193 134
193 135
193 136
194 136
195 136
196 136
197 136
198 135
199 135
200 134
201 133
202 132
203 131
203 130
204 129
205 129
206 128
206 127
207 126
207 125
207 124
208 123
208 122
209 121
209 120
210 119
210 118
210 117
211 116
211 115
212 114
212 113
213 112
213 111
213 110
213 109
213 108
213 107
213 106
214 105
214 104
214 103
214 102
214 101
215 100
216 100
217 100
218 99
219 99
220 99
221 98
222 98
223 98
224 97
225 97
226 97
227 96
228 96
229 96
230 95
231 95
232 94
233 94
234 93
235 93
236 93
237 92
238 91
239 91
240 90
241 89
242 89
243 89
244 88
245 88
246 88
247 87
248 87
249 87
250 86
251 86
252 86
253 85
254 85
255 85
256 84
257 84
258 83
259 82
260 82
261 81
262 80
263 80
264 79
265 79
266 78
267 77
268 77
269 76
270 75
271 75
272 74
273 73
274 72
275 71
276 70
277 69
278 68
278 67
279 66
280 65
280 64
281 63
281 62
282 61
282 60
283 59
283 58
283 57
283 56
283 55
283 54
283 53
282 53
281 52
282 51
282 50
281 50
280 49
279 48
278 47
277 46
276 45
275 44
274 43
273 43
272 42
273 41
272 41
271 40
270 40
269 39
268 38
267 38
266 37
265 36
264 36
263 35
262 35
261 35
260 34
259 33
258 32
257 31
256 31
255 31
254 31
253 30
252 30
251 30
250 29
249 29
248 29
247 28
246 28
245 28
244 28
243 27
242 27
241 27
240 26
239 26
238 26
237 25
236 25
235 25
234 24
233 24
232 23
231 23
230 23
229 23
228 22
227 22
226 22
225 22
224 21
223 21
222 21
221 20
220 20
219 20
218 20
217 20
216 19
215 19
214 19
213 18
212 18
211 18
210 18
209 18
208 17
207 17
206 17
205 17
204 16
203 15
202 15
201 14
200 13
199 13
198 12
197 11
196 11
195 10
194 9
193 9
192 8
191 7
190 6
189 6
188 5
187 5
186 4
185 4
184 3
183 3
182 3
181 2
180 2
179 2
178 2
177 2
176 2
175 2
174 2
173 2
172 2
171 2
170 2
169 2
168 2
167 2
166 2
165 2
