132 2
131 3
130 3
129 3
128 3
127 3
126 3
125 3
124 3
123 3
122 4
121 5
120 5
119 5
118 5
117 5
116 5
115 5
114 5
113 5
112 6
111 6
110 6
109 6
108 6
107 7
106 7
105 7
104 7
103 7
102 7
101 7
100 7
99 7
99 8
99 9
99 10
99 11
99 12
98 13
97 12
96 12
95 12
94 12
93 12
92 12
91 12
90 13
89 14
88 15
87 15
86 15
85 15
84 16
83 17
82 18
81 18
80 18
79 18
78 19
77 19
76 19
75 20
74 20
73 21
72 21
71 21
70 22
69 23
68 23
67 24
66 25
65 26
64 26
63 27
62 28
61 29
60 30
59 31
58 31
57 31
56 32
55 33
54 33
54 34
53 35
52 35
52 36
51 37
51 38
50 39
49 39
48 40
48 41
48 42
48 43
47 44
47 45
47 46
47 47
46 48
45 48
44 48
43 49
42 49
41 50
40 50
39 51
38 51
37 52
36 53
35 53
34 53
33 53
32 54
31 54
30 54
29 54
28 54
27 55
26 55
25 55
24 56
23 56
22 56
21 57
20 57
19 58
18 58
17 58
16 59
15 59
14 59
13 60
12 60
11 60
10 61
9 61
8 61
7 62
6 62
5 63
4 64
3 65
2 66
2 67
2 68
2 69
2 70
2 71
3 72
4 72
5 73
6 73
7 74
8 75
8 76
8 77
9 78
10 79
11 80
11 81
11 82
11 83
12 84
12 85
13 86
14 87
14 88
14 89
14 90
15 91
16 92
17 93
17 94
17 95
18 96
19 97
19 98
19 99
19 100
19 101
19 102
19 103
19 104
19 105
20 106
21 106
22 106
23 106
24 106
25 106
26 105
27 105
28 104
29 103
30 102
31 101
32 100
33 99
34 98
34 97
35 96
36 95
37 94
38 93
39 92
40 91
41 90
42 89
43 88
44 87
45 86
46 85
47 84
48 83
49 82
50 82
51 81
52 80
53 80
54 81
55 81
56 81
57 81
58 82
59 82
60 83
61 83
62 84
63 84
64 84
65 84
66 85
67 86
68 86
69 87
70 87
71 88
72 88
73 88
74 89
75 89
76 89
77 90
78 91
79 91
80 91
81 91
82 92
83 92
84 92
85 92
86 93
87 93
88 93
89 94
90 94
91 94
92 94
93 94
94 94
95 94
96 94
97 94
98 94
99 94
100 93
101 93
102 93
103 93
104 92
105 91
106 90
107 89
108 88
109 87
110 86
111 86
112 86
113 87
114 87
115 87
116 87
117 87
118 88
119 88
120 88
121 88
122 88
123 88
124 88
125 88
126 88
127 88
128 88
129 88
130 88
131 89
132 89
133 89
134 89
135 89
136 89
137 89
138 89
139 90
139 91
139 92
140 93
140 94
140 95
139 96
139 97
139 98
139 99
140 100
141 100
142 100
143 100
144 99
145 100
145 101
145 102
145 103
145 104
145 105
145 106
145 107
145 108
145 109
145 110
146 111
147 112
148 112
149 112
150 112
151 112
152 111
153 110
154 109
155 108
156 107
156 106
157 105
158 104
158 103
159 102
159 101
160 100
160 99
161 98
161 97
162 96
162 95
162 94
162 93
163 92
163 91
163 90
164 89
165 89
166 89
167 88
168 88
169 88
170 87
171 87
172 87
173 86
174 86
175 86
176 85
177 85
178 85
179 84
180 84
181 84
182 83
183 83
184 83
185 82
186 82
187 82
188 82
189 81
190 81
191 81
192 81
193 80
194 80
195 80
196 79
197 78
198 78
199 78
200 77
201 77
202 76
203 76
204 75
205 75
206 74
207 74
208 73
209 73
210 72
211 72
212 72
213 71
214 71
215 70
216 69
217 69
218 69
219 69
220 68
221 67
221 66
222 65
222 64
222 63
222 62
222 61
222 60
223 59
224 58
224 57
225 56
225 55
225 54
225 53
225 52
225 51
224 51
223 50
224 49
223 49
222 48
221 47
220 46
219 46
218 45
217 44
216 44
215 43
214 43
213 42
212 42
211 42
210 41
209 40
208 39
207 38
206 38
205 37
204 36
203 35
202 35
201 34
200 34
199 34
198 33
197 32
196 32
195 31
194 31
193 31
192 30
191 30
190 29
189 28
188 28
187 28
186 27
185 26
184 26
183 25
182 25
181 24
180 24
179 24
178 23
177 23
176 23
175 22
174 22
173 22
172 21
171 20
170 19
171 18
171 17
170 17
169 16
170 15
170 14
169 14
168 13
169 12
168 12
167 11
166 10
167 9
166 9
165 8
164 8
163 7
162 7
161 6
160 5
159 5
158 4
157 4
156 3
155 3
154 3
153 3
152 3
151 3
150 3
149 3
148 3
147 3
146 2
145 2
144 2
143 2
142 2
141 2
140 2
139 2
138 2
137 2
136 2
135 2
134 2
133 2
