254 4
253 5
253 6
252 7
252 8
252 9
252 10
252 11
253 12
253 13
254 14
254 15
255 16
255 17
256 18
256 19
257 20
258 21
259 22
259 23
260 24
260 25
261 26
261 27
262 28
262 29
263 30
263 31
264 32
264 33
265 34
265 35
265 36
266 37
266 38
267 39
267 40
267 41
268 42
268 43
268 44
268 45
268 46
268 47
268 48
268 49
268 50
267 51
267 52
267 53
267 54
266 55
266 56
266 57
265 58
265 59
265 60
264 61
264 62
263 63
263 64
262 65
261 66
260 67
259 67
258 66
257 65
258 64
257 64
256 63
255 62
254 62
253 61
252 61
251 61
250 61
249 61
248 61
247 61
246 62
245 63
244 64
243 65
243 66
242 67
242 68
241 69
241 70
241 71
240 72
240 73
239 74
239 75
239 76
238 77
238 78
238 79
237 80
236 81
235 82
234 83
233 83
232 84
231 84
230 84
229 84
228 84
227 84
226 84
225 85
224 85
223 85
222 85
221 86
220 86
219 86
218 86
217 86
216 87
215 87
214 87
213 87
212 87
211 88
210 88
209 88
208 89
207 89
206 89
205 89
204 88
204 87
203 87
202 86
202 85
203 84
203 83
202 83
201 82
202 81
201 81
200 80
201 79
200 79
199 78
198 77
197 76
196 75
195 74
194 73
193 72
192 72
191 72
190 72
189 73
189 74
188 75
188 76
187 77
186 78
186 79
185 80
185 81
184 82
184 83
183 84
183 85
182 86
182 87
181 88
181 89
180 90
180 91
179 92
178 93
177 94
176 95
175 96
174 96
173 96
172 97
171 97
170 97
169 97
168 98
167 98
166 99
165 99
164 99
163 100
162 100
161 100
160 101
159 101
158 101
157 102
156 102
155 103
154 104
153 104
152 104
151 105
150 105
149 105
148 106
147 106
146 107
145 107
144 108
143 108
142 109
141 109
140 110
139 110
138 111
137 111
136 112
135 113
134 113
133 114
132 114
131 115
130 115
129 116
128 117
127 117
126 118
125 119
124 119
123 120
122 120
121 121
120 122
119 122
118 123
117 124
116 124
115 125
114 125
113 126
112 127
111 127
110 128
109 128
108 129
107 130
106 130
105 130
104 131
103 132
102 132
101 133
100 133
99 133
98 134
97 135
96 135
95 136
94 136
93 135
93 134
93 133
92 133
91 132
92 131
92 130
91 130
90 129
89 128
90 127
89 127
88 127
87 126
86 125
85 125
84 125
83 125
82 124
81 124
80 124
79 123
78 123
77 123
76 122
75 122
74 122
73 121
72 121
71 121
70 121
69 120
68 120
67 119
66 119
65 118
64 118
63 117
62 117
61 117
60 117
59 117
58 118
57 118
56 118
55 119
54 119
53 120
53 121
52 122
52 123
51 124
51 125
51 126
51 127
51 128
51 129
51 130
51 131
51 132
51 133
52 134
52 135
52 136
52 137
53 138
53 139
53 140
53 141
53 142
53 143
53 144
53 145
53 146
53 147
53 148
53 149
54 150
54 151
53 152
52 152
51 152
50 153
49 153
48 154
47 154
46 154
45 155
44 155
43 155
42 155
41 156
40 156
39 156
38 156
37 157
36 157
35 158
34 158
33 159
32 159
31 160
30 161
29 162
28 163
27 164
26 164
25 165
24 166
23 166
22 167
21 167
20 168
20 169
19 170
18 170
17 171
16 172
15 173
14 174
14 175
13 176
12 177
11 178
10 179
9 180
8 181
7 182
6 183
6 184
5 185
4 186
3 187
3 188
2 189
2 190
2 191
1 192
1 193
1 194
1 195
1 196
1 197
1 198
2 199
2 200
3 201
4 201
5 202
6 203
7 203
8 203
9 203
10 203
11 204
12 204
13 204
14 204
15 204
16 204
17 204
18 204
19 205
20 205
21 205
22 205
23 205
24 205
25 205
26 205
27 205
28 205
29 205
30 205
31 205
32 205
33 205
34 205
35 205
36 204
37 204
38 204
39 204
40 203
41 203
42 203
43 203
44 203
45 202
46 202
47 202
48 202
49 201
50 201
51 201
52 201
53 201
54 201
55 201
56 201
57 200
58 200
59 200
60 200
61 199
62 199
63 199
64 198
65 198
66 198
67 197
68 197
69 197
70 197
71 196
72 196
73 197
74 198
75 197
75 196
76 195
77 196
77 197
77 198
78 199
78 200
78 201
79 202
79 203
79 204
79 205
80 206
80 207
80 208
79 209
79 210
79 211
80 212
80 213
81 214
82 215
82 216
82 217
83 218
83 219
84 220
85 221
85 222
86 223
87 224
88 225
89 226
90 227
90 228
91 229
92 230
93 231
94 231
95 232
96 233
97 233
98 234
99 234
100 234
101 234
102 234
103 234
104 234
105 234
106 233
107 233
108 232
109 231
110 230
110 229
111 228
111 227
112 226
112 225
113 224
113 223
114 222
115 221
115 220
116 219
116 218
117 217
117 216
118 215
118 214
119 213
119 212
120 211
120 210
120 209
121 208
121 207
121 206
121 205
122 204
122 203
122 202
121 202
120 201
121 200
121 199
121 198
121 197
120 197
119 196
120 195
120 194
119 194
118 193
117 192
118 191
117 191
116 190
115 190
114 189
113 188
112 188
111 188
110 187
109 187
108 187
107 187
106 187
105 186
104 186
103 186
102 186
101 186
100 186
99 185
100 184
101 184
102 183
103 183
104 182
105 182
106 181
107 181
108 180
109 180
110 179
111 179
112 178
113 178
114 177
115 177
116 176
117 176
118 175
119 174
120 174
121 173
122 173
123 172
124 172
125 172
126 171
127 170
128 170
129 169
130 168
131 168
132 167
133 167
134 166
135 165
136 164
137 163
138 163
139 162
140 161
141 160
142 160
143 159
144 158
145 157
146 156
147 155
148 154
149 153
150 152
151 151
152 150
153 150
153 149
154 148
155 148
156 149
157 149
158 150
159 150
160 150
161 151
162 151
163 151
164 152
165 152
166 152
167 151
168 151
169 152
170 152
171 152
172 152
173 151
174 151
175 151
176 150
177 150
178 149
179 148
180 147
180 146
181 145
181 144
182 143
182 142
183 141
183 140
183 139
184 138
184 137
184 136
185 135
185 134
185 133
185 132
186 131
186 130
187 129
188 128
188 127
189 126
190 125
191 124
191 123
192 122
192 121
191 121
190 120
189 119
190 118
191 118
192 117
193 117
194 117
195 117
196 117
197 116
198 116
199 115
200 115
201 115
202 114
203 114
204 114
205 114
206 114
207 113
208 113
209 113
210 113
211 112
212 112
213 111
214 111
215 111
216 111
217 112
218 112
219 113
220 113
221 114
222 113
223 114
223 115
224 115
225 114
226 115
226 116
227 116
228 117
229 116
230 117
231 118
232 119
233 119
234 119
235 119
236 120
237 120
238 120
239 119
240 119
241 118
242 117
243 116
243 115
244 114
245 113
246 112
246 111
247 110
247 109
248 108
249 107
249 106
250 105
251 104
251 103
252 102
252 101
253 100
254 99
254 98
255 97
255 96
256 95
256 94
255 94
254 94
253 93
254 92
255 92
256 91
257 91
258 90
259 89
260 88
261 87
262 86
263 85
264 84
264 83
265 82
266 81
267 80
268 79
269 78
270 77
270 76
271 75
272 74
273 73
274 72
275 72
276 71
276 70
277 69
278 68
279 67
280 66
281 66
281 65
282 64
283 63
284 62
285 61
286 60
286 59
287 58
288 57
288 56
289 55
289 54
290 53
290 52
291 51
291 50
291 49
291 48
291 47
291 46
290 45
289 44
288 43
287 43
286 42
285 41
284 40
285 39
284 39
283 38
282 37
281 36
282 35
281 35
280 34
279 33
278 32
279 31
278 31
277 30
276 29
277 28
276 28
275 27
276 26
275 25
275 24
276 23
276 22
277 21
278 20
279 19
279 18
280 17
280 16
279 16
278 15
277 14
276 13
275 13
274 12
273 11
272 11
271 10
270 9
269 8
268 8
267 7
266 7
265 6
264 5
263 5
262 4
261 4
260 4
259 4
258 4
257 4
256 4
255 4
