141 2
140 3
139 4
138 4
137 4
136 5
135 6
134 5
133 5
132 5
132 6
131 7
131 8
130 9
129 10
128 10
127 11
126 11
125 12
124 12
123 12
122 13
121 14
120 15
119 15
118 15
117 16
116 17
115 17
114 18
113 18
112 18
111 18
110 18
109 19
108 19
107 19
106 19
105 20
104 20
103 20
102 20
101 20
100 20
99 20
98 20
97 20
96 20
95 20
94 20
93 20
92 20
91 21
90 21
89 21
88 21
87 21
86 21
85 21
84 21
83 21
82 21
81 21
80 21
79 21
78 21
77 21
76 21
75 22
74 22
73 22
72 23
71 23
70 23
69 23
68 23
67 24
66 24
65 24
64 24
63 24
62 24
61 24
60 25
59 25
58 25
57 25
56 26
55 26
54 26
53 27
52 27
51 27
50 27
49 27
48 28
47 28
46 29
45 29
44 30
43 30
42 30
41 30
40 30
39 30
38 30
37 30
36 30
35 30
34 30
33 30
32 30
31 30
30 31
29 31
28 31
27 31
26 31
25 32
24 32
23 32
22 33
21 33
20 33
19 33
18 34
17 34
16 34
15 34
14 34
13 34
13 35
12 36
11 36
10 37
9 38
8 38
7 38
6 38
5 39
4 40
3 41
2 41
2 42
2 43
2 44
2 45
3 46
3 47
3 48
4 49
5 50
6 50
7 51
8 52
9 52
10 53
11 53
12 54
12 55
13 55
14 55
15 55
16 55
17 56
18 56
19 56
20 56
21 56
22 56
23 56
24 57
25 57
26 58
27 58
28 59
29 59
30 59
31 59
32 59
33 59
34 60
35 60
36 60
37 60
38 60
39 60
40 60
41 60
42 60
43 60
44 61
45 61
46 61
47 61
48 61
49 62
50 62
51 62
52 62
53 63
54 63
55 63
56 62
57 63
58 63
59 63
60 63
61 63
62 64
63 64
64 64
65 65
66 65
67 66
68 66
69 67
70 67
71 67
72 68
73 68
74 69
75 70
76 70
77 70
78 71
79 71
80 72
81 72
82 72
83 73
84 73
85 73
86 73
87 74
88 74
89 75
90 75
91 75
92 76
93 76
94 76
95 76
96 76
97 76
98 77
99 77
100 77
101 78
102 78
103 78
104 78
105 79
106 79
107 79
108 79
109 79
110 79
111 79
112 79
113 79
114 79
115 79
116 79
117 80
118 80
119 80
120 80
121 80
122 80
123 80
124 80
125 80
126 80
127 80
128 80
129 80
130 80
131 80
132 80
133 80
134 80
135 80
136 80
137 80
138 80
139 79
140 79
141 79
142 79
143 79
144 79
145 79
146 79
147 79
148 79
149 79
150 79
151 78
152 78
153 78
154 78
155 78
156 77
157 77
158 77
159 76
160 76
161 76
162 76
163 76
164 76
165 76
166 76
167 75
168 75
169 74
170 74
171 74
172 73
173 73
174 73
175 73
176 73
177 73
178 73
179 72
180 72
181 72
182 71
183 71
184 71
185 70
186 70
187 70
188 70
189 69
190 69
191 69
192 68
193 68
194 68
195 67
196 67
197 67
198 66
199 65
200 64
201 64
202 64
203 63
204 63
205 62
206 62
207 61
208 60
209 60
210 59
211 59
212 59
213 59
214 59
215 59
216 60
217 60
218 60
219 61
220 61
221 62
222 62
223 62
224 62
225 62
226 61
227 61
228 60
229 59
229 58
230 57
230 56
231 55
231 54
232 53
232 52
233 51
233 50
234 49
235 49
236 49
237 49
238 49
239 48
240 48
241 48
242 47
243 47
244 47
245 47
246 46
247 46
248 46
249 46
250 46
251 45
252 45
253 44
254 44
255 44
256 43
257 43
258 43
259 43
260 43
261 43
262 43
263 42
264 42
265 42
266 41
267 41
268 41
269 41
270 41
271 41
272 40
273 40
274 40
275 40
276 40
277 40
278 41
279 42
280 43
281 43
282 43
283 44
283 45
284 46
285 47
286 47
287 48
288 49
289 50
290 51
291 52
292 53
293 54
294 55
295 55
296 56
296 57
297 57
298 58
299 58
300 59
301 59
302 60
303 60
304 60
305 60
306 60
307 60
308 60
309 59
310 58
310 57
311 56
311 55
311 54
312 53
312 52
311 52
310 51
311 50
311 49
311 48
311 47
311 46
311 45
312 44
313 43
314 43
315 43
316 42
317 41
318 41
319 40
320 40
321 40
322 39
323 38
324 38
325 37
326 37
327 37
328 36
329 36
330 35
331 34
332 33
333 32
334 33
335 33
336 34
337 34
338 35
339 35
340 35
341 35
342 35
343 34
344 33
344 32
345 31
345 30
345 29
345 28
346 27
346 26
347 25
347 24
348 23
349 23
350 22
350 21
351 20
351 19
352 18
352 17
353 16
353 15
354 14
354 13
355 12
355 11
355 10
355 9
355 8
355 7
355 6
355 5
354 5
353 4
352 4
351 4
350 4
349 4
348 4
347 4
346 4
345 4
344 4
343 5
342 5
341 6
340 6
339 7
338 7
337 7
336 7
335 8
334 8
333 9
332 9
331 10
330 10
329 10
328 11
327 11
326 11
325 11
324 12
323 12
322 12
321 13
320 13
319 14
318 14
317 15
316 15
315 15
314 15
313 16
312 16
311 17
310 17
309 18
308 18
307 18
306 18
305 19
304 19
303 20
302 20
301 20
300 20
299 21
298 21
297 21
296 21
295 22
294 22
293 23
292 23
291 24
290 24
289 24
288 24
287 25
286 25
285 25
284 25
283 25
282 24
281 24
280 24
279 24
278 24
277 24
276 24
275 24
274 24
273 24
272 24
271 24
270 24
269 23
268 23
267 23
266 22
265 21
264 21
263 20
262 19
261 18
260 17
261 16
260 16
259 15
258 14
257 14
256 14
255 14
254 14
253 14
252 15
251 15
250 15
249 16
248 17
247 18
246 18
245 18
244 19
243 20
242 21
241 21
240 21
239 22
238 22
237 22
236 22
235 22
234 22
233 22
232 22
231 22
230 22
229 22
228 22
227 21
226 21
225 21
224 21
223 21
222 21
221 21
220 21
219 21
218 21
217 21
216 21
215 21
214 21
213 21
212 21
211 21
210 21
209 21
208 21
207 21
206 21
205 21
204 21
203 21
202 21
201 21
200 21
199 21
198 21
197 21
196 21
195 21
194 20
193 20
192 20
191 20
190 20
189 20
188 19
187 19
186 19
185 19
184 18
183 18
182 18
181 18
180 18
179 18
178 18
177 18
176 18
175 18
174 18
173 18
172 18
171 18
170 18
169 18
168 18
167 17
166 17
165 17
164 17
163 17
162 18
161 18
160 18
159 18
158 18
157 18
156 17
155 16
154 15
153 14
152 13
153 12
153 11
152 11
151 10
152 9
152 8
151 8
150 7
151 6
150 6
149 5
148 4
147 3
146 3
145 2
144 2
143 2
142 2
