12 6
12 7
12 8
12 9
12 10
13 11
13 12
13 13
13 14
13 15
14 16
14 17
14 18
14 19
14 20
14 21
14 22
14 23
14 24
14 25
14 26
14 27
13 28
13 29
14 30
14 31
14 32
15 32
16 33
17 34
17 35
17 36
18 37
18 38
18 39
18 40
19 41
19 42
19 43
19 44
19 45
20 46
20 47
20 48
20 49
21 50
21 51
21 52
22 53
22 54
22 55
22 56
22 57
23 58
23 59
23 60
23 61
24 62
24 63
24 64
24 65
24 66
25 67
25 68
25 69
25 70
25 71
25 72
25 73
26 74
26 75
26 76
26 77
26 78
26 79
26 80
26 81
26 82
26 83
25 84
24 85
23 86
23 87
22 88
21 89
20 90
19 91
19 92
18 93
17 94
17 95
16 96
16 97
15 98
14 99
14 100
13 101
13 102
12 103
11 104
11 105
11 106
10 107
9 108
9 109
8 110
7 111
7 112
6 113
6 114
5 115
4 116
3 117
2 118
2 119
2 120
2 121
3 120
4 120
5 120
6 120
7 119
8 119
9 119
10 118
11 118
12 118
13 118
14 117
15 117
16 116
17 116
18 116
19 115
20 115
21 115
22 115
23 114
24 113
25 113
26 112
27 111
28 111
29 111
30 110
31 110
32 109
33 108
34 108
35 107
36 107
37 106
38 105
39 105
40 104
41 104
42 103
43 102
44 102
45 102
46 101
47 100
48 99
49 99
50 98
51 98
52 98
53 98
54 99
54 100
54 101
55 102
56 102
57 102
58 103
59 103
60 103
61 103
62 104
63 104
64 105
65 105
66 105
67 106
68 106
69 107
70 107
71 108
70 109
69 109
68 109
67 109
66 109
65 109
65 110
66 111
67 111
68 112
69 113
70 114
70 115
70 116
71 117
71 118
72 118
73 118
74 118
75 118
76 118
77 118
78 118
79 118
80 118
81 118
82 118
83 118
84 118
85 118
86 118
87 118
88 119
89 120
90 121
91 121
92 122
93 123
94 124
95 125
96 126
97 126
98 127
98 128
99 128
100 129
101 130
102 130
103 131
104 132
105 133
106 134
107 135
108 135
109 136
108 137
107 138
106 138
105 138
104 138
103 138
102 138
101 138
100 138
99 138
98 138
97 137
96 137
95 137
94 137
93 137
92 137
91 137
91 138
92 139
92 140
92 141
93 142
94 142
95 143
96 143
97 143
98 143
99 144
100 144
101 144
102 144
103 145
104 145
105 145
106 145
107 146
107 147
106 148
105 148
104 149
103 150
103 151
104 151
105 151
106 151
107 151
108 151
109 151
110 151
111 151
112 151
113 151
114 151
115 151
116 151
117 150
118 150
119 150
120 150
121 149
122 149
123 149
124 148
125 148
126 148
127 147
128 147
129 147
130 147
131 147
132 147
133 147
134 147
135 148
136 148
137 148
138 149
139 149
140 150
141 150
142 151
143 151
144 152
145 152
146 153
147 154
148 154
149 155
150 155
151 155
152 156
153 156
154 156
155 157
156 157
157 158
158 158
159 158
160 159
161 159
162 160
163 160
164 160
165 161
166 161
167 161
168 161
169 162
170 163
169 164
168 164
167 165
167 166
166 167
165 168
165 169
164 170
164 171
164 172
164 173
163 174
163 175
163 176
163 177
162 178
162 179
162 180
162 181
161 182
161 183
161 184
160 185
160 186
160 187
159 188
158 189
158 190
157 191
157 192
157 193
156 194
155 195
155 196
155 197
154 198
154 199
154 200
153 201
152 202
152 203
151 204
151 205
151 206
150 207
150 208
149 209
148 210
148 211
149 211
150 211
151 211
152 210
153 210
154 209
155 209
156 208
157 208
158 207
159 207
160 206
161 205
162 205
163 204
164 204
165 203
166 202
167 202
168 201
169 200
170 199
171 199
172 198
173 197
174 197
175 196
176 195
177 194
178 194
179 193
180 192
181 191
182 190
183 189
184 188
185 188
185 187
186 186
187 185
188 184
189 183
189 182
190 181
191 181
191 180
192 179
193 178
194 177
195 176
195 175
196 174
197 175
198 176
199 177
199 178
200 179
201 180
202 181
203 182
203 183
204 184
205 185
205 186
205 187
206 188
206 189
206 190
207 191
207 192
207 193
207 194
208 195
208 196
208 197
209 197
210 197
211 196
211 195
212 194
212 193
213 192
213 191
213 190
213 189
213 188
213 187
214 186
214 185
214 184
214 183
214 182
214 181
214 180
215 179
214 178
214 177
215 176
215 175
215 174
215 173
215 172
216 171
217 171
218 171
219 171
220 171
221 171
222 171
223 171
224 171
225 171
226 171
227 171
228 171
229 171
230 171
231 171
232 171
233 171
234 171
235 171
236 171
237 171
238 170
239 170
240 170
241 170
242 170
243 170
244 170
245 170
246 170
247 169
248 169
249 169
250 169
251 169
252 169
253 169
254 169
255 169
256 169
257 169
258 169
259 169
260 169
261 169
262 169
263 169
264 169
265 169
266 169
267 169
268 169
269 169
270 169
271 169
272 169
273 169
274 168
275 168
276 168
277 168
278 168
279 168
279 167
280 166
281 165
282 166
283 166
284 166
285 165
286 165
287 165
288 164
289 164
290 164
291 163
292 163
293 163
294 162
295 161
296 161
297 161
298 161
299 160
300 160
301 160
302 159
303 158
304 157
304 156
303 155
304 154
303 154
302 153
303 152
302 152
301 151
300 150
299 150
298 149
297 148
296 148
295 147
294 146
293 146
292 145
291 144
290 144
289 143
288 142
287 142
286 141
285 141
284 140
283 139
282 138
281 138
280 137
279 137
278 136
277 135
276 135
275 134
274 134
273 133
272 132
271 131
270 131
269 130
268 130
267 130
266 129
265 128
264 128
263 127
262 126
261 126
260 125
259 125
258 124
257 123
256 123
255 122
254 122
253 121
252 120
251 120
250 119
249 119
248 118
247 118
246 117
245 117
244 116
243 116
242 115
241 115
240 114
239 114
238 113
237 113
236 112
235 112
234 111
233 111
232 110
231 110
230 110
229 109
228 109
227 108
226 108
225 108
224 107
223 107
222 106
221 106
220 106
219 105
218 105
217 104
216 104
215 104
214 103
213 103
212 103
211 102
210 101
211 100
210 100
209 99
210 98
210 97
210 96
210 95
210 94
209 94
208 93
209 92
209 91
209 90
209 89
208 89
207 88
208 87
208 86
208 85
207 85
206 84
207 83
207 82
207 81
206 81
205 80
206 79
206 78
206 77
205 77
204 76
205 75
204 75
203 74
204 73
204 72
203 72
202 71
203 70
203 69
202 69
201 68
202 67
202 66
201 66
200 65
201 64
200 64
199 63
200 62
199 62
198 61
199 60
199 59
198 59
197 58
198 57
197 57
196 56
195 55
196 54
195 54
194 53
195 52
194 52
193 51
192 50
191 49
190 48
189 49
188 50
187 50
187 51
186 52
186 53
185 54
185 55
185 56
184 57
184 58
184 59
183 60
183 61
183 62
183 63
183 64
182 65
182 66
181 67
181 68
181 69
180 70
180 71
180 72
179 73
179 74
179 75
179 76
179 77
178 78
178 79
177 80
176 81
175 82
174 83
173 84
172 85
171 85
170 85
169 86
168 87
167 88
166 88
165 89
165 90
164 91
163 91
162 91
161 91
160 91
159 91
158 91
157 91
156 91
155 91
154 91
153 91
152 91
151 91
150 91
149 91
148 91
147 91
146 91
145 91
144 91
143 91
142 91
141 91
140 91
139 91
138 91
137 91
136 91
135 91
134 91
133 91
132 91
131 91
130 92
129 92
128 92
127 92
126 92
125 92
124 92
123 92
122 92
121 92
120 92
119 93
118 93
117 93
116 93
115 93
114 93
113 93
112 93
111 93
110 93
109 93
108 93
107 94
106 94
105 94
104 94
103 94
102 94
101 94
100 94
99 94
98 94
97 94
96 94
95 94
94 94
93 94
92 94
91 94
90 94
89 93
88 92
89 91
88 91
87 90
86 89
87 88
86 88
85 87
84 86
83 86
82 86
81 86
80 86
79 86
78 86
77 86
76 86
76 87
76 88
76 89
77 90
76 91
75 91
74 91
73 91
72 91
71 90
70 90
69 90
68 90
67 90
66 90
65 89
64 89
63 89
62 88
61 88
60 88
59 89
58 89
57 89
56 89
55 88
54 87
55 86
54 86
53 85
54 84
54 83
53 83
52 82
53 81
52 81
51 80
52 79
52 78
52 77
51 77
50 76
51 75
51 74
51 73
51 72
50 72
49 71
50 70
50 69
50 68
49 68
48 67
49 66
49 65
49 64
48 64
47 63
48 62
48 61
47 61
46 60
47 59
47 58
46 58
45 57
46 56
46 55
46 54
45 54
44 53
45 52
45 51
44 51
43 50
44 49
43 49
42 48
43 47
43 46
42 46
41 45
42 44
41 44
40 43
41 42
40 42
39 41
40 40
39 40
38 39
39 38
38 38
37 37
38 36
37 36
36 35
35 34
36 33
35 33
34 32
35 31
34 31
33 30
32 29
33 28
32 28
31 27
30 26
31 25
30 25
29 24
28 23
27 22
26 21
27 20
26 20
25 19
24 18
25 17
24 17
23 16
22 15
21 14
20 13
21 12
20 12
19 11
18 10
17 9
16 9
15 8
14 7
13 6
