255 2
254 3
254 4
254 5
254 6
254 7
254 8
255 9
255 10
255 11
255 12
256 13
256 14
255 15
254 15
253 16
253 17
253 18
253 19
253 20
253 21
253 22
253 23
253 24
253 25
253 26
253 27
253 28
253 29
253 30
253 31
253 32
253 33
253 34
253 35
253 36
253 37
252 38
252 39
252 40
252 41
252 42
251 43
251 44
251 45
251 46
251 47
251 48
251 49
251 50
251 51
251 52
251 53
251 54
250 55
250 56
249 57
248 58
248 59
247 60
246 61
246 62
245 63
244 64
244 65
244 66
243 67
242 68
241 69
241 70
241 71
242 71
243 72
243 73
244 74
245 75
246 76
247 77
247 78
248 79
248 80
247 81
246 82
245 82
244 82
243 83
242 83
241 83
240 84
239 84
238 84
237 84
236 84
235 85
234 85
233 85
232 85
231 85
230 85
229 85
228 84
229 83
230 82
231 82
232 81
233 81
234 81
235 80
235 79
236 78
236 77
235 77
234 76
235 75
234 75
233 74
232 73
231 72
230 72
229 73
228 73
227 73
226 73
225 74
224 74
223 74
222 74
221 74
220 75
219 75
218 76
217 76
216 77
215 78
214 78
213 79
212 80
211 81
210 81
209 81
208 82
207 83
206 84
205 84
204 85
203 84
202 84
201 84
200 84
199 84
198 83
197 83
196 83
195 83
194 83
193 83
192 83
191 83
190 82
189 82
188 82
187 82
186 82
185 82
184 82
183 81
182 81
181 81
180 81
179 81
178 81
177 81
176 81
175 81
174 81
173 80
172 80
171 80
170 80
169 79
168 79
167 79
166 79
165 79
164 79
163 78
162 78
161 78
160 78
159 78
158 77
159 76
160 76
161 76
162 75
163 75
164 75
165 74
165 73
166 72
166 71
165 70
166 69
166 68
165 68
164 67
163 66
162 65
161 64
160 63
159 63
158 63
157 63
156 63
155 63
154 63
153 64
152 64
151 64
150 65
149 65
148 65
147 66
146 67
145 67
144 68
143 68
142 68
141 68
140 69
139 70
138 71
137 71
136 71
136 72
135 73
134 73
133 73
132 73
131 73
130 72
129 72
128 72
127 72
126 72
125 71
124 71
123 71
122 71
121 71
120 71
119 71
118 71
117 71
116 71
115 71
114 71
113 71
112 71
111 70
110 70
109 70
108 70
107 70
106 69
105 69
104 69
103 69
102 69
101 69
100 69
99 69
98 69
97 68
96 68
95 68
94 68
93 68
92 68
91 68
90 68
89 68
88 68
87 68
86 68
85 68
84 68
83 68
82 68
81 68
80 68
79 68
78 68
77 68
76 68
75 68
74 68
73 68
72 68
71 67
70 68
69 68
68 68
67 68
66 68
65 68
64 68
63 68
62 68
61 68
60 68
59 68
58 68
57 68
56 68
55 68
54 68
53 68
52 68
51 68
50 68
49 68
48 68
47 68
46 68
45 68
44 68
43 68
42 68
41 68
40 68
39 68
38 68
37 69
36 69
35 68
34 68
33 68
32 68
31 68
30 68
29 69
28 69
27 69
26 69
25 70
24 70
23 70
22 71
21 71
20 71
19 71
18 71
17 71
16 71
15 71
14 71
13 71
12 71
11 71
10 71
9 71
8 72
7 72
6 72
5 72
4 72
3 73
2 74
2 75
2 76
3 77
3 78
4 79
5 80
6 80
7 81
8 81
9 81
10 81
11 81
12 82
13 82
14 83
15 84
16 84
17 85
18 85
19 86
20 87
21 88
22 88
23 88
24 89
25 89
26 90
27 90
28 90
29 91
30 92
31 93
32 93
33 94
34 94
35 95
36 95
37 95
38 95
39 95
40 95
41 95
42 96
43 96
44 96
45 97
46 97
47 98
48 98
49 98
50 99
51 99
52 100
53 100
54 101
55 101
56 101
57 101
58 102
59 102
60 102
61 103
62 103
63 103
64 104
65 105
66 105
67 106
67 107
67 108
67 109
67 110
67 111
67 112
67 113
67 114
67 115
67 116
67 117
67 118
68 119
68 120
68 121
69 122
70 123
71 122
72 122
73 122
74 121
75 121
76 120
77 119
78 118
79 119
80 120
80 121
81 122
82 123
82 124
83 125
84 126
85 127
86 128
86 129
87 130
88 130
89 131
90 131
91 131
92 131
93 130
94 129
95 128
96 127
96 126
97 125
98 124
99 123
99 122
100 121
100 120
100 119
100 118
101 117
101 116
102 115
102 114
102 113
102 112
103 111
104 111
105 111
106 111
107 112
108 112
109 112
110 112
111 113
111 114
111 115
111 116
111 117
111 118
111 119
111 120
111 121
112 121
113 121
114 121
115 121
116 120
117 119
118 120
119 121
120 122
121 123
122 122
123 121
124 121
124 120
125 119
126 120
127 120
128 120
129 120
130 119
131 119
132 119
133 118
134 118
135 118
136 118
137 118
138 118
139 118
140 117
141 117
142 117
142 116
142 115
143 114
144 114
145 114
146 114
147 114
148 114
149 114
150 114
151 114
152 114
153 114
154 114
155 114
156 114
157 114
158 113
159 113
160 113
161 113
162 113
163 113
164 112
165 112
166 112
167 112
168 112
169 112
170 112
171 112
172 112
173 112
174 112
175 111
176 111
177 111
178 112
179 112
180 113
181 114
182 115
183 116
184 116
185 117
186 118
187 119
188 120
189 121
190 121
191 121
192 121
193 122
194 123
195 124
196 124
197 124
198 125
199 125
200 125
201 126
202 125
203 124
204 124
205 123
206 122
206 121
207 120
208 121
209 120
210 120
211 119
211 118
212 117
213 118
214 117
215 117
216 116
217 115
218 114
219 114
220 114
221 114
222 113
222 112
223 111
224 111
225 111
226 111
227 111
228 111
228 110
229 109
230 108
231 108
232 108
233 108
234 108
235 107
236 107
237 107
238 106
239 106
240 106
241 105
242 105
243 105
244 104
245 103
246 103
247 103
248 102
249 102
250 101
250 100
249 100
248 100
247 100
246 100
245 100
244 100
243 100
242 100
241 100
240 99
241 98
242 98
243 97
244 97
245 97
246 97
247 97
248 97
249 97
250 96
251 96
252 95
253 94
253 93
254 92
254 91
255 90
255 89
256 88
257 87
258 86
259 85
259 84
260 83
261 82
262 81
262 80
263 79
263 78
264 77
264 76
265 75
265 74
266 73
266 72
267 71
267 70
268 69
269 68
269 67
270 66
270 65
270 64
271 63
271 62
271 61
271 60
272 59
272 58
272 57
272 56
272 55
272 54
272 53
272 52
273 51
272 51
271 50
272 49
272 48
272 47
272 46
272 45
271 45
270 44
271 43
271 42
271 41
271 40
271 39
271 38
271 37
270 37
269 36
270 35
270 34
269 34
268 33
269 32
269 31
269 30
268 30
267 29
268 28
268 27
267 27
266 26
267 25
267 24
267 23
266 23
265 22
266 21
265 21
264 20
265 19
265 18
265 17
264 17
263 16
264 15
264 14
264 13
264 12
264 11
264 10
264 9
264 8
264 7
264 6
263 6
262 5
261 4
260 3
259 2
258 2
257 2
256 2
