279 2
279 3
279 4
279 5
278 6
278 7
278 8
278 9
277 10
277 11
277 12
276 13
276 14
276 15
276 16
275 17
275 18
275 19
275 20
275 21
274 22
274 23
274 24
273 25
273 26
273 27
273 28
273 29
272 30
272 31
272 32
272 33
272 34
272 35
272 36
272 37
272 38
272 39
272 40
272 41
273 42
273 43
273 44
274 45
275 46
276 47
277 47
278 48
279 49
279 50
279 51
279 52
279 53
279 54
279 55
279 56
279 57
279 58
278 59
278 60
278 61
278 62
278 63
277 64
277 65
277 66
277 67
277 68
277 69
276 70
276 71
275 72
274 73
273 73
272 74
271 73
270 73
269 73
268 73
267 73
266 73
265 73
264 73
263 74
262 74
261 74
260 74
259 74
258 75
257 75
256 76
255 76
254 77
253 77
252 77
251 77
250 78
249 79
248 79
248 80
249 81
250 82
251 83
251 84
252 84
253 85
254 86
255 87
256 87
257 88
258 89
259 90
260 90
261 91
262 92
263 92
264 93
265 93
266 94
267 94
268 95
269 95
270 96
271 96
272 96
273 97
274 97
275 97
276 97
277 97
278 98
279 98
280 98
281 98
282 98
283 98
284 98
285 98
286 99
287 99
288 99
289 99
290 99
291 100
292 100
293 100
294 100
295 101
296 101
297 102
297 103
297 104
297 105
297 106
297 107
297 108
296 109
296 110
295 111
294 111
293 112
292 111
291 111
290 112
289 112
288 112
287 112
286 112
285 112
284 112
283 112
282 112
281 112
280 112
279 113
278 113
277 113
276 113
275 114
274 115
273 115
272 116
271 117
270 118
269 119
268 120
267 121
267 122
266 123
265 124
264 125
263 126
262 126
261 126
260 126
259 126
258 126
257 125
256 125
255 125
254 125
253 125
252 125
251 125
250 125
249 125
248 125
247 125
246 125
245 125
244 125
243 125
242 125
241 124
240 124
239 124
238 124
237 124
236 124
235 124
234 123
233 122
234 121
234 120
233 120
232 119
231 118
232 117
231 117
230 116
229 115
230 114
230 113
229 113
228 112
227 111
228 110
227 110
226 109
225 108
224 107
223 106
222 105
221 104
220 104
219 103
218 103
217 102
216 102
215 101
214 101
213 100
212 100
211 100
210 99
209 99
208 99
207 99
206 99
205 99
204 99
203 99
202 100
201 100
200 100
199 100
198 101
197 102
196 102
195 103
194 104
193 104
192 105
191 106
190 107
189 108
188 109
187 110
186 110
186 111
185 112
184 112
183 113
182 113
181 114
180 115
179 116
178 116
177 117
176 117
175 117
174 118
173 118
172 118
171 118
170 118
169 118
168 118
167 118
166 118
165 118
164 118
163 118
162 118
161 118
160 118
159 118
158 118
157 117
156 117
155 117
154 117
153 117
152 117
151 117
150 117
149 117
148 117
147 117
146 117
145 117
144 117
143 117
142 117
141 117
140 117
139 117
138 117
137 117
136 117
135 117
134 117
133 117
132 117
131 117
130 117
129 117
128 117
127 117
126 117
125 117
124 117
123 117
122 117
121 117
120 117
119 117
118 117
117 117
116 117
115 118
114 118
113 118
112 118
111 118
110 118
109 118
108 118
107 118
106 118
105 118
104 119
103 119
102 119
101 119
100 119
99 119
98 119
97 119
96 120
95 120
94 120
93 120
92 120
91 120
90 120
89 120
88 120
87 121
86 121
85 121
84 121
83 121
82 121
81 122
80 122
79 122
78 122
77 123
76 123
75 123
74 123
73 123
72 123
71 124
70 124
69 124
68 124
67 125
66 125
65 125
64 125
63 125
62 126
61 126
60 126
59 126
58 126
57 127
56 127
55 127
54 128
53 128
52 128
51 128
50 129
49 129
48 129
47 129
46 130
45 130
44 130
43 130
42 130
41 131
40 131
39 131
38 132
37 132
36 132
35 132
34 133
33 133
32 133
31 133
30 133
29 133
28 134
27 134
26 134
25 135
24 135
23 135
22 136
21 136
20 137
19 137
18 137
17 137
16 138
15 138
14 138
13 139
12 139
11 139
10 140
9 140
8 140
7 141
6 142
5 142
4 143
3 144
2 145
2 146
2 147
2 148
2 149
2 150
3 151
4 151
5 152
6 152
7 153
8 153
9 153
10 154
11 154
12 155
13 155
14 156
15 156
16 156
17 157
18 158
19 159
20 159
21 160
22 160
23 161
24 162
25 162
26 163
27 163
28 163
29 164
30 164
31 165
32 165
33 165
34 165
35 165
36 166
36 167
37 167
38 168
39 168
40 168
41 169
42 169
43 169
44 170
45 170
46 170
47 170
48 170
49 171
50 171
51 171
52 171
53 171
54 171
55 172
56 172
57 172
58 173
59 173
60 173
61 174
62 174
63 174
64 175
65 175
66 175
67 176
68 176
69 176
70 177
71 177
72 177
73 178
74 178
75 178
76 178
77 178
78 178
79 179
80 179
81 179
82 179
83 179
84 179
85 179
86 180
87 180
88 180
89 180
90 180
91 180
92 181
93 181
94 181
95 181
96 182
95 183
95 184
95 185
95 186
94 187
94 188
94 189
94 190
94 191
94 192
94 193
95 194
95 195
96 196
97 196
98 196
99 195
100 195
101 194
102 193
103 193
104 192
105 191
106 191
107 190
108 189
109 188
110 188
111 187
112 186
113 185
114 184
115 185
115 186
116 187
117 188
117 189
118 190
119 191
119 192
120 193
121 194
121 195
122 196
123 197
123 198
124 199
125 200
126 201
126 202
127 203
128 204
129 205
129 206
130 206
131 207
132 208
133 209
134 209
135 209
136 210
137 210
138 210
139 209
140 208
141 208
141 207
142 206
142 205
142 204
142 203
143 202
143 201
143 200
143 199
143 198
144 197
144 196
144 195
144 194
144 193
144 192
144 191
144 190
144 189
145 188
145 187
145 186
145 185
145 184
144 184
143 183
144 182
145 182
146 182
147 182
148 182
149 182
150 182
151 182
152 182
153 182
154 182
155 182
156 182
157 182
158 182
159 182
160 182
161 182
162 182
163 182
164 182
165 182
166 182
167 182
168 182
169 182
170 182
171 182
172 182
173 182
174 182
175 182
176 182
177 182
178 182
179 181
180 181
181 181
182 181
183 181
184 181
185 181
186 181
187 180
188 180
189 180
190 180
191 180
192 179
193 180
194 179
195 179
196 179
197 179
198 179
199 179
200 179
201 179
202 179
203 178
204 178
205 178
206 178
207 178
208 178
209 177
210 177
211 177
212 177
213 176
214 176
215 176
216 176
217 176
218 175
219 175
220 175
221 175
222 174
223 174
224 174
225 174
226 173
227 173
228 173
229 173
230 173
231 173
232 172
233 172
234 172
235 171
236 171
237 171
238 171
239 170
240 170
241 170
242 170
243 170
244 169
245 169
246 169
247 168
248 168
249 168
250 168
251 168
252 169
253 170
254 170
255 170
256 171
257 171
258 171
259 172
260 172
261 173
262 173
263 173
264 173
265 173
266 173
267 173
268 173
269 172
270 172
271 171
272 171
273 171
274 170
275 170
276 169
277 169
278 168
279 167
280 166
281 166
282 165
283 165
284 164
285 164
286 163
287 163
288 162
288 161
289 160
288 160
287 160
286 160
285 160
284 160
283 159
282 159
281 159
280 159
279 159
278 159
277 158
276 158
275 158
274 158
273 158
272 157
273 156
274 156
275 155
276 154
277 154
278 153
279 153
280 152
281 151
282 151
283 150
284 150
285 149
286 148
287 147
288 146
289 146
290 145
291 144
292 143
293 142
294 141
295 140
296 139
297 138
297 137
298 136
298 135
299 134
300 133
301 132
301 131
302 130
302 129
303 128
303 127
303 126
304 125
304 124
305 123
305 122
306 121
306 120
306 119
307 118
307 117
307 116
308 115
308 114
308 113
308 112
308 111
309 110
309 109
309 108
309 107
309 106
309 105
309 104
309 103
309 102
309 101
310 100
310 99
310 98
310 97
310 96
310 95
310 94
310 93
310 92
310 91
310 90
310 89
310 88
310 87
310 86
310 85
310 84
310 83
310 82
310 81
310 80
310 79
310 78
310 77
309 77
308 76
309 75
309 74
309 73
309 72
309 71
309 70
309 69
308 69
307 68
308 67
308 66
308 65
308 64
308 63
307 63
306 62
307 61
307 60
307 59
307 58
306 58
305 57
306 56
306 55
306 54
306 53
305 53
304 52
305 51
305 50
305 49
304 49
303 48
304 47
303 47
302 46
303 45
303 44
303 43
302 43
301 42
302 41
302 40
301 40
300 39
301 38
301 37
300 37
299 36
300 35
299 35
298 34
299 33
298 33
297 32
298 31
297 31
296 30
297 29
296 29
295 28
296 27
295 27
294 26
295 25
295 24
294 24
293 23
294 22
293 22
292 21
293 20
292 20
291 19
290 18
291 17
290 17
289 16
290 15
289 15
288 14
289 13
288 13
287 12
286 11
287 10
286 10
285 9
284 8
285 7
284 7
283 6
282 5
281 4
280 3
281 2
280 2
