243 4
243 5
242 6
241 7
240 6
239 6
239 7
238 8
237 7
237 8
236 9
235 8
234 8
234 9
233 10
232 9
231 9
230 9
229 9
228 9
228 10
227 11
226 10
225 10
224 10
223 10
223 11
222 12
221 11
220 11
219 11
218 11
217 11
216 11
215 11
214 11
213 11
212 11
211 11
210 11
209 11
208 11
208 12
207 13
206 12
205 12
204 12
203 12
202 12
202 13
201 14
200 13
199 13
198 13
198 14
197 15
196 14
195 14
195 15
194 16
193 15
192 15
192 16
191 17
190 16
189 16
188 16
188 17
187 18
186 17
185 17
184 17
184 18
183 19
182 20
181 19
180 19
180 20
179 21
178 20
178 21
177 22
176 23
175 22
175 23
174 24
173 25
172 26
171 27
170 26
170 27
169 28
168 29
167 30
166 31
165 32
164 31
164 32
163 33
162 34
161 35
161 36
160 37
159 36
159 37
158 38
157 39
156 40
155 41
155 42
154 43
153 44
152 45
151 46
150 47
150 48
149 49
148 50
147 51
147 52
146 53
145 54
145 55
144 56
143 57
142 58
141 59
140 60
140 61
139 62
138 63
138 64
137 65
136 66
135 67
134 68
134 69
133 70
132 69
132 68
131 68
130 68
129 68
128 68
127 68
126 67
125 67
125 68
124 69
123 70
122 69
121 69
120 69
119 70
118 70
117 71
116 70
116 71
115 72
114 73
113 74
112 73
112 72
112 71
112 70
112 69
111 68
111 67
111 66
110 65
109 64
109 63
108 63
107 62
107 63
107 64
106 65
106 66
105 67
105 68
105 69
105 70
104 71
104 72
104 73
104 74
104 75
104 76
103 77
103 78
103 79
103 80
102 81
101 80
100 79
100 78
99 77
99 76
98 75
97 74
97 73
96 72
95 71
94 70
93 70
92 69
91 68
90 67
89 66
88 66
87 65
86 65
85 65
84 64
83 64
82 64
81 63
80 63
79 63
78 63
77 62
76 62
75 62
74 62
73 62
72 62
71 62
70 61
69 61
68 61
67 61
66 61
65 61
64 61
63 61
62 61
61 61
60 61
59 61
58 61
57 61
57 62
56 63
55 62
54 62
53 62
52 62
51 62
50 62
49 62
48 62
48 63
47 64
46 63
45 63
44 63
44 64
43 65
42 64
41 64
41 65
40 66
39 65
39 66
38 67
37 66
37 67
36 68
35 67
35 68
34 69
33 68
32 68
32 69
31 70
30 69
29 69
28 69
27 69
26 69
25 69
24 69
23 69
22 69
21 69
20 69
19 69
18 69
17 69
17 70
16 71
15 70
14 70
13 70
12 70
11 70
10 70
10 71
9 72
8 73
7 72
6 72
5 72
5 73
4 74
3 75
2 76
2 77
2 78
2 79
2 80
2 81
2 82
2 83
2 84
2 85
2 86
2 87
2 88
2 89
2 90
3 91
3 92
3 93
3 94
3 95
4 96
4 97
4 98
4 99
4 100
4 101
5 102
5 103
5 104
5 105
6 106
6 107
6 108
7 109
7 110
7 111
7 112
8 113
8 114
8 115
9 116
9 117
10 118
10 119
10 120
10 121
11 122
11 123
12 124
12 125
12 126
13 127
13 128
13 129
14 130
14 131
14 132
14 133
15 134
15 135
15 136
15 137
16 138
16 139
16 140
17 141
17 142
17 143
17 144
17 145
17 146
18 147
18 148
18 149
18 150
18 151
18 152
18 153
18 154
18 155
18 156
18 157
18 158
19 159
19 160
19 161
19 162
19 163
19 164
19 165
19 166
20 167
20 168
20 169
20 170
21 171
21 172
21 173
21 174
21 175
22 176
22 177
22 178
23 179
23 180
23 181
23 182
23 183
23 184
23 185
24 186
24 187
24 188
24 189
24 190
24 191
24 192
24 193
24 194
24 195
24 196
23 197
23 198
23 199
23 200
23 201
22 202
22 203
22 204
21 205
21 206
21 207
21 208
21 209
21 210
21 211
21 212
22 212
23 212
24 212
25 212
26 212
27 211
28 211
29 211
30 210
31 209
32 209
33 208
34 208
35 207
36 207
37 206
38 206
39 205
40 205
41 205
42 204
43 204
44 204
45 204
46 204
47 204
48 204
49 204
50 204
51 204
52 204
53 204
54 204
55 204
56 204
57 205
58 205
59 205
60 205
61 205
62 205
63 206
64 206
65 206
66 206
67 206
68 206
69 207
70 207
71 207
72 207
73 207
74 207
75 207
76 207
77 207
78 207
79 207
80 207
81 207
82 207
83 207
84 207
85 207
86 207
87 207
88 207
89 207
90 207
91 207
92 207
93 207
94 207
95 207
96 207
97 207
98 206
99 206
100 206
101 206
102 206
103 206
104 206
105 206
106 205
107 205
108 205
109 205
110 205
111 205
112 205
113 205
114 205
115 205
116 205
117 206
118 206
119 206
120 206
121 207
122 207
123 207
124 207
125 207
126 207
127 208
128 208
129 208
130 208
131 208
132 208
133 208
134 208
135 208
136 208
137 208
138 208
139 208
140 208
141 208
142 208
143 208
144 208
145 208
146 208
147 208
148 208
149 208
150 208
151 208
152 208
153 208
154 207
155 207
156 207
157 207
158 207
159 206
160 206
161 206
161 205
162 204
162 203
162 202
162 201
162 200
162 199
162 198
162 197
161 196
161 195
161 194
161 193
161 192
161 191
161 190
161 189
161 188
161 187
161 186
161 185
161 184
161 183
161 182
161 181
161 180
161 179
161 178
161 177
161 176
161 175
161 174
161 173
161 172
161 171
162 170
162 169
162 168
162 167
162 166
162 165
162 164
162 163
162 162
162 161
162 160
162 159
162 158
162 157
162 156
162 155
162 154
162 153
162 152
162 151
162 150
162 149
162 148
161 147
161 146
161 145
161 144
161 143
160 142
160 141
160 140
160 139
160 138
159 137
159 136
159 135
158 134
158 133
158 132
157 131
157 130
157 129
156 128
156 127
155 126
155 125
154 124
154 123
153 122
153 121
152 120
152 119
151 118
151 117
150 116
149 115
148 114
148 113
147 113
146 112
145 111
144 111
143 110
144 109
145 109
146 108
147 108
148 107
149 106
150 106
151 105
152 105
153 104
154 103
155 102
156 101
157 100
158 99
157 99
156 98
155 98
154 98
153 97
152 97
151 97
150 96
149 96
149 97
148 98
147 97
147 96
146 95
146 94
147 93
147 92
147 91
146 90
146 89
146 88
146 87
146 86
146 85
146 84
146 83
145 83
144 82
144 81
145 80
146 79
146 78
147 77
147 76
148 75
148 74
149 73
150 72
150 71
151 70
152 69
152 68
153 67
153 66
154 65
155 64
155 63
156 62
156 61
157 60
157 59
158 58
159 57
159 56
160 55
160 54
161 53
162 52
162 51
163 50
164 49
164 48
165 47
165 46
166 45
167 44
168 43
169 42
170 41
171 40
171 39
172 38
173 37
174 37
175 36
176 35
177 34
178 33
179 32
180 32
181 31
182 30
183 30
184 29
185 29
186 28
187 27
188 27
189 26
190 25
191 25
192 24
193 23
194 23
195 22
196 22
197 22
198 21
199 21
200 20
201 20
202 19
203 19
204 19
205 20
206 20
207 21
208 21
209 22
210 22
211 22
212 22
213 22
214 22
215 22
216 22
217 22
218 22
219 22
220 22
221 22
221 21
221 20
221 19
220 18
219 17
219 16
220 15
221 15
222 15
223 15
224 16
225 16
226 16
227 16
228 17
229 17
230 17
231 17
232 18
233 18
234 18
235 18
236 18
237 18
238 18
239 17
240 17
241 16
241 15
242 14
241 13
241 12
240 12
239 11
239 10
240 9
241 9
242 9
243 8
244 8
245 7
246 6
246 5
245 5
244 4
