60 2
59 3
58 3
57 3
56 3
55 4
54 4
53 4
52 5
51 5
50 5
49 5
48 5
47 6
46 6
45 6
44 7
43 7
42 8
41 9
40 9
39 10
38 11
37 12
36 12
35 12
34 13
34 14
33 15
32 15
32 16
31 17
30 18
29 19
28 19
28 20
27 21
26 22
25 23
25 24
24 25
23 25
23 26
22 27
22 28
21 29
20 30
20 31
19 32
19 33
18 34
17 35
17 36
16 37
16 38
15 39
15 40
15 41
15 42
14 43
14 44
13 45
13 46
12 47
12 48
11 49
11 50
10 51
10 52
9 53
9 54
9 55
8 56
8 57
8 58
7 59
6 60
6 61
5 62
5 63
5 64
5 65
5 66
4 67
4 68
4 69
4 70
4 71
3 72
3 73
3 74
3 75
2 76
2 77
2 78
2 79
2 80
2 81
2 82
2 83
2 84
2 85
2 86
2 87
3 88
3 89
3 90
3 91
3 92
3 93
3 94
3 95
3 96
4 97
4 98
4 99
5 100
4 101
4 102
5 103
5 104
5 105
5 106
5 107
5 108
5 109
6 110
6 111
6 112
6 113
6 114
7 115
7 116
7 117
7 118
7 119
8 120
8 121
8 122
8 123
8 124
8 125
9 126
9 127
9 128
9 129
10 130
10 131
11 132
11 133
11 134
12 135
12 136
13 137
13 138
14 139
14 140
15 141
16 142
17 143
18 144
19 144
20 145
20 146
21 147
22 148
23 148
24 149
25 149
26 150
27 151
28 151
29 151
30 152
31 152
32 153
33 153
34 154
35 154
36 155
37 155
38 156
39 156
40 157
41 157
42 157
43 157
44 158
45 158
46 158
47 158
48 158
49 158
50 158
51 158
52 159
53 159
54 159
55 160
56 160
57 160
58 160
59 160
60 160
61 160
62 160
63 160
64 160
65 160
66 160
67 160
68 160
69 160
70 160
71 160
72 160
73 160
74 160
75 160
76 160
77 160
78 159
79 159
80 159
81 159
82 159
83 158
84 158
85 158
86 158
87 158
88 157
89 157
90 157
91 156
92 156
93 156
94 155
95 155
96 155
97 154
98 154
99 153
100 153
101 152
102 152
103 152
104 151
105 151
106 151
106 150
107 149
108 149
109 148
110 148
111 147
112 147
113 146
114 146
115 145
116 144
117 144
118 144
119 143
120 142
121 141
122 141
123 141
124 140
125 139
126 138
127 138
128 137
129 136
129 135
130 134
130 133
131 132
131 131
132 130
132 129
133 128
133 127
134 126
135 125
136 125
137 126
138 127
139 128
140 128
141 129
142 130
143 131
144 132
145 133
146 134
147 135
148 136
149 137
150 138
151 138
152 138
153 138
154 139
155 140
156 140
157 140
158 141
159 141
160 141
161 141
162 141
163 141
164 141
165 141
166 141
167 140
168 140
169 140
170 139
171 139
172 138
173 138
174 138
175 138
176 138
176 137
177 136
178 135
179 135
180 134
180 133
181 132
182 131
182 130
183 129
184 128
184 127
185 126
185 125
185 124
184 124
183 123
184 122
183 122
182 121
183 120
183 119
184 118
185 117
186 117
187 117
188 117
189 117
190 117
191 117
192 118
193 118
194 117
195 118
196 118
197 118
198 118
199 118
200 118
201 119
202 119
203 119
204 119
205 119
206 120
207 120
208 121
209 121
210 121
211 122
212 122
213 123
214 123
215 124
216 125
217 125
218 125
219 125
220 126
220 127
221 127
222 128
223 129
224 129
225 130
226 131
227 131
228 132
229 133
229 134
230 135
231 136
231 137
232 138
233 139
234 140
234 141
235 142
236 143
236 144
236 145
236 146
235 147
235 148
234 149
234 150
233 151
233 152
233 153
233 154
232 155
232 156
232 157
231 158
231 159
231 160
231 161
231 162
230 163
230 164
230 165
230 166
230 167
230 168
230 169
229 170
229 171
230 172
230 173
230 174
230 175
230 176
231 176
232 176
233 176
234 177
235 176
236 176
237 176
238 176
239 176
240 176
241 176
242 176
243 176
244 176
245 176
246 176
247 176
248 176
249 176
250 176
251 176
252 176
253 176
254 176
255 176
256 177
257 176
258 177
259 177
260 177
261 177
262 177
262 176
263 175
263 174
263 173
263 172
263 171
263 170
263 169
263 168
263 167
263 166
262 166
261 165
262 164
262 163
262 162
262 161
262 160
262 159
261 159
260 158
261 157
261 156
261 155
260 155
259 154
260 153
260 152
259 152
258 151
257 150
258 149
257 149
256 148
255 147
256 146
255 146
254 145
255 144
254 144
253 144
252 143
251 142
252 141
251 141
250 140
249 139
248 138
247 137
248 136
247 136
246 136
245 135
246 134
245 134
244 133
245 132
245 131
244 131
243 130
242 129
243 128
242 128
241 127
242 126
243 125
244 125
245 125
246 125
247 124
248 123
248 122
249 121
250 120
250 119
251 118
251 117
252 116
252 115
253 114
253 113
253 112
253 111
253 110
253 109
252 109
251 108
250 107
249 107
248 106
247 106
246 106
245 106
244 106
243 106
242 106
241 106
240 105
239 105
238 106
237 106
236 106
235 106
234 107
233 108
232 108
231 108
230 108
229 107
228 106
227 106
226 105
225 104
224 103
223 102
222 101
221 100
220 99
221 98
220 98
219 98
218 97
217 96
218 95
218 94
219 93
219 92
220 91
221 91
221 90
222 89
222 88
223 87
223 86
224 85
224 84
224 83
224 82
224 81
224 80
224 79
224 78
223 78
222 77
223 76
223 75
222 75
221 74
222 73
221 73
220 72
219 71
218 71
217 70
216 70
215 70
214 70
213 71
212 71
211 72
210 72
209 72
208 72
207 73
206 74
205 75
204 75
203 76
202 77
201 78
200 78
199 79
198 80
197 81
196 81
195 81
194 81
193 80
192 79
193 78
194 78
195 78
196 77
197 76
198 76
198 75
199 74
199 73
198 72
197 72
196 72
195 71
196 70
195 70
194 69
193 69
192 68
191 67
190 66
189 66
188 65
187 64
186 63
185 62
184 62
183 61
182 60
183 59
182 59
181 59
180 59
179 58
178 57
177 57
176 56
175 56
174 56
173 55
172 55
171 54
170 54
169 54
168 54
167 54
166 54
165 54
164 55
163 55
162 55
161 55
160 56
159 56
158 56
157 57
156 58
155 58
154 58
153 59
152 59
151 59
150 59
149 60
148 60
147 61
146 62
145 62
144 61
145 60
145 59
145 58
145 57
146 56
146 55
146 54
146 53
146 52
146 51
145 51
144 50
145 49
145 48
145 47
145 46
145 45
144 45
143 44
142 43
143 42
142 42
141 41
142 40
142 39
141 39
140 38
139 38
138 37
139 36
138 36
137 35
136 34
135 33
136 32
135 32
134 32
133 31
134 30
133 30
132 29
131 28
130 27
129 26
128 25
127 25
126 24
125 24
124 23
125 22
124 22
123 22
122 22
121 21
120 21
119 20
118 20
117 19
116 18
115 18
114 17
113 16
112 15
111 15
110 14
109 13
108 12
107 12
106 12
105 12
104 11
103 10
102 9
101 9
100 9
99 9
98 9
97 8
96 7
97 6
96 6
95 6
94 6
93 6
92 6
91 6
90 6
89 5
88 5
87 4
86 4
85 4
84 3
83 3
82 3
81 3
80 3
79 2
78 2
77 2
76 2
75 2
74 2
73 2
72 2
71 2
70 2
69 2
68 2
67 2
66 2
65 2
64 2
63 2
62 2
61 2
