312 1
311 2
310 2
309 2
308 2
307 2
306 3
305 3
304 3
303 3
302 3
301 4
300 4
299 5
298 5
297 6
296 6
295 7
294 7
293 8
292 8
291 8
290 9
289 9
288 10
287 10
286 11
285 12
284 12
283 13
282 13
281 14
280 14
279 15
278 16
277 17
276 17
275 18
274 19
273 19
272 20
271 21
270 22
269 22
268 23
267 24
266 25
265 26
264 27
263 28
262 29
261 30
260 31
260 32
259 33
258 33
257 34
256 35
255 36
254 36
253 37
252 38
251 39
250 39
249 40
248 40
247 41
246 41
245 41
244 41
243 42
242 42
241 42
240 42
239 42
238 43
237 43
236 42
236 41
235 40
234 40
233 39
232 38
231 37
230 36
229 36
228 35
227 34
226 34
225 33
224 33
223 32
224 31
223 31
222 30
223 29
223 28
223 27
223 26
222 26
221 25
220 24
221 23
220 23
219 22
218 21
217 20
216 19
215 20
214 21
213 21
212 22
211 23
210 24
209 25
208 26
207 27
207 28
206 29
205 30
205 31
204 32
203 33
202 34
201 35
201 36
200 37
199 38
199 39
198 40
197 41
196 42
195 42
194 41
193 41
192 41
191 40
190 40
189 41
188 41
187 42
186 42
185 42
184 42
183 42
182 42
181 41
180 41
179 42
178 42
177 43
176 43
175 44
174 44
173 44
172 44
171 43
170 43
169 43
168 43
167 43
166 44
165 45
164 46
163 46
162 46
161 46
160 45
159 45
158 45
157 46
156 46
155 47
154 47
153 48
152 48
151 48
150 48
149 48
148 48
147 48
146 48
145 48
144 49
143 49
142 50
142 51
141 52
140 52
139 51
138 51
137 51
136 50
135 50
134 51
133 51
132 52
131 52
130 53
129 54
128 55
127 55
126 55
125 55
124 54
123 54
122 54
121 54
120 55
119 56
118 57
117 58
116 58
115 58
114 58
113 58
112 58
111 57
110 58
109 59
108 59
107 60
106 61
105 62
104 62
103 62
102 61
101 61
100 61
99 61
98 62
97 63
96 64
95 65
94 66
93 66
92 66
91 66
90 66
89 66
88 65
87 66
86 66
85 67
84 68
83 69
82 69
81 68
80 68
79 68
78 69
77 69
76 70
75 71
74 72
73 73
72 72
71 72
70 72
69 72
68 72
67 72
66 72
66 73
65 74
64 75
63 76
62 77
61 77
60 77
59 77
58 77
57 78
56 79
56 80
55 81
54 82
53 82
52 82
51 82
50 82
49 83
49 84
48 85
47 86
46 87
45 87
44 88
43 89
42 89
41 90
40 91
39 92
38 93
37 94
36 95
35 96
34 97
34 98
33 99
32 100
31 100
31 101
30 102
29 103
28 104
27 105
27 106
26 107
26 108
25 109
24 110
24 111
23 112
22 113
21 114
20 115
20 116
19 117
18 118
17 119
16 119
15 120
14 121
13 122
12 122
11 123
10 123
9 124
8 124
7 125
6 125
5 125
4 126
3 126
2 127
2 128
2 129
3 130
4 131
5 131
6 132
7 132
8 132
9 132
10 133
11 133
12 133
13 133
14 134
15 135
15 136
16 137
16 138
16 139
17 140
18 140
19 141
20 142
20 141
21 140
21 139
22 138
21 138
20 137
19 136
20 135
21 135
22 135
23 135
24 136
25 137
26 137
27 137
28 137
29 138
30 138
31 138
32 138
33 138
34 138
35 139
36 139
37 139
38 140
39 140
40 140
41 140
42 140
43 140
44 139
45 139
46 139
47 139
48 138
49 138
50 137
51 137
52 136
53 136
54 135
55 135
56 135
57 134
58 134
59 134
60 133
61 133
62 132
63 132
64 132
65 132
66 131
67 131
68 131
69 130
70 130
71 130
72 129
73 129
74 129
75 128
76 128
77 128
78 128
79 127
80 127
81 126
82 126
83 127
84 127
85 127
86 127
87 127
88 127
89 127
90 126
91 125
92 125
93 125
94 125
95 125
96 125
97 125
98 124
99 124
100 123
101 123
102 122
103 122
104 122
105 122
106 122
107 121
108 121
109 121
110 120
111 120
112 120
113 120
114 119
115 119
116 119
117 119
118 118
119 118
120 117
121 117
122 117
123 116
124 116
125 115
126 115
127 115
128 115
129 114
130 114
131 114
132 113
133 113
134 112
135 112
136 112
137 112
138 111
139 111
140 110
141 110
142 109
143 109
144 109
145 108
146 108
147 107
148 107
149 106
150 106
151 105
152 105
153 105
154 104
155 104
156 103
157 103
158 102
159 102
160 102
161 101
162 101
163 100
164 100
165 99
166 99
167 99
168 98
169 98
170 97
171 97
172 96
173 96
174 95
175 95
176 95
177 94
178 94
179 94
180 93
181 93
182 92
183 92
184 92
185 91
186 91
187 90
188 90
189 91
189 92
190 93
190 94
190 95
190 96
190 97
190 98
191 99
191 100
191 101
192 102
193 103
193 104
194 105
195 105
196 105
196 104
197 103
197 102
198 101
199 100
199 99
200 98
200 97
201 96
201 95
202 94
203 94
204 95
205 95
206 95
207 96
208 97
209 97
210 98
211 98
212 99
213 99
214 98
214 97
215 96
215 95
215 94
216 93
216 92
216 91
216 90
216 89
216 88
216 87
215 87
214 86
215 85
215 84
214 84
213 83
214 82
213 82
212 82
211 81
212 80
213 79
214 79
215 78
216 78
217 77
218 76
219 76
220 75
221 75
222 74
223 74
224 74
225 73
226 72
227 72
228 72
229 72
230 72
231 73
232 73
233 74
234 74
235 74
236 74
237 75
238 75
239 75
240 75
241 76
242 76
243 77
244 77
245 77
246 78
247 78
248 78
249 79
250 79
251 79
252 79
252 78
253 77
253 76
253 75
253 74
253 73
253 72
252 72
251 71
252 70
252 69
252 68
251 68
250 67
251 66
250 66
249 65
248 65
247 64
246 64
245 64
244 64
243 63
244 62
245 62
246 61
247 61
248 61
249 60
250 59
251 59
252 58
253 58
254 57
255 57
256 56
257 56
258 55
259 55
260 54
261 53
262 53
263 52
264 52
265 53
266 53
267 53
268 53
269 54
270 54
271 54
272 55
273 55
274 55
275 56
276 56
277 56
278 56
279 56
280 57
281 57
282 57
283 57
284 57
285 58
286 58
287 58
288 58
289 58
290 58
291 58
292 58
293 58
294 58
295 57
296 57
297 57
297 56
298 55
297 55
296 54
297 53
297 52
296 52
295 51
296 50
295 50
294 49
293 48
294 47
293 47
292 46
291 45
290 44
289 43
288 42
287 42
286 41
287 40
287 39
287 38
287 37
288 36
288 35
288 34
289 33
290 32
290 31
291 30
292 29
292 28
293 27
294 26
294 25
295 24
295 23
296 22
297 21
297 20
298 19
299 18
299 17
300 16
301 15
302 14
303 13
304 12
305 11
306 10
307 9
308 8
309 8
310 7
311 6
312 6
313 5
314 5
315 4
315 3
314 2
313 2
