88 2
87 3
86 3
85 3
84 3
83 4
82 4
81 4
80 4
79 5
78 5
77 5
76 6
75 6
74 6
73 7
72 7
71 7
70 8
69 9
68 9
67 9
66 10
65 11
64 11
63 12
62 12
61 13
60 14
59 14
58 15
57 16
56 16
55 17
55 18
54 19
53 19
52 20
51 21
50 22
49 22
48 23
47 24
46 25
45 26
44 27
43 28
42 29
41 30
40 31
39 32
38 33
37 34
36 35
35 36
35 37
34 38
33 39
32 40
32 41
31 42
30 43
30 44
29 45
29 46
28 47
27 48
27 49
27 50
26 51
26 52
25 53
25 54
24 55
24 56
23 57
23 58
23 59
22 60
22 61
21 62
21 63
21 64
21 65
20 66
20 67
19 68
19 69
19 70
18 71
18 72
17 73
16 74
16 75
15 76
15 77
14 78
14 79
13 80
13 81
13 82
12 83
12 84
11 85
11 86
11 87
11 88
10 89
10 90
10 91
10 92
9 93
9 94
8 95
8 96
8 97
8 98
7 99
7 100
7 101
6 102
6 103
6 104
6 105
6 106
5 107
5 108
5 109
5 110
5 111
4 112
4 113
4 114
4 115
4 116
4 117
4 118
4 119
4 120
4 121
4 122
4 123
4 124
4 125
4 126
4 127
4 128
4 129
4 130
4 131
4 132
4 133
4 134
4 135
4 136
4 137
5 138
5 139
5 140
5 141
6 142
6 143
6 144
7 145
7 146
8 147
8 148
8 149
9 150
9 151
10 152
10 153
11 154
12 155
12 156
12 157
13 158
14 159
14 160
15 161
15 162
16 163
17 164
18 165
19 166
20 167
21 168
22 169
23 170
23 171
24 171
25 172
26 173
27 174
28 174
29 175
30 176
31 176
32 177
33 178
34 178
35 179
36 179
37 180
38 181
39 181
40 182
41 183
42 183
43 184
44 184
45 184
46 184
47 185
48 186
49 186
50 186
51 187
52 187
53 188
54 188
55 188
56 189
57 189
58 189
59 189
60 190
61 190
62 190
63 190
64 190
65 191
66 191
67 191
68 191
69 191
70 191
71 191
72 191
73 191
74 191
75 191
76 191
77 191
78 191
79 191
80 191
81 191
82 191
83 191
84 191
85 191
86 191
87 191
88 191
89 191
90 191
91 191
92 191
93 190
94 190
95 190
96 190
97 190
98 189
99 189
100 189
101 189
102 188
103 188
104 188
105 188
106 187
107 187
108 187
109 186
110 186
111 185
112 185
113 184
114 184
115 184
116 183
117 183
118 182
119 182
120 181
121 181
122 181
123 180
124 179
125 179
126 178
127 178
128 177
129 177
130 176
131 175
132 174
133 173
133 172
134 171
134 170
133 169
134 168
135 167
136 168
136 169
137 170
138 171
138 172
139 173
140 174
141 175
141 176
142 177
142 178
143 179
144 180
145 181
146 182
147 183
148 184
149 184
150 185
151 186
152 187
153 187
154 188
155 188
156 189
157 189
158 190
159 190
160 190
161 191
162 191
163 191
164 191
165 191
166 191
167 190
168 190
169 190
170 190
171 189
172 189
173 188
174 188
175 188
176 187
177 186
178 186
178 185
179 184
180 184
181 184
182 183
183 182
184 181
185 180
186 179
187 178
187 177
188 176
188 175
189 174
189 173
190 172
190 171
190 170
191 169
191 168
191 167
191 166
191 165
192 164
193 165
194 165
195 165
196 165
197 165
198 166
199 166
200 166
201 166
202 166
203 167
204 167
205 167
206 167
207 168
208 168
209 168
210 168
211 169
212 169
213 169
214 169
215 170
216 170
217 170
218 171
219 171
220 171
221 172
222 172
223 172
224 172
225 173
226 173
227 173
228 173
229 173
230 174
231 174
232 174
233 174
234 175
235 176
236 177
237 178
238 179
239 179
240 179
241 180
242 181
243 181
244 182
245 183
246 184
247 184
248 185
249 186
250 187
251 187
252 188
253 188
254 189
255 190
256 190
257 191
258 191
259 191
260 192
261 193
262 193
263 193
264 193
265 194
266 194
267 194
268 194
269 194
270 194
271 194
272 193
273 193
274 192
275 191
276 190
276 189
277 188
277 187
277 186
278 185
278 184
278 183
279 182
279 181
279 180
279 179
279 178
280 177
280 176
280 175
280 174
280 173
280 172
280 171
280 170
280 169
280 168
280 167
280 166
280 165
280 164
280 163
279 163
278 162
279 161
279 160
278 160
277 159
278 158
277 158
276 157
277 156
276 156
275 155
276 154
275 154
274 154
273 154
272 154
271 154
270 154
269 155
268 155
267 155
266 156
265 156
264 156
263 157
262 157
261 158
260 158
259 158
258 158
257 159
256 159
255 160
254 160
253 161
252 161
251 161
250 161
249 162
248 162
247 162
246 163
245 163
244 163
243 164
242 164
241 164
240 165
239 165
238 164
237 163
238 162
239 162
239 161
240 160
240 159
241 158
242 157
242 156
243 155
243 154
244 153
244 152
245 151
244 151
243 150
244 149
244 148
244 147
243 147
242 146
241 146
240 146
239 146
238 146
237 147
236 147
235 147
234 148
233 148
232 148
231 148
230 149
229 149
228 150
227 150
226 151
225 151
224 152
223 152
223 153
222 154
221 154
220 154
219 154
218 153
217 152
218 151
219 151
220 150
220 149
221 148
222 148
222 147
223 146
223 145
224 144
224 143
225 142
225 141
225 140
225 139
226 138
226 137
226 136
226 135
225 135
224 134
225 133
225 132
224 132
223 131
224 130
223 130
222 129
223 128
222 128
221 128
220 128
219 128
218 128
217 128
216 128
215 128
214 128
213 128
212 128
211 127
212 126
212 125
212 124
212 123
212 122
213 121
212 121
211 120
212 119
212 118
212 117
212 116
212 115
212 114
212 113
211 113
210 112
209 111
210 110
209 110
208 110
207 109
208 108
208 107
207 107
206 106
207 105
206 105
205 104
204 104
203 103
202 102
201 101
200 100
199 100
198 100
197 99
196 99
195 98
194 97
193 97
192 97
191 96
190 96
189 96
188 96
187 96
186 96
185 95
184 95
183 95
182 96
181 96
180 96
179 96
178 96
177 96
176 97
175 97
174 97
173 98
172 98
171 98
170 97
171 96
172 95
173 94
174 93
174 92
175 91
175 90
175 89
176 88
176 87
176 86
176 85
176 84
176 83
176 82
175 81
175 80
176 79
175 79
174 78
175 77
175 76
175 75
174 75
173 74
174 73
174 72
173 72
172 71
173 70
173 69
173 68
172 68
171 67
170 66
171 65
171 64
170 64
169 63
170 62
169 62
168 61
167 60
166 59
167 58
166 58
165 57
166 56
166 55
165 55
164 54
163 53
164 52
163 52
162 51
163 50
163 49
162 49
161 48
162 47
161 47
160 46
159 45
160 44
159 44
158 43
159 42
158 42
157 41
156 40
157 39
156 39
155 38
154 37
153 36
154 35
153 35
152 34
151 33
150 32
149 31
150 30
149 30
148 29
147 28
148 27
147 27
146 26
145 25
144 24
143 23
144 22
143 22
142 22
141 21
140 20
139 19
138 19
137 18
136 17
135 17
134 16
135 15
134 15
133 15
132 14
131 14
130 13
129 12
128 12
127 12
126 11
125 10
124 9
123 9
122 9
121 8
120 8
119 7
118 7
117 7
116 7
115 6
114 6
113 6
112 5
111 5
110 4
109 4
108 4
107 4
106 3
105 3
104 3
103 2
102 2
101 2
100 2
99 2
98 2
97 2
96 2
95 2
94 2
93 2
92 2
91 2
90 2
89 2
