88 1
87 2
86 2
85 2
84 2
83 2
82 2
81 2
80 2
79 2
78 2
77 2
76 2
75 3
74 3
73 3
72 3
71 3
70 3
69 4
68 4
67 4
66 4
65 5
64 5
63 5
62 6
61 6
60 6
59 6
58 7
57 7
56 7
55 8
54 9
53 9
52 9
51 10
50 10
49 11
48 12
47 12
46 13
45 13
44 14
43 14
42 15
41 15
40 16
39 17
38 17
37 18
36 19
35 20
34 21
33 22
32 22
31 23
31 24
30 25
29 26
28 27
27 28
26 29
25 30
25 31
24 32
23 33
23 34
22 35
22 36
21 37
21 38
20 39
20 40
19 41
18 42
18 43
18 44
17 45
17 46
16 47
16 48
15 49
15 50
15 51
14 52
14 53
14 54
14 55
14 56
14 57
14 58
14 59
14 60
14 61
14 62
14 63
14 64
13 65
13 66
13 67
12 68
12 69
11 70
11 71
11 72
10 73
10 74
10 75
10 76
9 77
9 78
9 79
8 80
8 81
8 82
8 83
8 84
7 85
7 86
7 87
7 88
7 89
6 90
6 91
5 92
4 93
4 94
3 95
2 96
1 97
1 98
1 99
1 100
1 101
1 102
1 103
1 104
1 105
1 106
1 107
1 108
1 109
1 110
1 111
1 112
1 113
1 114
1 115
1 116
1 117
1 118
1 119
1 120
1 121
1 122
1 123
1 124
1 125
1 126
1 127
1 128
1 129
1 130
1 131
1 132
1 133
1 134
1 135
1 136
1 137
1 138
1 139
1 140
1 141
1 142
1 143
1 144
1 145
1 146
1 147
1 148
2 149
2 150
2 151
3 152
3 153
4 154
4 155
5 156
5 157
6 158
6 159
7 160
8 161
9 162
9 163
10 164
10 165
11 166
12 167
13 168
14 169
14 170
15 171
16 172
17 173
18 174
19 175
20 176
21 177
22 178
23 179
24 180
25 181
26 181
27 182
28 183
29 184
30 185
31 186
32 186
33 186
34 187
35 188
36 188
37 189
38 190
39 191
40 191
41 192
42 192
43 193
44 194
45 195
46 195
47 196
48 196
49 197
50 197
51 198
52 198
53 199
54 199
55 199
56 200
57 200
58 201
59 201
60 201
61 201
62 202
63 202
64 203
65 203
66 203
67 203
68 204
69 204
70 205
71 205
72 205
73 205
74 206
75 206
76 206
77 206
78 206
79 206
80 206
81 207
82 207
83 207
84 207
85 207
86 207
87 207
88 207
89 207
90 207
91 208
92 208
93 208
94 208
95 208
96 208
97 208
98 208
99 208
100 208
101 208
102 208
103 208
104 208
105 208
106 208
107 208
108 208
109 208
110 208
111 207
112 208
113 207
114 207
115 207
116 207
117 207
118 206
119 206
120 206
121 205
122 205
123 204
124 203
125 202
126 201
127 201
128 201
129 201
130 200
131 200
132 200
133 199
134 198
135 198
136 197
137 196
138 195
139 194
139 193
140 192
141 191
141 190
142 189
142 188
143 187
143 186
144 185
144 184
145 183
145 182
145 181
145 180
146 179
146 178
146 177
146 176
146 175
146 174
146 173
146 172
146 171
146 170
147 169
148 170
148 171
149 172
150 172
151 173
152 174
153 174
154 175
155 175
156 176
157 176
158 176
159 176
160 177
161 177
162 177
163 177
164 177
165 177
166 177
167 177
168 177
169 177
170 177
171 177
172 176
173 176
174 176
175 176
176 176
177 176
178 175
179 175
180 175
181 175
182 174
183 174
184 173
185 172
185 171
186 170
186 169
186 168
187 167
187 166
187 165
187 164
187 163
186 163
185 162
186 161
185 161
184 160
185 159
184 159
183 158
182 157
181 156
182 155
181 155
180 154
179 153
180 152
181 152
182 153
183 153
184 153
185 153
186 153
187 153
188 153
189 154
190 154
191 154
192 154
193 154
194 155
195 155
196 155
197 155
198 155
199 155
200 156
201 156
202 156
203 156
204 157
205 157
206 157
207 157
208 158
209 158
210 158
211 158
212 158
213 158
214 158
215 159
216 159
217 159
218 159
219 159
220 160
221 160
222 160
223 160
224 160
225 160
226 161
227 161
228 161
229 161
230 161
231 162
232 163
233 164
233 165
234 166
235 167
235 168
236 169
237 170
237 171
237 172
238 173
239 174
240 175
241 176
242 177
243 178
244 179
245 179
246 180
247 180
248 181
249 181
250 181
251 181
252 181
253 180
254 180
255 179
256 179
257 178
258 177
258 176
259 175
259 174
260 173
260 172
261 171
261 170
261 169
262 168
262 167
262 166
262 165
263 164
263 163
264 162
265 161
266 160
267 159
268 158
268 157
269 156
270 155
271 154
271 153
272 152
272 151
273 150
273 149
273 148
273 147
273 146
273 145
272 144
273 143
272 143
271 142
270 142
269 142
268 141
267 141
266 141
265 141
264 140
263 140
262 140
261 140
260 141
259 141
258 141
257 141
256 142
255 142
254 143
253 142
252 143
251 144
250 144
249 144
248 145
247 145
246 145
245 146
244 147
243 148
242 147
241 148
240 149
239 148
238 148
237 149
236 149
235 149
234 150
233 150
232 150
231 149
231 148
232 147
233 146
233 145
234 144
234 143
234 142
235 141
235 140
235 139
236 138
235 138
234 137
233 136
232 135
231 135
230 135
229 136
228 136
227 136
226 136
225 137
224 137
223 138
222 138
221 138
220 139
219 139
218 139
217 140
216 140
215 141
214 140
213 140
212 139
213 138
213 137
214 136
214 135
215 134
215 133
216 132
216 131
216 130
217 129
217 128
217 127
217 126
217 125
217 124
217 123
216 123
215 123
214 123
213 123
212 123
211 123
210 123
209 123
208 123
207 123
206 123
205 123
204 124
203 124
202 124
201 125
200 125
199 125
198 125
197 125
196 124
197 123
198 123
199 122
200 121
201 120
201 119
202 118
202 117
202 116
202 115
202 114
202 113
202 112
202 111
201 111
200 110
201 109
201 108
201 107
200 107
199 106
200 105
200 104
199 104
198 103
199 102
199 101
198 101
197 100
196 99
197 98
196 98
195 97
196 96
195 96
194 95
195 94
194 94
193 93
192 92
191 91
190 90
189 89
188 89
187 88
186 88
185 88
184 87
183 87
182 87
181 88
180 88
179 88
178 88
177 88
176 89
175 89
174 89
173 89
172 90
171 90
170 89
170 88
171 87
172 86
173 85
173 84
174 83
174 82
175 81
175 80
176 79
176 78
177 77
177 76
177 75
178 74
178 73
178 72
178 71
179 70
179 69
179 68
179 67
179 66
179 65
179 64
179 63
179 62
179 61
180 60
180 59
179 58
179 57
178 56
179 55
179 54
179 53
179 52
178 52
177 51
178 50
178 49
177 49
176 48
175 47
174 46
173 45
174 44
173 44
172 43
173 42
172 42
171 41
170 40
171 39
170 39
169 38
168 37
167 36
166 35
165 34
164 33
163 32
162 32
161 31
160 30
159 29
158 28
157 27
156 26
155 25
154 24
153 23
152 22
151 21
150 21
149 20
148 20
147 19
146 19
145 18
144 18
143 17
142 16
141 16
140 16
139 15
138 14
137 14
136 14
135 14
134 13
133 13
132 13
131 12
130 12
129 11
128 11
127 10
126 10
125 9
124 9
123 9
122 9
121 8
120 8
119 7
118 7
117 7
116 6
115 6
114 6
113 6
112 5
111 5
110 5
109 5
108 4
107 4
106 4
105 4
104 3
103 3
102 3
101 3
100 3
99 3
98 2
97 2
96 2
95 2
94 2
93 2
92 2
91 2
90 2
89 2
