343 2
342 3
341 3
340 4
339 5
338 5
337 5
336 6
335 7
334 7
333 8
332 8
331 9
330 10
329 11
328 11
327 12
326 12
325 13
324 13
323 13
322 14
321 15
320 16
319 16
318 17
317 18
316 19
315 18
314 18
313 18
313 19
313 20
312 21
311 22
310 22
309 23
308 24
307 25
306 25
305 26
304 27
303 28
302 28
301 28
300 28
299 28
298 28
297 28
296 28
296 29
296 30
296 31
296 32
295 33
294 33
293 34
292 34
291 34
290 34
289 34
288 35
287 35
286 35
285 35
284 35
283 35
282 35
281 35
280 35
279 35
278 35
277 35
276 34
275 34
274 34
273 33
272 32
271 31
270 30
269 29
268 29
267 28
266 27
265 27
264 26
263 25
262 25
261 24
260 24
259 23
258 23
257 23
256 23
255 23
254 23
253 23
252 23
251 24
250 24
249 24
248 24
247 24
246 25
245 25
244 25
243 25
242 25
241 25
240 25
239 25
238 25
237 26
236 25
235 25
234 25
234 26
233 27
232 27
231 27
230 27
229 27
228 28
227 28
226 28
225 28
224 28
223 28
222 28
221 28
220 28
219 28
218 28
217 27
216 27
215 27
214 27
213 27
212 27
211 27
210 27
209 27
208 27
207 27
206 27
205 26
206 25
205 25
204 24
203 24
203 25
202 26
201 26
200 26
199 26
198 26
197 26
196 26
195 25
194 25
193 25
192 25
191 25
190 25
189 25
188 25
187 25
186 25
185 25
184 24
183 23
182 22
181 22
180 22
179 22
178 21
177 20
178 19
178 18
177 18
176 17
175 17
174 18
173 18
172 17
171 17
170 16
169 16
168 16
167 16
166 16
165 16
164 16
163 16
162 16
161 16
160 16
159 17
158 17
157 17
156 17
155 18
154 18
153 18
152 18
151 18
150 18
149 19
148 19
147 19
146 19
145 19
144 19
143 19
142 19
141 18
140 17
139 17
139 18
138 19
137 19
136 19
135 19
134 19
133 19
132 19
131 19
130 19
129 19
128 19
127 19
126 19
125 19
124 18
123 18
122 18
121 19
120 18
119 17
118 17
117 17
116 17
116 18
115 19
114 19
113 19
112 19
111 19
110 19
109 19
108 19
107 19
106 19
105 19
104 19
103 19
102 19
101 18
102 17
101 17
100 16
99 16
99 17
99 18
99 19
98 20
97 19
96 19
95 19
94 20
93 20
92 20
91 20
90 20
89 20
88 20
87 20
86 20
85 20
84 20
83 20
82 20
81 20
80 20
79 21
78 21
77 21
76 21
75 21
74 22
73 22
72 22
71 22
70 22
69 22
68 22
67 22
66 22
65 23
64 23
63 23
62 23
61 23
60 23
59 23
58 23
57 23
56 23
56 24
55 25
54 25
53 25
52 26
51 26
50 26
49 27
48 27
47 28
46 28
45 28
44 28
43 28
42 28
41 29
40 28
39 28
38 28
37 29
36 28
35 28
34 28
34 29
34 30
33 31
32 31
31 32
30 32
29 32
28 33
27 33
26 34
25 34
24 34
23 34
22 35
21 35
20 35
19 35
18 35
17 36
16 36
15 36
14 35
13 34
12 34
12 35
12 36
12 37
11 38
10 38
9 39
8 39
7 39
6 39
5 40
4 40
3 41
2 42
2 43
2 44
2 45
2 46
2 47
3 47
4 48
5 49
6 50
7 50
8 51
9 51
10 52
11 53
11 54
11 55
12 55
13 55
14 55
15 56
16 56
17 56
18 55
19 55
20 55
21 56
22 56
23 56
24 56
25 56
26 57
27 57
28 57
29 57
30 57
31 57
32 58
33 59
34 59
35 60
35 61
36 61
37 61
38 60
39 60
40 60
41 61
42 61
43 61
44 61
45 61
46 61
47 61
48 61
49 61
50 61
51 61
52 61
53 61
54 61
55 61
56 62
57 62
58 62
59 62
60 62
61 62
62 62
63 63
64 63
65 63
66 63
67 63
68 63
69 63
70 63
71 63
72 64
72 65
72 66
72 67
72 68
73 68
74 67
75 66
76 67
77 67
78 67
79 68
80 68
81 69
82 70
83 70
84 71
85 71
86 72
87 73
88 73
89 73
90 74
91 75
92 75
93 76
93 77
93 78
93 79
93 80
94 80
95 80
96 79
97 80
97 81
98 81
99 80
100 79
101 79
102 78
103 79
104 79
105 79
106 79
107 79
108 79
109 80
110 80
111 80
112 80
113 81
114 81
115 81
116 81
117 82
118 82
119 82
120 82
121 83
121 84
122 84
123 83
124 82
125 82
126 82
127 83
128 83
129 83
130 83
131 83
132 83
133 83
134 84
134 85
135 85
136 85
137 84
138 85
139 85
140 85
141 84
142 84
143 84
144 84
145 84
146 84
147 84
148 84
149 84
150 84
151 84
152 84
153 84
154 84
155 84
156 84
157 84
158 84
159 84
160 83
161 83
162 83
163 83
164 83
165 83
166 83
167 83
168 83
169 82
170 82
171 82
172 83
172 84
172 85
172 86
173 86
174 85
174 84
175 83
176 82
177 82
178 82
179 82
180 82
181 82
182 82
183 81
184 81
185 81
186 80
187 80
188 80
189 80
190 79
191 79
192 79
193 79
194 80
195 80
196 80
197 79
198 78
199 77
200 77
201 76
202 76
203 76
204 76
205 75
206 74
207 74
208 73
209 73
210 73
211 72
212 72
213 71
214 70
215 70
216 70
217 69
218 68
219 67
220 67
221 66
222 65
223 64
224 64
225 63
226 63
227 62
228 62
229 62
230 62
231 61
232 61
233 61
234 61
235 61
236 61
237 61
238 61
239 61
240 61
241 61
242 61
243 61
244 60
245 61
246 61
247 61
248 60
249 61
250 61
251 60
251 59
252 58
252 57
253 56
254 56
255 55
256 54
257 54
258 54
259 53
260 53
261 53
262 53
263 53
264 53
265 53
266 53
267 53
268 53
269 52
270 52
271 52
272 52
273 52
274 51
275 51
276 51
277 50
278 50
279 50
280 50
281 50
282 50
283 49
284 49
285 49
286 49
287 50
288 50
289 50
290 50
291 50
292 51
293 51
294 52
295 53
296 53
297 53
298 54
299 55
300 55
301 56
302 56
303 57
304 58
305 58
306 59
307 59
308 60
309 60
310 61
311 61
312 61
313 61
314 61
315 61
316 61
317 61
318 61
319 61
320 61
321 61
322 61
323 61
324 61
325 61
326 60
326 59
327 58
327 57
327 56
327 55
327 54
327 53
327 52
327 51
326 51
325 50
326 49
326 48
326 47
326 46
327 45
327 44
328 43
329 42
330 41
331 40
332 39
333 38
334 38
335 37
336 36
337 36
338 35
338 34
339 33
340 32
341 31
342 30
342 29
343 28
344 27
345 26
345 25
346 24
347 24
348 24
349 23
350 22
351 21
351 20
352 19
352 18
353 17
353 16
353 15
353 14
353 13
353 12
352 12
351 11
352 10
351 10
350 9
351 8
351 7
350 7
349 6
350 5
350 4
349 4
348 3
347 2
346 2
345 2
344 2
