135 2
134 3
133 4
132 5
131 6
130 6
130 7
129 8
128 9
127 10
127 11
126 12
125 13
124 13
124 14
123 15
122 16
121 17
121 18
120 19
119 20
118 21
117 22
116 23
115 24
114 25
113 26
112 26
111 27
110 28
110 29
109 30
108 31
107 31
106 31
105 31
104 32
103 31
102 32
101 32
100 32
99 32
98 32
97 32
96 32
95 32
94 32
93 32
92 32
91 32
90 32
89 32
88 33
87 33
86 33
85 33
84 33
83 33
82 33
81 33
80 33
79 33
78 33
77 33
76 33
75 33
74 33
73 33
72 33
71 34
70 34
69 34
68 34
67 34
66 34
65 34
64 35
63 35
62 35
61 35
60 35
59 35
58 35
57 36
56 36
55 36
54 36
53 36
52 36
51 36
50 36
49 37
48 37
47 37
46 37
45 38
44 38
43 38
42 38
41 38
40 39
39 39
38 39
37 39
36 39
35 39
34 39
33 39
32 39
31 39
30 40
29 40
28 40
27 40
26 41
25 41
24 41
23 42
22 42
21 42
20 43
19 43
18 43
17 44
16 44
15 44
14 45
13 45
12 45
11 46
10 46
9 46
8 46
7 46
6 47
5 47
4 48
4 49
4 50
3 51
2 52
2 53
2 54
2 55
3 56
3 57
4 58
5 59
6 60
7 61
8 62
9 63
9 64
10 65
11 66
12 66
13 67
14 68
15 69
16 70
17 70
18 71
19 71
20 72
21 72
22 73
23 73
24 73
25 74
26 74
27 74
28 75
29 75
30 75
31 76
32 76
33 76
34 76
35 76
36 77
37 77
38 78
39 78
40 78
41 79
42 79
43 79
44 79
45 80
46 81
47 81
48 81
49 81
50 82
51 82
52 82
53 82
54 82
55 82
56 83
57 83
58 83
59 83
60 83
61 83
62 83
63 84
64 84
65 84
66 84
67 85
68 85
69 85
70 86
71 85
72 86
73 85
74 86
75 86
76 86
76 85
77 84
78 84
79 85
79 86
80 86
81 87
82 86
83 87
84 88
85 88
86 88
87 88
88 88
89 89
89 88
90 87
91 87
92 88
93 89
94 88
95 87
96 87
97 88
98 88
99 88
100 87
101 88
102 89
103 89
104 88
105 88
106 88
107 89
108 89
109 89
110 88
111 88
112 88
113 88
114 89
115 88
116 87
117 87
118 87
119 87
120 88
121 87
122 86
123 87
124 87
125 87
126 88
126 89
127 90
127 91
128 92
128 93
129 94
129 95
129 96
130 97
130 98
131 99
132 100
133 101
134 101
134 100
135 99
136 99
136 98
137 97
138 98
138 99
139 99
140 100
140 101
140 102
141 102
142 102
143 102
144 102
145 101
146 100
147 99
147 98
148 97
148 96
148 95
148 94
148 93
148 92
148 91
149 90
149 89
149 88
149 87
148 86
149 85
149 84
149 83
148 83
147 82
148 81
149 81
150 81
151 81
152 80
153 80
154 79
155 80
156 79
157 79
158 79
159 79
160 78
161 78
162 78
163 78
164 77
165 77
166 77
167 76
168 76
169 76
170 76
171 76
172 77
173 77
174 78
175 79
176 79
177 80
178 80
179 81
180 82
181 83
182 83
183 84
184 85
185 85
186 86
187 86
188 86
189 86
190 85
190 84
191 83
191 82
192 81
193 80
194 79
195 79
196 78
197 77
198 76
199 76
200 76
201 75
202 74
203 73
204 73
205 72
206 72
207 71
208 71
208 70
209 69
210 69
211 68
212 68
213 68
214 69
215 69
216 70
217 70
218 71
219 71
220 71
221 72
222 72
223 72
223 71
224 70
224 69
225 68
224 68
223 67
222 67
221 66
222 65
223 65
224 65
225 66
226 66
227 66
228 67
229 67
230 68
231 68
232 69
233 70
234 70
235 71
236 72
237 72
238 73
239 73
240 73
241 74
242 75
243 75
244 76
245 76
246 76
247 77
248 78
249 79
250 79
251 79
252 80
253 80
254 81
255 81
256 82
257 83
258 83
259 84
260 84
261 85
262 86
263 86
264 86
264 85
265 84
265 83
264 83
263 82
264 81
263 81
262 80
263 79
262 79
261 78
262 77
261 77
260 76
261 75
261 74
260 74
259 73
258 72
257 71
258 70
258 69
257 69
256 68
257 67
257 66
256 66
255 66
254 65
255 64
254 64
253 63
254 62
253 62
252 62
251 61
252 60
252 59
251 59
250 59
249 58
248 57
247 56
246 55
245 54
245 53
246 52
247 52
247 51
248 50
249 49
250 48
251 47
251 46
252 45
253 44
254 44
254 43
255 42
255 41
255 40
256 39
257 38
257 37
258 36
259 36
259 35
260 34
260 33
260 32
261 31
261 30
262 29
262 28
263 27
262 26
263 25
263 24
262 23
261 23
260 23
259 23
258 24
257 24
256 25
255 25
254 26
253 26
252 26
251 26
250 27
249 28
248 28
247 29
246 29
245 30
244 31
243 31
242 32
241 33
240 33
239 33
238 34
237 34
236 35
235 36
234 36
233 36
232 37
231 38
230 38
229 39
228 39
227 39
226 39
225 39
224 40
223 40
222 41
221 41
220 42
219 42
218 42
217 43
216 43
215 43
214 43
213 43
212 43
211 43
210 43
209 43
208 42
207 42
206 42
205 42
204 42
203 41
202 41
201 41
200 41
199 41
198 41
197 41
196 40
195 40
194 40
193 40
192 40
191 39
190 39
189 39
188 39
187 39
186 39
185 39
184 39
183 39
182 38
181 38
180 38
179 38
178 38
177 37
176 37
175 37
174 37
173 37
172 36
171 36
170 36
169 36
168 36
167 36
166 36
165 36
164 36
163 36
162 36
161 35
160 35
159 35
158 35
157 35
156 35
155 35
154 35
153 34
152 34
151 34
150 34
149 34
148 34
147 34
146 33
147 32
148 31
149 30
150 29
151 28
151 27
152 26
151 26
150 25
149 24
148 24
147 23
148 22
147 22
146 21
145 20
146 19
146 18
145 18
144 18
143 17
144 16
144 15
143 15
142 14
141 13
140 12
140 11
140 10
139 10
138 9
139 8
139 7
138 6
138 5
138 4
137 3
136 2
