320 2
319 3
318 3
317 3
316 4
315 4
314 4
313 5
312 5
311 5
310 6
309 6
308 7
307 7
306 8
305 9
304 9
303 10
302 10
301 11
300 12
299 12
298 13
297 13
296 14
295 15
294 16
293 16
292 17
291 18
290 18
289 19
288 20
287 21
286 22
285 23
284 24
283 25
282 26
281 27
280 28
280 29
279 30
278 31
277 32
277 33
276 34
275 35
274 36
274 37
273 38
272 39
271 40
271 41
270 42
269 43
269 44
268 45
267 46
266 47
265 48
265 49
264 50
263 51
262 52
261 53
260 54
259 55
258 56
257 56
256 57
255 57
254 57
253 56
254 55
254 54
253 54
252 53
252 52
251 52
250 52
249 52
248 52
247 51
246 51
245 52
244 52
243 51
243 50
242 50
241 50
240 49
239 48
238 48
237 48
236 47
235 46
234 45
233 44
232 43
231 43
230 43
229 42
228 41
227 41
226 41
226 42
225 43
224 42
223 43
222 43
221 42
220 43
219 44
218 45
218 46
217 47
216 48
215 49
215 50
214 51
213 52
212 53
212 54
211 55
210 56
210 57
209 58
208 59
208 60
207 61
206 62
205 63
205 64
204 65
203 66
202 67
201 67
200 68
199 67
198 67
197 67
196 68
195 68
194 68
193 67
192 68
191 68
190 69
189 69
188 70
187 70
186 71
185 71
184 70
183 70
182 70
181 70
180 71
179 71
178 72
177 71
176 71
175 71
174 71
173 71
172 72
171 73
170 74
169 74
168 74
167 73
166 73
165 74
164 74
163 75
162 75
161 75
160 75
159 75
158 75
157 76
156 76
155 76
154 77
153 78
152 78
151 78
150 77
149 77
148 77
147 78
146 78
145 79
144 80
143 81
142 81
141 80
142 79
141 79
140 79
139 80
138 80
137 81
136 81
135 82
134 83
133 83
132 82
132 81
131 81
130 82
129 82
128 83
127 84
126 85
125 85
124 86
123 86
122 85
121 85
120 85
119 85
118 86
117 87
116 88
115 89
114 90
113 90
112 90
111 89
112 88
111 88
110 88
109 89
108 90
107 90
106 91
105 92
105 93
104 94
103 95
102 95
101 94
102 93
101 93
100 93
99 94
98 95
97 96
96 96
95 97
95 98
94 99
93 100
92 99
92 98
91 98
90 98
89 98
88 99
87 100
86 101
86 102
85 103
84 104
83 104
82 104
81 105
80 104
79 104
78 105
77 106
77 107
76 108
76 109
75 110
74 111
73 111
72 111
71 110
72 109
71 109
70 110
69 110
68 111
68 112
67 113
66 114
66 115
65 116
64 117
63 117
62 117
61 117
60 118
60 119
59 120
59 121
58 122
58 123
57 124
56 125
55 126
54 127
53 128
52 129
51 130
50 131
49 132
48 133
48 134
47 135
46 136
45 137
45 138
44 139
43 140
42 141
42 142
41 143
40 144
40 145
39 146
39 147
38 148
37 149
37 150
36 151
36 152
35 153
34 154
34 155
33 156
32 157
32 158
31 159
31 160
30 161
30 162
29 163
28 164
27 165
27 166
26 167
25 168
24 169
23 170
22 171
21 172
20 173
19 174
18 174
17 175
16 176
15 176
14 177
13 177
12 178
11 178
10 179
9 179
8 179
8 180
7 181
7 182
8 183
9 183
10 183
11 183
12 183
13 183
14 183
15 183
16 183
17 182
18 182
19 182
20 182
21 182
22 181
23 181
24 181
25 181
26 180
27 180
28 180
29 179
30 179
31 180
31 181
30 182
29 182
28 183
27 184
27 185
27 186
28 187
28 188
29 187
30 186
31 187
32 186
32 185
33 184
34 185
34 186
35 186
36 186
37 186
38 187
38 186
39 185
38 184
38 183
39 182
39 181
40 180
41 179
41 178
40 177
41 176
42 175
43 176
43 177
44 178
44 179
44 180
44 181
44 182
45 182
46 183
46 184
47 183
47 182
48 181
47 181
46 180
46 179
45 178
45 177
45 176
46 175
47 174
48 174
49 174
50 174
51 175
52 174
53 174
54 173
54 172
55 171
56 171
56 170
57 169
58 168
59 167
60 166
61 165
62 165
63 164
64 164
65 164
66 163
67 163
68 162
69 162
70 161
71 161
72 160
73 160
74 159
75 158
76 159
76 160
76 161
77 162
77 163
78 164
79 165
80 166
81 167
82 167
83 168
84 168
85 168
86 168
87 168
88 168
89 168
90 168
91 167
92 167
93 166
93 165
94 164
95 163
95 162
96 161
97 161
98 162
99 162
100 163
101 164
102 164
103 164
104 165
105 165
106 166
107 166
108 167
109 167
110 168
111 168
111 167
112 166
113 166
114 167
115 167
116 167
117 168
118 169
118 170
119 171
120 171
121 171
122 171
123 170
124 169
125 170
126 170
127 171
127 172
128 173
129 173
130 173
131 173
132 173
133 174
134 174
134 173
135 172
136 172
137 173
137 174
138 173
139 173
140 173
141 173
142 172
143 171
143 170
142 169
141 168
140 168
139 167
138 166
137 165
136 164
137 163
136 163
135 162
134 161
133 160
132 159
131 158
130 157
129 157
128 156
127 155
126 154
125 153
124 152
123 151
122 150
121 149
120 149
119 148
118 147
117 146
116 145
117 144
117 143
118 142
119 142
120 142
121 142
122 142
123 142
124 142
124 141
124 140
125 139
126 139
127 139
128 139
129 139
130 139
131 138
132 138
132 137
133 136
134 136
135 136
136 136
137 135
138 135
139 134
139 133
139 132
140 131
141 131
142 130
143 130
144 130
145 130
146 130
147 129
148 129
148 128
149 127
150 126
151 126
152 126
153 126
154 126
155 125
156 124
156 123
157 122
158 122
159 122
160 122
161 121
162 121
163 121
164 120
165 119
166 118
167 118
168 118
169 118
170 117
171 116
172 116
173 115
174 115
175 115
176 114
177 114
178 113
179 113
180 114
181 115
182 114
183 114
184 115
185 116
185 117
186 118
187 117
188 118
188 119
189 118
190 119
190 120
191 121
192 121
193 121
194 122
195 122
196 121
197 122
198 121
198 120
198 119
198 118
199 117
199 116
200 115
201 115
202 115
203 114
204 115
205 115
206 115
207 114
207 113
208 112
208 111
208 110
208 109
208 108
209 107
209 106
210 105
210 104
210 103
211 102
210 102
209 102
208 102
207 101
208 100
208 99
208 98
209 97
210 97
211 96
212 96
213 96
214 95
215 95
216 95
217 94
218 94
219 94
220 93
221 92
222 92
223 92
224 91
225 91
226 91
227 90
228 90
229 90
230 90
231 89
232 89
233 89
234 89
235 89
236 89
237 89
238 89
239 89
240 89
241 89
242 89
243 89
244 89
245 89
246 90
247 90
248 90
249 90
250 90
251 90
252 90
253 90
254 90
255 90
256 90
257 89
258 89
259 89
260 89
261 89
262 88
263 88
264 88
265 88
266 88
267 87
268 87
269 87
270 86
271 85
271 84
271 83
271 82
271 81
270 81
269 80
268 80
267 80
266 79
265 79
264 79
263 78
264 77
264 76
263 76
262 75
261 74
260 73
261 72
262 71
263 71
264 70
265 70
266 69
267 69
268 68
269 68
270 68
271 68
272 69
273 69
274 70
275 70
276 70
277 70
278 71
279 71
280 71
281 71
282 71
283 72
284 72
285 72
286 72
287 73
288 73
289 73
290 74
291 74
292 74
293 74
294 74
295 74
296 74
297 74
298 74
299 74
300 74
301 74
302 74
303 73
304 73
304 72
305 71
306 71
307 71
308 72
309 72
310 72
311 72
311 71
312 70
312 69
312 68
312 67
311 67
310 66
311 65
310 65
309 64
310 63
309 63
308 62
307 61
308 60
307 60
306 59
307 58
306 58
305 57
304 56
305 55
304 55
303 55
302 54
301 53
300 52
299 51
298 51
297 50
297 49
298 48
298 47
299 46
299 45
300 44
300 43
300 42
301 41
301 40
301 39
302 38
302 37
302 36
302 35
303 34
303 33
303 32
303 31
304 30
304 29
304 28
304 27
305 26
306 25
306 24
307 23
308 22
308 21
309 20
309 19
310 18
310 17
311 16
312 15
312 14
313 13
314 12
315 11
316 10
317 9
318 9
319 9
320 8
321 8
322 7
323 7
323 6
324 5
324 4
323 3
322 2
321 2
