141 2
140 3
139 4
138 5
137 6
136 7
135 8
134 9
134 10
133 11
132 12
131 13
130 14
129 15
128 16
127 17
126 18
125 19
124 20
123 21
122 22
121 23
121 24
120 25
119 25
119 26
118 27
117 28
116 28
116 29
115 30
114 30
113 31
112 32
111 32
110 32
109 32
108 32
107 32
106 32
105 32
104 32
103 32
102 32
101 32
100 33
99 33
98 33
97 33
96 33
95 33
94 33
93 33
92 33
91 33
90 33
89 34
88 34
87 34
86 34
85 34
84 34
83 35
82 35
81 35
80 35
79 35
78 35
77 35
76 35
75 35
74 36
73 36
72 36
71 36
70 37
69 37
68 37
67 37
66 38
65 38
64 38
63 38
62 38
61 39
60 39
59 39
58 39
57 40
56 40
55 40
54 40
53 41
52 41
51 41
50 41
49 42
48 42
47 43
46 43
45 43
44 44
43 44
42 45
41 45
40 45
39 45
38 46
37 46
36 46
35 47
34 47
33 48
32 48
31 48
30 49
29 49
28 50
27 50
26 51
25 51
24 51
23 52
22 52
21 53
20 53
19 54
18 55
17 55
16 56
15 56
14 57
13 58
12 59
11 59
10 60
9 61
8 62
8 63
8 64
8 65
7 66
7 67
6 68
6 69
6 70
6 71
7 72
8 73
9 74
10 74
11 74
12 75
13 76
14 76
15 77
16 78
16 79
17 78
18 79
19 80
19 81
20 82
21 83
22 83
23 83
24 82
25 83
26 84
27 85
28 84
29 84
30 85
31 85
32 85
33 86
34 86
35 86
36 86
37 86
38 86
39 87
40 87
41 88
42 88
43 88
44 88
45 88
46 88
47 89
48 89
49 89
50 90
51 90
52 91
53 91
54 91
55 91
56 91
57 92
58 92
59 92
60 93
61 93
62 93
63 94
64 94
65 94
66 94
67 94
68 94
69 95
70 96
71 96
72 96
73 96
74 97
75 97
76 97
77 98
78 98
79 98
80 98
81 99
82 99
83 99
84 99
85 99
86 100
87 100
88 100
89 100
90 100
91 101
92 100
93 101
94 101
95 101
96 101
97 101
98 101
99 101
100 101
101 100
102 101
103 101
104 101
105 101
106 101
107 101
108 101
109 100
110 101
111 101
112 101
113 102
114 102
115 101
116 101
117 101
118 101
119 101
120 101
121 101
122 101
123 100
124 101
125 102
126 103
126 104
126 105
126 106
127 107
127 108
127 109
127 110
128 111
128 112
128 113
129 114
129 115
129 116
130 117
131 118
131 117
132 116
132 115
132 114
133 113
134 114
135 114
136 113
137 114
138 115
139 116
140 117
141 118
142 119
143 119
144 119
145 118
145 117
146 116
146 115
146 114
146 113
145 112
146 111
146 110
146 109
146 108
147 107
146 106
146 105
146 104
146 103
147 102
147 101
146 101
145 100
146 99
147 99
148 99
149 99
150 99
151 99
152 99
153 99
154 99
155 98
156 99
157 99
158 98
159 98
160 98
161 97
162 97
163 96
164 96
165 96
166 96
167 95
168 95
169 95
170 94
171 94
172 94
173 93
174 93
175 93
176 92
177 91
178 91
179 91
180 90
181 90
182 90
183 90
184 91
185 91
186 92
187 93
188 94
189 94
190 95
191 96
192 97
193 98
194 98
195 98
196 99
197 99
198 100
199 100
200 101
201 101
202 100
202 99
203 98
204 98
204 97
205 96
206 96
206 95
207 94
208 94
209 93
210 93
210 92
211 91
212 91
212 90
213 89
214 89
215 88
216 87
217 86
218 86
219 85
220 85
221 84
221 83
222 82
223 81
224 81
225 80
226 79
227 78
228 77
229 77
229 76
230 75
231 74
232 74
233 74
234 73
235 73
235 72
236 71
236 70
235 70
234 70
233 70
233 71
232 72
231 71
231 70
231 69
232 68
233 68
234 68
235 67
236 67
237 67
238 67
239 67
240 67
241 67
242 67
243 68
244 68
245 68
246 68
247 69
248 69
249 70
250 71
251 71
252 72
253 73
254 73
255 74
256 74
257 74
258 75
259 76
260 76
261 77
262 77
263 78
264 78
265 78
266 79
267 80
268 80
269 80
270 81
271 81
272 82
273 82
274 83
275 83
276 83
277 84
278 84
279 85
280 85
281 85
282 85
283 86
284 86
285 86
286 86
287 86
288 87
289 87
290 87
291 88
292 88
293 88
294 88
295 88
296 88
297 88
298 88
299 89
300 89
301 89
302 89
303 89
304 89
305 90
306 90
307 90
308 90
309 89
309 88
309 87
308 87
307 87
306 86
305 85
304 85
303 84
302 83
303 82
303 81
302 81
301 81
300 80
299 79
298 78
297 77
296 77
295 76
294 75
293 75
292 74
291 73
292 72
291 72
290 71
289 71
288 71
287 70
286 70
285 69
284 68
283 67
284 66
283 66
282 66
281 66
280 65
279 64
280 63
279 63
278 62
279 61
279 60
278 60
277 60
276 60
275 59
274 58
275 57
275 56
275 55
276 54
276 53
276 52
277 51
278 50
279 49
280 48
281 47
281 46
282 45
283 45
283 44
284 43
285 42
286 41
287 40
288 39
288 38
289 37
289 36
290 35
291 35
291 34
292 33
293 32
294 32
295 31
295 30
296 29
297 28
298 27
299 27
300 27
300 26
301 25
302 25
303 24
304 24
305 23
305 22
304 21
303 21
302 21
301 21
300 21
299 22
298 22
297 22
296 22
295 22
294 22
293 22
292 23
291 23
290 23
289 23
288 24
287 24
286 24
285 24
284 25
283 25
282 25
281 25
280 26
279 26
278 27
277 27
276 28
275 28
274 28
273 29
272 29
271 30
270 30
269 31
268 32
267 32
266 32
265 33
264 33
263 34
262 35
261 35
260 36
259 36
258 37
257 38
256 38
255 39
254 40
253 40
252 41
251 41
250 42
249 43
248 44
247 44
246 45
245 45
244 45
243 45
242 45
241 45
240 45
239 45
238 45
237 45
236 45
235 45
234 44
233 44
232 44
231 44
230 44
229 44
228 44
227 44
226 44
225 43
224 43
223 43
222 43
221 43
220 43
219 42
218 42
217 42
216 42
215 42
214 41
213 41
212 41
211 41
210 41
209 41
208 41
207 41
206 40
205 40
204 40
203 40
202 40
201 40
200 40
199 40
198 39
197 39
196 39
195 39
194 39
193 39
192 38
191 38
190 38
189 38
188 38
187 38
186 38
185 38
184 37
183 37
182 37
181 37
180 37
179 37
178 36
177 36
176 36
175 36
174 36
173 36
172 35
171 35
170 35
169 35
168 35
167 35
166 34
167 33
168 33
168 32
169 31
170 31
170 30
171 29
172 30
172 31
172 32
173 31
174 31
175 30
175 29
174 29
173 28
172 27
171 27
170 26
169 26
168 26
167 26
166 25
167 24
166 24
165 23
164 22
163 23
162 22
162 21
161 20
160 20
159 20
158 19
157 18
156 18
155 17
154 16
155 15
154 15
153 15
152 14
151 13
150 12
151 11
150 11
149 10
149 9
148 9
147 8
146 7
145 6
144 6
143 5
144 4
143 4
142 3
143 2
142 2
