158 2
157 3
156 4
155 5
154 6
153 6
152 6
151 7
150 7
149 8
148 9
147 9
146 10
146 11
145 12
144 12
143 13
142 14
141 15
140 15
139 16
139 17
138 18
137 19
136 19
135 19
134 19
133 19
132 19
131 19
130 19
129 19
128 18
127 18
126 18
125 18
124 18
123 18
122 18
121 18
120 18
119 18
118 18
117 18
116 18
115 18
114 18
113 18
112 18
111 18
110 18
109 18
108 18
107 18
106 18
105 18
104 18
103 18
102 18
101 18
100 18
99 19
98 19
97 19
96 19
95 19
94 19
93 19
92 19
91 19
90 19
89 19
88 19
87 19
86 19
85 19
84 19
83 19
82 20
81 20
80 20
79 20
78 20
77 20
76 20
75 20
74 20
73 20
72 20
71 20
70 21
69 21
68 21
67 21
66 21
65 21
64 21
63 22
62 22
61 22
60 22
59 22
58 22
57 22
56 22
55 23
54 23
53 23
52 23
51 23
50 24
49 24
48 24
47 24
46 24
45 25
44 25
43 25
42 25
41 25
40 26
39 26
38 26
37 26
36 27
35 27
34 27
33 27
32 28
31 28
30 28
29 28
28 29
27 28
26 29
25 29
24 29
23 30
22 30
21 31
20 31
19 31
18 32
17 32
16 32
15 32
14 33
13 33
12 34
11 34
10 34
9 34
8 35
7 35
7 36
8 37
8 38
8 39
9 40
9 41
9 42
10 43
9 44
8 44
7 43
6 42
5 41
4 41
3 42
2 42
2 43
2 44
3 45
3 46
4 47
5 48
6 49
7 50
7 51
8 52
9 52
10 53
10 54
11 55
12 56
12 57
12 58
13 58
14 58
15 59
16 59
17 60
18 60
19 60
20 61
21 62
21 63
21 64
22 64
23 63
24 63
25 64
26 64
27 65
28 65
29 65
30 65
31 66
32 66
33 67
34 67
35 67
36 67
37 68
38 68
39 68
40 69
41 69
42 69
43 69
44 70
45 70
46 70
47 71
48 71
49 72
50 72
51 72
52 72
53 72
54 73
55 73
56 73
57 73
58 74
59 74
60 74
61 74
62 75
63 74
64 75
65 75
66 75
67 75
68 75
69 75
70 75
71 75
72 76
73 76
74 76
75 76
76 77
77 77
78 77
79 77
80 77
81 78
82 78
83 78
84 78
85 78
86 78
87 78
88 78
89 78
90 78
91 78
92 79
93 78
94 78
95 78
96 79
97 79
98 79
99 79
100 79
101 79
102 79
103 79
104 79
105 79
106 79
107 79
108 79
109 79
110 79
111 79
112 79
113 79
114 79
115 78
116 79
117 79
118 79
119 79
120 80
120 81
121 82
122 83
123 84
123 85
124 86
125 87
126 88
127 89
128 89
129 88
130 87
130 86
131 85
132 84
133 85
133 86
134 87
135 88
136 88
137 89
138 90
139 90
140 91
141 92
142 92
143 93
144 93
145 93
146 93
147 92
147 91
148 90
148 89
148 88
147 88
146 87
147 86
147 85
146 84
146 83
146 82
147 81
147 80
146 79
145 78
144 78
143 77
144 76
145 76
146 76
147 75
148 75
149 75
150 75
151 75
152 75
153 75
154 75
155 75
156 75
157 75
158 74
159 74
160 74
161 73
162 73
163 73
164 73
165 73
166 73
167 72
168 72
169 72
170 72
171 72
172 72
173 72
174 72
175 72
176 71
177 71
178 71
179 71
180 70
181 70
182 69
183 69
184 69
185 68
186 68
187 68
188 68
189 68
190 68
191 67
192 67
193 68
194 68
195 69
196 70
197 71
198 72
199 72
200 73
201 73
202 74
203 74
204 75
205 75
206 76
207 76
208 77
209 78
210 78
211 78
212 78
213 78
214 77
215 76
216 75
217 75
218 74
219 73
220 73
221 73
222 72
223 71
224 71
225 70
226 69
227 69
228 68
229 67
230 67
231 67
232 66
233 65
234 64
234 63
233 62
232 62
231 61
230 60
231 59
232 59
233 59
234 59
235 59
236 58
237 58
238 58
239 58
240 58
241 58
242 58
243 58
244 58
245 58
246 58
247 58
248 58
249 58
250 59
251 59
252 59
253 59
254 59
255 60
256 60
257 60
258 60
259 60
260 61
261 61
262 62
263 62
264 62
265 62
266 63
267 63
268 63
269 64
270 64
271 64
272 65
273 65
274 65
275 65
276 65
277 66
278 66
279 66
280 67
281 67
282 67
283 67
284 67
285 68
286 68
287 68
288 68
289 68
290 68
291 69
292 69
293 69
294 69
295 70
296 70
297 70
298 70
299 71
300 71
301 71
302 71
303 71
303 70
303 69
303 68
302 68
301 67
302 66
301 66
300 65
301 64
300 64
299 63
300 62
299 62
298 61
299 60
298 60
297 59
296 58
295 57
294 56
293 55
292 54
291 53
290 52
289 52
288 51
287 50
286 50
285 49
284 49
283 49
282 48
281 48
280 48
279 47
279 46
280 45
281 45
282 44
283 44
284 43
285 43
286 42
287 42
288 41
289 40
290 39
291 39
292 38
293 37
294 36
295 35
296 34
297 33
298 32
298 31
299 30
300 29
300 28
301 27
301 26
302 25
303 24
303 23
302 22
301 22
300 22
299 22
298 22
297 22
296 22
295 22
294 22
293 22
292 22
291 22
290 22
289 22
288 23
287 23
286 24
285 24
284 24
283 25
282 25
281 25
280 26
279 26
278 27
277 27
276 28
275 28
274 29
273 29
272 30
271 30
270 31
269 31
268 32
267 32
266 32
265 33
264 33
263 34
262 34
261 34
260 34
259 35
258 35
257 35
256 36
255 36
254 36
253 37
252 37
251 37
250 37
249 37
248 38
247 38
246 38
245 38
244 38
243 38
242 38
241 38
240 38
239 37
238 37
237 37
236 37
235 37
234 37
233 37
232 36
231 36
230 36
229 36
228 36
227 35
226 35
225 35
224 35
223 35
222 34
221 35
220 35
219 34
218 34
217 34
216 34
215 34
214 34
213 33
212 33
211 33
210 33
209 33
208 32
207 32
206 32
205 32
204 32
203 31
202 31
201 31
200 31
199 31
198 30
197 30
196 30
195 29
194 29
193 29
192 29
191 29
190 28
189 28
188 27
189 26
190 26
191 26
192 25
193 25
194 25
195 24
196 24
197 24
198 24
198 23
199 22
199 21
198 21
197 20
196 20
195 19
194 19
193 18
192 18
191 17
190 17
189 16
190 15
189 15
188 15
187 15
186 14
185 13
184 13
183 12
182 12
181 11
180 10
179 10
178 10
177 9
176 8
175 8
174 7
173 6
172 6
171 5
170 4
169 4
168 3
167 2
166 2
165 2
164 2
163 2
162 2
161 2
160 2
159 2
