183 2
182 3
181 4
180 5
179 6
178 6
177 7
176 8
175 9
174 10
173 11
172 11
171 12
170 13
169 14
168 15
167 16
166 17
165 18
164 19
163 20
162 21
162 22
161 23
160 24
159 25
158 26
157 27
156 28
155 29
154 30
153 30
152 30
151 30
150 30
149 30
148 30
147 30
146 30
145 30
144 30
143 30
142 30
141 30
140 30
139 30
138 30
137 30
136 30
135 30
134 30
133 30
132 30
131 30
130 30
129 30
128 30
127 30
126 29
125 29
124 30
123 29
122 29
121 29
120 29
119 29
118 29
117 29
116 29
115 29
114 29
113 29
112 29
111 29
110 29
109 29
108 30
107 30
106 30
105 30
104 30
103 30
102 30
101 30
100 30
99 30
98 30
97 30
96 30
95 30
94 30
93 30
92 30
91 31
90 31
89 31
88 31
87 31
86 31
85 31
84 31
83 32
82 32
81 32
80 32
79 32
78 32
77 32
76 33
75 33
74 33
73 33
72 33
71 33
70 34
69 34
68 34
67 34
66 34
65 34
64 35
63 35
62 35
61 35
60 35
59 36
58 36
57 37
56 37
55 37
54 38
53 38
52 38
51 38
50 39
49 39
48 39
47 40
46 40
45 40
44 41
43 41
42 41
41 41
40 42
39 42
38 43
37 43
36 43
35 43
34 44
33 44
32 44
31 45
30 45
29 45
28 45
27 46
26 46
25 46
24 47
23 47
22 47
21 48
20 49
19 49
18 49
17 50
16 50
15 51
14 51
13 52
12 53
11 53
10 54
9 55
8 56
7 56
6 57
5 58
4 59
3 60
2 61
2 62
2 63
2 64
3 65
4 66
5 67
6 67
7 67
8 68
9 68
10 68
11 69
10 70
9 70
9 71
9 72
9 73
10 74
10 75
11 74
12 75
13 76
13 77
14 76
15 77
16 77
17 77
18 77
19 77
20 78
21 78
22 78
23 79
24 79
25 79
26 79
27 79
28 79
29 80
30 80
31 80
32 80
33 81
34 81
35 81
36 81
37 81
38 81
39 82
40 82
41 82
42 82
43 82
44 82
45 83
46 83
47 83
48 83
49 83
50 83
51 83
52 83
53 83
54 84
55 84
56 84
57 84
58 84
59 84
60 84
61 84
62 84
63 84
64 84
65 83
66 84
66 85
67 85
68 85
69 85
70 85
71 85
72 85
73 85
74 85
75 85
76 85
77 84
78 84
79 85
80 86
81 86
82 86
83 86
84 86
85 86
86 87
87 87
88 88
89 89
90 89
91 90
92 90
93 91
94 90
95 90
96 89
97 89
98 88
99 88
100 88
101 87
102 88
103 88
104 88
105 88
106 88
107 88
108 88
109 88
110 88
111 88
112 88
113 88
114 88
115 88
116 88
117 88
118 88
119 88
120 88
121 88
122 88
123 88
124 88
125 88
126 88
127 88
128 88
129 88
130 88
131 88
132 89
133 90
134 91
134 92
135 93
136 94
136 95
137 96
138 97
139 98
140 99
141 98
141 97
142 96
143 96
144 97
145 98
146 99
147 99
148 100
149 101
150 102
151 103
152 104
153 104
154 105
155 105
156 105
157 106
158 105
158 104
159 103
159 102
159 101
159 100
159 99
160 98
159 98
158 97
159 96
159 95
159 94
159 93
159 92
159 91
158 91
157 90
158 89
159 88
160 88
161 88
162 88
163 88
164 88
165 88
166 88
167 88
168 88
169 88
170 88
171 88
172 88
173 88
174 88
175 88
176 88
177 88
178 88
179 88
180 88
181 88
182 88
183 88
184 88
185 87
186 88
187 88
187 87
187 86
188 85
189 85
190 86
190 87
191 87
192 87
193 87
194 87
195 87
196 87
197 87
198 87
199 87
200 87
201 87
202 87
203 87
204 87
205 87
206 87
207 87
208 86
209 86
210 86
210 85
211 84
212 83
213 84
213 85
214 85
215 85
216 85
217 85
218 86
219 87
220 87
221 88
222 88
223 89
224 89
225 90
226 90
227 91
228 92
229 92
230 93
231 93
232 94
233 95
234 96
235 96
236 97
237 97
238 98
239 99
240 99
241 99
242 99
243 98
244 97
245 96
246 95
247 95
248 94
249 93
250 93
251 92
252 91
253 91
254 90
255 90
256 90
257 89
258 89
259 89
260 88
261 88
262 88
263 87
264 87
265 87
266 87
267 86
268 85
269 85
270 85
271 85
272 84
273 84
274 84
275 83
276 83
276 82
276 81
275 81
274 81
273 81
272 80
273 79
274 78
275 78
276 78
277 78
278 78
279 78
280 78
281 78
282 78
283 78
284 78
285 78
286 78
287 78
288 78
289 78
290 78
291 78
292 78
293 78
294 78
295 78
296 78
297 78
298 78
299 78
300 78
301 78
302 78
303 78
304 78
305 78
306 78
307 78
308 78
309 78
310 78
311 78
312 78
313 79
314 79
315 79
316 79
317 80
318 80
319 80
320 80
321 81
322 81
323 82
324 82
325 82
326 82
327 83
328 83
329 83
330 84
331 84
332 85
333 85
334 85
335 86
336 86
337 87
338 87
339 87
340 88
341 88
342 88
343 89
344 89
345 89
346 90
347 90
348 91
349 91
350 91
351 92
352 92
353 92
354 92
355 93
356 93
357 93
358 94
359 94
360 94
361 95
362 95
363 95
364 96
365 96
366 96
367 96
368 97
369 97
370 97
371 97
372 97
373 97
374 97
375 97
376 97
376 96
376 95
375 95
374 94
375 93
374 93
373 92
372 91
371 90
370 89
369 88
368 87
367 86
368 85
367 85
366 84
367 83
366 83
365 83
364 82
363 81
362 80
361 79
360 78
359 78
358 77
357 76
356 75
355 75
354 74
353 73
352 73
351 72
350 71
349 71
348 70
347 69
348 68
348 67
349 66
350 65
351 65
352 64
353 64
354 64
355 63
356 62
357 62
358 62
359 61
360 60
361 59
362 58
363 57
364 56
365 56
366 55
366 54
367 53
368 52
368 51
369 50
370 49
371 48
372 47
373 46
374 45
374 44
375 43
375 42
374 42
373 42
372 42
371 42
370 42
369 42
368 42
367 42
366 42
365 42
364 42
363 42
362 43
361 43
360 43
359 43
358 43
357 43
356 43
355 44
354 44
353 44
352 45
351 45
350 45
349 45
348 46
347 46
346 46
345 47
344 47
343 47
342 47
341 48
340 48
339 48
338 49
337 49
336 50
335 50
334 50
333 51
332 51
331 51
330 51
329 52
328 52
327 53
326 53
325 54
324 54
323 54
322 55
321 55
320 55
319 56
318 56
317 56
316 56
315 56
314 56
313 56
312 56
311 56
310 56
309 56
308 56
307 56
306 55
305 55
304 55
303 55
302 55
301 55
300 55
299 54
298 54
297 54
296 54
295 54
294 54
293 53
292 53
291 52
290 52
289 52
288 52
287 52
286 52
285 51
284 51
283 51
282 51
281 51
280 50
279 50
278 50
277 50
276 50
275 49
274 49
273 49
272 49
271 48
270 48
269 48
268 48
267 48
266 47
265 47
264 47
263 47
262 47
261 46
260 46
259 46
258 46
257 45
256 45
255 45
254 45
253 45
252 44
251 44
250 44
249 44
248 44
247 43
246 43
245 43
244 43
243 43
242 42
241 42
240 42
239 42
238 42
237 41
236 41
235 41
234 41
233 41
232 40
231 40
230 40
229 40
228 40
227 40
226 39
225 39
224 39
223 39
222 39
221 39
220 38
219 38
218 38
217 38
216 38
215 38
214 37
213 37
212 37
211 37
210 37
209 36
208 36
207 36
206 36
205 36
204 35
203 35
202 35
201 35
200 35
199 35
198 34
197 34
196 34
195 34
194 34
193 34
192 33
193 32
194 31
195 30
196 30
196 29
197 28
197 27
197 26
196 26
195 25
196 24
195 24
194 23
195 22
194 22
193 21
194 20
194 19
194 18
193 18
192 17
193 16
193 15
192 15
191 14
190 13
191 12
190 12
189 11
188 10
189 9
188 9
187 8
188 7
187 7
186 6
185 5
186 4
186 3
185 3
184 2
