190 2
189 3
188 3
187 4
186 5
185 5
184 6
183 7
182 8
181 9
180 10
179 11
178 12
177 13
176 14
175 15
174 16
173 17
173 18
172 19
171 19
171 20
170 21
169 22
168 23
167 24
166 25
166 26
165 27
164 28
163 29
162 30
161 31
161 32
160 33
159 34
158 34
157 34
156 34
155 34
154 34
153 34
152 33
151 33
150 33
149 33
148 33
147 33
146 33
145 33
144 33
143 33
142 33
141 33
140 33
139 33
138 33
137 33
136 33
135 33
134 33
133 33
132 33
131 33
130 33
129 33
128 33
127 33
126 33
125 33
124 33
123 33
122 33
121 33
120 33
119 33
118 33
117 33
116 33
115 33
114 33
113 33
112 33
111 33
110 33
109 33
108 33
107 33
106 33
105 34
104 34
103 34
102 34
101 34
100 34
99 34
98 34
97 34
96 34
95 34
94 34
93 34
92 34
91 34
90 35
89 35
88 35
87 35
86 35
85 35
84 35
83 35
82 35
81 35
80 36
79 36
78 36
77 36
76 36
75 36
74 36
73 36
72 37
71 37
70 37
69 37
68 37
67 37
66 37
65 37
64 37
63 37
62 37
61 37
60 37
59 38
58 38
57 38
56 38
55 38
54 38
53 38
52 38
51 38
50 38
49 38
48 38
47 38
46 38
45 39
44 39
43 39
42 39
41 39
40 39
39 39
38 39
37 39
36 39
35 39
34 40
33 40
32 40
31 40
30 40
29 41
28 41
27 41
26 42
25 42
24 41
23 42
22 43
21 43
20 43
19 43
18 43
17 44
16 44
15 44
14 45
13 45
12 46
11 47
10 47
9 47
8 48
8 49
9 50
10 50
11 51
11 52
12 52
13 53
14 54
13 55
12 55
11 55
10 56
9 57
8 58
8 59
7 60
6 61
5 62
4 62
3 62
3 63
3 64
4 65
5 66
4 67
3 67
3 68
4 69
4 70
5 70
6 70
6 69
7 68
8 67
9 68
10 69
10 70
11 71
12 72
13 72
14 73
15 74
16 74
17 74
18 74
19 74
20 75
21 75
22 76
23 76
24 76
25 76
26 77
27 77
28 78
29 78
30 78
31 78
32 79
33 80
33 81
34 81
35 80
36 80
37 81
38 82
39 82
40 82
41 83
42 83
43 83
44 84
45 84
46 84
47 85
48 86
48 87
49 86
50 86
51 86
52 87
53 87
54 87
55 87
56 88
57 88
58 88
59 89
60 89
61 89
62 89
63 90
64 90
65 90
66 90
67 91
68 91
69 91
70 91
71 92
72 93
73 93
74 93
75 94
76 94
77 94
78 95
79 95
80 95
81 95
82 96
83 96
84 96
85 96
86 97
87 97
88 97
89 97
90 98
91 98
92 98
93 99
94 99
95 99
96 99
97 99
98 100
99 100
100 100
101 100
102 101
103 101
104 101
105 102
106 102
107 102
108 102
109 103
110 103
111 103
112 103
113 103
114 103
115 104
116 104
117 104
118 104
119 105
120 105
121 105
122 105
123 105
124 105
125 106
126 106
127 106
128 106
129 106
130 106
131 106
132 106
133 106
134 106
135 106
136 107
137 107
138 107
139 107
140 107
141 107
142 107
143 107
144 107
145 107
146 107
147 108
148 108
149 108
150 108
151 108
152 108
153 108
154 108
155 108
156 108
157 108
158 109
159 108
160 109
161 109
162 109
163 109
164 109
165 109
166 109
167 109
168 109
169 109
170 109
171 110
172 109
173 110
174 110
175 110
176 110
177 110
178 110
179 110
180 111
180 112
180 113
181 114
181 115
181 116
182 117
182 118
182 119
182 120
182 121
182 122
182 123
183 124
183 125
183 126
183 127
184 128
184 129
184 130
185 131
185 132
185 133
186 134
186 135
186 136
187 137
188 138
188 139
189 139
189 138
190 137
190 136
191 135
191 134
192 133
192 132
193 131
193 130
194 129
195 128
196 129
197 130
198 131
199 132
200 133
201 134
202 135
203 136
204 137
205 138
206 139
207 140
208 141
209 142
210 143
211 144
212 144
213 143
213 142
212 141
213 140
213 139
213 138
213 137
213 136
213 135
213 134
214 133
214 132
214 131
214 130
214 129
214 128
214 127
214 126
213 125
214 124
214 123
214 122
214 121
214 120
214 119
214 118
214 117
214 116
214 115
213 115
212 114
213 113
213 112
213 111
214 110
215 110
216 110
217 110
218 110
219 110
220 110
221 109
222 109
223 109
224 109
225 109
226 109
227 109
228 109
229 109
230 108
231 108
232 108
233 108
234 108
235 108
236 108
237 108
238 107
239 107
240 107
241 107
242 107
243 106
244 106
245 105
246 105
247 106
248 107
249 108
250 109
251 110
252 111
253 111
254 112
255 113
256 114
257 114
258 115
259 116
260 116
261 117
262 118
263 118
264 119
265 120
266 120
267 121
268 121
269 122
270 123
271 123
272 124
273 124
274 125
275 126
276 126
277 127
278 127
279 128
280 128
281 129
282 129
283 129
284 130
285 130
286 131
287 130
287 129
288 128
288 127
288 126
289 125
289 124
289 123
289 122
290 121
290 120
290 119
290 118
290 117
291 116
291 115
291 114
291 113
291 112
291 111
291 110
292 109
292 108
292 107
292 106
292 105
292 104
292 103
291 103
290 102
291 101
291 100
291 99
291 98
291 97
292 96
291 96
290 95
291 94
290 94
289 94
288 94
287 94
286 94
285 94
284 94
283 94
282 93
283 92
284 91
285 91
286 90
287 90
288 90
289 89
290 89
291 88
292 88
293 88
294 87
295 87
296 87
297 87
298 86
299 86
300 86
301 86
302 86
303 85
304 85
305 85
306 84
307 84
308 84
309 84
310 84
311 84
312 83
313 83
314 83
315 83
316 83
317 83
318 83
319 83
320 82
321 82
322 82
323 82
324 82
325 82
326 82
327 82
328 82
329 82
330 83
331 83
332 84
333 84
334 85
335 85
336 86
337 86
338 86
339 87
340 87
341 88
342 88
343 89
344 89
345 89
346 90
347 90
348 90
349 90
350 91
351 91
352 91
353 91
354 91
355 92
356 92
357 93
358 93
359 93
360 94
361 94
362 94
363 94
364 94
365 94
366 95
367 95
368 95
369 95
370 95
371 95
372 95
373 95
374 95
375 95
376 95
377 95
378 95
379 95
380 95
381 95
382 95
383 95
384 95
385 95
386 95
387 95
388 94
389 94
389 93
389 92
389 91
389 90
388 90
387 89
388 88
387 88
386 87
387 86
386 86
385 85
386 84
385 84
384 83
385 82
385 81
384 81
383 80
384 79
384 78
383 78
382 77
383 76
382 76
381 75
382 74
382 73
381 73
380 72
381 71
380 71
379 70
380 69
379 69
378 68
379 67
378 67
377 66
376 65
377 64
377 63
376 63
375 62
374 61
375 60
374 60
373 59
374 58
374 57
373 56
374 55
374 54
374 53
374 52
374 51
375 50
375 49
375 48
376 47
376 46
376 45
376 44
377 43
377 42
377 41
377 40
377 39
378 38
378 37
378 36
378 35
378 34
378 33
378 32
378 31
378 30
378 29
379 28
379 27
379 26
379 25
379 24
380 23
380 22
380 21
381 20
381 19
381 18
380 18
379 18
378 18
377 18
376 18
375 19
374 19
373 20
372 20
371 20
370 21
369 21
368 22
367 22
366 23
365 23
364 24
363 24
362 25
361 26
360 27
359 27
358 28
357 29
356 29
355 30
354 31
353 31
352 32
351 33
350 34
349 34
348 35
347 36
346 37
345 37
344 38
343 39
342 40
341 40
340 41
339 42
338 43
337 44
336 44
335 45
334 46
333 46
332 47
331 48
330 49
329 50
328 51
327 51
326 52
325 53
324 53
323 54
322 54
321 54
320 54
319 54
318 55
317 55
316 55
315 55
314 55
313 55
312 55
311 55
310 56
309 56
308 56
307 56
306 56
305 56
304 56
303 56
302 56
301 56
300 56
299 56
298 56
297 56
296 56
295 56
294 55
293 55
292 54
293 53
293 52
294 51
294 50
294 49
293 48
294 47
293 47
292 46
291 45
290 45
289 44
288 44
287 43
286 43
285 43
284 43
283 43
282 44
281 44
280 44
279 45
278 45
277 45
276 46
275 46
274 47
273 47
272 48
271 48
270 48
269 48
268 49
267 49
266 49
265 49
264 49
263 48
262 48
261 48
260 48
259 47
258 47
257 47
256 47
255 46
254 46
253 46
252 46
251 46
250 46
249 45
248 45
247 45
246 45
245 45
244 44
243 44
242 44
241 44
240 44
239 43
238 43
237 43
236 43
235 42
234 42
233 42
232 42
231 42
230 41
229 41
228 41
227 41
226 41
225 41
224 40
223 40
222 40
221 40
220 40
219 40
218 40
217 39
216 39
215 39
214 39
213 39
212 39
211 38
212 37
213 36
214 36
215 35
216 34
216 33
217 32
217 31
218 30
217 30
216 29
215 29
214 28
213 27
212 26
211 25
212 24
211 24
210 23
209 22
208 22
207 21
206 20
207 19
206 19
205 18
204 17
203 16
202 16
201 15
200 14
199 13
198 12
199 11
198 11
197 10
196 9
197 8
196 8
195 7
194 6
193 5
192 4
193 3
193 2
192 2
191 2
