164 2
163 3
162 3
161 4
161 5
161 6
160 7
159 8
159 9
158 10
158 11
157 12
157 13
156 14
155 15
154 16
154 17
154 18
154 19
154 20
154 21
153 22
153 23
153 24
152 25
152 26
152 27
152 28
152 29
152 30
152 31
152 32
152 33
152 34
152 35
153 36
154 37
155 38
154 39
153 39
152 39
151 39
150 39
149 39
148 39
147 40
146 40
145 40
144 40
143 40
142 40
141 40
140 40
139 40
138 41
137 41
136 41
135 41
134 41
133 41
132 41
131 41
130 41
129 42
128 42
127 42
126 42
125 42
124 42
123 42
122 42
121 42
120 42
119 42
118 42
117 42
116 42
115 42
114 42
113 42
112 42
111 42
110 42
109 42
108 42
107 42
106 41
105 41
104 41
103 41
102 41
101 40
100 40
99 40
98 39
97 39
96 39
95 39
94 38
93 38
92 38
91 38
90 38
89 39
88 39
87 39
86 40
85 40
84 41
83 42
83 43
83 44
83 45
83 46
84 47
85 48
84 49
83 49
82 49
81 49
80 50
79 50
78 50
77 50
76 50
75 51
74 51
73 51
72 51
71 51
70 51
69 51
68 51
67 51
66 51
65 51
64 50
63 49
62 49
61 48
60 48
59 47
58 46
57 45
56 44
55 43
54 42
53 41
52 41
51 40
50 39
49 38
48 37
49 36
48 36
47 35
46 34
45 33
44 32
43 32
42 31
41 30
40 29
39 29
38 28
37 27
36 27
35 26
34 26
33 25
32 24
31 24
30 23
29 22
28 22
27 21
26 21
25 21
24 20
23 20
22 19
21 19
20 19
19 19
18 18
17 18
16 18
15 18
14 18
13 18
12 18
11 18
10 18
10 19
10 20
10 21
10 22
11 23
12 24
12 25
12 26
13 27
13 28
13 29
14 30
14 31
14 32
14 33
14 34
14 35
14 36
14 37
15 38
15 39
15 40
15 41
15 42
15 43
15 44
15 45
16 46
16 47
16 48
16 49
16 50
16 51
17 52
17 53
18 54
19 55
19 56
20 57
21 58
20 59
19 60
18 61
17 62
16 63
16 64
15 65
14 66
13 67
12 68
12 69
11 70
10 71
9 72
8 73
8 74
7 75
6 76
5 77
4 78
3 79
3 80
3 81
2 82
2 83
3 84
4 84
5 85
6 85
7 85
8 86
9 86
10 86
11 86
12 87
13 87
14 87
15 87
16 87
17 87
18 87
19 88
20 88
21 88
22 88
23 88
24 88
25 88
26 88
27 88
28 88
29 88
30 88
31 88
32 88
33 88
34 88
35 87
36 87
37 87
38 87
39 87
40 87
41 87
42 87
43 87
44 86
45 86
46 86
47 86
48 85
49 85
50 85
51 85
52 85
53 84
54 84
55 84
56 83
57 83
58 83
59 83
60 82
61 82
62 82
63 82
64 82
65 82
66 82
67 81
68 81
69 81
70 81
71 81
72 81
73 81
74 81
75 81
76 81
77 82
78 81
79 81
80 82
81 82
82 82
83 82
84 83
83 84
82 85
81 85
81 86
81 87
81 88
81 89
81 90
81 91
82 92
82 93
82 94
82 95
82 96
81 97
81 98
82 99
82 100
82 101
82 102
82 103
82 104
82 105
83 106
83 107
84 108
84 109
84 110
85 111
85 112
86 112
87 113
87 114
88 114
89 115
90 114
91 114
92 114
93 113
94 113
95 112
96 112
97 111
98 110
99 109
100 109
101 108
102 108
103 107
104 107
105 106
106 106
107 105
108 104
108 103
109 102
110 101
111 101
112 100
113 99
114 99
115 98
116 97
117 96
118 96
119 95
120 94
121 93
122 92
123 92
124 92
125 92
126 92
127 92
128 92
129 92
130 92
131 93
132 93
133 93
134 93
135 93
136 93
137 93
138 93
139 94
140 94
141 94
142 94
143 94
144 95
145 96
145 97
144 98
144 99
145 100
145 101
146 102
146 103
146 104
146 105
146 106
147 107
147 108
148 109
148 110
148 111
148 112
148 113
149 114
149 115
150 116
150 117
150 118
150 119
151 120
152 120
153 120
154 120
155 119
156 119
157 118
158 118
159 117
160 117
161 117
162 116
163 116
164 115
165 115
166 114
167 113
168 113
169 112
170 111
171 111
172 111
173 110
174 110
175 111
175 112
175 113
176 114
177 115
178 115
179 115
180 114
181 114
182 113
183 113
184 112
185 112
186 111
187 110
188 110
189 109
190 108
191 107
192 106
193 106
194 105
195 104
196 103
196 102
197 101
198 100
199 100
200 100
201 100
202 100
203 100
204 100
205 100
206 100
207 100
208 100
209 100
210 100
211 100
212 100
213 100
214 101
215 100
216 101
217 100
218 100
219 100
220 100
221 100
222 100
223 100
224 101
225 100
226 100
227 100
228 100
229 100
230 101
231 100
232 100
233 100
234 100
235 100
236 100
237 100
238 100
239 100
240 100
241 100
242 99
243 99
244 99
245 99
246 99
247 99
248 99
249 99
250 99
251 99
252 99
253 99
254 99
255 99
256 99
257 98
258 98
259 98
260 98
261 98
262 98
263 98
264 98
265 98
266 98
267 98
268 98
269 97
270 97
271 97
272 97
273 97
274 97
275 97
276 97
277 97
278 97
279 96
280 97
281 96
282 96
283 96
284 96
285 96
286 95
287 95
288 95
289 95
290 95
291 94
292 94
293 94
294 94
295 94
296 93
297 93
298 93
299 93
300 92
301 92
302 92
303 92
304 91
305 91
306 91
307 91
308 90
309 90
310 90
311 89
312 89
313 88
314 88
315 88
316 87
317 87
318 87
319 86
320 86
321 85
322 85
323 84
324 84
325 83
326 83
327 82
328 81
329 80
330 80
331 79
332 78
333 77
334 76
335 75
336 74
337 73
338 72
339 71
339 70
340 69
340 68
340 67
341 66
341 65
342 64
342 63
343 62
342 62
341 61
340 60
339 59
340 58
339 58
338 58
337 57
336 57
335 56
334 56
333 55
332 55
331 55
330 54
329 54
328 53
327 52
326 51
325 51
324 51
323 50
322 50
321 50
320 49
319 49
318 48
317 48
316 47
315 47
314 47
313 46
312 46
311 46
310 45
309 45
308 45
307 44
306 44
305 44
304 43
303 43
302 43
301 42
300 42
299 42
298 41
297 41
296 41
295 41
294 40
293 40
292 40
291 40
290 39
289 39
288 39
287 38
286 38
285 38
284 38
283 38
282 38
281 37
280 37
279 37
278 36
277 36
276 35
275 35
274 35
273 35
272 35
271 35
270 35
269 34
268 34
267 34
266 34
265 34
264 34
263 34
262 34
261 34
260 33
259 33
258 33
257 33
256 33
255 32
254 32
253 32
252 32
251 32
250 32
249 32
248 32
247 32
246 32
245 32
244 32
243 32
242 32
241 32
240 32
239 32
238 32
237 32
236 32
235 32
234 32
233 32
232 32
231 32
230 32
229 32
228 32
227 32
226 32
225 32
224 32
223 32
222 32
221 32
220 32
219 32
218 32
217 32
216 32
215 32
214 32
213 32
212 32
211 33
210 33
209 33
208 33
207 33
206 33
205 33
204 32
203 31
202 31
201 30
200 29
199 28
198 27
197 26
196 25
195 24
194 24
193 23
192 22
191 22
190 21
191 20
190 20
189 20
188 19
187 18
186 18
185 17
184 16
183 15
182 14
181 13
180 13
179 12
178 11
177 10
176 10
175 9
174 8
173 8
172 7
171 6
170 6
169 5
168 5
167 4
166 3
165 2
