218 3
217 4
216 4
215 4
214 5
213 5
212 6
211 6
210 7
209 7
208 8
207 9
206 9
205 10
204 11
203 11
202 12
201 13
200 14
199 15
198 16
197 16
196 17
195 18
194 19
193 20
192 21
191 22
190 23
189 23
188 24
187 25
186 26
185 27
184 28
183 29
182 30
181 31
180 31
179 31
178 32
177 31
176 31
175 31
174 31
173 31
172 31
171 30
170 30
169 30
168 30
167 30
166 30
165 30
164 30
163 29
162 29
161 29
160 29
159 29
158 29
157 29
156 29
155 29
154 29
153 29
152 29
151 29
150 29
149 29
148 29
147 29
146 29
145 29
144 29
143 29
142 29
141 29
140 29
139 29
138 30
137 30
136 30
135 30
134 30
133 30
132 31
131 31
130 31
129 31
128 32
127 32
126 32
125 32
124 33
123 33
122 33
121 34
120 34
119 34
118 35
117 35
116 36
115 36
114 37
113 37
112 38
111 38
110 39
109 39
108 40
107 40
106 41
105 42
104 42
103 43
102 44
101 45
100 45
99 46
98 47
97 48
96 49
95 50
95 51
94 52
93 53
92 54
91 55
91 56
90 57
89 58
88 59
87 60
86 61
85 62
84 63
83 64
82 65
81 66
80 66
79 67
78 68
77 69
76 70
75 70
74 71
73 72
72 72
71 73
70 74
69 74
68 75
67 76
66 76
65 77
64 77
63 77
62 78
61 78
60 79
59 79
58 79
57 80
56 80
55 81
54 81
53 81
52 82
51 82
50 83
49 83
48 83
47 84
46 85
45 85
44 86
43 86
42 86
41 87
40 87
39 88
38 88
37 88
36 89
35 89
34 90
33 90
32 91
31 91
30 92
29 92
28 93
27 93
26 93
25 94
24 94
23 94
22 94
21 95
20 95
19 95
18 95
17 96
16 96
15 96
14 96
13 97
12 97
11 97
10 98
9 98
8 99
7 100
6 101
5 102
5 103
4 104
4 105
4 106
3 107
3 108
3 109
3 110
3 111
3 112
4 113
5 114
6 115
6 116
6 117
5 118
5 119
5 120
5 121
6 122
6 123
7 124
7 125
8 126
9 126
10 127
10 128
11 128
12 128
13 129
14 129
15 130
16 130
17 130
18 131
19 131
20 131
21 132
22 132
23 133
24 133
25 133
26 134
27 134
28 135
29 135
30 135
31 135
32 136
33 136
34 136
35 136
36 136
37 137
38 137
39 137
40 137
41 137
42 137
43 138
44 138
45 138
46 138
47 138
48 138
49 138
50 139
51 139
52 139
53 139
54 139
55 139
56 139
57 139
58 140
59 140
60 141
61 142
62 142
63 142
64 143
65 143
66 143
67 144
68 144
69 144
70 145
71 145
72 145
73 145
74 145
75 145
76 145
77 144
78 145
79 145
80 145
81 146
82 146
83 146
84 146
85 147
86 147
87 147
88 147
89 148
90 148
91 148
92 148
93 149
94 149
95 149
96 149
97 150
98 150
99 151
100 151
101 151
102 151
103 151
104 152
105 152
106 152
107 152
108 152
109 153
110 153
111 153
112 153
113 153
114 154
115 154
116 154
117 154
118 154
119 154
120 155
121 155
122 155
123 155
124 155
125 155
126 156
127 156
128 156
129 156
130 156
131 156
132 156
133 156
134 156
135 157
136 157
137 157
138 157
139 157
140 157
141 157
142 157
143 157
144 157
145 157
146 157
147 157
148 157
149 158
150 158
151 158
152 158
153 158
154 158
155 158
156 158
157 158
158 158
159 158
160 158
161 158
162 158
163 158
164 158
165 158
166 158
167 158
168 158
169 158
170 158
171 158
172 158
173 159
174 158
175 159
176 159
177 159
178 159
179 159
180 159
181 159
182 158
183 158
184 158
185 158
186 158
187 159
188 159
189 158
190 158
191 158
192 158
193 159
194 160
194 161
194 162
195 163
195 164
196 165
196 166
196 167
197 168
197 169
197 170
198 171
198 172
199 173
199 174
200 175
200 176
201 177
202 178
202 179
202 180
203 181
204 182
205 182
206 183
207 182
208 182
208 181
209 180
210 180
210 179
211 178
211 177
212 176
213 177
214 178
215 179
216 180
217 181
218 182
219 183
220 184
221 184
222 185
223 185
224 185
225 185
226 185
226 184
227 183
227 182
228 181
228 180
228 179
229 178
229 177
229 176
230 175
230 174
230 173
230 172
231 171
231 170
231 169
231 168
231 167
231 166
231 165
231 164
231 163
231 162
231 161
231 160
231 159
231 158
231 157
231 156
230 156
229 155
228 154
229 153
230 153
231 153
232 152
233 152
234 152
235 152
236 151
237 151
238 150
239 150
240 149
241 149
242 149
243 150
244 150
245 150
246 149
247 149
248 148
249 147
250 146
251 146
252 146
253 146
254 146
255 147
256 148
257 149
258 150
259 151
260 152
261 152
262 153
263 154
264 155
265 155
266 156
267 156
268 157
269 158
270 159
271 159
272 160
273 161
274 161
275 162
276 163
277 163
278 164
279 164
280 165
281 165
282 165
283 166
284 166
285 166
286 166
287 165
288 164
289 163
289 162
290 161
290 160
291 159
292 158
292 157
293 156
294 155
294 154
295 153
295 152
296 151
296 150
297 149
298 148
298 147
299 146
300 145
301 144
302 143
303 142
304 141
304 140
305 139
306 138
307 137
307 136
308 135
308 134
309 133
309 132
310 131
311 130
311 129
312 128
312 127
313 126
313 125
312 125
311 125
310 125
309 125
308 125
307 125
306 125
305 125
304 125
303 125
302 124
301 124
300 124
299 124
298 124
297 123
296 123
295 123
294 123
293 122
292 121
293 120
294 120
295 120
296 120
297 119
298 119
299 119
300 119
301 119
302 118
303 118
304 118
305 118
306 118
307 118
308 118
309 118
310 118
311 118
312 118
313 118
314 119
315 119
316 119
317 119
318 119
319 120
320 120
321 121
322 121
323 122
324 123
325 124
326 124
327 125
328 126
329 127
330 128
331 129
332 130
333 131
334 132
335 132
336 133
336 134
337 135
338 135
339 136
340 137
341 138
342 139
343 139
344 140
345 141
346 141
347 142
348 143
349 143
350 144
351 145
352 145
353 146
354 146
355 147
356 147
357 148
358 148
359 148
360 149
361 149
362 150
363 151
364 151
365 152
366 152
367 152
368 153
369 153
370 153
371 153
372 154
373 154
374 154
375 155
376 155
377 155
378 155
378 154
379 153
378 153
377 152
378 151
377 151
376 150
377 149
376 149
375 148
376 147
376 146
376 145
376 144
375 144
374 143
375 142
375 141
375 140
374 140
373 139
374 138
374 137
374 136
374 135
373 135
372 134
373 133
373 132
373 131
373 130
372 130
371 129
372 128
372 127
371 127
370 126
371 125
371 124
370 124
369 123
370 122
369 122
368 121
369 120
368 120
367 119
368 118
368 117
367 117
366 116
367 115
366 115
365 114
366 113
366 112
365 112
364 111
365 110
365 109
364 109
363 108
364 107
364 106
364 105
364 104
364 103
364 102
364 101
365 100
365 99
365 98
366 97
366 96
366 95
367 94
367 93
368 92
369 91
369 90
370 89
370 88
371 87
371 86
371 85
372 84
372 83
372 82
372 81
373 80
373 79
373 78
374 77
374 76
374 75
375 74
375 73
375 72
376 71
376 70
376 69
377 68
377 67
377 66
378 65
378 64
378 63
379 62
379 61
380 60
380 59
381 58
381 57
382 56
383 55
383 54
384 53
383 53
382 53
381 53
380 53
379 53
378 53
377 54
376 54
375 54
374 55
373 55
372 55
371 55
370 56
369 56
368 57
367 57
366 58
365 58
364 59
363 59
362 59
361 60
360 61
359 61
358 62
357 62
356 63
355 63
354 64
353 65
352 66
351 66
350 67
349 68
348 69
347 70
346 70
345 71
344 72
343 73
342 73
341 74
340 75
339 76
338 77
337 77
336 78
335 79
334 79
333 80
332 81
331 82
330 82
329 83
328 84
327 85
326 85
325 86
324 86
323 86
322 86
321 87
320 87
319 87
318 87
317 87
316 86
315 86
314 86
313 86
312 86
311 86
310 86
309 86
308 85
307 85
306 85
305 85
304 85
303 85
302 84
301 84
300 83
299 83
298 83
297 83
296 82
297 81
298 81
299 81
300 81
301 81
302 81
303 82
304 82
305 82
306 82
307 82
308 81
309 81
310 81
311 80
312 79
312 78
313 77
312 77
311 76
312 75
311 75
310 74
309 73
308 72
307 71
306 71
305 70
304 70
303 70
302 70
301 70
300 70
299 70
298 70
297 70
296 70
295 70
294 71
293 71
292 71
291 71
290 72
289 72
288 73
287 74
286 74
285 75
284 75
283 76
282 76
281 76
280 77
279 76
278 76
277 76
276 76
275 75
274 75
273 75
272 74
271 74
270 73
269 73
268 73
267 72
266 72
265 72
264 71
263 71
262 70
261 70
260 70
259 69
258 69
257 69
256 68
255 68
254 67
253 67
252 66
251 66
250 66
249 66
248 65
247 65
246 64
245 64
244 64
243 64
242 63
241 63
240 63
239 62
238 62
237 62
236 61
235 61
234 61
233 60
232 60
231 59
230 59
229 58
228 58
227 57
226 57
225 56
226 55
227 55
228 55
229 54
230 54
231 53
232 53
233 53
234 52
235 52
236 51
237 50
238 50
239 49
240 49
241 48
241 47
242 46
242 45
242 44
242 43
242 42
242 41
242 40
242 39
241 39
240 38
241 37
241 36
241 35
240 35
239 34
240 33
240 32
240 31
239 31
238 30
239 29
239 28
238 28
237 27
238 26
238 25
237 25
236 24
237 23
236 23
235 22
236 21
236 20
235 20
234 19
235 18
234 18
233 17
234 16
233 16
232 15
231 14
232 13
231 13
230 12
229 11
228 10
227 9
226 8
225 7
226 6
225 6
224 6
223 5
222 4
221 3
220 3
219 3
