181 5
180 6
179 7
178 8
177 9
176 10
176 11
175 12
174 12
173 13
172 14
171 15
170 16
169 17
168 18
167 19
166 20
165 21
165 22
164 23
164 24
163 25
163 26
162 27
162 28
161 29
161 30
160 31
159 32
159 33
158 34
158 35
157 36
157 37
157 38
156 39
155 40
154 41
153 42
152 42
152 43
151 44
151 45
151 46
152 47
153 48
154 49
155 50
156 50
157 51
158 51
159 52
160 52
161 53
162 53
163 54
162 55
161 55
160 55
159 55
158 55
157 55
156 56
155 56
154 56
153 56
152 56
151 56
150 57
149 57
148 57
147 57
146 57
145 58
144 58
143 58
142 58
141 58
140 58
139 58
138 58
137 58
136 58
135 59
134 59
133 59
132 59
131 59
130 59
129 59
128 60
127 60
126 60
125 60
124 60
123 60
122 59
121 59
120 58
119 58
118 57
117 56
116 56
115 55
114 54
113 54
112 53
111 53
110 52
109 52
108 51
107 51
106 51
105 51
104 50
103 50
102 50
101 50
100 51
99 51
98 51
97 52
96 53
95 53
94 54
93 55
93 56
92 57
92 58
93 59
94 60
95 60
96 61
97 61
98 62
99 62
100 62
101 63
100 64
99 65
98 65
97 64
96 65
95 65
94 65
93 65
92 66
91 66
90 66
89 65
88 66
87 66
86 66
85 66
84 66
83 66
82 66
81 66
80 66
79 65
78 65
77 65
76 65
75 65
74 65
73 65
72 64
71 64
70 64
69 64
68 63
67 63
66 63
65 63
64 63
63 62
62 62
61 62
60 62
59 61
58 61
57 60
56 59
55 59
54 59
53 59
52 58
51 57
50 57
49 56
48 55
47 55
46 54
45 54
44 53
43 53
42 52
41 52
40 51
39 51
38 50
37 50
36 49
35 49
34 48
33 48
32 47
31 46
30 46
29 46
28 46
27 45
26 45
25 45
24 45
23 45
22 44
21 44
20 44
19 43
18 43
17 43
16 43
15 42
16 41
15 41
14 42
13 42
12 42
11 42
10 42
9 42
8 42
7 42
6 42
5 42
4 42
3 42
2 43
2 44
2 45
2 46
3 47
3 48
3 49
4 50
4 51
4 52
4 53
4 54
4 55
4 56
5 57
5 58
5 59
5 60
5 61
5 62
6 63
6 64
7 64
8 65
8 66
8 67
9 68
9 69
9 70
10 71
10 72
10 73
11 74
10 75
10 76
10 77
9 78
9 79
10 79
11 80
12 81
13 82
13 83
13 84
13 85
12 86
12 87
12 88
11 89
10 90
10 91
10 92
10 93
9 94
9 95
9 96
8 97
8 98
8 99
7 100
7 101
7 102
6 103
6 104
6 105
5 106
4 106
4 107
3 108
3 109
4 110
4 111
4 112
4 113
4 114
4 115
4 116
3 117
3 118
3 119
2 120
2 121
2 122
2 123
2 124
3 124
4 124
5 124
6 124
7 125
7 126
6 127
6 128
7 128
8 128
9 129
10 129
11 129
12 128
13 128
14 128
15 128
16 128
16 127
17 126
18 126
19 127
20 126
21 127
22 126
23 126
24 126
25 125
26 125
27 124
28 124
29 124
30 124
31 123
32 123
33 123
34 122
35 122
36 122
37 121
38 121
39 121
40 120
41 120
42 119
43 119
44 118
45 119
46 118
47 118
48 119
48 118
49 117
50 118
51 118
51 117
52 116
51 115
52 114
53 114
54 114
55 114
56 113
57 113
57 112
58 111
58 110
59 109
60 109
61 109
62 110
62 111
62 112
63 111
63 110
64 109
65 110
66 109
67 108
67 107
68 106
68 105
69 104
70 105
71 105
72 105
73 105
74 105
75 105
76 104
77 104
78 104
79 105
80 105
81 105
82 105
83 105
84 105
85 106
86 105
87 105
88 105
89 105
90 106
91 106
92 106
93 107
94 106
95 107
96 108
95 109
94 109
93 109
92 109
91 109
90 110
89 111
88 111
87 112
86 112
85 112
85 113
86 114
86 115
86 116
87 117
88 118
89 119
90 119
91 120
92 121
92 122
93 123
93 124
93 125
93 126
93 127
93 128
94 129
94 130
94 131
94 132
95 133
96 134
97 135
98 136
99 137
99 138
100 139
101 140
102 141
103 142
104 143
104 144
105 145
105 146
106 145
107 145
108 145
109 144
110 144
111 144
112 143
113 142
114 142
115 141
116 141
117 140
118 139
119 139
120 138
121 138
122 137
123 137
124 136
125 136
126 135
127 134
128 134
129 133
130 132
131 132
132 131
133 131
134 130
135 129
136 129
137 128
138 127
139 127
140 126
141 125
142 125
143 124
144 124
145 124
146 124
147 125
148 125
149 126
150 127
150 128
151 128
152 129
153 129
154 130
155 130
156 130
157 130
158 131
159 131
160 131
161 132
161 133
161 134
161 135
161 136
161 137
162 138
161 139
161 140
162 141
161 142
161 143
161 144
161 145
161 146
161 147
162 148
162 149
162 150
162 151
162 152
163 153
164 153
165 154
165 155
165 156
166 157
167 158
166 159
166 160
166 161
167 162
168 162
169 162
170 162
171 162
172 162
173 161
174 161
175 160
176 160
177 159
178 158
179 158
180 157
181 157
182 156
183 157
184 158
184 159
184 160
184 161
184 162
185 163
186 163
187 162
188 162
189 161
190 161
191 160
192 159
193 158
194 157
195 156
196 155
197 155
197 154
198 153
199 152
200 151
201 150
202 149
203 148
204 147
205 146
206 145
207 144
207 143
208 142
208 141
209 140
210 139
211 138
212 137
213 137
214 137
215 137
216 137
217 137
218 137
219 137
220 137
221 138
222 138
223 138
224 138
225 138
226 138
227 138
228 138
229 138
230 139
231 139
232 139
233 139
234 139
235 139
236 139
237 139
238 139
239 139
240 139
241 139
242 139
243 139
244 139
245 139
246 139
247 139
248 139
249 139
250 139
251 139
252 139
253 139
254 139
255 139
256 139
257 139
258 139
259 139
260 139
261 139
262 139
263 139
264 139
265 139
266 139
267 139
268 139
269 139
270 138
271 138
272 138
273 138
274 138
275 138
276 138
277 138
278 138
279 138
280 138
281 138
282 138
283 138
284 138
285 138
286 138
287 137
288 137
289 137
290 137
291 137
292 137
293 136
294 136
295 136
296 136
297 136
298 136
299 135
300 135
301 135
302 135
303 135
304 134
305 134
306 134
307 134
308 134
309 133
310 133
311 133
312 132
313 132
314 132
315 131
316 131
317 131
318 131
319 130
320 130
321 130
322 129
323 129
324 129
325 128
326 128
327 127
328 127
329 127
330 126
331 126
332 126
333 125
334 125
335 124
336 124
337 124
338 123
339 123
340 122
341 121
342 121
343 121
344 120
345 120
346 120
347 119
348 119
349 118
350 118
351 118
352 117
353 117
354 116
355 115
356 115
357 114
358 114
359 113
360 113
361 112
362 112
363 111
364 111
365 110
366 109
367 108
368 108
369 107
370 107
371 106
372 105
373 105
374 104
375 103
376 103
377 102
378 101
379 100
379 99
380 98
381 97
381 96
382 95
382 94
382 93
382 92
382 91
381 91
380 91
379 91
378 91
378 92
377 93
376 93
375 94
374 95
373 95
372 95
371 96
370 96
369 97
368 97
367 98
366 97
365 98
364 98
363 97
364 96
365 95
366 94
367 93
368 93
369 92
370 92
371 91
372 91
373 90
374 90
375 90
376 89
377 89
377 88
378 87
378 86
378 85
379 84
379 83
378 83
377 82
378 81
377 81
376 80
375 80
374 79
373 79
372 79
371 78
370 78
369 78
368 77
367 77
366 76
365 76
364 75
363 75
362 75
361 74
360 74
359 73
358 73
357 73
356 72
355 72
354 71
353 71
352 71
351 71
350 70
349 70
348 70
347 69
346 69
345 69
344 68
343 68
342 68
341 68
340 67
339 67
338 67
337 67
336 66
335 66
334 66
333 66
332 65
331 65
330 65
329 65
328 64
327 64
326 64
325 64
324 63
323 63
322 63
321 63
320 62
319 62
318 62
317 62
316 62
315 61
314 61
313 60
312 60
311 60
310 59
309 59
308 59
307 58
306 58
305 58
304 57
303 57
302 57
301 57
300 56
299 56
298 56
297 56
296 55
295 55
294 55
293 54
292 54
291 54
290 54
289 54
288 54
287 53
286 53
285 52
284 53
283 52
282 52
281 52
280 52
279 52
278 52
277 51
276 51
275 51
274 51
273 51
272 51
271 50
270 50
269 50
268 50
267 50
266 50
265 50
264 50
263 49
262 49
261 49
260 49
259 49
258 49
257 49
256 49
255 49
254 49
253 49
252 49
251 48
250 48
249 48
248 48
247 48
246 48
245 48
244 48
243 48
242 48
241 48
240 48
239 48
238 48
237 48
236 48
235 48
234 48
233 48
232 48
231 48
230 48
229 48
228 48
227 48
226 48
225 48
224 48
223 48
222 48
221 47
220 47
219 46
218 45
217 44
216 43
215 42
216 41
215 41
214 40
213 39
214 38
213 38
212 37
211 36
212 35
211 35
210 34
209 33
210 32
209 32
208 31
207 30
208 29
207 29
206 28
207 27
206 27
205 26
204 25
203 24
204 23
203 23
202 22
201 21
200 20
199 19
200 18
199 18
198 17
197 16
196 15
195 14
194 13
193 12
192 11
191 10
190 10
189 9
188 8
187 7
186 6
185 6
184 5
183 5
182 5
