172 2
171 3
170 3
169 4
168 5
167 5
166 6
165 6
164 7
163 8
162 8
161 9
160 10
159 10
158 11
157 12
156 13
155 14
154 14
153 15
152 16
151 17
150 18
150 19
149 20
148 20
148 21
147 22
146 23
146 24
146 25
145 26
144 27
144 28
143 29
142 30
142 31
141 32
140 33
139 34
139 35
138 36
137 37
136 38
135 39
134 40
133 40
132 40
131 40
130 40
129 40
128 40
127 40
126 40
125 40
124 40
123 40
122 40
121 40
120 40
119 40
118 40
117 40
116 41
115 41
114 41
113 41
112 41
111 41
110 41
109 42
108 42
107 42
106 42
105 42
104 42
103 42
102 43
101 43
100 43
99 43
98 44
97 44
96 44
95 44
94 44
93 45
92 45
91 45
90 45
89 45
88 46
87 46
86 46
85 46
84 47
83 47
82 47
81 48
80 48
79 48
78 48
77 49
76 49
75 49
74 50
73 50
72 50
71 51
70 51
69 52
68 52
67 53
66 53
65 53
64 54
63 54
62 55
61 56
60 56
59 57
58 58
57 59
56 59
55 60
54 61
53 61
52 62
51 62
50 62
49 63
48 63
47 63
46 64
45 64
44 64
43 65
42 65
41 65
40 65
39 65
38 65
37 66
36 66
35 66
34 67
33 67
32 68
31 68
30 69
29 69
28 69
27 69
26 70
25 70
24 70
23 71
22 71
21 72
20 72
19 72
18 72
17 72
16 72
15 72
14 73
13 73
12 74
11 74
10 74
9 75
8 75
7 76
6 77
5 77
4 78
4 79
3 80
3 81
2 82
2 83
2 84
2 85
3 86
4 86
5 86
6 86
7 85
8 86
9 86
10 87
9 88
8 88
7 89
6 90
6 91
6 92
6 93
6 94
6 95
7 96
8 97
9 97
10 98
11 99
12 100
13 100
14 101
15 101
16 102
17 102
18 102
19 102
20 102
21 103
22 103
23 103
24 104
25 104
26 105
27 105
28 105
29 105
30 106
31 106
32 106
33 106
34 106
35 107
36 106
37 107
38 107
39 107
40 107
41 107
42 108
43 108
44 109
45 109
46 109
47 110
48 110
49 110
50 110
51 111
52 111
53 111
54 111
55 111
56 111
57 111
58 112
59 112
60 112
61 112
62 113
63 113
64 113
65 113
66 114
67 114
68 114
69 114
70 114
71 114
72 115
73 115
74 115
75 116
76 116
77 116
78 116
79 116
80 116
81 117
82 117
83 117
84 117
85 117
86 117
87 117
88 117
89 117
90 118
91 118
92 118
93 118
94 118
95 118
96 118
97 118
98 118
99 119
100 119
101 119
102 119
103 119
104 119
105 119
106 119
107 120
108 120
109 120
110 120
111 120
112 121
113 120
114 121
115 121
116 121
117 121
118 121
119 121
120 121
121 121
122 122
123 122
124 122
125 122
126 122
127 122
128 122
129 122
130 122
131 122
132 122
133 122
134 122
135 122
136 123
137 123
138 123
139 123
140 123
141 123
142 123
143 123
144 123
145 123
146 123
147 123
148 123
149 122
150 122
151 123
151 124
152 125
152 126
152 127
153 128
153 129
153 130
154 131
154 132
154 133
155 134
155 135
156 136
156 137
157 137
158 138
159 139
160 140
161 140
162 139
163 139
164 139
165 138
165 137
166 136
166 135
167 134
168 134
169 135
170 136
171 137
172 138
173 139
174 140
175 141
176 142
177 143
178 144
179 144
180 144
181 143
181 142
182 141
182 140
183 139
183 138
184 137
184 136
185 135
185 134
185 133
186 132
186 131
186 130
186 129
186 128
186 127
187 126
187 125
187 124
187 123
186 123
185 122
186 121
187 120
188 120
189 120
190 120
191 120
192 120
193 120
194 120
195 119
196 120
197 119
198 120
199 119
200 119
201 119
202 119
203 119
204 119
205 119
206 119
207 118
208 118
209 119
210 120
211 121
211 122
212 123
212 124
212 125
213 126
213 127
214 128
215 129
215 130
216 131
217 132
217 133
218 134
219 135
220 136
221 137
221 138
222 139
222 140
223 141
224 142
225 142
226 142
227 142
228 141
229 140
230 139
231 138
232 137
232 136
233 135
234 134
235 134
235 133
236 132
237 131
238 130
239 129
240 128
241 127
242 126
243 125
243 124
244 123
245 122
246 121
247 120
248 119
249 118
249 117
250 116
251 115
252 114
252 113
253 112
253 111
254 110
255 109
255 108
256 107
257 106
257 105
258 104
258 103
257 102
256 102
255 102
254 102
253 101
252 101
251 101
250 100
251 99
252 99
253 99
254 98
255 98
256 98
257 98
258 98
259 98
260 98
261 97
262 98
263 97
264 97
265 97
266 97
267 97
268 97
269 98
270 98
271 98
272 99
273 99
274 100
275 101
276 102
277 103
278 103
279 104
279 105
280 105
281 106
282 106
283 107
284 108
285 109
286 110
287 111
288 112
289 112
290 113
291 113
292 114
293 115
294 116
295 116
296 117
297 117
298 118
299 118
300 119
301 119
302 120
303 120
304 121
305 121
306 122
307 122
308 123
309 124
310 125
311 125
312 126
313 126
314 127
315 128
316 128
317 129
318 129
319 130
320 130
321 130
321 129
322 128
322 127
323 126
323 125
323 124
323 123
323 122
323 121
323 120
323 119
323 118
323 117
323 116
323 115
323 114
322 114
321 113
322 112
322 111
321 111
320 110
321 109
321 108
320 108
319 107
320 106
319 106
318 105
319 104
318 104
317 103
318 102
317 102
316 101
317 100
317 99
316 99
315 98
316 97
315 97
314 96
315 95
314 95
313 94
312 93
311 92
312 91
312 90
312 89
311 89
310 88
309 87
308 86
309 85
308 85
307 84
308 83
308 82
309 81
310 80
311 79
311 78
312 77
313 76
314 75
315 74
315 73
316 72
316 71
316 70
317 69
317 68
318 67
318 66
318 65
319 64
319 63
320 62
320 61
320 60
321 59
321 58
321 57
321 56
322 55
322 54
323 53
323 52
323 51
324 50
324 49
324 48
325 47
325 46
326 45
326 44
326 43
327 42
327 41
327 40
326 40
325 40
324 40
323 40
322 41
321 41
320 41
319 41
318 41
317 42
316 42
315 42
314 43
313 43
312 44
311 44
310 44
309 45
308 45
307 46
306 46
305 47
304 47
303 48
302 48
301 49
300 49
299 50
298 50
297 51
296 51
295 52
294 52
293 53
292 54
291 54
290 55
289 56
288 56
287 57
286 58
285 59
284 59
283 60
282 61
281 61
280 62
279 62
278 63
277 64
276 65
275 65
274 66
273 67
272 68
271 68
270 69
269 69
268 69
267 69
266 69
265 69
264 69
263 69
262 68
261 68
260 68
259 68
258 68
257 67
256 67
255 67
254 67
253 66
252 66
251 66
250 66
249 65
248 65
247 65
246 65
245 64
246 63
247 63
248 63
249 63
250 62
251 61
251 60
252 59
252 58
253 57
253 56
253 55
252 55
251 54
252 53
251 53
250 52
249 51
248 50
247 50
246 50
245 50
244 50
243 50
242 50
241 50
240 50
239 50
238 50
237 50
236 50
235 50
234 51
233 51
232 51
231 52
230 52
229 52
228 52
227 53
226 53
225 53
224 53
223 53
222 53
221 53
220 53
219 52
218 52
217 52
216 51
215 51
214 51
213 51
212 50
211 50
210 50
209 50
208 49
207 49
206 49
205 48
204 48
203 48
202 48
201 48
200 47
199 47
198 47
197 47
196 47
195 47
194 47
193 46
192 46
191 46
190 45
191 44
192 44
193 44
194 43
195 43
196 42
197 42
198 42
199 41
200 41
201 41
202 40
203 39
204 38
204 37
205 36
204 36
203 36
202 35
203 34
202 34
201 34
200 33
201 32
200 32
199 31
200 30
199 30
198 30
197 29
196 28
195 28
194 27
193 26
192 26
191 25
190 24
191 23
190 23
189 22
188 22
187 21
186 20
185 19
186 18
185 18
184 17
183 16
182 15
183 14
182 14
181 13
182 12
181 12
180 11
179 10
180 9
179 8
179 7
178 6
179 5
179 4
178 4
177 4
176 3
175 2
174 2
173 2
