184 2
183 3
183 4
183 5
183 6
183 7
183 8
183 9
183 10
183 11
183 12
183 13
183 14
183 15
183 16
183 17
182 18
182 19
182 20
182 21
182 22
182 23
182 24
182 25
181 26
180 26
180 27
180 28
179 29
178 29
178 30
177 31
176 32
175 32
174 32
173 33
172 34
171 34
170 35
169 35
168 35
167 35
166 35
165 35
164 36
163 36
162 36
161 37
160 37
159 37
158 38
157 38
156 38
155 38
154 38
153 38
152 39
151 39
150 39
149 39
148 39
147 39
146 40
145 40
144 40
143 40
142 41
141 41
140 41
139 42
138 42
137 43
136 43
135 43
134 43
133 43
132 44
131 44
130 44
129 45
128 45
127 45
126 46
125 46
124 46
123 46
122 47
121 47
120 47
119 47
118 48
117 48
116 48
115 49
114 49
113 49
112 48
111 48
110 47
109 47
108 46
107 46
106 46
105 45
104 45
103 44
102 44
101 43
100 43
99 43
98 43
97 43
97 44
96 45
96 46
96 47
96 48
96 49
96 50
96 51
95 52
94 53
93 54
92 54
91 55
90 55
89 55
88 55
87 55
86 56
85 56
84 56
83 57
82 57
81 57
80 57
79 58
78 58
77 58
76 57
75 56
74 55
73 55
72 55
71 54
70 53
69 53
68 52
67 51
66 51
65 50
64 50
63 49
62 49
61 49
60 48
59 48
58 47
57 46
56 46
55 46
54 46
53 45
52 45
51 44
50 44
49 43
48 43
47 43
46 43
45 42
44 42
43 41
42 41
41 40
40 40
39 40
38 40
37 40
36 39
35 39
34 39
33 39
32 38
31 38
30 38
29 38
28 38
27 37
26 37
25 36
24 36
23 35
22 35
21 35
20 35
19 34
18 34
17 33
16 33
15 33
14 32
13 32
12 32
11 32
10 32
9 32
8 32
7 32
6 32
5 32
4 32
3 32
2 32
2 33
2 34
2 35
3 36
3 37
3 38
4 39
4 40
4 41
4 42
5 42
6 42
7 41
8 42
9 43
10 44
10 45
11 46
12 46
13 46
14 45
15 45
16 46
17 47
18 48
19 48
20 49
21 49
22 50
23 51
24 51
25 52
26 53
27 53
28 54
29 54
30 55
31 56
32 57
33 58
34 59
35 60
36 61
37 62
38 63
39 63
40 64
41 65
42 65
43 66
43 67
44 67
45 68
46 69
47 70
48 71
49 72
49 73
50 74
50 75
49 76
49 77
48 78
48 79
47 80
46 81
45 82
44 82
44 83
44 84
43 85
42 86
42 87
41 88
40 89
40 90
39 91
39 92
38 93
38 94
38 95
38 96
38 97
39 97
40 97
41 97
42 97
43 97
44 97
45 97
46 97
47 97
48 97
49 96
50 96
51 95
52 95
53 95
54 94
55 94
56 93
57 93
58 92
59 91
60 90
61 89
62 89
63 88
64 88
65 87
66 87
67 86
67 85
68 84
69 83
69 82
70 81
71 80
72 80
73 79
74 78
75 78
76 78
77 77
77 76
78 75
79 75
80 74
81 73
82 73
83 74
84 74
85 74
86 74
87 75
88 75
89 75
90 75
91 75
92 76
93 76
94 77
95 78
95 79
95 80
94 81
94 82
94 83
94 84
95 85
96 85
97 85
98 85
99 85
100 84
101 83
102 83
103 83
104 82
105 82
106 82
107 82
108 81
109 81
110 80
111 79
112 78
113 78
114 78
115 78
116 78
117 77
118 77
119 77
120 77
121 77
122 77
123 77
124 77
125 77
126 77
127 77
128 77
129 78
130 79
131 80
132 81
132 82
132 83
133 84
134 84
135 84
136 84
137 84
138 83
139 83
140 83
141 82
142 81
143 80
144 80
145 81
146 81
147 81
148 81
149 81
150 81
151 81
152 81
153 81
154 81
155 81
156 82
157 82
158 82
159 83
160 83
161 84
162 84
163 84
164 84
165 84
166 84
167 85
168 85
169 85
170 85
171 86
172 86
173 86
174 86
175 86
176 86
177 86
178 86
179 87
180 87
181 87
182 87
183 87
184 87
185 87
186 87
187 87
188 87
189 87
190 87
191 87
192 87
193 87
194 87
195 87
196 87
197 87
198 87
199 87
200 87
201 87
202 87
203 87
204 87
205 87
206 87
207 87
208 87
209 87
210 87
211 87
212 87
213 87
214 87
215 87
216 87
217 87
218 87
219 87
220 87
221 87
222 87
223 87
224 87
225 87
226 87
227 87
228 88
228 89
228 90
228 91
227 92
227 93
227 94
227 95
226 96
226 97
226 98
226 99
225 100
225 101
225 102
225 103
224 104
224 105
224 106
223 107
223 108
222 109
221 110
221 111
220 112
220 113
220 114
219 115
219 116
219 117
219 118
219 119
219 120
219 121
220 121
221 121
222 121
223 120
224 119
225 118
226 117
227 116
228 115
229 114
230 113
231 112
232 111
233 110
234 109
234 108
235 107
236 106
236 105
237 104
238 103
238 102
239 101
240 100
240 99
241 98
242 97
242 96
243 95
244 94
244 93
245 92
245 91
246 90
246 89
247 88
248 87
249 86
249 85
250 84
251 84
252 84
253 84
254 84
255 84
256 84
257 84
258 83
259 83
260 83
261 83
262 82
263 82
264 82
265 82
266 81
267 81
268 81
269 81
270 81
271 81
272 81
273 81
274 81
275 81
276 81
277 81
278 81
279 80
280 80
281 80
282 80
283 80
284 79
285 78
286 78
287 78
288 78
289 78
290 78
291 78
292 78
293 78
294 77
295 76
296 75
297 75
298 75
299 75
300 75
301 75
302 74
303 74
304 73
305 72
306 72
307 71
308 70
309 69
310 69
311 69
312 69
313 68
314 67
314 66
315 65
316 64
317 64
318 63
319 62
320 62
321 62
322 62
323 62
324 61
325 61
326 61
327 61
328 61
329 60
330 60
331 59
332 58
333 58
334 57
334 56
335 55
335 54
335 53
336 52
336 51
335 51
334 50
333 49
332 49
331 48
330 47
329 47
328 46
327 46
326 46
325 45
324 45
323 44
322 44
321 43
320 43
319 43
318 43
317 43
316 42
315 42
314 42
313 41
312 41
311 41
310 41
309 40
308 40
307 40
306 40
305 40
304 39
303 39
302 39
301 39
300 39
299 38
298 38
297 38
296 38
295 38
294 37
293 37
292 37
291 36
290 36
289 35
288 35
287 35
286 35
285 35
284 34
283 34
282 34
281 34
280 33
279 33
278 33
277 32
276 32
275 32
274 32
273 32
272 32
271 31
270 31
269 31
268 30
267 30
266 30
265 30
264 29
263 29
262 29
261 29
260 29
259 29
258 29
257 29
256 29
255 29
254 29
253 28
252 28
251 28
250 28
249 28
248 28
247 28
246 28
245 28
244 28
243 28
242 28
241 28
240 27
239 27
238 27
237 27
236 27
235 27
234 27
233 27
232 27
231 27
230 27
229 27
228 26
227 26
226 26
225 26
224 26
223 26
222 26
221 26
220 26
219 26
218 26
217 25
216 24
215 23
214 22
213 21
212 20
211 19
210 18
209 17
208 16
207 15
206 15
205 14
206 13
205 13
204 12
203 11
202 10
201 9
200 9
199 8
198 7
197 6
196 5
195 4
194 4
193 3
192 3
191 3
190 2
189 2
188 2
187 2
186 2
185 2
