169 2
168 3
167 4
166 4
165 5
164 4
163 5
162 6
161 7
160 7
159 8
158 9
157 10
156 11
155 11
155 12
154 13
153 14
152 14
152 15
151 16
150 17
149 18
148 19
147 20
147 21
146 22
145 22
145 23
144 24
143 25
142 26
142 27
141 28
140 29
140 30
139 31
138 32
138 33
137 34
136 35
135 36
135 37
134 38
133 39
132 40
131 41
130 42
129 42
128 42
127 42
126 42
125 42
124 42
123 42
122 42
121 42
120 42
119 42
118 42
117 41
116 41
115 41
114 41
113 41
112 41
111 41
110 41
109 41
108 41
107 41
106 41
105 41
104 41
103 42
102 42
101 42
100 42
99 42
98 42
97 42
96 42
95 42
94 42
93 42
92 42
91 42
90 43
89 43
88 43
87 43
86 43
85 43
84 43
83 43
82 43
81 44
80 44
79 44
78 44
77 45
76 45
75 45
74 45
73 46
72 46
71 46
70 46
69 47
68 47
67 47
66 48
65 48
64 49
63 49
62 50
61 50
60 50
59 51
58 51
57 51
56 51
55 52
54 52
53 52
52 53
51 53
50 53
49 54
48 54
47 54
46 55
45 55
44 55
43 55
42 56
41 56
40 56
39 56
38 56
37 57
36 57
35 57
34 58
33 58
32 58
31 58
30 58
29 59
28 59
27 59
26 60
25 60
24 60
23 61
22 61
21 61
20 62
19 62
18 63
17 63
16 64
15 64
14 65
13 65
12 65
11 66
10 66
9 67
8 67
7 68
6 69
5 69
4 70
3 71
3 72
3 73
2 74
2 75
2 76
2 77
2 78
2 79
3 80
4 81
3 82
3 83
3 84
4 85
5 85
6 86
7 86
8 86
9 86
10 87
11 87
12 87
13 88
14 88
15 88
16 89
17 89
18 89
19 90
20 90
21 90
22 90
23 90
24 91
25 91
26 92
27 92
28 93
29 94
30 94
31 94
32 95
33 95
34 95
35 96
36 96
37 97
38 97
39 98
40 98
41 98
42 99
43 100
44 100
45 101
46 101
47 101
48 101
49 102
50 102
51 103
52 103
53 104
54 104
55 105
56 105
57 106
58 106
59 106
60 107
61 107
62 108
63 108
64 109
65 109
66 109
67 109
68 110
69 110
70 111
71 112
72 112
73 113
74 114
75 115
76 115
77 116
78 116
79 116
80 115
81 115
82 115
83 115
84 115
85 115
86 115
87 115
88 116
89 116
90 116
91 116
92 117
93 117
94 117
95 117
96 117
97 118
98 118
99 118
100 118
101 118
102 119
103 119
104 119
105 119
106 119
107 120
108 120
109 120
110 120
111 120
112 121
113 121
114 121
115 121
116 121
117 121
118 121
119 121
120 121
121 121
122 121
123 122
123 123
124 124
124 125
124 126
125 127
125 128
125 129
125 130
126 131
126 132
126 133
126 134
127 135
127 136
128 137
128 138
128 139
129 140
129 141
130 142
131 143
131 144
131 145
132 146
133 147
134 148
134 149
135 150
136 151
137 152
138 152
139 152
139 151
139 150
140 149
141 149
142 148
142 147
143 146
144 145
145 145
146 145
147 146
148 147
149 148
150 149
151 149
152 150
153 151
154 152
155 152
156 153
157 154
158 154
159 154
160 155
161 155
162 156
163 156
164 156
165 156
165 155
165 154
165 153
165 152
166 151
166 150
167 149
167 148
167 147
167 146
168 145
168 144
168 143
168 142
168 141
168 140
168 139
168 138
168 137
168 136
168 135
168 134
167 134
166 133
167 132
167 131
167 130
166 130
165 129
166 128
166 127
165 127
164 126
163 125
164 124
165 124
166 124
167 124
168 125
169 125
170 125
171 125
172 125
173 125
174 125
175 125
176 125
177 125
178 125
179 125
180 125
181 124
182 124
183 124
184 124
185 124
186 124
187 124
188 124
189 124
190 124
191 124
192 124
193 124
194 125
195 124
196 125
197 124
198 124
199 124
200 124
201 124
202 123
203 123
204 122
205 122
206 122
207 123
208 123
209 124
210 125
211 126
211 127
212 128
213 129
214 130
215 131
216 132
217 133
217 134
218 135
219 136
220 137
221 138
222 139
223 140
224 141
225 142
226 143
227 144
228 145
229 146
230 146
231 147
232 148
233 149
234 150
235 150
236 151
237 152
238 152
239 153
240 153
241 154
242 154
243 155
243 154
244 153
244 152
243 152
242 151
243 150
243 149
243 148
243 147
243 146
243 145
244 144
244 143
244 142
244 141
245 140
245 139
246 138
246 137
247 136
247 135
247 134
247 133
247 132
248 131
248 130
248 129
249 128
249 127
249 126
250 125
250 124
250 123
251 122
251 121
252 120
252 119
253 118
253 117
254 116
255 115
255 114
256 113
257 112
257 111
256 111
255 110
254 109
255 108
256 108
257 108
258 108
259 108
260 108
261 108
262 108
263 108
264 109
265 109
266 109
267 109
268 109
269 109
270 110
271 111
272 111
273 112
274 113
275 114
276 115
277 116
278 117
278 118
279 119
280 120
281 121
282 122
282 123
283 123
284 124
285 125
285 126
286 127
287 127
288 128
288 129
289 130
290 130
291 131
292 132
293 133
293 134
294 135
295 136
296 137
297 137
298 138
299 139
300 139
301 140
302 141
303 141
304 142
305 143
306 143
307 144
308 145
309 145
310 145
311 146
312 147
313 147
314 148
315 148
316 149
317 149
318 150
319 150
320 150
321 151
322 151
323 151
324 152
325 152
326 152
327 152
328 152
329 152
329 151
330 150
330 149
329 149
328 148
329 147
329 146
329 145
328 145
327 144
328 143
327 143
326 142
327 141
326 141
325 140
326 139
326 138
325 138
324 137
325 136
325 135
324 135
323 134
322 133
323 132
323 131
322 131
321 130
322 129
322 128
321 128
320 127
319 126
320 125
319 125
318 124
319 123
318 123
317 122
318 121
318 120
317 120
316 119
317 118
316 118
315 117
316 116
315 116
314 115
315 114
314 114
313 113
314 112
313 112
312 111
313 110
312 110
311 109
310 108
311 107
311 106
310 106
309 105
310 104
310 103
309 103
308 102
309 101
308 101
307 100
308 99
308 98
309 97
309 96
310 95
311 94
312 94
312 93
313 92
313 91
314 90
315 89
315 88
316 87
317 86
318 85
318 84
319 83
320 82
321 81
322 80
323 79
323 78
324 77
324 76
325 75
326 74
327 73
328 72
328 71
329 70
330 69
330 68
331 67
331 66
332 65
333 64
333 63
334 62
335 61
336 60
337 59
338 58
338 57
339 56
338 56
337 56
336 56
335 56
334 55
333 55
332 55
331 55
330 55
329 55
328 55
327 55
326 55
325 55
324 55
323 55
322 55
321 55
320 55
319 56
318 56
317 56
316 56
315 57
314 57
313 57
312 57
311 58
310 58
309 58
308 59
307 59
306 60
305 60
304 61
303 61
302 62
301 63
300 63
299 64
298 65
297 65
296 66
295 66
294 67
293 68
292 68
291 69
290 69
289 70
288 71
287 72
286 72
285 72
284 73
283 74
282 74
281 75
280 75
279 76
278 76
277 77
276 77
275 78
274 78
273 79
272 79
271 79
270 79
269 79
268 79
267 79
266 79
265 79
264 79
263 79
262 79
261 79
260 79
259 79
258 78
257 78
256 78
255 78
254 77
253 77
252 77
251 77
250 76
249 76
248 75
249 74
250 74
251 74
252 74
253 74
254 73
254 72
255 71
255 70
255 69
255 68
255 67
254 67
253 66
252 65
251 65
250 65
249 65
248 65
247 64
246 64
245 64
244 64
243 64
242 65
241 65
240 65
239 65
238 65
237 66
236 66
235 66
234 67
233 67
232 67
231 67
230 67
229 67
228 67
227 66
226 66
225 66
224 65
223 65
222 65
221 65
220 65
219 64
218 64
217 64
216 63
215 63
214 63
213 63
212 62
211 62
210 62
209 61
208 61
207 61
206 60
205 60
204 60
203 60
202 59
201 59
200 59
199 58
198 58
197 58
196 58
195 58
194 58
193 57
192 57
191 57
190 56
189 56
188 56
187 56
186 55
185 55
184 55
183 55
182 55
181 55
180 54
179 54
178 54
177 54
176 54
175 54
174 53
173 53
172 53
171 52
172 51
173 50
174 49
175 48
176 47
177 46
178 45
179 44
180 43
181 43
182 42
182 41
183 40
182 40
181 40
180 41
179 41
178 40
179 39
179 38
180 37
179 37
178 38
177 37
177 36
177 35
178 34
178 33
177 33
176 33
175 32
176 31
176 30
177 29
176 29
175 29
174 28
175 27
175 26
175 25
174 25
173 24
174 23
174 22
174 21
175 20
174 20
173 19
173 18
174 17
174 16
173 16
172 16
171 15
172 14
172 13
171 13
170 13
169 12
170 11
171 10
171 9
170 8
170 7
169 6
170 5
170 4
170 3
171 2
170 2
