144 2
143 3
142 3
141 3
140 3
139 3
138 3
137 3
136 4
135 3
134 4
133 4
132 4
131 5
130 5
129 6
128 7
128 8
127 9
126 10
126 11
126 12
125 13
124 14
123 15
123 16
122 17
121 17
121 18
120 19
119 20
119 21
118 22
117 23
116 24
115 25
114 26
113 27
112 28
111 29
110 30
109 31
108 32
108 33
107 34
106 35
105 36
104 37
103 38
102 39
101 40
100 41
99 42
98 42
97 42
96 42
95 43
94 43
93 43
92 43
91 43
90 43
89 43
88 43
87 43
86 44
85 44
84 44
83 44
82 44
81 44
80 44
79 44
78 45
77 45
76 45
75 45
74 45
73 45
72 46
71 46
70 46
69 46
68 46
67 46
66 46
65 47
64 47
63 47
62 47
61 48
60 48
59 48
58 49
57 49
56 49
55 50
54 50
53 50
52 51
51 51
50 52
49 52
48 53
47 53
46 53
45 53
44 54
43 54
42 55
41 55
40 56
39 56
38 56
37 57
36 57
35 57
34 57
33 58
32 58
31 58
30 59
29 59
28 59
27 60
26 60
25 60
24 61
23 61
22 61
21 62
20 62
19 63
18 63
17 64
16 65
15 65
14 66
13 66
12 67
11 67
10 68
9 68
8 69
7 70
6 70
5 71
4 71
3 72
2 72
1 72
1 73
1 74
1 75
1 76
1 77
1 78
1 79
1 80
1 81
1 82
1 83
1 84
1 85
1 86
1 87
1 88
1 89
1 90
1 91
2 91
3 91
4 91
5 91
6 91
7 92
8 93
9 93
10 94
11 94
12 95
13 95
14 96
15 96
16 96
17 97
18 97
19 97
20 97
21 97
22 98
23 98
24 98
25 98
26 98
27 99
28 99
29 99
30 99
31 100
32 100
33 100
34 100
35 101
36 101
37 101
38 102
39 102
40 102
41 102
42 103
43 103
44 104
45 104
46 104
47 104
48 104
49 105
50 105
51 105
52 105
53 105
54 105
55 105
56 105
57 105
58 105
59 105
60 106
61 106
62 106
62 105
62 104
61 104
60 104
59 104
58 104
57 104
56 104
55 103
56 102
57 102
57 101
58 100
58 99
57 98
58 97
59 97
60 97
61 98
61 99
61 100
62 100
62 99
62 98
63 97
64 98
65 98
66 99
66 100
66 101
67 101
68 102
69 102
70 103
71 103
72 103
72 102
73 101
74 100
75 99
76 99
77 99
78 99
79 99
80 99
81 100
82 100
83 100
84 100
85 99
86 99
87 99
88 100
87 101
86 101
86 102
85 103
85 104
86 105
87 105
88 104
89 105
89 106
88 107
87 108
87 109
88 109
89 109
90 108
91 108
92 109
93 110
94 110
95 110
96 110
97 110
98 109
99 110
100 109
101 109
102 109
103 109
104 110
104 111
105 111
106 111
107 111
108 111
109 111
110 111
111 111
112 111
113 111
114 111
115 110
116 111
117 112
118 112
119 112
120 112
121 112
122 112
123 112
124 112
125 112
126 112
127 112
128 112
129 112
130 112
131 113
131 114
132 115
132 116
133 117
133 118
134 119
134 120
135 121
135 122
136 123
136 124
137 125
138 126
138 127
139 128
140 129
141 130
142 131
143 132
144 133
145 134
146 135
147 135
148 136
149 137
150 137
151 138
152 138
153 139
154 139
155 139
156 139
157 138
158 139
159 139
160 140
161 140
162 140
163 140
164 140
165 140
166 140
167 140
168 140
169 140
170 140
171 140
172 140
172 139
173 138
173 137
173 136
173 135
173 134
173 133
173 132
173 131
173 130
173 129
173 128
173 127
173 126
173 125
173 124
174 123
173 122
173 121
174 120
173 119
173 118
172 117
173 116
172 116
171 115
171 114
170 114
169 113
170 112
171 112
172 111
173 111
174 111
175 111
176 111
177 111
178 111
179 111
180 111
181 111
182 111
183 111
184 111
185 110
186 110
187 110
188 110
189 110
190 110
191 110
192 109
193 109
194 109
195 109
196 109
197 109
198 109
199 109
200 108
201 108
202 108
203 108
204 108
205 108
206 108
207 108
208 108
209 108
210 108
211 109
212 110
213 111
214 111
215 112
216 113
217 114
218 115
219 115
220 116
221 117
222 117
223 118
224 118
225 119
226 119
227 120
228 121
229 121
230 122
231 122
232 123
233 123
234 124
235 124
236 125
237 125
238 126
239 126
240 126
241 126
242 126
243 127
244 127
245 127
246 126
247 126
248 125
249 124
249 123
250 122
250 121
250 120
251 119
251 118
251 117
251 116
251 115
250 114
251 113
251 112
251 111
252 110
252 109
252 108
252 107
252 106
252 105
252 104
252 103
251 103
250 102
251 101
251 100
251 99
251 98
251 97
251 96
251 95
250 95
249 94
250 93
249 92
250 91
251 91
252 91
253 90
254 90
255 90
256 90
257 90
258 89
259 89
260 89
261 89
262 89
263 89
264 89
265 89
266 89
267 88
268 88
269 88
270 88
271 88
272 88
273 88
274 89
275 89
276 89
277 90
278 90
279 91
280 91
281 91
282 92
283 92
284 92
285 93
286 93
287 93
288 93
289 94
290 94
291 95
292 95
293 96
294 96
295 97
296 97
297 97
298 98
299 98
300 99
301 99
302 100
303 100
304 100
305 101
306 101
307 102
308 102
309 102
310 103
311 103
312 104
313 104
314 104
315 104
316 104
317 105
318 105
319 105
320 105
321 106
322 106
323 106
324 106
325 106
326 106
327 106
328 106
329 106
330 106
331 106
332 106
333 106
334 106
335 106
336 106
337 106
337 105
338 104
337 104
336 103
335 102
336 101
335 101
334 100
333 99
334 98
333 98
332 97
331 96
332 95
331 95
330 94
329 93
330 92
329 91
329 90
328 89
327 88
326 87
327 86
326 86
325 85
324 84
323 83
322 82
321 81
320 80
319 79
318 78
317 77
316 76
315 75
314 75
313 74
312 73
311 72
310 71
309 70
310 69
310 68
310 67
310 66
310 65
311 64
311 63
312 62
312 61
313 60
313 59
314 58
314 57
315 56
315 55
316 54
316 53
316 52
316 51
317 50
317 49
317 48
317 47
318 46
318 45
319 44
319 43
320 42
320 41
321 40
321 39
321 38
321 37
322 36
322 35
322 34
322 33
323 32
323 31
323 30
323 29
324 28
324 27
324 26
324 25
325 24
324 24
323 24
322 24
321 24
320 25
319 25
318 25
317 25
316 26
315 26
314 26
313 27
312 27
311 28
310 28
309 28
308 29
307 30
306 30
305 31
304 31
303 32
302 33
301 34
300 35
299 36
298 37
297 38
296 39
295 40
294 41
293 42
292 43
291 44
290 45
289 46
288 46
288 47
287 48
286 49
285 50
284 51
283 52
282 53
281 54
280 54
279 55
278 56
277 57
276 57
275 58
274 59
273 59
272 60
271 60
270 61
269 62
268 62
267 63
266 63
265 63
264 63
263 63
262 63
261 64
260 64
259 64
258 64
257 64
256 64
255 64
254 64
253 64
252 64
251 65
250 65
249 64
248 65
247 64
246 64
245 64
244 64
243 64
242 63
243 62
244 61
245 61
246 60
247 59
247 58
248 57
248 56
247 56
246 55
245 55
244 55
243 54
242 55
241 55
240 55
239 55
238 56
237 56
236 57
235 57
234 58
233 59
232 59
231 60
230 60
229 60
228 60
227 60
226 60
225 60
224 60
223 59
222 59
221 59
220 59
219 59
218 58
217 58
216 58
215 58
214 58
213 58
212 58
211 57
210 57
209 57
208 57
207 57
206 57
205 57
204 57
203 57
202 56
201 56
200 56
199 56
198 56
197 56
196 56
195 55
194 55
193 55
192 55
191 55
190 55
189 55
188 55
187 55
186 55
185 54
184 54
183 54
182 54
181 54
180 54
179 54
178 53
177 53
176 52
177 51
178 51
179 51
180 51
181 51
182 51
183 51
184 51
185 50
186 50
187 50
188 50
189 50
190 50
191 50
192 50
193 50
194 49
195 49
196 49
197 49
198 49
199 49
200 48
201 48
202 48
203 48
204 48
205 47
206 47
207 47
208 46
209 46
210 46
211 46
212 45
213 45
214 44
215 43
216 42
217 42
218 41
219 40
220 39
221 39
222 38
223 37
224 36
224 35
225 34
226 33
226 32
227 31
228 31
229 30
230 29
230 28
229 28
228 28
227 27
227 26
226 26
225 26
224 26
223 25
223 24
224 23
223 23
222 23
221 23
220 22
219 22
218 21
219 20
218 20
217 19
216 18
215 18
214 17
213 17
212 16
211 16
210 16
209 15
208 14
207 13
206 13
205 13
204 12
203 11
202 11
201 10
200 10
199 10
198 10
197 10
196 9
195 8
194 8
193 7
192 7
191 7
190 6
189 6
188 6
187 6
186 6
185 5
184 5
183 5
182 5
181 5
180 4
179 4
178 4
177 4
176 4
175 4
174 4
173 4
172 4
171 4
170 3
169 3
168 3
167 3
166 3
165 3
164 3
163 3
162 2
161 2
160 3
159 3
158 2
157 2
156 2
155 2
154 2
153 2
152 2
151 3
150 3
149 2
148 2
147 3
146 3
145 3
