81 2
80 3
79 3
78 3
77 4
76 4
75 5
74 5
73 6
72 7
71 7
70 8
69 9
69 10
68 11
67 11
66 12
65 13
65 14
64 15
64 16
63 17
62 17
61 18
60 19
60 20
59 21
58 22
57 23
57 24
56 25
55 26
55 27
54 28
53 29
52 29
51 30
51 31
50 32
49 33
48 34
47 35
46 36
45 37
45 38
44 39
43 39
42 40
41 41
40 42
39 43
38 44
37 45
36 46
35 47
34 48
33 49
32 50
31 51
30 52
29 53
28 53
27 54
26 55
25 56
24 56
23 56
22 56
21 57
20 58
19 59
18 60
17 60
16 61
15 61
14 62
13 63
12 63
11 63
10 63
9 63
8 63
7 62
6 62
5 62
5 63
4 64
3 64
2 65
2 66
2 67
2 68
2 69
3 69
4 70
5 70
6 71
7 71
8 72
9 72
10 73
11 73
12 74
13 75
14 76
15 76
16 77
17 78
18 79
18 80
19 81
20 82
20 83
21 84
22 85
22 86
23 87
23 88
23 89
24 89
25 89
26 90
26 91
27 92
27 93
28 94
28 95
29 95
30 96
31 97
31 98
31 99
32 100
33 101
33 102
34 103
35 104
36 105
36 106
37 107
37 108
38 109
38 110
39 111
39 112
40 113
40 114
41 115
41 116
41 117
42 118
42 119
43 120
44 121
45 122
45 123
45 124
46 125
46 126
47 127
47 128
47 129
48 130
49 131
50 132
50 133
51 134
51 135
52 136
52 137
53 138
54 139
55 140
55 141
56 142
57 143
58 144
58 145
59 146
60 147
61 148
62 148
63 149
64 149
65 150
66 151
67 151
68 151
69 151
70 152
71 152
72 152
73 152
74 152
75 152
76 152
77 152
78 153
79 153
80 153
81 152
82 152
83 151
84 151
85 151
86 151
87 151
88 151
89 151
90 150
91 150
92 150
93 150
94 149
95 149
96 149
97 148
98 148
99 147
100 147
101 147
102 146
103 146
104 146
105 145
106 145
107 144
108 144
109 144
110 143
111 142
112 142
113 142
114 141
115 141
116 140
117 139
118 139
119 138
120 138
121 138
122 137
123 137
124 136
125 136
126 135
127 135
128 135
129 134
130 133
131 133
132 133
133 132
134 131
135 131
136 130
137 129
138 128
139 127
140 127
141 126
142 125
143 125
144 124
145 123
146 123
147 122
148 121
149 120
150 119
151 118
152 117
152 116
153 115
153 114
153 113
153 112
153 111
153 110
153 109
153 108
153 107
153 106
154 105
155 106
156 106
157 106
158 106
159 107
160 107
161 107
162 107
163 107
164 106
164 105
165 104
165 103
166 102
166 101
165 101
164 100
165 99
165 98
165 97
165 96
165 95
165 94
166 93
167 93
168 93
169 93
170 93
171 93
172 93
173 93
174 93
175 93
176 92
177 92
178 92
179 92
180 92
181 92
182 92
183 92
184 92
185 92
186 91
187 91
188 91
189 91
190 91
191 91
192 91
193 90
194 90
195 90
196 90
197 90
198 90
199 89
200 89
201 89
202 89
203 89
204 89
205 88
206 88
207 88
208 88
209 88
210 87
211 87
212 87
213 86
214 86
215 85
216 85
217 85
218 84
219 84
220 83
221 83
222 82
223 82
224 81
225 80
226 80
227 79
228 78
229 77
229 76
230 75
231 74
231 73
232 72
232 71
233 70
233 69
234 68
235 67
235 66
236 65
236 64
237 63
237 62
237 61
237 60
237 59
237 58
237 57
237 56
237 55
237 54
237 53
237 52
237 51
236 51
235 50
236 49
235 49
234 48
233 47
234 46
234 45
233 45
232 44
231 43
232 42
231 42
230 41
229 40
228 40
227 39
226 38
225 38
224 37
223 37
222 36
221 36
220 36
219 36
218 35
217 35
216 34
215 34
214 34
213 34
212 33
211 33
210 33
209 32
208 32
207 32
206 32
205 32
204 31
203 31
202 31
201 31
200 31
199 31
198 31
197 31
196 30
195 30
194 30
193 30
192 30
191 30
190 30
189 30
188 30
187 30
186 30
185 30
184 30
183 30
182 30
181 30
180 30
179 30
178 31
177 31
176 31
175 31
174 31
173 31
172 31
171 31
170 31
169 32
168 32
167 32
166 32
166 33
166 34
166 35
167 35
168 35
169 35
170 35
171 35
172 35
173 35
174 35
175 35
176 35
177 35
178 35
179 35
180 35
181 35
182 35
183 35
184 34
185 34
186 34
187 34
188 34
189 34
190 34
191 34
192 34
193 35
194 35
195 35
196 35
197 35
198 35
199 35
200 36
201 36
202 36
203 36
204 36
205 37
206 37
207 37
208 38
209 38
210 38
211 38
212 39
213 39
214 39
215 40
216 40
217 41
218 41
219 41
220 42
221 42
222 43
223 43
224 44
225 44
226 45
226 46
227 47
228 48
229 49
229 50
230 51
230 52
231 53
231 54
232 55
232 56
232 57
232 58
232 59
232 60
231 61
231 62
231 63
231 64
230 65
230 66
229 67
229 68
228 69
228 70
227 71
226 72
225 73
224 74
223 74
222 75
221 76
220 77
219 77
218 77
217 78
216 79
215 79
214 79
213 79
212 80
211 80
210 81
209 81
208 81
207 81
206 82
205 82
204 82
203 82
202 82
201 83
200 83
199 83
198 83
197 83
196 83
195 83
194 83
193 83
192 83
191 83
190 83
189 83
188 83
187 83
186 83
185 83
184 82
183 82
182 82
181 82
180 82
179 82
178 82
177 82
176 82
175 82
174 81
173 81
172 81
171 82
170 82
169 81
168 81
167 81
166 81
165 80
164 80
163 79
164 78
164 77
165 76
165 75
165 74
166 73
165 73
164 72
165 71
165 70
165 69
164 69
163 68
164 67
164 66
165 65
164 65
163 64
164 63
164 62
163 62
162 61
161 61
160 61
159 61
158 60
158 59
158 58
158 57
158 56
157 56
156 55
157 54
157 53
156 53
155 52
156 51
155 51
154 50
153 49
154 48
154 47
153 47
152 46
151 45
150 44
149 44
148 43
147 42
146 42
145 41
144 41
143 40
144 39
144 38
144 37
143 37
142 36
141 35
140 34
139 34
138 33
137 32
136 31
135 30
134 29
133 28
132 27
131 26
130 26
129 25
130 24
129 24
128 23
127 22
126 22
125 22
124 21
123 20
122 19
121 19
120 18
119 18
118 17
117 16
116 15
115 14
114 14
113 13
112 12
111 12
110 11
109 10
108 10
107 9
106 9
105 8
104 8
103 7
102 7
101 6
100 6
99 5
98 5
97 4
96 4
95 3
94 3
93 3
92 3
91 3
90 3
89 2
88 2
87 2
86 2
85 2
84 2
83 2
82 2
