170 2
169 3
168 3
167 3
166 4
165 4
164 4
163 5
162 6
161 6
160 7
159 7
158 8
157 9
156 10
155 11
154 12
153 12
152 13
151 14
150 14
149 15
148 16
147 17
146 17
145 18
144 19
143 19
142 20
141 21
140 22
139 22
138 23
137 24
136 24
135 25
134 26
133 26
132 26
131 26
130 26
129 26
128 26
127 26
126 26
125 25
124 25
123 25
122 25
121 25
120 25
119 25
118 25
117 25
116 25
115 25
114 25
113 25
112 25
111 25
110 25
109 25
108 25
107 25
106 25
105 25
104 25
103 25
102 25
101 25
100 25
99 25
98 25
97 25
96 25
95 25
94 25
93 25
92 25
91 25
90 25
89 25
88 25
87 25
86 25
85 25
84 25
83 26
82 26
81 26
80 26
79 26
78 26
77 26
76 26
75 26
74 26
73 26
72 26
71 27
70 27
69 27
68 27
67 27
66 27
65 27
64 27
63 27
62 28
61 28
60 28
59 28
58 28
57 28
56 29
55 29
54 29
53 29
52 30
51 30
50 30
49 30
48 30
47 31
46 31
45 31
44 31
43 31
42 32
41 32
40 32
39 32
38 32
37 32
36 33
35 33
34 33
33 33
32 33
31 34
30 34
29 34
28 34
27 35
26 35
25 35
24 36
23 36
22 36
21 36
20 36
19 37
18 37
17 38
16 38
15 38
14 39
13 39
12 39
11 40
10 40
9 40
8 41
7 41
7 42
6 43
5 44
4 45
4 46
4 47
3 48
2 49
2 50
2 51
2 52
2 53
2 54
3 55
4 56
5 57
6 58
7 58
8 59
9 60
10 60
11 61
12 61
13 61
14 62
15 62
16 63
17 63
18 64
19 64
20 64
21 65
22 65
23 66
24 66
25 67
26 67
27 67
28 67
29 68
30 68
31 69
32 69
33 69
34 70
35 70
36 70
37 71
38 71
39 71
40 72
41 72
42 72
43 73
44 73
45 73
46 73
47 74
48 74
49 74
50 75
51 76
52 76
53 76
54 77
55 77
56 77
57 77
58 77
59 77
60 78
61 78
62 78
63 78
64 78
65 79
66 79
67 79
68 79
69 79
70 79
71 79
72 80
73 80
74 80
75 80
76 80
77 80
78 80
79 80
80 80
81 80
82 80
83 81
84 80
85 80
86 81
87 81
88 81
89 81
90 81
91 81
92 81
93 82
94 82
95 82
96 82
97 82
98 82
99 82
100 82
101 82
102 82
103 82
104 82
105 82
106 82
107 83
108 83
109 83
110 83
111 83
112 83
113 83
114 83
115 83
116 83
117 83
118 83
119 83
120 83
121 83
122 83
123 83
124 83
125 83
126 83
127 84
128 84
129 84
130 84
131 84
132 84
133 84
134 84
135 84
136 85
137 85
138 85
139 85
140 85
141 85
142 86
142 87
142 88
142 89
143 90
143 91
143 92
144 93
144 94
144 95
145 96
145 97
146 98
147 99
147 100
148 101
149 102
150 102
151 102
152 102
153 102
154 102
155 101
156 102
157 103
158 104
159 105
160 106
161 107
162 108
163 109
164 110
165 110
166 110
167 110
167 109
168 108
169 107
170 106
170 105
171 104
171 103
171 102
171 101
172 100
172 99
172 98
172 97
172 96
172 95
172 94
172 93
172 92
171 92
170 91
171 90
171 89
170 89
169 88
168 87
167 86
168 85
169 85
170 85
171 85
172 85
173 85
174 85
175 85
176 85
177 85
178 85
179 85
180 85
181 85
182 84
183 84
184 84
185 84
186 84
187 84
188 84
189 84
190 84
191 84
192 84
193 84
194 83
195 83
196 83
197 83
198 83
199 83
200 83
201 83
202 82
203 82
204 82
205 82
206 82
207 81
208 81
209 81
210 81
211 81
212 80
213 80
214 80
215 80
216 79
217 79
218 79
219 80
220 81
221 81
222 82
223 82
224 83
225 84
226 84
227 85
228 85
229 86
230 86
231 87
232 87
233 88
234 88
235 89
236 89
237 89
238 90
239 90
240 90
241 90
242 91
243 91
244 91
245 92
246 92
247 92
248 92
249 92
250 92
251 92
252 92
253 91
253 90
254 89
254 88
254 87
254 86
254 85
254 84
254 83
254 82
255 81
255 80
255 79
255 78
256 77
256 76
257 75
257 74
257 73
257 72
258 71
258 70
257 70
256 69
257 68
258 68
259 68
260 68
261 68
262 68
263 68
264 68
265 68
266 68
267 68
268 68
269 68
270 68
271 68
272 68
273 68
274 69
275 69
276 70
277 70
278 71
279 72
280 72
281 73
282 73
283 74
284 74
285 75
286 76
287 77
288 77
289 78
290 79
291 79
292 80
293 80
294 80
295 81
296 81
297 82
298 82
299 82
300 83
301 83
302 84
303 84
304 84
305 85
306 85
307 85
308 86
309 86
310 86
311 86
312 87
313 87
314 87
315 87
316 88
317 88
318 88
319 89
320 89
321 89
322 89
323 89
324 89
325 90
326 89
327 89
328 89
329 88
329 87
330 86
330 85
330 84
330 83
330 82
330 81
329 81
328 80
329 79
328 79
327 78
328 77
327 77
326 76
327 75
327 74
326 74
325 73
326 72
325 72
324 71
323 70
324 69
323 69
322 68
321 67
320 66
319 65
320 64
319 64
318 63
317 62
316 61
315 60
314 59
315 58
314 58
313 57
314 56
314 55
314 54
314 53
314 52
315 51
316 50
317 49
318 48
318 47
319 46
320 46
320 45
321 44
322 43
322 42
323 41
323 40
324 39
324 38
325 37
326 36
327 35
327 34
328 33
328 32
329 31
329 30
329 29
330 28
330 27
330 26
331 25
331 24
331 23
331 22
331 21
330 21
329 20
328 19
327 19
326 18
325 18
324 18
323 18
322 18
321 18
320 19
319 19
318 19
317 19
316 19
315 19
314 19
313 20
312 20
311 20
310 21
309 21
308 21
307 22
306 22
305 22
304 23
303 23
302 23
301 24
300 24
299 25
298 25
297 26
296 27
295 27
294 28
293 28
292 29
291 29
290 30
289 31
288 31
287 32
286 33
285 33
284 34
283 35
282 35
281 36
280 37
279 37
278 38
277 39
276 39
275 40
274 40
273 41
272 41
271 41
270 41
269 41
268 41
267 41
266 41
265 41
264 41
263 41
262 41
261 41
260 41
259 40
258 41
257 40
256 41
255 40
254 39
254 38
255 37
255 36
255 35
255 34
254 34
253 33
252 32
251 31
250 30
249 30
248 30
247 29
246 29
245 29
244 29
243 29
242 29
241 29
240 29
239 30
238 30
237 30
236 31
235 31
234 31
233 32
232 32
231 32
230 33
229 33
228 34
227 34
226 34
225 35
224 35
223 36
222 36
221 36
220 36
219 36
218 36
217 36
216 36
215 35
214 35
213 35
212 35
211 35
210 35
209 35
208 35
207 35
206 34
205 34
204 34
203 34
202 34
201 34
200 33
199 33
198 33
197 33
196 33
195 33
194 32
193 32
192 32
191 32
190 32
189 32
188 31
187 30
188 29
189 28
190 28
191 27
191 26
192 25
191 25
190 24
191 23
190 23
189 22
190 21
189 21
188 20
189 19
188 19
187 18
188 17
187 17
186 16
185 15
184 14
183 13
184 12
183 12
182 11
181 11
180 10
181 9
180 9
179 9
178 8
177 8
176 7
175 6
174 6
173 5
172 4
171 3
172 2
171 2
