169 2
168 3
167 4
166 5
165 6
164 7
163 8
162 9
161 10
160 11
159 12
158 13
157 14
156 15
156 16
155 17
154 18
153 19
153 20
152 21
151 22
151 23
150 24
149 25
148 26
148 27
147 28
146 29
146 30
145 31
145 32
144 33
143 34
143 35
142 36
141 37
141 38
140 39
140 40
139 41
138 42
137 43
136 43
135 44
134 44
133 43
132 43
131 43
130 43
129 43
128 43
127 43
126 43
125 43
124 43
123 43
122 43
121 43
120 43
119 43
118 43
117 43
116 43
115 43
114 43
113 43
112 43
111 43
110 43
109 44
108 44
107 44
106 44
105 44
104 44
103 44
102 44
101 44
100 44
99 45
98 45
97 45
96 45
95 45
94 46
93 46
92 46
91 46
90 47
89 47
88 47
87 47
86 48
85 48
84 48
83 48
82 49
81 49
80 49
79 50
78 50
77 51
76 51
75 51
74 51
73 52
72 52
71 53
70 53
69 54
68 54
67 55
66 55
65 55
64 56
63 56
62 57
61 57
60 58
59 58
58 59
57 59
56 60
55 60
54 61
53 61
52 62
51 63
50 63
49 64
48 65
47 65
46 66
45 66
44 67
43 67
42 68
41 68
40 69
39 69
38 69
37 70
36 70
35 71
34 71
33 72
32 72
31 73
30 73
29 73
28 73
27 74
26 74
25 75
24 75
23 76
22 76
21 77
20 77
19 78
18 78
17 79
16 79
15 80
14 80
13 81
12 82
11 82
10 83
9 84
8 84
7 85
6 86
5 87
4 88
3 89
3 90
3 91
3 92
4 93
5 94
4 95
3 95
2 95
2 96
2 97
2 98
2 99
2 100
3 101
3 102
4 102
5 103
6 104
7 104
8 105
9 106
10 106
11 107
12 108
13 108
14 109
15 109
16 109
17 109
18 109
19 110
20 110
21 110
22 111
23 111
24 112
25 112
26 113
27 113
28 113
29 114
30 114
31 115
32 115
33 116
34 116
35 116
36 117
37 117
38 117
39 118
40 119
41 119
42 120
43 120
44 120
45 121
46 121
47 122
48 122
49 123
50 123
51 124
52 124
53 124
54 125
55 125
56 125
57 126
58 126
59 126
60 127
61 127
62 127
63 127
64 128
65 128
66 128
67 129
68 129
69 129
70 130
71 130
72 130
73 130
74 131
75 131
76 131
77 131
78 132
79 132
80 132
81 133
82 133
83 133
84 133
85 134
86 134
87 134
88 134
89 134
90 135
91 135
92 135
93 135
94 135
95 136
96 136
97 136
98 136
99 136
100 136
101 136
102 137
103 137
104 137
105 137
106 137
107 137
108 137
109 137
110 137
111 137
112 138
113 138
114 138
115 138
116 138
117 138
118 138
119 138
120 138
121 138
122 138
123 138
124 138
125 138
126 138
127 138
128 138
129 139
130 140
130 141
130 142
131 143
131 144
131 145
132 146
132 147
132 148
133 149
133 150
133 151
134 152
134 153
134 154
135 155
135 156
135 157
136 157
137 158
138 159
137 160
137 161
138 161
139 162
140 163
141 164
141 165
142 165
143 165
143 164
144 163
144 162
145 161
146 161
147 162
148 163
149 164
150 165
151 166
152 167
153 168
154 169
155 170
156 171
157 171
158 171
159 172
160 172
161 172
162 172
163 172
164 172
165 171
166 170
166 169
165 168
166 167
166 166
167 165
167 164
167 163
168 162
168 161
168 160
169 159
169 158
169 157
170 156
170 155
171 154
171 153
171 152
171 151
172 150
172 149
171 148
172 147
171 146
171 145
172 144
172 143
171 143
170 142
169 141
168 140
167 139
166 139
165 138
166 137
167 137
168 137
169 137
170 137
171 137
172 137
173 137
174 137
175 136
176 136
177 136
178 136
179 136
180 136
181 136
182 136
183 136
184 135
185 135
186 135
187 135
188 135
189 135
190 135
191 134
192 134
193 134
194 134
195 134
196 133
197 133
198 133
199 133
200 132
201 132
202 132
203 132
204 132
205 131
206 131
207 131
208 131
209 132
210 133
211 134
212 135
213 136
214 137
215 138
216 139
217 140
218 141
219 142
220 142
221 143
222 144
223 145
224 146
225 147
226 148
227 149
228 150
229 150
230 151
231 152
232 153
233 153
234 154
235 154
236 155
237 156
238 156
239 157
240 157
240 156
241 155
240 155
239 154
240 153
240 152
240 151
241 150
241 149
241 148
241 147
241 146
241 145
241 144
242 143
242 142
242 141
242 140
242 139
243 138
243 137
243 136
244 135
244 134
244 133
244 132
245 131
245 130
245 129
246 128
247 127
247 126
248 125
249 124
250 123
250 122
251 121
251 120
252 119
253 118
253 117
254 116
255 116
255 115
256 114
257 114
257 113
258 112
257 112
256 112
255 111
254 111
253 110
252 110
251 109
250 109
249 108
250 107
251 107
252 107
253 107
254 107
255 107
256 106
257 106
258 106
259 106
260 106
261 106
262 106
263 106
264 106
265 106
266 106
267 106
268 106
269 106
270 106
271 106
272 106
273 107
274 107
275 107
276 107
277 108
278 108
279 109
280 109
281 110
282 111
283 112
284 113
285 114
286 114
287 115
287 116
288 116
289 117
290 118
291 119
292 120
293 121
294 122
295 123
296 124
297 124
298 125
299 126
300 127
301 127
302 128
303 129
304 130
305 130
306 131
307 131
308 132
309 133
310 134
311 134
312 135
313 136
314 136
315 137
316 137
317 138
318 138
319 138
320 138
321 139
322 139
323 140
324 140
325 140
326 140
327 141
328 141
329 141
330 141
331 141
332 141
332 140
333 139
332 139
331 138
330 137
329 136
330 135
330 134
329 134
328 133
329 132
329 131
328 131
327 130
328 129
328 128
328 127
327 127
326 126
327 125
327 124
327 123
326 123
325 122
326 121
326 120
326 119
325 119
324 118
325 117
324 117
323 116
322 115
323 114
322 114
321 113
320 112
321 111
320 111
319 110
320 109
319 109
318 108
317 107
318 106
317 106
316 105
315 104
316 103
315 103
314 102
313 101
312 100
311 99
312 98
311 98
310 97
309 96
310 95
309 95
308 94
307 93
308 92
307 92
306 91
307 90
307 89
307 88
308 87
309 86
309 85
310 84
311 84
311 83
312 82
313 81
314 80
315 79
315 78
316 77
317 77
317 76
318 75
319 74
320 73
320 72
321 71
322 70
323 69
323 68
324 67
325 66
325 65
326 64
326 63
327 62
328 61
328 60
329 59
330 58
330 57
331 56
332 55
332 54
333 53
333 52
334 51
335 50
335 49
336 48
337 47
337 46
336 46
335 47
334 47
333 47
332 47
331 47
330 47
329 47
328 47
327 47
326 48
325 48
324 48
323 48
322 49
321 49
320 50
319 50
318 50
317 50
316 51
315 51
314 51
313 51
312 52
311 52
310 53
309 53
308 54
307 54
306 55
305 55
304 56
303 56
302 57
301 57
300 58
299 58
298 59
297 59
296 60
295 61
294 61
293 62
292 63
291 63
290 64
289 65
288 65
287 66
286 66
285 67
284 68
283 68
282 69
281 69
280 70
279 71
278 72
277 72
276 73
275 73
274 74
273 74
272 75
271 75
270 75
269 76
268 76
267 76
266 76
265 77
264 77
263 77
262 76
261 76
260 76
259 76
258 76
257 76
256 76
255 75
254 75
253 75
252 75
251 74
252 73
253 72
253 71
254 70
253 70
252 69
253 68
253 67
252 67
251 66
250 65
249 65
248 64
247 64
246 64
245 64
244 64
243 64
242 64
241 64
240 64
239 64
238 65
237 65
236 65
235 66
234 66
233 66
232 66
231 67
230 67
229 67
228 67
227 66
226 66
225 66
224 66
223 66
222 65
221 65
220 64
219 64
218 64
217 63
216 63
215 62
214 62
213 62
212 61
211 61
210 61
209 60
208 60
207 59
206 59
205 59
204 58
203 58
202 58
201 58
200 57
199 57
198 56
197 56
196 55
195 55
194 55
193 55
192 55
191 54
190 54
189 54
188 54
187 53
186 53
185 53
184 52
183 52
182 52
181 52
180 52
179 52
178 51
177 51
176 50
177 49
177 48
178 47
179 46
179 45
180 44
181 44
181 43
182 42
183 41
184 40
184 39
185 38
185 37
185 36
185 35
184 35
183 34
184 33
184 32
184 31
184 30
184 29
183 29
182 28
183 27
183 26
183 25
182 25
181 24
182 23
182 22
182 21
182 20
181 20
180 19
181 18
181 17
181 16
180 16
179 15
180 14
180 13
179 13
178 12
179 11
178 11
177 10
176 9
177 8
176 8
175 7
174 6
175 5
174 5
173 4
172 3
171 2
170 2
