171 2
170 3
169 4
168 4
167 5
166 6
165 6
164 7
163 8
162 9
161 10
160 10
159 11
158 12
157 13
156 14
155 15
154 16
154 17
153 18
152 18
151 19
150 20
150 21
149 22
148 23
147 24
146 24
146 25
145 26
144 27
143 28
142 29
141 30
140 31
139 32
138 33
137 33
136 33
135 33
134 33
133 33
132 33
131 33
130 33
129 33
128 33
127 33
126 33
125 33
124 33
123 33
122 33
121 33
120 33
119 33
118 33
117 33
116 33
115 32
114 32
113 32
112 32
111 32
110 32
109 32
108 32
107 32
106 32
105 32
104 32
103 32
102 32
101 32
100 32
99 32
98 32
97 32
96 32
95 32
94 32
93 32
92 32
91 32
90 32
89 32
88 32
87 32
86 32
85 32
84 32
83 32
82 32
81 32
80 32
79 32
78 32
77 32
76 32
75 32
74 33
73 32
72 33
71 33
70 33
69 33
68 33
67 33
66 33
65 33
64 34
63 34
62 34
61 34
60 34
59 35
58 35
57 35
56 35
55 36
54 36
53 36
52 36
51 37
50 37
49 37
48 37
47 38
46 38
45 38
44 39
43 39
42 39
41 39
40 39
39 40
38 40
37 40
36 40
35 40
34 40
33 41
32 41
31 41
30 41
29 41
28 42
27 42
26 42
25 42
24 43
23 43
22 43
21 44
20 44
19 44
18 45
17 45
16 46
15 46
14 46
13 47
12 48
11 48
10 48
9 49
9 50
8 51
7 51
6 52
5 53
5 54
4 55
4 56
4 57
4 58
3 59
2 59
2 60
2 61
2 62
3 63
3 64
4 65
5 66
6 67
7 68
8 69
9 70
10 70
11 71
12 72
13 72
14 73
15 74
16 74
17 75
18 75
19 76
20 76
21 77
22 77
23 78
24 78
25 78
26 79
27 80
28 80
29 81
30 81
31 81
32 82
33 82
34 83
35 84
36 84
37 84
38 85
39 85
40 85
41 85
42 85
43 86
44 86
45 87
46 87
47 87
48 88
49 88
50 88
51 88
52 88
53 88
54 89
55 89
56 89
57 89
58 90
59 90
60 90
61 90
62 91
63 91
64 91
65 91
66 92
67 92
68 92
69 93
70 93
71 93
72 93
73 93
74 94
75 94
76 94
77 94
78 94
79 94
80 94
81 95
82 95
83 95
84 95
85 95
86 95
87 96
88 96
89 96
90 96
91 96
92 96
93 96
94 96
95 97
96 97
97 97
98 97
99 97
100 97
101 97
102 98
103 97
104 98
105 98
106 98
107 98
108 98
109 99
110 99
111 99
112 99
113 99
114 99
115 99
116 99
117 99
118 99
119 99
120 99
121 99
122 99
123 99
124 99
125 99
126 99
127 99
128 99
129 99
130 99
131 99
132 99
133 99
134 99
135 100
136 99
137 100
138 100
139 100
140 100
141 100
142 100
143 100
144 100
145 101
145 102
145 103
145 104
145 105
145 106
145 107
145 108
145 109
145 110
146 111
146 112
146 113
146 114
146 115
147 116
147 117
147 118
148 119
148 120
149 121
149 122
150 122
151 122
152 122
153 122
154 122
154 121
155 120
156 119
157 120
158 121
159 122
160 123
160 124
161 125
162 126
163 127
164 128
165 129
166 129
167 129
168 128
169 127
170 126
171 125
172 124
172 123
173 122
174 121
174 120
175 119
175 118
176 117
176 116
176 115
176 114
176 113
177 112
177 111
177 110
176 110
175 109
176 108
176 107
175 107
174 106
173 105
174 104
173 104
172 104
171 103
170 102
169 101
170 100
171 100
172 100
173 100
174 100
175 100
176 100
177 99
178 100
179 100
180 99
181 99
182 99
183 99
184 99
185 99
186 99
187 99
188 98
189 98
190 98
191 98
192 98
193 98
194 97
195 97
196 97
197 97
198 96
199 96
200 96
201 96
202 95
203 95
204 95
205 95
206 94
207 94
208 94
209 94
210 93
211 93
212 93
213 92
214 92
215 92
216 92
217 93
218 93
219 94
220 94
221 94
222 95
223 96
224 96
225 97
226 98
227 98
228 98
229 99
230 99
231 100
232 100
233 100
234 101
235 101
236 102
237 102
238 103
239 103
240 103
241 104
242 104
243 104
244 105
245 105
246 105
247 105
248 106
249 106
250 106
251 106
252 106
253 107
254 107
255 107
256 106
256 105
255 104
256 103
256 102
255 102
254 101
255 100
254 100
253 99
252 98
253 97
253 96
252 96
251 95
252 94
252 93
252 92
252 91
252 90
252 89
252 88
253 87
253 86
254 85
254 84
255 83
255 82
255 81
255 80
254 80
253 79
252 79
251 78
252 77
253 77
254 77
255 77
256 77
257 77
258 76
259 76
260 76
261 76
262 76
263 77
264 77
265 77
266 77
267 78
268 78
269 79
270 79
271 80
272 80
273 81
274 81
275 81
276 82
276 83
277 84
278 85
279 85
280 86
281 86
282 87
283 87
284 88
285 88
286 89
287 89
288 90
289 90
290 91
291 92
292 92
293 93
294 93
295 94
296 94
297 95
298 95
299 96
300 96
301 97
302 97
303 98
304 98
305 99
306 99
307 100
308 101
309 101
310 102
311 102
312 102
313 103
314 103
315 103
316 104
317 104
318 105
319 105
320 105
321 106
322 106
323 106
324 106
325 105
326 104
326 103
327 102
326 102
325 101
326 100
326 99
325 99
324 98
325 97
325 96
324 96
323 95
322 94
323 93
322 93
321 92
320 91
321 90
320 90
319 89
318 88
317 87
316 86
317 85
316 85
315 84
314 83
313 82
314 81
313 81
312 80
313 79
312 79
311 79
310 78
309 77
308 76
307 75
308 74
307 74
306 73
305 72
304 71
303 70
302 69
301 68
302 67
302 66
301 65
301 64
302 63
303 62
304 61
305 60
306 60
307 59
308 58
309 57
310 56
311 55
312 55
312 54
313 53
314 52
315 51
315 50
316 49
317 48
317 47
318 46
319 45
319 44
320 43
321 42
322 41
322 40
323 39
323 38
324 37
324 36
325 35
325 34
326 33
326 32
327 31
327 30
328 29
328 28
328 27
327 27
326 26
327 25
326 25
325 25
324 25
323 25
322 25
321 25
320 25
319 25
318 25
317 25
316 25
315 26
314 26
313 26
312 26
311 26
310 27
309 27
308 28
307 28
306 28
305 29
304 29
303 29
302 30
301 30
300 30
299 30
298 31
297 31
296 32
295 33
294 33
293 33
292 34
291 34
290 35
289 36
288 36
287 37
286 37
285 38
284 38
283 39
282 40
281 40
280 41
279 42
278 42
277 43
276 44
275 44
274 45
273 45
272 46
271 47
270 47
269 48
268 48
267 49
266 50
265 50
264 51
263 51
262 51
261 51
260 51
259 51
258 51
257 51
256 51
255 51
254 51
253 51
252 51
251 51
250 51
249 51
248 51
247 51
246 50
247 49
248 49
249 48
250 48
251 48
252 47
252 46
253 45
253 44
252 43
253 42
252 42
251 41
250 40
249 40
248 39
247 39
246 39
245 39
244 39
243 39
242 39
241 39
240 39
239 40
238 40
237 40
236 40
235 41
234 41
233 42
232 42
231 43
230 43
229 44
228 44
227 44
226 44
225 45
224 45
223 46
222 46
221 45
220 45
219 45
218 45
217 44
216 44
215 44
214 44
213 43
212 43
211 43
210 43
209 43
208 42
207 42
206 42
205 42
204 42
203 42
202 41
201 41
200 41
199 41
198 41
197 41
196 40
195 40
194 40
193 40
192 40
191 40
190 40
189 39
188 39
187 39
186 39
185 39
184 39
183 39
182 38
183 37
184 37
185 36
186 36
187 35
188 35
189 34
190 34
191 33
192 32
193 31
193 30
192 29
193 28
192 28
191 27
190 26
189 25
188 24
187 23
186 23
185 22
184 21
183 20
182 19
181 18
180 17
179 16
178 15
179 14
179 13
178 13
177 12
176 11
177 10
176 10
175 9
176 8
176 7
175 7
174 6
175 5
174 5
173 4
174 3
174 2
173 2
172 2
