201 2
200 3
199 3
198 4
197 4
196 5
195 5
194 6
193 7
192 7
191 8
190 9
189 10
188 11
187 11
186 12
185 13
184 14
183 15
182 16
181 17
180 18
179 19
178 20
178 21
177 22
176 22
175 23
174 24
174 25
173 26
172 26
171 27
171 28
170 29
169 30
168 31
167 32
166 33
165 34
164 35
163 36
162 36
161 36
160 36
159 36
158 36
157 36
156 36
155 35
154 35
153 35
152 35
151 35
150 35
149 35
148 35
147 34
146 35
145 35
144 34
143 34
142 34
141 34
140 34
139 34
138 34
137 34
136 34
135 34
134 34
133 34
132 34
131 34
130 33
129 34
128 33
127 33
126 33
125 33
124 34
123 33
122 33
121 33
120 32
119 33
118 33
117 33
116 33
115 33
114 33
113 33
112 33
111 33
110 33
109 33
108 33
107 33
106 33
105 33
104 33
103 34
102 33
101 34
100 34
99 34
98 34
97 34
96 34
95 34
94 34
93 34
92 34
91 34
90 34
89 35
88 35
87 35
86 35
85 35
84 35
83 36
82 36
81 36
80 36
79 36
78 36
77 37
76 37
75 37
74 37
73 37
72 38
71 38
70 38
69 38
68 39
67 39
66 39
65 39
64 40
63 40
62 40
61 40
60 41
59 40
58 41
57 41
56 41
55 42
54 42
53 42
52 42
51 43
50 43
49 43
48 44
47 44
46 44
45 44
44 44
43 45
42 45
41 45
40 45
39 45
38 46
37 46
36 46
35 46
34 47
33 47
32 47
31 47
30 47
29 48
28 48
27 48
26 48
25 48
24 49
23 49
22 49
21 49
20 49
19 50
18 50
17 50
16 50
15 51
14 51
13 52
12 52
11 52
10 53
9 53
8 54
7 54
6 55
5 56
4 57
4 58
4 59
4 60
5 61
6 62
7 63
8 64
7 65
6 65
5 64
4 63
3 63
3 64
2 65
2 66
2 67
2 68
3 69
3 70
3 71
4 72
5 73
6 74
7 75
8 75
9 76
10 76
11 77
12 77
13 78
14 78
15 78
16 79
17 79
18 80
19 80
20 81
21 81
22 82
23 82
24 82
25 83
26 83
27 83
28 84
29 84
30 85
31 85
32 86
33 86
34 86
35 87
36 87
37 87
38 87
39 88
40 88
41 88
42 88
43 89
44 89
45 89
46 89
47 90
48 90
49 90
50 90
51 90
52 90
53 91
54 91
55 91
56 91
57 92
58 92
59 92
60 92
61 92
62 92
63 93
64 93
65 93
66 93
67 94
68 94
69 94
70 94
71 94
72 95
73 95
74 95
75 95
76 96
76 97
76 98
76 99
76 100
76 101
77 102
77 103
77 104
77 105
77 106
78 107
78 108
78 109
79 110
79 111
80 112
80 113
80 114
81 115
81 116
82 117
83 118
84 117
85 117
86 116
87 116
88 115
89 114
90 114
91 114
92 113
93 114
94 115
95 116
96 117
97 118
98 119
99 120
100 120
101 121
102 121
103 122
104 122
105 122
106 123
107 123
108 123
109 123
110 124
111 124
112 124
113 124
114 124
115 124
116 124
116 123
117 122
117 121
117 120
117 119
117 118
117 117
117 116
117 115
117 114
116 114
115 113
116 112
116 111
116 110
116 109
115 109
114 108
115 107
115 106
114 106
113 105
114 104
114 103
115 102
116 102
117 102
118 102
119 102
120 102
121 102
122 102
123 103
124 103
125 103
126 103
127 103
128 103
129 103
130 103
131 103
132 103
133 104
134 103
135 104
136 104
137 104
138 104
139 104
140 104
141 104
142 104
143 104
144 104
145 104
146 104
147 105
148 105
149 105
150 105
151 105
152 105
153 105
154 105
155 105
156 105
157 105
158 105
159 105
160 105
161 105
162 105
163 105
164 105
165 105
166 105
167 105
168 105
169 105
170 105
171 105
172 105
173 105
174 105
175 105
176 105
177 105
178 105
179 105
180 105
181 105
182 105
183 105
184 105
185 105
186 105
187 105
188 105
189 105
190 105
191 105
192 105
193 105
194 105
195 105
196 105
197 105
198 105
199 105
200 105
201 105
202 105
203 105
204 105
205 105
206 105
207 106
208 107
208 108
208 109
208 110
209 111
209 112
210 113
210 114
211 115
211 116
212 117
212 118
212 119
213 120
214 121
215 122
215 123
216 124
217 124
218 125
219 124
220 123
220 122
221 121
222 121
223 120
224 119
225 119
226 120
227 121
228 121
229 122
230 123
231 123
232 124
233 125
234 125
235 126
236 126
237 127
238 127
239 128
240 129
241 129
242 130
243 130
244 130
245 130
245 129
246 128
247 128
247 127
248 126
248 125
249 124
249 123
250 122
250 121
250 120
250 119
251 118
251 117
251 116
251 115
251 114
251 113
251 112
252 111
251 111
250 110
251 109
251 108
251 107
251 106
251 105
250 105
249 104
250 103
250 102
250 101
249 101
248 100
249 99
249 98
248 98
247 97
248 96
249 95
250 95
251 95
252 95
253 95
254 95
255 95
255 94
256 93
257 94
258 94
259 94
260 93
261 92
262 91
263 92
263 93
264 93
265 92
266 93
267 94
268 93
269 92
270 91
271 92
271 91
272 90
273 91
273 92
274 91
275 91
276 92
276 91
277 90
278 90
279 90
280 90
281 89
282 90
283 90
284 89
285 89
286 89
287 90
287 91
286 92
285 92
284 93
283 93
282 93
281 94
280 94
279 94
278 94
277 94
276 95
275 96
274 96
273 97
272 96
271 97
270 97
269 96
268 96
267 96
267 97
268 98
269 98
270 99
271 100
272 101
273 102
274 103
275 104
276 105
277 106
278 107
279 107
280 108
281 109
282 110
283 110
284 111
285 112
286 112
287 113
288 114
288 115
289 114
290 115
291 115
292 116
293 116
294 117
295 117
296 118
297 118
298 119
299 119
300 119
301 119
302 120
303 120
304 120
305 120
306 120
307 120
308 121
309 121
310 121
311 121
312 121
313 121
314 120
315 120
316 120
316 119
316 118
316 117
316 116
315 115
316 114
316 113
316 112
316 111
315 111
314 110
315 109
315 108
315 107
315 106
315 105
315 104
316 103
316 102
316 101
316 100
316 99
316 98
316 97
315 96
316 95
316 94
316 93
316 92
316 91
316 90
316 89
315 89
314 89
313 88
312 88
311 87
310 87
309 86
308 86
307 86
306 86
305 85
304 85
303 85
302 85
301 84
302 83
303 83
304 83
305 83
306 83
307 83
308 83
309 83
310 83
311 83
312 83
313 83
314 83
315 83
316 83
317 83
318 84
319 84
320 85
321 85
322 85
323 86
324 87
325 87
326 88
327 89
328 90
329 90
330 91
331 91
332 92
333 93
334 94
335 94
336 95
337 95
338 96
339 97
340 97
341 98
342 98
343 99
344 100
345 100
346 101
347 102
348 102
349 103
350 104
351 104
352 105
353 105
354 106
355 106
356 107
357 107
358 107
359 108
360 108
361 109
362 109
363 110
364 110
365 110
366 111
367 111
368 112
369 112
370 113
371 113
372 113
373 114
374 114
375 114
376 115
377 115
378 115
378 114
379 113
379 112
379 111
380 110
380 109
380 108
380 107
380 106
380 105
380 104
380 103
379 103
378 102
379 101
379 100
378 100
377 99
378 98
378 97
378 96
378 95
377 95
376 94
377 93
377 92
376 92
375 91
376 90
375 90
374 89
375 88
374 88
373 87
374 86
373 86
372 85
373 84
372 84
371 83
372 82
371 82
370 81
371 80
371 79
370 79
369 78
370 77
370 76
370 75
370 74
370 73
370 72
370 71
370 70
371 69
371 68
372 67
372 66
373 65
374 64
374 63
375 62
375 61
376 60
376 59
377 58
377 57
377 56
378 55
378 54
379 53
379 52
380 51
380 50
380 49
381 48
381 47
381 46
382 45
382 44
382 43
382 42
382 41
382 40
382 39
381 39
380 38
379 38
378 38
377 38
376 38
375 38
374 38
373 38
372 38
371 38
370 38
369 39
368 39
367 39
366 39
365 39
364 40
363 40
362 40
361 41
360 41
359 41
358 42
357 42
356 42
355 43
354 43
353 43
352 44
351 44
350 44
349 45
348 45
347 46
346 46
345 46
344 47
343 47
342 48
341 48
340 49
339 49
338 50
337 50
336 50
335 51
334 52
333 52
332 53
331 53
330 54
329 54
328 55
327 55
326 55
325 56
324 56
323 57
322 57
321 57
320 58
319 58
318 58
317 58
316 58
315 57
314 57
313 57
312 57
311 57
310 56
309 56
308 56
307 56
306 56
305 55
304 55
303 55
302 55
301 54
302 53
303 52
304 52
305 52
306 52
307 52
308 52
309 52
310 52
310 51
311 50
311 49
311 48
311 47
310 47
309 46
310 45
309 45
308 44
307 43
306 42
305 42
304 41
303 41
302 41
301 40
300 40
299 40
298 40
297 40
296 40
295 40
294 40
293 40
292 40
291 40
290 41
289 41
288 41
287 42
286 42
285 42
284 43
283 43
282 43
281 44
280 44
279 45
278 45
277 45
276 46
275 46
274 46
273 46
272 47
271 47
270 47
269 47
268 47
267 47
266 47
265 47
264 46
263 46
262 46
261 46
260 46
259 46
258 46
257 45
256 45
255 45
254 45
253 45
252 44
251 44
250 43
249 43
248 44
247 43
246 44
245 43
244 43
243 43
242 43
241 43
240 43
239 43
238 43
237 43
236 43
235 43
234 42
233 42
232 42
231 42
230 42
229 42
228 42
227 42
226 42
225 42
224 42
223 42
222 42
221 42
220 42
219 41
218 41
217 41
216 40
217 39
218 38
219 37
220 36
221 35
221 34
222 33
223 32
223 31
224 30
225 29
225 28
226 27
226 26
226 25
225 25
224 24
223 23
224 22
223 22
222 22
221 21
222 20
221 20
220 20
219 19
218 18
219 17
218 17
217 16
216 15
215 14
214 13
213 12
212 12
211 11
212 10
212 9
211 9
210 8
211 7
210 7
209 6
208 5
207 4
206 3
205 2
204 2
203 2
202 2
