162 1
161 2
160 2
159 2
158 2
157 3
156 4
155 4
154 5
153 6
152 5
151 4
150 5
149 6
148 7
147 8
146 9
145 9
144 10
143 11
143 12
142 13
141 14
140 15
140 16
139 17
138 18
137 19
137 20
136 21
135 22
134 22
133 22
132 22
131 22
130 22
129 22
128 22
127 21
126 21
125 21
124 21
123 21
122 21
121 21
120 21
119 21
118 21
117 21
116 21
115 21
114 21
113 21
112 21
111 21
110 21
109 21
108 21
107 21
106 21
105 21
104 21
103 21
102 21
101 21
100 21
99 21
98 20
97 20
96 20
95 20
94 20
93 20
92 20
91 20
90 20
89 20
88 20
87 20
86 20
85 20
84 20
83 20
82 20
81 20
80 21
79 20
78 20
77 20
76 20
75 20
74 20
73 21
72 21
71 21
70 21
69 21
68 21
67 21
66 21
65 21
64 21
63 21
62 21
61 21
60 21
59 21
58 21
57 21
56 21
55 21
54 21
53 22
52 22
51 21
50 21
49 21
48 22
47 22
46 22
45 22
44 22
43 22
42 23
41 23
40 23
39 23
38 23
37 24
36 24
35 24
34 24
33 24
32 24
31 24
30 24
29 24
28 24
27 24
26 25
25 25
24 25
23 26
22 26
21 27
20 27
19 28
18 29
17 29
16 29
15 30
14 30
13 31
12 31
11 31
10 31
9 32
8 32
7 32
6 33
5 33
4 34
4 35
4 36
3 37
2 37
2 38
2 39
2 40
3 41
4 42
5 42
6 43
7 44
8 44
9 45
10 46
11 47
12 47
13 48
14 49
15 49
16 50
17 51
18 51
19 51
20 52
21 52
22 52
23 53
24 53
25 53
26 53
27 53
28 54
29 54
30 54
31 55
32 55
33 55
34 56
35 56
36 57
37 57
38 57
39 58
40 58
41 58
42 58
43 58
44 59
45 59
46 59
47 59
48 60
49 60
50 60
51 60
52 60
53 60
54 60
55 60
56 61
57 61
58 61
59 61
60 61
61 61
62 62
63 62
64 62
65 62
66 62
67 63
68 63
69 63
70 63
71 63
72 63
73 63
74 64
75 64
76 64
77 64
78 64
79 64
80 64
81 65
82 65
83 65
84 65
85 65
86 65
87 65
88 66
89 66
90 66
91 66
92 66
93 66
94 66
95 66
96 66
97 67
98 67
99 67
100 67
101 67
102 67
103 67
104 66
105 66
106 66
107 66
108 67
109 66
110 67
111 67
112 67
113 67
114 67
115 67
116 67
117 67
118 67
119 67
120 67
121 67
122 67
123 67
124 67
125 67
126 68
127 69
128 70
128 71
129 72
130 73
130 74
131 74
132 75
132 76
133 77
134 78
134 79
135 79
136 80
137 80
138 80
139 81
140 80
140 79
141 78
142 78
143 79
144 80
145 81
146 81
147 82
148 82
149 83
150 83
151 84
152 83
153 83
154 82
155 82
156 81
156 80
157 79
157 78
158 77
158 76
158 75
158 74
158 73
158 72
159 71
159 70
158 70
157 69
158 68
159 67
160 67
161 67
162 66
163 66
164 66
165 66
166 66
167 66
168 66
169 65
170 65
171 65
172 65
173 65
174 65
175 64
176 64
177 64
178 64
179 64
180 63
181 63
182 63
183 63
184 63
185 64
186 65
186 66
187 67
188 67
189 67
190 68
191 69
192 70
193 70
194 71
195 72
196 72
197 72
198 72
199 72
200 72
201 72
202 71
203 71
204 71
205 71
206 70
207 70
208 69
209 69
210 68
211 67
212 67
213 67
214 67
215 66
216 66
217 65
218 64
219 63
220 63
221 62
222 61
223 61
224 60
225 59
225 58
226 57
226 56
226 55
227 54
228 54
229 54
230 54
231 54
232 54
233 54
234 54
235 54
236 54
237 54
238 54
239 54
240 54
241 54
242 54
243 54
244 54
245 54
246 55
247 56
248 57
249 58
250 58
251 59
252 60
253 60
254 61
255 61
256 62
257 63
258 64
259 64
260 65
261 66
262 66
263 67
264 67
265 68
266 68
267 69
268 70
269 71
270 72
271 72
272 72
273 73
274 74
275 74
276 75
277 75
278 76
279 76
280 76
281 77
282 78
283 78
284 78
285 79
286 79
287 79
288 79
289 80
289 79
290 78
290 77
290 76
289 76
288 75
289 74
288 74
287 73
288 72
287 72
286 71
287 70
287 69
287 68
287 67
286 67
285 67
284 66
284 65
285 64
284 64
283 63
284 62
283 62
282 61
281 60
280 60
279 59
278 58
277 57
276 56
275 55
276 54
275 54
274 53
273 52
272 51
271 50
272 49
272 48
271 48
270 47
271 46
271 45
272 44
272 43
273 42
274 41
274 40
275 39
276 38
277 38
277 37
278 36
279 35
279 34
280 33
281 32
282 31
283 30
284 29
284 28
285 27
285 26
285 25
286 24
286 23
287 22
287 21
288 20
288 19
289 18
289 17
289 16
290 15
290 14
289 14
288 14
287 14
286 15
285 15
284 16
283 16
282 17
281 17
280 18
279 18
278 19
277 19
276 20
275 21
274 21
273 22
272 23
271 23
270 24
269 24
268 24
267 24
266 25
265 25
264 26
263 27
262 27
261 28
260 28
259 29
258 30
257 30
256 31
255 31
254 31
253 32
252 33
251 33
250 34
249 35
248 36
247 37
246 38
245 38
244 38
243 38
242 38
241 38
240 38
239 38
238 38
237 38
236 38
235 38
234 38
233 38
232 38
231 38
230 38
229 38
228 38
227 38
226 38
225 38
224 37
225 36
224 36
223 35
224 34
223 34
222 33
221 32
220 32
219 32
218 31
217 31
216 31
215 31
214 31
213 30
212 30
211 30
210 30
209 30
208 30
207 31
206 31
205 32
204 32
203 33
203 34
202 35
201 35
200 34
199 34
198 34
197 34
196 34
195 33
194 33
193 33
192 33
191 33
190 32
189 32
188 32
187 32
186 31
185 31
184 31
183 31
182 31
181 31
180 31
179 31
178 31
177 30
176 30
175 30
174 30
173 30
172 29
171 29
170 28
171 27
172 27
173 26
174 25
175 24
176 24
177 23
177 22
178 21
178 20
178 19
178 18
177 18
176 17
177 16
177 15
176 15
175 14
176 13
176 12
175 11
175 10
174 10
173 9
172 9
171 8
170 7
171 6
170 6
169 5
170 4
169 4
168 4
167 4
166 3
165 2
164 2
163 2
