185 2
184 3
183 3
182 3
181 3
180 3
179 4
178 4
177 4
176 5
175 5
174 5
173 5
172 6
171 6
170 6
169 7
168 7
167 7
166 8
165 8
164 8
163 9
162 9
161 9
160 10
159 10
158 10
157 11
156 12
155 12
154 12
153 13
152 13
151 13
150 13
149 14
148 14
147 15
146 15
145 16
144 16
143 17
142 17
141 17
140 17
139 17
138 17
137 17
136 17
135 16
134 16
133 16
132 16
131 16
130 16
129 16
128 16
127 16
126 16
125 16
124 15
123 15
122 15
121 15
120 15
119 15
118 15
117 15
116 15
115 15
114 15
113 15
112 15
111 14
110 14
109 14
108 14
107 14
106 14
105 14
104 14
103 14
102 14
101 14
100 14
99 14
98 14
97 14
96 14
95 14
94 14
93 14
92 14
91 14
90 14
89 14
88 14
87 14
86 14
85 14
84 14
83 14
82 14
81 14
80 14
79 14
78 14
77 14
76 14
75 14
74 15
73 15
72 15
71 15
70 15
69 15
68 15
67 16
66 16
65 16
64 16
63 16
62 17
61 17
60 17
59 17
58 17
57 17
56 18
55 18
54 18
53 19
52 19
51 19
50 20
49 20
48 20
47 20
46 20
45 20
44 20
43 20
42 21
41 21
40 21
39 21
38 22
37 22
36 22
35 22
34 23
33 23
32 24
31 24
30 24
29 25
28 25
27 25
26 26
25 26
24 27
23 27
22 27
21 27
20 27
19 28
18 28
17 29
16 29
15 30
14 30
13 31
12 31
11 32
10 32
9 33
8 33
7 34
6 35
5 36
4 37
4 38
3 39
3 40
2 41
2 42
2 43
3 44
3 45
3 46
3 47
3 48
4 49
5 49
6 50
7 51
8 52
8 53
9 53
10 54
11 55
12 56
13 56
14 57
15 58
16 58
17 59
18 60
19 61
20 61
21 61
22 62
23 63
24 63
25 64
26 64
27 65
28 65
29 66
30 66
31 66
32 67
33 67
34 67
35 67
36 68
37 68
38 68
39 68
40 69
41 69
42 70
43 69
44 69
45 70
46 70
47 70
48 71
49 71
50 71
51 71
52 71
53 71
54 71
55 71
56 71
57 72
58 72
59 72
60 72
61 72
62 72
63 73
64 73
65 73
66 73
67 73
68 74
69 74
70 74
71 74
72 74
73 75
74 75
75 75
76 75
77 75
78 75
79 75
80 75
81 75
82 76
83 76
84 76
85 76
86 76
87 76
88 76
89 77
90 77
91 77
92 77
93 77
94 77
95 77
96 77
97 77
98 77
99 77
100 77
101 77
102 77
103 78
104 78
105 78
106 78
107 78
108 78
109 78
110 78
111 78
112 78
113 78
114 78
115 78
116 77
117 77
118 77
119 77
120 77
121 77
122 77
123 78
124 78
125 79
126 80
126 81
127 82
128 83
128 84
129 84
130 85
131 85
132 86
133 87
134 88
135 89
136 89
137 90
138 91
139 92
140 92
141 93
142 93
143 93
144 94
145 94
146 95
147 95
148 95
149 95
149 94
150 93
149 92
149 91
149 90
149 89
149 88
148 88
147 87
146 86
147 85
148 85
149 86
150 86
151 87
152 87
153 87
154 88
155 88
156 88
157 89
158 89
159 89
160 89
161 89
162 90
163 90
164 90
165 90
166 90
167 89
167 88
168 87
168 86
168 85
167 85
166 85
165 84
164 83
163 82
164 81
164 80
163 80
162 79
161 78
160 78
159 77
160 76
161 75
162 76
163 77
164 77
165 78
166 78
167 78
168 79
169 79
170 80
171 81
172 81
173 82
174 82
175 83
176 84
177 84
178 84
179 85
180 85
181 85
182 85
183 85
184 85
185 86
186 86
187 86
188 87
189 87
190 87
191 88
192 88
193 88
194 89
195 89
196 89
197 90
198 90
199 90
200 90
201 90
202 90
203 89
204 88
204 87
205 86
205 85
205 84
206 83
206 82
206 81
206 80
206 79
206 78
206 77
206 76
206 75
206 74
205 74
204 73
205 72
205 71
204 71
203 71
202 70
201 70
200 70
199 70
198 69
197 69
196 69
195 69
194 68
193 68
192 67
193 66
194 66
195 66
196 66
197 66
198 66
199 66
200 66
201 65
202 65
203 65
204 65
205 65
206 65
207 65
208 65
209 64
210 64
211 64
212 64
213 64
214 64
215 64
216 64
217 64
218 64
219 64
220 64
221 64
222 64
223 64
224 64
225 64
226 64
227 64
228 65
229 65
230 65
231 65
232 66
233 66
234 66
235 67
236 67
237 68
238 68
239 69
240 69
241 69
242 70
243 70
244 70
245 71
246 71
247 71
248 71
249 72
250 72
251 72
252 73
253 73
254 74
255 74
256 74
257 75
258 75
259 75
260 75
261 76
262 76
263 77
264 77
265 77
266 77
267 78
268 78
269 78
270 78
271 78
272 78
273 78
274 78
275 78
276 78
277 77
278 76
278 75
279 74
280 73
280 72
281 71
282 70
282 69
283 68
284 67
284 66
285 65
285 64
285 63
286 62
286 61
286 60
286 59
287 58
287 57
288 56
288 55
288 54
288 53
288 52
288 51
289 50
289 49
289 48
289 47
289 46
288 46
287 45
288 44
288 43
288 42
288 41
288 40
288 39
288 38
288 37
287 37
286 36
287 35
287 34
286 34
285 33
286 32
286 31
285 31
284 30
285 29
284 29
283 28
284 27
283 27
282 26
281 25
282 24
281 24
280 23
279 22
278 22
277 22
276 23
275 22
274 23
273 23
272 23
271 23
270 23
269 24
268 24
267 24
266 24
265 24
264 24
263 25
262 25
261 25
260 25
259 25
258 26
257 26
256 26
255 27
254 27
253 27
252 27
251 27
250 27
249 27
248 28
247 28
246 28
245 29
244 29
243 29
242 30
241 30
240 31
239 31
238 31
237 32
236 32
235 32
234 33
233 33
232 34
231 34
230 34
229 35
228 35
227 35
226 36
225 36
224 36
223 36
222 35
221 35
220 35
219 35
218 35
217 35
216 35
215 35
214 34
213 34
212 34
211 34
210 34
209 34
208 34
207 33
206 33
205 33
204 33
203 32
202 32
201 32
200 32
199 32
198 31
197 31
196 30
197 29
198 29
199 29
200 28
201 28
202 28
203 28
204 28
205 28
206 28
207 28
208 28
209 28
210 28
211 28
212 28
213 28
214 28
215 28
216 28
217 28
218 28
219 28
220 28
221 28
222 28
223 28
224 27
225 27
226 26
226 25
227 24
227 23
227 22
227 21
226 20
227 19
227 18
227 17
226 17
225 17
224 16
223 15
222 14
221 13
220 13
219 13
218 13
217 13
216 12
215 12
214 11
213 10
212 10
211 10
210 9
209 9
208 9
207 8
206 8
205 7
204 7
203 7
202 6
201 6
200 6
199 6
198 5
197 5
196 4
195 4
194 4
193 4
192 3
193 2
192 2
191 2
190 2
189 2
188 2
187 2
186 2
