122 2
121 3
120 3
119 4
118 4
117 5
116 5
115 6
114 7
113 8
112 8
111 9
110 10
109 10
108 11
107 12
106 12
105 12
104 13
103 14
102 14
101 15
100 16
99 17
98 18
97 19
96 19
95 19
94 20
93 21
92 21
92 22
91 23
90 23
89 24
88 25
87 26
86 26
85 27
84 27
83 27
82 27
81 27
80 27
79 27
78 27
77 27
76 28
75 28
74 28
73 28
72 28
71 28
70 28
69 28
68 28
67 28
66 28
65 28
64 28
63 28
62 28
61 29
60 29
59 29
58 29
57 30
56 30
55 30
54 30
53 31
52 31
51 31
50 31
49 32
48 32
47 32
46 33
45 33
44 34
43 34
42 34
41 35
40 35
39 35
38 36
37 36
36 36
35 36
34 37
33 37
32 37
31 37
30 38
29 38
28 38
27 38
26 39
25 39
24 40
23 40
22 40
21 41
20 41
19 41
18 41
17 42
16 42
15 43
14 43
13 44
12 44
11 45
10 45
9 46
8 46
7 47
6 48
5 48
4 48
3 49
2 50
2 51
2 52
2 53
2 54
2 55
2 56
2 57
2 58
3 59
3 60
4 60
5 61
6 62
7 63
8 63
9 64
10 64
11 64
12 65
13 65
14 65
15 66
16 67
17 67
18 68
19 68
20 69
21 69
22 70
23 70
24 70
25 69
26 70
26 71
27 71
28 72
29 72
30 72
31 72
32 73
33 73
34 73
35 73
36 73
37 73
38 73
39 73
40 74
41 74
42 74
43 73
44 74
45 74
46 74
47 74
48 74
49 75
50 75
51 75
52 75
53 76
54 75
55 75
56 75
57 76
58 76
59 76
60 76
61 76
62 76
63 76
64 77
65 76
66 77
67 77
68 77
69 76
70 77
71 77
72 77
73 77
74 77
75 77
76 77
77 77
78 77
79 77
80 77
81 77
82 77
83 77
84 77
85 77
86 77
87 77
88 77
89 77
90 77
91 77
92 77
93 77
94 77
95 77
96 77
97 77
98 77
99 77
100 77
101 77
102 77
103 77
104 77
105 77
106 77
107 77
108 77
109 77
110 77
111 77
112 77
113 77
114 78
114 79
114 80
115 81
115 82
116 83
116 84
117 85
118 85
119 86
120 86
121 85
122 84
122 83
123 82
124 83
125 82
126 83
127 83
128 84
129 84
130 84
131 85
132 86
133 86
134 87
135 87
136 88
137 88
138 89
139 89
140 89
141 89
142 90
143 90
144 90
144 89
145 88
145 87
146 86
146 85
147 84
147 83
148 82
147 82
146 81
147 80
147 79
146 79
145 78
144 77
143 76
144 75
145 75
146 75
147 75
148 75
149 75
150 75
151 75
152 75
153 75
154 75
155 75
156 75
157 74
158 74
159 75
160 74
161 74
162 74
163 74
164 74
165 73
166 73
167 73
168 73
169 73
170 73
171 73
172 73
173 72
174 72
175 72
176 72
177 72
178 72
179 71
180 71
181 71
182 71
183 71
184 72
184 73
185 73
186 74
187 75
188 76
189 77
190 77
191 78
192 78
193 79
194 80
195 80
196 81
197 82
198 83
199 83
200 83
201 84
202 84
203 84
204 85
205 85
206 85
207 84
208 84
208 83
209 82
209 81
209 80
209 79
209 78
210 77
210 76
210 75
210 74
210 73
210 72
210 71
210 70
210 69
210 68
210 67
210 66
209 66
208 65
209 64
210 64
211 64
212 64
213 64
214 64
215 64
216 64
217 64
218 64
219 64
220 64
221 64
222 64
223 64
224 64
225 64
226 64
227 64
228 64
229 64
230 64
231 64
232 64
233 64
234 65
235 65
236 65
237 66
238 66
239 67
240 67
241 68
242 68
243 69
244 69
245 70
246 70
247 70
248 70
249 71
250 71
251 72
252 72
253 73
254 73
255 74
256 74
257 74
258 75
259 75
260 76
261 76
262 76
263 77
264 77
265 77
266 77
267 78
268 78
269 78
270 79
271 79
272 79
273 79
274 80
275 80
276 80
277 81
278 81
279 81
280 81
281 81
282 81
283 81
284 81
285 82
286 82
287 82
288 82
289 82
289 81
289 80
288 80
287 79
288 78
288 77
287 77
286 77
285 77
284 76
283 76
282 75
281 74
282 73
281 73
280 72
279 71
278 70
277 70
276 69
277 68
276 68
275 68
274 67
273 66
274 65
273 65
272 64
271 63
270 62
269 61
270 60
269 60
268 59
267 59
266 59
265 58
266 57
267 56
268 56
268 55
268 54
269 53
270 53
271 52
271 51
272 50
273 50
273 49
274 48
275 48
276 47
277 46
278 45
279 44
280 43
281 42
282 41
283 41
283 40
284 39
285 38
285 37
286 36
286 35
287 34
287 33
286 33
285 33
284 33
283 33
282 33
281 32
280 33
279 33
278 33
277 33
276 33
275 33
274 33
273 34
272 34
271 34
270 35
269 35
268 35
267 36
266 36
265 36
264 37
263 37
262 37
261 38
260 38
259 39
258 39
257 39
256 40
255 40
254 41
253 41
252 41
251 41
250 41
249 42
248 42
247 43
246 43
245 44
244 44
243 44
242 45
241 45
240 46
239 46
238 46
237 46
236 46
235 46
234 46
233 46
232 46
231 46
230 46
229 46
228 46
227 46
226 46
225 46
224 45
223 45
222 45
221 45
220 45
219 45
218 45
217 44
216 44
215 44
214 44
213 44
212 44
211 44
210 43
211 42
211 41
211 40
210 40
209 39
210 38
209 38
208 38
207 37
206 37
205 37
204 37
203 37
202 38
201 38
200 38
199 39
198 39
197 40
196 40
195 41
194 41
193 41
192 41
191 41
190 41
189 40
188 40
187 40
186 39
185 39
184 39
183 39
182 39
181 38
180 38
179 37
178 38
177 38
176 38
175 37
174 37
173 37
172 37
171 36
170 36
169 36
168 35
167 35
166 35
165 35
164 36
163 35
162 35
161 34
160 34
159 34
158 34
157 34
156 34
155 34
154 33
153 33
152 33
151 32
150 32
149 32
148 32
147 31
146 32
145 31
144 30
145 29
146 29
147 29
148 28
149 28
150 27
151 27
152 26
153 26
154 26
155 25
156 24
156 23
157 22
157 21
158 20
158 19
158 18
158 17
158 16
157 16
156 15
155 15
154 14
153 14
152 14
151 13
150 13
149 12
148 12
147 12
146 12
145 12
144 12
143 12
142 12
141 11
140 11
139 11
138 10
137 10
136 10
135 9
134 8
133 8
132 7
131 6
130 5
129 4
128 4
127 3
126 3
125 2
124 2
123 2
