149 2
148 3
147 3
146 4
145 5
144 6
143 7
143 8
142 9
142 10
141 11
140 12
139 13
139 14
138 15
137 16
136 17
135 17
135 18
134 19
133 20
132 21
131 22
130 23
129 24
128 24
127 23
126 23
125 23
124 23
123 22
122 22
121 22
120 22
119 22
118 22
117 22
116 22
115 22
114 22
113 23
112 24
111 25
110 26
109 26
109 27
108 28
108 29
107 30
106 31
106 32
105 33
104 34
103 35
103 36
103 37
102 38
101 39
100 39
100 40
99 41
98 42
97 43
97 44
96 45
95 46
94 47
93 48
92 48
91 48
90 48
89 48
88 49
87 49
86 49
85 50
84 50
83 50
82 51
81 51
80 51
79 51
78 52
77 52
76 52
75 53
74 53
73 53
72 53
71 52
70 52
69 52
68 52
67 52
66 52
65 52
64 53
64 54
64 55
63 56
62 57
61 57
60 57
59 58
58 58
57 58
56 58
55 59
54 59
53 59
52 58
51 58
50 57
49 56
48 56
47 56
46 56
45 56
44 56
44 57
43 58
43 59
43 60
42 61
41 62
40 62
39 62
38 62
37 63
36 63
35 63
34 64
33 64
32 63
31 62
30 61
29 60
28 59
29 58
28 58
27 57
28 56
27 56
26 55
25 54
26 53
25 53
24 52
23 51
22 50
21 49
22 48
21 48
20 47
19 47
18 46
17 46
16 46
15 47
15 48
15 49
14 50
14 51
14 52
14 53
13 54
13 55
13 56
13 57
12 58
12 59
11 60
11 61
10 62
9 63
8 64
7 64
6 65
5 65
4 66
3 67
3 68
3 69
3 70
3 71
2 72
2 73
2 74
2 75
2 76
2 77
2 78
2 79
3 79
4 79
5 79
6 79
7 79
8 79
9 79
10 79
11 79
12 79
13 78
14 78
15 78
16 78
17 78
18 77
19 77
20 77
21 76
22 76
23 76
24 76
25 76
26 75
27 75
28 75
29 74
30 74
31 73
32 73
33 73
34 73
35 73
36 74
37 74
38 74
39 74
40 74
41 74
42 74
43 74
44 74
45 74
46 74
47 74
48 74
49 73
50 73
51 73
52 73
53 73
54 73
55 73
56 73
57 73
58 73
59 73
60 73
61 73
62 73
63 73
64 73
65 73
66 73
67 73
68 73
69 73
70 73
71 73
72 73
73 73
74 73
75 73
76 72
77 72
78 72
79 72
80 72
81 72
82 72
83 72
84 72
85 72
86 72
87 72
88 72
89 72
90 72
91 72
92 72
93 72
94 73
95 74
95 75
96 76
96 77
97 78
98 79
98 80
98 81
99 81
100 82
101 82
102 83
103 83
104 84
105 84
106 85
107 86
108 87
109 88
109 89
110 90
110 91
111 92
112 93
112 94
112 95
113 96
114 96
115 96
116 96
117 96
118 96
119 96
120 96
121 95
122 95
123 95
124 96
125 97
125 98
125 99
126 100
127 101
128 101
129 102
130 103
130 104
131 105
132 106
133 107
133 108
134 109
135 110
135 111
136 112
137 113
138 114
138 115
139 116
139 117
140 118
140 119
141 120
141 121
142 121
143 122
144 122
145 122
146 122
147 122
148 122
149 121
150 121
151 121
152 120
153 120
154 120
155 120
156 119
157 118
158 117
159 117
160 116
161 116
162 115
163 115
164 114
165 114
166 114
167 113
168 113
169 112
170 111
171 111
172 110
173 110
174 110
175 109
176 108
177 108
178 107
179 106
180 106
181 105
182 105
183 104
184 104
185 103
186 102
187 102
188 101
189 100
190 99
191 99
192 98
193 97
194 96
195 95
196 95
197 94
198 94
199 94
200 93
201 93
202 92
203 92
204 92
205 91
206 91
207 90
208 90
209 89
210 89
211 88
212 88
213 87
214 86
215 85
216 84
217 83
218 83
219 82
220 81
221 80
222 79
223 78
224 77
225 76
225 75
226 74
226 73
227 72
227 71
227 70
227 69
227 68
227 67
227 66
227 65
227 64
227 63
227 62
227 61
227 60
227 59
227 58
227 57
227 56
227 55
226 55
225 54
224 53
225 52
224 52
223 51
222 50
221 49
222 48
221 48
220 47
219 46
220 45
219 45
218 44
217 43
216 42
215 42
214 41
213 40
212 40
211 39
210 39
209 38
208 38
207 38
206 37
205 36
204 36
203 35
204 34
203 34
202 33
201 33
200 32
199 31
198 31
197 30
196 29
195 28
194 27
193 26
192 25
191 24
190 24
189 23
188 22
187 21
186 20
185 20
184 19
183 18
182 18
181 17
180 17
179 16
178 15
177 15
176 14
175 13
174 13
173 12
172 12
171 11
170 10
169 10
168 9
167 9
166 8
165 8
164 8
163 7
162 7
161 6
160 5
159 4
158 4
157 3
156 3
155 3
154 2
153 2
152 2
151 2
150 2
