162 1
161 2
160 3
159 3
158 4
158 5
157 6
156 6
156 7
156 8
156 9
155 10
155 11
155 12
154 13
154 14
154 15
153 16
153 17
153 18
153 19
153 20
153 21
153 22
153 23
154 24
155 25
156 25
157 26
158 27
159 28
158 29
157 30
156 30
155 30
154 30
153 30
152 30
151 30
150 31
149 31
148 31
147 31
146 31
145 32
144 32
143 32
142 32
141 32
140 32
139 32
138 32
137 32
136 32
135 32
134 32
133 32
132 32
131 32
130 32
129 33
128 33
127 33
126 33
125 33
124 33
123 33
122 34
121 34
120 34
119 34
118 34
117 34
116 34
115 35
114 35
113 35
112 35
111 35
110 35
109 35
108 36
107 36
106 36
105 36
104 36
103 36
102 36
101 36
100 37
99 37
98 37
97 37
96 37
95 37
94 37
93 37
92 37
91 37
90 38
89 38
88 38
87 38
86 38
85 38
84 39
83 39
82 39
81 39
80 39
79 39
78 39
77 39
76 39
75 38
74 37
73 36
72 36
71 36
70 35
69 35
68 35
67 35
66 35
65 36
64 36
64 37
64 38
64 39
63 40
62 40
61 40
60 40
59 40
58 40
57 40
56 40
55 40
54 40
53 40
52 40
51 40
50 40
49 39
48 39
47 39
46 39
45 39
44 38
43 38
42 38
41 37
40 36
39 36
38 35
37 35
36 34
35 34
34 34
33 33
32 33
31 32
30 32
29 32
28 32
27 32
26 31
25 31
24 31
23 30
22 30
21 30
20 29
19 29
18 29
17 28
16 28
15 28
14 28
13 27
12 27
11 27
10 27
9 26
8 26
7 26
6 26
5 26
4 26
3 25
2 26
2 27
2 28
3 29
3 30
3 31
4 32
5 33
6 34
7 35
7 36
8 37
9 38
10 39
11 40
12 41
13 42
13 43
14 43
15 44
15 45
15 46
16 46
17 46
18 47
19 48
20 49
21 50
21 51
21 52
21 53
20 54
19 54
18 55
17 56
16 57
15 58
15 59
14 60
13 61
12 61
12 62
11 63
10 64
10 65
9 66
8 67
7 68
6 68
6 69
5 70
4 71
3 72
2 73
2 74
2 75
2 76
3 76
4 76
5 76
6 76
7 76
8 76
9 76
10 75
11 75
12 75
13 75
14 74
15 74
16 74
17 73
18 73
19 73
20 72
21 72
22 72
23 71
24 71
25 71
26 70
27 70
28 70
29 69
30 69
31 68
32 68
33 68
34 68
35 67
36 67
37 67
38 66
39 66
40 65
41 65
42 64
43 64
44 64
45 63
46 63
47 62
48 62
49 62
50 62
51 62
52 61
53 61
54 61
55 61
56 61
57 61
58 61
59 61
60 61
61 61
62 61
63 62
62 63
61 64
60 64
60 65
60 66
60 67
60 68
61 68
62 69
62 70
63 71
64 70
65 71
66 71
67 72
68 72
69 73
70 72
71 73
72 73
73 73
74 73
75 73
76 73
77 74
78 73
79 73
80 73
81 72
82 72
83 72
84 71
85 71
86 70
87 70
88 69
89 69
90 69
91 68
92 68
93 68
94 67
95 67
96 66
97 66
98 66
99 66
100 66
101 66
102 66
103 66
104 67
105 66
106 67
107 67
108 67
109 67
110 67
111 67
112 68
113 68
114 68
115 68
116 68
117 68
118 68
119 68
120 68
121 68
122 68
123 68
124 68
125 68
126 68
127 68
128 68
129 69
130 69
131 69
132 69
133 69
134 69
135 69
136 69
137 70
138 70
139 70
140 71
139 72
139 73
138 74
138 75
138 76
138 77
137 78
136 78
136 79
136 80
136 81
136 82
137 83
138 83
139 83
140 83
141 83
142 82
143 82
144 81
145 81
146 80
147 80
148 79
149 80
150 81
151 81
152 81
153 81
154 80
155 80
156 79
157 78
158 77
159 76
160 75
161 74
161 73
162 72
163 72
164 72
165 72
166 72
167 72
168 72
169 72
170 72
171 72
172 72
173 72
174 72
175 72
176 71
177 72
178 72
179 72
180 71
181 71
182 71
183 71
184 71
185 71
186 72
187 72
188 71
189 71
190 71
191 71
192 71
193 71
194 71
195 71
196 71
197 71
198 71
199 71
200 71
201 71
202 70
203 70
204 70
205 70
206 70
207 70
208 70
209 70
210 70
211 70
212 70
213 71
214 70
215 71
216 70
217 70
218 70
219 70
220 70
221 70
222 70
223 70
224 70
225 70
226 70
227 69
228 69
229 69
230 69
231 69
232 70
233 69
234 68
235 68
236 68
237 69
238 69
239 69
240 68
241 68
242 69
243 69
244 69
245 68
246 68
247 68
248 68
249 68
250 68
251 68
252 68
253 68
254 68
255 68
256 68
257 67
258 67
259 67
260 67
261 67
262 66
263 66
264 66
265 66
266 66
267 65
268 65
269 65
270 65
271 64
272 64
273 64
274 63
275 63
276 63
277 62
278 62
279 62
280 61
281 61
282 61
283 61
284 61
285 60
286 60
287 59
288 59
288 58
289 57
289 56
290 55
290 54
289 53
288 52
289 51
288 51
287 50
286 49
285 49
284 48
283 48
282 47
281 47
280 46
279 46
278 45
279 44
279 43
278 43
277 43
276 42
275 41
274 40
273 39
272 39
271 39
270 38
269 37
270 36
269 36
268 35
267 35
266 34
265 33
264 32
263 32
262 31
261 30
260 30
259 30
258 29
257 29
256 28
255 28
254 29
253 29
252 29
251 29
250 29
249 29
248 29
247 29
246 29
245 29
244 29
243 29
242 29
241 28
240 28
239 28
238 28
237 28
236 28
235 27
234 27
233 27
232 27
231 27
230 27
229 27
228 26
227 26
226 26
225 26
224 26
223 26
222 26
221 26
220 26
219 26
218 26
217 25
216 25
215 25
214 25
213 25
212 24
213 23
213 22
212 22
212 23
211 24
210 23
209 22
208 21
207 21
206 21
205 21
204 22
203 22
202 23
202 24
202 25
201 26
200 26
199 26
198 26
197 26
196 26
195 26
194 26
193 26
192 26
191 26
190 26
189 26
188 26
187 26
186 26
185 26
184 25
183 24
182 23
181 22
182 21
181 21
180 20
181 19
180 19
179 18
180 17
179 17
178 16
177 15
178 14
177 14
176 13
177 12
176 12
175 11
174 10
173 9
174 8
173 8
172 7
171 6
170 5
169 4
170 3
169 3
168 3
167 3
166 3
165 3
164 3
163 2
