186 2
185 3
184 3
183 3
182 4
181 5
180 5
179 6
178 6
177 7
176 8
175 9
174 9
173 10
172 11
171 12
170 13
169 14
168 15
167 16
166 17
166 18
165 19
164 20
163 21
162 22
161 23
160 24
159 25
159 26
158 27
157 28
156 29
155 30
154 31
154 32
153 33
152 34
151 35
150 36
150 37
149 38
148 38
147 39
146 40
145 41
144 42
143 42
142 42
141 41
140 41
139 41
138 41
137 41
136 40
135 40
134 40
133 39
132 39
131 39
130 39
129 39
128 38
127 38
126 38
125 38
124 38
123 38
122 37
121 37
120 37
119 37
118 36
117 36
116 36
115 35
114 35
113 35
112 35
111 35
110 35
109 35
108 34
107 34
106 34
105 34
104 33
103 33
102 33
101 33
100 33
99 32
98 32
97 32
96 32
95 32
94 32
93 31
92 31
91 31
90 31
89 31
88 31
87 31
86 30
85 30
84 30
83 30
82 30
81 30
80 30
79 30
78 30
77 30
76 30
75 30
74 30
73 30
72 30
71 30
70 30
69 30
68 30
67 31
66 31
65 31
64 31
63 31
62 32
61 32
60 32
59 32
58 32
57 32
56 32
55 32
54 32
53 32
52 32
51 32
50 32
49 32
48 32
47 32
46 32
45 32
44 32
43 32
42 32
41 33
40 33
39 33
38 33
37 33
36 33
35 33
34 33
33 33
32 33
31 34
30 34
29 34
28 34
27 34
26 34
25 34
24 35
23 35
22 35
21 35
20 35
19 35
18 35
17 36
16 36
15 36
14 36
13 37
12 37
11 37
10 38
9 38
8 38
7 39
6 39
5 40
4 41
3 42
3 43
2 44
2 45
2 46
3 47
2 48
2 49
2 50
2 51
2 52
3 53
4 54
5 55
5 56
6 57
7 57
8 58
9 59
10 60
11 61
12 62
13 63
14 63
15 64
16 64
17 65
18 65
19 66
20 66
21 67
22 67
23 68
24 68
25 69
26 70
27 71
28 71
29 71
30 72
31 72
32 73
33 73
34 74
35 75
36 75
37 76
38 77
39 77
40 78
41 78
42 78
43 78
44 79
45 79
46 80
47 80
48 81
49 81
50 82
51 82
52 82
53 83
54 83
55 84
56 84
57 85
58 85
59 85
60 86
61 86
62 86
63 87
64 87
65 88
66 88
67 89
68 89
69 89
70 90
71 90
72 91
73 91
74 92
75 92
76 92
77 93
78 93
79 93
80 93
81 94
82 94
83 95
84 95
85 95
86 96
87 96
88 96
89 96
90 96
91 97
92 97
93 97
94 97
95 98
96 98
97 98
98 98
99 99
100 99
101 99
102 99
103 99
104 99
105 100
106 100
107 100
108 100
109 101
110 101
111 101
112 101
113 101
114 101
115 101
116 101
117 102
118 101
119 101
120 102
121 102
122 102
123 102
124 102
125 102
126 102
127 102
128 103
128 104
128 105
128 106
128 107
129 108
129 109
129 110
129 111
129 112
130 113
130 114
130 115
130 116
130 117
131 118
131 119
131 120
132 121
132 122
132 123
133 124
133 125
134 126
134 127
135 128
135 129
136 129
137 129
138 129
139 129
140 129
141 129
142 128
143 128
144 129
145 130
146 131
147 132
148 133
149 134
150 135
151 135
152 136
153 136
154 136
154 135
155 134
156 133
157 132
157 131
158 130
159 129
159 128
160 127
160 126
161 125
161 124
162 123
162 122
163 121
162 120
162 119
163 118
163 117
164 116
164 115
164 114
164 113
164 112
164 111
164 110
165 109
166 108
167 108
168 108
169 108
170 109
171 109
172 109
173 109
174 109
175 109
176 109
177 109
178 109
179 109
180 110
181 110
182 109
183 110
184 109
185 109
186 109
187 108
188 109
188 110
189 111
189 112
190 113
190 114
191 115
192 116
192 117
193 118
193 119
193 120
194 121
194 122
195 123
196 124
197 125
198 126
199 127
199 128
200 129
200 130
201 131
202 132
202 133
203 134
204 135
204 136
205 136
206 137
207 138
207 139
208 140
209 140
210 141
211 142
212 143
213 143
214 144
215 144
216 145
217 145
217 144
218 143
219 142
219 141
220 140
220 139
220 138
220 137
221 136
221 135
222 134
222 133
222 132
223 131
223 130
223 129
224 128
224 127
225 126
225 125
226 124
226 123
227 122
228 121
229 120
230 119
230 118
231 117
232 116
233 115
233 114
234 113
234 112
235 111
235 110
234 110
233 109
232 108
231 108
230 107
229 107
228 107
227 106
226 105
227 104
228 103
229 103
230 103
231 104
232 105
232 104
233 103
234 103
235 103
236 103
237 104
238 104
239 104
240 104
241 105
242 105
243 105
244 105
245 105
246 105
247 106
248 105
249 105
250 105
251 106
252 106
253 107
254 107
255 107
256 107
257 108
258 109
259 109
260 110
261 111
262 111
263 112
264 113
265 114
266 114
267 115
268 116
269 117
270 118
271 119
272 120
273 121
274 122
275 122
276 123
277 124
278 124
279 125
280 125
281 126
282 127
283 128
284 129
285 129
286 129
287 130
288 131
289 132
290 132
291 133
292 134
293 134
294 135
295 136
296 136
297 136
298 137
299 138
300 138
301 139
302 139
303 140
304 140
305 141
306 141
307 142
308 142
309 143
310 143
311 143
312 144
313 144
314 145
315 145
316 145
317 145
318 145
318 144
318 143
318 142
317 142
316 141
317 140
316 140
315 139
316 138
316 137
316 136
315 136
314 135
315 134
315 133
314 133
313 132
314 131
313 131
312 130
313 129
312 129
311 128
312 127
311 127
310 126
311 125
311 124
310 124
309 123
309 122
308 121
307 120
308 119
307 119
306 118
305 117
304 116
305 115
304 115
303 114
304 113
303 113
302 112
303 111
302 111
301 110
302 109
301 109
300 108
301 107
301 106
300 106
299 105
300 104
300 103
300 102
300 101
301 100
302 100
303 99
304 99
304 98
305 97
306 97
307 96
308 95
309 95
310 94
311 93
312 93
313 92
314 91
315 90
316 90
317 89
318 88
319 87
320 86
321 85
322 85
323 84
324 83
325 82
326 82
327 81
328 80
329 79
330 78
331 78
332 78
333 77
334 76
335 75
335 74
336 73
335 73
334 73
333 73
332 73
331 72
330 72
329 72
328 72
327 72
326 72
325 72
324 72
323 72
322 72
321 72
320 72
319 71
318 72
317 72
316 72
315 72
314 72
313 72
312 72
311 72
310 72
309 72
308 72
307 72
306 72
305 73
304 73
303 73
302 73
301 73
300 73
299 73
298 74
297 74
296 74
295 74
294 74
293 74
292 75
291 75
290 75
289 75
288 76
287 76
286 76
285 76
284 77
283 77
282 77
281 77
280 78
279 78
278 78
277 78
276 78
275 78
274 79
273 79
272 79
271 80
270 80
269 80
268 81
267 81
266 81
265 81
264 82
263 82
262 82
261 82
260 82
259 81
258 82
257 81
256 81
255 81
254 81
253 81
252 80
251 80
250 80
249 80
248 79
247 79
246 79
245 78
244 78
243 78
242 78
241 77
240 77
239 76
238 76
237 76
236 75
235 75
234 74
233 74
232 73
231 73
230 72
229 72
228 72
227 71
226 71
225 71
224 70
223 70
222 70
221 69
220 69
219 68
218 68
217 68
216 67
215 67
214 67
213 67
212 66
211 66
210 65
209 65
208 65
207 64
206 64
205 64
204 64
203 63
202 63
201 63
200 62
199 62
198 62
197 61
196 61
195 61
194 60
193 60
192 60
191 59
190 59
189 59
188 58
187 58
186 57
185 57
184 56
183 56
182 56
181 56
180 55
179 55
178 54
177 53
178 52
179 51
180 50
181 50
182 49
183 49
184 48
185 47
186 47
187 46
188 46
189 45
190 45
191 44
191 43
192 42
192 41
192 40
192 39
191 38
190 37
191 36
191 35
190 35
189 34
190 33
189 33
188 32
189 31
189 30
189 29
189 28
189 27
189 26
189 25
189 24
189 23
188 22
188 21
189 20
189 19
189 18
189 17
189 16
189 15
189 14
189 13
189 12
189 11
189 10
189 9
189 8
189 7
189 6
189 5
189 4
189 3
188 3
187 2
