183 3
182 4
181 4
180 5
179 5
178 6
177 7
176 8
175 9
174 10
173 10
172 11
171 12
170 13
169 14
168 14
167 15
166 16
165 17
164 18
163 19
162 20
162 21
161 22
160 23
160 24
159 25
158 26
158 27
157 28
156 29
156 30
155 31
154 32
154 33
153 34
153 35
152 36
151 37
151 38
151 39
150 40
149 41
148 42
147 43
146 43
145 44
144 44
143 44
142 44
141 44
140 44
139 44
138 44
137 44
136 44
135 44
134 44
133 44
132 43
131 43
130 43
129 43
128 43
127 43
126 43
125 43
124 43
123 43
122 43
121 43
120 43
119 43
118 43
117 43
116 43
115 42
114 42
113 42
112 42
111 42
110 42
109 42
108 42
107 42
106 42
105 42
104 42
103 42
102 42
101 42
100 42
99 42
98 42
97 42
96 42
95 42
94 42
93 41
92 41
91 41
90 41
89 41
88 41
87 41
86 41
85 41
84 41
83 41
82 41
81 41
80 41
79 41
78 41
77 41
76 41
75 41
74 41
73 41
72 41
71 41
70 41
69 41
68 41
67 42
66 42
65 42
64 42
63 42
62 43
61 43
60 43
59 43
58 43
57 43
56 44
55 44
54 44
53 44
52 44
51 44
50 44
49 45
48 45
47 45
46 45
45 45
44 45
43 45
42 46
41 46
40 46
39 46
38 46
37 47
36 47
35 47
34 47
33 47
32 47
31 48
30 48
29 48
28 48
27 48
26 49
25 49
24 49
23 49
22 50
21 50
20 51
19 51
18 52
17 52
16 52
15 53
14 52
13 53
12 53
11 53
10 54
9 54
8 55
7 55
6 56
5 57
4 58
4 59
4 60
3 61
2 61
2 62
2 63
2 64
3 65
3 66
3 67
4 67
5 68
4 69
3 69
3 70
2 71
2 72
3 73
3 74
4 75
5 76
6 76
7 77
8 78
9 78
10 79
11 80
12 81
13 81
14 82
15 82
16 83
17 83
18 82
19 83
19 84
20 84
21 84
22 85
23 86
24 86
25 87
26 87
27 87
28 88
29 88
30 89
31 89
32 90
33 90
34 90
35 91
36 92
37 92
38 92
39 93
40 93
41 94
42 94
43 94
44 95
45 95
46 96
47 97
48 97
49 97
50 98
51 98
52 98
53 99
54 99
55 99
56 100
57 100
58 101
59 101
60 101
61 101
62 102
63 102
64 103
65 103
66 104
67 104
68 105
69 105
70 105
71 105
72 106
73 106
74 107
75 107
76 107
77 108
78 108
79 108
80 109
81 109
82 109
83 110
84 110
85 110
86 110
87 111
88 111
89 111
90 111
91 112
92 112
93 112
94 112
95 112
96 112
97 112
98 113
99 113
100 113
101 113
102 113
103 113
104 114
105 114
106 114
107 114
108 114
109 114
110 114
111 114
112 114
113 114
114 114
115 115
116 115
117 115
118 115
119 115
120 115
121 115
122 115
123 115
124 115
125 115
126 115
127 115
128 115
129 115
130 115
131 115
132 115
133 115
134 115
135 115
136 116
136 117
136 118
137 119
137 120
137 121
137 122
137 123
137 124
137 125
138 126
138 127
138 128
138 129
139 130
139 131
139 132
139 133
140 134
140 135
140 136
140 137
141 138
141 137
142 136
142 135
143 134
144 135
144 136
145 137
145 136
146 135
147 136
147 137
148 137
149 137
149 136
150 135
151 134
152 135
152 136
152 137
153 137
154 138
155 139
155 140
156 141
157 142
158 143
159 144
160 144
161 145
162 146
163 147
164 148
165 148
166 148
166 147
167 146
167 145
168 144
168 143
168 142
168 141
169 140
169 139
170 138
170 137
171 136
171 135
171 134
171 133
171 132
172 131
172 130
172 129
173 128
173 127
173 126
174 125
174 124
175 123
175 122
175 121
176 120
177 119
177 118
178 117
179 116
180 116
181 116
182 116
183 116
184 116
185 116
186 116
187 116
188 116
189 115
190 115
191 114
192 114
193 115
194 115
195 116
196 117
197 118
197 119
198 120
199 121
199 122
200 123
201 124
201 125
202 126
203 127
204 128
205 129
205 130
206 131
207 132
208 133
209 134
210 135
211 136
212 137
213 138
214 138
215 139
216 140
217 140
218 141
219 141
220 141
221 142
222 142
223 142
224 142
225 143
226 143
227 143
228 143
229 143
230 143
231 143
232 143
233 142
233 141
234 140
234 139
234 138
233 138
232 139
231 138
230 138
229 138
228 137
229 136
229 135
230 134
231 135
232 134
233 133
233 132
234 131
233 131
232 132
231 132
230 131
229 130
228 130
227 129
228 128
229 128
230 127
231 127
231 126
231 125
232 124
233 125
233 124
234 123
233 123
232 123
231 122
230 121
231 120
231 119
230 118
231 117
232 117
233 117
234 116
234 115
235 114
236 115
237 116
237 115
238 114
237 114
236 114
235 113
236 112
237 112
238 111
238 110
239 109
238 109
237 109
236 108
235 107
234 107
233 106
232 106
231 105
232 104
233 104
234 104
235 104
236 104
237 104
238 104
239 104
240 104
241 104
242 104
243 104
244 104
245 104
246 104
247 105
248 104
249 104
250 104
251 105
252 105
253 105
254 105
255 105
256 105
257 105
258 105
259 105
260 106
261 106
262 107
263 108
264 109
265 110
266 111
267 112
268 112
269 113
270 113
271 114
272 115
273 116
274 116
275 117
276 118
277 119
278 119
279 120
280 120
281 121
282 122
283 122
284 123
285 124
286 124
287 125
288 126
289 126
290 127
291 127
292 128
293 128
294 129
295 129
296 130
297 130
298 131
299 131
300 132
301 132
302 133
303 134
304 134
305 134
306 135
307 135
308 136
309 136
310 136
311 137
312 137
313 137
314 138
315 138
316 138
317 138
318 138
319 138
320 138
321 138
322 138
323 138
324 138
325 138
326 137
326 136
327 135
327 134
326 134
325 133
324 132
323 131
324 130
323 130
322 129
323 128
322 128
321 127
322 126
321 126
320 125
321 124
320 124
319 123
320 122
320 121
319 121
318 120
319 119
318 119
317 118
318 117
317 117
316 116
315 115
316 114
315 114
314 113
315 112
314 112
313 111
312 110
311 109
312 108
311 108
310 107
311 106
310 106
309 105
308 104
307 103
308 102
307 102
306 102
305 101
304 100
305 99
305 98
304 97
304 96
305 95
306 94
307 94
308 93
309 92
310 91
311 90
312 89
313 88
314 87
315 86
316 86
317 85
317 84
318 83
319 83
320 82
321 81
322 80
322 79
323 78
324 77
325 76
326 75
327 75
327 74
328 73
329 72
330 71
331 70
332 70
333 69
334 68
335 67
336 66
337 66
338 65
338 64
337 63
336 63
335 63
334 62
333 62
332 62
331 62
330 62
329 62
328 62
327 62
326 62
325 62
324 62
323 62
322 62
321 62
320 62
319 62
318 62
317 62
316 62
315 62
314 62
313 63
312 63
311 63
310 63
309 63
308 63
307 64
306 64
305 64
304 64
303 65
302 65
301 65
300 65
299 66
298 66
297 65
296 66
295 67
294 67
293 67
292 68
291 68
290 68
289 69
288 69
287 69
286 69
285 70
284 70
283 71
282 71
281 72
280 72
279 72
278 72
277 73
276 73
275 73
274 74
273 74
272 75
271 75
270 75
269 76
268 76
267 76
266 76
265 76
264 76
263 77
262 77
261 77
260 77
259 77
258 77
257 77
256 77
255 77
254 77
253 76
252 76
251 76
250 76
249 76
248 76
247 76
246 75
245 75
244 75
243 75
242 74
241 74
240 74
239 74
238 73
237 73
236 73
235 73
234 72
233 72
232 72
231 72
230 72
229 71
228 71
227 71
226 70
225 70
224 70
223 69
222 69
221 69
220 69
219 69
218 68
217 68
216 68
215 68
214 67
213 67
212 67
211 66
210 66
209 66
208 65
207 65
206 65
205 64
204 64
203 64
202 63
201 63
200 62
199 62
198 61
197 61
196 61
195 61
194 60
193 60
192 60
191 59
190 59
189 58
188 58
187 58
186 58
185 57
184 57
183 57
182 56
182 55
183 54
184 54
185 53
186 52
187 52
188 51
189 51
190 51
191 50
192 50
193 50
194 49
195 49
196 49
197 49
197 48
198 47
198 46
199 45
198 44
198 43
199 42
199 41
199 40
198 40
197 39
198 38
198 37
197 37
196 36
195 35
194 34
193 33
194 32
194 31
193 30
194 29
194 28
195 27
195 26
195 25
194 25
193 24
192 24
191 23
190 22
190 21
191 20
190 19
190 18
190 17
189 16
190 15
189 15
188 14
189 13
189 12
188 12
187 12
186 11
187 10
187 9
186 9
185 10
184 9
184 8
185 7
185 6
186 5
185 4
185 3
184 3
