95 1
95 2
94 3
93 4
92 5
91 6
90 7
89 8
88 9
87 9
86 8
85 8
84 8
83 8
82 8
81 8
80 8
79 9
78 10
77 10
76 10
75 11
75 12
74 13
73 13
72 13
71 12
70 12
69 13
68 14
68 15
67 16
67 17
66 18
66 19
66 20
65 21
64 22
63 23
63 24
62 25
61 24
61 23
61 22
60 22
59 21
60 20
59 20
58 19
58 18
59 17
58 17
57 17
56 17
55 16
54 16
53 15
52 16
51 16
50 15
49 15
48 15
47 16
46 16
45 16
44 16
43 15
44 14
44 13
43 13
42 13
41 13
40 13
40 14
41 15
41 16
41 17
41 18
41 19
42 20
43 21
44 21
45 21
46 21
47 21
48 21
49 20
50 20
51 21
51 22
51 23
51 24
51 25
50 26
49 25
48 26
47 25
46 25
45 26
44 26
43 27
42 27
41 26
40 25
39 25
38 25
37 24
36 23
35 23
34 22
33 22
32 22
31 21
30 21
29 20
28 20
27 20
26 19
25 19
24 18
23 18
22 17
21 16
20 16
19 15
18 15
17 15
16 14
15 13
14 13
13 12
12 12
11 11
10 10
9 10
8 9
7 8
6 8
5 8
5 9
5 10
6 10
7 11
8 12
9 13
10 13
11 14
12 14
13 15
14 15
15 16
15 17
16 17
17 18
18 18
19 19
20 19
21 19
22 20
23 20
24 21
24 22
25 22
26 22
27 23
28 23
29 24
30 24
31 25
32 25
33 26
34 26
35 27
36 27
37 28
36 29
35 29
35 30
35 31
36 31
37 32
36 33
36 34
36 35
37 34
38 34
39 35
39 36
38 37
37 37
36 37
36 38
35 39
35 40
35 41
36 41
37 42
36 43
35 44
34 44
33 45
32 45
31 46
30 46
29 47
28 47
27 47
26 48
25 48
24 49
23 49
22 49
21 50
20 51
19 51
18 51
17 52
16 52
15 53
14 54
13 54
12 54
11 55
10 55
9 56
8 56
7 57
6 58
5 58
4 59
3 59
2 59
2 60
2 61
2 62
3 62
4 61
5 61
6 61
7 61
7 60
8 59
9 59
10 59
11 59
12 58
13 57
14 57
15 56
16 56
17 55
18 55
19 54
20 54
21 54
22 53
23 52
24 52
25 51
26 51
27 51
28 50
29 50
30 50
31 49
32 49
33 48
34 48
35 48
36 47
37 47
38 47
39 46
40 45
41 45
42 45
43 44
44 44
45 45
46 45
47 45
48 45
49 45
50 45
51 46
51 47
51 48
51 49
51 50
51 51
51 52
50 53
49 53
48 52
47 52
46 52
45 52
44 51
43 51
42 51
41 52
40 53
39 54
39 55
39 56
38 57
38 58
37 59
37 60
38 61
39 61
39 60
40 59
40 58
41 57
42 56
43 57
44 58
45 58
46 58
47 59
48 58
49 58
50 58
51 58
52 58
53 58
53 57
54 56
55 56
55 55
56 54
57 54
57 53
58 52
58 51
59 50
59 49
60 48
60 47
61 46
62 47
63 48
64 48
65 49
65 50
66 51
66 52
67 53
68 54
69 55
70 56
71 55
72 56
72 57
73 58
74 57
75 58
76 59
77 59
78 58
79 58
80 59
80 60
80 61
81 61
82 60
83 61
84 60
85 61
86 61
87 62
88 61
89 62
90 62
91 62
92 63
92 64
93 64
94 65
94 66
95 67
96 68
97 68
97 67
98 66
98 65
97 65
96 64
95 63
95 62
94 62
93 61
94 60
93 60
92 59
91 58
90 57
89 56
88 56
87 56
86 56
85 56
84 55
83 55
82 54
81 54
80 54
79 53
78 52
77 51
76 50
75 49
74 48
75 47
76 46
77 47
77 48
78 49
79 50
80 49
81 49
82 50
83 51
84 51
85 51
86 52
87 53
88 53
89 54
90 53
91 54
92 54
93 54
94 55
95 55
95 54
96 53
97 53
98 53
99 54
100 54
101 54
102 54
103 54
104 55
105 55
106 54
107 54
108 54
109 55
110 56
111 57
112 58
112 59
113 60
114 61
114 62
115 62
116 61
117 61
117 60
117 59
116 59
115 58
116 57
115 57
114 56
115 55
114 55
113 54
112 53
111 52
110 51
109 50
110 49
109 49
108 48
107 48
106 49
105 48
104 48
103 49
102 49
101 49
100 49
99 48
98 48
97 48
96 48
95 47
94 46
93 46
92 46
91 46
90 45
89 45
88 44
89 43
90 42
91 42
92 42
93 42
94 42
95 42
96 42
97 43
98 43
99 42
100 43
101 43
102 43
103 43
104 44
105 43
106 42
107 43
108 42
109 42
110 42
111 42
112 42
113 43
114 42
115 42
116 42
117 42
118 42
119 42
120 42
121 42
122 41
123 41
124 42
124 41
125 40
126 40
127 41
128 41
129 42
129 43
130 43
131 43
132 43
133 44
134 44
135 45
136 45
137 46
138 47
139 47
140 48
141 48
142 49
143 49
144 50
145 51
146 51
147 51
148 52
149 52
150 53
151 53
152 54
153 55
154 55
155 56
156 56
157 57
158 57
159 58
160 59
161 59
162 60
163 60
164 61
165 62
166 62
167 63
168 63
169 64
170 64
171 64
171 63
172 62
171 62
170 61
171 60
170 60
169 61
168 60
167 60
166 59
165 58
164 57
163 57
162 56
161 56
160 55
159 54
158 53
157 53
156 52
155 52
154 51
153 50
154 49
154 48
154 47
154 46
155 45
154 45
153 46
152 46
151 46
151 47
150 48
149 48
148 47
147 47
146 46
145 46
144 46
143 45
142 45
141 44
140 43
139 43
138 43
137 42
136 41
135 41
134 40
135 39
135 38
135 37
134 36
133 36
132 36
131 35
132 34
133 33
134 33
135 33
135 32
135 31
135 30
135 29
136 28
137 28
138 27
139 27
140 26
141 25
142 25
143 24
144 24
145 23
146 23
147 22
148 22
149 22
150 21
151 21
152 20
153 19
154 19
155 18
156 18
157 17
158 17
159 16
160 15
161 14
162 14
163 13
164 13
165 12
166 11
167 10
168 10
169 9
170 8
171 7
172 7
172 6
173 5
172 5
171 5
170 6
169 7
168 7
167 8
166 9
165 9
164 10
163 10
162 11
161 11
160 12
159 13
158 14
157 14
156 14
155 15
154 15
153 16
152 17
151 18
150 18
149 18
148 19
147 19
146 20
145 20
144 21
143 21
142 21
141 22
140 22
139 23
138 23
137 24
136 25
135 25
134 25
133 26
132 26
131 27
130 27
129 28
128 28
127 28
126 28
125 27
124 27
123 26
122 26
122 27
121 28
120 27
119 27
118 27
117 27
116 27
115 27
114 27
113 26
112 26
111 27
110 27
109 27
108 27
107 27
106 27
105 27
104 27
103 27
102 27
101 27
100 26
99 26
98 26
97 26
96 26
95 27
94 27
93 27
92 27
91 27
90 27
89 27
88 26
89 25
89 24
90 23
91 22
92 22
93 22
94 22
95 22
96 21
97 20
98 20
99 20
100 20
101 20
102 20
103 20
104 20
105 20
106 19
107 20
108 19
109 19
110 18
111 18
112 18
112 17
113 16
114 15
115 14
116 13
117 12
118 11
119 10
119 9
120 8
119 8
118 7
119 6
118 6
117 6
116 6
115 7
115 8
115 9
114 10
113 11
112 12
111 13
110 14
109 14
108 14
107 14
106 14
105 14
104 14
103 14
102 14
101 14
100 15
99 15
98 15
97 15
96 14
95 14
95 15
94 16
93 16
92 16
91 16
90 17
89 17
88 17
87 17
86 18
85 19
84 18
83 18
82 18
81 19
80 20
80 21
79 22
78 22
77 23
76 23
75 22
75 21
74 20
75 19
75 18
76 17
77 17
78 16
79 16
80 15
81 15
82 15
83 15
84 15
85 14
86 14
87 14
88 13
89 12
90 11
91 10
92 9
93 8
94 7
94 6
95 5
96 5
97 4
97 3
96 2
96 1
