167 2
166 3
165 3
164 4
163 5
162 6
161 7
160 8
159 9
158 9
157 9
156 10
155 11
154 12
153 13
152 14
151 15
150 16
149 16
149 17
148 18
147 19
146 20
145 21
144 22
144 23
143 24
142 25
142 26
141 27
140 28
140 29
139 30
138 31
137 32
136 33
136 34
135 35
135 36
134 37
133 38
132 39
131 40
130 41
129 41
128 41
127 41
126 41
125 41
124 41
123 41
122 41
121 41
120 41
119 41
118 41
117 41
116 41
115 41
114 41
113 41
112 41
111 41
110 41
109 41
108 41
107 41
106 42
105 42
104 42
103 42
102 41
101 41
100 42
99 42
98 42
97 42
96 42
95 42
94 42
93 42
92 42
91 42
90 42
89 43
88 43
87 43
86 43
85 43
84 43
83 43
82 43
81 44
80 44
79 44
78 44
77 44
76 44
75 45
74 45
73 45
72 45
71 45
70 45
69 45
68 45
67 46
66 46
65 46
64 47
63 47
62 47
61 47
60 48
59 48
58 49
57 49
56 50
55 50
54 51
53 52
52 52
51 53
50 53
49 54
48 54
47 55
46 56
45 56
44 56
43 57
42 57
41 57
40 58
39 58
38 59
37 59
36 59
35 59
34 60
33 60
32 60
31 60
30 60
29 60
28 61
27 61
26 62
25 62
24 62
23 63
22 64
21 64
20 64
19 65
18 65
17 66
16 66
15 67
14 67
13 67
12 67
11 67
10 68
9 69
8 69
7 70
6 71
5 72
4 73
4 74
3 75
3 76
4 77
4 78
3 79
2 79
2 80
2 81
2 82
2 83
2 84
3 85
4 86
4 87
5 88
6 89
7 89
8 90
8 91
9 91
10 92
11 93
12 93
13 94
14 95
15 95
16 96
17 96
18 96
19 96
20 97
21 98
22 98
23 99
24 100
25 101
26 101
27 102
28 102
29 103
30 103
31 103
32 103
33 103
34 104
35 105
36 105
37 106
38 107
39 107
40 108
41 108
42 109
43 109
44 110
45 110
46 111
47 111
48 111
49 112
50 112
51 113
52 113
53 114
54 115
55 116
56 116
57 117
58 116
59 116
60 117
61 117
62 116
63 116
64 116
65 116
66 116
67 117
68 117
69 117
70 117
71 118
72 118
73 118
74 118
75 118
76 118
77 118
78 118
79 118
80 119
81 119
82 119
83 119
84 119
85 119
86 120
87 120
88 120
89 120
90 120
91 120
92 121
93 121
94 121
95 121
96 121
97 121
98 121
99 121
100 121
101 121
102 121
103 122
104 122
105 122
106 122
107 122
108 122
109 122
110 122
111 122
112 123
113 124
114 125
115 126
116 127
116 128
117 129
118 130
119 131
119 132
120 133
121 134
122 135
122 136
123 137
123 138
124 139
125 140
126 141
127 142
127 143
128 144
129 144
130 145
131 146
132 146
133 145
134 145
135 145
135 144
136 143
137 143
138 142
139 141
140 141
141 142
142 142
143 143
144 143
145 143
146 144
147 144
148 144
149 144
150 144
151 144
152 144
153 144
153 143
154 142
155 141
155 140
155 139
155 138
155 137
155 136
155 135
156 134
155 134
154 133
155 132
155 131
155 130
155 129
155 128
154 128
153 127
154 126
154 125
153 125
152 124
153 123
152 123
151 122
150 121
151 120
152 120
153 120
154 120
155 120
156 119
157 119
158 119
159 119
160 119
161 119
162 118
163 119
164 118
165 119
166 118
167 118
168 118
169 118
170 118
171 117
172 117
173 117
174 117
175 117
176 116
177 116
178 116
179 115
180 115
181 115
182 114
183 114
184 114
185 113
186 113
187 112
188 112
189 112
190 112
191 113
192 113
193 114
194 114
195 115
196 116
197 116
198 117
199 118
200 118
201 118
202 118
203 119
204 120
205 120
206 121
207 121
208 122
209 122
210 123
211 123
212 124
213 124
214 125
215 125
216 125
217 125
218 125
219 126
220 126
221 127
222 126
222 125
223 124
223 123
223 122
223 121
223 120
223 119
223 118
223 117
222 116
223 115
223 114
223 113
224 112
224 111
224 110
224 109
224 108
225 107
226 106
226 105
227 104
227 103
228 102
229 101
230 100
231 99
232 98
233 97
234 96
235 96
235 95
235 94
234 94
233 94
232 93
231 93
230 93
229 93
228 92
227 91
228 90
229 89
230 89
231 89
232 89
233 88
233 87
234 86
235 86
236 85
237 85
238 84
239 83
240 82
241 81
242 80
243 80
244 80
245 80
246 80
247 80
248 80
249 80
250 80
251 80
252 80
253 80
254 81
255 81
256 81
257 81
258 81
259 81
260 81
261 81
262 81
263 81
264 80
265 80
266 80
267 80
268 80
269 80
270 80
271 80
272 80
273 80
274 79
275 79
276 79
277 79
278 79
279 80
280 80
281 80
282 80
283 80
284 81
285 81
286 81
287 82
288 82
289 83
290 83
291 84
292 84
293 84
294 85
295 86
296 86
297 86
298 85
298 84
299 83
299 82
299 81
299 80
299 79
299 78
299 77
299 76
299 75
299 74
298 74
297 73
298 72
298 71
298 70
298 69
298 68
297 68
296 67
295 66
296 65
295 65
294 64
295 63
294 63
293 62
294 61
293 61
292 60
291 60
290 59
289 58
288 57
287 56
286 55
285 55
284 54
283 53
282 52
281 52
280 51
279 51
278 50
279 49
279 48
280 47
280 46
281 45
282 44
282 43
283 42
283 41
284 40
284 39
285 38
285 37
286 36
286 35
287 34
287 33
288 32
288 31
289 30
289 29
290 28
290 27
290 26
291 25
291 24
291 23
291 22
292 21
292 20
292 19
292 18
293 17
293 16
294 15
294 14
294 13
295 12
295 11
295 10
296 9
295 9
294 9
293 9
292 9
291 9
290 9
289 10
288 10
287 11
286 11
285 12
284 12
283 13
282 14
281 14
280 15
279 16
278 16
277 16
276 17
275 17
274 18
273 19
272 19
271 20
270 21
269 21
268 22
267 23
266 24
265 25
264 26
263 26
262 27
261 28
260 28
259 29
258 30
257 31
256 31
255 32
254 33
253 34
252 35
251 36
250 37
249 38
248 38
247 39
246 40
245 41
244 41
243 42
242 43
241 44
240 45
239 45
238 46
237 47
236 47
235 47
234 48
233 49
232 49
231 49
230 50
229 50
228 50
227 51
226 51
225 51
224 51
223 51
222 51
221 51
220 51
219 52
218 52
217 52
216 52
215 52
214 52
213 52
212 52
211 52
210 52
209 52
208 52
207 52
206 52
205 52
204 52
203 52
202 52
201 52
200 51
199 51
198 51
197 51
196 51
195 51
194 51
193 51
192 51
191 51
190 51
189 50
188 50
187 50
186 50
185 50
184 49
183 50
182 50
181 49
180 49
179 48
178 48
177 48
176 48
175 48
174 47
175 46
176 45
177 45
178 45
179 44
180 44
181 43
182 43
183 42
184 42
185 41
186 40
187 39
188 38
188 37
189 36
188 36
187 35
188 34
188 33
187 33
186 32
185 31
184 30
185 29
184 29
183 28
182 27
181 26
180 25
181 24
180 24
179 23
178 22
179 21
178 21
177 20
176 19
177 18
177 17
177 16
176 16
175 15
176 14
176 13
175 13
174 12
175 11
175 10
175 9
175 8
174 8
173 7
174 6
174 5
174 4
174 3
173 3
172 2
171 2
170 2
169 2
168 2
