154 1
154 2
154 3
153 4
153 5
153 6
153 7
153 8
153 9
153 10
153 11
153 12
153 13
153 14
153 15
153 16
153 17
153 18
153 19
153 20
153 21
153 22
153 23
152 24
152 25
152 26
152 27
152 28
152 29
151 30
151 31
150 32
150 33
149 34
148 35
148 36
147 37
147 38
146 39
146 40
145 41
145 42
145 43
144 44
144 45
144 46
145 47
145 48
146 48
147 49
148 50
149 50
150 50
151 50
152 51
153 51
154 52
153 53
152 53
151 53
150 54
149 54
148 54
147 54
146 55
145 55
144 55
143 55
142 56
141 56
140 56
139 56
138 56
137 57
136 57
135 57
134 57
133 57
132 58
131 58
130 58
129 58
128 59
127 59
126 59
125 60
124 60
123 60
122 60
121 61
120 61
119 61
118 62
117 62
116 62
115 63
114 63
113 63
112 63
111 64
110 64
109 64
108 64
107 64
106 65
105 65
104 65
103 65
102 66
101 66
100 66
99 66
98 67
97 67
96 67
95 67
94 68
93 68
92 68
91 68
90 68
89 68
88 69
87 69
86 69
85 69
84 69
83 70
82 70
81 69
80 70
79 70
78 70
77 71
76 71
75 71
74 71
73 71
72 71
71 70
70 70
69 70
68 70
67 69
66 69
65 68
64 68
63 68
62 67
61 67
60 66
59 66
58 65
57 64
56 64
55 64
54 63
53 63
52 62
51 62
50 61
49 61
48 60
47 60
46 59
45 58
44 58
43 57
42 57
41 57
40 56
39 56
38 55
37 55
36 54
35 54
34 53
33 53
32 53
31 53
30 52
29 52
28 51
27 51
26 51
25 50
24 50
23 50
22 50
21 50
20 49
19 49
18 49
17 48
16 48
15 48
14 48
13 48
12 48
11 48
10 47
9 47
8 48
7 48
6 48
5 48
4 48
3 48
2 49
2 50
2 51
2 52
2 53
2 54
3 55
3 56
3 57
4 58
4 59
5 60
5 61
6 62
6 63
7 64
8 65
9 66
9 67
10 68
11 69
12 70
13 71
14 72
15 73
16 74
17 75
18 76
18 77
18 78
19 77
20 78
21 79
22 80
23 81
23 82
24 82
25 83
26 84
27 85
27 86
28 86
29 86
30 87
30 88
30 89
30 90
30 91
30 92
30 93
30 94
29 95
28 96
27 97
26 97
26 98
26 99
25 100
24 101
24 102
23 103
22 104
22 105
21 106
21 107
20 108
19 109
18 109
18 110
18 111
18 112
17 113
17 114
16 115
16 116
15 117
15 118
15 119
14 120
14 121
13 122
13 123
13 124
13 125
12 126
12 127
11 128
10 129
9 129
9 130
9 131
9 132
10 133
10 134
10 135
9 136
9 137
10 138
10 139
9 140
9 141
10 142
10 143
10 144
11 145
11 144
12 143
13 144
14 143
15 143
16 144
16 143
17 142
17 141
18 140
19 140
20 140
21 139
22 139
23 138
24 137
25 137
26 137
27 137
27 136
28 135
29 135
30 134
31 133
32 133
33 132
34 131
35 130
36 130
37 129
38 128
39 128
40 127
41 126
42 126
43 125
44 124
45 124
46 123
47 122
48 122
49 121
50 120
51 120
52 119
53 118
54 117
55 116
56 115
57 115
58 114
59 113
60 112
61 112
62 111
63 110
64 110
65 109
66 108
67 108
68 107
69 106
70 105
71 105
72 104
73 103
74 103
75 102
76 102
77 101
78 101
79 101
80 100
81 100
82 100
83 100
84 100
85 100
86 100
87 100
88 100
89 99
90 99
91 100
92 99
93 100
94 100
95 100
96 100
97 100
98 100
99 100
100 100
101 100
102 100
103 100
104 100
105 100
106 101
106 102
105 103
104 103
103 103
102 103
101 104
100 104
99 105
99 106
99 107
99 108
100 109
101 109
102 110
102 111
103 111
104 111
105 112
106 113
107 114
107 115
108 115
109 116
109 117
110 118
111 119
111 120
112 121
112 122
112 123
113 124
113 125
113 126
113 127
113 128
113 129
113 130
113 131
113 132
113 133
113 134
113 135
113 136
113 137
113 138
112 139
112 140
111 141
111 142
112 142
113 142
114 142
115 142
116 142
117 142
118 142
119 141
120 141
121 141
122 140
123 140
124 140
125 139
126 139
127 139
128 138
129 138
130 137
131 137
132 136
133 136
134 135
135 134
136 134
137 133
138 132
139 132
140 131
141 130
142 129
143 129
144 128
145 128
146 127
147 126
148 126
149 125
150 124
151 123
152 122
153 122
154 121
155 121
156 120
157 119
158 120
159 120
160 121
161 121
162 121
163 121
164 122
165 122
166 122
167 122
168 122
169 122
170 122
171 122
172 122
173 122
174 122
175 122
176 122
177 121
178 121
179 121
180 121
181 121
182 121
183 121
184 121
185 122
184 123
183 124
182 125
182 126
181 127
181 128
180 129
180 130
180 131
180 132
181 133
181 134
181 135
182 136
182 137
183 138
183 139
183 140
184 141
184 142
184 143
185 143
186 144
187 145
188 146
188 147
189 148
190 149
191 150
192 151
193 152
194 153
195 154
196 155
197 155
198 156
199 157
200 158
201 158
202 159
202 160
203 161
204 161
204 160
205 159
206 158
206 157
207 156
207 155
208 154
208 153
209 152
209 151
210 150
211 150
212 151
213 152
214 153
214 154
214 155
214 156
215 155
215 154
216 153
216 152
216 151
216 150
217 149
217 148
217 147
217 146
217 145
217 144
217 143
217 142
217 141
217 140
217 139
217 138
217 137
217 136
217 135
217 134
217 133
216 133
215 132
216 131
216 130
216 129
216 128
215 128
214 127
215 126
215 125
215 124
215 123
215 122
216 121
217 121
218 121
219 121
220 121
221 121
222 120
223 120
224 120
225 120
226 120
227 120
228 120
229 120
230 120
231 120
232 119
233 119
234 119
235 119
236 119
237 119
238 119
239 119
240 118
241 118
242 118
243 118
244 118
245 118
246 118
247 117
248 117
249 117
250 117
251 116
252 116
253 116
254 116
255 116
256 115
257 115
258 115
259 115
260 115
261 115
262 115
263 115
264 114
265 114
266 114
267 114
268 114
269 113
270 113
271 113
272 112
273 112
274 112
275 112
276 111
277 111
278 111
279 111
280 111
281 110
282 110
283 110
284 109
285 109
286 109
287 109
288 108
289 108
290 108
291 108
292 108
293 107
294 107
295 107
296 107
297 106
298 106
299 106
300 105
301 105
302 105
303 105
304 104
305 104
306 104
307 103
308 103
309 103
310 103
311 102
312 102
313 101
314 101
315 101
316 100
317 100
318 99
319 99
320 99
321 98
322 97
323 97
324 96
325 96
326 95
327 94
328 93
329 93
330 92
331 91
332 90
333 89
333 88
334 87
335 86
335 85
336 84
336 83
336 82
336 81
335 81
334 81
333 81
332 82
331 82
330 82
329 83
328 82
328 81
329 80
330 79
331 78
332 77
332 76
333 75
332 75
331 74
330 73
329 73
328 72
327 71
326 71
325 71
324 70
323 70
322 69
321 69
320 68
319 68
318 68
317 68
316 67
315 67
314 66
313 66
312 66
311 65
310 65
309 65
308 64
307 64
306 64
305 63
304 63
303 62
302 62
301 62
300 61
299 61
298 60
297 60
296 59
295 59
294 59
293 58
292 58
291 57
290 57
289 57
288 56
287 56
286 55
285 55
284 54
283 54
282 53
281 53
280 53
279 53
278 52
277 52
276 52
275 51
274 51
273 51
272 50
271 50
270 50
269 50
268 50
267 49
266 49
265 49
264 49
263 48
262 48
261 48
260 48
259 48
258 47
257 47
256 47
255 47
254 47
253 46
252 46
251 46
250 46
249 46
248 46
247 46
246 46
245 46
244 46
243 45
242 45
241 45
240 45
239 45
238 45
237 45
236 45
235 45
234 45
233 45
232 45
231 45
230 45
229 45
228 44
227 44
226 44
225 44
224 44
223 44
222 44
221 44
220 44
219 44
218 44
217 44
216 44
215 44
214 44
213 44
212 44
211 44
210 44
209 44
208 44
207 44
206 44
205 44
204 44
203 44
202 45
201 45
200 45
199 45
198 44
199 43
198 43
197 42
196 42
195 42
194 41
193 40
194 39
193 39
192 38
193 37
192 37
191 36
190 35
189 34
188 33
189 32
188 32
187 31
188 30
187 30
186 29
185 28
186 27
185 27
184 26
183 25
184 24
183 24
182 23
181 22
180 21
179 20
180 19
179 19
178 18
177 17
176 16
177 15
176 15
175 14
174 13
173 12
172 11
171 10
170 10
169 9
168 8
167 7
166 6
165 6
164 6
163 5
162 5
161 4
160 3
159 3
158 2
157 2
156 2
155 1
