192 5
191 6
190 6
189 7
188 7
187 8
186 8
185 9
184 10
183 10
182 11
181 11
180 12
179 12
178 13
177 14
176 15
175 15
174 16
173 16
172 17
171 18
170 18
169 19
168 19
167 20
166 21
165 22
164 23
163 24
162 25
161 25
160 26
159 27
158 27
157 28
156 29
155 30
154 30
153 31
152 32
151 33
150 34
149 34
148 35
147 36
146 37
145 38
144 39
143 40
142 41
141 41
140 41
139 41
138 41
137 41
136 41
135 40
134 40
133 40
132 40
131 40
130 39
129 39
128 39
127 39
126 39
125 38
124 38
123 38
122 38
121 38
120 37
119 37
118 37
117 37
116 37
115 37
114 37
113 37
112 36
111 36
110 36
109 36
108 36
107 36
106 35
105 35
104 35
103 35
102 35
101 35
100 35
99 35
98 35
97 35
96 35
95 34
94 34
93 34
92 34
91 34
90 34
89 34
88 34
87 34
86 34
85 34
84 34
83 34
82 34
81 34
80 34
79 34
78 34
77 35
76 35
75 35
74 35
73 35
72 35
71 35
70 35
69 35
68 36
67 36
66 36
65 36
64 36
63 36
62 37
61 37
60 37
59 37
58 37
57 38
56 38
55 38
54 38
53 38
52 38
51 39
50 39
49 39
48 39
47 39
46 40
45 40
44 40
43 40
42 40
41 40
40 40
39 40
38 40
37 40
36 40
35 40
34 40
33 40
32 40
31 40
30 40
29 40
28 40
27 40
26 40
25 40
24 40
23 40
22 40
21 41
20 41
19 41
18 41
17 41
16 41
15 41
14 41
13 42
12 42
11 43
10 43
9 44
8 44
7 44
6 44
5 44
4 45
3 44
2 43
1 43
1 44
1 45
2 46
1 47
1 48
1 49
1 50
1 51
1 52
1 53
1 54
1 55
1 56
1 57
1 58
1 59
1 60
1 61
1 62
2 63
3 63
4 64
4 65
5 66
6 67
7 68
8 69
9 70
10 70
11 71
12 72
12 73
13 74
14 74
15 75
16 76
17 77
18 78
19 79
20 80
21 81
22 82
23 83
24 84
25 85
26 86
27 87
28 88
29 88
30 89
31 90
32 91
33 92
34 92
35 93
36 94
37 95
38 96
39 97
40 98
41 99
42 100
43 101
44 102
45 102
46 103
47 104
48 105
49 105
50 106
51 107
52 107
53 108
54 109
55 110
56 110
57 111
58 112
59 112
60 113
61 114
62 114
63 115
64 115
65 116
66 117
67 117
68 117
69 118
70 118
71 119
72 119
73 120
74 120
75 121
76 121
77 122
78 122
79 122
80 123
81 123
82 124
83 124
84 125
85 125
86 126
86 127
85 128
85 129
85 130
85 131
84 132
84 133
84 134
83 135
83 136
83 137
83 138
83 139
83 140
82 141
82 142
82 143
82 144
82 145
82 146
82 147
82 148
82 149
82 150
82 151
82 152
82 153
82 154
83 155
83 156
84 156
85 156
86 156
87 156
88 156
89 157
89 158
89 159
89 160
90 161
90 162
91 163
92 164
92 165
93 165
94 165
95 165
96 165
97 164
98 164
99 163
100 162
101 161
102 161
103 160
103 159
104 158
105 157
106 156
107 155
107 154
108 153
108 152
109 151
109 150
109 149
110 148
110 147
110 146
110 145
110 144
111 143
111 142
111 141
111 140
111 139
111 138
111 137
111 136
111 135
110 135
109 135
108 134
107 133
106 133
105 132
104 131
105 130
106 130
107 130
108 130
109 131
110 131
111 131
112 131
113 131
114 132
115 132
116 132
117 132
118 132
119 132
120 132
121 132
122 132
123 132
124 132
125 133
126 133
127 133
128 133
129 133
130 133
131 133
132 133
133 133
134 133
135 134
136 135
137 135
138 136
139 137
140 138
141 139
142 140
143 141
144 142
145 143
146 144
147 145
148 146
149 147
150 148
151 149
152 150
153 150
154 151
155 152
156 153
157 154
158 155
159 156
160 157
161 157
162 158
163 159
164 160
165 160
166 161
167 161
168 162
169 161
169 160
170 159
171 158
171 157
172 156
173 155
173 154
174 153
175 152
176 151
177 150
178 149
179 148
180 148
181 147
182 146
183 146
184 145
185 145
186 144
187 143
188 143
189 143
190 143
191 142
192 142
193 141
194 141
195 141
196 140
197 140
198 139
199 139
200 139
201 138
202 138
203 138
204 137
205 137
206 136
207 136
208 136
209 135
210 135
211 135
212 135
213 134
214 134
215 134
216 133
217 133
218 133
219 133
220 132
221 132
222 132
223 132
224 132
225 132
226 131
227 131
228 131
229 131
230 131
231 130
232 130
233 129
234 129
235 129
236 129
237 129
238 129
239 129
239 128
239 127
238 127
237 126
236 126
235 126
234 125
233 124
234 123
235 123
236 123
237 123
238 124
239 124
240 124
241 124
242 125
243 125
244 125
245 126
246 127
247 127
248 128
249 129
250 130
250 131
251 132
252 133
252 134
253 135
254 136
255 137
256 138
256 139
257 140
258 141
258 142
259 143
260 144
260 145
261 146
262 147
263 148
263 149
264 150
265 151
266 152
267 153
267 154
268 155
269 156
269 157
270 157
271 158
272 159
272 160
273 161
274 161
275 162
276 163
276 164
277 164
278 165
279 166
280 167
281 168
281 169
282 169
283 170
284 171
285 172
286 173
287 174
288 174
289 175
290 176
291 176
292 177
293 178
294 179
295 179
296 180
297 180
298 181
299 182
300 182
301 183
302 184
303 184
304 184
305 185
306 185
306 184
307 183
307 182
307 181
307 180
306 180
305 179
306 178
305 178
304 177
305 176
304 176
303 175
304 174
303 174
302 173
303 172
302 172
301 171
302 170
301 170
300 169
301 168
301 167
300 167
299 166
300 165
300 164
299 164
298 163
299 162
299 161
298 161
297 160
298 159
298 158
297 158
296 157
297 156
297 155
296 155
295 154
296 153
296 152
295 152
294 151
295 150
295 149
294 149
293 148
294 147
294 146
293 146
292 145
293 144
292 144
291 143
292 142
291 142
290 141
289 140
290 139
289 139
288 138
289 137
289 136
288 136
287 135
288 134
287 134
286 133
287 132
287 131
287 130
287 129
287 128
287 127
287 126
288 125
289 124
289 123
290 122
291 121
292 121
293 120
294 119
295 119
296 118
297 117
298 117
299 116
300 115
301 114
302 113
303 112
304 111
305 110
306 109
307 108
308 107
309 106
310 105
311 104
312 103
313 102
314 101
314 100
315 99
316 98
317 97
317 96
318 95
319 94
319 93
320 92
319 91
318 91
317 91
316 91
315 91
314 91
313 91
312 91
311 91
310 91
309 91
308 91
307 91
306 91
305 92
304 92
303 92
302 92
301 92
300 92
299 92
298 92
297 92
296 93
295 93
294 93
293 93
292 93
291 94
290 94
289 94
288 94
287 94
286 95
285 95
284 95
283 95
282 95
281 96
280 96
279 96
278 96
277 96
276 97
275 97
274 97
273 97
272 97
271 98
270 98
269 98
268 98
267 98
266 98
265 99
264 99
263 99
262 99
261 99
260 99
259 99
258 99
257 99
256 99
255 99
254 99
253 99
252 99
251 99
250 98
249 98
248 98
247 97
246 97
245 96
244 96
243 96
242 95
241 95
240 94
239 94
238 93
237 92
236 92
235 92
234 91
233 91
232 90
231 90
230 90
229 89
228 88
227 88
226 88
225 87
224 87
223 86
222 86
221 85
220 85
219 84
218 84
217 83
216 83
215 82
214 82
213 81
212 81
211 80
210 80
209 79
208 79
207 78
206 78
205 77
204 77
203 76
202 76
201 75
200 75
199 74
198 74
197 74
196 73
195 72
194 72
193 71
192 70
191 70
190 70
189 69
188 69
187 68
186 68
185 67
184 67
183 66
182 65
181 65
180 64
179 63
178 63
177 62
176 62
175 61
174 61
173 60
172 59
171 59
170 58
171 57
172 57
173 56
174 56
175 56
176 56
177 55
178 55
179 54
180 53
180 52
181 51
181 50
181 49
181 48
181 47
182 46
182 45
182 44
182 43
182 42
183 41
183 40
184 39
184 38
184 37
184 36
185 35
185 34
185 33
186 32
186 31
187 30
187 29
188 28
188 27
188 26
189 25
189 24
190 23
190 22
191 21
191 20
191 19
192 18
192 17
193 16
193 15
194 14
194 13
194 12
194 11
195 10
195 9
195 8
196 7
196 6
196 5
195 5
194 5
193 5
