71 1
70 2
70 3
70 4
70 5
69 6
68 5
67 5
66 4
65 4
64 3
63 2
62 3
61 2
60 2
60 3
60 4
59 5
58 6
57 6
56 5
55 6
54 6
53 6
52 7
51 7
50 8
49 7
48 7
48 8
48 9
48 10
47 11
46 11
45 12
45 13
46 13
47 13
48 14
49 15
50 16
51 17
52 17
53 18
54 18
55 18
56 19
57 19
58 19
59 19
60 19
61 19
62 20
63 21
64 21
65 22
66 23
66 24
65 25
64 25
63 24
62 23
61 23
60 23
59 23
58 22
57 22
56 22
55 21
54 20
53 21
52 20
51 20
50 20
49 20
48 20
47 20
47 21
46 22
45 23
44 24
43 23
42 23
42 24
41 25
40 24
40 23
39 23
39 24
38 25
37 24
36 23
35 23
34 23
33 23
32 24
31 25
30 26
29 25
28 25
27 25
27 26
27 27
26 28
25 27
24 28
23 29
22 29
21 29
20 29
19 29
18 29
17 30
16 30
15 30
14 29
13 29
12 29
11 30
10 31
9 31
8 31
7 32
6 32
5 33
4 33
3 33
2 34
2 35
3 35
4 36
5 37
6 37
7 36
8 36
9 35
10 36
11 37
12 38
12 37
13 36
12 35
13 34
14 34
15 34
16 34
17 33
18 33
19 32
20 32
21 33
21 34
22 35
23 34
24 33
25 32
26 33
27 32
28 32
29 33
30 34
30 35
31 35
32 36
31 37
31 38
31 39
32 38
33 38
34 39
35 38
36 39
36 40
37 40
38 40
38 39
39 38
40 39
40 40
41 40
42 40
42 39
43 38
44 38
45 39
44 40
44 41
45 42
45 43
45 44
44 45
43 45
42 45
41 45
41 46
41 47
42 48
43 47
44 47
45 47
46 48
47 48
48 47
49 48
50 47
51 47
52 48
53 47
54 46
55 47
56 46
57 46
58 47
59 48
58 49
57 49
56 49
55 50
54 50
53 50
52 50
51 50
50 51
49 52
48 53
48 54
49 54
50 55
49 56
49 57
50 57
51 58
52 58
53 58
54 59
53 60
52 60
52 61
52 62
53 61
54 61
55 60
56 59
57 59
58 58
59 58
60 58
61 57
62 57
63 57
64 57
65 57
66 56
67 57
68 56
69 55
70 56
70 57
70 58
69 59
68 60
67 60
66 61
65 61
64 62
63 62
63 63
62 64
61 64
60 64
59 65
59 66
60 66
61 66
62 65
63 65
64 64
65 63
66 63
67 62
68 63
69 62
70 61
71 62
71 63
71 64
71 65
70 66
69 66
69 67
70 68
70 69
71 68
72 68
73 67
74 67
75 66
76 65
77 64
78 63
79 63
80 62
81 61
82 61
83 60
84 59
84 58
85 57
86 57
87 57
88 57
89 56
90 55
91 54
92 55
92 54
93 53
94 52
95 52
96 53
96 52
97 51
98 50
99 50
100 49
101 49
101 48
102 47
103 47
104 47
104 46
105 45
105 44
106 43
107 43
108 43
109 43
110 43
111 43
112 43
113 43
114 43
115 43
116 44
116 45
115 46
114 46
114 47
114 48
114 49
114 50
114 51
114 52
113 53
113 54
113 55
112 56
111 57
110 58
109 59
108 60
107 60
107 61
107 62
108 62
109 61
110 60
111 59
112 59
113 58
113 57
114 56
114 55
115 54
115 53
116 52
117 51
117 50
118 49
119 48
120 47
120 46
121 45
122 46
122 47
123 48
124 49
125 50
125 51
126 52
127 53
126 54
125 55
124 56
123 57
122 57
122 58
123 59
123 60
124 61
125 62
126 63
126 64
127 65
127 64
128 63
128 62
127 61
126 60
126 59
126 58
127 57
127 56
128 55
129 54
129 53
130 52
130 51
130 50
129 50
128 49
129 48
129 47
128 47
127 46
128 45
129 44
130 44
131 44
132 44
133 44
134 45
134 46
134 47
134 48
135 49
136 50
136 51
136 52
137 52
138 53
139 53
140 54
141 54
142 54
143 55
144 56
145 57
146 57
147 58
147 59
148 60
148 61
148 62
148 63
148 64
149 65
149 64
150 63
150 62
150 61
150 60
150 59
149 58
149 57
149 56
149 55
148 55
147 55
146 54
145 54
144 53
143 52
143 51
143 50
142 50
141 49
140 48
141 47
141 46
140 46
139 45
140 44
141 44
142 44
143 44
144 45
145 45
146 45
147 46
148 46
149 46
150 46
151 46
152 46
153 46
154 47
155 46
156 46
157 46
158 45
159 44
159 43
158 43
157 44
156 44
155 45
154 45
153 45
152 45
151 45
150 44
151 43
152 42
152 41
153 40
152 40
151 40
150 39
150 38
151 37
152 37
153 37
153 36
154 35
153 35
152 35
151 34
150 33
151 32
152 32
153 32
154 32
155 32
156 33
157 34
158 34
159 35
160 35
160 34
160 33
159 32
158 32
157 31
156 31
155 31
154 30
153 30
152 30
151 30
150 30
149 31
148 31
147 31
146 31
145 31
144 31
143 31
142 30
141 29
142 28
142 27
143 26
143 25
143 24
144 23
145 23
146 23
147 23
148 23
149 23
150 23
151 24
151 23
152 22
151 21
152 20
153 19
154 18
155 17
156 17
156 16
156 15
155 15
154 16
153 16
152 17
151 18
150 19
149 20
148 20
147 20
146 20
145 20
144 20
143 21
142 21
141 20
140 21
140 22
139 23
138 23
137 24
136 25
136 26
136 27
136 28
135 29
134 30
133 30
132 30
131 30
130 30
129 30
128 29
129 28
130 28
131 27
132 27
133 26
134 25
134 24
133 23
132 22
133 21
133 20
133 19
133 18
133 17
132 17
131 16
132 15
133 14
134 14
134 13
135 12
136 11
136 10
135 9
134 10
133 11
133 12
132 13
131 14
130 15
129 15
128 15
128 16
128 17
129 18
129 19
130 20
130 21
130 22
129 23
128 23
127 24
126 25
125 26
124 26
123 27
123 28
122 29
121 29
120 28
121 27
121 26
121 25
120 25
119 25
118 24
119 23
119 22
118 22
117 21
118 20
118 19
118 18
118 17
118 16
118 15
119 14
118 14
117 13
117 12
116 12
115 11
115 10
114 9
114 8
113 8
112 7
111 8
111 9
112 10
113 11
113 12
114 13
114 14
115 14
116 15
116 16
116 17
116 18
116 19
116 20
116 21
115 22
114 23
114 24
114 25
115 26
115 27
116 28
115 29
114 29
113 29
112 29
111 29
110 29
109 30
108 29
107 29
106 29
105 28
106 27
105 27
104 26
103 25
104 24
103 24
102 23
101 23
100 22
101 21
100 21
99 20
98 19
99 18
98 18
97 18
96 17
97 16
96 16
95 15
96 14
96 13
95 13
94 14
93 13
92 12
91 11
90 11
89 10
88 9
89 8
89 7
88 7
87 8
86 7
85 7
84 6
83 6
82 6
81 5
80 5
79 4
78 4
77 3
76 3
75 3
74 2
73 2
72 2
