103 2
102 3
101 3
100 4
100 5
101 6
101 7
101 8
101 9
102 10
102 11
102 12
103 13
104 14
104 15
105 16
105 17
106 18
106 19
106 20
106 21
106 22
107 23
107 24
107 25
107 26
108 27
108 28
108 29
109 30
110 31
109 32
108 33
107 33
106 33
105 33
104 34
103 34
102 35
101 35
100 36
99 36
98 37
97 37
96 37
95 38
94 38
93 39
92 39
91 39
90 39
89 40
88 40
87 40
86 40
85 41
84 41
83 41
82 41
81 41
80 41
79 42
78 42
77 42
76 42
75 42
74 42
73 43
72 43
71 43
70 43
69 43
68 42
67 42
66 42
65 42
64 42
63 42
62 42
61 42
60 42
59 42
58 42
57 41
56 41
55 41
54 41
53 41
52 40
51 40
50 40
49 40
48 40
47 40
46 40
45 40
44 39
43 39
42 39
41 39
40 39
39 38
38 38
37 38
36 38
35 38
34 38
33 37
32 37
31 37
30 37
29 37
28 37
27 37
26 37
25 37
24 37
23 37
22 37
21 37
20 37
19 37
18 37
17 37
16 37
15 37
14 37
13 38
12 38
11 38
10 38
9 38
8 38
7 39
6 39
5 39
4 40
3 40
2 40
2 41
2 42
3 43
4 43
5 44
6 44
7 45
8 45
9 46
10 47
11 48
12 49
13 49
14 50
14 51
15 52
16 53
17 53
18 54
18 55
19 55
20 55
21 56
22 56
23 56
24 57
25 58
26 58
27 59
28 59
29 59
30 59
31 60
30 61
29 62
28 62
28 63
27 64
26 65
26 66
25 67
24 68
24 69
23 70
23 71
22 72
22 73
21 74
21 75
21 76
20 77
20 78
20 79
19 80
19 81
19 82
19 83
18 84
18 85
18 86
17 87
17 88
17 89
16 90
16 91
16 92
17 92
18 91
19 91
20 91
21 91
22 90
23 90
24 90
25 89
26 89
27 88
28 87
29 87
30 86
31 85
32 85
33 84
34 84
35 84
36 83
37 82
38 81
39 81
40 80
41 79
42 79
43 78
44 77
45 77
46 77
47 77
48 77
48 76
49 75
50 75
51 75
52 74
53 73
54 73
55 72
56 72
57 71
58 71
59 70
60 69
61 70
62 69
63 68
64 69
65 68
66 68
67 68
68 68
69 68
70 69
71 69
72 69
73 70
73 71
73 72
74 73
74 74
74 75
75 75
76 76
77 77
78 78
79 79
80 80
81 81
82 82
83 82
84 83
84 84
85 85
86 86
86 87
86 88
86 89
87 89
88 90
88 91
89 92
90 93
91 93
92 94
93 94
94 93
95 93
96 92
97 91
98 91
99 91
100 90
101 90
101 89
102 88
103 88
103 87
104 86
105 85
106 84
107 84
107 83
108 82
109 83
110 83
111 83
112 83
113 83
114 84
115 84
116 84
117 84
118 84
119 84
120 84
121 84
122 84
123 84
124 84
125 84
126 84
127 84
128 85
127 86
127 87
127 88
127 89
127 90
127 91
127 92
128 93
128 94
129 95
129 96
130 97
129 98
129 99
130 99
131 100
132 101
133 102
134 102
135 103
136 104
137 104
138 103
139 103
140 102
141 102
142 102
143 101
144 100
145 99
146 99
147 100
147 101
148 101
149 102
150 101
151 100
152 99
152 98
153 97
153 96
154 95
154 94
155 93
155 92
156 91
156 90
157 89
157 88
157 87
157 86
158 85
159 84
160 84
161 84
162 84
163 84
164 84
165 84
166 84
167 84
168 84
169 84
170 84
171 83
172 84
173 84
174 84
175 83
176 83
177 83
178 83
179 83
180 83
181 83
182 83
183 83
184 82
185 82
186 82
187 82
188 82
189 82
190 82
191 82
192 81
193 81
194 81
195 81
196 81
197 81
198 81
199 80
200 80
201 80
202 80
203 79
204 79
205 79
206 78
207 77
208 77
209 77
210 77
211 77
212 77
213 76
214 76
215 75
216 75
217 74
218 74
219 74
220 73
221 73
222 72
223 72
224 71
225 71
226 71
227 70
228 70
229 69
230 69
231 69
232 68
233 68
234 68
235 67
236 66
237 66
238 66
239 65
240 64
241 63
242 62
243 62
244 62
245 61
246 60
247 59
248 59
249 58
250 57
251 56
252 55
253 55
253 54
254 53
254 52
255 51
255 50
256 49
256 48
256 47
255 47
254 46
255 45
255 44
254 43
253 42
254 41
253 41
252 40
251 39
250 39
249 38
248 38
247 37
246 36
245 36
244 35
243 35
242 34
241 34
240 33
239 33
238 33
237 33
236 33
235 32
234 32
233 31
232 31
231 31
230 30
229 30
228 30
227 30
226 30
225 29
224 29
223 29
222 28
221 28
220 27
219 27
218 26
217 26
216 26
215 26
214 25
213 25
212 24
211 24
210 23
209 23
208 23
207 22
206 22
205 22
204 21
203 21
202 20
201 20
200 20
199 19
198 19
197 19
196 19
195 19
194 19
193 19
192 19
191 18
190 18
189 18
188 18
187 17
186 17
185 17
184 17
183 17
182 17
181 16
180 16
179 16
178 16
177 16
176 16
175 16
174 16
173 16
172 16
171 15
170 15
169 15
168 15
167 15
166 15
165 15
164 15
163 15
162 15
161 15
160 15
159 15
158 15
157 15
156 15
155 15
154 15
153 15
152 15
151 14
150 13
149 13
148 12
147 12
146 11
145 10
144 9
143 9
142 8
141 8
140 8
139 7
138 7
137 6
136 6
135 6
134 5
133 5
132 5
131 5
130 5
129 5
128 4
127 4
126 4
125 4
124 4
123 4
122 4
121 4
120 3
119 3
118 3
117 3
116 3
115 2
114 2
113 2
112 2
111 2
110 2
109 2
108 2
107 2
106 2
105 2
104 2
