3 5
3 6
3 7
4 8
4 9
5 10
6 11
7 12
7 13
8 14
9 15
9 16
10 17
11 18
11 19
12 20
13 21
14 22
15 23
15 24
16 25
17 25
18 26
18 27
18 28
18 29
18 30
18 31
17 32
18 33
18 34
19 35
19 36
18 37
17 38
16 39
15 38
15 39
14 40
13 41
12 42
11 43
10 44
9 45
8 46
7 47
7 48
6 49
6 50
5 51
4 52
3 53
2 54
2 55
2 56
3 56
4 56
4 55
5 54
6 54
6 53
7 52
8 51
9 50
10 49
11 48
11 47
12 46
13 46
13 45
14 44
15 43
16 42
17 41
18 41
19 40
20 39
21 39
22 39
23 39
24 39
25 39
26 39
27 39
28 39
29 39
30 40
31 40
32 41
32 42
32 43
32 44
32 45
31 46
30 47
29 46
28 46
27 46
26 46
25 46
24 45
23 45
23 46
23 47
22 48
22 49
21 50
21 51
20 52
20 53
21 54
22 54
23 53
23 52
24 51
25 51
26 50
27 50
28 50
29 50
30 50
31 50
32 50
33 50
34 49
35 49
36 48
36 47
37 46
37 45
38 44
38 43
38 42
39 41
40 42
40 43
41 44
42 44
43 45
43 46
44 47
44 48
45 49
46 50
47 51
48 52
49 52
50 53
51 54
52 54
53 54
54 54
55 54
56 55
57 55
58 55
59 56
59 57
60 58
61 59
62 60
62 61
63 61
64 61
65 60
65 59
64 58
63 57
62 56
62 55
61 55
60 54
59 53
58 52
57 52
56 51
55 51
54 50
55 49
56 49
57 49
58 49
59 49
60 49
61 50
62 50
63 50
64 50
65 50
66 50
67 51
68 51
69 51
70 52
71 52
72 52
73 53
74 54
75 55
76 56
76 57
76 58
77 59
78 59
78 58
79 57
80 57
80 56
79 55
78 54
77 53
76 52
76 51
76 50
76 49
75 48
74 48
73 47
72 47
71 46
70 46
69 46
68 46
67 46
66 46
65 45
65 44
65 43
65 42
65 41
66 40
67 40
68 39
69 39
70 39
71 39
72 39
73 39
74 39
75 39
76 39
77 39
78 39
79 39
80 39
81 39
82 39
83 39
84 39
85 39
86 39
87 39
88 38
89 38
90 38
91 38
92 39
93 39
94 39
95 39
96 39
97 39
98 40
99 40
100 41
101 42
102 42
103 43
104 44
105 44
106 45
107 45
108 46
109 47
110 47
111 48
112 49
113 49
114 50
115 50
116 51
117 52
118 52
119 53
120 54
121 54
122 54
123 55
124 56
125 57
126 57
127 58
128 58
129 58
128 57
127 56
127 55
126 55
125 54
124 54
123 53
122 52
121 51
120 51
119 50
118 49
117 49
116 48
115 47
114 47
113 46
112 45
111 45
110 44
109 43
108 42
107 42
106 41
105 41
104 40
103 40
102 39
101 39
100 39
99 38
98 37
98 36
98 35
98 34
98 33
98 32
99 31
100 31
101 30
102 29
103 29
104 28
105 27
106 27
107 27
107 26
108 25
109 25
110 25
111 25
112 24
113 23
114 22
115 22
116 21
117 20
118 19
119 19
120 18
121 17
122 16
123 16
124 15
125 14
126 13
127 12
128 12
129 11
128 11
127 10
126 10
125 11
124 11
124 12
123 13
122 12
122 13
121 14
120 15
119 16
118 17
117 16
117 17
116 18
115 19
114 18
114 19
113 20
112 19
112 20
111 21
110 22
109 23
108 22
108 23
107 24
106 23
106 24
105 25
104 26
103 25
102 25
102 26
101 27
100 26
100 27
99 28
98 27
98 28
97 29
96 28
96 29
95 30
94 29
93 30
92 30
91 29
90 29
89 29
88 29
87 29
86 29
85 29
84 29
83 29
82 29
81 28
80 28
79 28
78 28
77 28
76 28
75 28
74 28
73 28
72 28
71 28
70 27
69 27
68 27
67 27
66 26
65 25
65 24
65 23
64 22
65 21
66 21
67 21
68 21
69 21
70 21
71 21
72 21
73 21
74 21
75 21
76 20
77 19
78 18
78 17
79 16
79 15
80 14
80 13
79 12
78 12
77 11
77 12
77 13
76 14
76 15
76 16
75 17
74 16
73 16
72 16
71 16
70 16
69 16
68 16
67 16
66 16
65 16
64 16
63 16
62 16
61 16
61 17
60 18
59 17
58 17
58 18
57 19
56 18
55 17
56 16
57 15
58 15
59 14
60 14
61 13
62 13
62 12
63 11
64 10
65 9
66 8
66 7
65 7
64 6
63 6
63 7
62 8
62 9
61 10
60 11
59 10
58 10
57 10
56 10
55 10
55 11
55 12
54 13
53 12
52 12
51 12
51 13
50 14
49 15
48 14
48 15
47 16
46 17
45 18
45 19
44 20
43 21
42 22
42 23
41 24
41 25
40 26
39 25
39 24
39 23
38 22
38 21
38 20
37 19
37 18
36 17
35 16
34 15
33 15
32 14
31 14
30 13
29 13
28 13
27 13
26 13
25 12
24 11
23 11
22 10
21 10
21 11
22 12
22 13
23 14
23 15
23 16
24 17
24 18
25 18
26 18
27 18
28 18
29 18
30 18
31 18
32 19
32 20
33 21
33 22
33 23
33 24
32 25
31 26
30 25
30 26
29 27
28 26
27 26
26 25
25 25
24 25
23 24
23 25
22 26
21 25
20 25
19 24
18 23
17 22
16 21
16 20
15 19
14 18
13 17
13 16
12 15
11 14
11 13
10 12
9 11
8 10
7 9
6 8
6 7
5 6
4 5
