156 2
155 3
154 3
153 4
153 5
152 6
151 6
151 7
150 8
149 9
148 10
148 11
147 12
147 13
146 14
145 15
145 16
144 17
143 18
143 19
142 20
141 21
141 22
140 23
140 24
139 25
139 26
138 27
137 28
137 29
136 30
136 31
135 32
134 33
134 34
133 35
132 36
132 37
131 38
130 39
130 40
129 41
128 42
127 43
126 43
125 43
124 43
123 43
122 43
121 43
120 43
119 42
118 42
117 42
116 42
115 42
114 42
113 42
112 42
111 42
110 42
109 42
108 42
107 42
106 42
105 42
104 42
103 42
102 42
101 42
100 42
99 42
98 42
97 42
96 42
95 42
94 42
93 42
92 42
91 42
90 42
89 42
88 42
87 42
86 43
85 43
84 43
83 43
82 43
81 43
80 43
79 43
78 43
77 43
76 44
75 44
74 44
73 44
72 44
71 45
70 45
69 45
68 45
67 46
66 46
65 46
64 46
63 47
62 47
61 47
60 48
59 48
58 48
57 49
56 49
55 49
54 49
53 50
52 50
51 50
50 50
49 50
48 50
47 51
46 51
45 51
44 52
43 52
42 52
41 52
40 53
39 53
38 53
37 53
36 54
35 54
34 54
33 55
32 55
31 56
30 56
29 56
28 57
27 57
26 58
25 59
24 60
23 61
22 61
21 62
20 62
19 63
18 64
17 64
16 64
15 65
14 65
13 66
12 66
11 66
10 67
9 67
8 68
7 69
6 69
5 70
4 71
3 72
3 73
2 74
2 75
2 76
2 77
2 78
2 79
2 80
3 81
3 82
3 83
3 84
4 85
5 86
6 86
7 87
8 87
9 88
10 89
11 89
12 89
13 90
13 91
13 92
13 93
13 94
13 95
14 96
14 95
15 94
15 93
15 92
15 91
16 90
17 91
17 92
17 93
18 94
18 95
18 96
19 97
19 98
20 99
20 100
21 101
21 100
22 99
21 98
21 97
20 96
20 95
20 94
20 93
20 92
20 91
21 90
22 90
23 91
24 91
25 91
26 91
27 91
28 91
29 91
30 91
31 91
32 92
33 92
34 92
35 93
36 93
37 93
38 93
39 93
40 93
41 93
42 93
43 93
44 93
45 93
46 93
47 93
48 93
49 93
50 93
51 93
52 93
53 94
54 94
55 94
56 94
57 94
58 94
59 94
60 94
61 94
62 95
63 95
64 95
65 95
66 95
67 95
68 95
69 95
70 95
71 95
72 96
73 96
74 96
75 96
76 96
77 96
78 96
79 96
80 96
81 96
82 96
83 96
84 97
85 97
86 97
87 97
88 97
89 97
90 97
91 97
92 97
93 97
94 97
95 97
96 97
97 97
98 97
99 97
100 97
101 97
102 97
103 97
104 98
105 98
106 98
107 98
108 98
109 98
110 98
111 98
112 98
113 98
114 98
115 98
116 98
117 98
118 98
119 99
120 99
121 99
122 99
123 99
124 99
125 99
126 99
127 100
127 101
128 102
129 103
129 104
130 105
130 106
130 107
131 108
131 109
132 110
132 111
133 112
133 113
133 114
133 115
134 115
135 116
136 117
136 118
137 119
138 120
138 121
139 122
140 123
140 124
141 125
142 126
142 127
143 128
144 128
145 129
146 128
147 128
148 128
148 127
148 126
148 125
148 124
148 123
149 122
150 123
151 122
152 123
153 124
154 124
155 125
156 125
157 126
158 126
158 125
158 124
157 124
156 123
155 122
154 122
153 121
152 120
152 119
153 118
154 119
155 119
156 120
157 120
158 121
159 122
160 122
161 123
162 124
163 125
164 126
165 127
165 128
166 128
167 128
168 128
169 128
170 128
171 128
171 127
172 126
173 126
174 127
174 126
175 125
176 124
176 123
177 122
177 121
177 120
177 119
178 118
178 117
178 116
177 115
177 114
178 113
178 112
178 111
178 110
178 109
178 108
178 107
178 106
177 106
176 105
177 104
176 104
175 103
176 102
175 102
174 101
173 100
172 99
173 98
174 98
175 98
176 98
177 98
178 98
179 98
180 98
181 97
182 97
183 97
184 97
185 97
186 97
187 97
188 98
189 99
190 100
191 101
192 101
193 102
194 103
195 104
196 105
197 106
198 107
199 108
200 108
201 109
202 110
203 111
204 112
205 113
206 114
207 115
208 115
209 116
210 117
211 118
212 119
213 119
214 120
215 121
216 122
217 122
218 123
219 123
220 124
221 124
222 124
223 124
224 124
225 124
225 123
226 122
226 121
227 120
227 119
226 118
227 117
227 116
227 115
228 114
228 113
228 112
228 111
228 110
228 109
228 108
229 107
229 106
229 105
230 104
230 103
231 102
231 101
231 100
232 99
232 98
232 97
232 96
231 96
230 96
229 95
228 95
227 95
226 94
225 94
224 93
225 92
226 92
227 92
228 92
229 92
230 92
231 92
232 92
233 92
234 92
235 92
236 92
237 92
238 92
239 92
240 92
241 92
242 92
243 93
244 93
245 93
246 93
247 93
248 93
249 93
250 93
251 93
252 93
253 93
254 93
255 93
256 93
257 93
258 94
259 94
260 94
261 94
262 94
263 95
264 95
265 95
266 96
267 96
268 96
269 97
270 97
271 98
272 98
273 99
274 100
275 100
276 101
277 101
278 102
279 103
280 103
281 104
282 104
283 105
284 105
285 106
286 107
287 107
288 108
289 108
290 108
291 109
292 110
293 110
294 111
295 111
296 112
297 112
298 113
299 113
300 114
301 114
302 114
303 115
304 115
305 115
306 116
307 116
308 117
309 117
310 117
311 118
312 118
313 118
314 118
315 119
316 119
317 119
318 119
319 119
320 119
321 118
322 119
322 120
323 120
324 120
325 120
325 119
326 118
326 117
325 117
324 116
324 115
323 114
322 114
321 113
322 112
322 111
322 110
321 109
320 109
319 108
319 107
319 106
319 105
319 104
318 104
317 103
317 102
316 102
315 101
315 100
314 99
315 98
315 97
314 97
313 96
313 95
312 94
312 93
311 93
310 92
309 91
308 90
309 89
308 89
307 88
306 87
306 86
305 86
304 85
304 84
305 83
304 83
303 82
304 81
304 80
305 79
305 78
306 77
307 77
308 76
308 75
309 74
309 73
309 72
310 71
311 71
312 71
312 70
313 69
314 69
315 68
315 67
316 66
316 65
317 64
317 63
318 62
317 61
318 60
319 59
320 58
320 57
321 56
321 55
322 54
323 54
323 53
324 52
324 51
324 50
324 49
325 48
326 47
327 47
327 46
327 45
327 44
326 44
325 44
324 45
323 45
322 45
321 45
320 45
319 46
318 46
317 46
316 46
315 46
314 46
313 47
312 47
311 47
310 48
309 48
308 48
307 49
306 49
305 49
304 50
303 50
302 50
301 50
300 50
299 51
298 51
297 52
296 52
295 52
294 53
293 53
292 54
291 54
290 55
289 55
288 56
287 56
286 56
285 57
284 57
283 57
282 58
281 58
280 59
279 60
278 60
277 61
276 61
275 62
274 62
273 63
272 64
271 64
270 64
269 65
268 65
267 66
266 67
265 67
264 67
263 68
262 68
261 68
260 68
259 68
258 68
257 68
256 68
255 68
254 68
253 68
252 68
251 67
250 67
249 67
248 67
247 67
246 66
245 66
244 66
243 66
242 66
241 66
240 65
239 65
238 65
237 65
236 65
235 65
234 64
233 64
232 64
231 64
230 64
229 64
228 64
227 64
226 63
225 63
224 63
223 63
222 63
221 62
220 62
219 62
218 62
217 61
216 61
215 61
214 61
213 61
212 61
211 61
210 61
209 61
208 60
207 60
206 60
205 60
204 59
203 59
202 59
201 59
200 59
199 59
198 58
197 58
196 58
195 58
194 58
193 57
192 57
191 57
190 57
189 57
188 57
187 57
186 56
185 56
184 56
183 56
182 55
181 55
180 55
179 55
178 54
177 54
176 54
175 54
174 53
173 53
172 53
171 53
170 52
169 52
168 52
167 51
166 51
165 51
164 50
165 49
166 49
167 48
168 48
169 48
170 47
171 47
172 46
173 46
174 46
175 45
176 45
177 44
178 43
178 42
179 41
178 41
177 40
178 39
178 38
178 37
177 37
176 36
177 35
177 34
176 34
175 33
176 32
175 32
174 31
173 30
174 29
173 29
172 29
171 28
170 27
171 26
170 26
169 25
170 24
170 23
170 22
170 21
169 21
168 20
169 19
169 18
169 17
169 16
168 16
167 15
168 14
167 14
166 13
167 12
167 11
166 11
165 10
166 9
165 9
164 9
163 8
164 7
164 6
164 5
163 5
162 4
161 3
160 2
159 2
158 2
157 2
