184 2
183 3
182 3
181 3
180 4
179 5
178 5
177 6
176 6
175 7
174 8
173 8
172 9
171 10
170 11
169 11
168 12
167 13
166 14
165 14
164 15
163 16
162 17
161 17
160 18
159 19
158 20
157 20
156 21
155 22
154 23
153 24
152 25
151 26
150 27
149 28
148 28
147 29
147 30
146 31
145 32
144 32
144 33
143 34
142 35
141 35
141 36
140 37
139 38
138 39
137 40
137 41
136 42
135 43
134 43
133 43
132 43
131 43
130 43
129 43
128 43
127 43
126 43
125 43
124 42
123 42
122 42
121 42
120 42
119 42
118 42
117 42
116 42
115 42
114 42
113 42
112 42
111 42
110 42
109 42
108 42
107 42
106 42
105 41
104 41
103 41
102 42
101 42
100 42
99 42
98 42
97 42
96 42
95 42
94 42
93 42
92 42
91 42
90 42
89 42
88 42
87 42
86 42
85 42
84 42
83 42
82 43
81 43
80 43
79 43
78 43
77 43
76 43
75 43
74 43
73 43
72 44
71 44
70 44
69 45
68 45
67 46
66 46
65 46
64 47
63 47
62 48
61 48
60 49
59 49
58 49
57 50
56 50
55 50
54 50
53 50
52 51
51 51
50 51
49 51
48 51
47 52
46 52
45 52
44 52
43 53
42 53
41 53
40 53
39 54
38 54
37 54
36 54
35 55
34 55
33 56
32 56
31 56
30 57
29 57
28 57
27 58
26 59
25 59
24 60
23 60
22 61
21 61
20 61
19 62
18 62
17 63
16 64
15 64
14 64
13 65
12 65
11 66
10 66
9 67
8 67
7 68
6 68
5 69
4 70
3 71
3 72
3 73
3 74
3 75
4 76
3 77
3 78
2 79
2 80
2 81
2 82
2 83
2 84
3 83
3 82
4 81
4 80
5 79
6 80
6 81
6 82
6 83
6 84
5 85
5 86
6 87
6 88
7 87
7 86
8 85
8 84
8 83
9 82
10 82
11 82
12 83
13 83
14 83
15 83
16 83
17 83
18 84
19 85
18 86
18 87
18 88
18 89
18 90
18 91
19 92
19 93
19 94
19 95
19 96
19 97
20 98
20 97
21 96
21 95
21 94
21 93
21 92
21 91
21 90
21 89
21 88
22 87
23 88
23 89
23 90
23 91
23 92
24 93
24 94
25 95
25 96
26 97
26 98
26 99
27 100
27 101
28 101
28 100
29 99
28 98
28 97
28 96
28 95
27 95
26 94
27 93
27 92
27 91
26 91
25 90
26 89
26 88
26 87
27 86
28 87
29 86
30 86
31 87
32 87
33 87
34 88
35 88
36 88
37 89
38 89
39 89
40 90
41 90
42 89
43 89
44 90
44 91
45 91
46 91
47 92
48 92
49 93
50 93
51 93
52 93
53 94
54 94
55 94
56 95
57 95
58 95
59 96
60 96
61 96
62 97
63 97
64 97
65 98
66 98
67 98
68 99
69 99
70 99
71 99
72 100
73 100
74 101
75 101
76 101
77 101
78 101
79 102
80 102
81 102
82 103
83 103
84 103
85 103
86 104
87 104
88 104
89 104
90 104
91 104
92 105
93 105
94 105
95 105
96 105
97 106
98 106
99 106
100 106
101 106
102 107
103 107
104 107
105 107
106 107
107 108
108 108
109 108
110 108
111 108
112 108
113 108
114 109
115 109
116 109
117 109
118 109
119 109
120 110
121 110
122 110
123 110
124 110
125 111
126 111
127 111
128 111
129 111
130 111
131 112
132 112
133 113
133 114
133 115
133 116
133 117
133 118
133 119
134 120
134 121
134 122
134 123
134 124
134 125
134 126
134 127
134 128
135 129
135 130
135 131
135 132
136 133
136 134
136 135
137 136
137 137
138 138
138 139
139 140
139 141
140 142
140 141
141 140
142 140
143 139
144 139
144 138
145 137
146 137
147 136
147 135
148 134
149 135
149 136
150 137
151 137
152 138
153 139
154 140
155 141
156 142
157 143
158 143
159 144
160 144
161 145
162 145
163 144
163 143
164 142
164 141
164 140
164 139
164 138
165 137
165 136
166 135
167 134
167 133
168 132
168 131
169 130
169 129
169 128
169 127
170 126
170 125
170 124
170 123
171 122
170 122
169 121
170 120
169 120
168 119
167 118
166 117
167 116
168 116
169 116
170 116
171 116
172 116
173 117
174 117
175 117
176 117
177 117
178 117
179 117
180 118
181 118
182 118
183 118
184 118
185 118
186 118
187 118
188 118
189 118
190 119
191 119
192 119
193 119
194 119
195 119
196 119
197 119
198 119
199 119
200 118
201 118
202 117
203 117
204 117
205 117
206 118
206 119
207 119
208 120
208 121
209 122
210 123
211 124
212 125
213 126
213 127
214 128
215 129
216 130
217 131
218 132
219 133
220 134
221 135
222 136
223 137
224 137
225 138
226 139
227 139
228 140
229 141
230 142
231 142
232 143
233 144
234 144
235 145
236 145
237 145
238 146
239 147
240 146
240 145
241 144
241 143
241 142
242 141
242 140
243 139
243 138
243 137
243 136
244 135
244 134
244 133
244 132
244 131
245 130
245 129
245 128
245 127
245 126
245 125
245 124
244 124
243 123
244 122
244 121
244 120
244 119
244 118
243 118
242 117
243 116
242 116
241 115
240 114
239 113
240 112
241 112
242 112
243 112
244 111
245 112
245 113
246 113
247 113
248 113
249 113
250 113
251 113
252 113
253 114
254 114
255 114
256 114
257 114
258 114
259 115
260 115
261 115
262 115
263 115
263 114
264 113
265 114
265 115
265 116
266 116
267 116
268 116
269 117
270 118
271 119
272 120
273 121
274 122
275 123
276 124
277 125
278 126
279 127
279 128
280 129
281 130
282 130
283 131
284 132
285 133
286 134
287 135
288 136
289 137
290 137
291 138
292 139
293 140
294 141
295 142
296 143
297 144
298 144
299 145
300 146
301 147
302 147
303 148
304 148
305 149
306 150
307 151
308 151
309 151
310 152
311 152
312 153
313 153
314 154
315 154
316 155
317 155
318 155
319 155
320 155
320 154
321 153
321 152
321 151
321 150
321 149
321 148
321 147
321 146
320 146
319 145
320 144
319 144
318 143
319 142
319 141
318 141
317 140
318 139
318 138
317 138
316 137
317 136
317 135
317 134
316 134
315 133
316 132
316 131
316 130
315 130
314 129
315 128
315 127
315 126
314 126
313 125
314 124
313 124
312 123
313 122
312 122
311 121
312 120
311 120
310 119
311 118
310 118
309 117
310 116
309 116
308 115
307 114
308 113
307 113
306 112
307 111
306 111
305 110
306 109
305 109
304 108
305 107
305 106
305 105
305 104
306 103
307 102
308 102
309 101
310 101
311 100
312 99
313 98
314 98
315 97
316 96
317 95
318 94
319 93
320 93
321 92
322 91
323 90
324 89
325 89
325 88
326 87
327 86
328 85
329 84
329 83
330 82
330 81
331 80
332 79
332 78
333 77
334 76
335 75
335 74
336 73
337 72
338 71
339 70
339 69
338 68
337 68
336 68
335 68
334 68
333 68
332 68
331 68
330 68
329 68
328 68
327 68
326 68
325 68
324 69
323 69
322 69
321 69
320 69
319 70
318 70
317 70
316 70
315 70
314 71
313 71
312 71
311 72
310 72
309 72
308 72
307 73
306 73
305 73
304 74
303 74
302 75
301 75
300 75
299 76
298 76
297 76
296 77
295 77
294 78
293 78
292 78
291 79
290 79
289 79
288 80
287 80
286 81
285 81
284 82
283 82
282 83
281 83
280 84
279 84
278 84
277 85
276 85
275 86
274 86
273 86
272 86
271 87
270 87
269 87
268 87
267 87
266 87
265 86
264 86
263 86
262 86
261 86
260 86
259 86
258 86
257 86
256 86
255 86
254 86
253 86
252 86
251 86
250 85
249 85
248 85
247 85
246 84
245 84
244 84
243 84
242 84
241 83
240 83
239 83
238 82
237 82
236 82
235 81
234 81
233 81
232 80
231 80
230 80
229 79
228 79
227 79
226 79
225 78
224 78
223 78
222 77
221 77
220 76
219 76
218 75
217 75
216 75
215 75
214 74
213 74
212 73
211 73
210 73
209 72
208 72
207 72
206 71
205 71
204 70
203 70
202 69
201 69
200 68
199 68
198 67
197 67
196 66
195 66
194 65
193 65
192 64
191 64
190 64
189 63
188 63
187 62
186 62
185 61
184 61
183 60
182 60
181 59
180 59
179 58
178 58
177 57
176 57
175 57
174 56
173 55
173 54
174 53
175 53
176 52
177 51
178 51
179 51
180 50
181 50
182 50
183 50
184 49
184 48
185 47
185 46
185 45
184 45
183 44
184 43
184 42
184 41
184 40
184 39
183 39
182 38
183 37
183 36
183 35
183 34
183 33
183 32
183 31
183 30
183 29
183 28
183 27
183 26
183 25
183 24
183 23
183 22
183 21
183 20
183 19
183 18
183 17
183 16
183 15
184 14
184 13
184 12
185 11
185 10
185 9
185 8
185 7
185 6
185 5
186 4
186 3
186 2
185 2
