139 2
138 3
137 3
137 4
136 5
135 5
134 6
133 6
132 7
131 8
130 8
129 9
128 10
127 11
126 12
125 13
124 13
123 14
122 15
121 16
120 17
120 18
119 19
118 20
117 20
116 21
115 22
114 23
113 23
113 24
112 25
111 26
110 27
109 28
108 28
108 29
107 30
106 31
105 32
104 33
103 34
102 35
101 35
100 35
99 35
98 35
97 35
96 35
95 35
94 35
93 35
92 35
91 35
90 35
89 35
88 35
87 35
86 35
85 35
84 35
83 36
82 36
81 36
80 36
79 36
78 36
77 36
76 36
75 36
74 36
73 37
72 37
71 37
70 37
69 37
68 37
67 37
66 38
65 38
64 38
63 38
62 38
61 39
60 39
59 39
58 39
57 40
56 40
55 40
54 41
53 41
52 41
51 41
50 42
49 42
48 42
47 42
46 43
45 43
44 43
43 43
42 44
41 44
40 44
39 45
38 45
37 45
36 46
35 46
34 47
33 47
32 47
31 48
30 48
29 48
28 49
27 49
26 50
25 50
24 50
23 50
22 51
21 51
20 52
19 52
18 53
17 54
16 54
15 55
14 55
13 55
12 55
12 56
11 57
10 57
9 58
8 58
7 59
6 59
5 60
4 61
4 62
3 63
2 63
2 64
2 65
2 66
3 67
4 68
5 69
4 70
3 71
3 72
3 73
3 74
3 75
4 76
5 76
6 77
7 77
8 77
9 78
9 79
10 80
10 81
10 82
10 83
11 84
11 85
11 86
12 87
13 88
13 89
13 90
14 91
14 92
15 93
16 94
16 95
17 96
18 97
18 98
19 98
19 97
19 96
19 95
18 94
18 93
17 92
17 91
17 90
16 90
15 89
16 88
16 87
17 86
18 87
18 88
19 89
19 90
20 91
21 92
22 93
23 94
23 95
24 96
25 97
26 98
27 99
27 98
28 97
28 96
27 96
26 95
25 94
26 93
25 93
24 92
23 91
24 90
23 90
22 89
23 88
22 88
21 87
22 86
21 86
20 85
19 84
20 83
20 82
19 82
18 81
19 80
20 79
21 79
22 79
23 80
24 80
25 80
26 81
27 81
28 81
29 81
30 82
31 82
32 82
33 82
34 82
35 82
36 82
37 82
38 83
39 83
40 83
41 83
42 83
43 84
44 84
45 84
46 84
47 84
48 84
49 84
50 85
51 85
52 85
53 86
54 86
55 86
56 86
57 86
58 86
59 86
60 87
61 87
62 87
63 87
64 87
65 88
66 88
67 88
68 88
69 88
70 88
71 89
72 89
73 89
74 89
75 90
76 90
77 90
78 90
79 90
80 90
81 90
82 91
83 91
84 91
85 91
86 91
87 91
88 91
89 92
90 92
91 92
92 92
93 92
94 93
95 93
96 93
97 93
98 93
99 93
100 93
101 93
102 93
103 93
104 93
105 93
106 93
107 93
108 93
109 93
110 94
110 95
111 96
111 97
111 98
111 99
111 100
112 101
112 102
112 103
113 104
113 105
114 106
114 107
114 108
115 109
116 110
116 111
116 112
117 113
118 114
118 115
119 115
120 115
121 115
122 115
123 115
124 115
125 114
125 113
126 112
127 111
128 112
129 113
130 114
131 115
132 115
133 115
134 116
135 116
136 117
137 117
138 118
139 118
140 119
141 119
142 118
143 117
143 116
144 115
144 114
145 113
145 112
145 111
144 110
145 109
145 108
145 107
145 106
145 105
145 104
145 103
145 102
145 101
145 100
145 99
144 99
143 98
144 97
144 96
143 96
142 95
143 94
144 93
145 93
146 93
147 93
148 93
149 93
150 93
151 93
152 93
153 93
154 93
155 93
156 93
157 93
158 93
159 93
160 92
161 92
162 92
163 92
164 92
165 92
166 91
167 91
168 91
169 91
170 91
171 91
172 90
173 90
174 90
175 89
176 89
177 88
178 88
179 89
180 90
180 91
181 92
182 93
183 94
184 95
185 96
186 97
187 98
187 99
188 100
189 101
190 102
190 103
191 104
192 105
193 106
193 107
194 108
195 108
196 109
197 110
198 111
199 112
200 113
201 114
202 115
203 115
204 115
205 116
206 116
207 116
208 117
209 116
210 115
210 114
211 113
211 112
212 111
212 110
212 109
213 108
213 107
214 106
214 105
214 104
214 103
214 102
213 101
214 100
214 99
214 98
214 97
214 96
214 95
214 94
215 93
215 92
214 91
213 91
212 91
211 90
210 90
209 90
208 90
207 89
206 88
205 88
204 88
203 87
202 87
201 86
201 85
202 84
203 84
204 84
205 84
206 83
207 83
208 83
209 83
210 83
211 83
212 83
213 83
214 82
215 82
216 82
217 82
218 82
219 82
220 82
221 82
222 82
223 81
224 81
225 81
226 81
227 81
228 81
229 81
230 81
231 81
232 81
233 81
234 82
235 82
236 82
237 82
238 83
239 83
240 83
241 84
242 84
243 85
244 86
245 86
246 87
247 87
248 88
249 89
250 89
251 90
252 91
253 92
254 92
255 93
256 93
257 93
258 94
259 94
260 95
261 96
262 96
263 97
264 97
265 98
266 99
267 99
268 100
269 100
270 101
271 101
272 102
273 103
274 103
275 104
276 104
277 105
278 105
279 106
280 106
281 106
282 107
283 107
284 108
285 108
286 108
287 108
288 108
289 108
290 107
290 106
289 105
290 104
289 104
288 103
289 102
288 102
287 101
286 100
287 99
286 99
285 98
284 97
285 96
284 96
283 95
284 94
284 93
283 93
282 92
281 91
282 90
282 89
281 89
280 88
281 87
281 86
280 86
279 85
278 84
279 83
279 82
278 82
277 81
276 80
277 79
276 79
275 79
274 78
275 77
275 76
275 75
274 75
273 74
274 73
273 72
273 71
273 70
273 69
274 68
275 67
276 66
276 65
277 64
278 63
279 62
279 61
280 60
280 59
281 58
282 57
283 56
283 55
284 54
284 53
285 52
286 51
287 50
287 49
288 48
288 47
289 46
290 45
291 44
292 43
293 42
293 41
294 40
294 39
293 39
292 39
291 39
290 39
289 39
288 39
287 39
286 39
285 40
284 40
283 40
282 40
281 41
280 41
279 41
278 42
277 42
276 42
275 43
274 43
273 44
272 44
271 44
270 45
269 46
268 46
267 46
266 47
265 47
264 48
263 48
262 49
261 49
260 50
259 50
258 50
257 50
256 50
255 51
254 51
253 52
252 52
251 53
250 53
249 54
248 55
247 55
246 56
245 56
244 57
243 57
242 57
241 57
240 57
239 58
238 58
237 58
236 59
235 59
234 59
233 59
232 59
231 59
230 59
229 59
228 59
227 59
226 59
225 59
224 59
223 59
222 59
221 59
220 59
219 59
218 59
217 59
216 59
215 59
214 59
213 58
212 58
211 58
210 58
209 58
208 58
207 58
206 58
205 58
204 58
203 57
202 57
201 57
200 57
199 57
198 57
197 57
196 57
195 56
194 56
193 56
192 56
191 55
190 55
189 55
188 55
187 54
186 54
185 54
184 53
183 53
182 53
181 52
180 52
179 52
178 52
177 51
176 51
175 51
174 50
173 50
172 50
171 50
170 50
169 49
168 49
167 49
166 49
165 48
164 48
163 48
162 47
161 47
160 47
159 47
158 46
157 46
156 46
155 45
154 45
153 45
152 44
151 44
150 44
149 44
148 43
147 43
146 42
145 42
144 42
143 42
142 41
141 40
142 39
143 39
144 38
145 37
146 37
147 36
148 36
149 35
150 35
150 34
151 33
150 33
149 32
148 31
149 30
149 29
148 28
148 27
147 26
148 25
148 24
148 23
148 22
148 21
147 21
146 20
147 19
147 18
146 18
145 17
146 16
146 15
146 14
146 13
146 12
146 11
146 10
145 10
144 9
145 8
144 7
144 6
143 5
144 4
143 4
142 3
143 2
142 2
141 2
140 2
