268 2
267 3
266 3
265 4
264 5
264 6
263 7
263 8
263 9
263 10
263 11
263 12
262 13
262 14
262 15
262 16
263 17
263 18
263 19
264 20
264 21
265 21
266 22
267 23
267 24
268 25
269 26
270 27
271 28
272 29
272 30
273 31
273 32
274 33
273 34
273 35
274 35
275 36
275 37
275 38
275 39
274 40
273 41
272 42
271 43
270 43
269 44
268 44
267 45
266 46
265 46
264 47
263 47
262 48
261 48
260 49
259 49
258 49
257 50
256 50
255 50
254 50
253 50
252 50
251 51
250 51
249 51
248 51
247 51
246 51
245 51
244 52
243 52
242 52
241 52
240 52
239 52
238 52
237 52
236 52
235 52
234 52
233 52
232 52
231 51
230 51
229 51
228 51
227 51
226 51
225 51
224 51
223 50
222 50
221 50
220 50
219 50
218 50
217 50
216 50
215 50
214 50
213 49
212 49
211 49
210 49
209 49
208 48
207 48
206 48
205 47
204 47
203 47
202 47
201 47
200 47
199 46
198 46
197 46
196 46
195 45
194 45
193 45
192 45
191 45
190 45
189 44
188 44
187 44
186 44
185 44
184 43
183 43
182 42
183 41
184 40
184 39
185 38
185 37
186 36
186 35
187 34
187 33
187 32
187 31
187 30
188 29
188 28
188 27
188 26
188 25
188 24
188 23
188 22
188 21
187 21
186 20
185 19
184 18
183 17
182 16
181 16
180 15
179 15
178 15
177 15
176 15
175 15
174 15
173 16
172 16
171 16
170 17
169 18
168 18
167 19
166 20
165 21
164 21
163 22
162 23
161 24
160 25
159 26
158 27
158 28
157 29
156 30
156 31
155 32
154 33
154 34
153 35
152 36
151 36
150 37
149 36
148 36
147 36
146 36
145 36
144 36
143 36
142 36
141 36
140 36
139 36
138 36
137 36
136 36
135 36
134 36
133 36
132 36
131 36
130 36
129 36
128 36
127 36
126 36
125 36
124 37
123 37
122 37
121 37
120 37
119 37
118 38
117 38
116 38
115 38
114 38
113 38
112 39
111 38
111 37
112 36
112 35
112 34
112 33
112 32
112 31
113 30
113 29
113 28
113 27
113 26
114 25
114 24
114 23
113 22
113 21
112 21
111 20
110 19
109 19
108 19
107 19
106 19
105 18
104 18
103 18
102 18
101 19
100 19
99 19
98 19
97 19
96 19
95 19
94 19
93 19
92 19
91 19
90 19
89 19
88 20
87 20
86 20
85 21
84 21
83 21
82 21
81 22
80 22
79 23
78 24
77 25
77 26
76 27
75 28
74 29
74 30
73 31
72 32
71 33
71 34
70 35
69 36
68 37
67 38
67 39
66 40
65 41
64 42
63 42
62 42
61 42
60 42
59 42
58 42
57 41
56 41
55 41
54 41
53 41
52 41
51 41
50 41
49 41
48 41
47 41
46 41
45 41
44 42
43 42
42 43
41 43
40 43
39 43
38 43
37 43
36 44
35 44
34 45
33 45
32 46
31 46
30 46
29 47
28 47
27 46
27 45
28 44
29 43
30 42
31 41
31 40
32 39
31 39
30 39
29 40
28 41
27 42
26 42
25 43
24 44
23 45
23 46
22 47
21 48
20 49
19 50
18 50
17 50
16 50
15 49
16 48
16 47
17 46
18 45
18 44
19 43
20 43
21 42
21 41
22 40
21 40
20 40
19 41
18 42
17 43
16 43
15 44
14 45
13 46
13 47
12 48
11 49
11 50
10 51
9 51
8 50
7 49
6 48
7 47
6 47
5 46
4 45
3 45
3 46
3 47
4 48
4 49
5 50
5 51
5 52
5 53
5 54
5 55
4 56
3 57
2 58
2 59
2 60
2 61
2 62
2 63
2 64
2 65
3 66
4 67
5 68
5 69
5 70
5 71
4 72
4 73
4 74
3 75
3 76
3 77
3 78
4 77
5 76
5 75
6 74
6 73
7 72
8 72
9 71
10 71
11 72
12 72
13 72
14 73
14 74
15 75
15 76
16 77
17 78
18 79
19 79
20 80
21 80
21 79
21 78
20 77
20 76
19 76
18 75
19 74
20 73
21 73
22 73
23 73
24 74
24 75
25 76
25 77
26 78
27 79
28 80
29 81
30 82
31 83
32 83
32 82
33 81
32 81
31 80
30 79
29 78
28 77
29 76
28 76
27 75
28 74
29 74
30 74
31 74
32 74
33 75
34 75
35 75
36 75
37 75
38 75
39 75
40 76
41 76
42 76
43 76
44 76
45 77
46 77
47 77
48 77
49 77
50 77
51 77
52 77
53 77
54 77
55 77
56 77
57 77
58 77
59 76
60 76
61 76
62 76
63 76
64 76
65 75
66 75
67 75
68 75
69 75
70 76
71 77
72 78
73 79
74 80
75 81
76 82
76 83
77 84
78 85
79 86
79 87
80 88
81 89
82 90
83 91
84 92
85 93
86 94
87 94
88 95
89 96
90 96
91 97
92 97
93 98
94 99
95 99
96 99
97 99
98 99
99 99
100 99
101 99
102 99
103 98
104 98
105 98
106 98
107 97
108 97
109 97
110 97
111 96
112 95
113 95
114 95
115 94
116 94
116 93
116 92
116 91
117 90
116 90
115 89
116 88
116 87
116 86
115 86
114 85
115 84
116 84
116 83
116 82
115 81
115 80
116 79
115 79
114 79
113 78
112 77
111 76
110 75
111 74
112 73
113 73
114 74
115 74
116 74
117 74
118 74
119 74
120 74
121 74
122 75
123 75
124 75
125 75
126 75
127 76
128 76
129 76
130 76
131 76
132 77
133 77
134 77
135 77
136 77
137 77
138 77
139 77
140 78
141 79
142 80
143 79
144 78
145 78
146 78
147 77
148 78
149 77
150 77
151 77
152 77
153 78
153 79
154 79
155 79
156 80
157 81
158 82
159 83
160 84
161 85
161 86
162 87
163 88
164 89
165 90
166 91
167 92
168 93
169 94
170 94
171 95
172 95
173 96
174 96
175 96
176 96
177 96
178 96
179 97
180 96
181 95
182 95
183 94
184 94
185 93
186 92
187 93
187 92
188 91
187 90
187 89
188 88
188 87
188 86
189 85
189 84
189 83
188 82
189 81
188 81
187 80
188 79
187 79
186 78
185 77
184 76
185 75
184 75
183 75
182 74
181 73
180 72
181 71
182 71
183 71
184 71
185 71
186 71
187 72
187 73
188 72
189 73
189 74
190 75
191 74
191 73
192 72
193 72
194 72
195 72
196 72
197 72
198 72
199 73
200 72
201 72
202 72
203 72
204 72
205 72
206 72
207 72
208 72
209 72
210 72
211 72
212 72
213 72
214 72
215 72
216 72
217 72
218 72
219 72
220 72
221 72
222 72
223 72
224 72
225 72
226 72
227 72
228 72
229 72
230 72
231 72
232 72
233 72
234 72
235 72
236 72
237 72
238 72
239 71
240 71
241 71
242 71
243 71
244 70
245 70
246 70
247 70
248 70
249 69
250 69
251 69
252 68
253 68
254 68
255 67
256 67
257 66
258 66
259 65
260 65
261 65
262 65
263 64
264 64
265 63
266 62
267 62
268 61
269 60
270 59
271 58
272 57
273 56
274 55
275 54
276 54
277 53
278 52
278 51
279 50
280 50
281 49
281 48
282 47
282 46
283 45
283 44
284 43
284 42
285 41
285 40
285 39
286 38
286 37
286 36
286 35
286 34
286 33
286 32
286 31
286 30
286 29
286 28
286 27
285 27
284 26
285 25
285 24
285 23
285 22
284 22
283 21
282 20
283 19
282 19
281 18
282 17
281 17
280 16
281 15
280 15
279 14
280 13
279 13
278 12
279 11
279 10
278 10
277 9
278 8
277 8
276 7
277 6
276 6
275 5
274 4
275 3
274 3
273 2
272 2
271 2
270 2
269 2
