171 2
170 3
169 4
168 4
167 5
166 6
165 6
164 7
163 8
162 9
161 9
160 10
159 11
158 12
157 13
156 13
155 14
154 15
154 16
153 17
152 17
151 18
151 19
150 20
149 21
148 22
148 23
147 24
146 25
145 26
145 27
144 28
143 28
143 29
142 30
141 31
141 32
140 33
140 34
139 35
138 36
138 37
137 38
136 39
136 40
135 41
134 42
134 43
133 44
132 45
131 46
130 46
129 47
128 47
127 47
126 47
125 47
124 48
123 48
122 48
121 48
120 49
119 49
118 49
117 49
116 49
115 50
114 50
113 50
112 51
111 51
110 51
109 52
108 52
107 52
106 52
105 53
104 53
103 53
102 53
101 53
100 53
99 54
98 54
97 54
96 55
95 55
94 55
93 55
92 55
91 56
90 56
89 56
88 57
87 57
86 57
85 57
84 58
83 58
82 58
81 59
80 59
79 60
78 60
77 60
76 60
75 60
74 61
73 61
72 62
71 62
70 62
69 63
68 63
67 64
66 64
65 65
64 65
63 66
62 66
61 67
60 67
59 68
58 68
57 68
56 69
55 69
54 70
53 70
52 70
51 71
50 71
49 71
48 72
47 72
46 73
45 74
44 74
43 75
42 75
41 75
40 76
39 76
38 77
37 77
36 78
35 78
34 78
33 79
32 79
31 80
30 80
29 81
28 81
27 82
26 82
25 82
24 82
23 83
22 83
21 84
20 85
19 85
18 86
17 86
16 87
15 88
14 89
13 89
12 90
11 91
10 92
9 93
9 94
8 95
7 96
6 97
5 98
4 99
4 100
3 101
3 102
2 103
2 104
2 105
2 106
2 107
2 108
2 109
2 110
2 111
3 112
3 113
4 114
5 115
6 116
6 117
6 118
6 119
6 120
6 121
7 121
7 120
8 119
9 120
9 119
10 118
10 117
10 116
10 115
11 114
12 115
12 116
12 117
12 118
12 119
13 118
13 117
14 116
15 117
15 118
16 117
17 117
18 118
19 118
20 119
21 120
22 121
23 122
24 122
24 121
25 120
26 120
26 119
26 118
25 118
24 118
23 117
22 116
22 115
23 114
24 115
25 114
26 114
27 114
28 114
29 115
30 115
31 115
32 115
33 115
34 115
35 115
36 114
37 114
38 114
39 114
40 114
41 114
42 114
43 114
44 113
45 113
46 113
47 113
48 113
49 113
50 113
51 112
52 112
53 112
54 112
55 112
56 112
57 112
58 112
59 111
60 111
61 111
62 111
63 111
64 111
65 111
66 111
67 110
68 110
69 110
70 110
71 110
72 110
73 109
74 109
75 109
76 109
77 109
78 108
79 108
80 108
81 108
82 107
83 107
84 107
85 107
86 107
87 106
88 106
89 106
90 106
91 106
92 106
93 105
94 105
95 105
96 105
97 104
98 104
99 104
100 104
101 104
102 104
103 104
104 104
105 103
106 103
107 103
108 102
109 102
110 102
111 102
112 102
113 101
114 101
115 101
116 101
117 100
118 100
119 100
120 100
121 100
122 100
123 99
124 99
125 99
126 98
127 98
128 98
129 97
130 97
131 97
132 97
133 98
133 99
133 100
134 101
134 102
134 103
134 104
135 105
135 106
135 107
135 108
136 109
136 110
136 111
137 112
137 113
137 114
137 115
138 116
138 117
138 118
139 119
140 120
141 119
142 118
143 118
144 118
145 118
146 118
147 117
147 116
148 115
149 116
150 117
150 118
151 118
152 119
153 120
154 121
155 122
156 123
157 124
158 124
159 125
160 126
161 126
162 126
163 127
164 127
165 127
166 127
167 127
168 127
169 126
170 125
170 124
171 123
171 122
171 121
172 120
172 119
172 118
172 117
172 116
173 115
173 114
173 113
173 112
173 111
174 110
174 109
174 108
174 107
174 106
174 105
174 104
174 103
173 103
172 103
171 102
172 101
172 100
173 99
173 98
172 98
171 97
171 96
172 95
171 95
170 94
171 93
170 93
169 92
168 92
167 91
168 90
169 90
170 90
171 90
172 90
173 90
174 90
175 89
176 89
177 89
178 89
179 89
180 89
181 89
182 89
183 89
184 89
185 89
186 89
187 89
188 88
189 88
190 88
191 88
192 88
193 88
194 88
195 87
196 87
197 87
198 87
199 87
200 87
201 86
202 86
203 86
204 86
205 86
206 86
207 86
208 86
209 85
210 85
211 85
212 84
213 84
214 83
215 83
216 82
217 82
218 83
219 84
220 85
221 85
222 86
223 87
224 87
225 88
226 88
227 89
228 89
229 90
230 90
231 91
232 92
233 92
234 93
235 93
236 94
237 94
238 94
239 95
240 95
241 95
242 96
243 96
244 96
245 96
246 97
247 97
248 97
249 96
250 96
251 95
252 94
253 93
254 92
254 91
255 90
255 89
256 88
256 87
257 86
257 85
257 84
257 83
257 82
256 82
255 81
256 80
256 79
255 79
254 78
253 77
254 76
253 76
252 75
251 74
250 73
249 72
250 71
251 71
252 71
253 71
254 71
255 71
256 71
257 71
258 71
259 71
260 71
261 71
262 71
263 71
264 71
265 71
266 71
267 71
268 72
269 72
270 72
271 72
272 72
273 72
274 72
275 72
276 72
277 73
278 73
279 73
280 73
281 73
282 74
283 74
284 74
285 74
286 75
287 75
288 75
289 76
290 76
291 77
292 78
293 79
294 80
295 81
296 82
297 82
298 83
299 84
300 85
301 86
302 86
303 87
304 88
305 89
306 89
307 89
308 90
309 91
310 91
311 92
312 93
313 93
314 93
315 94
316 94
317 95
318 95
319 96
320 96
321 96
322 96
323 96
324 97
325 97
326 97
327 97
328 97
329 97
330 97
331 96
332 95
332 94
333 93
333 92
334 91
334 90
335 89
335 88
335 87
336 86
336 85
336 84
336 83
336 82
336 81
336 80
336 79
337 78
337 77
337 76
336 76
335 75
336 74
336 73
336 72
336 71
336 70
336 69
336 68
336 67
336 66
336 65
336 64
336 63
336 62
336 61
336 60
337 59
337 58
337 57
338 56
338 55
337 54
338 53
338 52
339 51
339 50
338 49
338 48
339 47
339 46
339 45
338 45
337 44
338 43
338 42
338 41
337 41
336 40
337 39
336 39
335 38
336 37
335 37
334 36
335 35
334 35
333 34
332 34
331 34
330 34
329 34
328 34
327 34
326 34
325 35
324 35
323 35
322 36
321 36
320 37
319 37
318 37
317 37
316 38
315 38
314 38
313 39
312 39
311 39
310 40
309 40
308 40
307 41
306 41
305 41
304 42
303 42
302 42
301 42
300 43
299 43
298 43
297 44
296 44
295 44
294 44
293 45
292 45
291 45
290 46
289 46
288 46
287 46
286 46
285 46
284 46
283 46
282 46
281 46
280 46
279 46
278 46
277 46
276 46
275 46
274 46
273 46
272 46
271 46
270 46
269 46
268 46
267 46
266 46
265 46
264 46
263 46
262 46
261 46
260 46
259 46
258 46
257 46
256 46
255 46
254 45
253 45
252 45
251 45
250 45
249 45
248 45
247 45
246 45
245 45
244 45
243 45
242 45
241 45
240 44
239 44
238 44
237 44
236 44
235 44
234 44
233 44
232 44
231 44
230 44
229 43
228 43
227 43
226 43
225 43
224 43
223 43
222 43
221 43
220 43
219 43
218 43
217 42
216 42
215 42
214 42
213 42
212 42
211 42
210 42
209 42
208 42
207 42
206 42
205 42
204 42
203 42
202 42
201 42
200 42
199 42
198 42
197 42
196 42
195 42
194 42
193 42
192 42
191 42
190 42
189 42
188 42
187 42
186 42
185 42
184 42
183 42
182 42
181 42
180 42
179 42
178 42
177 42
176 42
175 42
174 42
173 42
172 42
171 42
170 42
169 42
168 42
167 42
166 41
167 40
168 40
169 40
170 40
171 40
172 40
173 39
174 39
175 39
176 38
177 37
177 36
178 35
178 34
179 33
179 32
179 31
179 30
180 29
180 28
180 27
180 26
180 25
180 24
180 23
180 22
179 21
180 20
180 19
180 18
180 17
180 16
180 15
180 14
180 13
180 12
180 11
179 11
178 10
179 9
178 9
177 8
178 7
178 6
177 6
176 5
177 4
177 3
176 3
175 3
174 2
173 2
172 2
