121 1
120 2
119 2
118 3
117 4
116 5
115 5
114 5
113 6
112 7
111 8
110 9
109 10
108 10
107 11
106 12
106 13
105 14
104 15
103 16
103 17
102 18
101 19
100 20
99 21
98 22
98 23
97 24
96 25
96 26
95 27
94 27
93 27
92 28
91 28
90 28
89 28
88 29
87 29
86 29
85 29
84 29
83 29
82 29
81 29
80 30
79 30
78 30
77 31
76 31
75 31
74 31
73 32
72 32
71 32
70 33
69 33
68 34
67 34
66 34
65 34
64 35
63 35
62 36
61 36
60 36
59 37
58 37
57 38
56 39
55 39
54 40
53 41
52 42
51 42
50 43
49 44
48 45
47 46
46 47
46 48
45 49
44 49
43 50
42 51
41 52
40 52
39 53
38 53
37 54
36 55
35 56
34 56
33 56
32 57
31 57
30 57
29 58
28 59
27 59
26 60
25 60
24 61
23 62
22 62
21 63
20 63
19 64
18 65
17 66
16 66
15 67
14 66
13 67
13 68
13 69
12 70
11 71
10 72
9 72
8 72
7 73
6 74
5 75
4 76
3 77
2 78
2 79
2 80
2 81
2 82
3 83
3 84
2 85
2 86
2 87
2 88
2 89
3 90
4 90
5 90
6 91
7 92
7 93
7 94
7 95
7 96
7 97
7 98
8 97
8 96
9 95
10 96
10 97
10 98
10 99
11 100
11 99
12 98
12 97
12 96
13 95
14 94
15 94
16 94
17 94
18 95
19 95
20 95
21 95
22 96
23 96
24 97
25 97
26 98
27 98
28 99
29 99
30 100
31 101
32 101
33 102
34 103
35 103
36 104
37 104
38 104
39 105
40 105
41 106
42 106
43 107
44 107
45 107
46 107
47 107
48 108
49 108
50 108
51 109
52 109
53 109
54 110
55 110
56 110
57 111
58 111
59 111
60 111
61 112
62 112
63 112
64 113
65 113
66 113
67 114
68 114
69 114
70 114
71 114
72 114
73 114
74 114
75 114
76 114
77 115
78 115
79 115
80 115
81 116
82 116
83 116
84 116
85 116
86 116
87 116
88 116
89 116
90 116
91 117
92 117
93 117
94 117
95 117
96 117
97 117
98 117
99 117
100 117
101 117
102 117
103 117
104 117
105 117
106 118
107 119
108 120
108 121
109 122
109 123
110 124
110 125
111 126
112 127
112 128
113 129
113 130
114 131
115 132
116 133
117 134
118 135
119 135
120 136
121 136
122 136
123 136
124 136
125 136
126 136
127 136
128 135
129 135
129 134
130 133
131 132
132 132
133 132
134 132
135 133
136 133
137 132
138 131
139 130
140 129
141 129
141 128
142 127
143 126
143 125
144 124
144 123
145 122
145 121
144 121
143 120
144 119
144 118
143 118
142 117
143 116
143 115
142 115
141 114
142 113
141 112
142 111
143 111
144 111
145 110
146 110
147 110
148 110
149 109
150 109
151 109
152 109
153 109
154 110
155 111
156 112
157 113
158 114
159 114
160 115
161 116
162 117
163 117
164 118
165 119
166 120
167 120
168 121
169 121
170 121
171 122
172 122
173 123
174 123
175 124
176 124
177 124
178 125
179 125
180 125
181 126
182 126
183 126
184 126
185 126
186 126
186 125
187 124
187 123
187 122
187 121
187 120
187 119
187 118
187 117
187 116
187 115
187 114
187 113
187 112
188 111
188 110
188 109
189 108
189 107
190 106
190 105
189 105
188 104
187 104
186 103
185 103
184 102
183 101
182 100
181 100
180 99
181 98
182 97
183 97
184 96
185 96
186 96
187 95
188 95
189 95
190 95
191 95
192 94
193 95
194 94
195 94
196 94
197 95
198 95
199 95
200 95
201 95
202 95
203 95
204 96
205 97
206 97
207 98
208 98
209 99
210 100
211 101
212 102
213 102
214 103
215 104
216 105
217 105
218 106
219 107
220 107
221 108
222 109
223 109
224 110
225 110
226 111
227 111
228 112
229 113
230 113
231 114
232 114
233 114
234 115
235 115
236 116
237 116
238 116
239 117
240 117
241 117
242 118
243 118
244 118
245 118
246 117
247 117
248 116
248 115
249 114
249 113
250 112
250 111
250 110
250 109
250 108
250 107
249 107
248 106
249 105
248 105
247 104
248 103
248 102
247 102
246 101
247 100
247 99
246 99
245 98
246 97
245 97
244 96
245 95
244 95
243 94
242 93
241 92
240 91
239 90
238 89
239 88
238 88
237 87
236 86
236 85
235 84
236 83
236 82
236 81
236 80
237 79
238 78
239 77
240 76
241 75
242 74
242 73
243 72
244 71
244 70
245 69
246 68
247 67
247 66
248 65
249 64
250 63
250 62
251 61
251 60
251 59
252 58
252 57
252 56
251 55
251 54
251 53
251 52
251 51
251 50
250 49
249 48
248 47
247 46
246 46
245 47
244 47
243 47
242 47
241 47
240 47
239 48
238 48
237 49
236 49
235 49
234 49
233 49
232 50
231 50
230 51
229 51
228 52
227 52
226 53
225 54
224 54
223 55
222 56
221 56
220 56
219 57
218 58
217 58
216 59
215 60
214 61
213 62
212 63
211 63
210 63
209 64
208 65
207 65
206 65
205 65
204 66
203 66
202 66
201 65
200 66
199 65
198 65
197 65
196 65
195 65
194 65
193 65
192 64
191 64
190 64
189 63
188 63
187 63
186 62
185 62
184 61
183 60
182 59
183 58
184 58
185 58
186 57
187 57
188 56
189 56
190 56
191 56
192 56
193 56
193 55
194 54
193 54
192 54
191 53
190 52
189 52
188 51
188 50
187 49
186 49
185 49
184 48
183 48
182 47
181 47
180 46
181 45
181 44
180 44
179 44
178 43
179 42
178 42
177 42
176 42
175 41
175 40
174 40
173 39
172 38
171 38
170 38
169 38
168 37
168 36
167 36
166 35
165 35
164 35
163 34
162 34
161 34
160 34
159 34
158 33
159 32
158 32
157 32
156 31
155 30
154 30
153 30
152 30
151 29
152 28
151 28
150 28
149 28
148 27
147 27
146 27
145 27
144 26
143 26
142 26
141 25
140 24
139 23
138 22
137 21
136 21
135 20
134 20
133 19
134 18
133 18
132 18
131 17
130 16
129 15
130 14
130 13
129 13
128 13
127 12
128 11
128 10
127 10
126 9
127 8
127 7
126 7
125 7
124 6
123 5
124 4
124 3
123 3
122 2
