167 2
166 3
165 3
164 4
163 4
162 5
161 6
160 7
159 8
158 9
157 10
156 11
155 12
154 13
153 14
152 15
151 15
151 16
150 17
149 18
148 19
148 20
147 21
146 22
145 23
145 24
144 25
143 25
142 25
141 25
140 25
139 25
138 25
137 25
136 25
135 25
134 25
133 25
132 25
131 25
130 25
129 25
128 25
127 25
126 25
125 25
124 25
123 25
122 25
121 25
120 25
119 25
118 25
117 25
116 25
115 25
114 25
113 25
112 25
111 25
110 25
109 25
108 25
107 25
106 25
105 25
104 26
103 26
102 26
101 26
100 26
99 26
98 26
97 26
96 26
95 26
94 26
93 26
92 26
91 27
90 27
89 27
88 27
87 27
86 27
85 27
84 27
83 27
82 28
81 28
80 28
79 28
78 28
77 29
76 29
75 29
74 29
73 29
72 29
71 29
70 29
69 29
68 29
67 30
66 30
65 30
64 30
63 30
62 30
61 31
60 31
59 31
58 31
57 31
56 32
55 32
54 32
53 32
52 33
51 33
50 33
49 33
48 34
47 34
46 34
45 34
44 34
43 35
42 35
41 36
40 36
39 36
38 36
37 37
36 37
35 38
34 38
33 39
32 39
31 39
30 40
29 40
28 40
27 41
26 41
25 42
24 42
23 42
22 43
21 43
20 44
19 44
18 44
17 44
16 45
15 45
14 46
13 46
12 46
11 47
10 47
9 48
8 48
7 48
7 49
6 50
6 51
6 52
7 53
6 54
5 54
4 54
3 55
2 56
2 57
3 58
4 59
4 60
5 61
5 62
6 63
7 64
8 65
9 66
10 67
11 67
12 68
13 69
14 69
15 70
16 71
17 71
18 72
19 72
20 73
21 73
22 73
23 73
24 74
25 74
26 75
27 75
28 75
29 75
30 76
31 76
32 77
33 77
34 77
35 77
36 78
37 78
38 78
39 79
40 79
41 79
42 79
43 79
44 80
45 80
46 80
47 80
48 80
49 80
50 80
51 80
52 80
53 81
54 81
55 81
56 81
57 81
58 82
59 82
60 82
61 82
62 83
63 83
64 83
65 83
66 83
67 83
68 83
69 84
70 84
71 84
72 84
73 84
74 84
75 84
76 84
77 85
78 85
79 85
80 85
81 85
82 85
83 86
84 86
85 86
86 86
87 86
88 86
89 86
90 86
91 86
92 86
93 86
94 86
95 86
96 86
97 86
98 86
99 86
100 86
101 86
102 86
103 86
104 87
105 88
105 89
105 90
105 91
106 92
106 93
106 94
106 95
107 96
107 97
107 98
108 99
108 100
109 101
109 102
110 103
110 104
111 105
112 105
113 105
114 105
115 105
115 104
116 103
117 102
118 102
119 103
120 104
121 105
122 105
123 106
123 107
124 108
125 108
126 109
127 109
128 109
129 109
130 109
130 108
131 107
131 106
132 105
132 104
132 103
133 102
133 101
133 100
133 99
133 98
133 97
133 96
134 95
134 94
134 93
134 92
134 91
134 90
134 89
134 88
133 88
132 87
133 86
134 86
135 86
136 86
137 86
138 86
139 86
140 85
141 85
142 85
143 85
144 85
145 85
146 85
147 85
148 84
149 84
150 84
151 84
152 84
153 84
154 84
155 84
156 85
157 86
157 87
158 87
159 88
160 89
160 90
161 91
162 92
162 93
163 94
164 95
165 96
166 97
167 98
167 99
168 99
169 100
170 100
171 100
172 99
173 98
174 98
175 97
176 97
177 96
178 96
178 95
179 94
180 94
181 93
182 92
183 91
184 91
185 90
186 89
187 89
188 88
189 87
190 87
191 87
191 86
192 85
193 84
194 83
195 83
196 82
197 82
197 81
198 80
199 80
200 80
200 79
201 78
200 77
201 76
202 75
202 74
203 73
204 73
204 72
205 71
204 71
203 70
204 69
205 69
206 68
207 68
208 68
209 68
210 68
211 67
212 67
213 68
214 67
215 67
216 67
217 67
218 67
219 67
220 67
221 67
222 67
223 67
224 67
225 67
226 67
227 67
228 68
229 68
230 68
231 69
232 69
233 69
234 70
235 70
236 70
237 71
238 71
239 71
240 72
241 72
242 72
243 73
244 73
245 73
246 73
247 73
248 73
249 74
250 74
251 74
252 75
253 75
254 75
255 76
256 76
257 76
258 76
259 76
260 77
261 77
262 77
263 77
264 77
265 77
266 78
267 78
268 78
269 78
270 78
271 78
272 78
273 79
274 79
275 78
276 78
277 77
278 76
279 75
279 74
280 73
280 72
281 71
281 70
282 69
282 68
283 67
283 66
284 65
284 64
285 63
285 62
285 61
286 60
286 59
287 58
287 57
287 56
287 55
287 54
288 53
288 52
288 51
289 50
289 49
289 48
289 47
289 46
289 45
289 44
289 43
289 42
289 41
289 40
289 39
288 39
287 38
288 37
288 36
288 35
287 35
286 34
287 33
287 32
287 31
286 31
285 30
286 29
285 29
284 28
283 27
284 26
284 25
283 25
282 24
283 23
283 22
282 22
281 22
280 21
279 20
278 19
277 18
278 17
277 17
276 16
275 16
274 16
273 16
272 16
271 16
270 16
269 16
268 16
267 16
266 16
265 17
264 17
263 17
262 18
261 18
260 18
259 18
258 19
257 19
256 19
255 20
254 20
253 21
252 21
251 22
250 22
249 22
248 23
247 23
246 24
245 24
244 25
243 25
242 26
241 26
240 27
239 27
238 28
237 29
236 29
235 29
234 29
233 29
232 30
231 30
230 31
229 31
228 31
227 32
226 32
225 32
224 32
223 32
222 32
221 32
220 33
219 32
218 32
217 32
216 32
215 32
214 32
213 32
212 31
211 31
210 31
209 31
208 31
207 31
206 31
205 31
204 30
203 30
202 30
201 29
202 28
203 27
204 27
205 26
206 25
207 24
207 23
208 22
207 22
206 21
205 21
204 20
205 19
204 19
203 18
202 17
201 16
200 15
199 15
198 14
197 13
196 12
195 12
194 11
193 11
192 10
191 9
190 9
189 8
188 8
187 7
188 6
187 6
186 6
185 6
184 6
183 5
182 5
181 4
180 4
179 4
178 3
177 3
176 3
175 3
174 2
173 2
172 2
171 3
170 3
169 3
168 3
