189 2
188 3
187 3
186 3
185 4
184 4
183 4
182 5
181 5
180 6
179 6
178 6
177 6
176 7
175 8
174 8
173 9
172 10
171 11
170 11
169 12
168 13
167 13
166 14
165 15
164 16
163 17
162 18
161 19
160 20
159 21
158 22
157 23
156 24
155 25
154 26
153 27
152 28
151 29
150 29
150 30
149 31
148 32
147 33
146 34
145 34
144 34
143 33
142 33
141 33
140 33
139 33
138 33
137 33
136 33
135 32
134 32
133 32
132 32
131 32
130 32
129 32
128 32
127 32
126 32
125 32
124 31
123 31
122 31
121 31
120 31
119 31
118 31
117 31
116 31
115 31
114 31
113 31
112 31
111 31
110 30
109 31
108 30
107 30
106 30
105 30
104 30
103 30
102 30
101 30
100 30
99 30
98 30
97 30
96 30
95 31
94 31
93 31
92 31
91 31
90 31
89 31
88 31
87 31
86 31
85 31
84 32
83 31
82 32
81 32
80 32
79 32
78 32
77 32
76 33
75 33
74 33
73 33
72 33
71 33
70 34
69 34
68 34
67 34
66 34
65 34
64 35
63 35
62 35
61 35
60 35
59 35
58 35
57 35
56 36
55 36
54 36
53 36
52 37
51 37
50 37
49 37
48 38
47 38
46 39
45 39
44 39
43 40
42 40
41 40
40 41
39 41
38 42
37 42
36 42
35 42
34 42
33 42
32 42
31 43
30 43
29 43
28 43
27 44
26 44
25 44
24 44
23 45
22 45
21 45
20 46
19 46
18 47
17 47
16 48
15 48
14 49
13 49
12 50
11 50
10 51
9 51
8 51
7 52
6 52
5 52
4 53
3 53
3 54
3 55
2 56
2 57
2 58
2 59
2 60
2 61
3 62
4 63
5 64
6 65
7 66
8 67
9 68
10 69
11 69
12 70
13 71
14 71
15 71
16 72
17 72
18 73
19 73
20 73
21 74
22 74
23 75
24 75
25 75
26 76
27 76
28 77
29 77
30 77
31 78
32 78
33 78
34 79
35 79
36 79
37 80
38 80
39 81
40 81
41 81
42 82
43 82
44 82
45 83
46 83
47 84
48 84
49 84
50 85
51 85
52 85
53 85
54 86
55 86
56 86
57 86
58 86
59 86
60 87
61 87
62 87
63 88
64 88
65 88
66 89
67 89
68 89
69 89
70 89
71 90
72 90
73 90
74 90
75 91
76 91
77 91
78 91
79 91
80 91
81 91
82 92
83 92
84 92
85 92
86 92
87 92
88 92
89 92
90 92
91 93
92 94
92 95
92 96
92 97
92 98
92 99
92 100
92 101
92 102
92 103
92 104
92 105
92 106
92 107
93 108
94 107
95 106
96 105
97 106
98 107
99 108
99 109
99 110
100 111
101 110
102 109
102 108
103 107
103 106
104 105
104 104
104 103
105 102
105 101
106 100
106 99
106 98
106 97
106 96
106 95
107 94
108 95
108 96
109 97
109 98
110 99
110 100
111 101
112 102
112 103
113 104
113 105
114 106
114 107
115 108
115 109
116 110
116 111
116 112
117 113
117 114
118 115
118 116
119 117
120 118
120 119
121 120
121 121
122 122
123 123
123 124
123 125
124 126
125 127
125 128
126 129
127 130
127 131
128 132
127 133
127 134
128 134
129 135
129 136
130 137
131 138
131 139
132 140
132 141
133 142
133 143
133 144
134 144
135 145
135 146
136 147
136 148
137 149
138 150
138 151
139 152
139 153
140 154
140 155
141 156
141 157
142 158
143 159
144 160
144 161
145 162
145 163
146 164
147 164
147 163
148 162
148 161
148 160
148 159
149 158
148 158
147 157
148 156
148 155
147 155
146 154
147 153
147 152
147 151
146 151
145 150
146 149
146 148
145 148
144 147
145 146
145 145
145 144
144 144
143 143
142 142
143 141
143 140
142 140
141 139
142 138
141 138
140 137
141 136
140 136
139 135
140 134
140 133
139 133
138 132
139 131
138 131
137 130
138 129
138 128
137 128
136 127
137 126
137 125
136 125
135 124
136 123
136 122
136 121
136 120
136 119
137 118
137 117
137 116
138 115
139 114
139 113
140 112
140 111
141 110
140 109
141 108
141 107
142 106
142 105
142 104
141 104
140 103
139 102
140 101
139 101
138 100
137 100
136 99
135 98
134 97
133 96
132 95
133 94
132 94
131 94
130 93
129 92
130 91
131 91
132 90
133 90
134 90
135 89
136 89
137 89
138 88
139 88
140 88
141 87
142 87
143 87
144 86
145 86
146 86
147 86
148 86
149 86
150 86
151 86
152 85
153 85
154 85
155 85
156 85
157 84
158 84
159 84
160 84
161 84
162 84
163 84
164 83
165 83
166 83
167 83
168 83
169 83
170 82
171 82
172 82
173 82
174 82
175 82
176 82
177 82
178 82
179 82
180 82
181 82
182 82
183 81
184 81
185 81
186 81
187 81
188 81
189 81
190 81
191 81
192 81
193 81
194 81
195 81
196 81
197 81
198 81
199 81
200 81
201 81
202 81
203 81
204 81
205 81
206 81
207 81
208 81
209 81
210 81
211 81
212 81
213 81
214 81
215 81
216 81
217 81
218 81
219 81
220 81
221 81
222 81
223 81
224 81
225 82
226 82
227 82
228 83
229 83
230 83
231 84
232 85
233 85
234 85
235 86
236 86
237 86
238 87
239 87
240 87
241 88
242 88
243 89
244 90
245 90
246 91
247 91
248 92
249 92
250 93
251 93
252 93
253 93
254 93
255 93
256 94
257 94
258 95
259 95
260 95
261 95
262 96
263 96
264 96
265 97
266 97
267 97
268 97
269 97
270 97
271 97
272 97
273 96
274 95
275 94
276 93
276 92
277 91
277 90
278 89
279 88
280 87
281 86
281 85
282 84
282 83
283 82
283 81
283 80
284 79
284 78
284 77
284 76
285 75
285 74
285 73
285 72
285 71
285 70
285 69
285 68
286 67
286 66
286 65
285 64
285 63
286 62
286 61
286 60
286 59
286 58
286 57
286 56
285 56
284 55
285 54
285 53
285 52
285 51
285 50
284 50
283 49
283 48
282 47
282 46
283 45
282 45
281 44
281 43
280 42
279 41
278 40
279 39
279 38
278 38
277 38
276 37
275 36
276 35
275 35
274 34
273 33
272 33
271 33
270 33
269 33
268 33
267 33
266 33
265 33
264 33
263 33
262 34
261 34
260 34
259 34
258 34
257 35
256 35
255 35
254 35
253 35
252 35
251 36
250 36
249 36
248 37
247 37
246 38
245 38
244 39
243 39
242 40
241 40
240 41
239 41
238 42
237 42
236 42
235 42
234 43
233 44
232 44
231 45
230 46
229 46
228 46
227 46
226 46
225 47
224 47
223 47
222 47
221 47
220 47
219 47
218 47
217 47
216 47
215 47
214 47
213 47
212 47
211 47
210 47
209 46
208 46
207 46
206 46
205 46
204 46
203 46
202 46
201 45
200 45
199 45
198 45
197 45
196 45
195 45
194 44
193 44
192 44
191 44
190 44
189 44
188 43
187 43
186 43
185 43
184 42
183 41
184 40
185 40
186 39
187 39
188 39
189 39
190 39
191 39
192 38
193 38
194 38
195 38
196 38
197 37
198 37
199 37
200 37
201 37
202 36
203 35
203 34
202 33
203 32
203 31
202 30
203 29
203 28
204 27
203 26
203 25
202 24
203 23
203 22
203 21
203 20
202 20
201 20
200 19
201 18
201 17
202 16
202 15
202 14
201 14
200 14
199 13
198 12
199 11
199 10
199 9
198 9
197 9
196 8
196 7
195 6
196 5
196 4
195 4
194 4
193 3
192 2
191 2
190 2
