173 5
173 6
173 7
172 8
171 9
170 8
169 8
168 9
167 9
166 9
165 8
164 8
164 9
164 10
163 11
162 10
161 9
160 9
159 10
158 10
157 10
156 11
155 10
154 11
153 11
152 10
152 11
151 12
150 12
149 12
148 11
148 12
147 13
146 14
145 14
144 14
143 15
142 15
141 15
140 16
139 17
138 16
137 16
136 17
135 18
134 17
133 17
132 18
131 19
130 18
129 18
128 17
128 18
127 19
126 19
125 18
124 18
124 19
123 20
122 20
121 19
120 19
120 20
119 21
118 20
117 20
116 19
116 20
116 21
115 22
114 21
114 20
113 20
112 19
112 20
112 21
112 22
111 23
110 22
110 21
109 20
108 20
108 21
108 22
107 23
106 22
106 21
105 21
104 21
103 22
102 22
101 22
100 22
99 22
98 21
97 22
96 22
95 21
94 21
94 22
93 23
92 22
91 22
90 21
89 22
88 22
87 21
87 22
86 23
85 22
85 21
84 21
83 21
82 21
81 21
80 20
79 20
79 21
78 22
77 21
76 20
75 20
74 21
73 22
72 21
72 20
72 19
71 19
70 19
70 20
69 21
68 20
68 19
67 18
66 18
65 19
64 19
63 18
62 18
61 17
61 18
60 19
59 18
58 17
57 17
56 16
56 17
55 18
54 17
53 17
52 16
51 16
51 17
50 18
49 17
48 17
47 16
46 16
45 17
44 18
43 17
43 16
42 16
41 15
40 15
40 16
40 17
39 18
38 17
37 16
36 16
35 15
35 16
35 17
34 18
33 17
32 16
31 16
30 17
29 18
28 17
27 17
26 17
25 16
25 17
25 18
25 19
24 20
23 19
22 18
21 18
20 18
20 19
20 20
20 21
20 22
19 23
18 22
17 22
16 21
15 21
15 22
16 23
17 24
17 25
16 26
15 27
14 26
13 26
12 26
12 27
12 28
12 29
13 30
12 31
11 32
10 31
9 31
9 32
10 33
10 34
10 35
9 36
8 35
8 36
7 37
7 38
8 38
9 39
9 40
8 41
7 40
6 40
6 41
7 42
8 43
7 44
6 44
6 45
6 46
6 47
6 48
7 49
6 50
5 50
5 51
6 52
5 53
4 53
4 54
5 55
4 56
3 56
3 57
4 58
3 59
2 59
2 60
3 61
2 62
2 63
3 64
2 65
2 66
2 67
3 67
4 68
3 69
4 70
5 70
6 71
5 72
4 72
4 73
5 73
6 73
7 74
7 75
6 76
6 77
7 77
8 78
9 79
9 80
10 80
11 80
12 80
13 80
14 81
15 82
16 83
17 83
17 82
17 81
18 80
19 80
18 79
17 78
16 77
16 76
15 75
15 74
15 73
14 72
14 71
14 70
15 69
15 68
14 67
13 66
14 65
13 64
14 63
15 62
14 61
15 60
16 60
15 59
14 58
15 57
16 57
17 57
17 56
16 56
15 55
16 54
17 53
16 52
16 51
17 50
18 49
17 48
16 47
17 46
18 46
19 46
18 45
18 44
18 43
19 42
18 42
17 41
18 40
19 40
19 39
20 38
19 37
20 36
19 35
19 34
20 33
21 34
22 34
22 33
21 32
22 31
23 31
24 31
25 32
26 32
26 31
26 30
27 29
27 28
28 27
29 28
29 29
30 29
31 28
32 27
33 28
34 28
35 27
36 27
37 27
38 26
39 26
40 27
41 27
42 27
42 26
43 25
44 26
44 27
45 27
46 27
47 27
48 26
49 27
50 28
51 28
52 28
52 27
53 26
54 27
55 28
55 29
56 29
57 28
58 27
59 28
59 29
60 29
61 29
62 29
63 28
64 29
64 30
65 30
66 29
67 30
68 31
69 31
70 31
70 30
71 29
72 30
72 31
72 32
73 32
74 32
75 32
75 31
76 30
77 31
77 32
78 32
79 32
80 32
81 31
82 32
83 32
84 32
85 32
86 33
87 33
88 33
89 33
90 33
91 33
92 33
93 34
94 34
95 34
96 34
97 34
98 34
99 34
100 34
101 33
102 34
103 34
104 34
105 33
106 34
107 34
108 34
108 33
109 32
110 33
110 34
111 34
112 34
113 34
113 33
114 32
115 33
116 33
117 33
118 32
119 32
120 32
121 32
122 31
123 32
124 32
125 32
126 32
127 32
128 31
129 31
130 31
131 30
132 30
133 30
134 30
134 29
135 28
136 29
137 29
138 29
138 28
138 27
139 26
140 27
140 28
141 28
142 28
143 28
144 27
145 27
146 26
147 26
148 26
149 25
150 25
151 25
152 25
153 24
154 24
155 23
156 23
157 23
158 23
159 22
160 22
161 22
162 22
163 21
164 21
165 21
166 21
167 21
168 20
169 20
170 19
171 19
172 19
173 19
174 19
175 19
176 19
177 18
178 19
179 19
180 18
181 17
182 18
183 18
184 18
185 17
186 16
187 16
188 17
189 17
190 17
191 17
192 17
193 18
194 19
195 20
196 20
197 20
198 20
199 21
200 21
201 21
202 20
203 20
202 19
203 18
204 17
205 16
205 15
205 14
205 13
205 12
204 11
203 11
202 10
202 9
201 9
200 8
199 8
198 8
197 9
196 8
196 9
195 10
194 9
193 9
192 9
191 9
190 9
189 9
188 9
187 9
186 8
186 7
187 6
186 5
185 5
184 6
183 7
183 8
182 9
181 8
181 7
181 6
180 6
179 6
178 6
177 6
177 7
177 8
176 9
175 8
175 7
175 6
174 6
