190 2
190 3
190 4
190 5
190 6
190 7
190 8
190 9
190 10
190 11
190 12
190 13
190 14
190 15
190 16
190 17
190 18
191 19
191 20
191 21
191 22
191 23
191 24
191 25
191 26
190 27
189 27
188 27
187 26
186 26
185 25
184 24
183 24
182 23
181 23
180 22
179 22
178 21
177 21
176 20
175 19
174 19
173 19
172 18
171 18
170 17
169 17
168 16
167 16
166 16
165 15
164 15
163 15
162 15
161 16
160 16
159 16
158 16
157 17
156 18
155 18
154 19
153 19
152 19
151 20
150 20
149 21
148 22
147 22
146 23
145 23
144 24
143 24
142 25
141 26
140 26
139 27
138 28
137 28
136 29
135 30
134 30
133 31
132 32
131 32
130 33
129 34
128 34
127 35
126 36
125 36
124 37
123 38
122 39
121 40
120 41
119 41
118 42
117 43
116 44
115 45
114 46
113 47
112 48
111 48
111 49
110 50
109 51
109 52
108 53
107 52
106 52
105 52
104 52
103 52
102 52
101 51
100 51
99 51
98 51
97 51
96 50
95 50
94 50
93 50
92 50
91 50
90 50
89 49
88 50
87 50
86 50
85 51
84 51
83 52
82 52
81 53
80 54
79 54
78 55
77 56
76 56
75 57
74 58
73 59
72 60
71 61
71 62
70 63
69 64
68 65
67 66
67 67
66 68
66 69
65 70
65 71
65 72
65 73
64 74
63 74
62 74
61 74
60 74
59 74
58 74
57 74
56 74
55 74
54 74
53 74
52 74
51 74
50 74
49 73
48 73
47 73
46 72
45 72
44 72
43 71
42 71
41 71
40 70
39 70
38 70
37 70
36 70
35 69
34 69
33 68
32 68
31 68
30 68
29 68
28 67
27 67
26 67
25 67
24 66
23 66
22 66
21 66
20 66
19 65
18 65
17 65
16 65
15 65
14 65
13 65
12 65
11 65
10 64
9 64
8 64
7 65
6 65
5 64
4 65
3 65
2 65
2 66
2 67
2 68
2 69
3 70
3 71
4 72
4 73
4 74
5 75
6 76
6 77
6 78
6 79
7 80
7 81
8 82
9 83
9 84
9 85
9 86
9 87
9 88
9 89
9 90
9 91
9 92
10 93
10 94
10 95
10 96
10 97
10 98
10 99
10 100
10 101
10 102
10 103
11 104
11 105
11 106
11 107
12 108
11 109
11 110
12 111
12 112
12 113
12 114
12 115
11 116
11 117
10 118
10 119
10 120
11 121
12 121
13 120
14 120
15 120
16 120
17 120
18 120
19 120
20 120
21 119
22 119
23 119
24 119
25 118
26 118
27 118
28 117
29 117
30 116
31 116
32 115
33 115
34 114
35 114
36 114
37 113
38 112
39 111
40 110
41 110
42 109
43 108
44 107
45 107
46 106
47 105
48 105
49 104
50 103
51 103
52 102
53 101
54 100
55 99
56 99
57 98
58 97
59 97
60 96
61 95
62 95
63 94
64 94
65 94
66 94
67 95
68 95
69 96
70 96
71 97
72 97
73 97
74 98
75 98
76 99
77 99
78 100
79 100
80 101
81 102
82 102
83 103
84 103
85 103
86 103
87 103
88 103
89 103
90 103
91 103
92 103
93 103
94 102
95 102
96 102
97 101
98 101
99 101
100 100
101 100
102 100
103 99
104 99
105 99
106 99
107 98
108 98
109 98
110 97
111 97
112 97
113 96
114 96
115 96
116 95
117 95
118 96
119 96
120 96
121 97
122 97
123 98
124 98
125 98
126 99
127 99
128 99
129 100
130 100
131 100
132 101
133 101
134 102
135 102
136 103
137 103
138 103
139 103
140 104
141 104
142 104
143 105
144 105
145 105
146 106
147 106
148 106
149 107
150 107
151 107
152 108
153 108
154 108
155 108
156 108
157 109
158 109
159 109
160 110
161 110
162 110
163 110
164 110
165 110
166 110
167 110
168 111
169 111
170 111
171 112
172 112
173 112
174 112
175 112
176 112
177 112
178 113
179 113
180 113
181 112
182 113
182 114
183 114
184 114
185 114
186 114
187 114
188 113
189 113
190 113
191 113
192 113
193 113
194 113
195 113
196 113
197 113
198 113
199 114
200 114
201 113
202 112
203 112
204 111
205 112
206 111
207 111
208 110
209 110
210 110
211 110
212 110
213 109
214 109
215 109
216 110
217 109
218 109
219 108
220 107
221 107
221 106
222 105
223 106
224 105
225 104
225 103
225 102
226 101
226 100
227 99
228 100
228 101
228 102
228 103
229 103
230 102
231 101
232 100
233 99
234 99
235 98
236 98
237 99
238 99
239 98
240 98
241 98
242 97
243 97
244 96
245 96
246 95
247 95
248 95
249 94
250 95
251 94
252 93
253 93
254 92
255 92
256 92
257 91
258 91
259 92
259 93
259 94
259 95
259 96
259 97
259 98
259 99
258 100
257 101
257 102
256 103
255 104
255 105
254 106
254 107
254 108
255 107
255 106
256 105
256 104
257 103
258 102
259 101
260 100
261 99
262 99
262 98
263 97
264 96
265 96
266 97
266 98
266 99
267 100
267 101
268 102
268 103
268 104
267 105
267 106
267 107
266 108
266 109
266 110
267 109
267 108
268 107
268 106
269 105
269 104
270 103
271 102
271 101
272 100
272 99
273 98
273 97
274 96
274 95
274 94
274 93
275 92
275 91
275 90
275 89
275 88
275 87
275 86
275 85
275 84
275 83
275 82
275 81
275 80
275 79
276 78
277 78
278 77
279 77
280 76
281 76
282 75
283 75
284 74
285 74
286 73
287 72
288 71
289 71
290 70
291 70
292 69
293 69
294 68
295 68
296 67
297 67
298 66
299 66
300 66
301 65
302 65
303 64
304 64
305 63
306 63
307 63
308 62
309 62
310 61
311 61
312 60
313 59
314 59
315 58
316 57
317 56
318 56
319 55
320 54
321 53
322 52
323 51
324 50
325 49
326 48
327 48
328 47
329 46
329 45
330 44
330 43
330 42
329 42
328 42
327 41
326 42
325 42
324 41
325 40
326 39
326 38
327 37
328 36
328 35
329 34
329 33
330 32
330 31
330 30
329 30
328 29
329 28
328 28
327 28
326 27
325 27
324 27
323 26
322 26
321 26
320 26
319 25
318 25
317 25
316 25
315 24
314 24
313 24
312 24
311 24
310 23
309 23
308 23
307 23
306 23
305 23
304 23
303 23
302 23
301 23
300 22
299 22
298 22
297 22
296 22
295 22
294 22
293 22
292 22
291 22
290 22
289 21
288 21
287 21
286 21
285 21
284 21
283 21
282 21
281 21
280 21
279 21
278 21
277 21
276 21
275 21
274 21
273 21
272 21
271 21
270 21
269 21
268 21
267 21
266 21
265 21
264 21
263 21
262 21
261 21
260 21
259 21
258 21
257 22
256 22
255 22
254 22
253 22
252 22
251 22
250 22
249 22
248 22
247 22
246 22
245 22
244 22
243 22
242 22
241 23
240 23
239 23
238 22
237 22
236 22
235 22
234 22
233 22
232 21
231 21
230 20
229 19
228 19
227 18
226 18
225 17
224 16
223 16
222 16
221 15
220 14
219 14
218 13
217 12
216 12
215 12
214 11
213 10
212 10
211 9
210 9
209 8
208 8
207 7
206 7
205 6
204 6
203 5
202 5
201 5
200 5
199 4
198 4
197 3
196 3
195 3
194 2
193 2
192 2
191 2
