136 2
135 3
134 3
133 4
132 4
131 4
130 5
129 5
128 5
127 5
126 5
125 6
124 6
123 6
122 7
121 7
120 7
119 8
118 8
117 9
116 9
115 9
114 9
113 10
112 10
111 10
110 11
109 11
108 11
107 11
106 12
105 12
104 12
103 12
102 13
101 13
100 14
99 14
98 14
97 15
96 15
95 15
94 15
93 15
92 15
91 15
90 15
89 15
88 15
87 15
86 15
85 16
84 16
83 16
82 16
81 16
80 16
79 16
78 16
77 16
76 16
75 16
74 17
73 17
72 17
71 17
70 17
69 17
68 17
67 18
66 18
65 18
64 18
63 18
62 18
61 19
60 19
59 19
58 19
57 19
56 19
55 20
54 20
53 20
52 20
51 20
50 20
49 20
48 20
47 20
46 21
45 21
44 21
43 21
42 21
41 22
40 22
39 22
38 22
37 22
36 23
35 23
34 23
33 23
32 23
31 23
30 23
29 24
28 24
27 24
26 24
25 25
24 25
23 25
22 26
21 26
20 26
19 27
18 27
17 27
16 27
15 27
14 28
13 28
12 28
11 29
10 29
9 29
8 30
7 30
6 30
5 31
5 32
4 33
4 34
5 35
6 36
6 37
7 38
8 39
9 40
9 41
9 42
9 43
10 42
11 42
12 42
13 43
14 43
15 44
16 44
17 45
18 46
19 46
20 47
21 47
22 48
23 48
24 49
25 49
26 49
27 50
28 50
29 51
30 51
31 52
32 52
33 52
34 52
35 53
36 53
37 54
38 54
39 55
40 55
41 55
42 56
43 56
44 56
45 57
46 57
47 57
48 58
49 58
50 58
51 59
52 59
53 59
54 60
55 60
56 61
57 61
58 61
59 62
60 62
61 63
62 63
63 63
64 64
65 65
65 66
65 67
65 68
65 69
65 70
65 71
65 72
65 73
65 74
65 75
65 76
66 76
67 77
67 78
67 79
68 80
68 81
68 82
69 83
69 84
69 85
70 86
70 87
71 88
71 87
72 86
72 85
72 84
71 84
70 83
71 82
71 81
71 80
70 79
71 78
71 77
72 76
73 77
73 78
73 79
74 80
74 81
75 82
75 83
75 84
76 84
77 85
78 86
78 87
79 88
80 89
80 90
81 91
82 92
83 93
83 92
84 91
83 90
82 89
82 88
81 87
81 86
80 86
79 85
80 84
80 83
80 82
80 81
79 81
78 80
79 79
79 78
79 77
78 77
77 76
78 75
78 74
77 73
78 72
77 72
76 71
77 70
76 70
75 69
76 68
77 68
78 68
79 69
80 69
81 69
82 70
83 70
84 70
85 70
86 70
87 71
88 71
89 71
90 72
91 72
92 72
93 73
94 73
95 73
96 73
97 73
98 74
99 74
100 74
101 74
102 74
103 74
104 74
105 74
106 74
107 74
108 75
109 75
110 75
111 75
112 75
113 75
114 75
115 75
116 75
117 75
118 75
119 75
120 76
121 76
122 76
123 76
124 76
125 76
126 76
127 76
128 76
129 76
130 76
131 76
132 76
133 76
134 77
135 77
136 77
137 77
138 77
139 77
140 77
141 77
142 77
143 77
144 77
145 77
146 77
147 77
148 78
148 79
149 80
150 81
151 82
151 83
152 84
153 85
154 86
155 87
156 88
157 89
158 90
159 91
160 92
161 93
162 94
163 95
164 96
165 96
166 97
167 98
168 98
169 99
170 99
171 99
172 99
173 99
174 99
175 99
176 99
177 99
178 98
179 98
180 97
181 97
182 96
183 96
184 96
185 95
186 95
187 95
188 94
189 94
190 93
191 93
192 92
193 92
194 92
195 91
196 90
197 90
198 89
199 88
200 87
201 87
202 86
203 86
204 85
205 85
206 85
207 84
208 83
209 83
210 82
211 81
212 81
213 81
214 80
215 80
216 80
217 80
218 81
219 81
220 82
221 83
222 83
223 84
224 85
225 85
226 85
227 86
228 87
229 88
230 88
231 89
232 89
233 90
234 90
235 91
236 91
237 92
238 92
239 92
240 93
241 93
242 94
243 94
244 95
245 95
246 96
247 96
248 96
249 96
250 97
251 97
252 98
253 98
254 98
255 98
256 97
257 96
258 96
259 95
260 94
261 93
262 92
263 92
264 91
265 90
266 89
267 88
268 87
269 86
270 85
270 84
271 83
271 82
272 81
273 80
274 80
275 80
276 80
277 81
278 81
279 81
280 81
281 82
281 83
282 84
283 84
284 85
285 85
286 86
287 87
288 87
289 88
290 89
291 89
292 90
293 91
294 91
295 92
296 92
297 92
298 93
299 93
300 94
301 94
302 95
303 96
304 96
305 96
306 97
307 97
308 98
309 98
310 98
311 99
312 99
313 99
314 99
315 99
316 99
317 100
318 100
319 100
320 100
321 101
322 101
323 101
324 101
325 102
326 102
327 102
328 102
329 102
330 103
331 103
332 103
333 103
333 102
334 101
334 100
334 99
334 98
334 97
334 96
334 95
334 94
334 93
334 92
334 91
334 90
334 89
334 88
333 88
332 87
333 86
333 85
333 84
333 83
333 82
333 81
333 80
333 79
333 78
333 77
333 76
334 75
334 74
334 73
335 72
335 71
336 70
336 69
337 68
337 67
338 66
338 65
339 64
339 63
339 62
339 61
339 60
339 59
339 58
339 57
339 56
338 56
337 55
338 54
337 54
336 54
335 54
334 54
333 54
332 54
331 54
330 54
329 54
328 54
327 54
326 54
325 54
324 54
323 54
322 54
321 54
320 54
319 54
318 54
317 54
316 54
315 55
314 55
313 55
312 55
311 55
310 55
309 55
308 55
307 56
306 56
305 56
304 56
303 56
302 56
301 56
300 57
299 57
298 57
297 57
296 57
295 57
294 58
293 58
292 58
291 58
290 59
289 59
288 59
287 60
286 60
285 60
284 60
283 60
282 61
281 61
280 62
279 62
278 62
277 62
276 61
275 61
274 61
273 61
272 60
271 60
270 60
269 59
268 59
267 58
267 57
268 56
268 55
268 54
268 53
267 52
268 51
268 50
267 50
266 49
265 48
266 47
265 47
264 46
263 45
262 44
261 43
260 43
259 42
258 41
257 41
256 41
255 41
254 40
253 40
252 40
251 39
250 39
249 39
248 39
247 39
246 39
245 39
244 40
243 40
242 40
241 40
240 40
239 40
238 41
237 41
236 41
235 41
234 41
233 41
232 42
231 42
230 42
229 42
228 43
227 43
226 43
225 44
224 44
223 44
222 45
221 45
220 45
219 45
218 45
217 45
216 44
215 44
214 44
213 43
212 43
211 43
210 42
211 41
211 40
211 39
210 39
209 38
208 38
207 37
208 36
207 36
206 35
205 34
204 33
203 32
202 31
201 30
200 29
199 29
198 28
197 27
196 27
195 26
196 25
195 25
194 24
193 23
192 23
191 22
190 21
189 20
188 20
187 20
186 19
185 18
184 18
183 17
182 16
181 16
180 15
179 15
178 16
177 16
176 16
175 16
174 17
173 17
172 17
171 18
170 18
169 18
168 19
167 19
166 19
165 19
164 20
163 20
162 20
161 20
160 21
159 21
158 21
157 22
156 22
155 23
154 23
153 23
152 23
151 23
150 24
149 24
148 24
147 24
146 24
145 23
144 23
143 23
142 22
142 21
143 20
143 19
143 18
143 17
143 16
142 15
143 14
143 13
142 12
143 11
143 10
143 9
143 8
143 7
142 7
141 6
142 5
141 5
140 4
139 3
138 2
137 2
