3 2
3 3
3 4
4 4
5 4
6 4
7 5
8 5
9 5
10 6
9 7
8 7
7 7
6 7
5 7
4 7
3 7
2 7
2 8
2 9
3 9
4 9
5 9
6 9
7 9
8 9
9 9
10 10
11 10
12 10
13 10
14 10
15 10
16 10
17 10
18 10
19 10
20 10
21 10
22 11
23 11
24 11
25 11
26 12
27 12
28 12
29 12
30 12
31 13
31 14
30 15
29 15
28 16
27 17
27 18
27 19
27 20
27 21
27 22
27 23
27 24
27 25
28 26
28 27
29 28
30 29
30 30
31 31
32 32
33 33
34 33
35 34
36 35
37 36
38 36
39 37
39 38
40 38
41 39
42 39
43 40
44 40
45 41
46 42
47 42
48 43
49 43
49 42
49 41
48 40
47 40
46 39
45 38
45 37
44 37
43 37
42 36
41 35
40 35
39 34
38 34
37 33
36 32
35 31
34 31
33 30
32 29
33 28
32 28
31 27
31 26
30 26
29 25
30 24
30 23
30 22
29 21
29 20
30 19
31 18
32 17
33 17
34 17
35 17
36 17
37 18
36 19
36 20
36 21
36 22
36 23
36 24
37 25
37 26
38 27
39 27
40 28
40 29
41 29
42 28
43 29
43 30
43 31
43 32
43 33
44 33
45 32
46 33
46 34
47 34
47 33
48 32
48 31
49 30
50 31
50 32
51 33
52 33
53 33
54 33
55 33
56 33
57 32
58 31
59 30
59 29
60 28
59 28
58 28
57 28
56 28
55 27
56 26
56 25
57 24
58 23
59 23
60 23
60 22
61 21
62 21
63 21
64 22
65 22
66 23
67 23
68 22
68 21
69 20
70 21
70 22
70 23
71 24
71 25
72 24
73 24
73 23
74 22
74 21
74 20
75 19
76 19
77 19
78 20
77 21
76 22
76 23
76 24
76 25
77 25
78 24
79 25
79 26
80 26
80 25
81 24
82 25
83 26
84 26
85 27
86 27
87 28
87 29
87 30
88 30
89 29
90 30
90 31
90 32
91 32
91 31
92 30
92 29
91 28
92 27
93 26
94 27
95 28
96 28
97 28
98 28
99 29
99 30
99 31
98 32
98 33
98 34
99 35
99 36
99 37
99 38
99 39
99 40
100 41
100 42
100 43
100 44
100 45
100 46
101 46
102 47
103 46
103 45
104 44
105 45
105 46
105 47
106 47
106 46
107 45
107 44
107 43
107 42
107 41
107 40
107 39
107 38
107 37
107 36
107 35
107 34
106 34
105 33
106 32
106 31
105 31
104 30
105 29
104 29
103 28
104 27
104 26
103 26
102 25
103 24
102 24
101 23
102 22
101 22
100 21
99 20
98 19
99 18
99 17
98 17
97 16
96 15
97 14
96 14
95 14
94 13
93 12
92 11
91 10
92 9
91 9
90 9
89 8
88 7
87 7
86 7
85 6
84 5
83 5
82 5
81 4
80 4
79 4
78 4
77 3
76 3
75 3
74 3
73 3
72 3
71 3
70 3
69 3
68 2
67 2
66 2
65 2
64 2
63 2
62 2
61 2
60 2
59 2
58 2
57 2
56 2
55 2
54 3
53 3
52 3
51 3
50 3
49 3
48 3
47 3
46 3
45 3
44 3
43 3
42 3
41 3
40 4
39 4
38 4
37 4
37 5
36 6
35 6
35 7
34 8
33 8
32 7
31 8
30 8
29 7
28 8
27 8
26 7
25 7
24 7
23 6
22 6
21 6
20 5
19 5
18 5
17 5
16 4
15 4
14 4
13 4
12 4
11 3
10 3
9 3
8 3
7 2
6 2
5 2
4 2
