173 2
172 3
172 4
173 5
173 6
173 7
174 8
174 9
175 10
175 11
176 12
176 13
176 14
176 15
176 16
177 17
177 18
177 19
177 20
177 21
178 22
178 23
178 24
179 25
179 26
180 27
180 28
180 29
179 30
178 30
177 30
176 30
175 30
174 29
173 29
172 28
171 28
170 27
169 27
168 26
167 25
166 25
165 25
164 24
163 24
162 23
161 22
160 22
159 21
158 21
157 20
156 20
155 19
154 19
153 18
152 18
151 18
150 17
149 17
148 17
147 16
146 16
145 16
144 16
143 15
142 15
141 15
140 15
139 15
138 15
137 15
136 16
135 17
134 17
133 18
132 18
131 19
130 19
129 20
128 21
127 22
126 22
126 23
125 24
124 24
123 25
122 25
121 26
120 27
119 28
118 29
117 30
116 31
115 32
114 33
114 34
113 35
112 36
111 37
110 38
109 39
108 40
108 41
107 42
106 42
105 41
104 41
103 40
102 40
101 40
100 40
99 40
98 40
97 39
96 39
95 39
94 38
93 38
92 38
91 38
90 37
89 37
88 36
87 36
86 36
85 36
84 36
83 35
82 35
81 35
80 35
79 35
78 35
77 35
76 34
75 35
74 36
73 37
72 38
71 39
70 40
69 41
68 42
67 43
66 44
65 45
64 46
63 47
63 48
62 49
62 50
61 51
61 52
61 53
62 54
63 55
62 56
61 56
60 56
59 56
58 56
57 56
56 56
55 55
54 55
53 55
52 54
51 54
50 54
49 53
48 52
47 52
46 51
45 50
44 50
43 49
42 48
41 48
40 47
39 47
38 46
37 46
36 45
35 44
34 44
33 43
32 43
31 42
30 42
29 41
28 40
27 40
26 40
25 39
24 39
23 38
22 38
21 37
20 36
19 36
18 36
17 35
16 35
15 34
14 34
13 33
12 33
11 33
10 32
9 32
8 32
7 32
6 33
6 34
5 35
5 36
6 37
6 38
6 39
6 40
6 41
7 42
7 43
7 44
7 45
7 46
8 47
8 48
8 49
8 50
8 51
9 52
9 53
9 54
10 55
10 56
10 57
10 58
11 59
11 60
11 61
11 62
11 63
10 64
10 65
10 66
9 67
9 68
9 69
8 70
8 71
7 72
6 73
6 74
6 75
6 76
5 77
5 78
5 79
5 80
4 81
4 82
3 83
3 84
3 85
3 86
3 87
2 88
2 89
3 90
4 90
5 90
6 90
7 90
8 90
9 90
10 90
11 90
12 90
13 90
14 90
15 90
16 90
17 89
18 89
19 89
20 88
21 88
22 88
23 88
24 87
25 87
26 87
27 87
28 87
29 86
30 86
31 86
32 85
33 85
34 85
35 84
36 84
37 84
38 83
39 83
40 83
41 83
42 83
43 82
44 82
45 82
46 81
47 81
48 80
49 80
50 80
51 79
52 78
53 78
54 77
55 77
56 76
57 76
58 76
59 76
60 77
60 78
59 79
59 80
60 81
61 82
62 83
63 84
64 85
65 86
66 87
67 88
68 89
68 90
69 90
70 91
71 92
71 93
71 94
72 95
72 96
73 97
73 98
73 99
74 99
75 99
76 99
77 99
78 99
79 98
80 98
81 98
82 98
83 97
84 97
85 96
86 96
87 95
88 95
89 94
90 94
91 93
92 92
93 92
94 91
95 91
96 90
97 90
98 90
99 90
100 90
101 90
102 90
103 90
104 90
105 90
106 90
107 91
108 92
109 93
109 94
109 95
110 95
111 95
112 96
112 97
113 97
114 98
115 99
116 100
117 101
118 101
119 102
120 103
121 104
122 104
123 104
124 105
125 105
126 105
127 105
128 106
129 106
130 107
130 108
131 108
132 108
133 108
134 109
135 109
136 110
137 110
138 111
139 111
140 112
141 112
142 112
143 113
144 114
145 114
146 115
147 115
148 115
149 115
150 115
151 116
152 116
153 116
154 115
155 115
156 115
157 115
158 115
159 114
160 114
161 114
162 115
163 115
164 115
165 114
166 114
167 114
168 114
169 114
170 113
171 113
172 113
173 113
174 113
175 113
176 112
177 112
178 112
179 112
180 112
181 112
182 111
183 111
184 111
185 110
186 110
187 110
188 110
189 109
190 109
191 108
192 108
193 108
194 107
195 107
196 106
197 106
198 105
199 105
200 104
201 104
202 103
203 102
204 102
205 101
206 101
207 101
208 101
209 101
210 101
211 101
212 101
213 101
214 101
215 101
216 100
217 100
218 100
219 100
220 100
221 99
222 99
223 99
224 99
225 98
226 98
227 98
228 98
229 98
230 97
231 97
232 97
233 96
234 96
235 96
236 95
237 95
238 95
239 96
239 97
238 98
237 99
236 100
235 101
235 102
234 103
234 104
234 105
235 104
236 103
237 103
238 102
239 101
240 101
241 100
242 99
243 98
244 97
245 96
246 95
247 94
247 93
248 92
249 91
250 91
251 92
250 93
250 94
249 95
249 96
248 97
247 98
247 99
247 100
248 99
249 98
250 98
250 97
251 96
252 95
252 94
253 93
253 92
254 91
255 90
256 89
257 89
258 89
259 88
260 88
261 88
262 88
263 88
264 87
265 87
266 87
267 87
268 87
269 87
270 87
271 87
272 87
273 87
274 87
275 87
276 87
277 87
278 86
279 86
280 86
281 85
282 85
283 85
284 84
285 84
286 84
287 83
288 83
289 83
290 83
291 83
292 82
293 82
294 81
295 81
296 80
297 80
298 79
299 79
300 79
301 78
302 78
303 78
304 77
305 77
306 76
307 76
308 76
309 76
310 75
311 75
312 74
313 74
314 74
315 73
316 73
317 72
318 72
319 72
320 71
321 71
322 71
323 70
324 70
325 69
326 69
327 68
328 68
329 67
330 66
331 66
332 66
333 67
334 67
335 68
336 68
336 67
336 66
335 65
334 65
333 64
333 63
333 62
334 61
334 60
333 60
332 59
331 59
330 59
329 59
328 59
327 59
326 59
325 58
324 58
323 57
322 57
321 56
320 56
319 56
318 57
317 57
316 56
316 55
317 54
317 53
317 52
318 51
318 50
318 49
318 48
319 47
319 46
319 45
320 44
320 43
320 42
321 41
321 40
322 39
321 39
320 38
319 38
318 37
317 37
316 37
315 37
314 37
313 37
312 36
311 36
310 36
309 36
308 36
307 36
306 36
305 35
304 35
303 35
302 35
301 35
300 35
299 34
298 34
297 34
296 34
295 34
294 34
293 34
292 33
291 33
290 33
289 33
288 33
287 33
286 33
285 33
284 33
283 33
282 33
281 32
280 32
279 32
278 32
277 32
276 32
275 32
274 32
273 32
272 32
271 32
270 32
269 31
268 31
267 31
266 31
265 31
264 31
263 31
262 30
261 30
260 30
259 30
258 30
257 30
256 30
255 29
254 29
253 29
252 29
251 29
250 29
249 29
248 29
247 29
246 29
245 29
244 29
243 29
242 29
241 29
240 28
239 28
238 28
237 28
236 28
235 28
234 28
233 28
232 28
231 28
230 28
229 28
228 27
227 27
226 27
225 27
224 27
223 27
222 27
221 27
220 27
219 27
218 26
217 26
216 25
215 25
214 25
213 24
212 23
211 22
210 21
209 20
208 19
207 19
206 18
205 18
204 17
203 16
202 16
201 15
200 14
199 14
198 14
197 13
196 12
195 12
194 11
193 11
192 11
191 10
190 9
189 9
188 8
187 8
186 7
185 7
184 6
183 6
182 5
181 5
180 4
179 4
178 3
177 3
176 3
175 2
174 2
