137 1
136 2
135 2
134 3
133 4
132 4
131 5
130 6
130 7
129 8
128 9
127 10
126 11
125 12
125 13
124 14
124 15
123 16
122 17
121 18
121 19
120 20
119 20
118 19
117 19
116 19
115 19
114 19
113 19
112 19
111 19
110 19
109 18
110 17
109 17
108 16
109 15
108 15
107 14
108 13
108 12
109 11
109 10
110 9
111 8
111 7
112 6
112 5
111 5
110 6
109 7
108 8
107 9
106 10
105 11
104 12
103 13
103 14
102 15
101 16
101 17
100 18
99 18
98 19
97 19
96 19
95 19
94 19
93 19
92 19
91 20
90 20
89 20
88 20
87 20
86 20
85 20
84 20
83 20
82 20
81 21
80 21
79 21
78 21
77 21
76 21
75 22
74 22
73 22
72 22
71 22
70 23
69 23
68 23
67 23
66 23
65 24
64 24
63 24
62 24
61 25
60 25
59 25
58 25
57 26
56 26
55 26
54 27
53 27
52 27
51 28
50 28
49 28
48 28
47 29
46 29
45 29
44 30
43 30
42 30
41 30
40 31
39 31
38 31
37 31
36 32
35 32
34 32
33 32
32 32
31 32
30 32
29 32
28 32
27 33
26 33
25 33
24 34
23 34
22 35
21 36
20 37
19 38
18 38
17 39
16 39
15 40
14 40
13 40
12 40
11 41
10 42
9 42
8 43
7 44
6 45
5 45
5 46
4 47
3 48
2 49
2 50
2 51
3 52
4 53
5 54
6 55
7 56
8 57
9 58
10 59
11 59
12 60
13 61
14 61
15 62
16 62
17 62
18 62
19 63
20 64
21 64
22 65
23 65
24 65
25 66
26 66
27 67
28 68
29 68
30 69
31 69
32 69
33 69
34 70
35 70
36 71
37 71
38 71
39 72
40 72
41 72
42 73
43 73
44 73
45 74
46 74
47 74
48 74
49 75
50 75
51 75
52 75
53 76
54 76
55 76
56 76
57 76
58 76
59 76
60 76
61 76
62 77
63 77
64 77
65 78
66 78
67 78
68 78
69 79
70 79
71 80
72 80
73 80
74 81
75 81
76 81
77 81
78 82
79 82
80 82
81 82
82 82
83 83
84 83
85 83
86 83
87 84
88 84
89 84
90 84
91 84
92 84
93 84
94 85
95 85
96 85
97 85
98 86
99 87
100 88
100 89
101 90
101 91
102 91
103 92
104 93
104 94
105 95
105 96
106 97
106 98
107 98
108 98
108 97
109 96
108 96
107 95
108 94
108 93
107 93
106 92
107 91
108 91
109 91
110 92
111 92
112 93
113 94
114 95
115 95
116 96
117 97
118 97
119 98
120 98
121 98
122 98
122 97
122 96
121 96
120 95
119 94
120 93
119 93
118 92
117 91
116 91
115 90
116 89
115 89
114 88
115 87
116 87
117 87
118 87
119 87
120 88
121 88
122 88
123 88
124 88
125 89
126 89
127 89
128 89
129 89
130 89
131 89
132 90
133 90
134 90
135 90
136 91
137 91
138 91
139 91
140 91
141 91
142 91
143 91
144 91
145 91
146 91
147 91
148 92
149 92
150 92
151 92
152 92
153 92
154 92
155 92
156 92
157 92
158 92
159 92
160 92
161 91
162 91
163 92
164 91
165 91
166 91
167 91
168 91
169 91
170 91
171 91
172 91
173 91
174 91
175 91
176 91
177 90
178 90
179 91
180 92
180 93
181 94
181 95
182 96
183 97
183 98
184 98
185 99
186 100
187 100
187 99
188 98
187 98
186 97
187 96
186 96
185 95
186 94
187 93
188 94
189 95
190 96
191 97
192 98
193 98
194 99
195 99
196 100
197 101
198 102
199 102
200 103
201 103
202 104
203 104
204 103
205 102
206 102
207 102
208 101
209 101
210 100
211 100
212 99
213 98
214 98
215 98
216 97
217 96
218 95
219 94
220 94
220 93
221 92
222 91
223 91
224 90
225 89
226 88
227 87
227 86
228 85
229 84
230 83
230 82
231 81
232 81
232 80
233 79
234 78
234 77
235 76
235 75
236 74
236 73
235 73
234 72
233 72
232 71
231 70
230 69
229 69
228 68
229 67
230 67
231 67
232 66
233 66
234 66
235 65
236 65
237 65
238 65
239 65
240 65
241 64
242 64
243 65
244 65
245 65
246 65
247 65
248 65
249 66
250 66
251 66
252 67
253 68
254 68
255 69
256 69
257 69
258 70
259 71
260 72
261 73
262 74
263 75
264 75
265 76
266 76
267 76
268 77
269 77
270 78
271 78
272 79
273 79
274 80
275 80
276 81
277 81
278 81
279 81
280 82
281 82
282 82
283 82
284 82
285 82
286 81
287 81
288 80
288 79
289 78
289 77
290 76
289 76
288 75
289 74
289 73
289 72
289 71
289 70
289 69
289 68
289 67
289 66
288 66
287 65
288 64
288 63
287 63
286 62
287 61
287 60
286 60
285 59
286 58
286 57
285 57
284 56
285 55
285 54
285 53
286 52
286 51
286 50
287 49
287 48
287 47
288 46
288 45
289 44
289 43
289 42
290 41
290 40
291 39
291 38
291 37
290 36
290 35
289 34
290 33
289 33
288 32
289 31
288 31
287 30
286 30
285 29
284 29
283 29
282 28
281 28
280 29
279 29
278 29
277 29
276 30
275 30
274 30
273 31
272 32
271 32
270 32
269 33
268 33
267 33
266 34
265 34
264 35
263 36
262 36
261 37
260 38
259 38
258 39
257 39
256 40
255 40
254 41
253 41
252 42
251 43
250 43
249 44
248 45
247 46
246 46
245 47
244 47
243 47
242 47
241 47
240 47
239 47
238 47
237 47
236 47
235 47
234 47
233 46
232 46
231 46
230 46
229 45
228 44
229 43
230 43
231 42
232 42
233 41
234 41
235 41
236 40
237 40
237 39
238 38
237 38
236 38
235 37
236 36
235 36
234 35
233 35
232 34
233 33
232 33
231 33
230 33
229 33
228 32
227 31
226 31
225 30
224 29
223 28
222 28
221 27
220 26
219 26
218 25
217 24
216 24
215 23
214 23
213 22
212 21
211 20
210 20
209 19
208 19
207 18
206 18
205 18
204 18
203 17
202 17
201 16
200 15
199 15
198 15
197 14
196 13
195 13
194 13
193 12
192 12
191 11
190 11
189 10
188 10
187 10
186 11
185 11
184 11
183 11
182 12
181 12
180 13
179 14
178 14
177 15
176 16
175 17
174 17
173 18
172 18
171 19
170 20
169 21
168 22
167 23
166 23
165 24
164 25
163 26
162 26
161 25
162 24
161 24
160 23
161 22
161 21
160 21
159 20
160 19
160 18
160 17
160 16
161 15
161 14
161 13
162 12
162 11
161 11
160 11
160 12
159 13
158 14
158 15
157 16
156 17
155 18
155 19
154 20
154 21
153 22
153 23
152 24
151 24
150 23
149 23
148 23
147 23
146 23
145 23
144 22
143 22
142 22
141 22
140 22
139 22
138 22
137 21
136 21
135 21
134 21
133 20
132 19
131 18
132 17
132 16
132 15
132 14
132 13
132 12
132 11
133 10
133 9
134 8
134 7
134 6
135 5
136 4
137 3
137 2
138 1
