146 2
145 3
144 4
143 3
142 4
141 4
140 4
139 5
138 4
137 4
136 5
135 6
134 5
133 6
132 7
131 6
130 7
129 8
128 7
127 8
126 7
125 8
124 9
123 8
122 9
121 9
120 8
119 9
118 9
117 8
118 7
118 6
119 5
119 4
118 4
117 4
117 5
116 6
116 7
116 8
115 9
114 10
113 11
112 11
111 11
110 11
109 12
108 12
107 12
106 13
105 12
104 12
103 13
102 13
101 13
100 13
99 13
98 13
97 13
96 13
95 13
94 13
93 13
92 13
91 14
90 13
89 12
88 11
87 10
86 10
85 9
84 9
83 8
82 7
81 7
80 7
79 6
78 6
77 6
76 5
75 5
74 5
73 4
72 4
71 4
70 4
69 4
68 4
67 4
66 3
65 3
64 3
63 3
62 3
61 3
60 3
59 3
58 3
57 3
56 3
55 3
54 3
53 3
52 3
51 3
50 3
49 3
48 3
47 4
46 4
45 4
44 5
43 5
42 5
41 6
40 6
39 6
38 7
37 7
36 7
35 8
34 8
33 9
32 9
31 10
30 11
29 12
28 12
27 13
26 13
25 14
24 14
23 15
22 16
21 16
20 17
19 18
18 19
17 20
16 21
15 22
14 23
13 23
13 24
12 25
11 26
11 27
10 28
10 29
9 30
8 31
8 32
8 33
7 34
6 35
6 36
6 37
5 38
5 39
5 40
5 41
4 42
4 43
5 44
4 45
4 46
3 47
3 48
3 49
3 50
3 51
3 52
3 53
3 54
3 55
4 56
4 57
3 58
2 59
2 60
2 61
3 62
4 61
5 60
6 61
6 62
7 63
7 64
7 65
8 66
8 67
8 68
9 69
9 70
9 71
10 72
11 73
12 74
13 74
14 74
15 75
16 76
17 76
18 77
19 78
20 78
21 79
22 79
23 80
24 80
25 81
26 80
27 81
27 82
27 83
27 84
27 85
27 86
27 87
27 88
27 89
28 90
28 91
28 92
28 93
29 93
30 92
30 91
31 90
31 89
31 88
32 87
33 88
34 89
34 90
35 91
35 92
35 93
36 92
37 92
37 91
38 90
38 89
38 88
37 87
37 86
36 85
37 84
36 83
36 82
37 81
38 81
39 80
40 81
41 81
42 81
43 81
44 81
45 81
46 80
47 80
48 80
49 80
50 80
51 80
52 81
52 82
52 83
52 84
52 85
52 86
52 87
52 88
52 89
52 90
51 91
51 92
51 93
51 94
52 95
51 96
51 97
50 98
50 99
49 100
49 101
50 101
51 101
51 100
52 99
53 98
54 99
54 100
54 101
54 102
55 102
56 102
56 101
57 100
57 99
57 98
58 97
58 96
59 95
59 94
58 93
58 92
59 91
59 90
59 89
59 88
59 87
59 86
59 85
58 84
59 83
59 82
59 81
58 81
57 80
58 79
57 79
56 78
57 77
57 76
58 75
59 74
59 73
58 72
59 71
59 70
60 69
59 69
58 69
57 68
56 68
55 67
54 67
53 66
52 66
51 66
50 65
51 64
52 64
53 63
53 62
52 61
51 60
52 59
53 59
53 58
54 57
54 56
53 56
52 56
51 55
50 55
49 54
50 53
50 52
49 52
48 52
47 52
46 52
45 51
44 51
43 50
42 51
41 51
40 51
39 50
39 49
40 48
40 47
40 46
40 45
41 44
42 43
43 42
43 41
44 40
44 39
44 38
44 37
44 36
45 35
46 35
47 36
48 37
48 38
47 39
47 40
48 40
49 41
49 42
50 43
51 44
51 45
52 45
53 46
54 47
54 48
55 48
56 49
56 50
57 51
57 52
58 53
58 54
58 55
58 56
57 57
57 58
56 59
56 60
56 61
57 62
58 61
58 60
59 59
59 58
60 57
61 58
61 59
61 60
62 61
63 61
63 60
64 59
64 58
65 57
66 56
67 55
68 54
69 54
70 53
70 52
71 51
71 50
71 49
71 48
72 47
72 46
73 45
74 45
75 45
75 44
76 43
76 42
77 41
78 40
79 39
80 38
80 37
81 36
82 36
82 35
83 34
83 33
84 32
84 31
84 30
83 29
82 28
81 27
80 26
81 25
82 24
83 25
84 26
85 26
86 26
86 25
87 24
88 24
89 25
89 26
89 27
89 28
89 29
89 30
89 31
89 32
88 33
88 34
88 35
88 36
88 37
88 38
88 39
87 40
87 41
87 42
87 43
87 44
86 45
85 46
84 47
84 48
83 49
83 50
82 51
81 52
81 53
80 54
79 54
78 55
78 56
77 57
77 58
76 59
75 59
74 60
73 61
73 62
72 63
71 64
71 65
71 66
72 66
73 65
74 64
75 63
76 63
77 62
77 61
78 60
79 59
80 59
81 58
82 57
83 56
84 55
84 54
85 53
86 52
87 52
87 51
88 50
88 49
89 48
89 47
90 46
90 45
90 44
91 43
91 42
91 41
91 40
91 39
92 38
92 37
92 36
92 35
92 34
93 33
93 32
93 31
93 30
93 29
93 28
94 27
95 28
95 29
96 30
97 31
97 32
97 33
98 34
98 35
99 36
99 37
100 38
101 39
101 40
101 41
102 42
102 43
102 44
103 45
103 46
103 47
103 48
103 49
103 50
103 51
102 52
101 53
101 54
101 55
101 56
100 57
100 58
99 59
98 60
98 61
97 62
96 63
96 64
96 65
96 66
97 66
97 65
98 64
99 63
100 62
101 61
101 60
102 59
102 58
103 57
103 56
103 55
104 54
104 53
105 52
105 51
105 50
106 49
106 48
106 47
106 46
106 45
107 44
107 43
106 43
105 42
106 41
106 40
106 39
106 38
105 37
105 36
104 35
105 34
105 33
105 32
104 32
103 32
102 31
103 30
102 30
101 29
102 28
102 27
101 27
100 27
99 26
98 25
99 24
98 24
97 23
96 22
95 22
94 21
95 20
96 20
97 20
98 20
99 20
100 20
101 20
102 20
103 20
104 21
105 22
106 21
107 20
108 20
109 20
110 19
111 19
112 19
113 19
114 19
115 19
116 19
117 19
118 18
119 18
120 19
121 18
122 18
123 19
123 18
124 17
125 18
126 18
127 17
128 17
129 17
130 17
131 16
132 16
133 16
134 16
135 16
136 16
137 16
138 16
139 16
140 16
141 16
142 16
143 16
144 16
145 16
146 15
147 15
148 16
149 15
150 15
151 15
152 15
153 15
154 15
155 15
156 15
157 15
158 15
159 15
160 15
161 15
162 15
163 15
164 15
165 15
166 15
166 14
167 13
167 12
166 12
165 12
164 13
163 12
162 12
161 12
160 13
159 12
158 12
157 12
156 11
155 12
154 12
153 11
152 11
151 12
150 11
149 11
148 12
147 11
146 12
145 12
144 11
143 12
142 12
141 12
140 12
139 12
138 12
137 12
136 13
135 13
134 13
133 13
132 13
131 13
130 14
129 14
128 14
127 14
126 14
125 14
124 13
125 12
126 12
127 12
128 12
129 12
130 11
131 11
132 11
133 10
134 10
135 9
136 9
137 9
138 8
139 8
140 8
141 7
142 7
143 7
144 7
145 7
146 7
147 6
148 6
149 6
150 6
151 5
152 6
153 5
154 5
155 5
156 5
157 5
158 5
159 4
160 5
161 5
162 4
163 4
163 3
163 2
162 2
161 2
160 2
159 2
158 2
157 2
156 3
155 2
154 2
153 3
152 3
151 3
150 3
149 2
148 3
147 2
