17 4
17 5
16 6
15 5
15 6
14 7
13 6
12 6
12 7
11 8
10 9
9 8
9 9
8 10
7 11
6 12
6 13
5 14
5 15
4 16
3 17
3 18
3 19
2 20
2 21
2 22
2 23
2 24
2 25
2 26
3 27
3 28
4 29
5 29
6 30
6 31
7 31
8 32
9 32
10 32
11 32
12 33
13 33
14 33
15 34
16 34
17 34
18 35
19 35
20 35
21 35
22 36
23 36
24 36
25 36
26 37
27 37
28 37
29 37
30 37
31 37
32 37
33 37
34 37
35 37
36 37
37 37
38 37
39 37
40 37
41 37
42 37
43 37
44 37
45 38
46 39
46 40
46 41
47 42
47 43
47 44
48 45
48 46
47 47
46 48
46 49
46 50
46 51
46 52
46 53
46 54
47 55
47 56
48 57
49 58
50 58
51 58
52 59
53 59
54 59
55 59
56 59
57 60
58 61
58 62
59 63
59 64
60 65
60 66
61 66
62 67
62 68
63 69
64 70
64 71
64 72
63 73
63 74
63 75
62 76
62 77
62 78
62 79
62 80
61 81
61 82
61 83
61 84
60 85
60 86
60 87
60 88
60 89
60 90
60 91
60 92
60 93
61 94
61 95
61 96
62 97
62 98
62 99
62 100
62 101
63 102
63 103
63 104
63 105
63 106
63 107
63 108
64 109
64 110
64 111
64 112
65 113
65 114
66 115
67 116
67 117
67 118
66 119
65 120
65 121
64 122
64 123
64 124
64 125
64 126
64 127
64 128
63 129
63 130
63 131
63 132
63 133
63 134
63 135
63 136
63 137
63 138
63 139
63 140
64 141
64 142
64 143
64 144
64 145
64 146
64 147
65 148
65 149
65 150
65 151
65 152
66 153
66 154
66 155
66 156
67 157
67 158
67 159
68 160
68 161
69 162
69 163
69 164
70 165
71 166
71 167
72 168
72 169
73 170
74 171
75 172
76 173
76 174
77 175
78 176
79 177
80 178
81 178
82 179
83 180
84 181
85 182
86 183
87 184
88 184
89 185
90 185
91 185
92 186
93 187
94 187
95 188
96 188
97 189
98 189
99 189
100 190
101 190
102 191
103 191
104 191
105 191
106 192
107 192
108 192
109 192
110 193
111 193
112 194
113 194
114 195
115 195
116 196
117 196
118 197
119 197
120 197
121 198
122 198
123 198
124 198
125 198
126 198
127 199
128 199
129 199
130 199
131 199
132 199
133 198
134 198
135 198
136 198
137 198
138 197
139 197
140 197
141 197
142 197
143 197
144 197
145 197
146 198
147 198
148 198
149 198
150 197
151 197
152 197
153 197
154 196
155 196
156 196
157 195
158 195
159 195
160 194
161 194
162 193
163 193
164 192
165 192
166 192
167 191
168 190
169 190
170 189
171 188
172 187
173 187
174 186
175 185
176 185
177 185
178 184
179 183
180 182
181 181
182 180
183 180
184 179
185 178
186 178
187 177
188 176
189 175
190 174
191 173
192 172
193 171
194 170
195 169
195 168
196 167
197 166
197 165
198 164
199 164
199 163
200 162
200 161
201 160
201 159
202 158
202 157
203 156
203 155
203 154
204 153
204 152
204 151
205 150
206 149
206 148
206 147
207 146
208 145
209 144
210 144
210 143
211 142
211 141
211 140
211 139
211 138
211 137
212 136
212 135
212 134
211 133
211 132
211 131
211 130
211 129
211 128
211 127
211 126
211 125
211 124
211 123
210 122
210 121
210 120
210 119
210 118
210 117
209 116
209 115
209 114
209 113
209 112
209 111
208 110
208 109
208 108
207 107
207 106
207 105
207 104
207 103
206 102
206 101
206 100
206 99
206 98
205 97
205 96
205 95
204 94
204 93
204 92
203 91
203 90
202 89
202 88
201 87
201 86
200 85
200 84
199 83
199 82
198 81
197 80
196 79
195 78
194 77
193 76
192 75
191 74
190 73
189 72
188 72
187 71
186 70
185 69
184 68
183 68
182 67
181 66
180 65
179 65
178 64
177 64
176 63
175 63
174 62
173 62
172 61
171 61
170 60
169 60
168 59
167 59
166 59
165 58
164 58
163 58
162 57
161 57
160 57
159 57
158 57
157 57
156 57
155 57
154 56
153 56
152 56
151 56
150 56
149 56
148 56
147 56
146 56
145 56
144 56
143 56
142 56
141 56
140 56
139 56
139 57
138 58
137 57
136 57
135 56
134 55
133 54
132 53
131 52
130 52
129 51
128 51
127 50
126 50
125 50
124 50
123 50
122 50
121 49
120 49
119 49
118 49
117 49
116 49
115 48
114 48
113 48
112 48
111 47
110 47
109 47
108 47
107 46
106 46
105 46
104 46
103 46
102 46
101 46
100 46
99 46
99 47
98 48
97 47
96 47
95 47
94 47
93 47
92 47
91 46
90 46
89 45
88 45
87 45
86 45
85 46
84 46
83 45
82 44
81 44
80 43
79 43
78 42
77 42
76 41
75 40
74 39
73 38
72 37
71 37
70 36
69 36
68 36
67 35
66 34
65 33
64 32
63 32
62 31
61 31
60 31
59 30
58 29
57 29
56 28
56 27
55 26
54 26
53 25
52 24
51 23
50 23
49 22
49 21
48 20
48 19
48 18
48 17
48 16
47 15
46 14
46 13
45 12
44 11
43 10
42 9
41 9
40 8
39 8
38 7
37 7
36 6
35 6
34 5
33 5
32 5
31 5
30 5
29 5
28 5
27 4
26 4
25 4
24 4
23 4
22 4
21 4
20 4
19 4
18 4
