194 2
193 3
192 3
191 3
190 3
189 3
188 3
187 3
186 3
185 3
184 3
183 3
182 3
181 3
180 3
179 3
178 3
177 3
176 3
175 3
174 3
173 3
172 4
171 4
170 4
169 4
168 4
167 4
166 4
165 4
164 4
163 4
162 4
161 4
160 4
159 4
158 4
157 5
156 5
155 5
154 5
153 5
152 6
151 6
150 6
149 6
148 6
147 7
146 7
145 7
144 7
143 7
142 7
141 7
140 7
139 8
138 8
137 8
136 8
135 8
134 8
133 8
132 9
131 9
130 9
129 9
128 9
127 9
126 9
125 9
124 10
123 10
122 10
121 10
120 10
119 10
118 10
117 11
116 11
115 11
114 11
113 11
112 11
111 11
110 11
109 12
108 12
107 12
106 12
105 12
104 12
103 11
104 10
103 10
102 10
101 10
100 11
99 11
98 11
97 11
96 11
95 11
94 11
93 11
92 11
91 11
90 11
89 12
88 12
87 12
86 12
85 11
85 10
86 9
85 9
84 8
83 7
82 8
81 9
80 9
79 9
78 9
77 9
76 9
75 9
74 9
73 10
72 10
71 9
70 9
69 9
68 9
67 9
66 9
65 9
64 9
63 9
62 8
61 8
60 8
59 8
58 8
57 9
56 9
55 9
54 9
53 10
52 10
51 9
50 9
49 9
48 9
47 9
46 9
45 8
44 8
43 8
42 8
41 8
40 8
39 8
38 8
37 8
36 9
35 9
34 9
33 9
32 9
31 10
30 10
29 10
28 11
27 11
26 11
25 12
24 12
23 13
22 14
21 15
20 16
20 17
19 18
18 19
17 20
16 21
15 22
15 23
14 24
13 25
12 26
12 27
11 28
10 29
10 30
9 31
9 32
8 33
7 33
7 34
6 35
6 36
6 37
5 38
5 39
5 40
4 41
4 42
4 43
3 44
3 45
3 46
3 47
3 48
2 49
2 50
2 51
2 52
2 53
2 54
2 55
2 56
2 57
2 58
2 59
2 60
2 61
3 61
4 61
5 60
6 59
7 59
8 58
9 57
10 57
11 57
12 56
13 55
13 54
13 53
13 52
12 51
13 50
12 50
11 49
12 48
11 48
10 47
11 46
11 45
11 44
11 43
12 42
13 41
14 41
15 40
16 39
17 38
18 37
19 37
20 36
21 36
22 36
23 36
24 36
25 36
26 36
27 36
28 37
29 37
30 37
31 37
32 37
33 37
34 38
35 38
35 37
36 36
37 36
38 37
39 37
40 38
40 37
41 36
42 36
43 36
44 37
44 38
45 38
46 39
47 40
48 41
48 42
49 42
49 41
50 40
49 39
49 38
48 38
47 37
46 36
47 35
48 35
49 36
50 36
51 37
51 38
52 39
53 40
53 41
53 42
53 43
54 43
54 42
55 41
55 40
55 39
54 38
54 37
55 36
56 37
57 38
57 39
58 40
58 39
59 38
60 37
61 38
61 39
61 40
62 40
62 39
63 38
62 37
62 36
61 35
61 34
62 33
63 33
64 34
65 34
66 35
67 36
68 36
69 37
70 38
70 39
70 40
69 41
68 42
68 43
67 44
66 45
65 46
64 46
63 47
63 48
64 48
65 48
66 47
67 46
68 45
68 44
69 43
70 42
71 41
72 42
72 43
73 44
73 45
73 46
73 47
72 48
71 49
70 50
69 51
68 52
67 52
66 52
65 53
64 53
63 53
63 54
63 55
64 55
65 54
66 54
67 53
68 53
69 53
70 52
71 51
72 50
73 51
73 52
73 53
72 54
71 55
70 56
69 56
69 57
69 58
70 57
71 57
72 56
72 55
73 54
73 53
74 52
74 51
75 50
75 49
76 48
76 47
77 46
77 45
78 44
79 43
79 42
80 41
80 40
80 39
81 38
82 39
83 40
84 41
84 42
84 43
84 44
84 45
84 46
83 47
82 48
81 49
80 50
80 51
79 52
78 53
77 54
77 55
78 55
79 54
80 53
80 52
81 51
82 50
82 49
83 48
84 48
85 47
85 46
86 45
86 44
87 43
88 44
88 45
88 46
87 47
87 48
86 49
86 50
86 51
85 52
84 53
83 54
83 55
84 55
85 54
86 53
86 52
87 51
87 50
88 49
88 48
88 47
89 46
89 45
89 44
90 43
91 44
91 45
91 46
91 47
90 48
90 49
90 50
91 49
91 48
92 47
92 46
93 45
94 45
95 46
95 47
96 48
97 49
97 50
98 51
98 50
99 49
99 48
99 47
100 46
101 45
102 46
102 47
103 48
104 48
104 47
104 46
104 45
103 44
102 43
101 42
100 42
99 41
98 40
99 39
100 38
101 38
102 39
102 40
103 40
104 41
105 42
106 43
107 44
108 44
109 45
109 44
110 43
109 42
108 42
107 41
106 40
105 39
104 38
103 37
102 36
101 36
100 35
101 34
102 33
103 34
104 35
105 36
106 37
107 38
108 38
109 39
110 40
110 39
111 38
110 37
109 37
108 36
107 35
106 34
105 33
104 33
103 33
102 32
102 31
101 30
100 30
99 30
98 29
97 29
96 29
95 28
96 27
95 27
94 27
93 27
92 27
91 26
90 26
89 25
88 26
87 25
86 25
85 24
86 23
87 22
88 21
89 21
90 21
91 21
92 21
93 21
94 21
95 21
96 21
97 21
98 21
99 21
100 21
101 21
102 21
103 21
104 21
105 21
106 21
107 21
108 21
109 21
110 21
111 21
112 21
113 21
114 21
115 21
116 21
117 21
118 21
119 21
120 21
121 21
122 21
123 21
124 21
125 21
126 21
127 21
128 21
129 21
130 20
131 21
132 21
133 21
134 21
135 21
136 21
137 21
138 20
139 21
140 21
141 21
142 21
143 21
144 21
145 21
146 21
147 20
148 21
149 21
150 21
151 20
151 19
150 18
150 17
150 16
149 16
148 16
147 16
146 16
145 16
144 16
143 16
142 16
141 16
140 16
139 16
138 16
137 16
136 15
137 14
138 14
139 14
140 14
141 14
142 13
143 13
144 13
145 13
146 13
147 13
148 13
149 13
150 13
151 13
151 12
151 11
150 11
149 11
148 11
147 11
146 11
145 10
146 9
147 9
148 9
149 9
150 8
151 8
152 8
153 7
154 7
155 7
156 7
157 7
158 6
159 6
160 6
161 6
162 6
163 6
164 6
165 6
166 5
167 5
168 5
169 5
170 5
171 5
172 5
173 5
174 4
175 4
176 4
177 4
178 4
179 4
180 4
181 4
182 4
183 4
184 4
185 4
186 4
187 4
188 4
189 4
190 4
191 4
192 4
193 4
194 4
195 4
196 3
196 2
195 2
