243 2
242 3
241 3
240 4
239 5
238 6
237 7
236 8
235 9
235 10
234 11
234 12
233 13
232 14
232 15
232 16
231 17
231 18
231 19
231 20
230 21
230 22
230 23
230 24
230 25
230 26
231 27
231 28
231 29
232 30
233 31
234 31
235 32
235 33
236 33
237 34
238 34
239 35
240 35
241 36
242 36
243 37
244 37
245 38
246 38
247 38
248 39
249 39
250 39
251 40
252 40
253 40
254 40
255 41
256 41
257 41
258 41
259 42
260 42
261 42
262 42
263 42
264 42
265 42
266 42
267 42
268 43
269 43
270 43
271 43
272 44
273 44
274 44
275 45
276 45
277 46
278 46
279 47
279 48
279 49
280 50
280 51
279 52
279 53
280 54
280 55
281 56
281 57
281 58
282 59
282 60
283 61
283 62
284 63
284 64
285 65
285 66
286 67
286 68
286 69
285 70
284 70
283 70
282 70
281 69
280 69
279 69
278 69
277 69
276 69
275 69
274 68
273 68
272 68
271 68
270 68
269 67
268 68
267 68
266 67
265 67
264 67
263 67
262 67
261 66
260 66
259 66
258 66
257 66
256 65
255 65
254 65
253 65
252 64
251 64
250 63
249 63
248 62
247 62
246 62
245 62
244 61
243 61
242 61
241 61
240 60
239 60
238 60
237 60
236 60
235 59
234 59
233 59
232 59
231 58
230 58
229 57
228 57
227 56
226 56
225 56
224 55
223 55
222 54
221 54
220 54
219 53
218 53
217 53
216 53
215 53
214 53
213 52
212 52
211 51
210 51
209 51
208 50
207 50
206 49
205 49
204 49
203 48
202 48
201 48
200 47
199 47
198 46
197 46
196 46
195 46
194 46
193 46
192 45
191 45
190 45
189 44
188 44
187 43
186 44
185 43
184 43
183 43
182 43
181 43
180 43
179 43
178 43
177 43
176 43
175 43
174 43
173 43
172 44
171 44
170 44
169 44
168 45
167 45
166 45
165 45
164 46
163 46
162 46
161 46
160 47
159 47
158 48
157 48
156 49
155 49
154 50
153 50
152 51
151 52
150 52
149 53
148 53
147 53
146 54
145 55
144 55
143 54
144 53
143 53
142 52
141 51
142 50
142 49
142 48
141 48
140 47
141 46
140 46
139 45
140 44
140 43
139 43
138 42
139 41
138 41
137 40
138 39
138 38
137 38
136 37
137 36
137 35
136 35
135 34
136 33
135 33
134 32
133 31
134 30
133 30
132 29
131 28
130 27
129 27
128 27
127 27
127 28
126 29
125 30
124 31
123 31
123 32
122 33
121 34
120 35
120 36
119 37
118 38
118 39
117 40
116 41
115 42
115 43
114 44
113 45
112 46
111 47
111 48
110 49
109 50
108 51
108 52
107 53
106 53
105 53
104 53
103 53
102 53
101 53
100 53
99 53
98 53
97 53
96 53
95 53
94 53
93 53
92 53
91 53
90 53
89 53
88 53
87 53
86 53
85 53
84 52
83 52
82 52
81 52
80 52
79 52
78 52
77 52
76 52
75 52
74 52
73 52
72 52
71 52
70 52
69 52
68 52
67 52
66 52
65 52
64 52
63 52
62 52
61 52
60 52
59 52
58 52
57 52
56 52
55 52
54 52
53 51
52 51
51 51
50 51
49 51
48 51
47 51
46 51
45 51
44 51
43 51
42 51
41 51
40 51
39 51
38 51
37 51
36 51
35 51
34 51
33 51
32 51
31 51
30 51
29 52
28 52
27 52
26 52
25 52
24 52
23 52
22 52
21 52
20 53
19 53
18 53
17 53
16 53
15 53
14 53
13 53
12 53
11 53
10 53
9 53
8 54
7 54
6 55
5 55
4 56
4 57
4 58
4 59
4 60
3 61
2 62
2 63
2 64
3 65
3 66
3 67
3 68
3 69
3 70
3 71
4 72
5 73
5 72
6 71
5 70
5 69
6 68
7 69
8 70
9 71
10 71
11 72
12 73
13 73
14 74
15 75
16 75
17 75
18 76
19 77
20 77
21 78
22 79
23 79
24 80
25 80
26 81
27 81
28 82
29 82
30 82
31 82
32 83
33 83
34 84
35 84
36 84
37 85
38 86
39 86
40 87
41 87
42 88
43 88
44 88
45 89
46 89
47 89
48 89
49 89
50 89
51 90
52 90
53 90
54 90
55 91
56 91
57 91
58 91
59 92
60 92
61 92
62 93
63 93
64 93
65 93
66 93
67 94
68 94
69 95
70 95
71 95
72 95
73 96
74 97
74 98
75 99
76 100
76 101
77 102
77 103
77 104
78 105
79 106
79 107
80 108
80 107
81 106
81 105
81 104
82 103
83 104
84 105
84 106
85 107
85 108
86 109
87 109
87 108
88 107
89 106
90 106
91 106
92 107
93 106
94 107
95 107
96 107
97 107
98 108
99 109
100 110
101 111
102 111
103 111
103 110
103 109
102 109
101 108
100 107
99 106
98 105
97 104
96 104
95 103
96 102
97 101
98 101
99 101
100 101
101 101
102 102
103 102
104 102
105 102
106 102
107 103
108 103
109 103
110 103
111 103
112 103
113 103
114 103
115 104
116 104
117 104
118 104
119 104
120 104
121 104
122 104
123 104
124 104
125 104
126 104
127 104
128 104
129 104
130 104
131 104
132 104
133 104
134 104
135 104
136 104
137 104
138 104
139 104
140 104
141 104
142 104
143 104
144 104
145 104
146 104
147 104
148 103
149 103
150 103
151 102
152 102
153 102
154 101
155 101
156 101
157 100
158 100
159 100
160 100
161 101
162 102
163 103
164 104
165 105
166 106
167 107
168 107
169 108
170 108
171 108
172 109
173 109
174 109
175 110
176 110
177 110
178 110
179 111
180 110
181 111
182 111
183 111
184 111
185 111
186 111
187 111
188 111
189 111
190 111
191 111
192 111
193 111
194 111
195 111
196 111
197 111
198 111
199 111
200 111
201 111
202 111
203 111
204 111
205 111
206 111
207 111
208 111
209 111
210 111
211 111
212 111
213 111
214 111
215 111
216 111
217 111
218 111
219 111
220 111
221 111
222 111
223 111
224 111
225 111
226 112
227 112
228 112
229 112
230 112
231 112
232 112
233 112
234 112
235 112
236 112
237 112
238 112
239 112
240 112
241 112
242 112
243 113
244 112
245 113
246 113
247 113
248 113
249 113
250 113
251 113
252 113
253 112
254 113
255 113
256 113
257 113
258 113
259 113
260 113
261 113
262 113
263 112
264 112
265 112
266 112
267 112
268 112
269 111
270 112
271 111
272 111
273 111
274 111
275 111
276 111
277 111
278 111
279 110
280 110
281 110
282 109
283 109
284 108
285 108
286 107
287 107
288 106
289 105
290 104
291 104
292 104
293 103
294 102
295 101
296 101
297 100
298 99
299 98
300 97
301 96
302 95
303 94
304 93
305 92
305 91
306 90
307 89
308 88
308 87
309 86
309 85
310 84
310 83
310 82
311 81
311 80
311 79
312 78
312 77
313 76
313 75
313 74
314 73
314 72
314 71
314 70
314 69
314 68
314 67
314 66
314 65
314 64
315 63
315 62
316 61
316 60
316 59
316 58
316 57
317 56
317 55
316 54
316 53
317 52
317 51
317 50
317 49
317 48
317 47
317 46
317 45
317 44
316 43
316 42
315 41
316 40
316 39
316 38
316 37
316 36
315 36
314 35
315 34
315 33
314 33
313 32
314 31
313 31
312 31
311 30
310 29
309 28
308 28
307 28
306 27
305 28
304 28
303 28
302 28
301 28
300 29
299 30
298 31
297 32
296 33
296 34
295 35
295 36
294 37
294 38
293 39
292 40
291 40
290 39
289 38
288 37
287 37
286 36
287 35
286 35
285 34
284 33
283 32
282 31
281 31
280 30
281 29
280 29
279 28
280 27
279 27
278 27
277 26
278 25
277 25
276 24
275 23
274 22
273 21
272 20
273 19
272 19
271 18
272 17
271 17
270 17
269 16
268 15
267 14
268 13
267 13
266 12
265 11
264 10
263 9
262 8
261 7
260 6
259 5
258 5
257 4
256 3
255 3
254 2
253 2
252 2
251 2
250 2
249 2
248 2
247 2
246 2
245 2
244 2
