186 2
185 3
184 3
183 3
182 3
181 3
180 4
179 3
178 3
177 4
176 4
175 3
174 4
173 4
172 4
171 4
170 4
169 4
168 4
167 4
166 4
165 4
164 4
163 5
162 5
161 5
160 6
159 6
158 6
157 6
156 6
155 6
154 6
153 6
152 5
151 5
150 6
149 6
148 6
147 6
146 6
145 6
144 6
143 7
142 7
141 8
140 8
139 8
138 8
137 8
136 9
135 9
134 9
133 9
132 9
131 10
130 10
129 10
128 10
127 11
126 12
125 11
124 11
123 12
122 11
121 11
120 11
119 11
118 10
117 10
116 10
115 9
114 9
113 10
112 10
111 9
110 9
109 10
108 9
107 9
106 9
105 9
104 9
103 9
102 9
101 9
100 9
99 9
98 9
97 9
96 10
95 10
94 10
93 10
92 10
91 9
90 10
89 10
88 10
87 10
86 10
85 10
84 10
83 10
82 10
81 11
80 11
79 11
78 11
77 11
76 11
75 11
74 12
73 13
72 13
71 13
70 13
69 13
68 13
67 13
66 14
65 14
64 15
63 15
62 15
61 16
60 16
59 16
58 16
57 16
56 16
55 17
54 18
53 18
52 19
51 20
50 21
49 21
48 21
47 22
46 23
45 24
44 25
43 25
43 26
43 27
43 28
43 29
43 30
43 31
44 32
45 33
44 34
43 34
42 34
41 33
40 33
39 33
38 32
37 32
36 32
35 32
34 32
33 31
32 31
31 31
30 31
29 31
28 31
27 31
26 31
25 31
24 31
23 31
22 31
21 31
20 31
19 32
18 32
17 32
16 33
15 33
14 34
13 35
12 35
11 36
10 36
9 36
9 37
8 38
8 39
7 40
6 40
6 41
5 42
5 43
4 44
3 45
3 46
3 47
3 48
3 49
3 50
3 51
3 52
3 53
3 54
3 55
3 56
4 57
4 58
4 59
5 60
5 61
6 62
6 63
6 64
5 65
5 66
6 66
7 65
8 65
9 66
10 67
11 67
12 67
13 68
14 69
15 69
16 69
17 69
18 70
19 70
20 70
21 70
22 70
23 70
24 70
25 70
26 70
27 70
28 70
29 70
30 70
31 70
32 70
33 70
34 70
35 70
36 69
37 69
38 69
39 69
40 68
41 68
42 68
43 68
44 67
45 67
46 68
45 69
44 70
44 71
43 72
43 73
43 74
43 75
43 76
44 77
44 78
45 79
46 79
47 80
48 80
49 81
50 81
51 82
52 82
53 82
54 82
55 82
56 82
57 82
58 82
59 82
60 82
61 82
62 82
63 82
64 82
65 82
66 82
67 83
68 83
69 83
70 83
71 82
72 83
73 82
74 82
75 83
76 82
77 82
78 83
79 83
80 82
81 83
82 82
83 83
84 83
85 83
86 83
87 83
88 83
89 83
90 83
91 83
92 83
93 83
94 84
95 84
96 84
97 84
98 84
99 85
100 85
101 85
102 85
103 85
104 85
105 85
106 85
107 85
108 85
109 85
110 85
111 85
112 85
113 86
114 85
115 85
116 85
117 86
118 86
119 86
120 86
121 86
122 86
123 86
124 86
125 86
126 86
127 87
128 86
129 87
130 87
131 87
132 87
133 86
134 86
135 87
136 87
137 86
138 87
139 87
140 86
141 87
142 87
143 87
144 87
145 87
146 87
147 87
148 87
149 87
150 87
151 87
152 87
153 87
154 87
155 86
156 87
157 87
158 86
159 86
160 86
161 86
162 86
163 86
164 85
165 85
166 85
167 85
168 84
169 84
170 83
171 82
172 82
173 81
174 80
175 79
176 79
177 78
178 77
179 76
180 76
181 75
182 75
183 76
184 76
185 77
186 77
187 77
188 77
189 77
190 77
191 77
192 77
193 77
194 77
195 77
196 77
197 77
198 77
199 76
200 76
201 76
202 76
203 76
204 76
205 76
206 76
207 75
208 75
209 75
210 75
211 75
212 75
213 75
214 75
215 74
216 74
217 74
218 74
219 74
220 74
221 74
222 74
223 73
224 73
225 73
226 72
227 72
228 72
229 72
230 71
231 71
232 71
233 71
234 71
235 72
235 73
235 74
235 75
235 76
235 77
235 78
234 79
233 80
232 81
231 82
230 83
229 84
228 85
228 86
227 87
226 88
226 89
225 90
225 91
225 92
226 92
226 91
227 90
228 89
229 88
230 87
231 86
232 85
233 84
234 83
235 82
236 81
237 81
238 80
239 81
239 82
240 81
240 80
241 79
242 78
243 77
243 76
244 75
245 74
246 74
246 73
247 72
248 71
249 71
250 71
250 70
251 69
251 68
252 67
253 67
254 66
255 65
256 64
257 64
258 63
259 63
260 62
261 61
262 61
263 60
264 60
265 60
266 59
267 59
268 58
269 57
270 57
271 57
272 56
273 55
274 55
275 54
276 54
277 53
278 53
279 53
280 52
281 52
282 51
283 51
284 51
285 50
286 50
287 49
288 50
288 51
288 52
289 53
289 52
290 51
290 50
289 50
288 49
289 48
290 48
291 47
292 47
293 46
294 46
295 45
296 45
297 45
298 44
299 44
300 43
301 43
302 43
303 43
304 42
305 43
306 42
307 41
308 41
309 40
310 40
311 39
312 39
313 38
314 38
315 37
316 36
317 35
318 34
319 35
320 36
320 37
321 38
322 39
322 40
322 41
323 42
324 43
324 44
325 45
326 45
326 44
326 43
326 42
325 41
324 40
324 39
323 38
323 37
323 36
322 36
321 35
322 34
322 33
321 33
320 32
321 31
321 30
320 30
319 29
319 28
320 27
321 27
322 27
322 26
323 25
323 24
323 23
323 22
322 22
321 21
322 20
321 20
320 19
321 18
322 17
323 17
324 16
325 16
326 15
327 15
328 14
329 13
330 13
331 12
332 11
332 10
331 10
330 11
329 12
328 12
327 13
326 13
325 14
324 14
323 15
322 15
321 16
320 16
319 15
320 14
321 13
322 13
323 12
324 11
325 10
325 9
324 9
323 10
322 11
321 11
320 12
319 13
318 13
317 13
316 14
315 15
314 16
313 16
312 16
311 16
310 16
309 16
308 16
307 15
306 15
305 15
304 15
303 14
302 14
301 14
300 14
299 14
298 14
297 14
296 14
295 14
294 14
293 14
292 14
291 14
290 14
289 14
288 14
287 14
286 14
285 14
284 14
283 14
282 14
281 14
280 13
279 14
278 14
277 13
276 14
275 14
274 14
273 14
272 14
271 14
270 14
269 14
268 14
267 14
266 14
265 14
264 14
263 14
262 14
261 14
260 14
259 14
258 14
257 14
256 14
255 13
254 12
255 11
255 10
254 10
253 9
254 8
253 7
253 6
252 5
251 5
251 6
251 7
252 8
252 9
252 10
251 11
250 11
249 12
248 12
247 12
246 12
245 12
244 12
243 12
242 12
241 12
240 12
239 12
238 12
237 13
236 12
235 12
234 13
233 13
232 13
231 13
230 12
229 13
228 13
227 13
226 13
225 13
225 14
224 15
223 15
222 14
221 14
220 13
219 12
218 12
217 11
216 10
215 9
214 9
213 8
212 8
211 7
210 7
209 6
208 6
207 5
206 5
205 4
204 4
203 4
202 4
201 4
200 3
199 4
198 3
197 3
196 3
195 3
194 3
193 3
192 2
191 2
190 2
189 2
188 2
187 3
