88 2
87 3
86 3
85 4
84 5
83 6
82 7
81 7
80 8
79 9
78 9
77 10
76 11
75 12
74 13
73 14
73 15
72 16
71 17
71 18
70 19
69 20
69 21
68 22
68 23
67 24
66 24
65 24
64 24
63 24
62 24
61 24
60 24
59 24
58 25
57 25
56 25
55 25
54 25
53 25
52 25
51 26
50 26
49 26
48 26
47 26
46 27
45 27
44 27
43 27
42 27
41 28
40 28
39 28
38 28
37 28
36 28
35 29
34 29
33 29
32 29
31 29
30 29
29 30
28 30
27 30
26 30
25 30
24 31
23 31
22 31
21 31
20 31
19 31
18 32
17 32
16 33
15 33
14 34
13 35
12 35
11 36
10 37
9 38
8 39
7 38
6 38
5 38
5 39
6 40
5 41
4 41
3 41
2 41
2 42
3 43
4 42
5 43
6 43
7 44
7 45
7 46
6 47
6 48
6 49
6 50
7 49
7 48
8 47
9 46
10 46
11 46
12 47
11 48
11 49
11 50
12 51
11 52
10 53
9 53
9 54
9 55
10 54
11 53
12 53
13 53
14 52
15 52
16 52
17 52
18 52
19 53
20 53
21 53
22 53
23 53
24 53
25 53
26 53
27 54
28 54
29 54
30 55
31 55
32 55
33 55
34 56
35 56
36 56
37 56
38 56
39 57
40 57
41 57
42 58
43 58
44 58
45 58
46 58
47 58
48 58
49 59
50 59
51 59
52 59
53 59
54 59
55 59
56 60
57 60
58 60
59 60
60 60
61 60
62 60
63 60
64 60
65 60
66 60
67 61
68 62
68 63
68 64
69 65
69 66
70 67
70 68
71 69
71 70
72 71
72 72
73 73
74 73
74 72
75 71
74 71
73 70
74 69
74 68
75 67
76 67
77 68
78 69
79 70
80 70
80 69
80 68
79 67
79 66
80 65
80 64
80 63
81 62
82 62
83 62
84 62
85 62
86 62
87 62
88 62
89 62
90 62
91 62
92 62
93 62
94 62
95 62
96 62
97 62
98 62
99 62
100 61
101 61
102 61
103 61
104 61
105 61
106 61
107 61
108 61
109 60
110 60
111 60
112 60
113 60
114 60
115 60
116 60
117 60
118 60
119 60
120 60
121 60
122 60
123 60
124 59
125 59
126 59
127 59
128 59
129 59
130 59
131 58
132 58
133 58
134 59
135 60
136 60
137 60
138 61
139 61
140 62
141 62
142 62
143 62
144 62
145 63
146 63
147 63
148 63
149 63
150 63
151 64
152 63
153 63
154 63
155 64
156 63
157 63
158 63
159 63
160 62
161 62
162 62
163 62
164 62
165 61
166 61
167 61
168 61
169 60
170 60
171 60
172 60
173 60
174 60
175 60
176 60
177 60
178 60
179 60
180 60
181 60
182 60
183 60
184 59
185 59
186 59
187 59
188 59
189 59
190 59
191 59
192 60
193 59
194 60
195 59
196 59
197 59
198 60
199 60
200 60
201 60
202 60
203 60
204 59
205 59
206 59
207 59
208 59
209 59
210 59
211 58
212 58
213 58
214 57
215 58
216 57
217 57
218 57
219 57
220 57
221 57
222 57
223 56
224 56
225 56
226 56
227 56
228 57
229 57
230 57
231 57
232 57
233 57
234 57
235 58
236 58
237 58
238 58
239 58
240 58
241 58
242 59
243 59
244 59
245 59
246 59
247 60
248 60
249 60
250 60
251 60
252 61
253 61
254 62
255 62
256 62
257 63
258 63
259 63
260 64
261 64
262 64
263 64
264 64
265 63
265 62
266 61
266 60
267 59
268 60
269 61
270 62
271 63
272 64
272 65
273 66
274 67
275 67
276 68
277 69
278 70
279 70
280 71
281 72
282 72
283 72
284 73
285 73
286 73
287 73
288 73
289 73
290 73
291 73
292 73
293 73
294 73
295 73
296 72
297 72
298 72
299 71
300 71
301 70
302 69
302 68
303 67
303 66
304 65
304 64
304 63
304 62
304 61
303 61
302 60
303 59
303 58
302 58
301 57
302 56
302 55
302 54
301 54
300 53
299 52
298 51
297 50
296 49
295 48
294 48
293 47
292 47
291 47
290 46
289 46
288 46
287 45
286 45
285 45
284 45
283 44
282 44
281 44
280 44
279 43
278 43
277 43
276 43
275 43
274 43
273 43
272 42
273 41
274 41
275 41
276 41
277 41
278 41
279 41
280 40
281 40
282 39
283 38
283 37
284 36
284 35
284 34
283 34
282 33
283 32
282 32
281 32
280 31
279 31
278 30
277 29
276 28
275 28
274 28
273 28
272 27
271 27
270 26
269 26
268 26
267 25
266 25
265 24
264 24
263 24
262 24
261 24
260 24
259 23
258 23
257 22
256 23
255 22
254 22
253 22
252 21
251 21
250 21
249 20
248 20
247 20
246 19
245 19
244 19
243 19
242 19
241 18
240 18
239 18
238 18
237 18
236 17
235 17
234 17
233 17
232 17
231 16
230 16
229 16
228 16
227 16
226 16
225 16
224 16
223 16
222 16
221 16
220 16
219 16
218 16
217 16
216 16
215 16
214 16
213 16
212 16
211 16
210 16
209 16
208 16
207 16
206 16
205 15
204 15
203 15
202 15
201 15
200 15
199 15
198 14
197 14
196 14
195 13
194 13
193 13
192 13
191 13
190 12
189 12
188 12
187 12
186 12
185 12
184 12
183 11
182 11
181 12
180 11
179 11
178 12
177 11
176 12
175 12
174 11
173 12
172 12
171 12
170 12
169 12
168 12
167 12
166 12
165 12
164 12
163 12
162 12
161 12
160 12
159 13
158 13
157 12
156 12
155 12
154 13
153 13
152 13
151 13
150 12
149 12
148 12
147 12
146 12
145 12
144 12
143 13
142 13
141 12
140 12
139 13
138 13
137 13
136 13
135 13
134 13
133 13
132 13
131 13
130 13
129 12
128 12
127 12
126 11
125 11
124 11
123 11
122 10
121 10
120 10
119 9
118 9
117 9
116 9
115 9
114 9
113 9
112 9
111 9
110 9
109 10
108 11
107 12
106 13
105 14
104 15
103 15
102 16
101 17
100 18
99 19
98 19
97 20
96 20
95 19
94 19
93 18
92 19
91 18
90 18
89 19
88 19
87 19
86 19
85 19
84 19
83 19
82 19
81 19
80 18
79 19
78 19
77 19
76 19
75 19
74 19
73 18
74 17
74 16
75 15
76 14
77 13
78 12
79 11
80 10
81 9
82 9
83 8
84 8
84 7
85 6
86 6
87 5
88 4
89 4
90 3
90 2
89 2
