176 3
176 4
176 5
177 6
178 7
179 8
180 9
180 10
181 11
181 12
182 13
182 14
182 15
182 16
182 17
182 18
182 19
182 20
182 21
182 22
182 23
182 24
181 25
181 26
181 27
180 28
179 29
178 29
177 29
176 29
175 29
174 30
173 30
172 30
171 30
170 30
169 30
168 30
167 30
166 30
165 31
164 31
163 31
162 31
161 31
160 31
159 32
158 32
157 32
156 32
155 32
154 33
153 33
152 33
151 33
150 32
151 31
150 31
149 30
150 29
149 29
148 28
149 27
148 27
147 26
146 25
145 24
144 23
145 22
144 22
143 21
142 20
141 19
140 18
139 17
138 16
137 15
136 14
136 13
135 13
134 13
134 14
135 15
135 16
136 17
137 18
138 19
138 20
139 21
140 22
141 23
141 24
142 25
142 26
142 27
142 28
143 28
144 29
144 30
144 31
143 32
142 31
141 30
140 29
139 28
140 27
139 27
138 27
137 26
136 25
135 24
134 24
133 23
134 22
133 22
132 22
131 21
130 20
129 19
128 18
127 18
126 17
125 16
124 16
123 16
122 16
121 17
120 17
119 17
118 18
117 19
116 20
115 21
114 22
113 22
112 23
111 24
110 24
109 25
108 25
107 26
106 27
105 27
104 28
103 28
102 29
101 30
100 31
99 31
98 32
97 32
96 33
95 34
94 35
93 35
92 36
91 36
90 37
89 38
88 38
87 39
86 40
85 41
84 41
83 42
82 42
81 43
80 44
79 45
78 45
77 46
76 47
75 48
74 48
74 49
74 50
74 51
74 52
73 53
72 53
71 53
70 53
69 53
68 53
67 54
66 54
65 54
64 54
63 54
62 54
61 54
60 54
59 54
58 54
57 54
56 54
55 54
54 54
53 54
52 54
51 53
50 53
49 53
48 53
47 52
46 52
45 51
44 51
43 50
42 49
41 49
40 49
39 48
38 47
37 47
36 46
35 45
34 45
33 44
32 44
31 43
30 42
29 42
28 42
27 41
26 41
25 40
26 39
25 39
24 40
23 40
22 39
21 38
20 38
19 38
18 37
17 37
16 37
15 37
14 37
13 36
12 36
11 36
10 36
9 36
8 36
7 36
6 36
5 36
5 37
5 38
4 39
4 40
3 41
3 42
3 43
3 44
3 45
3 46
3 47
3 48
3 49
3 50
3 51
3 52
3 53
3 54
3 55
3 56
3 57
3 58
3 59
3 60
3 61
3 62
3 63
3 64
3 65
3 66
3 67
3 68
2 69
2 70
3 71
2 72
2 73
2 74
2 75
3 76
3 77
3 78
3 79
4 79
5 80
5 81
5 82
6 82
7 83
8 83
9 83
10 83
11 82
12 82
13 82
14 82
15 82
16 82
17 82
18 81
19 81
20 80
21 80
22 80
23 79
24 79
25 78
26 78
27 78
28 78
29 77
30 77
31 76
32 76
33 75
34 75
35 74
36 74
37 73
38 73
39 72
40 72
41 71
42 71
43 70
44 70
45 70
46 69
47 68
48 68
49 68
50 68
51 68
52 68
53 68
54 68
55 68
56 68
57 68
58 68
59 68
60 68
61 68
62 68
63 68
64 68
65 69
66 69
67 69
68 69
69 69
70 69
71 70
72 70
73 70
74 71
75 71
76 72
76 73
75 74
74 75
74 76
75 76
76 77
76 78
77 78
78 79
79 80
80 81
81 82
82 82
83 83
84 84
85 84
86 85
87 85
88 86
89 87
90 88
91 89
92 90
93 90
94 91
95 92
96 93
97 93
98 94
99 95
100 96
101 96
102 97
103 97
104 98
105 98
106 99
107 100
107 101
108 100
109 101
110 102
111 103
112 103
113 104
114 105
115 105
116 106
117 107
118 107
119 107
120 107
121 107
122 107
123 107
124 107
125 107
126 107
127 107
128 106
129 106
130 105
131 105
132 105
133 104
134 103
135 103
136 102
137 102
138 101
139 100
140 100
141 100
142 99
143 98
144 98
145 97
146 96
147 96
148 97
147 98
147 99
146 100
145 100
144 101
143 102
142 103
141 104
140 105
139 106
139 107
140 107
141 107
142 106
143 106
144 105
145 104
146 104
147 103
148 102
149 102
150 101
151 100
152 100
153 99
154 98
155 97
156 96
157 96
158 96
159 96
160 97
161 97
162 97
163 98
164 98
165 98
166 98
167 99
168 99
169 99
170 99
171 99
172 99
173 99
174 100
175 100
176 100
177 100
178 101
179 101
180 101
181 101
182 101
183 101
184 101
185 101
186 101
187 101
188 101
189 102
190 102
191 102
192 102
193 102
194 103
193 104
192 105
191 105
190 106
189 107
188 107
187 108
186 108
185 109
184 110
183 110
182 111
181 111
180 112
179 113
178 113
177 114
177 115
178 115
179 115
180 114
181 114
182 114
183 114
184 113
185 113
186 112
187 112
188 112
189 111
190 111
191 110
192 110
193 109
194 109
195 108
196 108
197 109
196 110
195 111
194 112
193 113
192 114
191 115
191 116
190 117
189 118
189 119
189 120
190 120
191 119
192 118
193 117
194 116
195 115
196 114
197 114
198 113
199 112
200 111
201 110
202 109
203 108
204 107
205 107
206 106
207 105
208 104
209 103
210 102
211 102
212 102
213 102
214 102
215 102
216 102
217 102
218 102
219 102
220 102
221 101
222 101
223 101
224 101
225 101
226 101
227 101
228 101
229 100
230 100
231 100
232 100
233 100
234 100
235 100
236 100
237 99
238 99
239 99
240 98
241 98
242 98
243 98
244 97
245 96
246 96
247 96
248 96
249 96
250 95
251 95
252 95
253 95
254 95
255 95
256 94
257 94
258 94
259 94
260 94
261 93
262 93
263 93
264 93
265 92
266 92
267 92
268 92
269 92
270 92
271 91
272 91
273 91
274 91
275 91
276 91
277 91
278 91
279 90
280 90
281 90
282 90
283 90
284 91
285 90
286 89
287 89
288 89
289 89
290 88
291 89
292 88
293 89
294 89
294 88
295 87
296 87
297 87
298 87
299 86
300 87
301 88
302 87
303 88
303 87
304 86
305 85
306 85
307 86
307 87
308 86
309 85
310 84
311 85
311 86
312 85
313 84
314 85
314 84
315 83
316 82
317 82
318 81
319 80
320 79
321 78
322 79
323 78
324 79
324 80
325 79
325 78
326 77
327 77
327 76
328 75
328 74
328 73
328 72
329 71
330 70
331 69
331 68
332 67
332 66
333 65
332 65
331 64
330 64
329 64
328 63
328 62
329 61
329 60
330 59
329 59
328 58
327 57
326 56
325 56
324 56
323 56
322 56
321 56
320 55
319 55
318 55
317 54
316 54
315 54
314 53
313 53
312 53
311 53
310 53
309 52
308 52
307 51
306 50
305 49
304 49
303 48
302 48
301 47
300 46
299 45
298 45
297 44
296 44
295 44
294 43
293 43
292 43
291 43
290 43
289 43
288 42
287 42
286 42
285 42
284 42
283 41
282 41
281 41
280 40
279 40
278 40
277 39
276 39
275 39
274 39
273 38
272 38
271 38
270 38
269 38
268 38
267 38
266 37
265 37
264 37
263 36
262 36
261 36
260 36
259 36
258 36
257 35
256 35
255 35
254 35
253 35
252 35
251 35
250 34
249 34
248 34
247 34
246 34
245 33
244 33
243 33
242 33
241 32
240 32
239 32
238 32
237 32
236 31
235 31
234 31
233 31
232 30
231 30
230 30
229 29
230 28
230 27
229 27
228 26
229 25
229 24
229 23
229 22
229 21
229 20
228 20
227 19
228 18
228 17
228 16
228 15
227 15
226 14
227 13
227 12
226 12
225 11
226 10
225 10
224 9
225 8
224 8
223 7
223 6
222 5
222 4
221 3
220 3
220 4
220 5
221 6
221 7
222 8
222 9
222 10
222 11
222 12
223 13
223 14
223 15
223 16
223 17
223 18
223 19
223 20
223 21
223 22
222 23
222 24
221 25
220 26
219 27
218 27
217 28
216 28
215 28
214 29
213 28
212 28
211 28
210 28
209 28
208 28
207 28
206 28
205 28
204 28
203 28
202 28
201 28
200 28
199 28
198 28
197 28
196 28
195 28
194 28
193 28
192 28
191 28
190 27
191 26
191 25
190 25
189 24
190 23
189 23
188 22
189 21
188 21
187 20
188 19
188 18
187 17
187 16
186 15
187 14
186 14
185 13
184 12
185 11
184 11
183 10
182 9
181 8
182 7
181 7
180 6
179 5
178 4
177 3
