7 4
7 5
6 6
5 5
5 6
4 7
4 8
4 9
3 10
2 11
2 12
2 13
2 14
2 15
2 16
3 17
3 18
4 19
5 20
6 20
7 21
8 21
9 22
10 22
11 22
12 22
13 22
14 23
15 23
16 23
17 23
18 24
19 24
20 24
21 24
22 25
23 25
24 25
25 25
26 25
27 25
28 26
28 27
27 28
27 29
27 30
27 31
28 32
28 33
28 34
29 35
30 36
31 37
32 37
33 38
34 38
35 39
36 39
37 40
38 40
39 40
40 41
41 42
41 43
42 44
43 45
44 46
45 47
46 48
46 49
47 50
48 50
49 51
50 52
50 53
49 54
48 55
48 56
48 57
48 58
49 58
50 59
51 60
51 61
51 62
51 63
51 64
52 65
52 66
52 67
52 68
53 69
53 70
54 71
54 72
54 73
54 74
55 75
55 76
56 77
56 78
57 79
57 80
57 81
58 82
58 83
59 84
60 85
60 86
61 87
62 88
63 88
64 88
65 88
66 88
67 87
68 87
68 86
69 85
70 84
71 85
71 86
70 87
70 88
70 89
70 90
70 91
70 92
70 93
71 94
71 95
71 96
71 97
71 98
71 99
72 100
72 101
72 102
73 103
74 104
74 105
74 106
75 107
76 108
77 109
77 110
77 111
78 112
79 113
79 114
80 115
81 116
82 117
83 118
84 119
85 120
86 120
87 121
88 121
89 121
90 122
91 122
92 122
93 122
94 122
95 122
96 123
97 123
98 123
99 123
100 123
101 123
102 123
103 123
104 123
105 123
106 124
107 124
108 124
109 124
110 124
111 124
112 124
113 124
114 124
115 124
116 124
117 123
118 123
119 122
120 122
121 122
122 122
123 122
124 122
125 121
126 121
127 121
128 120
129 120
130 119
131 119
132 118
133 118
134 118
135 117
136 117
137 117
138 116
139 115
140 115
141 114
142 113
143 113
144 112
145 112
146 111
147 111
147 110
148 109
149 108
150 107
151 106
151 105
152 104
152 103
153 102
153 101
153 100
153 99
154 98
154 97
154 96
154 95
154 94
154 93
154 92
154 91
154 90
154 89
154 88
154 87
154 86
154 85
154 84
154 83
154 82
154 81
154 80
154 79
153 78
153 77
153 76
153 75
152 74
152 73
152 72
152 71
152 70
151 69
151 68
150 67
150 66
150 65
150 64
149 63
149 62
149 61
149 60
148 59
148 58
147 57
147 56
146 55
145 54
144 53
144 52
143 51
143 50
142 49
141 48
140 47
140 46
139 45
138 44
137 44
136 43
135 43
134 42
133 42
132 42
131 41
130 41
129 40
128 40
127 40
126 40
125 40
124 40
123 39
122 39
121 39
120 39
119 39
118 39
117 39
116 39
115 39
114 39
113 39
112 39
111 39
110 39
109 39
108 39
107 39
106 39
105 39
104 39
103 39
102 39
101 39
101 40
100 41
99 40
99 41
98 42
97 43
96 42
96 41
96 40
96 39
96 38
96 37
95 36
94 36
93 35
92 35
91 35
90 34
89 34
88 34
87 34
86 34
85 34
84 34
83 34
82 34
81 34
80 34
79 34
78 34
77 34
76 34
75 34
74 34
74 35
73 36
72 35
71 35
70 35
69 35
68 35
68 36
67 37
66 36
65 36
64 36
63 35
62 35
61 35
61 36
60 37
59 38
58 37
57 37
56 36
55 36
54 35
53 35
52 35
51 34
50 34
49 33
48 32
47 31
46 30
45 30
44 29
43 29
42 28
42 27
41 26
40 26
39 25
38 24
37 24
36 23
35 22
35 21
34 20
33 19
32 18
32 17
31 16
30 15
29 14
29 13
28 12
27 11
26 11
25 10
24 9
23 8
22 7
21 7
20 6
19 6
18 5
17 5
16 5
15 4
14 4
13 4
12 4
11 4
10 4
9 4
8 4
