31 1
31 2
31 3
30 4
29 5
28 5
27 5
26 6
25 6
24 6
23 6
22 6
21 7
20 7
19 8
18 9
17 10
17 11
17 12
17 13
17 14
18 15
19 16
18 17
17 18
16 19
16 20
15 21
14 22
13 23
12 23
11 24
10 24
9 25
8 26
7 27
6 27
6 28
5 29
4 30
4 31
4 32
3 33
3 34
2 35
2 36
2 37
3 36
3 35
4 34
5 33
5 32
6 31
7 30
8 29
9 28
10 27
11 27
12 26
13 25
14 25
15 24
16 24
17 24
18 24
19 25
20 26
21 27
22 28
23 28
24 29
25 30
26 31
27 32
28 32
29 33
30 34
31 34
32 35
33 35
34 36
35 36
36 37
37 37
38 38
39 38
40 38
41 39
42 39
43 40
44 40
45 41
46 41
47 42
48 42
49 43
50 43
51 44
52 44
53 45
54 46
55 46
56 47
57 47
58 48
59 48
60 49
61 49
62 50
63 50
64 50
65 51
66 51
67 52
68 52
69 53
70 53
71 54
72 54
73 55
74 56
75 56
76 57
77 57
78 58
79 58
80 59
81 60
82 60
83 61
84 62
84 63
83 64
83 65
83 66
82 67
82 68
81 69
81 70
80 71
80 72
80 73
79 74
79 75
78 76
78 77
77 78
77 79
77 80
76 81
76 82
76 83
75 84
75 85
75 86
75 87
74 88
74 89
74 90
74 91
74 92
73 93
73 94
73 95
73 96
74 95
74 94
75 93
75 92
76 91
77 92
77 93
77 94
77 95
77 96
77 97
77 98
76 99
76 100
76 101
76 102
76 103
76 104
76 105
76 106
76 107
76 108
76 109
76 110
76 111
76 112
76 113
76 114
76 115
76 116
76 117
76 118
76 119
76 120
76 121
76 122
76 123
76 124
76 125
76 126
76 127
77 128
77 127
78 126
78 125
78 124
78 123
78 122
78 121
78 120
78 119
78 118
78 117
79 116
79 115
79 114
79 113
79 112
79 111
79 110
80 109
80 108
80 107
80 106
80 105
80 104
80 103
81 102
81 101
81 100
81 99
82 98
82 97
82 96
82 95
83 94
83 93
84 92
85 93
85 94
85 95
86 94
86 93
87 92
88 93
88 94
88 95
88 96
88 97
88 98
89 99
89 100
89 101
89 102
89 103
89 104
89 105
90 106
90 107
90 108
90 109
90 110
90 111
91 112
91 111
92 110
92 109
92 108
93 107
93 106
93 105
93 104
93 103
93 102
93 101
93 100
93 99
93 98
93 97
93 96
93 95
94 94
95 95
95 96
95 97
95 98
96 99
96 100
96 101
96 102
97 103
97 104
97 105
97 106
97 107
97 108
97 109
98 110
98 111
98 112
98 113
98 114
98 115
98 116
99 117
99 118
99 119
99 120
99 121
99 122
99 123
99 124
99 125
99 126
99 127
99 128
99 129
99 130
99 131
99 132
99 133
99 134
99 135
99 136
99 137
100 136
100 135
101 134
101 133
101 132
101 131
101 130
101 129
101 128
101 127
102 126
102 125
102 124
102 123
102 122
102 121
102 120
102 119
102 118
102 117
102 116
102 115
102 114
102 113
101 112
102 111
102 110
102 109
102 108
102 107
102 106
102 105
102 104
102 103
103 102
103 101
104 100
104 99
104 98
105 97
105 96
106 95
106 94
106 93
106 92
107 91
108 90
108 89
109 88
109 87
109 86
110 85
110 84
111 83
110 83
109 82
110 81
110 80
110 79
109 79
108 78
109 77
108 77
107 76
108 75
108 74
107 74
106 73
107 72
108 71
109 71
110 72
111 72
112 73
113 73
114 74
115 74
116 75
117 75
118 76
119 77
120 77
121 78
122 78
123 78
124 78
125 79
126 79
127 80
128 80
129 81
130 81
131 81
132 82
133 82
134 82
135 83
136 83
137 83
138 84
139 84
140 85
141 85
142 85
143 85
144 86
145 86
146 87
147 87
148 87
149 88
150 88
151 88
152 89
153 89
154 89
155 90
156 90
157 91
158 91
159 91
160 92
161 92
162 92
163 93
164 93
165 93
166 93
167 94
168 94
169 94
170 94
171 95
172 95
173 95
174 95
175 96
176 96
177 96
178 96
179 96
180 96
181 97
182 97
183 97
184 97
185 98
186 98
187 98
188 98
189 99
190 99
191 99
192 100
193 100
194 100
195 100
196 101
197 101
198 101
199 101
200 102
201 102
202 102
203 102
204 102
205 102
206 102
207 102
208 103
209 103
210 103
211 104
212 104
213 105
213 106
214 107
215 108
216 109
216 110
217 111
218 112
218 113
218 114
219 115
220 116
220 117
221 118
222 119
222 120
223 121
224 122
225 122
226 123
227 123
228 124
229 125
230 125
231 125
232 125
233 126
234 126
235 127
236 127
237 127
238 127
239 127
240 127
241 128
242 128
243 128
244 128
245 127
246 128
247 128
248 128
249 128
250 128
251 128
252 129
253 129
254 129
255 129
256 130
257 130
258 130
259 130
260 131
261 131
262 131
263 131
264 131
265 131
266 131
267 131
268 131
269 131
270 131
271 131
272 131
273 131
274 132
275 131
276 131
277 131
278 132
279 132
280 132
281 132
282 132
283 131
284 131
285 131
286 131
287 130
288 130
289 130
290 130
291 130
292 130
293 129
294 129
295 129
296 128
297 128
298 127
299 127
300 127
301 127
302 127
303 126
304 126
305 126
306 126
307 125
308 125
309 125
310 125
311 124
312 124
313 123
314 123
315 122
316 122
317 121
318 121
319 120
320 119
321 118
322 117
323 116
324 115
325 114
325 113
326 112
326 111
327 110
327 109
328 108
329 107
330 107
330 106
331 105
331 104
332 103
332 102
333 101
333 100
333 99
334 98
334 97
334 96
335 95
335 94
335 93
335 92
335 91
335 90
335 89
335 88
335 87
335 86
336 85
337 84
337 83
338 82
338 81
339 80
339 79
339 78
340 77
340 76
340 75
340 74
340 73
340 72
340 71
340 70
340 69
340 68
339 68
338 67
339 66
339 65
338 65
337 64
338 63
337 63
336 62
335 61
336 60
335 60
334 59
333 58
334 57
333 57
332 56
331 55
330 54
329 54
328 53
327 52
326 52
325 51
324 50
323 50
322 49
321 48
320 47
319 47
318 47
317 46
316 45
315 45
314 45
313 45
312 45
311 44
311 43
310 43
309 42
310 41
310 40
310 39
310 38
310 37
309 37
308 36
309 35
309 34
309 33
308 33
307 32
308 31
308 30
308 29
308 28
307 28
306 27
307 26
306 26
305 25
306 24
305 24
304 23
305 22
305 21
304 21
303 20
302 19
301 18
300 17
299 16
298 15
297 15
296 14
295 13
294 13
293 13
292 12
291 12
290 11
289 11
288 11
287 10
286 10
285 9
284 9
283 9
282 9
281 8
280 8
279 7
278 7
277 7
276 7
275 7
274 6
273 7
272 7
271 7
270 7
269 7
268 8
267 8
266 9
265 9
264 10
264 11
263 12
262 13
262 14
262 15
261 16
261 17
261 18
260 19
260 20
260 21
260 22
259 23
259 24
259 25
259 26
258 27
258 28
258 29
258 30
259 31
259 32
259 33
259 34
259 35
259 36
259 37
260 38
260 39
260 40
261 41
261 42
262 43
263 44
264 45
265 46
266 47
267 48
268 49
269 49
270 50
271 51
272 52
273 52
274 53
275 53
276 54
277 54
278 55
279 55
280 56
281 56
282 56
283 57
284 57
285 58
286 58
287 58
288 59
289 59
290 60
291 61
290 62
290 63
290 64
290 65
290 66
290 67
291 68
292 69
291 70
290 70
289 69
288 68
287 67
286 67
285 66
286 65
285 65
284 65
283 64
282 63
281 62
280 61
279 60
278 59
277 59
276 58
275 57
276 56
275 56
274 56
273 55
272 55
271 54
270 54
269 53
268 52
267 52
266 51
265 51
264 50
263 50
262 49
261 48
260 47
259 47
258 47
257 46
256 45
255 44
254 44
253 44
252 43
251 42
250 41
249 41
248 41
247 40
246 40
245 39
244 39
243 39
242 38
241 38
240 37
239 37
238 37
237 36
236 36
235 35
234 35
233 35
232 35
231 35
230 35
229 34
228 34
227 34
226 34
225 34
224 34
223 34
222 35
221 35
220 35
219 35
218 35
217 35
216 36
215 36
214 36
213 37
212 37
211 37
210 37
209 38
208 38
207 38
206 38
205 38
204 38
203 37
204 36
205 35
206 34
207 34
208 33
209 32
210 32
211 31
212 30
213 29
214 28
215 27
216 26
216 25
217 24
217 23
218 22
218 21
217 21
216 20
215 19
214 18
213 18
212 18
211 17
210 17
209 17
208 17
207 17
206 17
205 17
204 17
203 17
202 17
201 17
200 17
199 17
198 17
197 18
196 18
195 18
194 18
193 19
192 19
191 19
190 20
189 20
188 20
187 21
186 21
185 22
184 22
183 23
182 23
181 24
180 24
179 25
178 25
177 26
176 26
175 27
174 27
173 27
172 27
171 27
170 27
169 27
168 27
167 26
166 25
165 25
164 24
163 24
162 24
161 23
160 23
159 23
158 22
157 22
156 21
155 21
154 21
153 20
152 20
151 20
150 19
149 19
148 19
147 18
146 18
145 17
144 17
143 17
142 16
141 16
140 16
139 15
138 15
137 15
136 14
135 14
134 13
133 13
132 13
131 13
130 13
129 12
128 12
127 12
126 11
125 11
124 11
123 11
122 11
121 10
120 10
119 10
118 10
117 9
116 9
115 9
114 9
113 9
112 9
111 8
110 8
109 8
108 8
107 8
106 8
105 7
104 7
103 7
102 7
101 7
100 7
99 6
98 6
97 6
96 6
95 6
94 6
93 6
92 6
91 6
90 6
89 6
88 6
87 6
86 5
85 5
84 5
83 5
82 5
81 5
80 5
79 4
78 4
77 4
76 4
75 4
74 4
73 4
72 4
71 3
70 3
69 3
68 3
67 3
66 3
65 3
64 3
63 3
62 3
61 3
60 3
59 2
58 2
57 2
56 2
55 2
54 2
53 2
52 2
51 2
50 2
49 2
48 3
47 3
46 3
45 3
44 3
43 4
42 4
41 4
40 4
39 4
38 4
37 4
36 4
35 4
34 4
33 4
32 3
33 2
32 1
