198 3
198 4
199 5
199 6
200 7
200 8
200 9
200 10
199 11
198 11
197 12
197 13
198 14
198 15
199 16
198 17
197 18
196 18
195 18
195 19
195 20
194 21
194 22
193 23
193 24
192 25
192 26
192 27
191 28
190 27
189 26
188 25
189 24
188 24
187 23
188 22
188 21
187 21
186 20
187 19
187 18
187 17
187 16
187 15
186 15
185 14
185 13
184 13
184 14
184 15
184 16
184 17
184 18
184 19
185 20
185 21
185 22
185 23
185 24
184 25
183 25
182 24
181 24
181 25
180 26
180 27
180 28
180 29
180 30
179 31
178 30
177 29
176 28
175 27
174 26
175 25
175 24
174 24
173 25
172 25
171 24
170 24
169 23
168 23
167 22
166 22
165 22
164 23
163 23
162 23
161 23
161 24
161 25
162 25
163 25
164 26
164 27
165 26
166 26
167 26
168 26
169 26
170 27
171 28
170 29
170 30
171 31
172 31
173 31
174 31
175 32
175 33
175 34
174 35
174 36
175 36
176 37
177 37
178 38
178 39
177 40
177 41
176 42
175 42
174 42
173 42
172 42
171 43
170 43
169 43
168 42
167 42
166 42
165 41
164 40
163 40
162 39
161 38
160 38
159 37
158 36
157 36
156 36
155 35
154 35
153 35
152 35
151 34
150 34
149 34
148 34
148 35
149 36
150 36
151 37
152 37
153 36
154 37
154 38
155 38
156 37
157 38
157 39
158 40
159 40
160 41
161 42
162 43
163 44
164 45
165 46
165 47
165 48
164 49
163 49
162 49
161 49
160 49
159 49
158 48
157 48
156 47
155 47
154 46
153 45
152 44
151 43
150 42
149 41
148 40
147 39
146 38
146 37
146 36
145 36
145 37
145 38
145 39
146 40
146 41
147 42
148 43
149 44
149 45
150 46
151 47
152 48
153 49
154 50
155 51
156 52
156 53
157 54
157 55
157 56
156 57
155 58
154 59
153 59
152 59
151 58
150 58
149 57
148 56
147 55
146 54
145 54
144 53
143 52
142 52
141 51
140 51
139 51
138 50
137 50
136 50
135 50
134 50
133 51
133 52
134 52
135 52
136 52
137 53
138 53
139 54
140 54
141 55
142 56
143 57
144 58
145 59
145 60
146 61
146 62
147 63
147 64
146 65
146 66
145 67
144 68
143 68
142 68
141 68
140 68
139 67
138 67
138 68
138 69
138 70
137 71
136 71
135 70
136 69
136 68
136 67
136 66
136 65
136 64
136 63
136 62
136 61
136 60
135 60
134 59
134 58
133 58
133 59
132 60
131 59
130 58
129 57
128 58
128 59
127 60
126 60
125 60
124 60
124 61
123 62
122 62
121 61
122 60
121 60
120 60
119 61
119 62
118 63
117 64
116 63
115 63
114 64
113 65
112 66
111 66
110 66
109 67
108 67
108 68
108 69
107 70
106 70
105 70
104 71
104 72
104 73
103 74
102 74
101 74
100 75
100 76
101 77
100 78
99 78
98 78
97 78
97 79
97 80
98 81
98 82
97 83
96 83
95 84
94 84
94 85
94 86
94 87
95 88
94 89
93 89
93 90
93 91
93 92
94 93
93 94
92 94
92 95
92 96
92 97
93 98
93 99
93 100
92 101
91 101
91 102
91 103
92 103
93 103
94 103
95 104
96 104
97 104
98 104
98 103
99 102
100 103
101 104
101 105
101 106
101 107
102 108
101 109
100 109
99 109
98 109
97 108
96 108
96 109
96 110
97 111
97 112
97 113
96 114
95 114
94 114
93 113
92 113
91 113
90 113
89 113
88 113
87 113
86 113
85 112
84 111
84 110
83 109
82 109
81 109
81 110
82 111
83 112
83 113
84 114
84 115
85 116
86 117
86 118
86 119
85 120
84 120
83 120
82 120
81 120
80 121
80 122
80 123
79 124
78 124
77 125
76 125
75 124
74 123
73 123
73 124
73 125
73 126
73 127
72 128
71 129
70 129
69 129
68 130
67 129
66 128
65 128
64 127
63 126
62 126
61 125
60 125
59 125
59 126
60 127
61 127
62 128
62 129
62 130
62 131
61 132
60 133
59 134
58 133
57 133
56 133
55 133
54 132
53 132
52 132
51 132
51 133
52 134
53 135
53 136
52 137
51 138
50 138
49 138
48 138
47 138
46 138
45 137
44 137
43 137
43 138
44 139
45 140
45 141
45 142
44 143
43 143
42 144
41 144
40 144
39 143
38 143
37 143
36 144
36 145
36 146
36 147
35 148
34 148
33 148
32 148
31 148
30 147
29 147
28 147
28 148
29 149
30 150
30 151
29 152
28 152
27 153
26 153
25 153
24 153
23 153
23 154
22 155
22 156
22 157
21 158
20 158
19 159
18 159
17 159
17 160
17 161
17 162
16 163
15 164
14 165
13 165
12 165
11 166
11 167
11 168
11 169
11 170
10 171
9 172
8 172
7 172
7 173
6 174
6 175
6 176
7 177
7 178
6 179
5 179
4 179
3 180
3 181
3 182
3 183
3 184
4 185
3 186
2 187
2 188
2 189
2 190
2 191
3 192
3 193
2 194
2 195
2 196
2 197
2 198
3 199
3 200
2 201
2 202
2 203
2 204
3 205
4 206
4 207
4 208
4 209
5 210
6 211
7 212
7 213
7 214
7 215
8 216
9 217
10 217
11 218
11 219
12 220
13 220
14 220
15 220
16 221
17 222
18 222
19 223
20 223
21 223
22 223
23 223
24 223
25 223
26 223
27 223
28 223
29 223
30 223
31 223
32 223
33 223
34 223
35 223
36 223
37 222
38 222
39 221
40 220
41 219
42 219
43 218
43 217
44 216
45 215
45 214
46 213
46 212
46 211
47 210
47 209
48 208
48 207
48 206
48 205
48 204
48 203
48 202
47 202
46 201
46 200
47 199
46 199
45 198
44 197
45 196
44 196
43 195
44 194
43 194
42 194
41 194
40 193
39 193
38 192
37 192
36 191
35 191
34 191
33 191
32 191
31 192
30 192
29 192
28 193
27 193
26 193
25 194
24 194
23 195
23 196
22 197
21 198
21 199
20 200
20 201
19 202
18 202
17 201
18 200
18 199
18 198
18 197
18 196
18 195
18 194
18 193
18 192
18 191
18 190
19 189
19 188
19 187
20 186
20 185
20 184
21 183
21 182
22 181
22 180
23 179
23 178
24 177
25 176
26 176
27 175
28 174
29 173
30 172
31 171
32 170
33 169
34 168
35 168
36 167
37 166
38 166
39 165
40 165
41 164
42 164
43 163
44 162
45 162
46 161
47 161
48 161
49 161
50 160
51 160
52 159
53 159
54 158
55 158
56 158
57 157
58 157
59 157
60 156
61 156
62 155
63 155
64 154
65 154
66 153
67 153
68 153
69 152
70 152
71 151
72 151
73 150
74 150
75 150
76 149
77 149
78 148
79 148
80 147
81 147
82 147
83 147
84 146
85 146
86 145
87 145
88 144
89 144
90 143
91 143
92 142
93 142
94 141
95 141
96 140
97 139
98 139
99 138
100 138
101 137
102 137
103 136
104 136
105 136
106 135
107 134
108 133
109 133
110 132
111 132
112 132
113 131
114 131
115 130
116 130
117 129
118 129
119 129
120 129
121 128
122 127
123 126
124 127
124 128
125 129
125 130
126 129
127 129
128 129
129 129
130 129
131 129
132 129
133 129
134 129
135 129
136 129
137 129
138 129
139 129
140 129
141 129
142 128
143 128
144 128
145 128
146 128
147 128
148 128
149 127
150 126
151 126
152 125
153 125
154 124
155 124
156 124
157 123
158 122
159 121
160 120
161 119
162 118
163 118
164 117
165 117
166 116
167 115
168 114
169 113
170 112
171 111
172 110
173 109
174 109
175 108
176 107
177 106
177 105
178 104
179 103
179 102
180 101
180 100
181 99
182 98
182 97
183 96
184 95
185 94
185 93
186 92
186 91
187 90
188 89
188 88
189 87
189 86
190 85
191 84
191 83
192 82
193 81
193 80
194 79
194 78
195 77
195 76
196 75
196 74
197 73
197 72
197 71
198 70
198 69
198 68
199 67
199 66
199 65
200 64
200 63
200 62
201 61
202 60
203 61
203 62
204 63
204 64
205 65
205 66
205 67
206 68
206 69
205 70
205 71
205 72
206 73
207 74
208 74
209 75
209 76
209 77
209 78
209 79
209 80
209 81
210 82
211 83
212 83
213 84
213 85
213 86
213 87
213 88
213 89
213 90
213 91
213 92
213 93
213 94
214 95
214 96
213 97
213 98
214 99
214 100
214 101
214 102
214 103
213 104
213 105
212 106
212 107
211 108
211 109
211 110
211 111
212 112
212 113
213 114
214 115
215 116
216 116
217 117
218 117
219 117
220 117
221 116
222 116
223 115
224 114
225 113
225 112
226 111
226 110
226 109
226 108
226 107
225 107
224 106
225 105
225 104
225 103
226 102
225 101
225 100
226 99
226 98
226 97
226 96
227 95
227 94
228 93
228 92
229 91
230 90
231 90
232 89
233 89
234 88
235 87
236 86
237 86
238 85
239 84
240 83
241 82
242 81
242 80
243 79
244 78
245 78
246 77
247 76
248 76
249 76
250 76
251 76
252 76
253 76
254 77
255 77
256 78
257 78
258 79
259 79
260 80
261 80
262 80
263 81
264 81
265 82
266 82
267 82
268 82
269 82
270 82
271 82
272 82
273 82
274 82
275 81
275 80
274 80
273 80
272 80
271 80
270 79
269 79
268 79
267 79
266 78
265 78
264 78
263 77
262 76
261 76
260 75
259 75
258 74
257 74
256 73
255 73
254 72
253 71
252 71
251 71
250 71
249 71
248 70
249 69
249 68
249 67
250 66
250 65
251 64
251 63
251 62
252 61
252 60
253 59
253 58
253 57
254 56
254 55
254 54
254 53
255 52
256 52
257 52
258 52
259 52
260 51
261 51
262 51
263 50
264 50
265 49
266 49
267 49
268 48
269 47
270 47
271 46
272 45
273 44
274 43
274 42
273 42
272 43
271 44
270 44
270 45
269 46
268 45
267 45
266 46
265 46
264 47
263 47
262 48
261 49
260 48
259 48
258 48
257 47
258 46
259 45
260 45
261 44
262 43
263 42
264 42
265 41
266 40
267 39
267 38
268 37
269 36
270 35
271 34
272 33
272 32
273 31
273 30
274 29
273 29
272 30
271 31
270 31
269 32
269 33
268 34
267 34
266 35
265 36
264 37
263 38
262 39
261 40
260 41
259 42
258 42
257 43
256 44
255 44
254 43
254 42
254 41
254 40
253 39
252 39
251 38
251 37
251 36
251 35
251 34
251 33
252 32
253 31
254 31
255 31
256 30
257 29
258 28
259 27
260 27
261 27
262 26
262 25
261 25
260 25
259 26
258 26
257 27
256 28
255 27
254 26
255 25
256 24
257 23
258 22
258 21
257 21
256 22
255 23
254 24
253 25
252 26
251 27
251 28
250 29
249 30
248 29
248 28
247 28
246 27
247 26
247 25
247 24
248 23
249 22
250 21
251 20
252 19
252 18
251 18
250 19
249 20
248 20
247 21
246 22
245 22
244 21
245 20
244 20
243 19
242 18
242 17
241 16
240 16
239 16
239 17
240 18
240 19
240 20
240 21
240 22
240 23
240 24
240 25
239 26
238 26
237 27
236 27
236 28
235 29
234 30
233 29
233 28
233 27
233 26
233 25
233 24
233 23
233 22
233 21
232 21
231 22
231 23
231 24
231 25
231 26
230 27
229 28
228 28
227 27
228 26
228 25
228 24
228 23
228 22
228 21
228 20
228 19
228 18
228 17
229 16
229 15
229 14
229 13
229 12
230 11
230 10
230 9
230 8
229 8
228 9
228 10
228 11
228 12
227 13
227 14
226 15
226 16
226 17
225 18
224 17
224 16
224 15
224 14
224 13
225 12
225 11
225 10
225 9
225 8
225 7
226 6
225 6
224 7
224 8
224 9
224 10
223 11
223 12
223 13
223 14
222 15
222 16
221 17
221 18
221 19
220 20
220 21
220 22
219 23
218 24
217 23
216 23
215 22
216 21
216 20
217 19
217 18
218 17
217 17
216 18
215 18
214 17
215 16
215 15
215 14
214 14
213 13
214 12
214 11
213 11
212 10
213 9
212 9
211 8
210 7
209 7
209 8
209 9
210 10
211 11
211 12
211 13
212 14
212 15
212 16
212 17
212 18
212 19
211 20
210 21
209 22
208 23
207 24
206 25
205 26
204 26
203 25
204 24
203 24
202 23
203 22
202 22
201 21
202 20
202 19
202 18
202 17
202 16
202 15
202 14
202 13
203 12
203 11
203 10
203 9
203 8
203 7
202 7
201 6
202 5
201 5
200 4
200 3
199 3
