102 4
102 5
101 6
100 5
99 5
98 5
98 6
97 7
96 7
95 7
94 6
94 7
93 8
92 7
91 7
91 8
90 9
89 8
89 9
88 10
87 9
86 9
86 10
85 11
84 12
83 11
82 11
82 12
81 13
80 14
79 15
78 16
77 17
76 18
75 19
74 20
73 21
73 22
72 23
72 24
72 25
73 26
74 26
75 27
76 28
77 28
78 28
79 29
79 30
80 30
81 31
82 32
82 33
81 34
81 35
80 36
79 37
79 38
79 39
78 40
77 40
76 40
75 39
74 39
73 39
72 38
71 38
70 38
69 37
68 37
68 38
67 39
66 40
66 41
65 42
64 43
63 42
62 42
61 42
60 41
59 41
58 40
57 40
56 40
55 40
55 41
54 42
53 43
52 44
51 43
50 43
49 43
48 43
47 43
46 43
45 42
44 42
43 41
43 42
42 43
42 44
41 45
40 46
39 47
38 46
37 46
36 46
35 46
34 46
33 45
32 45
31 45
30 45
29 45
28 45
27 46
26 45
26 46
26 47
26 48
26 49
26 50
26 51
25 52
24 53
23 54
22 55
21 54
21 55
20 56
19 55
18 55
18 56
17 57
17 58
17 59
17 60
18 61
18 62
18 63
18 64
17 65
16 66
15 67
14 66
14 67
13 68
12 67
11 67
11 68
11 69
11 70
11 71
12 72
13 73
14 74
14 75
14 76
14 77
13 78
12 77
12 78
11 79
10 78
10 79
9 80
9 81
10 82
10 83
10 84
10 85
10 86
9 87
8 88
7 87
7 88
6 89
6 90
7 91
7 92
6 93
5 94
4 93
3 93
2 93
2 94
2 95
2 96
2 97
3 98
4 98
5 99
5 100
6 100
7 101
7 102
7 103
8 103
9 104
10 105
11 105
12 105
13 106
14 107
15 107
16 108
17 108
18 108
19 109
20 109
21 110
22 110
23 110
24 110
25 111
26 111
27 111
28 112
29 113
30 113
31 114
31 115
32 116
32 117
32 118
32 119
32 120
32 121
33 121
34 121
35 122
36 122
37 122
38 122
39 122
40 122
41 123
42 123
43 124
43 125
44 126
44 127
45 128
46 128
47 128
48 127
49 127
50 126
51 126
52 126
53 126
54 126
55 127
56 128
56 129
56 130
57 130
58 130
59 130
60 130
61 130
62 131
63 132
63 133
63 134
64 135
64 136
65 137
66 137
67 137
68 136
69 135
69 134
70 133
71 134
72 134
73 133
74 132
74 131
74 130
73 129
72 128
72 127
72 126
72 125
72 124
72 123
72 122
72 121
71 120
70 120
69 119
68 119
67 119
66 118
65 117
65 116
64 115
64 114
63 113
63 112
62 111
62 110
61 109
61 108
61 107
61 106
61 105
62 104
62 103
62 102
62 101
63 100
63 99
63 98
63 97
62 96
61 96
60 95
59 95
58 94
57 94
56 94
55 93
54 92
53 91
52 90
52 89
51 88
51 87
50 86
50 85
50 84
49 84
48 83
48 82
47 82
46 81
45 81
44 80
43 79
43 78
43 77
44 76
45 76
46 76
47 76
48 77
49 78
50 78
51 78
52 77
53 77
54 78
55 79
56 80
56 81
56 82
57 83
58 83
59 83
60 82
61 81
62 81
63 81
64 81
65 82
65 83
66 83
67 84
68 85
69 86
69 87
70 88
71 88
72 88
73 88
74 88
75 88
76 88
77 89
78 89
79 90
79 91
80 91
81 92
82 92
83 92
84 92
85 92
86 92
87 91
88 91
89 90
90 90
91 90
92 90
93 91
94 91
95 91
96 92
97 92
98 92
99 91
100 91
101 90
102 89
103 89
104 89
105 89
106 89
107 89
108 90
109 90
110 90
110 89
111 88
112 87
113 86
114 85
115 85
116 84
117 84
118 84
119 84
120 85
121 85
122 85
123 85
124 84
124 83
124 82
125 81
126 81
127 81
128 81
129 81
130 81
131 82
132 82
133 82
134 82
135 82
136 81
137 81
138 81
139 81
140 80
141 79
142 79
143 78
142 77
142 76
142 75
142 74
141 74
140 73
140 72
140 71
139 70
138 69
138 68
139 67
139 66
140 65
141 64
142 63
143 62
143 61
144 60
145 59
145 58
146 57
147 56
147 55
148 54
149 53
149 52
150 51
151 50
152 49
152 48
152 47
153 46
154 45
154 44
155 43
156 42
157 41
158 41
159 40
159 39
160 38
161 37
162 36
163 35
164 34
165 34
166 33
167 32
168 31
169 31
170 31
171 30
172 30
173 30
174 29
175 29
176 28
177 28
178 28
179 28
180 28
181 28
182 28
183 27
184 27
185 26
186 26
187 26
188 26
189 26
190 26
191 26
192 26
193 26
194 26
195 27
196 27
197 28
198 28
199 28
200 29
201 29
202 30
203 31
203 32
204 32
205 32
206 33
206 34
207 35
207 36
208 37
209 38
209 39
209 40
209 41
209 42
209 43
209 44
209 45
209 46
209 47
208 48
208 49
207 50
206 51
205 52
204 53
203 52
202 51
202 50
202 49
203 48
203 47
202 46
201 45
201 44
200 43
199 42
198 41
197 40
196 40
195 39
195 40
194 41
193 40
192 40
191 40
190 40
190 41
189 42
188 41
188 42
188 43
187 44
186 43
185 43
185 44
185 45
185 46
185 47
185 48
185 49
185 50
184 51
183 52
184 53
184 54
185 55
186 56
186 57
186 58
186 59
186 60
187 60
188 61
189 62
190 62
191 63
191 64
191 65
192 65
193 65
194 65
195 65
196 65
197 66
198 67
199 67
200 67
201 67
202 66
203 66
204 66
205 65
206 66
207 66
208 66
209 65
210 64
211 64
212 64
213 64
214 63
215 62
215 61
216 60
217 59
218 58
219 57
219 56
219 55
220 54
220 53
221 52
222 52
223 51
223 50
223 49
223 48
223 47
222 46
223 45
223 44
223 43
224 42
224 41
224 40
223 39
223 38
222 37
222 36
222 35
222 34
222 33
222 32
222 31
221 30
220 29
219 28
219 27
219 26
218 25
218 24
217 23
217 22
216 21
215 20
215 19
214 18
214 17
213 16
212 15
211 15
210 14
209 13
208 12
207 12
206 11
205 11
204 12
203 11
202 11
201 10
200 9
199 8
198 8
197 7
197 8
196 9
195 8
194 8
193 8
192 8
191 7
190 7
189 6
188 6
188 7
187 8
186 7
185 7
184 6
183 5
182 5
181 4
181 5
180 6
179 7
178 6
177 6
176 6
175 6
174 6
173 6
172 6
171 5
170 5
170 6
169 7
168 6
167 6
167 7
166 8
165 7
164 7
163 6
162 6
161 6
161 7
160 8
159 9
158 10
157 9
156 9
155 9
154 8
154 9
153 10
152 9
152 10
152 11
151 12
150 11
150 12
149 13
148 12
147 12
146 11
146 12
145 13
144 12
144 13
143 14
142 15
141 16
140 15
139 16
138 16
137 15
137 16
136 17
136 18
135 19
134 20
133 19
133 20
132 21
131 20
130 20
130 21
129 22
128 21
128 22
128 23
127 24
126 25
125 24
124 24
123 24
123 25
122 26
121 27
120 26
120 27
119 28
118 27
117 26
117 25
118 24
119 23
119 22
120 21
121 20
122 19
123 18
123 17
124 16
124 15
125 14
126 13
126 12
127 11
126 10
125 9
124 8
124 7
123 7
122 6
121 6
120 6
119 5
118 5
117 5
116 4
115 4
114 4
113 5
112 5
111 4
110 4
109 4
108 4
107 4
106 4
105 5
104 5
103 4
