325 2
324 3
323 4
322 5
321 5
320 6
319 6
318 6
317 7
316 7
315 7
314 8
313 8
312 9
311 9
310 9
309 9
308 9
307 10
306 10
305 10
304 11
303 11
302 11
301 11
300 12
299 12
298 12
297 12
296 12
295 12
294 13
293 13
292 13
291 13
290 13
289 13
288 13
287 12
286 12
285 12
284 12
283 12
282 12
281 11
280 11
279 11
278 11
277 11
276 11
275 10
274 10
273 10
272 10
271 9
270 9
269 9
268 9
267 9
266 9
265 9
264 9
263 9
262 9
261 9
260 10
259 10
258 10
257 11
256 11
255 12
254 12
253 13
252 13
251 13
250 13
249 14
248 14
247 14
246 14
245 15
244 15
243 15
242 15
241 15
240 15
239 15
238 15
237 15
236 15
235 15
234 16
233 16
232 16
231 16
230 16
229 16
228 16
227 17
226 17
225 17
224 17
223 17
222 17
221 17
220 17
219 17
218 18
217 18
216 18
215 18
214 18
213 18
212 18
211 18
210 18
209 18
208 18
207 19
206 19
205 19
204 19
203 19
202 19
201 19
200 19
199 20
198 20
197 20
196 20
195 20
194 20
193 20
192 20
191 20
190 20
189 20
188 20
187 20
186 20
185 21
184 21
183 21
182 21
181 21
180 21
179 21
178 21
177 21
176 21
175 21
174 22
173 22
172 22
171 22
170 22
169 22
168 22
167 22
166 22
165 22
164 22
163 22
162 23
161 23
160 23
159 23
158 23
157 23
156 23
155 23
154 24
153 24
152 24
151 24
150 24
149 24
148 24
147 24
146 24
145 24
144 24
143 24
142 25
141 25
140 25
139 25
138 25
137 26
136 26
135 26
134 26
133 26
132 27
131 27
130 27
129 27
128 27
127 27
126 27
125 27
124 27
123 28
122 28
121 28
120 28
119 28
118 29
117 29
116 29
115 29
114 30
113 29
112 28
111 27
110 26
109 25
108 24
107 23
106 22
105 21
106 20
105 20
104 20
103 19
102 18
101 18
100 18
99 18
98 18
97 18
96 17
95 18
94 18
93 18
92 19
91 19
90 20
89 20
88 20
87 20
86 21
85 21
84 21
83 21
82 21
81 22
80 22
79 22
78 22
77 23
76 23
75 24
74 24
73 24
72 25
71 25
70 26
69 27
68 27
67 28
66 29
65 29
64 30
63 31
62 31
61 32
60 32
59 33
58 33
58 34
57 35
56 35
55 35
54 36
53 37
52 37
51 38
50 39
49 39
48 40
48 41
49 42
50 42
51 43
52 44
53 45
53 46
52 47
51 47
50 48
49 48
48 49
47 49
46 50
45 50
44 51
43 51
42 52
41 52
40 53
39 53
38 54
37 55
36 55
35 56
34 57
33 57
32 58
31 59
30 60
29 61
28 61
27 62
26 63
25 64
24 65
23 66
22 67
21 68
20 69
19 70
18 71
17 72
16 73
15 74
14 75
13 76
13 77
12 78
11 79
11 80
10 81
9 82
9 83
8 84
8 85
7 86
7 87
6 88
6 89
6 90
6 91
5 92
5 93
4 94
4 95
3 96
3 97
3 98
3 99
3 100
3 101
3 102
2 103
2 104
3 105
2 106
2 107
2 108
2 109
2 110
2 111
2 112
3 113
3 114
3 115
3 116
4 117
4 118
4 119
4 120
4 121
5 122
5 123
5 124
5 125
6 126
6 127
6 128
7 129
7 130
8 131
8 132
8 133
9 134
9 135
10 136
10 137
11 138
11 139
12 140
12 141
13 142
13 143
14 144
15 145
15 146
16 147
16 148
17 149
18 150
18 151
19 152
20 153
20 154
21 155
22 156
23 157
23 158
24 159
25 160
26 161
27 162
28 163
28 164
29 165
30 166
31 167
32 168
33 169
34 170
35 171
36 172
37 173
38 174
39 175
40 176
41 177
42 178
43 179
44 180
45 181
46 182
47 183
48 183
49 184
50 185
51 186
52 187
53 187
54 188
55 189
56 190
57 191
57 192
58 193
58 194
59 195
59 196
59 197
59 198
60 199
60 200
60 201
61 202
61 203
61 204
61 205
62 206
62 207
62 208
63 208
64 208
65 208
66 209
67 209
68 209
69 209
70 209
71 208
72 208
73 207
74 207
75 207
76 207
77 207
78 206
79 205
80 204
81 203
81 202
81 201
81 200
82 199
82 198
83 197
83 196
83 195
83 194
83 193
82 193
81 192
82 191
82 190
81 190
80 189
81 188
80 188
79 187
78 187
77 187
76 187
75 187
74 187
73 187
72 187
71 187
70 187
69 187
68 187
67 187
66 187
65 187
64 186
63 187
62 187
61 187
60 186
59 185
58 184
57 183
56 182
55 181
54 180
53 180
52 179
51 178
52 177
51 177
50 176
49 175
48 174
47 173
46 172
45 171
44 170
43 169
42 168
41 167
40 166
39 165
38 164
39 163
38 163
37 162
36 161
35 160
34 159
35 158
34 158
33 157
32 156
31 155
32 154
31 154
30 153
29 152
28 151
27 150
28 149
27 149
26 148
27 147
26 147
25 146
26 145
25 145
24 144
23 143
24 142
23 142
22 141
21 140
22 139
21 139
20 138
21 137
20 137
19 136
18 135
19 134
19 133
18 133
17 132
18 131
18 130
17 130
16 129
17 128
16 128
15 127
16 126
16 125
15 125
14 124
15 123
15 122
14 122
13 121
14 120
14 119
14 118
14 117
13 117
12 116
13 115
13 114
13 113
13 112
13 111
13 110
13 109
13 108
13 107
13 106
14 105
14 104
14 103
15 102
15 101
15 100
16 99
17 98
18 97
19 97
20 96
21 96
22 95
23 95
24 94
25 93
26 93
27 92
28 91
29 90
30 90
31 89
32 88
33 87
34 86
35 86
36 85
37 84
38 84
39 83
40 82
41 82
42 81
43 80
44 80
45 79
46 78
47 78
48 77
49 76
50 75
51 75
52 74
53 73
54 73
55 72
56 72
57 72
58 71
59 71
60 71
61 71
62 70
63 70
64 70
65 69
66 69
67 69
68 68
69 68
70 67
71 67
72 67
73 67
74 67
75 67
76 67
77 67
78 67
79 66
80 66
81 66
82 65
83 65
84 65
85 65
86 65
87 65
88 65
89 64
90 64
91 64
92 64
93 64
94 63
95 63
96 63
97 62
98 62
99 61
100 61
101 60
102 60
103 59
104 58
105 58
106 57
107 56
108 56
109 55
110 54
111 53
112 52
113 51
114 50
115 50
116 50
117 50
118 50
119 50
120 50
121 50
122 49
123 49
124 49
125 49
126 49
127 49
128 49
129 49
130 49
131 49
132 49
133 49
134 49
135 49
136 49
137 49
138 49
139 49
140 48
141 48
142 48
143 48
144 48
145 48
146 48
147 48
148 48
149 48
150 47
151 47
152 47
153 47
154 47
155 47
156 47
157 46
158 46
159 46
160 46
161 46
162 46
163 46
164 45
165 45
166 45
167 45
168 45
169 45
170 45
171 45
172 45
173 44
174 44
175 44
176 44
177 44
178 43
179 43
180 43
181 43
182 43
183 43
184 43
185 43
186 42
187 42
188 42
189 42
190 42
191 42
192 42
193 42
194 42
195 42
196 42
197 42
198 41
199 41
200 41
201 41
202 41
203 41
204 40
205 40
206 40
207 40
208 40
209 40
210 39
211 39
212 39
213 39
214 39
215 39
216 39
217 38
218 38
219 38
220 38
221 38
222 38
223 38
224 38
225 38
226 37
227 37
228 37
229 37
230 37
231 37
232 36
233 36
234 36
235 36
236 35
237 35
238 35
239 35
240 35
241 35
242 34
243 34
244 34
245 34
246 33
247 33
248 33
249 33
250 32
251 32
252 32
253 32
254 31
255 31
256 31
257 31
258 31
259 30
260 30
261 30
262 30
263 30
264 30
265 30
266 30
267 30
268 29
269 29
270 29
271 28
272 28
273 27
274 28
275 28
276 28
277 27
278 27
279 27
280 26
281 25
282 24
283 24
284 24
285 24
286 23
287 23
288 23
289 22
290 22
291 22
292 22
293 22
294 21
295 21
296 21
297 21
298 20
299 20
300 20
301 20
302 19
303 19
304 19
305 19
306 18
307 18
308 18
309 17
310 17
311 16
312 16
313 16
314 15
315 15
316 15
317 14
318 14
319 14
320 14
321 13
322 13
323 13
324 13
325 13
326 13
327 12
328 12
328 11
329 10
330 9
330 8
331 7
330 7
329 7
328 8
327 7
327 6
328 5
328 4
328 3
327 3
326 2
