137 2
136 3
135 4
134 5
133 5
132 6
131 7
131 8
130 9
129 10
128 11
128 12
127 13
126 14
125 15
124 16
124 17
123 18
123 19
122 20
121 21
121 22
120 23
120 24
119 25
119 26
118 27
117 27
116 27
115 27
114 27
113 27
112 26
111 26
110 26
109 26
108 26
107 26
106 26
105 26
104 26
103 26
102 26
101 25
100 25
99 25
98 25
97 25
96 25
95 25
94 25
93 25
92 25
91 25
90 25
89 25
88 25
87 25
86 25
85 25
84 25
83 25
82 25
81 25
80 25
79 25
78 25
77 25
76 25
75 25
74 25
73 25
72 25
71 25
70 25
69 25
68 24
67 24
66 24
65 24
64 24
63 24
62 24
61 25
60 25
59 25
58 25
57 25
56 25
55 25
54 25
53 25
52 25
51 25
50 25
49 25
48 25
47 25
46 25
45 25
44 25
43 25
42 25
41 25
40 25
39 26
38 26
37 26
36 26
35 26
34 26
33 26
32 26
31 26
30 26
29 27
28 27
27 27
26 27
25 27
24 27
23 27
22 27
21 27
20 27
19 27
18 27
17 28
16 28
15 28
14 29
13 30
12 31
11 30
10 29
9 30
8 30
7 31
7 32
7 33
8 34
9 35
10 36
11 36
12 37
13 38
14 38
15 39
16 40
17 40
18 41
19 41
20 42
21 42
22 43
23 44
24 45
25 45
26 45
27 46
28 46
29 47
30 47
31 48
32 48
33 48
34 49
35 49
36 49
37 50
38 50
39 51
40 51
41 51
42 52
43 52
44 52
45 52
46 53
47 53
48 53
49 54
50 54
51 54
52 54
53 55
54 55
55 55
56 56
57 56
58 56
59 56
60 56
61 56
62 56
63 57
64 57
65 57
66 58
67 58
68 58
69 58
70 59
71 59
72 59
73 59
74 60
75 60
76 60
77 60
78 60
79 60
80 60
81 61
82 61
83 61
84 61
85 62
86 62
87 62
88 62
89 62
90 63
91 63
92 63
93 63
94 63
95 63
96 63
97 64
98 64
99 64
100 64
101 64
102 65
103 65
104 65
105 65
106 65
107 65
108 66
109 66
110 66
111 66
112 67
112 68
112 69
112 70
112 71
113 72
113 73
113 74
114 75
114 76
114 77
115 78
115 79
116 80
116 81
117 82
117 83
118 84
119 85
120 86
121 86
122 87
123 87
123 86
124 85
125 85
126 84
127 83
128 84
129 85
130 85
131 86
132 87
133 88
134 89
135 89
136 90
137 90
138 91
139 91
140 90
141 89
141 88
141 87
142 86
142 85
143 84
143 83
144 82
144 81
144 80
143 79
143 78
144 77
144 76
145 75
145 74
145 73
145 72
145 71
146 70
147 70
148 71
149 71
150 71
151 71
152 71
153 71
154 71
155 71
156 71
157 71
158 71
159 71
160 71
161 71
162 71
163 71
164 71
165 71
166 72
167 71
168 72
169 72
170 72
171 72
172 72
173 72
174 72
175 72
176 72
177 72
178 72
179 72
180 72
181 72
182 72
183 72
184 72
185 72
186 73
187 73
188 73
189 73
190 73
191 73
192 73
193 73
194 73
195 73
196 73
197 73
198 73
199 73
200 73
201 73
202 73
203 73
204 74
205 75
205 76
205 77
206 77
207 78
208 79
208 80
209 81
210 82
210 83
211 84
212 85
213 86
214 87
215 88
215 89
216 89
217 90
218 91
219 92
220 93
221 94
222 94
223 95
224 95
225 96
226 96
227 95
227 94
228 93
229 92
230 91
230 90
231 89
232 88
233 87
234 86
235 85
236 85
237 84
238 83
239 82
240 81
241 80
242 79
243 79
244 78
244 77
245 76
244 76
243 75
244 74
245 74
246 74
247 74
248 74
249 74
250 74
251 74
252 74
253 74
254 74
255 74
256 74
257 74
258 74
259 74
260 74
261 74
262 74
263 74
264 74
265 74
266 74
267 74
268 74
269 74
270 75
271 75
272 75
273 75
274 75
275 75
276 76
277 76
278 76
279 76
280 77
281 77
282 77
283 78
284 78
285 78
286 78
287 79
288 80
289 81
290 82
290 83
291 84
292 85
293 86
294 87
294 88
295 89
296 90
297 91
297 92
298 93
299 94
300 95
301 96
302 97
303 98
303 99
304 100
305 100
306 101
306 102
307 103
308 103
309 104
310 105
311 106
312 107
313 107
314 108
315 109
316 110
317 111
318 112
319 112
320 113
321 114
322 114
323 114
324 115
325 116
326 116
327 117
328 117
329 118
330 118
331 118
331 117
332 116
332 115
331 115
330 114
331 113
330 113
329 112
330 111
330 110
330 109
329 109
328 108
329 107
329 106
329 105
328 105
327 104
328 103
327 103
326 102
327 101
326 101
325 100
326 99
325 99
324 98
325 97
325 96
324 96
323 96
322 95
323 94
323 93
322 93
321 92
322 91
322 90
321 90
320 89
321 88
321 87
321 86
321 85
320 85
319 84
320 83
320 82
319 82
318 81
319 80
319 79
318 79
317 78
316 77
315 76
314 75
313 74
314 73
315 72
316 71
317 71
318 70
318 69
319 68
320 68
320 67
321 66
321 65
322 64
323 63
324 63
325 62
326 61
327 60
328 60
329 59
330 58
330 57
331 56
332 56
333 55
333 54
334 53
335 52
335 51
336 50
337 49
337 48
338 47
339 46
339 45
340 44
341 43
342 42
343 42
343 41
344 40
344 39
344 38
343 38
342 38
341 38
340 39
339 39
338 39
337 39
336 39
335 39
334 39
333 40
332 40
331 40
330 40
329 41
328 41
327 41
326 42
325 42
324 42
323 42
322 43
321 43
320 44
319 44
318 45
317 45
316 45
315 46
314 46
313 47
312 47
311 48
310 48
309 49
308 49
307 50
306 50
305 51
304 52
303 52
302 53
301 54
300 55
299 55
298 56
297 56
296 57
295 57
294 58
293 59
292 59
291 60
290 60
289 60
288 60
287 60
286 60
285 60
284 60
283 60
282 60
281 60
280 60
279 60
278 60
277 59
276 59
275 59
274 59
273 58
272 58
271 58
270 57
269 57
268 56
267 56
266 56
265 56
264 56
263 56
262 55
261 55
260 55
259 54
258 54
257 54
256 54
255 53
254 53
253 53
252 52
251 52
250 52
249 51
248 51
247 51
246 50
247 49
248 48
248 47
249 46
249 45
248 45
247 45
246 44
245 43
246 42
245 42
244 41
243 40
242 39
243 38
242 38
241 37
240 36
241 35
240 35
239 34
240 33
240 32
239 32
238 31
239 30
239 29
239 28
240 27
241 26
241 25
242 24
242 23
243 22
244 21
245 20
245 19
246 18
245 18
244 18
243 18
242 19
241 19
240 19
239 20
238 20
237 20
236 21
235 21
234 22
233 22
232 23
231 24
230 24
229 25
228 25
227 26
226 27
225 27
224 27
223 28
222 29
221 29
220 30
219 31
218 31
217 32
216 32
215 33
214 34
213 34
212 35
211 36
210 37
209 38
208 38
207 39
206 40
205 39
204 40
203 39
202 39
201 39
200 39
199 39
198 38
197 38
196 38
195 38
194 37
193 37
192 37
191 37
190 37
189 36
188 36
187 36
186 36
185 35
184 35
183 35
182 35
181 34
180 34
179 34
178 34
177 34
176 34
175 33
174 34
173 33
172 33
171 33
170 33
169 33
168 32
167 32
166 32
165 32
164 32
163 32
162 31
163 30
163 29
162 29
161 28
162 27
161 27
160 26
159 25
160 24
160 23
160 22
161 21
161 20
162 19
161 19
160 20
159 20
158 20
157 19
156 18
155 17
156 16
156 15
156 14
155 14
154 15
153 15
152 14
151 13
150 12
149 11
150 10
150 9
150 8
149 8
148 9
147 9
146 8
145 7
144 6
143 5
144 4
143 4
142 5
141 5
140 5
139 4
138 3
138 2
