172 1
171 2
170 2
169 2
168 2
167 3
166 3
165 4
164 4
163 5
162 6
161 7
160 8
159 9
158 9
157 10
156 11
155 11
154 11
154 12
153 13
152 14
151 15
151 16
150 17
149 18
148 19
147 20
146 21
145 22
144 23
143 24
142 24
141 24
140 24
139 24
138 23
139 22
139 21
139 20
140 19
140 18
141 17
140 17
139 18
138 18
137 19
136 19
135 20
135 21
134 22
133 23
132 22
131 22
130 21
131 20
131 19
132 18
132 17
133 16
132 16
131 16
130 16
129 17
128 18
127 19
126 20
126 21
125 22
124 23
123 23
122 22
123 21
123 20
123 19
123 18
123 17
124 16
123 16
122 16
121 16
121 17
120 18
119 19
119 20
118 21
117 22
116 22
115 21
116 20
116 19
117 18
117 17
118 16
117 16
116 16
115 16
114 17
113 18
112 18
111 18
111 19
111 20
111 21
110 22
109 22
108 21
109 20
109 19
109 18
109 17
109 16
109 15
109 14
108 14
107 15
106 16
105 17
104 18
103 19
103 20
103 21
102 22
101 22
100 21
101 20
101 19
101 18
100 18
99 17
100 16
100 15
100 14
99 14
98 15
98 16
97 17
97 18
97 19
96 20
96 21
95 22
94 23
93 23
92 22
91 21
92 20
92 19
92 18
92 17
92 16
92 15
91 15
90 15
90 16
89 17
89 18
88 19
88 20
88 21
87 22
86 22
85 22
84 21
83 20
84 19
83 19
82 18
83 17
82 16
81 16
81 17
80 18
80 19
80 20
80 21
80 22
80 23
79 24
78 24
77 23
76 22
77 21
76 21
75 20
74 19
75 18
74 18
73 17
72 17
72 18
72 19
72 20
72 21
72 22
72 23
72 24
71 25
70 25
69 25
68 26
67 26
66 26
65 27
64 27
63 27
62 27
61 27
60 28
59 28
58 28
57 29
56 29
55 29
54 30
53 30
52 30
51 31
50 31
49 31
48 31
47 31
46 31
45 31
44 31
43 31
42 31
41 32
40 32
39 32
38 33
37 33
36 33
35 34
34 34
33 34
32 34
31 35
30 36
29 36
28 36
27 37
26 37
25 38
24 38
23 38
22 38
21 38
20 38
19 39
18 40
17 40
16 40
15 41
14 42
13 42
12 43
11 44
10 44
9 45
8 45
8 46
7 47
6 48
6 49
6 50
6 51
5 52
4 51
3 51
2 51
2 52
2 53
2 54
3 55
4 56
4 57
5 58
6 59
7 60
8 60
9 61
10 61
11 62
12 62
13 63
14 64
15 64
16 65
17 66
18 67
19 67
20 67
21 68
22 68
23 69
24 70
25 70
26 71
27 71
28 71
29 72
30 72
31 72
32 72
33 72
34 72
35 72
36 73
37 73
38 73
39 73
40 73
41 74
42 74
43 74
44 75
45 75
46 75
47 75
48 75
49 75
50 75
51 75
52 75
53 75
54 75
55 75
56 75
57 75
58 75
59 75
60 75
61 75
62 75
63 75
64 74
65 74
66 74
67 74
68 74
69 74
70 74
71 74
72 74
73 74
74 74
75 74
76 74
77 74
78 74
79 74
80 74
81 74
82 74
83 74
84 74
85 74
86 74
87 74
88 74
89 75
90 75
91 75
92 75
93 75
94 75
95 75
96 75
97 75
98 75
99 75
100 75
101 76
101 77
101 78
102 79
102 80
102 81
102 82
102 83
103 84
103 85
104 85
104 84
105 83
105 82
105 81
105 80
105 79
106 78
107 79
107 80
108 81
108 82
109 83
109 84
110 85
111 86
111 85
112 84
112 83
112 82
112 81
111 81
110 80
111 79
111 78
111 77
111 76
112 75
113 75
114 75
115 75
116 75
117 75
118 75
119 75
120 75
121 75
122 75
123 74
124 74
125 74
126 74
127 74
128 74
129 73
130 73
131 73
132 74
133 73
134 73
135 73
136 72
137 72
138 72
139 71
140 72
141 73
142 74
142 73
143 72
144 73
144 74
144 75
144 76
143 77
143 78
143 79
144 78
145 79
145 80
146 81
147 82
148 82
149 82
149 81
149 80
149 79
150 78
149 78
148 77
149 76
149 75
149 74
149 73
150 72
151 73
151 74
152 75
152 76
153 77
153 78
154 79
155 80
156 81
156 82
157 83
158 84
159 85
160 86
161 87
162 88
163 88
164 87
165 87
166 87
167 87
168 87
169 86
170 85
171 85
172 84
173 83
174 83
175 82
176 82
177 81
178 80
179 79
180 79
181 78
182 77
183 76
184 75
185 74
186 73
187 73
187 72
188 71
189 70
190 69
191 68
192 68
193 67
194 66
195 66
195 65
196 64
197 64
197 63
198 62
199 62
200 61
201 60
202 60
203 59
204 58
205 57
206 57
207 56
208 56
209 55
210 55
211 55
212 55
213 55
214 54
215 54
216 54
217 54
218 54
219 54
220 54
221 54
222 54
223 54
224 54
225 53
226 53
227 53
228 53
229 53
230 53
231 53
232 53
233 53
234 53
235 53
236 53
237 53
238 53
239 53
240 53
241 53
242 53
243 53
244 54
245 54
246 54
247 55
248 55
249 56
250 56
251 57
252 57
253 57
254 58
255 58
256 59
257 59
258 60
259 60
260 60
261 60
262 60
263 61
264 61
265 61
266 62
267 62
268 62
269 62
270 62
271 62
272 62
273 62
274 62
275 63
276 62
277 62
278 61
279 61
280 61
281 60
282 60
282 59
283 58
284 57
284 56
285 55
285 54
286 53
286 52
286 51
287 50
287 49
287 48
287 47
288 46
288 45
288 44
288 43
288 42
287 42
286 41
287 40
287 39
287 38
287 37
287 36
286 36
285 35
286 34
286 33
286 32
286 31
285 31
284 30
285 29
284 29
283 28
282 27
283 26
282 26
281 25
280 24
279 24
278 23
277 22
276 22
275 23
274 23
273 23
272 23
271 24
270 24
269 24
268 24
267 24
266 24
265 24
264 25
263 25
262 25
261 26
260 27
259 27
258 28
257 28
256 29
255 29
254 30
253 30
252 31
251 31
250 31
249 31
248 32
247 33
246 33
245 34
244 34
243 35
242 35
241 36
240 36
239 36
238 36
237 36
236 36
235 36
234 36
233 36
232 36
231 36
230 36
229 36
228 36
227 36
226 36
225 36
224 36
223 36
222 36
221 36
220 36
219 36
218 36
217 36
216 36
215 36
214 36
213 36
212 35
211 35
210 35
209 34
210 33
209 33
208 32
209 31
208 31
207 30
206 29
205 28
204 27
203 26
202 25
201 24
200 24
199 23
198 22
197 21
198 20
197 20
196 19
195 18
196 17
195 17
194 17
193 16
192 15
191 14
190 13
191 12
190 12
189 12
188 11
189 10
188 10
187 9
186 9
185 9
184 8
183 8
182 7
183 6
182 6
181 5
180 4
179 4
178 4
177 3
176 2
175 2
174 2
173 2
