166 2
166 3
165 4
164 5
163 5
162 6
161 6
160 6
159 6
159 7
158 8
157 8
156 9
155 10
154 11
153 10
152 11
151 12
150 12
149 13
149 14
148 15
147 16
146 17
145 18
144 17
143 17
142 18
141 17
141 16
140 16
139 17
138 17
137 16
136 16
135 16
134 17
133 18
132 17
132 16
133 15
132 15
131 16
130 16
129 15
128 15
127 16
126 16
125 17
124 17
123 16
124 15
123 15
122 15
121 16
120 16
119 15
119 14
118 14
117 15
116 14
116 13
115 13
114 13
113 14
112 15
111 15
110 15
109 14
110 13
111 13
111 12
112 11
111 11
110 12
109 12
108 13
107 14
106 15
105 15
104 14
105 13
106 12
106 11
105 11
104 12
103 12
103 13
102 14
101 14
100 14
99 13
99 12
100 11
99 11
98 11
98 12
97 13
96 13
95 13
94 12
95 11
94 11
93 11
93 12
92 13
91 13
90 12
90 11
90 10
89 10
88 11
87 12
86 12
85 11
85 10
86 9
85 9
84 10
83 11
82 12
81 12
80 11
80 10
80 9
81 8
80 8
79 9
78 10
77 10
76 11
75 11
74 11
73 11
72 11
71 12
70 11
69 11
68 12
67 12
66 12
65 12
64 12
63 12
62 12
61 12
60 12
59 11
58 12
57 11
56 11
55 11
54 11
53 11
52 11
51 11
50 11
49 11
48 11
47 11
46 11
45 11
44 11
43 11
42 11
41 11
40 11
39 11
38 11
37 11
36 11
35 12
34 12
33 12
32 13
31 13
30 14
29 14
28 14
27 14
26 14
25 14
24 14
23 14
22 14
21 14
20 14
19 13
18 13
17 12
16 13
15 13
14 12
13 12
12 12
11 12
10 11
9 11
8 11
7 10
6 10
5 9
4 9
4 10
3 11
2 11
2 12
2 13
2 14
3 15
4 16
5 16
6 17
7 18
8 19
9 20
10 21
10 22
11 22
12 23
13 23
14 23
15 24
15 25
16 24
17 24
18 24
19 25
20 26
21 25
22 26
23 26
24 26
25 26
26 27
27 27
28 27
29 28
30 28
31 28
32 28
33 29
34 29
35 29
36 29
37 30
38 30
39 30
40 31
41 31
42 31
43 31
44 31
45 32
46 32
47 32
48 32
49 32
50 33
51 33
52 33
53 34
54 34
55 34
56 34
57 34
58 35
59 35
60 35
61 35
62 35
63 35
64 36
65 36
66 36
67 37
68 37
69 37
70 37
71 37
72 38
73 38
74 38
75 38
76 39
77 39
78 39
79 40
80 41
81 42
82 43
83 44
84 45
85 46
85 47
86 47
87 48
88 47
89 48
89 49
90 50
91 50
92 50
93 50
94 50
95 50
96 50
97 49
98 49
99 48
100 48
101 47
101 46
102 45
102 44
103 43
104 44
105 44
106 44
107 44
108 45
109 45
110 45
111 46
111 47
112 48
113 49
114 48
115 49
116 50
117 50
118 51
119 51
119 50
119 49
118 48
119 47
120 47
121 47
122 47
123 47
124 47
125 47
126 47
127 48
128 48
129 48
130 48
131 48
132 48
133 48
134 48
135 48
136 49
136 50
137 51
138 50
139 51
140 52
140 53
141 54
141 55
142 56
143 57
143 58
144 59
144 60
145 61
146 62
147 63
148 64
149 65
150 66
151 67
152 67
153 68
154 69
155 69
156 69
157 70
158 70
159 70
160 69
161 69
162 68
163 68
164 67
165 66
166 65
167 64
168 63
169 62
170 61
171 60
172 59
173 58
173 57
174 56
175 55
176 54
176 53
177 52
177 51
178 50
178 49
179 48
180 48
181 48
182 48
183 48
184 48
185 48
186 48
187 48
188 48
189 48
190 48
191 48
192 47
193 47
194 47
195 47
196 47
197 47
198 47
199 47
200 47
201 47
202 47
203 47
204 47
205 47
206 47
207 47
208 47
209 47
210 47
211 47
212 47
213 47
214 47
215 47
216 47
217 46
218 46
219 46
220 46
221 46
222 46
223 46
224 46
225 46
226 46
227 46
228 46
229 46
230 46
231 46
232 46
233 45
234 45
235 45
236 45
237 45
238 45
239 45
240 45
241 45
242 45
243 45
244 45
245 45
246 45
247 45
248 45
249 45
250 45
251 46
252 45
253 46
254 46
255 46
256 46
257 46
258 47
259 47
260 47
261 47
262 47
263 48
264 49
265 49
266 50
267 51
268 52
269 53
270 53
271 54
272 55
273 56
274 56
275 57
276 57
277 58
278 58
279 58
280 58
281 59
282 59
283 58
284 58
285 58
286 57
287 56
288 55
288 54
289 53
290 52
290 51
291 50
291 49
291 48
291 47
291 46
292 45
292 44
292 43
292 42
292 41
292 40
292 39
291 38
292 37
292 36
292 35
292 34
292 33
291 33
290 32
291 31
290 31
289 30
290 29
289 29
288 28
287 27
286 27
285 26
284 27
283 27
282 26
281 26
280 27
279 27
278 28
277 28
276 29
275 29
274 30
273 31
272 31
271 32
270 32
269 33
268 34
267 34
266 35
265 35
264 36
263 37
262 37
261 37
260 38
259 38
258 38
257 39
256 39
255 40
254 40
253 40
252 40
251 40
250 40
249 40
248 40
247 40
246 40
245 40
244 40
243 40
242 40
241 40
240 40
239 40
238 40
237 40
236 40
235 40
234 40
233 40
232 40
231 40
230 40
229 40
228 40
227 40
226 40
225 40
224 40
223 40
222 40
221 39
220 39
219 39
218 39
217 39
216 39
215 38
214 38
213 38
212 38
211 38
210 38
209 37
208 37
207 37
206 37
205 37
204 37
203 37
202 36
201 36
200 36
199 36
198 36
197 35
196 35
195 35
194 35
193 35
192 34
191 34
190 34
189 34
188 34
187 33
186 33
185 33
184 32
183 32
182 32
181 32
180 31
179 31
178 30
179 29
179 28
179 27
178 27
177 26
178 25
178 24
177 23
178 22
178 21
177 21
176 20
177 19
177 18
176 17
176 16
175 15
176 14
175 14
174 13
175 12
175 11
175 10
174 9
174 8
173 7
172 6
173 5
173 4
172 4
171 4
170 3
171 2
170 2
169 2
168 2
167 2
