123 2
123 3
122 4
122 5
121 6
120 7
120 8
119 9
119 10
118 11
118 12
117 13
117 14
116 15
116 16
116 17
116 18
115 19
114 20
114 21
114 22
114 23
113 24
112 24
111 24
110 24
109 24
108 24
107 24
106 24
105 24
104 23
103 23
102 23
101 23
100 23
99 23
98 23
97 23
96 23
95 23
94 23
93 23
92 23
91 23
90 23
89 23
88 23
87 23
86 23
85 23
84 23
83 23
82 23
81 23
80 23
79 23
78 23
77 23
76 23
75 23
74 23
73 23
72 23
71 23
70 23
69 23
68 24
67 24
66 24
65 24
64 24
63 24
62 24
61 24
60 25
59 25
58 25
57 25
56 25
55 25
54 25
53 26
52 26
51 26
50 26
49 27
48 27
47 27
46 27
45 28
44 28
43 28
42 29
41 29
40 29
39 29
38 30
37 30
36 30
35 31
34 31
33 31
32 31
31 32
30 32
29 32
28 33
27 33
26 33
25 34
24 34
23 34
22 35
21 35
20 35
19 35
18 35
17 36
16 36
15 37
14 37
13 37
12 38
11 39
10 40
9 40
8 41
7 41
6 42
5 42
4 42
3 43
3 44
2 45
2 46
2 47
2 48
2 49
2 50
2 51
3 52
4 53
5 54
6 55
7 56
8 57
8 58
9 59
10 60
11 61
12 62
12 63
13 64
14 64
15 64
16 65
17 66
18 67
19 68
20 68
21 68
22 69
23 69
24 70
25 70
26 71
27 71
28 71
29 71
30 71
31 71
32 72
33 72
34 72
35 72
36 73
37 73
38 73
39 73
40 73
41 74
42 74
43 74
44 74
45 74
46 75
47 75
48 75
49 75
50 75
51 75
52 76
53 76
54 76
55 76
56 76
57 76
58 76
59 76
60 76
61 76
62 76
63 76
64 76
65 77
66 78
67 79
67 80
67 81
68 82
68 83
68 84
68 85
68 86
69 87
69 88
69 89
69 90
70 91
70 92
70 93
71 94
72 95
72 96
72 97
73 98
74 98
75 99
76 100
77 101
78 102
79 103
80 103
81 102
82 101
83 100
84 99
85 100
86 100
87 101
88 102
89 102
90 102
91 102
92 102
93 101
94 101
95 101
96 101
97 100
98 99
99 99
99 98
100 97
100 96
101 95
101 94
102 93
102 92
103 91
103 90
102 90
101 89
102 88
101 88
100 87
101 86
100 86
99 86
98 85
97 84
96 83
95 82
96 81
97 81
98 81
99 81
100 81
101 81
102 82
103 82
104 82
105 82
106 82
107 82
108 82
109 82
110 82
111 82
112 82
113 82
114 82
115 82
116 82
117 82
118 82
119 82
120 82
121 82
122 82
123 82
124 82
125 82
126 82
127 82
128 82
129 82
130 82
131 82
132 82
133 82
134 82
135 82
136 81
137 81
138 81
139 81
140 81
141 81
142 81
143 81
144 81
145 81
146 81
147 81
148 81
149 80
150 80
151 80
152 80
153 80
154 80
155 80
156 80
157 80
158 80
159 80
160 80
161 80
162 81
162 82
163 83
164 84
164 85
164 86
165 87
165 88
166 89
166 90
167 91
167 92
168 93
169 93
170 93
171 93
172 94
173 95
174 96
174 97
175 98
176 99
176 100
177 100
178 101
179 102
179 103
180 102
181 101
182 100
183 99
183 98
184 97
185 96
185 95
186 94
187 94
187 93
188 92
189 91
190 90
190 89
191 88
192 87
193 86
194 85
195 84
196 83
197 83
198 83
199 82
200 82
201 81
202 81
203 80
204 80
205 80
206 80
207 80
208 80
209 80
209 79
210 78
209 78
208 78
207 77
206 77
205 76
204 75
203 75
202 74
201 73
202 72
203 72
204 72
205 71
206 71
207 71
208 71
209 71
210 71
211 71
212 71
213 71
214 70
215 70
216 70
217 70
218 70
219 70
220 70
221 70
222 69
223 69
224 69
225 69
226 69
227 69
228 69
229 69
230 69
231 69
232 70
233 70
234 70
235 70
236 70
237 71
238 71
239 71
240 71
241 72
242 72
243 73
244 73
245 74
246 75
247 75
248 76
249 77
250 77
251 78
252 78
253 79
254 79
255 80
256 80
257 81
258 81
259 82
260 82
261 83
261 84
262 84
263 85
264 85
265 86
266 86
267 87
268 87
269 88
270 88
271 89
272 89
273 90
274 90
275 91
276 91
277 91
278 92
279 92
280 92
281 93
282 93
283 93
284 93
285 93
286 94
287 93
287 92
288 91
288 90
288 89
288 88
288 87
287 87
286 86
287 85
287 84
287 83
286 83
285 82
285 81
285 80
284 79
285 78
284 78
283 77
282 76
283 75
283 74
282 74
281 73
280 72
281 71
280 71
279 71
278 70
279 69
278 69
277 68
278 67
277 67
276 66
275 65
276 64
275 64
274 63
273 62
272 61
273 60
273 59
272 59
271 58
272 57
271 57
270 56
271 55
272 54
272 53
273 52
273 51
274 50
275 49
276 48
276 47
277 46
278 46
279 45
279 44
280 43
280 42
281 41
282 40
282 39
283 38
283 37
284 36
284 35
285 34
285 33
286 32
286 31
287 30
287 29
288 28
287 27
287 26
288 25
288 24
288 23
287 23
286 23
285 22
284 23
283 23
282 23
281 24
280 24
279 24
278 24
277 25
276 25
275 26
274 26
273 26
272 27
271 27
270 28
269 28
268 29
267 29
266 30
265 30
264 30
263 31
262 32
261 32
260 33
259 33
258 34
257 34
256 35
255 35
254 35
253 36
252 36
251 37
250 38
249 38
248 39
247 39
246 40
245 40
244 41
243 41
242 42
241 42
240 42
239 43
238 43
237 43
236 43
235 43
234 43
233 43
232 43
231 43
230 43
229 43
228 43
227 43
226 43
225 43
224 43
223 43
222 43
221 42
220 42
219 42
218 42
217 42
216 42
215 42
214 42
213 42
212 42
211 42
210 42
209 42
208 42
207 42
206 42
205 42
204 41
203 41
202 40
203 39
204 38
205 37
206 37
207 36
208 35
209 35
209 34
210 33
209 33
208 32
207 31
208 30
207 30
206 29
205 29
204 29
203 28
204 27
203 27
202 26
201 26
200 25
201 24
201 23
200 23
199 22
198 21
197 20
196 20
195 19
196 18
195 18
194 17
195 16
195 15
195 14
195 13
194 13
193 13
192 12
193 11
192 11
191 10
190 9
191 8
190 8
189 7
190 6
189 6
188 6
187 6
186 5
187 4
186 4
185 5
184 6
183 6
182 7
181 7
180 7
179 8
178 9
178 10
177 11
176 12
175 13
174 14
174 15
173 16
172 17
172 18
171 19
170 20
169 21
169 22
168 23
168 24
167 25
166 26
165 27
165 28
164 29
163 30
163 31
162 32
161 31
160 31
159 31
158 31
157 30
156 30
155 30
154 30
153 30
152 30
151 29
150 29
149 29
148 29
147 28
146 28
145 28
144 28
143 28
142 28
141 27
140 27
139 26
138 25
137 24
138 23
137 23
136 22
137 21
137 20
137 19
138 18
137 18
136 18
135 18
134 17
135 16
135 15
136 14
136 13
136 12
135 12
134 13
133 13
132 12
133 11
133 10
133 9
133 8
133 7
133 6
132 6
131 6
130 7
129 8
128 8
127 7
126 6
125 6
124 5
125 4
125 3
125 2
124 2
