219 1
219 2
219 3
218 4
217 5
216 6
215 6
214 6
213 5
212 4
213 3
212 2
211 2
211 3
210 4
210 5
209 6
208 7
207 7
206 7
205 7
204 6
203 5
202 4
203 3
202 2
201 2
201 3
201 4
201 5
201 6
200 7
199 8
198 9
197 9
196 8
195 7
195 6
194 6
194 7
194 8
193 9
193 10
192 11
191 11
190 11
189 11
188 10
188 9
188 8
187 7
186 7
186 8
186 9
187 10
186 11
186 12
185 13
184 14
183 15
182 14
181 14
180 13
181 12
180 11
179 10
178 10
178 11
178 12
179 13
179 14
179 15
178 16
178 17
177 18
176 19
175 18
174 17
173 16
173 15
172 15
172 16
172 17
172 18
172 19
172 20
172 21
171 22
170 23
169 22
168 21
168 20
167 20
167 21
167 22
167 23
167 24
167 25
166 26
165 26
164 26
163 25
164 24
163 23
162 22
161 22
161 23
161 24
162 25
162 26
162 27
162 28
161 29
160 29
159 28
159 27
158 27
158 28
158 29
158 30
157 31
156 31
155 30
155 29
154 28
153 28
153 29
153 30
154 31
154 32
153 33
152 33
151 32
150 32
150 33
150 34
149 35
148 34
147 34
147 35
147 36
147 37
146 38
145 38
144 37
144 36
143 35
142 35
142 36
142 37
143 38
142 39
141 39
140 38
139 37
138 37
137 36
136 35
137 34
136 34
135 34
134 33
133 32
132 31
131 30
131 29
130 29
129 29
129 30
128 31
127 30
126 30
125 29
124 28
123 28
122 27
121 27
120 27
119 27
118 28
117 28
116 29
115 29
114 30
113 31
112 32
111 33
110 34
109 34
109 35
108 36
107 37
106 37
105 38
104 39
103 40
102 41
101 42
100 43
99 44
99 45
98 46
97 47
96 48
95 49
95 50
94 51
94 52
93 53
93 54
92 55
92 56
93 57
94 57
95 58
96 59
97 59
98 60
99 61
100 61
101 62
102 62
103 63
104 63
105 64
104 65
103 65
102 65
101 65
100 66
99 66
98 66
97 66
96 66
95 66
94 66
93 67
92 67
91 67
90 67
89 67
88 67
87 67
86 67
85 67
84 67
83 67
82 67
81 67
80 67
79 66
78 66
77 66
76 66
75 65
74 65
73 65
72 65
71 64
70 63
69 63
68 63
67 62
66 62
65 61
64 60
63 60
62 59
61 58
60 58
59 57
58 56
57 56
56 56
55 55
54 54
53 54
52 53
51 52
50 52
49 52
48 51
47 51
46 50
45 50
44 49
43 49
42 49
41 48
40 48
39 47
38 47
37 46
36 46
35 45
34 45
33 45
32 44
31 43
30 43
29 42
28 42
27 41
26 41
25 41
24 41
23 40
22 40
21 39
20 39
19 39
18 38
17 38
16 38
15 38
14 38
13 37
12 37
11 37
10 37
9 37
8 36
7 36
6 36
5 36
4 36
4 37
4 38
4 39
4 40
4 41
5 42
5 43
5 44
5 45
5 46
5 47
6 48
6 49
6 50
7 51
7 52
7 53
8 54
8 55
9 56
9 57
10 58
10 59
10 60
10 61
11 61
12 62
12 63
13 64
13 65
14 66
15 67
15 68
16 69
17 70
18 71
19 72
19 73
20 74
21 75
21 76
21 77
21 78
20 79
20 80
19 81
19 82
18 83
18 84
17 85
17 86
16 87
16 88
15 89
14 88
13 89
13 90
13 91
12 92
12 93
11 94
10 95
10 96
10 97
10 98
9 99
9 100
9 101
8 102
8 103
8 104
7 105
7 106
7 107
7 108
6 109
6 110
6 111
6 112
6 113
7 114
8 114
9 114
10 114
11 115
12 114
13 114
14 114
15 114
16 114
17 114
18 113
19 113
20 113
21 113
22 113
23 112
24 112
25 112
26 111
27 111
28 110
29 110
30 110
31 110
32 109
33 109
34 109
35 108
36 107
37 107
38 107
39 106
40 106
41 105
42 105
43 104
44 104
45 103
46 103
47 102
48 102
49 101
50 101
51 100
52 99
53 99
54 99
55 98
56 98
57 97
58 97
59 96
60 96
61 96
62 95
63 95
64 94
65 94
66 93
67 93
68 92
69 92
70 92
71 91
72 91
73 91
74 91
75 90
76 90
77 90
78 90
79 89
80 89
81 89
82 89
83 89
84 89
85 89
86 89
87 89
88 89
89 89
90 89
91 89
92 89
93 88
94 88
95 89
96 89
97 89
98 89
99 89
100 89
101 89
102 89
103 89
104 89
105 89
106 89
107 89
108 89
109 90
110 90
111 90
112 90
113 90
114 90
115 90
116 91
117 91
118 91
119 91
120 91
121 92
120 93
119 94
118 94
117 94
116 94
115 95
114 95
113 95
112 95
111 95
110 95
109 96
108 95
107 96
106 95
105 95
104 95
103 96
102 97
102 98
101 99
101 100
101 101
100 102
100 103
100 104
100 105
99 106
99 107
100 108
100 109
100 110
100 111
100 112
100 113
100 114
100 115
100 116
100 117
101 118
101 119
102 120
103 120
104 121
105 121
106 121
107 121
108 121
109 121
110 121
111 120
112 120
113 119
114 119
115 118
116 118
117 117
118 117
119 116
120 116
121 116
122 117
121 118
120 119
119 120
118 121
117 121
116 122
115 123
114 123
114 124
114 125
115 125
116 125
117 124
118 123
119 122
120 122
121 121
122 121
123 120
124 119
125 119
126 118
127 118
128 117
129 117
130 117
131 117
132 118
132 119
131 120
130 121
129 122
128 123
127 124
127 125
128 125
129 124
130 123
131 122
132 121
133 121
134 120
135 119
136 118
137 117
138 116
139 115
140 114
141 113
142 112
143 111
144 110
145 110
146 109
147 108
148 107
149 106
150 105
151 105
152 104
153 103
154 102
155 101
156 101
157 102
158 102
159 102
160 103
161 104
162 104
163 105
164 105
165 105
166 106
167 106
168 106
169 106
170 106
171 107
172 107
173 107
174 107
175 107
176 107
177 107
178 107
179 108
180 108
181 108
182 108
183 108
184 108
185 108
186 108
187 109
188 109
189 109
190 109
191 109
192 109
193 109
194 109
195 109
196 109
197 110
198 109
199 109
200 109
201 109
202 109
203 109
204 109
205 109
206 109
207 109
208 109
209 109
210 110
211 110
212 110
213 110
214 109
215 109
216 109
217 109
218 109
219 109
220 109
221 109
222 109
223 109
224 109
225 110
224 111
223 111
222 112
221 112
220 112
219 113
218 113
217 114
216 114
215 114
214 115
213 115
212 115
211 116
210 116
209 117
208 118
207 119
207 120
206 121
206 122
205 123
205 124
205 125
205 126
205 127
205 128
205 129
205 130
206 131
206 132
206 133
206 134
206 135
206 136
206 137
206 138
206 139
206 140
207 141
207 142
207 143
207 144
208 145
208 146
209 147
209 148
210 148
211 149
212 149
213 150
214 149
215 149
216 148
217 147
218 147
219 146
220 145
221 144
222 143
223 143
223 142
224 141
225 140
226 140
227 139
228 138
229 137
230 136
231 137
231 138
231 139
232 140
233 141
232 142
231 142
231 143
232 144
233 145
234 144
234 143
235 142
236 143
237 144
237 143
238 142
238 141
239 140
239 139
239 138
240 137
240 136
241 135
241 134
241 133
242 132
242 131
242 130
243 129
244 130
244 131
244 132
244 133
245 134
245 135
246 134
246 133
247 132
247 131
247 130
247 129
247 128
247 127
248 126
248 125
248 124
248 123
248 122
247 122
246 121
247 120
247 119
248 118
248 117
249 116
249 115
249 114
249 113
249 112
249 111
250 110
251 110
252 110
253 110
254 110
255 110
256 110
257 110
258 110
259 111
259 112
260 112
260 111
261 110
262 110
263 110
264 110
265 110
266 110
267 110
268 110
269 109
270 109
271 109
272 109
273 109
274 109
275 109
276 109
277 109
278 109
279 109
280 108
281 108
282 108
283 107
284 107
285 107
286 107
287 107
288 107
289 107
290 107
291 107
292 107
293 107
294 107
295 107
296 106
297 106
298 106
299 106
300 106
301 106
302 105
303 105
304 105
305 105
306 105
307 106
308 105
309 105
310 104
311 105
312 104
313 104
314 104
315 104
316 104
317 104
318 104
319 103
320 103
321 103
322 103
323 102
324 102
325 102
326 101
327 101
328 100
329 99
330 98
330 97
329 96
328 96
327 95
328 94
329 94
330 93
331 93
331 92
332 91
332 90
332 89
332 88
331 88
330 87
331 86
331 85
330 85
329 84
328 83
329 82
328 82
327 81
326 80
327 79
326 79
325 78
324 78
323 77
322 76
321 76
320 75
319 74
318 74
317 73
316 73
315 72
314 72
313 71
312 71
311 70
310 70
309 69
308 69
307 68
306 67
305 66
304 65
303 65
302 64
301 64
300 64
299 63
298 63
297 63
296 63
295 62
294 62
293 61
292 61
291 60
290 60
289 59
288 59
287 58
286 58
285 57
284 56
283 56
282 56
281 55
280 55
279 54
278 54
277 53
276 53
275 52
274 52
273 52
272 51
271 50
270 50
269 49
268 49
267 49
266 48
265 48
264 47
263 47
262 47
261 46
260 46
259 46
258 45
257 45
256 45
255 44
254 44
253 43
252 43
251 43
250 42
249 42
248 42
247 42
246 41
245 40
246 39
246 38
246 37
246 36
247 35
247 34
247 33
247 32
247 31
247 30
247 29
247 28
248 27
247 27
246 28
246 29
245 30
244 31
243 30
242 30
241 29
240 28
241 27
240 27
239 26
240 25
240 24
240 23
240 22
240 21
240 20
240 19
239 19
238 20
238 21
237 22
236 23
235 23
234 23
233 22
234 21
233 21
232 20
233 19
232 19
231 18
232 17
232 16
232 15
232 14
232 13
231 13
230 12
231 11
231 10
231 9
231 8
231 7
231 6
230 6
229 5
230 4
230 3
229 2
228 2
228 3
227 4
226 5
225 5
224 6
223 6
222 5
221 5
220 4
221 3
221 2
220 1
