175 3
174 4
173 4
172 5
171 5
170 6
169 6
168 7
167 8
166 8
165 9
164 9
163 10
162 11
161 11
160 12
159 12
158 13
157 14
156 15
155 16
154 17
153 18
152 19
151 19
150 20
149 21
148 22
147 23
146 23
145 24
144 25
143 26
142 27
141 28
140 29
139 30
138 31
137 32
136 33
135 34
134 34
133 35
132 36
131 37
130 38
129 37
129 36
130 35
130 34
130 33
131 32
131 31
132 30
131 30
130 31
129 32
128 33
127 34
127 35
126 36
125 37
125 38
124 39
123 40
122 41
121 40
121 39
121 38
122 37
122 36
123 35
123 34
122 34
121 35
121 36
120 37
119 38
119 39
118 40
117 41
116 42
115 43
114 44
113 45
112 46
111 47
110 47
109 48
108 49
107 49
106 50
105 50
104 51
103 51
102 52
101 52
100 52
99 52
98 53
97 53
96 54
95 54
94 55
93 55
92 56
91 56
90 56
89 57
88 57
87 58
86 58
85 59
84 59
83 60
82 60
81 61
80 61
79 62
78 62
77 63
76 63
75 63
74 64
73 64
72 65
71 66
70 66
69 67
68 67
67 68
66 69
65 70
64 70
63 71
62 71
61 71
60 72
59 72
58 72
57 72
56 73
55 73
54 73
53 74
52 74
51 74
50 75
49 75
48 75
47 76
46 76
45 76
44 77
43 77
42 78
41 78
40 78
39 78
38 79
37 79
36 80
35 80
34 81
33 81
32 81
31 82
30 82
29 82
28 83
27 83
26 84
25 84
24 84
23 84
22 85
21 85
20 85
19 85
18 85
17 85
16 85
15 85
14 85
13 85
12 86
11 86
10 86
9 85
8 85
7 85
6 85
5 86
4 85
3 85
3 86
2 87
2 88
2 89
2 90
2 91
2 92
3 93
3 94
4 95
4 96
5 97
6 98
6 99
7 100
7 101
8 102
8 103
9 104
9 105
9 106
10 107
10 108
10 109
10 110
11 111
11 112
11 113
12 114
12 115
13 116
13 117
14 118
15 119
15 120
15 121
15 122
16 123
17 124
18 125
19 126
20 127
21 128
22 129
23 130
24 131
25 132
26 133
27 134
27 135
28 136
29 137
30 138
31 139
32 140
33 141
34 142
35 143
36 143
37 143
38 144
39 145
40 146
41 147
42 148
43 149
44 150
45 151
45 152
46 153
47 154
48 155
49 156
49 157
50 158
51 159
52 160
53 161
53 162
54 163
55 164
56 165
57 165
58 166
59 167
60 168
61 169
62 170
63 171
64 171
65 172
66 173
67 174
68 174
69 175
70 176
71 177
72 177
73 178
73 179
73 180
73 181
73 182
73 183
73 184
73 185
73 186
73 187
73 188
73 189
73 190
74 191
74 192
74 193
74 194
74 195
75 196
75 197
75 198
76 199
76 200
76 201
77 202
77 203
78 204
78 205
78 206
79 207
79 208
80 209
81 210
82 211
82 212
83 212
84 213
85 213
86 212
87 212
88 211
89 212
90 213
91 214
92 214
93 215
94 215
95 215
96 216
97 216
98 216
99 216
100 216
101 216
102 216
103 216
104 216
105 216
106 216
107 216
108 216
109 216
110 216
111 216
112 216
113 216
114 215
114 214
115 213
115 212
115 211
115 210
115 209
116 208
116 207
116 206
116 205
116 204
117 203
117 202
117 201
117 200
117 199
117 198
117 197
117 196
116 195
117 194
116 194
115 193
116 192
115 192
114 191
115 190
114 190
113 189
112 188
113 187
114 187
115 187
116 187
117 187
118 187
119 188
120 188
121 188
122 188
123 188
124 188
125 189
126 189
127 190
128 191
128 192
128 193
129 194
130 194
131 193
132 194
132 195
133 196
133 197
134 198
134 197
135 196
136 197
137 197
137 196
138 195
139 196
140 197
141 197
142 197
143 198
144 199
145 200
146 200
147 201
148 200
149 200
150 200
151 201
152 201
153 201
154 201
155 202
156 202
157 203
158 203
159 203
160 203
161 203
162 203
163 204
164 204
165 204
166 204
167 205
168 204
169 204
170 204
171 204
172 204
173 204
174 204
175 204
176 204
177 203
178 203
179 203
180 203
181 203
182 203
183 203
184 203
185 203
186 203
187 203
188 202
189 202
190 202
191 202
192 202
193 201
194 202
195 201
196 201
197 201
198 201
199 200
200 200
201 200
202 200
203 199
204 199
205 198
206 198
207 198
208 197
209 197
210 197
211 196
212 195
213 195
214 195
215 194
216 194
217 194
218 193
219 192
220 191
221 190
222 190
222 189
223 188
224 187
225 186
226 186
226 185
227 184
227 183
227 182
228 181
228 180
227 180
226 179
225 178
224 178
223 177
222 176
221 175
220 175
219 174
218 173
217 173
216 172
215 172
214 171
213 170
212 169
211 168
210 167
210 166
211 165
212 164
213 163
214 163
215 163
216 162
217 162
218 162
219 161
220 161
221 161
222 161
223 161
224 161
225 161
226 161
227 162
228 162
229 162
230 162
231 163
232 163
233 163
234 163
235 164
236 165
237 165
238 166
239 167
240 168
241 169
242 169
243 170
244 171
245 172
246 172
247 172
248 173
249 174
250 175
251 175
252 176
253 177
254 178
255 178
256 179
257 179
258 179
259 180
260 181
261 182
262 183
263 183
264 183
265 184
266 185
267 186
268 186
269 186
270 187
271 188
272 188
273 187
274 187
275 186
276 186
277 186
278 185
279 185
280 184
281 183
282 183
283 182
284 181
285 180
286 179
287 178
287 177
288 176
288 175
289 174
290 173
290 172
291 171
291 170
291 169
292 168
292 167
292 166
293 165
293 164
294 163
294 162
294 161
294 160
295 159
295 158
295 157
295 156
296 155
296 154
296 153
296 152
295 151
296 150
296 149
296 148
297 147
297 146
296 146
295 145
296 144
295 143
295 142
296 141
296 140
296 139
296 138
296 137
295 137
294 136
293 135
294 134
293 133
293 132
292 131
291 130
292 129
291 129
290 129
289 129
288 129
287 128
286 128
285 128
284 128
283 128
282 128
281 128
280 128
279 128
278 128
277 128
276 128
275 128
274 128
273 128
272 128
271 129
270 129
269 129
268 129
267 129
266 129
265 129
264 129
263 130
262 130
261 130
260 130
259 130
258 131
257 131
256 131
255 131
254 131
253 131
252 131
251 131
250 132
249 132
248 132
247 133
246 133
245 134
244 135
243 135
242 135
241 134
240 134
239 134
238 134
237 134
236 133
235 133
234 133
233 133
232 132
231 132
230 131
229 130
228 130
227 129
228 128
229 127
230 128
231 128
232 129
233 130
234 130
235 131
236 131
237 131
238 131
239 131
240 131
241 131
241 130
242 129
243 128
243 127
244 126
245 125
245 124
246 123
247 122
247 121
248 120
248 119
248 118
249 117
249 116
249 115
249 114
249 113
250 112
250 111
250 110
250 109
250 108
250 107
250 106
250 105
250 104
249 104
248 103
249 102
249 101
249 100
249 99
248 99
247 98
246 97
247 96
246 96
245 95
246 94
246 93
245 93
244 92
245 91
244 91
243 90
244 89
243 89
242 88
241 87
242 86
241 86
240 85
239 84
238 83
239 82
238 82
237 81
236 81
235 80
234 79
233 78
232 78
231 77
230 76
229 75
228 74
227 73
226 72
225 71
224 70
223 69
222 68
221 67
220 67
219 66
218 66
217 65
216 65
215 65
214 64
213 64
212 64
211 63
210 63
209 63
208 63
207 63
206 62
205 62
204 62
203 62
202 62
201 62
200 62
199 61
198 61
197 61
196 61
195 61
194 61
193 61
192 62
191 62
190 61
190 60
190 59
191 58
191 57
192 56
193 55
194 54
195 54
196 53
197 52
198 52
199 51
200 50
200 49
199 49
198 49
197 49
196 49
195 49
194 49
193 48
194 47
194 46
194 45
195 44
196 43
197 42
198 41
199 41
200 40
200 39
199 39
198 39
197 40
196 40
195 41
194 41
193 41
192 41
191 42
190 42
189 42
188 42
187 42
186 42
185 42
184 41
185 40
184 39
184 38
184 37
184 36
185 35
185 34
186 33
187 32
188 31
189 30
189 29
190 28
189 28
188 29
187 29
186 29
185 30
184 30
183 31
182 31
181 31
180 31
179 32
178 32
177 32
176 31
175 30
174 29
175 28
175 27
175 26
176 25
176 24
177 23
178 22
179 21
179 20
178 20
177 21
176 22
175 23
174 23
173 24
172 24
171 24
170 23
171 22
171 21
171 20
171 19
171 18
171 17
172 16
173 15
174 14
175 13
175 12
174 12
173 13
172 14
171 15
170 15
169 15
168 16
167 16
166 15
167 14
167 13
167 12
167 11
167 10
168 9
169 8
170 8
171 7
172 6
173 6
174 5
175 5
175 4
176 3
