136 4
136 5
135 6
134 5
133 5
132 5
131 5
131 6
130 7
130 8
129 9
128 8
128 9
127 10
126 11
125 12
124 13
123 14
122 13
122 14
121 15
120 14
120 15
119 16
118 17
117 16
116 16
116 17
115 18
114 17
114 18
113 19
112 18
111 18
111 19
110 20
109 19
109 20
108 21
107 20
107 21
106 22
105 23
104 22
104 23
103 24
102 23
102 24
101 25
100 24
100 25
99 26
98 27
97 28
96 27
96 28
95 29
94 30
93 29
92 29
91 29
91 30
90 31
90 32
90 33
89 34
88 35
87 34
86 34
86 35
85 36
84 35
84 36
83 37
82 36
82 37
81 38
80 37
80 38
79 39
79 40
78 41
77 42
77 43
76 44
76 45
76 46
76 47
75 48
75 49
75 50
75 51
75 52
75 53
76 54
76 55
75 56
75 57
75 58
75 59
75 60
75 61
76 62
76 63
76 64
76 65
76 66
76 67
77 68
77 69
78 70
78 71
78 72
78 73
77 74
76 73
76 74
75 75
75 76
75 77
74 78
74 79
74 80
74 81
74 82
74 83
74 84
74 85
74 86
75 87
75 88
75 89
75 90
75 91
75 92
75 93
75 94
75 95
75 96
75 97
74 98
73 99
73 100
72 101
71 102
71 103
70 104
69 105
68 106
68 107
67 108
66 109
65 110
64 111
63 112
62 113
61 114
60 115
59 116
58 117
57 118
56 119
55 118
55 119
54 120
53 119
53 120
52 121
51 122
50 123
49 122
48 122
48 123
47 124
46 123
45 123
45 124
44 125
43 124
42 124
41 124
40 124
40 125
39 126
38 125
37 125
37 126
36 127
35 126
34 126
33 126
32 126
31 126
31 127
30 128
29 127
28 127
27 127
26 127
25 127
24 127
23 127
22 127
21 127
21 128
20 129
19 128
18 128
17 128
16 127
15 127
14 127
13 127
12 126
11 125
10 125
9 124
8 124
7 124
6 123
5 123
4 123
3 122
3 123
2 124
2 125
2 126
3 126
4 127
5 127
6 128
6 129
7 130
7 131
7 132
8 132
9 132
10 132
11 133
11 134
12 134
13 134
14 134
15 134
16 134
17 134
18 134
19 134
20 134
21 133
22 133
23 133
24 132
25 132
26 132
27 132
28 132
29 132
30 132
31 132
32 133
33 133
34 134
35 134
36 135
36 136
36 137
35 138
35 139
35 140
35 141
36 141
37 141
38 141
39 141
40 140
41 140
42 140
43 139
44 139
45 139
46 138
47 138
48 138
49 138
49 137
49 136
49 135
50 134
51 134
52 134
53 134
54 134
55 134
56 134
57 134
58 134
59 134
60 134
61 133
62 133
63 133
64 132
65 132
66 132
67 132
68 131
69 131
70 132
70 133
71 133
72 133
73 133
74 132
75 132
76 132
77 131
78 130
79 129
80 129
80 128
80 127
80 126
81 125
82 124
83 124
83 123
84 122
85 121
86 120
87 120
88 119
89 119
90 119
90 118
90 117
90 116
91 115
92 114
93 114
93 113
94 112
94 111
95 110
95 109
96 108
97 109
97 110
98 110
99 110
100 110
101 109
102 109
102 108
103 107
104 107
104 106
105 105
106 105
106 104
107 103
108 102
109 101
110 100
111 100
112 99
112 98
113 97
114 96
115 95
115 94
115 93
115 92
115 91
116 90
117 90
118 89
119 89
120 89
121 88
122 88
123 88
124 87
125 86
126 86
127 85
128 85
128 84
129 83
130 83
131 83
132 82
133 81
134 81
135 80
135 79
136 78
137 78
138 78
139 77
140 76
140 75
140 74
141 73
141 72
141 71
140 70
140 69
140 68
140 67
140 66
140 65
140 64
140 63
140 62
140 61
140 60
140 59
140 58
140 57
140 56
140 55
140 54
140 53
140 52
140 51
140 50
140 49
140 48
140 47
140 46
140 45
140 44
140 43
140 42
140 41
140 40
140 39
139 38
139 37
139 36
139 35
139 34
139 33
138 32
138 31
138 30
138 29
138 28
138 27
138 26
138 25
138 24
138 23
138 22
138 21
138 20
138 19
138 18
138 17
138 16
138 15
138 14
138 13
139 12
140 11
140 10
140 9
140 8
140 7
139 6
138 5
137 5
