161 4
160 5
159 6
158 7
157 8
156 9
155 10
154 11
153 12
153 13
152 14
151 15
150 16
149 17
149 18
148 19
147 20
147 21
146 22
145 23
144 24
143 25
142 26
142 27
141 28
140 29
139 30
138 31
137 32
136 32
135 32
134 32
133 31
132 31
131 31
130 31
129 31
128 31
127 31
126 31
125 30
124 30
123 30
122 30
121 30
120 30
119 30
118 30
117 30
116 30
115 30
114 30
113 30
112 30
111 30
110 29
109 29
108 29
107 29
106 29
105 29
104 29
103 29
102 29
101 29
100 29
99 29
98 29
97 29
96 29
95 29
94 29
93 29
92 29
91 29
90 29
89 29
88 29
87 29
86 29
85 29
84 29
83 29
82 29
81 29
80 29
79 29
78 29
77 29
76 29
75 29
74 29
73 29
72 29
71 29
70 29
69 29
68 29
67 29
66 30
65 30
64 30
63 30
62 30
61 30
60 30
59 30
58 30
57 30
56 30
55 30
54 30
53 30
52 31
51 31
50 31
49 31
48 31
47 31
46 32
45 32
44 32
43 32
42 32
41 33
40 33
39 33
38 34
37 34
36 34
35 34
34 35
33 35
32 36
31 36
30 36
29 37
28 37
27 37
26 37
25 38
24 38
23 38
22 39
21 39
20 40
19 40
18 40
17 41
16 41
15 41
14 42
13 42
12 43
11 43
10 44
9 44
8 44
7 45
6 46
5 46
4 47
3 48
2 49
2 50
3 51
3 52
2 53
2 54
2 55
3 56
3 57
4 58
5 59
6 60
6 61
7 61
8 62
8 63
9 64
10 64
11 65
12 66
13 66
14 67
15 68
16 68
17 69
18 70
19 70
20 71
21 71
22 72
23 73
24 73
25 73
26 74
27 74
28 75
29 75
30 76
31 76
32 77
33 77
34 78
35 78
36 79
37 79
38 80
39 80
40 81
41 81
42 81
43 82
44 82
45 82
46 83
47 84
48 84
49 84
50 84
51 85
52 85
53 86
54 86
55 87
56 87
57 88
58 88
59 88
60 88
61 89
62 89
63 89
64 90
65 90
66 91
67 91
68 91
69 92
70 92
71 92
72 93
73 93
74 93
75 94
76 94
77 95
78 95
79 95
80 95
81 96
82 96
83 96
84 97
85 97
86 97
87 98
88 98
89 98
90 98
91 99
92 99
93 99
94 100
95 101
95 102
95 103
94 104
94 105
94 106
94 107
94 108
95 109
95 110
95 111
95 112
94 113
94 114
94 115
94 116
94 117
94 118
94 119
94 120
94 121
94 122
94 123
94 124
95 123
96 124
96 125
96 126
96 127
97 128
97 129
98 130
98 131
99 131
100 131
101 130
102 129
103 128
104 128
105 127
105 126
106 125
107 124
108 125
108 126
109 127
109 128
110 129
111 130
111 131
112 130
113 131
114 132
114 133
115 134
115 135
116 136
117 137
118 138
119 138
120 137
120 136
121 135
121 134
121 133
122 132
122 131
122 130
123 129
123 128
124 127
124 126
124 125
125 124
126 123
126 122
127 121
127 120
127 119
128 118
129 117
129 116
130 115
130 114
130 113
130 112
129 112
128 111
127 110
126 109
125 108
124 107
123 106
122 105
123 104
124 104
125 105
126 105
127 105
128 105
129 105
130 106
131 106
132 106
133 106
134 106
135 106
136 106
137 106
138 106
139 107
140 106
141 107
142 107
143 107
144 107
145 107
146 107
147 107
148 107
149 107
150 108
151 107
152 107
153 108
154 108
155 108
156 108
157 108
158 107
159 107
160 108
161 108
162 108
163 108
164 108
165 108
166 108
167 108
168 108
169 108
170 108
171 108
172 108
173 108
174 108
175 108
176 108
177 108
178 108
179 108
180 109
181 109
182 108
183 108
184 108
185 108
186 108
187 109
187 110
188 110
189 111
190 112
190 113
191 114
192 115
192 116
193 117
193 118
194 119
194 120
195 121
196 122
196 123
197 124
197 125
198 126
198 127
199 128
200 129
200 130
201 131
202 132
202 133
203 134
203 135
204 136
204 137
205 138
206 139
206 140
207 141
208 142
209 143
210 144
211 144
212 143
212 142
213 141
213 140
214 139
214 138
214 137
215 136
215 135
216 134
216 133
216 132
217 131
217 130
218 129
219 128
220 127
220 126
221 125
222 124
223 123
224 122
225 121
226 120
227 119
228 119
229 118
230 117
231 117
232 117
233 116
234 116
235 116
236 116
237 115
238 115
239 114
239 113
238 112
237 111
236 111
235 111
234 110
233 110
232 110
231 110
230 110
229 110
228 110
227 109
228 108
229 108
230 107
231 107
232 107
233 107
234 107
235 107
236 107
237 107
238 106
239 106
240 106
241 106
242 106
243 106
244 106
245 106
246 106
247 105
248 105
249 105
250 106
251 105
252 105
253 105
254 105
255 105
256 105
257 105
258 105
259 105
260 105
261 106
262 106
263 106
264 106
265 106
266 106
267 106
268 106
269 107
270 107
271 108
272 109
273 110
274 110
275 111
276 112
277 113
278 113
279 114
279 115
280 116
281 117
282 117
283 118
283 119
284 120
285 121
286 122
287 122
288 123
289 124
290 124
291 125
292 126
293 126
294 127
295 128
296 128
297 129
298 130
299 130
300 131
301 131
302 132
303 133
304 134
305 135
306 135
307 136
308 137
309 138
310 138
311 139
312 140
313 140
314 141
315 142
316 142
317 143
318 144
319 144
320 145
321 146
322 146
323 147
324 147
325 147
326 147
327 146
327 145
327 144
327 143
327 142
326 142
325 141
326 140
326 139
326 138
326 137
326 136
325 136
324 135
325 134
325 133
325 132
325 131
325 130
325 129
324 129
323 128
324 127
324 126
324 125
323 125
322 124
323 123
323 122
322 122
321 121
322 120
322 119
322 118
322 117
321 117
320 116
321 115
321 114
320 114
319 113
320 112
319 112
318 111
319 110
318 110
317 109
316 108
317 107
317 106
316 106
315 105
316 104
316 103
315 103
314 102
313 101
314 100
313 100
312 99
313 98
313 97
313 96
314 95
315 95
316 94
317 93
317 92
318 91
318 90
319 89
320 88
321 87
321 86
322 85
323 84
324 83
324 82
325 81
326 80
326 79
327 78
327 77
327 76
328 75
329 74
329 73
330 72
331 71
331 70
332 69
332 68
333 67
333 66
333 65
334 64
334 63
335 62
335 61
336 60
336 59
336 58
337 57
338 56
339 55
340 55
340 54
340 53
339 53
338 53
337 53
336 53
335 53
334 53
333 54
332 54
331 54
330 54
329 55
328 55
327 55
326 55
325 56
324 56
323 56
322 57
321 57
320 57
319 58
318 58
317 59
316 59
315 59
314 60
313 60
312 61
311 61
310 62
309 62
308 63
307 63
306 64
305 64
304 65
303 65
302 66
301 66
300 66
299 67
298 67
297 68
296 68
295 68
294 69
293 69
292 70
291 70
290 70
289 71
288 71
287 72
286 72
285 73
284 73
283 73
282 74
281 74
280 74
279 75
278 75
277 76
276 76
275 76
274 76
273 76
272 76
271 76
270 76
269 75
268 75
267 75
266 75
265 74
264 74
263 74
262 73
261 73
260 73
259 72
258 72
257 72
256 71
255 71
254 70
253 70
252 70
251 69
250 69
249 68
248 68
247 67
246 67
245 66
244 66
243 66
242 65
243 64
244 63
245 63
246 63
247 62
248 62
249 62
250 61
251 61
252 61
253 61
254 61
255 60
255 59
254 59
253 58
252 58
251 57
250 56
249 55
248 55
247 54
246 53
247 52
246 52
245 51
246 50
246 49
246 48
245 48
244 47
245 46
245 45
245 44
245 43
245 42
245 41
245 40
245 39
245 38
245 37
244 36
244 35
245 34
245 33
245 32
245 31
245 30
245 29
246 28
246 27
246 26
246 25
246 24
245 24
244 25
243 25
242 25
241 26
240 26
239 27
238 27
237 28
236 29
235 30
234 30
233 31
232 31
231 32
230 33
229 34
228 35
227 36
226 37
225 37
224 38
223 39
222 39
221 40
220 41
219 42
218 42
217 43
216 44
215 44
214 45
213 46
212 46
211 47
210 48
209 48
208 48
207 48
206 48
205 47
204 47
203 46
202 46
201 46
200 46
199 45
198 45
197 45
196 44
195 44
194 44
193 44
192 44
191 43
190 43
189 43
188 42
187 42
186 42
185 41
184 41
183 41
182 41
181 41
180 40
179 40
178 40
177 40
176 39
175 39
174 39
173 38
172 38
171 38
170 37
169 36
168 35
169 34
169 33
169 32
170 31
170 30
169 30
168 29
167 28
168 27
168 26
168 25
169 24
169 23
170 22
171 21
172 20
172 19
171 19
170 19
169 19
168 19
167 18
166 17
167 16
167 15
166 15
165 14
166 13
166 12
167 11
168 11
169 10
169 9
168 9
167 10
166 10
165 10
164 10
163 10
162 10
161 9
162 8
161 7
161 6
162 5
162 4
