112 1
111 2
110 3
109 4
108 5
107 6
106 6
105 6
104 7
103 7
102 7
101 6
102 5
102 4
101 4
100 5
99 6
98 7
98 8
97 9
97 10
96 11
96 12
95 13
95 14
94 15
94 16
94 17
93 18
93 19
92 20
92 21
91 22
90 23
90 24
90 25
90 26
89 27
88 28
88 29
87 30
87 31
86 32
86 33
85 34
84 35
83 35
82 35
81 35
80 35
79 35
78 35
77 35
76 35
75 35
74 35
73 35
72 35
71 35
70 35
69 35
68 35
67 35
66 36
65 36
64 36
63 36
62 36
61 36
60 36
59 36
58 36
57 37
56 37
55 37
54 37
53 37
52 37
51 38
50 38
49 38
48 38
47 38
46 39
45 39
44 39
43 39
42 39
41 40
40 39
39 39
38 38
37 38
36 38
35 38
34 38
33 38
32 38
31 38
30 38
29 39
28 39
27 40
26 41
25 42
25 43
24 44
23 44
22 45
21 45
20 45
19 45
18 46
17 46
16 46
15 46
14 47
13 48
12 48
11 49
10 50
9 50
8 50
8 51
7 52
6 52
5 52
5 53
4 54
4 55
3 56
2 57
2 58
2 59
2 60
2 61
2 62
3 63
3 64
4 64
5 65
6 65
7 66
8 67
9 68
10 68
11 68
12 69
13 69
14 70
15 70
16 70
17 71
18 71
19 71
20 72
21 72
22 73
23 73
24 73
25 74
26 74
27 75
28 75
29 75
30 76
31 76
32 76
33 77
34 77
35 77
36 77
37 78
38 78
39 78
40 79
41 79
42 79
43 79
44 79
45 79
46 79
47 79
48 80
49 80
50 80
51 80
52 80
53 81
54 81
55 81
56 81
57 81
58 81
59 81
60 81
61 82
62 82
63 82
64 82
65 82
66 83
67 83
68 83
69 83
70 83
71 83
72 84
73 85
73 86
74 87
75 88
75 89
76 90
76 91
77 92
77 93
78 94
79 95
79 96
80 97
81 97
82 98
83 98
84 99
85 99
86 99
87 99
88 99
89 99
90 99
91 99
92 99
93 99
94 100
95 100
96 100
97 100
98 100
99 100
100 101
101 102
102 102
103 102
104 102
105 102
106 102
107 102
108 103
109 103
110 103
111 103
112 103
113 103
114 104
114 103
115 102
115 101
114 101
113 100
112 99
113 98
112 98
111 97
110 96
109 95
108 95
107 94
106 93
105 93
104 93
103 93
102 93
101 92
100 91
99 91
98 90
97 90
96 89
95 89
94 89
93 88
92 88
91 87
90 87
89 87
88 86
87 86
86 85
87 84
88 84
89 84
90 85
91 84
92 85
93 86
94 86
95 86
96 86
97 86
98 86
99 86
100 86
101 86
102 86
103 86
104 86
105 85
106 85
107 85
108 85
109 84
110 84
111 84
112 84
113 83
114 84
115 83
116 83
117 83
118 83
119 83
120 82
121 82
122 82
123 82
124 82
125 82
126 82
127 82
128 81
129 81
130 81
131 81
132 81
133 81
134 80
135 80
136 80
137 80
138 80
139 80
140 80
141 79
142 79
143 80
144 80
145 81
146 82
147 83
148 83
149 82
149 81
150 80
150 79
149 79
148 78
149 77
150 77
151 77
152 78
153 79
154 80
155 81
155 82
156 83
157 84
158 85
159 86
160 86
161 87
162 88
163 89
164 89
165 89
166 89
167 90
168 90
169 90
170 90
171 90
172 90
173 90
174 90
175 90
176 90
177 90
178 90
179 90
180 90
181 90
182 90
183 90
184 90
185 90
186 90
187 90
188 90
189 90
190 90
191 90
192 90
193 90
194 90
195 89
196 89
197 89
198 89
199 88
200 89
201 88
202 89
203 88
204 88
205 88
206 88
207 88
208 87
209 87
210 87
211 87
212 87
213 87
213 86
214 85
215 86
216 86
217 86
218 86
219 86
220 86
221 85
222 85
223 85
224 84
225 84
226 83
227 83
228 82
229 82
230 81
231 80
231 79
232 78
232 77
231 77
230 76
229 75
230 74
229 74
228 73
227 72
228 71
227 71
226 70
225 69
224 68
223 67
222 66
221 65
220 64
219 64
218 63
219 62
220 62
221 62
222 62
223 62
224 62
225 62
226 61
227 61
228 61
229 61
230 61
231 61
232 61
233 61
234 61
235 61
236 62
237 62
238 62
239 62
240 63
241 64
242 64
243 64
244 64
245 65
246 66
247 66
248 66
249 67
250 68
251 68
252 69
253 69
254 70
255 70
256 71
257 71
258 71
259 72
260 72
261 72
262 72
263 72
264 72
265 72
266 73
267 72
268 73
269 72
270 73
271 72
272 73
273 72
274 72
275 72
276 72
277 72
278 71
279 71
280 70
281 69
282 69
283 68
283 67
284 66
284 65
285 64
286 64
286 63
287 62
287 61
288 60
289 59
289 58
290 57
290 56
291 55
291 54
291 53
291 52
291 51
291 50
291 49
291 48
291 47
290 46
291 45
291 44
291 43
291 42
291 41
291 40
290 40
289 39
290 38
290 37
289 37
288 36
289 35
288 35
287 35
286 34
287 33
287 32
286 32
285 31
284 30
283 30
282 29
283 28
282 28
281 28
280 28
279 27
278 26
277 26
276 26
275 25
274 25
273 25
272 24
271 24
270 24
269 24
268 24
267 24
266 24
265 24
264 25
263 25
262 25
261 25
260 26
259 26
258 26
257 27
256 27
255 27
254 28
253 28
252 28
251 28
250 29
249 30
248 30
247 31
246 32
245 32
244 33
243 34
242 35
241 35
240 35
239 36
238 37
237 37
236 38
235 39
234 39
233 40
232 41
231 41
230 41
229 41
228 41
227 41
226 41
225 41
224 41
223 40
222 39
223 38
224 38
225 37
226 37
227 37
228 36
229 35
230 35
231 35
232 34
233 34
234 33
234 32
233 31
234 30
234 29
234 28
233 28
232 27
231 27
230 26
231 25
230 25
229 24
228 24
227 23
226 22
227 21
226 21
225 21
224 21
223 21
222 20
221 20
220 19
219 18
218 18
217 17
216 17
215 17
214 16
213 16
212 15
211 14
210 14
209 13
208 13
207 13
206 13
205 12
204 12
203 11
202 11
201 11
200 10
199 10
198 10
197 9
196 9
195 9
194 8
193 8
192 7
191 7
190 7
189 7
188 7
187 6
186 6
185 6
184 6
183 6
182 6
181 6
180 6
179 6
178 6
177 6
176 6
175 6
174 6
173 6
172 6
171 6
170 7
169 7
168 7
167 8
166 8
165 8
164 9
163 9
162 9
161 10
160 9
159 10
158 11
157 12
156 11
155 11
155 12
154 13
153 13
152 14
151 14
150 15
149 15
148 16
147 17
146 18
145 19
144 20
143 21
142 21
142 22
141 23
140 24
140 25
139 26
138 27
137 28
136 28
136 29
136 30
135 31
135 32
134 33
133 32
133 31
133 30
133 29
134 28
134 27
135 26
135 25
134 25
133 26
132 26
131 26
130 25
131 24
131 23
132 22
132 21
133 20
133 19
134 18
134 17
133 17
132 18
131 18
130 18
129 17
128 17
127 16
128 15
128 14
128 13
128 12
129 11
129 10
129 9
128 9
127 9
126 9
125 9
124 10
123 10
122 9
121 8
122 7
122 6
123 5
123 4
122 4
121 5
120 6
119 5
118 5
117 5
116 5
115 5
114 5
113 5
112 4
112 3
113 2
113 1
