118 2
117 3
116 4
115 4
115 5
114 6
113 7
112 8
111 9
110 9
109 9
108 10
107 11
107 12
106 13
105 13
104 14
103 15
102 16
102 17
101 18
100 18
99 19
99 20
98 21
97 22
96 23
95 24
94 25
93 26
92 26
91 26
90 27
89 27
88 27
87 27
86 27
85 27
84 27
83 27
82 27
81 27
80 27
79 28
78 28
77 28
76 28
75 28
74 28
73 28
72 28
71 28
70 29
69 29
68 29
67 29
66 29
65 29
64 29
63 30
62 30
61 30
60 30
59 30
58 31
57 31
56 31
55 31
54 32
53 32
52 32
51 32
50 32
49 33
48 33
47 33
46 33
45 34
44 34
43 34
42 34
41 35
40 35
39 35
38 35
37 36
36 36
35 36
34 37
33 37
32 37
31 37
30 38
29 38
28 38
27 38
26 39
25 39
24 39
23 39
22 40
21 40
20 40
19 41
18 41
17 42
16 42
15 42
14 43
13 43
12 44
11 44
10 44
9 45
8 46
8 47
8 48
7 49
7 50
7 51
7 52
7 53
6 54
5 54
4 54
3 55
2 56
2 57
2 58
2 59
2 60
3 61
3 62
4 63
5 63
6 64
7 64
8 65
9 66
10 67
11 67
12 68
13 69
14 69
15 70
16 70
17 71
18 72
19 73
20 74
21 74
22 74
23 75
24 75
25 76
26 76
27 77
28 78
29 78
30 78
31 79
31 80
32 80
33 80
34 80
35 81
36 82
37 82
38 83
39 83
40 84
41 84
42 85
43 85
44 85
45 85
46 86
47 86
48 86
49 87
50 87
51 87
52 88
53 88
54 88
55 88
56 89
57 89
58 89
59 89
60 90
61 90
62 90
63 90
64 90
65 91
66 91
67 91
68 91
69 91
70 91
71 91
72 91
73 91
74 92
75 92
76 92
77 92
78 92
79 92
80 92
81 93
82 93
83 93
84 93
85 93
86 93
87 94
88 94
89 94
90 94
91 94
92 94
93 94
94 94
95 94
96 94
97 94
98 94
99 94
100 94
101 94
102 95
102 96
102 97
102 98
102 99
102 100
102 101
102 102
102 103
103 103
104 103
105 102
105 101
106 100
106 99
105 99
104 98
105 97
106 97
107 97
108 97
109 97
110 97
111 97
112 96
112 95
113 94
114 93
115 93
116 93
117 93
118 93
119 92
120 92
121 92
122 92
123 92
124 91
125 91
126 91
127 91
128 91
129 90
130 90
131 90
132 90
133 90
134 89
135 89
136 89
137 89
138 89
139 89
140 89
141 89
142 88
143 87
144 87
145 87
146 87
147 86
148 86
149 86
150 85
151 85
152 85
153 84
154 84
155 84
156 83
157 83
158 83
159 83
160 84
161 84
162 84
163 83
164 83
165 84
166 84
167 84
168 84
169 83
170 82
170 81
171 80
172 79
173 78
174 78
175 77
176 77
177 76
178 76
179 75
180 75
181 74
182 74
183 73
184 73
185 72
186 72
187 71
188 70
189 70
190 69
191 69
192 69
193 69
194 69
195 69
196 69
197 69
198 69
199 69
200 69
201 70
202 70
203 70
204 71
205 71
206 71
207 72
208 72
209 72
210 72
211 72
212 73
213 73
214 73
215 73
216 74
217 74
218 74
219 75
220 75
221 75
222 76
223 76
224 76
225 76
226 77
227 77
228 77
229 78
230 78
231 78
232 79
233 79
234 79
235 79
236 80
237 80
238 80
239 80
240 81
241 81
242 81
243 82
244 82
245 82
246 83
247 83
248 83
249 84
250 84
251 84
252 84
253 84
254 84
255 84
256 84
257 84
258 84
259 84
260 83
260 82
261 81
261 80
261 79
260 79
259 78
258 78
257 77
256 76
255 76
254 75
253 74
252 74
251 73
250 72
249 72
248 72
247 71
248 70
247 70
246 69
245 69
244 69
243 68
242 67
241 67
240 67
239 66
238 66
237 65
236 64
235 64
234 64
233 63
232 63
231 62
230 61
229 61
228 61
227 60
226 60
225 60
224 60
223 59
222 59
221 58
222 57
223 57
224 57
225 57
226 57
227 56
227 55
228 54
229 54
230 53
231 52
232 51
233 51
234 50
235 50
236 50
237 49
238 48
239 48
240 47
241 47
242 46
243 45
244 45
245 44
246 44
247 43
248 42
249 41
250 40
251 39
252 38
253 37
254 37
255 36
256 35
256 34
257 33
257 32
258 31
257 31
256 30
255 29
254 29
253 29
252 29
251 29
250 29
249 30
248 30
247 30
246 30
245 31
244 31
243 31
242 31
241 32
240 32
239 32
238 32
237 33
236 33
235 33
234 34
233 34
232 34
231 35
230 35
229 35
228 36
227 36
226 37
225 37
224 37
223 37
222 38
221 38
220 39
219 39
218 39
217 40
216 40
215 40
214 41
213 41
212 41
211 42
210 42
209 43
208 43
207 43
206 44
205 44
204 44
203 44
202 45
201 45
200 45
199 45
198 46
197 46
196 46
195 46
194 46
193 46
192 46
191 46
190 45
189 45
188 45
187 44
186 44
185 44
184 44
183 44
182 43
181 43
180 43
179 42
178 42
177 42
176 42
175 41
174 41
173 41
172 41
171 41
170 40
169 40
168 40
167 40
166 39
165 39
164 39
163 39
162 39
161 38
160 38
159 38
158 38
157 37
156 37
155 37
154 37
153 37
152 36
151 36
150 36
149 36
148 36
147 36
146 35
145 35
144 35
143 35
142 35
141 34
140 34
139 34
138 34
137 33
136 33
135 33
134 32
133 31
132 30
131 30
130 30
129 29
128 28
127 27
128 26
128 25
127 25
126 24
125 23
124 22
125 21
125 20
125 19
125 18
125 17
125 16
125 15
124 15
123 14
123 13
123 12
124 11
124 10
124 9
124 8
124 7
124 6
123 6
122 5
123 4
122 4
121 3
120 2
119 2
