196 2
195 3
194 4
193 5
192 4
191 5
190 6
189 7
188 8
187 8
186 9
185 10
184 11
183 12
182 13
181 12
180 13
179 14
178 15
177 16
176 17
176 18
175 19
174 20
173 21
172 22
171 23
170 23
169 22
169 21
169 20
169 19
169 18
168 18
167 18
166 19
165 18
164 19
163 18
162 17
163 16
164 15
164 14
163 14
162 15
161 15
160 15
159 15
158 15
157 15
156 14
155 13
156 12
156 11
155 11
154 11
153 12
152 13
151 13
150 13
149 13
148 12
147 11
148 10
148 9
148 8
147 8
146 9
145 10
144 10
143 10
142 10
141 9
140 8
141 7
141 6
140 6
139 7
138 8
137 9
136 10
135 11
134 10
133 9
132 8
133 7
133 6
132 6
131 7
130 8
130 9
129 10
128 11
127 11
126 11
125 10
126 9
126 8
126 7
125 7
124 7
123 8
123 9
122 10
121 11
120 12
120 13
119 14
119 15
118 16
118 17
117 18
116 18
115 18
114 19
113 19
112 19
111 19
110 19
109 18
108 18
107 18
106 18
105 18
104 18
103 18
102 18
101 18
100 18
99 19
98 19
97 19
96 19
95 19
94 19
93 19
92 19
91 19
90 20
89 20
88 20
87 20
86 20
85 20
84 20
83 20
82 20
81 20
80 21
79 21
78 21
77 21
76 21
75 21
74 21
73 22
72 22
71 22
70 22
69 22
68 22
67 22
66 23
65 23
64 23
63 23
62 23
61 24
60 24
59 24
58 24
57 25
56 25
55 25
54 26
53 26
52 26
51 26
50 26
49 26
48 27
47 27
46 27
45 28
44 28
43 28
42 29
41 29
40 29
39 29
38 29
37 30
36 30
35 31
34 31
33 31
32 32
31 32
30 32
29 33
28 33
27 34
26 34
25 35
24 35
23 36
22 36
21 37
20 37
19 37
18 38
17 38
16 39
15 39
14 40
13 40
12 41
11 41
10 42
9 42
8 43
7 43
6 44
5 44
5 45
5 46
5 47
5 48
5 49
5 50
6 51
6 52
5 53
4 53
3 53
2 53
2 54
2 55
2 56
2 57
2 58
3 59
4 60
5 61
6 62
7 63
8 64
9 65
10 66
11 67
12 67
13 68
14 69
15 69
16 69
17 70
18 70
19 71
20 71
21 72
22 72
23 72
24 73
25 73
26 73
27 73
28 74
29 74
30 74
31 75
32 75
33 75
34 75
35 75
36 76
37 76
38 76
39 76
40 76
41 76
42 77
43 77
44 77
45 77
46 77
47 77
48 77
49 77
50 77
51 78
52 77
53 78
54 78
55 78
56 78
57 78
58 78
59 78
60 78
61 79
62 79
63 79
64 79
65 79
66 80
67 80
68 80
69 80
70 80
71 80
72 80
73 81
74 81
75 81
76 81
77 81
78 82
79 82
80 82
81 82
82 82
83 82
84 82
85 82
86 82
87 83
88 84
88 85
88 86
88 87
88 88
88 89
88 90
88 91
88 92
88 93
88 94
88 95
88 96
88 97
88 98
89 99
89 100
89 101
89 102
89 103
90 104
90 105
90 106
91 107
91 108
92 108
93 107
94 106
95 106
95 105
96 104
96 103
97 102
98 103
98 104
99 105
99 106
99 107
100 108
100 109
101 109
102 110
102 111
103 112
104 113
105 113
106 114
107 115
108 115
109 116
110 116
111 116
112 116
113 116
113 115
114 114
114 113
114 112
115 111
115 110
116 109
116 108
116 107
116 106
116 105
117 104
117 103
117 102
117 101
118 100
118 99
119 98
119 97
119 96
119 95
119 94
120 93
120 92
119 92
118 91
119 90
119 89
118 89
117 89
116 88
117 87
118 87
119 87
120 87
121 87
122 87
123 87
124 87
125 87
126 87
127 87
128 87
129 87
130 87
131 87
132 87
133 88
134 88
135 88
136 88
137 88
138 88
139 88
140 88
141 89
142 89
143 89
144 89
145 89
146 89
147 89
148 89
149 89
150 89
151 89
152 89
153 89
154 90
155 90
156 90
157 90
158 90
159 90
160 90
161 90
162 90
163 90
164 90
165 91
166 90
167 90
168 90
169 91
170 91
171 91
172 91
173 92
174 93
174 94
175 95
176 95
177 96
178 97
179 98
180 99
181 100
182 101
183 102
184 102
185 103
186 104
187 105
188 106
189 107
190 108
191 109
192 109
193 110
194 111
194 112
195 111
196 112
197 113
198 113
199 114
200 115
201 114
202 113
202 112
203 111
204 110
204 109
205 108
206 108
206 107
207 106
208 105
208 104
209 103
210 102
211 102
212 101
213 100
214 100
215 99
216 98
217 97
218 97
219 96
220 96
221 95
222 95
223 94
224 93
225 92
226 91
227 91
228 90
229 89
230 88
231 88
232 88
233 88
234 87
235 87
236 86
237 86
238 85
239 85
240 84
241 84
242 84
243 84
244 83
245 83
246 82
247 82
248 82
249 81
250 81
251 80
252 80
253 80
254 80
255 80
255 79
255 78
254 78
253 78
252 77
251 76
251 75
252 74
253 74
254 74
255 74
256 74
257 74
258 74
259 74
260 74
261 74
262 74
263 74
264 74
265 75
266 75
267 75
268 75
269 76
270 76
271 76
272 77
273 78
274 78
275 79
276 80
277 81
278 81
279 82
280 83
281 84
282 85
283 86
284 87
285 87
286 88
287 89
288 89
289 90
290 91
291 92
292 92
293 93
294 94
295 94
296 95
297 95
298 96
299 97
300 97
301 98
302 98
303 99
304 99
305 100
306 101
307 101
308 102
309 102
310 102
311 103
312 103
313 103
314 104
315 104
316 105
317 105
318 105
319 106
320 106
321 107
322 107
323 108
324 108
325 108
326 109
327 109
328 109
328 108
329 107
328 107
327 106
328 105
327 105
326 104
325 103
326 102
325 102
324 102
323 101
324 100
323 100
322 99
323 98
322 98
321 97
320 96
321 95
320 95
319 94
320 93
320 92
319 92
318 91
319 90
318 90
317 89
318 88
317 88
316 87
317 86
316 86
315 85
314 84
313 83
312 82
311 81
310 80
311 79
310 79
309 78
308 77
307 76
306 75
305 74
304 73
303 72
304 71
303 71
302 70
302 69
302 68
303 67
303 66
304 65
304 64
305 63
306 62
307 61
308 60
309 59
310 58
311 57
312 56
313 55
313 54
314 53
315 52
316 51
317 51
318 50
318 49
319 48
320 47
321 46
321 45
322 44
323 43
324 42
324 41
325 40
326 39
326 38
327 37
328 37
328 36
329 35
330 34
330 33
331 32
331 31
332 30
333 29
334 28
334 27
333 27
332 27
331 28
330 28
329 28
328 29
327 29
326 29
325 29
324 29
323 29
322 30
321 30
320 30
319 31
318 31
317 31
316 32
315 32
314 32
313 33
312 33
311 33
310 34
309 34
308 35
307 35
306 35
305 35
304 36
303 36
302 37
301 37
300 37
299 38
298 38
297 39
296 39
295 40
294 40
293 40
292 41
291 42
290 42
289 43
288 43
287 44
286 44
285 45
284 45
283 46
282 46
281 47
280 48
279 48
278 49
277 50
276 50
275 51
274 51
273 51
272 52
271 52
270 53
269 53
268 53
267 53
266 53
265 54
264 53
263 53
262 53
261 53
260 53
259 52
258 52
257 52
256 52
255 51
254 51
253 51
252 51
251 51
250 50
249 50
248 49
249 48
250 47
251 47
252 46
252 45
253 44
252 44
251 44
250 44
249 43
248 43
247 43
246 42
245 42
244 41
243 41
242 40
241 40
240 40
239 39
238 39
237 38
236 37
235 37
234 36
233 36
232 35
233 34
232 34
231 34
230 33
229 32
228 32
227 31
226 30
225 30
224 29
223 28
222 27
221 26
220 26
219 25
220 24
219 24
218 24
217 23
218 22
217 22
216 21
217 20
217 19
216 19
215 20
214 19
213 18
214 17
213 17
212 16
213 15
212 15
211 15
210 14
209 13
210 12
209 12
208 11
207 10
206 9
205 8
204 7
205 6
204 6
203 5
202 4
201 4
200 3
199 2
198 2
197 2
