136 2
135 3
134 3
133 4
132 4
131 5
130 5
129 5
128 6
127 7
126 7
125 6
126 5
126 4
125 4
124 4
123 5
122 6
121 7
120 8
119 9
118 10
117 10
116 11
115 12
114 13
113 14
112 14
111 13
112 12
112 11
111 11
110 12
109 13
108 14
107 15
106 15
105 16
104 17
103 18
102 19
101 20
101 21
100 22
99 22
98 23
97 24
96 25
96 26
95 27
94 28
93 29
92 29
91 29
90 29
89 29
88 29
87 29
86 29
85 29
84 29
83 29
82 29
81 29
80 29
79 29
78 29
77 29
76 29
75 29
74 29
73 29
72 29
71 30
70 30
69 30
68 30
67 30
66 31
65 31
64 31
63 31
62 31
61 32
60 32
59 32
58 32
57 33
56 33
55 33
54 33
53 33
52 34
51 34
50 34
49 35
48 35
47 35
46 36
45 36
44 36
43 36
42 37
41 37
40 38
39 38
38 39
37 39
36 39
35 40
34 40
33 41
32 41
31 42
30 42
29 42
28 41
27 42
26 42
25 42
24 42
23 42
22 43
21 43
20 44
19 44
18 45
17 45
16 45
15 46
14 47
13 47
12 48
11 48
10 48
9 48
8 49
7 49
6 50
6 51
6 52
5 53
4 54
3 55
3 56
3 57
3 58
4 58
5 59
6 60
7 60
8 61
9 62
10 62
11 63
12 64
11 65
10 65
9 65
8 65
7 64
6 64
5 64
4 64
3 63
2 64
2 65
2 66
2 67
3 68
4 69
4 70
5 71
6 71
7 72
8 73
9 74
10 75
11 75
12 76
13 77
14 77
15 78
16 79
17 79
18 80
19 80
20 81
21 82
22 82
23 83
24 83
25 84
26 84
27 84
28 85
29 85
30 85
31 86
32 86
33 86
34 86
35 86
36 87
37 87
38 87
39 87
40 88
41 88
42 88
43 88
44 88
45 89
46 89
47 89
48 89
49 89
50 89
51 89
52 90
53 90
54 90
55 90
56 90
57 90
58 90
59 90
60 90
61 90
62 90
63 90
64 90
65 90
66 90
67 90
68 91
69 91
70 91
71 91
72 91
73 91
74 91
75 91
76 92
77 93
78 93
79 94
80 95
81 96
82 97
83 98
84 99
85 100
86 101
87 102
88 102
89 103
90 104
91 105
92 105
93 106
94 107
95 108
96 109
97 109
98 110
99 111
100 111
101 112
102 113
103 113
104 114
105 114
106 114
107 115
108 114
109 115
110 115
111 115
112 115
113 116
114 115
115 115
116 115
117 115
118 116
119 115
120 116
121 116
122 116
123 115
124 115
125 115
126 115
127 115
128 114
129 114
130 114
131 114
132 114
133 114
134 114
135 113
135 112
134 111
133 111
132 110
131 109
130 109
129 109
128 108
127 108
126 107
125 106
124 106
123 105
122 105
121 104
120 104
119 103
118 103
117 102
116 102
115 101
114 101
113 100
112 100
111 99
110 99
109 98
108 98
107 97
106 97
105 96
104 96
103 95
104 94
105 94
106 94
107 94
108 94
109 94
110 94
111 94
112 94
113 94
114 94
115 95
116 95
117 95
118 95
119 95
120 95
121 95
122 95
123 95
124 95
125 95
126 95
127 95
128 95
129 95
130 95
131 95
132 95
133 95
134 94
135 94
136 94
137 94
138 94
139 94
140 93
141 93
142 93
143 93
144 93
145 94
146 94
147 95
148 95
149 96
149 97
150 98
151 99
152 100
153 101
154 102
155 102
156 103
157 104
158 105
159 105
160 106
161 107
162 108
163 109
164 109
165 110
166 111
167 111
168 112
169 113
170 113
171 114
172 115
173 115
174 116
175 116
176 116
177 117
178 117
179 118
180 117
181 118
182 118
183 118
184 119
185 119
186 119
187 119
188 119
189 119
190 119
191 118
192 118
193 118
194 118
195 118
196 118
197 119
198 119
199 119
200 119
201 120
202 120
203 120
204 120
205 120
206 120
207 121
208 120
209 121
210 121
211 121
212 121
213 121
214 122
215 122
216 122
217 122
218 122
219 122
220 123
221 123
222 123
223 123
224 123
225 123
226 123
227 123
228 123
229 123
230 123
231 123
232 123
233 124
234 123
235 123
236 124
237 123
238 123
239 123
240 123
241 123
242 123
243 123
244 123
245 123
246 123
247 123
248 123
249 123
250 123
251 123
252 123
253 123
254 122
255 122
256 122
257 121
258 121
259 121
260 121
261 120
262 120
263 120
264 120
265 119
266 119
267 118
267 117
266 117
265 116
264 116
263 116
262 116
261 116
260 116
259 116
258 115
257 115
256 114
255 114
254 113
253 113
252 113
251 113
250 112
249 112
248 111
247 111
246 110
245 110
244 109
243 109
242 109
241 108
240 107
239 107
238 106
237 106
236 105
235 105
234 105
233 104
232 103
231 103
230 102
229 102
228 101
227 100
226 100
225 99
224 98
223 97
222 96
221 96
220 95
219 95
218 94
219 93
220 93
221 93
222 94
223 93
224 93
225 93
226 93
227 93
228 93
229 93
230 93
231 93
232 93
233 93
234 93
235 93
236 93
237 93
238 93
239 93
240 93
241 93
242 93
243 94
244 94
245 94
246 94
247 94
248 94
249 94
250 94
251 95
252 95
253 96
254 96
255 96
256 97
257 97
258 98
259 98
260 99
261 99
262 100
263 100
264 101
265 101
266 102
267 102
268 103
269 103
270 104
271 104
272 105
273 105
274 105
275 106
276 106
277 107
278 107
279 108
280 108
281 109
282 109
283 109
284 110
285 110
286 111
287 111
288 112
289 112
290 113
291 113
292 113
293 114
294 114
295 114
296 114
297 115
298 115
299 115
300 115
301 115
302 115
303 115
304 115
305 115
306 115
307 115
308 114
309 113
310 113
311 112
312 112
313 112
314 111
315 111
316 110
317 110
318 109
319 109
320 109
321 108
322 107
323 106
324 106
325 105
326 105
327 104
328 103
329 102
330 102
331 101
332 100
332 99
333 98
333 97
334 96
334 95
335 94
335 93
336 92
336 91
336 90
337 89
337 88
338 87
338 86
337 85
338 84
338 83
338 82
338 81
339 80
338 80
337 79
338 78
338 77
338 76
338 75
338 74
338 73
337 73
336 72
337 71
336 70
336 69
335 68
336 67
335 67
334 66
335 65
334 65
333 64
334 63
334 62
333 62
332 61
333 60
332 60
331 59
332 58
331 58
330 57
329 56
328 55
329 54
328 54
327 53
326 52
327 51
326 51
325 51
324 50
323 50
322 49
321 48
320 48
319 48
318 48
317 47
316 47
315 47
314 47
313 47
312 47
311 47
310 47
309 47
308 47
307 47
306 47
305 47
304 47
303 47
302 47
301 47
300 47
299 47
298 47
297 48
296 48
295 48
294 48
293 49
292 49
291 49
290 50
289 50
288 50
287 51
286 51
285 51
284 51
283 52
282 52
281 53
280 53
279 53
278 54
277 54
276 55
275 55
274 55
273 56
272 56
271 57
270 57
269 58
268 58
267 58
266 59
265 59
264 60
263 60
262 60
261 61
260 61
259 61
258 62
257 62
256 62
255 62
254 62
253 62
252 63
251 63
250 63
249 63
248 63
247 63
246 62
245 63
244 62
243 62
242 62
241 62
240 62
239 62
238 61
237 61
236 61
235 61
234 61
233 60
232 59
233 58
234 57
235 56
236 55
237 54
238 53
239 52
240 51
241 51
242 50
243 49
244 49
245 48
246 48
247 47
248 47
249 46
250 46
251 45
252 45
253 44
254 44
255 44
256 43
257 43
258 42
259 42
260 41
261 41
262 40
263 40
264 39
265 39
265 38
266 37
267 36
267 35
268 34
268 33
268 32
267 32
266 31
267 30
266 30
265 29
264 29
263 28
262 27
261 27
260 26
259 26
258 26
257 25
256 25
255 24
254 24
253 23
252 22
251 22
250 22
249 22
248 21
247 21
246 21
245 20
244 20
243 20
242 19
241 19
240 18
239 18
238 18
237 18
236 17
235 17
234 17
233 17
232 17
231 16
230 16
229 16
228 15
227 15
226 15
225 15
224 15
223 15
222 15
221 15
220 15
219 14
218 14
217 15
216 14
215 14
214 14
213 14
212 14
211 14
210 14
209 14
208 13
207 14
206 14
205 14
204 14
203 14
202 14
201 14
200 14
199 14
198 14
197 14
196 14
195 14
194 13
193 14
192 14
191 14
190 14
189 14
188 14
187 15
186 14
185 15
184 15
183 15
182 15
181 15
180 15
179 16
178 15
177 16
176 16
175 16
174 16
173 16
172 16
171 16
170 16
169 16
168 16
167 16
166 16
165 17
164 17
163 18
162 18
161 18
160 19
159 20
158 20
157 21
156 21
155 22
154 22
153 23
152 24
151 25
150 26
149 27
148 27
147 28
146 29
145 29
144 30
143 31
142 32
141 33
140 33
139 34
138 35
137 36
136 36
135 35
136 34
136 33
136 32
136 31
137 30
137 29
138 28
139 27
140 26
140 25
141 24
142 23
143 23
144 22
144 21
143 21
142 22
141 22
140 22
139 21
140 20
140 19
141 18
142 17
143 16
144 15
144 14
143 14
142 15
141 15
140 15
139 15
138 14
139 13
139 12
139 11
140 10
141 9
142 8
143 7
143 6
142 6
141 7
140 7
139 7
138 7
137 7
136 6
136 5
137 4
138 3
138 2
137 2
