173 2
173 3
172 4
171 5
170 6
169 7
168 8
167 9
166 10
165 11
164 12
163 13
162 14
162 15
161 16
160 16
160 17
159 18
158 19
157 20
156 21
156 22
155 23
154 23
153 24
153 25
152 26
151 27
150 28
149 29
148 30
148 31
147 32
146 33
145 34
145 35
144 36
143 37
142 38
141 39
141 40
140 41
139 42
138 43
138 44
137 45
136 46
135 47
135 48
134 49
134 50
133 51
132 52
131 53
131 54
130 55
130 56
129 57
128 58
127 59
127 60
126 61
125 62
125 63
124 64
124 65
123 66
122 67
122 68
121 69
120 70
120 71
119 72
119 73
118 74
117 75
117 76
116 77
116 78
115 79
115 80
114 81
113 82
113 83
112 84
111 85
111 86
110 87
110 88
109 89
109 90
108 91
108 92
107 93
107 94
106 95
106 96
105 97
105 98
104 99
104 100
103 101
103 102
102 103
102 104
101 105
101 106
101 107
100 108
100 109
99 110
99 111
98 112
98 113
97 114
96 115
96 116
95 117
95 118
95 119
94 120
94 121
94 122
93 123
93 124
92 125
92 126
91 127
91 128
90 129
90 130
90 131
89 132
89 133
89 134
88 135
88 136
88 137
88 138
88 139
87 140
87 141
87 142
87 143
86 144
86 145
86 146
86 147
86 148
85 149
85 150
85 151
85 152
85 153
85 154
85 155
84 156
84 157
84 158
84 159
84 160
84 161
84 162
84 163
83 164
82 164
81 164
80 165
79 165
78 165
77 165
76 165
75 165
74 165
73 165
72 165
71 165
70 165
69 166
68 166
67 166
66 166
65 166
64 166
63 165
62 165
61 165
60 165
59 165
58 164
57 164
56 163
55 162
54 161
53 161
52 161
51 161
50 161
49 161
48 161
47 162
46 162
45 162
44 162
43 162
42 162
41 162
40 163
39 163
38 163
37 164
36 165
35 165
34 166
33 167
32 167
31 167
30 168
29 168
28 169
27 169
26 169
25 170
24 170
23 171
22 171
21 172
20 172
19 172
18 173
17 174
16 173
15 173
15 174
14 175
13 175
12 175
12 176
12 177
11 178
11 179
10 180
9 181
8 182
7 183
6 184
5 185
5 186
4 187
4 188
3 189
2 190
2 191
2 192
2 193
2 194
3 195
4 195
5 195
6 195
7 195
8 195
9 196
10 196
11 196
12 197
11 198
10 199
10 200
10 201
10 202
11 203
12 202
13 202
14 201
15 201
16 201
17 200
18 200
19 200
20 200
21 199
22 199
23 199
24 199
25 198
26 198
27 198
28 198
29 198
30 199
30 200
31 201
32 201
33 202
33 203
34 202
34 201
33 201
32 200
33 199
34 199
35 199
36 199
37 199
38 199
39 199
40 199
41 199
42 200
43 200
44 200
45 200
46 200
47 200
48 200
49 200
50 200
51 200
52 200
53 200
54 200
55 200
56 200
57 200
58 200
59 200
60 200
61 200
62 200
63 200
64 200
65 200
66 201
67 201
68 201
69 201
70 201
71 201
72 201
73 201
74 202
74 203
74 204
74 205
74 206
74 207
75 208
75 209
75 210
75 211
75 212
76 213
76 214
76 215
77 216
77 217
77 218
78 219
79 220
79 221
80 222
81 223
82 223
83 223
84 222
85 222
85 221
86 220
87 220
88 220
89 220
90 221
91 222
92 222
93 223
94 224
95 224
96 224
97 224
98 223
98 222
99 221
99 220
99 219
100 218
101 218
102 218
103 219
104 219
105 219
106 219
107 219
108 219
109 219
110 219
111 219
112 219
113 218
114 218
115 218
116 218
117 217
117 216
118 215
117 215
116 214
117 213
118 213
119 213
120 213
121 213
122 212
123 212
124 212
124 211
125 210
126 209
126 208
126 207
126 206
125 205
126 204
127 204
128 204
129 203
130 203
131 203
132 203
133 203
134 203
135 203
136 203
137 203
138 203
139 203
140 204
141 205
142 206
143 206
144 207
145 208
146 209
147 210
148 210
149 211
150 212
151 212
152 212
153 213
154 213
155 214
156 215
156 214
157 213
156 212
155 212
154 211
154 210
155 209
156 209
157 210
158 211
159 212
160 212
161 212
162 213
163 213
163 212
164 211
163 211
162 210
163 209
164 208
165 208
166 209
167 209
168 210
169 211
170 211
171 212
172 212
173 212
174 213
175 213
176 214
177 214
177 213
177 212
176 211
176 210
176 209
176 208
177 207
178 207
179 208
180 209
181 210
182 210
183 211
184 211
185 212
186 212
187 213
188 213
189 214
190 214
191 215
192 215
192 214
192 213
191 212
190 212
189 211
190 210
190 209
191 208
192 208
193 209
194 210
195 211
196 212
197 212
198 213
199 213
200 214
201 215
202 215
203 215
204 215
204 214
205 213
204 213
203 212
204 211
205 210
206 210
207 210
208 211
209 211
210 212
211 212
212 212
213 213
214 213
215 214
216 214
217 215
218 215
219 215
219 214
219 213
218 213
217 212
216 211
217 210
218 210
219 210
220 210
221 211
222 211
223 212
224 212
225 212
226 213
227 213
228 214
229 214
229 213
229 212
228 211
227 211
226 210
227 209
227 208
228 207
229 207
230 208
231 208
232 208
233 209
234 209
235 210
236 210
237 210
238 211
239 211
240 211
241 211
241 210
241 209
240 209
239 208
240 207
240 206
241 205
242 205
243 205
244 205
245 205
246 205
247 205
248 205
249 206
250 206
251 206
252 206
253 206
254 206
255 206
256 206
257 206
258 207
259 207
260 207
261 207
262 207
263 207
264 208
265 208
266 208
267 208
268 209
269 209
270 210
270 209
271 208
270 208
269 207
270 206
271 205
272 205
273 205
274 205
275 204
275 203
274 203
273 203
272 203
271 203
270 202
269 202
268 202
267 202
266 202
265 202
264 202
263 202
262 202
261 202
260 202
259 202
258 202
257 202
256 201
255 201
254 201
253 201
252 201
251 201
250 201
249 201
248 201
247 201
246 200
245 200
244 200
243 200
242 200
241 199
240 199
239 199
238 198
237 198
236 198
235 197
234 197
233 197
232 197
231 196
230 196
229 196
228 196
227 195
226 195
225 194
226 193
227 193
228 193
229 193
230 193
231 193
232 193
233 193
234 192
235 192
236 192
237 192
238 192
239 192
240 192
241 192
242 192
243 192
244 191
245 191
246 191
247 191
248 191
249 191
250 191
251 191
252 191
253 191
254 191
255 191
256 191
257 191
258 191
259 191
260 191
261 191
262 191
263 191
264 191
265 191
266 191
267 191
268 191
269 192
270 192
271 193
272 193
273 193
274 194
275 194
276 195
277 195
278 196
279 196
280 196
281 197
282 197
283 197
284 198
285 198
286 199
287 199
288 200
289 200
290 201
291 201
292 201
293 202
294 202
295 203
296 203
297 204
298 204
299 204
300 205
301 205
302 206
303 206
304 207
305 207
306 208
307 208
308 208
309 209
310 209
311 209
312 210
313 210
314 211
315 211
316 211
317 211
318 211
319 211
320 211
321 210
322 209
323 209
323 208
324 207
325 207
326 206
327 206
327 205
328 204
329 204
329 203
330 202
331 201
331 200
332 199
332 198
332 197
333 196
333 195
332 194
332 193
333 192
333 191
333 190
333 189
333 188
333 187
332 186
333 185
333 184
332 184
331 183
330 182
331 181
331 180
332 179
332 178
332 177
333 176
333 175
333 174
332 174
331 173
330 172
329 171
330 170
330 169
330 168
329 168
328 167
329 166
328 166
327 166
326 165
327 164
326 164
325 164
324 163
325 162
325 161
325 160
324 160
323 159
324 158
323 158
322 157
321 156
320 156
319 155
318 155
317 155
316 155
315 155
314 156
313 156
312 156
311 156
310 156
309 157
308 157
307 157
306 157
305 157
304 158
303 158
302 158
301 158
300 159
299 159
298 159
297 160
296 160
295 160
294 161
293 161
292 161
291 162
290 162
289 163
288 163
287 163
286 164
285 165
284 165
283 166
282 166
281 167
280 167
279 168
278 168
277 168
276 169
275 170
274 170
273 171
272 172
271 172
270 173
269 173
268 174
267 174
266 175
265 175
264 175
263 175
262 175
261 175
260 175
259 175
258 175
257 175
256 175
255 175
254 175
253 175
252 175
251 175
250 175
249 175
248 175
247 175
246 175
245 175
244 175
243 175
242 175
241 175
240 175
239 175
238 174
237 175
236 175
235 175
234 175
233 175
232 175
231 175
230 175
229 175
228 175
227 175
226 175
225 175
224 175
223 175
222 175
221 175
220 174
219 174
218 173
217 174
216 174
215 174
214 174
213 174
212 174
211 174
210 174
209 173
210 172
211 171
212 171
213 170
214 170
215 170
216 171
217 170
218 170
219 170
220 169
221 169
222 169
223 169
224 169
225 169
226 169
227 169
228 169
229 169
230 168
231 168
232 168
233 168
234 168
235 168
236 168
237 168
238 168
239 168
240 168
241 168
242 168
243 168
244 168
245 168
246 168
247 168
248 168
249 168
250 168
251 168
252 167
253 167
254 167
255 167
256 167
257 166
258 166
259 166
260 165
261 165
262 164
263 164
264 163
265 163
266 162
267 161
268 161
269 161
269 160
269 159
268 159
267 158
268 157
268 156
268 155
269 154
270 154
271 153
272 152
273 151
274 151
275 151
276 151
277 150
277 149
276 148
275 148
274 148
273 148
272 147
271 147
270 147
269 147
268 147
267 146
266 147
265 147
264 147
263 146
262 146
261 146
260 146
259 146
258 146
257 146
256 146
255 145
254 145
253 144
252 144
251 144
250 144
249 143
248 143
247 143
246 143
245 143
244 143
243 143
242 144
241 144
240 144
239 144
238 143
237 143
236 143
235 143
234 143
233 142
232 142
231 142
230 142
229 142
228 142
227 142
226 142
225 142
224 142
223 141
222 141
221 141
220 140
219 140
218 139
217 138
217 137
216 137
215 137
214 137
213 137
212 137
211 138
210 138
209 138
208 138
207 138
206 138
205 137
204 137
203 136
202 136
201 135
200 134
200 133
200 132
199 132
198 132
197 132
196 132
195 132
194 132
193 132
192 132
191 131
190 131
189 130
188 130
187 129
186 128
185 128
184 128
183 128
182 128
181 127
180 127
179 127
178 127
177 126
176 125
176 124
175 124
174 124
173 124
172 125
171 125
170 125
169 125
168 125
167 125
166 125
165 125
164 124
165 123
165 122
164 122
163 121
162 121
161 122
160 122
159 122
158 123
157 123
156 123
155 123
154 122
153 121
152 121
151 121
150 121
149 122
148 122
147 123
146 124
145 125
144 126
143 126
142 127
141 128
140 129
140 130
139 131
138 132
137 133
136 134
136 135
135 136
134 137
134 138
133 139
132 140
132 141
131 142
130 143
130 144
129 145
128 146
128 147
127 148
127 149
126 150
126 151
125 152
125 153
124 154
123 155
123 156
122 157
122 158
121 159
121 160
120 161
119 162
119 163
118 164
117 163
116 162
117 161
117 160
116 160
115 159
116 158
116 157
116 156
116 155
117 154
117 153
117 152
117 151
118 150
118 149
118 148
119 147
119 146
119 145
120 144
121 143
121 142
122 141
122 140
122 139
122 138
122 137
122 136
121 136
120 135
121 134
121 133
121 132
121 131
120 131
119 130
120 129
120 128
120 127
120 126
120 125
120 124
120 123
120 122
120 121
120 120
120 119
120 118
120 117
120 116
120 115
120 114
120 113
120 112
120 111
120 110
120 109
120 108
120 107
120 106
120 105
120 104
120 103
121 102
121 101
121 100
121 99
121 98
121 97
121 96
121 95
121 94
121 93
122 92
122 91
122 90
122 89
122 88
123 87
123 86
124 85
124 84
124 83
124 82
124 81
124 80
125 79
125 78
125 77
125 76
125 75
125 74
125 73
125 72
126 71
126 70
127 69
127 68
127 67
128 66
128 65
129 64
129 63
130 62
130 61
130 60
131 59
132 58
132 57
133 56
134 55
134 54
135 53
136 52
136 51
137 50
137 49
138 48
139 47
139 46
140 45
141 44
141 43
142 42
143 41
144 40
144 39
145 38
146 37
147 36
147 35
148 34
149 33
149 32
150 31
151 30
152 29
152 28
153 27
154 27
155 26
155 25
156 24
157 23
158 22
158 21
159 20
160 19
161 18
161 17
162 16
163 16
163 15
164 14
165 13
166 12
167 11
168 10
169 9
170 8
171 7
172 6
173 6
173 5
174 4
174 3
175 2
174 2
