147 2
146 3
145 4
144 5
143 5
142 6
141 7
140 8
139 9
138 10
137 11
136 12
135 12
134 13
134 14
133 15
132 16
131 17
130 18
129 19
128 19
128 20
127 21
126 22
125 23
124 24
123 25
123 26
122 27
121 28
120 29
120 30
119 31
118 32
117 33
116 34
115 35
114 36
113 36
112 35
111 34
110 33
111 32
111 31
111 30
111 29
112 28
112 27
113 26
113 25
114 24
113 24
112 25
111 26
110 27
109 28
108 28
107 27
108 26
108 25
108 24
108 23
108 22
108 21
108 20
108 19
107 19
106 19
106 20
105 21
104 21
103 20
104 19
104 18
104 17
104 16
105 15
104 15
103 15
102 16
101 17
100 18
99 19
98 19
97 19
96 19
95 18
96 17
96 16
96 15
97 14
96 14
95 15
94 15
94 16
93 17
92 18
91 19
91 20
90 21
89 22
89 23
88 24
87 25
86 26
86 27
85 28
84 29
84 30
83 31
82 32
82 33
81 34
80 34
79 34
78 34
77 34
76 34
75 34
74 34
73 35
72 35
71 35
70 35
69 35
68 35
67 35
66 35
65 36
64 36
63 36
62 36
61 36
60 36
59 36
58 36
57 37
56 37
55 37
54 37
53 37
52 38
51 38
50 38
49 38
48 38
47 38
46 37
47 36
47 35
46 35
45 34
44 34
43 34
42 34
41 34
40 34
39 34
38 34
37 35
36 35
35 36
34 36
33 37
32 37
31 37
30 38
30 39
29 40
29 41
28 42
27 43
26 44
25 45
24 46
23 46
22 46
21 46
21 47
21 48
20 49
19 50
18 51
17 52
16 53
15 54
15 55
14 56
13 57
12 58
11 59
10 60
9 61
8 62
7 63
6 63
5 63
4 64
3 65
2 66
2 67
2 68
2 69
2 70
3 71
4 72
5 72
6 73
7 73
8 74
9 74
10 74
11 74
12 74
13 74
14 74
15 74
16 74
17 74
18 74
19 74
20 73
21 73
22 73
23 73
24 74
25 74
26 74
27 75
28 75
29 76
30 76
31 77
32 77
33 77
34 77
35 77
36 77
37 77
38 77
39 77
40 77
41 77
42 77
43 77
44 77
45 77
46 77
47 77
48 77
49 77
50 77
51 78
52 78
53 78
54 78
55 78
56 78
57 78
58 78
59 78
60 78
61 78
62 78
63 77
64 77
65 77
66 78
66 79
66 80
66 81
66 82
65 83
65 84
65 85
64 86
64 87
64 88
64 89
65 90
65 91
66 92
67 91
68 92
69 93
70 94
71 95
72 96
73 97
73 96
74 95
75 94
76 94
77 95
77 96
78 97
79 98
80 99
81 99
82 100
83 100
84 101
85 101
86 101
86 100
87 99
87 98
88 97
89 98
90 99
91 99
92 100
93 100
94 101
95 101
96 102
97 102
98 102
99 102
100 102
101 101
102 101
102 100
102 99
103 98
104 98
105 99
106 99
107 99
108 100
109 99
110 99
111 99
112 99
113 99
114 98
115 97
115 96
114 95
115 94
114 94
113 93
114 92
115 92
116 92
117 92
118 92
119 91
120 91
121 91
121 90
122 89
122 88
123 87
122 87
121 86
120 85
119 84
120 83
119 83
118 82
119 81
120 81
121 81
122 81
123 81
124 81
125 81
126 81
127 81
128 81
129 81
130 81
131 81
132 80
133 80
134 79
135 78
136 78
137 77
138 76
139 76
140 77
141 77
142 78
143 79
143 80
144 81
145 82
146 83
147 84
147 85
148 86
149 87
150 87
151 88
152 89
153 89
153 88
153 87
153 86
154 85
155 86
156 87
156 88
157 88
158 88
158 87
159 86
160 85
161 85
162 86
163 87
164 88
165 88
166 88
166 87
166 86
165 85
166 84
167 83
168 82
169 83
170 84
171 85
172 86
173 86
174 86
174 85
174 84
173 83
174 82
175 81
176 81
177 81
178 82
179 83
180 83
181 83
181 82
181 81
181 80
181 79
182 78
183 79
184 79
185 79
186 80
187 80
188 80
188 79
188 78
188 77
189 76
190 76
191 77
192 77
193 77
194 78
195 79
196 79
197 80
198 80
198 79
199 78
198 78
197 77
197 76
198 75
199 75
200 76
201 76
202 77
203 77
204 77
205 77
206 77
206 76
207 75
206 75
205 75
204 74
205 73
206 72
207 73
208 73
209 73
210 74
211 74
211 73
211 72
212 71
213 71
214 71
215 71
216 71
217 71
218 71
219 71
220 70
220 69
219 69
218 69
217 68
216 68
215 68
214 67
213 67
212 66
211 65
210 65
209 64
208 64
207 63
208 62
209 62
210 62
211 61
212 61
213 61
214 61
215 60
216 60
217 60
218 60
219 60
220 59
221 59
222 59
223 59
224 59
225 58
226 58
227 58
228 58
229 58
230 58
231 57
232 57
233 57
234 57
235 58
236 58
237 58
238 58
239 59
240 59
241 59
242 59
243 60
244 60
245 60
246 60
247 60
248 60
249 61
250 61
251 61
252 62
253 62
254 62
255 63
256 63
257 63
258 63
259 63
260 63
261 63
262 63
263 63
264 64
265 64
266 64
267 64
268 65
269 65
270 65
271 65
272 65
273 65
274 65
275 66
276 66
277 66
278 66
279 66
280 66
281 66
282 66
283 65
284 64
285 63
286 63
286 62
287 61
287 60
287 59
288 58
288 57
289 56
289 55
290 54
290 53
290 52
290 51
290 50
291 49
291 48
290 47
290 46
290 45
290 44
289 43
290 42
290 41
290 40
290 39
290 38
290 37
290 36
289 36
288 35
289 34
288 34
287 33
286 32
285 31
284 30
283 30
282 29
281 29
280 29
279 29
278 29
277 29
276 30
275 30
274 30
273 30
272 30
271 31
270 31
269 31
268 31
267 32
266 32
265 32
264 32
263 33
262 33
261 33
260 34
259 34
258 34
257 34
256 34
255 34
254 35
253 35
252 35
251 35
250 36
249 36
248 37
247 37
246 37
245 37
244 38
243 38
242 38
241 39
240 39
239 39
238 40
237 40
236 40
235 41
234 41
233 41
232 41
231 41
230 41
229 42
228 42
227 42
226 43
225 43
224 44
223 43
222 44
221 44
220 44
219 44
218 44
217 44
216 44
215 44
214 44
213 44
212 44
211 44
210 44
209 44
208 44
207 44
206 44
205 43
204 43
203 43
202 43
201 43
200 43
199 43
198 43
197 43
196 43
195 43
194 43
193 43
192 43
191 43
190 43
189 43
188 43
187 43
186 42
187 41
188 41
189 40
190 40
191 39
192 39
193 38
194 38
195 38
196 37
197 37
198 37
199 36
200 36
201 36
202 35
203 35
204 34
205 34
206 34
207 34
208 33
209 32
210 32
211 32
212 31
213 30
214 29
215 29
216 28
217 27
217 26
216 26
215 25
214 25
213 25
212 25
211 24
211 23
210 23
209 23
208 24
207 24
206 25
205 25
204 25
203 25
202 25
201 24
200 24
199 24
198 24
197 23
198 22
199 22
199 21
200 20
199 20
198 20
197 21
196 21
195 22
194 22
193 22
192 22
191 22
190 22
189 22
188 21
189 20
189 19
188 19
187 19
186 20
185 20
184 20
183 20
182 21
181 21
180 20
179 19
179 18
180 17
180 16
179 16
178 17
177 18
176 18
175 19
174 19
173 19
172 18
171 17
172 16
172 15
173 14
173 13
172 13
171 14
170 15
169 16
168 17
167 17
166 16
165 16
164 15
165 14
165 13
165 12
164 12
163 13
162 14
161 14
160 13
159 13
158 12
159 11
159 10
158 10
157 10
156 11
155 11
154 11
153 10
154 9
154 8
153 8
152 7
152 6
153 5
152 5
151 6
150 6
149 5
148 4
149 3
149 2
148 2
