127 1
126 2
125 3
124 4
123 4
122 4
121 5
120 5
119 5
118 6
117 5
116 4
115 5
114 6
113 7
112 7
111 7
110 6
109 6
108 5
109 4
109 3
108 3
107 4
106 5
105 6
105 7
104 8
104 9
103 10
103 11
102 12
102 13
101 14
101 15
100 16
100 17
99 18
98 19
98 20
98 21
97 22
97 23
96 24
96 25
95 26
95 27
94 28
94 29
94 30
93 31
93 32
92 33
91 34
90 34
89 34
88 34
87 34
86 34
85 34
84 34
83 33
82 33
81 33
80 33
79 33
78 33
77 33
76 33
75 33
74 33
73 33
72 33
71 33
70 33
69 33
68 33
67 33
66 34
65 34
64 34
63 34
62 34
61 34
60 34
59 35
58 35
57 35
56 35
55 36
54 36
53 36
52 36
51 36
50 37
49 37
48 37
47 37
46 38
45 38
44 38
43 39
42 39
41 39
40 39
39 40
38 40
37 40
36 40
36 41
35 42
34 42
33 42
32 42
31 42
30 43
29 43
28 43
27 43
26 44
25 44
24 44
23 45
22 45
21 45
20 45
19 46
18 46
17 46
16 47
15 47
14 47
13 47
12 48
11 49
10 50
9 50
8 51
7 52
7 53
6 54
5 55
5 56
4 57
3 57
3 58
3 59
2 60
2 61
3 62
2 63
2 64
2 65
3 66
3 67
4 68
4 69
5 70
6 71
6 72
7 73
8 73
9 74
10 75
11 75
12 76
13 76
14 76
15 77
16 77
17 78
18 79
19 80
20 80
21 80
22 81
23 82
24 82
25 83
26 83
27 84
28 84
29 85
30 85
31 86
32 86
33 86
34 87
35 87
36 87
37 87
38 88
39 89
40 89
41 90
42 90
43 91
44 91
45 91
46 91
47 92
48 92
49 92
50 92
51 93
52 93
53 93
54 93
55 93
56 93
57 94
58 94
59 94
60 94
61 94
62 95
63 95
64 95
65 96
66 96
67 96
68 96
69 97
70 97
71 97
72 98
73 98
74 98
75 98
76 99
77 99
78 99
79 99
80 100
81 100
82 101
83 101
84 101
85 101
86 102
86 103
86 104
86 105
86 106
85 107
85 108
85 109
85 110
85 111
85 112
85 113
86 114
87 114
88 115
89 115
90 115
91 115
92 116
93 116
94 116
95 116
96 116
97 116
98 116
99 116
100 116
101 116
102 116
103 117
104 117
105 117
106 117
107 117
108 117
109 117
110 117
111 117
112 117
113 117
114 117
115 118
116 118
117 117
118 118
119 118
120 118
121 118
122 118
123 119
124 119
125 119
126 119
127 119
128 119
129 119
130 118
130 117
131 116
130 116
129 115
128 114
127 113
126 112
125 111
124 110
123 110
122 109
121 109
120 108
119 107
118 106
119 105
120 105
121 105
122 105
123 105
124 105
125 105
126 105
127 105
128 105
129 106
130 106
131 106
132 106
133 106
134 106
135 106
136 106
137 106
138 106
139 105
140 105
141 105
142 105
143 105
144 104
145 104
146 104
147 104
148 104
149 104
150 104
151 104
152 104
153 104
154 104
155 105
156 106
157 107
158 108
159 109
160 110
161 111
162 112
163 113
164 114
165 115
166 116
167 117
168 117
169 118
170 119
171 120
172 121
173 122
174 123
175 123
176 124
177 124
178 125
179 125
180 125
181 125
182 125
183 126
184 126
185 126
186 127
187 127
188 127
189 127
190 127
191 127
192 127
193 128
194 128
195 128
196 128
197 128
198 128
199 129
200 128
201 129
202 129
203 129
204 129
205 129
206 129
207 130
208 130
209 130
210 131
211 130
212 130
213 130
214 131
215 131
216 131
217 131
218 131
219 131
220 131
221 131
222 131
223 131
224 131
225 131
226 131
227 130
228 131
229 131
230 130
231 130
232 130
233 130
234 129
235 129
236 129
237 129
238 128
239 127
240 127
241 126
242 125
243 124
243 123
244 122
244 121
245 120
245 119
246 118
245 118
244 117
243 116
242 115
241 114
240 114
239 113
240 112
239 112
238 112
237 111
236 110
235 109
234 109
233 108
232 107
231 106
230 105
229 105
228 105
227 104
226 103
225 102
224 102
223 101
224 100
225 100
226 100
227 100
228 100
229 100
230 100
231 100
232 100
233 100
234 100
235 100
236 100
237 99
238 99
239 99
240 99
241 99
242 99
243 99
244 99
245 99
246 99
247 99
248 99
249 99
250 99
251 99
252 99
253 99
254 99
255 99
256 99
257 99
258 99
259 100
260 100
261 100
262 101
263 101
264 101
265 101
266 102
267 102
268 102
269 102
270 103
271 103
272 103
273 104
274 104
275 104
276 105
277 105
278 105
279 105
280 105
281 106
282 106
283 107
284 107
285 107
286 108
287 108
288 108
289 108
290 109
291 109
292 109
293 109
294 110
295 110
296 110
297 111
298 111
299 112
300 112
301 112
302 113
303 113
304 113
305 113
306 112
307 113
308 112
309 111
310 111
311 110
312 110
313 109
314 108
315 107
316 106
317 105
318 105
318 104
319 103
320 102
321 102
321 101
322 100
322 99
322 98
323 97
324 96
324 95
325 94
325 93
325 92
325 91
326 90
326 89
327 88
327 87
327 86
328 85
328 84
328 83
328 82
328 81
329 80
329 79
329 78
328 78
327 77
328 76
328 75
329 74
329 73
328 73
327 72
328 71
328 70
328 69
327 69
326 68
327 67
327 66
326 66
325 65
326 64
326 63
325 63
324 62
323 61
322 60
323 59
322 59
321 58
322 57
321 57
320 56
319 55
318 54
317 53
318 52
317 52
316 51
315 51
314 50
313 49
312 48
311 48
310 47
309 47
308 47
307 47
306 46
305 46
304 47
303 46
302 46
301 46
300 47
299 47
298 47
297 47
296 47
295 47
294 48
293 48
292 49
291 49
290 50
289 51
288 51
287 51
286 52
285 52
284 53
283 54
282 55
281 55
280 56
279 56
278 57
277 58
276 58
275 59
274 60
273 61
272 62
271 62
270 63
269 63
268 64
267 65
266 65
265 66
264 66
263 66
262 67
261 67
260 68
259 68
258 69
257 69
256 69
255 69
254 70
253 70
252 70
251 70
250 70
249 70
248 69
247 69
246 69
245 70
244 69
243 69
242 69
241 69
240 69
239 68
238 68
237 68
236 68
235 67
234 67
233 67
232 67
231 66
230 65
231 64
232 64
233 63
234 63
235 62
236 62
237 61
238 60
239 59
240 59
241 58
242 58
243 57
244 56
244 55
245 54
244 54
243 53
244 52
243 52
242 51
241 50
240 50
239 49
238 48
237 47
236 46
235 45
234 44
233 44
232 43
231 42
230 41
229 41
228 40
227 39
226 39
225 38
226 37
225 37
224 37
223 37
222 36
221 36
220 35
219 35
218 34
217 33
216 33
215 33
214 32
213 31
212 31
211 31
210 30
209 29
208 29
207 29
206 28
205 28
204 28
203 28
202 27
201 27
200 27
199 27
198 26
197 27
196 26
195 26
194 25
193 25
192 25
191 25
190 25
189 25
188 25
187 24
186 24
185 23
184 23
183 23
182 23
181 22
180 23
179 23
178 23
177 24
176 25
175 26
175 27
174 28
173 29
172 28
171 28
170 29
169 30
168 31
168 32
167 33
166 34
165 35
164 36
164 37
163 38
162 39
162 40
161 41
161 42
160 43
159 44
158 45
157 46
156 47
155 47
154 47
153 47
152 46
151 46
150 46
149 46
148 45
147 45
146 45
145 44
144 43
143 42
144 41
144 40
144 39
144 38
144 37
144 36
144 35
144 34
145 33
145 32
145 31
145 30
145 29
145 28
146 27
146 26
145 26
144 26
143 26
142 25
141 24
142 23
141 23
140 22
141 21
141 20
141 19
141 18
141 17
141 16
141 15
142 14
142 13
141 13
140 14
139 14
138 13
139 12
139 11
138 11
137 10
138 9
137 9
136 8
137 7
136 7
135 6
135 5
136 4
136 3
135 3
134 4
133 4
132 4
131 4
130 4
129 4
128 4
127 3
128 2
128 1
