110 1
109 2
108 3
107 3
107 4
106 5
105 6
105 7
104 8
103 9
102 9
101 9
100 10
99 10
98 10
97 10
96 9
97 8
97 7
96 7
96 8
95 9
94 10
93 11
93 12
93 13
92 14
91 15
91 16
91 17
90 18
90 19
89 20
89 21
89 22
89 23
88 24
88 25
87 26
87 27
87 28
86 29
86 30
86 31
85 32
85 33
84 34
84 35
84 36
84 37
83 38
83 39
82 40
82 41
82 42
81 43
81 44
80 45
79 45
78 45
77 45
76 45
75 45
74 45
73 45
72 46
71 46
70 46
69 46
68 46
67 46
66 46
65 46
64 47
63 47
62 47
61 47
60 47
59 47
58 47
57 47
56 48
55 48
54 48
53 49
52 49
51 49
50 49
49 49
48 50
47 50
46 50
45 51
44 51
43 51
42 51
41 51
40 52
39 51
38 51
37 50
36 50
35 50
34 50
33 49
32 50
31 49
30 50
29 50
28 50
27 51
26 51
25 52
24 53
23 54
22 54
21 55
20 56
19 56
18 57
17 58
16 58
15 59
14 60
13 61
12 61
11 62
10 62
9 63
8 64
7 65
6 66
6 67
6 68
6 69
6 70
5 71
4 71
3 71
2 72
2 73
2 74
2 75
3 76
3 77
4 78
4 79
5 80
5 81
6 82
7 83
8 84
9 85
10 86
11 87
12 88
13 89
14 90
15 90
16 91
17 92
18 93
19 94
20 94
21 95
22 96
23 96
24 97
25 97
26 97
27 98
28 98
29 99
30 99
31 100
32 100
33 101
34 101
35 101
36 102
37 102
38 103
39 104
40 104
41 104
42 104
43 105
44 105
45 105
46 106
47 106
48 106
49 107
50 107
51 107
52 107
53 107
54 107
55 108
56 108
57 108
58 108
59 108
60 108
61 109
62 109
63 109
64 109
65 110
66 110
67 110
68 110
69 110
70 110
71 110
72 111
72 112
72 113
73 114
73 115
73 116
74 117
75 118
76 119
77 120
78 121
79 122
80 123
81 123
82 124
83 124
84 124
85 125
86 125
87 125
88 125
89 125
90 125
91 126
92 126
93 126
94 126
95 126
96 126
97 126
98 126
99 126
100 126
101 126
102 126
103 126
104 126
105 126
106 126
107 125
108 126
109 126
110 126
111 126
112 126
113 126
114 126
115 126
116 126
117 126
118 126
119 126
120 126
121 126
122 126
123 126
124 126
125 126
126 126
127 126
128 126
129 126
130 127
131 126
131 125
130 124
131 123
131 122
130 122
129 121
128 121
127 120
126 120
125 119
124 119
123 119
122 119
121 119
120 118
119 117
120 116
121 116
122 116
123 116
124 116
125 116
126 116
127 116
128 115
129 116
130 115
131 115
132 115
133 115
134 115
135 114
136 114
137 113
138 112
139 112
140 112
141 113
142 114
143 115
143 116
144 117
145 118
146 119
147 120
148 121
149 122
150 123
150 124
151 125
152 126
153 127
154 128
155 128
156 129
157 130
157 131
158 131
159 132
159 133
160 133
161 134
162 135
163 135
164 135
165 135
166 135
166 134
167 133
168 133
169 134
170 133
171 132
172 132
173 131
174 131
175 132
176 131
176 130
177 129
178 130
179 130
179 129
180 128
181 128
182 128
183 127
184 127
185 127
186 127
186 126
187 125
188 125
189 124
190 123
191 122
192 122
193 122
194 122
195 121
196 122
197 121
198 120
199 120
200 120
201 119
202 119
203 119
203 118
204 117
205 117
206 117
206 116
207 115
207 114
206 114
205 114
204 113
203 112
202 112
201 112
200 111
199 111
198 110
197 109
196 108
195 107
194 106
195 105
194 105
193 104
194 103
193 103
192 102
193 101
194 101
195 101
196 101
197 101
198 101
199 100
200 100
201 100
202 101
203 100
204 100
205 100
206 100
207 100
208 100
209 100
210 99
211 99
212 99
213 99
214 99
215 99
216 99
217 99
218 99
219 99
220 99
221 99
222 99
223 99
224 100
225 100
226 100
227 100
228 100
229 100
230 100
231 101
232 101
233 101
234 101
235 102
236 102
237 103
238 103
239 104
240 105
241 105
242 106
243 106
244 107
245 108
246 109
247 110
248 110
249 110
250 111
251 112
252 112
253 112
254 113
255 114
256 114
257 114
258 115
259 116
260 116
261 116
262 117
263 117
264 117
265 117
266 117
267 117
268 117
269 117
270 116
271 116
272 115
273 115
274 114
275 113
276 113
277 112
277 111
278 110
279 110
280 109
281 108
282 107
282 106
283 105
284 104
284 103
285 102
286 101
286 100
287 99
287 98
287 97
288 96
288 95
288 94
288 93
288 92
288 91
288 90
288 89
289 88
289 87
289 86
289 85
289 84
289 83
288 82
289 81
289 80
289 79
289 78
288 78
287 77
288 76
288 75
288 74
288 73
288 72
287 72
286 71
287 70
286 70
285 69
286 68
285 68
284 68
283 67
284 66
283 66
282 65
283 64
282 64
281 63
282 62
281 62
280 61
279 60
278 59
277 59
276 59
275 59
274 59
273 59
272 59
271 59
270 59
269 59
268 59
267 59
266 59
265 60
264 60
263 60
262 60
261 60
260 61
259 61
258 61
257 61
256 61
255 62
254 62
253 62
252 63
251 63
250 64
249 64
248 65
247 65
246 65
245 66
244 66
243 67
242 67
241 68
240 68
239 68
238 68
237 69
236 69
235 70
234 70
233 70
232 71
231 71
230 71
229 72
228 72
227 72
226 72
225 72
224 72
223 72
222 72
221 72
220 72
219 72
218 72
217 72
216 72
215 72
214 71
213 71
212 71
211 71
210 71
209 71
208 70
207 70
206 70
205 70
204 69
203 69
202 69
201 69
200 68
199 68
198 68
197 68
196 68
195 68
194 67
195 66
196 65
197 64
197 63
198 62
199 61
200 60
200 59
201 58
202 57
202 56
203 55
204 54
205 53
206 52
206 51
207 50
207 49
208 48
208 47
209 46
209 45
210 44
210 43
210 42
210 41
210 40
211 39
210 39
209 39
208 38
207 37
206 37
205 37
204 38
203 37
202 37
201 36
200 36
199 35
200 34
200 33
199 33
198 33
197 32
196 32
195 32
194 31
195 30
194 30
193 30
192 29
191 29
190 28
189 27
190 26
189 26
188 27
187 26
186 25
185 24
184 24
183 24
182 24
181 23
180 23
179 22
178 22
177 21
176 21
175 22
174 22
173 21
173 20
172 20
171 19
172 18
171 18
170 18
169 18
168 18
167 18
166 19
165 20
164 20
163 21
162 22
161 23
160 24
159 24
158 23
159 22
159 21
158 21
157 21
156 22
155 23
154 24
153 25
152 26
152 27
151 28
150 29
150 30
149 31
148 32
148 33
147 34
147 35
146 36
146 37
145 38
144 39
144 40
143 41
143 42
143 43
142 44
142 45
141 46
141 47
140 48
140 49
139 50
139 51
138 52
137 52
136 52
135 52
134 52
133 51
132 51
131 51
130 51
129 50
128 50
127 50
126 50
125 49
124 49
123 49
122 48
123 47
122 47
121 46
122 45
122 44
121 44
120 43
121 42
121 41
121 40
121 39
121 38
122 37
122 36
121 36
120 36
119 35
120 34
120 33
120 32
120 31
120 30
120 29
120 28
121 27
121 26
122 25
122 24
121 24
120 25
119 25
118 24
117 23
118 22
118 21
118 20
119 19
119 18
119 17
119 16
120 15
120 14
121 13
121 12
122 11
121 11
120 12
119 12
118 12
117 12
116 11
117 10
116 10
115 9
116 8
116 7
116 6
116 5
116 4
117 3
116 3
115 4
114 5
114 6
113 7
112 8
111 9
110 9
109 8
110 7
110 6
110 5
110 4
110 3
110 2
111 1
