98 4
97 5
96 6
95 7
95 8
94 9
93 10
92 11
92 12
91 13
91 14
90 15
90 16
89 17
89 18
88 19
88 20
87 21
87 22
86 23
86 24
86 25
85 26
84 27
83 26
82 25
83 24
83 23
83 22
82 22
81 21
82 20
82 19
81 19
80 18
81 17
81 16
81 15
81 14
81 13
81 12
81 11
80 11
79 12
79 13
78 14
78 15
77 16
77 17
76 18
76 19
75 20
75 21
74 22
74 23
74 24
73 25
72 26
72 27
71 28
70 27
69 26
70 25
70 24
70 23
70 22
70 21
70 20
70 19
69 19
68 20
68 21
67 22
67 23
67 24
66 25
66 26
66 27
66 28
65 29
65 30
65 31
65 32
65 33
65 34
64 35
64 36
64 37
64 38
64 39
64 40
64 41
64 42
64 43
64 44
64 45
64 46
63 47
62 47
61 46
62 45
61 44
60 44
60 45
60 46
60 47
60 48
59 49
58 49
57 48
58 47
58 46
57 45
56 45
56 46
56 47
56 48
56 49
56 50
55 51
54 52
53 53
52 54
51 55
50 55
50 56
49 57
48 57
47 56
46 55
45 54
46 53
46 52
46 51
45 51
44 51
43 50
44 49
43 48
42 48
42 49
42 50
42 51
42 52
42 53
42 54
42 55
41 56
40 56
39 55
38 54
39 53
38 53
37 53
37 54
37 55
37 56
37 57
37 58
38 59
39 60
40 61
39 62
38 63
37 64
36 65
35 64
34 65
33 66
32 66
31 66
30 67
29 68
28 67
27 66
27 65
28 64
27 64
26 63
25 62
26 61
25 61
24 60
25 59
24 59
23 58
22 57
23 56
22 55
22 54
21 53
22 52
21 51
20 51
20 52
19 53
18 54
18 55
19 56
18 57
18 58
19 59
18 60
18 61
18 62
18 63
18 64
17 65
16 65
16 66
16 67
17 66
18 67
19 68
19 69
19 70
18 71
17 70
16 69
15 70
14 70
13 70
12 71
11 71
11 72
11 73
10 74
10 75
10 76
10 77
11 77
12 76
13 76
14 77
14 78
13 79
13 80
14 81
14 82
14 83
13 84
12 83
11 84
10 85
9 84
8 84
7 84
7 85
7 86
7 87
8 88
8 89
8 90
7 91
6 92
6 93
6 94
5 95
4 95
3 95
2 95
2 96
2 97
2 98
3 98
4 99
5 100
5 101
6 102
6 103
6 104
6 105
5 106
5 107
6 108
7 109
6 110
6 111
6 112
6 113
7 114
8 115
9 115
10 116
11 116
12 117
13 117
14 118
15 118
16 118
17 119
18 120
19 120
20 121
21 122
22 123
23 123
24 124
25 124
26 125
27 125
28 126
29 126
30 126
31 127
32 127
33 127
34 127
35 127
36 127
37 128
38 128
39 129
40 130
41 129
42 129
43 130
43 131
44 130
45 130
46 130
47 130
48 130
49 130
50 130
51 130
52 131
53 131
54 131
55 131
56 131
57 132
58 132
59 132
60 132
61 132
62 132
63 132
64 133
65 133
66 133
67 133
68 133
69 133
70 134
71 134
72 134
73 135
74 135
75 135
76 135
77 135
78 136
79 137
79 138
79 139
79 140
79 141
79 142
79 143
79 144
79 145
80 146
80 147
80 148
81 149
82 149
83 149
84 150
85 149
86 150
87 151
88 151
89 151
90 151
91 151
92 152
93 152
94 153
95 153
96 153
97 153
98 152
99 152
100 152
101 153
102 153
103 153
104 153
105 153
106 153
106 152
107 151
108 151
109 152
110 152
111 152
112 153
113 153
114 153
115 153
116 153
117 153
118 153
118 152
118 151
119 150
120 150
121 151
122 152
123 153
124 153
125 153
126 154
127 155
128 156
129 156
130 156
131 157
132 157
133 158
134 158
135 159
136 159
137 160
138 160
139 160
140 161
141 161
142 161
143 161
144 161
145 161
146 161
147 161
148 161
149 161
150 160
150 159
151 158
152 159
153 158
154 157
155 156
155 155
156 154
156 153
157 152
157 151
157 150
158 149
158 148
158 147
158 146
158 145
157 145
156 144
155 143
154 142
154 141
153 140
153 139
152 138
151 138
150 137
149 136
150 135
151 135
152 134
153 134
154 133
155 133
156 132
156 131
155 131
154 130
155 129
155 128
156 127
157 127
158 126
159 125
160 125
161 126
161 127
162 128
163 129
163 130
164 131
165 132
166 133
167 134
168 135
169 135
170 136
171 136
171 135
172 134
173 135
174 136
175 137
176 138
177 138
178 139
179 140
179 139
180 138
181 137
182 138
183 138
184 139
185 139
186 140
187 141
188 141
189 142
190 142
191 142
192 143
193 143
194 143
195 143
196 143
197 143
198 143
199 143
200 142
201 142
202 141
203 141
204 140
205 139
206 138
207 137
208 136
209 135
209 134
210 133
210 132
211 131
211 130
211 129
211 128
212 127
212 126
213 125
213 124
213 123
213 122
213 121
213 120
213 119
212 118
213 117
213 116
213 115
212 114
213 113
213 112
212 112
211 111
212 110
211 110
210 109
211 108
211 107
210 107
209 106
210 105
211 105
212 105
213 106
214 106
215 106
216 107
217 108
218 108
219 109
220 109
221 110
221 111
222 111
223 112
224 113
225 114
225 115
226 115
227 116
228 117
229 118
230 119
231 120
232 120
233 121
234 122
235 123
236 123
237 124
238 124
239 125
240 126
241 126
242 127
243 127
244 128
245 128
246 129
247 129
248 130
249 131
250 131
251 131
252 132
253 132
254 132
255 133
256 132
257 133
258 133
259 133
260 133
261 133
262 133
263 133
264 133
265 133
266 133
267 133
268 133
269 133
270 132
271 132
272 131
273 130
274 130
275 129
276 129
277 129
278 128
279 127
280 127
281 127
282 126
283 126
284 125
285 124
286 124
286 123
287 122
288 122
288 121
289 120
290 120
290 119
291 118
291 117
292 116
292 115
292 114
293 113
293 112
294 111
294 110
295 109
295 108
296 107
296 106
296 105
297 104
297 103
297 102
297 101
297 100
298 99
298 98
298 97
298 96
298 95
298 94
298 93
298 92
298 91
298 90
297 90
296 89
297 88
297 87
297 86
297 85
296 85
295 84
296 83
295 83
294 82
295 81
294 81
293 80
292 79
293 78
292 78
291 77
290 76
289 75
288 74
289 73
288 73
287 72
286 71
285 70
284 69
283 70
282 69
281 69
280 69
279 68
278 68
277 68
276 68
275 67
274 67
273 67
272 67
271 67
270 66
269 67
268 67
267 66
266 66
265 66
264 66
263 66
262 66
261 66
260 66
259 66
258 66
257 66
256 66
255 66
254 66
253 66
252 66
251 66
250 66
249 66
248 66
247 66
246 66
245 66
244 67
243 67
242 67
241 67
240 67
239 67
238 68
237 68
236 68
235 68
234 69
233 69
232 69
231 69
230 69
229 69
228 69
227 69
226 69
225 69
224 69
223 69
222 69
221 69
220 69
219 69
218 70
217 69
216 69
215 69
214 69
213 69
212 69
211 69
210 69
209 68
208 68
207 68
206 68
205 67
204 67
203 66
202 65
203 64
202 64
201 64
200 63
201 62
202 62
203 62
204 62
205 62
206 62
207 61
208 60
209 59
210 58
211 58
212 57
213 57
214 56
215 56
216 55
216 54
217 53
218 53
219 52
220 51
220 50
221 49
222 48
222 47
223 46
223 45
224 44
224 43
224 42
224 41
223 40
223 39
224 38
224 37
223 37
222 36
223 35
223 34
223 33
222 33
221 32
220 31
221 30
221 29
220 29
219 29
218 28
217 27
216 26
215 26
214 25
213 25
212 24
211 24
210 23
209 23
208 23
207 23
206 22
205 22
204 21
203 22
202 22
201 22
200 22
199 22
198 22
197 22
196 22
195 22
194 21
194 20
195 19
194 19
193 20
193 21
192 22
191 22
190 23
189 23
188 23
187 24
186 24
185 24
184 25
183 25
182 26
181 26
180 26
179 25
179 24
178 24
177 23
178 22
177 22
176 22
176 23
177 24
178 25
177 26
176 27
176 28
175 29
174 29
173 30
172 30
171 30
170 31
169 32
168 32
167 33
166 33
165 33
164 34
163 35
162 35
161 34
160 33
161 32
161 31
162 30
162 29
161 28
160 29
159 29
158 30
157 30
156 29
156 28
156 27
156 26
156 25
155 25
154 25
153 25
152 25
151 26
150 26
149 26
148 25
149 24
149 23
150 22
149 22
148 22
147 22
146 23
145 23
144 24
143 23
143 22
143 21
143 20
143 19
143 18
144 17
143 17
142 17
141 18
140 19
139 19
138 20
137 20
136 21
135 20
135 19
135 18
136 17
136 16
137 15
137 14
138 13
137 13
136 14
135 14
134 15
133 16
132 17
131 17
130 18
129 19
128 19
127 20
126 20
125 19
126 18
126 17
127 16
127 15
127 14
127 13
128 12
128 11
127 11
126 12
125 12
124 13
123 13
123 14
122 15
121 15
120 16
119 17
118 17
117 16
117 15
117 14
118 13
118 12
119 11
119 10
120 9
119 9
118 10
117 11
116 11
115 12
114 13
113 14
112 15
111 16
110 17
109 16
109 15
109 14
109 13
109 12
109 11
109 10
109 9
110 8
109 8
108 9
107 9
107 10
106 11
105 11
105 12
104 13
103 14
102 15
101 16
100 17
99 16
98 15
99 14
99 13
99 12
99 11
99 10
99 9
99 8
99 7
99 6
99 5
99 4
