138 5
137 6
136 6
135 7
134 8
133 9
132 9
131 10
130 11
129 12
128 13
127 14
126 15
126 16
125 17
124 18
124 19
123 20
122 21
121 22
120 23
119 24
119 25
118 26
117 27
116 28
115 28
114 28
113 27
112 26
113 25
113 24
112 24
111 23
112 22
112 21
112 20
113 19
113 18
112 18
111 19
110 20
109 20
108 21
107 22
106 23
105 24
105 25
104 26
103 27
102 28
102 29
101 30
101 31
100 32
100 33
99 34
99 35
99 36
98 37
98 38
97 39
96 40
95 40
94 40
93 41
92 41
91 41
90 41
89 41
88 42
87 42
86 42
85 43
84 43
83 43
82 43
81 44
80 44
79 45
78 45
77 44
78 43
78 42
79 41
80 40
80 39
81 38
80 38
79 39
78 39
77 40
76 41
75 42
74 43
74 44
73 45
72 46
71 45
71 44
71 43
72 42
73 41
73 40
72 40
71 41
70 41
70 42
69 43
68 44
67 45
67 46
66 47
66 48
65 49
65 50
65 51
64 52
63 52
62 52
61 52
60 52
59 51
60 50
60 49
59 49
58 49
57 50
56 50
55 51
54 51
53 51
52 50
53 49
52 49
51 48
52 47
52 46
53 45
53 44
54 43
54 42
53 42
52 41
52 40
53 39
53 38
52 38
51 38
50 37
51 36
50 36
49 36
48 37
47 38
47 39
46 40
45 39
44 38
43 38
43 39
42 40
42 41
43 42
44 43
44 44
45 45
45 46
45 47
45 48
45 49
45 50
45 51
45 52
44 53
43 53
42 53
41 54
40 55
39 56
38 57
37 58
37 59
36 60
35 61
34 62
33 63
32 64
31 63
30 63
29 63
28 63
27 64
27 65
26 66
25 67
25 68
24 69
23 70
22 70
21 71
20 72
20 73
19 74
19 75
19 76
18 77
17 78
16 79
15 79
15 80
14 81
14 82
13 83
13 84
13 85
12 86
12 87
12 88
12 89
11 90
11 91
11 92
10 93
10 94
10 95
11 96
11 97
11 98
10 99
10 100
9 101
8 102
7 102
6 102
5 102
4 103
3 103
2 104
2 105
2 106
3 106
4 106
5 105
6 105
7 105
8 105
9 104
10 104
11 103
12 102
13 103
13 104
12 105
11 106
10 107
9 108
9 109
9 110
9 111
9 112
9 113
8 114
8 115
8 116
9 115
10 114
10 113
11 112
11 111
12 110
12 109
12 108
13 107
14 107
15 108
15 109
16 110
17 110
18 110
19 111
19 112
18 113
18 114
17 115
16 116
16 117
15 118
14 119
13 120
12 120
11 121
10 121
9 121
8 121
8 122
9 123
10 123
11 123
12 122
13 122
14 121
15 121
16 121
17 120
18 119
19 118
19 117
20 116
21 115
21 114
22 113
23 112
24 113
25 114
26 114
27 115
27 116
27 117
27 118
27 119
27 120
27 121
27 122
27 123
27 124
27 125
28 126
29 127
30 127
31 127
32 126
33 125
33 124
34 123
35 122
36 123
37 124
38 125
39 126
40 126
41 127
41 128
42 129
42 130
42 131
42 132
42 133
43 134
44 135
45 136
46 136
47 136
48 136
49 136
49 135
50 134
50 133
50 132
49 132
48 131
49 130
50 130
51 130
52 130
53 131
54 131
55 132
56 132
57 132
58 132
59 133
60 133
61 133
62 134
62 135
62 136
63 137
63 138
63 139
64 140
64 141
65 142
65 143
66 144
66 145
67 146
67 147
68 148
68 149
68 150
68 151
68 152
69 153
69 154
70 155
70 156
71 157
72 158
73 159
74 160
75 160
76 160
77 161
78 162
79 162
80 162
81 161
82 160
83 161
84 161
85 161
86 162
87 162
88 162
89 162
90 163
91 164
92 165
93 165
94 165
95 165
96 165
97 165
98 166
99 167
100 168
101 168
102 169
103 170
104 170
105 171
106 170
107 170
108 171
109 172
110 172
111 172
112 172
113 173
114 173
115 174
116 174
117 173
118 173
119 172
120 171
121 171
122 171
123 172
124 172
125 172
126 173
127 173
128 174
129 174
130 174
131 174
132 173
133 173
134 173
134 172
135 171
135 170
136 169
137 168
138 168
139 168
140 168
141 168
142 168
143 168
144 167
145 166
146 167
147 168
148 168
149 169
149 170
150 170
151 171
152 172
153 172
154 172
155 173
156 173
157 174
158 175
159 175
160 175
161 176
162 176
163 177
164 177
165 177
166 176
167 176
168 176
169 177
170 177
171 178
172 178
172 177
173 176
174 176
175 176
176 177
177 177
178 176
179 177
180 177
181 177
182 177
182 176
183 175
184 174
184 173
185 172
186 171
187 171
188 171
188 170
189 169
190 168
190 167
191 166
190 166
189 166
188 165
188 164
189 163
189 162
188 162
187 161
188 160
188 159
189 158
188 158
187 157
188 156
189 156
190 156
191 155
192 156
193 157
193 158
193 159
194 160
194 161
194 162
194 163
195 164
195 165
196 166
196 167
196 168
197 169
197 170
198 171
198 172
199 173
200 174
200 175
201 176
201 177
201 178
202 179
203 179
204 180
205 181
205 180
206 179
205 178
205 177
205 176
205 175
205 174
206 173
207 174
208 175
208 176
209 177
210 178
211 179
212 180
213 181
213 182
214 183
215 183
216 184
216 185
217 186
218 186
219 187
220 188
221 189
222 189
223 189
224 189
225 189
225 188
224 188
223 187
224 186
223 186
222 185
221 184
222 183
222 182
221 181
222 180
223 180
224 180
225 180
226 181
227 181
228 182
229 182
230 183
231 183
232 184
233 184
234 185
235 186
236 186
237 186
238 187
239 187
240 188
241 188
242 189
243 189
244 189
245 189
246 189
247 189
248 189
249 189
250 189
251 189
252 189
253 189
254 188
255 187
256 187
257 186
258 185
259 185
260 184
261 184
262 183
263 182
264 181
264 180
265 179
266 179
266 178
267 177
267 176
267 175
268 174
268 173
269 172
269 171
270 170
270 169
270 168
270 167
270 166
270 165
270 164
270 163
270 162
270 161
270 160
270 159
270 158
270 157
270 156
270 155
270 154
269 153
270 152
270 151
270 150
269 149
269 148
268 147
267 146
266 145
265 146
264 145
263 146
262 146
261 146
260 147
259 147
258 147
257 147
256 147
255 148
254 148
253 148
252 148
251 148
250 148
249 149
248 149
247 149
246 149
245 149
244 149
243 148
244 147
245 147
246 146
247 146
248 145
249 144
250 144
251 143
252 143
253 143
254 142
255 142
256 142
257 141
258 141
259 140
260 140
261 140
262 140
263 139
264 139
265 139
266 139
267 139
268 138
269 138
270 138
271 138
272 138
273 137
274 137
275 137
276 137
277 138
278 137
279 137
280 137
281 137
282 137
283 137
284 137
285 138
286 138
287 138
288 138
289 138
290 139
291 138
292 139
293 139
294 139
295 138
296 139
297 138
298 139
299 139
300 139
301 139
302 138
303 138
304 138
305 138
306 138
307 138
308 138
309 138
310 138
311 138
312 138
313 137
314 137
315 137
316 137
317 137
318 136
319 136
320 136
321 136
322 136
323 136
324 135
325 135
326 134
327 134
328 134
329 133
330 132
331 131
332 131
333 130
333 129
334 128
334 127
335 126
336 125
337 124
338 124
339 123
340 122
340 121
341 120
341 119
341 118
341 117
342 116
342 115
343 114
343 113
343 112
344 111
344 110
345 109
345 108
346 107
346 106
346 105
346 104
346 103
346 102
347 101
347 100
347 99
346 99
345 98
346 97
346 96
347 95
347 94
348 93
347 93
346 92
345 91
346 90
346 89
346 88
345 88
344 87
343 86
344 85
344 84
343 84
342 83
341 83
340 82
341 81
341 80
341 79
340 79
339 78
338 78
337 78
336 77
337 76
337 75
337 74
336 74
335 73
334 74
333 74
332 74
331 73
330 72
331 71
331 70
330 70
329 70
328 70
327 69
326 69
325 68
324 69
323 69
322 69
321 68
322 67
322 66
321 66
320 66
319 66
318 66
317 66
316 66
315 67
314 67
313 67
312 67
311 67
310 67
309 67
308 68
307 68
306 68
305 69
304 69
303 70
302 70
301 70
300 71
299 71
298 72
297 72
296 73
295 74
294 74
293 75
292 76
291 76
290 77
289 78
288 78
287 79
287 80
286 81
285 81
284 81
284 82
283 83
283 84
282 85
281 86
280 87
280 88
279 89
279 90
278 91
277 92
276 93
276 94
275 95
275 96
274 97
273 97
273 98
272 99
272 100
272 101
271 102
270 102
270 103
269 104
268 105
267 104
267 103
266 102
267 101
267 100
267 99
268 98
269 97
269 96
270 95
270 94
270 93
271 92
271 91
271 90
272 89
272 88
273 87
273 86
274 85
274 84
274 83
273 82
274 81
273 81
272 80
273 79
272 79
271 78
272 77
272 76
271 75
272 74
272 73
273 72
272 72
271 72
270 71
271 70
271 69
272 68
272 67
271 67
270 66
270 65
269 65
268 64
269 63
269 62
268 62
267 61
266 60
265 60
264 60
263 60
262 61
261 60
260 61
259 61
258 61
257 61
256 61
255 61
254 61
253 62
252 62
251 62
250 62
249 62
248 62
247 63
246 63
245 63
244 62
244 61
243 60
242 61
241 61
240 61
239 62
238 62
237 63
236 63
235 63
234 64
233 64
232 65
231 65
230 66
229 65
228 66
227 67
226 67
225 67
224 68
223 68
222 69
221 69
220 70
219 70
218 70
217 71
216 72
215 71
214 71
213 70
214 69
215 68
216 67
216 66
215 66
214 66
213 65
214 64
215 63
216 63
217 62
218 62
219 61
219 60
218 60
217 60
216 60
215 60
214 60
213 60
212 60
211 61
210 61
209 61
208 61
207 61
206 60
207 59
208 58
209 58
210 57
211 57
212 56
213 56
214 56
215 55
215 54
214 53
213 53
212 53
211 53
210 54
209 54
208 54
207 54
206 54
205 55
204 55
203 55
202 54
203 53
204 52
205 51
206 51
207 50
208 49
209 49
210 48
211 48
212 48
213 48
214 47
214 46
213 46
212 46
211 46
210 46
209 46
208 46
207 46
206 46
205 46
204 47
203 47
202 47
201 47
200 46
201 45
201 44
202 43
203 43
203 42
204 41
205 41
206 41
207 40
208 40
209 39
209 38
208 38
207 39
206 39
205 39
204 39
203 39
202 40
201 40
200 40
199 41
198 41
197 41
196 41
195 41
194 40
195 39
196 38
197 37
198 36
199 35
200 34
201 34
202 33
203 33
203 32
204 31
203 31
202 32
201 32
200 32
199 33
198 33
197 33
196 33
195 34
194 34
193 34
192 34
191 34
190 34
189 35
188 35
187 35
186 35
185 35
184 36
183 36
182 35
183 34
184 33
184 32
185 31
186 30
187 29
188 28
189 27
190 26
191 25
191 24
190 24
189 24
188 24
187 25
186 25
185 25
184 26
183 26
182 26
181 27
180 27
179 27
178 27
177 28
176 28
175 29
174 29
173 29
172 28
173 27
174 26
174 25
175 24
175 23
176 22
176 21
177 20
178 19
179 18
180 18
181 17
181 16
180 16
179 17
178 17
177 17
176 18
175 18
174 18
173 19
172 19
171 19
170 20
169 20
168 20
167 20
166 21
165 21
164 21
163 22
162 22
161 23
160 23
159 23
158 24
157 24
156 23
156 22
156 21
156 20
156 19
157 18
157 17
157 16
158 15
158 14
159 13
159 12
160 11
160 10
161 9
162 8
162 7
161 7
160 7
159 8
158 9
157 9
156 9
155 10
154 10
153 11
152 11
151 12
150 12
149 13
148 14
147 15
146 15
145 16
144 17
143 17
142 18
141 19
140 20
139 19
138 18
138 17
139 16
139 15
139 14
139 13
139 12
138 11
138 10
139 9
138 8
139 7
139 6
140 5
139 5
