131 3
130 4
129 5
128 6
128 7
127 8
126 9
125 10
124 11
123 12
122 13
121 14
120 14
119 15
118 16
117 17
116 18
115 19
114 20
113 21
112 22
111 23
111 24
110 25
109 25
108 25
107 25
106 24
105 24
104 24
103 24
102 24
101 24
100 24
99 24
98 24
97 24
96 25
95 25
94 25
93 25
92 25
91 25
90 25
89 25
88 25
87 26
86 26
85 26
84 25
85 24
85 23
85 22
84 22
83 23
82 23
81 23
80 24
79 24
78 25
77 25
76 25
75 26
74 26
73 26
72 26
71 27
70 27
69 27
68 27
67 27
66 27
65 28
64 28
63 28
62 28
61 28
60 28
59 28
58 28
57 28
56 27
57 26
57 25
56 25
55 25
54 26
53 27
52 27
51 27
50 27
49 27
48 27
47 27
46 27
45 27
44 27
43 28
42 28
41 28
40 28
39 28
38 29
37 29
36 30
35 31
34 32
33 32
33 33
32 34
32 35
31 36
30 37
29 37
28 36
27 35
28 34
28 33
28 32
28 31
29 30
28 30
27 31
26 32
25 32
24 32
23 33
22 33
21 34
20 34
19 35
18 35
17 36
16 37
15 38
15 39
14 40
14 41
13 42
13 43
12 44
11 45
10 46
9 47
8 48
7 49
6 50
5 51
5 52
4 53
4 54
4 55
5 55
6 56
5 57
4 57
3 57
2 58
2 59
2 60
2 61
2 62
2 63
3 63
4 63
5 63
6 64
7 64
8 65
9 65
10 66
11 66
12 67
13 68
14 68
15 69
16 70
17 70
18 71
19 72
20 72
21 73
22 73
23 74
24 75
25 75
26 75
27 76
28 76
29 77
30 78
31 78
32 79
33 79
34 79
35 80
36 81
37 81
38 82
39 83
40 84
41 85
42 85
43 85
44 86
45 86
46 86
47 86
48 87
49 87
50 87
51 87
52 87
53 87
54 87
55 87
56 87
57 87
58 87
59 87
60 87
61 88
62 88
63 89
62 90
61 90
60 91
60 92
59 93
58 94
57 95
56 96
56 97
55 98
55 99
54 100
53 101
52 102
51 103
50 104
49 105
48 106
48 107
49 107
50 107
51 106
52 106
53 105
54 105
55 106
54 107
53 108
52 109
51 110
50 111
50 112
50 113
51 112
52 112
53 111
54 111
55 110
56 110
57 109
58 109
59 108
60 108
61 107
62 108
63 109
63 110
63 111
63 112
64 113
64 114
64 115
65 116
65 117
65 118
66 119
66 120
66 121
66 122
67 123
67 122
68 121
68 120
69 119
69 118
69 117
70 116
70 115
71 114
72 113
73 112
74 113
75 114
76 115
77 116
77 117
77 118
78 119
78 120
78 121
78 122
78 123
78 124
78 125
77 126
77 127
78 127
79 126
79 125
80 124
81 123
81 122
82 121
82 120
82 119
83 118
84 118
85 117
86 118
86 119
86 120
87 121
87 122
88 123
88 124
88 125
89 126
89 127
90 128
90 129
90 130
91 131
92 132
92 133
93 134
94 135
94 136
95 137
96 138
97 139
97 140
98 140
99 141
99 140
100 139
99 138
98 137
98 136
99 135
100 136
101 136
101 135
101 134
100 133
99 133
98 132
98 131
99 130
99 129
100 128
101 127
102 128
103 129
104 130
105 130
106 131
107 132
108 133
109 133
110 134
111 135
112 136
113 137
114 138
115 139
116 140
116 139
117 138
117 137
116 137
115 136
116 135
115 135
114 134
115 133
115 132
115 131
115 130
115 129
115 128
115 127
115 126
115 125
115 124
116 123
117 123
118 123
119 123
120 124
121 124
122 124
123 125
124 126
125 127
126 128
127 129
128 130
129 131
130 132
130 131
131 130
131 129
130 129
129 128
130 127
130 126
130 125
129 125
128 124
129 123
130 122
131 122
132 122
133 122
134 122
135 121
136 121
137 121
138 121
139 121
140 121
141 121
142 121
143 121
144 121
145 121
146 121
147 121
148 122
149 121
150 121
151 121
151 120
152 119
151 119
150 119
149 119
148 118
149 117
149 116
150 115
151 115
152 116
153 117
154 118
154 117
155 116
155 115
155 114
155 113
155 112
155 111
155 110
155 109
155 108
155 107
155 106
155 105
156 104
157 104
158 104
159 103
160 103
161 102
162 102
163 101
164 101
165 101
166 100
167 99
168 99
169 99
170 98
171 97
172 97
173 97
174 96
175 96
176 96
177 96
178 96
179 96
180 96
181 96
182 97
182 98
182 99
182 100
182 101
183 102
183 103
183 104
184 105
185 104
185 103
186 102
187 103
187 104
188 105
189 106
189 107
190 108
191 109
192 110
193 111
194 112
195 113
196 114
197 115
198 115
199 116
200 117
201 117
201 116
202 115
203 115
204 116
205 117
206 118
207 119
208 119
209 120
210 120
211 121
212 121
213 122
213 121
214 120
213 119
212 119
211 118
212 117
213 116
214 117
215 118
216 118
217 119
218 119
219 120
220 121
221 121
222 122
223 122
223 121
223 120
223 119
224 118
225 118
226 119
227 119
228 120
229 120
229 119
229 118
229 117
229 116
230 115
231 115
232 116
233 117
234 118
235 119
236 119
236 118
236 117
236 116
237 115
238 115
239 115
240 116
241 116
241 115
241 114
240 113
240 112
239 112
238 111
239 110
240 110
241 110
242 111
243 111
244 112
245 112
246 113
246 112
247 111
247 110
247 109
248 108
248 107
249 106
249 105
250 104
250 103
249 102
248 101
247 101
246 100
245 99
244 98
243 97
242 97
241 96
240 95
241 94
242 94
243 94
244 94
245 94
246 95
247 95
248 95
249 95
250 95
251 95
252 96
253 96
254 96
255 96
256 97
257 97
258 97
259 97
260 98
261 98
262 98
263 99
264 99
265 99
266 100
267 100
268 101
269 101
270 102
271 103
272 104
273 104
274 104
275 105
276 106
277 107
278 107
279 108
280 109
281 109
282 110
283 111
284 111
285 112
286 113
287 113
288 114
289 114
290 115
291 115
292 115
293 116
294 116
295 117
296 117
297 118
298 118
299 119
300 119
301 119
302 119
303 119
304 120
305 120
306 120
307 120
308 119
309 120
310 120
311 121
312 121
313 122
314 122
315 121
316 122
317 122
318 122
319 123
320 123
320 122
321 121
321 120
322 119
323 119
323 118
324 117
324 116
325 115
326 115
326 114
327 113
327 112
327 111
327 110
328 109
328 108
329 107
329 106
329 105
330 104
330 103
331 102
331 101
331 100
331 99
332 98
332 97
332 96
332 95
332 94
332 93
332 92
332 91
332 90
332 89
332 88
332 87
332 86
332 85
332 84
332 83
332 82
332 81
332 80
332 79
332 78
332 77
332 76
332 75
332 74
331 74
330 73
331 72
331 71
330 71
329 70
330 69
329 69
328 68
327 67
326 67
325 67
324 66
323 66
322 66
321 66
320 66
319 66
318 66
317 66
316 67
315 66
314 66
313 66
312 66
311 66
310 66
309 66
308 66
307 66
306 66
305 66
304 67
303 67
302 67
301 67
300 67
299 67
298 68
297 68
296 68
295 68
294 68
293 68
292 68
291 68
290 69
289 69
288 69
287 70
286 70
285 70
284 71
283 72
282 72
281 72
280 72
279 72
278 73
277 73
276 74
275 74
274 75
273 75
272 75
271 76
270 76
269 76
268 77
267 77
266 78
265 78
264 78
263 78
262 79
261 78
260 78
259 78
258 78
257 78
256 78
255 77
254 77
253 77
252 77
251 77
250 76
251 75
251 74
252 73
253 73
254 73
255 73
255 72
255 71
255 70
256 69
256 68
255 67
256 66
256 65
256 64
256 63
255 63
254 63
253 62
253 61
254 60
255 59
255 58
254 58
253 58
252 58
251 58
250 57
251 56
251 55
250 54
249 54
248 54
247 53
246 52
247 51
247 50
248 49
247 49
246 50
245 50
244 50
243 49
242 49
241 48
240 47
241 46
241 45
240 45
240 46
239 47
238 46
237 46
236 46
235 45
236 44
236 43
236 42
235 42
234 42
233 42
232 42
231 42
230 43
229 42
228 42
227 41
228 40
228 39
228 38
228 37
227 37
226 37
225 37
224 38
223 38
222 38
221 38
220 38
219 38
218 38
217 37
216 36
217 35
216 35
215 35
214 35
213 35
212 36
211 36
210 36
209 37
208 37
207 37
206 36
207 35
207 34
207 33
206 33
205 33
204 34
203 34
202 35
201 35
200 35
199 36
198 37
197 37
196 36
197 35
197 34
197 33
196 33
195 33
194 34
193 34
192 35
191 35
190 35
189 36
188 37
187 37
186 38
185 39
184 39
183 40
182 40
181 41
180 42
179 43
178 43
177 44
176 44
175 44
174 43
173 43
172 42
173 41
174 40
175 39
176 38
176 37
175 37
174 36
173 35
174 34
174 33
175 32
176 32
177 31
177 30
176 30
175 31
174 31
173 30
172 29
173 28
173 27
174 26
174 25
175 24
176 23
177 22
177 21
176 21
175 21
174 21
173 21
172 20
171 20
170 19
171 18
170 18
169 17
170 16
170 15
170 14
171 13
171 12
170 12
169 12
168 12
167 13
166 13
165 14
164 13
163 12
162 11
161 10
160 9
161 8
161 7
161 6
161 5
160 5
159 6
158 6
157 6
156 6
155 7
154 7
153 7
152 6
151 5
151 4
152 3
151 3
150 4
149 5
148 5
147 5
146 6
145 6
144 6
143 6
142 6
141 6
140 5
141 4
140 4
139 4
138 5
137 6
136 6
135 7
134 6
134 5
133 5
132 4
133 3
132 3
