103 2
102 3
101 4
100 4
99 4
98 5
97 5
96 4
97 3
96 3
95 3
94 4
93 5
92 6
91 6
90 6
89 7
88 8
87 9
86 10
85 11
84 12
83 13
82 13
81 14
80 15
80 16
79 17
78 18
77 18
76 18
75 18
74 18
73 18
72 18
71 18
70 18
69 18
68 18
67 17
66 17
65 17
64 17
63 18
62 19
61 20
60 20
59 21
58 21
57 22
56 22
55 22
54 22
53 22
52 23
51 24
51 25
50 26
49 26
48 27
47 27
46 26
45 26
45 27
44 28
43 28
42 28
41 27
40 27
39 27
38 26
37 26
36 26
35 26
34 26
33 26
32 26
31 27
30 27
29 27
28 28
27 28
26 28
25 29
24 30
23 31
22 32
21 33
21 34
20 35
19 36
18 35
17 34
18 33
17 33
16 33
16 34
15 35
14 35
13 36
13 37
12 38
12 39
12 40
12 41
11 42
10 42
9 43
8 44
7 44
6 45
5 46
5 47
4 48
4 49
4 50
4 51
4 52
3 53
3 54
3 55
3 56
3 57
2 58
2 59
3 60
4 61
5 61
6 62
7 62
8 63
9 64
10 63
11 64
12 64
13 64
14 64
15 64
16 65
17 65
18 65
19 66
20 67
21 67
22 67
23 68
24 68
25 69
26 69
27 70
28 70
29 71
30 71
31 71
32 71
33 72
34 72
35 73
36 73
37 74
38 74
39 74
40 74
41 74
42 74
43 75
44 75
45 76
44 77
44 78
45 78
46 77
47 76
48 76
49 76
50 77
51 77
52 78
53 78
54 79
55 80
56 81
57 82
58 83
59 83
60 84
61 84
62 85
63 85
64 85
65 84
66 85
67 85
68 85
69 86
70 86
71 86
72 86
73 85
74 85
75 85
76 86
77 86
78 86
79 86
80 86
81 86
82 86
83 87
84 88
85 88
86 88
87 89
88 89
89 89
90 89
91 89
92 89
93 88
93 87
92 86
92 85
93 84
94 84
95 84
96 84
97 84
98 84
99 84
100 84
101 84
102 85
103 85
104 85
105 84
105 83
106 82
107 82
108 82
109 81
110 81
111 81
112 81
113 80
114 80
115 79
116 79
117 79
118 79
119 79
120 79
121 79
122 79
123 79
124 79
125 79
126 80
127 80
128 80
128 79
129 78
130 77
131 76
132 76
133 75
134 75
135 74
136 74
137 74
138 73
139 73
140 73
141 73
142 73
143 73
144 73
145 73
146 74
147 75
148 75
149 76
150 77
151 78
152 79
153 79
154 80
155 81
156 82
157 83
158 83
159 84
160 85
161 86
162 86
163 86
164 86
165 87
166 88
167 88
168 87
169 87
170 88
171 87
172 87
173 87
174 87
175 87
176 88
177 87
178 87
179 87
180 87
181 86
182 86
183 86
184 86
185 86
186 86
187 86
188 86
189 85
190 85
191 84
192 84
193 83
194 83
195 83
196 84
197 84
198 84
199 83
200 83
201 84
202 84
202 83
203 82
204 83
205 83
205 82
206 81
206 80
207 79
208 79
209 79
210 79
210 78
211 77
212 76
213 77
214 76
214 75
215 74
215 73
215 72
214 72
213 71
214 70
213 70
212 69
213 68
213 67
212 67
211 66
212 65
211 65
210 65
209 65
208 64
209 63
210 63
211 63
212 63
213 63
214 63
215 63
216 63
217 63
218 63
219 63
220 64
221 64
222 64
223 64
224 64
225 64
226 65
226 66
225 67
225 68
226 68
227 68
228 69
228 68
229 67
230 67
231 67
232 66
233 67
233 68
234 68
235 68
236 68
237 68
238 69
239 70
240 70
241 70
242 70
243 70
244 71
245 71
246 71
247 71
248 71
249 72
250 71
251 72
252 72
253 72
254 72
255 73
256 73
257 73
258 73
259 74
260 74
261 74
262 75
263 75
264 76
265 75
266 75
267 76
268 76
269 76
270 76
271 76
272 76
273 77
274 77
275 77
276 77
277 77
278 77
279 77
280 77
281 77
282 77
283 78
284 78
285 78
286 78
287 78
287 77
288 76
289 75
290 75
290 74
291 73
290 73
289 72
290 71
290 70
290 69
290 68
290 67
290 66
290 65
290 64
290 63
290 62
290 61
289 61
288 60
289 59
289 58
289 57
288 57
287 56
288 55
288 54
288 53
288 52
288 51
288 50
288 49
288 48
288 47
288 46
288 45
288 44
288 43
288 42
288 41
288 40
288 39
288 38
288 37
289 36
289 35
288 35
287 35
286 34
286 33
285 32
284 32
283 32
282 32
281 32
280 31
279 31
278 32
277 32
276 32
275 32
274 32
273 32
272 33
271 33
270 33
269 33
268 34
267 34
266 34
265 34
264 35
263 35
262 35
261 35
260 35
259 36
258 36
257 36
256 37
255 37
254 38
253 38
252 38
251 39
250 39
249 40
248 40
247 40
246 41
245 41
244 41
243 42
242 42
241 42
240 42
239 43
238 43
237 43
236 43
235 44
234 44
233 44
232 44
231 45
230 45
229 46
228 46
227 46
226 47
225 47
224 47
223 48
222 47
221 48
220 48
219 47
219 46
220 45
221 44
222 44
223 44
223 43
224 42
223 42
222 41
221 40
222 39
222 38
222 37
221 37
220 36
221 35
220 35
219 34
220 33
219 33
218 32
217 31
216 31
215 30
214 29
213 29
212 28
211 28
210 28
209 27
208 27
207 26
206 25
205 25
204 25
203 25
202 24
201 24
200 23
199 23
198 23
197 23
196 23
195 22
194 22
193 22
192 22
191 22
190 22
189 21
188 20
187 20
186 19
185 19
184 19
183 19
182 19
181 19
180 19
179 19
178 18
177 19
176 19
175 19
174 19
173 19
172 20
171 20
170 20
169 20
168 20
167 20
166 21
165 21
164 21
163 22
162 22
161 22
160 22
159 23
158 23
157 23
156 24
155 24
154 24
153 25
152 25
151 25
150 26
149 26
148 27
147 27
146 28
145 28
144 28
143 28
142 29
141 29
140 30
139 30
139 31
138 32
137 32
136 31
135 31
134 31
133 30
134 29
133 29
132 28
133 27
133 26
132 25
131 24
132 23
132 22
132 21
133 20
132 20
131 20
130 20
129 19
128 18
129 17
129 16
130 15
130 14
131 13
130 13
129 13
128 13
127 13
126 13
125 12
126 11
126 10
126 9
126 8
125 8
124 8
123 8
122 8
121 8
120 7
119 6
120 5
119 5
118 5
117 5
116 6
115 6
114 6
113 6
112 6
111 5
110 4
111 3
110 3
109 3
108 4
107 4
106 4
105 3
106 2
105 2
104 2
