110 2
110 3
109 4
108 5
108 6
107 7
107 8
106 9
106 10
105 11
105 12
104 13
104 14
103 15
102 16
102 17
101 18
101 19
100 20
100 21
99 22
99 23
98 24
97 25
97 26
97 27
96 28
96 29
95 30
94 31
94 32
94 33
93 34
92 35
91 35
90 35
89 35
88 35
87 34
86 34
85 34
84 34
83 34
82 34
81 34
80 33
79 33
78 33
77 33
76 33
75 32
74 32
73 32
72 32
71 32
70 32
69 31
68 31
67 31
66 31
65 31
64 31
63 31
62 31
61 30
60 31
59 31
58 30
59 29
58 29
57 30
56 30
55 30
54 31
53 31
52 30
51 29
50 29
49 29
49 30
48 31
47 31
46 30
45 31
45 32
44 33
43 34
42 34
41 35
40 36
39 37
38 37
37 37
36 37
36 38
37 39
36 40
35 41
34 42
33 43
32 44
31 44
30 44
29 45
28 45
27 45
26 45
25 45
25 46
24 47
23 47
22 47
21 48
20 48
19 47
18 48
18 49
18 50
17 51
16 51
15 52
14 52
13 53
12 52
11 53
11 54
11 55
10 56
9 57
8 58
7 59
6 60
5 60
4 60
3 60
2 61
2 62
3 62
4 63
5 64
5 65
6 65
7 66
7 67
7 68
8 68
9 69
9 70
10 70
11 70
12 71
13 72
14 72
15 73
16 73
17 73
18 73
19 74
20 74
21 74
22 74
23 74
24 74
25 75
26 75
27 75
28 75
29 75
30 76
29 77
28 77
27 77
26 77
25 77
24 77
23 77
22 77
21 78
20 78
19 78
18 79
17 80
16 81
16 82
16 83
17 83
18 83
19 82
20 81
21 81
22 81
23 82
23 83
23 84
23 85
24 86
25 85
26 84
27 85
27 86
27 87
28 87
29 86
30 85
31 85
32 84
33 84
34 83
35 84
36 83
37 83
38 83
39 83
40 83
41 83
42 83
43 83
44 83
45 83
46 83
47 84
46 85
45 85
44 85
43 85
42 85
41 85
40 85
39 85
38 86
37 86
36 86
35 87
34 87
33 88
32 89
31 89
30 90
29 91
28 92
27 93
27 94
26 95
26 96
26 97
25 98
25 99
25 100
25 101
26 102
27 101
28 100
28 99
29 98
29 97
30 96
31 95
31 94
32 93
33 92
34 92
35 91
36 90
37 90
38 89
39 89
40 89
41 89
42 88
43 88
44 89
45 89
46 88
47 88
48 89
47 90
46 91
45 91
44 92
43 92
42 92
41 93
40 93
39 94
38 95
37 96
36 97
36 98
35 99
34 100
33 100
33 101
33 102
33 103
33 104
33 105
33 106
32 107
32 108
32 109
32 110
33 111
33 112
33 113
34 113
35 112
35 111
36 110
36 109
36 108
36 107
36 106
37 105
37 104
37 103
38 102
39 101
39 100
40 99
41 98
42 97
43 96
44 96
45 95
46 95
47 94
48 94
49 93
50 93
51 93
52 92
53 92
54 92
55 91
56 91
57 91
58 90
59 90
60 91
59 92
59 93
58 94
57 95
56 96
56 97
55 98
55 99
54 100
54 101
53 102
53 103
53 104
52 105
52 106
52 107
52 108
52 109
52 110
52 111
52 112
52 113
52 114
51 115
51 116
52 117
52 118
52 119
52 120
52 121
52 122
52 123
52 124
52 125
53 126
53 127
53 128
54 129
54 130
55 131
56 130
56 129
57 128
57 127
57 126
57 125
56 125
55 124
56 123
56 122
56 121
55 121
54 120
55 119
55 118
55 117
55 116
55 115
55 114
55 113
55 112
56 111
56 110
56 109
56 108
56 107
56 106
57 105
57 104
58 103
58 102
59 101
59 100
60 99
61 98
61 97
62 96
63 95
64 94
65 95
65 96
65 97
65 98
65 99
65 100
65 101
65 102
65 103
65 104
65 105
65 106
65 107
65 108
66 109
66 110
66 111
67 110
68 111
68 112
68 113
68 114
69 115
69 116
69 117
69 118
70 119
70 120
70 121
71 121
72 120
73 121
73 122
74 123
74 124
74 125
75 126
76 127
77 126
78 127
79 127
80 128
81 128
82 128
83 128
84 128
85 129
86 130
87 131
87 130
88 129
88 128
88 127
89 126
90 127
90 128
91 129
92 130
93 131
94 132
95 133
96 134
97 135
98 136
99 136
100 137
101 138
102 138
103 139
104 139
105 139
106 139
107 139
108 140
109 139
110 139
111 139
112 138
113 138
113 137
114 136
114 135
114 134
115 133
115 132
116 131
116 130
116 129
116 128
116 127
117 126
117 125
116 124
116 123
116 122
117 121
116 120
116 119
116 118
115 118
114 118
113 117
112 116
113 115
113 114
112 114
111 113
110 113
109 112
108 111
107 110
106 109
105 108
104 107
103 107
102 106
101 105
100 104
99 103
98 102
97 101
96 100
95 100
94 99
93 98
94 97
93 97
92 96
91 96
90 95
89 94
90 93
91 92
92 93
93 93
94 93
95 94
96 94
97 95
98 96
99 97
100 98
101 97
102 97
103 98
104 98
105 99
106 100
107 100
108 101
109 101
110 102
111 102
112 103
113 103
114 103
115 103
116 104
117 104
118 104
119 105
120 105
121 105
122 106
123 106
124 106
125 107
126 107
127 107
128 107
129 107
130 107
131 107
132 107
133 107
134 107
135 107
136 107
137 107
138 107
139 107
140 107
141 107
142 106
143 106
143 105
144 104
145 104
146 105
147 106
148 107
149 107
150 106
151 106
152 106
153 107
154 108
155 109
156 110
156 109
157 108
158 108
159 109
160 110
161 110
162 111
163 112
164 113
165 114
165 113
166 112
167 112
168 113
169 114
170 115
171 114
172 113
173 113
174 114
175 115
176 116
177 117
178 118
179 117
179 116
180 115
181 116
182 116
183 117
184 118
185 118
186 119
187 119
187 118
188 117
189 117
190 118
191 118
192 119
192 120
193 120
193 119
194 118
195 118
196 118
197 118
197 117
197 116
196 116
195 116
194 116
193 116
192 116
191 115
192 114
192 113
192 112
192 111
191 111
190 110
191 109
191 108
191 107
190 107
189 106
190 105
190 104
190 103
190 102
191 101
192 101
193 101
194 102
194 103
194 104
194 105
195 106
195 107
195 108
195 109
196 110
196 111
197 112
197 113
198 114
199 115
199 116
199 117
199 118
199 119
200 120
201 119
202 118
203 118
204 118
205 119
206 119
207 120
208 120
208 119
209 118
210 118
211 118
212 119
213 120
214 120
214 119
215 118
216 118
217 119
218 119
219 120
220 120
221 121
222 121
223 121
223 120
223 119
224 118
225 118
226 119
227 120
228 120
229 121
230 121
230 120
231 119
232 119
233 120
234 120
235 120
236 120
237 120
237 119
238 118
239 118
240 118
241 118
242 119
243 119
244 119
245 119
245 118
246 117
247 117
248 117
248 116
249 115
249 114
249 113
248 113
247 112
248 111
248 110
248 109
248 108
248 107
247 107
246 107
245 106
244 105
243 104
242 103
241 103
240 102
239 101
240 100
239 100
238 99
237 98
238 97
239 97
240 97
241 97
242 98
243 97
244 97
245 97
246 98
247 98
248 98
249 98
250 98
251 98
252 98
253 98
254 98
255 98
256 98
257 98
258 98
259 98
260 98
261 98
262 98
263 98
264 98
265 99
266 99
267 99
268 99
269 100
270 100
271 100
272 101
273 101
274 101
275 102
276 102
277 102
278 103
279 103
280 103
281 103
282 104
283 104
284 105
285 105
286 106
287 106
288 107
289 107
290 108
291 108
292 108
293 109
294 109
295 110
296 110
297 110
298 111
299 111
300 112
301 112
302 113
303 113
304 113
305 114
306 114
307 114
308 115
309 115
310 115
311 116
312 116
313 116
314 117
315 117
316 117
317 118
318 118
319 118
320 118
321 118
322 119
323 119
324 119
325 119
326 119
327 119
328 120
329 120
330 120
331 120
332 121
333 120
333 119
334 118
334 117
333 117
332 116
333 115
333 114
332 113
331 112
332 111
332 110
332 109
331 109
330 108
331 107
330 107
329 106
330 105
330 104
329 104
328 103
329 102
328 102
327 101
328 100
328 99
327 99
326 98
327 97
327 96
326 96
325 95
326 94
325 94
324 93
325 92
325 91
324 91
323 90
322 89
323 88
322 88
321 87
322 86
322 85
321 85
320 84
321 83
321 82
321 81
321 80
321 79
321 78
321 77
321 76
321 75
321 74
321 73
321 72
322 71
322 70
322 69
322 68
322 67
322 66
322 65
322 64
322 63
322 62
323 61
322 60
322 59
323 58
323 57
323 56
323 55
324 54
324 53
324 52
324 51
325 50
325 49
325 48
325 47
325 46
324 46
323 46
322 47
321 47
320 46
319 47
318 47
317 48
316 47
315 48
314 49
313 50
312 50
311 50
310 51
309 52
308 51
307 52
306 53
305 54
304 54
303 54
302 54
302 55
301 56
300 56
299 57
298 58
297 59
296 60
295 60
294 60
293 61
292 61
292 62
291 63
290 63
289 64
288 65
287 66
286 66
285 67
284 68
283 69
282 69
281 70
280 70
280 71
279 72
278 73
277 74
276 74
275 75
274 75
273 76
272 76
271 77
270 78
269 78
268 79
267 79
266 79
265 80
264 81
263 81
262 82
261 82
260 82
259 82
258 82
257 82
256 82
255 82
254 82
253 82
252 82
251 81
250 80
251 79
252 78
253 78
254 77
255 77
255 76
256 75
257 74
258 75
258 76
258 77
258 78
259 78
260 78
260 77
261 76
260 76
259 75
259 74
259 73
260 72
260 71
259 71
258 71
257 70
258 69
257 69
256 69
255 69
254 70
253 69
252 69
251 68
252 67
251 67
250 68
249 68
248 68
247 67
247 66
247 65
246 65
245 66
244 66
243 66
242 65
243 64
242 64
241 64
240 64
239 63
238 63
237 62
238 61
238 60
237 60
236 60
235 60
234 60
233 59
234 58
234 57
233 57
232 57
231 57
230 56
229 55
230 54
230 53
229 53
228 54
227 54
226 53
225 53
224 52
225 51
224 51
223 50
222 50
221 50
220 50
219 49
218 49
217 49
216 48
217 47
217 46
216 46
215 47
214 47
213 47
212 46
211 46
210 45
209 44
209 43
208 43
207 42
206 43
205 43
204 43
203 43
202 42
201 41
201 40
202 39
202 38
201 38
200 38
199 39
198 39
197 39
196 39
195 39
194 39
193 38
192 37
192 36
193 35
192 35
191 36
190 36
189 37
188 37
187 37
186 37
185 37
184 36
183 35
184 34
185 34
186 33
186 32
185 32
184 33
183 33
182 34
181 34
180 34
179 34
178 33
178 32
179 31
178 31
177 31
176 32
175 32
174 32
173 33
172 33
171 34
170 34
169 34
168 34
167 34
166 33
166 32
165 32
164 32
163 32
162 33
161 33
160 33
159 34
158 34
157 34
156 35
155 36
154 36
153 37
152 37
151 38
150 38
149 39
148 39
147 40
146 41
145 41
144 42
143 43
142 44
141 44
140 45
139 46
138 45
137 46
136 46
135 46
134 45
135 44
134 44
133 44
132 43
133 42
134 41
134 40
133 40
132 39
132 38
132 37
133 36
133 35
132 35
131 35
130 34
131 33
131 32
131 31
131 30
130 30
129 30
128 30
127 29
128 28
128 27
128 26
129 25
129 24
130 23
129 23
128 23
127 22
126 23
125 22
124 21
125 20
125 19
125 18
125 17
125 16
125 15
126 14
125 14
124 14
123 15
122 14
121 14
120 13
121 12
121 11
121 10
121 9
120 9
119 9
118 9
117 9
116 8
117 7
117 6
117 5
117 4
117 3
117 2
116 2
115 3
115 4
114 5
113 5
112 6
111 6
110 5
111 4
111 3
111 2
