235 1
235 2
235 3
235 4
235 5
235 6
235 7
234 8
234 9
234 10
233 11
232 12
231 13
230 13
229 12
228 11
227 10
226 10
225 10
225 11
226 12
227 13
228 14
228 15
228 16
228 17
228 18
227 19
226 20
225 20
224 19
223 19
222 19
221 19
221 20
222 21
223 22
223 23
223 24
222 25
222 26
221 27
220 26
219 25
218 25
218 26
218 27
219 28
220 29
220 30
220 31
220 32
220 33
219 34
218 35
217 35
216 35
216 36
217 37
217 38
217 39
216 40
216 41
215 42
214 42
213 42
213 43
214 44
214 45
213 46
212 46
212 47
213 48
213 49
212 50
212 51
211 52
210 52
209 53
208 53
207 53
206 53
205 54
204 54
203 54
202 54
201 54
200 54
199 55
198 55
197 55
196 55
195 56
194 55
193 55
192 55
191 54
190 53
189 52
188 51
187 50
186 49
185 49
184 48
183 47
182 46
181 46
180 46
179 45
178 45
177 44
176 44
175 44
174 43
173 43
172 43
171 43
170 43
169 43
168 43
167 43
166 44
165 44
164 44
163 44
162 44
161 44
160 44
159 44
158 44
157 44
156 45
155 45
154 45
153 45
152 46
151 46
150 46
149 46
148 45
147 45
146 46
145 47
144 47
143 47
142 47
141 47
140 48
139 48
138 48
137 49
136 49
135 49
134 49
133 49
132 50
131 50
130 51
129 51
128 52
127 52
126 53
125 54
124 55
123 55
122 55
121 56
120 56
119 57
118 57
117 57
116 57
115 58
114 58
113 59
112 59
111 60
110 60
109 61
108 61
107 62
106 62
105 63
104 64
103 64
102 64
101 65
100 66
99 66
98 66
97 67
96 67
95 68
94 68
93 69
92 70
91 71
90 71
89 72
88 73
88 74
87 75
86 76
85 77
84 78
83 79
83 80
83 81
83 82
82 83
81 83
80 83
79 83
78 83
77 83
76 83
75 83
74 83
73 83
72 83
71 82
70 82
69 81
68 81
67 80
66 80
65 79
64 79
63 78
62 78
61 78
60 77
59 76
58 76
57 76
56 75
55 75
54 75
53 74
52 74
51 73
50 73
49 72
48 72
47 71
46 71
45 71
44 71
43 70
42 70
41 69
40 69
39 68
38 68
37 68
36 67
35 67
34 67
33 66
32 66
31 66
30 65
29 65
28 65
27 64
26 64
25 64
24 64
23 63
22 63
21 63
20 62
19 62
18 62
17 61
16 61
15 61
14 61
13 60
12 60
11 60
10 60
9 59
8 59
7 59
6 59
5 59
4 59
4 60
5 61
6 62
7 63
7 64
8 64
9 65
9 66
10 67
11 68
11 69
11 70
12 71
12 72
13 73
13 74
14 75
15 76
16 77
16 78
16 79
16 80
16 81
16 82
16 83
16 84
17 85
16 86
16 87
17 88
17 89
18 90
18 91
18 92
19 93
19 94
19 95
19 96
19 97
19 98
19 99
19 100
20 101
20 102
20 103
20 104
20 105
19 106
19 107
20 108
19 109
19 110
19 111
19 112
19 113
18 114
18 115
18 116
18 117
17 118
17 119
17 120
17 121
16 122
15 123
15 124
14 125
13 126
12 127
11 128
10 129
10 130
10 131
11 131
12 131
13 131
14 131
15 130
16 130
17 130
18 130
19 129
20 129
21 129
22 129
23 129
24 129
25 128
26 128
27 127
28 127
29 127
30 126
31 126
32 126
33 125
34 125
35 124
36 124
37 123
38 123
39 123
40 122
41 122
42 122
43 121
44 121
45 120
46 120
47 119
48 118
49 118
50 118
51 117
52 117
53 116
54 116
55 115
56 115
57 114
58 113
59 113
60 112
61 111
62 111
63 110
64 110
65 109
66 108
67 107
68 107
69 107
70 106
71 105
72 105
73 104
74 104
75 103
76 102
77 102
78 101
79 102
80 101
81 101
82 101
83 102
82 103
81 104
81 105
81 106
81 107
81 108
82 108
83 108
84 107
85 108
86 107
87 107
88 108
89 108
90 107
91 108
92 108
93 108
94 107
95 108
96 108
97 107
98 107
99 107
100 107
101 107
102 107
103 107
104 108
105 108
106 108
107 107
108 108
109 108
110 108
111 107
112 108
113 108
114 108
115 108
116 108
117 108
118 108
119 108
120 108
121 108
122 108
123 109
124 109
125 109
126 108
127 109
128 110
129 110
130 110
131 110
132 110
133 110
134 110
135 111
136 111
137 111
138 110
139 110
140 111
141 110
142 110
143 110
144 111
145 112
146 112
147 112
148 112
149 113
150 113
151 113
152 113
153 113
154 113
155 114
156 114
157 114
158 114
159 114
160 115
161 115
162 115
163 115
164 115
165 115
166 115
167 116
168 115
169 115
170 115
171 115
172 114
173 113
174 113
175 112
176 111
177 111
178 110
179 109
180 108
181 107
182 107
183 106
184 105
185 104
186 104
187 103
188 102
189 101
190 101
191 101
192 102
192 103
193 103
194 102
195 103
196 102
197 102
198 102
199 102
200 103
201 103
202 103
203 103
204 103
205 103
206 103
207 103
208 103
209 103
210 103
211 103
212 104
211 105
211 106
212 107
213 107
214 107
215 107
216 108
215 109
215 110
216 110
217 110
218 110
219 109
220 109
221 109
222 109
223 109
224 108
225 108
226 108
227 108
228 107
229 108
230 107
231 107
232 106
233 106
234 106
235 105
236 105
237 105
238 104
239 104
240 104
241 104
242 103
243 103
244 103
245 103
246 103
247 103
248 103
249 103
250 102
251 102
252 102
253 102
254 102
255 102
256 103
255 104
254 104
253 105
252 106
251 106
250 106
249 107
248 107
247 108
246 109
245 110
244 110
243 111
242 112
241 112
240 113
239 114
238 115
237 115
236 116
235 116
234 117
233 118
232 118
231 119
230 120
229 121
228 121
227 122
226 123
225 123
224 124
223 125
222 126
221 127
221 128
220 129
219 129
218 130
218 131
218 132
219 131
220 131
221 130
222 129
223 129
224 128
225 128
226 129
225 130
225 131
224 132
223 133
222 133
221 134
220 135
219 136
218 137
217 138
216 139
216 140
216 141
217 140
218 139
219 139
220 138
221 137
222 136
223 136
224 136
225 135
226 135
227 136
226 137
225 138
224 139
223 140
222 141
221 142
220 143
220 144
221 144
222 143
223 143
224 142
225 142
226 143
225 144
224 145
224 146
224 147
225 146
226 145
227 145
228 144
229 144
230 144
231 144
232 143
233 142
234 142
235 141
236 140
237 139
238 138
239 138
240 137
241 136
242 136
243 135
244 135
245 134
246 134
247 135
247 136
248 136
248 135
249 134
249 133
250 132
251 131
252 131
253 130
254 130
255 130
256 129
257 129
258 129
259 129
260 128
261 127
262 126
263 125
264 124
265 123
265 122
266 121
266 120
267 119
267 118
268 117
268 116
269 115
269 114
269 113
270 112
270 111
270 110
270 109
271 108
272 109
272 110
272 111
272 112
273 113
273 114
273 115
273 116
273 117
273 118
273 119
273 120
273 121
272 122
272 123
272 124
271 125
271 126
270 127
270 128
269 129
268 129
267 130
266 131
265 132
264 132
263 132
262 133
262 134
263 134
264 134
265 133
266 133
267 133
268 133
269 132
270 131
271 130
272 129
272 128
273 127
273 126
274 125
274 124
275 123
275 122
275 121
276 120
276 119
276 118
276 117
276 116
276 115
276 114
276 113
276 112
276 111
275 111
274 110
275 109
275 108
275 107
275 106
274 106
273 105
274 104
274 103
275 102
276 103
276 104
277 105
277 106
278 107
279 108
280 109
281 110
282 111
282 112
283 113
283 114
284 115
285 116
285 117
285 118
285 119
285 120
285 121
284 122
284 123
283 124
282 125
281 126
280 127
279 127
278 128
277 128
276 128
275 129
275 130
276 130
277 129
278 129
279 129
280 129
281 129
282 128
283 127
284 127
284 126
285 125
285 124
286 123
286 122
287 121
287 120
287 119
288 118
287 118
286 117
287 116
287 115
287 114
286 114
285 113
286 112
285 112
284 111
285 110
284 110
283 109
282 108
283 107
282 107
281 106
280 105
279 104
280 103
280 102
279 102
278 101
279 100
279 99
280 98
281 98
282 97
283 97
284 98
285 97
286 97
287 97
288 97
289 96
290 96
291 96
292 96
293 96
294 95
295 95
296 95
297 95
298 94
299 94
300 94
301 93
302 93
303 93
304 93
305 93
306 93
307 92
308 92
309 92
310 92
311 92
312 91
313 91
314 91
315 91
316 91
317 91
318 91
319 90
320 90
321 90
322 90
323 90
324 89
325 89
326 89
327 89
328 89
329 89
330 88
331 88
332 87
333 86
334 86
334 85
334 84
333 84
332 84
331 84
330 84
329 84
328 84
327 84
326 84
325 84
324 84
323 83
324 82
325 82
326 82
327 81
328 81
329 81
330 81
331 80
332 80
333 80
334 80
335 79
336 78
336 77
337 76
337 75
336 75
335 75
334 74
333 73
332 72
331 71
330 70
329 70
328 69
327 69
326 68
325 67
324 66
323 65
322 65
321 64
320 64
319 63
318 63
317 62
316 61
315 60
314 60
313 59
312 58
311 57
310 56
309 55
308 54
307 53
308 52
307 52
306 51
305 50
304 49
303 49
302 48
301 48
300 47
299 46
298 46
297 46
296 46
295 46
294 46
293 46
292 46
291 46
290 45
289 45
288 45
287 45
286 45
285 45
284 45
283 45
282 45
281 45
280 45
279 45
278 45
277 45
276 45
275 45
274 45
273 45
272 45
271 45
270 45
269 45
268 45
267 45
266 45
265 45
264 45
263 45
262 45
261 45
260 44
261 43
260 43
259 42
260 41
260 40
260 39
260 38
260 37
260 36
260 35
260 34
260 33
260 32
260 31
260 30
259 30
258 29
259 28
259 27
259 26
259 25
259 24
259 23
258 23
257 22
258 21
258 20
257 20
256 19
257 18
257 17
257 16
256 16
255 15
256 14
256 13
255 13
254 12
255 11
255 10
254 10
253 9
254 8
253 7
252 7
252 8
251 9
250 10
249 11
248 12
247 12
246 11
245 11
244 10
243 9
242 8
241 7
240 6
239 5
238 4
239 3
238 3
237 2
236 1
