115 1
114 2
113 3
112 3
111 3
110 2
109 2
108 2
107 3
106 3
105 4
104 5
103 6
102 7
101 7
101 8
100 9
99 9
98 10
97 11
96 12
95 13
94 14
94 15
93 16
92 17
91 17
90 17
89 17
89 18
89 19
88 20
88 21
88 22
87 23
86 24
86 25
85 26
85 27
84 28
84 29
83 30
82 31
81 32
81 33
80 34
80 35
80 36
79 37
78 38
77 39
76 40
75 41
74 42
73 43
72 43
71 44
70 44
69 44
68 45
67 44
66 45
65 45
64 45
63 45
62 45
61 45
60 45
59 46
58 46
57 46
56 47
55 47
54 48
53 48
52 48
51 48
50 47
51 46
50 46
49 47
48 46
47 46
46 45
45 46
44 46
43 46
43 47
44 48
44 49
43 50
42 49
41 49
40 48
39 48
38 49
37 49
36 50
35 50
34 50
33 51
32 51
31 51
30 51
29 51
28 50
29 49
28 49
27 49
27 50
27 51
26 52
26 53
25 54
24 53
23 54
22 55
21 55
20 55
19 55
18 55
17 55
16 56
15 57
14 58
13 59
12 60
11 61
10 61
9 62
8 63
8 64
8 65
7 66
6 67
5 68
4 69
4 70
4 71
3 72
3 73
2 74
2 75
3 76
3 77
3 78
3 79
2 80
2 81
3 82
3 83
4 84
4 85
5 86
6 87
7 88
8 89
9 90
10 90
11 90
12 91
13 92
14 93
15 94
16 94
17 95
18 95
19 96
20 96
21 97
22 97
23 98
24 99
25 99
26 100
27 101
28 101
29 102
30 102
31 103
32 103
33 103
34 103
35 103
36 104
37 104
38 104
39 104
40 104
41 104
42 105
43 105
44 105
45 105
46 106
47 107
48 108
49 109
50 110
50 111
51 112
52 113
53 114
54 115
54 116
55 117
55 118
56 119
57 120
58 121
58 122
59 121
60 121
61 121
62 121
63 122
64 122
65 123
65 122
66 121
67 120
68 121
68 122
69 122
70 123
70 124
70 125
71 126
72 126
73 127
74 128
74 129
75 130
75 131
76 132
77 133
78 134
79 135
80 136
80 137
81 138
82 139
82 140
83 141
84 142
85 143
85 144
86 145
87 146
88 147
89 148
90 149
91 150
92 151
92 152
93 153
94 154
95 155
96 155
97 156
97 157
98 158
99 158
100 159
101 160
102 161
103 162
104 162
105 163
106 163
106 162
107 161
108 161
109 161
110 161
111 161
112 161
112 160
112 159
112 158
111 158
110 157
111 156
112 155
113 156
114 156
114 155
114 154
114 153
113 153
112 152
111 151
110 150
109 149
108 148
107 147
106 146
105 145
106 144
105 144
104 144
103 143
104 142
103 142
102 141
101 140
100 140
99 139
98 138
97 137
96 136
95 135
96 134
95 134
94 134
93 133
92 133
91 132
92 131
91 131
90 130
89 129
88 128
87 127
86 126
85 125
84 124
83 123
84 122
84 121
85 120
86 121
87 121
88 122
89 122
90 123
91 123
92 123
93 123
94 122
95 122
96 121
97 121
98 122
99 121
100 122
101 122
102 122
103 121
104 122
104 123
105 122
106 122
107 122
108 122
109 121
110 120
111 120
112 120
113 120
114 119
115 119
116 119
117 119
118 119
119 119
120 119
121 119
122 118
123 118
124 118
125 118
126 117
127 118
128 117
129 117
130 117
131 117
132 117
133 117
134 117
135 117
136 117
137 117
138 116
139 116
140 116
141 116
142 116
143 115
144 115
145 115
146 115
147 115
148 114
149 115
150 115
151 114
152 114
153 114
154 113
155 113
156 113
157 113
158 112
159 112
160 112
161 113
161 114
161 115
162 116
162 117
163 118
164 119
165 120
165 121
166 122
167 123
168 124
169 125
169 126
170 126
171 126
172 126
173 127
174 127
175 127
176 128
177 128
178 128
179 128
180 127
181 128
182 128
183 128
184 128
185 128
186 128
187 128
188 128
189 128
190 128
191 128
192 128
193 129
194 129
195 129
196 130
197 130
198 130
199 130
200 130
201 131
202 131
203 131
204 131
205 131
206 131
207 132
208 132
209 131
210 131
211 132
212 132
213 132
214 132
215 132
216 132
217 132
218 132
219 132
220 132
221 131
222 130
223 130
224 130
225 129
226 129
227 128
228 128
229 127
230 127
231 126
232 126
233 125
234 125
234 124
235 123
235 122
236 121
236 120
236 119
235 119
234 118
233 117
234 116
233 116
232 116
231 115
232 114
231 114
230 113
229 112
228 111
227 110
226 109
227 108
227 107
226 107
225 107
224 106
225 105
224 105
223 105
222 104
223 103
224 102
225 102
226 103
227 102
228 102
229 102
230 102
231 103
232 102
233 102
234 103
235 103
236 103
237 103
238 103
239 104
240 104
241 104
242 104
243 104
244 104
245 104
246 105
247 105
248 106
249 107
250 107
251 108
252 109
253 109
254 110
255 110
256 111
257 111
258 112
259 113
260 113
261 113
262 114
263 114
264 114
265 115
266 115
267 116
268 116
269 116
270 117
271 118
272 118
273 118
274 119
275 119
276 119
277 119
278 119
279 119
280 119
281 119
282 119
283 118
283 117
284 116
284 115
285 114
285 113
286 112
286 111
286 110
287 109
287 108
288 107
288 106
289 105
289 104
289 103
290 102
290 101
291 100
290 99
290 98
291 97
291 96
291 95
290 95
289 94
290 93
290 92
291 91
290 91
289 90
290 89
290 88
289 87
290 86
290 85
289 85
288 84
289 83
289 82
288 82
287 81
288 80
288 79
287 79
286 78
287 77
287 76
286 76
285 75
286 74
285 74
284 73
285 72
284 72
283 71
284 70
284 69
284 68
283 68
282 68
281 68
280 68
279 68
278 68
277 68
276 68
275 69
274 69
273 69
272 70
271 70
270 70
269 70
268 71
267 72
266 72
265 72
264 73
263 73
262 73
261 74
260 74
259 75
258 75
257 74
256 74
256 75
255 76
254 76
253 76
252 77
251 78
250 78
249 78
248 77
247 77
246 78
245 79
244 78
243 78
242 78
241 77
242 76
241 76
240 77
239 78
238 78
237 79
236 79
235 79
234 78
235 77
236 76
237 75
238 75
238 74
239 73
239 72
239 71
240 70
240 69
239 69
238 68
239 67
239 66
239 65
238 65
237 64
238 63
237 63
236 62
237 61
236 61
235 61
234 60
235 59
234 59
233 58
232 57
231 56
230 56
229 55
230 54
230 53
229 53
228 54
227 53
226 53
225 52
226 51
225 51
224 51
223 50
222 50
221 49
220 48
219 48
218 48
217 48
216 47
215 46
214 46
213 46
212 46
211 46
210 45
209 45
208 45
207 45
206 45
205 45
204 44
203 44
202 44
201 45
200 45
199 45
198 45
197 45
196 45
195 45
194 44
193 44
192 44
191 44
190 43
189 43
188 43
187 44
186 44
185 45
184 45
183 46
182 46
181 46
180 47
179 47
178 48
177 49
176 50
175 50
174 51
173 52
172 53
171 53
170 54
169 54
168 54
167 54
166 53
165 52
166 51
166 50
165 50
164 49
163 48
162 47
163 46
163 45
162 44
162 43
163 42
163 41
162 41
161 40
162 39
163 39
163 38
164 37
164 36
164 35
164 34
163 34
162 33
161 33
160 33
159 32
160 31
160 30
160 29
161 28
161 27
160 26
159 26
158 26
157 25
156 24
157 23
157 22
156 21
156 20
157 19
156 19
155 18
154 19
153 19
152 18
151 18
150 17
150 16
151 15
151 14
150 14
149 14
148 14
147 15
146 15
145 15
144 14
143 13
144 12
144 11
144 10
143 10
142 10
141 10
140 11
139 11
138 10
139 9
139 8
138 8
137 8
136 8
135 9
134 9
133 10
132 9
131 9
130 9
129 8
130 7
130 6
130 5
129 4
128 5
127 5
126 5
125 4
124 4
123 3
122 3
121 3
120 3
119 3
118 3
117 3
116 2
