180 2
179 3
179 4
178 5
177 6
176 7
175 8
174 9
173 10
172 11
172 12
171 13
170 14
169 14
168 15
167 16
166 17
165 18
164 19
163 20
162 21
161 22
160 23
159 23
158 24
158 25
157 26
156 27
155 27
154 28
153 29
152 30
151 30
150 31
149 32
148 32
147 33
146 33
145 34
144 35
143 35
143 36
142 37
141 37
140 38
139 38
138 39
137 39
136 40
135 41
134 42
133 42
132 42
131 42
130 42
129 41
128 40
127 40
126 40
125 40
124 39
124 38
125 37
125 36
126 35
126 34
127 33
128 32
129 32
130 31
131 31
132 31
133 31
134 30
135 30
136 30
137 30
138 29
139 29
139 28
140 27
140 26
141 25
141 24
142 23
142 22
142 21
142 20
141 20
140 21
139 20
138 20
138 21
138 22
138 23
138 24
137 25
136 26
135 26
134 27
133 27
132 27
131 27
130 28
129 28
128 29
127 29
126 30
125 30
124 31
123 32
123 33
122 34
121 35
121 36
120 37
119 38
118 39
118 40
117 41
116 42
115 42
114 42
113 41
112 41
111 40
110 39
109 38
108 37
107 36
106 35
105 34
104 33
103 32
104 31
105 31
106 30
107 30
108 30
109 30
110 30
111 30
112 30
113 30
114 29
114 28
115 27
115 26
116 25
116 24
116 23
116 22
117 21
116 21
115 22
114 22
114 23
114 24
113 25
112 26
111 27
110 27
109 27
108 27
107 27
106 27
105 28
104 28
103 28
102 29
101 30
100 30
100 31
100 32
100 33
100 34
100 35
100 36
100 37
99 38
98 38
97 38
96 37
95 37
94 37
93 36
92 36
91 35
90 34
89 33
88 32
87 32
86 32
85 31
84 30
83 30
82 30
81 29
80 30
79 30
78 30
77 30
76 30
75 30
74 30
73 30
72 30
71 30
70 30
69 30
68 30
67 30
66 30
65 30
64 30
63 30
62 31
61 31
60 31
59 31
58 32
57 32
56 32
55 31
54 30
53 29
54 28
53 28
52 27
51 27
51 28
50 29
50 30
51 31
52 32
53 33
54 34
55 35
54 36
53 36
52 36
51 36
50 36
49 36
48 36
47 37
46 36
45 37
44 37
43 37
42 37
41 37
40 37
39 37
38 37
37 37
36 38
35 38
34 38
33 38
32 38
31 38
30 39
29 39
28 39
27 39
26 40
25 41
24 41
23 41
22 42
21 42
20 43
19 44
18 44
17 44
16 44
15 44
14 44
13 44
12 44
11 43
10 43
9 43
8 43
7 43
6 43
5 43
4 43
3 43
2 44
2 45
3 45
4 45
5 45
6 45
7 45
8 45
9 45
10 46
11 46
12 46
13 47
13 48
13 49
13 50
13 51
13 52
13 53
14 54
14 55
13 56
12 56
11 56
10 56
9 56
8 56
7 57
6 57
5 57
4 57
3 57
3 58
3 59
4 59
5 59
6 59
7 59
8 59
9 58
10 58
11 58
12 58
13 58
14 58
15 58
16 57
17 57
18 57
19 58
20 58
21 59
22 59
23 60
24 60
25 60
26 61
27 61
28 61
29 61
30 62
31 62
32 62
33 62
34 62
35 62
36 63
37 63
38 63
39 63
40 63
41 63
42 63
43 63
44 63
45 63
46 63
47 63
48 63
49 63
50 63
51 63
52 63
53 63
54 63
55 64
54 65
53 66
52 67
51 68
50 68
50 69
51 70
51 71
52 71
53 71
53 70
54 69
55 68
55 67
56 66
57 66
58 66
59 66
60 66
61 66
62 66
63 67
64 67
65 67
66 67
67 67
68 68
69 68
70 68
71 68
72 68
73 68
74 68
75 68
76 68
77 68
78 68
79 68
80 68
81 68
82 68
83 68
84 68
85 67
86 66
87 66
88 66
89 65
90 65
91 64
92 64
93 63
94 62
95 61
96 61
97 61
98 61
99 60
100 61
100 62
100 63
100 64
100 65
100 66
100 67
100 68
101 69
102 70
103 70
104 70
105 71
106 71
107 72
108 72
109 72
110 73
111 74
111 75
112 76
113 77
113 78
113 79
114 79
115 79
116 79
116 78
116 77
116 76
115 76
114 75
115 74
114 74
113 73
114 72
114 71
113 71
112 70
111 69
110 69
109 69
108 68
107 68
106 68
105 67
104 67
103 66
103 65
104 64
105 64
106 63
107 62
108 61
109 61
110 60
111 59
112 58
113 58
114 57
115 57
116 57
117 58
118 59
118 60
119 61
120 62
120 63
121 64
122 65
123 66
124 67
125 68
126 68
127 69
128 69
129 69
130 70
131 70
132 70
133 71
134 71
135 71
136 71
137 71
138 72
139 73
139 74
139 75
139 76
140 75
141 76
142 75
142 74
141 73
142 72
142 71
142 70
142 69
141 69
140 68
139 67
138 67
137 67
136 67
135 67
134 67
133 67
132 67
131 66
130 66
129 66
128 66
127 65
126 64
127 63
126 63
125 62
124 61
125 60
124 60
123 59
124 58
125 58
126 58
127 58
128 58
129 58
130 57
131 56
132 56
133 57
134 57
135 58
136 58
137 59
138 59
139 59
140 60
141 60
142 61
143 61
144 62
145 63
146 63
147 64
148 64
149 65
150 66
151 66
152 67
153 68
154 68
155 69
156 70
157 71
158 72
159 73
160 74
161 75
162 76
163 76
164 77
165 78
165 79
166 80
167 81
168 82
169 83
170 84
171 85
172 86
172 87
173 88
174 89
174 90
175 91
176 92
176 93
177 94
178 95
179 96
179 97
180 97
180 96
181 95
180 94
179 93
179 92
178 92
177 91
177 90
177 89
176 89
175 88
175 87
174 86
173 85
172 85
171 84
172 83
172 82
171 82
170 81
169 80
168 79
167 78
166 77
165 77
164 76
165 75
164 74
163 74
162 73
161 72
160 71
159 70
158 69
158 68
157 68
156 67
155 66
154 66
153 65
152 64
151 64
150 63
149 62
148 62
147 61
146 61
145 60
144 59
143 59
142 58
141 58
140 57
139 57
138 56
137 56
136 56
135 55
134 54
133 54
132 53
131 52
132 51
132 50
133 49
133 48
133 47
132 46
133 45
134 44
135 44
136 43
137 42
138 41
139 41
140 40
141 40
142 39
143 38
144 37
145 37
146 36
147 35
148 35
149 34
150 33
151 32
152 32
153 31
154 30
155 30
156 29
157 28
158 27
159 26
160 25
161 24
162 23
163 23
164 22
164 21
165 20
166 19
167 18
168 18
169 17
170 16
171 15
171 14
172 13
173 13
174 12
175 11
176 10
177 9
178 8
179 7
180 6
180 5
181 4
181 3
182 2
181 2
