88 2
87 3
86 4
85 4
85 5
84 6
83 7
83 8
82 9
82 10
81 11
80 12
79 13
79 14
78 15
78 16
77 17
77 18
76 19
76 20
76 21
75 22
75 23
74 24
74 25
73 26
73 27
73 28
73 29
72 30
72 31
71 32
70 32
69 32
68 33
67 33
66 33
65 33
64 32
65 31
64 31
63 30
62 30
61 30
60 31
59 31
58 32
57 32
56 33
55 33
54 33
53 33
52 33
51 33
50 33
49 33
48 34
48 35
47 36
46 37
46 38
45 39
44 40
43 41
42 41
41 40
42 39
41 39
40 38
39 38
38 38
37 39
36 40
35 41
34 41
33 42
32 43
31 43
30 44
29 44
28 45
27 46
26 46
25 47
25 48
24 49
23 50
23 51
22 52
22 53
21 54
20 53
19 53
18 53
17 54
16 55
15 55
14 56
14 57
13 58
12 59
11 59
10 60
9 61
9 62
8 63
7 64
7 65
7 66
7 67
6 68
5 69
4 70
4 71
3 72
2 73
2 74
2 75
2 76
2 77
2 78
2 79
2 80
3 81
3 82
4 83
5 84
6 84
7 84
8 84
9 84
10 85
11 85
12 86
13 86
14 86
15 86
16 86
17 86
18 86
19 86
20 86
21 86
22 87
23 87
24 87
25 87
26 87
27 87
28 88
29 88
30 88
31 88
32 89
33 89
34 89
35 89
36 90
37 90
38 90
39 90
40 90
41 90
42 90
43 91
44 91
45 91
46 91
47 91
48 91
49 91
50 91
51 91
52 91
53 91
54 91
55 91
56 91
57 92
58 92
59 92
60 93
61 93
62 94
63 95
63 96
64 97
64 98
65 98
66 99
67 100
68 101
69 102
69 103
69 104
69 105
69 106
70 107
70 108
71 109
71 110
71 111
72 112
72 113
73 114
73 115
73 116
74 117
75 118
75 119
76 120
77 121
78 122
78 123
79 124
80 125
80 126
81 127
82 127
82 126
83 125
84 124
85 125
86 126
87 127
88 126
88 125
89 124
88 124
87 124
86 123
85 122
86 121
85 121
84 120
83 119
82 118
83 117
84 116
85 116
85 115
86 114
86 113
85 113
84 113
83 112
84 111
83 111
82 110
81 109
82 108
81 108
80 107
79 106
80 105
81 104
82 104
83 105
84 106
85 107
85 106
86 105
87 105
88 106
89 107
90 108
91 107
91 106
92 105
93 105
94 106
95 107
96 107
97 108
98 109
99 108
99 107
100 106
101 106
102 106
103 105
104 105
105 105
106 106
107 106
108 107
109 108
110 107
110 106
111 105
112 104
113 103
114 103
115 103
116 104
117 104
118 103
118 102
119 101
120 100
121 99
122 99
123 98
124 98
125 99
126 99
127 98
128 97
128 96
129 95
130 95
131 95
132 95
133 95
134 94
135 95
135 96
136 97
136 98
137 99
138 100
139 101
140 102
141 103
142 104
143 105
144 105
145 106
146 107
147 107
148 107
149 107
150 108
151 109
152 108
153 109
154 108
155 109
155 110
156 110
157 110
158 110
159 110
160 110
161 111
162 111
163 111
164 111
165 112
166 112
167 112
168 111
169 111
170 111
171 112
172 112
173 112
174 111
175 111
176 111
177 112
178 112
179 111
180 111
181 111
182 111
183 112
184 112
185 111
186 111
187 110
188 110
189 110
190 111
191 110
192 109
193 109
194 109
195 109
196 108
197 108
198 108
198 107
199 106
200 105
201 105
202 105
202 104
203 103
204 102
205 101
206 101
206 100
207 99
207 98
208 97
208 96
209 95
209 94
209 93
209 92
209 91
208 90
207 89
206 88
205 88
204 87
203 87
202 86
201 85
200 84
201 83
202 83
203 83
204 83
205 83
206 83
207 83
208 83
209 83
210 83
211 83
212 83
213 83
214 83
215 83
216 83
217 83
218 83
219 83
220 83
221 84
222 84
223 84
224 84
225 84
226 84
227 84
228 84
229 85
230 85
231 86
232 86
233 86
234 87
235 87
236 87
237 88
238 88
239 89
240 89
241 89
242 90
243 91
244 90
245 91
246 91
247 91
248 91
249 91
250 92
251 92
252 93
253 93
254 94
255 94
256 94
257 95
258 95
259 96
260 96
261 97
262 97
263 97
264 98
265 98
266 98
267 98
268 98
269 98
270 98
271 98
272 98
272 97
273 96
274 96
275 96
275 95
276 94
276 93
276 92
277 91
277 90
278 89
278 88
279 87
279 86
280 85
280 84
280 83
281 82
282 81
282 80
283 79
282 78
282 77
283 76
283 75
283 74
283 73
283 72
283 71
283 70
283 69
283 68
283 67
283 66
283 65
283 64
282 64
281 63
282 62
282 61
282 60
282 59
282 58
282 57
282 56
281 56
280 56
279 56
278 56
277 55
276 55
275 55
274 55
273 56
272 56
271 56
270 56
269 56
268 56
267 57
266 56
265 57
264 57
263 57
262 57
261 58
260 58
259 58
258 58
257 59
256 59
255 59
254 60
253 60
252 60
251 61
250 61
249 61
248 62
247 62
246 62
245 62
244 62
243 63
242 63
241 63
240 64
239 64
238 64
237 65
236 65
235 65
234 66
233 66
232 66
231 67
230 67
229 67
228 67
227 67
226 66
225 66
224 66
223 66
222 66
221 66
220 66
219 65
218 65
217 65
216 65
215 65
214 65
213 65
212 64
211 64
210 64
209 64
208 64
207 63
206 63
205 63
204 63
203 62
204 61
205 61
206 60
207 60
208 60
209 60
210 59
211 59
212 59
213 59
214 59
215 59
216 59
217 58
218 58
219 58
219 57
220 56
220 55
220 54
220 53
219 53
218 52
219 51
219 50
219 49
218 49
217 48
216 47
215 46
214 45
213 44
212 43
213 42
212 42
211 41
210 41
209 40
208 40
207 39
206 39
205 38
204 37
203 37
202 36
201 35
200 35
199 34
198 34
197 34
196 33
195 32
194 32
193 32
192 32
191 31
190 31
189 30
188 30
187 30
186 30
185 30
184 29
183 29
182 28
181 28
180 28
179 27
178 27
177 27
176 26
175 26
174 26
173 26
172 26
171 26
170 26
169 26
168 26
167 26
166 26
165 25
164 25
163 26
162 26
161 26
160 26
159 26
158 26
157 26
156 26
155 26
154 26
153 26
152 26
151 26
150 26
149 26
148 26
147 26
146 26
145 26
144 26
143 27
142 28
141 29
140 29
139 30
138 30
137 31
136 32
135 32
134 33
133 33
132 34
131 35
130 36
129 36
129 37
128 38
127 38
127 39
126 40
125 40
124 41
123 41
122 40
121 40
120 40
119 40
118 39
119 38
118 37
119 36
119 35
120 34
120 33
120 32
119 32
118 31
119 30
119 29
120 28
120 27
120 26
119 25
118 24
117 23
118 22
118 21
117 21
116 20
117 19
116 19
115 18
116 17
116 16
115 16
114 15
113 15
112 14
113 13
112 13
111 12
112 11
111 11
110 11
109 10
108 10
107 11
106 10
105 9
104 8
103 7
102 8
101 7
100 7
99 7
98 6
97 5
98 4
97 4
96 4
95 4
94 4
93 5
92 4
91 4
90 3
89 2
