136 4
136 5
136 6
136 7
136 8
135 9
134 10
133 11
132 12
131 12
130 11
129 10
128 9
129 8
128 8
127 7
126 7
125 6
125 5
124 5
123 5
123 6
124 7
124 8
124 9
124 10
123 11
122 12
121 13
120 12
119 11
118 10
117 10
116 9
115 9
114 9
114 10
115 11
116 12
115 13
115 14
114 15
113 16
112 17
111 18
111 19
110 20
109 21
108 22
107 23
106 24
105 25
105 26
104 27
104 28
103 29
102 30
102 31
101 32
101 33
100 34
100 35
99 36
99 37
99 38
98 39
97 40
97 41
97 42
96 43
95 44
94 44
93 44
92 44
91 44
90 45
89 45
88 45
87 45
86 45
85 45
84 45
83 46
82 45
82 44
83 43
82 43
81 43
80 43
79 44
78 45
77 46
76 46
75 47
74 48
73 49
72 50
71 50
70 51
69 51
68 51
67 51
66 51
65 52
64 52
63 53
62 53
61 53
60 53
59 54
58 54
57 54
56 54
55 54
54 53
53 52
54 51
54 50
53 50
52 50
51 50
50 51
49 51
48 52
47 53
46 54
45 54
44 53
43 53
42 53
41 53
40 53
39 53
38 54
37 54
36 54
35 54
34 55
33 56
32 57
31 58
30 59
29 60
29 61
29 62
28 63
27 64
26 65
25 65
24 65
23 64
24 63
23 63
22 64
21 65
20 66
19 66
18 66
17 67
17 68
16 69
15 69
15 70
14 71
13 72
12 72
11 73
10 73
9 74
8 75
7 76
6 76
5 77
4 78
4 79
3 80
2 81
2 82
2 83
2 84
2 85
2 86
3 87
4 87
5 88
6 88
7 88
8 89
9 89
10 90
11 90
12 91
13 91
14 91
15 92
14 93
13 93
12 93
11 93
10 93
9 93
8 94
7 94
6 94
5 93
4 93
3 93
3 94
2 95
2 96
2 97
2 98
3 98
4 99
4 100
5 101
6 101
7 102
8 102
9 103
10 103
11 104
12 105
13 105
14 105
15 106
16 106
17 106
18 106
19 107
20 107
21 107
22 107
23 107
24 107
25 107
26 107
27 107
28 107
29 107
30 107
31 107
32 107
33 107
34 107
35 107
36 107
37 107
38 108
39 108
40 108
41 108
42 109
43 109
44 109
45 109
46 110
47 110
48 110
49 110
50 111
51 111
52 111
53 111
54 112
55 112
56 112
57 112
58 112
59 112
60 113
61 113
62 113
63 113
64 114
65 114
66 114
67 115
68 115
69 115
70 116
71 116
72 117
73 117
74 118
75 118
76 119
77 119
78 119
79 120
80 121
80 122
81 123
81 124
82 125
82 126
83 127
83 128
84 129
84 130
84 131
85 132
85 133
86 134
86 135
86 136
87 137
87 138
88 139
89 140
89 141
90 142
90 143
91 144
91 145
92 146
93 147
94 148
94 149
95 150
96 151
96 152
97 152
98 153
99 154
100 155
101 156
102 156
103 156
104 156
105 156
106 156
107 156
106 156
105 155
104 154
103 154
102 153
101 152
100 151
101 150
100 150
99 149
100 148
100 147
101 146
102 147
103 147
104 148
105 149
106 149
107 150
108 151
109 152
110 152
111 152
112 153
113 154
114 154
115 155
116 155
117 155
118 155
119 155
120 155
121 155
121 154
121 153
120 153
119 153
118 153
117 152
116 151
117 150
118 149
119 149
120 149
121 150
122 150
123 151
124 151
125 151
126 152
127 152
128 152
129 152
130 152
131 152
132 151
133 150
133 149
132 149
131 149
130 149
129 149
128 149
127 148
126 148
125 147
124 147
123 146
122 145
121 145
120 144
119 144
118 143
117 142
116 141
115 141
114 140
113 139
112 139
111 138
110 137
109 136
108 136
107 135
106 134
105 133
104 132
103 132
102 131
101 130
100 129
99 129
98 128
97 127
96 126
95 125
94 124
95 123
96 123
97 123
98 123
99 123
100 123
101 124
102 124
103 125
104 126
105 126
106 127
107 127
108 128
109 128
110 129
111 130
112 130
113 130
114 131
115 131
116 132
117 132
118 132
119 133
120 133
121 133
122 134
123 134
124 134
125 134
126 133
127 133
128 132
129 131
130 130
131 129
132 128
133 127
133 126
134 125
135 125
136 125
137 125
138 125
139 124
140 124
141 124
142 124
143 123
144 123
145 123
146 123
147 123
148 122
149 122
150 122
151 121
152 121
153 120
154 120
155 119
156 119
157 118
158 118
159 117
160 116
161 116
162 116
163 115
164 114
165 113
166 113
167 113
168 112
169 112
170 112
171 112
172 112
173 112
174 113
175 114
176 115
177 116
177 117
177 118
177 119
177 120
178 121
178 122
178 123
178 124
178 125
178 126
178 127
179 128
179 129
180 130
180 131
180 132
181 133
181 134
182 135
182 136
183 137
183 136
184 135
184 134
184 133
184 132
184 131
185 130
186 130
187 131
188 132
188 133
189 134
190 135
191 136
192 137
192 138
193 138
194 139
195 140
196 141
197 142
198 143
199 144
200 144
201 145
202 146
203 146
203 145
204 144
204 143
205 142
206 143
207 144
208 145
209 145
210 146
211 146
211 145
212 144
213 144
214 144
215 145
216 145
217 145
218 146
219 147
220 147
220 146
220 145
221 144
222 144
223 145
224 145
225 145
225 144
225 143
225 142
226 141
227 141
228 142
229 142
230 143
231 143
231 142
231 141
230 140
230 139
231 138
232 138
233 137
234 138
235 139
236 139
237 140
238 140
238 139
238 138
237 137
236 136
237 135
238 135
239 135
240 135
241 135
242 135
243 135
244 135
244 134
244 133
243 133
242 132
243 131
244 130
245 130
246 131
247 131
247 130
247 129
247 128
248 127
249 127
250 127
251 127
252 127
253 127
254 126
254 125
253 124
254 123
255 122
256 122
257 121
257 120
256 119
255 119
254 118
255 117
255 116
256 115
256 114
255 113
254 113
253 112
252 112
251 112
250 111
249 110
248 109
247 109
246 108
245 107
244 106
243 105
244 104
245 104
246 104
247 103
248 103
249 103
250 103
251 103
252 103
253 103
254 104
255 104
256 104
257 104
258 104
259 104
260 104
261 104
262 104
263 105
264 105
265 105
266 106
267 106
268 106
269 107
270 107
271 107
272 108
273 108
274 109
275 109
276 109
277 110
278 110
279 111
280 112
281 112
282 112
283 113
284 113
285 114
286 114
287 115
288 115
289 116
290 116
291 116
292 117
293 117
294 118
295 118
296 118
297 119
298 119
299 120
300 120
301 120
302 121
303 121
304 121
305 121
306 122
307 122
308 122
309 123
310 123
311 123
312 123
313 123
314 123
315 124
316 124
317 124
318 124
319 123
320 123
321 123
321 122
322 121
322 120
322 119
323 118
324 118
324 117
324 116
324 115
325 114
326 114
326 113
326 112
327 111
327 110
327 109
328 108
329 107
330 108
330 107
331 106
330 106
329 106
328 105
329 104
330 103
331 104
331 103
332 102
331 102
330 101
329 100
330 99
331 98
331 97
332 96
331 96
330 95
331 94
331 93
332 92
331 92
330 91
331 90
331 89
332 88
332 87
331 87
330 86
331 85
331 84
331 83
331 82
330 81
330 80
331 79
331 78
330 77
331 76
331 75
332 74
331 74
330 74
329 74
328 73
329 72
329 71
330 70
330 69
329 69
328 68
327 67
326 66
325 65
325 64
324 64
323 64
322 63
321 62
320 61
319 61
318 61
317 61
316 61
315 61
314 61
313 61
312 62
311 62
310 63
309 63
308 63
307 64
306 64
305 64
304 64
303 65
302 65
301 65
300 66
299 66
298 66
297 67
296 67
295 68
294 68
293 68
292 69
291 69
290 69
289 70
288 70
287 71
286 71
285 72
284 72
283 72
282 73
281 73
280 74
279 74
278 75
277 75
276 76
275 76
274 77
273 77
272 78
271 78
270 79
269 79
268 80
267 80
266 80
265 81
264 81
263 81
262 82
261 82
260 82
259 82
258 82
257 83
256 83
255 83
254 83
253 83
252 83
251 82
250 82
249 81
250 80
251 80
252 80
253 80
254 80
255 80
256 80
257 80
258 80
258 79
258 78
257 78
256 77
257 76
258 76
259 76
260 76
261 76
261 75
262 74
261 74
260 73
261 72
262 72
263 72
263 71
264 70
263 69
264 68
265 68
266 68
266 67
266 66
265 66
264 65
264 64
265 63
266 64
266 63
267 62
266 62
265 62
264 61
265 60
266 59
266 58
265 58
264 57
265 56
266 56
267 56
267 55
267 54
266 54
265 54
264 54
263 53
262 53
261 52
261 51
262 50
263 50
263 49
263 48
262 48
261 48
260 47
259 47
258 47
257 46
256 45
256 44
256 43
256 42
256 41
255 40
254 40
253 40
252 39
251 39
250 39
249 39
248 39
247 38
247 37
246 37
245 37
244 37
243 37
242 37
241 37
240 37
239 37
238 37
237 37
236 37
235 37
234 36
235 35
234 35
233 35
232 35
231 35
230 35
229 35
228 35
227 35
226 35
225 35
224 35
223 35
222 34
221 34
220 35
219 35
218 35
217 35
216 36
215 36
214 36
213 36
212 37
211 37
210 37
209 38
208 38
207 39
206 39
205 40
204 40
203 39
203 38
202 38
201 38
200 39
199 39
198 40
197 40
196 40
195 41
194 42
193 42
192 43
191 43
190 44
189 44
188 45
187 45
186 46
185 47
184 47
183 48
182 48
181 49
180 49
179 50
178 50
177 51
176 51
175 52
174 53
173 53
172 54
171 54
170 53
170 52
171 51
172 51
173 50
173 49
174 48
174 47
173 47
172 46
173 45
174 44
175 43
176 42
176 41
177 40
176 40
175 41
174 41
173 40
172 40
171 39
170 39
169 39
168 38
169 37
169 36
169 35
170 34
170 33
171 32
171 31
172 30
172 29
172 28
172 27
172 26
173 25
172 25
171 26
170 27
169 28
168 28
167 28
166 29
165 28
164 28
163 27
162 26
162 25
162 24
163 23
163 22
163 21
164 20
164 19
164 18
164 17
164 16
163 16
162 15
163 14
163 13
162 13
161 14
160 15
159 16
158 17
157 18
156 18
155 19
154 19
153 18
154 17
154 16
154 15
155 14
155 13
155 12
154 12
153 11
154 10
154 9
154 8
153 7
152 7
152 8
151 9
151 10
150 11
149 11
148 12
147 13
146 14
145 14
144 14
143 14
142 14
141 13
142 12
142 11
142 10
142 9
142 8
141 8
140 7
141 6
140 6
139 5
138 5
137 4
