137 1
136 2
135 3
134 4
133 5
132 6
131 6
131 7
130 8
129 9
128 9
127 8
128 7
128 6
128 5
129 4
128 4
127 5
126 6
125 7
124 8
123 9
122 10
121 11
120 12
119 13
118 14
118 15
117 16
116 17
115 18
114 19
114 20
113 21
112 22
111 23
110 24
110 25
109 26
108 27
107 28
106 28
105 28
104 27
103 27
102 27
101 27
100 27
99 27
98 26
97 26
96 26
95 26
94 26
93 26
92 26
91 26
90 26
89 27
88 27
87 27
86 27
85 28
84 27
84 26
85 25
85 24
84 24
83 24
82 24
81 24
80 24
79 24
78 25
77 25
76 26
75 26
74 27
73 28
72 29
71 29
70 28
71 27
71 26
70 26
69 26
68 27
67 27
66 27
65 28
64 28
63 29
62 30
61 30
60 31
59 32
58 32
57 33
56 33
55 33
54 33
53 33
52 33
51 32
50 31
49 30
50 29
50 28
51 27
50 27
49 28
48 28
47 28
46 29
45 29
44 29
43 29
42 29
41 29
40 29
39 29
38 29
37 29
36 30
35 30
34 30
33 31
32 31
31 32
30 33
29 33
29 34
28 35
27 35
26 36
25 37
24 38
23 39
22 39
21 39
20 38
21 37
21 36
21 35
20 35
19 36
18 37
17 37
16 38
15 39
14 40
13 41
12 42
11 42
10 43
9 43
8 44
8 45
8 46
8 47
7 48
6 48
5 48
4 49
3 50
3 51
3 52
3 53
4 54
5 54
6 55
7 56
8 56
9 57
10 57
11 57
12 58
13 59
14 60
13 61
12 61
11 61
10 61
9 61
8 60
7 60
6 60
5 60
4 60
3 60
2 61
2 62
2 63
2 64
3 65
4 66
5 66
6 67
7 67
8 67
9 68
10 68
11 68
12 68
13 69
14 70
15 69
16 70
17 70
18 71
19 71
20 71
21 71
22 71
23 72
24 72
25 73
26 73
27 74
28 74
29 75
30 76
31 76
32 77
33 77
34 78
35 79
36 79
37 80
38 81
39 82
40 82
41 83
42 84
43 84
44 85
44 86
45 86
46 86
47 87
48 88
49 88
50 89
51 90
52 90
53 91
54 91
55 92
56 93
57 94
57 95
58 96
58 97
58 98
58 99
58 100
58 101
58 102
58 103
58 104
58 105
58 106
58 107
58 108
58 109
58 110
59 111
59 112
59 113
59 114
59 115
59 116
60 117
60 118
60 119
61 120
61 121
61 122
61 123
62 124
62 123
63 122
64 123
64 124
64 125
65 126
65 127
66 128
66 129
66 130
67 131
67 132
68 133
68 134
68 135
69 136
69 137
70 138
70 139
70 140
71 141
72 142
72 141
73 140
72 139
72 138
71 137
71 136
70 135
70 134
70 133
69 132
70 131
70 130
71 129
70 128
70 127
69 127
68 126
69 125
69 124
68 124
67 123
68 122
68 121
68 120
67 120
66 119
67 118
67 117
66 117
65 116
66 115
66 114
65 114
64 113
65 112
65 111
65 110
64 110
63 109
64 108
65 108
66 108
67 109
67 110
67 111
68 112
68 113
69 114
69 115
70 116
71 117
71 118
72 119
72 120
73 121
73 122
74 123
74 124
74 125
75 126
76 127
76 128
77 129
78 130
78 131
79 132
79 133
80 134
81 135
81 136
82 137
83 138
84 138
84 137
85 136
86 137
87 138
88 139
89 140
90 141
90 142
91 143
92 144
93 145
94 146
94 145
95 144
94 143
93 142
92 141
92 140
91 139
90 138
90 137
89 137
88 136
87 135
86 134
87 133
88 132
89 132
89 131
90 130
89 130
88 129
88 128
87 127
87 126
86 126
85 125
85 124
84 124
83 123
82 122
83 121
82 121
81 120
80 119
79 118
80 117
79 117
78 116
79 115
78 115
77 114
76 113
75 112
76 111
75 111
74 110
73 109
74 108
73 108
72 107
73 106
72 106
71 105
71 104
71 103
72 102
73 103
74 104
75 104
76 105
77 105
78 106
79 106
80 107
81 107
82 107
83 108
84 108
85 108
86 108
87 109
88 109
89 109
90 110
91 110
92 110
93 111
94 111
95 111
96 111
97 111
98 111
99 111
100 111
101 112
102 112
103 112
104 112
105 112
106 113
107 113
108 113
109 113
110 113
111 113
112 114
113 113
114 113
115 113
116 113
117 113
118 113
119 113
120 113
121 113
122 113
123 113
124 113
125 112
126 112
127 112
128 112
129 112
130 111
131 111
132 111
133 111
134 111
135 111
136 111
137 110
138 110
139 110
140 110
141 109
142 109
143 109
144 109
145 108
146 108
147 108
148 108
149 109
150 110
151 111
151 112
152 113
153 114
153 115
154 116
154 117
155 118
155 119
156 120
157 121
158 122
159 122
160 122
161 122
162 122
163 122
164 123
165 123
166 123
167 123
168 123
169 124
170 124
171 125
172 126
173 126
173 125
174 124
173 124
172 123
173 122
172 122
171 122
170 121
169 121
168 120
167 119
166 119
165 118
164 118
163 117
162 117
161 116
162 115
161 115
160 115
159 114
160 113
160 112
159 112
158 111
157 110
156 109
157 108
156 108
155 107
156 106
155 105
156 104
157 104
158 103
159 103
160 103
161 103
162 104
163 105
164 106
165 107
166 108
167 109
168 110
168 111
169 112
170 113
171 114
172 115
173 116
174 117
174 118
175 119
176 120
177 121
178 121
179 122
180 122
181 123
182 123
183 124
184 124
185 125
186 126
187 126
188 126
189 126
190 127
191 127
192 128
193 127
194 127
195 127
196 128
197 128
198 128
199 128
200 128
201 129
202 129
203 129
204 130
204 129
205 128
206 129
207 129
208 129
209 130
209 129
210 128
211 128
212 127
213 128
214 128
215 128
216 128
217 128
218 128
219 128
220 128
221 127
222 128
223 128
224 128
224 127
225 126
226 127
227 127
228 127
229 126
230 126
231 126
232 125
233 126
234 126
234 125
235 124
236 124
237 124
238 125
238 124
239 123
240 123
241 124
242 123
243 122
244 122
245 122
246 122
247 121
247 120
248 119
247 119
246 118
247 117
246 117
245 116
244 115
243 114
242 113
241 112
242 111
241 111
240 111
239 110
238 109
237 108
236 107
237 106
238 106
239 107
240 107
241 107
242 107
243 107
244 107
245 107
246 107
247 107
248 107
249 107
250 107
251 108
252 108
253 108
254 108
255 108
256 108
257 109
258 109
259 109
260 110
261 110
262 110
263 111
264 111
265 111
266 112
267 113
268 113
269 114
270 115
271 115
272 116
273 116
274 117
275 118
276 118
277 119
278 120
279 120
280 121
281 122
282 122
283 123
284 123
285 124
286 124
287 125
288 126
289 126
290 126
291 127
292 127
293 128
294 128
295 129
296 129
297 129
298 129
299 130
300 130
301 131
302 131
303 131
304 132
305 132
306 132
307 133
308 133
309 133
310 133
311 134
312 134
313 134
314 134
315 134
316 134
317 135
318 135
319 135
320 135
321 135
322 135
323 135
323 134
324 133
324 132
324 131
325 130
325 129
325 128
326 127
326 126
326 125
326 124
327 123
327 122
327 121
328 120
328 119
328 118
328 117
328 116
328 115
328 114
328 113
328 112
327 112
326 111
327 110
327 109
327 108
327 107
328 106
328 105
329 104
330 103
330 102
331 101
331 100
332 99
332 98
332 97
333 96
333 95
333 94
334 93
334 92
333 92
332 91
333 90
333 89
332 89
331 88
330 88
329 88
328 87
327 87
326 86
325 86
324 86
323 86
322 86
321 86
320 86
319 85
318 85
317 85
316 85
315 84
314 84
313 84
312 84
311 84
310 84
309 84
308 84
307 84
306 84
305 84
304 84
303 84
302 84
301 84
300 84
299 84
298 84
297 84
296 85
295 85
294 85
293 85
292 85
291 85
290 86
289 86
288 86
287 86
286 86
285 86
284 87
283 87
282 87
281 88
280 88
279 88
278 88
277 88
276 89
275 89
274 89
273 89
272 89
271 89
270 90
269 90
268 90
267 90
266 90
265 91
264 91
263 91
262 90
261 91
260 91
259 90
260 89
259 89
258 90
257 89
256 89
255 88
254 88
253 89
252 89
251 88
250 88
249 87
248 87
247 87
246 87
245 86
246 85
246 84
247 83
248 83
249 82
249 81
248 80
249 79
249 78
249 77
249 76
249 75
249 74
249 73
248 72
247 71
248 70
248 69
248 68
247 68
246 67
247 66
247 65
246 65
245 64
244 63
244 62
243 62
242 61
241 60
242 59
242 58
241 58
240 58
239 57
238 56
239 55
238 55
237 55
236 55
235 55
234 55
233 54
234 53
233 53
232 53
231 53
230 52
229 51
230 50
229 50
228 50
227 50
226 50
225 49
226 48
226 47
225 47
224 47
223 48
222 48
221 47
221 46
221 45
220 45
219 45
218 45
217 45
216 44
217 43
216 43
215 43
214 44
213 44
212 43
211 42
210 42
209 42
208 42
207 41
208 40
207 40
206 39
205 40
204 40
203 39
204 38
203 38
202 38
201 39
200 39
199 39
198 39
197 38
198 37
197 37
196 38
195 38
194 38
193 37
193 36
192 36
191 36
190 37
189 37
188 38
187 37
187 36
186 36
185 37
184 37
183 38
182 38
181 38
180 37
179 37
178 38
177 39
176 39
175 40
174 41
173 41
172 42
171 42
170 42
169 43
168 44
168 45
167 46
166 47
165 48
164 49
163 50
162 50
161 49
160 50
159 49
158 49
157 48
156 47
157 46
157 45
157 44
157 43
157 42
157 41
157 40
158 39
158 38
158 37
159 36
158 36
157 35
158 34
158 33
158 32
158 31
159 30
159 29
159 28
160 27
160 26
161 25
160 25
159 26
158 26
157 25
157 24
157 23
158 22
158 21
158 20
159 19
158 19
157 19
156 20
155 20
154 20
153 19
154 18
154 17
154 16
155 15
155 14
156 13
156 12
157 11
156 11
155 12
154 12
153 13
152 13
151 12
150 11
151 10
151 9
151 8
151 7
152 6
151 6
150 6
149 7
148 8
147 9
146 9
145 10
144 10
143 9
144 8
144 7
144 6
144 5
145 4
145 3
144 3
143 4
142 5
141 6
140 6
139 6
138 7
137 6
136 5
137 4
137 3
138 2
138 1
