177 3
176 4
175 5
174 4
173 4
172 4
171 5
170 6
169 7
168 8
167 9
166 10
165 11
164 11
163 11
162 10
161 9
160 9
159 8
158 8
157 8
156 9
155 10
154 11
153 12
152 11
151 11
150 12
149 12
148 13
148 14
147 15
146 15
145 16
144 15
143 15
142 16
141 16
140 17
140 18
140 19
140 20
139 21
138 21
137 21
137 22
137 23
137 24
136 25
136 26
137 27
137 28
137 29
138 30
138 31
138 32
138 33
138 34
137 35
136 35
135 34
134 33
133 33
132 33
131 34
130 34
129 35
128 36
127 36
126 36
125 36
124 36
123 35
122 36
121 36
121 37
120 38
120 39
120 40
120 41
119 42
119 43
118 44
117 45
116 45
115 45
114 45
113 46
113 47
113 48
114 49
114 50
114 51
115 52
116 53
115 54
114 55
113 55
112 55
111 55
110 55
109 54
108 53
107 53
106 52
105 52
104 51
103 51
102 50
101 50
100 49
99 49
98 48
97 48
96 48
95 47
94 47
93 46
92 46
91 45
90 45
89 44
88 44
87 44
86 44
85 43
84 43
83 42
82 42
81 42
80 42
79 41
78 41
77 41
76 41
75 41
74 41
73 41
72 41
71 41
70 41
69 41
68 42
67 43
66 44
65 44
64 45
64 46
63 47
62 48
61 48
61 49
60 50
59 51
59 52
58 53
58 54
57 55
57 56
57 57
56 58
56 59
56 60
56 61
56 62
56 63
55 64
55 65
55 66
56 67
56 68
57 69
58 70
59 71
60 72
60 73
61 73
62 74
62 75
63 75
64 76
65 76
66 77
67 77
68 78
69 78
70 78
71 79
72 79
73 79
74 80
73 81
72 81
71 81
70 82
69 82
68 82
67 83
66 83
65 83
64 83
63 83
62 83
61 83
60 83
59 82
58 82
57 81
56 81
55 80
54 79
53 78
52 78
51 77
50 76
49 76
48 76
47 75
46 75
45 74
44 74
43 73
42 73
41 73
40 72
39 72
38 72
37 71
36 71
35 70
34 70
33 70
32 70
31 69
30 69
29 69
28 68
27 68
26 67
25 67
24 66
23 66
22 66
21 65
20 64
19 64
18 63
17 63
16 63
15 62
14 63
13 63
12 64
11 64
10 65
9 66
9 67
8 68
8 69
8 70
8 71
7 72
6 73
6 74
6 75
6 76
6 77
5 78
5 79
5 80
5 81
5 82
6 83
5 84
4 84
4 85
4 86
4 87
4 88
4 89
4 90
4 91
5 92
5 93
6 94
5 95
5 96
4 97
4 98
3 99
3 100
3 101
3 102
3 103
4 104
5 105
5 106
5 107
4 108
4 109
5 110
5 111
5 112
5 113
6 114
7 114
8 115
9 116
9 117
8 118
8 119
8 120
8 121
8 122
8 123
8 124
9 125
10 126
10 127
11 128
12 129
13 129
14 129
15 130
15 131
15 132
15 133
15 134
15 135
15 136
16 137
16 138
17 138
18 139
18 140
19 140
20 140
21 140
22 140
23 140
24 139
25 139
26 138
27 138
28 137
29 137
30 136
31 135
32 134
33 134
34 133
35 132
36 131
37 131
38 130
39 129
40 128
41 128
42 127
43 126
44 125
45 124
46 124
47 123
48 122
49 121
50 120
51 119
52 118
53 117
54 117
55 116
56 115
57 114
58 113
59 113
60 112
61 112
62 111
63 111
64 110
65 110
66 110
67 110
68 110
69 110
70 110
71 110
72 110
73 110
74 110
75 110
76 110
77 111
76 112
75 112
74 113
73 113
72 113
71 113
70 114
69 115
68 115
67 115
66 116
66 117
65 118
65 119
65 120
64 121
64 122
63 123
63 124
62 125
62 126
62 127
62 128
62 129
62 130
62 131
63 132
62 133
62 134
62 135
61 136
61 137
61 138
61 139
61 140
61 141
61 142
62 143
63 144
63 145
63 146
64 146
65 147
66 148
67 149
68 149
69 150
69 151
69 152
70 152
71 152
72 152
73 153
74 153
75 153
76 154
77 154
78 154
79 154
80 153
81 153
82 153
83 153
84 153
85 153
86 152
87 152
88 151
89 151
90 150
91 150
92 149
93 148
94 148
95 147
96 146
97 146
98 145
99 144
100 144
101 143
102 142
103 142
104 142
105 141
106 140
107 139
108 139
109 139
110 139
111 138
112 137
113 137
114 136
115 135
116 134
117 133
118 133
119 132
120 132
121 132
122 133
123 134
123 133
124 132
125 131
125 130
126 129
127 129
128 129
129 130
129 131
129 132
128 133
127 133
126 134
126 135
127 135
128 136
129 136
130 136
131 137
132 137
133 138
134 138
135 138
136 139
137 139
138 140
139 140
140 141
141 142
142 142
143 143
144 144
145 145
146 145
147 146
148 146
149 147
150 147
151 147
152 147
153 148
154 148
155 149
156 149
157 150
158 150
159 150
160 150
161 151
162 151
163 152
164 151
165 151
166 151
167 151
168 151
169 151
170 151
171 151
172 150
173 150
174 150
175 150
176 149
177 149
178 148
179 148
180 147
181 147
182 146
183 146
184 146
185 145
186 144
187 144
188 144
189 143
190 143
191 143
192 143
193 143
194 142
195 142
196 142
197 142
198 142
199 142
200 142
201 142
202 141
203 141
204 141
205 141
206 140
207 140
208 139
209 139
210 139
211 139
212 138
213 137
214 137
215 136
216 135
217 135
218 134
219 134
220 133
221 134
221 135
221 136
221 137
221 138
222 137
223 136
224 136
225 135
226 134
227 134
228 133
229 133
230 133
231 133
232 132
233 132
234 132
235 131
236 131
237 131
238 130
239 130
240 129
241 129
242 129
243 128
244 128
245 127
246 127
247 127
248 128
249 127
250 127
251 126
252 126
253 126
254 125
255 125
256 125
257 125
258 124
259 124
260 124
261 123
262 122
262 121
263 120
263 119
264 118
263 117
264 116
265 116
266 115
267 115
268 115
269 114
270 114
271 114
272 114
273 114
274 114
275 113
276 113
277 113
278 112
279 111
280 110
281 109
282 108
283 107
284 106
285 105
286 104
287 103
288 102
288 101
289 100
290 99
290 98
291 97
291 96
292 95
292 94
293 93
293 92
294 91
295 91
296 90
297 89
297 88
298 87
298 86
298 85
297 85
296 84
295 83
294 83
293 82
292 82
291 81
290 81
289 81
288 80
289 79
289 78
290 77
290 76
290 75
291 74
292 73
293 72
293 71
294 70
294 69
293 69
292 68
291 67
290 67
289 67
288 66
287 66
286 65
285 64
286 63
285 63
284 62
285 61
284 61
283 60
284 59
284 58
284 57
284 56
283 56
282 56
281 55
280 54
281 53
281 52
280 52
279 52
278 52
277 51
276 50
277 49
277 48
276 48
275 47
276 46
275 46
274 46
273 47
272 46
271 45
270 44
269 43
268 43
267 44
266 44
265 44
264 44
263 44
262 44
261 44
260 43
259 43
258 42
257 42
256 41
255 41
254 41
253 40
252 39
251 38
250 37
249 37
248 37
247 36
246 35
245 34
244 33
243 33
242 32
241 31
240 30
239 30
238 29
237 28
236 27
237 26
236 26
235 25
234 25
233 25
232 25
231 25
230 24
229 23
228 23
227 22
226 21
227 20
227 19
227 18
226 18
225 17
226 16
225 16
224 16
223 16
222 16
221 16
220 16
219 15
218 15
217 15
216 15
215 14
214 13
215 12
214 12
213 11
214 10
213 10
212 10
211 10
210 9
209 9
208 9
207 9
206 9
205 9
204 9
203 8
202 7
201 6
200 5
199 5
198 5
197 6
196 6
195 6
194 7
193 7
192 8
191 8
190 8
189 8
188 8
187 8
186 8
185 8
184 7
183 6
182 5
181 5
180 4
179 4
178 4
