146 2
145 3
144 3
143 4
142 4
141 3
140 3
139 3
138 4
137 4
136 3
135 3
134 4
133 3
132 3
131 4
130 3
129 3
128 3
127 4
126 4
125 4
124 4
123 4
122 5
121 4
120 4
119 4
118 5
117 6
116 5
115 5
114 5
113 5
112 6
111 5
110 5
109 6
108 6
107 6
106 7
105 7
104 8
103 8
102 8
101 7
100 8
99 9
98 9
97 9
96 8
95 8
94 9
93 9
92 8
91 8
90 9
89 9
88 10
87 10
86 9
85 9
84 10
83 11
82 11
81 11
80 11
79 12
78 13
77 13
76 14
75 13
74 13
73 14
72 14
71 14
70 14
69 15
68 15
67 15
66 16
65 17
64 17
63 16
62 17
61 18
60 19
59 18
58 18
57 19
57 20
56 21
55 21
55 22
54 23
53 24
53 25
52 26
51 25
50 25
49 26
48 27
47 26
46 27
46 28
45 29
45 30
44 31
43 30
43 29
43 28
44 27
43 27
42 27
41 27
41 28
40 29
40 30
39 31
39 32
39 33
38 34
38 35
38 36
38 37
37 38
37 39
37 40
37 41
36 42
35 41
35 40
35 39
35 38
35 37
35 36
35 35
36 34
36 33
35 33
34 34
33 34
32 34
32 35
32 36
32 37
31 38
30 39
29 39
28 40
27 40
26 40
25 41
24 41
23 41
23 42
23 43
23 44
23 45
24 46
23 47
23 48
24 49
24 50
24 51
24 52
23 53
22 52
21 51
22 50
21 50
20 49
21 48
21 47
21 46
21 45
21 44
20 44
19 43
18 43
17 44
17 45
17 46
16 47
15 47
15 48
16 49
16 50
16 51
17 52
16 53
15 53
14 52
13 53
13 54
13 55
12 56
11 55
11 54
10 54
10 55
10 56
9 57
9 58
9 59
9 60
10 61
11 61
12 61
13 62
14 62
15 63
15 64
14 65
13 65
12 66
11 66
10 67
9 67
8 68
7 68
6 69
5 70
5 71
4 72
4 73
4 74
3 75
2 76
2 77
2 78
2 79
2 80
2 81
2 82
3 83
3 84
3 85
4 86
4 87
4 88
4 89
5 90
5 91
5 92
6 93
6 94
6 95
7 96
8 97
8 98
9 99
9 100
10 101
10 102
11 103
11 104
12 105
12 106
12 107
12 108
13 109
13 110
14 111
15 112
15 113
16 113
17 114
18 114
19 115
20 115
21 116
22 116
23 117
24 118
25 119
25 120
24 121
23 122
23 123
22 124
21 125
21 126
20 127
20 128
19 129
19 130
18 131
18 132
18 133
18 134
17 135
17 136
17 137
17 138
17 139
17 140
17 141
17 142
17 143
17 144
17 145
18 144
18 143
19 142
19 141
20 140
21 141
21 142
21 143
21 144
21 145
22 146
22 147
22 148
23 149
23 150
24 150
25 151
25 150
26 149
27 148
28 149
29 150
29 151
30 152
31 153
32 154
33 154
33 153
33 152
33 151
33 150
34 149
35 150
36 150
36 149
37 148
38 147
39 147
40 147
41 148
41 149
42 150
42 151
42 152
42 153
43 154
43 155
43 156
43 157
44 158
44 159
45 158
46 159
46 160
46 161
46 162
47 163
47 164
48 164
49 165
49 166
49 167
50 168
50 169
51 170
52 171
52 172
52 173
52 174
53 174
54 175
54 176
55 177
55 178
56 178
57 179
58 180
58 181
59 182
60 183
61 183
62 183
63 184
63 185
64 186
65 186
66 186
67 187
67 188
68 189
68 190
69 190
70 191
71 192
72 192
73 193
73 194
74 195
75 196
76 195
77 196
77 197
78 198
79 199
80 199
81 200
81 201
82 201
83 202
84 202
85 203
85 204
86 205
87 205
88 204
89 205
89 206
90 207
91 208
92 208
93 209
93 210
94 210
95 211
96 212
97 213
98 213
99 212
100 213
101 214
102 215
103 215
104 215
105 216
106 217
107 217
108 217
109 218
109 219
110 219
111 220
112 219
113 220
113 221
114 222
115 222
116 223
117 223
118 223
119 224
120 224
121 224
122 225
123 224
124 224
125 225
126 225
127 225
128 226
129 226
130 225
131 226
132 226
133 225
134 226
135 226
136 225
137 226
138 226
139 226
140 225
141 226
142 226
143 226
143 225
144 224
145 225
146 225
147 224
148 225
149 225
150 225
151 225
152 225
153 224
154 224
155 225
155 224
156 223
157 223
158 224
159 223
159 222
160 221
161 222
162 223
162 222
163 221
164 222
165 222
166 221
167 221
168 221
169 221
170 220
171 221
171 220
172 219
173 219
174 219
175 219
176 218
177 219
178 218
179 217
180 218
181 217
182 216
183 216
184 215
185 214
186 214
187 213
188 212
189 213
189 212
190 211
191 210
192 210
193 209
194 209
195 208
196 208
197 207
198 207
199 206
200 206
201 206
202 205
202 204
203 203
204 203
205 202
206 202
206 201
207 200
208 200
209 200
209 199
210 198
211 198
212 198
212 197
213 196
214 197
215 196
216 195
217 194
218 194
218 193
219 192
220 192
221 191
222 191
223 190
224 189
225 188
226 188
227 187
228 186
229 185
230 184
230 183
231 182
232 182
232 181
233 180
234 180
234 179
235 178
235 177
236 176
236 175
236 174
237 173
237 172
237 171
238 170
239 171
240 171
241 171
242 172
243 172
244 173
245 174
246 175
246 176
247 177
248 178
249 179
250 180
251 181
252 182
253 183
253 184
254 185
255 186
256 187
256 188
257 189
258 190
259 191
260 192
260 193
261 194
262 195
263 196
264 197
265 198
266 199
267 199
268 200
269 201
270 202
271 202
272 203
273 204
274 204
275 204
276 204
277 205
278 205
279 206
280 206
281 206
282 206
283 205
284 205
285 205
286 204
287 203
288 203
289 202
290 202
291 201
292 200
293 200
294 199
295 198
296 198
297 197
298 196
299 195
300 194
301 193
302 192
303 191
304 190
304 189
305 188
306 187
306 186
307 185
308 184
308 183
309 182
309 181
310 180
310 179
310 178
311 177
311 176
312 175
312 174
312 173
313 172
313 171
314 170
314 169
314 168
315 167
315 166
315 165
315 164
315 163
316 162
316 161
316 160
316 159
316 158
316 157
316 156
316 155
316 154
316 153
316 152
316 151
316 150
316 149
315 149
314 148
315 147
315 146
315 145
315 144
314 144
313 143
314 142
314 141
313 141
312 140
311 139
312 138
311 138
310 137
311 136
310 136
309 136
308 135
307 134
306 133
305 133
304 132
303 132
302 132
301 132
300 132
299 131
298 131
297 131
296 131
295 131
294 131
293 131
292 131
291 131
290 131
289 131
288 132
287 132
286 132
285 132
284 132
283 132
282 132
281 133
280 133
279 133
278 133
277 134
276 134
275 134
274 134
273 135
272 135
271 135
270 136
269 136
268 136
267 136
266 137
265 137
264 137
263 138
262 138
261 138
260 138
259 139
258 139
257 138
256 138
255 138
254 137
253 136
252 135
251 135
250 134
249 133
250 132
251 131
252 130
253 129
254 129
255 128
256 127
257 126
257 125
258 124
258 123
258 122
257 122
256 121
257 120
257 119
256 119
255 118
256 117
255 117
254 117
253 116
254 115
254 114
253 114
252 113
253 112
253 111
252 111
251 110
251 109
252 108
251 108
250 107
249 106
250 105
250 104
249 104
248 104
247 103
248 102
248 101
248 100
248 99
247 99
246 99
245 98
246 97
246 96
246 95
246 94
245 93
244 92
245 91
245 90
244 90
243 89
244 88
244 87
243 87
242 87
241 86
242 85
242 84
242 83
241 83
240 83
239 82
240 81
240 80
239 80
238 79
239 78
239 77
239 76
238 76
237 75
237 74
237 73
236 73
235 73
234 72
235 71
234 71
233 70
234 69
233 69
232 68
232 67
231 67
230 66
231 65
231 64
230 64
229 63
228 62
227 61
226 60
227 59
227 58
226 58
225 58
224 57
225 56
225 55
225 54
225 53
224 53
223 53
222 52
223 51
222 51
221 51
220 50
221 49
220 49
219 48
220 47
219 47
218 47
217 47
216 46
217 45
217 44
216 44
215 43
214 42
213 42
212 41
211 40
212 39
212 38
212 37
211 37
210 38
209 38
208 37
209 36
209 35
209 34
208 34
207 34
206 33
207 32
207 31
206 31
205 31
204 31
203 30
204 29
204 28
204 27
203 27
202 28
201 28
200 27
201 26
201 25
201 24
200 24
199 24
198 23
198 22
198 21
198 20
197 20
196 20
195 19
194 19
193 19
192 19
191 18
191 17
191 16
190 16
189 16
188 16
187 15
186 15
185 15
184 14
185 13
184 13
183 13
182 13
181 13
180 13
179 12
180 11
179 11
178 11
177 11
176 11
175 10
176 9
175 9
174 9
173 9
172 8
171 8
170 8
169 8
168 7
167 7
166 7
165 7
164 6
165 5
164 5
163 5
162 5
161 6
160 6
159 5
160 4
160 3
161 2
160 2
159 2
158 2
157 3
156 3
155 3
154 2
153 2
152 2
151 2
150 3
149 3
148 4
147 3
147 2
