132 5
131 6
130 6
129 6
128 7
127 7
126 7
125 7
124 8
123 8
122 9
121 9
120 9
119 9
118 10
117 10
116 10
115 10
114 11
113 11
112 11
111 12
110 12
109 12
108 12
107 13
106 13
105 14
104 14
103 14
102 15
101 15
100 15
99 15
98 16
97 17
96 17
95 17
94 17
93 18
92 19
91 19
90 19
89 20
88 21
87 22
86 22
85 22
84 23
83 24
82 24
81 24
80 25
79 26
79 27
78 28
77 29
76 28
75 29
74 29
73 30
72 31
71 32
70 32
69 33
68 34
67 34
66 35
65 36
64 37
63 37
62 38
61 38
60 39
59 40
58 41
57 41
56 42
55 42
54 43
53 44
52 45
51 46
50 46
50 47
49 48
48 49
47 49
46 50
45 51
44 52
43 52
43 53
42 54
41 54
40 55
39 56
38 57
37 58
36 59
35 60
34 60
33 61
33 62
32 63
31 64
30 65
30 66
29 67
29 68
29 69
28 70
27 70
26 71
26 72
26 73
26 74
26 75
26 76
25 77
25 78
24 79
23 80
22 80
21 80
20 81
19 81
18 81
17 82
16 83
15 83
15 84
14 85
13 86
12 86
11 87
10 88
9 89
9 90
9 91
10 92
10 93
11 94
12 95
13 96
13 97
14 97
15 98
16 99
17 100
18 101
19 102
18 103
17 103
16 103
15 102
14 102
13 102
12 101
11 100
10 99
9 99
8 99
7 98
6 98
5 98
4 98
4 99
4 100
3 101
3 102
3 103
2 104
2 105
2 106
2 107
2 108
3 109
4 110
5 111
6 112
7 113
8 114
8 115
9 116
9 117
10 118
11 119
12 120
13 121
14 122
15 123
16 124
17 125
18 125
19 126
20 127
20 128
21 129
21 130
22 131
22 132
23 133
24 134
24 135
25 136
26 137
26 138
27 139
28 140
29 140
30 140
31 140
32 141
33 141
34 142
34 143
35 144
35 145
35 146
35 147
36 148
36 149
36 150
36 151
37 152
37 153
37 154
37 155
38 156
38 157
38 158
39 159
39 160
39 161
39 162
39 163
40 164
40 165
40 166
41 166
42 165
43 166
43 167
43 168
43 169
43 170
44 171
44 172
45 172
46 172
47 172
48 173
49 174
49 175
49 176
50 177
50 178
51 179
51 178
52 177
53 178
53 179
54 179
55 178
56 178
57 178
58 179
58 180
59 179
59 178
60 177
60 176
60 175
60 174
60 173
60 172
60 171
60 170
61 169
62 169
63 170
63 171
63 172
64 173
64 174
64 175
65 176
65 177
66 178
66 179
66 180
67 181
68 182
68 183
69 184
70 185
71 185
72 186
73 187
73 188
74 188
75 188
76 189
77 189
78 189
79 190
80 191
81 192
82 192
83 192
84 193
84 194
85 195
86 196
87 196
88 197
89 197
90 198
91 198
92 199
93 200
94 201
95 201
96 200
97 201
98 202
99 203
100 203
101 202
102 203
103 204
104 204
105 205
106 206
107 207
108 208
109 207
110 208
111 209
112 209
113 209
114 210
115 211
116 212
117 212
118 212
119 212
120 213
120 214
121 215
122 215
123 215
124 215
125 215
126 216
127 217
128 217
129 217
130 217
131 218
132 219
133 219
134 219
135 219
136 220
137 221
138 222
139 223
139 222
140 221
141 222
142 223
143 224
144 225
145 224
146 224
147 225
148 226
149 226
150 225
151 226
152 227
153 227
154 227
155 227
156 227
157 227
158 227
159 227
160 227
161 227
162 227
162 226
163 225
164 225
165 225
166 225
167 224
168 224
169 224
170 223
171 222
172 222
173 222
174 222
174 221
175 220
176 220
177 220
177 219
178 218
179 217
180 217
181 217
181 216
182 215
183 214
184 213
185 213
186 212
187 211
188 211
189 210
189 209
190 208
191 208
192 207
192 206
193 205
194 205
195 205
195 204
196 203
197 202
198 201
198 200
199 199
200 198
201 197
201 196
202 195
203 194
204 194
204 193
205 192
206 192
207 191
207 190
208 189
209 188
210 188
211 187
211 186
212 185
213 185
214 184
214 183
215 182
216 182
216 181
217 180
218 179
219 178
220 177
221 176
222 175
222 174
223 173
224 173
224 172
225 171
226 170
226 169
227 168
228 168
228 167
229 166
230 166
230 165
231 164
232 163
232 162
233 161
233 160
234 159
235 159
235 158
236 157
237 156
238 155
239 154
240 153
241 152
241 151
242 150
243 149
244 149
244 148
245 147
245 146
245 145
245 144
246 143
247 142
248 142
249 142
250 142
251 143
252 142
253 143
254 142
255 143
256 143
257 143
258 144
259 145
260 145
261 146
262 147
263 148
264 149
265 150
266 151
267 152
268 153
269 154
270 154
271 155
272 156
273 157
274 158
275 159
276 159
277 160
277 161
278 162
279 162
280 163
281 164
282 164
283 165
284 166
285 166
286 167
287 168
288 168
289 169
290 170
291 170
292 170
293 170
294 171
295 170
296 171
297 171
298 170
299 170
300 170
301 169
302 169
303 168
304 167
305 167
306 166
307 166
308 165
309 164
310 164
311 163
312 162
313 161
314 160
314 159
315 158
316 157
317 156
318 155
319 154
320 153
320 152
321 151
321 150
322 149
322 148
323 147
323 146
324 145
324 144
325 143
325 142
325 141
326 140
327 139
327 138
327 137
327 136
328 135
328 134
328 133
329 132
329 131
329 130
329 129
329 128
329 127
329 126
329 125
329 124
329 123
329 122
329 121
329 120
329 119
328 118
328 117
329 116
329 115
328 115
327 114
328 113
328 112
327 112
326 111
327 110
327 109
326 108
326 107
325 106
324 105
325 104
324 104
323 103
322 102
323 101
322 101
321 100
322 99
321 99
320 98
319 97
318 96
317 95
318 94
317 94
316 93
315 92
314 91
313 91
312 91
311 90
310 90
309 90
308 89
307 89
306 89
305 89
304 89
303 89
302 89
301 89
300 89
299 89
298 89
297 89
296 89
295 90
294 90
293 90
292 90
291 91
290 91
289 91
288 91
287 92
286 92
285 92
284 93
283 93
282 93
281 94
280 95
279 95
278 96
277 96
276 97
275 97
274 98
273 98
272 98
271 99
270 99
269 100
268 100
267 101
266 102
265 102
264 102
263 103
262 103
261 104
260 104
259 104
258 104
257 104
256 105
255 104
254 104
253 104
252 104
251 104
250 103
251 102
251 101
250 101
249 100
250 99
249 99
248 98
247 97
248 96
248 95
248 94
248 93
247 93
246 93
245 92
246 91
245 91
244 90
245 89
245 88
244 88
243 87
242 86
243 85
243 84
242 84
241 83
242 82
242 81
242 80
241 80
240 80
239 79
240 78
240 77
240 76
239 76
238 75
239 74
239 73
238 73
237 72
236 71
237 70
237 69
237 68
236 68
235 67
236 66
236 65
236 64
235 64
234 64
233 63
234 62
234 61
233 61
232 60
231 59
232 58
232 57
231 57
230 57
229 56
228 55
229 54
229 53
228 53
227 53
226 52
227 51
227 50
227 49
226 49
225 49
224 49
223 48
224 47
223 47
222 46
221 46
220 45
221 44
221 43
221 42
220 42
219 42
218 42
217 41
218 40
218 39
217 39
216 38
215 37
216 36
216 35
215 35
214 35
213 34
213 33
213 32
212 32
211 31
212 30
211 30
210 29
209 28
210 27
209 27
208 26
207 25
206 24
207 23
206 23
205 23
204 22
205 21
204 21
203 20
202 19
203 18
203 17
202 17
201 17
200 16
199 16
198 15
199 14
198 14
197 14
196 13
195 13
194 12
193 11
192 11
191 10
190 9
189 9
188 8
187 8
186 8
185 8
184 7
183 6
182 6
181 6
180 6
179 6
178 6
177 5
176 6
175 5
174 6
173 6
172 5
171 5
170 5
169 6
168 6
167 5
166 5
165 5
164 5
163 5
162 6
161 5
160 5
159 5
158 5
157 5
156 5
155 5
154 5
153 5
152 5
151 5
150 5
149 5
148 5
147 5
146 5
145 5
144 5
143 5
142 5
141 5
140 5
139 5
138 5
137 5
136 5
135 6
134 6
133 6
