174 2
174 3
174 4
174 5
174 6
175 7
175 8
175 9
175 10
176 11
176 12
177 13
176 14
176 15
177 16
176 17
176 18
176 19
176 20
176 21
175 22
174 23
173 24
172 25
171 25
171 26
171 27
170 28
170 29
170 30
169 31
168 32
167 31
166 31
165 30
164 29
163 29
162 28
161 27
160 26
159 25
158 25
157 24
156 24
155 23
154 23
153 22
152 21
151 21
150 20
149 20
148 19
147 19
146 18
145 18
144 17
143 17
142 16
141 16
140 15
139 15
138 15
137 14
136 14
135 13
134 13
133 12
132 12
131 12
130 11
129 11
128 11
127 10
126 10
125 9
124 9
124 10
124 11
124 12
124 13
123 14
122 14
122 15
121 16
121 17
120 18
119 19
119 20
118 21
117 22
117 23
116 24
115 25
115 26
114 27
113 28
112 29
111 30
110 31
109 32
108 33
107 34
107 35
106 36
105 36
105 37
104 38
103 39
102 39
101 38
100 38
99 37
98 37
97 36
96 36
95 35
94 34
93 34
92 33
91 33
90 32
89 32
88 32
87 31
86 31
85 30
84 30
83 29
82 29
81 29
80 28
79 28
78 28
77 28
76 28
76 29
75 30
75 31
74 32
73 32
72 33
72 34
71 35
70 35
70 36
69 37
68 38
67 39
67 40
66 41
65 42
64 42
64 43
63 44
62 43
61 44
60 45
60 46
60 47
59 48
58 49
57 50
56 50
55 50
54 50
53 50
52 49
51 49
50 49
49 48
48 48
47 47
46 47
45 46
44 46
43 45
42 45
41 44
40 44
39 44
38 43
37 43
36 42
35 42
34 41
33 41
32 40
31 40
30 40
29 39
28 39
27 38
26 38
25 37
24 37
23 37
22 37
21 36
20 36
19 36
18 36
17 35
16 35
15 35
14 34
13 34
12 34
11 34
10 34
9 34
8 34
7 34
7 35
7 36
7 37
7 38
7 39
8 40
8 41
8 42
8 43
9 44
9 45
9 46
10 47
10 48
11 49
11 50
11 51
12 52
12 53
12 54
13 55
13 56
13 57
14 58
14 59
14 60
14 61
15 62
15 63
15 64
14 65
14 66
13 67
12 68
12 69
11 70
10 71
10 72
9 73
9 74
8 75
8 76
7 77
7 78
7 79
6 80
6 81
6 82
5 83
5 84
5 85
6 85
7 85
8 85
9 84
10 84
11 84
12 84
13 84
14 83
15 83
16 83
17 83
18 82
19 82
20 82
21 82
22 81
23 81
24 81
25 80
26 80
27 80
28 79
29 79
30 79
31 78
32 78
33 77
34 77
35 76
36 76
37 75
38 75
39 74
40 73
41 73
42 72
43 72
44 71
45 71
46 70
47 69
48 69
49 68
50 68
51 67
52 67
53 67
54 67
55 67
56 67
57 67
58 67
59 68
58 69
57 69
56 69
55 69
55 70
55 71
55 72
56 72
57 73
58 73
59 74
60 74
61 73
62 74
62 75
63 75
64 76
65 77
66 78
67 78
68 79
69 79
70 80
70 81
71 82
72 82
73 83
74 84
74 85
75 86
76 86
77 87
78 88
79 88
80 89
81 89
82 90
83 90
84 90
85 90
86 90
87 90
88 90
89 90
90 89
91 89
92 89
93 88
94 88
95 88
96 87
97 87
98 87
98 86
99 85
100 85
101 84
102 84
103 83
104 82
105 82
106 81
107 81
108 80
109 81
110 82
110 83
111 84
111 85
112 86
113 87
113 88
114 89
115 90
116 91
117 92
117 93
118 94
118 95
119 95
120 96
121 97
122 98
123 99
124 99
125 100
126 101
127 102
128 103
129 102
130 103
131 104
132 105
133 105
134 105
135 105
136 106
137 106
138 106
139 106
140 106
141 106
142 106
143 105
144 105
145 104
146 103
147 103
148 103
149 102
150 102
151 101
152 100
153 100
154 99
155 98
156 98
157 97
158 96
159 96
160 95
161 94
161 93
162 92
163 93
164 94
165 94
166 94
167 94
168 93
169 93
170 93
171 94
172 94
173 94
174 94
175 94
176 94
177 95
178 95
179 95
180 95
181 95
182 95
183 95
184 96
185 96
186 96
187 96
188 96
189 96
190 96
191 96
192 96
193 96
194 96
195 96
196 96
197 96
198 96
199 96
200 96
201 96
202 97
201 98
200 98
199 99
199 100
199 101
199 102
199 103
199 104
198 105
198 106
198 107
198 108
198 109
198 110
198 111
197 112
197 113
196 114
196 115
195 116
195 117
194 118
193 119
193 120
192 121
191 122
191 123
191 124
192 124
193 123
194 122
195 122
196 122
196 121
197 120
198 119
199 119
200 118
201 117
202 116
203 115
204 114
205 113
206 112
207 111
208 110
209 109
210 108
210 107
211 106
212 105
213 104
214 103
215 102
216 103
217 103
218 104
219 105
220 106
220 107
221 108
221 109
221 110
222 111
222 112
222 113
223 112
223 111
224 110
224 109
224 108
224 107
224 106
223 106
222 106
221 105
222 104
221 104
220 103
219 102
218 101
217 101
216 100
217 99
218 98
219 97
220 96
221 96
222 96
223 96
224 97
224 98
225 99
224 100
224 101
224 102
225 101
225 100
226 99
226 98
226 97
226 96
227 95
228 95
229 95
230 95
231 95
232 95
233 94
234 94
235 94
236 94
237 94
238 94
239 94
240 93
241 93
242 92
243 92
244 92
245 91
246 92
247 91
248 91
249 91
250 90
251 90
252 90
253 89
254 89
255 88
256 88
257 88
258 88
259 87
260 87
261 87
262 86
263 86
264 86
265 85
266 85
267 85
268 84
269 84
270 84
271 84
272 83
273 83
274 83
275 82
276 82
277 82
278 81
279 81
280 82
281 83
282 84
283 85
283 84
284 83
284 82
283 81
284 80
285 79
285 78
286 77
285 77
284 76
283 75
282 74
281 74
280 73
281 72
282 72
283 72
284 72
285 71
286 71
287 71
288 71
288 70
289 69
290 68
291 67
291 66
292 65
292 64
291 63
292 62
291 62
290 61
289 60
290 59
289 59
288 58
287 58
286 57
285 57
284 57
283 56
282 56
281 56
280 55
279 55
278 54
277 53
276 53
275 52
274 52
273 51
272 51
271 50
270 50
269 49
268 49
267 49
266 49
265 48
264 48
263 47
262 47
261 47
260 46
259 46
258 45
257 45
256 45
255 45
254 44
253 44
252 44
251 43
250 43
249 43
248 42
247 42
246 42
245 42
244 41
243 41
242 41
241 40
240 40
239 40
238 40
237 39
236 39
235 39
234 38
233 38
232 38
231 38
230 37
229 37
228 37
227 37
226 37
225 36
224 36
223 36
222 36
221 36
220 35
219 35
218 34
217 33
216 32
215 31
214 30
213 29
212 28
211 27
210 26
211 25
210 25
209 25
208 24
207 23
206 22
205 21
204 20
203 20
202 19
201 18
200 17
199 17
198 16
197 15
196 14
195 14
194 13
193 13
192 12
191 11
190 11
189 10
188 9
187 9
186 8
185 7
184 7
183 6
182 5
181 5
180 4
179 4
178 3
177 2
176 2
175 2
