270 2
270 3
270 4
271 4
272 4
273 4
274 5
275 5
276 5
277 5
278 5
279 5
280 5
281 6
282 6
283 6
284 7
285 7
286 8
286 9
285 10
284 10
283 11
282 12
281 12
280 12
279 13
278 13
277 13
276 13
275 13
274 14
273 14
272 14
271 14
270 14
269 14
268 15
267 15
266 15
265 15
264 15
263 15
262 15
261 15
260 16
259 16
258 16
257 16
256 16
255 16
254 17
253 17
252 17
251 17
250 17
249 17
248 17
247 18
246 18
245 18
244 18
243 18
242 19
241 19
240 19
239 19
238 19
237 19
236 19
235 19
234 19
233 20
232 20
231 20
230 20
229 20
228 20
227 20
226 21
225 21
224 21
223 22
222 22
221 22
220 22
219 22
218 23
217 23
216 23
215 23
214 23
213 23
212 23
211 23
210 24
209 24
208 24
207 24
206 24
205 24
204 24
203 25
202 25
201 25
200 25
199 25
198 25
197 25
196 25
195 25
194 26
193 26
192 26
191 26
190 26
189 26
188 26
187 26
186 27
185 27
184 26
184 25
183 25
182 25
181 25
180 25
179 25
178 24
179 23
180 23
181 23
182 23
183 23
184 22
185 22
186 21
186 20
185 20
184 20
183 20
182 20
181 20
180 20
179 20
178 21
177 21
176 21
175 21
174 20
175 19
176 18
177 18
178 18
179 17
180 17
181 17
182 16
182 15
181 15
180 15
179 16
178 16
177 16
176 17
175 17
174 17
173 17
172 18
171 18
170 18
169 19
168 19
167 19
166 20
165 20
164 21
163 21
162 22
161 23
160 23
159 23
158 23
157 24
156 24
155 24
154 24
153 25
152 25
151 25
150 26
149 26
148 26
147 27
146 27
145 27
144 27
143 28
142 28
141 28
140 28
139 29
138 29
137 29
136 29
135 29
134 29
133 30
132 30
131 30
130 30
129 30
128 30
127 30
126 30
125 31
124 30
123 31
122 31
121 31
120 31
119 31
118 32
117 32
116 33
115 34
114 34
113 35
112 35
111 35
110 35
109 35
108 36
107 36
106 36
105 37
104 37
103 38
102 38
101 39
100 39
99 40
98 40
97 40
96 40
95 40
94 40
93 40
92 39
91 38
90 38
89 38
88 38
88 39
87 40
87 41
86 42
85 43
84 44
83 44
82 44
81 44
80 43
79 43
78 43
77 44
76 45
76 46
75 47
74 48
73 48
72 48
71 49
70 49
69 49
68 50
67 50
66 50
65 50
64 50
63 50
62 51
61 51
60 51
59 50
58 50
57 50
56 50
55 51
54 51
53 51
52 51
51 51
50 52
49 52
48 52
47 51
46 52
45 52
44 52
43 52
42 52
41 52
40 52
39 53
38 53
37 53
36 53
35 53
34 54
33 54
32 54
31 55
30 56
29 56
28 56
27 56
26 57
25 57
24 57
23 57
22 57
21 58
20 58
19 59
18 59
17 60
16 60
15 61
14 62
13 63
12 64
11 65
11 66
10 67
9 68
8 69
7 70
7 71
6 72
5 73
5 74
4 75
4 76
4 77
4 78
3 79
3 80
3 81
3 82
3 83
3 84
2 85
2 86
2 87
2 88
3 89
3 90
3 91
3 92
3 93
4 94
4 95
5 95
6 95
7 95
8 96
8 97
9 97
10 97
11 97
12 97
13 97
14 97
15 97
16 97
17 97
17 96
18 95
19 94
20 93
20 92
21 91
21 90
22 89
22 88
21 88
20 87
21 86
21 85
20 85
19 84
18 83
19 82
19 81
20 80
21 79
22 79
23 80
24 80
25 81
25 82
26 82
27 81
28 81
29 80
30 79
31 79
31 78
32 77
33 78
33 79
33 80
34 80
35 80
36 79
37 79
38 78
39 78
40 77
41 76
42 75
43 75
44 76
44 77
44 78
45 78
46 78
47 78
48 78
49 78
50 77
51 77
52 76
53 75
54 75
55 74
56 75
57 75
58 75
59 75
60 76
61 75
62 75
63 74
64 74
65 73
66 72
67 72
68 71
69 71
70 71
71 71
72 72
71 73
71 74
71 75
72 76
72 77
73 78
74 79
75 80
75 81
76 82
76 83
77 84
78 85
79 86
79 87
80 88
80 89
80 90
80 91
80 92
79 93
78 94
77 95
76 95
75 96
74 97
73 98
72 99
71 100
70 100
69 101
68 102
67 102
66 103
65 104
64 105
63 106
62 105
61 105
61 106
61 107
61 108
61 109
61 110
62 110
63 110
64 110
65 109
66 108
67 109
68 108
68 107
69 106
70 106
71 105
72 104
73 103
74 102
75 101
76 100
77 99
78 99
79 98
80 97
81 97
82 96
83 95
83 94
84 93
84 92
85 91
85 90
85 89
85 88
85 87
85 86
84 86
83 85
84 84
84 83
84 82
85 81
86 81
87 81
88 80
89 80
90 79
91 79
92 78
93 78
94 77
95 77
96 76
97 77
97 78
96 79
96 80
96 81
97 82
97 83
97 84
97 85
97 86
97 87
97 88
97 89
97 90
97 91
97 92
97 93
96 94
96 95
96 96
95 97
94 98
94 99
94 100
93 101
92 102
92 103
92 104
92 105
93 105
94 104
95 104
95 103
96 102
97 102
98 103
99 102
99 101
100 100
100 99
100 98
100 97
100 96
100 95
100 94
100 93
100 92
100 91
100 90
100 89
101 88
101 87
101 86
101 85
101 84
101 83
101 82
102 81
103 80
103 79
104 78
104 77
105 76
106 76
107 76
108 75
109 75
110 75
111 75
112 76
111 77
111 78
111 79
111 80
111 81
110 82
110 83
110 84
109 85
109 86
110 87
110 88
110 89
110 90
110 91
111 92
111 93
111 94
111 95
112 96
112 97
112 98
113 99
113 100
113 101
113 102
113 103
113 104
113 105
113 106
114 107
114 108
114 109
114 110
115 110
116 109
117 110
117 111
118 110
119 109
120 108
120 107
121 106
121 105
121 104
121 103
120 103
119 102
120 101
119 101
118 100
119 99
119 98
118 98
117 97
118 96
117 96
116 95
117 94
117 93
116 93
115 92
116 91
116 90
116 89
115 88
115 87
116 86
116 85
116 84
116 83
116 82
116 81
116 80
117 79
117 78
117 77
117 76
117 75
117 74
117 73
116 72
116 71
117 70
118 70
119 70
120 70
121 70
122 71
123 71
124 71
125 71
126 71
127 72
128 72
129 73
130 73
131 73
132 74
133 74
134 75
135 75
136 76
137 76
138 76
139 76
140 76
141 77
142 77
143 77
144 78
145 78
146 79
147 79
148 79
149 79
150 79
151 80
152 80
153 80
154 80
155 81
156 81
157 82
158 82
159 82
160 83
161 83
162 84
163 84
164 85
165 86
166 86
167 86
168 86
169 87
170 87
171 87
172 87
173 86
173 85
174 84
174 83
173 83
172 82
171 81
170 81
169 80
168 80
167 80
166 79
165 79
164 79
163 78
162 78
161 78
160 77
159 77
158 76
157 76
156 76
155 75
154 75
153 75
152 74
153 73
154 73
155 73
156 73
156 72
157 71
158 71
159 71
160 72
161 72
162 72
163 72
164 72
165 72
166 73
167 73
168 73
169 73
170 73
171 73
172 73
173 73
174 73
175 73
176 73
177 73
178 73
179 72
180 72
181 72
182 72
183 72
184 72
185 72
186 72
187 72
188 72
189 72
190 72
191 72
192 72
193 73
194 72
195 72
196 72
197 72
198 73
199 73
200 72
201 72
202 72
203 72
204 72
205 72
206 71
207 70
208 69
208 68
209 67
209 66
209 65
209 64
209 63
209 62
209 61
208 61
207 60
206 59
205 59
204 59
203 59
202 59
201 59
200 59
199 59
198 59
197 59
196 59
195 59
194 59
193 59
192 58
191 58
190 58
189 58
188 58
187 58
186 59
185 59
184 58
183 58
182 59
181 58
180 58
179 59
178 58
177 58
176 58
175 58
174 58
173 58
172 58
171 58
170 58
169 58
168 58
167 58
166 58
165 58
164 57
163 58
162 58
161 58
160 59
159 59
158 60
157 59
156 58
157 57
156 57
155 56
154 56
153 57
152 56
151 55
150 56
149 56
148 57
147 58
146 58
145 58
144 58
143 58
142 57
142 56
143 55
143 54
143 53
143 52
142 52
141 51
142 50
143 49
144 49
145 49
146 49
147 49
148 49
149 48
150 48
151 48
152 48
153 48
154 48
155 49
156 49
157 49
158 50
159 50
160 49
161 49
162 50
163 50
164 49
165 49
166 50
167 49
168 49
169 49
170 50
171 50
172 49
173 49
174 49
175 49
176 49
177 48
178 48
179 47
180 47
181 47
182 48
183 48
184 47
185 47
186 47
187 47
188 47
189 47
190 47
191 47
192 47
193 47
194 47
195 47
196 47
197 46
198 46
199 46
200 46
201 46
202 45
203 45
204 45
205 44
206 43
207 42
207 41
208 40
208 39
207 39
206 38
205 37
204 36
203 35
202 35
201 35
200 35
199 34
198 34
197 34
196 34
195 34
194 34
193 34
192 34
191 34
190 34
189 34
188 34
187 34
186 34
185 35
184 35
183 35
182 35
181 35
180 35
179 35
178 35
177 35
176 35
175 35
174 35
173 35
172 35
171 35
170 35
169 35
168 35
167 35
166 35
165 35
164 35
163 36
162 36
161 36
160 36
159 36
158 36
157 35
158 34
159 34
160 33
161 33
162 33
163 33
164 33
165 33
166 33
167 32
168 32
169 32
170 32
171 32
172 32
173 32
174 32
175 32
176 33
177 33
178 33
179 32
180 32
181 31
182 31
183 31
184 31
185 31
186 31
187 31
188 31
189 30
190 30
191 30
192 30
193 30
194 30
195 30
196 30
197 30
198 30
199 30
200 30
201 30
202 29
203 29
204 29
205 29
206 29
207 29
208 29
209 28
210 28
211 28
212 28
213 28
214 28
215 28
216 28
217 28
218 28
219 28
220 28
221 27
222 27
223 27
224 27
225 27
226 27
227 27
228 27
229 27
230 27
231 27
232 27
233 27
234 27
235 27
236 27
237 27
238 27
239 27
240 28
241 28
242 28
243 28
244 28
245 28
246 28
247 28
248 28
249 28
250 29
251 29
252 29
253 29
254 29
255 29
256 29
257 29
258 30
259 30
260 30
261 30
262 30
263 30
264 30
265 31
266 31
267 31
268 32
269 32
270 32
271 33
272 34
273 34
274 35
275 36
276 36
277 37
278 38
279 39
280 40
281 41
282 42
282 43
283 44
284 45
284 46
285 47
286 48
286 49
287 50
286 51
285 52
284 53
283 54
282 55
281 56
280 56
279 57
278 57
277 57
276 57
275 57
274 58
274 59
275 59
276 59
277 59
278 59
279 59
280 59
281 58
282 58
283 58
284 57
285 56
286 55
287 54
287 53
288 52
288 51
289 50
289 49
289 48
288 48
287 47
288 46
287 46
286 45
287 44
286 44
285 43
286 42
285 42
284 41
283 40
282 39
281 38
280 37
279 36
280 35
279 35
278 34
277 33
276 32
275 32
274 31
273 31
272 30
271 29
270 29
269 29
268 28
267 28
266 27
265 27
264 27
263 27
262 27
261 26
260 26
259 26
258 26
257 26
256 26
255 25
254 25
253 25
252 25
251 25
250 25
249 25
248 25
247 25
246 25
245 25
244 25
243 24
244 23
245 23
246 22
247 22
248 22
249 22
250 21
251 20
252 20
253 20
254 20
255 20
256 20
257 20
258 19
259 19
260 19
261 19
262 19
263 19
264 18
265 18
266 18
267 18
268 18
269 17
270 17
271 17
272 17
273 17
274 17
275 16
276 16
277 16
278 16
279 15
280 15
281 15
282 14
283 14
284 13
285 12
286 12
287 11
287 10
288 9
288 8
288 7
288 6
287 6
286 5
285 5
284 4
283 4
282 4
281 3
280 3
279 3
278 3
277 3
276 3
275 3
274 2
273 2
272 2
271 2
