123 2
122 3
121 4
120 3
119 3
118 3
117 4
116 5
115 4
114 3
113 4
112 5
111 5
110 4
109 4
108 4
108 5
107 6
106 6
105 5
104 4
103 5
102 6
101 5
100 5
99 6
98 5
97 5
96 5
95 6
94 7
93 7
92 6
91 6
90 7
89 8
88 7
87 7
86 8
85 8
84 9
83 10
82 10
81 9
80 9
79 9
78 10
77 11
76 10
75 10
74 11
73 12
72 11
71 12
70 13
69 13
68 13
67 13
66 14
65 15
64 15
63 15
62 16
61 17
60 16
59 16
58 17
58 18
57 19
56 19
55 19
54 19
53 20
52 21
51 22
50 21
49 21
49 22
48 23
48 24
47 25
46 26
45 26
44 25
43 26
42 27
42 28
42 29
41 30
40 30
39 29
38 30
38 31
37 32
37 33
36 34
35 34
34 33
33 33
33 34
33 35
33 36
32 37
31 36
31 35
30 35
30 36
30 37
30 38
30 39
29 40
28 39
27 38
26 38
26 39
26 40
26 41
26 42
26 43
25 44
24 45
23 44
23 43
22 43
22 44
22 45
22 46
22 47
21 48
20 49
19 48
19 47
18 47
18 48
18 49
18 50
17 51
16 50
15 50
15 51
15 52
15 53
14 54
13 53
12 54
12 55
12 56
11 57
10 57
9 57
9 58
9 59
9 60
10 61
10 62
10 63
10 64
11 65
10 66
9 66
8 66
7 66
6 67
6 68
5 69
5 70
4 71
4 72
4 73
3 74
3 75
3 76
3 77
3 78
2 79
2 80
2 81
3 82
4 83
4 84
4 85
5 86
5 87
6 88
6 89
7 90
7 91
8 92
9 93
9 94
9 95
10 96
11 97
12 98
12 99
13 100
14 101
15 102
16 103
17 104
18 105
19 106
19 107
20 107
21 108
22 109
23 109
24 109
25 109
26 109
27 110
28 110
29 110
30 110
31 111
32 111
33 111
34 111
35 112
36 112
37 112
38 112
39 113
40 114
40 115
40 116
39 117
39 118
39 119
40 120
40 121
40 122
41 121
42 121
43 122
43 123
44 123
45 123
46 124
46 125
46 126
47 126
48 126
49 126
50 127
50 128
50 129
51 130
51 129
52 128
53 127
54 128
55 129
55 130
56 130
56 129
57 128
57 127
57 126
57 125
57 124
57 123
57 122
57 121
56 121
55 120
56 119
56 118
56 117
57 116
58 116
59 116
60 116
61 116
62 117
63 118
63 119
63 120
63 121
62 122
62 123
62 124
62 125
63 126
64 126
65 127
65 128
65 129
65 130
65 131
66 131
67 132
68 133
69 132
70 133
70 134
70 135
71 134
72 134
73 135
73 136
74 136
75 135
76 136
77 137
78 136
79 137
80 138
81 138
82 138
83 139
84 139
85 138
86 139
87 139
88 139
89 140
89 141
90 140
91 140
92 141
92 142
93 142
94 141
95 141
96 142
97 143
98 143
98 142
99 141
100 142
100 143
101 143
102 143
103 142
104 143
104 144
104 145
105 145
105 144
106 143
107 143
108 144
108 145
109 145
110 145
111 144
112 145
113 146
114 146
115 145
116 145
117 146
118 147
119 146
119 145
120 144
121 145
122 146
122 147
123 146
124 145
125 146
126 147
127 147
127 146
128 145
129 145
130 145
131 146
132 147
133 147
134 147
135 146
136 146
137 147
138 147
139 148
139 147
140 146
141 146
142 146
143 147
143 146
144 145
145 144
146 144
147 145
148 146
149 146
150 145
151 145
152 146
153 146
153 145
154 144
155 144
156 145
157 146
158 146
158 145
159 144
160 144
161 145
162 146
163 145
164 144
165 145
166 145
167 144
168 143
169 144
170 144
171 143
172 142
173 143
174 143
175 143
175 142
176 141
177 141
178 142
179 142
179 141
180 140
181 140
182 140
183 140
183 139
184 138
185 139
186 139
187 138
187 137
188 136
189 137
190 138
191 138
192 138
192 137
193 136
194 135
195 136
196 136
197 135
197 134
198 133
199 133
200 133
200 132
201 131
202 131
203 131
203 130
204 129
205 129
206 129
207 130
208 130
208 129
209 128
209 127
210 126
211 127
212 127
212 126
213 125
213 124
214 123
215 124
216 124
217 124
217 123
218 122
219 122
220 122
220 121
221 120
222 120
223 119
224 118
225 119
226 119
226 118
227 117
228 116
229 116
229 115
230 114
231 115
232 115
232 114
233 113
234 112
235 113
236 113
236 112
237 111
236 111
235 110
236 109
237 109
237 108
238 107
238 106
239 105
239 104
240 103
241 102
241 101
241 100
242 99
242 98
243 97
243 96
244 95
244 94
245 93
245 92
246 91
245 91
244 90
243 89
244 88
245 88
246 88
247 88
248 88
249 88
250 89
251 89
252 89
253 90
254 90
255 90
256 91
257 91
258 91
259 92
260 92
261 92
262 93
263 93
264 94
265 94
266 95
267 96
268 96
269 96
270 97
271 97
272 98
273 98
274 98
275 99
276 100
277 100
278 100
279 101
280 101
281 102
282 102
283 103
284 103
285 104
286 104
287 105
288 105
289 106
290 106
291 106
292 106
293 105
294 105
295 104
296 103
297 102
297 101
298 100
299 99
299 98
300 97
300 96
301 95
301 94
301 93
302 92
302 91
303 90
303 89
304 88
304 87
304 86
305 85
305 84
305 83
305 82
305 81
306 80
306 79
306 78
306 77
306 76
306 75
306 74
306 73
306 72
306 71
306 70
305 69
305 68
306 67
305 67
304 66
303 65
304 64
304 63
304 62
304 61
304 60
304 59
303 59
302 58
303 57
303 56
302 56
301 55
300 54
299 53
298 52
297 52
296 53
295 53
294 53
293 53
292 53
291 53
290 53
289 53
288 53
287 54
286 54
285 54
284 54
283 54
282 55
281 55
280 55
279 55
278 56
277 56
276 56
275 57
274 57
273 57
272 57
271 58
270 58
269 59
268 59
267 59
266 59
265 60
264 60
263 60
262 61
261 61
260 62
259 62
258 63
257 63
256 63
255 63
254 63
253 64
252 64
251 64
250 64
249 64
248 65
247 65
246 65
245 65
244 64
245 63
245 62
246 61
247 60
247 59
248 58
248 57
247 57
246 56
246 55
245 55
244 54
243 54
242 53
242 52
241 52
240 51
241 50
241 49
240 49
239 48
239 47
240 46
239 46
238 46
237 45
238 44
237 44
236 44
235 43
236 42
236 41
235 41
234 41
233 40
233 39
234 38
233 38
232 38
231 38
230 38
229 37
230 36
230 35
229 35
228 35
227 34
228 33
228 32
227 32
226 32
225 33
224 33
223 32
224 31
224 30
225 29
224 29
223 28
222 29
221 29
220 28
220 27
220 26
221 25
220 25
219 25
218 25
217 24
217 23
216 23
215 23
214 22
214 21
215 20
214 20
213 20
212 20
211 21
210 21
209 20
210 19
210 18
209 18
208 18
207 18
206 19
205 18
205 17
204 16
203 17
202 17
201 16
201 15
202 14
201 14
200 14
199 14
198 15
197 15
196 15
195 14
196 13
196 12
196 11
197 10
196 10
195 10
195 11
194 12
193 12
192 13
191 13
190 13
189 12
190 11
190 10
189 10
188 10
187 11
186 11
185 10
186 9
185 9
184 9
183 10
182 10
181 9
181 8
182 7
181 7
180 7
179 8
178 9
177 8
177 7
177 6
176 6
175 6
174 7
173 6
173 5
172 5
171 6
170 7
169 7
168 6
168 5
167 5
166 6
165 6
164 7
163 7
162 6
163 5
163 4
162 4
161 5
160 5
159 4
158 4
157 4
156 4
155 5
154 4
154 3
153 3
152 4
151 5
150 5
149 4
150 3
149 3
148 3
147 4
146 3
146 2
145 2
144 2
143 3
142 4
141 3
141 2
140 2
139 2
138 2
137 3
136 2
135 2
134 2
133 2
132 3
131 4
130 5
129 5
128 4
129 3
128 3
127 3
126 4
125 3
124 3
