169 2
168 3
167 3
166 3
165 4
164 3
163 3
162 3
161 3
160 4
159 5
158 4
157 4
156 5
155 5
154 4
153 5
152 6
151 6
150 6
149 6
148 6
147 7
146 7
145 7
144 7
143 8
142 8
141 8
140 9
139 10
138 10
137 10
136 10
135 11
134 12
133 12
132 12
131 12
130 13
129 13
128 13
127 13
126 13
125 14
124 14
123 14
122 15
121 15
120 16
119 16
118 16
117 16
116 16
115 17
114 18
113 18
112 18
111 18
110 19
110 20
109 21
108 21
107 21
106 22
105 22
104 23
103 23
102 23
101 24
100 25
99 24
98 25
97 25
96 26
95 26
94 26
93 27
92 28
91 28
90 28
89 29
88 29
87 30
86 30
85 31
84 32
83 32
82 32
81 32
80 33
79 33
78 33
77 34
76 35
75 35
74 35
73 36
72 36
71 36
70 37
69 37
68 37
67 37
67 38
66 39
65 39
65 40
65 41
65 42
65 43
65 44
65 45
64 46
63 46
62 46
61 46
60 46
59 46
58 46
57 46
56 46
55 45
54 45
53 45
52 45
51 44
50 44
49 44
48 44
47 44
46 43
45 43
44 43
43 43
42 43
41 42
40 42
39 42
38 42
37 41
36 41
35 41
34 41
33 40
32 40
31 40
30 40
29 40
28 39
27 39
26 39
25 39
24 39
23 39
22 39
21 38
20 38
19 38
18 38
17 37
16 37
15 37
14 37
13 37
12 37
11 37
10 36
9 36
8 36
7 36
6 37
6 38
5 39
5 40
4 41
3 42
3 43
4 44
4 45
3 46
3 47
3 48
3 49
3 50
2 51
2 52
2 53
2 54
2 55
2 56
2 57
2 58
2 59
2 60
2 61
2 62
2 63
2 64
2 65
2 66
2 67
2 68
2 69
3 70
3 71
3 72
4 73
4 74
4 75
5 76
6 77
6 78
7 79
8 80
9 81
10 81
11 80
12 80
13 80
14 80
15 79
16 79
17 79
18 79
19 79
20 78
21 78
22 78
23 78
24 77
25 77
26 77
27 76
28 76
29 76
30 76
31 76
32 75
33 75
34 75
35 75
36 74
37 74
38 74
39 74
40 74
41 73
42 73
43 73
44 73
45 73
46 73
47 73
48 73
49 73
50 73
51 73
52 73
53 73
54 73
55 73
56 73
57 73
58 73
59 73
60 73
61 74
61 75
61 76
61 77
62 78
63 78
64 79
65 79
66 79
67 80
68 80
69 81
70 81
71 82
72 82
73 82
74 83
75 84
76 84
77 84
78 85
78 86
79 87
80 87
81 87
82 87
83 88
83 89
83 90
84 90
85 90
86 90
87 91
88 92
88 93
89 93
90 92
91 93
92 94
93 94
94 94
95 95
96 96
97 96
98 96
99 96
100 97
100 98
100 99
101 99
102 98
103 98
104 99
104 100
104 101
105 101
106 101
107 101
108 101
109 101
110 102
110 103
111 103
112 103
113 103
114 104
115 105
115 106
116 105
117 105
118 106
119 106
120 106
121 107
122 108
123 108
124 107
125 108
125 109
125 110
126 111
127 110
128 110
129 110
130 110
131 111
132 111
133 111
134 112
135 113
136 113
137 113
138 114
138 115
139 115
140 115
141 115
142 115
143 116
144 117
145 117
146 116
147 117
148 116
149 117
150 117
151 116
152 117
153 118
154 117
155 117
156 117
157 118
158 119
159 118
160 117
161 117
162 117
163 117
164 116
165 116
166 117
167 117
168 116
169 116
170 116
171 116
172 116
173 115
174 115
175 115
176 115
177 114
178 114
179 114
180 114
181 114
182 113
183 113
184 113
185 113
186 112
187 112
188 113
189 113
190 112
191 111
192 111
193 111
194 111
195 111
196 110
197 110
198 110
199 110
200 111
201 110
202 110
203 110
204 110
205 109
206 109
207 109
208 109
209 109
210 109
210 108
211 107
212 106
212 105
213 104
214 104
215 103
216 103
217 102
218 102
219 102
220 103
219 104
219 105
219 106
218 107
218 108
218 109
219 110
220 110
221 110
222 110
223 110
224 110
225 110
226 109
227 108
228 107
228 106
229 105
229 104
230 103
230 102
231 101
231 100
231 99
232 98
233 97
234 97
235 97
236 96
237 96
238 96
239 95
240 95
241 95
242 95
243 94
244 94
245 94
246 93
247 93
248 92
249 92
250 91
251 90
252 89
253 89
254 89
255 88
256 88
257 88
258 88
259 87
260 87
261 88
262 87
263 87
264 87
265 87
266 87
267 86
268 86
269 85
270 85
271 84
272 83
273 83
274 82
275 81
275 80
276 79
277 78
278 77
279 77
280 76
281 76
282 75
283 75
284 74
285 73
285 72
286 71
286 70
287 69
287 68
287 67
287 66
286 66
285 65
285 64
286 63
286 62
287 61
286 61
285 60
284 59
283 59
282 59
281 59
280 59
279 58
280 57
280 56
279 56
278 55
277 54
276 54
275 53
274 52
273 52
272 51
271 52
270 51
269 50
268 49
267 49
266 48
265 48
264 48
263 48
262 47
261 46
261 45
261 44
262 43
261 43
260 42
261 41
260 41
259 40
258 40
257 39
256 38
255 37
254 37
253 37
252 36
253 35
252 35
251 34
250 34
249 33
248 32
247 32
246 32
245 31
244 30
243 30
242 30
241 29
240 28
239 27
238 28
237 27
236 27
235 26
234 25
233 24
232 24
231 23
230 22
229 21
228 21
227 20
226 20
225 19
224 19
223 18
222 17
221 16
220 16
219 16
218 15
217 14
216 14
215 15
214 14
213 13
212 13
211 13
210 13
209 12
208 11
207 11
206 11
205 11
204 10
203 9
202 9
201 10
200 9
199 8
198 8
197 8
196 8
195 8
194 7
193 6
192 6
191 6
190 6
189 5
188 5
187 5
186 5
185 5
184 5
183 4
182 4
181 4
180 4
179 4
178 4
177 4
176 4
175 4
174 3
173 3
172 3
171 3
170 2
