197 4
196 5
195 5
194 6
193 6
192 6
191 7
190 7
189 7
188 8
187 8
186 9
185 9
184 9
183 9
182 10
181 10
181 11
180 12
179 12
178 13
177 13
176 14
175 14
174 15
173 15
173 16
172 17
171 16
170 16
170 17
169 18
168 17
167 17
166 18
165 18
165 19
164 20
163 20
162 20
161 20
161 21
160 22
159 22
158 22
157 23
156 24
155 24
154 25
153 26
152 26
151 27
150 28
149 28
148 29
147 30
146 30
145 31
144 32
143 32
142 32
142 33
141 34
140 35
139 35
138 36
137 36
137 37
136 38
135 39
134 39
133 40
132 41
131 41
131 42
130 43
129 43
128 44
127 45
126 46
125 47
124 47
123 48
122 49
121 49
120 49
120 50
119 51
118 51
117 52
116 52
115 53
114 53
113 54
112 55
111 55
110 56
109 56
108 57
107 57
106 57
105 58
104 58
103 59
102 59
101 60
100 60
99 61
98 61
97 61
96 62
95 62
95 63
94 64
93 65
92 66
92 67
91 68
90 68
89 69
88 69
87 69
86 69
85 69
84 69
83 69
82 69
81 68
80 68
79 68
78 67
77 67
76 66
75 66
74 65
73 65
72 65
71 65
70 64
69 64
68 64
67 64
66 63
65 63
64 63
63 62
62 62
61 62
60 62
59 61
58 61
57 61
56 60
55 60
54 60
53 60
52 59
51 59
50 59
49 58
48 58
47 57
46 57
45 57
44 56
43 56
42 56
41 55
40 55
39 55
38 54
37 54
36 53
35 53
34 52
33 52
32 52
31 51
30 51
29 50
28 50
27 50
26 49
25 49
24 49
23 48
22 48
21 48
20 47
19 47
18 47
17 47
16 46
15 46
14 46
13 46
12 46
11 46
10 46
9 46
8 46
7 47
7 48
7 49
8 50
8 51
8 52
9 53
9 54
10 55
10 56
11 57
11 58
12 59
12 60
12 61
12 62
13 63
13 64
13 65
13 66
14 67
14 68
14 69
14 70
15 71
15 72
15 73
15 74
15 75
16 76
16 77
16 78
16 79
16 80
16 81
15 82
15 83
15 84
15 85
15 86
15 87
15 88
14 89
14 90
14 91
14 92
14 93
14 94
13 95
13 96
13 97
13 98
12 99
12 100
12 101
11 102
10 102
10 103
10 104
9 105
9 106
8 107
7 108
6 109
5 110
4 111
3 111
2 112
2 113
2 114
3 115
4 115
5 115
6 115
7 115
8 115
9 115
10 115
11 115
12 115
13 115
14 115
15 115
16 115
17 115
18 114
19 114
20 114
21 114
22 113
23 113
24 113
25 113
26 113
27 112
28 112
29 112
30 112
31 111
32 111
33 111
34 111
35 110
36 110
37 109
38 109
39 109
40 109
41 108
42 108
43 108
44 108
45 107
46 107
47 107
48 107
49 106
50 106
51 106
52 106
53 106
54 105
55 105
56 105
57 104
58 104
59 104
60 104
61 103
62 103
63 103
64 103
65 103
66 103
67 103
68 102
69 102
70 102
71 102
72 102
73 102
74 102
75 101
76 101
77 101
78 100
79 100
80 100
81 100
82 100
83 100
84 100
85 100
86 100
87 100
88 101
89 101
90 101
91 102
91 103
92 104
92 105
93 106
94 106
95 107
96 108
97 109
98 109
99 110
100 110
101 111
102 111
103 112
104 112
105 113
106 113
107 114
108 114
109 114
110 114
111 115
112 115
113 116
114 116
115 117
116 117
117 117
118 118
119 118
120 119
121 120
122 121
123 121
124 122
125 122
126 123
127 124
128 124
129 125
130 125
131 126
132 127
133 127
134 128
135 128
136 129
137 130
138 131
139 131
140 131
141 132
142 133
143 133
144 133
145 134
145 135
146 135
147 136
148 137
148 138
149 137
150 138
150 139
151 140
152 140
153 141
154 141
155 142
156 143
157 144
158 145
159 146
160 146
161 147
162 148
163 149
164 149
165 150
165 151
166 152
167 153
167 154
168 155
169 155
170 156
170 157
171 158
172 159
173 160
173 161
174 161
175 162
176 162
177 163
177 164
178 164
179 165
179 166
180 166
181 167
182 168
183 168
184 169
184 170
185 170
186 171
187 170
188 171
188 172
189 172
190 172
191 173
192 173
193 173
194 173
195 172
196 171
197 172
197 173
198 172
199 171
200 172
200 173
201 172
202 172
203 171
204 172
204 173
205 172
206 172
207 173
208 172
209 171
210 171
211 171
212 172
213 171
214 171
215 171
215 170
216 169
217 169
218 169
219 169
220 169
221 168
222 167
223 168
224 167
225 167
226 167
227 166
228 165
229 165
230 164
231 163
232 164
233 163
234 162
235 162
236 161
237 161
238 160
239 159
240 159
241 159
242 158
243 157
244 157
245 157
246 156
247 156
248 155
249 154
250 154
251 154
252 154
253 153
254 152
255 151
256 151
257 151
258 151
259 150
260 150
261 150
262 149
263 149
264 149
265 149
266 148
267 148
268 148
269 148
270 147
271 147
272 147
273 147
274 146
275 146
276 145
277 145
278 144
279 143
280 142
281 141
282 140
283 141
283 142
284 143
284 142
285 141
285 140
285 139
286 138
287 138
288 137
289 137
290 137
291 137
292 136
293 136
294 137
293 138
292 139
291 139
290 140
289 141
288 142
287 143
286 144
286 145
286 146
285 147
284 148
284 149
284 150
284 151
284 152
285 153
285 154
285 155
286 155
287 155
288 155
289 154
290 153
291 152
292 151
293 150
294 149
295 148
296 147
296 146
297 145
298 144
299 143
300 142
301 141
302 140
302 139
303 138
304 137
304 136
305 135
306 135
307 135
308 135
309 134
310 134
311 134
312 134
313 133
314 133
315 133
316 132
317 132
318 132
319 131
320 130
321 130
322 130
323 129
324 128
325 128
326 128
327 127
328 127
329 127
330 126
331 126
332 126
333 125
334 125
335 125
336 125
337 124
338 124
339 124
340 123
341 123
342 123
343 122
344 122
345 122
346 121
347 121
348 120
349 120
350 119
351 119
352 118
353 118
354 118
355 119
356 118
357 118
358 117
359 116
360 116
361 115
362 114
363 114
364 113
365 112
366 112
367 111
368 111
369 110
370 109
371 109
372 108
373 108
374 108
375 107
376 107
377 107
378 106
379 105
379 104
380 103
380 102
381 101
381 100
381 99
382 98
382 97
382 96
382 95
381 95
380 95
379 94
378 94
377 94
376 94
375 94
374 95
373 94
372 94
371 94
370 93
371 92
372 91
373 90
374 89
374 88
375 87
375 86
375 85
375 84
376 83
375 83
374 82
373 82
372 81
371 81
370 80
369 80
368 80
367 79
366 79
365 78
364 78
363 77
362 76
361 75
360 74
359 73
358 72
357 71
356 70
357 69
356 69
355 68
354 67
353 67
352 66
351 65
350 65
349 65
348 65
347 65
346 65
345 64
346 63
346 62
346 61
346 60
345 60
344 59
343 59
342 58
341 57
340 56
339 55
338 55
337 55
336 54
337 53
336 53
335 52
334 52
333 52
332 51
331 51
330 50
329 50
328 50
327 49
326 49
325 49
324 48
323 48
322 47
321 47
320 47
319 46
318 46
317 46
316 45
315 45
314 45
313 44
312 44
311 43
310 43
309 43
308 42
307 42
306 41
305 41
304 40
303 40
302 40
301 39
300 39
299 39
298 38
297 38
296 37
295 37
294 36
293 36
292 35
291 35
290 34
289 34
288 34
287 33
286 33
285 32
284 31
283 31
282 31
281 30
280 30
279 29
278 29
277 29
276 28
275 28
274 28
273 27
272 26
271 26
270 26
269 26
268 25
267 24
266 25
265 24
264 24
263 23
262 23
261 23
260 23
259 22
258 21
257 21
256 20
255 20
254 19
253 19
252 19
251 18
250 17
249 17
248 17
247 16
246 17
245 16
244 15
243 15
242 15
241 14
240 13
239 14
238 13
237 13
236 12
235 12
234 11
233 11
232 11
231 10
230 9
229 10
228 10
227 9
226 8
225 9
224 8
223 8
222 8
221 7
220 7
219 7
218 7
217 6
216 6
215 7
214 6
213 6
212 6
211 6
210 6
209 5
208 5
207 5
206 5
205 4
204 4
203 5
202 5
201 4
200 4
199 5
198 5
