138 4
138 5
137 6
136 7
135 8
135 9
134 10
133 11
132 12
132 13
131 14
131 15
130 16
129 17
129 18
128 19
127 20
126 21
125 22
125 23
124 24
123 25
122 26
122 27
121 28
120 29
119 30
118 31
117 30
116 30
115 30
114 30
113 30
112 30
112 31
111 32
110 31
109 31
108 31
107 31
106 31
106 32
105 33
104 32
103 32
102 32
101 32
100 32
99 32
99 33
98 34
97 33
96 33
95 33
94 33
93 33
92 33
91 33
90 33
89 33
88 33
87 33
86 33
85 33
84 33
83 33
82 33
81 33
81 34
80 35
79 34
78 34
77 34
76 34
75 34
74 34
73 34
72 34
71 34
70 34
69 34
68 34
67 34
66 34
65 34
64 34
63 33
62 33
61 33
60 33
59 33
58 33
57 33
56 33
55 33
54 33
53 33
52 33
51 33
50 33
49 33
48 33
47 33
46 33
45 33
44 33
43 33
42 33
41 33
40 33
39 33
38 33
37 33
36 33
36 34
35 35
34 34
33 34
32 34
31 34
30 34
29 34
28 34
28 35
27 36
26 35
25 35
24 35
23 35
22 35
21 35
21 36
20 37
19 36
18 36
17 36
17 37
16 38
15 37
14 37
13 37
13 38
12 39
11 38
10 38
9 38
9 39
8 40
7 39
6 39
5 39
5 40
4 41
3 42
3 43
3 44
2 45
2 46
2 47
2 48
2 49
3 49
4 50
5 50
6 51
7 52
8 53
8 54
9 54
10 54
11 55
12 55
13 56
14 56
15 56
16 57
17 57
18 58
19 58
20 58
21 59
22 59
23 59
24 59
25 60
26 60
27 60
28 60
29 61
30 61
31 62
32 63
33 63
34 63
35 63
36 64
37 64
38 64
39 64
40 64
41 64
42 64
43 65
44 65
45 65
46 65
47 66
48 66
49 66
50 66
51 67
52 68
52 69
53 70
53 71
53 72
54 73
54 74
55 75
56 76
57 77
58 78
59 79
60 80
61 81
62 82
63 82
64 82
65 82
66 82
66 81
66 80
66 79
66 78
65 77
65 76
66 75
67 75
67 74
67 73
66 72
66 71
66 70
66 69
67 68
68 68
69 67
70 68
71 68
72 68
73 68
74 68
75 68
76 68
77 68
78 69
79 69
80 69
81 69
82 69
83 69
84 69
85 69
86 69
87 69
88 69
89 70
90 70
91 70
92 70
93 70
94 70
95 70
96 70
97 70
98 70
99 70
100 70
101 70
102 70
103 70
104 70
105 70
106 70
107 70
108 70
109 70
110 70
111 70
112 70
113 70
114 70
115 70
116 70
117 70
118 71
119 72
119 73
120 73
121 74
122 75
123 76
124 77
125 78
126 79
126 80
126 81
126 82
127 82
128 82
129 82
130 83
131 84
132 85
133 85
134 85
135 85
135 84
135 83
136 82
136 81
136 80
136 79
135 78
136 77
137 77
137 76
137 75
137 74
137 73
136 72
136 71
136 70
137 69
138 69
139 69
140 69
141 69
142 69
143 69
144 69
145 69
146 69
147 69
148 68
149 68
150 68
151 68
152 68
153 68
154 67
155 67
156 67
157 67
158 67
159 67
160 67
161 67
162 66
163 66
164 66
165 66
166 66
167 67
168 67
169 67
170 67
171 67
172 66
173 66
174 66
175 66
176 67
176 68
177 68
178 68
179 69
179 70
180 71
180 72
180 73
181 74
182 75
182 76
183 77
184 78
184 79
185 80
185 81
186 81
187 81
188 81
189 80
189 79
189 78
190 77
190 76
190 75
190 74
190 73
190 72
190 71
190 70
190 69
191 68
192 68
193 68
194 68
194 67
195 66
196 66
197 65
198 65
199 65
200 65
201 64
202 64
203 63
204 62
205 61
206 61
207 61
208 61
209 61
210 61
211 61
212 60
213 60
214 60
215 60
216 60
217 60
218 60
219 60
220 60
221 61
222 61
223 62
224 63
225 63
226 63
227 64
228 64
229 64
230 64
231 65
232 66
233 67
234 67
235 68
236 68
237 68
238 69
239 69
240 70
241 70
242 71
243 71
244 72
245 73
246 73
247 74
248 74
249 74
250 74
251 75
252 75
253 76
254 76
255 77
256 77
257 77
258 77
259 78
260 78
261 78
262 79
263 79
264 79
265 79
266 80
267 80
268 81
269 81
270 82
271 82
272 82
273 82
274 82
275 82
276 82
277 82
277 81
277 80
277 79
276 78
275 78
274 77
273 77
272 76
271 76
270 75
269 74
268 73
267 72
266 72
265 71
264 70
263 69
262 68
261 68
260 67
259 66
258 65
257 64
256 63
255 63
254 62
253 62
252 61
251 60
250 59
250 58
249 57
248 56
247 56
246 55
247 54
248 54
249 54
249 53
250 52
251 52
252 51
253 50
254 49
255 48
256 47
256 46
257 45
258 45
259 45
260 44
261 44
262 43
263 42
264 41
265 40
266 40
267 40
268 40
269 40
270 39
271 38
272 38
273 37
274 37
275 37
276 37
277 36
277 35
278 34
279 33
280 33
281 32
282 32
283 32
283 31
282 30
281 30
280 29
279 29
278 29
277 29
276 29
275 29
274 29
273 29
272 29
272 30
271 31
270 30
269 30
268 30
267 30
267 31
266 32
265 31
264 31
264 32
263 33
262 32
262 33
261 34
260 33
259 33
258 33
258 34
257 35
256 34
255 34
254 34
254 35
253 36
252 35
251 35
250 35
250 36
249 37
248 36
247 36
246 36
245 36
245 37
244 38
243 37
242 37
241 37
241 38
240 39
239 38
238 38
238 39
237 40
236 39
235 39
235 40
234 41
233 40
233 41
232 42
231 41
231 42
230 43
229 42
228 42
227 42
227 43
226 44
225 43
224 43
223 43
222 43
221 43
220 43
219 43
218 43
217 43
216 43
215 43
214 43
213 43
212 42
211 42
210 42
209 42
208 42
207 42
206 41
205 41
204 41
203 41
202 40
201 40
200 40
199 40
198 39
197 39
196 39
195 39
194 39
193 39
192 38
191 38
190 38
189 38
188 38
187 38
186 38
185 38
184 38
183 38
182 37
181 37
180 37
179 37
178 37
177 37
176 37
175 36
174 36
173 36
172 36
171 36
170 36
169 36
168 36
167 36
166 36
165 36
164 35
163 35
162 35
161 35
160 34
159 34
158 33
157 33
156 33
155 32
155 31
154 30
153 30
152 29
151 28
150 27
149 26
148 26
147 25
146 25
145 24
145 23
144 22
144 21
143 20
143 19
143 18
143 17
143 16
143 15
142 14
142 13
142 12
142 11
142 10
142 9
142 8
142 7
142 6
141 5
140 5
139 4
