155 1
154 2
154 3
155 4
154 5
153 6
152 6
151 6
150 6
149 6
149 7
149 8
149 9
148 10
147 11
146 11
145 12
144 12
144 13
144 14
145 15
146 16
145 17
145 18
144 19
143 20
143 21
143 22
144 23
145 24
145 25
144 26
144 27
144 28
145 29
146 30
145 31
144 31
143 30
142 30
141 29
140 29
139 28
138 28
137 27
136 26
135 26
134 26
133 25
132 25
131 24
130 24
129 23
128 23
127 23
126 24
125 24
124 24
123 24
122 24
121 24
120 23
119 23
118 23
117 23
116 23
115 23
114 23
113 23
112 23
111 24
110 24
109 24
108 24
107 25
106 25
105 26
104 26
103 27
102 27
102 28
102 29
102 30
101 31
100 32
100 33
100 34
100 35
100 36
100 37
100 38
101 39
101 40
102 41
101 42
100 42
99 42
98 42
97 42
96 42
95 42
94 42
93 42
92 42
91 42
90 42
89 42
88 42
87 42
86 42
85 42
84 42
83 41
82 41
81 41
80 41
79 41
78 41
77 41
76 41
75 41
74 41
73 41
72 41
71 41
70 41
69 41
68 41
67 41
66 41
65 41
64 41
63 40
62 40
61 40
60 40
59 40
58 40
57 40
56 40
55 39
54 39
53 39
52 39
51 39
50 39
49 38
48 38
47 38
46 38
45 38
44 38
43 37
42 37
41 37
40 37
39 37
38 36
37 36
36 36
35 36
34 36
33 36
32 35
31 35
30 35
29 35
28 35
27 35
26 34
25 34
24 34
23 33
22 34
21 33
20 33
19 33
18 34
17 34
16 34
15 34
14 34
13 34
12 34
11 35
10 35
9 35
8 35
7 36
6 37
5 37
4 38
3 39
2 40
2 41
2 42
2 43
2 44
2 45
2 46
2 47
2 48
3 49
3 50
4 51
4 52
5 53
6 54
7 55
8 55
9 55
10 56
11 56
12 57
13 57
14 57
15 57
16 57
17 57
18 57
19 57
20 57
21 57
22 57
23 56
24 56
25 56
26 56
27 56
28 56
29 56
30 56
31 56
32 56
33 56
34 55
35 55
36 55
37 55
38 55
39 55
40 55
41 55
42 55
43 54
44 54
45 54
46 54
47 54
48 54
49 54
50 54
51 53
52 53
53 53
54 53
55 53
56 53
57 53
58 53
59 53
60 53
61 53
62 53
63 53
64 53
65 52
66 52
67 53
68 53
69 52
70 52
71 52
72 52
73 52
74 52
75 52
76 52
77 52
78 52
79 52
80 52
81 52
82 52
83 52
84 52
85 52
86 52
87 52
88 52
89 52
90 52
91 52
92 52
93 52
94 52
95 52
96 52
97 52
98 52
99 52
100 52
101 52
102 52
103 52
104 52
105 52
106 52
107 52
108 52
109 52
110 52
111 52
112 52
113 53
113 54
113 55
113 56
113 57
114 57
115 58
116 59
117 59
118 60
119 60
120 61
121 61
122 62
123 62
124 62
125 62
126 62
127 62
128 62
129 61
130 61
131 61
132 61
133 61
134 60
135 60
136 59
137 59
138 58
139 58
140 57
141 56
142 57
143 56
144 55
145 55
146 54
147 53
148 53
149 53
150 53
151 53
152 53
153 53
154 53
155 54
156 54
157 54
158 54
159 54
160 54
161 54
162 55
163 55
164 55
165 55
166 55
167 55
168 55
169 55
170 55
171 55
172 56
173 56
174 56
175 56
176 56
177 56
178 56
179 56
180 57
181 57
182 57
183 57
184 57
185 57
186 57
187 57
188 58
189 58
190 58
191 58
192 58
193 58
194 58
195 58
196 58
197 58
198 58
199 58
200 58
201 58
202 58
203 59
204 59
205 58
206 58
207 59
208 59
209 59
210 58
211 58
212 58
213 58
214 58
215 58
216 59
215 60
214 60
213 61
212 62
211 62
210 63
209 63
208 64
207 64
206 65
206 66
207 66
208 66
209 65
210 65
211 64
212 64
213 64
214 65
213 66
213 67
214 68
215 67
216 67
217 66
218 65
219 65
220 64
221 63
222 62
223 61
224 61
225 60
226 59
227 58
228 57
229 57
230 57
231 57
232 56
233 56
234 56
235 56
236 56
237 56
238 55
239 55
240 55
241 55
242 55
243 54
244 54
245 55
245 56
245 57
246 57
246 56
247 55
248 54
249 55
249 56
249 57
250 58
251 57
251 56
252 55
253 56
253 57
253 58
254 58
255 57
256 58
257 57
258 56
258 55
259 54
260 54
261 55
261 56
262 56
262 55
263 54
264 55
265 55
266 55
266 54
267 53
268 52
269 53
269 52
270 51
271 52
271 53
272 54
272 53
273 52
274 51
275 52
276 52
277 51
278 51
278 50
279 49
280 49
281 48
282 47
282 46
283 45
284 45
285 45
285 44
286 43
287 42
287 41
288 40
288 39
287 38
288 37
287 37
286 36
285 36
284 36
283 36
282 36
282 37
281 38
280 38
279 38
278 38
277 37
276 37
275 36
274 36
273 36
272 36
272 37
273 38
274 38
275 39
276 40
277 41
278 42
277 43
276 43
275 43
274 42
273 42
272 42
271 41
270 41
269 40
269 39
270 38
270 37
270 36
270 35
271 34
270 34
269 33
270 32
269 32
268 32
267 31
266 30
265 30
264 29
263 29
262 29
261 28
260 28
259 28
258 27
257 27
256 26
255 26
254 27
253 26
252 26
251 25
250 25
249 24
248 24
247 24
246 23
245 23
244 23
243 23
242 22
241 22
240 22
239 22
238 21
237 21
236 21
235 21
234 21
233 21
232 21
231 20
230 20
229 19
228 19
227 18
226 18
225 18
224 18
223 18
222 19
221 20
220 19
219 19
218 19
217 19
216 18
215 18
214 18
213 18
212 18
211 18
210 18
209 18
208 18
207 19
206 19
205 19
204 19
203 19
202 19
201 19
200 19
199 19
198 19
197 20
196 20
195 20
194 19
193 19
192 18
191 18
190 17
189 17
188 16
187 15
186 15
185 14
184 14
183 13
182 12
181 12
180 12
179 11
178 10
177 10
176 9
175 9
174 9
173 8
172 8
171 7
170 7
169 6
168 6
167 6
166 5
165 5
164 5
163 4
162 4
161 3
160 3
159 3
158 2
157 2
156 2
