147 2
146 3
145 3
144 3
143 3
142 3
141 3
140 3
139 3
138 3
137 3
136 3
135 3
134 3
133 3
132 3
131 4
130 4
129 4
128 4
127 4
126 5
125 5
124 5
123 4
122 5
121 5
120 5
119 5
118 6
117 6
116 6
115 6
114 7
113 7
112 7
111 7
110 8
109 8
108 8
107 9
106 9
105 9
104 9
103 9
102 10
101 10
100 11
99 11
98 11
97 12
96 12
95 12
94 12
93 13
92 13
91 14
90 14
89 15
88 15
87 16
86 16
85 16
84 17
83 18
82 18
81 19
80 19
79 19
78 20
77 20
76 21
75 21
74 21
74 22
73 23
72 24
71 24
71 25
70 26
69 25
69 24
68 24
67 25
67 26
66 27
65 26
64 26
63 27
62 28
61 28
60 28
59 28
59 29
59 30
58 31
57 32
56 31
55 31
54 32
54 33
53 34
53 35
52 36
51 35
51 34
50 34
49 35
48 36
48 37
47 38
46 38
45 37
44 37
43 38
43 39
42 40
41 39
40 38
39 39
39 40
38 41
38 42
38 43
37 44
36 44
35 43
36 42
36 41
35 41
34 42
34 43
33 44
33 45
32 46
31 47
30 46
29 45
30 44
29 43
28 43
28 44
27 45
27 46
27 47
26 48
25 47
25 46
24 46
23 45
22 46
22 47
22 48
22 49
21 50
21 51
21 52
21 53
20 54
20 55
20 56
19 57
18 58
17 58
16 58
15 59
14 59
13 60
12 60
11 60
10 61
9 62
9 63
8 64
8 65
7 66
7 67
6 68
6 69
6 70
7 71
8 72
7 73
6 73
5 72
4 72
3 73
2 74
2 75
2 76
2 77
2 78
3 79
4 80
5 80
6 81
7 82
8 82
9 83
10 84
10 85
11 86
12 87
12 88
13 89
14 90
15 91
15 92
16 93
17 94
18 95
19 96
19 97
20 98
21 99
22 100
23 101
24 101
25 102
26 103
27 103
28 103
29 104
30 104
31 104
32 104
33 105
34 105
35 105
36 105
37 106
38 106
39 107
40 107
41 107
42 108
43 108
44 109
45 110
45 111
46 112
46 113
45 114
45 115
45 116
46 117
46 118
46 119
46 120
46 121
47 122
47 123
47 124
47 125
48 126
48 127
48 128
49 129
49 130
49 131
50 132
51 131
52 131
53 131
54 130
55 129
56 129
57 129
58 128
58 127
59 126
60 126
61 127
61 128
61 129
62 130
62 131
63 132
63 133
64 134
65 135
66 135
67 136
68 137
69 137
70 138
71 138
72 139
73 139
74 139
75 140
76 141
77 141
78 142
79 142
80 143
81 143
82 144
83 144
84 145
85 146
86 147
87 147
88 148
89 148
90 148
91 149
92 149
93 150
94 150
95 151
96 151
97 151
98 152
99 152
100 153
101 153
102 153
103 154
104 154
105 155
106 155
107 155
108 155
109 156
110 156
111 157
112 157
113 157
114 157
115 158
116 158
117 158
118 158
119 159
120 159
121 159
122 159
123 160
124 160
125 160
126 161
127 161
128 161
129 161
130 161
131 162
132 163
133 163
134 163
135 163
136 163
137 164
138 164
139 164
140 164
141 164
142 164
143 165
144 165
145 165
146 165
147 165
148 165
149 166
150 166
151 166
152 166
153 166
154 167
155 167
156 167
157 167
158 167
159 168
160 168
161 168
162 168
163 168
164 168
165 169
166 169
167 169
168 169
169 169
170 169
171 169
172 169
173 169
174 169
175 169
176 169
177 169
178 169
179 169
180 169
181 170
182 169
183 170
184 170
185 170
186 170
187 169
188 169
189 169
190 169
191 169
192 169
193 169
194 169
195 169
196 169
197 169
198 169
199 168
200 168
201 168
202 168
203 167
204 167
205 167
206 167
207 167
208 166
209 166
210 166
211 165
212 165
213 165
214 164
215 164
216 164
217 163
218 163
219 162
220 161
221 161
222 160
223 160
224 159
225 159
226 158
227 157
228 157
229 156
230 155
231 155
232 155
233 154
234 153
235 152
236 152
237 151
238 150
239 150
240 149
241 149
242 148
243 147
244 146
245 145
246 144
247 143
248 142
249 142
250 141
251 140
252 139
253 138
253 137
254 136
255 135
256 134
257 133
257 132
258 131
258 130
259 129
259 128
259 127
260 126
260 125
261 124
261 123
261 122
261 121
260 120
261 119
261 118
261 117
262 116
263 117
264 117
265 117
266 118
267 118
268 119
269 119
270 119
271 120
272 120
273 120
274 121
275 121
276 121
277 122
278 122
279 123
280 123
281 123
282 124
283 124
284 125
285 126
286 126
287 126
288 127
289 127
290 128
291 128
292 129
293 130
294 130
295 130
296 131
297 131
298 131
299 132
300 132
301 132
302 133
303 133
304 133
305 134
306 134
307 134
308 135
309 135
310 135
311 135
312 136
313 136
314 136
315 136
316 136
317 137
318 137
319 137
320 137
321 136
322 136
323 135
324 134
324 133
325 132
326 131
327 130
327 129
328 128
329 127
330 126
331 125
332 124
333 123
334 122
335 121
336 120
337 119
338 118
339 117
340 116
341 115
342 114
343 113
343 112
344 111
344 110
345 109
345 108
344 107
345 106
345 105
345 104
344 104
343 103
344 102
344 101
343 101
342 100
343 99
343 98
342 98
341 97
342 96
342 95
342 94
342 93
341 93
340 92
339 91
340 90
339 90
338 89
337 88
336 87
337 86
336 86
335 85
334 84
333 83
332 82
333 81
332 81
331 80
330 79
331 78
330 78
329 77
328 77
327 76
326 76
325 76
324 76
323 76
322 76
321 76
320 76
319 76
318 76
317 76
316 76
315 76
314 76
313 76
312 77
311 77
310 77
309 77
308 77
307 77
306 77
305 77
304 78
303 78
302 78
301 78
300 78
299 78
298 78
297 79
296 79
295 79
294 79
293 79
292 80
291 80
290 80
289 80
288 81
287 81
286 81
285 81
284 82
283 82
282 82
281 82
280 82
279 82
278 83
277 83
276 83
275 83
274 83
273 83
272 84
271 84
270 84
269 84
268 85
267 84
266 83
267 82
267 81
268 80
268 79
269 78
269 77
269 76
269 75
269 74
269 73
269 72
269 71
269 70
268 70
267 69
268 68
268 67
268 66
267 66
266 65
267 64
267 63
267 62
266 62
265 62
264 61
265 60
265 59
264 59
263 58
262 57
261 56
262 55
261 55
260 54
261 53
260 53
259 52
258 51
257 50
258 49
257 49
256 48
255 47
256 46
256 45
255 45
254 45
253 44
252 43
253 42
252 42
251 42
250 41
249 40
250 39
249 39
248 39
247 38
246 37
245 36
244 35
243 34
242 33
241 32
240 31
239 30
238 30
237 29
236 28
235 27
234 27
233 26
232 25
231 25
230 24
229 24
228 23
227 22
226 22
225 21
224 21
223 20
222 20
221 19
220 18
219 18
218 17
217 17
216 16
215 16
214 16
213 15
212 14
211 14
210 14
209 13
208 12
207 12
206 11
205 11
204 11
203 11
202 10
201 10
200 10
199 9
198 9
197 9
196 8
195 8
194 8
193 8
192 7
191 7
190 7
189 7
188 7
187 6
186 6
185 6
184 5
183 5
182 5
181 5
180 5
179 5
178 5
177 4
176 4
175 4
174 4
173 4
172 4
171 4
170 4
169 3
168 3
167 4
166 3
165 3
164 3
163 3
162 3
161 3
160 3
159 3
158 2
157 3
156 3
155 3
154 3
153 2
152 2
151 3
150 3
149 3
148 2
