171 2
171 3
170 4
169 4
168 3
167 3
166 4
165 3
164 3
164 4
163 5
162 5
161 4
160 4
159 4
159 5
158 6
157 5
156 4
155 4
155 5
155 6
154 7
153 7
152 6
152 5
151 5
151 6
150 7
149 7
148 6
147 6
147 7
147 8
146 9
145 8
144 8
143 7
142 7
142 8
142 9
141 10
140 9
139 9
138 9
137 9
136 10
135 10
134 10
133 10
133 11
132 12
131 11
130 11
129 12
128 13
127 12
126 12
125 13
124 13
123 13
122 14
121 14
120 14
120 15
119 16
118 16
117 15
116 15
116 16
116 17
115 18
114 17
113 17
112 18
111 18
111 19
110 20
109 20
108 20
108 21
107 22
106 21
105 21
105 22
105 23
104 24
103 24
102 24
102 25
101 26
100 26
99 27
98 27
97 27
97 28
96 29
95 29
94 29
94 30
93 31
92 32
91 33
90 34
89 34
89 35
88 36
87 36
86 36
86 37
85 38
84 38
83 38
83 39
82 40
81 40
81 41
80 42
79 43
78 43
78 44
77 45
76 45
76 46
75 47
74 47
74 48
74 49
73 50
73 51
72 52
72 53
71 54
71 55
71 56
71 57
70 58
70 59
70 60
70 61
70 62
70 63
71 64
71 65
71 66
72 67
71 68
70 68
69 68
68 67
67 67
66 67
65 67
64 66
63 66
62 66
61 65
60 65
59 65
58 65
57 64
56 64
55 64
54 63
53 63
52 63
51 63
50 62
49 62
48 62
47 61
46 61
45 61
44 61
43 61
42 60
41 60
40 60
39 60
38 60
37 59
36 59
35 59
34 60
33 60
32 60
31 60
30 60
29 61
28 61
27 61
26 61
25 62
24 62
23 63
22 63
21 64
20 64
19 65
18 65
17 66
16 67
15 68
14 69
13 70
12 71
11 72
10 73
10 74
10 75
9 76
9 77
8 78
8 79
8 80
7 81
7 82
7 83
8 84
8 85
7 86
7 87
8 88
8 89
8 90
8 91
8 92
9 93
9 94
10 95
10 96
11 97
12 98
12 99
13 100
14 101
15 102
16 103
17 104
18 105
19 105
20 106
21 107
22 108
23 108
24 109
25 109
26 109
27 110
28 110
29 111
30 111
31 111
32 111
33 111
34 111
35 111
36 111
37 111
38 111
39 110
40 110
41 110
42 110
43 109
44 109
45 109
46 108
47 108
48 107
49 107
50 107
51 107
52 106
53 106
54 106
55 105
56 105
57 104
58 104
59 103
60 103
61 103
62 103
63 102
64 102
65 101
66 101
67 101
68 100
69 100
70 100
71 99
72 100
72 101
71 102
70 103
70 104
69 105
69 106
69 107
70 106
71 107
71 108
70 109
70 110
70 111
71 112
71 113
71 114
72 114
73 115
72 116
72 117
73 117
74 116
75 116
76 117
75 118
75 119
74 120
74 121
75 121
76 120
77 121
77 122
77 123
78 123
79 123
80 124
80 125
80 126
81 126
82 127
82 128
82 129
83 129
84 130
84 131
84 132
85 131
86 131
87 132
87 133
87 134
88 133
89 134
89 135
89 136
90 135
91 136
91 137
91 138
92 137
93 137
94 138
94 139
94 140
95 140
96 139
97 140
97 141
97 142
98 142
99 142
100 143
100 144
100 145
101 145
102 144
103 145
104 146
104 147
105 146
106 146
107 147
107 148
107 149
108 149
109 148
110 148
111 149
111 150
111 151
112 150
113 150
114 151
114 152
115 152
116 151
117 152
117 153
117 154
118 153
119 154
119 155
119 156
119 157
120 156
121 155
122 156
122 157
122 158
123 157
124 157
125 158
126 158
127 159
127 160
128 160
129 159
130 160
130 161
131 160
132 160
133 161
133 162
134 161
135 160
136 161
137 162
137 163
138 162
139 161
140 162
140 163
140 164
141 163
142 163
143 163
144 164
144 165
145 164
145 163
146 162
147 163
147 164
147 165
147 166
148 166
149 165
150 166
151 166
152 165
153 166
153 167
154 167
155 166
156 167
157 168
158 167
159 168
160 167
161 166
162 167
163 168
164 168
165 167
166 168
167 169
168 169
169 168
170 168
171 169
172 168
173 167
174 168
174 169
175 168
176 167
177 167
178 168
178 169
179 168
180 167
181 167
182 168
182 169
183 168
184 167
185 166
186 167
187 168
188 167
189 166
190 166
191 167
191 168
192 167
193 166
194 166
195 167
195 168
196 167
196 166
197 165
198 166
199 166
200 165
201 166
202 166
203 165
204 166
205 166
206 165
207 164
208 165
209 165
210 164
211 165
212 164
213 163
214 164
215 164
216 163
217 164
217 165
218 164
219 163
220 162
221 163
221 164
222 163
222 162
223 161
224 161
225 162
226 161
227 161
228 162
229 161
230 161
231 160
232 161
233 160
234 160
235 161
236 160
237 159
238 159
239 160
239 161
240 160
240 159
241 158
242 158
243 158
244 159
245 158
246 157
247 158
248 157
249 158
249 157
250 156
250 155
251 154
252 155
252 156
252 157
253 157
253 156
254 155
255 154
256 155
256 156
257 155
258 154
259 153
260 152
261 153
262 152
262 151
263 150
264 150
265 151
265 150
266 149
267 150
268 149
269 148
270 147
271 148
272 147
273 146
273 145
274 144
275 144
276 144
277 143
277 142
278 141
279 142
280 141
281 140
282 140
283 139
283 138
284 137
284 136
285 135
286 135
286 134
287 133
287 132
287 131
288 130
288 129
288 128
288 127
289 126
290 127
290 128
291 129
292 130
292 131
292 132
293 132
294 133
294 134
295 134
296 135
297 135
298 135
299 135
299 134
300 133
300 132
301 131
302 131
302 130
303 129
303 128
303 127
303 126
303 125
303 124
303 123
303 122
303 121
303 120
303 119
303 118
303 117
304 116
305 115
306 115
307 114
308 113
309 112
310 112
311 111
312 110
313 109
314 109
315 108
316 107
317 106
318 105
319 104
320 103
321 102
322 101
323 100
324 99
325 98
326 98
327 97
328 96
329 95
330 94
331 93
332 93
333 92
334 91
335 91
336 90
337 89
338 88
339 87
340 86
340 85
341 84
341 83
341 82
341 81
340 80
340 79
340 78
341 77
341 76
340 76
339 75
338 74
337 73
336 73
335 72
334 71
335 70
334 70
333 70
332 69
331 68
332 67
332 66
332 65
331 65
330 64
329 64
328 63
327 63
326 62
325 62
324 62
323 61
322 61
321 61
320 60
319 59
320 58
319 58
318 58
317 57
318 56
317 56
316 55
316 54
315 54
314 54
313 53
312 52
311 51
310 51
309 50
308 49
307 49
306 48
305 47
304 46
303 45
302 45
301 44
300 43
299 42
298 41
297 40
296 40
295 39
294 38
293 37
292 36
291 36
290 35
289 34
290 33
289 33
288 33
287 33
286 32
287 31
286 31
285 31
284 31
283 30
282 29
281 29
280 28
279 27
278 28
277 27
276 26
275 27
274 26
273 25
274 24
273 24
272 25
271 25
270 24
269 23
270 22
269 22
268 23
267 22
266 21
265 20
264 21
263 21
262 20
261 19
260 20
259 20
258 19
257 18
256 17
255 18
254 18
253 17
252 16
251 17
250 16
249 15
248 15
247 15
246 14
247 13
246 13
245 13
244 14
243 13
242 12
241 12
240 12
239 11
238 11
237 11
236 10
235 11
234 10
233 10
232 10
231 9
230 8
229 9
228 9
227 8
226 8
225 7
224 6
223 6
222 7
221 6
221 5
220 5
220 6
219 7
218 6
217 5
217 4
216 4
216 5
215 6
214 5
213 4
212 5
211 5
210 4
209 3
208 4
207 3
206 3
206 4
205 5
204 4
203 3
202 3
201 4
200 3
200 2
199 2
199 3
198 4
197 4
196 3
196 2
195 2
195 3
194 4
193 3
192 3
191 4
190 4
189 3
188 2
187 2
187 3
186 4
185 3
184 2
183 3
182 2
181 3
180 2
179 2
179 3
178 4
177 3
176 2
175 2
175 3
174 4
173 3
172 2
