196 4
196 5
195 6
194 6
193 6
192 6
191 6
190 5
189 5
188 5
187 6
186 7
185 6
184 6
183 6
182 6
181 7
180 7
179 6
178 6
177 5
176 5
175 6
174 7
173 6
172 6
171 5
170 5
170 6
169 7
168 7
167 6
166 6
165 6
164 7
163 7
162 7
161 7
160 6
159 6
159 7
159 8
158 9
157 9
156 8
155 8
154 7
153 7
153 8
153 9
152 10
151 11
150 11
149 10
148 9
147 9
146 9
146 10
147 11
147 12
146 13
145 13
144 13
143 13
142 13
142 14
142 15
141 16
140 16
139 16
138 16
137 16
137 17
137 18
136 19
135 19
134 19
133 19
132 19
132 20
133 21
133 22
132 23
131 23
130 23
129 22
128 22
128 23
128 24
127 25
126 25
125 25
124 25
124 26
125 27
124 28
123 28
122 28
121 28
121 29
122 30
122 31
121 32
120 32
119 32
118 32
117 32
117 33
118 34
118 35
117 36
116 36
115 36
114 36
114 37
114 38
113 39
112 40
111 40
110 40
110 41
111 42
111 43
110 44
109 45
108 45
107 45
106 45
106 46
107 47
107 48
106 49
105 49
104 49
103 49
103 50
103 51
102 52
101 53
101 54
100 55
99 56
98 56
98 57
99 58
98 59
97 60
96 60
96 61
96 62
96 63
95 64
94 65
93 65
93 66
94 67
93 68
92 69
92 70
92 71
91 72
90 72
90 73
89 74
88 74
88 75
88 76
88 77
88 78
87 79
87 80
86 81
85 81
85 82
86 83
85 84
84 84
83 84
82 85
81 85
80 85
79 85
78 85
77 85
76 85
75 85
74 85
73 85
72 85
71 85
70 85
69 84
68 84
67 84
66 84
65 84
64 83
63 83
62 83
61 83
60 83
59 82
58 82
57 81
56 81
55 81
54 80
53 80
52 80
51 79
50 79
49 79
48 78
47 78
46 78
45 77
44 77
43 76
42 76
41 76
40 75
39 75
38 75
37 74
36 74
35 74
34 74
33 73
32 73
31 73
30 73
29 73
28 72
27 72
26 72
25 72
24 71
23 71
22 71
21 71
20 71
19 71
18 71
17 71
16 72
15 72
15 73
14 74
13 75
12 76
11 77
11 78
10 79
10 80
10 81
9 82
9 83
8 84
8 85
8 86
8 87
7 88
7 89
7 90
7 91
7 92
7 93
7 94
7 95
6 96
6 97
6 98
6 99
6 100
6 101
6 102
5 103
5 104
6 105
6 106
6 107
6 108
6 109
6 110
6 111
6 112
6 113
7 114
7 115
8 116
8 117
8 118
9 119
9 120
10 121
10 122
10 123
11 124
11 125
12 126
12 127
13 128
13 129
14 130
14 131
15 132
15 133
16 133
17 134
17 135
17 136
18 136
19 137
20 138
21 139
22 140
23 140
24 141
25 140
26 141
26 142
27 143
28 143
29 143
30 143
31 144
32 143
33 142
34 142
35 141
36 141
37 140
38 140
39 139
40 139
41 138
42 138
43 137
44 137
45 136
46 136
47 135
48 135
49 134
50 134
51 133
52 133
53 132
54 131
55 131
56 130
57 130
58 129
59 128
60 128
61 127
62 127
63 126
64 125
65 124
66 124
67 123
68 123
69 122
70 121
71 121
72 120
73 120
74 119
75 119
76 118
77 118
78 117
79 117
80 116
81 116
82 116
83 116
84 115
85 115
86 115
87 115
88 115
89 115
90 115
91 114
92 114
93 115
92 116
92 117
91 118
91 119
92 119
93 120
93 121
93 122
94 122
95 122
96 123
96 124
97 124
98 125
99 126
99 127
100 127
101 127
102 128
102 129
103 130
104 131
104 132
105 132
106 133
106 134
107 135
107 136
108 136
109 136
110 136
111 137
111 138
111 139
112 139
113 139
114 140
114 141
115 141
116 141
117 142
117 143
117 144
118 144
119 145
120 146
120 147
120 148
121 148
122 148
123 148
124 149
124 150
124 151
125 151
126 151
127 152
128 153
128 154
129 153
130 154
131 155
131 156
132 156
133 156
134 157
135 158
135 159
136 159
137 159
138 160
138 161
138 162
139 162
140 162
141 163
141 164
142 164
143 165
143 166
144 166
145 166
146 166
147 167
147 168
147 169
148 168
149 168
150 168
151 169
151 170
152 170
153 170
154 171
155 172
156 172
157 172
158 172
159 173
159 174
160 174
161 173
162 173
163 173
164 173
165 174
165 175
166 175
167 175
168 174
169 174
170 175
170 176
170 177
171 176
172 175
173 175
174 175
175 176
176 175
177 175
178 176
178 177
179 176
180 175
181 175
182 174
183 175
183 176
184 175
185 174
186 174
187 174
188 175
189 174
190 174
191 174
192 174
193 175
194 174
195 173
196 173
197 173
198 174
199 174
200 173
201 172
202 172
203 173
204 173
205 172
206 171
207 171
208 171
209 172
210 171
211 170
212 170
213 171
214 170
215 169
216 170
217 169
218 168
219 168
220 169
221 168
222 167
223 168
224 167
225 166
226 167
227 166
228 166
229 166
230 166
231 165
232 164
233 165
234 164
235 163
236 163
237 163
237 162
238 161
239 161
240 160
241 159
241 158
242 157
242 156
242 155
243 154
243 153
244 152
245 152
246 151
247 151
248 150
249 150
250 150
251 149
252 149
253 149
254 148
255 148
256 147
257 147
258 146
259 146
260 147
259 148
258 149
257 150
256 151
255 152
255 153
255 154
256 155
256 156
256 157
256 158
257 159
257 160
257 161
258 162
258 163
259 164
260 165
261 165
262 165
263 164
264 165
264 164
265 163
265 162
266 161
267 160
268 160
269 159
269 158
270 157
270 156
270 155
271 154
271 153
272 152
273 152
274 151
274 150
275 149
275 148
275 147
275 146
275 145
275 144
275 143
276 142
276 141
276 140
276 139
276 138
277 137
277 136
278 135
279 135
280 134
281 133
282 133
283 132
284 131
285 131
286 130
287 129
288 129
289 128
290 128
291 127
292 126
293 125
294 125
295 124
296 123
297 123
298 122
299 121
300 121
301 120
302 119
303 119
304 118
305 117
306 116
307 116
307 115
308 114
309 114
310 113
311 112
312 112
313 111
314 110
315 109
316 108
317 107
318 106
319 105
320 104
320 103
321 102
322 101
323 101
324 100
325 99
326 98
327 97
328 96
329 95
329 94
330 93
331 92
331 91
332 90
333 89
334 88
335 87
335 86
336 85
336 84
337 83
337 82
338 81
338 80
338 79
338 78
338 77
338 76
338 75
338 74
338 73
337 72
338 71
338 70
337 70
336 70
335 69
334 69
333 69
332 68
331 68
330 67
329 67
328 67
327 66
326 66
325 66
324 65
323 65
322 65
321 64
322 63
322 62
322 61
322 60
322 59
322 58
322 57
322 56
322 55
321 55
320 56
319 56
318 55
319 54
319 53
319 52
319 51
318 51
317 52
316 53
315 53
314 52
315 51
314 51
313 50
314 49
314 48
313 48
312 49
311 49
310 49
309 48
310 47
310 46
310 45
309 44
308 44
308 45
307 46
306 46
305 45
306 44
305 44
304 43
305 42
305 41
304 41
303 41
302 42
301 42
300 41
301 40
300 40
299 39
298 40
297 39
296 38
297 37
296 37
295 36
294 37
293 36
292 35
291 34
292 33
291 33
290 34
289 34
288 33
287 32
286 31
285 30
284 31
283 30
282 29
281 28
280 28
279 29
278 28
277 27
278 26
277 26
276 25
275 26
274 26
273 26
272 25
273 24
272 24
271 23
270 23
269 24
268 23
267 23
266 22
265 21
266 20
265 20
264 20
263 21
262 21
261 21
260 20
259 19
258 18
257 17
256 18
255 19
254 18
253 17
252 16
252 15
251 15
251 16
250 17
249 16
248 16
247 15
248 14
247 14
246 14
245 15
244 15
243 15
242 14
241 13
240 13
239 14
238 14
237 13
236 12
236 11
235 11
235 12
234 13
233 12
232 11
231 10
230 9
229 9
229 10
229 11
228 12
227 11
226 10
225 9
224 9
223 8
222 8
221 9
220 9
219 9
218 8
217 7
216 6
215 6
215 7
214 8
213 8
212 8
211 8
210 7
209 6
209 5
208 5
208 6
207 7
206 7
205 7
204 6
203 5
203 4
202 4
202 5
201 6
200 7
199 6
198 6
197 5
197 4
