28 2
28 3
27 4
26 5
25 5
24 6
23 6
22 6
21 5
20 5
19 5
18 5
17 5
16 4
15 5
14 5
13 5
12 5
11 6
10 6
9 5
9 4
8 4
7 4
7 5
8 6
8 7
7 8
6 9
5 9
4 9
3 9
2 9
2 10
2 11
2 12
3 13
3 14
4 15
4 16
5 16
6 15
7 14
8 14
9 15
10 15
11 15
12 16
13 16
14 16
15 16
16 16
17 16
18 15
19 15
20 15
21 14
22 14
23 14
24 15
23 16
22 17
21 17
20 17
19 18
18 19
17 19
16 19
16 20
16 21
15 22
14 23
14 24
14 25
15 24
16 24
17 23
18 24
19 24
20 24
21 25
22 24
23 25
24 24
24 23
25 22
26 21
26 20
27 19
28 18
29 17
30 17
31 18
32 18
33 18
34 18
35 18
36 18
37 17
38 17
39 18
40 18
41 17
42 17
43 17
44 17
45 17
46 16
47 16
48 16
49 15
50 16
51 16
52 16
53 16
54 17
55 17
56 17
57 17
58 17
59 17
60 16
61 16
62 16
63 16
64 16
65 16
66 16
67 17
68 17
69 18
70 18
71 18
72 18
73 18
74 18
75 18
76 18
77 18
78 18
79 17
80 17
81 17
82 17
83 18
84 18
85 18
86 19
87 19
88 19
89 19
90 19
91 19
92 19
93 19
94 18
95 19
96 19
97 19
98 19
99 19
100 19
101 19
102 19
103 19
104 19
105 19
106 20
107 20
108 20
109 20
110 20
111 20
112 21
113 21
114 21
115 21
116 21
117 21
118 21
119 22
120 22
121 22
122 22
123 22
124 23
125 23
126 23
127 24
128 24
129 25
128 26
127 27
126 28
125 28
124 29
123 29
122 30
121 30
121 31
121 32
121 33
121 34
122 33
123 34
123 35
124 35
125 36
125 37
126 37
127 36
128 37
128 38
128 39
128 40
129 40
130 40
131 39
132 39
133 40
132 41
131 42
131 43
132 44
132 45
132 46
133 46
134 46
135 47
135 48
135 49
136 50
137 50
138 50
139 50
140 51
141 51
142 50
143 51
143 50
144 49
144 48
144 47
145 46
146 46
147 45
148 45
149 44
150 44
151 45
152 44
153 44
154 44
154 43
155 42
155 41
155 40
155 39
154 39
153 38
152 37
153 36
153 35
153 34
153 33
152 33
151 32
152 31
152 30
152 29
151 29
150 28
151 27
151 26
150 26
149 25
148 24
147 23
146 22
145 21
144 21
143 20
142 19
141 19
140 19
139 18
138 17
137 17
136 16
135 16
134 15
133 15
132 15
131 14
130 14
129 14
128 13
127 13
126 12
125 12
124 12
123 11
122 11
121 11
120 11
119 12
118 12
117 11
116 11
115 10
114 10
113 10
112 9
111 9
110 9
109 9
108 9
107 9
106 8
105 8
104 8
103 8
102 8
101 8
100 8
99 8
98 8
97 7
96 7
95 7
94 7
93 7
92 6
91 6
90 6
89 6
88 6
87 6
86 6
85 6
84 6
83 6
82 6
81 5
80 5
79 5
78 5
77 5
76 4
75 4
74 4
73 4
72 4
71 4
70 5
69 5
68 5
67 5
66 5
65 5
64 5
63 4
62 4
61 4
60 4
59 4
58 3
57 3
56 3
55 3
54 3
53 4
52 4
51 4
50 4
49 4
48 3
47 3
46 3
45 3
44 3
43 2
42 2
41 3
40 3
39 3
38 3
37 3
36 2
35 2
34 3
33 3
32 3
31 3
30 3
29 2
