158 2
157 3
156 3
155 3
154 3
153 3
152 4
151 4
150 5
149 5
148 6
147 6
146 7
145 7
144 8
143 9
143 10
142 11
141 12
140 13
139 13
138 14
137 15
136 16
135 17
134 18
133 19
132 19
131 20
130 21
129 22
128 23
127 24
126 25
125 26
124 27
123 28
122 29
121 29
120 30
119 31
118 31
118 32
117 33
116 34
115 35
114 36
113 37
112 38
111 39
110 40
109 41
108 42
107 43
107 44
106 45
105 46
104 47
103 47
102 48
102 49
101 50
100 50
99 51
98 52
97 53
96 53
95 54
95 55
94 56
93 57
92 58
91 58
90 59
90 60
89 61
88 62
87 63
86 64
85 65
84 66
83 67
82 68
81 68
80 69
79 70
78 71
78 72
77 73
76 74
75 75
74 76
74 77
73 78
72 79
71 80
70 81
69 82
69 83
68 84
67 85
67 86
66 87
66 88
66 89
66 90
66 91
66 92
66 93
66 94
67 95
66 96
65 96
64 96
63 96
62 96
61 96
60 96
59 95
58 96
57 96
56 96
55 96
54 95
53 95
52 95
51 94
52 93
51 93
50 93
49 93
48 92
47 93
46 93
45 93
44 93
43 92
42 91
41 91
40 90
39 90
38 90
37 89
36 88
35 88
34 88
33 88
32 87
33 86
32 86
31 86
30 85
29 85
28 85
27 84
26 84
25 83
24 83
23 83
22 83
21 83
20 83
19 82
18 83
17 83
16 83
16 84
15 85
14 86
13 86
12 87
11 88
11 89
10 90
9 91
9 92
8 93
8 94
7 95
6 96
5 96
5 97
5 98
5 99
5 100
5 101
4 102
4 103
4 104
4 105
3 106
3 107
3 108
3 109
3 110
3 111
3 112
3 113
3 114
3 115
3 116
2 117
2 118
2 119
3 120
3 121
3 122
3 123
3 124
3 125
4 126
4 127
4 128
3 129
3 130
4 131
5 132
5 133
6 134
6 135
7 136
7 137
8 138
9 139
9 140
10 141
10 142
11 143
11 144
12 145
13 146
14 146
15 146
16 147
17 147
18 147
19 147
20 146
21 146
22 146
23 146
24 145
25 145
26 144
27 143
28 142
29 141
30 141
31 140
32 140
33 139
34 139
35 138
36 138
37 137
38 137
39 136
40 136
41 135
42 135
43 135
44 134
45 133
46 133
47 132
48 132
49 132
50 131
51 131
52 130
53 130
54 130
55 129
56 129
57 129
58 129
59 129
60 129
61 129
62 130
63 130
64 130
65 130
66 130
67 131
68 131
69 131
70 132
71 132
72 132
73 132
74 133
73 134
73 135
72 136
72 137
72 138
72 139
72 140
73 141
73 142
74 143
74 144
75 145
76 146
76 147
77 148
78 148
79 149
80 150
81 151
82 151
83 152
84 153
85 154
86 155
87 156
88 156
89 156
90 157
90 158
91 159
92 159
93 159
94 160
94 161
95 162
96 162
97 163
98 164
99 165
100 165
101 166
102 167
103 168
104 168
105 169
106 170
106 171
107 172
108 172
109 173
110 173
111 174
112 175
113 176
114 177
115 178
116 178
117 179
118 180
119 180
120 181
121 182
122 182
123 183
124 184
125 184
126 185
127 185
128 186
128 187
129 187
130 188
131 188
132 189
133 190
134 191
134 192
135 191
136 191
137 192
138 192
139 193
140 193
141 194
142 194
143 195
144 195
145 196
146 196
147 197
148 197
149 198
150 198
151 198
152 199
153 199
154 199
155 200
156 201
157 201
158 202
159 202
160 202
161 202
162 203
163 203
164 204
165 204
166 204
167 204
168 204
169 205
170 205
171 205
172 205
173 205
174 205
175 205
176 205
177 205
178 206
179 205
180 205
181 204
182 203
183 203
184 203
185 202
186 202
187 202
188 201
189 201
190 200
191 200
192 199
193 199
194 198
195 198
196 197
197 197
198 196
199 195
200 194
201 194
202 193
203 192
204 192
205 191
206 191
207 190
208 189
209 188
210 187
211 186
212 186
212 185
213 184
214 184
215 183
216 182
217 182
217 181
218 180
219 180
220 179
221 178
222 177
222 176
223 175
223 174
223 173
224 172
225 171
226 170
226 169
227 168
228 167
228 166
229 165
229 164
230 163
230 162
231 161
232 160
233 159
234 158
235 158
236 157
237 156
238 155
239 154
240 154
241 155
240 156
240 157
239 158
239 159
239 160
238 161
238 162
238 163
237 164
237 165
236 166
236 167
236 168
236 169
237 169
238 169
239 169
240 170
241 170
242 169
243 170
244 169
245 169
245 168
246 167
246 166
247 165
247 164
248 163
248 162
248 161
248 160
248 159
248 158
248 157
248 156
248 155
248 154
249 153
249 152
249 151
249 150
249 149
249 148
249 147
249 146
250 145
251 144
251 143
252 142
253 141
254 140
254 139
255 138
256 137
257 136
257 135
258 134
259 133
260 132
261 132
262 131
263 130
264 129
265 128
266 128
267 127
268 126
269 125
270 125
271 124
272 123
272 122
273 121
274 121
275 120
276 119
276 118
277 117
278 117
278 116
279 115
280 114
281 113
281 112
282 111
282 110
283 109
283 108
283 107
284 106
284 105
285 104
285 103
285 102
286 101
286 100
286 99
287 98
287 97
286 97
285 96
284 96
283 95
282 94
281 93
280 92
279 92
278 91
277 90
276 89
275 88
276 87
276 86
275 86
274 86
273 85
272 84
271 84
270 83
269 82
268 82
267 81
266 80
265 79
264 78
263 77
264 76
264 75
263 75
262 74
261 73
262 72
261 72
260 71
259 70
258 69
257 68
256 67
257 66
256 66
255 65
254 64
253 63
252 62
251 61
250 60
249 60
248 59
247 58
246 57
245 56
244 55
243 55
242 54
241 53
240 52
239 51
238 50
237 49
236 49
235 48
234 47
233 46
232 45
231 44
230 43
231 42
230 42
229 42
228 41
227 40
226 39
225 39
224 38
223 37
222 36
221 35
220 35
219 34
218 33
217 32
216 32
215 31
214 30
213 30
212 29
211 28
210 28
209 27
208 26
207 25
206 25
205 24
204 23
203 23
202 22
201 21
200 21
199 20
198 19
197 19
196 18
195 18
194 17
193 16
192 15
191 15
190 15
189 14
188 13
187 13
186 13
185 12
184 11
183 10
182 9
181 9
180 8
179 8
178 7
177 7
176 6
175 6
174 5
173 5
172 4
171 4
170 4
169 4
168 4
167 4
166 3
165 3
164 3
163 3
162 3
161 2
160 2
159 2
