124 1
124 2
124 3
124 4
123 5
123 6
123 7
123 8
123 9
123 10
123 11
123 12
124 12
125 12
126 13
127 13
128 14
129 15
130 16
131 16
132 17
133 18
134 19
134 20
135 20
136 21
137 21
138 22
139 22
140 23
141 24
142 25
143 25
144 26
145 26
146 27
147 27
148 27
149 28
149 29
149 30
150 30
151 29
152 30
153 31
154 32
155 33
156 33
157 34
158 35
159 36
160 36
161 37
162 38
162 39
162 40
162 41
163 41
164 40
165 41
166 42
167 42
168 43
169 43
170 44
170 45
170 46
169 47
168 47
167 47
166 47
165 47
164 47
163 47
162 47
161 47
160 47
159 47
158 47
157 47
156 47
155 47
154 47
153 47
152 47
151 47
150 47
149 47
148 47
147 47
146 47
145 47
144 48
143 48
142 48
141 48
140 47
139 47
138 47
137 47
136 47
135 47
135 48
135 49
134 50
133 50
132 49
131 48
130 48
129 48
128 48
127 48
126 48
125 48
124 47
123 47
122 47
121 47
120 47
119 47
118 47
117 47
116 47
115 47
114 47
113 47
112 47
111 47
110 47
109 47
108 47
107 47
106 47
105 47
104 47
103 47
102 47
101 46
100 46
99 46
98 46
97 45
96 45
95 45
94 45
93 45
92 45
91 44
90 44
89 43
88 43
87 42
86 41
87 40
87 39
87 38
87 37
86 37
85 36
84 36
83 37
82 36
81 35
80 34
79 33
80 32
80 31
80 30
79 30
78 29
77 29
77 30
76 31
75 31
74 31
74 32
74 33
74 34
74 35
74 36
74 37
74 38
74 39
73 40
73 41
72 42
72 43
72 44
72 45
72 46
72 47
73 48
72 49
71 49
70 48
69 48
68 48
67 49
66 49
65 50
64 50
63 50
62 50
61 49
60 48
59 47
58 47
57 47
56 46
55 46
54 46
53 46
52 46
51 46
50 45
49 45
48 44
47 44
47 45
47 46
46 47
46 48
46 49
46 50
46 51
46 52
46 53
47 53
48 52
49 53
49 54
48 55
47 56
47 57
47 58
47 59
46 60
45 60
44 60
43 60
42 60
41 60
40 59
39 59
38 58
37 57
36 57
35 56
34 55
33 55
32 55
31 54
30 53
29 53
28 52
27 51
26 51
25 50
24 49
23 48
22 47
23 46
22 46
21 45
20 45
19 45
18 45
17 46
16 45
15 44
14 43
13 43
12 42
11 42
10 41
9 40
8 40
7 40
6 39
5 39
4 38
3 38
2 38
2 39
2 40
2 41
2 42
3 43
4 44
5 45
6 46
7 47
8 48
9 49
10 49
11 50
12 51
13 52
14 53
15 54
16 55
16 56
17 56
18 57
18 58
19 59
19 60
20 60
21 61
21 62
20 63
20 64
20 65
20 66
19 67
19 68
18 69
18 70
17 71
16 71
16 72
16 73
15 74
14 75
13 75
13 76
13 77
13 78
12 79
12 80
11 81
11 82
10 83
10 84
10 85
10 86
11 87
12 87
13 87
14 87
15 87
16 87
17 87
18 86
19 86
20 86
21 86
22 87
23 87
24 86
24 85
25 84
26 83
27 82
28 82
29 82
30 81
31 80
32 80
33 79
34 79
35 80
36 80
37 79
37 78
38 77
38 76
38 75
39 74
40 74
41 74
42 74
43 74
44 74
45 75
46 75
47 76
48 76
49 76
50 76
51 76
52 76
53 77
53 78
53 79
54 79
55 80
55 81
55 82
56 82
57 82
58 82
59 82
60 81
61 81
62 81
63 82
63 83
64 83
65 82
66 81
67 81
68 81
69 82
70 82
71 83
72 83
73 83
74 83
75 84
76 84
77 85
78 85
79 85
80 85
81 85
82 85
83 86
84 87
85 87
86 87
87 87
88 88
89 88
90 88
91 88
92 89
92 90
92 91
92 92
93 92
94 91
95 90
96 91
96 92
96 93
96 94
97 94
98 93
98 92
99 91
100 91
101 92
102 92
103 92
104 93
105 93
106 93
107 93
108 94
109 94
110 94
111 94
112 94
113 94
114 94
115 94
116 94
117 94
118 95
118 96
118 97
118 98
118 99
118 100
118 101
118 102
118 103
118 104
118 105
118 106
118 107
118 108
118 109
118 110
118 111
117 112
117 113
117 114
117 115
117 116
117 117
117 118
118 118
119 119
119 120
119 121
120 121
121 121
122 120
123 120
124 120
125 119
126 118
127 118
128 117
129 116
130 116
131 115
131 114
132 113
133 112
134 111
134 110
135 109
135 108
136 107
136 106
137 105
138 104
139 103
140 102
141 101
142 101
143 100
143 99
144 98
145 97
146 96
147 96
148 96
149 96
150 95
151 95
152 95
153 95
154 95
155 95
156 95
157 95
158 95
159 95
160 96
161 96
162 96
163 96
164 95
165 94
166 94
167 94
168 94
169 94
170 94
171 94
172 94
173 94
174 94
175 94
176 95
177 95
178 95
179 95
180 95
181 94
182 95
183 95
184 95
185 94
186 95
187 95
188 95
189 95
190 95
191 95
192 96
193 96
194 96
195 96
196 96
197 96
198 97
199 97
200 97
201 97
202 98
203 98
204 98
205 98
206 99
207 99
208 99
209 99
210 99
211 99
212 100
213 101
213 102
213 103
214 104
215 105
216 106
216 107
216 108
217 108
218 109
218 110
218 111
218 112
218 113
218 114
218 115
219 115
220 116
220 117
220 118
220 119
221 120
221 121
221 122
221 123
221 124
222 125
222 126
222 127
221 128
221 129
221 130
221 131
222 132
222 133
222 134
222 135
222 136
223 137
223 138
223 139
223 140
223 141
224 141
225 141
226 141
227 141
228 141
229 141
230 141
231 141
232 140
233 140
234 139
235 138
236 138
237 137
237 136
238 135
239 134
240 133
240 132
241 131
241 130
241 129
241 128
241 127
241 126
241 125
242 124
242 123
242 122
243 121
243 120
244 119
244 118
244 117
244 116
244 115
245 114
245 113
245 112
245 111
245 110
245 109
245 108
245 107
245 106
246 105
247 105
248 105
249 104
250 103
251 103
252 103
253 102
254 102
255 102
256 102
257 102
258 102
259 103
260 103
261 104
262 104
263 104
264 103
265 104
265 105
266 105
267 104
267 103
268 102
269 102
270 102
271 102
272 102
273 102
274 102
275 102
276 102
277 102
278 102
279 102
280 101
281 101
282 101
283 101
284 101
285 101
286 100
287 99
288 99
289 99
290 99
291 99
292 98
293 98
294 97
295 97
296 97
297 97
298 97
299 96
300 96
301 96
302 97
302 98
302 99
302 100
303 100
304 99
304 98
305 97
305 96
306 95
307 95
308 95
309 95
310 95
311 95
312 95
313 94
314 94
315 94
316 94
317 94
318 94
319 94
320 93
321 93
322 93
323 93
324 92
325 92
326 92
327 91
328 91
329 91
330 91
331 91
332 90
333 89
334 88
335 88
336 88
337 87
338 87
339 86
339 85
340 84
340 83
340 82
340 81
340 80
339 80
338 79
339 78
339 77
338 77
337 76
336 76
335 76
334 75
333 75
332 74
331 74
330 74
329 73
328 73
327 72
326 72
325 71
324 71
323 71
322 71
321 70
320 70
319 70
318 70
317 69
316 69
315 69
314 69
313 68
312 67
311 67
310 66
309 66
308 66
307 66
306 65
305 64
304 64
303 64
302 64
301 64
300 65
299 65
298 65
297 64
298 63
297 63
296 62
295 61
294 60
293 60
292 59
291 59
290 58
289 58
288 58
287 57
286 56
285 56
284 57
283 56
282 55
281 54
280 54
279 53
278 53
277 53
277 54
277 55
276 56
275 57
274 57
273 56
274 55
273 55
272 54
271 54
270 54
269 54
268 54
268 55
267 56
266 56
265 56
264 55
263 54
262 54
261 54
260 54
259 53
258 53
257 53
256 53
255 52
254 51
253 50
254 49
253 49
252 48
251 47
250 47
249 47
249 48
248 49
247 49
246 49
245 48
246 47
245 47
244 46
243 46
242 46
241 46
240 46
239 45
238 45
237 45
236 46
235 46
234 46
233 46
232 46
231 46
230 46
229 46
228 46
227 47
226 47
225 47
224 47
223 48
222 48
221 48
220 48
219 48
218 48
217 48
216 48
215 47
214 47
213 46
212 46
211 46
210 45
209 44
208 43
207 43
206 42
205 41
204 40
203 39
202 38
203 37
202 37
201 36
200 36
199 36
198 36
197 36
196 35
195 34
194 34
193 34
192 33
191 32
190 31
189 31
188 30
187 29
186 29
185 28
186 27
186 26
185 26
184 25
183 25
183 26
182 27
181 26
180 26
179 25
178 25
177 24
176 24
175 24
174 23
173 23
172 23
171 22
170 21
169 21
168 20
167 20
166 20
165 19
164 19
163 18
162 17
161 17
160 17
159 16
158 16
157 15
156 14
155 13
156 12
155 12
154 11
153 11
153 12
152 13
151 12
150 11
149 10
148 10
147 10
146 10
145 9
146 8
145 8
144 7
143 7
142 8
141 8
140 8
139 8
138 7
137 7
136 6
135 6
134 6
133 5
132 5
131 5
130 5
129 5
128 4
127 4
126 3
127 2
126 2
125 1
