115 2
114 3
113 4
112 4
111 5
110 5
109 6
108 7
107 7
106 8
105 9
104 9
103 10
103 11
102 12
101 13
100 14
99 14
99 15
98 16
97 17
96 18
96 19
95 20
94 21
94 22
93 23
93 24
92 25
91 26
91 27
90 28
89 28
88 29
87 30
86 31
85 31
84 31
83 31
82 31
81 31
80 31
79 31
78 31
77 31
76 31
75 31
74 31
73 32
72 32
71 32
70 32
69 32
68 32
67 32
66 32
65 32
64 32
63 33
62 33
61 33
60 33
59 33
58 33
57 33
56 34
55 34
54 34
53 34
52 34
51 34
50 34
49 35
48 35
47 35
46 36
45 36
44 37
43 37
42 37
41 37
40 37
39 38
38 38
37 38
36 38
35 39
34 39
33 39
32 39
31 40
30 41
29 41
28 41
27 42
26 42
25 42
24 43
23 43
22 43
21 44
20 44
19 44
18 44
17 45
16 45
15 45
14 46
13 46
12 46
11 47
10 47
9 47
8 48
7 48
6 48
5 49
4 50
3 50
2 51
2 52
2 53
2 54
2 55
2 56
3 56
4 56
5 57
6 58
7 58
8 59
9 60
10 61
11 62
12 63
13 64
14 64
15 64
16 65
17 65
18 66
19 66
20 66
21 67
22 67
23 67
24 67
25 68
26 69
27 69
28 70
29 70
30 70
31 71
32 71
33 71
34 71
35 72
36 72
37 72
38 72
39 73
40 74
41 75
42 75
43 75
44 76
45 76
46 76
47 77
48 77
49 77
50 78
51 79
52 80
53 80
54 80
55 81
56 81
57 81
58 81
59 82
60 82
61 82
62 82
63 83
64 83
65 83
66 83
67 84
68 84
69 85
69 86
69 87
69 88
69 89
69 90
69 91
70 92
70 93
70 94
70 95
71 96
71 97
71 98
71 99
72 100
72 101
72 102
72 103
72 104
73 105
73 106
73 107
73 108
73 109
74 110
74 111
74 112
74 113
75 114
75 115
76 116
76 117
76 118
77 119
77 120
77 121
78 122
79 123
79 124
80 125
80 126
81 127
81 128
82 128
83 129
84 129
85 129
85 128
86 127
86 126
87 125
87 124
87 123
87 122
87 121
87 120
87 119
87 118
87 117
87 116
87 115
88 114
88 113
88 112
88 111
88 110
88 109
89 108
89 107
89 106
89 105
89 104
90 103
90 102
90 101
90 100
91 99
91 98
91 97
91 96
91 95
92 94
92 93
93 92
94 91
95 91
96 91
97 91
98 91
99 92
100 92
101 92
102 92
103 92
104 92
105 92
106 92
107 92
108 92
109 92
110 91
111 91
112 91
113 91
114 91
115 91
116 91
117 91
118 91
119 91
120 91
121 91
122 91
123 91
124 90
125 90
126 90
127 90
128 90
129 90
130 90
131 89
132 89
133 89
134 89
135 89
136 89
137 88
138 88
139 87
140 87
141 87
142 86
143 86
144 86
145 86
146 86
147 86
148 85
149 85
150 85
151 85
152 86
153 86
154 86
155 86
156 87
157 88
158 89
159 89
160 89
161 89
162 89
163 89
163 88
164 87
164 86
165 85
166 84
167 83
168 83
168 82
169 81
170 81
171 81
172 80
173 80
174 80
175 80
176 80
177 79
178 79
179 79
180 78
181 77
182 77
183 77
184 77
185 77
186 78
187 78
188 79
189 80
190 80
191 81
192 81
193 81
194 81
195 81
196 80
197 79
198 78
198 77
199 76
199 75
200 74
201 74
202 74
203 74
204 74
205 74
206 74
207 74
208 74
209 74
210 74
211 74
212 73
213 73
214 73
215 74
216 75
217 76
218 77
219 78
219 79
220 80
220 81
221 82
221 83
222 84
223 85
224 86
224 87
225 88
225 89
226 90
227 91
228 92
228 93
229 94
229 95
230 96
231 97
232 98
232 99
233 100
234 101
235 102
236 103
237 104
238 104
239 105
240 106
240 107
241 108
242 108
243 109
244 109
245 110
246 110
247 110
248 110
249 109
249 108
248 107
249 106
249 105
249 104
249 103
248 103
247 102
248 101
248 100
248 99
247 99
246 98
247 97
247 96
247 95
247 94
246 94
245 93
246 92
246 91
246 90
245 90
244 89
245 88
245 87
245 86
245 85
245 84
244 84
243 83
244 82
244 81
244 80
244 79
244 78
244 77
244 76
244 75
244 74
244 73
244 72
244 71
245 70
245 69
245 68
245 67
246 66
247 65
247 64
248 63
249 63
250 62
250 61
251 60
251 59
252 58
253 57
254 57
255 56
255 55
256 54
257 53
258 52
259 51
260 51
261 50
261 49
262 48
263 48
264 47
265 46
266 46
267 45
268 45
269 44
270 44
271 44
272 44
272 43
273 42
274 41
274 40
275 39
276 38
277 37
278 36
278 35
279 34
280 34
281 33
281 32
280 31
279 31
278 31
277 31
276 31
275 31
274 31
273 31
272 32
271 32
270 32
269 32
268 32
267 32
266 33
265 33
264 33
263 33
262 34
261 34
260 34
259 34
258 35
257 35
256 36
255 37
254 37
253 37
252 38
251 38
250 38
249 39
248 39
247 40
246 40
245 41
244 42
243 42
242 43
241 43
240 44
239 44
238 45
237 45
236 46
235 47
234 47
233 48
232 48
231 49
231 50
230 51
229 51
228 52
227 53
226 53
226 54
225 55
224 56
223 57
222 57
221 58
220 58
220 59
219 60
218 61
217 61
216 61
215 62
214 62
213 62
212 62
211 62
210 61
209 61
208 61
207 61
206 60
205 60
204 60
203 59
202 59
201 58
202 57
202 56
201 56
200 55
199 54
198 53
197 52
196 52
195 51
194 51
193 51
192 52
191 52
190 52
189 52
188 53
187 53
186 53
185 53
184 52
183 52
182 51
181 51
180 51
179 50
178 50
177 49
176 48
175 48
174 48
173 47
172 47
171 47
170 46
169 46
168 46
167 45
166 45
165 45
164 44
163 44
162 44
161 44
160 43
159 43
158 43
157 42
156 42
155 42
154 42
153 41
152 41
151 40
150 40
149 39
148 39
147 39
146 39
145 38
144 38
143 38
142 38
141 38
140 37
139 37
138 37
137 37
136 37
135 37
134 37
133 36
132 36
131 36
130 35
129 35
128 35
127 34
128 33
129 33
130 33
131 32
131 31
130 30
129 29
128 28
127 28
126 27
125 27
124 26
123 25
122 24
121 23
120 22
121 21
121 20
120 20
119 19
120 18
120 17
120 16
120 15
120 14
119 14
118 13
119 12
119 11
119 10
119 9
119 8
119 7
119 6
119 5
119 4
118 4
117 3
118 2
117 2
116 2
