129 1
128 2
127 2
126 3
125 3
124 4
123 5
122 5
122 6
121 7
120 8
119 9
118 9
117 10
117 11
116 12
115 13
114 14
113 15
112 16
112 17
111 18
110 19
109 20
108 20
107 21
106 22
105 23
104 24
103 24
102 24
101 24
100 24
99 24
98 24
97 24
96 24
95 24
94 24
93 24
92 24
91 24
90 24
89 24
88 24
87 24
86 24
85 24
84 24
83 24
82 24
81 24
80 24
79 24
78 24
77 24
76 24
75 24
74 24
73 24
72 24
71 24
70 24
69 24
68 24
67 24
66 24
65 24
64 24
63 24
62 24
61 24
60 24
59 24
58 24
57 24
56 24
55 24
54 24
53 24
52 24
51 24
50 24
49 24
48 24
47 24
46 24
45 24
44 24
43 24
42 24
41 24
40 24
39 24
38 24
37 24
36 24
35 24
34 24
33 24
32 24
31 24
30 24
29 24
28 25
27 25
26 25
25 25
24 25
23 25
22 25
21 25
20 25
19 25
18 25
17 25
16 26
15 26
14 26
13 26
12 26
11 26
10 27
9 27
8 27
7 27
6 27
5 27
4 27
3 28
2 29
2 30
2 31
2 32
3 33
4 33
5 34
6 35
7 36
8 37
9 37
10 38
11 38
12 39
13 39
14 40
15 41
16 41
17 41
18 42
19 43
20 43
21 44
22 44
23 45
24 46
24 47
24 48
25 48
26 49
27 50
28 51
29 51
30 51
31 51
32 51
33 52
34 52
35 52
36 52
37 52
38 52
39 53
40 53
41 53
42 53
43 53
44 53
45 53
46 53
47 54
48 54
49 54
50 54
51 55
52 55
53 55
54 56
55 56
56 56
57 56
58 56
59 57
60 57
61 57
62 57
63 57
64 58
65 58
66 58
67 58
68 58
69 58
70 58
71 58
72 59
73 59
74 59
75 60
76 61
77 62
77 63
77 64
78 65
78 66
78 67
78 68
79 69
79 70
79 71
80 72
80 73
80 74
80 75
81 75
82 76
82 77
82 78
83 79
83 80
83 81
84 82
84 83
85 84
85 85
86 86
86 87
87 88
87 89
88 90
88 91
89 92
89 93
90 94
91 95
91 96
92 97
93 98
94 99
94 100
95 101
95 102
96 103
96 104
97 105
98 106
98 107
99 108
99 109
100 110
101 111
102 112
102 113
103 114
104 115
105 116
106 117
107 118
108 118
109 118
110 118
111 117
112 116
112 115
113 114
113 113
113 112
114 111
114 110
114 109
114 108
115 107
115 106
115 105
115 104
115 103
115 102
115 101
115 100
115 99
114 99
113 98
114 97
114 96
113 96
112 95
113 94
112 94
111 93
112 92
112 91
111 91
110 90
111 89
110 89
109 88
110 87
110 86
110 85
109 85
108 84
109 83
108 83
107 82
108 81
108 80
107 80
106 79
107 78
106 78
105 77
106 76
105 76
104 75
105 74
105 73
105 72
105 71
105 70
104 70
103 69
104 68
104 67
104 66
104 65
103 65
102 64
103 63
103 62
104 61
105 61
106 61
107 61
108 61
109 61
110 61
111 61
112 61
113 61
114 61
115 61
116 61
117 61
118 61
119 61
120 62
121 62
122 62
123 62
124 62
125 62
126 62
127 62
128 61
129 61
130 61
131 61
132 61
133 61
134 61
135 61
136 61
137 61
138 61
139 60
140 60
141 60
142 60
143 60
144 60
145 60
146 60
147 59
148 59
149 59
150 59
151 59
152 59
153 59
154 58
155 58
156 58
157 58
158 58
159 58
160 59
161 60
162 61
163 62
164 63
165 63
166 63
167 62
168 62
169 62
170 61
171 61
172 61
173 61
174 60
175 60
176 60
177 60
178 59
179 59
180 59
181 58
182 57
182 56
181 55
182 54
183 54
184 53
185 53
186 53
187 53
188 53
189 53
190 53
191 53
192 53
193 53
194 53
195 53
196 53
197 53
198 53
199 53
200 53
201 53
202 53
203 54
204 54
205 55
206 56
207 56
208 56
209 55
210 54
211 53
212 53
213 52
213 51
214 50
215 49
216 48
217 48
218 48
219 48
220 48
221 47
222 47
223 47
224 47
225 48
226 49
226 50
227 51
228 52
229 53
230 54
231 55
231 56
232 57
233 57
234 58
235 59
236 60
237 61
238 62
239 63
240 64
241 65
242 66
243 67
244 67
245 68
246 69
246 70
247 70
248 71
249 71
250 72
251 72
252 73
253 74
253 75
254 75
255 76
256 76
257 76
258 77
259 77
260 77
261 76
261 75
262 74
262 73
262 72
261 72
260 71
261 70
260 70
259 69
260 68
259 68
258 67
259 66
258 66
257 65
256 64
257 63
257 62
256 62
255 61
254 60
255 59
254 59
253 58
252 57
253 56
252 56
251 55
252 54
251 54
250 53
251 52
250 52
249 51
250 50
250 49
249 49
248 48
249 47
249 46
249 45
250 44
251 43
252 42
253 41
254 41
255 40
256 39
257 39
258 38
259 37
260 36
261 35
262 34
263 33
264 33
265 32
266 32
267 31
268 30
269 29
270 28
271 28
272 28
273 28
274 28
275 28
276 28
277 27
278 27
278 26
279 25
280 24
281 24
282 24
283 23
284 23
285 22
286 22
287 22
288 22
289 21
290 20
290 19
289 18
288 18
287 17
286 17
285 17
284 16
283 16
282 16
281 16
280 16
279 16
278 16
277 16
276 16
275 17
274 17
273 17
272 17
271 17
270 17
269 17
268 17
267 17
266 17
265 17
264 18
263 18
262 18
261 18
260 18
259 19
258 19
257 19
256 19
255 19
254 20
253 20
252 20
251 20
250 21
249 21
248 22
247 22
246 22
245 23
244 23
243 23
242 24
241 24
240 25
239 26
238 27
237 27
236 28
235 29
234 30
233 31
232 32
232 33
231 34
230 35
230 36
229 37
228 37
227 38
226 39
225 39
224 39
223 39
222 38
221 38
220 38
219 38
218 38
217 38
216 38
215 38
214 38
213 38
212 38
211 38
210 38
209 38
208 38
207 37
208 36
208 35
207 35
206 35
205 34
204 33
203 33
202 33
201 33
200 33
199 34
198 34
197 34
196 34
195 34
194 34
193 34
192 34
191 34
190 34
189 33
188 33
187 33
186 33
185 32
184 32
183 32
182 32
181 32
180 32
179 31
178 31
177 31
176 31
175 31
174 30
173 30
172 30
171 30
170 30
169 29
168 29
167 29
166 29
165 29
164 29
163 29
162 29
161 29
160 29
159 29
158 29
157 29
156 29
155 29
154 28
153 28
152 28
151 28
150 28
149 28
148 28
147 28
146 28
145 28
144 28
143 28
142 28
141 27
140 27
139 27
138 26
137 25
136 24
135 23
134 22
133 21
132 20
131 19
132 18
132 17
132 16
132 15
132 14
132 13
132 12
132 11
132 10
132 9
133 8
133 7
133 6
133 5
133 4
133 3
132 3
131 2
130 2
