187 4
187 5
186 6
185 5
184 5
183 5
182 5
181 5
180 5
179 5
178 5
178 6
177 7
176 6
175 6
174 6
173 6
172 6
171 6
170 6
169 6
168 6
167 6
166 6
166 7
165 8
164 7
163 7
162 7
161 7
160 7
159 7
158 7
157 7
157 8
156 9
155 8
154 8
153 8
152 8
151 8
150 8
149 8
149 9
148 10
147 9
147 10
146 11
145 10
145 11
144 12
143 11
142 11
141 11
141 12
140 13
139 12
138 12
137 12
136 12
136 13
135 14
134 13
133 13
132 13
131 13
131 14
130 15
129 14
128 14
127 14
127 15
126 16
125 15
124 15
123 15
123 16
122 17
121 16
120 16
119 16
118 16
117 16
116 16
115 16
114 16
113 16
112 16
111 16
110 16
110 17
109 18
108 17
107 17
106 17
105 17
104 17
103 17
102 17
101 17
100 17
100 18
99 19
98 18
97 18
96 18
95 18
94 18
94 19
93 20
92 19
91 19
90 19
89 19
88 19
87 19
86 19
85 19
84 19
83 19
82 19
81 19
81 20
80 21
79 20
78 20
77 20
76 20
75 20
74 20
73 20
72 20
71 20
70 20
69 20
68 20
67 20
66 20
65 20
64 20
63 20
62 20
61 20
60 20
59 20
58 20
58 21
57 22
56 21
55 21
54 21
53 21
52 21
51 21
50 21
49 21
48 21
47 21
46 21
45 21
44 21
43 21
42 21
41 21
41 22
40 23
39 22
38 22
37 22
36 22
35 22
34 22
33 22
33 23
32 24
31 23
30 23
29 23
28 23
27 23
27 24
26 25
25 24
24 24
23 24
22 24
21 24
20 24
20 25
19 26
18 25
17 25
16 25
15 25
14 25
13 25
12 25
11 25
10 25
9 25
8 25
7 25
6 25
5 25
4 25
4 26
3 27
2 28
2 29
2 30
2 31
2 32
2 33
2 34
3 34
4 35
5 36
6 37
7 37
8 37
9 37
10 38
11 38
12 38
13 38
14 39
15 39
16 39
17 40
18 40
19 40
20 40
21 40
22 40
23 40
24 39
25 39
26 39
27 39
28 39
29 40
30 40
31 40
32 40
33 40
34 40
35 40
36 40
37 40
38 40
39 40
40 40
41 40
42 40
43 40
44 40
45 40
46 40
47 40
48 40
49 40
50 40
51 40
52 40
53 40
54 40
55 40
56 41
57 41
58 41
59 41
60 41
61 41
62 41
63 41
64 41
65 41
66 41
67 42
68 42
69 42
70 42
71 42
72 42
73 42
74 42
75 42
76 42
77 42
78 42
79 42
80 42
81 42
82 42
83 42
84 42
85 42
86 42
87 42
88 42
89 43
90 43
91 43
92 43
93 42
94 42
95 42
96 42
97 42
98 42
99 42
100 42
101 42
102 42
103 42
104 42
105 42
106 42
107 42
108 42
109 42
110 42
111 42
112 42
113 42
114 42
115 42
116 42
117 42
118 42
119 42
120 42
121 42
122 42
123 42
124 42
125 42
126 42
127 42
128 42
129 42
130 42
131 42
132 41
133 41
134 41
135 41
136 41
137 41
138 41
139 41
140 41
141 41
142 41
143 41
144 41
145 41
146 40
147 40
148 40
149 40
150 40
151 40
152 40
153 40
154 40
155 40
156 40
157 40
158 40
159 40
160 40
161 39
162 39
163 39
164 39
165 39
166 39
167 39
168 39
169 39
170 38
171 38
172 38
173 38
174 38
175 38
176 38
177 38
178 38
179 38
180 38
181 38
182 37
183 37
184 37
185 37
186 37
187 37
188 37
189 37
190 37
191 37
192 37
193 37
194 37
195 37
196 37
197 37
198 37
199 37
200 37
201 37
202 37
203 37
204 38
205 38
206 38
207 38
208 38
209 38
210 38
211 38
212 38
213 38
214 38
215 38
216 39
217 39
218 39
219 39
220 39
221 39
222 39
223 39
224 40
225 40
226 40
227 40
228 40
229 40
230 40
231 40
232 41
233 41
234 41
235 41
236 41
237 41
238 41
239 42
240 42
241 42
242 42
243 42
244 42
245 43
246 43
247 43
248 43
249 43
250 43
251 44
252 44
253 44
254 44
255 45
256 45
257 45
258 45
259 46
260 46
261 46
262 46
263 45
264 45
265 46
266 46
267 46
268 46
269 46
270 46
271 46
272 46
273 46
274 46
275 47
276 47
277 47
278 47
279 47
280 47
281 47
282 47
283 47
284 47
285 47
286 47
287 47
288 47
289 47
290 47
291 47
292 46
293 46
294 46
295 46
295 45
295 44
295 43
295 42
295 41
294 40
293 39
293 38
292 37
291 36
290 35
289 34
288 33
287 33
286 32
285 31
284 30
283 29
282 29
281 28
280 28
279 27
278 27
277 27
276 26
275 26
274 25
273 25
272 24
271 23
270 23
269 22
268 22
267 21
266 21
265 21
264 20
263 20
262 19
261 19
260 18
259 18
258 18
257 17
256 17
255 16
254 16
253 16
252 16
251 16
250 15
249 15
248 14
247 14
246 13
245 13
244 13
243 13
242 13
241 12
240 12
239 12
238 12
237 11
236 11
235 11
234 11
233 10
232 10
231 9
230 9
229 8
228 8
227 8
226 8
225 7
224 7
223 7
222 7
221 7
220 7
219 7
218 7
217 7
216 6
215 6
214 6
213 6
212 6
211 6
210 6
209 6
208 6
207 6
206 5
205 5
204 5
203 5
202 4
201 4
200 4
199 4
198 4
197 4
196 4
195 4
194 4
193 4
192 4
191 4
190 4
189 4
188 4
