61 2
61 3
61 4
60 5
60 6
59 7
58 8
58 9
57 10
56 11
55 11
55 12
55 13
55 14
55 15
55 16
54 17
53 17
52 17
52 18
52 19
52 20
53 21
52 22
52 23
51 24
50 25
49 25
48 25
48 26
48 27
48 28
49 29
48 30
47 30
46 30
46 31
46 32
47 33
47 34
48 35
48 36
47 37
47 38
46 39
45 38
44 38
44 39
44 40
44 41
45 42
45 43
45 44
45 45
45 46
45 47
45 48
44 49
43 49
43 50
43 51
43 52
43 53
44 54
44 55
44 56
44 57
44 58
44 59
43 60
43 61
43 62
43 63
43 64
43 65
43 66
42 67
41 67
40 67
39 67
38 66
37 65
36 64
37 63
37 62
36 62
35 61
36 60
36 59
36 58
36 57
36 56
36 55
36 54
36 53
36 52
35 51
35 50
34 49
35 48
35 47
35 46
35 45
35 44
35 43
35 42
35 41
35 40
35 39
35 38
34 38
33 37
34 36
34 35
34 34
34 33
34 32
33 32
32 31
33 30
33 29
33 28
32 28
31 27
32 26
32 25
31 25
30 24
31 23
30 23
29 22
28 21
27 20
26 19
25 18
24 17
23 17
22 16
21 16
20 16
19 16
18 16
17 16
16 16
15 16
14 17
13 17
12 18
11 19
10 18
9 18
9 19
9 20
9 21
10 21
11 22
11 23
12 23
13 24
14 25
14 26
15 26
16 25
17 26
18 27
19 26
19 25
18 24
19 23
19 22
19 21
20 20
21 20
22 20
23 21
24 21
25 22
26 23
27 24
28 25
28 26
29 27
29 28
30 29
30 30
31 31
31 32
31 33
31 34
31 35
32 36
32 37
32 38
32 39
32 40
32 41
32 42
32 43
33 44
33 45
33 46
32 47
32 48
33 49
33 50
33 51
33 52
33 53
33 54
33 55
33 56
33 57
33 58
33 59
33 60
33 61
33 62
33 63
34 64
34 65
34 66
33 67
32 67
31 67
30 67
29 67
28 66
27 67
26 67
25 67
24 68
23 68
23 69
23 70
24 70
25 71
25 72
25 73
24 74
24 75
24 76
24 77
24 78
24 79
24 80
24 81
24 82
24 83
24 84
23 85
23 86
24 87
24 88
25 89
25 90
24 91
23 91
22 90
21 90
20 89
19 89
18 89
17 88
16 88
15 88
14 87
15 86
14 86
13 86
12 85
11 84
10 84
10 85
9 86
8 86
7 86
6 86
5 86
4 87
3 88
2 88
2 89
2 90
2 91
2 92
2 93
2 94
2 95
3 96
4 97
4 98
5 98
6 98
7 99
7 100
8 100
9 100
10 101
10 102
9 103
9 104
10 104
11 104
12 105
12 106
13 107
13 108
14 108
15 108
16 109
16 110
16 111
17 111
18 110
19 111
20 112
21 112
21 111
22 110
23 109
24 109
25 110
25 111
25 112
26 112
27 111
28 110
29 110
30 111
30 112
30 113
31 113
32 112
33 112
34 112
34 111
35 110
35 109
36 108
37 108
38 109
37 110
37 111
37 112
38 112
39 113
39 114
40 113
41 112
41 111
42 110
43 110
44 110
45 110
46 110
47 110
48 110
49 110
50 111
51 111
52 111
53 111
54 111
55 112
56 112
57 112
58 112
59 112
60 112
61 112
62 112
63 112
64 112
65 112
66 112
67 112
68 112
69 113
70 113
71 113
72 112
73 112
74 113
75 113
76 113
77 113
78 112
79 112
80 112
81 112
82 112
83 112
84 112
85 112
86 112
87 112
88 113
89 113
90 112
91 112
92 112
93 112
94 112
95 112
96 112
97 112
98 112
99 112
100 112
101 112
102 112
103 112
104 112
105 111
106 111
107 111
108 111
109 111
110 111
111 111
112 111
113 111
114 111
115 111
116 111
117 111
118 110
119 111
120 112
120 113
120 114
120 115
120 116
120 117
120 118
120 119
120 120
120 121
121 122
121 123
121 124
122 125
122 126
122 127
123 128
124 129
125 130
126 131
127 132
128 133
129 133
130 133
131 133
132 133
133 133
134 133
135 132
136 133
137 132
138 132
139 132
140 131
141 130
142 129
143 129
144 128
145 128
146 128
147 127
148 127
149 126
150 126
151 127
152 126
153 126
154 125
155 124
156 124
157 123
158 123
159 122
159 121
160 120
160 119
161 118
161 117
162 116
162 115
163 114
163 113
163 112
163 111
163 110
164 109
164 108
165 107
165 106
165 105
166 104
167 104
168 103
169 103
170 103
171 103
172 103
173 103
174 103
175 103
176 103
177 102
178 102
179 102
180 102
181 102
182 102
183 101
184 101
185 101
186 101
187 101
188 101
189 100
190 100
191 100
192 100
193 99
194 99
195 99
196 99
197 99
198 98
199 98
200 98
201 98
202 98
203 98
204 98
205 98
206 97
207 97
208 97
209 97
210 97
211 97
212 97
213 97
214 97
215 97
216 97
217 97
218 97
219 97
220 97
221 98
222 98
223 98
224 98
225 99
226 99
227 99
228 99
229 99
230 100
231 100
232 100
233 101
234 101
235 101
236 101
237 102
238 102
239 102
240 103
241 103
242 103
243 103
244 103
245 104
246 104
247 104
248 104
249 104
250 103
251 103
252 103
253 102
254 102
255 101
256 100
257 99
258 99
259 98
260 97
261 96
262 95
263 94
264 93
264 92
265 91
265 90
265 89
264 88
265 87
266 87
267 87
268 87
269 87
270 86
271 86
272 86
273 86
274 86
275 86
276 86
277 86
278 86
279 86
280 86
281 86
282 86
283 86
284 86
285 86
286 86
287 86
288 86
289 86
290 86
291 86
292 87
293 87
294 87
295 87
296 87
297 87
298 87
299 88
300 88
301 88
302 88
303 88
304 89
305 89
306 89
307 89
308 89
309 89
310 90
311 90
312 90
313 91
314 91
315 91
316 92
317 92
318 92
319 92
320 92
321 92
322 92
323 92
324 91
325 90
325 89
326 88
326 87
327 86
327 85
327 84
328 83
328 82
329 81
329 80
329 79
329 78
329 77
329 76
329 75
329 74
328 73
329 72
329 71
329 70
329 69
329 68
329 67
329 66
329 65
329 64
329 63
328 63
327 62
328 61
327 61
326 60
325 59
324 59
323 58
322 58
321 58
320 58
319 58
318 59
317 58
316 59
315 59
314 59
313 59
312 59
311 59
310 59
309 60
308 60
307 60
306 60
305 61
304 61
303 61
302 62
301 62
300 62
299 63
298 63
297 64
296 64
295 64
294 65
293 65
292 65
291 66
290 66
289 66
288 67
287 67
286 68
285 68
284 68
283 69
282 69
281 70
280 70
279 70
278 71
277 71
276 71
275 71
274 71
273 72
272 72
271 72
270 72
269 72
268 72
267 72
266 72
265 71
266 70
267 69
268 68
269 67
270 66
270 65
271 64
271 63
270 63
269 62
270 61
270 60
269 60
268 59
269 58
268 58
267 57
268 56
267 56
266 55
267 54
266 54
265 53
264 52
263 52
262 51
263 50
262 50
261 50
260 49
259 49
258 49
257 49
256 49
255 49
254 49
253 50
252 50
251 50
250 50
249 50
248 50
247 50
246 51
245 51
244 51
243 51
242 52
241 52
240 52
239 52
238 53
237 53
236 53
235 54
234 54
233 54
232 55
231 55
230 56
229 56
228 56
227 57
226 57
225 58
224 58
223 59
222 59
221 59
220 60
219 60
218 61
217 61
216 62
215 62
214 63
213 63
212 64
211 64
210 65
209 65
208 66
207 66
206 66
205 67
204 67
203 67
202 67
201 66
200 66
199 66
198 66
197 66
196 66
195 66
194 66
193 66
192 65
191 65
190 65
189 65
188 65
187 65
186 65
185 65
184 65
183 65
182 64
181 64
180 64
179 64
178 64
177 64
176 63
177 62
176 62
175 61
176 60
176 59
177 58
178 57
179 56
180 55
181 54
182 54
183 54
183 53
183 52
184 51
185 51
186 50
186 49
187 48
187 47
187 46
187 45
186 45
185 45
184 46
183 47
182 48
181 48
180 48
179 49
178 49
177 50
177 51
177 52
176 53
175 54
174 55
173 56
172 57
171 58
170 59
169 60
168 60
167 61
166 61
165 60
166 59
165 58
165 57
166 56
166 55
166 54
166 53
167 52
167 51
168 50
169 49
170 49
170 48
171 47
172 46
173 46
173 45
174 44
175 44
176 44
177 43
177 42
176 41
177 40
178 39
179 39
180 38
181 37
181 36
182 35
181 35
180 36
179 36
178 36
177 36
177 37
176 38
175 39
174 39
173 39
172 39
172 40
172 41
171 42
170 43
169 43
168 43
167 44
167 45
166 46
165 47
165 48
164 49
163 49
162 50
161 51
160 52
159 53
158 54
157 55
156 55
155 54
155 53
155 52
155 51
155 50
155 49
156 48
156 47
156 46
157 45
158 44
158 43
159 42
160 42
161 41
162 40
163 39
164 39
165 38
165 37
166 36
167 36
168 36
168 35
169 34
170 33
171 33
171 32
171 31
170 31
169 31
168 32
167 33
166 33
165 34
164 35
163 35
162 35
161 36
161 37
160 38
159 38
158 39
157 40
156 41
155 42
154 43
153 44
152 45
151 46
150 47
150 48
149 49
148 50
148 51
147 52
146 53
145 54
144 55
144 56
143 57
142 58
142 59
141 60
140 61
139 62
138 63
137 64
136 64
135 64
134 64
133 64
132 63
132 62
131 62
131 63
130 64
129 64
128 65
127 65
126 65
125 65
124 65
123 65
122 64
121 63
120 63
119 64
118 64
117 65
116 66
115 66
114 66
113 66
112 66
111 66
110 66
109 65
108 64
107 63
108 62
107 62
106 61
107 60
107 59
107 58
107 57
107 56
107 55
108 54
108 53
109 52
109 51
110 50
111 49
112 49
113 48
114 47
114 46
113 45
114 44
115 44
116 44
116 43
117 42
116 41
117 40
117 39
118 38
119 37
120 36
121 36
122 35
123 34
124 33
125 32
125 31
126 30
127 30
127 29
128 28
129 27
130 27
131 26
131 25
131 24
132 23
133 23
134 23
134 22
135 21
136 20
137 20
137 19
138 18
139 18
140 17
141 16
141 15
142 14
142 13
142 12
141 12
140 13
140 14
139 15
138 16
137 15
136 15
135 16
135 17
135 18
134 19
133 20
132 20
131 19
130 20
130 21
129 22
129 23
128 24
127 23
126 23
125 24
125 25
124 26
124 27
123 28
122 29
121 30
120 29
119 29
119 30
119 31
119 32
119 33
118 34
117 35
116 36
115 35
115 34
114 34
113 34
113 35
112 36
112 37
112 38
112 39
111 40
110 41
109 41
108 42
108 43
108 44
108 45
108 46
108 47
108 48
107 49
106 49
106 50
106 51
105 52
105 53
104 54
104 55
103 56
103 57
102 58
102 59
102 60
101 61
100 62
99 63
98 63
98 64
97 65
96 66
95 66
94 67
93 66
92 65
93 64
92 64
91 65
91 66
90 67
89 67
88 67
87 67
86 67
85 67
84 67
83 67
82 66
81 65
82 64
82 63
81 63
80 63
79 64
78 65
77 65
76 64
75 63
74 62
73 61
74 60
74 59
73 59
72 60
71 61
70 61
69 62
68 62
67 61
66 60
65 59
66 58
65 58
64 58
63 59
62 60
61 61
60 61
59 61
58 61
57 61
56 61
56 62
55 63
54 64
53 64
53 65
52 66
51 66
50 66
49 66
48 66
47 65
48 64
48 63
48 62
48 61
48 60
48 59
48 58
48 57
48 56
49 55
49 54
49 53
49 52
49 51
49 50
50 49
50 48
51 47
51 46
52 45
52 44
53 43
52 43
51 42
51 41
52 40
53 39
53 38
54 37
53 37
52 37
51 36
52 35
52 34
53 33
54 32
54 31
53 31
52 30
53 29
54 28
55 27
55 26
56 25
55 25
54 24
55 23
56 23
57 22
57 21
56 21
55 20
56 19
56 18
57 17
58 16
59 16
59 15
60 14
60 13
60 12
61 11
61 10
61 9
62 8
61 7
62 6
63 5
63 4
64 3
64 2
63 2
62 2
