337 4
336 5
335 5
334 6
333 6
332 7
331 8
330 8
329 9
328 10
327 10
326 11
325 10
324 9
323 10
323 11
323 12
323 13
322 14
322 15
321 16
320 16
319 17
318 18
317 19
316 20
315 21
314 22
313 23
312 24
311 25
310 26
309 27
308 28
307 29
306 30
305 30
304 31
303 32
302 33
301 33
300 34
299 35
298 36
297 36
296 37
295 37
294 37
293 37
292 38
291 38
290 39
289 39
288 39
287 39
286 39
285 39
284 38
285 37
284 37
283 37
282 38
281 38
280 38
279 38
278 38
277 37
276 38
275 38
274 38
273 38
272 38
271 39
270 40
269 40
268 40
267 40
266 40
265 41
264 42
263 41
262 42
261 43
260 44
259 45
258 46
257 47
256 47
255 48
254 48
253 48
252 48
251 49
250 49
249 49
248 49
247 49
246 49
245 50
244 50
243 50
242 49
241 49
240 50
239 51
238 51
237 51
236 51
235 52
234 52
233 52
232 52
231 52
230 52
229 53
228 53
227 53
226 53
225 53
224 53
223 53
222 53
221 53
220 53
219 54
218 54
217 54
216 54
215 54
214 54
213 54
212 54
211 54
210 54
209 54
208 54
207 54
206 54
205 54
204 54
203 54
202 53
201 53
200 53
199 53
198 53
197 53
196 53
195 52
194 52
193 52
192 52
191 51
190 51
189 50
188 50
187 50
186 50
185 49
184 49
183 49
182 48
181 48
180 48
179 48
178 47
177 47
176 47
175 46
174 46
173 46
172 46
171 45
172 44
173 44
174 44
175 43
176 43
177 42
177 41
176 41
175 40
176 39
175 39
174 39
173 39
172 38
173 37
173 36
172 36
171 35
170 35
169 34
168 34
167 34
166 33
165 32
164 32
163 32
162 31
161 30
160 30
159 29
158 29
157 28
156 28
155 27
156 26
155 26
154 26
153 26
152 25
151 24
150 23
149 23
148 23
147 23
146 23
145 23
144 23
143 23
142 23
141 23
140 23
139 23
138 23
137 24
136 24
135 24
134 24
133 25
132 25
131 26
130 26
129 27
128 27
127 28
126 29
125 30
124 30
123 31
123 32
122 33
121 34
121 35
120 36
119 37
119 38
118 39
118 40
117 41
117 42
116 43
115 44
114 45
113 46
112 47
111 48
110 49
109 49
108 50
107 50
106 50
105 50
104 50
103 50
102 50
101 50
100 50
99 50
98 50
97 51
96 51
95 51
94 52
93 52
92 53
91 53
90 53
89 53
88 54
87 54
86 55
85 55
84 56
83 56
82 56
81 55
81 54
82 53
82 52
83 51
83 50
83 49
84 48
84 47
85 46
86 45
87 44
88 44
89 44
90 44
90 43
91 42
90 42
89 41
89 40
90 39
91 39
92 39
92 38
93 37
94 36
94 35
95 34
95 33
94 32
93 32
92 32
91 33
90 34
90 35
89 36
88 37
88 38
87 39
86 40
86 41
85 42
85 43
84 44
83 45
83 46
82 47
82 48
82 49
81 50
81 51
81 52
80 53
80 54
79 55
79 56
78 57
77 58
76 58
75 58
74 59
73 59
72 60
71 60
70 60
69 61
68 61
67 62
66 62
65 63
64 63
63 64
62 64
61 65
60 65
59 66
58 67
57 67
56 68
55 69
54 70
53 71
52 72
51 71
50 70
51 69
51 68
50 68
49 67
50 66
49 66
48 65
47 64
46 63
45 62
44 61
43 60
42 60
41 59
40 59
39 58
38 58
37 58
36 57
35 58
34 57
33 57
32 57
32 58
33 59
34 59
35 60
36 60
37 61
38 61
39 61
40 62
41 62
42 63
43 63
44 64
45 65
46 66
47 67
48 68
48 69
48 70
49 71
49 72
49 73
49 74
48 75
47 76
46 77
45 76
44 76
43 76
43 77
43 78
43 79
42 80
41 79
40 79
39 79
38 80
38 81
37 82
37 83
37 84
36 85
35 85
35 86
35 87
34 88
33 88
32 87
33 86
32 85
31 85
31 86
30 87
29 87
29 88
30 89
31 90
31 91
31 92
30 93
29 92
28 92
27 91
26 91
26 92
26 93
25 94
25 95
25 96
26 97
25 98
24 98
23 97
22 96
21 97
21 98
20 99
20 100
21 101
21 102
20 103
20 104
20 105
19 106
18 105
17 105
17 106
17 107
16 108
15 109
15 110
14 111
13 110
12 111
12 112
13 113
13 114
13 115
13 116
12 117
11 117
10 117
10 118
10 119
10 120
11 121
11 122
10 123
9 123
8 123
7 122
6 123
6 124
6 125
6 126
6 127
6 128
7 129
7 130
8 129
9 130
9 131
9 132
8 133
7 132
6 132
6 133
6 134
5 135
4 135
3 135
3 136
3 137
3 138
3 139
3 140
3 141
3 142
3 143
4 144
5 144
6 144
7 145
7 146
6 147
5 147
4 148
3 149
2 150
2 151
2 152
2 153
3 154
3 155
4 156
5 155
6 156
7 157
7 158
6 159
6 160
5 161
5 162
5 163
5 164
5 165
5 166
6 167
7 167
8 167
9 166
10 166
11 165
12 164
13 165
13 166
12 167
11 168
10 169
10 170
10 171
10 172
11 172
12 173
13 173
14 174
15 175
15 176
15 177
14 178
14 179
14 180
15 181
16 180
17 179
18 179
19 179
20 179
21 179
21 178
22 177
23 177
24 178
25 179
26 180
26 181
26 182
26 183
27 184
28 185
28 186
28 187
29 188
30 189
31 189
32 190
33 189
33 188
34 187
34 186
35 185
36 186
36 187
37 188
38 188
39 188
40 188
41 189
42 189
43 190
43 191
43 192
44 192
45 193
46 193
47 192
48 192
49 192
50 192
51 193
52 193
53 194
53 195
53 196
53 197
54 197
55 198
56 199
57 198
57 197
58 196
59 196
60 195
61 195
62 196
63 196
64 196
65 196
66 197
66 198
67 199
67 200
67 201
67 202
68 203
69 203
70 204
71 204
72 203
72 202
73 201
73 200
74 199
75 198
76 198
77 198
78 198
79 198
80 198
81 198
82 198
83 199
84 199
85 199
86 199
87 199
88 200
89 200
90 201
91 201
92 201
93 201
94 201
95 201
95 200
95 199
96 198
97 198
98 199
97 200
97 201
97 202
98 202
99 202
100 202
101 202
102 202
103 203
104 203
105 203
106 203
107 203
108 203
109 203
110 203
111 203
112 203
113 204
114 203
114 202
113 202
112 202
111 202
110 202
109 202
108 202
107 202
106 202
105 202
104 202
103 202
102 201
101 200
101 199
100 198
100 197
101 196
100 195
100 194
99 193
98 192
98 191
99 190
100 191
101 191
102 192
103 193
103 194
103 195
103 196
103 197
104 198
105 199
106 198
106 197
107 196
107 195
108 194
107 194
106 193
105 192
106 191
106 190
107 189
107 188
107 187
108 186
109 186
110 187
110 188
110 189
110 190
111 190
112 190
113 191
113 192
112 193
111 193
111 194
111 195
111 196
111 197
111 198
112 199
113 199
114 199
115 199
115 198
116 197
117 197
117 196
118 195
117 195
116 194
115 193
115 192
115 191
114 190
115 189
116 189
117 189
118 190
119 191
119 192
120 191
121 191
122 192
122 193
122 194
122 195
122 196
123 197
124 197
125 197
126 197
127 196
127 195
126 194
125 193
125 192
125 191
126 190
127 190
128 190
129 190
129 189
130 188
131 188
132 189
132 190
132 191
131 192
131 193
131 194
131 195
131 196
132 196
133 196
134 195
135 195
136 195
136 194
137 193
138 193
139 193
140 193
141 192
141 191
142 190
143 191
144 191
145 190
145 189
146 188
147 188
148 188
149 188
150 187
151 188
152 188
153 187
154 187
155 186
156 186
157 186
158 186
159 186
160 185
161 184
162 185
163 186
162 187
161 187
160 188
159 188
158 188
157 188
156 189
156 190
157 190
158 190
159 189
160 189
161 189
162 188
163 188
164 188
165 189
166 190
167 191
168 192
168 193
169 194
170 195
171 196
171 197
172 198
173 199
174 200
174 201
175 201
176 202
177 203
178 203
179 203
180 204
181 204
182 204
183 204
184 205
185 205
186 205
187 205
188 205
189 205
190 205
191 205
192 205
193 205
194 205
195 206
196 205
197 206
198 206
199 206
200 205
201 205
202 205
203 205
204 205
205 204
206 204
207 203
208 203
209 202
210 201
211 200
212 199
213 199
214 198
215 197
216 196
217 195
218 194
219 193
219 192
220 191
221 190
221 189
222 188
222 187
223 186
223 185
223 184
224 183
224 182
225 181
225 180
225 179
225 178
225 177
225 176
225 175
226 174
225 173
225 172
226 171
225 171
224 170
225 169
225 168
226 167
226 166
226 165
226 164
226 163
227 162
227 161
227 160
226 160
225 159
226 158
225 158
224 158
223 158
222 157
221 157
220 158
219 158
218 158
217 158
216 158
215 158
214 159
213 159
212 159
211 159
210 160
209 160
208 160
207 160
206 160
205 159
204 159
203 159
202 158
203 157
204 156
204 155
205 154
206 153
207 152
208 151
209 150
210 149
211 148
212 147
213 146
214 145
215 145
215 144
216 143
217 142
217 141
218 140
219 139
220 138
221 137
221 136
222 135
223 134
223 133
224 132
224 131
225 130
225 129
226 128
226 127
227 126
227 125
227 124
228 123
228 122
228 121
229 120
229 119
229 118
230 117
230 116
230 115
231 114
231 113
231 112
231 111
232 110
233 110
233 109
234 108
235 107
236 106
237 105
238 105
239 104
240 104
241 103
242 103
243 102
244 102
244 101
245 100
246 100
247 99
248 98
249 99
249 98
250 97
251 97
252 97
253 96
254 96
255 96
255 95
256 94
257 95
258 94
259 93
260 93
261 93
262 92
263 91
264 91
265 91
265 90
266 89
267 89
268 88
269 87
270 87
271 86
272 87
273 87
273 86
274 85
275 84
276 85
276 84
277 83
278 82
279 81
280 81
281 80
282 80
283 80
283 79
284 78
285 78
286 78
286 77
287 76
288 75
289 74
290 73
291 73
292 74
292 73
293 72
294 71
295 70
296 69
296 68
297 67
298 67
299 66
300 65
301 64
302 63
303 62
304 61
305 60
306 59
307 58
308 58
309 57
310 56
311 55
312 54
313 53
314 52
315 51
316 50
317 49
318 48
319 47
320 46
321 46
322 45
323 44
324 44
325 43
326 43
327 42
328 42
329 41
330 41
331 40
332 40
333 39
334 39
335 38
336 38
337 37
338 37
339 37
340 36
341 36
342 36
343 35
344 34
345 34
346 34
347 33
348 33
349 33
350 32
351 32
352 31
353 31
354 31
355 30
356 30
357 29
358 28
359 27
360 27
361 26
362 25
363 24
364 23
364 22
365 21
366 20
366 19
367 18
367 17
368 16
367 16
366 15
365 14
364 13
363 13
362 12
361 12
360 12
359 11
358 11
357 10
356 9
355 8
354 8
353 8
352 7
351 6
350 6
349 6
348 5
347 5
346 5
345 4
344 4
343 4
342 4
341 4
340 4
339 4
338 4
