135 2
134 3
133 4
132 4
131 5
130 6
129 7
128 8
127 9
126 9
126 10
125 11
124 12
123 13
122 14
121 15
121 16
120 17
119 18
118 19
117 19
116 20
115 21
114 22
113 22
112 23
111 24
110 25
109 25
108 26
107 26
106 26
105 26
104 26
103 26
102 26
101 26
100 26
99 26
98 26
97 26
96 26
95 26
94 26
93 26
92 26
91 26
90 26
89 26
88 26
87 26
86 26
85 26
84 26
83 26
82 26
81 26
80 26
79 26
78 27
77 27
76 27
75 27
74 27
73 27
72 27
71 27
70 27
69 27
68 28
67 28
66 28
65 28
64 28
63 28
62 29
61 29
60 29
59 30
58 30
57 30
56 31
55 31
54 31
53 31
52 31
51 31
50 31
49 32
48 32
47 32
46 32
45 32
44 32
43 32
42 32
41 32
40 33
39 33
38 33
37 33
36 33
35 33
34 34
33 34
32 35
31 35
30 35
29 36
28 36
27 36
26 36
25 37
24 37
23 37
22 37
21 38
20 38
19 38
18 39
17 39
16 39
15 39
14 40
13 40
12 41
11 41
10 41
9 42
8 42
7 43
6 43
5 44
4 45
3 46
2 47
2 48
2 49
2 50
2 51
3 52
4 52
5 53
6 54
7 54
8 55
9 55
10 56
11 56
12 57
13 57
14 58
15 58
16 59
17 59
18 60
19 60
20 60
21 61
22 61
23 62
23 63
23 64
24 65
25 65
26 66
27 66
28 66
29 67
30 68
31 68
32 69
33 69
34 69
35 70
36 70
37 70
38 70
39 71
40 71
41 71
42 71
43 72
44 73
45 73
46 74
47 74
48 74
49 74
50 75
51 75
52 75
53 76
54 76
55 76
56 77
57 77
58 77
59 78
60 78
61 78
62 78
63 79
64 79
65 79
66 80
67 80
68 80
69 80
70 80
71 81
72 81
73 82
74 82
75 83
76 83
77 83
78 83
79 84
80 84
81 84
82 84
83 85
84 86
84 87
84 88
85 89
86 90
87 91
87 92
87 93
88 94
89 95
90 96
91 97
92 98
93 99
94 100
95 101
95 102
96 102
97 103
98 104
99 105
100 106
100 107
101 107
102 108
103 109
104 110
105 111
106 112
107 113
108 113
109 114
110 115
111 115
112 116
113 117
114 117
115 118
116 118
117 118
118 118
119 118
120 118
121 118
121 117
122 116
122 115
122 114
122 113
122 112
122 111
121 111
120 110
121 109
120 109
119 108
120 107
119 107
118 106
119 105
119 104
118 104
117 103
118 102
117 102
116 101
117 100
117 99
116 99
115 98
116 97
116 96
115 96
114 95
115 94
114 94
113 93
114 92
114 91
114 90
115 89
116 89
117 89
118 89
119 89
120 89
121 89
122 89
123 89
124 89
125 89
126 88
127 88
128 88
129 88
130 88
131 88
132 87
133 87
134 87
135 86
136 86
137 85
138 85
139 85
140 85
141 85
142 84
143 84
144 84
145 84
146 84
147 83
148 83
149 83
150 83
151 83
152 82
153 82
154 81
155 81
156 81
157 80
158 80
159 80
160 80
161 79
162 79
163 79
164 79
165 79
166 78
167 79
168 79
169 80
170 80
171 81
172 82
173 83
174 84
175 84
176 85
177 85
178 85
179 85
180 84
180 83
181 82
181 81
181 80
182 79
182 78
183 77
184 77
185 76
186 75
186 74
187 73
186 72
187 71
188 71
189 71
190 71
191 70
192 70
193 70
194 70
195 70
196 69
197 69
198 69
199 69
200 69
201 69
202 69
203 70
204 70
205 71
206 72
207 73
208 73
208 72
209 71
210 70
211 69
211 68
212 67
213 66
214 65
215 65
216 65
217 65
218 65
219 65
220 65
221 64
222 64
223 64
224 64
225 64
226 65
227 66
228 67
228 68
229 69
230 70
231 71
232 72
232 73
233 74
233 75
234 75
235 76
236 77
236 78
237 79
238 80
239 81
240 82
240 83
241 84
242 85
243 85
244 86
244 87
245 88
246 89
247 90
248 91
249 92
250 93
251 94
252 95
253 95
254 96
255 96
256 96
257 97
258 97
259 97
260 98
261 98
262 98
263 99
264 99
265 99
266 98
266 97
267 96
266 96
265 95
266 94
266 93
265 93
264 92
265 91
265 90
264 90
263 89
262 88
263 87
263 86
263 85
262 85
261 84
262 83
262 82
261 82
260 81
261 80
261 79
261 78
260 78
259 77
260 76
259 76
258 75
259 74
259 73
258 73
257 72
258 71
258 70
258 69
257 69
256 68
257 67
257 66
257 65
257 64
257 63
257 62
257 61
257 60
257 59
257 58
258 57
259 56
259 55
260 54
260 53
261 52
261 51
262 50
262 49
263 48
264 47
264 46
265 45
265 44
266 43
267 42
267 41
268 40
269 39
270 38
270 37
271 36
271 35
272 34
273 33
274 33
275 33
276 33
277 32
278 32
279 31
279 30
280 29
280 28
281 27
281 26
282 25
282 24
282 23
283 22
283 21
284 20
284 19
283 19
282 18
281 18
280 18
279 18
278 18
277 19
276 19
275 19
274 19
273 20
272 20
271 20
270 21
269 21
268 21
267 22
266 22
265 23
264 23
263 23
262 24
261 24
260 25
259 26
258 26
257 27
256 27
255 28
254 28
253 29
252 29
252 30
251 31
250 31
249 32
248 32
247 33
246 33
245 34
244 35
243 36
242 37
241 38
240 38
239 39
238 40
237 40
236 41
235 42
234 42
234 43
233 44
232 45
231 46
230 47
230 48
229 49
228 50
227 51
226 52
225 52
224 52
223 52
222 52
221 52
220 52
219 52
218 52
217 51
216 51
215 51
214 51
213 50
212 50
211 50
210 49
209 49
208 48
207 47
208 46
208 45
209 44
208 44
207 43
206 43
205 42
204 42
203 41
202 41
201 41
200 42
199 43
198 44
197 45
196 45
195 45
194 44
193 44
192 44
191 43
190 43
189 43
188 42
187 42
186 42
185 42
184 41
183 41
182 41
181 41
180 41
179 40
178 40
177 40
176 40
175 40
174 39
173 39
172 39
171 39
170 38
169 38
168 38
167 38
166 38
165 38
164 37
163 37
162 37
161 37
160 37
159 36
158 36
157 36
156 36
155 36
154 36
153 36
152 36
151 35
150 34
151 33
151 32
150 31
149 30
148 29
147 28
146 27
147 26
146 26
145 25
144 24
145 23
144 23
143 22
144 21
143 21
142 20
143 19
142 19
141 18
142 17
141 17
140 16
141 15
141 14
141 13
140 13
139 12
140 11
140 10
140 9
140 8
139 8
138 7
139 6
139 5
139 4
139 3
138 3
137 2
136 2
