130 2
129 3
128 3
127 4
126 5
125 5
124 6
123 6
122 7
121 7
120 8
119 9
118 10
117 11
116 12
116 13
115 14
114 15
113 16
113 17
112 18
111 19
110 20
109 21
108 22
107 23
106 24
105 24
104 25
103 25
102 25
101 25
100 25
99 25
98 25
97 25
96 25
95 25
94 25
93 25
92 25
91 25
90 25
89 25
88 25
87 25
86 25
85 25
84 25
83 25
82 25
81 25
80 25
79 25
78 25
77 26
76 26
75 26
74 26
73 26
72 26
71 26
70 26
69 26
68 27
67 27
66 27
65 27
64 27
63 27
62 27
61 27
60 27
59 28
58 28
57 28
56 28
55 28
54 28
53 29
52 29
51 29
50 29
49 29
48 29
47 30
46 30
45 30
44 31
43 31
42 31
41 32
40 32
39 32
38 33
37 33
36 33
35 33
34 34
33 34
32 34
31 35
30 35
29 35
28 36
27 36
26 37
25 37
24 38
23 38
22 38
21 39
20 39
19 39
18 40
17 40
16 40
15 41
14 42
13 43
12 43
11 43
10 44
9 44
8 44
7 45
6 45
5 46
4 46
3 47
2 47
2 48
2 49
3 50
4 51
5 52
6 52
7 53
8 53
9 53
10 54
11 54
12 55
13 55
14 55
15 56
16 56
17 57
18 57
19 58
20 58
21 58
22 59
23 59
24 59
25 59
26 59
27 59
28 59
29 59
30 59
31 60
32 60
33 60
34 60
35 60
36 61
37 61
38 61
39 61
40 62
41 62
42 62
43 62
44 62
45 63
46 63
47 63
48 63
49 63
50 63
51 63
52 63
53 63
54 63
55 63
56 63
57 64
58 64
59 64
60 64
61 64
62 64
63 64
64 64
65 64
66 64
67 64
68 64
69 64
70 65
71 65
72 65
73 65
74 66
74 67
75 68
75 69
75 70
75 71
75 72
76 73
76 74
76 75
76 76
76 77
76 78
77 79
77 80
77 81
77 82
77 83
78 84
78 85
78 86
78 87
79 88
79 89
79 90
80 91
80 92
81 93
81 94
81 95
82 96
82 97
83 98
83 99
83 100
84 101
85 102
86 103
87 104
88 105
89 105
90 106
91 106
92 106
93 105
93 104
94 103
94 102
94 101
94 100
94 99
94 98
94 97
94 96
94 95
95 94
95 93
94 93
93 92
94 91
94 90
94 89
94 88
94 87
94 86
94 85
94 84
95 83
95 82
95 81
95 80
95 79
96 78
96 77
96 76
96 75
97 74
97 73
98 72
99 71
100 71
101 70
101 69
102 68
103 68
104 68
105 68
106 68
107 68
108 68
109 68
110 68
111 68
112 68
113 68
114 68
115 68
116 68
117 68
118 68
119 68
120 68
121 68
122 68
123 68
124 68
125 68
126 68
127 68
128 68
129 68
130 68
131 68
132 68
133 68
134 68
135 68
136 68
137 68
138 68
139 68
140 68
141 68
142 68
143 68
144 68
145 68
146 68
147 68
148 68
149 68
150 68
151 68
152 68
153 68
154 69
155 70
156 71
157 72
158 72
159 73
160 73
161 74
162 75
163 75
164 75
165 74
166 73
167 72
168 72
169 72
170 71
171 71
172 71
173 70
173 69
174 68
174 67
175 66
176 66
177 66
178 66
179 65
180 65
181 65
182 65
183 65
184 65
185 65
186 65
187 65
188 65
189 64
190 64
191 64
192 64
193 64
194 64
195 64
196 64
197 65
198 65
199 65
200 66
201 65
202 65
203 64
204 64
205 64
206 64
207 64
208 64
208 63
209 62
210 62
211 62
212 62
213 62
214 61
215 61
216 61
217 61
218 61
219 61
220 61
221 61
222 60
223 60
224 60
225 60
226 60
227 60
228 60
229 61
230 62
231 63
232 64
233 65
234 66
235 67
235 68
236 68
237 69
237 70
237 71
238 72
239 73
240 74
241 75
241 76
242 77
243 78
244 79
245 80
245 81
246 82
247 82
248 83
249 84
250 84
251 85
252 85
253 86
254 86
255 86
256 87
257 87
258 86
258 85
259 84
258 84
257 83
256 82
257 81
257 80
256 80
255 79
256 78
256 77
255 77
254 76
255 75
255 74
254 74
253 73
254 72
254 71
254 70
253 70
252 69
253 68
253 67
252 67
251 66
252 65
252 64
252 63
252 62
252 61
252 60
252 59
252 58
252 57
252 56
252 55
252 54
252 53
253 52
253 51
254 50
254 49
255 48
256 47
256 46
257 45
258 44
259 43
259 42
260 41
261 40
262 39
263 38
263 37
264 36
265 35
266 34
267 33
268 32
269 31
270 30
271 30
272 29
273 29
274 28
275 27
276 27
277 27
277 26
278 25
279 24
280 23
280 22
281 21
281 20
280 20
279 19
278 19
277 19
276 19
275 19
274 19
273 19
272 20
271 20
270 20
269 21
268 21
267 21
266 22
265 23
264 24
263 24
262 24
261 25
260 25
259 26
258 27
257 27
256 28
255 28
254 29
253 29
252 30
251 31
250 32
249 33
248 33
247 34
246 35
245 35
244 36
243 37
242 38
241 39
240 40
239 40
238 41
238 42
237 43
236 43
235 44
234 45
233 46
232 46
231 47
230 48
229 48
228 48
227 48
226 48
225 47
224 47
223 47
222 47
221 46
220 46
219 46
218 46
217 45
216 45
215 45
214 45
213 45
212 44
211 44
210 44
209 44
208 44
207 43
206 43
205 43
204 42
204 41
205 40
204 40
203 40
202 39
201 39
200 39
199 38
198 38
197 38
196 38
195 38
194 39
193 39
192 39
191 39
190 39
189 38
188 38
187 38
186 38
185 37
184 37
183 36
182 36
181 35
180 35
179 35
178 35
177 34
176 34
175 34
174 34
173 34
172 33
171 33
170 33
169 33
168 33
167 33
166 32
165 32
164 31
163 31
162 31
161 31
160 30
159 30
158 30
157 30
156 30
155 30
154 29
153 29
152 29
151 29
150 29
149 29
148 29
147 29
146 28
145 28
144 28
143 28
142 28
141 28
140 28
139 28
138 28
137 27
136 26
137 25
136 25
135 25
134 24
133 24
132 23
133 22
133 21
132 21
131 20
132 19
132 18
132 17
132 16
132 15
132 14
132 13
132 12
132 11
132 10
132 9
133 8
133 7
134 6
134 5
134 4
134 3
133 3
132 3
131 2
