145 2
144 3
143 3
142 3
141 4
140 4
139 4
139 5
138 6
137 6
136 7
135 8
134 8
133 9
132 10
131 11
131 12
130 13
129 13
129 14
128 15
127 16
126 17
125 18
125 19
124 20
123 21
122 21
121 21
120 21
119 21
118 21
117 21
116 20
115 20
114 20
113 20
112 20
111 19
110 19
109 19
108 19
107 18
106 18
105 18
104 18
103 18
102 18
101 18
100 18
99 18
98 18
97 18
96 18
95 18
94 18
93 18
92 18
91 18
90 18
89 18
88 18
87 18
86 18
85 18
84 18
83 18
82 18
81 18
80 18
79 18
78 18
77 18
76 18
75 18
74 18
73 18
72 18
71 18
70 18
69 18
68 18
67 18
66 18
65 18
64 18
63 19
62 19
61 19
60 19
59 19
58 19
57 19
56 20
55 20
54 20
53 20
52 21
51 21
50 21
49 21
48 21
47 22
46 22
45 22
44 22
43 22
42 23
41 23
40 23
39 23
38 23
37 23
36 23
35 24
34 24
33 25
32 25
31 26
30 26
29 26
28 26
27 26
26 27
25 27
24 27
23 27
22 28
21 28
20 28
19 29
18 29
17 29
16 30
15 30
14 30
13 30
12 31
11 31
10 31
9 32
8 32
7 33
6 34
5 35
4 35
3 36
2 37
2 38
2 39
2 40
3 41
4 42
5 42
6 43
6 44
7 44
8 45
9 45
10 46
11 46
12 46
13 46
14 46
15 47
16 47
17 47
18 47
19 47
20 48
21 48
22 48
23 48
24 48
25 49
26 49
27 49
28 50
29 50
30 50
31 50
32 50
33 50
34 50
35 51
36 51
37 51
38 51
39 51
40 51
41 51
42 51
43 52
44 52
45 52
46 52
47 53
48 53
49 53
50 53
51 53
52 53
53 54
54 54
55 54
56 54
57 54
58 54
59 54
60 55
61 55
62 55
63 55
64 55
65 55
66 56
66 57
66 58
66 59
67 60
67 61
67 62
67 63
67 64
67 65
67 66
68 67
68 68
68 69
68 70
68 71
68 72
68 73
68 74
68 75
69 76
69 77
69 78
69 79
69 80
69 81
69 82
70 83
70 84
70 85
70 86
71 87
71 88
71 89
71 90
71 91
71 92
72 93
72 94
73 95
73 96
73 97
73 98
74 99
74 100
74 101
74 102
75 103
75 104
76 105
76 106
77 107
77 108
78 109
78 110
79 111
79 112
80 113
81 114
81 115
82 116
82 117
83 118
84 118
85 119
85 120
86 121
87 122
88 122
89 123
90 123
91 123
92 123
93 123
94 123
95 122
95 121
96 120
96 119
96 118
96 117
96 116
95 116
94 115
95 114
95 113
95 112
95 111
94 111
93 110
94 109
94 108
93 108
92 107
93 106
93 105
93 104
92 104
91 103
92 102
92 101
92 100
92 99
91 99
90 98
91 97
91 96
91 95
91 94
91 93
91 92
91 91
90 91
89 90
90 89
90 88
90 87
90 86
90 85
90 84
90 83
90 82
91 81
91 80
91 79
91 78
91 77
91 76
92 75
92 74
92 73
93 72
93 71
93 70
94 69
95 68
96 67
97 66
98 65
99 64
100 63
100 62
101 61
102 60
103 60
104 60
105 60
106 60
107 60
108 60
109 60
110 60
111 61
112 61
113 61
114 61
115 61
116 61
117 61
118 61
119 61
120 61
121 61
122 61
123 61
124 61
125 60
126 60
127 60
128 60
129 60
130 60
131 60
132 60
133 60
134 60
135 60
136 60
137 60
138 60
139 60
140 60
141 60
142 59
143 59
144 60
145 61
146 62
146 63
147 64
147 65
148 66
148 67
149 68
150 69
150 70
150 71
151 72
151 73
152 74
152 75
153 76
153 77
153 78
154 79
155 80
156 81
157 82
157 83
158 84
159 84
160 85
161 85
162 84
163 83
163 82
164 81
164 80
164 79
164 78
164 77
165 76
165 75
165 74
165 73
165 72
165 71
165 70
166 69
166 68
166 67
166 66
167 65
168 64
169 63
169 62
170 61
171 61
172 60
173 60
174 60
175 59
176 59
177 59
178 58
179 57
179 56
180 55
181 55
182 55
183 55
184 55
185 55
186 56
187 56
188 56
189 56
190 56
191 57
192 57
193 58
193 59
194 59
195 60
196 60
197 60
198 60
199 60
200 59
201 59
202 58
203 58
204 59
205 60
206 61
207 62
207 63
208 64
209 65
210 65
211 66
212 67
213 67
214 68
215 69
216 69
217 69
218 70
219 70
220 71
221 71
222 71
223 71
224 70
225 70
225 69
226 68
226 67
226 66
225 66
224 65
225 64
224 64
223 63
224 62
224 61
224 60
225 59
226 58
227 57
228 56
229 55
230 55
231 54
232 54
233 53
234 52
235 51
236 51
237 50
238 50
239 50
240 49
241 49
242 48
243 48
244 48
245 47
246 47
247 46
248 46
249 46
250 45
251 45
252 44
253 44
254 43
255 43
256 42
257 42
258 42
259 41
260 41
261 41
262 41
263 40
264 40
265 40
266 40
267 39
268 39
269 38
270 38
271 37
272 37
273 37
274 37
275 37
276 37
277 36
278 36
279 36
280 36
281 36
282 36
283 35
284 35
285 35
286 35
287 35
288 35
289 35
290 35
291 34
292 34
293 34
294 34
295 34
296 33
297 33
298 33
299 33
300 33
301 32
302 32
303 32
304 32
305 32
306 32
307 32
308 32
309 32
310 32
311 32
312 31
313 31
314 31
315 31
316 31
317 31
318 31
319 31
320 31
321 31
322 31
323 31
324 31
325 31
326 31
327 31
328 31
329 31
330 31
331 31
332 31
333 31
334 31
335 31
336 31
337 31
338 31
339 31
340 31
341 31
342 32
343 32
344 32
345 32
346 32
347 32
348 32
349 32
350 32
351 32
352 32
353 32
354 32
355 32
356 32
357 32
358 33
359 33
360 34
361 34
362 34
363 34
364 34
365 35
366 35
367 35
368 35
369 35
370 35
371 36
372 36
373 36
374 36
375 36
376 36
377 36
378 37
379 37
380 37
381 37
382 37
383 38
384 38
385 39
386 39
387 40
388 40
389 40
390 40
391 41
392 41
393 41
394 42
395 42
396 43
396 44
396 45
397 46
397 47
398 48
399 49
400 48
401 48
402 47
403 46
404 45
405 45
406 45
407 45
407 44
408 43
408 42
409 41
409 40
408 40
407 39
408 38
408 37
407 37
406 37
405 36
404 35
403 35
402 34
401 33
400 32
399 32
398 31
397 31
396 30
395 30
394 30
393 29
392 29
391 28
390 28
389 28
388 27
387 27
386 27
385 26
384 26
383 26
382 26
381 25
380 25
379 24
378 24
377 23
376 23
375 23
374 22
373 22
372 22
371 22
370 22
369 21
368 21
367 21
366 21
365 21
364 21
363 20
362 20
361 20
360 19
359 18
358 18
357 18
356 18
355 18
354 17
353 17
352 17
351 17
350 17
349 17
348 16
347 16
346 16
345 16
344 16
343 16
342 16
341 16
340 16
339 15
338 15
337 15
336 15
335 15
334 15
333 14
332 14
331 14
330 14
329 14
328 14
327 14
326 14
325 13
324 13
323 13
322 13
321 13
320 13
319 13
318 13
317 13
316 13
315 13
314 13
313 13
312 13
311 13
310 13
309 13
308 13
307 13
306 13
305 13
304 13
303 13
302 13
301 13
300 12
299 13
298 13
297 13
296 13
295 13
294 13
293 13
292 13
291 13
290 13
289 13
288 13
287 13
286 13
285 13
284 13
283 13
282 14
281 14
280 14
279 14
278 14
277 15
276 15
275 15
274 15
273 15
272 15
271 16
270 16
269 16
268 16
267 16
266 17
265 17
264 17
263 17
262 17
261 18
260 18
259 18
258 18
257 19
256 19
255 20
254 20
253 20
252 21
251 21
250 21
249 21
248 21
247 22
246 22
245 22
244 22
243 22
242 23
241 23
240 23
239 23
238 23
237 24
236 25
235 25
234 25
233 26
232 26
231 26
230 26
229 27
228 27
227 27
226 27
225 28
224 28
223 29
222 29
221 29
220 30
219 30
218 30
217 31
216 31
215 31
214 32
213 32
212 33
211 34
210 34
209 35
208 35
207 36
206 36
205 37
204 37
203 37
202 36
201 36
200 35
199 35
198 34
197 34
196 33
195 32
194 32
193 32
192 32
191 31
190 31
189 31
188 30
187 30
186 30
185 30
184 30
183 30
182 30
181 30
180 29
179 29
178 29
177 29
176 29
175 28
174 28
173 28
172 28
171 28
170 28
169 28
168 27
167 27
166 27
165 27
164 27
163 27
162 27
161 27
160 27
159 26
158 26
157 26
156 26
155 26
154 26
153 26
152 26
151 25
152 24
152 23
152 22
151 22
150 21
151 20
151 19
150 19
149 18
150 17
150 16
150 15
150 14
150 13
150 12
150 11
151 10
151 9
151 8
151 7
151 6
151 5
151 4
151 3
150 3
149 2
148 2
147 2
146 2
