18 2
18 3
17 4
16 3
15 3
15 4
14 5
13 6
12 7
11 6
11 7
10 8
9 9
8 10
8 11
7 12
6 13
5 14
4 15
4 16
3 17
3 18
3 19
2 20
2 21
2 22
2 23
2 24
2 25
2 26
2 27
2 28
2 29
3 30
3 31
3 32
3 33
3 34
4 35
4 36
5 37
5 38
6 39
6 40
6 41
7 42
7 43
8 44
8 45
9 46
9 47
10 48
11 49
11 50
12 51
13 52
14 53
14 54
15 55
16 56
17 57
18 58
19 59
20 60
21 61
22 61
23 62
24 62
25 63
25 64
26 65
27 65
28 66
29 66
30 67
31 67
32 68
33 68
34 69
35 70
36 70
37 70
38 71
39 71
40 71
41 72
42 72
43 73
44 73
45 73
46 74
47 74
48 74
49 75
50 75
51 75
52 75
53 76
54 76
55 76
56 76
57 77
58 77
59 77
60 78
61 78
62 78
63 78
64 79
65 79
66 79
67 79
68 79
69 79
70 79
71 79
72 79
73 79
74 79
75 80
76 80
77 80
78 80
79 80
80 80
81 80
82 80
83 80
84 80
85 80
86 80
87 80
88 80
89 80
90 80
91 80
92 80
93 80
94 80
95 80
96 80
97 80
98 80
99 80
100 80
101 80
102 80
103 79
104 79
105 79
106 79
107 79
108 79
109 79
110 79
111 79
112 79
113 79
114 79
115 79
116 79
117 79
118 79
119 79
120 78
121 78
122 78
123 78
124 78
125 78
126 78
127 77
128 77
129 77
130 77
131 77
132 76
133 76
134 76
135 76
136 76
137 76
138 76
139 76
140 76
141 76
142 76
143 76
144 76
145 76
146 76
147 75
148 75
149 75
150 75
151 75
152 75
153 75
154 75
155 75
156 75
157 74
158 74
159 74
160 74
161 74
162 74
163 74
164 74
165 74
166 74
167 74
168 74
169 74
170 73
171 73
172 73
173 73
174 73
175 73
176 73
177 73
178 72
179 72
180 72
181 72
182 72
183 71
184 71
185 71
186 71
187 71
188 71
189 71
190 71
191 71
192 71
193 71
194 71
195 71
196 71
197 71
198 71
199 71
200 71
201 71
202 71
203 71
204 72
205 72
206 72
207 72
208 72
209 72
210 73
211 73
212 73
213 73
214 73
215 73
216 74
217 74
218 74
219 74
220 74
221 74
222 74
223 74
224 74
225 74
226 74
227 74
228 74
229 74
230 74
231 74
232 73
233 73
234 73
235 72
236 72
237 72
238 71
239 71
240 71
241 72
242 72
243 72
244 72
245 72
246 72
247 72
248 72
249 73
250 73
251 73
252 73
253 73
254 73
255 73
256 73
257 73
258 73
259 73
260 73
261 73
262 73
263 73
264 73
265 73
266 73
267 73
268 73
269 73
270 73
271 73
272 73
273 73
274 73
275 73
276 73
277 72
278 72
279 72
280 72
281 72
282 72
283 72
284 72
285 72
286 72
287 71
288 71
289 71
290 71
291 71
292 71
293 71
294 71
295 71
296 71
297 71
298 71
299 71
300 71
301 70
302 70
302 69
302 68
302 67
301 66
300 65
299 64
298 63
297 62
296 62
295 61
294 61
293 61
292 60
291 60
290 60
289 59
288 59
287 59
286 58
285 57
284 57
283 56
282 56
281 55
280 55
279 55
278 55
277 55
276 55
275 54
274 54
273 54
272 54
271 54
270 54
269 53
268 53
267 53
266 53
265 53
264 53
263 52
262 52
261 52
260 52
259 52
258 52
257 51
256 51
255 51
254 50
253 50
252 49
251 49
250 49
249 49
248 49
247 48
246 47
246 46
247 45
247 44
248 43
248 42
248 41
247 40
247 39
246 38
245 38
244 37
244 38
243 39
242 38
242 39
241 40
240 39
240 40
239 41
238 42
237 41
237 42
236 43
235 44
234 43
233 43
232 42
231 42
230 42
229 41
228 41
227 41
226 41
225 41
224 40
223 40
222 40
221 40
220 40
219 40
219 41
218 42
217 41
216 41
215 40
214 40
213 40
212 39
211 39
210 39
209 39
208 39
207 39
206 39
205 39
204 39
203 39
202 39
201 39
200 39
199 39
198 39
197 39
196 38
195 38
194 38
193 37
192 37
191 37
190 37
189 36
188 36
187 36
186 36
185 36
184 36
183 36
183 37
182 38
181 37
180 37
179 37
178 37
178 38
177 39
176 40
175 39
174 39
173 38
172 37
171 37
170 36
169 36
168 36
167 36
166 36
165 36
164 36
164 37
163 38
162 39
161 38
160 38
159 37
158 37
157 37
156 37
155 37
155 38
154 39
153 40
152 39
151 39
150 38
149 38
148 38
147 38
147 39
146 40
145 39
144 39
143 39
142 39
141 39
140 39
139 39
139 40
138 41
137 40
137 41
136 42
135 41
134 41
133 41
133 42
132 43
131 42
131 43
130 44
129 45
128 44
127 44
126 44
125 44
125 45
124 46
123 45
122 45
122 46
121 47
120 46
119 46
118 46
118 47
117 48
116 47
115 47
115 48
114 49
113 48
113 49
112 50
111 49
110 49
109 49
108 49
107 49
106 49
106 50
105 51
104 52
103 51
102 51
101 50
100 50
99 50
98 50
97 50
96 50
95 50
94 50
93 50
93 51
92 52
91 51
90 51
89 51
88 51
87 51
86 51
85 51
84 51
83 51
83 52
82 53
81 52
80 52
79 52
78 52
77 52
76 52
75 52
74 52
73 52
72 52
71 52
70 52
69 52
68 52
67 52
66 52
65 51
64 51
63 51
62 51
61 51
60 51
59 51
58 50
57 50
56 50
55 50
54 50
53 50
52 49
51 49
50 49
49 49
48 48
47 48
46 47
45 47
44 46
43 47
42 47
41 46
40 46
39 45
38 45
37 44
36 43
35 42
34 41
33 41
32 40
31 39
30 38
29 37
28 36
27 36
26 35
25 34
24 33
23 32
22 31
21 30
21 29
20 28
20 27
20 26
20 25
20 24
20 23
20 22
21 21
22 21
23 20
23 19
22 18
22 17
23 16
24 15
25 15
26 14
27 14
28 13
29 13
30 13
31 13
32 12
33 12
34 12
35 12
36 12
37 12
38 12
39 13
40 13
41 13
42 13
43 13
44 13
45 13
46 13
47 14
48 14
49 14
50 14
51 15
52 15
53 15
54 15
55 16
56 16
57 16
58 16
59 16
60 17
61 17
62 17
63 18
64 19
65 20
66 21
67 21
68 22
69 22
70 22
71 22
72 23
73 23
74 23
75 24
76 24
77 24
78 25
79 26
80 26
81 27
82 27
83 27
84 28
85 28
86 28
87 28
88 28
89 28
90 27
91 27
91 26
91 25
91 24
91 23
91 22
90 21
89 20
88 20
87 19
86 18
85 18
84 17
83 17
82 17
81 17
80 16
79 16
78 16
77 16
76 16
75 16
74 16
73 15
72 15
71 15
70 14
69 14
68 14
67 14
66 13
65 13
64 13
63 13
62 12
61 12
60 12
59 11
58 11
57 11
56 10
55 10
54 9
53 9
52 8
51 8
50 8
49 7
48 7
47 7
46 6
45 6
44 6
43 5
42 5
41 4
40 4
39 4
38 3
37 3
36 3
35 3
34 2
33 2
32 2
31 2
30 2
29 2
28 2
27 2
26 2
25 2
24 2
23 2
22 2
21 2
20 2
19 2
