161 2
160 3
159 3
158 4
157 5
156 5
155 5
154 6
153 7
152 7
151 8
150 8
149 9
148 10
147 10
146 11
145 11
144 12
143 13
142 13
141 14
140 14
139 14
138 14
137 14
136 14
135 14
134 13
133 13
132 13
131 13
130 13
129 13
128 13
127 13
126 13
125 13
124 13
123 12
122 12
121 12
120 12
119 12
118 12
117 12
116 12
115 11
114 11
113 11
112 11
111 11
110 11
109 11
108 11
107 10
106 10
105 10
104 10
103 10
102 10
101 10
100 10
99 10
98 10
97 10
96 10
95 10
94 9
93 9
92 9
91 9
90 9
89 9
88 9
87 9
86 9
85 9
84 9
83 8
82 8
81 8
80 8
79 8
78 8
77 8
76 8
75 8
74 8
73 8
72 8
71 8
70 8
69 8
68 8
67 8
66 9
65 9
64 9
63 9
62 9
61 9
60 9
59 9
58 9
57 9
56 10
55 10
54 10
53 10
52 10
51 10
50 10
49 10
48 10
47 10
46 10
45 10
44 10
43 10
42 10
41 10
40 10
39 10
38 10
37 10
36 10
35 10
34 11
33 11
32 11
31 11
30 11
29 11
28 11
27 12
26 12
25 12
24 12
23 12
22 12
21 13
20 13
19 13
18 13
17 13
16 13
15 13
14 13
13 13
12 14
11 14
10 14
9 15
8 15
7 16
6 16
5 17
4 17
3 18
2 18
2 19
2 20
2 21
2 22
2 23
2 24
3 25
4 25
5 26
6 26
7 27
8 28
9 28
10 29
11 30
12 31
12 32
13 32
14 32
15 33
16 33
17 34
18 34
19 34
20 35
21 36
22 36
23 37
24 37
25 37
26 38
27 38
28 39
29 39
30 39
31 40
32 40
33 40
34 40
35 41
36 41
37 41
38 41
39 42
40 42
41 42
42 42
43 42
44 43
45 43
46 43
47 43
48 44
49 44
50 44
51 44
52 45
53 45
54 46
54 47
55 48
55 49
56 50
57 51
58 52
59 53
59 54
60 55
60 56
61 57
62 58
63 59
64 60
64 61
65 61
66 62
67 62
68 62
69 62
70 61
70 60
71 59
71 58
72 57
72 56
72 55
73 54
73 53
73 52
74 51
74 50
74 49
74 48
75 47
76 47
77 48
78 48
79 48
80 48
81 48
82 48
83 48
84 48
85 48
86 48
87 48
88 48
89 48
90 48
91 48
92 48
93 48
94 48
95 48
96 48
97 48
98 48
99 48
100 48
101 48
102 48
103 48
104 48
105 48
106 48
107 48
108 48
109 47
110 47
111 47
112 47
113 47
114 47
115 46
116 47
117 47
118 47
119 47
120 47
121 48
122 49
123 49
124 50
125 51
126 52
127 52
128 53
129 53
130 54
131 54
132 54
133 54
134 54
135 54
136 53
137 53
138 53
139 52
140 51
141 50
142 50
143 49
144 49
145 48
146 48
147 48
148 48
149 47
150 46
150 45
149 44
150 43
151 43
152 43
153 43
154 43
155 43
156 43
157 43
158 43
159 43
160 43
161 43
162 43
163 42
164 42
165 42
166 43
167 43
168 43
169 44
170 44
171 44
172 45
173 45
174 46
175 46
176 46
177 47
178 48
179 48
180 49
181 49
182 49
183 49
184 49
185 49
186 48
187 47
188 46
189 46
190 46
191 45
192 45
193 45
194 45
195 44
196 43
196 42
195 41
196 40
197 40
198 40
199 40
200 40
201 40
202 40
203 40
204 40
205 40
206 40
207 40
208 40
209 41
210 41
211 41
212 41
213 41
214 41
215 41
216 41
217 42
218 43
219 43
220 44
221 45
222 46
223 47
224 48
225 49
225 50
226 51
227 51
228 52
229 53
230 53
231 54
232 54
233 54
234 54
235 53
236 53
237 53
238 52
239 51
240 50
241 50
242 50
243 49
244 48
245 48
246 47
247 47
248 46
249 45
250 44
251 44
252 44
253 43
254 42
255 42
255 41
256 40
257 41
258 41
259 42
260 42
261 43
262 43
263 43
264 43
265 43
266 43
267 43
268 42
269 42
270 41
271 41
272 40
273 39
274 38
274 37
275 36
275 35
276 34
276 33
277 32
278 31
279 30
280 29
280 28
281 27
281 26
280 26
279 26
278 25
277 25
276 24
275 24
274 24
273 24
272 24
271 24
270 24
269 24
268 24
267 24
266 24
265 24
264 24
263 24
262 24
261 24
260 24
259 24
258 24
257 24
256 25
255 25
254 25
253 25
252 25
251 25
250 25
249 25
248 25
247 25
246 25
245 25
244 25
243 25
242 25
241 25
240 26
239 26
238 26
237 26
236 26
235 26
234 26
233 27
232 27
231 27
230 27
229 27
228 27
227 27
226 27
225 27
224 27
223 27
222 27
221 27
220 26
219 26
218 26
217 26
216 26
215 26
214 25
213 25
212 25
211 25
210 25
209 25
208 25
207 24
206 24
205 24
204 24
203 23
204 22
204 21
205 20
205 19
205 18
205 17
205 16
205 15
205 14
204 14
203 13
202 13
201 13
200 14
199 14
198 15
197 15
196 16
195 16
194 17
193 17
192 18
191 18
190 19
189 19
188 20
187 20
186 21
185 21
184 21
183 21
182 20
181 20
180 20
179 20
178 19
177 19
176 19
175 19
174 18
173 18
172 18
171 18
170 18
169 18
168 18
167 18
166 18
165 17
165 16
166 15
166 14
167 13
167 12
166 12
165 11
166 10
166 9
166 8
166 7
166 6
166 5
166 4
167 3
167 2
166 2
165 2
164 2
163 2
162 2
