153 1
152 2
151 2
150 2
149 3
148 3
147 3
146 4
145 5
144 5
144 6
143 7
142 8
141 9
140 10
139 10
138 11
137 12
136 12
135 13
134 14
133 15
132 16
131 17
130 18
129 19
128 19
127 20
126 21
126 22
125 23
124 24
124 25
123 26
122 27
121 28
120 29
119 30
118 31
117 32
116 32
115 33
114 33
113 34
112 34
111 34
110 34
109 34
108 35
107 35
106 35
105 35
104 35
103 35
102 35
101 35
100 35
99 35
98 35
97 35
96 35
95 35
94 35
93 35
92 35
91 35
90 35
89 35
88 36
87 36
86 36
85 36
84 36
83 36
82 36
81 36
80 37
79 37
78 37
77 37
76 37
75 37
74 37
73 37
72 38
71 38
70 38
69 38
68 38
67 39
66 39
65 39
64 39
63 40
62 40
61 40
60 41
59 41
58 41
57 42
56 42
55 42
54 42
53 42
52 43
51 43
50 43
49 43
48 43
47 44
46 44
45 44
44 44
43 45
42 45
41 45
40 45
39 46
38 46
37 46
36 46
35 47
34 47
33 47
32 47
31 48
30 48
29 48
28 48
27 48
26 49
25 49
24 49
23 50
22 50
21 50
20 50
19 51
18 51
17 51
16 52
15 52
14 53
13 53
12 53
11 54
10 54
9 55
8 55
7 55
6 56
5 56
4 56
4 57
3 58
2 59
2 60
2 61
2 62
2 63
3 64
4 65
5 65
6 65
7 66
8 66
9 67
10 67
11 68
12 68
13 68
14 69
15 69
16 69
17 70
18 70
19 70
20 70
21 70
22 70
23 71
24 71
25 71
26 71
27 71
28 71
29 71
30 72
31 72
32 72
33 72
34 73
35 73
36 73
37 73
38 74
39 74
40 74
41 74
42 75
43 75
44 75
45 76
46 76
47 76
48 77
49 77
50 77
51 77
52 77
53 77
54 77
55 78
56 78
57 78
58 78
59 78
60 78
61 78
62 78
63 78
64 78
65 78
66 78
67 78
68 79
69 79
70 79
71 79
72 79
73 79
74 79
75 80
75 81
76 82
76 83
77 84
78 85
78 86
79 87
79 88
79 89
79 90
80 91
81 92
81 93
81 94
81 95
82 96
82 97
82 98
83 99
83 100
83 101
84 102
84 103
85 104
86 105
86 106
87 107
87 108
88 109
88 110
88 111
89 112
89 113
89 114
89 115
90 116
91 117
92 118
93 119
94 120
95 121
96 122
97 123
98 123
99 124
100 125
101 125
102 125
103 125
104 125
105 125
105 124
106 123
106 122
106 121
106 120
105 120
104 119
105 118
105 117
105 116
105 115
104 114
105 113
105 112
105 111
105 110
105 109
105 108
105 107
105 106
105 105
105 104
105 103
105 102
106 101
106 100
106 99
106 98
106 97
107 96
107 95
107 94
107 93
108 92
108 91
108 90
109 89
109 88
110 87
111 86
112 85
112 84
113 83
113 82
114 81
115 80
116 80
117 80
118 80
119 80
120 80
121 80
122 80
123 80
124 80
125 80
126 80
127 80
128 81
129 81
130 81
131 81
132 81
133 81
134 81
135 81
136 81
137 81
138 81
139 81
140 81
141 81
142 81
143 81
144 81
145 81
146 81
147 81
148 81
149 81
150 81
151 81
152 81
153 81
154 81
155 81
156 81
157 81
158 81
159 81
160 81
161 81
162 81
163 81
164 81
165 81
166 81
167 81
168 81
169 81
170 82
171 83
172 83
173 84
174 85
175 85
176 86
177 87
178 87
179 88
180 89
181 90
182 90
183 91
184 92
185 93
186 93
187 93
188 93
188 92
189 91
190 90
191 90
192 89
193 88
194 87
195 86
196 85
197 84
198 83
199 82
200 81
200 80
201 79
202 78
203 78
204 78
205 78
206 77
207 77
208 77
209 77
210 77
211 77
212 77
213 77
214 77
215 77
216 77
217 77
218 77
219 77
220 76
221 76
222 76
223 75
224 75
225 76
226 77
227 78
228 78
229 79
230 80
231 81
232 81
233 82
234 83
235 83
236 84
237 84
238 85
239 85
240 86
241 86
242 87
243 87
244 88
245 88
246 88
247 87
247 86
248 85
248 84
248 83
248 82
248 81
249 80
250 79
251 78
252 78
253 77
254 77
255 77
256 76
257 75
258 74
259 73
259 72
260 71
261 71
262 71
263 71
264 71
265 71
266 71
267 71
268 71
269 70
270 70
271 71
272 71
273 72
274 73
275 73
276 74
277 74
278 75
278 76
279 77
280 78
281 78
282 79
283 79
284 80
285 80
286 81
287 81
288 82
289 82
290 82
291 83
292 83
293 83
294 84
295 84
296 84
297 85
298 85
299 85
300 85
301 86
302 86
303 86
304 87
305 87
306 87
307 87
308 87
309 86
310 86
310 85
311 84
311 83
311 82
310 82
309 81
310 80
309 80
308 79
307 78
306 77
305 76
304 75
305 74
304 74
303 73
302 72
301 71
302 70
301 70
300 69
301 68
301 67
301 66
301 65
301 64
301 63
301 62
302 61
303 60
304 59
305 58
305 57
306 56
307 55
308 54
309 53
310 52
311 51
312 50
313 49
314 48
315 47
316 46
316 45
317 44
318 43
319 42
319 41
320 40
320 39
321 38
322 37
323 36
323 35
324 34
325 33
326 32
326 31
327 30
328 29
329 28
330 27
330 26
331 25
332 25
332 24
333 23
334 22
335 22
336 23
337 23
338 23
339 22
340 21
340 20
341 19
341 18
340 18
339 17
340 16
340 15
341 14
341 13
342 12
343 11
344 10
345 9
346 8
347 7
347 6
348 5
348 4
349 3
349 2
348 2
347 2
346 2
345 2
344 2
343 3
342 4
341 4
340 5
339 5
338 6
337 7
336 8
335 8
334 9
333 9
332 10
331 10
330 11
329 12
328 12
327 13
326 14
325 14
324 15
323 15
322 16
321 17
320 17
319 18
318 18
317 19
316 20
315 21
314 21
313 22
312 22
311 23
311 24
310 25
309 25
308 26
307 27
306 27
305 28
304 29
303 29
302 30
301 31
300 32
299 33
298 34
297 34
296 35
295 36
294 37
293 38
292 38
291 39
290 40
290 41
289 42
288 43
287 44
286 44
285 45
284 46
283 47
282 48
281 49
280 49
279 50
278 51
277 52
276 53
275 54
274 55
273 55
272 56
271 55
270 55
269 55
268 55
267 55
266 55
265 55
264 54
263 54
262 54
261 54
260 54
259 53
260 52
259 52
258 51
257 51
256 51
255 51
254 50
253 50
252 49
251 48
250 47
249 46
248 45
247 44
248 43
248 42
248 41
248 40
248 39
248 38
247 38
246 38
245 38
244 38
243 38
242 39
241 39
240 40
239 41
238 42
237 42
236 42
235 43
234 43
233 44
232 44
231 45
230 45
229 46
228 46
227 47
226 47
225 48
224 48
223 48
222 48
221 48
220 48
219 48
218 48
217 48
216 47
215 47
214 47
213 47
212 47
211 47
210 47
209 46
208 46
207 46
206 46
205 46
204 46
203 45
202 45
201 45
200 45
199 44
198 44
197 44
196 44
195 44
194 44
193 43
192 43
191 43
190 43
189 43
188 43
187 43
186 43
185 43
184 43
183 42
182 42
181 42
180 42
179 42
178 42
177 42
176 42
175 41
174 41
173 40
172 40
171 40
170 39
169 39
168 39
167 39
166 39
165 39
164 39
163 38
163 37
162 37
161 36
160 36
159 35
158 34
157 34
156 33
155 32
154 31
153 30
154 29
154 28
154 27
153 27
152 26
153 25
153 24
154 23
154 22
154 21
154 20
154 19
155 18
155 17
155 16
155 15
156 14
156 13
156 12
156 11
156 10
157 9
157 8
157 7
157 6
157 5
157 4
157 3
157 2
156 2
155 2
154 2
