141 1
140 2
139 2
138 3
137 3
136 4
135 4
135 5
134 6
133 7
132 8
131 9
130 10
130 11
129 12
128 13
127 14
126 15
125 16
124 17
123 18
122 19
121 20
120 21
119 21
119 22
118 23
117 23
116 24
115 24
114 25
113 25
112 25
111 25
110 26
109 26
108 26
107 26
106 26
105 26
104 26
103 26
102 26
101 26
100 26
99 26
98 26
97 26
96 26
95 27
94 27
93 27
92 27
91 27
90 27
89 27
88 27
87 27
86 27
85 27
84 27
83 27
82 27
81 27
80 27
79 27
78 27
77 27
76 27
75 27
74 27
73 27
72 27
71 27
70 27
69 28
68 28
67 28
66 28
65 28
64 28
63 28
62 28
61 28
60 28
59 28
58 28
57 28
56 29
55 29
54 29
53 29
52 29
51 29
50 29
49 29
48 29
47 29
46 29
45 29
44 29
43 30
42 30
41 30
40 30
39 30
38 30
37 30
36 30
35 30
34 30
33 30
32 31
31 31
30 31
29 31
28 31
27 31
26 32
25 32
24 32
23 32
22 32
21 32
20 33
19 33
18 33
17 33
16 33
15 33
14 33
13 34
12 34
11 34
10 34
9 34
8 34
7 34
6 35
5 35
4 35
3 36
2 37
2 38
2 39
2 40
3 41
4 42
5 42
6 43
7 43
8 44
9 44
10 44
11 45
12 45
13 46
14 46
15 47
16 48
17 48
18 49
19 50
20 51
21 51
22 51
23 51
24 52
25 52
26 52
27 52
28 52
29 53
30 53
31 53
32 53
33 54
34 54
35 54
36 54
37 55
38 55
39 55
40 55
41 56
42 56
43 56
44 56
45 56
46 56
47 56
48 56
49 56
50 57
51 57
52 57
53 57
54 57
55 57
56 58
57 58
58 58
59 58
60 58
61 59
62 59
63 59
64 59
65 59
66 59
67 59
68 60
69 60
70 61
70 62
70 63
71 64
71 65
71 66
71 67
71 68
71 69
71 70
71 71
72 72
72 73
72 74
72 75
72 76
72 77
72 78
72 79
73 80
73 81
73 82
74 83
74 84
74 85
74 86
75 87
75 88
75 89
75 90
75 91
76 92
76 93
76 94
77 95
77 96
77 97
78 98
78 99
79 100
80 101
80 102
81 103
81 104
82 105
83 106
83 107
84 108
84 109
85 110
85 111
86 111
87 112
87 113
88 114
89 115
89 116
90 117
91 118
91 119
92 120
93 120
94 121
95 122
96 122
97 122
98 122
99 122
99 121
100 120
100 119
100 118
100 117
100 116
100 115
100 114
100 113
99 113
98 112
99 111
99 110
98 110
97 109
98 108
98 107
98 106
98 105
98 104
98 103
97 103
96 102
97 101
97 100
97 99
96 99
95 98
96 97
96 96
96 95
96 94
95 94
94 93
95 92
95 91
95 90
95 89
95 88
94 88
93 87
94 86
94 85
94 84
94 83
94 82
94 81
94 80
94 79
93 79
92 78
93 77
93 76
93 75
93 74
93 73
93 72
93 71
93 70
94 69
94 68
94 67
94 66
95 65
95 64
96 63
97 62
98 62
99 62
100 62
101 62
102 62
103 62
104 62
105 62
106 62
107 62
108 62
109 62
110 62
111 63
112 63
113 63
114 63
115 63
116 63
117 63
118 63
119 63
120 63
121 63
122 63
123 63
124 63
125 63
126 63
127 63
128 63
129 63
130 63
131 63
132 63
133 63
134 63
135 63
136 63
137 63
138 63
139 63
140 63
141 63
142 63
143 63
144 63
145 63
146 63
147 63
148 63
149 63
150 63
151 63
152 63
153 62
154 62
155 62
156 62
157 62
158 62
159 62
160 62
161 62
162 62
163 62
164 63
165 63
166 64
167 65
168 66
169 67
170 68
171 69
172 70
173 70
174 71
175 72
176 72
177 72
178 72
179 71
180 70
180 69
181 68
182 67
183 66
184 65
185 64
186 63
187 62
187 61
188 60
188 59
188 58
187 58
186 57
187 56
188 56
189 56
190 56
191 56
192 56
193 56
194 56
195 56
196 56
197 56
198 56
199 56
200 56
201 56
202 56
203 56
204 56
205 56
206 57
207 58
208 59
209 60
210 60
211 61
212 62
213 62
214 63
215 63
216 63
217 64
218 64
219 65
220 65
221 65
222 65
223 65
224 64
224 63
223 62
224 61
223 60
224 59
224 58
225 57
226 57
227 57
228 56
229 56
229 55
230 54
231 54
232 54
233 54
234 54
235 54
236 54
237 54
238 54
239 54
240 53
241 54
241 55
242 56
243 57
243 58
244 59
245 60
246 61
247 62
247 63
248 64
249 64
250 65
251 66
252 67
253 68
254 69
255 69
256 70
257 71
258 72
259 72
260 73
261 74
261 75
262 76
263 76
264 77
265 78
266 78
267 78
268 79
269 79
270 79
271 79
272 79
273 78
273 77
274 76
274 75
273 75
272 74
273 73
273 72
272 72
271 71
270 70
271 69
270 69
269 68
270 67
270 66
269 66
268 65
269 64
269 63
268 63
267 62
268 61
268 60
267 60
266 59
267 58
267 57
267 56
267 55
267 54
267 53
267 52
268 51
269 50
270 49
270 48
271 47
272 47
273 46
274 46
275 45
276 45
277 44
278 43
279 43
280 42
281 42
282 41
283 41
284 40
285 39
286 38
287 38
288 37
289 37
290 36
291 36
292 35
293 35
294 34
295 34
296 33
297 33
298 32
299 32
300 33
301 33
302 34
303 34
304 34
305 34
305 33
306 32
307 31
308 30
309 29
310 29
311 28
312 28
313 27
314 27
315 27
316 26
317 26
318 26
319 25
320 25
321 25
322 25
323 24
324 24
325 24
325 23
326 22
326 21
326 20
325 20
324 19
323 19
322 18
321 18
320 18
319 18
318 17
317 17
316 17
315 17
314 17
313 17
312 17
311 17
310 17
309 17
308 18
307 18
306 18
305 18
304 18
303 18
302 19
301 19
300 19
299 19
298 19
297 20
296 20
295 20
294 20
293 20
292 21
291 21
290 21
289 21
288 22
287 22
286 23
285 23
284 24
283 24
282 24
281 25
280 25
279 25
278 25
277 25
276 26
275 26
274 26
273 26
272 27
271 27
270 27
269 28
268 28
267 28
266 29
265 29
264 29
263 30
262 30
261 30
260 31
259 31
258 32
257 32
256 32
255 33
254 33
253 34
252 34
251 35
250 35
249 36
248 36
247 37
246 37
245 38
244 39
243 40
242 41
241 41
240 40
239 40
238 40
237 39
236 39
235 38
234 38
233 37
234 36
233 36
232 36
231 35
230 35
229 35
228 34
227 34
226 33
225 32
226 31
225 31
224 30
223 29
222 29
221 28
220 28
219 28
218 29
217 29
216 29
215 30
214 31
213 31
212 32
211 32
210 32
209 33
208 33
207 34
206 34
205 33
204 33
203 33
202 33
201 33
200 33
199 32
198 32
197 32
196 32
195 32
194 31
193 31
192 31
191 31
190 31
189 31
188 30
187 30
186 30
185 30
184 30
183 30
182 30
181 30
180 30
179 30
178 29
177 29
176 28
175 29
174 29
173 29
172 29
171 29
170 29
169 29
168 29
167 29
166 28
165 28
164 28
163 28
162 28
161 28
160 28
159 28
158 28
157 27
156 27
155 27
154 27
153 27
152 27
151 26
152 25
151 25
150 24
149 24
148 23
147 22
148 21
147 21
146 20
147 19
147 18
147 17
147 16
148 15
148 14
148 13
148 12
148 11
147 11
146 10
147 9
147 8
146 8
145 7
146 6
146 5
145 5
144 4
145 3
144 3
143 2
142 2
