165 2
164 3
163 3
162 3
161 4
160 4
159 4
158 5
157 5
156 5
155 5
154 6
153 6
152 7
151 7
150 8
149 8
148 8
147 9
146 9
145 10
144 10
143 10
142 10
141 11
140 11
139 11
138 11
137 11
136 11
135 11
134 11
133 10
132 10
131 10
130 10
129 10
128 10
127 9
126 9
125 9
124 9
123 9
122 8
121 8
120 8
119 8
118 8
117 8
116 8
115 7
114 7
113 7
112 7
111 6
110 6
109 6
108 6
107 6
106 5
105 5
104 5
103 5
102 5
101 5
100 5
99 5
98 5
97 5
96 4
95 4
94 4
93 4
92 4
91 4
90 4
89 4
88 4
87 4
86 4
85 4
84 4
83 3
82 3
81 3
80 3
79 3
78 3
77 3
76 3
75 3
74 3
73 3
72 3
71 3
70 3
69 3
68 3
67 3
66 3
65 3
64 3
63 3
62 3
61 3
60 3
59 3
58 3
57 3
56 3
55 3
54 3
53 3
52 3
51 4
50 4
49 4
48 4
47 4
46 4
45 4
44 4
43 4
42 5
41 5
40 5
39 5
38 5
37 6
36 6
35 6
34 6
33 7
32 7
31 7
30 7
29 7
28 8
27 8
26 8
25 8
24 8
23 8
22 8
21 8
20 9
19 9
18 9
17 10
16 10
15 10
14 10
13 11
12 11
11 12
10 12
9 12
8 13
7 13
6 13
5 13
4 13
3 14
3 15
2 16
2 17
2 18
3 19
3 20
4 21
5 21
6 21
7 22
8 22
9 23
10 23
11 23
12 24
13 24
14 24
15 24
16 25
17 25
18 26
19 27
20 27
21 27
22 28
23 28
24 28
25 29
26 29
27 29
28 29
29 30
30 30
31 30
32 31
33 31
34 31
35 31
36 32
37 32
38 32
39 32
40 32
41 32
42 33
43 33
44 33
45 33
46 33
47 33
48 33
49 33
50 34
51 34
52 34
53 34
54 34
55 35
56 35
57 36
57 37
58 38
58 39
59 40
59 41
60 42
60 43
61 44
62 45
63 46
64 47
64 48
65 49
66 50
67 51
68 51
69 52
70 53
71 53
72 54
73 54
74 54
75 54
76 54
76 53
77 52
77 51
78 50
78 49
78 48
78 47
79 46
79 45
79 44
79 43
79 42
79 41
79 40
79 39
80 38
81 39
82 38
83 39
84 39
85 39
86 39
87 39
88 39
89 39
90 40
91 40
92 40
93 40
94 40
95 40
96 40
97 40
98 40
99 40
100 40
101 40
102 40
103 40
104 40
105 40
106 40
107 39
108 39
109 39
110 39
111 39
112 39
113 39
114 39
115 40
116 40
117 41
118 41
119 42
120 42
121 43
122 44
123 45
124 45
125 46
126 46
127 47
128 48
129 48
130 48
131 49
132 50
133 50
134 50
135 49
136 49
137 49
138 49
139 48
140 48
141 48
142 47
143 47
144 47
145 47
146 46
147 46
148 46
149 46
150 46
151 45
151 44
152 43
152 42
151 42
150 41
149 40
150 39
151 39
152 39
153 39
154 39
155 39
156 39
157 39
158 39
159 39
160 39
161 39
162 39
163 39
164 39
165 39
166 39
167 39
168 39
169 39
170 39
171 39
172 39
173 39
174 39
175 40
176 40
177 41
178 42
179 42
180 43
181 43
182 44
183 45
184 46
185 47
186 47
187 47
188 48
189 48
190 48
191 48
192 48
193 47
194 47
195 47
196 47
197 47
198 46
199 46
200 46
201 46
202 46
203 45
204 44
204 43
205 42
206 42
207 42
208 42
209 42
210 43
211 43
212 43
213 43
214 43
215 43
216 43
217 43
218 44
219 44
220 44
221 45
222 46
223 47
224 47
225 47
226 48
227 49
228 50
229 51
230 52
231 53
232 53
233 54
234 54
235 54
236 54
237 54
238 54
239 54
240 54
241 53
242 53
243 53
244 52
245 52
246 51
247 51
248 50
249 50
250 49
251 49
252 49
253 48
254 48
255 47
256 46
257 46
258 46
259 47
260 47
261 48
262 48
263 48
264 48
265 48
266 49
267 48
268 48
269 47
270 46
271 46
272 45
273 44
274 43
274 42
275 41
276 40
277 40
277 39
278 38
278 37
279 36
279 35
278 34
279 33
278 33
277 33
276 32
275 32
274 32
273 32
272 31
271 31
270 31
269 31
268 31
267 31
266 31
265 30
264 30
263 30
262 30
261 30
260 30
259 30
258 30
257 30
256 30
255 30
254 30
253 30
252 30
251 30
250 30
249 30
248 30
247 30
246 30
245 30
244 30
243 30
242 30
241 30
240 30
239 30
238 30
237 30
236 30
235 30
234 30
233 30
232 31
231 31
230 31
229 31
228 31
227 31
226 31
225 31
224 31
223 31
222 31
221 31
220 30
219 30
218 30
217 30
216 30
215 30
214 29
213 29
212 29
211 29
210 29
209 28
208 27
209 26
209 25
208 25
207 24
208 23
208 22
208 21
209 20
209 19
209 18
208 18
207 17
206 18
205 18
204 18
203 18
202 18
201 19
200 19
199 20
198 20
197 21
196 21
195 22
194 22
193 22
192 23
191 23
190 23
189 23
188 22
187 22
186 22
185 22
184 21
183 21
182 21
181 21
180 21
179 20
178 20
177 20
176 19
175 19
174 19
173 18
172 18
171 18
170 17
171 16
171 15
172 14
172 13
172 12
172 11
172 10
171 10
170 9
171 8
171 7
171 6
171 5
171 4
171 3
171 2
170 2
169 2
168 2
167 2
166 2
