32 2
31 3
30 3
29 3
28 4
27 4
26 5
25 6
24 7
23 8
22 9
22 10
21 11
20 12
20 13
19 14
19 15
19 16
18 17
17 18
16 19
15 19
14 20
13 21
12 21
11 22
10 23
9 24
8 25
7 26
6 27
5 28
5 29
4 30
4 31
4 32
3 33
2 34
2 35
2 36
2 37
3 38
4 39
4 40
5 41
5 42
6 43
6 44
7 45
7 46
8 47
8 48
9 49
10 50
11 51
12 52
13 53
14 53
15 54
16 55
17 56
18 57
19 58
19 59
20 60
20 61
21 62
22 63
22 64
23 65
24 66
24 67
25 68
26 69
27 70
28 71
29 71
30 71
31 72
32 72
33 72
34 72
35 71
36 71
37 71
38 70
39 70
40 70
41 69
42 69
43 68
44 68
45 67
46 66
47 66
48 65
49 64
50 64
51 63
51 62
52 61
53 60
54 59
54 58
55 57
55 56
56 55
56 54
56 53
57 52
57 51
58 50
59 50
60 51
61 51
62 51
63 51
64 51
65 51
66 50
67 49
67 48
68 47
67 47
66 46
67 45
68 44
69 44
70 44
71 44
72 44
73 44
74 44
75 44
76 44
77 44
78 44
79 44
80 44
81 44
82 44
83 44
84 44
85 44
86 44
87 44
88 44
89 44
90 44
91 44
92 44
93 44
94 44
95 44
96 44
97 44
98 44
99 44
100 44
101 44
102 44
103 45
104 45
105 45
106 45
107 45
108 45
109 45
110 45
111 45
112 45
113 45
114 45
115 45
116 45
117 45
118 45
119 45
120 45
121 45
122 45
123 45
124 45
125 45
126 45
126 44
126 43
125 43
124 43
123 42
124 41
123 41
122 41
121 41
120 41
119 41
118 42
117 42
116 42
115 42
114 42
113 41
114 40
114 39
113 39
112 39
111 39
110 39
109 40
108 40
107 40
106 40
105 40
104 40
103 39
102 39
101 39
100 39
99 39
98 39
97 39
96 38
95 38
94 38
93 38
92 38
91 38
90 38
89 37
88 37
87 37
86 37
85 37
84 37
83 37
82 37
81 37
80 36
79 36
78 36
77 36
76 36
75 36
74 36
73 35
72 35
71 35
70 35
69 35
68 35
67 34
67 33
68 32
68 31
69 30
69 29
69 28
68 28
67 27
66 27
65 27
64 26
63 26
62 26
61 26
60 26
59 26
58 25
58 24
59 23
59 22
60 21
59 21
58 20
59 19
59 18
58 18
57 17
56 16
57 15
56 15
55 14
54 13
53 12
52 11
51 10
50 10
49 9
48 8
47 7
46 7
45 6
44 5
43 5
42 4
41 4
40 3
39 3
38 2
37 2
36 2
35 2
34 2
33 2
