87 2
86 3
85 3
84 3
83 3
82 4
81 4
80 4
79 4
78 5
77 5
76 5
75 6
74 6
73 7
72 8
71 8
70 8
69 9
68 9
67 9
66 10
65 10
64 11
63 11
62 11
61 11
60 12
59 12
58 13
57 13
56 13
55 14
54 14
53 14
52 15
51 15
50 16
49 17
48 17
47 17
46 18
45 18
44 18
43 19
42 19
41 19
40 20
39 20
38 20
37 21
36 21
35 22
34 22
33 23
32 24
31 25
31 26
30 27
30 28
29 29
28 29
27 30
26 30
25 30
24 31
23 31
22 31
21 32
20 33
19 34
18 34
18 35
17 36
16 37
15 38
14 39
13 40
13 41
12 42
11 43
10 44
9 45
8 46
7 47
7 48
6 49
6 50
5 51
5 52
5 53
4 54
3 55
2 55
2 56
2 57
2 58
2 59
2 60
2 61
2 62
2 63
2 64
2 65
2 66
2 67
2 68
2 69
2 70
2 71
2 72
2 73
2 74
2 75
2 76
3 77
4 78
4 79
5 80
5 81
6 82
7 83
7 84
8 85
9 86
10 87
10 88
11 89
12 90
12 91
13 92
14 93
15 94
16 95
17 96
17 97
18 97
19 97
20 98
21 99
22 99
23 100
24 100
25 100
26 101
27 101
28 101
29 102
30 102
31 102
32 103
33 104
33 105
34 106
35 107
36 107
37 108
38 109
39 109
40 110
41 110
42 110
43 111
44 111
45 112
46 112
47 113
48 114
49 114
50 114
51 115
52 115
53 115
54 116
55 116
56 117
57 117
58 117
59 118
60 118
61 118
62 119
63 119
64 119
65 120
66 120
67 120
68 121
69 122
70 122
71 123
72 123
73 124
74 124
75 124
76 125
77 125
78 125
79 126
80 126
81 126
82 127
83 127
84 127
85 128
86 128
87 128
88 128
89 128
90 128
91 127
92 127
93 127
94 126
95 126
96 125
97 125
98 124
99 124
100 123
101 122
101 121
102 120
103 120
104 119
105 118
106 117
107 116
108 115
109 114
110 114
110 113
111 112
112 111
113 110
114 110
115 109
116 108
116 107
117 106
117 105
118 104
117 104
116 103
117 102
117 101
116 101
115 100
114 99
115 98
116 97
117 98
118 98
119 98
120 99
121 99
122 99
123 100
124 100
125 100
126 101
127 101
128 101
129 101
130 101
131 101
132 101
133 101
134 100
135 100
136 99
137 99
138 98
139 97
140 96
141 95
142 94
143 93
144 92
145 91
146 91
147 90
148 90
149 89
150 88
151 88
151 87
152 86
153 85
154 85
155 84
156 83
157 82
158 81
158 80
159 79
159 78
160 77
161 76
162 76
163 75
164 75
165 75
166 75
167 75
168 75
169 75
170 75
171 75
172 74
173 74
174 74
175 74
176 74
177 74
178 74
179 74
180 74
181 74
182 74
183 74
184 74
185 74
186 74
187 74
188 73
189 73
190 73
191 73
192 73
193 73
194 73
195 73
196 73
197 73
198 73
199 73
200 73
201 73
202 72
203 72
204 72
205 72
206 72
207 72
208 72
209 72
210 72
211 71
212 71
213 71
214 71
215 71
216 71
217 71
218 71
219 71
220 71
221 71
222 70
223 70
224 70
225 70
226 70
227 70
228 70
229 70
230 71
231 71
232 71
233 72
234 72
235 72
236 73
237 73
238 73
239 74
240 74
241 74
242 74
243 74
244 75
245 75
246 75
247 75
248 75
249 75
250 75
251 75
252 75
253 74
253 73
254 72
254 71
254 70
254 69
254 68
253 68
252 67
253 66
252 66
251 65
250 64
251 63
251 62
251 61
251 60
251 59
252 58
253 57
254 56
255 55
256 54
257 53
258 52
258 51
259 50
259 49
259 48
258 48
257 47
256 47
255 47
254 47
253 47
252 47
251 47
250 48
249 48
248 48
247 48
246 49
245 49
244 49
243 50
242 51
241 51
240 52
239 52
238 53
237 53
236 54
235 54
234 54
233 55
232 55
231 56
230 56
229 57
228 57
227 57
226 57
225 57
224 57
223 57
222 57
221 57
220 57
219 57
218 57
217 56
216 56
215 56
214 56
213 56
212 56
211 56
210 56
209 56
208 55
207 55
206 55
205 55
204 55
203 55
202 55
201 55
200 55
199 54
198 54
197 54
196 54
195 54
194 54
193 54
192 54
191 54
190 54
189 54
188 54
187 54
186 53
185 53
184 53
183 52
182 51
181 51
180 51
179 51
178 52
177 52
176 52
175 52
174 53
173 52
172 52
171 52
170 52
169 52
168 52
167 52
166 51
165 51
164 51
163 50
162 49
161 49
160 48
159 47
158 46
157 46
156 45
155 44
154 44
153 43
152 42
151 41
152 40
151 40
150 40
149 39
148 38
147 38
146 37
145 37
144 36
143 35
142 34
141 34
140 33
139 32
138 31
137 30
136 30
135 30
134 30
133 30
132 30
131 30
130 30
129 30
128 30
127 30
126 30
125 31
124 31
123 31
122 31
121 32
120 32
119 32
118 33
117 33
116 33
115 32
116 31
116 30
117 29
118 28
118 27
117 26
118 25
117 25
116 24
117 23
116 23
115 22
114 21
113 20
112 20
111 19
112 18
111 18
110 18
109 17
108 16
109 15
108 15
107 14
106 13
105 12
104 12
103 11
102 10
101 10
100 9
99 8
98 8
97 7
96 6
97 5
96 5
95 5
94 4
93 3
92 3
91 2
90 2
89 2
88 2
