68 2
67 3
66 3
65 3
64 3
63 3
62 3
61 3
60 3
59 3
58 3
57 3
56 3
55 3
54 3
53 3
52 3
51 3
50 3
49 3
48 3
47 4
46 4
45 4
44 4
43 4
42 5
41 5
40 6
39 6
38 6
37 6
36 7
35 7
34 8
33 8
32 8
31 8
30 8
29 9
28 9
27 10
26 11
25 11
24 12
23 12
22 13
21 13
20 13
19 13
18 13
17 13
16 14
15 14
14 14
13 15
12 15
11 15
10 16
9 17
8 17
7 17
6 18
5 18
4 18
3 19
2 20
2 21
2 22
2 23
2 24
2 25
2 26
2 27
2 28
2 29
2 30
3 31
3 32
3 33
4 33
5 33
6 33
7 33
8 32
9 32
10 33
10 34
11 34
12 34
13 34
14 34
15 34
16 33
17 33
18 34
19 34
20 35
21 35
22 35
23 36
23 37
23 38
24 38
25 38
26 39
27 39
28 39
29 39
30 39
31 38
32 38
33 38
34 38
35 38
36 38
37 37
38 38
39 38
40 38
41 37
42 37
43 37
44 38
45 38
46 38
47 38
48 37
49 36
50 36
51 36
52 36
53 37
54 37
55 37
56 37
57 36
58 35
59 35
60 36
61 36
62 36
63 36
64 36
65 36
66 35
67 34
68 34
69 34
70 34
71 34
72 33
73 33
74 33
75 33
76 33
77 34
78 34
79 33
80 32
81 32
82 33
83 33
84 33
85 33
86 33
87 33
88 32
89 32
90 32
91 32
92 31
93 30
94 29
95 29
96 29
97 29
98 29
99 29
100 29
101 29
102 29
103 29
104 29
105 29
106 29
107 29
108 28
109 28
110 28
111 28
112 28
113 28
114 28
115 28
116 28
117 28
118 28
119 28
120 28
121 29
122 29
123 29
124 28
125 28
126 28
127 28
128 28
129 29
129 30
130 30
131 30
132 29
133 29
134 29
135 29
136 29
137 30
138 30
139 30
140 30
141 30
142 30
143 30
144 30
145 30
146 30
147 31
148 31
149 31
150 32
151 32
152 32
153 32
154 32
155 32
156 32
157 32
158 32
159 32
160 32
161 32
162 32
163 32
164 32
165 32
166 31
167 31
168 31
169 31
170 32
171 32
172 32
173 32
174 32
175 32
176 32
177 32
178 32
179 32
180 32
181 32
182 32
183 32
184 32
185 32
186 32
187 32
188 32
189 32
190 32
191 32
192 32
193 31
194 31
195 31
196 31
197 31
198 31
199 30
200 30
201 30
202 30
203 30
204 30
205 30
206 29
207 29
208 29
209 29
210 29
211 29
212 29
213 29
214 28
215 28
216 28
217 28
218 28
219 28
220 28
221 28
222 28
223 29
224 29
225 29
226 29
227 30
228 31
229 31
230 32
231 32
232 32
233 32
234 32
235 32
236 31
237 31
238 30
239 29
240 28
240 27
241 26
241 25
240 25
239 24
238 23
237 23
236 22
235 22
234 21
233 21
232 20
231 20
230 20
229 19
228 18
227 18
226 17
225 17
224 17
223 17
222 17
221 16
220 16
219 16
218 16
217 16
216 16
215 16
214 16
213 16
212 16
211 16
210 16
209 16
208 16
207 16
206 16
205 16
204 16
203 16
202 16
201 16
200 16
199 16
198 15
197 15
196 15
195 15
194 15
193 15
192 15
191 15
190 15
189 15
188 15
187 15
186 15
185 15
184 15
183 14
182 14
181 14
180 14
179 14
178 14
177 14
176 14
175 14
174 13
173 13
172 13
171 13
170 12
169 12
168 12
167 12
166 11
165 11
164 11
163 11
162 11
161 11
160 11
159 11
158 11
157 11
156 10
155 10
154 10
153 10
152 10
151 10
150 10
149 9
148 9
147 9
146 9
145 9
144 8
143 8
142 8
141 8
140 8
139 8
138 8
137 8
136 8
135 8
134 8
133 8
132 8
131 8
130 8
129 7
128 7
127 7
126 7
125 7
124 7
123 7
122 6
121 6
120 6
119 6
118 6
117 6
116 6
115 6
114 5
113 5
112 5
111 5
110 5
109 5
108 5
107 5
106 4
105 4
104 4
103 4
102 4
101 4
100 4
99 3
98 3
97 3
96 3
95 3
94 3
93 3
92 3
91 3
90 3
89 3
88 3
87 3
86 3
85 3
84 3
83 3
82 3
81 3
80 3
79 3
78 3
77 2
76 2
75 2
74 2
73 2
72 2
71 2
70 2
69 2
