83 2
82 3
81 3
80 3
79 3
78 4
77 4
76 5
75 6
74 7
73 7
72 8
71 8
70 9
69 9
68 10
67 11
66 12
65 13
64 13
64 14
63 15
62 16
61 16
60 17
59 18
58 19
57 20
56 21
55 22
54 22
54 23
53 24
52 25
51 26
50 27
49 28
48 29
47 30
46 30
46 31
45 32
44 33
43 34
42 35
41 36
40 37
39 38
38 38
37 39
36 39
35 40
34 40
33 41
32 42
31 43
30 43
29 44
28 44
27 45
26 45
25 45
24 46
23 46
22 47
21 47
20 48
19 48
18 49
17 50
17 51
16 52
15 53
14 54
13 54
12 55
11 55
10 56
9 57
8 57
7 58
7 59
6 60
6 61
5 62
5 63
4 64
3 63
2 64
2 65
3 66
3 67
3 68
3 69
3 70
3 71
3 72
2 73
2 74
2 75
2 76
2 77
2 78
2 79
2 80
3 81
3 82
3 83
3 84
3 85
4 86
3 87
3 88
3 89
4 89
5 90
6 91
7 92
8 93
8 94
9 95
9 96
10 96
11 97
12 98
13 98
14 99
15 99
16 100
17 101
18 102
19 103
19 104
20 105
21 106
22 106
23 107
24 107
25 107
26 108
27 108
28 109
29 109
30 110
31 110
32 111
33 111
34 112
35 113
36 114
37 114
38 115
39 115
40 116
41 117
42 117
43 118
44 118
45 119
46 120
47 121
48 122
49 123
50 124
51 125
52 126
53 127
54 128
55 129
56 130
57 131
57 132
58 132
59 133
60 134
61 135
62 136
63 137
64 138
65 139
66 140
67 141
68 141
69 142
70 143
71 144
72 144
73 145
74 146
75 146
76 147
77 148
78 148
79 149
80 149
81 150
82 150
83 150
84 150
85 150
86 150
87 149
88 148
88 147
89 146
89 145
90 144
90 143
90 142
91 141
91 140
91 139
92 138
92 137
93 136
94 135
94 134
95 133
96 132
96 131
97 130
98 129
98 128
99 127
100 126
101 125
102 124
103 123
104 123
104 122
105 121
106 120
107 119
108 118
109 117
110 116
111 115
112 114
113 113
114 114
115 114
116 114
117 115
118 115
119 115
120 116
121 116
122 116
123 117
124 117
125 117
126 117
127 117
128 118
129 118
130 118
131 117
132 117
133 117
134 117
135 116
136 115
137 115
138 114
139 113
140 112
141 111
142 110
143 109
144 108
145 107
146 107
147 106
148 105
149 104
150 103
151 103
152 102
153 101
154 101
154 100
155 99
155 98
156 97
156 96
156 95
157 94
158 94
159 93
160 93
161 93
162 93
163 93
164 93
165 93
166 93
167 93
168 93
169 93
170 93
171 92
172 92
173 92
174 92
175 92
176 92
177 92
178 92
179 92
180 92
181 92
182 91
183 91
184 91
185 91
186 91
187 91
188 91
189 91
190 91
191 90
192 90
193 90
194 90
195 90
196 90
197 90
198 90
199 89
200 89
201 89
202 89
203 89
204 88
205 88
206 88
207 88
208 88
209 88
210 88
211 87
212 87
213 87
214 87
215 87
216 87
217 87
218 87
219 87
220 87
221 87
222 87
223 87
224 87
225 87
226 88
227 88
228 89
229 88
230 88
231 88
232 89
233 89
234 89
235 89
236 89
237 89
238 90
239 90
240 90
241 90
242 90
243 90
244 90
245 90
246 90
247 90
248 90
249 90
250 90
251 90
252 90
253 90
254 90
255 90
256 90
257 90
258 90
259 89
260 89
260 88
261 87
261 86
261 85
261 84
260 84
259 83
258 82
257 82
256 81
255 81
254 80
253 80
252 80
251 79
250 78
249 78
248 77
249 76
249 75
249 74
248 74
247 73
248 72
248 71
247 71
246 70
247 69
246 69
245 68
244 68
243 67
242 67
241 67
240 68
239 68
238 68
237 68
236 69
235 69
234 69
233 70
232 70
231 70
230 71
229 71
228 72
227 72
226 73
225 73
224 74
223 74
222 75
221 74
220 74
219 74
218 74
217 74
216 74
215 74
214 74
213 73
212 73
211 73
210 72
211 71
211 70
210 70
209 70
208 70
207 70
206 70
205 70
204 70
203 70
202 71
201 71
200 71
199 71
198 71
197 71
196 71
195 71
194 71
193 70
192 70
191 70
190 70
189 70
188 69
187 69
186 69
185 69
184 69
183 69
182 68
181 68
180 68
179 68
178 68
177 68
176 68
175 68
174 68
173 67
172 67
171 67
170 67
169 67
168 67
167 66
166 66
165 66
164 66
163 66
162 66
161 66
160 65
159 65
158 64
159 63
159 62
158 62
157 61
158 60
157 60
156 59
157 58
156 58
155 57
154 56
153 55
152 54
151 53
150 53
149 52
148 52
147 51
146 50
145 49
144 49
143 48
142 48
141 47
140 47
139 46
138 45
137 44
136 44
135 43
134 42
133 41
132 40
131 40
130 40
129 40
128 40
127 41
126 41
125 41
124 41
123 42
122 42
121 43
120 43
119 43
118 43
117 43
116 44
115 44
114 44
113 45
112 45
111 45
110 44
111 43
111 42
112 41
112 40
111 40
110 39
111 38
111 37
110 37
109 36
110 35
109 35
108 34
109 33
108 33
107 32
108 31
107 31
106 30
105 29
104 28
103 27
104 26
103 26
102 25
101 24
100 23
101 22
100 22
99 21
98 20
99 19
98 19
97 18
96 17
97 16
96 16
95 15
96 14
96 13
95 13
94 12
95 11
95 10
95 9
94 9
93 8
94 7
93 7
92 6
91 5
92 4
91 4
90 4
89 3
88 3
87 3
86 3
85 2
84 2
