84 2
83 3
82 3
81 4
80 5
79 6
79 7
78 8
77 9
76 10
76 11
75 12
74 13
74 14
73 15
73 16
73 17
72 18
71 19
71 20
70 21
69 22
69 23
69 24
68 25
68 26
68 27
67 28
67 29
66 30
65 31
64 32
63 32
62 32
61 33
60 33
59 33
58 33
57 33
56 33
55 34
54 34
53 34
52 34
51 34
50 35
49 35
48 35
47 35
46 36
45 36
44 36
43 37
42 37
41 37
40 37
39 38
38 38
37 38
36 39
35 39
34 40
33 40
32 40
31 40
30 41
29 41
28 41
27 42
26 43
25 44
24 44
23 44
22 45
21 45
20 46
19 46
18 46
17 47
16 47
15 48
14 48
13 49
12 49
11 49
10 50
9 50
8 50
7 51
6 52
5 53
4 53
3 54
2 55
2 56
2 57
2 58
3 58
4 58
5 59
6 59
7 59
8 59
9 59
10 59
11 59
12 59
13 59
14 60
15 61
16 62
17 62
18 62
19 63
20 63
21 63
22 64
23 64
24 64
25 64
26 64
27 64
28 65
29 65
30 65
31 65
32 65
33 65
34 65
35 65
36 65
37 65
38 65
39 65
40 65
41 65
42 65
43 65
44 65
45 65
46 65
47 65
48 66
49 67
49 68
50 69
51 70
51 71
51 72
52 73
53 74
54 75
55 76
56 77
57 78
57 79
58 80
59 81
60 82
61 82
62 83
63 83
64 84
65 84
66 85
67 85
68 85
69 85
70 84
70 83
71 82
71 81
70 81
69 80
70 79
70 78
69 78
68 77
69 76
69 75
68 75
67 74
68 73
68 72
68 71
68 70
68 69
68 68
68 67
69 66
70 66
71 66
72 66
73 66
74 66
75 66
76 65
77 66
78 65
79 65
80 65
81 65
82 65
83 65
84 65
85 65
86 65
87 65
88 65
89 65
90 65
91 65
92 65
93 65
94 65
95 65
96 65
97 65
98 65
99 65
100 65
101 64
102 64
103 65
104 65
105 66
106 66
107 67
108 68
109 69
110 70
110 71
111 71
112 72
113 72
114 73
115 74
116 74
117 75
118 75
119 76
120 76
121 76
122 76
122 75
123 74
123 73
123 72
124 71
124 70
124 69
125 68
126 67
127 66
127 65
128 64
128 63
129 62
130 62
131 62
132 62
133 62
134 63
135 63
136 64
137 64
138 64
139 65
140 65
141 66
142 67
143 67
144 68
145 68
146 69
147 69
148 69
149 69
149 68
150 67
150 66
150 65
150 64
151 63
152 63
153 62
154 62
155 62
156 62
157 61
158 60
159 59
159 58
160 57
161 57
162 57
163 57
164 57
165 57
166 57
167 57
168 57
169 57
170 58
171 58
172 59
173 60
174 61
175 62
176 62
177 63
178 64
179 64
180 65
181 65
182 66
183 66
184 67
185 67
186 68
187 68
188 68
189 68
190 69
191 69
192 69
193 69
194 68
195 67
195 66
194 65
193 64
192 63
191 62
190 62
189 61
190 60
189 60
188 59
187 58
186 57
185 56
186 55
187 55
188 54
189 53
190 53
190 52
191 51
192 50
193 50
194 49
195 49
196 48
197 47
198 47
199 46
200 46
201 45
202 45
203 44
204 44
205 43
206 42
207 41
208 41
209 40
210 40
211 39
212 38
213 38
214 38
215 37
216 37
217 36
218 36
219 35
220 35
221 35
222 34
223 34
224 33
225 33
226 32
227 31
228 30
229 31
230 31
231 31
232 32
233 32
234 32
235 31
235 30
236 29
237 28
238 27
239 26
240 25
241 24
242 23
242 22
241 21
240 21
239 21
238 20
237 20
236 20
235 20
234 20
233 20
232 20
231 20
230 20
229 21
228 21
227 21
226 21
225 21
224 21
223 21
222 22
221 22
220 22
219 22
218 23
217 23
216 23
215 24
214 24
213 24
212 24
211 25
210 25
209 26
208 26
207 27
206 27
205 27
204 27
203 27
202 27
201 28
200 28
199 29
198 29
197 29
196 29
195 30
194 30
193 30
192 31
191 31
190 32
189 32
188 33
187 33
186 33
185 34
184 34
183 35
182 35
181 35
180 36
179 37
178 37
177 38
176 38
175 39
174 40
173 40
172 41
171 42
170 42
169 43
168 43
167 42
166 42
165 41
164 41
163 41
162 41
161 40
162 39
161 39
160 39
159 39
158 38
157 38
156 38
155 37
154 36
155 35
155 34
155 33
155 32
155 31
154 31
153 31
152 31
151 31
150 31
149 32
148 33
147 33
146 34
145 34
144 35
143 35
142 36
141 36
140 37
139 37
138 38
137 38
136 38
135 38
134 38
133 38
132 38
131 37
130 37
129 37
128 37
127 37
126 37
125 37
124 37
123 36
122 36
121 36
120 36
119 36
118 36
117 36
116 36
115 36
114 36
113 35
112 35
111 35
110 35
109 35
108 35
107 35
106 35
105 35
104 34
103 34
102 34
101 34
100 34
99 34
98 34
97 34
96 33
97 32
96 32
95 32
94 32
93 31
92 31
91 30
90 29
91 28
90 28
89 27
90 26
89 26
88 25
89 24
89 23
89 22
89 21
88 21
87 20
88 19
88 18
88 17
88 16
88 15
88 14
88 13
88 12
88 11
88 10
88 9
88 8
88 7
88 6
88 5
87 5
86 4
87 3
86 3
85 2
