50 1
49 2
48 2
47 3
47 4
46 5
45 6
45 7
44 8
43 9
42 10
41 11
41 12
40 13
40 14
39 15
39 16
38 17
38 18
37 19
37 20
36 21
35 21
35 22
34 23
34 24
33 25
32 25
32 26
31 27
30 27
29 28
28 29
27 30
26 30
25 31
24 31
23 32
22 32
21 32
20 33
19 34
18 34
17 34
16 35
15 36
14 36
13 37
12 38
11 38
10 39
9 39
8 40
7 40
6 41
5 41
4 41
3 41
2 42
2 43
3 44
4 44
5 45
6 45
7 45
8 46
9 47
10 48
11 48
12 49
13 50
14 51
15 52
16 52
17 53
18 54
19 55
20 55
21 56
22 57
23 58
24 59
25 59
26 60
27 61
28 62
29 63
29 64
30 65
31 66
31 67
32 68
32 69
32 70
32 71
33 72
33 73
34 74
35 75
35 76
35 77
36 78
36 79
37 80
38 81
38 82
39 83
39 84
39 85
40 86
41 87
42 88
43 88
44 89
45 90
46 90
47 89
48 89
49 88
50 87
51 86
52 85
53 85
54 84
55 83
56 83
57 82
58 82
59 81
60 80
61 79
62 78
63 77
64 76
65 75
66 74
67 73
68 72
68 71
69 70
69 69
69 68
70 67
70 66
71 65
71 64
71 63
72 62
73 62
74 62
75 62
76 62
77 61
77 60
78 59
78 58
78 57
77 57
76 56
75 55
76 54
77 54
78 54
79 54
80 53
81 53
82 53
83 53
84 53
85 53
86 53
87 53
88 53
89 53
90 52
91 52
92 52
93 52
94 52
95 52
96 52
97 52
98 52
99 52
100 51
101 51
102 51
103 51
104 51
105 51
106 51
107 51
108 51
109 51
110 51
111 51
112 51
113 51
114 51
115 51
116 50
117 50
118 50
119 50
120 50
121 50
122 50
123 50
124 50
125 50
126 50
127 49
128 49
129 49
129 48
130 47
129 47
128 47
127 47
126 47
125 47
124 47
123 47
122 46
123 45
122 45
121 45
120 45
119 46
118 46
117 46
116 46
115 45
114 45
113 45
112 45
111 45
110 45
109 45
108 45
107 45
106 45
105 45
104 45
103 45
102 45
101 45
100 45
99 45
98 45
97 45
96 45
95 45
94 45
93 45
92 45
91 45
90 45
89 45
88 45
87 45
86 45
85 44
84 45
83 45
82 44
81 44
80 44
79 44
78 44
77 44
76 44
75 44
74 43
75 42
76 41
77 40
78 39
78 38
79 37
79 36
78 36
77 35
76 35
75 35
74 35
73 35
72 34
72 33
73 32
73 31
73 30
73 29
72 29
71 28
72 27
72 26
72 25
71 25
70 24
71 23
70 23
69 22
70 21
69 21
68 20
69 19
68 19
67 18
66 17
67 16
66 16
65 15
64 14
63 13
62 12
61 11
60 10
59 9
58 8
57 7
56 7
55 6
54 5
53 4
52 3
51 2
