34 2
33 3
32 3
31 4
30 5
29 6
29 7
28 8
27 9
26 10
25 11
24 12
24 13
23 14
23 15
22 16
22 17
21 18
20 19
20 20
19 21
18 22
17 23
16 24
15 25
14 25
13 26
12 27
11 28
10 29
9 30
8 31
8 32
7 33
6 34
5 35
5 36
4 37
4 38
3 39
2 40
2 41
2 42
2 43
3 44
4 45
5 46
6 47
7 48
8 49
8 50
9 51
9 52
10 53
11 54
12 55
13 56
14 57
15 58
16 59
17 60
18 61
19 62
19 63
20 64
21 65
22 66
22 67
23 68
24 69
24 70
25 71
26 72
27 73
27 74
28 75
29 76
30 77
30 78
31 79
32 80
33 81
34 82
35 83
36 83
37 83
38 82
39 82
40 81
41 81
42 81
43 80
44 79
45 79
46 78
47 77
48 77
49 76
50 75
51 74
52 73
53 72
54 72
55 71
56 70
57 69
58 68
59 67
59 66
60 65
61 64
62 63
62 62
63 61
63 60
64 59
64 58
64 57
64 56
64 55
65 54
66 54
67 55
68 55
69 55
70 55
71 55
72 54
73 54
74 53
75 52
76 51
76 50
77 49
77 48
77 47
78 46
79 46
80 46
81 46
82 46
83 46
84 46
85 46
86 46
87 45
88 45
89 45
90 45
91 45
92 45
93 45
94 45
95 45
96 44
97 44
98 44
99 44
100 44
101 44
102 44
103 44
104 44
105 44
106 44
107 44
108 44
109 44
110 44
111 44
112 44
113 43
114 43
115 43
116 43
117 43
118 43
119 43
120 43
121 43
122 42
123 42
124 42
125 42
126 42
127 42
127 41
127 40
126 40
125 40
124 41
123 41
122 41
121 40
122 39
121 39
120 38
119 38
118 38
117 39
116 40
115 40
114 40
113 39
114 38
113 38
112 38
111 38
110 38
109 39
108 40
107 40
106 39
105 39
104 39
103 39
102 39
101 39
100 39
99 39
98 39
97 39
96 39
95 38
94 38
93 38
92 38
91 38
90 38
89 38
88 38
87 38
86 38
85 38
84 38
83 38
82 38
81 37
80 37
79 37
78 37
77 37
76 36
77 35
77 34
78 33
77 33
76 32
77 31
76 31
75 30
74 30
73 29
72 28
71 28
70 28
69 27
68 27
67 27
66 27
65 27
64 27
63 26
62 25
63 24
63 23
62 23
61 22
62 21
61 21
60 20
59 19
60 18
59 18
58 17
57 16
58 15
57 15
56 14
55 14
54 13
53 12
52 11
51 10
50 9
49 8
48 7
47 7
46 6
45 6
44 5
43 4
42 4
41 4
40 3
39 3
38 3
37 2
36 2
35 2
