40 4
40 5
39 6
38 5
37 5
36 5
35 5
35 6
34 7
33 6
32 6
31 6
31 7
30 8
29 7
28 7
27 7
27 8
26 9
25 8
25 9
24 10
23 9
22 9
22 10
21 11
20 12
19 11
19 12
18 13
17 14
16 15
15 16
14 17
13 18
12 19
12 20
11 21
10 22
9 23
9 24
8 25
8 26
7 27
7 28
6 29
6 30
5 31
5 32
4 33
4 34
4 35
3 36
3 37
3 38
3 39
3 40
2 41
2 42
2 43
2 44
2 45
2 46
2 47
2 48
2 49
2 50
2 51
2 52
2 53
2 54
3 55
3 56
3 57
3 58
3 59
4 60
4 61
4 62
5 63
5 64
6 65
6 66
6 67
7 68
7 69
8 70
9 71
10 72
10 73
10 74
11 75
12 76
13 77
14 78
14 79
15 80
16 81
17 82
18 83
18 84
19 85
20 85
21 86
22 87
23 88
24 88
25 89
26 90
27 90
28 91
29 92
29 93
30 93
31 94
32 94
33 95
34 95
35 96
36 96
37 97
38 98
39 98
40 98
41 99
42 99
43 100
44 100
45 100
46 100
47 101
48 101
49 102
50 102
51 103
52 103
53 103
54 103
55 103
56 103
57 104
58 104
59 104
60 104
61 104
62 104
63 104
64 104
65 104
66 105
67 105
68 105
69 105
70 105
71 105
72 105
73 105
74 105
75 105
76 105
77 105
78 105
79 105
80 106
81 106
82 106
83 106
84 106
85 106
86 106
87 106
88 106
89 105
90 105
91 105
92 105
93 105
94 105
95 105
96 105
97 105
98 105
99 105
100 105
101 105
102 105
103 105
104 105
105 105
106 105
107 105
108 105
109 105
110 105
111 105
112 105
113 105
114 105
115 105
116 105
117 105
118 105
119 105
120 105
121 105
122 105
123 104
124 104
125 104
126 104
127 104
128 104
129 104
130 104
131 105
132 105
133 105
134 105
135 105
136 105
137 105
138 105
139 105
140 105
141 105
142 105
143 105
144 105
145 105
146 105
147 105
148 105
149 105
150 105
151 104
152 104
153 104
154 104
155 104
156 104
157 103
158 103
159 103
160 103
161 103
162 103
163 103
164 102
165 102
166 102
167 101
168 101
169 101
170 100
171 100
172 100
173 99
174 99
175 99
176 98
177 98
178 97
179 96
180 95
181 95
182 95
183 95
184 94
185 94
186 94
187 94
188 93
189 92
190 91
191 90
191 89
191 88
191 87
191 86
190 85
189 85
188 84
187 84
186 84
185 84
184 83
183 83
182 83
181 83
180 83
179 82
178 82
177 82
176 82
175 82
174 82
173 82
172 82
171 82
170 82
169 82
168 82
167 82
166 82
165 82
164 82
163 82
162 82
161 82
160 81
159 80
158 80
157 79
156 79
155 79
154 78
153 78
152 78
151 78
150 78
149 78
148 77
147 77
146 77
145 77
144 77
143 77
142 77
141 77
140 77
139 77
138 77
137 77
136 77
136 78
135 79
134 78
133 78
132 78
131 78
130 78
129 78
128 77
127 77
127 78
126 79
125 78
124 78
123 78
123 79
122 80
121 79
120 79
119 79
118 79
117 79
116 79
115 79
114 79
113 79
112 79
111 79
110 79
110 80
109 81
108 80
107 80
106 80
105 80
104 80
103 80
102 80
101 80
100 80
99 80
98 80
97 80
96 80
95 80
94 80
93 80
92 80
91 80
90 80
89 80
88 80
87 80
86 80
85 79
84 79
83 79
82 79
81 79
81 80
80 81
79 80
78 80
77 80
76 80
75 80
74 80
73 80
72 80
71 80
70 80
69 80
68 80
67 80
66 80
65 80
64 80
63 80
62 80
61 80
60 80
59 80
58 80
57 80
56 80
55 79
54 79
53 79
52 79
51 79
50 79
49 79
48 78
47 78
46 78
45 78
44 77
43 77
42 77
41 76
40 75
39 74
38 74
37 73
36 74
35 73
34 72
33 71
32 70
31 69
30 68
29 67
28 66
27 65
27 64
26 63
25 62
25 61
24 60
24 59
23 58
23 57
23 56
22 55
21 54
21 53
21 52
20 51
20 50
20 49
19 48
19 47
19 46
19 45
19 44
19 43
19 42
19 41
19 40
20 39
20 38
20 37
21 36
21 35
21 34
22 33
23 32
23 31
24 30
25 29
26 28
27 27
27 26
28 25
29 24
30 23
31 22
32 22
33 21
34 20
35 19
36 19
37 18
38 18
39 18
40 17
41 17
42 17
43 17
44 16
45 16
46 16
47 15
48 15
49 15
50 15
51 15
52 15
53 15
54 15
55 16
56 16
57 16
58 16
59 17
60 17
61 17
62 17
63 17
64 18
65 18
66 18
67 19
68 19
69 19
70 19
71 20
72 20
73 21
74 21
75 22
76 22
77 22
78 23
79 23
80 23
81 24
82 24
83 24
84 25
85 25
86 26
87 27
88 28
88 29
89 30
90 30
91 30
92 30
93 30
93 29
93 28
93 27
92 26
91 26
90 25
90 24
90 23
89 22
88 21
87 21
86 20
86 19
85 18
84 18
83 17
82 17
81 16
80 15
79 15
78 14
77 13
76 13
75 12
74 12
73 11
72 11
71 10
70 10
69 10
68 9
67 9
66 9
65 8
64 8
63 8
62 7
61 7
60 7
59 6
58 6
57 6
56 6
55 6
54 5
53 5
52 5
51 5
50 4
49 4
48 4
47 4
46 4
45 4
44 4
43 4
42 4
41 4
