33 2
32 3
31 4
30 4
29 5
28 6
27 6
27 7
26 8
25 9
24 9
24 10
23 11
23 12
22 13
22 14
22 15
21 16
21 17
20 18
20 19
19 20
19 21
18 22
17 22
16 23
15 24
14 25
13 26
12 27
11 28
10 28
9 29
8 30
8 31
8 32
7 33
6 34
6 35
5 36
5 37
4 38
4 39
3 40
2 41
2 42
2 43
2 44
3 45
3 46
4 46
5 47
6 48
6 49
7 50
7 51
8 52
8 53
9 54
9 55
10 55
11 56
12 57
13 58
14 58
15 59
16 60
17 61
18 61
19 62
19 63
20 63
21 64
22 65
22 66
23 67
24 68
25 69
25 70
26 71
27 72
27 73
28 73
29 74
29 75
30 76
31 77
32 78
33 79
34 79
35 80
36 80
37 81
38 81
39 81
40 81
41 80
42 80
43 80
44 80
45 79
46 79
47 79
48 78
49 78
50 77
51 77
52 76
53 75
54 75
55 74
56 73
57 72
58 71
59 70
60 69
61 68
62 67
62 66
63 65
64 64
64 63
65 62
65 61
66 60
66 59
67 58
67 57
67 56
67 55
67 54
67 53
68 52
69 52
70 52
71 52
72 52
73 52
74 52
75 52
75 51
76 50
76 49
77 48
77 47
76 47
75 46
76 45
77 45
78 45
79 45
80 45
81 44
82 44
83 44
84 44
85 44
86 44
87 44
88 44
89 44
90 44
91 44
92 44
93 44
94 44
95 44
96 44
97 44
98 44
99 44
100 44
101 44
102 44
103 44
104 44
105 43
106 43
107 43
108 43
109 43
110 43
111 43
112 43
113 43
114 43
115 43
116 43
117 43
118 43
119 43
120 43
121 43
122 43
123 43
124 43
125 43
126 43
127 43
128 43
129 43
130 43
131 43
132 43
133 43
134 43
135 42
135 41
134 41
133 41
132 41
131 40
130 40
129 39
128 38
127 38
126 38
125 38
124 39
123 40
122 40
121 39
120 38
119 38
118 38
117 38
116 38
115 39
114 39
113 39
112 39
111 38
110 38
109 38
108 38
107 38
106 38
105 38
104 38
103 38
102 38
101 38
100 38
99 37
98 37
97 37
96 37
95 37
94 37
93 37
92 37
91 37
90 37
89 37
88 36
87 36
86 36
85 36
84 36
83 36
82 36
81 36
80 36
79 36
78 36
77 36
76 36
75 35
74 35
73 34
74 33
75 33
75 32
76 31
76 30
77 29
77 28
76 28
75 28
74 27
73 27
72 27
71 27
70 27
69 27
68 26
67 26
66 26
65 25
65 24
66 23
66 22
67 21
67 20
66 20
65 19
66 18
65 18
64 17
63 16
62 15
63 14
62 14
61 13
60 13
59 12
58 11
57 10
56 10
55 9
54 9
53 8
52 7
51 7
50 6
49 6
48 5
47 5
46 4
45 4
44 4
43 3
42 3
41 2
40 2
39 2
38 2
37 2
36 2
35 2
34 2
