35 2
34 3
33 3
32 4
31 4
30 5
29 5
28 6
27 7
26 7
25 8
24 9
24 10
23 11
22 12
21 13
20 14
20 15
19 16
18 17
17 18
16 19
15 20
14 20
13 21
12 21
11 22
10 23
9 23
9 24
8 25
7 26
6 27
6 28
5 29
5 30
4 31
3 32
2 33
2 34
2 35
2 36
2 37
2 38
2 39
3 40
3 41
4 42
4 43
5 44
5 45
6 46
6 47
7 48
8 49
9 50
10 51
11 52
12 52
13 53
14 54
15 55
16 55
17 56
17 57
18 58
19 59
20 60
21 61
22 62
22 63
23 64
24 65
25 66
26 67
26 68
27 68
28 69
28 70
29 71
30 72
31 73
32 73
33 73
34 74
35 74
36 74
37 74
38 74
39 74
40 74
41 73
42 73
43 73
44 72
45 72
46 72
47 71
48 71
49 70
50 69
51 69
52 69
53 68
54 67
55 66
56 65
57 65
58 64
59 63
59 62
60 61
60 60
61 59
61 58
62 57
62 56
62 55
62 54
63 53
64 52
65 52
66 52
67 52
68 52
69 52
70 52
71 51
72 51
73 51
74 51
75 50
76 49
76 48
77 47
77 46
76 46
75 45
74 44
75 43
76 43
77 42
78 42
79 42
80 42
81 42
82 41
83 41
84 41
85 41
86 41
87 41
88 40
89 40
90 40
91 40
92 40
93 40
94 40
95 40
96 40
97 40
98 40
99 39
100 39
101 39
102 39
103 39
104 39
105 39
106 39
107 38
108 38
109 38
110 38
111 38
112 38
113 38
114 38
115 38
116 38
117 38
118 38
119 38
120 38
121 37
122 37
123 37
124 37
125 37
126 37
127 37
127 36
128 35
127 35
126 34
125 33
126 32
125 32
124 32
123 32
122 32
121 33
120 32
119 32
118 32
117 32
116 32
115 32
114 33
113 34
112 34
111 34
110 34
109 34
108 34
107 34
106 34
105 34
104 34
103 34
102 34
101 34
100 34
99 34
98 34
97 33
96 33
95 33
94 33
93 33
92 33
91 33
90 33
89 33
88 33
87 33
86 33
85 33
84 33
83 33
82 33
81 33
80 33
79 33
78 33
77 33
76 33
75 32
76 31
76 30
77 29
77 28
76 27
75 26
74 26
73 26
72 25
71 25
70 25
69 25
68 25
67 25
66 25
65 26
64 26
63 26
62 25
63 24
63 23
63 22
63 21
63 20
62 20
61 19
62 18
62 17
61 17
60 16
61 15
60 15
59 14
58 13
57 12
56 11
55 10
54 9
53 8
52 7
51 7
50 6
49 5
48 4
47 4
46 3
45 2
44 2
43 2
42 2
41 2
40 2
39 2
38 2
37 2
36 2
