54 2
53 3
52 4
51 4
50 5
49 6
49 7
48 8
47 9
46 9
46 10
46 11
46 12
45 13
44 14
43 15
43 16
42 17
41 18
41 19
40 20
39 21
38 22
37 23
36 24
36 25
35 26
34 26
34 27
33 28
32 29
31 30
30 31
29 32
28 32
27 33
26 34
25 35
24 36
23 37
22 38
21 38
20 39
20 40
19 41
18 42
17 43
16 44
15 45
14 46
13 47
12 48
11 48
10 49
9 50
8 50
7 51
6 52
5 52
4 53
3 53
2 54
2 55
2 56
2 57
2 58
3 59
4 59
5 60
6 61
7 61
8 61
9 62
10 63
11 64
12 65
13 66
14 67
15 68
15 69
16 70
16 71
17 72
18 73
19 74
19 75
20 76
21 77
22 78
23 79
23 80
24 80
25 81
25 82
26 83
27 84
28 85
29 86
30 87
30 88
31 89
31 90
32 91
32 92
33 93
34 94
34 95
35 96
36 97
36 98
37 99
38 100
38 101
38 102
39 103
39 104
40 105
41 106
42 107
42 108
43 109
44 110
44 111
45 112
46 113
47 114
48 114
49 115
50 115
51 115
52 115
53 114
54 113
55 112
56 111
57 110
58 109
59 108
60 107
61 106
62 105
63 104
64 103
65 102
66 102
67 101
68 100
69 99
70 99
71 98
72 97
73 96
74 96
74 95
75 94
76 93
77 93
78 92
78 91
79 90
79 89
80 88
81 87
81 86
82 85
82 84
83 83
83 82
84 81
84 80
85 79
85 78
85 77
85 76
86 75
87 74
88 74
89 74
90 74
91 74
92 73
93 73
94 72
95 72
96 71
97 71
97 70
98 69
98 68
99 67
99 66
100 65
101 66
102 66
103 65
104 66
105 65
106 66
107 66
108 66
109 65
110 66
111 66
112 66
113 66
114 66
115 66
116 66
117 66
118 66
119 66
120 66
121 66
122 66
123 66
124 65
125 66
126 65
127 65
128 65
129 65
130 65
131 65
132 65
133 65
134 65
135 65
136 64
137 64
138 65
138 66
139 66
139 65
140 64
141 65
142 65
143 65
144 65
145 65
146 65
147 65
147 64
148 63
147 63
146 63
145 62
146 61
146 60
146 59
145 59
144 59
143 59
142 60
141 60
140 61
139 61
138 61
137 60
137 59
136 58
135 58
134 58
133 58
132 59
131 60
130 61
129 61
128 61
127 61
126 61
125 61
124 61
123 61
122 60
121 60
120 60
119 60
118 60
117 60
116 60
115 60
114 60
113 60
112 60
111 59
110 59
109 59
108 59
107 59
106 59
105 59
104 58
103 58
102 58
101 58
100 58
99 57
99 56
99 55
100 54
99 54
98 53
99 52
98 52
97 51
96 50
95 50
94 50
93 49
92 49
91 48
90 48
89 47
88 47
87 46
86 45
87 44
87 43
88 42
88 41
88 40
88 39
87 39
86 38
85 38
84 37
85 36
85 35
85 34
84 34
83 33
84 32
83 32
82 31
83 30
82 30
81 29
82 28
81 28
80 27
81 26
80 26
79 25
78 24
79 23
78 23
77 23
76 22
75 21
74 20
75 19
74 19
73 18
72 18
71 17
72 16
71 16
70 15
69 15
68 14
69 13
68 13
67 12
66 11
65 10
64 9
65 8
64 8
63 7
62 6
63 5
62 5
61 4
60 3
59 2
58 2
57 2
56 2
55 2
