81 4
81 5
80 6
79 5
78 5
77 5
76 5
75 5
74 5
73 5
72 5
71 5
70 5
70 6
69 7
68 6
67 6
66 6
65 6
64 6
63 6
62 6
61 6
61 7
60 8
59 7
58 7
58 8
57 9
56 8
55 8
55 9
54 10
53 9
52 9
51 9
51 10
50 11
49 10
48 10
47 10
47 11
46 12
45 11
44 11
43 11
42 11
41 11
41 12
40 13
39 12
39 13
38 14
37 13
37 14
36 15
35 14
34 14
34 15
33 16
32 15
31 15
31 16
30 17
29 16
28 16
28 17
27 18
26 17
26 18
25 19
24 18
23 18
23 19
22 20
21 19
21 20
20 21
19 22
18 23
17 24
16 23
16 24
15 25
14 24
13 24
13 25
12 26
11 27
11 28
10 29
9 30
8 29
8 30
7 31
6 32
5 33
4 32
4 33
3 34
2 33
2 34
2 35
2 36
3 37
4 38
3 39
3 40
3 41
3 42
4 42
5 42
6 42
7 43
8 43
9 43
10 43
11 43
12 43
13 43
14 43
15 43
16 43
17 43
18 43
19 42
20 42
21 42
22 43
22 44
23 44
24 44
25 44
26 44
27 44
28 44
29 44
30 44
31 44
32 44
33 43
34 43
35 43
36 42
37 42
38 42
39 42
40 42
41 41
42 41
43 41
44 40
45 40
46 40
47 39
48 39
49 39
50 38
51 38
52 38
53 38
54 38
55 38
56 38
57 38
58 38
59 38
60 38
61 38
62 38
63 38
64 38
65 38
66 38
67 38
68 38
69 38
70 39
71 39
72 39
73 39
74 38
75 38
76 38
77 38
78 38
79 38
80 38
81 37
82 37
83 37
84 37
85 37
86 36
87 36
88 36
89 36
90 35
91 35
92 35
93 35
94 35
95 34
96 34
97 34
98 34
99 34
100 34
101 34
102 34
103 34
104 34
105 34
106 34
107 34
108 35
109 35
110 35
111 35
112 35
113 36
114 36
115 36
116 36
117 37
118 37
119 37
120 37
121 37
122 38
123 38
124 38
125 38
126 38
127 38
128 38
129 39
130 39
131 39
132 39
133 39
134 39
135 40
135 41
136 41
137 41
138 41
139 41
140 40
141 40
142 40
143 40
144 41
145 41
146 41
147 41
148 41
149 42
150 42
151 42
152 43
153 43
154 43
155 44
156 44
157 44
158 44
159 44
160 44
161 44
162 44
163 44
164 45
165 45
166 45
167 45
168 45
169 45
170 45
171 45
172 45
173 45
174 45
175 45
176 45
177 45
178 45
179 45
180 45
181 45
182 45
183 45
184 45
185 45
186 45
187 46
188 46
189 46
190 46
191 46
192 46
193 46
194 46
195 47
196 47
197 47
198 47
199 47
200 48
201 48
202 49
202 50
202 51
203 51
204 51
205 50
206 49
207 49
208 50
209 50
210 50
211 50
212 51
213 51
214 52
214 53
215 53
216 53
217 53
218 53
219 53
220 54
221 54
222 54
223 55
224 55
225 55
226 56
227 56
228 57
229 57
230 58
231 58
232 59
233 59
234 60
235 61
236 62
237 63
237 64
238 65
239 66
239 67
239 68
239 69
240 70
240 71
240 72
240 73
240 74
240 75
240 76
241 77
241 78
242 79
243 79
244 79
245 79
246 79
247 78
248 77
248 76
248 75
248 74
249 73
249 72
249 71
249 70
249 69
249 68
249 67
249 66
249 65
249 64
248 63
248 62
248 61
248 60
248 59
247 58
247 57
246 56
246 55
245 54
244 53
243 52
242 51
242 50
241 49
240 48
239 47
238 46
237 46
236 45
235 45
234 44
233 43
232 43
231 42
230 41
229 40
228 40
227 39
226 39
225 38
224 38
223 37
222 37
221 37
220 36
219 36
218 36
217 35
216 35
215 35
214 35
213 34
212 34
211 33
210 33
209 32
208 32
207 31
206 31
205 30
204 30
203 30
202 30
201 30
200 29
199 29
198 29
197 29
196 29
195 28
194 28
193 28
192 28
191 28
190 27
189 27
188 27
187 27
186 26
185 26
184 26
183 25
182 25
181 25
180 25
179 25
178 25
177 25
176 24
175 24
174 24
173 24
172 24
171 24
170 24
169 24
168 23
167 23
166 23
165 23
164 23
163 23
162 23
161 23
160 23
159 22
158 22
157 21
156 21
155 20
154 20
153 19
152 19
151 19
150 18
149 17
148 16
147 16
146 15
146 16
145 17
144 17
143 16
142 16
141 16
140 16
139 15
138 15
137 15
136 14
135 14
134 14
133 13
132 13
131 12
130 12
129 11
128 11
127 11
126 11
125 10
124 10
123 10
122 10
121 10
120 10
119 10
118 10
117 9
116 9
115 9
114 9
113 8
112 8
111 7
110 7
109 7
108 7
107 6
106 6
105 6
104 6
103 6
102 6
101 6
100 5
99 5
98 5
97 5
96 5
95 4
94 4
93 4
92 4
91 4
90 4
89 4
88 4
87 4
86 4
85 4
84 4
83 4
82 4
