41 2
40 3
39 3
38 3
37 3
36 4
35 4
34 5
33 6
32 7
31 8
30 9
29 10
29 11
28 12
28 13
28 14
27 15
27 16
26 17
25 18
25 19
24 20
24 21
23 22
23 23
22 24
21 25
21 26
20 27
19 28
19 29
18 30
18 31
17 32
16 33
16 34
15 35
15 36
14 37
13 38
13 39
12 40
11 41
11 42
10 43
10 44
9 45
9 46
8 47
8 48
7 49
7 50
6 51
6 52
5 53
4 54
4 55
3 56
3 57
2 58
2 59
2 60
2 61
3 62
4 63
4 64
5 65
6 66
6 67
6 68
7 69
7 70
8 71
8 72
9 73
9 74
10 75
10 76
11 77
11 78
12 79
12 80
13 81
13 82
14 83
14 84
15 85
16 86
16 87
17 88
17 89
18 90
18 91
19 92
19 93
20 94
21 95
21 96
22 97
22 98
23 99
23 100
24 101
25 102
25 103
26 104
26 105
27 106
27 107
28 108
29 109
30 110
31 111
32 112
32 113
33 114
34 115
35 115
36 116
37 116
38 116
39 117
40 117
41 117
42 117
43 117
44 117
45 117
46 117
47 116
48 116
49 116
50 115
51 115
52 114
53 114
54 113
55 112
56 111
57 110
58 110
59 109
60 108
61 107
62 107
63 106
64 105
65 105
66 104
67 103
68 103
69 102
70 102
71 101
72 101
73 100
74 99
75 99
76 98
77 97
78 97
79 96
80 95
81 94
82 93
83 92
84 91
85 90
86 89
87 88
88 88
88 87
89 86
90 85
91 84
92 83
93 82
93 81
93 80
93 79
94 78
95 77
96 76
97 75
97 74
98 73
98 72
99 71
99 70
100 69
100 68
100 67
100 66
101 65
102 65
103 65
104 65
105 65
106 65
107 65
108 66
109 66
110 66
111 66
112 67
113 67
114 67
115 68
116 68
117 69
118 69
119 70
120 70
121 70
122 71
123 72
124 72
125 73
126 73
127 74
128 75
129 75
130 76
131 77
132 77
133 78
134 79
135 80
136 81
137 81
138 82
139 82
140 83
141 83
142 84
143 84
144 84
145 85
146 85
147 85
148 85
149 86
150 86
151 86
152 86
153 86
154 86
155 86
156 86
157 86
158 86
159 86
160 86
161 85
162 85
163 85
164 84
165 84
166 83
167 83
168 82
169 81
170 81
170 80
171 79
172 78
173 77
174 76
175 75
175 74
176 73
177 72
178 71
179 70
180 70
181 69
181 68
182 67
183 66
184 65
185 64
186 63
187 62
188 61
189 60
190 59
191 58
192 57
193 56
194 55
195 54
196 54
197 53
198 52
199 52
200 51
201 50
202 50
203 49
204 49
205 49
206 49
207 49
208 49
209 48
210 49
211 49
212 49
213 49
214 49
215 49
216 49
217 50
218 50
219 51
220 51
221 52
222 53
223 54
224 55
225 56
226 57
227 58
228 59
229 60
229 61
230 62
231 63
232 64
232 65
233 66
234 67
234 68
235 69
236 70
237 71
238 72
238 73
239 74
240 75
241 76
241 77
242 78
243 79
244 80
244 79
245 78
245 77
245 76
244 76
243 75
242 74
241 73
240 72
241 71
240 71
239 70
238 69
237 68
236 67
237 66
236 66
235 65
234 64
233 63
234 62
233 62
232 61
231 60
232 59
231 59
230 58
229 57
228 56
227 55
226 54
225 53
224 52
225 51
224 51
223 50
222 49
221 49
220 48
219 47
218 47
217 46
216 45
215 45
214 45
213 45
212 44
211 44
210 44
209 44
208 44
207 44
206 44
205 45
204 45
203 45
202 45
201 45
200 46
199 46
198 47
197 48
196 49
195 50
194 50
193 51
192 52
191 52
191 53
190 54
189 55
188 56
187 56
186 57
185 58
185 59
184 60
183 61
182 61
181 62
180 63
179 64
179 65
178 66
177 66
177 67
176 68
175 69
174 70
173 71
172 72
171 73
170 73
169 74
168 75
167 76
166 77
165 77
164 78
163 79
162 80
161 80
160 81
159 81
158 81
157 81
156 81
155 81
154 80
153 80
152 80
151 79
150 78
149 78
148 78
147 77
146 77
145 76
144 76
143 75
142 74
141 73
140 73
139 72
138 71
137 70
138 69
139 69
140 68
141 67
142 67
143 66
144 65
145 65
146 64
146 63
147 62
146 62
145 62
144 62
143 63
142 63
141 64
140 64
139 65
138 65
137 66
136 66
135 66
134 67
133 67
132 66
131 65
130 64
129 63
128 63
127 62
126 61
125 61
124 60
123 59
122 59
121 58
120 58
119 57
118 57
117 56
116 56
115 56
114 56
113 55
112 55
111 55
110 55
109 55
108 55
107 55
106 55
105 55
104 55
103 55
102 55
101 55
100 54
101 53
101 52
101 51
101 50
100 50
99 49
100 48
99 48
98 47
99 46
99 45
98 45
97 44
98 43
97 43
96 42
95 41
94 41
93 40
94 39
94 38
93 38
92 37
93 36
92 36
91 35
92 34
91 34
90 33
89 32
88 31
89 30
88 30
87 30
86 29
87 28
86 28
85 27
84 27
83 26
82 25
81 24
80 23
79 22
78 22
77 21
76 21
75 20
74 19
73 19
72 18
71 17
70 17
69 16
68 15
67 14
68 13
67 13
66 12
65 11
64 10
63 9
62 9
61 8
60 7
59 7
58 6
57 5
56 5
55 4
54 4
53 3
52 3
51 3
50 3
49 2
48 2
47 2
46 2
45 2
44 2
43 2
42 2
