47 2
46 3
45 3
44 4
43 4
42 5
42 6
41 7
40 7
39 8
38 9
37 10
36 11
36 12
35 13
34 13
34 14
34 15
33 16
32 17
31 18
31 19
30 20
29 21
29 22
28 23
28 24
27 25
26 26
25 26
24 27
23 28
22 28
21 29
20 29
19 30
18 31
17 31
16 32
16 33
15 34
14 34
13 35
12 36
11 37
10 38
9 39
8 40
7 41
6 42
6 43
6 44
5 45
5 46
4 47
3 47
3 48
2 49
2 50
2 51
2 52
2 53
3 54
4 54
5 55
5 56
5 57
6 58
6 59
6 60
7 61
7 62
8 63
9 64
10 65
10 66
11 67
12 68
12 69
13 70
14 71
15 72
16 73
17 74
18 74
19 75
20 76
20 77
21 78
22 79
23 80
23 81
24 82
25 83
25 84
26 85
26 86
27 87
27 88
28 89
29 90
29 91
30 92
31 93
32 94
32 95
33 96
33 97
34 98
35 99
36 100
36 101
37 102
38 103
38 104
38 105
39 106
40 106
41 107
42 108
43 108
44 109
45 109
46 109
47 109
48 109
49 109
50 109
51 108
52 108
53 108
54 107
55 107
56 106
57 106
58 105
59 105
60 104
61 103
62 102
63 102
64 101
65 100
66 99
67 98
68 98
69 97
70 96
71 95
71 94
72 93
73 93
74 92
75 91
76 90
77 89
78 88
79 87
80 86
80 85
81 84
81 83
82 82
83 81
84 80
84 79
85 78
85 77
86 76
86 75
86 74
86 73
86 72
87 71
88 71
89 71
90 71
91 71
92 71
93 71
94 71
95 70
96 70
97 69
97 68
98 67
98 66
97 65
98 64
97 64
96 63
97 62
98 62
99 62
100 62
101 62
102 61
103 61
104 61
105 61
106 61
107 61
108 61
109 61
110 61
111 61
112 61
113 61
114 61
115 61
116 61
117 61
118 61
119 61
120 61
121 61
122 61
123 61
124 61
125 61
126 61
127 61
128 61
129 61
130 61
131 61
132 61
133 61
134 61
135 61
136 61
137 61
138 61
139 61
140 61
141 61
142 61
143 61
144 61
145 61
146 61
147 61
148 61
149 61
150 61
151 61
152 61
153 61
154 61
155 61
156 61
157 61
158 61
159 61
160 61
161 61
162 61
163 61
164 60
164 59
163 58
162 58
161 57
160 57
159 57
158 56
159 55
158 55
157 55
156 55
155 55
154 55
153 55
152 56
151 56
150 56
149 56
148 55
149 54
148 54
147 54
146 54
145 54
144 54
143 55
142 55
141 55
140 55
139 55
138 55
137 55
136 55
135 55
134 55
133 55
132 55
131 54
130 54
129 54
128 54
127 54
126 54
125 54
124 54
123 54
122 54
121 54
120 54
119 54
118 54
117 54
116 54
115 54
114 53
113 53
112 53
111 53
110 53
109 53
108 53
107 53
106 53
105 53
104 53
103 53
102 53
101 53
100 52
99 52
98 52
97 52
96 52
95 52
94 52
93 51
94 50
94 49
95 48
95 47
96 46
96 45
97 44
96 44
95 43
94 42
93 42
92 41
91 41
90 41
89 42
88 42
87 42
86 42
85 42
84 41
84 40
85 39
85 38
85 37
85 36
85 35
85 34
85 33
84 33
83 32
84 31
84 30
83 30
82 29
81 28
82 27
81 27
80 26
79 26
78 25
77 24
78 23
77 23
76 22
75 21
74 20
73 19
72 18
71 17
70 16
69 15
70 14
69 14
68 13
67 12
66 11
65 10
64 10
63 9
62 8
61 8
60 7
59 7
58 6
57 5
56 4
55 4
54 3
53 3
52 2
51 2
50 2
49 2
48 2
