79 2
78 3
77 4
76 5
75 6
75 7
74 8
73 9
72 10
71 11
70 12
69 12
68 12
67 12
66 12
65 12
64 12
63 12
62 12
61 12
60 12
59 12
58 12
57 12
56 12
55 12
54 12
53 12
52 12
51 12
50 12
49 12
48 12
47 12
46 12
45 12
44 12
43 12
42 12
41 12
40 12
39 12
38 12
37 12
36 12
35 12
34 12
33 12
32 12
31 12
30 12
29 12
28 12
27 12
26 12
25 12
24 13
23 13
22 13
21 13
20 13
19 14
18 14
17 14
16 14
15 15
14 15
13 15
12 16
11 16
10 17
9 17
8 18
7 18
6 19
5 19
4 20
3 21
3 22
2 23
2 24
2 25
3 26
3 27
4 28
5 29
6 29
7 30
8 30
9 31
10 31
11 32
12 32
13 33
14 33
15 34
16 34
17 34
18 35
19 35
20 35
21 36
22 37
23 37
24 37
25 37
26 38
27 38
28 38
29 38
30 38
31 39
32 39
33 39
34 39
35 40
36 40
37 40
38 41
39 41
40 41
41 41
42 42
43 42
44 42
45 42
46 42
47 42
48 42
49 42
50 42
51 42
52 42
53 42
54 42
55 42
56 42
57 42
58 42
59 42
60 42
61 42
62 42
63 42
64 42
65 42
66 41
67 42
68 42
69 43
70 44
71 44
72 45
73 45
74 45
75 46
76 46
77 46
77 45
78 44
78 43
78 42
77 42
76 41
77 40
78 40
79 39
80 39
81 39
82 39
83 39
84 39
85 39
86 38
87 38
88 38
89 38
90 38
91 38
92 37
93 38
94 39
95 40
95 41
96 42
97 42
98 41
99 41
100 40
101 40
102 39
103 39
104 39
105 39
106 38
107 38
108 38
109 38
110 38
111 38
112 37
113 37
114 37
115 37
116 36
117 36
118 36
119 36
119 35
120 34
120 33
121 32
122 32
123 32
124 31
125 31
126 32
127 32
128 32
129 33
130 33
131 33
132 33
133 34
134 34
135 35
136 35
137 36
138 36
139 36
140 37
141 37
142 38
143 38
144 38
145 38
146 38
147 38
148 38
148 37
149 36
149 35
148 35
147 34
148 33
147 33
146 32
147 31
146 31
145 30
144 29
143 28
142 27
141 26
140 25
141 24
142 23
143 22
144 21
145 20
146 19
147 18
147 17
148 16
148 15
149 14
149 13
149 12
148 12
147 12
146 12
145 12
144 12
143 12
142 13
141 13
140 13
139 13
138 14
137 14
136 14
135 14
134 15
133 15
132 16
131 16
130 16
129 17
128 17
127 18
126 18
125 19
124 19
123 19
122 19
121 19
120 19
119 19
118 19
117 18
116 18
115 18
114 18
113 18
112 18
111 17
110 17
109 17
108 17
107 17
106 16
105 16
104 16
103 16
102 16
101 16
100 16
99 15
98 15
97 15
96 15
95 15
94 14
94 13
95 12
94 12
93 11
92 11
91 10
90 9
89 9
88 8
87 7
88 6
87 6
86 6
85 5
84 4
83 3
82 3
81 2
80 2
