106 2
105 3
104 3
103 4
102 4
101 4
100 4
99 4
98 4
97 5
96 5
95 5
94 5
94 6
94 7
93 8
92 8
91 9
90 9
89 10
88 10
87 10
87 11
87 12
87 13
87 14
87 15
86 16
85 15
84 14
85 13
85 12
84 12
83 11
82 10
83 9
82 9
81 8
80 7
79 6
78 6
77 5
76 5
75 5
74 5
73 5
72 5
71 5
70 6
69 6
68 7
67 7
66 7
65 8
64 8
63 8
62 8
61 8
60 9
59 9
58 10
57 10
56 11
55 11
54 12
53 12
52 13
51 14
50 14
49 14
49 15
48 16
47 16
46 17
45 17
44 18
43 19
42 19
41 20
40 20
40 21
40 22
39 23
38 23
38 24
38 25
38 26
37 27
36 27
35 27
34 27
33 27
32 27
31 27
30 26
29 26
28 25
27 25
26 24
25 24
24 24
23 24
22 24
21 23
20 23
19 23
18 22
17 22
16 22
15 22
14 22
13 22
12 22
11 22
11 23
10 24
9 24
8 24
7 24
6 25
6 26
5 27
4 27
4 28
4 29
3 30
2 31
2 32
2 33
2 34
2 35
2 36
2 37
2 38
3 39
3 40
3 41
4 42
4 43
5 44
6 45
6 46
6 47
7 47
8 48
8 49
9 50
10 50
11 50
12 50
13 49
14 49
15 48
16 47
17 47
18 47
19 47
20 46
21 45
22 45
23 45
24 44
25 44
26 44
27 44
28 44
29 44
30 43
31 43
32 43
33 43
34 43
35 43
36 43
37 43
38 43
39 43
40 44
40 45
41 46
41 47
42 47
43 47
44 47
45 47
46 47
47 48
47 49
48 49
49 49
50 49
51 50
52 50
53 50
54 50
55 50
56 50
57 50
58 50
59 50
60 50
61 50
62 50
63 50
64 50
65 49
66 49
67 49
68 49
69 48
70 47
71 47
72 47
73 47
74 46
75 45
76 45
77 45
78 45
79 45
80 45
81 45
82 45
83 45
84 45
85 45
86 45
87 46
88 47
87 48
86 48
85 49
84 49
83 50
83 51
83 52
83 53
83 54
84 54
85 54
86 54
87 54
88 54
89 54
90 54
91 54
92 55
93 55
94 55
95 55
96 55
97 54
98 55
99 55
100 55
101 55
102 55
103 55
104 55
105 54
106 54
107 54
108 54
109 55
109 56
110 56
111 57
111 58
111 59
112 60
113 60
114 61
114 62
115 62
116 63
117 63
118 64
119 64
120 65
121 65
122 65
123 65
124 65
125 65
126 65
127 65
128 64
128 63
129 62
129 61
129 60
129 59
129 58
130 57
130 56
130 55
130 54
130 53
130 52
130 51
130 50
129 50
128 49
129 48
130 47
131 47
132 47
133 47
134 47
135 47
136 47
137 47
138 47
139 47
140 47
141 47
142 47
143 46
144 45
145 45
146 45
147 45
148 44
149 44
150 44
151 44
152 44
153 44
154 43
155 42
156 42
157 42
158 41
159 41
160 40
161 39
162 38
163 37
163 36
164 35
164 34
164 33
164 32
165 31
165 30
165 29
164 29
163 28
164 27
163 27
162 26
161 26
160 25
159 24
158 24
157 24
156 24
155 24
154 23
153 23
152 22
151 21
152 20
151 20
150 19
149 18
148 18
147 18
146 18
145 18
144 18
143 18
142 18
141 18
140 17
139 17
138 17
137 17
136 17
135 17
134 17
133 17
132 17
131 17
130 17
129 17
128 17
127 17
126 17
125 17
124 17
123 17
122 17
121 17
120 17
119 17
118 17
117 17
116 16
117 15
117 14
116 14
115 13
116 12
116 11
115 11
114 10
115 9
114 9
113 8
114 7
113 7
112 6
111 5
110 4
109 3
108 2
107 2
