136 2
135 3
134 3
133 3
132 4
131 5
130 5
129 6
128 6
127 6
126 7
125 8
124 8
123 9
122 10
121 10
120 11
119 12
118 13
117 13
116 14
115 15
114 15
113 16
112 17
111 18
110 19
109 20
108 21
107 22
106 23
105 23
104 23
103 23
102 23
101 23
100 23
99 23
98 23
97 22
96 22
95 22
94 22
93 22
92 22
91 22
90 22
89 22
88 22
87 22
86 22
85 22
84 22
83 22
82 22
81 22
80 22
79 22
78 22
77 22
76 22
75 22
74 22
73 22
72 22
71 22
70 22
69 22
68 22
67 22
66 23
65 23
64 23
63 23
62 23
61 23
60 23
59 23
58 23
57 22
56 22
56 23
55 24
54 24
53 24
52 24
51 24
50 24
49 24
48 25
47 25
46 25
45 25
44 25
43 25
42 26
41 26
40 26
39 26
38 26
37 27
36 27
35 27
34 27
33 27
32 28
31 28
30 28
29 28
28 28
27 29
26 29
25 29
24 29
23 29
22 30
21 30
20 30
19 30
18 31
17 31
16 31
15 32
14 32
13 33
12 33
11 33
10 33
9 34
8 34
7 34
6 35
5 35
4 36
3 36
2 37
2 38
2 39
2 40
2 41
2 42
2 43
3 44
3 45
3 46
3 47
4 48
5 49
6 50
7 50
8 51
9 52
10 52
11 53
12 53
13 54
14 54
15 55
16 55
17 55
18 56
19 56
20 56
21 57
22 57
23 57
24 58
25 58
26 58
27 59
28 59
29 59
30 59
31 59
32 60
33 60
34 60
35 60
36 60
37 61
38 61
39 61
40 61
41 61
42 62
43 62
44 62
45 62
46 62
47 62
48 62
49 62
50 62
51 62
52 62
53 62
54 63
55 63
56 63
57 63
58 63
59 63
60 63
61 63
62 63
63 63
64 63
65 63
66 63
67 63
68 64
69 64
70 64
71 64
72 64
73 64
74 64
75 64
76 64
77 64
78 64
79 64
80 64
81 64
82 64
83 64
84 64
85 64
86 64
87 64
88 64
89 64
90 64
91 64
92 64
93 64
94 64
95 64
96 64
97 64
98 64
99 64
100 64
101 64
102 64
103 64
104 64
105 64
106 64
107 64
108 65
109 66
110 67
111 67
112 68
113 69
114 70
115 70
116 71
117 72
118 73
119 74
120 74
121 75
122 76
123 77
124 77
125 78
126 79
127 80
128 80
129 81
130 81
131 81
132 80
133 79
133 78
134 77
134 76
134 75
133 75
132 74
133 73
133 72
133 71
132 71
131 70
132 69
132 68
131 68
130 67
129 66
128 66
127 65
126 65
125 64
124 64
123 64
122 63
123 62
124 62
125 62
126 62
127 61
128 61
129 61
130 61
131 61
132 61
133 61
134 61
135 61
136 61
137 61
138 61
139 61
140 61
141 60
142 60
143 60
144 60
145 60
146 60
147 59
148 59
149 59
150 59
151 59
152 58
153 58
154 58
155 58
156 57
157 57
158 57
159 57
160 57
161 58
162 58
163 58
164 59
165 60
166 60
167 61
168 62
169 62
170 63
171 63
172 64
173 64
174 65
175 65
176 66
177 66
178 66
179 66
180 66
181 65
182 64
183 63
184 62
184 61
185 60
186 59
187 58
188 57
189 56
190 55
191 54
192 53
193 52
194 52
195 51
195 50
196 49
196 48
197 47
198 47
199 47
200 47
201 47
202 47
203 48
204 48
205 48
206 48
207 48
208 48
209 48
210 48
211 48
212 48
213 48
214 48
215 48
216 48
217 48
218 48
219 48
220 48
221 48
222 48
223 48
224 48
225 48
226 48
227 48
228 48
229 48
230 48
231 48
232 48
233 48
234 48
235 48
236 48
237 48
238 48
239 48
240 48
241 48
242 48
243 48
244 48
245 49
246 49
247 48
248 48
249 47
249 46
250 45
249 45
248 44
247 43
246 42
245 42
244 41
243 40
242 40
241 39
240 38
239 37
238 36
237 35
236 34
237 33
236 33
235 32
236 31
237 30
237 29
238 28
239 27
240 27
241 26
242 25
243 24
244 23
244 22
245 21
245 20
244 19
243 19
242 19
241 19
240 19
239 19
238 19
237 19
236 19
235 19
234 20
233 20
232 20
231 20
230 21
229 21
228 21
227 21
226 21
225 22
224 22
223 22
222 22
221 23
220 23
219 23
218 24
217 24
216 25
215 25
214 25
213 26
212 26
211 26
210 27
209 27
208 28
207 28
206 28
205 29
204 29
203 29
202 30
201 30
200 31
199 31
198 31
197 32
196 32
195 33
194 33
193 33
192 33
191 33
190 33
189 33
188 33
187 33
186 33
185 33
184 33
183 32
184 31
184 30
185 29
184 29
183 28
182 28
181 28
180 28
179 28
178 28
177 29
176 29
175 29
174 29
173 30
172 30
171 31
170 31
169 31
168 31
167 31
166 31
165 31
164 31
163 31
162 31
161 30
160 30
159 30
158 30
157 30
156 30
155 30
154 30
153 30
152 29
151 29
150 29
149 29
148 29
147 29
146 29
145 28
144 28
143 28
142 28
141 28
140 28
139 28
138 27
137 27
136 27
135 27
134 26
135 25
136 24
137 23
137 22
138 21
138 20
138 19
138 18
138 17
138 16
138 15
138 14
139 13
139 12
139 11
139 10
139 9
139 8
140 7
140 6
140 5
141 4
141 3
141 2
140 2
139 2
138 2
137 2
