127 2
126 3
125 3
124 4
123 4
122 5
121 6
120 6
119 7
118 8
117 8
116 9
115 10
114 10
113 11
112 11
111 12
110 13
109 14
108 15
107 15
106 16
105 16
104 15
103 15
102 15
101 15
100 15
99 15
98 15
97 15
96 15
95 15
94 15
93 15
92 15
91 15
90 15
89 15
88 15
87 15
86 15
85 15
84 15
83 15
82 15
81 15
80 15
79 15
78 15
77 15
76 15
75 15
74 15
73 15
72 15
71 15
70 15
69 15
68 16
67 16
66 16
65 16
64 16
63 16
62 16
61 16
60 16
59 16
58 16
57 17
56 17
55 17
54 17
53 17
52 17
51 17
50 17
49 17
48 18
47 18
46 18
45 18
44 18
43 18
42 19
41 19
40 19
39 19
38 20
37 20
36 20
35 20
34 21
33 21
32 21
31 22
30 22
29 22
28 22
27 22
26 23
25 23
24 23
23 24
22 24
21 24
20 25
19 25
18 25
17 26
16 26
15 26
14 27
13 27
12 28
11 28
10 28
9 29
8 30
7 30
6 31
5 32
4 33
3 34
3 35
3 36
3 37
2 38
2 39
2 40
3 41
4 42
5 43
6 44
7 44
8 45
9 45
10 46
11 47
12 48
13 48
14 49
15 49
16 50
17 50
18 51
19 51
20 51
21 52
22 52
23 53
24 53
25 53
26 54
27 54
28 54
29 55
30 55
31 56
32 56
33 56
34 57
35 57
36 57
37 57
38 58
39 58
40 58
41 59
42 59
43 59
44 60
45 60
46 60
47 61
48 61
49 61
50 61
51 61
52 62
53 62
54 62
55 62
56 62
57 62
58 63
59 63
60 63
61 63
62 63
63 63
64 63
65 63
66 64
67 64
68 64
69 64
70 64
71 64
72 64
73 64
74 64
75 64
76 64
77 64
78 64
79 64
80 64
81 64
82 64
83 64
84 65
85 65
86 65
87 65
88 65
89 65
90 65
91 65
92 65
93 65
94 65
95 65
96 65
97 65
98 65
99 65
100 65
101 65
102 65
103 65
104 65
105 65
106 65
107 64
108 64
109 64
110 64
111 64
112 64
113 65
114 65
115 66
116 66
117 67
118 67
119 68
120 68
121 69
122 70
123 70
124 71
125 71
126 72
127 72
128 73
129 73
130 73
131 73
132 73
133 72
133 71
134 70
134 69
133 69
132 68
131 67
130 66
129 65
128 65
127 64
128 63
129 63
130 63
131 63
132 62
133 62
134 62
135 62
136 62
137 61
138 61
139 61
140 61
141 61
142 60
143 60
144 60
145 60
146 59
147 59
148 59
149 59
150 59
151 58
152 58
153 58
154 58
155 57
156 57
157 57
158 58
159 58
160 59
161 59
162 60
163 61
164 61
165 61
166 62
167 62
168 63
169 63
170 64
171 64
172 64
173 65
174 65
175 65
176 66
177 66
178 66
179 66
180 67
181 67
182 66
182 65
183 64
183 63
183 62
183 61
184 60
184 59
185 58
186 57
186 56
187 55
187 54
186 54
185 54
184 53
183 53
182 53
181 52
182 51
183 51
184 51
185 51
186 51
187 51
188 50
189 50
190 50
191 50
192 50
193 50
194 50
195 49
196 49
197 49
198 49
199 49
200 49
201 49
202 49
203 49
204 49
205 49
206 49
207 49
208 50
209 51
210 51
211 52
212 52
213 53
214 53
215 54
216 54
217 55
218 55
219 56
220 57
221 57
222 58
223 58
224 59
225 59
226 60
227 61
228 61
229 62
230 62
231 63
232 63
233 64
234 64
235 65
236 65
237 66
238 66
239 66
240 66
240 65
241 64
241 63
241 62
240 62
239 61
240 60
240 59
240 58
240 57
239 57
238 56
239 55
239 54
239 53
239 52
239 51
238 51
237 50
238 49
238 48
238 47
238 46
238 45
238 44
238 43
238 42
238 41
238 40
238 39
238 38
238 37
238 36
238 35
238 34
238 33
238 32
238 31
239 30
239 29
239 28
239 27
239 26
240 25
240 24
240 23
241 22
241 21
241 20
242 19
242 18
242 17
242 16
242 15
242 14
241 14
240 13
239 13
238 13
237 14
236 14
235 15
234 15
233 15
232 16
231 16
230 17
229 17
228 18
227 18
226 19
225 19
224 20
223 20
222 21
221 21
220 22
219 23
218 23
217 24
216 24
215 25
214 25
213 25
212 26
211 26
210 26
209 27
208 27
207 27
206 26
205 26
204 26
203 26
202 26
201 26
200 26
199 26
198 25
197 25
196 25
195 25
194 25
193 24
193 23
194 22
193 22
192 21
191 21
190 21
189 21
188 22
187 22
186 23
185 23
184 23
183 24
182 24
181 23
180 23
179 23
178 23
177 23
176 23
175 23
174 23
173 23
172 23
171 22
170 22
169 22
168 22
167 22
166 22
165 22
164 22
163 22
162 21
161 21
160 21
159 21
158 21
157 21
156 21
155 21
154 21
153 20
152 20
151 20
150 20
149 20
148 20
147 20
146 20
145 20
144 19
143 19
142 19
141 19
140 19
139 19
138 19
137 19
136 19
135 18
136 17
137 16
138 16
139 15
139 14
140 13
140 12
139 12
138 11
137 10
136 9
135 8
134 7
133 6
132 5
131 4
130 3
129 2
128 2
