116 2
115 3
114 3
113 4
112 5
111 5
110 6
109 7
108 8
107 9
106 10
105 11
104 11
103 12
102 13
101 14
100 15
100 16
99 17
98 17
97 17
96 17
95 17
94 17
93 17
92 17
91 17
90 17
89 17
88 17
87 17
86 17
85 16
84 16
83 16
82 16
81 16
80 16
79 16
78 16
77 16
76 16
75 16
74 16
73 15
72 15
71 16
70 15
69 16
68 16
67 16
66 16
65 16
64 16
63 16
62 16
61 16
60 16
59 16
58 16
57 16
56 17
55 17
54 17
53 17
52 17
51 17
50 17
49 17
48 17
47 17
46 18
45 18
44 18
43 18
42 18
41 18
40 18
39 18
38 19
37 19
36 19
35 19
34 19
33 19
32 19
31 20
30 20
29 20
28 20
27 20
26 21
25 21
24 21
23 22
22 22
21 22
20 23
19 23
18 23
17 24
16 24
15 25
14 25
13 25
12 26
11 26
10 27
9 28
8 28
7 29
6 29
5 30
4 31
3 32
3 33
3 34
2 35
2 36
2 37
3 38
4 39
5 39
6 40
7 41
8 41
9 42
10 42
11 43
12 44
13 44
14 44
15 45
16 45
17 46
18 46
19 46
20 46
21 47
22 47
23 47
24 48
25 49
26 50
27 50
28 50
29 50
30 51
31 51
32 51
33 51
34 51
35 51
36 52
37 52
38 52
39 52
40 53
41 53
42 53
43 53
44 53
45 53
46 54
47 54
48 54
49 54
50 54
51 54
52 54
53 54
54 54
55 54
56 54
57 54
58 55
59 55
60 55
61 55
62 55
63 55
64 55
65 55
66 55
67 55
68 55
69 55
70 55
71 55
72 55
73 55
74 55
75 55
76 55
77 55
78 55
79 55
80 55
81 55
82 55
83 55
84 55
85 55
86 55
87 55
88 55
89 55
90 55
91 55
92 55
93 54
94 54
95 54
96 54
97 54
98 54
99 54
100 54
101 54
102 54
103 54
104 54
105 53
106 53
107 53
108 53
109 53
110 53
111 53
112 53
113 54
114 54
115 54
116 54
117 55
118 55
119 55
120 55
121 55
122 55
123 56
124 56
125 56
126 56
127 56
128 56
129 57
130 57
131 57
132 57
133 57
134 56
134 55
133 54
132 53
132 52
133 51
134 51
135 51
136 51
137 51
138 51
139 51
140 51
141 51
142 50
143 50
144 50
145 50
146 50
147 50
148 50
149 50
150 50
151 49
152 49
153 49
154 49
155 49
156 48
157 48
158 49
159 50
160 50
161 50
162 51
163 52
164 52
165 53
166 53
167 54
168 54
169 54
170 55
171 55
172 56
173 56
174 57
175 57
176 58
177 58
178 59
179 59
180 60
181 60
182 61
183 61
184 62
185 62
186 62
187 62
187 61
188 60
187 60
186 59
187 58
187 57
186 57
185 56
186 55
186 54
186 53
185 53
184 52
185 51
185 50
185 49
186 48
186 47
185 47
184 46
183 46
182 45
183 44
184 44
185 44
186 44
187 44
188 44
189 44
190 44
191 44
192 44
193 44
194 44
195 45
196 45
197 45
198 45
199 45
200 45
201 45
202 46
203 46
204 46
205 46
206 47
207 47
208 48
209 49
210 50
211 50
212 51
213 52
214 52
215 53
216 54
217 54
218 55
219 55
220 56
221 57
222 57
223 58
224 59
225 60
226 60
227 61
228 61
229 62
230 63
231 64
232 64
233 65
234 66
235 66
236 66
236 65
237 64
237 63
236 63
235 62
236 61
236 60
236 59
236 58
235 58
234 57
235 56
235 55
235 54
235 53
234 53
233 52
234 51
234 50
234 49
234 48
234 47
234 46
234 45
234 44
234 43
234 42
234 41
234 40
234 39
234 38
234 37
234 36
234 35
235 34
235 33
235 32
235 31
236 30
236 29
236 28
237 27
237 26
237 25
238 24
238 23
238 22
239 21
239 20
239 19
240 18
240 17
241 16
241 15
241 14
240 14
239 14
238 14
237 15
236 15
235 16
234 16
233 17
232 17
231 17
230 18
229 18
228 18
227 18
226 19
225 19
224 19
223 20
222 20
221 20
220 21
219 21
218 21
217 22
216 22
215 22
214 22
213 23
212 23
211 23
210 24
209 24
208 25
207 25
206 25
205 25
204 26
203 26
202 26
201 26
200 26
199 26
198 26
197 25
196 25
195 25
194 25
193 25
192 25
191 25
190 25
189 25
188 25
187 24
186 24
185 24
184 24
183 23
184 22
183 22
182 22
181 22
180 22
179 22
178 22
177 23
176 23
175 23
174 23
173 23
172 23
171 23
170 23
169 23
168 23
167 23
166 23
165 23
164 23
163 23
162 23
161 22
160 22
159 22
158 22
157 22
156 22
155 22
154 22
153 22
152 22
151 22
150 22
149 21
148 21
147 21
146 21
145 21
144 21
143 21
142 21
141 21
140 21
139 21
138 21
137 21
136 21
135 21
134 20
133 20
132 20
131 20
130 20
129 20
128 20
127 20
126 20
125 19
126 18
127 18
128 17
129 16
129 15
130 14
130 13
131 12
131 11
130 11
129 10
128 9
127 9
126 8
125 7
124 6
123 6
122 5
121 4
120 4
119 3
118 2
117 2
