156 4
156 5
155 6
154 7
153 6
153 7
152 8
151 9
150 10
150 11
149 12
149 13
149 14
149 15
149 16
149 17
149 18
149 19
149 20
150 21
150 22
150 23
151 24
151 25
152 26
152 27
152 28
152 29
151 30
150 29
150 30
150 31
150 32
150 33
149 34
148 33
147 33
146 33
145 33
144 33
143 33
143 34
142 35
141 34
140 34
139 34
138 33
137 33
136 33
135 33
134 32
133 32
132 32
131 31
131 30
130 29
130 28
130 27
131 26
130 25
131 24
131 23
131 22
132 21
132 20
132 19
132 18
131 18
130 17
129 17
129 18
128 19
128 20
127 21
126 21
125 20
125 19
124 18
124 17
123 16
122 16
121 15
121 16
120 17
120 18
120 19
121 20
122 21
122 22
122 23
123 24
124 25
124 26
125 27
125 28
126 29
126 30
125 31
124 31
123 31
122 30
121 30
120 30
119 30
118 29
118 30
117 31
116 30
115 30
114 29
114 28
114 27
114 26
114 25
114 24
114 23
114 22
114 21
114 20
114 19
113 18
113 17
113 16
112 15
111 14
110 14
109 13
109 14
108 15
108 16
108 17
109 18
109 19
110 20
111 21
111 22
111 23
111 24
110 25
110 26
110 27
110 28
110 29
110 30
110 31
109 32
108 31
107 31
106 31
105 30
104 30
103 29
103 28
103 27
103 26
103 25
103 24
103 23
103 22
104 21
104 20
104 19
105 18
105 17
105 16
105 15
105 14
105 13
105 12
105 11
104 10
103 10
102 9
102 10
102 11
102 12
101 13
101 14
101 15
101 16
101 17
101 18
101 19
100 20
100 21
100 22
100 23
100 24
99 25
99 26
99 27
99 28
99 29
99 30
98 31
97 30
96 30
95 30
94 29
93 29
92 28
91 28
90 28
89 27
89 26
90 25
90 24
90 23
90 22
91 21
91 20
91 19
90 18
90 17
90 16
89 16
88 15
87 15
87 16
87 17
87 18
87 19
87 20
87 21
87 22
86 23
86 24
86 25
86 26
85 27
85 28
85 29
84 30
83 29
82 29
81 29
80 29
79 29
78 28
78 27
78 26
78 25
79 24
78 23
78 22
78 21
78 20
77 19
76 19
75 18
75 19
74 20
74 21
74 22
74 23
75 24
74 25
74 26
74 27
74 28
74 29
74 30
74 31
74 32
74 33
73 34
72 33
72 34
71 35
70 34
69 34
68 34
67 34
66 34
65 34
64 34
63 34
62 34
62 35
61 36
60 35
60 34
59 33
59 32
59 31
59 30
59 29
58 28
57 28
56 27
56 28
56 29
56 30
56 31
56 32
55 33
54 33
53 32
52 31
51 30
50 30
49 29
48 29
47 29
46 28
46 29
45 30
45 31
45 32
46 33
47 33
48 33
49 33
50 34
51 35
52 35
53 36
54 37
55 38
56 39
55 40
54 41
53 42
52 43
51 44
50 43
50 44
49 45
48 46
47 45
46 45
45 45
44 45
43 45
42 44
41 44
40 43
39 42
39 41
38 40
37 39
36 38
36 37
35 36
34 35
33 34
32 33
31 32
30 31
29 31
28 30
27 30
27 31
27 32
27 33
27 34
26 35
26 36
26 37
25 38
26 39
27 40
28 40
29 41
30 41
31 42
32 43
33 43
34 43
35 44
36 44
37 45
38 45
39 46
40 47
41 48
42 48
43 49
43 50
43 51
42 52
42 53
42 54
41 55
40 56
39 57
38 58
37 59
36 60
35 59
35 60
34 61
34 62
34 63
33 64
32 64
31 64
30 63
29 63
28 63
27 63
26 62
25 61
24 60
24 59
23 58
22 57
21 56
20 56
19 55
18 55
17 54
16 54
15 53
14 53
14 54
14 55
14 56
15 57
16 58
17 58
18 59
19 59
20 60
20 61
21 62
21 63
22 64
23 65
24 66
25 67
26 68
27 68
28 67
29 67
30 68
30 69
29 70
29 71
28 72
28 73
27 74
26 73
26 74
25 75
24 74
23 74
22 74
21 74
20 74
19 74
18 73
17 73
16 72
16 71
15 70
14 70
13 69
12 69
11 68
10 68
9 68
9 69
9 70
8 71
7 72
7 73
7 74
8 75
9 75
10 76
11 76
12 76
13 77
14 77
15 78
16 78
17 78
18 78
19 78
20 78
21 78
22 79
22 80
21 81
20 82
20 83
19 84
18 85
17 86
16 85
15 85
14 85
13 84
12 84
11 84
10 83
10 82
9 82
8 81
7 81
6 80
5 80
4 79
3 79
2 79
2 80
2 81
2 82
2 83
3 83
4 83
5 84
6 84
7 85
7 86
6 87
5 86
5 87
4 88
4 89
5 89
6 89
7 89
8 89
9 89
10 89
11 89
12 89
13 88
14 89
15 89
16 89
17 90
18 91
19 92
19 93
19 94
19 95
19 96
19 97
19 98
19 99
18 100
17 100
16 100
15 100
14 100
13 100
12 100
11 100
10 100
9 100
8 100
7 100
6 99
5 99
5 100
5 101
4 102
4 103
3 104
3 105
4 105
5 105
6 106
7 106
8 106
9 106
10 105
11 105
12 105
13 105
14 105
15 104
16 104
17 105
18 105
19 105
20 105
21 105
22 106
23 107
23 108
23 109
22 110
22 111
22 112
22 113
22 114
23 115
24 115
25 115
26 115
27 115
28 115
29 115
30 115
31 115
32 116
33 116
34 116
35 116
36 117
37 118
38 119
39 120
39 121
39 122
40 123
40 124
39 125
38 126
37 127
36 126
35 126
34 126
33 126
33 127
32 128
31 129
31 130
32 131
33 131
34 130
35 131
35 132
34 133
33 134
32 133
32 134
31 135
31 136
32 136
33 136
34 136
35 136
36 136
37 135
38 135
39 135
40 134
41 134
42 134
43 133
43 132
44 131
45 131
46 130
47 130
48 130
49 131
50 131
51 131
52 132
53 133
54 133
55 134
56 134
57 135
58 136
59 137
59 138
59 139
60 139
61 139
62 139
63 139
64 139
65 139
66 139
67 140
68 140
69 141
70 142
71 143
71 144
72 145
73 146
74 147
75 148
75 149
76 150
77 151
77 152
77 153
78 154
79 155
79 156
80 157
80 158
80 159
81 160
81 161
82 162
82 163
82 164
83 165
83 166
84 167
84 168
85 169
85 170
86 171
87 171
88 171
89 171
90 171
91 170
92 170
93 170
94 170
95 170
96 170
97 169
98 169
99 168
99 167
99 166
99 165
99 164
100 163
100 162
100 161
101 160
101 159
101 158
101 157
101 156
100 155
100 154
99 153
99 152
98 151
97 150
96 149
96 148
95 147
94 146
93 145
92 144
92 143
91 142
90 141
89 140
88 139
88 138
87 137
86 136
85 135
84 134
84 133
84 132
83 131
82 130
81 129
81 128
81 127
80 126
80 125
79 124
79 123
79 122
79 121
79 120
79 119
79 118
79 117
78 116
78 115
77 114
77 113
77 112
77 111
76 110
76 109
76 108
76 107
75 106
75 105
75 104
75 103
75 102
75 101
76 100
76 99
76 98
76 97
77 96
77 95
77 94
78 93
78 92
78 91
77 90
76 89
75 88
74 87
73 86
72 85
72 84
72 83
72 82
73 81
74 80
75 80
76 80
77 81
77 82
78 83
79 83
80 83
81 83
82 83
83 83
84 84
85 85
86 86
87 86
88 86
89 86
90 86
91 86
92 87
92 88
93 88
94 89
95 90
96 91
96 92
96 93
97 94
98 95
99 95
100 95
101 95
102 96
103 96
104 96
105 97
106 98
107 99
108 100
109 100
110 101
110 102
111 103
111 104
112 104
113 104
114 104
115 104
116 104
117 104
118 105
119 105
120 105
121 106
122 107
123 108
124 109
125 110
125 111
126 111
127 111
128 111
129 111
130 111
131 111
132 111
133 111
134 111
135 112
136 112
137 113
138 114
139 114
140 114
141 115
142 115
143 116
144 116
145 117
146 118
147 119
148 119
149 119
150 118
151 117
152 116
153 116
154 115
155 115
156 115
157 115
158 115
159 115
160 115
161 116
162 116
163 116
164 117
165 117
166 118
167 118
168 118
169 118
170 118
171 117
172 116
173 116
174 115
175 115
176 114
177 114
178 113
179 113
180 112
181 112
182 112
183 112
184 111
185 111
186 111
187 111
188 111
189 111
190 110
191 109
191 108
192 107
193 106
194 105
195 104
196 103
196 102
197 101
198 101
198 100
199 99
200 99
200 98
200 97
201 96
201 95
202 94
203 93
204 93
205 94
206 94
207 94
208 94
209 94
210 94
211 93
212 93
213 93
214 92
214 91
215 90
216 89
216 88
216 87
216 86
216 85
216 84
215 83
214 82
214 81
214 80
215 79
215 78
215 77
216 76
217 76
218 76
219 77
220 77
221 77
222 77
223 76
224 75
225 75
226 74
227 73
228 73
229 74
230 74
231 74
232 74
233 74
234 74
235 74
236 73
237 73
238 73
239 73
240 74
241 75
242 75
243 75
244 75
245 75
246 75
247 75
248 75
249 75
250 75
251 75
252 74
253 74
254 74
255 75
256 75
257 75
258 76
259 76
260 76
261 76
262 76
263 77
264 77
265 77
266 78
267 78
268 78
269 78
270 79
271 79
272 80
273 80
274 81
275 82
276 82
277 83
278 84
279 84
280 85
281 86
282 87
282 88
283 89
284 90
285 91
286 92
287 93
288 94
289 95
289 96
289 97
289 98
290 99
290 100
290 101
291 102
291 103
291 104
292 105
293 106
294 107
294 108
294 109
294 110
294 111
293 112
294 113
293 114
293 115
293 116
293 117
293 118
292 119
292 120
292 121
292 122
292 123
292 124
291 125
291 126
291 127
290 128
290 129
290 130
289 131
288 132
287 133
286 134
285 135
284 134
284 135
283 136
282 135
281 135
281 136
280 137
279 136
278 136
277 136
277 137
276 138
275 139
274 138
273 138
273 139
272 140
271 139
270 139
269 139
268 139
267 139
266 139
265 139
264 138
265 137
266 137
267 137
268 137
269 137
270 136
270 135
270 134
270 133
271 132
272 131
273 131
274 131
275 130
275 129
275 128
275 127
275 126
276 125
276 124
276 123
277 122
278 121
278 120
277 119
276 118
276 117
275 116
275 115
275 114
275 113
274 112
273 112
272 111
271 111
270 110
269 109
269 108
269 107
268 107
267 106
266 106
265 106
264 106
263 106
262 106
261 106
260 105
259 105
258 104
257 104
257 105
256 106
255 105
254 105
254 106
253 107
252 106
251 106
251 107
250 108
249 109
248 110
247 109
246 109
245 109
245 110
244 111
243 110
242 110
241 110
241 111
240 112
240 113
240 114
240 115
240 116
239 117
239 118
239 119
238 120
237 121
236 120
236 121
236 122
236 123
237 124
237 125
237 126
237 127
237 128
237 129
236 130
236 131
236 132
237 133
238 134
238 135
239 136
239 137
240 138
240 139
239 140
239 141
240 142
241 142
242 143
243 144
244 144
245 145
245 146
246 147
246 148
246 149
246 150
247 151
248 151
249 151
250 151
251 150
252 151
253 151
254 151
255 152
256 152
257 153
257 154
258 155
259 155
260 154
261 154
262 154
263 153
264 154
265 154
266 155
267 155
268 156
269 156
270 156
271 156
272 156
273 156
274 155
275 155
276 155
277 155
278 156
279 156
280 156
281 156
282 156
283 155
284 155
285 154
286 153
287 152
288 152
289 152
290 152
291 151
292 150
293 150
294 149
295 149
296 149
297 148
297 147
298 146
298 145
299 144
300 143
301 142
302 141
303 140
304 141
305 141
306 140
307 140
307 139
307 138
307 137
308 136
308 135
309 134
309 133
310 132
311 131
312 130
312 129
312 128
311 127
311 126
312 125
312 124
313 123
314 122
314 121
314 120
313 119
313 118
313 117
313 116
313 115
313 114
313 113
313 112
314 111
314 110
314 109
314 108
314 107
313 106
313 105
312 104
312 103
312 102
312 101
312 100
312 99
312 98
312 97
312 96
312 95
312 94
312 93
312 92
311 91
311 90
310 89
310 88
309 87
309 86
309 85
309 84
309 83
309 82
308 81
307 80
306 80
305 79
304 79
303 78
302 77
302 76
301 75
301 74
300 73
300 72
300 71
299 71
298 70
297 70
296 69
295 69
294 68
293 67
293 66
292 65
293 64
293 63
292 62
291 62
290 63
289 62
288 63
287 62
286 62
285 61
284 60
283 60
282 59
281 58
281 57
280 56
280 55
281 54
280 53
279 53
278 52
278 53
277 54
276 53
275 53
274 53
273 52
272 51
271 51
270 50
269 50
268 50
267 50
266 50
265 50
264 50
263 50
262 50
261 49
260 49
259 49
258 48
257 48
256 48
255 47
255 46
255 45
255 44
255 43
254 43
253 42
252 42
252 43
252 44
252 45
252 46
251 47
250 46
249 46
248 46
247 45
246 45
245 44
244 44
243 43
242 43
241 43
240 43
239 43
238 43
237 43
236 43
235 43
234 43
233 43
232 43
231 43
230 43
229 43
228 42
228 41
229 40
230 40
230 39
229 38
228 38
227 37
227 38
226 39
225 40
224 41
223 40
222 40
221 40
220 40
219 40
218 40
217 40
217 41
216 42
215 41
214 41
213 40
212 40
211 40
210 40
209 40
208 39
207 39
206 40
205 40
204 39
204 38
203 37
202 37
201 36
201 35
202 34
203 34
204 34
205 34
206 34
207 33
208 33
209 33
210 33
211 32
212 31
213 31
214 30
214 29
215 28
215 27
215 26
214 25
214 24
213 23
212 22
212 21
211 21
210 20
209 19
208 19
207 18
206 17
205 16
204 16
203 15
202 15
201 14
200 13
199 13
198 12
197 12
196 11
195 11
194 10
193 10
192 9
191 9
190 9
189 9
188 8
187 8
186 8
185 8
184 8
183 7
182 7
181 7
180 7
179 7
178 7
177 7
176 7
175 6
174 6
173 6
172 5
171 5
170 5
169 5
168 5
167 5
166 6
165 5
164 5
163 5
162 5
161 5
160 5
159 5
158 5
157 4
