188 2
187 3
186 3
185 3
184 3
183 4
182 4
181 5
180 5
179 5
178 5
177 5
176 6
175 6
174 6
173 7
172 7
171 7
170 8
169 9
168 10
167 10
166 11
165 12
164 13
163 13
162 14
162 15
161 16
160 16
159 17
158 17
157 18
156 19
155 20
154 21
153 22
152 23
151 23
151 24
150 25
149 26
148 27
147 27
146 28
146 29
145 30
144 31
143 32
142 32
141 33
140 33
139 34
138 34
137 35
136 36
135 36
134 36
133 36
132 36
131 36
130 36
129 37
128 37
127 36
126 36
125 36
124 36
123 36
122 36
121 36
120 36
119 36
118 36
117 36
116 36
115 36
114 35
113 35
112 35
111 34
110 34
109 33
108 33
107 33
106 33
105 32
104 32
103 32
102 32
101 31
100 31
99 31
98 30
97 29
96 29
95 28
94 28
93 28
92 27
91 27
90 27
89 27
88 26
87 26
86 26
85 26
84 25
83 25
82 25
81 25
80 26
79 26
78 26
77 26
76 26
75 27
74 27
73 27
72 27
71 27
70 27
69 26
68 26
67 26
66 26
65 25
64 25
63 25
62 24
61 24
60 24
59 24
58 24
57 24
56 24
55 24
54 24
53 24
52 24
51 24
50 24
49 24
48 24
47 24
46 24
45 25
44 25
43 25
42 25
41 25
40 26
39 26
38 26
37 26
36 26
35 26
34 27
33 27
32 27
31 27
30 28
29 28
28 28
27 29
26 29
25 30
24 31
23 31
22 31
21 32
20 32
19 32
18 33
17 33
16 34
15 35
14 36
13 36
12 37
11 37
10 38
9 38
8 39
7 40
6 41
5 41
4 42
3 43
3 44
2 45
2 46
2 47
2 48
3 49
4 50
5 50
6 50
7 50
8 50
9 51
10 51
11 51
12 51
13 51
14 51
15 51
16 50
17 50
18 50
19 50
20 50
21 50
22 50
23 49
24 49
25 49
26 49
27 49
28 49
29 49
30 49
31 49
32 48
33 48
34 48
35 48
36 48
37 48
38 48
39 49
40 50
41 50
42 50
43 50
44 49
45 48
46 47
47 46
48 46
49 46
50 45
51 45
52 45
53 44
54 44
55 44
56 44
57 44
58 44
59 44
60 44
61 44
62 45
63 45
64 45
65 45
66 46
67 46
68 46
69 46
70 46
71 46
72 47
73 47
74 47
75 47
76 47
77 48
78 48
79 48
80 48
81 48
82 49
83 49
84 50
85 50
86 51
87 51
88 51
89 52
90 52
91 52
92 53
93 53
94 54
95 54
96 55
96 56
97 56
98 57
99 57
100 58
101 59
102 59
103 60
104 61
105 61
106 61
107 61
108 61
109 62
110 62
111 62
112 62
113 62
114 62
115 62
116 62
117 62
118 62
119 62
120 62
121 62
122 62
123 62
124 62
125 63
126 63
127 63
128 62
129 62
130 62
131 62
132 62
133 62
134 62
135 62
136 61
137 61
138 61
139 61
140 61
141 61
142 61
143 60
144 59
145 59
146 58
147 58
148 58
149 57
150 57
151 56
152 56
153 55
154 54
155 53
156 52
157 51
158 51
159 50
160 49
161 48
162 47
163 46
164 46
165 45
166 44
167 43
168 43
169 42
170 41
171 40
172 39
173 38
174 37
175 36
176 36
177 35
178 34
179 33
180 33
181 32
182 32
183 31
184 31
185 30
186 29
187 28
188 28
189 28
190 28
191 28
192 27
193 27
194 27
195 27
196 27
197 27
198 27
199 27
200 27
201 28
202 28
203 28
204 28
205 28
206 28
207 28
208 28
209 29
210 29
211 29
212 30
213 30
214 30
215 31
216 31
217 31
218 31
219 31
220 31
221 32
222 32
223 32
224 32
225 32
226 32
227 33
228 33
229 33
230 33
231 33
232 34
233 34
234 34
235 34
236 35
237 35
238 35
239 35
240 36
241 36
242 36
243 36
244 36
245 36
246 36
247 36
248 37
249 37
250 37
251 37
252 37
253 37
254 37
255 37
256 38
257 38
258 38
259 38
260 38
261 38
262 38
263 39
264 39
265 39
266 40
267 40
268 40
269 40
270 41
271 41
272 41
273 41
274 41
275 41
276 41
277 41
278 41
279 41
280 41
281 40
282 40
283 39
284 38
285 37
285 36
284 35
285 34
284 34
283 33
282 33
281 33
280 32
279 32
278 31
277 31
276 31
275 30
276 29
275 29
274 30
273 29
272 28
271 28
270 28
269 28
268 27
267 27
266 27
265 26
264 26
263 26
262 26
261 25
260 24
259 24
258 23
257 23
256 23
255 22
254 22
253 22
252 21
251 21
250 21
249 20
248 20
247 19
246 19
245 18
244 18
243 18
242 17
241 17
240 17
239 17
238 16
237 16
236 16
235 15
234 14
233 13
232 13
231 13
230 12
229 12
228 11
227 11
226 10
225 10
224 10
223 9
222 9
221 8
220 8
219 7
218 7
217 7
216 6
215 6
214 6
213 6
212 5
211 5
210 5
209 5
208 4
207 4
206 4
205 3
204 3
203 2
202 2
201 2
200 2
199 2
198 2
197 2
196 2
195 2
194 2
193 2
192 2
191 2
190 2
189 2
