27 4
27 5
26 6
25 5
24 5
24 6
23 7
22 6
22 7
21 8
20 7
19 7
18 7
18 8
17 9
16 8
15 8
14 8
14 9
13 10
12 9
11 9
11 10
10 11
9 10
9 11
8 12
7 11
7 12
6 13
5 12
4 12
4 13
3 14
2 15
2 16
2 17
3 18
3 19
3 20
3 21
3 22
4 23
5 23
6 23
7 24
8 24
9 24
10 24
11 24
12 25
13 25
14 25
15 25
16 25
17 25
18 25
19 25
20 25
21 25
22 25
23 25
24 25
25 25
26 25
27 25
28 25
29 25
30 25
31 25
32 25
33 26
34 26
35 26
36 27
37 27
38 28
39 28
40 28
41 28
42 29
43 29
44 29
45 29
46 29
47 29
48 29
49 29
50 29
51 29
52 29
53 29
54 29
55 29
56 28
57 28
58 28
59 28
60 27
61 26
62 26
63 25
64 25
65 25
66 25
67 25
68 25
69 25
70 25
71 25
72 25
73 25
74 25
75 25
76 25
77 25
78 25
79 25
80 25
81 25
82 25
83 25
84 25
85 25
86 25
87 25
88 25
89 26
90 26
91 26
92 26
93 26
94 26
94 25
94 24
95 23
96 23
97 23
98 23
99 23
100 24
101 24
102 24
103 24
104 25
104 26
105 26
106 26
107 26
108 26
109 26
110 26
111 26
111 25
111 24
112 23
113 23
114 23
115 24
116 24
117 25
117 26
118 26
119 26
120 26
121 26
122 26
123 26
124 26
125 26
126 26
127 26
128 26
129 26
130 26
131 26
132 26
133 26
134 27
135 27
136 27
137 27
138 28
139 28
140 28
141 28
142 29
143 29
144 29
145 29
146 28
147 28
148 28
149 28
150 28
151 28
152 28
153 28
154 28
155 28
156 28
157 28
158 28
159 28
160 28
161 28
162 28
163 28
164 28
165 28
166 28
167 28
168 28
169 28
170 28
171 28
172 28
173 28
174 28
175 28
176 28
177 28
178 28
179 28
180 28
181 28
182 28
183 28
184 28
185 28
186 28
187 28
188 28
189 28
190 28
191 28
192 28
193 27
194 27
195 27
196 27
197 26
198 26
199 26
200 26
201 26
202 26
203 26
204 27
205 27
206 27
207 27
208 27
209 27
210 27
211 27
212 27
213 27
214 27
215 27
216 27
217 26
218 26
219 26
220 26
221 26
222 26
223 26
224 26
225 26
226 26
227 26
228 26
229 26
230 26
231 25
232 25
233 25
234 25
235 25
236 25
237 25
238 25
239 25
240 25
241 25
242 25
243 25
244 25
245 24
246 24
247 24
248 24
249 24
250 24
251 24
252 24
253 24
254 24
255 24
256 24
257 23
258 23
259 23
260 23
261 23
262 23
263 23
264 23
265 23
266 22
267 22
268 22
269 22
270 22
271 22
272 21
273 21
274 21
275 21
276 21
277 20
278 20
279 20
280 20
281 19
282 19
283 19
284 18
285 17
286 17
287 16
287 15
287 14
287 13
287 12
286 11
285 11
284 10
283 10
282 10
281 9
280 9
279 9
278 9
277 9
276 9
275 9
274 9
273 9
272 9
271 9
270 9
269 9
268 9
267 9
266 9
265 9
264 9
263 9
262 9
261 8
260 8
259 8
258 8
257 8
256 8
255 8
254 8
253 8
252 8
251 8
251 9
250 10
249 9
248 9
247 9
246 9
245 9
244 9
243 9
242 9
241 9
240 9
239 9
238 9
237 9
236 9
235 8
234 8
233 8
232 8
231 8
230 8
229 8
228 8
227 8
226 8
225 8
224 8
223 8
222 8
221 8
220 8
219 8
218 8
217 8
216 8
215 8
214 8
213 8
212 8
211 8
210 8
209 8
208 8
207 8
206 8
205 8
204 8
203 8
202 8
201 8
200 8
199 8
198 8
197 8
196 8
195 8
194 8
193 8
192 8
191 8
190 8
189 8
188 8
187 8
186 8
185 8
184 8
183 8
182 8
181 8
180 8
179 8
178 8
177 8
176 8
175 8
174 8
173 8
172 8
171 8
170 8
169 8
168 8
167 8
166 8
165 8
164 8
163 8
162 8
161 8
160 8
159 7
158 7
157 7
156 7
155 7
154 7
153 7
152 7
151 7
150 7
149 7
148 7
147 7
146 7
145 7
144 7
143 7
142 7
141 7
140 7
139 7
138 7
137 7
136 7
135 7
134 7
133 7
132 7
131 7
130 7
129 7
128 7
127 7
126 7
125 7
124 7
123 6
122 6
121 6
120 6
119 6
118 6
117 6
116 6
115 6
114 6
113 6
112 5
111 5
110 5
109 5
108 5
107 5
106 5
105 5
104 5
103 5
102 5
101 5
100 5
99 5
98 5
97 5
96 5
95 5
94 4
93 4
92 4
91 4
90 4
89 4
88 4
87 4
86 4
85 4
84 4
83 4
82 4
81 4
80 4
79 4
78 4
77 4
76 4
75 4
74 4
73 4
72 4
71 4
71 5
70 6
69 5
68 5
67 5
66 4
65 4
64 4
63 4
62 4
61 4
60 4
59 4
58 4
57 4
56 4
55 4
54 4
53 4
52 4
51 4
50 4
49 4
48 4
47 4
46 4
45 4
44 4
43 4
42 4
41 4
40 4
39 4
38 4
37 4
36 4
35 4
34 4
33 4
32 4
31 4
30 4
29 4
28 4
