117 2
116 3
115 3
114 3
113 3
112 3
111 3
110 3
109 3
108 3
107 4
106 5
105 6
104 7
103 8
103 9
102 10
101 11
100 11
99 11
98 11
97 11
96 11
95 11
94 11
93 11
92 11
91 11
90 11
89 11
88 11
87 11
86 11
85 11
84 11
83 11
82 11
81 11
80 11
79 11
78 11
77 11
76 11
75 11
74 11
73 11
72 11
71 11
70 11
69 11
68 10
67 10
66 10
65 10
64 10
63 10
62 10
61 10
60 10
59 9
58 9
57 9
56 9
55 9
54 9
53 9
52 9
51 9
50 9
49 9
48 8
47 8
46 8
45 8
44 8
43 8
42 8
41 8
40 8
39 8
38 8
37 8
36 8
35 8
34 7
33 7
32 7
31 7
30 8
29 8
28 8
27 8
26 8
25 8
24 8
23 9
22 9
21 10
20 10
19 11
18 11
17 11
16 11
15 11
14 11
13 11
12 11
11 11
10 11
9 11
8 11
7 10
6 10
5 9
4 9
3 10
2 11
2 12
3 13
3 14
4 15
4 16
5 16
6 16
7 16
8 16
9 16
10 16
11 15
12 15
13 16
14 16
15 16
16 16
17 16
18 16
19 17
20 17
21 17
22 17
23 17
24 17
25 18
26 18
27 18
28 18
29 18
30 18
31 18
32 19
33 19
34 19
35 19
36 19
37 19
38 19
39 19
40 20
41 20
42 20
43 20
44 20
45 20
46 20
47 20
48 20
49 20
50 20
51 20
52 20
53 20
54 20
55 20
56 21
57 21
58 21
59 21
60 21
61 21
62 21
63 21
64 21
65 21
66 21
67 21
68 21
69 21
70 21
71 21
72 21
73 21
74 21
75 21
76 21
77 21
78 21
79 21
80 21
81 21
82 21
83 21
84 21
85 21
86 21
87 21
88 21
89 21
90 21
91 21
92 21
93 21
94 21
95 21
96 21
97 21
98 21
99 21
100 22
101 22
102 22
103 22
104 22
105 22
106 22
107 22
108 22
109 22
110 22
111 22
112 22
113 22
114 22
115 22
116 22
117 22
118 22
119 22
120 22
121 22
122 23
123 23
124 23
125 23
126 23
127 23
128 22
129 22
130 23
131 23
132 23
133 23
134 23
135 23
136 22
137 22
138 22
139 22
140 22
141 22
142 22
143 22
144 22
145 22
146 22
147 22
148 22
149 22
150 22
151 22
152 22
153 22
154 22
155 22
156 21
157 21
158 21
159 21
160 21
161 21
162 21
163 21
164 21
165 21
166 21
167 20
168 20
169 20
170 20
171 20
172 20
173 20
174 20
175 20
176 19
177 19
178 19
179 19
180 19
181 19
182 18
183 18
184 18
185 18
186 18
187 18
188 18
189 18
190 18
191 18
192 18
193 18
194 18
195 17
196 17
197 17
198 17
199 17
200 17
201 17
202 17
203 17
204 17
205 17
206 17
207 16
208 16
209 16
210 16
211 16
212 16
213 16
214 16
215 16
216 16
217 16
218 16
219 16
220 16
221 16
222 16
223 16
224 16
225 16
226 16
227 16
228 16
229 16
230 16
231 16
232 16
233 16
234 16
235 16
236 16
237 15
238 16
239 16
240 16
241 15
242 15
243 15
244 15
245 15
246 15
247 15
248 15
249 15
250 15
251 14
252 14
253 14
254 14
255 14
256 14
257 14
258 14
259 14
260 14
261 14
262 14
263 14
264 14
265 14
266 14
267 14
268 14
269 14
270 14
271 14
272 14
273 14
274 14
275 14
276 15
276 16
277 16
278 17
279 18
280 18
281 17
282 17
283 16
284 15
285 14
286 13
287 12
287 11
286 10
285 9
284 8
283 8
282 8
281 7
280 7
279 7
278 7
277 8
276 8
276 9
275 10
274 11
273 11
272 11
271 11
270 11
269 11
268 11
267 10
266 10
265 10
264 10
263 10
262 10
261 10
260 10
259 10
258 11
257 10
256 10
255 10
254 10
253 10
252 10
251 11
250 11
249 11
248 11
247 11
246 11
245 11
244 11
243 11
242 11
241 11
240 11
239 11
238 11
237 11
236 11
235 11
234 11
233 11
232 11
231 11
230 11
229 11
228 11
227 11
226 11
225 11
224 11
223 11
222 11
221 11
220 11
219 11
218 11
217 11
216 11
215 11
214 11
213 11
212 11
211 11
210 11
209 11
208 11
207 11
206 11
205 11
204 11
203 11
202 11
201 11
200 11
199 11
198 11
197 11
196 11
195 11
194 11
193 11
192 11
191 11
190 11
189 11
188 11
187 11
186 11
185 11
184 11
183 11
182 11
181 11
180 11
179 11
178 11
177 11
176 11
175 11
174 11
173 11
172 11
171 11
170 11
169 11
168 11
167 11
166 11
165 11
164 11
163 11
162 11
161 11
160 11
159 11
158 11
157 11
156 11
155 11
154 11
153 11
152 11
151 11
150 11
149 11
148 11
147 10
148 9
148 8
149 7
149 6
148 6
147 5
146 4
145 4
144 4
143 3
142 3
141 3
140 3
139 3
138 3
137 3
136 3
135 3
134 2
133 2
132 2
131 2
130 2
129 2
128 2
127 2
126 2
125 2
124 2
123 2
122 2
121 2
120 2
119 2
118 2
