115 4
115 5
114 6
113 7
112 6
111 6
110 6
109 6
108 6
107 6
106 6
105 6
104 6
103 6
102 6
101 6
100 6
99 6
98 6
97 6
96 6
95 6
94 6
93 6
92 6
92 7
91 8
90 7
89 7
88 7
87 6
86 6
85 6
84 6
83 6
82 6
81 6
80 6
79 6
78 6
77 6
76 5
75 5
75 6
74 7
73 6
73 7
72 8
71 7
70 7
69 7
68 7
67 7
66 7
65 7
64 7
63 7
62 7
61 7
60 7
59 7
58 6
57 6
56 6
55 6
54 6
53 6
52 6
51 6
50 6
49 6
48 6
47 6
46 6
45 6
44 6
43 6
42 6
41 6
40 6
39 6
38 6
37 6
36 6
35 6
34 6
33 6
32 6
31 6
30 6
29 6
28 6
27 6
26 6
25 6
25 7
24 8
23 7
22 7
21 7
20 7
19 7
18 7
18 8
17 9
16 8
15 8
15 9
14 10
13 9
12 9
12 10
11 11
10 10
10 11
9 12
8 11
8 12
7 13
6 14
5 13
4 13
4 14
3 15
3 16
3 17
3 18
3 19
3 20
3 21
4 21
5 22
6 22
7 23
8 24
9 25
10 25
11 25
12 25
13 26
14 26
15 26
16 26
17 26
18 26
19 26
20 26
21 26
22 26
23 26
24 26
25 26
26 26
27 26
28 26
29 26
30 27
30 28
31 28
32 28
33 28
34 29
35 29
36 29
37 30
38 30
39 31
40 31
41 31
42 32
43 32
44 32
45 33
46 33
47 33
48 33
49 34
50 34
51 34
52 34
53 34
54 34
55 34
56 34
57 34
58 34
59 34
60 34
61 33
62 33
63 33
64 33
65 32
66 33
67 33
68 33
69 33
70 34
70 35
71 35
72 35
73 35
74 35
75 36
76 36
77 36
78 36
79 36
80 36
81 36
82 36
83 36
84 36
85 36
86 36
87 37
88 37
89 37
90 37
90 36
90 35
91 34
92 34
93 35
93 36
93 37
94 37
95 37
96 37
97 37
98 37
99 37
100 37
101 37
102 37
103 37
103 36
103 35
104 34
105 34
106 34
107 34
108 34
109 34
110 34
111 34
112 34
113 34
114 34
115 34
116 34
117 34
118 34
119 34
120 34
121 34
122 34
123 34
124 34
125 33
126 32
127 32
128 32
129 31
130 31
131 31
132 31
133 31
134 31
135 31
136 31
137 31
138 31
139 31
140 31
141 30
142 30
143 30
144 30
145 30
146 30
147 30
148 30
149 30
150 30
151 30
152 30
153 30
154 31
155 31
156 31
157 31
158 31
159 31
160 31
161 31
162 32
163 32
164 32
165 33
166 33
167 33
168 34
169 34
170 34
171 34
172 34
173 34
174 34
175 34
176 35
177 35
178 35
179 35
180 35
181 35
182 36
183 36
184 36
185 36
186 36
187 37
188 37
189 38
190 38
191 39
192 39
193 39
194 39
195 40
196 40
197 40
198 41
199 41
200 41
201 42
202 42
203 43
204 44
205 44
206 45
207 45
208 45
209 46
210 46
211 47
212 47
213 48
214 48
215 49
216 49
217 50
218 51
219 52
220 53
221 53
222 54
223 54
224 55
225 55
226 56
226 57
227 58
228 59
229 59
230 60
231 61
232 62
232 63
233 63
234 64
235 65
236 66
237 67
238 67
239 68
240 69
241 70
241 71
242 72
243 73
244 74
245 75
246 76
246 77
247 78
248 79
248 80
249 81
249 82
250 83
251 84
251 85
252 86
253 87
253 88
254 89
254 90
255 91
255 92
256 93
256 94
257 95
257 96
258 97
259 98
259 99
260 100
260 101
260 102
261 103
262 104
262 105
263 106
264 106
265 106
266 106
267 106
268 106
268 105
268 104
268 103
268 102
268 101
268 100
268 99
268 98
268 97
267 96
267 95
267 94
267 93
266 92
266 91
266 90
265 89
265 88
265 87
264 86
264 85
264 84
263 83
263 82
262 81
262 80
261 79
261 78
260 77
260 76
259 75
259 74
258 73
258 72
257 71
257 70
256 69
256 68
255 67
254 66
253 65
252 64
252 63
251 62
250 61
249 60
249 59
248 58
247 57
246 56
245 55
245 54
244 53
243 53
242 52
242 51
241 50
240 49
239 48
238 47
237 46
236 46
235 45
234 44
233 43
232 43
231 42
231 41
230 40
229 40
228 39
227 38
226 37
225 36
224 35
223 35
222 34
221 33
220 33
219 32
218 31
217 30
216 29
215 28
214 28
213 27
212 27
211 26
210 25
209 25
208 24
207 23
206 22
205 21
204 21
203 20
202 20
201 19
200 19
199 18
198 17
197 16
196 16
195 15
194 15
193 14
192 14
191 14
190 13
189 13
188 12
187 11
186 11
185 10
184 10
183 10
182 9
181 9
180 9
179 9
178 8
177 8
176 7
175 7
175 8
174 9
173 8
172 8
171 8
170 8
169 8
168 7
167 7
166 7
165 7
164 7
163 7
162 6
161 6
160 6
159 6
158 6
157 5
156 5
155 5
154 5
153 5
152 5
151 5
150 5
149 5
149 6
148 7
147 6
146 6
145 6
144 6
143 6
142 6
141 6
140 5
139 5
138 5
137 5
136 5
135 5
134 5
133 5
132 5
131 5
130 5
129 5
128 5
127 5
126 5
125 4
124 4
123 4
122 4
121 4
120 4
119 4
118 4
117 4
116 4
