129 2
128 3
127 3
126 3
125 3
124 4
123 4
122 5
121 6
120 7
119 7
118 7
117 7
116 7
115 7
114 7
113 7
112 7
111 7
110 7
109 7
108 7
107 7
106 7
105 7
104 7
103 7
102 7
101 7
100 7
99 7
98 7
97 7
96 7
95 7
94 7
93 7
92 7
91 7
90 7
89 7
88 7
87 7
86 7
85 7
84 7
83 7
82 7
81 7
80 7
79 7
78 7
77 7
76 7
75 7
74 7
73 7
72 7
71 7
70 7
69 7
68 6
67 6
66 7
65 7
64 7
63 7
62 6
61 6
60 6
59 6
58 6
57 6
56 6
55 6
54 6
53 6
52 6
51 6
50 6
49 6
48 6
47 6
46 6
45 6
44 6
43 6
42 6
41 5
40 5
39 5
38 5
37 5
36 5
35 5
34 5
33 5
32 5
31 5
30 5
29 5
28 5
27 5
26 5
25 5
24 6
23 6
22 6
21 5
20 5
19 5
18 6
17 6
16 6
15 6
14 6
13 6
12 6
11 6
10 6
9 6
8 6
7 6
6 6
5 6
4 6
3 6
2 7
2 8
2 9
2 10
2 11
3 12
4 12
5 12
6 13
7 13
8 13
9 13
10 13
11 13
12 13
13 13
14 13
15 14
16 14
17 14
18 15
19 15
20 15
21 15
22 15
23 15
24 15
25 15
26 16
27 16
28 15
29 15
30 15
31 15
32 15
33 15
34 15
35 15
36 15
37 15
38 14
39 14
40 14
41 14
42 15
43 15
44 15
45 15
46 15
47 15
48 15
49 15
50 15
51 15
52 15
53 15
54 15
55 15
56 15
57 15
58 15
59 15
60 15
61 15
62 15
63 15
64 15
65 15
66 15
67 15
68 15
69 15
70 15
71 15
72 15
73 15
74 15
75 15
76 15
77 15
78 15
79 15
80 15
81 16
82 16
83 16
84 16
85 16
86 16
87 16
88 16
89 16
90 16
91 16
92 16
93 16
94 16
95 16
96 16
97 16
98 16
99 16
100 16
101 16
102 16
103 16
104 16
105 16
106 16
107 16
108 16
109 16
110 16
111 16
112 16
113 16
114 16
115 16
116 16
117 16
118 16
119 16
120 16
121 16
122 16
123 16
124 15
125 15
126 15
127 15
128 15
129 15
130 15
131 15
132 15
133 15
134 15
135 15
136 15
137 15
138 15
139 15
140 15
141 15
142 15
143 15
144 15
145 15
146 15
147 15
148 15
149 15
150 15
151 15
152 15
153 15
154 15
155 15
156 15
157 15
158 15
159 15
160 15
161 15
162 15
163 15
164 15
165 15
166 15
167 15
168 15
169 15
170 15
171 15
172 15
173 15
174 15
175 15
176 15
177 15
178 15
179 15
180 15
181 15
182 15
183 15
184 15
185 15
186 15
187 15
188 15
189 15
190 15
191 15
192 15
193 15
194 15
195 15
196 15
197 15
198 15
199 15
200 15
201 15
202 15
203 15
204 15
205 15
206 15
207 15
208 15
209 14
210 14
211 14
212 14
213 14
214 14
215 14
216 13
217 14
218 14
219 14
220 14
221 14
222 14
223 14
224 14
225 14
226 14
227 14
228 14
229 14
230 14
231 14
232 14
233 14
234 13
235 13
236 13
237 13
238 13
239 13
240 13
241 13
242 13
243 13
244 13
245 13
246 13
247 14
248 14
249 14
250 14
251 14
252 14
253 14
254 14
255 14
256 14
257 14
258 14
259 14
260 14
261 14
262 14
263 14
264 14
265 14
266 14
267 14
268 14
269 14
270 14
271 14
272 14
273 14
274 14
275 14
276 15
277 15
278 15
279 15
280 15
281 15
282 15
283 15
284 15
285 15
286 16
287 17
288 18
289 18
290 17
291 16
291 15
292 14
292 13
292 12
292 11
292 10
291 10
290 9
289 8
288 9
287 10
286 10
285 11
284 11
283 11
282 11
281 11
280 11
279 11
278 11
277 11
276 11
275 11
274 11
273 11
272 11
271 11
270 11
269 11
268 11
267 11
266 11
265 11
264 11
263 11
262 11
261 10
260 10
259 10
258 10
257 10
256 10
255 10
254 10
253 10
252 10
251 10
250 10
249 10
248 10
247 10
246 10
245 10
244 10
243 10
242 10
241 10
240 10
239 10
238 10
237 10
236 10
235 10
234 10
233 10
232 10
231 10
230 9
229 9
228 9
227 9
226 9
225 9
224 9
223 9
222 9
221 9
220 9
219 9
218 9
217 8
216 9
215 9
214 8
213 8
212 8
211 8
210 8
209 8
208 8
207 8
206 8
205 8
204 8
203 8
202 8
201 8
200 8
199 8
198 8
197 8
196 7
195 8
194 8
193 8
192 7
191 7
190 7
189 7
188 7
187 7
186 7
185 7
184 7
183 7
182 7
181 7
180 7
179 7
178 7
177 7
176 7
175 7
174 7
173 7
172 7
171 7
170 7
169 7
168 7
167 7
166 7
165 7
164 7
163 7
162 7
161 7
160 7
159 7
158 7
157 7
156 7
155 6
154 5
153 5
152 4
151 4
150 4
149 3
148 3
147 3
146 2
145 2
144 2
143 2
142 2
141 2
140 2
139 2
138 2
137 2
136 2
135 2
134 2
133 2
132 2
131 2
130 2
