82 2
81 3
80 3
79 4
78 4
77 5
76 6
75 7
74 8
74 9
73 10
72 10
71 10
70 10
69 10
68 10
67 10
66 10
65 10
64 10
63 10
62 10
61 10
60 10
59 10
58 10
57 10
56 10
55 10
54 10
53 10
52 10
51 10
50 10
49 10
48 10
47 11
46 11
45 11
44 11
43 12
42 12
41 12
40 11
41 10
41 9
41 8
41 7
42 6
42 5
42 4
41 4
40 4
40 5
40 6
39 7
39 8
38 9
38 10
38 11
38 12
37 13
36 13
35 14
34 14
33 14
32 14
31 14
30 15
29 15
28 15
27 15
26 15
25 15
24 15
23 15
22 16
21 16
20 16
19 16
18 16
17 16
16 17
15 17
14 17
13 17
12 18
11 18
10 17
11 16
10 16
9 15
8 14
7 14
7 15
6 16
5 15
4 14
3 14
3 15
3 16
4 17
5 18
6 19
7 20
7 21
6 22
6 23
6 24
6 25
6 26
6 27
6 28
6 29
6 30
5 31
4 32
3 32
2 33
2 34
2 35
3 35
4 35
5 34
6 34
7 33
8 33
9 33
10 34
11 34
12 34
13 34
14 34
15 35
16 35
17 35
18 35
19 35
20 35
21 36
22 36
23 36
24 36
25 37
26 37
27 38
28 38
29 39
30 39
31 39
32 39
33 40
34 40
35 40
36 40
37 41
38 41
39 42
40 43
40 44
41 45
41 46
41 47
42 48
42 49
43 50
43 51
44 52
44 53
45 54
46 55
47 55
47 54
48 53
49 54
50 55
50 56
51 57
52 58
53 59
53 58
54 57
54 56
53 56
52 55
53 54
52 54
51 53
50 52
51 51
50 51
49 50
50 49
50 48
51 47
51 46
51 45
51 44
52 43
53 43
54 43
55 43
56 43
57 43
58 44
59 44
60 44
61 44
62 44
63 44
64 44
65 44
66 44
67 44
68 44
69 44
70 44
71 44
72 44
73 44
74 44
75 44
76 44
77 44
78 44
79 43
80 43
81 43
82 43
83 43
84 43
85 43
86 43
87 43
88 43
89 43
90 44
91 45
91 46
91 47
91 48
91 49
92 49
93 50
94 50
95 50
96 50
97 50
98 50
99 50
100 50
101 50
102 50
103 50
104 50
105 50
106 50
107 50
108 50
109 50
110 50
111 50
112 50
113 50
114 50
115 50
116 50
117 49
118 49
119 49
120 49
121 49
122 49
123 49
124 49
125 49
126 49
127 49
128 49
129 49
130 49
131 49
132 49
133 49
134 49
135 49
136 49
137 49
138 48
139 48
140 48
141 48
142 48
143 48
144 48
145 48
146 48
147 48
148 48
149 48
150 48
151 48
152 48
153 47
154 47
155 47
156 47
157 47
158 46
159 46
160 46
161 46
162 45
163 45
164 45
165 45
166 45
167 45
168 44
169 44
170 44
171 44
172 43
173 43
174 42
174 41
175 40
175 39
176 38
177 39
178 39
179 39
180 39
181 40
182 40
183 40
184 41
185 41
186 41
187 41
188 42
189 42
190 42
191 43
192 43
193 43
194 43
195 44
196 44
197 44
198 44
199 44
200 44
201 44
202 43
203 42
204 42
205 41
205 40
206 39
207 38
207 37
208 36
208 35
208 34
209 33
209 32
209 31
209 30
209 29
208 29
207 28
208 27
207 27
206 26
205 25
204 24
203 24
202 23
201 22
200 22
199 22
198 21
197 20
196 20
195 20
194 21
193 22
192 22
191 22
190 22
189 23
188 23
187 23
186 24
185 24
184 24
183 24
182 25
181 25
180 25
179 25
178 25
177 26
176 25
175 25
174 24
175 23
175 22
174 22
173 21
174 20
174 19
173 19
172 18
171 18
170 17
169 17
168 16
167 16
166 16
165 16
164 15
163 15
162 15
161 14
160 14
159 14
158 13
157 13
156 13
155 13
154 12
153 12
152 11
151 11
150 10
149 10
148 10
147 10
146 10
145 9
144 9
143 9
142 9
141 9
140 8
139 8
138 8
137 8
136 7
135 7
134 7
133 7
132 7
131 7
130 7
129 6
128 6
127 6
126 6
125 6
124 6
123 6
122 6
121 5
120 5
119 5
118 5
117 5
116 5
115 5
114 4
113 4
112 4
111 4
110 3
109 4
108 4
107 4
106 4
105 4
104 4
103 3
102 3
101 3
100 3
99 3
98 3
97 3
96 3
95 3
94 3
93 2
92 2
91 2
90 2
89 2
88 2
87 2
86 2
85 2
84 2
83 2
