75 1
74 2
73 2
72 2
71 2
70 3
69 3
68 4
67 4
66 5
65 6
64 7
63 8
62 9
61 10
60 10
59 11
58 12
57 13
57 14
56 15
55 16
54 17
53 17
52 17
51 17
50 17
49 17
48 17
47 17
46 17
45 17
44 17
43 17
42 18
41 18
40 18
39 18
38 18
37 18
36 18
35 18
34 19
33 19
32 19
31 19
30 19
29 19
28 20
27 20
26 20
25 20
24 21
23 21
22 21
21 21
20 22
19 22
18 22
17 22
16 23
15 23
14 24
13 25
12 26
11 26
10 26
9 27
8 28
7 28
6 29
5 30
4 30
3 31
2 32
2 33
2 34
2 35
2 36
2 37
2 38
2 39
3 40
4 40
5 41
6 41
7 42
8 42
9 43
10 43
11 44
12 44
13 44
14 45
15 45
16 45
17 46
18 46
19 47
20 47
21 47
22 48
23 48
24 48
25 49
26 49
27 49
28 49
29 50
30 51
31 51
32 52
33 52
34 52
35 53
36 53
37 53
38 53
39 54
40 54
41 55
41 56
42 57
42 58
43 59
43 60
43 61
44 62
45 63
46 64
47 64
47 63
48 62
48 61
48 60
48 59
48 58
48 57
48 56
49 55
50 55
51 56
52 56
53 56
54 56
55 56
56 56
57 56
58 56
59 56
60 56
61 56
62 57
63 57
64 57
65 57
66 57
67 57
68 57
69 57
70 57
71 57
72 57
73 57
74 57
75 57
76 57
77 57
78 57
79 57
80 57
81 57
82 57
83 56
84 56
85 57
85 58
86 59
86 60
87 61
88 62
89 63
90 64
91 65
92 66
93 66
94 67
95 67
96 67
97 67
98 67
99 67
100 67
101 67
102 66
103 66
104 66
105 66
106 65
107 65
108 65
109 64
110 64
111 64
112 63
113 63
114 62
115 62
116 62
117 62
118 61
119 61
120 61
121 60
122 59
123 58
124 58
125 58
126 57
127 57
128 56
129 55
129 54
130 53
131 53
132 54
133 55
133 56
134 57
134 58
135 58
136 58
137 58
138 58
139 57
140 57
141 56
142 56
143 55
144 54
145 54
146 53
147 53
148 52
149 51
150 50
151 49
152 48
153 47
153 46
154 45
155 45
156 45
157 45
158 44
159 44
160 44
161 44
162 44
163 43
164 44
165 44
166 45
167 45
168 45
169 46
170 46
171 47
172 47
173 48
174 48
175 49
176 49
177 50
178 51
179 52
180 52
181 53
182 53
183 54
184 54
185 55
186 55
187 56
188 56
189 57
190 57
191 57
192 58
193 58
194 58
195 58
196 57
196 56
197 55
197 54
197 53
197 52
197 51
197 50
197 49
196 49
195 48
196 47
196 46
196 45
195 45
194 44
195 43
195 42
195 41
195 40
195 39
195 38
196 37
196 36
196 35
197 34
197 33
197 32
197 31
197 30
198 29
198 28
199 27
199 26
199 25
199 24
199 23
198 23
197 23
196 22
195 22
194 22
193 22
192 22
191 23
190 23
189 23
188 23
187 24
186 24
185 25
184 25
183 26
182 26
181 27
180 27
179 27
178 28
177 28
176 28
175 29
174 29
173 30
172 30
171 30
170 31
169 31
168 31
167 31
166 32
165 32
164 32
163 32
162 32
161 31
160 31
159 31
158 31
157 31
156 30
155 29
154 28
153 27
152 27
151 26
150 26
149 25
148 24
149 23
148 23
147 23
146 22
145 21
144 21
143 20
142 20
141 19
140 19
139 19
138 19
137 19
136 19
135 20
134 20
133 19
132 19
131 19
130 18
129 17
128 17
127 16
126 16
125 15
124 14
123 14
122 14
121 13
120 13
119 12
118 12
117 12
116 11
115 11
114 11
113 10
112 10
111 9
110 9
109 8
108 8
107 8
106 7
105 6
104 5
103 5
102 5
101 5
100 4
99 4
98 4
97 4
96 4
95 4
94 5
93 5
92 6
91 7
90 8
89 9
88 10
88 11
87 12
86 13
86 14
85 15
85 16
84 17
83 17
82 16
81 15
80 14
81 13
81 12
80 12
79 11
80 10
80 9
80 8
79 8
78 7
79 6
79 5
79 4
78 4
77 3
78 2
77 2
76 2
