87 2
86 3
85 3
84 3
83 4
82 5
81 6
80 6
79 7
78 8
77 8
76 9
75 10
74 11
73 12
72 13
72 14
71 15
71 16
70 17
69 18
68 19
68 20
67 21
67 22
66 23
66 24
65 25
64 25
63 25
62 25
61 25
60 25
59 26
58 26
57 26
56 26
55 26
54 26
53 26
52 27
51 27
50 27
49 27
48 27
47 27
46 28
45 28
44 28
43 29
42 29
41 29
40 30
39 30
38 30
37 30
36 31
35 31
34 32
33 33
32 33
31 33
30 34
29 34
28 34
27 35
26 35
25 35
24 36
23 36
22 36
21 37
20 37
19 37
18 38
17 38
16 39
15 39
14 40
13 41
12 42
11 42
10 43
9 43
8 44
7 44
6 45
5 46
4 46
3 47
2 48
2 49
2 50
2 51
2 52
3 53
4 54
5 55
5 56
6 57
7 57
8 58
7 59
7 60
7 61
7 62
8 63
8 64
8 65
9 66
10 67
11 68
11 67
12 66
12 65
11 65
10 64
9 63
10 62
10 61
10 60
11 59
12 59
13 59
14 59
15 60
16 60
17 60
18 61
19 61
20 62
21 62
22 62
23 63
24 63
25 64
26 64
27 64
28 65
29 65
30 65
31 66
32 67
33 67
34 68
35 68
36 68
37 68
38 68
39 69
40 69
41 70
42 70
43 70
44 70
45 71
46 71
47 71
48 71
49 71
50 71
51 72
52 73
53 74
54 75
55 76
55 77
56 78
57 79
58 80
59 81
60 82
61 83
62 84
63 84
63 83
64 82
65 82
66 83
67 84
68 85
68 84
69 83
69 82
68 82
67 81
66 80
67 79
66 79
65 78
64 78
63 77
62 76
63 75
64 74
65 74
66 74
67 74
68 74
69 74
70 74
71 74
72 74
73 74
74 74
75 74
76 74
77 74
78 74
79 74
80 74
81 74
82 74
83 74
84 74
85 73
86 73
87 73
88 73
89 73
90 73
91 73
92 73
93 73
94 73
95 73
96 73
97 73
98 73
99 72
100 72
101 72
102 72
103 72
104 72
105 72
106 72
107 73
108 74
109 74
110 75
111 76
112 77
113 78
114 78
115 79
116 79
117 80
118 81
119 81
120 81
121 81
122 81
123 81
124 81
125 81
126 81
127 81
128 80
129 80
130 79
131 79
132 78
132 77
133 76
134 75
134 74
135 73
136 72
137 71
138 70
139 69
140 68
140 67
141 66
141 65
142 64
142 63
143 62
143 61
144 60
145 60
146 60
147 61
148 62
149 62
150 63
151 63
152 64
153 64
154 65
155 66
156 67
157 67
158 68
159 68
160 68
161 68
162 68
163 67
164 66
165 65
166 65
167 64
168 63
169 62
170 61
170 60
171 59
171 58
172 57
172 56
171 55
171 54
172 53
173 53
174 54
175 54
176 54
177 54
178 54
179 54
180 54
181 54
182 54
183 55
184 55
185 56
185 57
186 56
187 57
188 57
189 57
190 58
191 58
192 59
193 59
194 60
195 60
196 61
197 61
198 61
199 62
200 62
201 62
202 63
203 63
204 63
205 63
206 64
207 64
208 64
209 64
210 63
210 62
211 61
211 60
211 59
211 58
211 57
211 56
211 55
210 54
210 53
209 52
210 51
210 50
210 49
210 48
210 47
210 46
210 45
209 44
209 43
210 42
210 41
210 40
210 39
210 38
211 37
211 36
211 35
211 34
211 33
210 32
211 31
211 30
210 30
209 30
208 30
207 30
206 30
205 30
204 30
203 30
202 30
201 31
200 31
199 32
198 33
197 33
196 33
195 33
194 34
193 34
192 35
191 35
190 35
189 36
188 36
187 36
186 37
185 37
184 37
183 38
182 38
181 38
180 39
179 39
178 40
177 40
176 40
175 40
174 41
173 40
172 40
171 40
170 40
169 39
170 38
170 37
171 36
171 35
171 34
170 34
169 33
170 32
169 32
168 31
169 30
168 30
167 29
166 29
165 28
164 27
163 27
162 26
161 26
160 26
159 25
158 25
157 25
156 25
155 26
154 26
153 27
152 27
151 28
150 28
149 29
148 30
147 30
146 31
145 32
144 33
143 34
142 35
141 35
140 36
139 36
138 36
137 35
136 34
136 33
137 32
137 31
137 30
137 29
137 28
137 27
136 27
135 26
136 25
135 25
134 24
135 23
134 23
133 22
134 21
133 21
132 20
131 19
130 18
129 17
128 16
127 15
126 14
125 13
124 12
123 12
122 12
121 11
120 11
119 11
118 11
117 11
116 11
115 12
114 13
113 14
112 15
111 16
110 16
109 17
109 18
108 19
107 19
107 20
106 21
105 21
105 22
105 23
104 24
103 25
102 25
102 26
101 27
100 27
99 27
98 27
97 27
96 26
97 25
97 24
98 23
98 22
98 21
98 20
97 20
96 19
97 18
97 17
96 17
95 16
96 15
96 14
96 13
95 13
94 12
95 11
95 10
94 10
93 9
94 8
94 7
93 7
92 6
93 5
92 5
91 4
92 3
91 3
90 2
89 2
88 2
