64 2
63 3
62 4
61 4
60 5
59 6
58 7
57 8
56 9
55 10
55 11
54 12
53 13
53 14
52 15
52 16
51 17
50 18
50 19
50 20
49 21
48 22
48 23
48 24
47 25
47 26
47 27
47 28
46 29
46 30
46 31
45 32
44 33
43 33
42 33
41 33
40 33
39 34
38 34
37 34
36 34
35 35
34 35
33 35
32 35
31 36
30 36
29 36
28 37
27 37
26 38
25 38
24 39
23 39
22 39
21 40
20 40
19 40
18 41
17 41
16 42
15 42
14 43
13 43
12 44
11 44
10 45
9 45
8 46
7 47
6 48
5 49
4 50
3 51
3 52
2 53
2 54
3 55
3 56
4 57
5 58
5 59
5 60
6 61
6 62
6 63
6 64
6 65
6 66
6 67
7 68
8 68
8 67
9 66
9 65
10 64
11 65
12 66
13 66
14 67
15 67
16 67
17 68
18 68
19 69
20 69
21 69
22 69
23 70
24 70
25 70
26 71
27 71
28 71
29 72
30 72
31 72
32 72
33 73
34 73
35 74
35 75
35 76
35 77
36 78
36 79
36 80
37 81
37 82
37 83
37 84
38 85
38 86
39 87
39 88
40 89
40 90
41 91
41 92
42 92
42 91
43 90
43 89
42 89
41 88
42 87
42 86
42 85
42 84
42 83
42 82
42 81
42 80
41 80
40 79
41 78
41 77
40 77
39 76
40 75
41 75
42 75
43 75
44 76
45 76
46 76
47 76
48 77
49 77
50 77
51 77
52 77
53 78
54 78
55 78
56 78
57 78
58 79
59 79
60 79
61 79
62 79
63 79
64 79
65 80
66 81
66 82
66 83
67 84
68 85
69 86
70 87
71 88
72 88
73 89
74 89
75 90
75 91
76 92
77 92
78 92
79 93
80 93
81 93
82 94
83 94
84 94
85 94
86 95
87 95
88 95
89 95
90 95
91 95
92 95
93 95
94 95
95 95
96 95
97 95
98 95
99 95
100 95
101 95
102 95
103 95
104 95
105 95
106 94
107 94
108 94
109 94
110 94
111 93
112 93
113 92
114 92
115 92
116 91
117 90
118 89
119 88
120 88
121 88
122 87
123 87
124 86
125 85
126 84
127 84
128 83
129 82
130 81
131 80
132 79
133 78
133 77
134 76
135 75
136 74
137 74
138 75
139 76
140 76
141 77
142 78
143 78
144 79
145 80
146 80
147 81
148 82
149 83
150 83
151 83
152 83
153 82
154 81
155 81
156 80
157 79
158 79
159 78
160 77
161 76
162 75
163 74
164 73
165 72
165 71
166 70
166 69
167 68
168 67
169 67
170 67
171 67
172 67
173 68
174 68
175 68
176 68
177 69
178 69
179 69
180 70
181 70
182 70
183 71
184 71
185 72
186 72
187 72
188 72
189 73
190 73
191 74
192 74
193 74
194 75
195 75
196 75
197 76
198 76
199 77
200 77
201 77
202 77
203 78
204 78
205 79
206 79
207 79
208 79
209 79
210 79
210 78
211 77
211 76
211 75
211 74
211 73
210 73
209 72
210 71
210 70
210 69
210 68
209 68
208 67
209 66
209 65
209 64
209 63
209 62
209 61
209 60
209 59
209 58
209 57
209 56
209 55
209 54
209 53
210 52
210 51
210 50
210 49
210 48
210 47
210 46
211 45
211 44
211 43
211 42
211 41
210 41
209 40
208 40
207 40
206 40
205 40
204 40
203 41
202 41
201 41
200 41
199 42
198 42
197 42
196 42
195 43
194 43
193 43
192 44
191 44
190 44
189 45
188 45
187 45
186 46
185 46
184 47
183 48
182 48
181 48
180 49
179 49
178 50
177 50
176 50
175 51
174 51
173 52
172 52
171 52
170 52
169 52
168 52
167 51
166 50
167 49
166 49
165 48
166 47
165 47
164 46
165 45
164 45
163 44
162 43
163 42
162 42
161 41
160 40
159 39
158 38
159 37
159 36
158 36
157 36
156 35
157 34
156 34
155 34
154 34
153 34
152 33
151 33
150 34
149 34
148 34
147 35
146 35
145 36
144 36
143 37
142 38
141 39
140 39
139 40
138 40
137 39
136 38
135 37
134 36
133 35
132 35
131 34
130 34
129 33
128 32
127 32
126 31
125 30
124 30
123 29
122 28
121 27
120 26
119 26
118 25
117 24
116 24
115 23
114 23
113 22
112 22
111 21
110 20
109 19
108 18
107 18
106 17
105 17
104 16
103 16
102 15
101 15
100 14
99 14
98 14
97 13
96 13
95 13
94 13
93 13
92 14
91 14
90 14
89 15
88 15
87 15
86 16
85 17
84 17
83 18
82 18
81 19
81 20
80 21
79 21
78 22
77 23
76 24
75 25
74 26
73 27
72 27
71 27
70 26
71 25
71 24
71 23
71 22
72 21
71 21
70 20
71 19
71 18
71 17
71 16
71 15
71 14
71 13
71 12
71 11
71 10
71 9
71 8
71 7
71 6
70 6
69 5
70 4
70 3
70 2
69 2
68 2
67 2
66 2
65 2
