82 2
81 3
80 3
79 3
78 3
77 3
76 3
75 3
74 3
73 4
72 4
71 5
70 6
69 7
68 8
67 9
66 10
65 11
64 10
63 9
64 8
63 8
62 9
61 9
60 10
59 10
58 11
57 11
56 11
55 11
54 11
53 11
52 11
51 11
50 11
49 11
48 11
47 11
46 12
45 12
44 12
43 12
42 12
41 12
40 12
39 12
38 12
37 12
36 13
35 13
34 13
33 13
32 13
31 13
30 14
29 14
28 14
27 15
26 15
25 16
24 16
23 16
22 17
21 17
20 17
19 18
18 18
17 18
16 19
15 19
14 20
13 20
12 21
11 21
10 22
9 22
8 23
8 24
7 25
6 25
5 26
4 27
3 28
2 29
2 30
2 31
2 32
2 33
2 34
2 35
2 36
2 37
2 38
2 39
2 40
3 41
4 42
5 43
6 43
7 44
8 44
9 45
10 45
11 46
12 46
13 47
14 47
15 48
16 48
17 48
18 49
19 49
20 50
21 51
21 52
22 52
23 52
24 53
25 53
26 54
27 54
28 54
29 54
30 55
31 55
32 55
33 56
34 56
35 56
36 56
37 57
38 57
39 57
40 57
41 57
42 57
43 58
44 58
45 58
46 58
47 58
48 58
49 58
50 58
51 58
52 58
53 58
54 58
55 58
56 59
57 60
58 61
59 62
60 61
60 60
61 59
62 58
63 58
64 58
65 58
66 58
67 58
68 58
69 58
70 58
71 58
72 58
73 58
74 58
75 58
76 57
77 57
78 57
79 57
80 56
81 56
82 56
83 56
84 56
85 56
86 57
87 58
88 59
89 60
90 61
91 61
92 61
93 61
94 61
95 62
96 62
97 62
98 62
99 62
100 62
101 62
102 62
103 62
104 62
105 62
106 62
107 61
108 61
109 61
110 61
111 61
112 61
113 61
114 61
115 61
116 61
117 61
118 61
119 61
120 61
121 61
122 61
123 61
124 60
125 60
126 60
127 60
128 60
129 60
130 59
131 59
132 59
133 59
134 58
135 58
136 58
137 58
138 58
139 58
140 58
141 58
142 58
143 58
144 58
145 57
146 57
147 57
148 57
149 57
150 57
151 57
152 57
153 56
154 56
155 56
156 56
157 56
158 56
159 55
160 55
161 55
162 55
163 54
164 54
165 54
166 54
167 53
168 53
169 53
170 52
171 52
172 52
173 51
174 50
174 49
175 48
175 47
175 46
176 45
177 45
178 46
179 46
180 46
181 47
182 47
183 47
184 47
185 48
186 48
187 48
188 48
189 48
190 47
191 47
192 47
193 46
194 46
195 45
195 44
196 43
196 42
197 41
197 40
197 39
198 38
197 38
196 37
197 36
196 36
195 35
194 34
193 33
194 32
193 32
192 31
191 31
190 31
189 31
188 30
187 30
186 30
185 30
184 30
183 30
182 31
181 31
180 31
179 31
178 31
177 32
176 33
175 32
175 31
174 31
173 30
172 29
173 28
172 28
171 27
172 26
171 26
170 26
169 25
168 24
169 23
168 23
167 22
166 21
165 21
164 20
163 20
162 19
161 19
160 18
159 18
158 18
157 17
156 17
155 16
154 16
153 16
152 15
151 14
152 13
151 13
150 13
149 13
148 13
147 12
146 12
145 12
144 11
143 11
142 11
141 10
140 10
139 10
138 9
137 9
136 9
135 9
134 8
133 8
132 8
131 8
130 8
129 7
128 7
127 7
126 7
125 7
124 7
123 6
122 6
121 6
120 5
119 5
118 4
117 4
116 4
115 4
114 4
113 4
112 4
111 3
110 3
109 3
108 3
107 3
106 3
105 3
104 3
103 3
102 3
101 3
100 3
99 3
98 3
97 2
96 2
95 2
94 2
93 2
92 2
91 2
90 2
89 2
88 2
87 2
86 2
85 2
84 3
83 2
