92 2
91 3
90 3
89 3
88 3
87 3
86 3
85 3
84 3
83 3
82 4
81 4
80 4
79 4
78 5
77 6
76 6
75 7
74 7
74 8
73 9
73 10
72 11
71 11
70 11
69 11
68 11
67 11
66 11
65 11
64 11
63 11
62 11
61 11
60 11
59 11
58 11
57 11
56 11
55 12
54 12
53 12
52 12
51 12
50 12
49 12
48 12
47 12
46 12
45 13
44 13
43 13
42 14
41 14
40 14
39 13
40 12
40 11
40 10
40 9
41 8
41 7
41 6
40 6
39 7
38 8
38 9
38 10
37 11
37 12
37 13
37 14
36 15
35 15
34 15
33 16
32 16
31 16
30 16
29 16
28 17
27 16
26 16
25 17
24 17
23 18
22 18
21 18
20 18
19 18
18 19
17 19
16 19
15 19
14 20
13 20
12 20
11 20
10 20
9 19
8 18
7 18
7 19
6 20
5 19
4 19
3 19
3 20
3 21
4 22
5 23
6 24
6 25
6 26
6 27
6 28
6 29
6 30
6 31
6 32
6 33
6 34
5 35
4 36
3 36
2 37
2 38
2 39
3 39
4 39
5 38
6 38
7 38
8 37
9 37
10 37
11 37
12 37
13 38
14 38
15 39
16 39
17 39
18 39
19 40
20 40
21 41
22 41
23 42
24 42
25 42
26 42
27 43
28 43
29 43
30 43
31 43
32 44
33 44
34 44
35 44
36 44
37 45
38 45
39 45
40 46
41 47
41 48
42 49
42 50
43 51
44 52
45 53
45 54
46 54
47 54
48 55
49 55
50 56
51 57
52 58
52 59
53 59
54 60
55 60
55 59
56 58
56 57
55 57
54 56
53 55
52 54
51 54
50 53
49 52
50 51
50 50
50 49
50 48
50 47
51 46
52 46
53 46
54 46
55 46
56 46
57 46
58 46
59 46
60 46
61 47
62 47
63 46
64 46
65 47
66 47
67 46
68 47
69 47
70 47
71 47
72 47
73 47
74 47
75 47
76 47
77 47
78 46
79 46
80 46
81 46
82 46
83 46
84 46
85 46
86 46
87 46
88 47
89 48
90 49
91 50
92 51
93 51
94 52
95 52
96 52
97 52
98 52
99 52
100 52
101 52
102 51
103 51
104 51
105 51
106 51
107 51
108 51
109 51
110 51
111 51
112 51
113 51
114 51
115 51
116 51
117 50
118 50
119 50
120 50
121 50
122 50
123 50
124 50
125 50
126 50
127 50
128 50
129 49
130 49
131 49
132 49
133 49
134 49
135 49
136 49
137 49
138 49
139 48
140 48
141 48
142 48
143 48
144 48
145 48
146 48
147 48
148 47
149 47
150 47
151 47
152 47
153 47
154 47
155 47
156 47
157 47
158 46
159 46
160 46
161 46
162 46
163 46
164 46
165 45
166 45
167 45
168 44
169 44
170 44
171 43
172 43
172 42
173 41
173 40
174 39
174 38
175 37
176 37
177 37
178 38
179 38
180 38
181 39
182 39
183 39
184 40
185 40
186 41
187 41
188 42
189 42
190 42
191 42
192 43
193 43
194 43
195 44
196 44
197 44
198 45
199 45
200 45
201 44
202 44
203 43
204 43
205 42
205 41
206 40
206 39
207 38
207 37
208 36
208 35
208 34
208 33
208 32
208 31
208 30
208 29
208 28
208 27
208 26
207 26
206 25
205 24
206 23
206 22
205 22
204 21
205 20
204 20
203 20
202 19
201 18
200 18
199 18
198 18
197 18
196 18
195 19
194 19
193 19
192 20
191 20
190 20
189 20
188 20
187 20
186 21
185 21
184 21
183 22
182 22
181 23
180 23
179 24
178 24
177 24
176 24
175 24
174 23
175 22
175 21
175 20
174 20
173 19
172 18
171 17
170 17
169 16
168 16
167 15
166 15
165 14
164 13
163 13
162 12
161 12
160 12
159 11
158 11
157 11
156 10
155 10
154 10
153 10
152 10
151 9
150 9
149 9
148 9
147 8
146 8
145 8
144 8
143 8
142 7
141 7
140 7
139 7
138 7
137 6
136 6
135 6
134 6
133 6
132 6
131 6
130 6
129 5
128 5
127 5
126 5
125 4
124 4
123 4
122 4
121 4
120 3
119 3
118 3
117 3
116 3
115 3
114 3
113 3
112 3
111 3
110 3
109 3
108 3
107 3
106 2
105 2
104 2
103 2
102 2
101 2
100 2
99 2
98 2
97 2
96 2
95 2
94 2
93 2
