69 2
68 3
67 3
66 3
65 4
64 4
63 4
62 5
61 5
60 6
59 7
58 8
57 9
56 9
55 10
54 10
53 10
52 10
51 10
50 10
49 10
48 10
47 10
46 10
45 10
44 10
43 10
42 10
41 10
40 10
39 11
38 11
37 11
36 11
35 11
34 11
33 11
32 11
31 11
30 11
29 11
28 11
27 11
26 11
25 11
24 11
23 11
22 11
21 11
20 11
19 11
18 11
17 11
16 11
15 11
14 12
13 12
12 12
11 12
10 12
9 12
8 12
7 12
6 12
5 12
4 13
3 13
3 14
2 15
2 16
2 17
3 18
3 19
3 20
4 21
5 22
5 23
6 24
6 25
7 26
8 27
8 28
9 28
10 29
11 30
12 30
12 29
12 28
11 27
10 26
10 25
11 24
12 25
13 26
14 26
15 26
16 27
17 27
18 27
19 27
20 28
21 28
22 28
23 29
24 29
25 29
26 29
27 30
28 30
29 30
30 30
31 30
32 31
33 31
34 31
35 31
36 31
37 31
38 32
39 32
40 33
41 34
42 35
43 35
44 36
45 36
46 37
47 37
48 38
49 38
50 39
51 39
52 40
53 40
54 40
54 39
55 38
54 38
53 37
52 36
51 35
52 34
51 34
50 34
49 33
50 32
51 32
52 32
53 32
54 32
55 32
56 33
57 32
58 32
59 32
60 33
61 33
62 33
63 33
64 33
65 33
66 33
67 33
68 33
69 33
70 33
71 33
72 33
73 33
74 33
75 33
76 33
77 33
78 33
79 33
80 33
81 33
82 33
83 33
84 33
85 33
86 33
87 33
88 33
89 33
90 34
91 35
92 36
93 37
94 37
95 38
96 38
97 39
98 39
99 39
100 39
101 39
102 39
103 39
104 39
105 39
106 39
107 40
108 40
109 40
110 40
111 40
112 40
113 40
114 40
115 40
116 40
117 40
118 40
119 39
120 39
121 39
122 39
123 39
124 39
125 39
126 39
127 39
128 39
129 39
130 39
131 39
132 39
133 39
134 39
135 39
136 39
137 39
138 39
139 39
140 39
141 38
142 38
143 38
144 38
145 38
146 38
147 38
148 38
149 38
150 38
151 38
152 38
153 38
154 37
155 37
156 37
157 37
158 37
159 37
160 37
161 37
162 37
163 37
164 36
165 36
166 36
167 36
168 36
169 35
170 35
171 34
171 33
172 32
172 31
173 30
173 29
173 28
174 27
175 28
176 28
177 29
178 28
179 29
180 29
181 29
182 29
183 30
184 30
185 30
186 30
187 30
188 30
189 30
190 30
191 30
192 30
193 29
194 29
195 28
196 27
197 26
197 25
198 24
198 23
198 22
199 21
199 20
199 19
199 18
199 17
198 17
197 16
198 15
197 15
196 14
195 14
194 13
193 13
192 12
191 12
190 12
189 12
188 12
187 12
186 12
185 12
184 12
183 12
182 12
181 12
180 12
179 13
178 13
177 13
176 13
175 14
174 14
173 15
172 15
171 14
172 13
172 12
173 11
172 11
171 10
172 9
171 9
170 8
169 7
170 6
169 6
168 6
167 5
166 5
165 5
164 5
163 4
162 4
161 4
160 4
159 4
158 4
157 4
156 4
155 4
154 4
153 4
152 4
151 4
150 4
149 4
148 4
147 4
146 4
145 4
144 4
143 3
144 2
143 2
142 3
141 4
140 4
139 4
138 4
137 4
136 4
135 3
134 4
133 4
132 4
131 4
130 4
129 4
128 4
127 4
126 4
125 3
124 3
123 3
122 3
121 3
120 3
119 3
118 3
117 3
116 3
115 3
114 3
113 3
112 3
111 3
110 3
109 3
108 3
107 3
106 3
105 3
104 3
103 3
102 3
101 3
100 3
99 3
98 3
97 3
96 3
95 2
94 3
93 3
92 3
91 3
90 3
89 4
88 4
87 4
86 4
85 5
84 5
83 6
82 6
81 7
81 8
80 9
79 9
78 8
79 7
79 6
79 5
79 4
78 4
77 3
76 2
75 2
74 2
73 2
72 2
71 2
70 2
