92 2
91 3
91 4
90 5
89 6
88 7
87 7
86 6
85 5
86 4
86 3
85 3
84 3
84 4
83 5
83 6
82 7
81 8
80 9
79 9
78 8
77 7
78 6
77 6
76 6
76 7
76 8
76 9
75 10
75 11
75 12
74 13
73 14
72 14
71 13
72 12
72 11
71 11
70 11
69 12
69 13
69 14
68 15
68 16
67 17
66 16
65 16
64 16
64 17
64 18
64 19
64 20
64 21
64 22
63 23
62 23
61 23
60 23
59 23
58 24
57 24
56 24
55 25
54 25
53 25
52 26
51 26
50 26
49 26
48 27
47 27
46 27
45 28
44 28
43 28
42 29
41 29
40 29
39 30
38 30
37 30
36 31
35 31
34 31
33 32
32 32
31 32
30 33
29 33
28 34
27 34
26 34
25 35
24 35
23 36
22 36
21 37
20 37
19 38
18 38
17 39
16 39
15 40
14 40
13 41
12 41
11 42
10 43
9 43
8 44
7 45
6 46
5 46
4 47
3 48
3 49
3 50
3 51
2 52
2 53
2 54
2 55
2 56
2 57
2 58
3 59
4 60
5 61
6 61
7 62
8 63
9 63
10 64
11 65
12 65
13 66
14 66
15 67
16 67
17 67
18 67
19 67
20 68
21 68
22 68
23 68
24 69
25 69
26 69
27 70
28 70
29 70
30 70
31 71
32 71
33 71
34 71
35 71
36 72
37 72
38 72
39 72
40 72
41 73
42 73
43 73
44 74
45 74
46 74
47 74
48 74
49 75
50 75
51 75
52 75
53 75
54 75
55 76
56 76
57 76
58 76
59 77
60 77
61 77
62 77
63 77
64 77
65 78
66 78
67 78
68 79
68 80
68 81
69 82
69 83
69 84
69 85
70 86
70 87
70 88
70 89
70 90
70 91
71 91
71 90
72 89
73 90
73 91
74 92
75 93
76 94
76 95
77 96
78 96
79 96
80 95
80 94
81 93
81 92
81 91
81 90
82 89
82 88
82 87
82 86
82 85
82 84
83 83
83 82
83 81
84 80
85 80
86 80
87 81
88 81
89 81
90 81
91 81
92 81
93 81
94 81
95 81
96 81
97 81
98 81
99 81
100 81
101 81
102 81
103 81
104 81
105 81
106 81
107 80
108 80
109 80
110 80
111 79
112 79
113 79
114 80
115 81
115 82
116 83
116 84
117 84
117 83
118 82
119 83
120 84
121 85
122 86
123 86
123 85
124 84
123 84
122 83
123 82
124 81
125 81
126 82
126 83
127 84
127 85
128 86
129 85
129 84
130 83
131 84
132 84
133 84
134 85
135 85
136 85
137 85
138 85
139 85
140 84
141 84
142 84
143 83
144 82
145 81
146 80
147 79
148 78
149 78
150 77
150 76
151 75
152 74
153 73
153 72
154 71
154 70
154 69
155 68
156 67
157 67
158 67
159 67
160 67
161 67
162 67
163 67
164 67
165 67
166 67
167 67
168 68
169 68
170 69
171 69
172 70
173 70
174 70
175 70
176 71
177 71
178 72
179 72
180 73
181 74
182 74
183 75
184 75
185 75
186 76
187 77
188 77
189 77
190 77
191 78
192 78
193 79
194 79
195 80
196 80
197 80
198 81
199 81
200 81
201 81
202 82
203 82
204 83
205 83
206 82
207 81
207 80
208 79
207 79
206 78
207 77
207 76
206 76
205 75
206 74
206 73
206 72
205 72
204 71
205 70
205 69
205 68
204 68
203 67
204 66
204 65
204 64
204 63
204 62
204 61
204 60
204 59
204 58
204 57
204 56
204 55
204 54
204 53
204 52
205 51
205 50
205 49
205 48
205 47
205 46
206 45
206 44
206 43
206 42
207 41
208 40
208 39
209 38
209 37
209 36
209 35
210 34
210 33
210 32
211 31
210 31
209 30
210 29
209 29
208 29
207 29
206 29
205 29
204 29
203 29
202 30
201 30
200 30
199 31
198 31
197 31
196 32
195 32
194 33
193 33
192 33
191 34
190 34
189 35
188 35
187 35
186 36
185 37
184 37
183 38
182 38
181 39
180 39
179 40
178 40
177 40
176 41
175 41
174 41
173 41
172 42
171 42
170 42
169 43
168 43
167 43
166 43
165 43
164 43
163 43
162 43
161 43
160 42
161 41
162 41
163 40
163 39
164 38
163 38
162 37
163 36
163 35
162 35
161 34
160 33
161 32
160 32
159 31
158 30
157 29
156 28
155 27
154 27
153 26
152 26
151 25
150 24
149 24
148 23
147 23
146 22
145 22
144 21
143 20
142 20
141 19
140 19
139 18
138 18
137 18
136 17
135 17
134 16
133 16
132 16
131 15
130 15
129 15
128 15
127 14
126 14
125 13
124 13
123 14
122 14
121 13
121 12
122 11
121 11
120 11
119 11
118 12
117 13
116 13
115 13
114 13
113 12
114 11
115 10
115 9
114 8
113 9
112 10
111 10
110 11
109 11
108 10
109 9
109 8
109 7
110 6
109 6
108 6
107 7
106 8
105 9
104 9
103 8
102 7
103 6
103 5
104 4
103 4
102 4
101 5
100 6
99 6
98 7
97 7
96 6
97 5
97 4
97 3
97 2
96 2
95 3
95 4
94 5
93 4
93 3
93 2
