82 2
81 3
80 3
79 4
78 5
77 6
77 7
77 8
76 9
75 10
75 11
74 12
73 13
73 14
72 15
72 16
72 17
71 18
70 19
70 20
69 21
68 22
67 23
66 23
65 23
64 23
63 23
62 24
61 24
60 24
59 24
58 24
57 24
56 24
55 24
54 24
53 25
52 25
51 25
50 25
49 26
48 26
47 26
46 26
45 27
44 27
43 27
42 27
41 28
40 28
39 28
38 28
37 29
36 29
35 29
34 29
33 30
32 30
31 30
30 30
29 30
28 31
27 31
26 31
25 32
24 32
23 33
22 33
21 33
20 34
19 35
18 36
17 36
16 37
15 37
14 37
13 38
12 38
11 38
10 39
9 39
8 40
7 40
6 40
5 41
4 42
3 42
3 43
3 44
2 45
2 46
2 47
2 48
3 49
3 50
4 51
4 52
4 53
4 54
5 55
6 56
6 57
6 58
6 59
7 60
7 59
8 58
8 57
9 56
10 56
11 57
12 57
13 57
14 58
15 58
16 58
17 58
18 59
19 59
20 59
21 59
22 59
23 59
24 60
25 60
26 60
27 60
28 60
29 61
30 61
31 62
32 62
33 63
34 63
35 63
36 63
37 63
38 63
39 64
40 64
41 64
42 64
43 64
44 64
45 65
46 65
47 66
47 67
48 68
49 69
50 70
50 71
51 72
52 73
53 74
54 75
55 75
56 76
57 77
58 77
59 78
59 79
60 80
61 80
62 81
63 82
64 82
65 83
66 84
67 84
67 83
67 82
66 81
65 80
64 80
63 79
62 78
61 77
60 76
59 75
58 74
57 73
56 72
57 71
57 70
56 70
55 69
54 68
53 68
52 67
53 66
54 66
55 66
56 66
57 66
58 66
59 66
60 67
61 67
62 67
63 67
64 67
65 67
66 67
67 67
68 67
69 67
70 67
71 67
72 67
73 67
74 67
75 67
76 67
77 67
78 67
79 67
80 67
81 67
82 67
83 67
84 67
85 67
86 67
87 67
88 66
89 66
90 66
91 66
92 66
93 66
94 66
95 65
96 66
97 67
97 68
98 69
99 70
100 71
101 72
102 73
102 74
103 74
104 75
105 76
106 77
107 77
108 78
109 78
110 79
111 79
112 79
113 80
114 80
115 80
116 80
117 80
118 80
119 80
120 80
121 80
122 80
123 79
124 79
125 78
126 77
127 77
128 76
129 75
130 74
131 73
132 72
132 71
133 70
134 69
135 68
136 67
137 66
137 65
138 64
138 63
137 62
138 61
137 61
136 60
135 60
134 59
135 58
136 58
137 58
138 58
139 58
140 58
141 58
142 57
143 57
144 57
145 57
146 58
147 58
148 59
149 60
150 61
151 62
151 63
152 64
153 65
154 66
155 67
156 68
157 69
158 70
159 70
160 71
161 71
162 72
163 72
164 72
165 72
166 72
167 71
168 71
169 71
170 70
171 69
172 69
173 69
174 70
175 69
175 68
174 67
175 66
175 65
176 64
177 63
177 62
178 61
178 60
178 59
178 58
178 57
178 56
178 55
178 54
177 53
178 52
179 52
180 52
181 52
182 52
183 52
184 53
185 53
186 53
187 54
188 54
189 54
190 54
191 55
192 55
193 55
194 55
195 56
196 56
197 56
198 56
199 57
200 57
201 57
202 57
203 58
204 58
205 58
206 58
207 59
208 59
209 59
210 59
211 60
212 60
213 60
214 60
215 60
216 60
217 60
218 60
219 60
220 59
221 59
222 58
222 57
223 56
223 55
223 54
224 53
224 52
224 51
224 50
224 49
224 48
225 47
225 46
225 45
225 44
225 43
225 42
225 41
225 40
224 40
223 39
224 38
224 37
223 37
222 36
223 35
223 34
222 34
221 33
222 32
222 31
221 31
220 30
219 30
218 29
217 29
216 29
215 29
214 29
213 29
212 30
211 30
210 30
209 30
208 30
207 30
206 31
205 31
204 31
203 31
202 32
201 32
200 32
199 33
198 33
197 34
196 34
195 35
194 36
193 36
192 37
191 37
190 37
189 38
188 38
187 38
186 39
185 39
184 39
183 39
182 39
181 39
180 39
179 39
178 38
178 37
178 36
179 35
179 34
179 33
179 32
179 31
179 30
178 30
177 29
178 28
178 27
178 26
178 25
178 24
177 24
176 23
175 22
176 21
175 21
174 20
173 19
172 19
171 18
170 17
169 16
168 16
167 15
166 16
165 16
164 17
163 17
162 18
161 19
160 19
159 20
158 21
157 22
156 22
156 23
155 24
154 25
153 26
153 27
152 28
151 28
150 29
149 30
148 31
147 32
146 32
145 32
144 32
143 32
142 31
141 31
140 31
139 31
138 31
137 31
136 30
137 29
137 28
137 27
137 26
137 25
137 24
138 23
137 23
136 22
137 21
136 21
135 20
136 19
135 19
134 19
133 18
132 17
131 16
132 15
131 15
130 14
129 13
128 13
127 12
126 11
125 11
124 10
123 10
122 10
121 10
120 10
119 10
118 10
117 10
116 11
115 11
114 12
113 13
112 14
111 15
110 16
110 17
109 18
108 19
107 20
107 21
106 22
105 22
105 23
104 24
103 24
102 25
101 25
100 25
99 24
98 25
97 24
96 24
95 24
94 23
95 22
96 21
96 20
97 19
97 18
97 17
97 16
97 15
97 14
97 13
97 12
96 12
95 11
96 10
95 10
94 9
95 8
94 8
93 7
94 6
93 6
92 5
91 4
90 4
89 3
88 3
87 2
86 2
85 2
84 2
83 2
