83 1
82 2
81 3
81 4
80 5
79 6
78 7
77 7
76 7
75 6
74 7
74 8
73 9
72 8
71 7
70 7
70 8
69 9
69 10
68 11
67 12
66 13
65 13
65 14
64 15
64 16
63 17
62 18
61 18
60 18
59 18
58 18
57 18
56 18
55 18
54 18
53 18
52 18
51 18
50 19
49 19
48 19
47 19
46 19
45 19
44 19
43 20
42 20
41 20
40 21
39 21
38 22
37 23
36 24
35 25
34 26
33 26
32 27
31 27
30 28
29 29
28 30
27 31
26 31
25 32
24 32
23 32
22 32
21 33
20 34
19 34
18 35
17 36
16 37
15 37
14 38
13 39
12 40
11 41
10 42
9 43
8 44
7 45
6 46
5 46
5 47
4 48
3 48
2 49
2 50
2 51
2 52
2 53
3 54
4 55
5 56
6 56
7 56
8 57
9 57
10 58
11 58
12 59
13 59
14 60
15 60
16 60
17 61
18 61
19 62
20 62
21 62
22 63
23 63
24 64
25 64
26 65
27 65
28 65
29 66
30 67
31 67
32 67
33 68
34 68
35 68
36 68
37 69
38 69
39 70
40 70
41 70
42 70
43 70
44 71
45 71
46 71
47 72
48 72
49 72
50 72
51 73
52 73
53 73
54 73
55 73
56 74
57 75
58 76
58 77
59 78
60 78
61 79
61 80
62 81
62 82
63 83
63 84
64 85
64 86
65 87
65 88
66 89
66 90
67 91
68 92
69 93
69 92
70 91
71 91
72 91
73 91
74 91
75 92
76 92
77 92
78 92
79 91
80 90
80 89
81 88
81 87
81 86
82 85
82 84
82 83
81 83
80 82
81 81
81 80
80 80
79 79
80 78
81 78
82 78
83 78
84 78
85 79
86 79
87 79
88 79
89 78
90 78
91 78
92 78
93 78
94 78
95 78
96 78
97 78
98 78
99 78
100 77
101 77
102 77
103 77
104 77
105 77
106 77
107 76
108 76
109 77
110 78
111 79
111 80
112 81
113 81
114 82
115 82
116 82
117 83
118 83
119 84
120 85
121 85
121 84
122 83
123 84
124 85
125 86
126 86
127 86
128 87
129 87
130 88
131 88
132 88
133 88
134 89
135 89
136 89
137 89
138 89
139 88
140 88
141 88
142 88
143 88
144 87
145 86
146 86
147 85
148 84
149 84
149 83
150 82
150 81
151 80
151 79
151 78
151 77
151 76
151 75
151 74
150 74
149 73
150 72
149 72
148 72
147 72
146 71
147 70
148 69
149 69
150 69
151 70
152 70
153 71
154 71
155 72
156 72
157 73
158 73
159 73
160 74
161 75
162 76
163 76
164 77
165 78
166 78
167 78
168 79
169 80
170 80
171 81
172 81
173 82
174 82
175 82
176 82
177 82
178 82
179 81
180 81
180 80
181 79
182 78
183 77
184 76
185 75
185 74
186 73
186 72
187 71
187 70
188 69
188 68
188 67
189 66
189 65
189 64
189 63
190 62
190 61
190 60
190 59
190 58
190 57
191 56
191 55
191 54
191 53
190 53
189 52
190 51
190 50
190 49
190 48
190 47
189 47
188 46
189 45
189 44
188 44
187 43
188 42
187 42
186 41
187 40
186 40
185 39
184 38
183 37
182 37
181 37
180 37
179 37
178 37
177 37
176 37
175 37
174 38
173 38
172 38
171 39
170 39
169 39
168 40
167 40
166 40
165 40
164 40
163 41
162 41
161 42
160 42
159 43
158 43
157 43
156 44
155 44
154 44
153 45
152 45
151 45
150 44
149 44
148 44
147 44
146 44
145 44
144 44
143 44
142 43
143 42
144 42
145 42
146 42
147 42
148 42
149 42
150 41
151 41
152 40
153 39
154 38
154 37
155 36
155 35
156 34
156 33
156 32
156 31
156 30
156 29
156 28
155 28
154 27
155 26
155 25
154 25
153 24
152 23
153 22
152 22
151 21
152 20
151 20
150 19
149 19
148 18
147 18
146 17
145 17
144 16
143 15
142 15
141 14
140 13
139 13
138 13
137 12
136 12
135 12
134 12
133 11
132 11
131 11
130 10
129 10
128 10
127 10
126 10
125 10
124 10
123 10
122 11
121 11
120 12
119 12
118 13
117 13
116 13
115 14
114 14
113 15
112 15
111 15
110 14
111 13
110 13
109 13
108 14
107 14
106 13
107 12
107 11
106 11
105 12
104 12
103 13
102 13
101 12
102 11
102 10
102 9
101 9
100 10
99 10
98 9
99 8
99 7
99 6
98 6
97 6
96 7
95 7
94 7
93 6
93 5
94 4
93 4
92 4
92 5
91 6
90 6
89 7
88 7
87 6
88 5
88 4
88 3
87 3
86 4
85 5
84 6
83 7
82 7
81 6
82 5
82 4
83 3
83 2
84 1
