63 2
62 3
61 3
61 4
60 5
59 6
59 7
58 8
57 9
56 10
56 11
55 12
54 13
54 14
53 15
52 15
51 15
50 15
49 15
48 15
47 15
46 15
45 15
44 15
43 15
42 15
41 15
40 15
39 15
38 15
37 15
36 15
35 15
34 15
33 15
32 14
31 15
30 15
29 15
28 15
27 15
26 15
25 15
24 15
23 15
22 15
21 15
20 15
19 15
18 16
17 16
16 16
15 16
14 16
13 16
12 16
11 16
10 16
9 16
8 17
7 17
6 17
5 17
4 18
3 19
3 20
2 21
2 22
2 23
3 24
3 25
4 26
4 27
5 28
6 28
7 27
8 27
9 28
10 28
11 28
12 28
13 29
14 29
15 29
16 30
17 30
18 30
19 30
20 31
21 31
22 31
23 32
24 32
25 33
26 33
27 33
28 33
29 33
30 34
31 34
32 34
33 34
34 34
35 34
36 34
37 35
38 35
39 36
40 37
41 37
42 38
43 39
44 39
45 40
46 40
47 41
48 41
49 41
50 42
51 42
52 43
53 43
54 43
54 42
54 41
53 41
52 40
51 40
50 39
49 39
48 39
47 38
46 38
45 37
44 37
43 36
44 35
45 35
46 35
47 35
48 35
49 35
50 35
51 35
52 35
53 35
54 35
55 35
56 35
57 35
58 35
59 35
60 35
61 35
62 35
63 35
64 35
65 35
66 35
67 35
68 35
69 35
70 34
71 34
72 34
73 34
74 35
75 35
76 34
77 34
78 34
79 35
80 35
81 35
82 35
83 35
84 35
85 35
86 35
87 36
88 37
89 38
90 39
91 39
92 39
93 40
94 40
95 40
96 40
97 40
98 40
99 40
100 40
101 40
102 40
103 40
104 40
105 40
106 40
107 40
108 40
109 40
110 40
111 40
112 40
113 40
114 40
115 40
116 40
117 40
118 40
119 40
120 40
121 40
122 40
123 40
124 40
125 40
126 40
127 40
128 40
129 40
130 40
131 40
132 40
133 40
134 40
135 40
136 40
137 40
138 40
139 40
140 40
141 40
142 40
143 40
144 40
145 40
146 40
147 40
148 40
149 40
150 40
151 40
152 40
153 41
154 41
155 41
156 41
157 41
158 41
159 41
160 42
161 42
162 42
163 42
164 42
165 42
166 41
167 41
168 41
169 40
169 39
170 38
170 37
170 36
170 35
169 35
168 34
169 33
168 33
167 32
166 31
167 30
168 30
169 30
170 31
171 32
172 32
173 33
174 33
175 33
176 34
177 35
178 34
179 35
180 35
181 35
182 35
183 35
184 36
185 36
186 36
187 36
188 37
189 37
190 37
191 37
192 36
193 35
194 34
194 33
195 32
195 31
195 30
196 29
196 28
196 27
196 26
196 25
196 24
196 23
196 22
196 21
195 21
194 20
193 19
192 19
191 18
190 18
189 18
188 18
187 18
186 18
185 18
184 18
183 19
182 19
181 19
180 19
179 19
178 19
177 20
176 20
175 20
174 20
173 21
172 21
171 20
171 19
172 18
172 17
172 16
171 16
170 15
169 14
170 13
169 13
168 13
167 12
166 12
165 12
164 12
163 12
162 12
161 12
160 12
159 12
158 12
157 12
156 12
155 13
154 13
153 12
152 13
151 14
150 14
149 14
148 15
147 15
146 15
145 14
144 14
143 14
142 13
141 13
140 13
139 13
138 12
137 12
136 12
135 12
134 12
133 12
132 12
131 11
130 11
129 11
128 11
127 11
126 11
125 11
124 11
123 11
122 11
121 11
120 10
119 10
118 10
117 10
116 10
115 10
114 10
113 10
112 10
111 10
110 10
109 10
108 10
107 10
106 10
105 10
104 9
103 9
102 9
101 9
100 9
99 9
98 9
97 9
96 9
95 9
94 9
93 9
92 9
91 9
90 9
89 9
88 9
87 9
86 9
85 9
84 9
83 9
82 9
81 9
80 9
79 9
78 9
77 9
76 9
75 10
74 10
73 11
72 12
71 13
70 12
69 11
68 10
69 9
68 9
67 8
66 7
67 6
66 6
65 5
66 4
66 3
66 2
65 2
64 2
