74 1
73 2
73 3
72 4
71 4
70 5
70 6
69 7
68 8
68 9
67 10
66 11
66 12
65 13
65 14
64 15
64 16
63 17
62 17
61 16
60 16
60 17
59 18
59 19
59 20
59 21
58 22
57 22
56 23
55 23
54 23
53 23
52 24
51 24
50 24
49 24
48 25
47 25
46 25
45 26
44 26
43 26
42 27
41 27
40 27
39 28
38 29
37 29
36 29
35 30
34 30
33 31
32 31
31 32
30 33
29 33
28 34
27 34
26 35
25 35
24 36
23 37
22 38
21 39
20 40
19 41
18 41
17 41
16 42
15 42
14 43
13 44
12 45
11 45
11 46
10 47
9 47
8 48
7 49
7 50
7 51
7 52
8 53
9 54
10 55
11 56
12 57
13 58
14 58
15 59
15 60
16 61
15 62
14 62
13 61
12 61
11 60
10 60
9 60
8 60
7 60
6 60
5 59
4 59
3 59
2 60
2 61
2 62
2 63
3 64
4 65
5 66
6 66
7 67
8 67
9 67
10 68
11 68
12 68
13 69
14 69
15 70
16 70
17 70
18 70
19 71
20 71
21 71
22 72
23 72
24 72
25 72
26 72
27 73
28 73
29 73
30 73
31 73
32 74
33 74
34 74
35 75
36 75
37 75
38 75
39 75
40 75
41 76
42 76
43 76
44 76
45 76
46 76
47 77
48 77
49 77
50 78
51 78
52 78
53 78
54 78
55 79
56 80
56 81
57 82
57 83
58 84
58 85
58 86
59 87
59 88
59 89
59 90
60 91
60 92
61 93
61 94
62 95
63 95
64 95
65 96
65 97
66 98
67 99
68 100
69 101
70 102
71 102
72 102
73 103
74 103
75 102
76 101
76 100
77 99
77 98
78 97
78 96
78 95
79 94
79 93
79 92
79 91
79 90
78 90
77 89
78 88
77 88
76 87
75 86
74 85
73 84
72 84
71 83
70 83
69 82
68 82
67 81
68 80
69 80
70 80
71 80
72 80
73 80
74 80
75 80
76 80
77 80
78 80
79 80
80 80
81 80
82 80
83 80
84 80
85 80
86 80
87 80
88 80
89 80
90 80
91 80
92 80
93 80
94 80
95 80
96 80
97 80
98 80
99 80
100 80
101 80
102 80
103 80
104 80
105 80
106 80
107 80
108 80
109 81
109 82
110 83
111 83
112 82
113 83
113 84
114 85
114 86
115 87
115 88
116 88
117 88
117 87
118 86
119 85
120 86
121 87
122 87
123 88
124 88
125 88
126 89
127 89
128 90
129 89
130 89
131 89
132 89
133 89
134 89
135 89
136 88
137 88
138 88
139 87
140 86
140 85
141 84
142 83
143 82
143 81
144 80
144 79
145 78
145 77
145 76
145 75
145 74
144 74
143 73
142 72
141 72
140 71
139 71
138 70
137 70
136 69
137 68
138 67
139 67
140 67
141 67
142 67
143 67
144 67
145 67
146 67
147 67
148 68
149 68
150 68
151 68
152 68
153 68
154 69
155 69
156 70
157 70
158 71
159 71
160 71
161 72
162 72
163 72
164 73
165 73
166 73
167 73
168 74
169 74
170 74
171 75
172 75
173 75
174 75
175 75
176 76
177 76
178 76
179 76
180 77
181 77
182 77
183 78
184 78
185 78
186 77
187 77
188 76
189 75
189 74
190 73
190 72
190 71
191 70
191 69
191 68
191 67
191 66
191 65
191 64
192 63
192 62
192 61
192 60
192 59
192 58
192 57
192 56
192 55
192 54
192 53
192 52
192 51
192 50
192 49
192 48
192 47
192 46
192 45
191 45
190 44
191 43
191 42
191 41
190 41
189 40
188 40
187 40
186 40
185 39
184 39
183 39
182 39
181 39
180 39
179 40
178 40
177 40
176 40
175 40
174 40
173 40
172 41
171 41
170 42
169 42
168 42
167 42
166 43
165 43
164 43
163 44
162 44
161 45
160 45
159 45
158 45
157 46
156 46
155 46
154 46
153 47
152 47
151 47
150 47
149 47
148 47
147 47
146 47
145 46
145 45
146 44
147 44
148 44
149 43
150 42
151 41
151 40
152 39
152 38
152 37
151 37
150 36
149 35
150 34
149 34
148 33
147 32
148 31
147 31
146 30
145 30
144 29
143 28
142 27
141 27
140 26
139 26
138 25
137 25
136 24
135 24
134 23
133 23
132 22
131 22
130 22
129 22
128 22
127 21
126 21
125 21
124 21
123 22
122 22
121 22
120 23
119 22
118 22
117 22
116 22
115 22
114 22
113 21
114 20
113 20
112 21
111 21
110 21
109 20
108 20
107 20
106 20
105 20
104 19
105 18
104 18
103 18
102 19
101 19
100 18
100 17
99 17
98 17
97 17
96 17
95 18
94 19
93 19
92 18
93 17
93 16
93 15
93 14
92 14
91 15
90 16
89 16
88 17
87 17
86 17
85 16
86 15
86 14
86 13
87 12
87 11
86 11
85 12
84 12
84 13
83 14
82 14
81 14
80 14
79 13
80 12
80 11
79 10
80 9
80 8
81 7
82 6
82 5
81 5
80 5
79 6
78 7
77 8
76 9
75 10
74 10
73 9
72 8
73 7
73 6
73 5
74 4
74 3
74 2
75 1
