84 2
83 3
82 3
81 3
80 3
79 3
78 3
77 4
76 4
75 4
74 4
73 4
72 4
71 4
70 4
69 4
68 4
67 4
66 4
65 4
64 4
63 4
62 4
61 4
60 4
59 4
58 4
57 4
56 4
55 4
54 5
53 5
52 5
51 5
50 6
49 6
48 6
47 6
46 6
45 6
44 6
43 6
42 6
41 6
40 7
39 7
38 7
37 7
36 7
35 7
34 7
33 7
32 7
31 8
30 8
29 8
28 8
27 8
26 8
25 8
24 9
23 9
22 9
21 9
20 10
19 10
18 11
17 11
16 12
16 13
15 14
14 14
13 15
12 16
11 17
10 17
9 18
8 18
7 19
6 19
5 19
4 20
3 21
2 22
2 23
2 24
2 25
2 26
2 27
3 28
3 29
4 29
5 30
6 30
7 31
8 31
9 31
10 32
11 32
12 33
13 33
14 33
15 33
16 34
17 34
18 35
19 35
20 35
21 36
22 36
23 37
23 38
24 39
25 39
26 39
27 39
28 40
29 41
30 41
31 41
32 41
33 42
34 42
35 42
36 43
37 43
38 43
39 43
40 43
41 43
42 44
43 44
44 44
45 44
46 44
47 44
48 44
49 44
50 44
51 44
52 44
53 44
54 44
55 43
56 43
57 42
58 41
59 41
60 40
61 41
62 41
63 41
64 41
65 41
66 41
67 41
68 41
69 41
70 40
71 40
72 40
73 41
74 41
75 41
76 41
77 41
78 41
79 41
80 41
81 40
82 40
83 40
84 41
85 41
86 41
87 41
88 41
89 41
90 40
91 40
92 40
93 40
94 40
95 40
96 40
97 40
98 40
99 40
100 40
101 40
102 40
103 40
104 40
105 40
106 40
107 41
108 41
109 41
110 41
111 41
112 41
113 41
114 41
115 41
116 41
117 41
118 41
119 41
120 41
121 41
122 40
123 39
124 40
125 40
126 40
127 40
128 40
129 40
130 41
131 41
132 41
133 41
134 41
135 40
136 40
137 40
138 40
139 40
140 40
141 40
142 40
143 40
144 40
145 39
146 39
147 39
148 39
149 39
150 39
151 39
152 39
153 39
154 39
155 39
156 39
157 38
158 37
159 38
160 38
161 38
162 38
163 38
164 38
165 38
166 38
167 38
168 38
169 38
170 38
171 38
172 38
173 38
174 38
175 38
176 38
177 38
178 38
179 38
180 38
181 37
182 37
183 37
184 37
185 37
186 37
187 38
188 38
189 38
190 38
191 38
192 39
193 39
194 39
195 39
196 40
197 40
198 40
199 40
200 41
201 41
202 41
203 41
204 42
205 42
206 43
207 43
208 43
209 44
210 44
211 45
212 46
213 46
214 47
215 48
216 48
217 49
218 50
219 51
220 52
221 53
222 53
223 54
223 55
224 55
225 56
226 57
226 58
227 59
228 59
229 60
229 61
230 62
231 63
232 64
232 65
232 66
233 67
234 68
235 69
235 70
235 71
236 72
236 73
237 74
238 75
238 76
238 77
239 78
239 79
239 80
240 81
240 82
240 83
240 84
240 85
241 86
242 87
242 88
242 89
243 90
243 91
243 92
243 93
243 94
243 95
244 96
244 97
244 98
245 99
245 100
246 101
246 102
246 103
246 104
246 105
246 106
247 107
247 108
248 109
248 110
248 111
249 112
249 113
249 114
249 115
249 116
250 117
250 118
251 119
252 120
253 121
254 121
255 122
256 122
257 122
258 121
259 121
260 121
261 120
262 119
263 118
263 117
264 116
265 115
265 114
266 113
266 112
266 111
266 110
266 109
266 108
266 107
266 106
265 106
264 105
265 104
265 103
265 102
265 101
265 100
265 99
265 98
265 97
265 96
265 95
264 95
263 94
264 93
264 92
264 91
264 90
264 89
264 88
264 87
264 86
264 85
264 84
263 84
262 83
263 82
263 81
263 80
263 79
263 78
263 77
262 77
261 76
262 75
262 74
261 74
260 73
261 72
261 71
260 71
259 70
260 69
260 68
260 67
259 67
258 66
259 65
258 65
257 64
258 63
258 62
257 62
256 61
257 60
257 59
256 59
255 58
256 57
255 57
254 56
255 55
254 55
253 54
254 53
253 53
252 52
253 51
252 51
251 50
250 49
251 48
250 48
249 47
248 46
249 45
248 45
247 44
248 43
247 43
246 42
245 41
244 40
245 39
244 39
243 38
242 38
241 37
242 36
242 35
241 35
240 34
239 33
238 32
237 32
236 31
237 30
236 30
235 29
234 28
233 27
232 26
231 25
230 24
229 23
228 23
227 23
226 22
225 21
224 20
223 19
222 19
221 18
220 18
219 17
218 16
217 16
216 15
215 15
214 15
213 14
212 13
211 13
210 12
209 12
208 12
207 11
206 11
205 11
204 10
203 10
202 10
201 9
200 9
199 9
198 9
197 8
196 8
195 8
194 8
193 7
192 7
191 7
190 7
189 7
188 6
187 6
186 6
185 5
184 5
183 5
182 5
181 5
180 4
179 4
178 4
177 4
176 4
175 4
174 4
173 4
172 4
171 4
170 4
169 4
168 4
167 4
166 4
165 4
164 4
163 4
162 4
161 4
160 4
159 4
158 4
157 4
156 4
155 4
154 4
153 4
152 4
151 4
150 4
149 4
148 4
147 4
146 4
145 4
144 4
143 4
142 4
141 4
140 4
139 4
138 4
137 4
136 4
135 4
134 4
133 4
132 4
131 3
130 3
129 3
128 3
127 3
126 3
125 3
124 3
123 3
122 3
121 3
120 3
119 3
118 3
117 3
116 3
115 3
114 3
113 3
112 2
111 2
110 2
109 2
108 2
107 2
106 2
105 2
104 2
103 2
102 2
101 2
100 2
99 2
98 2
97 2
96 2
95 2
94 2
93 2
92 2
91 2
90 2
89 2
88 2
87 2
86 2
85 2
