97 2
96 3
96 4
95 5
94 6
93 6
92 5
93 4
93 3
92 3
91 4
91 5
90 6
89 7
88 7
87 8
86 7
85 6
86 5
86 4
87 3
86 3
85 3
85 4
84 5
84 6
83 7
82 7
81 8
80 8
79 9
78 8
77 7
78 6
78 5
78 4
77 4
76 5
76 6
75 7
75 8
74 9
73 10
73 11
72 12
71 12
70 11
71 10
70 10
69 11
69 12
69 13
69 14
68 15
67 14
66 13
65 13
65 14
65 15
65 16
65 17
65 18
65 19
65 20
65 21
65 22
65 23
64 24
63 24
62 24
61 25
60 25
59 25
58 26
57 26
56 26
55 26
54 27
53 27
52 27
51 28
50 28
49 29
48 29
47 29
46 30
45 30
44 30
43 31
42 31
41 31
40 32
39 32
38 33
37 33
36 33
35 34
34 34
33 34
32 35
31 35
30 35
29 36
28 36
27 36
26 36
25 37
24 37
23 38
22 38
21 38
20 39
19 40
18 41
17 42
16 43
15 43
14 44
13 45
12 46
11 47
10 47
9 48
9 49
8 50
7 51
6 52
6 53
5 54
4 54
3 55
3 56
2 57
2 58
2 59
2 60
2 61
2 62
2 63
3 64
4 65
5 66
6 66
7 67
8 67
9 68
10 68
11 68
12 68
13 69
14 69
15 69
16 70
17 70
18 71
19 71
20 71
21 72
22 72
23 72
24 72
25 72
26 73
27 73
28 73
29 74
30 74
31 74
32 74
33 74
34 74
35 75
36 75
37 75
38 75
39 75
40 76
41 76
42 76
43 77
44 77
45 77
46 77
47 77
48 78
49 78
50 78
51 78
52 78
53 79
54 79
55 79
56 79
57 79
58 79
59 79
60 79
61 79
62 79
63 79
64 79
65 80
66 80
67 80
68 80
69 80
70 81
70 82
70 83
70 84
70 85
70 86
70 87
70 88
71 89
71 90
71 91
71 92
71 93
71 94
71 95
71 96
71 97
71 98
71 99
72 98
72 97
73 96
74 96
75 97
76 98
76 99
77 100
77 101
78 102
79 103
80 104
81 104
82 104
83 104
83 103
84 102
84 101
85 100
85 99
84 99
83 98
84 97
84 96
84 95
84 94
84 93
84 92
84 91
83 91
82 90
83 89
83 88
83 87
82 87
81 86
82 85
82 84
81 84
80 83
81 82
82 82
83 82
84 82
85 82
86 82
87 82
88 82
89 82
90 82
91 83
92 83
93 83
94 83
95 83
96 83
97 83
98 83
99 83
100 83
101 83
102 83
103 83
104 83
105 83
106 83
107 82
108 82
109 82
110 82
111 82
112 82
113 82
114 82
115 82
116 82
117 81
118 81
119 81
120 82
121 83
121 84
120 85
120 86
120 87
121 87
122 86
123 85
124 84
125 85
126 85
127 86
128 87
129 88
130 89
131 90
131 91
132 91
133 92
134 92
135 93
135 92
136 91
135 90
134 90
133 89
132 88
131 87
132 86
133 86
134 86
135 87
136 87
137 88
138 89
139 90
140 90
140 89
141 88
142 88
143 88
144 88
145 88
146 88
147 88
148 88
149 88
150 88
151 88
152 88
153 88
154 88
155 88
156 87
157 87
158 86
159 86
160 85
161 84
162 83
163 82
164 81
165 80
166 80
167 79
167 78
168 77
168 76
169 75
169 74
169 73
169 72
168 72
167 71
166 70
165 70
164 69
164 68
165 67
166 67
167 67
168 67
169 67
170 67
171 67
172 67
173 68
174 68
175 68
176 68
177 68
178 68
179 68
180 68
181 68
182 68
183 68
184 68
185 68
186 69
187 69
188 69
189 69
190 69
191 69
192 69
193 69
194 70
195 70
196 70
197 70
198 71
199 71
200 71
201 71
202 72
203 72
204 72
205 72
206 72
207 72
208 72
209 71
209 70
210 69
210 68
210 67
210 66
211 65
211 64
211 63
211 62
211 61
211 60
212 59
212 58
212 57
212 56
212 55
212 54
212 53
212 52
212 51
212 50
212 49
212 48
212 47
212 46
211 46
210 45
211 44
211 43
211 42
210 42
209 41
210 40
210 39
210 38
210 37
209 37
208 36
209 35
209 34
209 33
209 32
209 31
209 30
208 30
207 29
206 29
205 29
204 29
203 29
202 30
201 30
200 30
199 30
198 31
197 31
196 32
195 32
194 32
193 33
192 33
191 33
190 34
189 34
188 35
187 35
186 36
185 36
184 37
183 37
182 37
181 37
180 38
179 38
178 39
177 39
176 40
175 40
174 40
173 41
172 41
171 41
170 41
169 41
168 41
167 41
166 41
165 41
164 41
163 41
162 41
161 40
162 39
163 39
164 38
165 38
165 37
166 36
167 35
167 34
166 33
167 32
166 32
165 31
164 30
165 29
165 28
164 28
163 27
164 26
163 26
162 25
163 24
162 24
161 23
160 22
161 21
160 21
159 20
160 19
159 19
158 18
157 17
156 16
155 16
154 15
153 14
152 13
151 13
150 12
149 12
148 12
147 12
146 11
145 11
144 10
143 10
142 10
141 9
140 9
139 9
138 9
137 9
136 9
135 9
134 9
133 9
132 9
131 9
130 9
129 9
128 9
127 10
126 10
125 11
124 12
123 12
122 12
121 12
120 11
121 10
121 9
122 8
121 8
120 8
119 9
118 10
117 11
116 11
115 11
114 10
114 9
114 8
115 7
115 6
114 6
113 6
112 7
112 8
111 9
110 9
109 9
108 8
109 7
109 6
109 5
110 4
109 4
108 4
108 5
107 6
106 7
105 7
104 7
103 6
104 5
104 4
105 3
104 3
103 3
102 4
101 5
100 6
99 6
98 5
98 4
99 3
99 2
98 2
