79 2
78 3
78 4
77 5
76 5
75 5
74 4
73 3
72 4
71 5
70 6
69 5
68 4
67 5
67 6
66 7
65 6
64 6
63 7
63 8
63 9
62 10
61 9
60 8
59 8
58 9
58 10
58 11
57 12
56 11
55 11
54 11
54 12
53 13
52 14
51 15
50 14
49 14
48 15
48 16
48 17
48 18
47 19
46 19
45 19
44 20
43 20
42 20
41 20
40 20
39 21
38 21
37 21
36 22
35 22
34 22
33 22
32 22
31 23
30 23
29 23
28 23
27 24
26 24
25 25
24 25
23 25
22 26
21 26
20 26
19 27
18 27
17 27
16 28
15 29
14 29
13 30
12 30
11 31
10 31
9 32
8 33
7 33
6 33
5 34
4 34
3 35
3 36
3 37
3 38
4 39
3 40
2 41
2 42
3 43
4 44
5 44
6 45
7 45
8 45
9 45
10 46
11 46
12 47
13 47
14 48
15 48
16 49
17 50
18 50
19 51
20 51
21 51
22 52
23 53
24 53
25 53
26 53
27 53
28 54
29 54
30 55
31 55
32 55
33 55
34 56
35 56
36 56
37 57
38 57
39 57
40 57
41 57
42 57
43 58
44 58
45 58
46 58
47 58
48 59
49 59
50 59
51 59
52 60
53 60
54 61
55 61
56 62
57 62
58 62
59 63
60 63
61 64
62 64
63 65
64 65
65 66
66 66
67 67
68 67
69 67
70 68
71 68
72 68
73 68
74 67
75 66
76 66
77 65
77 64
78 63
79 62
80 63
81 62
82 63
83 63
84 63
85 62
86 63
87 63
88 63
89 62
90 62
91 62
92 62
93 62
94 62
95 62
96 62
97 62
98 62
99 62
100 62
101 62
102 62
103 62
104 62
105 62
106 62
107 62
108 62
109 61
110 62
111 62
112 62
113 63
114 63
115 63
116 64
117 64
118 65
119 65
120 65
121 65
122 64
123 64
124 64
125 64
126 64
127 65
128 64
129 64
130 64
131 65
132 65
133 65
134 65
135 65
136 66
137 65
138 65
139 65
140 65
141 65
142 65
143 65
144 64
145 64
146 64
147 64
148 64
149 64
150 63
151 63
152 63
153 62
154 61
155 61
156 60
157 60
157 59
158 58
158 57
159 56
159 55
160 54
161 54
162 54
163 54
164 54
165 54
166 55
167 55
168 55
169 56
170 56
171 57
172 57
173 57
174 58
175 58
176 58
177 59
178 59
179 59
180 59
181 60
182 60
183 60
184 60
185 61
186 61
187 61
188 61
189 61
190 61
191 61
192 61
193 61
194 61
194 60
195 59
195 58
195 57
194 57
193 56
194 55
193 55
192 54
193 53
192 53
191 52
192 51
192 50
191 50
190 49
191 48
191 47
191 46
191 45
191 44
191 43
191 42
191 41
192 40
192 39
193 38
193 37
194 36
194 35
195 34
195 33
196 32
196 31
195 31
194 30
193 30
192 30
191 30
190 31
189 31
188 31
187 31
186 32
185 32
184 32
183 33
182 33
181 33
180 33
179 34
178 34
177 34
176 35
175 35
174 36
173 36
172 36
171 37
170 37
169 37
168 38
167 38
166 38
165 39
164 39
163 39
162 39
161 39
160 39
159 39
158 38
157 38
156 38
155 38
154 38
153 37
152 37
151 37
150 37
149 36
148 36
147 36
146 35
145 35
144 35
143 35
142 34
141 34
140 33
139 33
138 33
137 32
138 31
139 30
140 30
141 30
142 30
143 29
143 28
144 27
144 26
144 25
144 24
143 24
142 23
143 22
142 22
141 21
140 20
139 19
138 18
137 17
136 17
135 16
134 15
133 15
132 14
131 14
130 13
129 13
128 13
127 13
126 12
125 12
124 11
123 11
122 10
121 10
120 10
119 10
118 10
117 9
116 9
115 9
114 9
113 9
112 8
111 8
110 8
109 8
108 7
107 7
106 7
105 7
104 6
103 6
102 5
101 5
100 4
101 3
100 3
99 2
98 3
97 4
96 4
95 3
96 2
95 2
94 2
93 2
92 3
91 4
90 3
89 2
88 2
88 3
87 4
86 3
85 3
84 2
83 2
83 3
82 4
81 4
80 3
