52 2
51 3
50 3
49 4
48 5
47 6
46 7
45 7
45 8
44 9
43 9
42 9
41 10
40 11
39 12
38 12
37 12
36 12
35 12
34 12
33 12
32 13
31 13
30 13
29 13
28 13
27 14
26 14
25 14
24 14
23 15
22 15
21 15
20 16
19 16
18 16
17 17
16 17
15 17
14 18
13 18
12 19
11 19
10 20
9 20
8 21
7 22
6 22
5 23
4 24
3 24
3 25
2 26
2 27
2 28
2 29
2 30
3 30
4 31
5 32
6 33
7 33
8 34
9 34
10 35
11 36
12 36
13 37
14 37
15 37
16 37
17 38
18 38
19 38
20 39
21 39
22 39
23 39
24 39
25 39
26 40
27 40
28 40
29 40
30 40
31 40
32 40
33 41
34 41
35 41
36 41
37 42
38 42
39 43
40 44
40 45
41 45
42 46
43 47
44 47
45 46
45 45
46 44
46 43
47 42
48 41
49 41
50 42
51 42
52 42
53 42
54 42
55 42
56 42
57 42
58 42
59 43
60 44
61 45
62 46
62 45
63 44
64 45
65 44
65 43
64 42
65 41
66 41
67 42
68 43
68 44
69 45
70 46
71 46
72 47
73 48
74 49
75 48
76 48
77 47
78 46
79 46
80 45
81 45
82 45
83 44
84 44
85 43
86 43
87 43
88 42
89 42
90 42
91 41
92 41
93 41
94 41
95 40
96 40
97 40
98 39
99 39
100 39
101 38
102 38
103 38
104 37
105 37
106 37
107 36
108 36
109 35
110 35
111 34
111 33
112 32
113 32
114 32
115 32
116 33
117 34
118 34
119 35
120 35
121 36
122 37
123 37
124 38
125 38
126 39
127 39
128 40
129 40
130 41
131 41
132 41
133 41
134 41
134 40
134 39
134 38
133 38
132 37
131 36
130 35
131 34
130 34
129 33
128 32
129 31
128 31
127 30
128 29
127 29
126 28
127 27
127 26
128 25
128 24
129 23
130 22
131 21
132 20
133 19
134 18
134 17
135 16
135 15
134 15
133 15
132 15
131 15
130 16
129 16
128 16
127 17
126 17
125 18
124 18
123 19
122 19
121 20
120 20
119 21
118 21
117 22
116 23
115 23
114 24
113 24
112 23
113 22
112 22
111 21
110 21
109 20
108 19
107 19
106 19
105 18
104 18
103 17
102 17
101 16
100 16
99 15
98 15
97 15
96 14
95 14
94 13
93 13
92 12
91 12
90 12
89 11
88 11
87 11
86 10
85 10
84 10
83 9
82 9
81 9
80 8
79 8
78 8
77 7
76 7
75 7
74 6
73 6
72 5
71 5
70 6
69 6
68 7
67 8
66 9
65 9
64 10
63 10
62 10
61 11
60 12
59 12
58 11
59 10
59 9
58 9
57 8
58 7
58 6
58 5
58 4
57 3
56 2
55 2
54 2
53 2
