78 1
77 2
76 2
76 3
75 4
74 4
73 5
72 6
71 7
70 8
69 9
68 10
67 11
66 12
65 13
64 14
63 15
62 16
61 17
60 18
59 18
58 18
57 18
56 18
55 18
54 17
53 17
52 16
52 15
51 15
50 14
49 13
50 12
49 12
48 11
49 10
48 10
47 11
46 12
46 13
45 14
44 15
43 16
43 17
42 18
41 19
40 19
39 19
38 19
37 20
36 20
35 20
34 20
33 20
32 20
31 21
30 21
29 21
28 21
27 22
26 22
25 22
24 22
23 23
22 23
21 23
20 24
19 24
18 25
17 26
16 26
15 27
14 28
13 28
12 29
11 30
10 31
9 32
8 33
7 34
6 35
5 36
5 37
4 38
4 39
3 40
3 41
2 42
2 43
2 44
2 45
3 46
4 47
4 48
5 47
6 48
7 49
8 49
9 50
10 50
11 51
12 51
13 51
14 52
15 52
16 52
17 53
18 53
19 53
20 53
21 54
22 54
23 54
24 54
25 55
26 55
27 55
28 55
29 55
30 56
30 57
31 58
31 59
32 60
32 61
32 62
33 63
34 64
34 65
35 66
36 67
36 68
37 67
37 66
38 65
38 64
38 63
39 62
39 61
39 60
39 59
38 59
37 58
38 57
39 56
40 56
41 56
42 56
43 56
44 56
45 56
46 57
47 57
48 57
49 57
50 57
51 58
52 59
53 59
54 59
55 59
56 59
57 59
58 59
59 60
60 61
61 61
62 62
63 63
64 64
65 65
66 65
67 66
68 67
69 67
70 68
71 69
72 69
73 70
74 70
75 70
76 71
77 71
78 71
79 72
80 72
81 72
81 71
81 70
80 70
79 69
78 69
77 69
76 68
77 67
76 67
75 67
74 66
73 65
74 64
73 64
72 63
73 62
73 61
74 60
75 59
76 58
77 57
78 56
79 56
80 55
81 54
82 54
83 53
84 52
85 51
86 51
86 50
87 49
88 49
89 48
90 47
91 47
92 46
93 46
94 45
95 45
96 45
96 44
97 43
98 43
99 43
100 44
101 44
102 45
103 46
104 47
105 48
106 48
107 49
108 50
109 51
110 52
111 52
112 53
113 54
114 54
115 55
115 56
116 56
117 57
118 58
119 59
120 59
121 60
121 61
122 61
123 62
124 62
125 63
126 63
126 62
127 61
127 60
126 60
125 59
124 58
123 57
122 56
121 55
120 54
121 53
120 53
119 52
118 51
117 50
118 49
117 49
116 48
115 47
116 46
115 46
114 45
113 44
114 43
113 43
112 42
111 41
112 40
112 39
113 38
114 37
114 36
115 35
116 34
117 33
118 32
119 31
120 30
121 29
122 28
123 27
124 26
125 25
126 24
127 23
128 23
129 22
130 21
130 20
131 19
130 19
129 19
128 19
127 20
126 20
125 20
124 21
123 22
122 22
121 22
120 23
119 24
118 24
117 25
116 26
115 26
114 27
113 28
112 28
111 29
110 30
109 31
108 31
107 32
106 32
105 33
104 34
103 34
102 35
101 35
100 36
99 36
98 37
97 37
96 36
96 35
95 34
94 34
93 33
92 32
91 31
90 31
89 30
88 29
87 29
86 28
85 27
84 27
83 26
82 25
81 24
80 24
79 23
78 22
77 22
76 21
77 20
76 20
75 19
74 18
73 17
72 16
71 15
72 14
72 13
72 12
72 11
72 10
73 9
74 8
74 7
75 6
76 5
76 4
77 3
78 3
78 2
79 1
