86 2
85 3
84 4
83 5
83 6
82 7
81 7
80 6
81 5
80 5
79 6
78 6
78 7
77 8
76 7
75 7
74 7
74 8
73 9
73 10
73 11
73 12
72 13
72 14
71 15
71 16
71 17
70 18
70 19
69 20
68 20
67 20
66 20
65 20
64 20
63 20
62 20
61 21
60 21
59 21
58 21
57 21
56 21
55 22
54 22
53 22
52 22
51 22
50 23
49 23
48 23
47 23
46 23
45 24
44 24
43 24
42 24
41 24
40 25
39 25
38 25
37 25
36 26
35 26
34 26
33 27
32 27
31 27
30 27
29 28
28 28
27 28
26 29
25 29
24 29
23 30
22 30
21 30
20 31
19 31
18 31
17 32
16 32
15 33
14 34
13 34
12 35
11 36
10 37
9 37
8 38
7 38
6 39
5 40
4 41
3 41
3 42
2 43
2 44
2 45
2 46
2 47
2 48
2 49
2 50
3 51
3 52
4 53
5 54
6 54
7 55
8 56
9 56
10 57
11 57
12 58
13 59
14 59
15 60
16 61
17 61
18 62
19 63
20 64
21 64
22 65
23 65
24 66
25 67
26 67
27 68
28 68
29 69
30 70
31 70
32 71
33 71
34 72
35 73
36 73
37 74
38 74
39 75
40 75
41 75
42 76
43 76
44 76
45 76
46 77
47 77
48 78
49 78
50 78
51 78
52 78
53 79
54 79
55 79
56 79
57 80
58 80
59 80
60 81
61 81
62 81
63 81
64 82
64 83
65 84
65 85
66 86
66 87
66 88
67 89
67 90
68 91
68 92
68 93
69 94
69 95
69 96
69 97
70 98
70 99
70 100
70 101
70 102
71 102
71 101
72 100
73 99
74 100
75 101
75 102
76 103
77 104
78 105
79 106
80 107
81 107
82 106
83 105
83 104
84 103
84 102
85 101
85 100
85 99
86 98
86 97
86 96
86 95
87 94
87 93
87 92
87 91
87 90
86 90
85 89
86 88
85 88
84 87
85 86
86 85
87 85
88 85
89 85
90 85
91 85
92 85
93 85
94 85
95 85
96 85
97 85
98 85
99 85
100 84
101 84
102 84
103 84
104 84
105 84
106 83
107 83
108 83
109 83
110 83
111 84
112 85
113 86
114 87
114 88
115 89
115 90
116 91
116 92
117 93
117 94
118 94
118 93
119 92
120 92
121 92
122 93
123 94
124 95
125 95
125 94
126 93
127 92
128 92
128 91
129 90
130 90
131 90
132 90
133 90
134 89
135 89
136 89
137 88
138 88
139 87
140 86
141 86
142 85
143 84
144 83
144 82
145 81
145 80
146 79
146 78
146 77
146 76
145 76
144 75
145 74
146 74
147 74
148 74
149 73
150 73
151 73
152 72
153 72
154 72
155 72
156 72
157 71
158 71
159 71
160 71
161 71
162 71
163 71
164 71
165 71
166 71
167 71
168 71
169 71
170 71
171 71
172 71
173 72
174 72
175 73
176 73
177 74
178 74
179 75
180 76
181 76
182 76
183 76
184 77
185 78
186 78
187 79
188 79
189 79
190 79
191 79
192 80
193 79
194 79
195 79
196 78
197 77
198 76
199 76
200 75
201 74
202 73
203 72
204 71
205 70
206 69
206 68
207 67
207 66
207 65
208 64
208 63
209 62
209 61
209 60
209 59
209 58
210 57
210 56
210 55
210 54
210 53
210 52
210 51
209 51
208 50
209 49
209 48
209 47
208 47
207 46
208 45
208 44
207 44
206 43
207 42
206 42
205 41
204 40
205 39
204 39
203 38
202 37
201 36
200 36
199 35
198 35
197 35
196 35
195 35
194 36
193 36
192 36
191 37
190 37
189 37
188 37
187 38
186 38
185 38
184 39
183 39
182 40
181 40
180 40
179 40
178 41
177 41
176 42
175 42
174 43
173 43
172 43
171 44
170 44
169 44
168 44
167 44
166 44
165 45
164 45
163 44
162 43
162 42
163 41
163 40
163 39
162 39
161 38
160 37
159 36
158 35
157 34
156 33
155 32
154 31
153 30
152 30
151 29
150 28
149 27
148 27
147 26
146 26
145 26
144 25
143 24
142 23
141 23
140 22
139 22
138 21
137 21
136 20
135 20
134 19
133 19
132 19
131 18
130 18
129 18
128 18
127 18
126 18
125 17
124 17
123 17
122 17
121 17
120 17
119 18
118 17
117 16
118 15
117 15
116 15
115 16
114 16
113 16
112 15
113 14
113 13
113 12
114 11
113 11
112 11
111 12
110 12
109 12
108 11
109 10
109 9
110 8
109 8
108 8
107 9
106 10
105 10
104 9
105 8
105 7
106 6
105 6
104 6
103 7
102 8
101 7
101 6
101 5
100 4
99 5
98 6
97 6
96 5
97 4
96 4
95 4
94 4
93 5
92 5
91 4
92 3
92 2
91 2
90 3
89 3
88 2
87 2
