76 2
75 3
74 4
73 5
73 6
72 7
72 8
71 9
71 10
71 11
70 12
69 13
68 12
67 12
66 12
65 13
64 14
63 13
62 12
63 11
63 10
62 10
61 11
60 12
60 13
59 14
58 13
57 13
56 12
57 11
57 10
56 10
55 10
55 11
55 12
54 13
53 12
53 11
52 11
52 12
51 13
50 13
49 13
49 14
48 15
47 15
46 15
45 15
44 16
43 16
42 16
41 16
40 17
39 17
38 17
37 17
36 17
35 18
34 18
33 18
32 18
31 19
30 19
29 20
28 20
27 20
26 21
25 21
24 21
23 22
22 22
21 22
20 23
19 23
18 23
17 24
16 24
15 25
14 25
13 26
12 26
11 26
10 27
9 27
8 28
7 28
6 29
5 29
4 30
3 31
3 32
3 33
3 34
2 35
2 36
3 37
4 38
5 38
6 39
7 40
8 40
9 41
10 41
11 42
12 42
13 43
14 43
15 44
16 44
17 44
18 44
19 45
20 44
21 45
22 46
23 46
24 46
25 47
26 47
27 47
28 48
29 48
30 49
31 49
32 50
32 51
33 52
34 53
35 53
36 54
37 55
38 56
39 56
40 57
41 57
42 56
43 55
43 54
44 53
45 52
46 52
47 52
48 52
49 53
50 53
51 53
52 53
53 53
54 53
55 54
55 55
55 56
55 57
56 58
56 59
56 60
57 60
57 59
58 58
59 58
60 59
61 58
62 57
62 56
63 55
64 56
65 57
65 58
65 59
66 60
66 61
66 62
67 62
68 63
68 64
69 65
69 66
70 67
71 66
72 65
73 64
74 64
75 63
76 63
77 62
78 61
79 61
80 60
81 60
82 59
83 59
84 59
85 58
86 58
87 57
88 57
89 56
90 56
91 55
92 55
93 55
94 54
95 54
96 53
97 53
98 53
99 52
100 52
101 51
102 51
103 51
104 51
105 51
106 51
107 50
108 50
109 50
110 49
111 49
112 49
112 48
113 47
114 47
115 47
116 46
117 46
118 46
119 46
120 46
121 45
122 45
123 44
124 44
125 44
126 43
127 43
128 43
129 43
130 42
131 42
132 42
132 41
133 40
134 40
135 40
136 40
137 40
138 40
139 40
140 40
141 41
142 42
143 43
144 44
145 45
146 46
147 47
148 48
149 49
150 49
151 50
152 51
153 51
154 52
155 53
156 54
157 54
158 55
159 56
160 56
161 57
162 58
163 58
164 58
164 57
165 56
165 55
164 55
163 54
164 53
163 53
162 52
163 51
162 51
161 50
160 49
161 48
161 47
160 47
159 46
158 45
159 44
158 44
157 43
156 42
157 41
156 41
155 40
154 39
155 38
154 38
153 37
152 36
153 35
153 34
154 33
155 32
156 31
157 30
158 29
159 28
159 27
160 26
160 25
161 24
162 24
162 23
163 22
163 21
164 20
164 19
165 18
165 17
166 16
166 15
166 14
165 14
164 14
163 15
162 15
161 16
160 16
159 17
158 17
157 18
156 18
155 19
154 20
153 21
152 21
151 22
150 22
149 23
148 24
147 25
146 26
145 27
144 27
144 28
143 29
142 30
141 31
140 31
139 31
138 31
137 31
136 31
135 30
136 29
136 28
135 28
134 28
133 28
132 27
131 27
130 27
129 26
128 26
127 26
126 26
125 25
124 25
123 25
122 25
121 25
120 25
119 24
118 23
117 23
116 23
115 22
114 22
113 22
112 21
111 21
110 21
109 21
108 20
107 19
106 19
105 19
104 19
103 18
102 18
101 18
100 18
99 17
98 16
97 16
96 15
95 15
94 14
93 14
92 13
91 13
90 12
89 12
88 11
89 10
88 10
87 10
86 9
85 8
84 7
83 7
82 6
81 6
80 5
79 4
78 3
77 2
