54 2
53 3
52 3
51 4
51 5
50 6
49 7
49 8
48 9
47 10
46 11
45 11
44 11
43 11
42 10
41 9
40 8
39 8
38 7
39 6
38 6
37 6
36 6
35 7
34 7
33 8
32 8
31 9
31 10
31 11
30 12
30 13
29 14
28 14
27 14
26 15
25 15
24 15
23 16
22 16
21 16
20 17
19 17
18 18
17 18
16 19
15 19
14 20
13 20
12 21
11 21
10 22
9 23
8 23
7 24
6 25
5 25
4 26
4 27
3 28
2 28
2 29
2 30
3 31
3 32
4 33
4 34
5 35
5 36
6 37
7 38
7 39
8 40
9 41
10 42
11 43
12 44
13 45
14 46
15 47
16 48
17 49
18 50
19 51
20 51
21 52
22 53
23 53
24 54
25 55
25 56
26 57
27 58
27 59
28 60
29 60
30 59
31 58
32 58
32 57
32 56
33 55
34 55
35 56
36 56
37 56
38 56
39 56
40 56
41 57
41 58
42 58
43 58
44 59
45 59
45 58
46 57
47 56
48 56
49 57
49 58
50 59
50 60
50 61
51 62
51 63
52 64
53 65
54 66
55 66
56 66
57 66
57 65
58 64
59 64
60 63
61 62
62 61
63 60
64 59
65 58
66 57
67 56
68 56
69 55
70 54
71 54
72 53
73 52
74 51
75 51
76 50
77 49
78 48
79 48
80 47
81 46
82 45
83 45
84 44
85 43
86 43
87 42
88 41
89 40
90 39
91 38
91 37
92 36
93 36
94 35
95 35
96 36
97 36
98 36
99 37
100 38
101 39
102 39
103 40
104 41
105 42
106 43
107 43
108 44
109 44
110 45
111 46
112 47
113 47
114 48
115 48
116 49
117 50
118 51
119 51
119 50
120 49
120 48
119 48
118 47
119 46
118 46
117 45
116 44
117 43
116 43
115 42
114 41
113 40
112 39
111 38
110 37
109 36
108 35
107 34
107 33
108 32
109 31
110 31
111 30
112 29
113 28
114 27
114 26
115 25
116 24
116 23
117 22
118 21
119 20
120 19
120 18
121 17
120 17
119 17
118 18
117 18
116 18
115 19
114 19
113 20
112 20
111 21
110 21
109 22
108 23
107 23
106 24
105 25
104 26
103 26
102 27
101 28
100 28
99 29
98 30
97 30
96 30
95 30
94 30
93 29
92 28
92 27
93 26
92 26
91 26
90 25
89 25
88 24
87 24
86 23
85 23
84 22
83 22
82 21
81 20
80 20
79 19
78 19
77 18
76 17
75 17
74 16
73 15
72 15
71 14
70 13
69 12
68 11
67 11
66 10
65 9
64 8
63 7
62 6
61 6
60 5
59 4
58 3
57 3
56 2
55 2
