50 2
49 3
48 3
48 4
47 5
46 6
45 6
44 7
44 8
44 9
43 10
42 11
42 12
41 13
40 13
39 13
38 14
37 14
36 14
35 14
34 14
33 14
32 14
31 15
30 15
29 15
28 15
27 15
26 16
25 16
24 16
23 17
22 17
21 17
20 17
19 17
18 18
17 18
16 18
15 19
14 19
13 20
12 20
11 21
10 21
9 21
8 22
7 23
6 23
5 24
4 24
3 25
3 26
2 27
2 28
2 29
2 30
2 31
3 32
4 32
5 33
6 34
7 34
8 34
9 35
10 35
11 36
12 36
13 36
14 37
15 37
16 37
17 38
18 38
19 38
20 38
21 39
22 39
23 39
24 39
25 39
26 40
27 40
28 40
29 40
30 40
31 40
32 41
33 41
34 41
35 41
36 41
37 41
38 41
39 42
40 43
40 44
41 44
42 45
42 46
43 47
44 48
45 48
46 49
47 49
48 48
48 47
49 46
49 45
49 44
49 43
50 42
51 42
52 42
53 42
54 42
55 42
56 42
57 42
58 42
59 42
60 42
61 41
62 41
63 41
64 41
65 41
66 41
67 41
68 41
69 42
70 43
71 43
72 43
73 43
73 42
74 41
75 41
76 42
76 43
77 43
78 44
79 45
80 46
81 47
82 48
83 47
84 46
85 45
86 44
87 43
88 42
89 41
90 41
91 40
92 39
93 39
94 38
95 38
96 37
97 37
98 36
99 36
100 36
101 35
102 35
103 35
104 34
105 34
106 34
107 34
108 34
109 33
110 33
111 32
112 32
113 32
114 32
115 32
116 33
117 34
118 34
119 35
120 35
121 36
122 36
123 37
124 37
125 38
126 39
127 39
128 40
129 40
130 41
131 41
132 42
133 42
134 43
135 43
136 43
136 42
137 41
136 41
135 40
136 39
135 39
134 38
133 37
132 36
131 35
132 34
131 34
130 33
129 32
128 31
127 30
128 29
127 29
126 28
127 27
127 26
128 25
129 24
129 23
130 22
130 21
131 20
132 19
133 18
134 17
134 16
135 15
136 15
136 14
137 13
136 13
135 12
134 13
133 13
132 14
131 14
130 15
129 15
128 15
127 16
126 16
125 17
124 18
123 18
122 19
121 19
120 20
119 21
118 21
117 22
116 23
115 23
114 24
113 24
112 23
111 23
110 22
109 22
108 21
107 21
106 21
105 20
104 20
103 20
102 19
101 19
100 19
99 18
98 18
97 18
96 17
95 17
94 17
93 16
92 16
91 16
90 15
89 15
88 15
87 14
86 14
85 14
84 13
83 13
82 13
81 12
80 12
79 11
78 11
77 10
76 10
75 9
76 8
75 8
74 7
73 6
72 6
71 6
70 7
69 8
68 8
67 9
67 10
66 11
66 12
65 13
64 14
63 14
62 13
61 12
60 12
59 12
58 12
57 11
56 11
55 11
54 10
55 9
54 9
53 8
52 7
53 6
53 5
53 4
53 3
53 2
52 2
51 2
