63 1
62 2
61 3
60 4
59 5
59 6
58 7
57 7
57 8
56 9
55 10
54 11
54 12
53 13
52 14
51 15
51 16
50 17
49 17
48 16
47 16
46 15
45 16
44 15
43 15
42 14
41 15
40 16
39 17
38 18
37 18
36 18
35 19
34 19
33 19
32 19
31 19
30 20
29 20
28 20
27 21
26 21
25 21
24 21
23 22
22 22
21 23
20 23
19 24
18 24
17 25
16 26
15 26
14 27
13 27
12 28
11 29
10 30
9 31
8 32
7 33
6 34
5 35
4 36
3 37
3 38
3 39
2 40
2 41
3 42
3 43
4 43
5 44
6 45
7 45
8 46
9 46
10 46
11 47
12 47
13 48
14 48
15 48
16 49
17 49
18 49
19 50
20 50
21 50
22 51
23 51
24 51
25 51
26 52
27 52
28 52
29 53
30 53
31 53
32 53
33 54
33 55
33 56
34 57
34 58
34 59
35 60
36 61
36 62
37 63
38 64
39 65
39 66
40 67
41 68
42 69
42 68
43 67
43 66
43 65
43 64
43 63
43 62
43 61
43 60
43 59
43 58
43 57
43 56
44 55
45 55
46 55
47 55
48 55
49 55
50 55
51 55
52 55
53 55
54 55
55 55
56 55
57 55
58 55
59 55
60 55
61 55
62 55
63 56
64 56
65 56
66 57
66 58
67 59
68 60
68 61
69 62
70 63
71 64
71 65
72 65
72 64
73 63
73 62
73 61
74 60
75 60
76 59
77 58
78 58
79 57
80 57
81 57
82 56
83 56
84 56
85 55
86 55
87 55
88 54
89 54
90 53
91 53
92 53
93 52
94 52
95 51
96 51
97 50
98 50
99 50
100 49
101 49
102 49
102 48
103 47
104 47
105 47
106 48
106 49
107 49
108 50
109 51
110 51
111 52
112 53
113 54
114 54
115 55
116 55
117 56
118 56
119 57
120 58
121 58
122 58
123 59
124 59
125 59
126 60
127 60
128 60
129 60
129 59
130 58
129 58
128 57
127 56
126 55
125 54
124 53
123 52
122 51
121 50
120 49
119 48
118 47
119 46
118 46
117 45
118 44
118 43
118 42
118 41
119 40
120 39
121 38
122 37
123 36
124 35
125 34
125 33
126 32
127 32
127 31
128 30
129 29
129 28
130 27
129 27
128 27
127 27
126 28
125 28
124 28
123 29
122 29
121 30
120 30
119 30
118 31
117 31
116 32
115 33
114 33
113 34
112 35
111 35
110 36
109 37
108 38
107 38
106 39
105 39
104 40
103 40
102 39
102 38
102 37
103 36
102 36
101 35
100 34
99 34
98 33
97 32
96 32
95 31
94 31
93 30
92 29
91 29
90 29
89 28
88 27
87 26
86 26
85 25
84 25
83 24
82 23
81 23
80 22
79 22
78 21
77 21
76 20
75 20
74 19
73 19
72 18
71 17
70 17
69 16
68 15
67 15
66 14
65 13
66 12
65 12
64 11
63 10
62 9
63 8
63 7
63 6
63 5
63 4
63 3
63 2
64 1
