68 2
67 3
67 4
66 5
65 6
64 7
64 8
63 9
62 10
62 11
61 12
60 11
59 10
58 10
57 10
56 9
55 9
54 8
53 9
52 9
51 9
50 9
49 9
48 10
47 11
46 11
45 12
44 13
43 13
42 13
41 13
40 13
39 13
38 13
37 13
36 13
35 13
34 14
33 14
32 14
31 14
30 14
29 14
28 15
27 15
26 15
25 15
24 16
23 16
22 16
21 16
20 17
19 17
18 17
17 17
16 18
15 18
14 18
13 19
12 19
11 19
10 20
9 20
8 20
7 21
6 21
5 22
4 22
3 23
2 24
2 25
2 26
2 27
2 28
3 29
4 30
5 30
6 31
7 31
8 32
9 32
10 33
11 33
12 34
13 34
14 35
15 35
16 35
17 36
18 36
19 36
20 36
21 37
22 37
23 37
24 38
25 38
26 38
27 39
28 39
29 39
30 39
31 40
32 40
33 40
34 40
35 41
35 42
36 43
37 43
38 44
39 45
40 46
41 46
42 46
43 47
44 47
45 47
46 48
47 48
48 48
48 47
49 46
48 46
47 45
46 44
45 43
46 42
47 42
48 42
49 42
50 42
51 42
52 42
53 42
54 42
55 42
56 42
57 42
58 42
59 42
60 42
61 42
62 42
63 42
64 42
65 42
66 42
67 42
68 42
69 42
70 43
70 44
71 45
71 46
72 47
73 48
73 49
73 50
74 51
75 50
76 49
77 49
78 48
79 48
80 47
81 46
82 46
83 45
84 45
85 44
86 44
87 44
88 43
89 43
90 42
91 42
92 42
93 41
94 41
95 41
96 40
97 40
98 40
99 40
100 40
101 39
102 39
103 39
104 39
105 38
106 38
107 38
108 37
109 37
110 37
111 37
112 36
113 36
113 35
114 34
115 34
116 35
117 35
118 35
119 35
120 35
121 35
121 34
122 33
123 32
124 32
125 33
126 34
127 35
128 36
129 37
130 37
131 38
132 39
133 39
134 40
135 40
136 41
137 41
138 42
139 43
140 43
141 44
142 44
143 44
144 45
145 45
146 46
147 46
148 46
149 47
150 47
151 47
152 48
153 48
154 48
155 48
156 49
157 49
157 48
158 47
157 47
156 46
155 46
154 45
153 45
152 44
151 44
150 43
149 42
148 42
147 41
146 40
145 39
144 38
143 37
142 37
141 36
142 35
141 35
140 34
139 33
138 32
137 31
136 30
137 29
136 29
135 28
136 27
136 26
137 25
138 24
139 23
140 22
141 21
142 20
143 20
144 19
145 18
146 18
147 17
148 16
149 15
150 15
151 15
152 14
153 13
154 13
155 13
156 12
157 12
158 11
159 11
160 10
160 9
159 9
158 9
157 9
156 9
155 9
154 9
153 10
152 10
151 10
150 11
149 11
148 11
147 11
146 12
145 12
144 13
143 13
142 13
141 14
140 14
139 15
138 15
137 16
136 16
135 17
134 17
133 18
132 18
131 19
130 19
129 20
128 21
127 21
126 22
125 23
124 23
123 24
122 24
121 24
120 23
120 22
121 21
120 21
119 21
118 21
117 21
116 21
115 22
114 21
114 20
115 19
114 19
113 19
112 19
111 18
110 18
109 18
108 18
107 17
106 17
105 16
104 16
103 16
102 16
101 15
100 15
99 15
98 15
97 14
96 14
95 14
94 13
93 13
92 13
91 13
90 12
89 12
88 11
87 11
86 10
85 10
84 10
83 9
82 8
81 8
80 7
79 7
78 6
77 6
76 5
75 5
74 4
73 3
72 2
71 2
70 2
69 2
