66 2
65 3
64 3
63 4
62 5
61 6
60 7
59 8
58 9
58 10
57 11
56 11
55 12
54 11
54 10
53 9
52 8
51 8
50 7
49 7
48 7
47 7
46 7
45 7
44 8
43 9
42 10
41 11
40 11
39 11
38 11
37 11
36 11
35 11
34 11
33 11
32 11
31 11
30 11
29 11
28 11
27 11
26 11
25 12
24 12
23 12
22 12
21 12
20 13
19 13
18 13
17 13
16 14
15 14
14 15
13 15
12 15
11 16
10 16
9 17
8 17
7 18
6 19
5 20
4 21
3 22
3 23
3 24
2 25
2 26
2 27
3 28
3 29
4 29
5 30
6 31
7 31
8 32
9 32
10 32
11 33
12 33
13 34
14 34
15 35
16 35
17 36
18 36
19 36
20 37
21 37
22 38
23 38
24 38
25 38
26 39
27 39
28 39
29 40
30 40
31 40
32 40
33 41
33 42
34 43
35 44
35 45
36 45
37 46
37 47
38 48
39 49
39 50
40 51
41 52
42 53
43 54
44 54
45 54
45 53
45 52
45 51
45 50
45 49
45 48
45 47
45 46
45 45
45 44
45 43
45 42
46 41
47 41
48 41
49 41
50 41
51 42
52 41
53 41
54 41
55 41
56 42
57 42
58 42
59 42
60 42
61 42
62 42
63 42
64 42
65 42
66 42
67 42
68 42
69 43
70 44
71 44
72 45
73 46
74 46
75 47
76 48
77 48
78 49
79 50
80 50
81 50
81 49
82 48
81 48
80 47
81 46
81 45
82 44
83 44
84 43
85 43
86 42
87 42
88 42
89 41
90 41
91 41
92 40
93 40
94 40
95 39
96 39
97 39
98 38
99 38
100 38
101 37
102 37
103 37
104 36
105 36
106 35
107 35
108 35
109 35
110 35
111 36
112 37
113 37
114 38
115 39
116 40
117 40
118 41
119 42
120 42
121 43
122 44
123 44
124 44
125 45
126 46
127 46
128 47
129 47
130 48
131 48
132 48
133 48
134 48
135 48
135 47
136 46
135 46
134 45
133 45
132 44
131 43
130 42
129 41
128 40
127 39
126 38
125 37
124 36
123 35
122 34
123 33
122 33
121 32
122 31
122 30
122 29
123 28
124 27
125 26
126 25
127 24
128 23
129 22
130 21
131 21
132 20
133 19
134 18
135 18
136 17
136 16
137 15
136 15
135 15
134 15
133 15
132 15
131 16
130 16
129 16
128 16
127 17
126 17
125 17
124 18
123 18
122 19
121 19
120 20
119 20
118 21
117 21
116 22
115 22
114 23
113 24
112 25
111 26
110 26
109 26
108 26
107 25
106 24
107 23
107 22
106 22
105 22
104 22
103 21
102 20
101 20
100 20
99 19
98 19
97 18
96 18
95 17
94 17
93 17
92 16
91 16
90 15
89 15
88 15
87 15
86 14
85 14
84 14
83 13
82 13
81 13
80 12
79 12
78 12
77 11
76 11
75 11
74 11
73 10
72 9
71 9
70 8
69 7
70 6
69 6
68 5
69 4
69 3
68 3
67 2
