65 2
64 3
63 4
62 5
61 6
61 7
60 8
59 9
58 10
58 11
57 12
56 13
55 14
54 14
53 14
52 14
51 13
50 12
51 11
50 11
49 11
48 10
47 9
46 9
45 8
44 8
43 9
43 10
42 11
41 12
40 13
39 14
38 15
37 15
36 15
35 15
34 15
33 15
32 15
31 16
30 16
29 16
28 16
27 16
26 16
25 17
24 17
23 17
22 17
21 17
20 18
19 18
18 18
17 18
16 19
15 19
14 19
13 20
12 20
11 21
10 21
9 22
8 22
7 23
6 24
5 24
4 25
3 26
2 26
1 26
1 27
1 28
1 29
1 30
1 31
1 32
1 33
2 32
3 33
4 34
5 34
6 35
7 36
8 37
9 37
10 38
11 39
12 39
13 40
14 40
15 40
16 41
17 41
18 42
19 42
20 42
21 43
22 43
23 43
24 44
25 44
26 44
27 44
28 45
29 45
30 45
31 45
32 46
32 47
32 48
33 49
34 50
34 51
34 52
35 53
35 54
36 55
36 54
37 53
37 52
38 51
38 50
38 49
38 48
39 47
40 46
41 46
42 46
43 46
44 46
45 46
46 47
47 47
48 47
49 47
50 47
51 47
52 47
53 47
54 48
55 49
56 48
57 47
58 47
59 47
60 48
60 49
61 50
62 51
63 52
64 53
64 54
65 55
66 55
67 56
68 57
68 56
69 55
69 54
69 53
69 52
69 51
69 50
69 49
70 48
71 47
72 47
73 46
74 46
75 46
76 45
77 45
78 45
79 44
80 44
81 43
82 43
83 42
84 42
85 41
86 41
87 40
88 40
89 39
90 38
91 38
92 37
93 37
94 36
95 36
96 35
96 34
97 33
98 33
99 34
100 34
101 35
102 36
103 37
104 37
105 38
106 39
107 40
108 41
109 41
110 42
111 43
112 43
113 44
114 45
115 45
116 46
117 47
118 47
119 48
120 48
121 49
122 49
123 49
124 49
125 49
125 48
126 47
125 47
124 47
123 46
122 45
121 44
120 44
119 43
120 42
119 42
118 41
117 40
118 39
117 39
116 38
115 37
114 36
113 35
112 34
113 33
112 33
111 32
112 31
112 30
112 29
113 28
114 27
115 26
116 25
117 25
117 24
118 23
119 22
120 21
121 20
122 19
123 18
124 17
125 16
126 15
127 15
128 14
129 13
129 12
128 11
127 12
126 12
125 12
124 13
123 13
122 14
121 14
120 15
119 15
118 16
117 17
116 17
115 18
114 18
113 19
112 20
111 20
110 21
109 21
108 22
107 23
106 23
105 24
104 24
103 25
102 26
101 27
100 27
99 28
98 28
97 28
96 28
95 27
96 26
95 26
94 25
93 24
92 24
91 23
90 23
89 22
88 22
87 21
86 21
85 20
84 20
83 19
82 19
81 18
80 18
79 17
78 17
77 16
76 16
75 15
74 15
73 15
72 14
71 14
70 14
69 14
68 13
67 13
66 12
67 11
66 11
65 10
66 9
66 8
66 7
66 6
67 5
67 4
67 3
67 2
66 2
