67 2
66 3
66 4
65 5
64 6
63 5
62 6
62 7
61 8
61 9
60 10
60 11
59 12
59 13
58 14
58 15
57 16
57 17
56 18
55 19
54 20
53 20
52 20
51 20
50 20
49 20
48 20
47 20
46 20
45 20
44 21
43 21
42 21
41 21
40 21
39 21
38 22
37 22
36 22
35 22
34 22
33 23
32 23
31 23
30 23
29 23
28 24
27 24
26 24
25 24
24 24
23 25
22 25
21 25
20 25
19 26
18 26
17 26
16 26
15 27
14 27
13 27
12 27
11 28
10 28
9 29
8 29
7 29
6 30
6 31
6 32
7 33
7 34
6 35
5 35
4 35
3 35
2 35
2 36
2 37
3 38
4 39
5 40
6 40
7 41
8 41
9 42
10 42
11 43
12 43
13 43
14 44
15 44
16 44
17 45
18 45
19 45
20 45
21 46
22 46
23 47
24 47
25 47
26 48
27 48
28 48
29 48
30 49
31 49
32 49
33 49
34 50
35 50
36 51
37 51
38 52
39 52
40 52
41 53
42 53
43 53
44 53
45 54
46 54
47 54
48 54
49 55
50 56
50 57
50 58
51 59
51 60
51 61
52 62
52 63
53 64
53 65
54 66
54 67
55 68
55 69
56 70
56 71
57 72
58 73
59 74
60 75
60 74
61 73
61 72
62 71
62 70
62 69
62 68
62 67
62 66
62 65
62 64
62 63
62 62
61 62
60 61
59 60
60 59
59 59
58 58
57 57
58 56
59 56
60 56
61 56
62 56
63 56
64 56
65 56
66 56
67 56
68 56
69 56
70 56
71 56
72 56
73 56
74 56
75 56
76 57
77 57
78 57
79 57
80 57
81 57
82 57
83 57
84 56
85 57
86 57
87 57
88 56
89 56
90 56
91 56
92 56
93 56
94 56
95 56
96 56
97 56
98 56
99 56
100 56
101 55
102 55
103 55
104 55
105 55
106 55
107 55
108 55
109 54
110 54
111 54
112 54
113 53
114 53
115 54
116 55
117 56
118 57
118 58
119 58
120 59
121 60
121 61
122 62
123 62
124 63
125 64
126 64
127 64
128 64
129 63
130 62
130 61
131 60
131 59
131 58
132 57
133 56
133 55
134 54
134 53
134 52
135 51
134 51
133 50
134 49
133 49
132 48
131 48
130 47
130 46
131 45
132 45
133 45
134 44
135 44
136 44
137 44
138 44
139 43
140 43
141 43
142 43
143 43
144 44
145 44
146 44
147 44
148 45
149 45
150 45
151 45
152 46
153 46
154 46
155 47
156 47
157 47
158 48
159 48
160 48
161 49
162 49
163 49
164 50
165 50
166 51
167 51
168 52
169 52
170 52
171 52
172 52
173 52
174 52
175 52
176 52
177 52
178 52
179 52
179 51
180 50
180 49
180 48
180 47
180 46
179 46
178 45
179 44
179 43
179 42
179 41
179 40
179 39
179 38
179 37
179 36
179 35
179 34
179 33
179 32
179 31
179 30
180 29
180 28
180 27
180 26
180 25
180 24
179 24
178 24
177 24
176 24
175 24
174 24
173 24
172 25
171 25
170 25
169 25
168 25
167 25
166 26
165 26
164 26
163 26
162 27
161 27
160 27
159 27
158 27
157 28
156 28
155 28
154 28
153 28
152 29
151 29
150 29
149 29
148 29
147 29
146 29
145 30
144 30
143 30
142 30
141 30
140 29
139 29
138 29
137 28
138 27
139 26
140 25
140 24
139 23
138 22
137 22
136 22
135 21
134 21
133 20
132 20
131 19
130 19
129 19
128 18
127 18
126 18
125 17
124 16
123 15
122 15
121 15
120 15
119 14
118 14
117 14
116 14
115 13
114 13
113 12
112 12
111 12
110 11
109 11
108 11
107 11
106 11
105 11
104 10
103 10
102 10
101 10
100 10
99 10
98 10
97 10
96 10
95 10
94 11
93 11
92 12
91 12
90 13
89 14
88 15
88 16
87 17
86 18
85 19
84 20
83 20
82 20
81 20
80 19
79 19
78 18
79 17
78 17
77 17
76 16
77 15
78 14
78 13
77 13
76 12
77 11
77 10
77 9
76 9
75 9
74 9
73 8
74 7
74 6
75 5
74 5
73 5
72 4
73 3
72 3
71 3
70 2
69 2
68 2
