69 2
68 3
67 4
66 4
65 4
64 4
64 5
63 6
62 7
61 7
60 8
59 8
58 7
57 7
56 8
56 9
55 10
54 11
53 12
53 13
52 14
51 15
50 16
50 17
49 18
48 19
47 20
47 21
46 22
45 23
44 23
43 24
42 24
41 24
40 25
39 25
38 25
37 26
36 26
35 27
34 27
33 27
32 28
31 28
30 29
29 30
28 30
27 31
26 31
25 32
24 33
23 33
22 34
21 34
20 35
19 36
18 36
17 37
16 38
15 38
14 39
14 40
13 41
12 41
11 42
10 43
9 44
8 45
7 46
6 47
5 48
5 49
4 50
3 51
3 52
2 53
2 54
2 55
2 56
3 57
3 58
2 59
2 60
3 61
3 62
4 63
5 63
6 64
7 64
8 65
9 66
10 67
11 67
12 67
13 68
14 68
15 68
16 69
17 69
18 69
19 69
20 69
21 70
22 70
23 70
24 71
25 71
26 71
27 72
28 72
29 72
30 73
31 73
32 73
33 73
34 74
35 74
36 75
37 75
38 75
39 76
40 76
41 76
42 76
43 77
44 77
45 77
46 77
47 78
48 78
49 78
50 78
51 79
51 80
51 81
51 82
51 83
51 84
51 85
51 86
51 87
51 88
51 89
51 90
51 91
51 92
51 93
51 94
51 95
52 95
53 96
54 97
54 98
54 99
54 100
55 101
55 102
55 103
56 104
56 105
57 106
58 107
59 107
60 107
61 107
62 107
63 106
63 105
64 104
64 103
65 102
66 101
66 100
67 99
67 98
68 97
68 96
69 95
69 94
70 93
70 92
70 91
71 90
71 89
71 88
71 87
71 86
71 85
71 84
71 83
71 82
70 82
69 81
70 80
71 80
72 80
73 80
74 80
75 80
76 80
77 80
78 80
79 80
80 80
81 80
82 80
83 80
84 80
85 80
86 80
87 80
88 80
89 80
90 80
91 80
92 80
93 80
94 80
95 80
96 80
97 80
98 80
99 80
100 80
101 80
102 79
103 79
104 79
105 79
106 79
107 79
108 79
109 80
109 81
110 82
111 83
112 83
113 84
114 85
115 86
116 87
116 88
117 89
118 90
119 91
119 92
120 93
120 94
121 95
122 96
123 96
124 96
125 97
126 97
127 98
128 98
129 98
130 98
131 98
132 97
133 96
133 95
134 94
134 93
134 92
135 91
135 90
135 89
135 88
135 87
135 86
135 85
135 84
135 83
135 82
135 81
134 81
133 80
134 79
134 78
134 77
133 77
132 76
133 75
133 74
132 74
131 73
132 72
131 71
132 70
133 70
134 70
135 70
136 70
137 69
138 69
139 69
140 69
141 69
142 69
143 69
144 69
145 69
146 69
147 69
148 69
149 69
150 69
151 69
152 69
153 69
154 69
155 69
156 69
157 69
158 69
159 69
160 70
161 70
162 70
163 70
164 71
165 71
166 72
167 72
168 73
169 73
170 74
171 75
171 76
172 76
173 77
174 77
175 78
176 78
177 79
178 79
179 80
180 81
181 81
182 82
183 82
184 83
185 84
186 84
187 85
188 85
189 86
190 86
191 87
192 87
193 87
194 86
194 85
195 84
195 83
196 82
196 81
196 80
197 79
197 78
198 77
198 76
198 75
199 74
199 73
199 72
199 71
200 70
200 69
200 68
200 67
201 66
201 65
201 64
201 63
202 62
202 61
202 60
202 59
202 58
202 57
202 56
202 55
202 54
202 53
202 52
202 51
202 50
202 49
202 48
202 47
202 46
201 46
200 45
201 44
201 43
201 42
201 41
201 40
200 40
199 39
200 38
200 37
200 36
199 36
198 35
199 34
199 33
198 33
197 32
196 31
195 32
194 33
193 33
192 33
191 33
190 34
189 34
188 35
187 35
186 35
185 36
184 36
183 36
182 36
181 37
180 38
179 38
178 38
177 38
176 39
175 40
174 40
173 41
172 41
171 41
170 42
169 42
168 43
167 43
166 44
165 44
164 44
163 45
162 45
161 45
160 46
159 46
158 46
157 47
156 47
155 47
154 47
153 47
152 47
151 47
150 47
149 46
150 45
151 44
152 44
153 43
154 43
154 42
155 41
155 40
155 39
156 38
155 38
154 37
155 36
154 36
153 35
154 34
153 34
152 33
151 32
150 31
149 30
148 29
149 28
148 28
147 27
146 26
145 26
144 25
143 24
142 24
141 23
140 22
141 21
140 21
139 21
138 20
137 20
136 19
135 19
134 18
133 18
132 17
131 17
130 16
129 16
128 15
127 15
126 15
125 14
124 14
123 13
122 13
121 12
120 12
119 12
118 11
117 11
116 10
115 10
114 10
113 10
112 10
111 10
110 10
109 9
108 9
107 10
106 10
105 10
104 10
103 10
102 10
101 11
100 11
99 11
98 12
97 12
96 13
95 14
94 14
93 15
92 16
91 16
90 17
89 17
88 18
87 18
86 18
85 18
84 18
83 18
82 18
81 18
80 17
80 16
80 15
79 15
78 15
77 14
78 13
78 12
77 12
76 11
77 10
77 9
78 8
78 7
79 6
79 5
78 5
77 4
78 3
77 3
76 3
75 3
74 2
73 2
72 2
71 3
70 2
