70 2
69 3
68 4
67 5
67 6
66 7
65 8
64 8
63 9
63 10
62 11
61 12
60 13
59 14
59 15
58 16
57 17
57 18
56 19
55 20
55 21
54 22
54 23
53 24
52 25
51 25
50 25
49 25
48 25
47 25
46 26
45 26
44 26
43 26
42 27
41 27
40 27
39 27
38 28
37 28
36 28
35 28
34 29
33 29
32 29
31 29
30 29
29 30
28 30
27 30
26 30
25 30
24 31
23 31
22 32
21 33
20 33
19 33
18 33
17 34
16 34
15 34
14 35
13 35
12 35
11 36
10 36
9 36
8 37
7 37
6 38
5 38
4 39
3 40
2 41
2 42
2 43
2 44
2 45
3 46
4 47
4 48
5 48
6 49
6 50
6 51
6 52
6 53
6 54
6 55
6 56
7 57
8 56
9 55
10 55
11 55
12 54
13 55
14 55
15 55
16 55
17 55
18 55
19 55
20 55
21 56
22 56
23 56
24 56
25 57
26 57
27 57
28 58
29 58
30 58
31 59
32 59
33 59
34 60
35 60
36 60
37 60
38 60
39 61
40 61
41 61
42 61
43 61
44 62
45 62
46 62
47 62
48 63
49 63
50 64
50 65
51 66
51 67
52 68
52 69
52 70
53 71
53 72
54 73
54 74
54 75
55 76
55 77
56 78
56 79
57 80
58 81
59 82
60 83
61 83
62 83
63 83
64 83
65 83
66 82
66 81
67 80
67 79
67 78
68 77
68 76
68 75
68 74
67 74
66 73
67 72
67 71
66 71
65 70
64 69
63 68
62 68
61 67
62 66
63 66
64 66
65 66
66 66
67 66
68 66
69 66
70 66
71 66
72 66
73 66
74 66
75 66
76 66
77 66
78 66
79 66
80 66
81 66
82 66
83 66
84 66
85 66
86 65
87 65
88 65
89 65
90 65
91 65
92 65
93 65
94 65
95 66
96 67
97 68
98 69
99 70
100 71
101 72
102 72
103 72
104 73
105 73
106 73
107 74
108 74
109 74
110 74
111 74
112 73
113 73
114 72
115 72
116 71
117 70
117 69
118 68
118 67
119 66
119 65
119 64
118 64
117 64
116 63
115 63
114 62
115 61
116 61
117 61
118 61
119 61
120 61
121 61
122 61
123 60
124 60
125 60
126 60
127 60
128 60
129 60
130 60
131 59
132 59
133 59
134 59
135 59
136 59
137 59
138 59
139 59
140 59
141 59
142 59
143 59
144 59
145 59
146 59
147 59
148 60
149 60
150 60
151 61
152 61
153 61
154 62
155 62
156 62
157 63
158 63
159 63
160 63
161 63
162 64
163 64
164 64
165 64
166 65
167 65
168 65
169 65
170 65
171 65
172 65
173 65
174 65
175 65
176 64
177 63
178 62
179 61
180 60
180 59
181 58
181 57
181 56
182 55
182 54
182 53
182 52
182 51
181 51
180 50
181 49
181 48
180 48
179 47
180 46
180 45
180 44
180 43
180 42
180 41
180 40
180 39
180 38
179 38
178 38
177 37
176 37
175 37
174 37
173 37
172 37
171 37
170 37
169 37
168 37
167 37
166 37
165 37
164 37
163 38
162 38
161 38
160 38
159 38
158 38
157 38
156 39
155 39
154 39
153 39
152 39
151 40
150 41
149 41
148 42
147 42
146 42
145 42
144 42
143 42
142 42
141 42
140 42
139 42
138 42
137 42
136 42
135 41
136 40
137 39
137 38
138 37
138 36
137 36
136 36
135 35
134 35
133 35
132 34
131 34
130 34
129 34
128 33
127 33
126 33
125 32
124 32
123 31
122 31
121 30
120 30
119 30
118 29
117 29
116 29
115 28
114 28
113 28
112 28
111 27
110 27
109 26
108 26
107 26
106 25
105 25
104 25
103 25
102 24
101 24
100 24
99 23
98 23
97 22
96 22
95 21
94 21
93 21
92 21
91 21
90 21
89 22
88 23
87 24
86 24
85 25
84 25
83 26
82 26
81 27
80 27
79 28
78 28
77 27
76 26
75 25
74 24
73 23
74 22
74 21
73 21
72 20
73 19
72 19
71 18
70 17
71 16
71 15
70 15
69 14
70 13
70 12
70 11
70 10
70 9
70 8
70 7
70 6
71 5
71 4
71 3
72 2
71 2
