63 2
62 3
61 3
60 3
59 3
58 3
57 3
56 3
55 3
54 3
53 4
52 4
51 4
50 4
49 4
48 4
47 5
46 5
45 5
44 5
43 5
42 5
41 6
40 6
39 6
38 7
37 7
36 7
35 8
34 8
33 9
32 9
31 10
30 10
29 10
28 11
27 11
26 12
25 12
24 13
23 13
22 14
21 15
20 15
19 16
18 17
17 17
17 18
16 19
15 19
14 20
13 21
13 22
12 23
11 24
11 25
10 26
9 26
9 27
9 28
8 29
7 30
6 31
6 32
6 33
6 34
5 35
4 36
4 37
3 38
3 39
3 40
3 41
3 42
3 43
3 44
3 45
3 46
2 47
2 48
2 49
2 50
3 51
3 52
3 53
3 54
3 55
3 56
3 57
3 58
3 59
3 60
4 61
4 62
4 63
5 64
6 65
6 66
6 67
6 68
7 68
8 69
9 70
9 71
10 72
11 73
12 74
12 75
13 76
14 77
15 78
16 78
17 79
17 80
18 80
19 80
20 81
21 82
22 82
23 83
24 83
25 83
26 84
27 84
28 85
29 85
30 85
31 86
32 86
33 86
34 86
35 87
36 87
37 87
38 88
39 88
40 88
41 88
42 88
43 88
44 88
45 88
46 88
47 88
48 88
49 88
50 88
51 88
52 88
53 88
54 88
55 88
56 88
57 87
58 87
59 87
60 87
61 87
62 86
63 86
64 86
65 86
66 86
67 86
68 85
69 85
70 85
71 85
72 85
73 85
74 84
75 84
76 84
77 84
78 83
79 83
80 83
81 83
82 82
83 82
84 81
85 81
86 80
87 80
88 80
89 79
90 79
91 79
92 79
93 78
94 78
95 78
96 78
97 77
98 77
99 77
100 77
101 76
102 76
103 76
104 76
105 76
106 75
107 75
108 75
109 75
110 75
111 74
112 74
113 74
114 74
115 74
116 73
117 73
118 73
119 73
120 73
121 73
122 72
123 72
124 72
125 72
126 72
127 72
128 72
129 71
130 71
131 71
132 71
133 71
134 70
135 70
136 70
137 70
138 70
139 69
140 69
141 69
142 69
143 69
144 68
145 68
146 68
147 68
148 67
149 67
150 67
151 66
152 66
153 65
154 65
155 64
156 64
157 64
158 63
159 63
160 63
161 62
162 62
163 61
164 61
165 60
165 59
166 58
165 58
164 57
163 56
162 56
161 56
160 56
159 56
158 56
157 56
156 56
155 56
154 57
153 57
152 58
151 58
150 58
149 59
148 59
147 59
146 59
145 60
144 60
143 60
142 60
141 61
140 61
139 61
138 61
137 61
136 61
135 61
134 61
133 61
132 62
131 62
130 62
129 62
128 62
127 62
126 62
125 62
124 62
123 63
122 63
121 63
120 63
119 63
118 63
117 63
116 63
115 63
114 63
113 63
112 63
111 64
110 64
109 64
108 64
107 64
106 64
105 64
104 65
103 65
102 65
101 65
100 65
99 65
98 65
97 66
96 66
95 66
94 66
93 67
92 67
91 67
90 67
89 67
88 68
87 68
86 68
85 68
84 68
83 69
82 69
81 69
80 70
79 70
78 70
77 70
76 71
75 71
74 71
73 72
72 72
71 72
70 72
69 72
68 73
67 73
66 73
65 73
64 73
63 74
62 74
61 74
60 74
59 74
58 74
57 75
56 75
55 75
54 75
53 75
52 75
51 75
50 75
49 75
48 75
47 75
46 75
45 75
44 75
43 75
42 75
41 74
40 74
39 74
38 73
37 73
36 72
35 72
34 72
33 71
32 71
31 71
30 70
29 69
28 69
27 68
26 68
25 67
24 66
23 65
22 65
21 64
22 63
21 63
20 62
19 61
18 60
19 59
19 58
18 58
17 57
18 56
17 56
16 55
17 54
17 53
17 52
16 52
15 51
16 50
16 49
16 48
16 47
16 46
16 45
17 44
17 43
18 42
18 41
19 40
19 39
20 38
21 37
21 36
22 35
23 34
24 33
25 32
26 31
27 30
28 30
29 29
30 28
31 27
32 27
33 26
34 25
35 25
36 25
37 24
38 23
39 23
40 23
41 22
42 22
43 22
44 21
45 21
46 21
47 21
48 20
49 20
50 20
51 19
52 19
53 19
54 19
55 19
56 19
57 18
58 18
59 18
60 18
61 18
62 18
63 18
64 18
65 18
66 18
67 18
68 18
69 18
70 18
71 18
72 18
73 18
74 18
75 18
76 18
77 19
78 19
79 19
80 19
81 19
82 20
83 20
84 20
85 20
86 20
87 21
88 21
89 21
90 21
91 21
92 22
93 22
94 22
95 23
96 23
97 23
98 23
99 23
100 23
101 24
102 24
103 24
104 24
105 25
106 25
107 25
108 25
109 26
110 26
111 26
112 26
113 27
114 27
115 27
116 27
117 28
118 28
119 28
120 28
121 28
122 28
123 28
124 29
125 29
126 29
127 29
128 29
129 29
130 29
131 30
132 30
133 30
134 30
135 30
136 30
137 30
138 31
139 31
140 31
141 31
142 32
143 33
144 34
145 35
146 35
147 36
148 36
149 36
150 37
151 37
152 37
153 37
154 37
155 37
156 37
157 37
158 37
159 37
160 37
161 38
162 38
163 38
164 39
165 39
166 39
167 39
168 39
169 39
170 40
171 40
172 40
173 40
174 40
175 40
176 40
177 40
178 40
179 40
180 40
181 39
182 38
182 37
183 36
183 35
183 34
182 34
181 33
180 32
179 31
178 30
177 29
176 28
177 27
176 27
175 26
174 25
173 24
172 24
171 23
170 22
169 22
168 21
167 21
166 20
165 20
164 19
163 19
162 19
161 18
160 18
159 17
158 17
157 17
156 17
155 16
154 16
153 15
152 15
151 15
150 15
149 16
148 16
147 15
146 15
145 15
144 15
143 15
142 15
141 15
140 15
139 15
138 15
137 15
136 15
135 15
134 15
133 15
132 15
131 14
130 14
129 14
128 14
127 14
126 14
125 13
124 13
123 13
122 13
121 13
120 13
119 12
118 12
117 12
116 12
115 12
114 12
113 11
112 11
111 11
110 11
109 10
108 10
107 10
106 9
105 9
104 9
103 9
102 8
101 8
100 8
99 8
98 8
97 7
96 7
95 7
94 7
93 6
92 6
91 6
90 6
89 6
88 5
87 5
86 5
85 5
84 4
83 4
82 4
81 4
80 4
79 3
78 3
77 3
76 3
75 3
74 3
73 3
72 3
71 3
70 3
69 3
68 3
67 3
66 3
65 2
64 2
