42 2
41 3
40 3
39 4
38 4
37 4
36 4
35 5
34 6
33 7
32 8
32 9
31 10
30 11
30 12
29 13
29 14
28 15
28 16
28 17
27 18
27 19
26 20
26 21
25 22
25 23
24 24
23 25
22 25
21 25
20 25
19 26
18 26
17 26
16 27
15 27
14 28
13 29
12 29
11 30
10 31
9 32
8 33
8 34
7 35
7 36
6 37
6 38
6 39
5 40
5 41
5 42
4 43
3 44
3 45
3 46
3 47
3 48
2 49
2 50
2 51
2 52
2 53
2 54
3 55
4 55
5 56
6 57
7 57
8 57
9 58
10 58
11 59
12 59
13 59
14 60
15 60
16 60
17 60
18 61
19 61
20 61
21 61
22 61
23 61
24 62
25 62
26 62
27 62
28 62
29 63
30 63
31 63
32 63
33 63
34 63
35 63
36 64
37 64
38 64
39 64
40 64
41 64
42 64
43 64
44 64
45 65
46 65
47 66
47 67
48 68
49 69
49 70
50 71
51 72
52 73
52 74
53 75
54 76
55 77
56 78
57 79
57 80
58 81
59 82
59 83
60 84
61 85
62 86
63 86
64 85
64 84
65 83
65 82
65 81
65 80
65 79
65 78
64 78
63 77
64 76
64 75
63 75
62 74
63 73
62 73
61 72
62 71
62 70
62 69
62 68
62 67
63 66
64 66
65 66
66 66
67 66
68 66
69 66
70 66
71 66
72 66
73 66
74 66
75 66
76 66
77 66
78 66
79 66
80 66
81 66
82 66
83 66
84 66
85 66
86 66
87 66
88 66
89 66
90 66
91 66
92 66
93 65
94 65
95 65
96 65
97 64
98 64
99 64
100 65
101 66
102 67
103 68
104 69
105 69
106 70
107 70
108 71
109 71
110 72
110 73
111 73
112 74
113 74
114 73
114 72
115 71
115 70
116 69
117 69
118 68
119 68
120 67
121 67
122 67
123 67
124 66
125 66
126 66
127 65
128 65
129 65
130 64
131 64
132 64
133 64
134 63
135 63
136 63
137 63
138 62
139 62
140 62
141 62
142 61
143 61
144 61
145 61
146 61
147 60
148 60
149 60
150 60
151 59
152 59
153 59
154 59
155 59
156 58
157 58
158 58
159 58
160 57
161 57
162 57
163 57
164 56
165 56
166 56
167 56
168 56
169 56
170 55
171 55
172 55
173 55
174 55
175 54
176 54
177 54
178 54
179 54
180 54
181 53
182 53
183 53
184 53
185 52
186 52
187 52
188 52
189 52
190 52
191 51
192 51
193 51
194 51
195 51
196 50
197 50
198 50
199 50
200 50
201 50
202 50
203 50
203 49
204 48
205 48
206 49
207 50
208 51
209 52
210 52
211 52
212 53
213 53
214 54
215 54
216 54
217 55
218 56
219 56
220 56
221 57
222 57
223 57
224 58
225 59
226 59
227 59
228 59
229 60
230 60
231 60
232 61
233 61
234 61
235 62
236 62
237 63
238 63
239 63
240 63
241 63
242 63
243 64
244 64
245 64
246 64
247 64
248 64
249 64
250 64
250 63
251 62
250 62
249 62
248 61
247 61
246 60
245 60
244 59
243 59
242 58
241 57
240 57
239 56
238 55
237 54
236 53
235 53
234 52
233 51
232 50
231 49
230 48
229 47
228 46
227 46
226 45
225 44
224 43
223 42
222 41
221 40
220 39
221 38
221 37
222 36
223 35
223 34
224 33
225 32
226 31
227 31
228 30
229 29
230 28
231 27
232 26
233 25
234 25
234 24
235 23
236 23
237 22
238 21
239 21
240 20
241 19
242 19
243 18
244 18
245 17
246 16
247 16
247 15
248 14
248 13
247 13
246 12
245 12
244 13
243 13
242 13
241 13
240 14
239 14
238 14
237 14
236 15
235 15
234 15
233 16
232 16
231 16
230 17
229 18
228 18
227 18
226 18
225 19
224 19
223 20
222 20
221 21
220 21
219 22
218 22
217 23
216 24
215 25
214 25
213 26
212 26
212 27
211 28
210 28
209 28
208 29
207 30
206 31
205 32
204 33
203 33
202 33
201 32
200 32
199 31
198 31
197 31
196 31
195 31
194 30
193 30
192 30
191 29
190 29
189 29
188 28
187 28
186 28
185 27
184 27
183 27
182 26
181 26
180 26
179 25
178 25
177 25
176 25
175 25
174 24
173 24
172 24
171 23
170 23
169 23
168 23
167 23
166 22
165 22
164 22
163 21
162 21
161 21
160 21
159 20
158 20
157 20
156 20
155 19
154 19
153 19
152 19
151 18
150 18
149 18
148 18
147 18
146 18
145 17
144 17
143 16
142 16
141 16
140 16
139 16
138 15
137 15
136 15
135 15
134 15
133 14
132 14
131 14
130 14
129 14
128 14
127 13
126 13
125 13
124 12
123 12
122 12
121 12
120 12
119 11
118 11
117 11
116 11
115 11
114 10
113 10
112 10
111 10
110 9
109 9
108 9
107 9
106 9
105 9
104 8
103 8
102 8
101 8
100 8
99 7
98 7
97 7
96 7
95 7
94 6
93 6
92 6
91 6
90 5
89 5
88 5
87 5
86 5
85 5
84 5
83 4
82 4
81 4
80 4
79 4
78 4
77 3
76 3
75 3
74 3
73 3
72 3
71 3
70 3
69 3
68 2
67 2
66 2
65 2
64 2
63 2
62 2
61 2
60 2
59 2
58 2
57 2
56 2
55 2
54 2
53 2
52 2
51 2
50 2
49 2
48 2
47 2
46 2
45 2
44 2
43 2
