66 2
65 3
64 4
63 5
62 5
61 5
61 6
61 7
60 8
60 9
60 10
60 11
59 12
59 13
58 14
58 15
57 16
56 17
55 17
55 18
54 19
53 19
52 19
51 19
50 19
49 19
48 20
47 20
46 20
45 20
44 20
43 20
42 21
41 21
40 21
39 22
38 22
37 22
36 22
35 23
34 24
33 24
32 25
31 25
30 25
29 26
28 26
27 27
26 27
25 27
24 28
23 28
22 29
21 29
20 30
19 30
18 31
17 32
16 33
15 34
14 34
13 35
12 35
11 36
10 37
9 37
8 38
7 39
6 40
5 40
5 41
5 42
4 43
3 44
3 45
2 46
2 47
2 48
3 49
3 50
4 51
5 52
6 52
7 53
8 53
9 54
10 54
11 55
12 55
13 55
14 56
15 56
16 56
17 57
18 57
19 57
20 57
21 57
22 58
23 58
24 59
25 59
26 59
27 60
28 60
29 60
30 60
31 60
32 61
33 61
34 61
35 61
36 61
37 61
38 61
39 61
40 62
41 62
42 62
43 62
44 62
45 62
46 63
47 63
48 63
49 63
50 63
51 63
52 63
53 63
54 63
55 64
56 65
57 66
57 67
58 68
59 69
60 70
61 71
61 72
62 73
63 72
64 73
65 73
66 74
66 75
67 76
67 77
68 78
69 79
70 80
71 80
72 81
73 80
73 79
74 78
74 77
74 76
74 75
74 74
74 73
74 72
74 71
74 70
73 70
72 69
73 68
73 67
73 66
72 66
71 65
72 64
73 64
74 64
75 64
76 64
77 64
78 64
79 64
80 64
81 64
82 63
83 63
84 63
85 63
86 63
87 63
88 63
89 63
90 63
91 63
92 63
93 63
94 63
95 63
96 63
97 63
98 63
99 63
100 63
101 63
102 63
103 63
104 63
105 63
106 63
107 63
108 63
109 63
110 63
111 63
112 63
113 63
114 62
115 62
116 62
117 63
118 63
119 63
120 63
121 64
122 65
123 66
124 67
125 68
126 69
127 69
128 68
129 68
130 68
131 68
132 68
133 68
134 68
135 67
136 66
137 65
138 64
139 63
140 62
140 61
141 60
141 59
140 59
139 58
140 57
141 56
142 56
143 56
144 56
145 56
146 56
147 55
148 55
149 55
150 55
151 55
152 55
153 55
154 55
155 55
156 55
157 55
158 55
159 55
160 55
161 55
162 55
163 55
164 56
165 56
166 56
167 56
168 57
169 57
170 57
171 57
172 57
173 57
174 58
175 58
176 59
177 59
178 60
179 60
180 60
181 60
182 61
183 61
184 61
185 62
186 62
187 62
188 63
189 63
190 63
191 63
192 64
193 64
194 64
195 65
196 65
197 65
198 65
199 65
200 65
201 64
202 63
202 62
203 61
203 60
204 59
204 58
204 57
204 56
204 55
204 54
204 53
204 52
204 51
203 51
202 50
203 49
203 48
203 47
203 46
203 45
203 44
203 43
203 42
203 41
203 40
204 39
204 38
204 37
204 36
204 35
204 34
204 33
205 32
205 31
205 30
205 29
205 28
205 27
205 26
204 26
203 26
202 26
201 25
200 26
199 26
198 26
197 26
196 26
195 26
194 27
193 27
192 27
191 27
190 27
189 28
188 28
187 28
186 28
185 29
184 29
183 29
182 29
181 30
180 30
179 30
178 31
177 31
176 31
175 32
174 33
173 33
172 34
171 35
170 35
169 36
168 36
167 37
166 37
165 37
164 37
163 37
162 37
161 38
160 38
159 38
158 38
157 38
156 38
155 37
156 36
157 35
158 35
159 35
159 34
159 33
159 32
158 32
157 31
156 31
155 30
154 29
153 29
152 28
151 28
150 27
149 27
148 26
147 26
146 26
145 25
144 25
143 24
142 23
141 22
140 22
139 22
138 21
137 21
136 20
135 20
134 20
133 19
132 19
131 19
130 18
129 18
128 18
127 17
126 17
125 17
124 17
123 16
122 16
121 16
120 15
119 15
118 15
117 14
116 14
115 14
114 13
113 13
112 13
111 12
110 12
109 12
108 12
107 11
106 11
105 11
104 11
103 11
102 11
101 12
100 13
99 13
98 14
97 14
96 13
95 14
94 15
93 16
92 17
91 18
90 18
89 17
88 16
89 15
88 15
87 15
86 14
85 13
86 12
85 12
84 12
83 12
82 11
83 10
82 10
81 10
80 10
79 9
78 8
77 8
76 8
75 7
76 6
76 5
75 5
74 6
73 5
72 4
71 3
70 3
69 3
68 3
67 2
