63 2
63 3
62 4
62 5
62 6
61 7
61 8
60 9
60 10
59 11
59 12
59 13
58 14
57 15
56 16
56 17
56 18
55 19
55 20
54 21
53 21
52 22
51 22
50 23
49 23
48 24
47 24
46 24
45 25
44 25
43 25
42 26
41 26
40 26
39 27
38 27
37 27
36 28
35 28
34 29
33 29
32 30
31 30
30 31
29 32
28 33
27 33
26 34
25 34
24 35
23 36
22 36
21 37
20 37
19 38
18 39
17 39
17 40
16 41
15 42
14 43
13 44
12 45
11 46
10 47
9 48
8 49
7 50
6 51
6 52
5 53
4 54
4 55
3 56
3 57
3 58
2 59
2 60
2 61
2 62
3 63
4 63
5 64
5 65
5 66
5 67
6 68
7 68
8 69
9 69
10 68
11 68
12 68
13 68
14 68
15 68
16 68
17 68
18 68
19 68
20 68
21 68
22 68
23 68
24 69
25 69
26 69
27 69
28 69
29 69
30 69
31 69
32 69
33 69
34 69
35 70
36 70
37 70
38 70
39 70
40 70
41 70
42 70
43 70
44 70
45 70
46 70
47 70
48 70
49 70
50 70
51 70
52 70
53 70
54 70
55 70
56 71
57 71
58 71
59 71
60 71
61 71
62 72
62 73
62 74
62 75
62 76
62 77
62 78
62 79
62 80
62 81
62 82
63 83
64 83
65 84
66 85
66 86
67 87
67 88
68 89
69 90
70 90
71 91
72 91
73 92
74 92
75 91
76 90
77 89
78 88
78 87
79 86
79 85
79 84
79 83
80 82
80 81
80 80
80 79
79 79
78 78
79 77
78 77
77 77
76 76
77 75
76 75
75 74
76 73
77 72
78 72
79 72
80 72
81 72
82 72
83 72
84 72
85 72
86 71
87 71
88 71
89 71
90 71
91 71
92 71
93 71
94 71
95 71
96 71
97 71
98 71
99 70
100 70
101 70
102 70
103 70
104 70
105 70
106 70
107 70
108 69
109 69
110 69
111 69
112 69
113 69
114 68
115 68
116 68
117 69
118 70
119 70
120 71
121 72
122 73
123 74
124 75
124 76
125 77
126 78
127 78
128 78
129 79
130 80
131 81
132 82
133 82
134 83
135 84
136 84
137 84
137 83
138 82
138 81
139 80
139 79
139 78
139 77
139 76
140 75
140 74
140 73
140 72
140 71
140 70
141 69
141 68
141 67
141 66
141 65
142 64
143 64
144 64
145 65
146 65
147 65
148 65
149 65
150 65
151 65
152 65
153 65
154 66
155 66
156 66
157 66
158 67
159 67
160 67
161 67
162 67
163 68
164 68
165 68
166 68
167 68
168 69
169 69
170 69
171 69
172 69
173 69
174 69
175 70
176 70
177 70
178 70
179 70
180 71
181 71
182 71
183 71
184 71
185 71
186 72
187 72
188 72
189 72
190 72
191 72
192 72
193 72
194 72
195 72
196 72
197 72
197 71
198 70
198 69
198 68
199 67
199 66
199 65
200 64
200 63
200 62
200 61
200 60
201 59
201 58
201 57
201 56
201 55
202 54
202 53
202 52
202 51
201 51
200 50
201 49
201 48
201 47
200 47
199 46
200 45
200 44
200 43
200 42
201 41
201 40
202 39
202 38
203 37
203 36
202 36
201 37
200 37
199 37
198 37
197 37
196 37
195 38
194 38
193 38
192 38
191 38
190 38
189 38
188 39
187 39
186 39
185 39
184 39
183 40
182 41
181 41
180 41
179 42
178 42
177 42
176 43
175 43
174 43
173 43
172 43
171 44
170 44
169 44
168 45
167 45
166 45
165 45
164 46
163 46
162 46
161 46
160 46
159 46
158 46
157 46
156 46
155 45
154 45
153 45
152 44
153 43
154 43
155 43
156 43
157 43
158 42
158 41
159 40
159 39
159 38
158 38
157 38
156 37
155 37
154 36
153 36
152 35
151 35
150 34
149 34
148 33
147 33
146 33
145 32
144 31
143 30
142 30
141 29
140 29
139 29
138 28
137 28
136 27
135 27
134 27
133 26
132 26
131 25
130 25
129 25
128 24
127 24
126 24
125 23
124 23
123 22
122 21
121 21
120 21
119 20
118 20
117 20
116 19
115 19
114 19
113 19
112 18
111 18
110 18
109 17
108 17
107 17
106 17
105 16
104 16
103 16
102 15
101 15
100 15
99 15
98 15
97 15
96 15
95 15
94 16
93 17
92 17
91 18
90 19
89 19
88 20
87 20
86 20
85 20
84 20
83 19
83 18
82 18
81 17
80 16
81 15
80 15
79 15
78 14
79 13
78 13
77 13
76 12
77 11
77 10
76 10
75 10
74 10
73 9
74 8
74 7
73 7
72 7
71 6
72 5
72 4
71 4
70 4
69 4
68 3
69 2
68 2
67 2
66 2
65 3
64 2
