64 2
63 3
62 3
61 4
60 5
59 6
58 7
58 8
57 9
57 10
56 11
55 12
55 13
54 14
53 15
52 16
51 17
50 18
49 18
48 18
47 18
46 18
45 18
44 18
43 19
42 19
41 19
40 19
39 19
38 20
37 20
36 20
35 20
34 20
33 21
32 21
31 21
30 21
29 22
28 22
27 22
26 22
25 22
24 23
23 23
22 23
21 24
20 24
19 24
18 25
17 25
16 25
15 25
14 26
13 27
12 28
11 28
10 28
9 29
8 30
7 31
6 32
5 32
5 33
5 34
6 35
7 35
8 36
7 37
6 37
5 37
4 37
3 37
2 37
2 38
2 39
2 40
3 41
4 41
5 42
6 42
7 43
8 43
9 44
10 45
11 45
12 45
13 45
14 45
15 46
16 46
17 46
18 46
19 46
20 46
21 47
22 47
23 47
24 47
25 47
26 48
27 48
28 48
29 48
30 48
31 48
32 49
33 49
34 49
35 49
36 49
37 49
38 49
39 49
40 49
41 49
42 49
43 49
44 49
45 50
46 51
46 52
46 53
47 54
47 55
48 56
48 57
48 58
49 59
49 60
50 61
50 62
50 63
51 64
52 65
52 66
53 67
54 68
55 69
56 68
57 67
57 66
58 65
58 64
58 63
58 62
58 61
59 60
59 59
59 58
59 57
60 56
60 55
60 54
59 54
58 53
57 52
56 52
55 51
56 50
57 50
58 50
59 51
60 51
61 51
62 51
63 51
64 51
65 51
66 51
67 51
68 51
69 51
70 51
71 51
72 51
73 51
74 51
75 51
76 51
77 51
78 51
79 51
80 51
81 51
82 51
83 51
84 51
85 51
86 51
87 51
88 51
89 51
90 51
91 51
92 51
93 51
94 51
95 51
96 50
97 50
98 50
99 50
100 50
101 50
102 50
103 50
104 50
105 50
106 50
107 50
108 50
109 50
110 49
111 49
112 49
113 49
114 50
115 51
116 51
117 52
118 53
119 54
120 54
121 55
122 56
123 56
124 57
125 57
126 58
127 58
128 58
129 58
130 58
130 57
131 56
131 55
131 54
132 53
132 52
132 51
133 50
133 49
134 48
134 47
135 46
135 45
136 44
137 44
138 43
139 43
140 43
141 43
142 43
143 43
144 43
145 43
146 43
147 43
148 43
149 43
150 44
151 44
152 45
153 45
154 45
155 46
156 46
157 47
158 47
159 48
160 48
161 48
162 49
163 49
164 50
165 50
166 51
167 51
168 51
169 51
170 51
171 51
172 51
173 52
174 52
175 52
176 51
177 50
178 50
178 49
179 48
179 47
180 46
180 45
181 44
181 43
181 42
181 41
181 40
181 39
181 38
181 37
181 36
181 35
181 34
181 33
181 32
181 31
181 30
181 29
181 28
180 28
179 27
180 26
180 25
179 25
178 24
177 24
176 23
175 23
174 23
173 22
172 22
171 22
170 22
169 22
168 22
167 23
166 23
165 23
164 24
163 24
162 24
161 25
160 25
159 25
158 26
157 27
156 28
155 28
154 29
153 29
152 29
151 29
150 29
149 30
148 30
147 30
146 30
145 30
144 30
143 29
142 30
141 29
140 29
139 29
138 28
138 27
139 26
139 25
139 24
138 24
137 23
136 23
135 22
134 22
133 22
132 21
131 21
130 21
129 20
128 20
127 20
126 19
125 19
124 19
123 19
122 18
121 18
120 17
119 17
118 17
117 16
116 16
115 16
114 15
113 15
112 15
111 14
110 14
109 14
108 13
107 13
106 13
105 13
104 12
103 12
102 12
101 12
100 12
99 12
98 12
97 12
96 12
95 12
94 12
93 13
92 13
91 13
90 14
89 15
88 15
87 15
86 16
85 17
84 17
83 17
82 16
81 15
80 15
79 14
78 13
77 13
76 12
77 11
76 11
75 10
74 9
75 8
74 8
73 7
72 6
71 5
70 4
69 3
68 3
67 2
66 2
65 2
