93 1
92 2
92 3
91 4
90 5
90 6
89 7
88 8
87 9
86 10
85 10
84 10
84 11
83 12
82 13
82 14
81 15
81 16
80 17
80 18
79 19
79 20
78 21
77 22
77 23
76 24
75 25
75 26
74 27
73 27
72 28
71 28
70 28
69 28
68 28
67 28
66 29
65 29
64 29
63 29
62 29
61 30
60 30
59 30
58 30
57 30
56 31
55 31
54 31
53 31
52 32
51 32
50 32
49 32
48 33
47 33
46 33
45 33
44 34
43 34
42 34
41 35
40 35
39 35
38 35
37 36
36 37
35 37
34 38
33 38
32 39
31 39
30 39
29 40
28 40
27 41
26 41
25 41
24 42
23 42
22 42
21 43
20 43
19 43
18 44
17 44
16 45
15 46
14 47
13 47
12 48
11 48
10 49
9 49
8 50
7 51
6 52
5 53
4 54
4 55
4 56
3 57
3 58
3 59
2 60
2 61
2 62
3 63
4 64
5 64
6 65
7 65
8 66
9 67
8 68
7 68
6 68
5 68
4 68
3 69
3 70
3 71
3 72
4 73
4 74
5 74
6 74
7 75
8 74
9 75
10 75
11 75
12 76
13 75
14 75
15 75
16 76
17 75
18 76
19 76
20 76
21 76
22 77
23 77
24 77
25 77
26 78
27 78
28 78
29 79
30 79
31 80
32 80
33 80
34 81
35 81
36 81
37 82
38 82
39 82
40 83
41 83
42 83
43 83
44 84
45 84
46 84
47 84
48 84
49 84
50 85
51 85
52 85
53 86
54 86
55 86
56 86
57 86
58 87
59 87
60 87
61 87
62 87
63 88
64 88
65 89
66 89
67 89
68 90
69 90
70 90
71 90
72 91
73 91
74 91
75 91
76 92
76 93
76 94
77 95
77 96
78 97
78 98
79 99
79 100
80 101
80 102
81 103
81 104
82 105
82 106
82 107
83 108
83 109
84 110
84 111
85 112
86 113
87 114
87 115
87 116
88 117
88 118
89 119
90 120
91 121
92 122
93 123
94 123
95 122
96 121
96 120
97 119
97 118
97 117
97 116
98 115
98 114
98 113
98 112
99 111
99 110
100 109
100 108
100 107
101 106
101 105
101 104
101 103
102 102
102 101
102 100
102 99
101 99
100 98
99 97
98 96
97 96
96 95
95 95
94 94
93 94
92 93
93 92
94 92
95 92
96 92
97 92
98 92
99 92
100 92
101 92
102 92
103 92
104 93
105 93
106 93
107 93
108 93
109 93
110 93
111 93
112 93
113 93
114 93
115 93
116 93
117 93
118 93
119 92
120 92
121 92
122 92
123 92
124 92
125 92
126 92
127 92
128 91
129 91
130 91
131 91
132 91
133 91
134 90
135 90
136 90
137 90
138 90
139 89
140 89
141 89
142 88
143 88
144 88
145 88
146 88
147 89
148 90
149 91
150 92
151 93
152 94
152 95
153 96
154 96
155 97
156 98
157 99
158 99
159 100
160 101
161 102
162 103
163 103
164 104
165 105
166 106
167 107
168 108
169 108
170 109
171 109
172 109
173 109
174 109
175 108
175 107
176 106
176 105
177 104
177 103
177 102
177 101
177 100
178 99
178 98
178 97
178 96
179 95
179 94
179 93
180 92
180 91
180 90
180 89
180 88
180 87
181 86
181 85
180 85
179 84
178 84
177 83
176 83
175 82
174 82
173 81
172 81
171 80
172 79
173 78
174 78
175 78
176 77
177 77
178 77
179 76
180 76
181 76
182 75
183 75
184 75
185 75
186 74
187 74
188 74
189 74
190 73
191 73
192 73
193 73
194 73
195 73
196 73
197 73
198 73
199 73
200 73
201 73
202 73
203 73
204 73
205 73
206 73
207 73
208 73
209 74
210 74
211 74
212 74
213 74
214 74
215 74
216 74
217 74
218 74
219 75
220 75
221 75
222 75
223 76
224 76
225 76
226 77
227 77
228 77
229 78
230 78
231 78
232 78
233 79
234 79
235 80
236 80
237 80
238 80
239 81
240 81
241 81
242 81
243 81
244 82
245 82
246 82
247 82
248 81
248 80
249 79
249 78
249 77
249 76
249 75
249 74
250 73
250 72
250 71
250 70
250 69
250 68
250 67
251 66
252 65
252 64
253 63
253 62
254 61
254 60
254 59
253 58
254 57
254 56
253 56
252 55
253 54
253 53
252 53
251 52
252 51
251 51
250 50
251 49
251 48
250 48
249 47
250 46
250 45
250 44
250 43
250 42
250 41
250 40
249 40
248 39
247 39
246 39
245 39
244 39
243 39
242 39
241 39
240 40
239 40
238 40
237 40
236 41
235 41
234 41
233 42
232 42
231 42
230 43
229 43
228 43
227 44
226 44
225 44
224 45
223 45
222 46
221 46
220 47
219 47
218 47
217 48
216 48
215 48
214 48
213 48
212 49
211 49
210 49
209 49
208 50
207 50
206 50
205 50
204 50
203 50
202 50
201 51
200 51
199 51
198 50
199 49
200 48
201 47
201 46
202 45
202 44
202 43
202 42
202 41
201 41
200 40
199 39
198 39
197 38
196 37
195 36
194 35
193 35
192 34
191 34
190 33
189 33
188 33
187 32
186 32
185 31
184 31
183 31
182 30
181 30
180 30
179 29
178 29
177 29
176 28
175 28
174 28
173 27
172 27
171 27
170 26
169 26
168 26
167 26
166 26
165 25
164 25
163 25
162 25
161 24
160 24
159 24
158 24
157 24
156 23
155 23
154 23
153 23
152 22
151 22
150 22
149 22
148 22
147 22
146 22
145 21
144 21
143 21
142 21
141 21
140 21
139 21
138 21
137 21
136 21
135 21
134 21
133 21
132 21
131 22
130 22
129 23
128 23
127 23
126 24
125 24
124 25
123 25
122 26
121 26
120 26
119 27
118 27
117 27
116 27
115 28
114 28
113 28
112 27
113 26
113 25
113 24
112 24
111 23
112 22
111 22
110 21
111 20
111 19
111 18
111 17
110 17
109 17
108 16
109 15
108 15
107 14
108 13
107 13
106 12
105 11
104 10
105 9
104 9
103 9
102 8
101 7
102 6
101 6
100 6
99 5
98 4
97 3
96 3
95 3
94 3
93 2
94 1
