80 2
79 3
78 4
77 5
76 5
75 5
74 5
73 5
72 6
71 7
70 8
70 9
69 10
68 10
67 10
66 11
66 12
65 13
65 14
64 15
64 16
63 17
62 17
61 18
60 18
59 19
58 19
57 19
56 19
55 19
54 19
53 19
52 19
51 19
50 19
49 20
48 20
47 20
46 20
45 20
44 21
43 21
42 21
41 22
40 22
39 22
38 22
37 22
36 22
35 22
34 23
33 23
32 23
31 24
30 24
29 24
28 24
27 25
26 25
25 25
24 26
23 26
22 26
21 27
20 28
19 28
18 28
17 28
16 29
15 30
14 30
13 31
12 31
11 31
10 32
9 33
8 33
7 34
6 34
5 35
4 35
3 36
2 37
2 38
2 39
2 40
2 41
2 42
2 43
2 44
3 44
4 45
4 46
4 47
5 47
6 48
6 49
7 49
8 50
9 51
10 52
11 53
12 54
13 54
14 55
15 56
16 56
17 57
18 58
19 58
20 59
21 59
22 59
23 60
24 61
25 61
26 62
27 62
28 62
29 63
30 63
31 63
32 63
33 64
34 64
35 64
36 65
37 65
38 65
39 65
40 65
41 65
42 65
43 65
44 66
45 66
46 66
47 67
48 67
49 67
50 67
51 67
52 67
53 68
54 68
55 68
56 68
57 68
58 68
59 69
60 70
60 71
60 72
60 73
61 74
62 75
62 76
62 77
63 78
63 79
64 80
65 81
65 82
66 83
66 84
67 84
68 84
68 83
69 82
70 83
71 84
72 84
73 84
74 83
74 82
75 81
75 80
75 79
75 78
75 77
75 76
75 75
74 75
73 74
72 73
71 72
70 71
71 70
70 70
69 70
68 69
69 68
70 68
71 68
72 68
73 68
74 68
75 68
76 68
77 68
78 68
79 68
80 68
81 68
82 68
83 68
84 68
85 68
86 68
87 68
88 68
89 68
90 68
91 68
92 68
93 67
94 67
95 67
96 67
97 67
98 66
99 66
100 66
101 66
102 65
103 65
104 65
105 65
106 65
107 65
108 65
109 65
110 65
111 65
112 65
113 64
114 64
115 64
116 64
117 65
118 65
119 66
119 67
120 68
121 68
122 68
123 68
124 68
125 68
126 67
127 68
128 68
129 68
130 68
131 68
132 68
133 68
134 68
135 67
136 66
137 65
138 65
139 65
140 64
141 63
142 63
143 63
144 62
145 62
146 61
147 61
148 61
149 60
150 60
151 59
152 59
153 59
154 59
155 58
156 57
157 57
158 56
159 56
160 56
161 56
162 55
163 55
164 55
165 54
166 54
167 54
167 53
168 52
167 52
166 52
165 52
164 51
163 50
164 49
165 49
166 49
167 49
168 49
169 49
170 49
171 49
172 49
173 49
174 49
175 49
176 49
177 50
178 50
179 50
180 51
181 51
182 52
183 52
184 53
185 53
186 53
187 54
188 54
189 54
190 55
191 55
192 56
193 56
194 56
195 56
196 56
197 56
198 57
199 57
200 58
201 58
202 59
203 59
204 59
205 59
206 59
207 60
208 60
209 61
210 61
211 61
212 61
213 61
214 61
215 61
216 61
217 61
217 60
218 59
218 58
218 57
217 57
216 56
215 55
214 54
213 53
212 52
211 51
210 50
209 49
208 48
207 47
206 46
205 46
204 45
203 44
202 43
201 42
200 41
199 40
198 40
197 39
198 38
198 37
198 36
199 35
199 34
200 33
201 32
202 31
203 30
204 29
205 28
205 27
206 26
207 26
208 25
209 24
209 23
210 22
211 21
212 20
212 19
213 18
213 17
213 16
214 15
214 14
214 13
213 13
212 12
211 12
210 13
209 13
208 13
207 13
206 13
205 14
204 14
203 15
202 16
201 16
200 16
199 17
198 17
197 17
196 18
195 19
194 19
193 19
192 20
191 20
190 21
189 22
188 22
187 22
186 23
185 24
184 24
183 25
182 25
181 26
180 26
179 27
178 28
177 28
176 29
175 30
174 31
173 31
172 31
171 32
170 32
169 32
168 32
167 32
166 32
165 32
164 31
163 31
162 31
161 31
160 30
159 30
158 29
157 29
156 28
157 27
158 26
159 26
160 26
161 26
161 25
162 24
162 23
161 23
160 23
159 23
158 22
157 22
156 22
155 22
154 22
153 22
152 21
151 20
150 20
149 19
148 19
147 19
146 19
145 18
144 17
143 17
142 17
141 16
140 16
139 15
138 15
137 14
136 13
135 13
134 12
133 12
132 12
131 11
130 10
129 10
128 10
127 10
126 10
125 9
124 9
123 9
122 9
121 10
120 10
119 10
118 10
117 10
116 10
115 10
114 10
113 10
112 10
111 10
110 9
109 9
108 8
107 8
106 8
105 8
104 7
103 7
102 7
101 7
100 7
99 7
98 6
97 5
96 5
95 5
94 5
93 5
92 4
91 4
90 4
89 3
88 3
87 3
86 3
85 2
84 2
83 2
82 3
81 2
