88 2
87 3
87 4
86 5
85 5
84 6
84 7
83 8
82 8
81 8
80 8
79 9
79 10
78 11
78 12
78 13
77 14
77 15
76 16
76 17
75 18
75 19
74 20
73 20
72 20
71 20
70 20
69 20
68 20
67 20
66 21
65 21
64 22
63 22
62 23
61 23
60 23
59 23
58 23
57 24
56 24
55 25
54 25
53 26
52 26
51 26
50 27
49 28
48 28
47 29
46 29
45 30
44 30
43 31
42 32
41 32
40 32
39 32
39 33
38 34
37 35
36 35
35 35
34 36
33 37
32 37
31 38
30 39
29 39
28 40
27 41
26 42
25 42
25 43
24 44
23 44
22 45
21 46
20 47
19 48
18 49
17 50
16 50
16 51
15 52
14 53
13 54
12 55
11 56
10 57
10 58
9 59
8 60
7 60
7 61
6 62
5 62
5 63
4 64
3 65
3 66
2 67
2 68
2 69
3 70
3 71
3 72
4 72
5 72
6 72
7 73
8 73
9 74
8 75
7 75
6 75
5 75
4 74
3 74
3 75
3 76
3 77
3 78
3 79
3 80
4 81
5 81
6 82
7 83
8 83
9 84
10 85
11 85
12 86
13 86
14 87
15 87
16 87
17 88
18 88
19 89
20 89
21 90
22 90
23 90
24 91
25 92
26 92
27 93
28 93
29 93
30 94
31 95
32 95
33 95
34 96
35 96
36 96
37 97
38 97
39 97
40 97
41 98
42 98
43 98
44 99
45 99
46 99
47 99
48 99
49 99
50 99
51 100
52 100
53 100
54 101
55 102
56 102
57 102
58 102
59 102
60 102
61 103
62 103
63 103
64 104
65 104
66 104
67 104
68 105
69 105
70 105
71 105
72 106
72 107
73 108
74 109
74 110
75 111
75 112
75 113
75 114
76 115
76 116
76 117
77 118
78 119
78 120
78 121
79 122
79 123
80 124
81 125
81 126
81 127
82 128
83 129
84 130
84 131
85 131
86 132
87 133
87 134
88 135
89 135
90 136
90 137
91 137
92 138
93 138
94 137
95 136
95 135
96 134
96 133
97 132
97 131
97 130
97 129
97 128
98 127
98 126
98 125
98 124
98 123
99 122
99 121
99 120
99 119
99 118
100 117
100 116
100 115
100 114
100 113
100 112
100 111
100 110
100 109
99 109
98 109
97 108
98 107
99 107
100 107
101 107
102 107
103 107
104 107
105 107
106 107
107 107
108 107
109 107
110 107
111 107
112 107
113 107
114 107
115 107
116 107
117 106
118 106
119 106
120 106
121 106
122 106
123 106
124 106
125 106
126 106
127 106
128 106
129 106
130 107
131 108
132 109
133 110
133 111
134 111
135 112
136 113
137 114
138 115
138 116
139 116
139 115
140 114
141 114
142 114
143 114
144 115
145 115
145 114
146 113
147 113
148 114
149 114
150 114
151 114
152 114
153 114
154 114
155 113
156 112
157 111
158 111
159 111
160 110
161 109
162 108
163 107
164 107
164 106
165 105
166 105
167 104
168 103
168 102
169 101
170 100
171 99
171 98
172 97
172 96
173 95
173 94
174 93
174 92
174 91
175 90
175 89
175 88
175 87
175 86
174 86
173 86
172 86
171 86
170 86
169 86
168 86
167 86
166 85
167 84
168 84
169 84
170 84
171 84
172 84
173 83
174 83
175 83
176 84
177 84
178 84
179 84
180 84
181 84
182 85
183 85
184 86
185 86
186 86
187 87
188 87
189 88
190 88
191 88
192 89
193 90
194 90
195 90
196 91
197 91
198 92
199 93
200 93
201 93
202 94
203 94
204 95
205 95
206 96
207 96
208 97
209 97
210 98
211 99
212 99
213 99
214 99
215 100
216 101
217 102
218 102
219 102
220 103
221 104
222 104
223 105
224 105
225 105
226 105
227 105
228 106
229 106
230 106
231 106
232 106
233 106
234 105
234 104
235 103
235 102
234 102
233 101
232 101
231 100
232 99
231 99
230 98
229 97
228 96
229 95
228 95
227 95
226 94
227 93
226 93
225 92
224 91
225 90
224 90
223 89
222 88
221 87
222 86
221 86
220 86
219 85
220 84
220 83
219 83
218 82
217 81
216 80
215 79
214 78
213 77
212 76
213 75
214 74
215 73
216 72
217 72
218 71
218 70
219 69
220 69
221 68
222 67
223 66
223 65
224 64
225 63
226 62
227 61
228 60
228 59
229 58
230 57
231 57
232 56
233 55
234 54
235 53
236 53
237 52
238 51
239 50
240 49
241 48
241 47
240 47
239 46
238 46
237 47
236 47
235 47
234 47
233 47
232 47
231 47
230 47
229 47
228 48
227 48
226 48
225 48
224 49
223 49
222 50
221 50
220 50
219 50
218 50
217 51
216 51
215 52
214 52
213 53
212 53
211 53
210 53
209 54
208 54
207 55
206 55
205 55
204 56
203 56
202 56
201 57
200 57
199 57
198 57
197 58
196 58
195 58
194 59
193 59
192 59
191 59
190 59
189 60
188 60
187 61
186 61
185 62
184 62
183 62
182 62
181 63
180 63
179 63
178 63
177 63
176 63
175 63
174 62
173 62
172 62
171 62
170 61
171 60
172 60
173 60
174 60
175 59
176 58
177 57
178 57
178 56
179 55
179 54
180 53
180 52
179 52
178 51
179 50
178 50
177 49
178 48
177 48
176 47
175 46
174 45
173 44
172 44
171 43
170 42
169 41
168 41
167 40
166 39
165 39
164 38
163 38
162 38
161 37
160 37
159 36
158 36
157 35
156 35
155 35
154 35
153 34
152 33
151 32
150 32
149 31
150 30
149 30
148 30
147 30
146 29
145 28
144 27
143 27
142 26
141 26
140 25
141 24
141 23
140 23
139 23
138 23
137 23
136 22
137 21
137 20
136 20
135 20
134 20
133 20
132 19
133 18
133 17
133 16
132 16
131 16
130 16
129 17
128 18
127 18
126 17
125 16
126 15
126 14
126 13
125 13
124 13
123 14
122 14
121 14
120 13
119 12
120 11
120 10
119 10
118 9
117 9
116 10
115 11
114 11
113 10
112 10
111 9
112 8
112 7
112 6
112 5
111 5
110 5
109 6
108 6
107 7
106 7
105 6
106 5
105 5
104 4
103 4
102 5
101 6
100 6
99 5
98 5
97 4
96 3
95 3
94 4
93 5
92 6
91 6
90 6
89 5
90 4
90 3
90 2
89 2
