76 2
76 3
76 4
75 5
74 5
73 6
73 7
73 8
72 9
71 9
71 10
70 11
69 12
69 13
68 14
67 15
67 16
66 17
65 17
64 17
63 17
62 17
62 18
62 19
62 20
61 21
61 22
61 23
61 24
61 25
60 26
59 26
58 26
57 26
56 26
55 26
54 26
53 27
52 27
51 27
50 28
49 28
48 28
47 29
46 29
45 30
44 30
43 30
43 31
42 32
41 32
40 33
39 34
38 35
37 35
36 36
35 37
34 38
33 38
32 39
31 40
30 40
29 41
28 42
28 43
27 44
26 44
25 45
25 46
24 47
23 48
22 49
22 50
21 51
20 52
19 53
18 54
17 54
17 55
16 56
15 56
14 57
13 58
12 59
11 60
10 61
9 62
8 63
7 64
6 65
5 66
4 67
4 68
4 69
3 70
3 71
3 72
4 73
3 74
2 74
2 75
2 76
2 77
2 78
3 78
4 79
5 80
6 81
7 81
8 82
9 83
10 84
11 84
12 84
13 85
14 86
15 86
16 87
17 87
18 88
19 89
20 90
21 90
22 91
23 91
24 92
25 93
26 93
27 93
28 94
29 95
30 96
31 96
32 96
33 96
34 97
35 98
36 98
37 98
38 99
39 99
40 100
41 100
42 100
43 101
44 102
45 102
46 102
47 102
48 103
49 104
50 104
51 105
52 105
53 106
53 107
53 108
53 109
53 110
53 111
53 112
53 113
53 114
53 115
53 116
53 117
53 118
53 119
53 120
53 121
53 122
53 123
53 124
53 125
53 126
53 127
54 128
54 129
54 130
54 131
55 132
55 133
56 133
57 134
57 135
57 136
57 137
58 138
58 139
58 140
58 141
58 142
59 143
59 144
60 144
60 143
61 142
62 141
63 140
64 139
65 138
65 137
66 136
67 135
67 134
68 133
69 132
70 131
70 130
71 129
72 128
72 127
73 126
73 125
73 124
74 123
74 122
75 121
75 120
76 119
76 118
77 117
77 116
76 116
75 116
74 115
73 114
74 113
75 113
76 114
77 114
78 114
79 114
80 114
81 114
82 114
83 114
84 114
85 114
86 114
87 114
88 114
89 114
90 114
91 114
92 114
93 114
94 114
95 114
96 114
97 114
98 114
99 114
100 114
101 114
102 114
103 115
103 116
103 117
103 118
103 119
103 120
103 121
104 121
105 121
105 120
106 119
107 120
108 121
109 122
109 123
110 124
111 125
111 126
112 126
112 125
113 124
113 123
112 123
111 122
112 121
111 121
110 120
111 119
112 118
113 119
114 119
115 120
116 121
117 122
118 123
119 123
120 123
121 123
122 123
123 123
124 123
125 124
126 123
127 123
128 123
129 123
130 123
131 123
132 123
133 123
134 122
135 121
136 121
137 121
138 120
139 120
140 119
141 119
142 118
143 117
144 117
145 117
146 116
147 115
148 114
149 113
150 113
151 112
152 111
153 110
154 109
154 108
155 107
155 106
156 105
157 104
157 103
158 102
158 101
158 100
157 100
156 100
155 99
154 100
153 99
152 99
151 99
150 98
150 97
151 96
152 96
153 96
154 96
155 96
156 96
157 95
158 95
159 95
160 95
161 95
162 95
163 96
164 96
165 96
166 96
167 96
168 96
169 97
169 98
170 98
171 99
172 100
173 100
174 101
175 102
176 102
177 103
178 104
179 105
180 105
181 106
182 107
183 107
184 108
185 108
186 109
187 110
188 110
189 110
190 111
191 111
192 112
193 112
194 113
195 113
196 114
197 114
198 114
199 114
200 115
201 115
202 116
203 116
204 117
205 117
206 117
207 117
208 117
209 117
210 117
211 118
212 118
213 118
214 118
214 117
215 116
215 115
215 114
214 114
213 114
212 113
211 112
210 111
209 111
208 110
207 109
206 108
207 107
206 107
205 106
204 105
203 104
202 103
201 102
200 101
199 100
200 99
200 98
199 98
198 97
197 96
198 95
197 95
196 94
197 93
197 92
197 91
197 90
197 89
197 88
197 87
197 86
197 85
197 84
197 83
198 82
199 81
199 80
200 79
201 78
202 77
202 76
203 75
204 75
205 74
205 73
206 72
207 72
208 71
209 70
210 69
211 68
212 68
212 67
213 66
214 66
215 65
216 64
217 63
218 63
219 62
220 61
221 61
222 60
223 60
223 59
223 58
222 58
221 58
220 58
219 58
218 58
217 58
216 58
215 58
214 58
213 58
212 59
211 59
210 59
209 59
208 59
207 59
206 59
205 59
204 59
203 60
202 60
201 61
200 61
199 61
198 61
197 62
196 62
195 62
194 63
193 63
192 63
191 63
190 64
189 65
188 65
187 65
186 65
185 66
184 66
183 67
182 68
181 68
180 68
179 68
178 69
177 70
176 70
175 71
174 71
173 72
172 72
171 72
170 72
169 72
168 72
167 72
166 72
165 72
164 72
163 72
162 72
161 72
160 72
159 72
158 72
157 72
156 71
157 70
158 70
159 70
160 70
161 69
162 69
163 69
164 69
165 68
165 67
166 66
166 65
166 64
166 63
166 62
166 61
166 60
166 59
165 59
164 58
165 57
164 57
163 56
164 55
163 55
162 54
161 53
160 52
161 51
161 50
160 50
159 49
158 48
157 47
156 46
155 45
154 44
153 44
152 43
151 42
150 42
149 41
148 40
147 40
146 39
145 38
144 38
143 38
142 37
143 36
142 36
141 36
140 35
139 35
138 35
137 35
136 35
135 35
134 35
133 36
132 36
131 36
130 35
131 34
131 33
130 32
129 32
128 32
127 32
126 31
127 30
128 30
128 29
128 28
127 28
126 28
125 28
124 28
123 28
122 28
121 27
122 26
122 25
123 24
122 24
121 24
120 24
119 24
118 24
117 24
116 23
117 22
118 21
118 20
117 20
116 20
115 21
114 21
113 21
112 21
111 21
110 20
111 19
112 18
112 17
111 17
110 17
109 17
108 17
107 18
106 18
105 17
106 16
106 15
106 14
107 13
107 12
106 12
105 12
104 13
103 13
102 14
101 14
100 13
101 12
101 11
102 10
102 9
101 9
100 9
99 10
98 10
97 11
96 11
95 11
94 10
95 9
95 8
95 7
94 7
93 8
92 8
91 9
90 9
89 8
89 7
89 6
89 5
89 4
89 3
88 3
87 4
86 5
85 5
84 6
83 7
82 8
81 9
80 9
79 8
80 7
79 7
78 6
79 5
79 4
79 3
78 3
77 2
