67 1
66 2
66 3
65 4
64 5
64 6
63 7
62 6
61 6
61 7
60 8
60 9
60 10
59 11
59 12
58 13
57 13
56 13
56 14
56 15
55 16
54 17
53 17
52 17
51 18
50 18
49 18
48 18
47 18
46 18
45 18
44 18
43 19
42 19
41 19
40 19
39 19
38 20
37 20
36 20
35 21
34 21
33 22
32 22
31 23
30 23
29 24
28 24
27 25
26 25
25 26
24 26
23 27
22 28
21 28
20 29
19 30
18 31
17 32
16 33
15 34
14 35
13 36
12 37
11 37
10 38
9 39
9 40
8 41
7 42
6 43
6 44
5 45
4 46
4 47
3 48
3 49
2 50
2 51
2 52
2 53
2 54
2 55
2 56
2 57
2 58
3 59
3 60
2 61
2 62
2 63
2 64
2 65
3 66
3 67
4 68
5 69
6 69
7 70
8 70
9 71
10 71
11 71
12 71
13 72
14 72
15 72
16 73
17 73
18 74
19 74
20 75
21 75
22 75
23 76
24 76
25 76
26 77
27 77
28 77
29 78
30 78
31 78
32 78
33 79
34 79
35 79
36 79
37 80
38 80
39 80
40 80
41 81
42 81
43 81
44 81
45 81
46 81
47 82
48 82
49 82
50 82
51 82
52 82
53 82
54 82
55 82
56 82
57 83
58 84
59 85
59 86
60 87
60 88
61 89
61 90
62 91
63 92
63 93
64 94
65 95
66 96
67 97
68 98
68 99
69 100
70 101
71 102
72 103
73 102
73 101
74 100
74 99
74 98
74 97
74 96
73 96
72 95
73 94
73 93
74 92
73 92
72 91
73 90
73 89
73 88
73 87
73 86
73 85
73 84
72 84
71 83
72 82
73 82
74 82
75 82
76 82
77 82
78 82
79 82
80 82
81 82
82 82
83 82
84 82
85 82
86 82
87 82
88 82
89 82
90 82
91 82
92 82
93 81
94 81
95 81
96 81
97 81
98 80
99 80
100 80
101 80
102 80
103 81
103 82
104 83
105 84
106 84
107 83
108 83
109 84
110 84
111 85
112 86
113 87
113 88
114 88
114 87
115 86
116 85
116 84
117 83
118 82
119 82
120 82
121 82
122 81
123 81
124 80
125 80
126 79
127 79
128 78
129 78
130 77
131 77
132 76
133 75
134 74
135 74
136 73
137 72
138 72
139 71
140 70
141 69
142 68
142 67
143 66
142 66
141 66
140 66
139 65
140 64
141 64
142 64
143 64
144 64
145 64
146 63
147 64
148 64
149 64
150 64
151 65
152 65
153 65
154 66
155 66
156 67
157 68
158 68
159 69
160 70
161 70
162 71
163 71
164 72
165 73
166 74
167 75
168 76
169 77
170 78
171 78
172 79
173 80
174 81
175 82
176 83
177 83
178 84
179 84
180 85
181 86
182 86
183 87
184 87
185 88
186 89
187 89
188 90
189 90
190 90
190 89
191 88
191 87
191 86
191 85
190 85
189 84
190 83
189 83
188 82
189 81
189 80
188 80
187 79
188 78
188 77
187 77
186 76
187 75
187 74
186 74
185 73
186 72
186 71
185 71
184 70
185 69
185 68
185 67
184 67
183 66
184 65
183 65
182 64
183 63
183 62
182 62
181 61
182 60
182 59
182 58
181 58
180 57
181 56
181 55
181 54
181 53
181 52
181 51
182 50
182 49
182 48
183 47
183 46
184 45
184 44
185 43
185 42
186 41
186 40
186 39
187 38
187 37
187 36
188 35
188 34
188 33
189 32
189 31
189 30
189 29
190 28
190 27
190 26
191 25
191 24
191 23
192 22
191 22
190 22
189 22
188 22
187 23
186 24
185 24
184 25
183 25
182 26
181 26
180 27
179 28
178 28
177 29
176 29
175 29
174 30
173 31
172 32
171 32
170 33
169 33
168 34
167 35
166 36
165 36
164 37
163 38
162 39
161 39
160 40
159 41
158 42
157 42
156 43
155 43
154 44
153 44
152 44
151 44
150 45
149 45
148 45
147 45
146 45
145 45
144 45
143 45
142 44
141 43
142 42
142 41
141 41
140 41
139 40
138 39
137 38
136 37
135 36
134 35
133 35
132 34
131 33
130 32
129 31
128 31
127 30
126 29
125 29
124 28
123 27
122 26
121 25
120 25
119 24
118 24
117 23
116 22
115 21
114 21
113 20
112 20
111 19
110 18
109 18
108 18
107 18
106 18
105 17
104 16
103 16
102 15
103 14
102 14
101 13
100 13
99 13
98 12
99 11
98 11
97 11
96 11
95 11
94 10
95 9
94 9
93 9
92 9
91 9
90 8
91 7
90 7
89 7
88 8
87 7
86 7
85 6
86 5
85 5
84 5
83 6
82 6
81 5
80 4
81 3
81 2
80 2
79 2
78 3
77 4
76 4
75 4
74 4
73 3
72 2
71 2
70 3
69 2
68 2
