158 0
157 1
156 2
155 2
155 3
155 4
154 5
154 6
154 7
154 8
154 9
154 10
154 11
155 12
155 13
154 14
153 14
152 13
151 12
150 11
151 10
150 10
149 9
148 9
147 9
146 9
145 9
144 9
144 10
144 11
143 12
142 12
141 12
140 12
140 13
140 14
140 15
140 16
139 17
138 16
137 16
136 16
135 17
134 17
133 17
132 17
132 18
131 19
130 19
130 20
130 21
129 22
128 22
127 22
126 22
125 22
125 23
124 24
123 24
123 25
123 26
123 27
124 28
125 28
126 29
126 30
127 30
128 31
129 32
130 33
129 34
128 34
127 34
126 34
125 33
124 32
123 32
122 32
121 32
120 32
120 33
120 34
120 35
121 35
122 36
122 37
121 38
120 38
119 38
118 38
117 39
116 38
115 38
114 38
113 38
112 39
111 39
110 39
109 40
108 40
107 40
106 40
105 40
104 40
103 41
102 41
101 41
100 41
99 41
98 41
97 41
96 41
95 42
94 42
93 42
92 42
91 42
90 42
89 42
88 42
87 42
86 42
85 43
84 43
83 43
82 43
81 43
80 43
79 43
78 42
77 42
76 42
75 43
74 43
73 43
72 43
71 43
70 42
69 42
68 42
67 42
66 42
65 43
65 44
65 45
64 46
63 46
62 46
61 46
60 46
59 46
58 46
57 47
56 47
55 47
54 47
53 47
52 47
51 48
50 48
49 48
48 48
47 47
46 47
45 47
44 47
43 48
42 48
41 48
40 47
39 47
38 46
37 46
36 45
35 44
34 44
33 43
32 43
31 42
30 42
29 41
28 40
27 39
26 38
25 38
24 37
23 36
22 35
21 34
20 34
19 33
18 32
17 32
16 31
15 30
14 30
13 29
12 28
11 28
10 27
9 27
8 27
7 27
6 26
5 26
4 26
3 26
2 26
2 27
2 28
2 29
2 30
2 31
3 31
4 32
5 33
6 34
6 35
6 36
7 36
8 37
8 38
8 39
8 40
8 41
8 42
8 43
9 43
10 44
10 45
11 46
11 47
12 48
12 49
13 49
14 50
14 51
14 52
15 52
16 53
16 54
17 54
18 54
19 54
20 55
20 56
19 57
18 57
17 57
17 58
17 59
17 60
16 61
15 61
14 61
14 62
13 63
12 63
11 63
11 64
11 65
11 66
10 67
9 68
9 69
9 70
9 71
9 72
8 73
8 74
8 75
8 76
7 77
6 78
5 78
5 79
5 80
5 81
5 82
5 83
5 84
5 85
6 85
7 85
8 85
9 85
10 84
11 84
12 84
13 84
14 84
15 83
15 82
16 81
17 81
18 81
19 80
20 80
21 79
22 78
23 77
23 76
24 75
25 75
26 74
27 74
28 74
29 73
29 72
30 71
31 70
32 69
32 68
33 67
34 66
35 66
36 65
37 65
38 64
39 63
40 63
41 62
42 62
43 62
44 62
45 63
46 63
47 63
48 63
49 63
50 63
51 64
52 64
53 64
54 64
55 64
56 64
57 65
58 65
59 65
60 65
61 65
62 65
63 65
64 65
65 66
64 67
63 68
62 69
61 70
60 71
60 72
60 73
61 74
61 75
62 75
63 75
64 74
65 74
66 75
66 76
66 77
66 78
66 79
66 80
67 80
68 80
69 80
70 81
71 81
72 82
72 83
72 84
72 85
73 86
74 87
74 88
74 89
75 89
76 89
77 90
77 91
78 91
79 91
80 92
81 92
82 92
83 92
84 91
84 90
85 89
84 88
85 87
85 86
86 85
86 84
86 83
87 82
87 81
88 80
88 79
89 78
89 77
89 76
89 75
89 74
90 73
91 74
91 75
92 75
93 76
94 76
95 77
96 78
97 78
98 78
99 79
100 79
101 80
101 81
102 81
103 81
104 81
105 81
106 82
106 83
106 84
106 85
106 86
106 87
107 88
108 88
109 88
110 88
111 88
112 87
112 86
111 85
112 84
113 84
114 84
115 84
116 85
117 85
118 85
119 86
120 86
121 86
122 86
123 86
124 86
125 86
126 87
127 87
128 87
129 87
130 87
131 87
132 87
133 87
134 87
135 88
136 88
137 88
138 88
139 88
140 88
141 88
142 87
143 87
144 87
145 87
146 87
147 87
148 86
149 86
150 86
151 86
152 86
153 86
154 86
155 86
156 87
155 88
155 89
155 90
154 91
153 91
152 91
151 91
150 92
149 93
149 94
149 95
149 96
150 96
151 96
152 97
152 98
153 99
153 100
152 101
151 101
151 102
151 103
151 104
152 104
153 104
154 104
155 104
156 104
157 103
158 104
158 105
158 106
158 107
158 108
159 108
160 108
161 108
162 108
163 108
164 108
165 108
166 108
167 108
168 107
169 107
170 107
171 107
172 107
173 107
174 106
175 106
176 105
176 104
177 103
178 104
178 105
179 105
180 105
181 104
182 103
183 102
183 101
184 100
185 99
186 98
187 97
187 96
188 95
188 94
188 93
188 92
189 91
189 90
189 89
189 88
189 87
189 86
188 86
187 85
188 84
188 83
188 82
188 81
188 80
189 79
190 79
191 79
192 79
193 79
194 79
195 79
196 79
197 79
198 79
199 79
200 79
201 78
202 78
203 78
204 78
205 78
206 77
207 77
208 77
209 77
210 77
211 76
212 76
213 76
214 76
215 76
216 76
217 75
218 75
219 75
220 75
221 74
222 74
223 74
224 74
225 74
226 73
227 73
228 73
229 73
230 72
231 72
232 71
233 71
234 71
235 71
236 71
237 70
238 70
239 70
240 70
241 70
242 70
243 69
244 69
245 69
246 69
247 68
248 68
249 68
250 68
251 67
252 67
253 66
254 66
255 66
256 65
257 64
258 64
259 64
260 63
261 63
262 63
263 62
263 61
264 60
265 59
265 58
266 57
266 56
265 56
264 55
264 54
265 53
265 52
266 51
266 50
267 49
266 49
265 48
264 48
263 48
262 47
261 47
260 47
259 46
258 46
257 46
256 45
255 45
254 44
253 43
252 42
251 42
250 42
249 42
248 42
247 43
246 43
245 42
244 42
243 42
242 42
241 42
240 42
239 42
238 42
237 41
236 41
235 40
234 40
233 40
232 41
231 41
230 41
229 41
228 41
227 41
226 41
225 41
224 40
223 40
222 40
221 40
220 40
219 40
218 39
217 39
216 39
215 39
214 39
213 39
212 39
211 39
210 39
209 39
208 39
207 39
206 38
205 38
204 38
203 38
202 38
201 38
200 37
199 37
198 37
197 37
196 37
195 37
194 37
193 38
192 38
191 38
190 37
189 37
188 37
187 37
186 37
185 37
184 37
183 36
182 36
181 36
180 36
179 36
178 37
177 37
176 36
175 36
174 36
173 35
172 35
171 35
170 35
169 35
168 34
169 33
169 32
169 31
169 30
169 29
169 28
168 27
169 26
169 25
170 24
169 24
168 23
169 22
168 22
167 21
168 20
168 19
168 18
168 17
168 16
168 15
167 15
166 14
167 13
167 12
167 11
167 10
167 9
167 8
167 7
167 6
167 5
167 4
166 4
165 3
166 2
165 2
164 1
163 1
162 1
161 0
160 0
159 0
