58 2
57 3
56 4
55 5
54 4
53 4
52 5
52 6
51 7
51 8
51 9
51 10
51 11
50 12
50 13
50 14
50 15
50 16
49 17
48 18
47 18
46 18
45 19
44 19
43 20
42 20
41 21
40 21
39 22
38 22
37 23
36 23
35 24
34 24
33 25
32 26
31 26
30 27
29 27
28 28
27 28
26 29
25 30
24 30
23 31
22 31
21 32
20 33
19 33
18 33
17 34
16 35
15 36
14 36
13 37
12 38
11 39
10 40
9 41
8 42
8 43
7 44
6 45
5 46
4 47
3 48
3 49
2 50
2 51
3 52
3 53
4 54
5 55
6 56
7 57
8 58
9 59
10 59
11 60
12 61
13 62
14 62
15 63
16 64
17 64
18 65
19 65
20 65
21 66
22 66
23 67
24 67
25 68
26 68
27 69
28 69
29 69
30 70
31 70
32 70
33 70
34 71
35 71
36 71
37 71
38 72
39 72
40 72
41 72
42 72
43 73
44 73
45 73
46 73
47 73
48 74
49 74
50 74
51 74
52 74
53 74
54 74
55 74
56 75
57 75
58 75
59 76
59 77
60 78
60 79
61 80
62 81
62 82
63 83
63 84
64 85
64 86
65 87
65 88
66 89
67 90
68 91
68 92
69 93
69 94
70 95
71 96
72 96
73 97
74 98
75 99
76 100
77 101
78 100
78 99
79 98
79 97
79 96
79 95
79 94
79 93
79 92
79 91
79 90
79 89
78 89
77 88
78 87
78 86
78 85
78 84
78 83
78 82
78 81
78 80
77 80
76 79
75 79
74 78
75 77
76 77
77 77
78 77
79 77
80 77
81 77
82 78
83 78
84 77
85 77
86 77
87 77
88 77
89 77
90 78
91 77
92 77
93 77
94 77
95 77
96 77
97 76
98 76
99 77
99 78
100 79
101 80
101 81
102 82
102 83
103 83
103 82
104 81
105 82
106 83
107 82
108 82
109 83
110 84
111 84
111 83
112 82
113 82
114 83
115 83
116 82
117 82
118 82
119 82
120 82
121 81
122 80
123 80
124 79
125 79
126 78
127 77
128 76
129 75
130 74
131 73
132 72
133 71
134 70
135 69
136 68
137 67
138 67
139 66
140 65
141 64
141 63
142 62
142 61
141 61
140 61
139 61
138 60
139 59
140 59
141 59
142 58
143 58
144 58
145 58
146 58
147 59
148 59
149 59
150 60
151 60
152 60
153 61
154 61
155 62
156 62
157 63
158 63
159 64
160 64
161 65
162 66
163 67
164 67
165 68
166 68
167 69
168 70
169 71
170 71
171 72
172 72
173 72
174 73
175 73
176 74
177 74
178 75
179 75
180 75
181 76
182 76
183 77
184 77
185 77
186 78
187 78
188 79
189 79
190 79
191 79
192 79
192 78
193 77
193 76
192 76
191 75
192 74
191 74
190 73
191 72
190 72
189 71
188 70
187 69
188 68
187 68
186 67
185 66
184 65
183 64
182 63
181 62
182 61
181 61
180 60
179 59
180 58
179 58
178 57
177 56
178 55
178 54
178 53
178 52
178 51
179 50
180 49
181 48
182 48
183 47
184 46
185 46
186 45
187 44
188 43
189 42
190 41
191 40
192 40
193 39
194 38
194 37
195 36
196 35
197 34
197 33
198 32
198 31
197 31
196 31
195 31
194 31
193 31
192 31
191 32
190 32
189 32
188 32
187 32
186 33
185 33
184 33
183 33
182 34
181 34
180 34
179 35
178 35
177 35
176 36
175 36
174 36
173 37
172 37
171 37
170 37
169 38
168 38
167 38
166 39
165 39
164 39
163 40
162 40
161 40
160 41
159 41
158 41
157 41
156 42
155 42
154 42
153 43
152 43
151 43
150 43
149 43
148 42
147 42
146 42
145 41
144 41
143 40
142 40
141 39
142 38
143 37
143 36
144 35
143 35
142 34
141 33
140 33
139 32
138 32
137 31
136 30
135 30
134 29
133 28
132 28
131 27
130 27
129 26
128 26
127 25
126 24
125 24
124 24
123 23
122 23
121 22
120 22
119 21
118 21
117 20
116 20
115 19
114 18
113 18
112 17
111 17
110 17
109 17
108 18
107 17
106 16
107 15
106 15
105 15
104 15
103 15
102 15
101 14
102 13
102 12
101 12
100 13
99 13
98 13
97 12
98 11
98 10
97 10
96 11
95 11
94 11
93 11
92 10
93 9
93 8
92 8
91 9
90 9
89 9
88 8
88 7
89 6
88 6
87 7
86 7
85 7
84 7
83 7
82 6
83 5
82 5
81 5
80 6
79 6
78 6
77 5
77 4
76 4
75 5
74 5
73 6
72 5
72 4
73 3
72 3
71 4
70 4
69 5
68 4
68 3
67 3
66 4
65 5
64 5
63 4
64 3
64 2
63 2
62 3
61 3
60 4
59 3
59 2
