77 2
76 3
75 3
74 4
73 4
72 3
71 3
70 4
69 3
68 3
67 4
66 5
66 6
65 7
64 6
63 7
62 8
62 9
61 10
60 11
59 11
58 12
58 13
58 14
57 15
56 16
55 16
54 16
53 16
52 16
51 16
50 16
49 16
48 16
47 16
46 16
45 17
44 17
43 17
42 17
41 17
40 17
39 18
38 18
37 19
36 19
35 19
34 20
33 20
32 21
31 21
30 21
29 22
28 22
27 23
26 23
25 24
24 25
23 25
22 26
21 27
20 27
19 28
18 29
17 29
16 29
15 30
14 31
13 32
12 33
11 33
11 34
10 35
9 36
8 37
7 38
7 39
6 40
5 41
4 42
4 43
3 44
3 45
3 46
3 47
3 48
4 49
3 50
2 51
2 52
2 53
2 54
2 55
3 56
4 56
5 57
6 57
7 58
8 58
9 59
10 60
11 60
12 60
13 61
14 61
15 62
16 62
17 62
18 62
19 63
20 63
21 64
22 64
23 65
24 65
25 65
26 66
27 66
28 66
29 67
30 67
31 67
32 67
33 68
34 68
35 68
36 68
37 68
38 68
39 68
40 68
41 69
42 69
43 69
44 69
45 69
46 69
47 69
48 70
49 70
50 70
51 70
52 70
53 70
54 71
55 72
55 73
56 74
56 75
56 76
56 77
57 78
57 79
57 80
57 81
58 82
58 83
59 84
59 85
60 86
60 87
61 86
62 86
63 87
64 88
64 89
65 90
65 91
66 91
67 90
68 89
68 88
69 87
69 86
69 85
69 84
69 83
69 82
69 81
70 80
70 79
70 78
71 77
71 76
72 75
72 74
72 73
71 73
70 72
71 71
72 71
73 71
74 71
75 71
76 71
77 71
78 71
79 71
80 71
81 71
82 71
83 71
84 71
85 71
86 71
87 71
88 71
89 71
90 71
91 71
92 71
93 71
94 71
95 70
96 70
97 70
98 70
99 70
100 70
101 70
102 70
103 70
104 70
105 71
106 72
106 73
107 73
108 72
109 73
109 74
110 75
111 76
112 75
113 76
114 77
114 78
115 78
116 78
116 77
117 76
118 77
119 77
120 77
121 77
122 77
123 77
124 77
125 76
126 76
127 76
128 75
129 75
130 75
131 74
132 74
133 73
134 73
135 72
136 72
137 71
138 71
139 70
140 69
141 68
142 67
143 66
144 65
144 64
145 63
144 63
143 62
142 62
141 62
140 62
139 61
140 60
141 60
142 60
143 60
144 60
145 60
146 60
147 60
148 60
149 60
150 60
151 61
152 61
153 61
154 62
155 62
156 63
157 64
158 64
159 65
160 66
161 67
162 68
163 69
164 70
165 71
166 72
167 73
168 74
169 74
170 75
170 76
171 76
172 77
173 78
174 79
175 80
176 80
177 81
178 81
179 82
180 82
181 83
182 83
183 83
184 84
185 84
186 85
187 85
188 85
189 86
190 86
191 86
192 85
192 84
193 83
192 83
191 82
192 81
191 81
190 80
191 79
190 79
189 78
188 77
189 76
188 76
187 75
188 74
187 74
186 73
185 72
186 71
186 70
185 70
184 69
183 68
184 67
184 66
183 66
182 65
181 64
180 63
181 62
180 62
179 61
180 60
180 59
180 58
180 57
179 57
178 56
179 55
179 54
179 53
180 52
180 51
180 50
180 49
180 48
181 47
181 46
182 45
183 44
184 43
184 42
185 41
186 40
186 39
187 38
187 37
188 36
189 35
189 34
190 33
191 32
192 31
192 30
193 29
194 28
195 27
195 26
196 25
196 24
196 23
195 23
194 23
193 23
192 23
191 23
190 24
189 24
188 24
187 25
186 25
185 26
184 26
183 27
182 27
181 27
180 28
179 28
178 28
177 29
176 29
175 30
174 30
173 31
172 32
171 32
170 33
169 33
168 34
167 35
166 36
165 36
164 37
163 38
162 39
161 39
160 40
159 40
158 40
157 41
156 41
155 41
154 41
153 42
152 42
151 42
150 41
149 41
148 41
147 41
146 41
145 41
144 41
143 40
142 40
141 39
140 38
141 37
142 37
143 37
144 37
144 36
145 35
144 35
143 34
142 33
143 32
142 32
141 31
140 30
139 29
138 28
137 28
136 27
135 27
134 26
133 25
132 24
131 24
130 23
129 23
128 22
127 22
126 21
125 21
124 20
123 20
122 19
121 19
120 19
119 18
118 17
117 16
116 16
115 16
114 16
113 16
112 17
111 16
110 15
109 15
108 15
107 15
106 14
107 13
106 13
105 12
104 13
103 13
102 13
101 12
101 11
101 10
100 10
99 10
98 10
97 10
96 10
95 9
96 8
96 7
95 7
94 7
93 7
92 8
91 8
90 7
91 6
91 5
90 5
89 4
88 5
87 5
86 6
85 5
84 4
85 3
84 3
83 3
82 4
81 4
80 5
79 5
78 4
79 3
79 2
78 2
