86 2
85 3
84 4
83 5
82 5
81 6
80 6
79 5
78 4
79 3
78 3
77 4
77 5
76 6
75 7
75 8
74 9
73 8
72 8
71 9
70 10
69 11
68 11
67 11
66 11
66 12
66 13
66 14
66 15
66 16
66 17
66 18
65 19
64 19
63 19
62 20
61 20
60 20
59 20
58 20
57 20
56 20
55 20
54 20
53 21
52 21
51 21
50 21
49 21
48 22
47 22
46 22
45 22
44 23
43 23
42 24
41 24
40 24
39 24
38 25
37 25
36 26
35 27
34 27
33 27
32 28
31 29
30 29
29 30
28 30
27 31
26 31
25 32
24 33
23 33
22 33
21 34
21 35
20 36
19 36
18 36
17 37
16 38
15 39
14 39
13 40
12 40
11 41
10 42
9 42
8 43
7 43
6 44
5 45
4 45
3 46
3 47
3 48
2 49
2 50
2 51
2 52
2 53
3 54
3 55
3 56
3 57
4 58
5 58
6 59
6 60
7 60
8 61
9 62
10 62
11 63
12 64
13 64
14 64
15 65
16 65
17 66
18 67
19 67
20 67
21 68
22 69
23 69
24 69
25 70
26 70
27 71
28 71
29 71
30 72
31 73
32 73
33 74
34 75
35 75
36 76
37 76
38 76
39 76
40 77
41 77
42 78
43 79
44 79
45 79
46 79
47 79
48 80
49 81
50 81
51 81
52 81
53 81
54 82
55 82
56 82
57 83
58 83
59 83
60 83
61 84
61 85
61 86
61 87
61 88
61 89
61 90
61 91
61 92
62 93
62 94
62 95
62 96
62 97
62 98
62 99
62 100
63 101
63 100
64 99
65 99
66 100
66 101
67 102
67 103
68 103
69 103
70 103
71 103
71 102
72 101
72 100
73 99
73 98
74 97
75 96
75 95
76 94
76 93
77 92
77 91
78 90
78 89
78 88
77 88
76 87
77 86
78 86
79 86
80 86
81 86
82 86
83 86
84 86
85 86
86 86
87 86
88 86
89 86
90 86
91 86
92 86
93 86
94 86
95 86
96 86
97 86
98 86
99 86
100 85
101 85
102 85
103 85
104 85
105 85
106 85
107 85
108 85
109 85
110 84
111 84
112 85
113 85
114 86
114 87
115 88
116 89
116 90
117 91
117 92
118 92
118 91
119 90
120 89
121 90
122 90
123 91
124 92
125 92
126 91
127 92
128 92
129 91
129 90
130 89
131 88
132 87
133 86
134 85
135 85
136 84
137 84
138 83
139 82
140 81
141 81
142 80
143 79
144 79
145 78
146 77
147 76
148 76
149 75
149 74
150 73
151 72
152 71
153 71
153 70
154 69
155 69
155 68
156 67
156 66
156 65
157 64
158 64
159 63
160 63
161 63
162 63
163 63
164 63
165 63
166 64
167 64
168 64
169 64
170 64
171 65
172 65
173 66
174 67
175 67
176 67
177 68
177 69
178 69
179 70
180 70
181 71
182 72
183 73
184 73
185 74
186 75
187 76
188 76
189 77
190 78
191 79
192 79
193 80
194 80
195 81
196 81
197 82
198 83
199 83
200 84
201 85
202 85
203 85
204 86
205 87
206 87
207 88
208 88
209 88
210 87
210 86
211 85
211 84
211 83
210 83
209 82
210 81
209 81
208 80
207 79
208 78
207 78
206 77
207 76
206 76
205 75
204 74
205 73
205 72
204 72
203 71
204 70
203 70
202 69
201 68
202 67
201 67
200 66
201 65
200 65
199 64
198 63
199 62
198 62
197 61
198 60
197 60
196 59
195 58
196 57
196 56
195 56
194 55
195 54
195 53
195 52
196 51
197 50
198 49
198 48
199 47
200 46
201 45
201 44
202 43
203 43
204 42
204 41
205 40
206 39
207 39
207 38
208 37
209 36
209 35
210 34
211 33
212 32
213 31
214 30
215 29
216 28
216 27
217 26
217 25
217 24
216 24
215 24
214 24
213 24
212 24
211 24
210 24
209 24
208 25
207 25
206 26
205 26
204 27
203 27
202 27
201 27
200 28
199 29
198 29
197 29
196 30
195 30
194 31
193 31
192 31
191 32
190 33
189 33
188 33
187 34
186 35
185 36
184 36
183 37
182 38
181 39
180 39
179 39
178 39
177 40
176 41
175 41
174 41
173 41
172 41
171 42
170 42
169 42
168 43
167 43
166 43
165 43
164 43
163 43
162 43
161 43
160 43
159 42
160 41
160 40
159 39
160 38
159 38
158 37
157 36
156 35
155 34
154 33
153 32
152 31
151 31
150 30
149 29
148 29
147 28
146 27
145 27
144 26
143 25
142 25
141 24
140 24
139 24
138 23
137 22
136 22
135 22
134 21
133 21
132 21
131 21
130 20
129 20
128 20
127 19
128 18
128 17
127 17
126 17
125 18
124 18
123 18
122 17
123 16
123 15
122 15
121 15
120 14
120 13
121 12
120 12
119 12
118 13
117 13
116 13
115 13
114 14
113 14
112 13
113 12
113 11
114 10
113 10
112 10
111 11
110 11
109 11
108 11
107 10
108 9
108 8
109 7
108 7
107 7
106 8
105 9
104 9
103 9
102 9
101 9
100 8
101 7
102 7
102 6
103 5
102 5
101 5
100 6
99 6
98 7
97 7
96 7
95 7
94 6
95 5
95 4
95 3
94 3
93 3
92 4
91 4
90 4
89 4
88 4
87 3
88 2
87 2
