61 2
61 3
61 4
60 5
59 6
59 7
58 8
58 9
57 10
57 11
56 12
55 12
55 13
55 14
54 15
54 16
54 17
54 18
54 19
53 20
52 20
51 20
50 20
49 21
48 21
47 21
46 21
45 22
44 22
43 22
42 22
41 23
40 23
39 24
38 24
37 24
36 25
35 25
34 26
33 26
32 27
31 27
30 28
29 28
28 28
27 29
26 29
25 30
24 30
23 30
22 31
21 31
20 31
19 32
18 32
17 32
16 33
15 33
14 34
13 34
12 35
11 36
10 36
9 37
8 38
7 39
6 40
5 41
4 42
4 43
3 44
3 45
2 46
2 47
2 48
2 49
2 50
2 51
2 52
3 53
4 54
5 54
6 55
7 56
8 56
9 57
10 58
11 58
12 59
13 59
14 59
15 60
16 61
17 61
18 61
19 62
20 62
21 62
22 63
23 63
24 63
25 64
25 65
26 64
27 64
28 65
29 65
30 65
31 65
32 66
33 66
34 66
35 66
36 67
37 67
38 67
39 67
40 67
41 67
42 67
43 67
44 68
45 68
46 68
47 68
48 68
49 68
50 68
51 69
52 69
53 69
54 69
55 69
56 69
57 69
58 70
59 71
60 72
60 73
61 74
61 75
62 76
62 77
62 78
63 79
64 80
65 81
65 82
66 83
67 82
68 83
69 84
70 85
71 86
72 87
72 88
73 89
74 89
75 89
75 88
76 87
76 86
76 85
76 84
77 83
77 82
77 81
77 80
77 79
77 78
77 77
77 76
77 75
77 74
77 73
76 73
75 72
74 72
73 72
72 72
71 71
72 70
73 70
74 69
75 69
76 69
77 69
78 69
79 69
80 69
81 69
82 69
83 69
84 69
85 69
86 69
87 69
88 69
89 69
90 69
91 69
92 69
93 69
94 69
95 68
96 69
97 69
98 68
99 68
100 68
101 68
102 68
103 68
104 68
105 68
106 68
107 67
108 68
109 69
110 70
111 71
112 72
113 73
114 74
115 74
116 75
117 74
118 74
119 74
120 75
121 75
122 76
123 76
124 76
125 75
126 75
127 75
128 74
129 74
130 73
131 73
132 72
133 71
134 71
135 70
136 69
137 68
138 68
138 67
139 66
140 65
141 64
142 63
143 62
144 61
144 60
145 59
146 59
146 58
147 57
147 56
146 55
147 54
148 54
149 54
150 54
151 54
152 54
153 54
154 54
155 54
156 54
157 54
158 54
159 54
160 54
161 55
162 55
163 55
164 56
165 56
166 57
167 57
168 58
169 58
170 59
171 59
172 59
173 60
174 60
175 61
176 61
177 62
178 62
179 62
180 62
181 62
182 63
183 63
184 63
185 63
186 63
187 64
188 64
189 64
190 64
191 64
192 64
193 64
194 63
194 62
193 61
194 60
193 60
192 59
191 58
190 57
191 56
190 56
189 55
188 55
187 54
186 53
185 52
184 51
183 51
182 50
181 49
180 48
179 47
178 46
177 45
176 44
177 43
178 42
179 41
180 41
181 40
182 39
183 38
184 38
185 37
186 36
187 35
188 35
189 34
190 33
191 32
192 31
192 30
193 29
194 28
194 27
195 26
195 25
194 25
193 24
192 24
191 25
190 25
189 25
188 25
187 25
186 26
185 26
184 26
183 26
182 27
181 27
180 28
179 28
178 28
177 29
176 29
175 29
174 30
173 30
172 30
171 31
170 31
169 31
168 32
167 32
166 33
165 33
164 34
163 34
162 34
161 35
160 35
159 35
158 36
157 36
156 36
155 36
154 36
153 37
152 37
151 37
150 37
149 37
148 36
147 36
146 36
145 35
144 35
143 35
142 35
141 34
142 33
143 33
144 33
145 33
146 33
146 32
147 31
147 30
146 30
145 30
144 30
143 29
142 29
141 28
140 28
139 27
138 27
137 26
136 25
135 25
134 24
133 23
132 23
131 22
130 21
129 21
128 20
127 19
126 18
125 17
124 16
123 16
122 15
121 15
120 15
119 15
118 15
117 14
116 14
115 14
114 15
113 15
112 15
111 15
110 15
109 16
108 16
107 16
106 17
105 17
104 17
103 16
102 17
101 16
100 16
99 16
98 16
97 15
98 14
97 14
96 14
95 15
94 15
93 14
94 13
94 12
93 12
92 12
92 13
91 14
90 14
89 13
90 12
89 12
88 11
87 12
86 11
85 10
86 9
85 9
84 9
83 9
82 10
81 10
80 9
81 8
81 7
80 7
79 7
78 8
77 8
76 7
77 6
77 5
76 5
75 5
74 6
73 6
72 6
71 5
72 4
71 4
70 4
69 5
68 5
67 4
67 3
67 2
66 2
65 3
64 4
63 5
62 4
62 3
63 2
62 2
