81 2
80 3
79 4
78 5
77 5
76 5
75 5
74 6
73 6
72 6
71 7
70 7
69 8
68 8
67 9
66 9
65 10
64 11
64 12
63 13
63 14
63 15
63 16
63 17
62 18
62 19
62 20
61 21
60 20
59 21
58 21
57 22
56 22
55 22
54 22
53 22
52 22
51 22
50 23
49 23
48 23
47 23
46 23
45 23
44 23
43 24
42 24
41 24
40 24
39 25
38 25
37 25
36 26
35 26
34 26
33 27
32 27
31 28
30 28
29 29
28 30
27 31
26 31
25 32
24 32
23 32
22 33
21 33
20 34
19 34
18 35
17 35
16 36
15 36
14 37
13 38
12 39
11 40
10 41
9 41
8 42
7 43
6 44
5 44
4 45
3 46
3 47
2 48
2 49
2 50
2 51
2 52
3 53
4 54
5 55
6 56
7 57
8 58
9 58
10 59
11 60
12 60
13 61
14 61
15 62
16 62
17 62
18 63
19 63
20 63
21 64
22 64
23 65
24 66
25 67
26 67
27 68
28 68
29 69
30 69
31 69
32 69
33 70
34 70
35 70
36 71
37 71
38 71
39 71
40 72
41 72
42 72
43 72
44 72
45 72
46 73
47 73
48 73
49 73
50 73
51 73
52 74
53 74
54 74
55 74
56 75
57 75
58 75
59 75
60 75
61 76
62 77
62 78
62 79
62 80
62 81
62 82
63 83
63 84
63 85
63 86
63 87
64 88
64 89
65 90
65 91
65 92
65 93
66 94
66 95
67 95
68 95
69 95
70 96
71 97
72 98
73 99
74 99
75 99
76 98
77 97
77 96
78 95
79 94
79 93
80 92
80 91
80 90
80 89
80 88
80 87
80 86
80 85
80 84
79 84
78 83
79 82
78 82
77 81
78 80
78 79
77 79
76 78
77 77
78 77
79 77
80 77
81 77
82 77
83 77
84 77
85 77
86 77
87 77
88 77
89 77
90 77
91 77
92 77
93 77
94 77
95 77
96 77
97 77
98 77
99 77
100 77
101 77
102 76
103 76
104 77
105 78
105 79
106 80
107 81
108 82
109 82
110 82
111 83
112 83
113 84
114 84
115 85
116 85
117 85
118 86
119 86
120 86
121 86
122 86
123 85
124 85
125 85
126 84
127 84
128 84
129 83
130 83
131 83
132 82
133 82
134 81
135 81
136 80
137 80
138 79
139 79
140 78
140 77
141 76
141 75
142 74
142 73
143 72
143 71
144 70
144 69
144 68
143 68
142 67
141 66
142 65
143 65
144 65
145 64
146 64
147 64
148 64
149 64
150 64
151 64
152 64
153 64
154 64
155 64
156 65
157 65
158 65
159 65
160 65
161 66
162 66
163 67
164 67
165 67
166 67
167 68
168 68
169 68
170 69
171 69
172 70
173 70
174 70
175 71
176 71
177 71
178 71
179 71
180 71
181 72
182 72
183 72
184 73
185 73
186 73
187 74
188 74
189 75
189 76
190 76
191 76
192 77
193 77
194 78
195 78
196 78
197 79
198 79
199 80
200 80
201 81
202 81
203 81
204 82
205 82
206 83
207 83
208 84
209 84
210 84
211 84
212 85
213 85
214 85
215 85
216 85
216 84
217 83
217 82
217 81
216 81
215 80
216 79
215 79
214 78
213 77
214 76
213 76
212 75
213 74
213 73
212 73
211 72
212 71
211 71
210 70
209 69
210 68
209 68
208 67
207 66
208 65
207 65
206 64
207 63
206 63
205 62
204 61
205 60
204 60
203 59
202 58
201 57
202 56
202 55
201 55
200 54
199 53
200 52
201 51
202 50
203 49
203 48
204 47
204 46
205 45
206 44
206 43
207 42
207 41
208 40
208 39
209 38
209 37
209 36
210 35
210 34
211 33
211 32
212 31
212 30
213 29
213 28
213 27
214 26
214 25
215 24
215 23
215 22
214 22
213 22
212 22
211 22
210 22
209 22
208 22
207 22
206 22
205 23
204 23
203 23
202 24
201 24
200 24
199 24
198 25
197 25
196 26
195 26
194 26
193 27
192 27
191 28
190 28
189 29
188 30
187 31
186 31
185 32
184 32
183 33
182 33
181 34
180 35
179 35
178 36
177 37
176 37
175 38
174 39
173 40
172 40
171 40
170 40
169 40
168 41
167 41
166 41
165 41
164 41
163 41
162 41
161 41
160 41
159 41
158 41
157 41
156 41
155 41
154 41
153 41
152 41
151 41
150 41
149 41
148 41
147 40
146 40
145 40
144 40
143 40
142 40
141 39
141 38
142 37
143 37
144 36
145 36
146 36
147 35
148 35
149 35
149 34
150 33
149 33
148 32
149 31
148 31
147 30
146 29
147 28
146 28
145 27
144 27
143 26
142 25
141 24
140 23
139 23
138 22
137 22
136 21
137 20
136 20
135 19
134 18
133 17
132 17
131 16
130 16
129 15
128 15
127 14
126 14
125 13
124 13
123 12
122 12
121 12
120 11
119 11
118 11
117 10
116 10
115 10
114 10
113 10
112 10
111 10
110 9
109 8
108 7
107 6
106 6
105 5
104 5
103 5
102 4
101 4
100 3
99 2
98 2
97 2
96 2
95 2
94 2
93 2
92 2
91 2
90 2
89 2
88 2
87 2
86 2
85 2
84 2
83 2
82 2
