76 1
75 2
74 2
74 3
73 4
72 5
71 6
70 7
69 8
68 9
67 8
66 7
67 6
66 6
65 7
64 8
64 9
63 10
62 11
61 12
60 12
59 12
58 13
58 14
58 15
58 16
58 17
57 18
57 19
56 20
55 20
54 20
53 20
52 20
51 20
50 21
49 21
48 22
47 22
46 22
45 22
44 23
43 23
43 24
42 25
41 25
40 25
39 25
38 26
37 27
36 28
35 28
34 28
33 29
32 30
31 31
30 31
29 32
29 33
28 34
27 34
26 35
25 36
25 37
24 38
23 39
22 39
22 40
21 41
20 42
19 43
19 44
19 45
18 46
17 46
16 47
16 48
15 49
14 50
14 51
13 52
13 53
12 54
11 55
11 56
11 57
10 58
9 59
8 60
8 61
7 62
7 63
6 64
5 65
5 66
4 67
4 68
4 69
3 70
2 71
2 72
2 73
3 74
4 75
4 76
4 77
4 78
5 79
6 80
7 81
8 82
9 83
10 83
11 84
12 85
13 86
14 86
15 87
16 88
17 88
18 88
19 89
20 90
21 90
22 91
23 92
24 92
25 93
26 94
27 95
28 95
29 95
30 96
31 97
32 97
33 97
34 98
35 98
36 99
37 99
38 100
39 100
40 101
41 101
42 101
43 101
44 101
45 102
46 102
47 103
48 103
49 104
50 104
51 104
52 104
53 104
54 105
55 105
56 106
57 106
58 106
59 107
60 107
61 107
62 108
63 108
64 108
65 109
65 110
66 111
66 112
66 113
67 114
67 115
67 116
67 117
68 118
68 119
69 120
69 121
69 122
70 123
70 124
70 125
71 126
71 127
71 128
72 129
73 130
73 131
74 132
75 133
75 134
76 135
77 136
78 137
79 138
79 139
80 140
81 141
82 142
82 143
83 143
84 143
85 142
85 141
86 140
86 139
86 138
87 137
87 136
87 135
88 134
88 133
88 132
88 131
89 130
89 129
89 128
89 127
90 126
90 125
91 124
91 123
91 122
92 121
92 120
92 119
92 118
91 118
90 117
91 116
91 115
90 115
89 115
88 114
87 113
88 112
89 112
90 112
91 112
92 112
93 112
94 112
95 112
96 112
97 112
98 112
99 112
100 112
101 113
102 113
103 113
104 113
105 113
106 113
107 113
108 113
109 113
110 113
111 113
112 113
113 113
114 112
115 112
116 112
117 112
118 113
118 114
118 115
118 116
119 117
119 118
120 119
120 120
121 120
121 119
122 118
122 117
123 116
124 117
125 118
126 118
127 119
127 120
128 120
129 121
130 122
131 122
132 123
133 122
133 121
132 120
131 119
132 118
133 117
134 117
135 118
136 118
137 118
137 117
137 116
137 115
138 114
139 113
140 113
141 113
142 114
143 113
144 113
145 113
146 113
147 112
148 111
149 110
150 109
151 108
152 107
153 107
154 106
155 105
156 104
157 104
158 103
159 102
160 101
160 100
161 99
162 98
163 98
163 97
164 96
165 95
166 94
166 93
167 92
168 91
169 90
169 89
170 88
170 87
171 86
171 85
171 84
171 83
171 82
170 82
169 82
168 82
167 82
166 82
165 82
164 82
163 81
164 80
165 80
166 80
167 80
168 79
169 79
170 79
171 79
172 80
173 80
174 80
175 81
176 81
177 81
178 82
179 82
180 83
181 83
182 83
183 83
184 83
185 84
186 85
187 86
188 86
189 86
190 86
191 87
192 88
193 88
194 88
195 89
196 89
197 90
198 90
199 90
200 91
201 91
202 92
203 92
204 92
205 93
206 94
207 94
208 95
209 95
210 95
211 95
212 95
213 95
214 95
215 96
216 96
217 96
218 96
219 95
219 94
218 93
219 92
218 92
217 91
218 90
218 89
217 89
216 88
215 87
216 86
215 86
214 85
213 84
214 83
213 83
212 82
211 81
210 80
211 79
210 79
209 79
208 78
209 77
209 76
208 76
207 76
206 75
207 74
206 74
205 73
206 72
206 71
205 71
204 70
205 69
204 69
203 68
204 67
204 66
204 65
204 64
204 63
204 62
205 61
205 60
205 59
206 58
207 57
208 56
208 55
209 54
210 53
211 52
211 51
212 50
213 49
214 48
214 47
215 46
215 45
215 44
216 43
216 42
217 41
217 40
218 39
218 38
217 38
216 38
215 38
214 38
213 38
212 39
211 39
210 39
209 39
208 39
207 40
206 40
205 40
204 41
203 41
202 41
201 42
200 43
199 43
198 43
197 43
196 44
195 45
194 45
193 46
192 46
191 46
190 46
189 47
188 48
187 48
186 49
185 49
184 50
183 50
182 51
181 51
180 52
179 52
178 52
177 53
176 53
175 54
174 55
173 55
172 55
171 56
170 56
169 57
168 57
167 57
166 58
165 58
164 57
163 57
162 57
161 57
160 56
161 55
162 55
163 54
164 54
165 54
166 54
166 53
167 52
167 51
167 50
167 49
167 48
166 48
165 47
166 46
165 46
164 45
163 44
164 43
163 43
162 42
161 41
160 40
159 39
158 39
157 38
156 37
155 36
154 35
153 34
152 34
151 33
150 33
149 32
148 31
147 31
146 30
145 29
144 29
143 28
142 27
141 27
140 27
139 26
140 25
139 25
138 25
137 25
136 25
135 24
134 24
133 24
132 23
131 22
130 21
129 22
128 22
127 22
126 21
125 20
124 20
123 19
124 18
123 18
122 18
121 18
120 17
119 16
120 15
119 15
118 15
117 16
116 16
115 16
114 15
115 14
115 13
114 13
113 13
112 13
111 13
110 13
109 13
108 12
108 11
107 10
106 10
105 11
104 11
103 11
102 11
101 10
102 9
102 8
102 7
101 7
100 7
99 7
98 7
97 8
96 8
95 8
94 7
95 6
95 5
95 4
94 4
93 4
92 5
91 6
90 7
89 7
88 7
87 7
86 7
85 6
86 5
86 4
85 4
84 3
83 4
82 4
81 5
80 5
79 6
78 5
77 4
76 3
77 2
77 1
