74 2
73 3
72 3
71 4
70 5
69 6
68 7
67 7
66 6
66 5
66 4
65 4
64 5
63 6
62 7
61 8
61 9
60 10
59 11
59 12
58 13
57 14
56 15
55 15
54 15
53 16
52 16
51 16
50 16
49 16
48 17
47 17
46 18
45 18
44 18
43 19
42 19
41 20
40 20
39 21
38 21
37 22
36 22
35 23
34 24
33 24
32 25
31 26
30 26
29 27
28 28
27 29
26 29
25 30
24 31
23 32
22 33
21 34
20 35
19 36
18 37
17 38
16 38
16 39
15 40
14 41
13 42
12 43
11 44
10 45
9 46
8 47
7 48
6 49
6 50
5 51
5 52
4 53
3 54
3 55
2 56
2 57
2 58
2 59
3 60
3 61
4 62
5 63
6 64
7 65
8 66
9 67
10 68
11 69
12 69
13 70
14 70
15 71
16 71
17 72
18 72
19 73
20 73
21 73
22 74
23 74
24 75
25 75
26 75
27 76
28 76
29 77
29 78
30 78
31 79
32 80
33 81
34 81
35 82
36 83
37 83
38 84
39 85
40 85
41 86
42 87
43 87
44 87
45 88
46 88
47 89
48 89
49 89
50 89
51 89
52 90
53 91
53 92
53 93
54 94
54 95
55 96
55 97
56 98
56 99
56 100
57 101
57 102
58 103
58 104
59 105
59 106
60 107
61 108
61 109
62 110
63 111
63 112
64 113
65 112
66 113
67 114
68 114
69 114
69 113
70 112
70 111
71 110
71 109
71 108
71 107
71 106
71 105
71 104
71 103
71 102
70 102
69 101
70 100
70 99
69 99
68 98
67 97
66 96
65 95
64 94
65 93
66 93
67 93
68 94
69 94
70 94
71 94
72 94
73 94
74 95
75 95
76 95
77 95
78 95
79 95
80 95
81 95
82 95
83 95
84 95
85 95
86 95
87 95
88 95
89 95
90 95
91 95
92 95
93 95
94 95
95 95
96 95
97 95
98 95
99 95
100 95
101 95
102 95
103 95
104 95
105 94
106 95
106 96
107 97
108 98
109 98
110 99
111 100
112 100
113 101
114 101
115 102
116 102
117 102
117 101
117 100
118 99
119 99
120 100
121 100
122 100
123 100
124 100
124 99
125 98
126 98
127 98
128 98
129 98
130 98
130 97
130 96
131 95
132 94
133 93
134 92
134 91
135 90
136 89
137 88
138 87
138 86
139 85
140 84
140 83
141 82
142 81
142 80
143 79
143 78
144 77
144 76
144 75
145 74
145 73
145 72
146 71
147 70
148 71
149 71
150 71
151 71
152 72
153 73
154 73
155 74
156 75
157 76
158 76
159 77
160 77
161 78
162 79
163 79
164 80
165 80
166 81
167 81
168 82
169 82
170 83
171 84
172 84
173 84
174 85
175 85
176 86
177 86
178 86
179 87
180 87
181 87
182 87
183 87
184 87
185 87
185 86
186 85
186 84
186 83
186 82
185 82
184 81
185 80
184 80
183 79
184 78
183 78
182 78
181 77
180 76
181 75
181 74
180 74
179 73
178 72
179 71
178 71
177 70
178 69
177 69
176 68
177 67
176 67
175 66
176 65
175 65
174 64
175 63
175 62
175 61
174 60
174 59
175 58
175 57
175 56
175 55
176 54
177 53
177 52
178 51
179 50
179 49
180 48
181 47
182 46
183 45
184 44
184 43
185 42
185 41
186 40
187 39
187 38
188 37
188 36
189 35
189 34
190 33
190 32
189 32
188 31
187 31
186 31
185 31
184 31
183 32
182 32
181 32
180 32
179 33
178 33
177 34
176 34
175 35
174 35
173 35
172 36
171 36
170 37
169 37
168 38
167 38
166 39
165 39
164 40
163 40
162 41
161 41
160 41
159 42
158 43
157 43
156 44
155 44
154 45
153 45
152 46
151 46
150 46
149 46
148 46
147 47
146 47
145 47
144 47
143 47
142 46
143 45
144 45
144 44
144 43
144 42
144 41
143 41
142 40
143 39
142 39
141 38
140 37
139 36
140 35
139 35
138 34
137 33
136 32
137 31
136 31
135 30
134 29
133 28
132 27
131 26
130 25
129 24
128 23
127 22
126 21
125 21
124 20
123 19
124 18
123 18
122 18
121 18
120 18
119 17
120 16
120 15
119 15
118 16
117 16
116 15
116 14
117 13
117 12
116 12
115 12
114 12
113 13
112 13
111 13
110 12
111 11
111 10
112 9
111 9
110 9
109 10
108 10
107 10
106 9
107 8
107 7
106 7
105 7
104 8
103 8
102 8
101 7
102 6
102 5
101 5
100 6
99 6
98 7
97 7
96 7
95 6
96 5
97 4
97 3
96 3
95 4
94 4
93 5
92 6
91 6
90 5
90 4
91 3
90 3
89 3
88 4
87 5
86 5
85 6
84 6
83 6
82 6
81 5
82 4
83 3
83 2
82 2
81 2
80 3
79 4
78 4
77 5
76 6
75 6
74 6
73 5
74 4
74 3
75 2
