87 2
86 3
85 3
84 4
83 4
82 4
81 3
80 3
79 3
78 4
77 4
76 5
75 6
74 6
73 7
72 6
71 6
70 6
69 7
68 8
67 8
66 9
65 10
64 11
63 12
62 13
61 14
60 15
59 16
58 16
57 16
56 17
55 17
54 17
53 17
52 17
51 18
50 18
49 18
48 18
47 18
46 19
45 19
44 20
43 20
42 20
41 21
40 21
39 22
38 22
37 22
36 23
35 24
34 24
33 25
32 25
31 26
30 26
29 27
28 28
27 29
26 29
25 30
24 31
23 31
22 32
21 33
20 34
19 35
18 36
17 36
16 37
15 38
14 39
13 40
12 41
11 42
10 43
9 44
8 45
7 46
6 47
5 48
5 49
4 50
3 51
2 52
2 53
2 54
2 55
2 56
2 57
3 58
3 59
4 59
5 60
6 61
7 62
8 62
9 63
10 63
11 64
12 64
13 65
14 65
15 66
16 66
17 67
18 67
19 68
20 69
21 69
22 70
23 71
24 72
25 72
26 73
27 74
28 75
29 75
30 76
31 77
32 77
33 78
34 79
35 79
36 80
37 80
38 81
39 81
40 81
41 81
42 82
43 82
44 82
45 83
46 83
47 83
48 83
49 83
50 83
51 83
52 83
53 84
54 84
55 84
56 84
57 84
58 84
59 84
60 85
61 85
62 85
63 85
64 86
65 87
65 88
66 89
66 90
66 91
66 92
67 93
67 94
67 95
68 96
68 97
68 98
69 99
69 100
69 101
69 102
70 103
70 104
70 105
71 105
72 105
73 106
74 107
75 107
76 107
77 107
78 106
78 105
79 104
79 103
80 102
80 101
81 100
81 99
81 98
82 97
82 96
82 95
82 94
83 93
83 92
83 91
82 91
81 90
82 89
81 89
80 88
79 87
80 86
81 86
82 86
83 86
84 86
85 86
86 86
87 86
88 87
89 87
90 87
91 87
92 87
93 87
94 87
95 87
96 87
97 86
98 86
99 86
100 86
101 86
102 86
103 86
104 86
105 86
106 86
107 86
108 87
109 88
110 89
111 90
112 91
113 92
113 91
114 90
115 90
116 90
117 90
118 91
119 92
120 92
120 91
121 90
122 89
123 90
124 90
125 90
126 90
127 89
128 88
129 87
130 87
131 86
132 85
133 84
134 84
135 83
136 82
137 81
138 80
139 79
140 79
141 78
142 77
143 76
144 75
144 74
145 73
146 72
147 71
148 70
148 69
149 68
149 67
148 66
147 66
146 65
147 64
148 64
149 64
150 64
151 64
152 65
153 65
154 65
155 65
156 66
157 66
158 67
159 67
160 68
161 69
162 69
163 70
164 71
165 71
166 72
167 72
168 73
169 74
170 74
171 75
172 75
173 75
174 76
175 76
176 77
177 77
178 78
179 78
180 78
181 79
182 79
183 79
184 79
185 80
186 80
187 80
188 80
189 79
189 78
188 77
189 76
188 76
187 75
188 74
187 74
186 73
187 72
187 71
186 71
185 70
186 69
185 69
184 68
185 67
184 67
183 66
184 65
183 65
182 64
181 63
180 62
181 61
180 61
179 60
180 59
180 58
179 58
178 57
179 56
178 56
177 55
178 54
178 53
178 52
178 51
178 50
179 49
179 48
180 47
181 46
182 45
183 44
183 43
184 42
185 41
185 40
186 39
186 38
187 37
187 36
188 35
188 34
189 33
189 32
190 31
190 30
191 29
191 28
191 27
191 26
190 26
189 26
188 26
187 26
186 26
185 27
184 27
183 28
182 28
181 28
180 28
179 29
178 29
177 30
176 30
175 31
174 31
173 32
172 32
171 33
170 33
169 34
168 35
167 35
166 36
165 37
164 38
163 38
162 39
161 40
160 40
159 41
158 42
157 42
156 43
155 43
154 44
153 43
152 43
151 43
150 43
149 43
148 43
147 43
146 43
145 43
144 43
143 42
144 41
145 41
146 41
147 41
148 41
149 41
150 40
150 39
151 38
150 38
149 37
148 37
147 36
146 35
147 34
146 34
145 34
144 33
143 32
142 31
143 30
142 30
141 30
140 29
139 28
138 27
137 26
136 25
135 25
134 24
133 23
132 22
131 22
130 21
129 20
128 19
127 19
126 18
125 17
125 16
124 16
123 16
122 16
121 15
122 14
121 14
120 14
119 14
118 14
117 14
116 13
117 12
116 12
115 12
114 12
113 12
112 12
111 11
112 10
112 9
111 9
110 9
109 9
108 9
107 9
106 9
105 8
106 7
105 7
104 7
103 8
102 8
101 8
100 7
101 6
101 5
100 5
99 5
98 6
97 6
96 6
95 5
95 4
94 4
93 4
92 4
91 5
90 5
89 5
88 4
89 3
89 2
88 2
