75 2
75 3
75 4
75 5
75 6
75 7
76 7
77 8
77 9
78 10
77 11
76 12
76 13
75 14
74 15
73 15
72 15
71 15
70 16
69 16
68 17
67 18
66 18
65 19
64 20
63 20
62 20
61 20
60 20
59 20
58 21
57 21
56 21
55 22
54 22
53 22
52 22
51 23
50 23
49 23
48 23
47 23
46 24
45 24
44 24
43 24
42 24
41 24
40 24
39 24
38 24
37 23
36 23
35 22
34 21
33 21
32 21
31 20
30 19
29 19
28 18
27 18
26 17
25 16
24 16
23 16
22 15
21 14
20 13
19 13
18 13
17 12
16 12
15 11
14 11
13 11
12 10
11 10
10 10
9 10
8 10
8 11
8 12
8 13
8 14
9 15
10 16
10 17
10 18
11 19
11 20
12 21
12 22
13 23
12 24
11 24
11 25
11 26
10 27
9 27
9 28
9 29
9 30
9 31
9 32
9 33
9 34
8 35
7 35
6 36
5 36
5 37
5 38
5 39
5 40
5 41
5 42
5 43
6 43
7 43
8 43
9 43
10 42
11 42
12 42
13 42
14 41
15 41
16 41
17 41
18 41
19 40
20 40
21 40
22 39
23 38
24 38
25 38
26 37
27 37
28 37
29 36
30 36
31 36
32 35
33 35
34 34
35 34
36 34
37 34
38 33
39 33
40 33
41 34
42 34
43 34
44 34
45 34
46 35
47 35
48 35
49 35
50 36
51 36
52 36
53 36
54 36
55 36
56 37
57 37
58 38
58 39
59 39
60 39
61 39
62 40
63 40
64 40
65 41
66 41
67 42
68 43
69 44
69 45
68 46
67 46
66 47
65 48
64 48
63 48
62 48
62 49
62 50
62 51
63 51
64 51
65 51
66 51
67 51
68 51
69 51
70 51
71 50
72 50
73 50
74 50
75 49
76 49
77 48
78 48
79 47
80 47
81 46
82 45
83 45
84 45
85 44
86 44
87 43
88 42
89 42
90 41
91 40
92 39
93 39
94 39
95 39
96 39
97 39
98 39
99 39
100 39
101 39
102 39
103 39
104 39
105 39
106 39
107 39
108 39
109 39
110 39
111 39
112 39
113 39
114 39
115 39
116 39
117 39
118 39
119 39
120 39
121 39
122 39
123 39
124 39
125 39
126 39
127 39
128 39
129 39
130 39
131 39
132 39
133 39
134 40
135 40
136 40
137 40
138 40
139 40
140 40
141 40
142 40
143 40
144 40
145 40
146 40
147 40
148 40
149 40
150 40
151 40
152 40
153 40
154 40
155 40
156 40
157 40
158 40
159 40
160 40
161 40
162 40
163 40
164 40
165 40
166 40
167 40
168 40
169 40
170 40
171 40
172 40
173 40
174 40
175 40
176 40
177 40
178 40
179 40
180 40
181 40
182 40
183 40
184 40
185 40
186 40
187 40
188 40
189 40
190 40
191 40
192 40
193 40
194 40
195 40
196 40
197 40
198 40
199 40
200 40
201 40
202 40
203 40
204 40
205 40
206 40
207 40
208 40
209 40
210 40
211 40
212 40
213 40
214 40
215 40
216 40
217 40
218 40
219 40
220 41
221 41
222 41
223 41
224 41
225 41
226 41
227 41
228 41
229 41
230 41
231 41
232 41
233 41
234 41
235 41
236 41
237 41
238 41
239 41
240 41
241 41
242 41
243 41
244 41
245 40
246 40
247 40
248 40
249 40
250 40
251 40
252 39
253 39
254 39
255 39
256 39
257 39
258 39
259 38
260 38
261 38
262 38
263 38
264 38
265 38
266 37
267 37
268 37
269 37
270 37
271 37
272 37
273 37
274 36
275 36
276 36
277 36
278 36
279 36
280 36
281 36
282 36
283 36
284 36
285 36
286 36
287 36
288 36
289 36
290 36
291 35
292 35
293 35
294 35
295 35
296 35
297 36
298 36
299 36
300 36
301 36
302 36
303 36
304 36
305 36
306 36
307 36
308 36
309 36
310 36
311 36
312 36
313 36
314 36
315 36
316 36
317 36
318 36
319 36
320 36
321 36
322 36
323 36
324 36
325 36
326 36
327 36
328 36
329 36
330 36
331 36
332 36
333 36
334 36
335 36
336 35
336 34
335 33
334 33
333 33
332 33
331 32
330 32
329 32
328 32
327 32
326 32
325 32
324 32
323 31
322 31
321 31
320 31
319 31
318 31
317 31
316 30
315 30
314 30
313 30
312 30
311 30
310 30
309 30
308 30
307 30
306 30
305 30
304 30
303 30
302 30
301 29
300 29
299 29
298 29
297 29
296 29
295 29
294 29
293 28
292 28
291 28
290 28
289 28
288 28
287 28
286 28
285 28
284 27
283 27
282 27
281 27
280 27
279 27
278 27
277 27
276 27
275 26
274 26
273 26
272 26
271 26
270 25
269 25
268 25
267 25
266 25
265 24
264 24
263 24
262 24
261 24
260 23
259 23
258 23
257 23
256 23
255 23
254 22
253 22
252 22
251 22
250 21
249 21
248 21
247 21
246 21
245 21
244 20
243 20
242 20
241 20
240 20
239 20
238 19
237 19
236 19
235 19
234 19
233 19
232 19
231 19
230 19
229 18
228 18
227 18
226 18
225 18
224 18
223 18
222 18
221 18
220 18
219 18
218 18
217 18
216 18
215 18
214 18
213 18
212 18
211 17
210 17
209 17
208 17
207 17
206 17
205 17
204 17
203 17
202 17
201 17
200 17
199 17
198 17
197 17
196 17
195 17
194 17
193 17
192 17
191 17
190 17
189 17
188 17
187 17
186 17
185 17
184 17
183 17
182 17
181 17
180 18
179 18
178 18
177 18
176 18
175 18
174 18
173 18
172 18
171 18
170 18
169 18
168 18
167 18
166 18
165 18
164 18
163 18
162 18
161 18
160 19
159 19
158 19
157 19
156 19
155 19
154 19
153 19
152 19
151 19
150 19
149 19
148 19
147 19
146 20
145 20
144 19
145 18
145 17
145 16
145 15
145 14
145 13
145 12
144 12
143 11
142 10
141 10
141 11
141 12
140 13
139 13
138 13
138 14
137 15
137 16
137 17
137 18
137 19
136 20
135 20
134 20
133 20
132 20
131 20
130 20
129 20
128 20
127 20
126 21
125 21
124 21
123 20
122 20
121 20
120 20
119 20
118 20
117 20
116 20
115 20
114 20
113 20
112 20
111 20
110 20
109 20
108 20
107 20
106 20
105 20
104 20
103 20
102 20
101 20
100 20
99 20
98 20
97 19
96 19
95 19
94 18
95 17
94 17
93 16
92 15
91 14
90 13
91 12
90 12
89 11
88 10
87 9
86 9
85 8
84 7
83 6
82 5
81 4
80 4
79 4
78 3
77 2
76 2
