71 2
70 3
69 3
68 3
67 3
66 3
65 3
64 3
63 3
62 3
61 4
60 4
60 5
60 6
59 7
59 8
59 9
58 10
57 11
56 11
55 11
54 11
53 11
52 11
51 12
50 12
49 12
48 12
47 12
46 12
45 13
44 13
43 13
42 13
41 13
40 14
39 14
38 15
37 15
36 15
35 15
34 16
33 16
32 16
31 17
30 17
29 18
28 18
27 19
26 19
25 20
24 21
23 22
22 23
21 24
20 25
19 26
18 27
17 27
16 28
15 28
14 29
13 29
12 30
11 30
10 31
9 31
8 32
7 32
6 33
5 34
4 34
4 35
3 36
2 37
2 38
2 39
2 40
2 41
3 42
4 43
5 43
6 44
7 44
8 45
9 45
10 46
11 46
12 46
13 47
14 47
15 48
16 48
17 49
18 49
19 49
20 50
21 50
22 51
23 51
24 52
25 52
26 53
27 53
28 53
29 54
30 54
31 55
32 55
33 55
34 56
35 56
36 57
37 57
38 57
39 58
40 58
41 59
42 59
43 59
44 59
45 59
46 60
47 60
48 60
49 61
50 61
51 61
52 62
53 62
54 62
55 63
56 63
57 63
58 63
59 64
60 64
61 65
61 66
61 67
61 68
62 69
63 69
64 70
64 71
65 72
65 73
66 74
66 75
67 76
68 77
69 78
70 79
71 80
72 81
73 82
74 82
75 82
76 82
77 82
78 81
78 80
79 79
80 78
81 77
81 76
82 75
82 74
83 73
83 72
83 71
83 70
83 69
83 68
82 68
81 67
80 66
81 65
82 65
83 65
84 65
85 65
86 65
87 65
88 65
89 64
90 64
91 64
92 64
93 63
94 63
95 63
96 63
97 62
98 62
99 62
100 62
101 62
102 63
103 64
103 65
104 66
105 67
106 68
107 67
108 66
109 67
110 67
111 68
112 67
113 68
114 69
115 68
116 68
117 69
118 69
119 69
120 69
121 70
122 70
123 70
124 70
125 70
126 71
127 71
128 71
129 71
130 71
131 71
132 71
133 71
134 71
135 71
136 71
137 70
138 70
139 70
140 70
141 69
142 69
143 68
143 67
144 66
144 65
144 64
143 64
142 63
141 62
140 61
139 60
138 59
137 58
136 57
135 57
134 56
133 55
134 54
135 54
136 54
137 54
138 54
139 54
140 54
141 54
142 54
143 54
144 54
145 54
146 54
147 54
148 55
149 55
150 55
151 55
152 56
153 56
154 57
155 57
156 58
157 58
158 59
159 59
160 59
161 60
162 61
163 61
164 62
165 62
166 62
167 63
168 64
169 64
170 65
171 66
172 66
173 67
174 67
175 67
176 67
177 67
178 67
178 66
179 65
179 64
180 63
180 62
181 61
181 60
182 59
182 58
182 57
183 56
183 55
183 54
184 53
184 52
184 51
184 50
185 49
185 48
185 47
185 46
185 45
186 44
186 43
186 42
186 41
186 40
186 39
187 38
187 37
187 36
187 35
187 34
187 33
187 32
187 31
187 30
187 29
187 28
186 28
185 27
186 26
185 26
184 25
183 25
182 24
181 24
180 24
179 24
178 24
177 24
176 24
175 24
174 24
173 24
172 24
171 25
170 25
169 25
168 25
167 26
166 26
165 26
164 26
163 27
162 27
161 27
160 28
159 28
158 28
157 29
156 29
155 29
154 29
153 30
152 30
151 30
150 30
149 30
148 30
147 30
146 30
145 29
145 28
146 27
147 26
148 26
148 25
149 24
150 23
150 22
151 21
151 20
152 19
152 18
151 18
150 17
151 16
150 16
149 15
150 14
149 14
148 13
147 12
146 12
145 12
144 11
143 11
142 11
141 11
140 11
139 11
138 11
137 11
136 11
135 11
134 11
133 11
132 11
131 11
130 11
129 11
128 11
127 11
126 11
125 11
124 12
123 12
122 12
121 12
120 11
119 11
118 11
117 10
116 10
115 10
114 9
113 9
112 9
111 8
110 8
109 8
108 8
107 8
106 7
105 7
104 7
103 7
102 6
101 6
100 6
99 6
98 5
97 5
96 5
95 5
94 5
93 4
92 4
91 4
90 4
89 4
88 4
87 4
86 4
85 3
84 3
83 3
82 3
81 3
80 3
79 3
78 2
77 2
76 2
75 2
74 2
73 2
72 2
