120 2
119 3
118 3
117 4
116 5
115 6
114 7
113 7
112 8
111 9
110 9
109 10
108 11
107 11
106 12
105 13
104 14
104 15
103 16
102 16
101 17
100 18
99 19
98 20
97 21
96 22
95 22
94 22
93 23
92 24
91 24
90 24
89 25
88 26
87 27
86 28
85 29
84 29
83 29
82 29
81 30
80 30
79 30
78 30
77 31
76 31
75 32
74 32
73 33
72 33
71 34
70 34
69 34
68 35
67 35
66 36
65 36
64 36
63 37
62 37
61 37
60 38
59 38
58 39
57 40
56 40
55 41
54 42
53 42
52 43
51 44
50 44
49 45
48 45
47 46
46 46
45 47
44 47
43 48
42 49
41 50
40 51
39 52
38 52
37 53
36 53
35 54
34 55
33 56
32 57
31 58
31 59
30 60
29 61
28 61
27 62
26 63
26 64
25 65
24 66
23 67
23 68
22 69
21 70
21 71
20 72
19 73
18 74
18 75
17 76
17 77
16 78
15 79
15 80
14 81
13 81
13 82
12 83
11 84
10 85
10 86
9 87
8 88
8 89
7 90
7 91
6 92
5 93
5 94
4 95
4 96
3 97
3 98
3 99
3 100
2 101
2 102
2 103
2 104
2 105
2 106
2 107
2 108
3 109
3 110
4 111
4 112
4 113
5 114
6 115
7 116
7 117
8 118
9 119
10 120
10 121
11 122
11 123
12 124
13 125
14 126
15 126
16 127
17 128
18 129
18 130
19 131
20 132
21 133
22 133
23 134
24 134
25 135
26 136
27 136
28 136
29 137
30 137
31 138
32 139
33 139
34 140
35 140
36 141
37 141
38 142
39 142
40 142
41 143
42 143
43 143
44 144
45 144
46 145
46 146
47 147
48 148
48 149
49 150
50 150
51 151
52 152
53 153
54 154
55 154
56 155
57 156
57 157
58 158
59 159
60 159
61 160
62 161
63 161
64 162
65 162
66 163
67 164
68 164
69 165
70 165
71 166
72 166
73 167
74 167
75 168
76 168
77 168
78 169
79 169
80 169
81 169
81 168
81 167
80 167
79 166
78 166
77 165
76 164
75 163
74 162
73 161
72 160
73 159
72 159
71 158
70 157
71 156
70 156
69 156
68 155
67 155
66 155
65 154
64 154
63 153
62 153
61 152
62 151
63 151
64 151
65 152
66 152
67 152
68 153
69 153
70 153
71 154
72 154
73 154
74 155
75 155
76 155
77 156
78 156
79 157
80 157
81 158
82 158
83 158
84 159
85 159
86 159
87 159
88 160
89 160
90 160
91 160
92 160
93 161
94 161
95 161
96 161
97 161
98 161
99 162
100 162
101 162
102 162
103 162
104 163
105 164
106 165
107 166
108 166
109 167
110 167
111 166
112 167
113 167
114 168
115 168
116 169
117 169
118 170
119 170
119 169
120 168
121 167
122 168
123 168
124 169
125 169
126 169
127 170
128 170
129 170
130 169
131 169
132 170
133 170
134 170
135 170
136 171
137 171
138 171
139 172
140 172
141 172
142 173
143 174
144 174
145 175
146 175
147 175
148 176
149 176
150 177
151 177
152 177
153 178
154 178
155 178
156 179
157 179
158 179
159 179
160 180
161 180
162 180
163 181
164 181
165 181
166 182
167 182
168 182
169 182
170 183
171 183
172 184
173 184
174 184
175 184
176 185
177 185
178 185
179 186
180 186
181 186
182 187
183 187
184 187
185 187
186 188
187 188
188 188
189 188
190 189
191 189
192 189
193 189
194 189
195 189
196 189
197 190
198 190
199 190
200 190
201 190
202 191
203 191
204 191
205 191
206 192
207 192
208 192
209 192
210 192
211 192
211 191
212 190
211 190
210 190
209 189
208 189
207 188
206 188
205 187
204 187
203 186
202 186
201 185
200 185
199 184
198 184
197 183
198 182
197 182
196 181
195 181
194 180
193 179
192 178
191 178
190 177
189 176
188 175
187 174
188 173
188 172
187 172
186 171
185 170
184 169
183 168
184 167
183 167
182 166
183 165
183 164
183 163
183 162
182 162
181 161
182 160
182 159
182 158
182 157
182 156
182 155
182 154
182 153
183 152
183 151
183 150
183 149
184 148
184 147
184 146
185 145
185 144
185 143
185 142
186 141
186 140
186 139
187 138
187 137
187 136
187 135
187 134
187 133
187 132
187 131
188 130
188 129
188 128
188 127
188 126
188 125
187 125
186 124
187 123
187 122
187 121
187 120
187 119
187 118
186 118
185 117
186 116
185 116
184 115
185 114
184 114
183 113
182 112
181 111
180 110
179 109
178 109
177 108
176 108
175 108
174 107
175 106
176 105
177 105
178 105
179 105
180 105
181 105
182 105
183 105
184 105
185 104
186 104
187 105
188 105
189 105
190 105
191 106
192 106
193 107
194 107
195 108
196 109
197 109
198 110
199 110
200 111
201 112
201 113
202 113
203 114
204 114
205 115
206 115
207 116
208 116
209 117
210 117
211 118
212 118
213 119
214 119
215 120
216 121
217 122
218 122
219 122
220 123
221 123
222 123
222 122
222 121
222 120
222 119
221 119
220 118
219 117
220 116
220 115
219 115
218 114
219 113
218 113
217 112
218 111
218 110
218 109
218 108
218 107
218 106
218 105
218 104
218 103
218 102
218 101
218 100
218 99
218 98
218 97
218 96
218 95
219 94
219 93
219 92
219 91
218 91
217 90
218 89
218 88
218 87
218 86
218 85
218 84
218 83
217 83
216 82
217 81
217 80
217 79
216 79
215 78
216 77
216 76
216 75
216 74
216 73
216 72
217 71
217 70
218 69
218 68
219 67
219 66
220 65
220 64
221 63
221 62
220 62
219 63
218 63
217 64
216 64
215 65
214 65
213 66
212 66
211 67
210 68
209 69
208 69
207 70
206 70
205 71
204 71
203 72
202 72
201 73
200 74
199 74
198 75
197 75
196 76
196 77
195 78
194 78
193 79
192 79
191 80
190 80
189 81
188 81
187 82
186 83
185 83
184 83
183 83
182 83
181 83
180 83
179 83
178 83
177 83
176 82
175 82
174 81
173 81
172 80
171 79
172 78
173 78
174 78
175 77
176 77
177 76
178 76
179 75
180 75
181 74
182 73
183 72
184 71
184 70
185 69
185 68
185 67
185 66
185 65
186 64
186 63
186 62
186 61
186 60
186 59
186 58
186 57
185 57
184 56
185 55
185 54
185 53
184 53
183 52
182 51
183 50
183 49
183 48
182 48
181 47
182 46
181 46
180 45
179 44
180 43
179 43
178 42
179 41
179 40
178 40
177 39
178 38
178 37
178 36
178 35
178 34
178 33
178 32
178 31
178 30
178 29
178 28
178 27
178 26
179 25
180 24
181 23
182 22
183 21
184 20
185 19
186 18
187 17
188 16
189 16
190 15
190 14
191 13
192 13
193 12
194 12
195 11
196 11
197 11
198 10
199 10
200 10
201 9
202 9
203 9
204 8
205 8
206 8
207 7
208 7
209 7
210 6
211 6
212 5
213 5
214 4
214 3
215 2
214 2
213 2
212 2
211 3
210 3
209 3
208 3
207 3
206 3
205 3
204 3
203 3
202 3
201 3
200 3
199 4
198 4
197 4
196 4
195 4
194 4
193 5
192 5
191 5
190 5
189 6
188 6
187 6
186 7
185 7
184 7
183 7
182 7
181 8
180 8
179 8
178 8
177 8
176 9
175 9
174 9
173 9
172 9
171 10
170 10
169 10
168 10
167 10
166 11
165 11
164 11
163 11
162 12
161 12
160 12
159 12
158 13
157 13
156 13
155 13
154 13
153 14
152 15
151 15
150 16
149 16
148 16
147 17
146 17
145 17
144 18
143 18
142 18
141 19
140 19
139 19
138 20
137 20
136 20
135 21
134 21
133 22
132 22
131 23
130 23
129 23
128 24
127 24
126 25
125 25
124 26
123 25
122 25
121 25
120 25
119 25
118 25
117 25
116 25
115 25
114 25
113 25
112 25
111 25
110 25
109 25
108 24
107 24
106 23
107 22
106 22
105 22
104 21
105 20
105 19
106 18
107 17
108 16
108 15
109 14
110 13
111 12
112 11
113 10
114 9
115 9
116 8
117 7
118 6
119 5
120 4
121 3
121 2
