69 1
68 2
67 2
66 2
65 2
64 2
63 2
62 2
61 2
60 2
59 3
58 3
57 3
56 4
55 5
54 6
53 7
52 8
51 9
50 10
49 11
48 11
47 11
46 12
45 12
44 12
43 12
42 12
41 13
40 13
39 13
38 14
37 14
36 14
35 14
34 15
33 15
32 15
31 16
30 16
29 17
28 17
27 17
26 18
25 18
24 19
23 19
22 19
21 20
20 20
19 21
18 21
17 22
16 22
15 22
14 23
13 23
12 24
11 24
10 25
9 25
8 26
7 27
6 28
5 28
4 29
3 30
2 31
2 32
2 33
2 34
2 35
3 36
4 37
5 38
6 39
7 39
8 40
9 41
10 42
11 42
12 43
13 43
14 44
15 45
16 45
17 45
18 45
19 46
20 46
21 47
22 47
23 48
24 48
25 49
26 49
27 50
28 50
29 50
30 51
31 51
32 52
33 52
34 52
35 53
36 53
37 53
38 53
39 54
40 54
41 54
42 55
43 55
44 55
45 55
46 56
47 56
48 56
49 56
50 56
51 57
52 57
53 57
54 57
55 57
56 58
57 59
58 60
59 61
60 62
61 62
62 63
63 63
64 64
65 64
66 64
67 64
68 64
69 64
70 64
71 64
72 64
73 64
74 64
75 63
75 62
76 61
76 60
77 59
78 59
79 59
80 59
81 59
82 59
83 59
84 59
85 59
86 59
87 58
88 59
89 60
90 61
91 62
92 63
93 64
94 64
95 64
96 64
97 64
98 64
99 64
100 64
101 65
102 65
103 65
104 65
105 65
106 65
107 65
108 65
109 65
110 65
111 65
112 64
113 64
114 65
115 65
116 65
117 65
118 64
119 64
120 64
121 64
122 64
123 64
124 64
125 64
126 64
127 63
128 63
129 63
130 62
131 62
132 61
133 61
134 60
134 59
135 58
135 57
136 56
136 55
136 54
136 53
137 52
138 52
139 52
140 52
141 52
142 52
143 52
144 52
145 53
146 53
147 53
148 53
149 54
150 55
151 55
152 56
153 56
154 57
155 57
156 58
157 58
158 59
159 59
160 60
161 60
162 60
163 60
164 60
165 60
166 60
167 60
168 60
169 59
170 59
171 58
172 57
173 57
174 56
175 55
176 55
176 54
177 53
177 52
178 51
178 50
179 49
179 48
180 47
180 46
180 45
180 44
180 43
181 42
181 41
181 40
181 39
181 38
180 38
179 37
180 36
180 35
180 34
179 34
178 33
179 32
179 31
178 31
177 30
176 29
177 28
176 28
175 27
174 26
173 26
172 25
171 24
170 24
169 24
168 23
167 23
166 23
165 23
164 24
163 24
162 24
161 24
160 25
159 25
158 25
157 26
156 26
155 26
154 27
153 27
152 27
151 28
150 28
149 29
148 29
147 29
146 29
145 29
144 29
143 29
142 29
141 29
140 29
139 29
138 29
137 28
136 28
135 28
134 28
133 28
132 28
131 27
130 27
129 26
129 25
130 24
131 24
132 23
133 23
134 23
135 22
136 22
137 22
138 21
139 21
140 20
141 20
142 20
143 20
144 19
144 18
145 17
145 16
144 16
143 15
142 15
141 14
140 13
139 13
138 12
137 12
136 11
135 11
134 11
133 10
132 10
131 9
130 9
129 9
128 9
127 8
126 8
125 8
124 7
123 7
122 7
121 7
120 7
119 7
118 7
117 6
116 6
115 6
114 6
113 6
112 6
111 6
110 6
109 6
108 6
107 6
106 6
105 5
104 5
103 5
102 5
101 5
100 5
99 5
98 5
97 5
96 4
95 4
94 4
93 4
92 4
91 4
90 4
89 4
88 4
87 3
86 3
85 3
84 3
83 3
82 3
81 3
80 2
79 2
78 2
77 2
76 2
75 2
74 2
73 2
72 2
71 2
70 2
