64 2
63 3
62 3
61 4
60 5
60 6
59 7
59 8
59 9
59 10
58 11
57 11
56 11
55 11
54 11
53 12
52 12
51 12
50 12
49 13
48 13
47 13
46 14
45 14
44 15
43 15
42 15
41 16
40 16
39 17
38 17
37 18
36 18
35 19
34 19
33 19
32 20
31 20
30 21
29 21
28 21
27 22
26 22
25 22
24 23
23 23
22 23
21 23
20 24
19 24
18 25
17 25
16 26
15 26
14 27
13 28
12 28
11 28
11 29
10 30
9 31
8 32
7 33
6 34
5 35
4 36
4 37
3 38
3 39
2 40
2 41
3 42
3 43
4 44
5 45
6 45
7 46
8 47
9 47
10 48
11 48
12 49
13 49
14 50
15 50
16 51
17 51
18 52
19 52
20 53
21 54
22 54
23 54
24 55
25 55
26 56
27 56
28 56
29 57
30 57
31 58
32 58
33 59
34 59
35 59
36 60
37 60
38 61
39 61
40 61
41 62
42 62
43 63
44 63
45 64
46 64
47 64
48 65
49 65
50 65
51 66
52 66
53 67
54 67
55 67
56 67
57 67
58 67
59 68
60 68
61 68
62 68
63 68
64 69
64 70
64 71
64 72
64 73
64 74
65 75
65 76
65 77
65 78
65 79
66 80
66 81
66 82
67 83
68 84
69 85
70 86
71 86
72 87
73 87
74 88
75 88
76 89
77 89
78 90
79 90
80 90
81 91
82 91
83 90
84 89
85 88
85 87
86 86
86 85
86 84
87 83
87 82
87 81
87 80
87 79
87 78
87 77
87 76
86 76
85 75
86 74
85 74
84 73
83 72
84 71
85 71
86 71
87 70
88 70
89 71
90 71
91 70
92 70
93 70
94 70
95 71
96 72
96 73
97 74
98 75
98 76
99 77
99 78
99 79
99 80
100 80
101 79
102 78
103 78
104 79
105 80
106 81
106 82
107 81
108 80
109 80
110 80
111 81
112 82
112 83
113 83
113 82
114 81
115 81
116 81
117 81
118 82
119 82
120 82
121 82
122 82
123 82
124 82
125 82
126 82
127 82
128 82
129 82
130 82
131 82
132 82
133 82
134 82
135 82
136 82
137 82
138 82
139 82
140 82
141 81
142 81
143 81
144 81
145 80
146 80
147 79
148 79
149 78
150 77
151 77
152 76
152 75
153 74
153 73
154 72
154 71
155 70
154 70
153 69
154 68
153 68
152 67
151 66
150 65
149 65
148 65
147 65
146 64
145 64
144 64
143 64
142 64
141 64
140 64
139 64
138 64
137 64
136 64
135 63
136 62
137 62
138 61
139 61
140 60
141 60
142 60
143 60
144 59
145 59
146 59
147 59
148 59
149 59
150 59
151 59
152 60
153 60
154 60
155 60
156 60
157 60
158 61
159 61
160 61
161 61
162 62
163 62
164 62
165 63
166 63
167 64
168 64
169 65
170 65
171 65
172 66
173 66
174 67
175 67
176 68
177 68
178 69
179 69
180 70
181 70
182 71
183 71
184 72
185 72
186 73
187 73
188 72
189 72
189 71
190 70
191 69
192 68
192 67
193 66
194 65
194 64
195 63
195 62
195 61
196 60
196 59
196 58
197 57
197 56
197 55
197 54
198 53
198 52
198 51
198 50
198 49
198 48
199 47
199 46
199 45
199 44
199 43
199 42
198 42
197 41
198 40
198 39
198 38
198 37
198 36
198 35
198 34
197 34
196 33
197 32
196 32
195 31
194 30
193 29
192 29
191 29
190 29
189 29
188 29
187 29
186 29
185 29
184 29
183 30
182 30
181 30
180 30
179 31
178 31
177 31
176 32
175 32
174 32
173 33
172 33
171 33
170 33
169 34
168 34
167 34
166 35
165 35
164 35
163 35
162 35
161 35
160 35
159 36
158 36
157 36
156 36
155 36
154 36
153 36
152 36
151 36
150 36
149 36
148 36
147 36
146 35
147 34
148 34
149 34
150 33
151 33
152 33
153 33
154 33
155 33
156 33
157 32
158 32
159 32
160 31
161 30
162 29
162 28
163 27
163 26
163 25
163 24
163 23
163 22
163 21
162 21
161 20
160 19
161 18
160 18
159 18
158 17
157 16
156 15
155 14
154 14
153 14
152 13
151 13
150 12
149 12
148 11
147 11
146 11
145 11
144 10
143 10
142 10
141 9
140 9
139 9
138 9
137 9
136 9
135 9
134 9
133 9
132 9
131 9
130 9
129 9
128 9
127 9
126 9
125 9
124 9
123 9
122 10
121 10
120 9
119 9
118 9
117 9
116 9
115 9
114 9
113 8
112 8
111 8
110 8
109 8
108 7
107 7
106 7
105 7
104 7
103 7
102 7
101 6
100 6
99 6
98 6
97 6
96 6
95 6
94 5
93 5
92 5
91 5
90 5
89 4
88 4
87 4
86 4
85 4
84 4
83 4
82 4
81 3
80 3
79 3
78 3
77 3
76 3
75 3
74 3
73 3
72 3
71 3
70 3
69 2
68 2
67 2
66 2
65 2
