55 1
54 2
54 3
54 4
54 5
53 6
52 7
52 8
51 9
51 10
50 11
49 12
48 13
47 13
46 13
45 13
44 13
43 13
42 13
41 13
40 13
39 13
38 13
37 13
36 13
35 13
34 14
33 14
32 14
31 14
30 14
29 14
28 14
27 14
26 14
25 15
24 15
23 15
22 15
21 15
20 16
19 16
18 16
17 16
16 16
15 16
14 17
13 17
12 17
11 17
10 17
9 18
8 18
7 18
6 19
5 19
4 20
3 21
3 22
2 23
2 24
2 25
2 26
2 27
2 28
2 29
3 30
3 31
4 32
4 33
5 34
5 35
6 36
6 37
7 38
7 39
7 40
8 41
8 42
9 43
9 44
10 45
11 46
12 47
13 47
14 48
15 49
16 50
17 50
18 51
19 52
20 52
21 52
22 53
23 53
24 54
25 54
26 55
27 55
28 55
29 55
30 56
31 56
32 56
33 56
34 57
35 58
35 59
35 60
36 61
36 62
36 63
37 64
37 65
38 66
38 67
38 68
39 68
40 68
41 69
42 70
42 71
43 72
44 73
45 74
46 75
47 76
48 77
49 78
50 78
51 77
52 77
53 76
54 75
54 74
55 73
55 72
55 71
55 70
55 69
55 68
54 68
53 67
54 66
53 66
52 65
53 64
52 64
51 63
50 62
49 61
50 60
51 59
52 60
53 60
54 60
55 60
56 60
57 60
58 60
59 60
60 60
61 60
62 61
63 61
64 61
65 62
65 63
66 64
66 65
67 66
67 67
68 68
68 69
69 70
69 71
69 72
70 73
71 74
72 73
73 73
74 74
75 75
76 76
76 75
77 74
78 74
79 75
80 76
81 75
82 74
83 75
84 76
85 77
85 76
86 75
87 75
88 75
89 75
90 76
91 76
91 75
92 74
93 75
94 75
95 74
96 73
97 73
98 74
99 73
100 72
101 73
102 73
103 73
103 72
104 71
105 71
106 71
107 72
108 72
108 71
109 70
110 69
111 69
112 70
113 69
113 68
114 67
115 67
116 68
117 69
117 68
118 67
119 67
120 67
121 68
121 67
122 66
123 66
124 66
125 66
126 66
127 65
128 65
129 65
130 65
131 64
132 64
133 64
134 63
135 63
136 64
137 64
137 63
138 62
139 62
140 62
141 63
141 62
142 61
143 61
144 61
145 62
146 62
146 61
147 60
148 60
149 60
150 60
151 59
152 59
153 59
154 59
154 58
155 57
156 57
157 58
158 57
159 56
160 56
161 56
162 55
163 54
164 55
165 55
165 54
166 53
167 52
168 53
169 53
169 52
170 51
171 50
172 50
172 49
173 48
173 47
174 46
175 46
176 46
177 46
178 46
179 46
180 45
181 45
182 45
183 45
184 45
185 45
186 45
187 45
188 45
189 46
190 46
191 46
192 46
193 46
194 47
195 47
196 47
197 48
198 48
199 48
200 48
201 49
202 49
203 49
204 50
205 50
206 50
207 51
208 51
209 51
210 51
211 52
212 52
213 52
214 53
215 53
216 53
217 54
218 54
218 53
219 52
219 51
219 50
219 49
219 48
219 47
219 46
219 45
219 44
220 43
220 42
220 41
220 40
220 39
220 38
220 37
220 36
220 35
220 34
220 33
220 32
220 31
220 30
220 29
220 28
220 27
220 26
220 25
220 24
220 23
220 22
220 21
220 20
220 19
220 18
220 17
220 16
220 15
219 15
218 15
217 15
216 15
215 15
214 16
213 16
212 16
211 17
210 17
209 17
208 17
207 18
206 18
205 18
204 19
203 19
202 19
201 20
200 20
199 20
198 21
197 21
196 21
195 22
194 22
193 23
192 23
191 23
190 24
189 24
188 25
187 25
186 25
185 26
184 26
183 26
182 27
181 27
180 27
179 27
178 27
177 27
176 27
175 27
174 27
173 27
172 27
171 26
171 25
172 24
171 24
170 23
169 23
168 22
167 22
166 21
165 21
164 21
163 20
162 20
161 20
160 19
159 19
158 18
157 18
156 18
155 17
154 17
153 17
152 17
151 16
150 16
149 16
148 15
147 15
146 15
145 15
144 14
143 14
142 14
141 14
140 14
139 13
138 13
137 13
136 13
135 13
134 12
133 12
132 12
131 12
130 11
129 11
128 11
127 11
126 11
125 11
124 10
123 10
122 10
121 10
120 10
119 9
118 9
117 9
116 9
115 8
114 9
113 9
112 8
111 8
110 8
109 8
108 8
107 8
106 8
105 8
104 8
103 8
102 8
101 8
100 7
99 7
98 7
97 7
96 7
95 7
94 7
93 7
92 7
91 7
90 7
89 7
88 6
87 6
86 6
85 6
84 6
83 6
82 6
81 6
80 6
79 6
78 6
77 6
76 6
75 7
74 8
73 8
72 9
71 10
70 11
69 12
69 13
68 14
67 14
66 14
65 13
66 12
66 11
65 11
64 11
63 11
62 10
63 9
63 8
62 8
61 8
60 8
59 7
60 6
60 5
60 4
60 3
60 2
59 2
58 3
57 3
56 3
55 2
56 1
