37 2
36 3
36 4
36 5
35 6
35 7
34 8
34 9
33 10
32 11
31 12
30 12
29 12
28 13
27 13
26 13
25 13
24 14
23 14
22 14
21 14
20 15
19 16
18 16
17 17
16 18
15 19
14 20
13 21
12 22
11 23
10 24
10 25
9 26
9 27
8 28
8 29
7 30
7 31
7 32
6 33
6 34
6 35
5 36
5 37
5 38
5 39
4 40
4 41
4 42
4 43
3 44
3 45
3 46
3 47
2 48
2 49
2 50
2 51
2 52
2 53
2 54
3 55
4 56
5 56
6 57
7 57
8 58
9 58
10 59
11 59
12 59
13 60
14 60
15 60
16 60
17 61
18 61
19 61
20 61
21 61
22 62
23 62
24 62
25 62
26 62
27 63
28 63
29 63
30 63
31 63
32 64
33 64
34 64
35 64
36 64
37 64
38 65
39 66
39 67
39 68
40 69
40 70
40 71
41 72
41 73
41 74
42 75
42 76
42 77
42 78
43 79
43 80
43 81
44 82
44 83
45 83
46 83
46 82
47 81
47 80
47 79
47 78
48 77
48 76
48 75
49 74
49 73
50 72
50 71
51 70
51 69
51 68
51 67
52 66
53 66
54 67
55 67
56 67
57 67
58 67
59 67
60 67
61 67
62 67
63 67
64 67
65 67
66 67
67 68
68 68
69 68
70 68
71 68
72 69
73 69
74 70
75 71
75 72
76 72
77 72
78 73
79 74
80 75
81 75
82 75
83 76
84 77
85 78
86 77
87 77
88 77
89 77
90 77
91 77
92 77
93 77
94 76
95 76
96 76
97 76
98 76
99 76
100 76
101 76
102 76
103 75
104 75
105 75
106 75
107 75
108 75
109 74
110 74
111 74
112 74
113 74
114 73
115 73
116 73
117 73
118 72
119 72
120 72
121 72
122 72
123 71
124 71
125 71
126 70
127 70
128 70
129 69
130 69
131 69
132 68
133 68
134 67
135 67
136 66
137 66
138 65
139 65
140 64
141 64
142 63
143 63
144 62
145 61
146 61
147 60
148 59
149 58
149 57
150 56
149 56
148 55
149 54
150 54
151 54
152 54
153 55
154 55
155 55
156 56
157 56
158 57
159 58
160 59
161 59
162 60
163 61
164 61
165 62
166 62
167 63
168 63
169 63
170 64
171 64
172 64
173 64
174 63
175 63
176 62
176 61
177 60
178 59
178 58
179 57
179 56
180 55
180 54
180 53
181 52
181 51
181 50
181 49
182 48
182 47
182 46
182 45
182 44
182 43
182 42
182 41
182 40
181 40
180 39
181 38
181 37
181 36
181 35
181 34
181 33
180 33
179 32
180 31
180 30
180 29
179 29
178 28
179 27
178 27
177 26
178 25
177 25
176 24
175 23
174 23
173 23
172 23
171 23
170 23
169 23
168 23
167 24
166 25
165 25
164 25
163 26
162 26
161 27
160 27
159 28
158 28
157 29
156 29
155 29
154 30
153 30
152 30
151 31
150 31
149 31
148 31
147 31
146 32
145 32
144 32
143 32
142 31
141 31
140 31
139 31
138 30
137 30
136 29
135 29
134 28
135 27
136 26
137 26
138 26
139 25
140 25
141 24
142 24
143 23
144 23
145 22
146 22
146 21
146 20
146 19
145 19
144 19
143 19
142 18
141 18
140 17
139 17
138 17
137 16
136 16
135 15
134 15
133 14
132 14
131 14
130 13
129 13
128 12
127 12
126 12
125 11
124 11
123 11
122 11
121 10
120 10
119 10
118 10
117 9
116 9
115 8
114 8
113 8
112 8
111 7
110 7
109 7
108 7
107 6
106 6
105 6
104 6
103 6
102 6
101 5
100 5
99 5
98 5
97 5
96 5
95 5
94 5
93 5
92 5
91 5
90 6
89 6
88 6
87 6
86 6
85 6
84 6
83 6
82 5
81 5
80 5
79 5
78 5
77 5
76 5
75 5
74 5
73 5
72 5
71 5
70 5
69 4
68 3
69 2
68 2
67 2
67 3
66 4
65 4
64 4
63 4
62 4
61 4
60 4
59 4
58 3
57 3
56 3
55 3
54 3
53 3
52 2
51 2
50 2
49 2
48 2
47 2
46 2
45 2
44 2
43 2
42 2
41 2
40 2
39 2
38 2
