53 1
52 2
51 3
50 4
50 5
49 6
48 7
47 8
46 9
45 10
44 10
43 10
42 10
41 10
40 11
39 11
38 11
37 11
36 11
35 11
34 11
33 11
32 11
31 12
30 12
29 12
28 12
27 12
26 12
25 12
24 13
23 13
22 13
21 13
20 14
19 14
18 14
17 15
16 15
15 15
14 15
13 15
12 16
11 17
10 17
9 18
8 18
7 19
6 20
5 20
4 21
4 22
3 23
3 24
3 25
2 26
2 27
2 28
3 29
3 30
4 31
4 32
5 33
6 34
7 35
7 36
8 37
8 38
9 39
10 40
10 41
11 42
12 43
13 44
14 45
15 45
16 46
17 46
18 47
19 47
20 47
21 47
22 48
23 48
24 48
25 48
26 48
27 49
28 49
29 49
30 49
31 50
32 50
33 50
34 50
35 50
36 50
37 51
38 51
39 51
40 52
40 53
40 54
41 55
41 56
42 57
43 57
44 58
44 59
45 60
45 61
46 61
47 61
48 61
49 60
50 59
50 58
51 57
51 56
52 55
52 54
52 53
53 52
54 52
55 52
56 52
57 52
58 52
59 53
60 54
61 55
61 56
62 57
63 58
64 59
64 60
65 61
66 60
67 59
68 60
69 61
70 61
71 60
72 60
73 61
74 61
75 60
76 61
77 61
78 60
79 61
80 61
81 61
82 60
83 61
84 61
85 61
85 60
86 59
87 60
88 61
89 61
89 60
90 59
91 60
92 61
93 61
93 60
94 59
95 60
96 60
97 61
98 61
99 60
100 61
101 61
102 60
103 60
104 61
105 61
106 60
107 60
108 60
109 60
110 60
111 60
111 59
112 58
113 57
114 58
114 59
115 60
115 59
116 58
117 58
118 59
119 58
120 57
121 58
122 58
122 57
123 56
124 57
125 57
126 56
127 56
128 56
129 56
130 55
131 55
132 55
133 54
134 55
135 54
136 53
137 54
138 54
138 53
139 52
140 52
141 52
142 52
143 51
144 51
145 52
145 51
146 50
147 50
148 51
148 50
149 49
150 49
151 49
152 50
153 49
154 48
155 48
156 48
157 48
157 47
158 46
159 46
160 47
161 46
162 45
163 46
164 46
164 45
165 44
166 44
167 45
168 44
169 43
170 43
171 43
172 42
173 42
174 42
175 42
176 41
177 41
178 40
179 39
179 38
180 37
181 37
182 37
183 37
184 37
185 37
186 37
187 37
188 37
189 38
190 38
191 38
192 39
193 39
194 39
195 39
196 40
197 40
198 40
199 41
200 41
201 42
202 42
203 42
204 42
205 43
206 43
207 43
208 44
209 44
210 44
211 45
212 45
213 45
214 45
215 45
216 45
217 45
218 45
218 44
219 43
218 43
217 42
218 41
217 41
216 40
217 39
217 38
216 38
215 37
216 36
216 35
215 35
214 34
215 33
215 32
215 31
215 30
215 29
215 28
215 27
215 26
216 25
216 24
216 23
216 22
216 21
216 20
216 19
217 18
217 17
217 16
217 15
217 14
218 13
218 12
218 11
219 10
219 9
218 9
217 9
216 9
215 9
214 9
213 9
212 10
211 10
210 10
209 10
208 11
207 11
206 11
205 12
204 12
203 12
202 12
201 13
200 13
199 13
198 14
197 14
196 14
195 15
194 15
193 15
192 16
191 16
190 16
189 17
188 17
187 18
186 18
185 18
184 19
183 19
182 19
181 20
180 20
179 20
178 20
177 20
176 20
175 20
174 20
173 19
172 18
173 17
174 17
174 16
175 15
174 15
173 14
172 14
171 14
170 14
169 13
168 13
167 13
166 13
165 12
164 12
163 12
162 12
161 11
160 11
159 11
158 11
157 11
156 10
155 10
154 10
153 9
152 9
151 9
150 9
149 8
148 8
147 8
146 8
145 7
144 7
143 7
142 7
141 7
140 6
139 6
138 6
137 6
136 6
135 6
134 5
133 5
132 5
131 5
130 5
129 5
128 5
127 5
126 5
125 4
124 4
123 4
122 4
121 4
120 4
119 4
118 4
117 4
116 4
115 4
114 4
113 4
112 4
111 4
110 4
109 3
108 3
107 3
106 3
105 3
104 3
103 3
102 3
101 3
100 3
99 3
98 3
97 3
96 3
95 3
94 3
93 3
92 3
91 3
90 3
89 3
88 3
87 3
86 3
85 3
84 3
83 4
82 4
81 4
80 4
79 4
78 4
77 4
76 4
75 5
74 5
73 5
72 6
71 7
71 8
70 9
69 10
68 10
67 10
66 10
65 10
64 9
63 8
64 7
63 7
62 7
61 6
62 5
61 5
60 5
59 4
60 3
59 3
58 4
57 4
56 3
57 2
56 2
55 2
54 1
