133 2
132 3
132 4
132 5
132 6
132 7
132 8
133 9
134 10
134 11
134 12
134 13
134 14
133 15
133 16
132 17
132 18
131 19
131 20
131 21
132 22
132 23
131 24
130 24
129 25
128 26
128 27
128 28
127 29
126 29
125 29
124 29
123 29
122 29
121 30
120 30
119 30
118 30
117 30
116 30
115 31
114 31
113 31
112 31
111 31
110 32
109 32
108 32
107 32
106 32
105 32
104 32
103 33
102 33
101 33
100 33
99 33
98 33
97 33
96 33
95 33
94 34
93 34
92 34
91 34
90 34
89 35
88 35
87 35
86 35
85 35
84 35
83 36
82 36
81 36
80 37
79 37
78 37
77 37
76 37
75 37
74 37
73 37
72 37
71 37
70 37
69 37
68 37
67 37
67 38
66 39
65 39
64 39
63 39
62 39
61 40
60 40
59 40
58 40
57 40
56 40
55 40
54 40
53 40
52 41
51 41
50 41
49 40
48 40
47 40
46 40
45 40
44 40
43 40
42 40
41 39
40 39
39 38
38 38
37 37
36 37
35 37
34 36
33 35
32 35
31 34
30 33
29 33
28 33
27 32
26 32
25 31
24 31
23 31
22 30
21 30
20 29
19 29
18 28
17 28
16 27
15 27
14 26
13 26
12 26
11 25
12 24
11 24
10 23
9 23
8 23
7 23
6 23
5 23
4 23
3 24
2 24
2 25
2 26
2 27
2 28
2 29
3 29
4 29
5 30
5 31
5 32
5 33
6 34
7 35
8 36
9 37
10 38
11 38
12 39
12 40
13 40
14 40
15 40
16 40
17 39
18 39
19 40
19 41
19 42
20 42
21 43
21 44
21 45
22 46
22 47
22 48
21 49
20 49
19 49
18 49
17 49
17 50
16 51
16 52
15 53
14 54
14 55
13 56
13 57
12 58
11 59
11 60
10 61
9 62
8 62
7 62
7 63
7 64
6 65
5 65
5 66
5 67
5 68
5 69
5 70
6 70
7 70
8 70
9 70
10 70
11 69
12 69
13 68
14 68
15 68
16 68
17 67
18 68
19 68
20 68
21 68
22 68
23 67
24 66
25 66
26 66
27 66
28 65
29 65
30 65
31 64
31 63
32 62
33 62
34 62
35 61
36 60
37 60
38 59
39 58
40 58
41 57
42 57
43 57
44 56
45 56
46 56
47 55
48 55
49 54
50 55
51 56
52 57
52 58
52 59
53 60
53 61
54 61
55 62
55 63
56 63
57 64
58 65
59 65
60 66
61 66
62 67
62 68
62 69
63 69
64 70
64 71
64 72
65 72
66 73
67 73
68 73
69 73
70 73
71 73
72 73
73 73
74 73
75 73
76 72
77 72
78 73
79 73
80 73
81 72
82 72
83 71
84 71
85 71
86 70
87 70
88 69
89 68
89 67
90 66
91 65
92 64
93 63
94 63
95 63
96 64
97 64
98 64
99 64
100 64
101 64
102 64
103 63
103 62
104 61
105 62
105 63
105 64
106 64
107 64
108 63
109 64
110 64
111 65
112 65
113 65
114 65
115 65
116 64
117 64
118 64
119 65
119 66
120 66
121 66
122 66
123 67
124 67
125 67
126 67
127 67
128 67
129 67
130 67
131 67
132 67
133 67
134 67
135 67
136 67
137 67
138 67
139 67
140 67
141 67
142 67
143 67
144 67
145 67
146 67
147 67
148 67
149 67
150 66
151 67
152 67
153 67
154 68
153 69
152 69
151 70
150 71
149 71
148 71
147 72
146 73
145 73
144 73
144 74
144 75
144 76
144 77
144 78
145 78
146 78
147 79
147 80
147 81
146 82
146 83
146 84
146 85
147 85
148 85
149 85
150 85
151 86
152 87
153 88
154 89
155 90
156 90
157 91
158 92
159 92
160 92
161 92
162 92
163 92
164 91
165 90
166 89
167 88
168 87
169 86
169 85
170 84
170 83
171 82
172 81
173 80
173 79
174 78
174 77
174 76
175 75
176 74
176 73
177 72
177 71
178 70
179 70
180 70
181 70
182 70
183 70
184 70
185 70
186 69
187 69
188 69
189 69
190 69
191 68
192 68
193 68
194 68
195 68
196 68
197 67
198 67
199 67
200 67
201 67
202 67
203 67
204 66
205 66
206 66
207 65
208 65
209 65
210 65
211 65
212 64
213 64
214 64
215 63
216 63
217 62
218 62
219 62
220 62
221 61
222 61
223 61
224 61
225 61
226 61
227 61
228 61
229 60
230 59
231 59
232 59
233 58
234 58
235 57
236 56
237 56
238 56
239 56
240 55
241 55
242 55
243 54
244 54
245 53
246 53
247 52
248 51
249 51
250 50
251 49
252 48
252 47
253 46
253 45
253 44
253 43
253 42
253 41
253 40
252 40
251 39
250 38
249 38
248 37
247 37
246 36
245 36
244 36
243 36
242 36
241 35
240 35
239 35
238 35
237 35
236 35
235 35
234 35
233 35
232 35
231 35
230 35
229 35
228 35
227 35
226 34
225 34
224 33
223 33
222 33
221 33
220 33
219 33
218 33
217 33
216 33
215 33
214 33
213 33
212 33
211 33
210 32
209 32
208 32
207 32
206 32
205 32
204 32
203 32
202 32
201 31
200 31
199 31
198 31
197 31
196 31
195 30
194 30
193 30
192 30
191 30
190 29
189 29
188 29
187 29
186 29
185 29
184 29
183 29
182 28
181 28
180 28
179 28
178 28
177 28
176 28
175 28
174 28
173 28
172 28
171 28
170 28
169 27
168 27
167 27
166 27
165 27
164 26
163 25
162 24
161 24
160 23
161 22
161 21
160 21
159 20
158 19
157 18
156 17
155 17
154 16
155 15
154 15
153 14
152 13
151 13
150 13
149 12
148 12
147 11
146 10
145 9
144 8
143 7
142 7
141 6
140 5
139 5
138 4
139 3
138 3
137 2
136 2
135 2
134 2
