96 1
96 2
95 3
95 4
94 5
94 6
94 7
93 8
92 9
91 10
91 11
90 12
90 13
89 14
88 15
88 16
88 17
87 18
86 19
86 20
85 21
85 22
85 23
84 24
83 25
83 26
83 27
82 28
82 29
81 30
80 31
79 32
78 33
77 33
76 34
75 34
74 35
73 35
73 36
72 37
71 38
70 38
69 39
68 40
67 41
67 42
66 43
65 44
64 44
63 45
62 46
61 47
60 48
59 48
58 49
57 49
56 49
55 50
54 50
53 50
52 50
51 50
50 51
49 51
48 51
47 52
46 52
45 53
44 53
43 53
42 53
41 53
40 53
39 53
38 53
37 53
36 53
35 54
34 54
33 54
32 54
31 54
30 54
29 54
28 54
27 54
26 54
25 54
24 54
23 54
22 54
21 55
20 55
19 55
18 55
17 55
16 55
15 55
14 55
13 55
12 55
11 55
10 55
9 55
8 55
7 55
6 55
5 55
4 55
3 55
2 55
2 56
2 57
2 58
3 58
4 58
5 58
6 58
7 58
8 58
9 58
10 58
11 59
12 58
13 58
14 58
15 58
16 59
17 59
18 59
19 59
20 59
21 59
22 59
23 60
24 59
25 59
26 59
27 59
28 59
29 59
30 59
31 59
32 59
33 59
34 60
35 60
36 61
37 62
38 62
39 63
40 63
41 63
42 63
43 64
44 64
45 65
46 65
47 66
48 66
49 66
50 66
51 67
52 67
53 68
54 68
55 68
56 68
57 68
58 69
59 69
60 69
61 70
62 70
63 70
64 71
65 71
66 71
67 71
68 71
69 71
70 72
71 72
72 73
73 73
74 74
75 74
76 74
77 74
78 74
79 74
80 75
81 75
82 75
83 76
84 76
85 76
86 76
87 76
88 76
89 76
90 76
91 77
92 77
93 78
94 78
95 79
96 79
97 79
98 80
99 80
100 80
101 80
102 80
103 80
104 81
105 81
106 81
107 81
108 81
109 81
110 81
111 82
112 82
113 82
114 82
115 82
116 82
117 83
118 83
119 83
120 84
121 84
122 84
123 84
124 84
125 84
126 84
127 84
127 83
128 82
127 82
126 81
125 81
124 81
123 81
122 81
121 81
120 81
119 80
120 79
121 79
122 79
123 79
124 79
125 79
126 79
127 79
128 79
129 79
130 79
131 79
132 79
133 79
134 79
135 79
136 79
137 79
138 79
139 79
140 79
141 79
142 80
143 79
144 79
145 79
146 79
147 79
148 79
149 79
150 79
151 79
152 79
153 79
154 79
155 79
156 79
157 79
158 79
159 79
160 79
161 79
162 79
163 79
164 80
164 81
165 82
165 83
166 84
166 85
167 85
168 86
169 87
169 88
170 89
170 90
171 91
172 91
173 92
173 93
174 94
175 95
176 96
177 97
178 98
179 98
179 97
180 96
180 95
181 94
181 93
181 92
181 91
181 90
181 89
181 88
181 87
181 86
181 85
182 84
182 83
182 82
183 81
184 80
185 79
186 78
187 77
188 76
189 76
190 75
191 75
192 75
193 75
194 75
195 74
196 74
197 74
198 74
199 74
200 73
201 73
202 73
203 73
204 72
205 72
206 72
207 72
208 73
209 74
210 75
211 75
212 76
213 76
214 77
215 77
216 77
216 76
217 75
216 74
216 73
217 72
218 71
219 71
220 70
221 70
222 69
223 69
224 69
225 69
226 69
227 69
227 68
228 67
228 66
229 65
230 65
231 65
232 65
233 65
234 65
235 65
236 65
237 65
238 65
239 66
240 66
241 66
242 66
243 66
244 67
245 68
245 69
246 70
247 71
248 72
248 73
249 74
250 75
251 76
252 77
252 78
253 79
254 80
255 81
256 82
256 83
256 84
257 85
258 86
259 87
259 88
260 89
261 90
262 91
263 92
263 93
264 94
265 95
266 96
267 96
268 97
268 98
269 99
270 100
271 100
272 101
273 101
274 102
275 103
276 104
277 104
278 105
279 105
280 106
281 106
282 107
283 108
284 108
285 109
286 109
287 109
287 108
288 107
287 107
286 106
285 105
284 104
283 103
282 102
283 101
282 101
281 100
280 99
279 98
278 97
279 96
278 96
277 95
276 94
275 93
276 92
276 91
275 91
274 90
273 89
272 88
273 87
273 86
272 86
271 85
270 84
269 83
270 82
270 81
269 81
268 80
269 79
268 79
267 78
268 77
267 77
266 76
267 75
266 75
265 74
264 73
265 72
265 71
264 71
263 70
262 69
263 68
263 67
262 66
262 65
263 64
263 63
263 62
263 61
263 60
263 59
263 58
263 57
263 56
263 55
263 54
263 53
263 52
263 51
263 50
263 49
263 48
263 47
264 46
264 45
265 44
266 44
266 43
267 42
267 41
268 40
269 39
270 38
270 37
271 36
272 35
273 34
274 33
274 32
275 31
276 30
277 29
278 28
278 27
279 26
280 25
281 24
282 23
282 22
283 21
284 20
285 19
286 18
286 17
287 16
288 15
289 14
290 13
290 12
291 11
292 11
292 10
292 9
291 9
290 8
289 9
288 9
287 9
286 10
285 10
284 11
283 12
282 13
281 14
280 14
279 15
278 15
277 15
276 16
276 17
275 18
274 18
273 19
272 20
271 20
270 21
270 22
269 23
268 23
267 24
266 25
265 26
264 27
263 28
262 29
261 30
260 31
260 32
259 33
258 33
257 34
257 35
256 36
255 37
254 38
253 39
252 40
251 41
251 42
250 43
249 44
248 45
247 45
247 46
246 47
245 48
244 49
243 50
242 50
241 51
240 50
239 50
238 50
237 50
236 50
235 50
234 50
233 50
232 50
231 49
230 49
229 49
228 48
229 47
228 47
227 47
226 47
225 46
224 46
223 45
222 45
221 45
220 45
219 44
218 44
217 43
218 42
217 41
217 40
218 39
217 39
216 38
215 39
214 39
213 40
212 40
211 41
210 42
209 43
208 43
207 44
206 44
205 44
204 44
203 44
202 44
201 43
200 43
199 42
198 41
197 41
196 40
195 40
194 40
193 39
192 39
191 39
190 39
189 39
188 38
187 38
186 38
185 38
184 38
183 37
182 37
181 37
180 36
179 36
178 36
177 36
176 36
175 35
174 35
173 35
172 35
171 35
170 35
169 35
168 34
167 34
166 34
165 34
164 34
163 34
162 34
161 34
160 34
159 34
158 33
157 33
156 33
155 33
154 33
153 33
152 33
151 33
150 33
149 33
148 33
147 33
146 32
145 32
144 32
143 32
142 31
141 31
140 31
139 31
138 30
137 30
136 30
135 30
134 30
133 30
132 30
131 30
130 30
129 30
128 30
127 30
126 29
125 29
124 29
123 29
122 29
121 29
120 29
119 29
118 28
117 28
116 28
115 28
114 28
113 28
112 28
111 27
110 27
109 26
108 25
107 25
106 24
105 24
104 23
103 23
102 22
103 21
102 21
101 20
102 19
101 19
100 18
101 17
100 17
99 16
100 15
100 14
99 14
98 13
99 12
99 11
98 11
97 10
98 9
98 8
98 7
98 6
98 5
98 4
98 3
98 2
97 1
