61 2
60 3
59 3
58 4
57 5
56 4
55 5
55 6
54 7
54 8
53 9
53 10
52 11
52 12
52 13
51 14
51 15
50 16
50 17
49 18
48 18
47 18
46 18
45 18
44 18
43 19
42 19
41 19
40 19
39 19
38 19
37 20
36 20
35 20
34 21
33 21
32 21
31 21
30 22
29 22
28 22
27 22
26 23
25 23
24 24
23 24
22 24
21 25
20 25
19 25
18 26
17 26
16 27
15 27
14 27
13 28
12 28
11 29
10 29
9 30
8 31
7 31
6 32
5 32
4 33
3 34
2 35
2 36
2 37
3 38
3 39
4 40
5 41
6 41
7 42
8 43
9 44
10 44
11 45
12 46
13 46
14 46
15 47
16 47
17 47
18 48
19 48
20 49
21 49
22 49
23 50
24 50
25 50
26 51
27 51
28 51
29 52
30 52
31 52
32 53
33 53
34 53
35 53
36 54
37 54
38 54
39 54
40 54
41 54
42 55
43 55
44 55
45 55
46 55
47 56
48 56
49 57
49 58
50 59
51 60
51 61
52 62
52 63
53 64
53 65
54 66
54 67
55 68
56 67
56 66
57 65
57 64
58 63
58 62
59 61
59 60
60 59
60 58
61 57
62 57
63 57
64 58
65 58
66 58
67 58
68 58
69 58
70 58
71 58
72 59
73 58
74 58
75 58
76 58
77 59
78 59
79 59
80 59
81 59
82 59
83 59
84 59
85 59
86 59
87 59
88 59
89 59
90 59
91 59
92 59
93 59
94 59
95 59
96 59
97 58
98 58
99 58
100 58
101 58
102 58
103 58
104 58
105 57
106 57
107 57
108 57
109 57
110 57
111 57
112 57
113 57
114 56
115 56
116 56
117 56
118 56
119 56
120 56
121 56
122 55
123 55
124 56
125 57
126 58
127 59
128 60
129 60
130 60
131 61
132 61
133 62
134 62
135 63
136 62
136 61
137 60
136 60
135 59
136 58
136 57
135 57
134 56
135 55
135 54
135 53
136 52
137 51
138 51
139 51
140 52
141 52
142 52
142 51
143 50
144 50
145 50
146 51
147 51
148 51
148 50
149 49
150 49
151 49
152 49
152 48
153 47
154 47
155 47
156 47
157 47
158 47
158 46
159 45
160 46
161 46
162 46
163 45
163 44
164 43
165 44
166 44
167 44
168 43
169 42
170 43
171 43
172 43
173 42
174 42
175 43
176 43
177 44
178 45
179 46
180 47
181 48
182 49
183 50
183 51
184 52
185 53
186 54
187 55
188 56
189 57
190 58
191 59
192 60
193 60
194 61
195 62
196 63
197 63
198 63
199 64
200 64
201 64
202 64
202 63
203 62
202 62
201 61
202 60
201 60
200 59
199 58
200 57
199 57
198 56
197 55
198 54
197 54
196 53
195 52
196 51
195 51
194 50
195 49
194 49
193 48
194 47
193 47
192 46
193 45
193 44
193 43
192 43
191 42
192 41
192 40
192 39
192 38
192 37
192 36
192 35
192 34
192 33
193 32
193 31
193 30
193 29
194 28
194 27
195 26
195 25
196 24
197 23
197 22
198 21
198 20
199 19
199 18
200 17
201 16
201 15
202 14
202 13
203 12
202 12
201 11
200 11
199 12
198 13
197 13
196 14
195 14
194 15
193 16
192 16
191 17
190 18
189 19
188 20
187 21
186 22
185 22
184 23
183 24
182 25
181 26
181 27
180 28
179 29
178 30
177 31
176 32
175 32
174 33
173 33
172 32
171 31
170 32
169 32
168 32
167 32
166 31
167 30
166 30
165 29
164 30
163 29
162 29
161 28
160 28
159 28
158 27
157 27
156 27
155 27
154 27
153 28
152 28
151 27
152 26
152 25
151 25
150 25
149 25
148 26
147 26
146 25
147 24
146 24
145 24
144 24
143 25
142 24
142 23
141 23
140 22
139 23
138 24
137 24
136 23
136 22
135 21
134 21
133 22
132 23
131 22
130 22
129 22
128 22
127 21
126 20
125 20
124 19
123 18
122 17
121 16
120 16
119 15
118 14
117 13
116 12
117 11
117 10
116 10
115 9
114 10
114 11
113 12
112 13
111 14
111 15
110 16
109 16
108 17
107 17
106 17
105 16
104 16
103 16
102 15
101 15
100 14
99 14
98 14
97 13
96 13
95 13
94 13
93 12
92 12
91 11
90 11
89 10
88 10
87 10
86 10
85 9
84 9
83 9
82 8
81 8
80 8
79 7
78 7
77 7
76 6
75 6
74 6
73 5
72 5
71 5
70 4
69 4
68 4
67 4
66 3
65 3
64 3
63 2
62 2
