68 1
67 2
66 3
66 4
65 5
65 6
64 7
63 8
63 9
62 10
62 11
61 12
61 13
60 14
60 15
59 16
59 17
58 18
58 19
58 20
58 21
57 22
56 22
55 22
54 22
53 23
52 23
51 23
50 23
49 23
48 23
47 23
46 23
45 23
44 23
43 24
42 24
41 24
40 24
39 24
38 25
37 25
36 25
35 26
34 26
33 27
32 27
31 27
30 28
29 28
28 29
27 29
26 29
25 30
24 30
23 30
22 30
21 31
20 31
19 32
18 32
17 33
16 33
15 34
14 34
13 35
12 35
11 35
10 36
9 37
8 37
7 38
6 39
5 39
4 40
3 41
2 42
2 43
2 44
2 45
3 45
4 46
5 47
6 47
7 48
8 48
9 49
10 50
11 50
12 51
13 51
14 52
15 52
16 52
17 52
18 52
19 53
20 53
21 53
22 54
23 54
24 55
25 55
26 55
27 56
28 56
29 57
30 57
31 57
32 58
33 58
34 58
35 59
36 59
37 59
38 59
39 59
40 59
41 59
42 60
43 60
44 60
45 60
46 60
47 61
48 61
49 61
50 61
51 62
52 62
53 62
54 63
55 64
55 65
55 66
56 67
56 68
57 69
57 70
58 71
58 72
59 73
59 74
60 75
61 76
62 76
63 75
63 74
64 73
64 72
65 71
65 70
65 69
65 68
66 67
66 66
66 65
67 64
68 64
69 64
70 65
71 65
72 65
73 65
74 65
75 65
76 65
77 65
78 65
79 65
80 65
81 65
82 65
83 65
84 65
85 65
86 65
87 65
88 65
89 65
90 64
91 64
92 64
93 64
94 64
95 64
96 63
97 63
98 63
99 63
100 63
101 62
102 62
103 62
104 62
105 62
106 61
107 61
108 61
109 61
110 61
111 61
112 62
113 62
114 62
115 62
116 62
117 62
118 63
119 63
120 63
121 63
122 63
123 63
124 63
124 62
125 61
125 60
124 60
123 60
122 59
121 58
122 57
123 57
124 56
125 57
126 57
127 57
128 58
129 58
129 57
130 56
131 55
132 55
133 55
134 55
135 54
135 53
136 52
137 53
138 53
139 53
140 53
140 52
141 51
142 52
143 52
144 52
144 51
145 50
146 50
147 51
148 51
148 50
149 49
150 48
151 48
152 49
153 49
153 48
154 47
155 48
156 49
156 48
157 47
158 47
159 47
160 48
161 49
161 50
162 51
163 52
164 53
165 54
166 55
166 56
167 57
168 58
169 59
170 59
171 60
172 61
173 62
173 63
174 64
175 65
176 66
177 67
178 67
179 68
180 68
181 68
181 67
182 66
182 65
182 64
181 64
180 63
181 62
181 61
180 61
179 60
180 59
179 59
178 59
177 58
178 57
177 57
176 56
177 55
176 55
175 54
176 53
175 53
174 52
175 51
174 51
173 50
174 49
174 48
174 47
173 47
172 46
173 45
173 44
173 43
173 42
173 41
173 40
174 39
174 38
174 37
175 36
175 35
175 34
176 33
176 32
177 31
177 30
178 29
178 28
179 27
179 26
180 25
180 24
181 23
181 22
182 21
181 21
180 21
179 22
178 22
177 23
176 23
175 24
174 25
173 26
172 27
171 28
170 29
169 30
168 30
167 31
166 32
166 33
165 34
164 35
163 36
162 37
161 38
160 39
159 40
158 40
157 41
156 41
155 40
154 40
153 40
152 39
151 38
150 39
149 39
148 38
147 37
146 37
145 37
144 36
145 35
144 35
143 35
142 35
141 35
140 35
139 34
140 33
139 33
138 33
137 33
136 33
135 32
134 31
133 31
132 31
131 31
130 30
129 29
128 29
127 29
126 29
125 30
124 30
123 29
122 28
123 27
122 27
121 26
120 26
119 27
118 27
117 27
116 27
115 26
116 25
115 25
114 24
115 23
114 22
114 21
115 20
115 19
116 18
116 17
117 16
116 16
115 16
114 16
113 16
112 16
111 16
110 17
109 17
108 18
107 19
106 20
105 21
104 22
103 23
102 23
101 23
100 22
99 22
98 21
97 21
96 20
95 20
94 20
93 20
92 20
91 19
90 19
89 19
88 18
87 18
86 18
85 17
84 17
83 17
82 17
81 16
80 16
79 16
78 16
77 16
76 16
75 16
74 16
73 15
72 15
71 14
70 14
69 13
68 12
69 11
69 10
69 9
69 8
69 7
69 6
69 5
69 4
69 3
69 2
69 1
