73 1
72 2
72 3
71 4
70 5
70 6
69 7
69 8
69 9
68 10
68 11
68 12
68 13
68 14
68 15
67 16
67 17
67 18
67 19
67 20
67 21
66 22
66 23
66 24
66 25
66 26
66 27
65 28
64 29
63 29
62 29
61 30
60 30
59 30
58 30
57 31
56 31
55 32
54 32
53 32
52 33
51 34
50 34
49 35
48 35
47 36
46 36
45 36
44 36
43 37
42 37
41 38
40 38
39 39
38 39
37 39
36 40
35 40
34 40
33 41
32 41
31 41
30 42
29 42
28 43
27 43
26 43
25 43
24 44
23 44
22 44
21 44
20 45
19 45
18 45
17 45
16 45
15 46
14 46
13 46
12 46
11 46
10 46
9 46
8 47
7 47
6 47
6 48
6 49
7 49
8 49
9 49
10 49
11 49
12 49
13 49
14 49
15 49
16 49
17 49
18 49
19 49
20 49
21 50
22 50
23 51
24 51
25 51
26 51
27 52
28 52
29 52
30 52
31 53
32 53
33 54
34 54
35 54
36 55
37 55
38 55
39 55
40 55
41 56
42 56
43 56
44 56
45 57
46 57
47 57
48 57
49 57
50 58
51 58
52 58
53 58
54 58
55 58
56 58
57 58
58 58
59 58
60 58
61 59
62 59
63 59
64 59
65 59
66 59
67 60
68 60
69 60
70 60
71 60
72 61
72 62
73 63
74 64
75 65
76 66
77 67
78 67
79 68
80 68
81 69
82 70
82 71
83 72
84 72
85 73
86 74
87 75
88 76
88 77
89 77
90 78
91 79
91 78
92 77
92 76
92 75
91 75
90 74
89 74
88 73
87 72
86 71
87 70
86 70
85 69
84 69
83 68
82 67
81 66
80 65
79 65
78 65
77 64
78 63
77 63
76 62
77 61
78 61
79 61
80 61
81 61
82 61
83 61
84 61
85 61
86 61
87 61
88 61
89 61
90 61
91 61
92 61
93 62
94 62
95 62
96 62
97 62
98 62
99 62
100 61
101 61
102 61
103 61
104 61
105 61
106 61
107 61
108 61
109 61
110 61
111 61
112 61
113 61
114 61
115 61
116 61
117 61
118 61
119 61
120 61
121 61
122 61
123 60
124 60
125 60
126 60
127 60
128 60
129 60
130 60
131 60
132 60
133 60
134 60
135 60
136 60
137 61
138 62
139 63
140 64
141 64
142 65
143 66
144 67
145 67
146 67
147 68
148 69
149 70
150 70
151 70
151 69
152 68
152 67
151 67
150 66
149 65
148 64
149 63
149 62
149 61
149 60
150 59
151 59
152 58
153 58
154 58
155 58
156 57
157 57
158 57
159 57
160 57
161 57
162 57
163 57
164 57
165 57
166 57
167 57
168 57
169 57
170 57
171 56
172 56
173 56
174 56
175 56
176 56
177 56
178 56
179 57
180 57
181 58
182 59
183 59
184 59
184 58
185 57
186 57
186 56
187 55
188 55
189 54
190 54
191 54
192 54
193 54
194 53
195 53
196 53
197 53
198 53
199 53
200 53
201 53
202 53
203 53
204 53
205 53
206 53
207 54
208 54
209 54
210 55
211 55
212 56
213 57
214 58
215 59
216 60
217 60
218 61
219 62
220 63
221 64
222 65
223 66
224 67
225 68
226 68
227 69
228 70
229 71
230 72
230 73
231 73
232 74
233 74
234 75
234 76
235 77
236 77
237 78
238 79
239 80
240 81
241 81
242 82
243 83
244 83
245 84
246 84
247 84
248 85
248 84
249 83
248 82
249 81
248 81
247 81
246 80
245 80
244 79
243 78
242 77
243 76
242 76
241 76
240 75
239 74
238 73
239 72
238 72
237 71
236 70
235 69
234 68
235 67
234 67
233 66
234 65
233 65
232 64
233 63
232 63
231 62
230 61
229 60
228 59
229 58
229 57
228 57
227 56
228 55
227 55
226 55
225 54
226 53
225 53
224 52
225 51
225 50
225 49
225 48
225 47
225 46
225 45
225 44
225 43
225 42
226 41
227 40
227 39
228 38
229 37
229 36
230 35
231 35
232 34
232 33
233 32
234 31
235 30
236 29
237 28
238 27
238 26
239 25
240 24
241 24
242 23
243 22
244 21
244 20
245 19
246 19
247 18
248 18
248 17
249 16
249 15
249 14
249 13
249 12
248 12
247 13
246 13
245 14
244 14
243 15
242 16
241 16
240 17
239 18
238 18
237 19
236 19
235 20
234 21
233 22
232 23
231 23
230 24
229 24
228 25
227 26
226 27
225 27
224 28
224 29
223 30
222 30
221 31
220 31
219 32
218 33
217 34
216 35
215 35
214 36
213 37
212 38
211 38
210 39
209 40
208 40
207 41
206 41
205 41
204 41
203 41
202 40
201 40
200 40
199 40
198 40
197 39
196 39
195 39
194 38
193 38
192 37
193 36
192 36
191 35
190 34
189 33
188 33
187 33
186 34
185 34
184 34
183 35
182 35
181 36
180 36
179 36
178 36
177 36
176 36
175 36
174 36
173 35
172 35
171 34
171 33
172 32
171 32
170 33
169 34
168 33
167 33
166 32
165 32
164 31
163 31
162 30
161 30
160 30
159 29
158 29
157 28
156 27
155 27
154 27
153 26
152 26
151 25
150 25
149 25
148 24
147 24
146 24
145 24
144 23
143 23
142 23
141 22
140 22
139 22
138 21
137 21
136 21
135 21
134 20
133 20
132 20
131 20
130 20
129 19
128 19
127 19
126 19
125 19
124 19
123 19
122 18
121 18
120 17
119 18
118 18
117 18
116 18
115 18
114 17
113 17
112 17
111 17
110 17
109 17
108 17
107 16
106 16
105 16
104 16
103 16
102 16
101 16
100 16
99 16
98 15
97 15
96 15
95 15
94 15
93 15
92 15
91 14
90 14
89 14
88 14
87 14
86 13
85 13
84 13
83 13
82 12
81 11
80 10
79 9
78 8
77 7
78 6
77 6
76 5
77 4
76 4
75 3
76 2
75 2
74 2
