78 1
77 2
76 2
75 2
74 3
74 4
74 5
73 6
73 7
72 8
72 9
71 10
71 11
71 12
71 13
70 14
70 15
70 16
70 17
69 18
69 19
69 20
69 21
69 22
68 23
68 24
67 25
67 26
66 27
66 28
66 29
66 30
66 31
65 32
64 33
63 34
62 35
61 35
60 36
59 37
58 38
57 38
56 39
55 39
54 40
53 41
52 41
51 42
50 42
49 43
48 43
47 43
46 44
45 44
44 44
43 45
42 45
41 45
40 45
39 46
38 46
37 46
36 46
35 47
34 47
33 47
32 47
31 47
30 47
29 48
28 48
27 48
26 48
25 48
24 49
23 49
22 49
21 50
20 50
19 50
18 50
17 50
16 50
15 50
14 50
13 50
12 51
11 51
10 51
9 51
8 51
7 51
6 51
5 51
4 51
3 51
2 52
2 53
3 53
4 53
5 53
6 53
7 53
8 53
9 53
10 53
11 53
12 53
13 53
14 53
15 52
16 52
17 52
18 52
19 52
20 52
21 52
22 52
23 52
24 52
25 52
26 52
27 53
27 54
28 55
29 56
30 56
31 56
32 56
33 56
34 56
35 56
36 57
37 57
38 57
39 57
40 57
41 57
42 57
43 57
44 58
45 58
46 58
47 58
48 59
49 59
50 59
51 60
52 60
53 60
54 60
55 60
56 61
57 61
58 61
59 61
60 61
61 62
62 62
63 62
64 62
65 62
66 62
67 63
68 63
69 63
70 63
71 63
72 63
73 63
74 64
75 64
76 64
77 64
78 64
79 64
80 64
81 64
82 64
83 64
84 65
85 65
86 65
87 65
88 66
89 66
90 66
91 66
92 66
93 67
94 67
95 67
96 68
97 68
98 68
99 68
100 68
101 69
102 69
103 69
104 69
105 69
106 69
107 69
108 69
109 69
110 69
111 69
112 69
113 69
114 70
115 70
116 70
117 70
118 70
119 70
120 70
121 70
122 71
123 71
124 71
125 71
126 71
127 71
128 71
129 71
130 70
130 69
129 69
128 69
127 69
126 69
125 69
124 69
123 69
122 69
121 69
120 69
119 69
118 69
117 69
116 69
115 68
114 68
113 68
112 68
111 68
110 67
109 67
108 67
107 67
106 67
105 66
104 65
105 64
106 64
107 64
108 64
109 64
110 64
111 64
112 64
113 64
114 64
115 64
116 64
117 64
118 64
119 64
120 64
121 64
122 63
123 63
124 63
125 63
126 63
127 63
128 63
129 63
130 63
131 63
132 63
133 63
134 63
135 63
136 63
137 63
138 63
139 63
140 62
141 62
142 62
143 62
144 62
145 62
146 62
147 62
148 62
149 62
150 62
151 62
152 62
153 62
154 62
155 62
156 62
157 62
158 63
158 64
159 65
160 66
160 67
160 68
160 69
161 70
161 71
161 72
162 73
162 74
162 75
163 76
164 77
165 78
165 79
166 80
167 81
168 81
169 81
170 80
171 79
171 78
172 77
172 76
173 75
173 74
173 73
172 72
173 71
173 70
173 69
173 68
173 67
173 66
174 65
174 64
175 63
176 62
177 62
178 61
179 61
180 60
181 59
182 59
183 59
184 59
185 59
186 58
187 58
188 58
189 58
190 58
191 58
192 58
193 57
194 57
195 57
196 57
197 57
198 57
199 57
200 58
201 58
202 59
203 60
204 61
205 62
206 62
206 61
207 60
207 59
208 58
209 58
210 58
211 57
212 57
213 57
214 56
215 56
216 56
217 55
218 54
219 54
220 55
221 54
222 53
223 53
224 53
225 53
226 53
227 52
228 52
229 52
230 52
231 52
232 52
233 53
233 54
233 55
233 56
234 55
235 55
236 54
237 55
238 56
239 56
240 56
241 57
242 58
243 59
244 60
245 60
246 61
247 62
248 63
249 63
250 64
251 65
252 66
253 67
254 67
255 68
256 69
257 69
258 70
259 71
260 72
261 73
262 74
263 75
264 76
265 76
266 77
267 78
268 79
269 79
270 80
271 80
272 81
273 81
274 81
275 81
275 80
275 79
274 79
273 78
272 77
273 76
272 76
271 75
270 74
271 73
270 73
269 73
268 72
267 71
268 70
267 70
266 69
265 68
264 67
263 66
262 65
263 64
262 64
261 63
260 62
259 61
258 61
257 60
258 59
257 59
256 58
255 57
256 56
255 56
254 56
253 55
252 54
253 53
252 53
251 52
250 51
249 50
250 49
249 49
248 48
249 47
249 46
249 45
249 44
250 43
250 42
250 41
250 40
250 39
251 38
251 37
252 36
252 35
253 34
254 33
255 32
256 31
256 30
257 29
257 28
258 27
259 26
260 25
260 24
261 23
262 22
262 21
263 20
264 19
265 19
265 18
266 17
266 16
267 15
267 14
268 13
269 13
270 12
270 11
271 10
271 9
271 8
270 8
269 9
268 9
267 10
266 11
265 12
264 12
263 13
262 13
261 14
260 15
259 16
258 16
257 17
256 18
255 19
254 20
253 20
252 21
252 22
251 23
250 24
249 25
248 25
247 26
247 27
246 28
245 29
244 30
243 31
242 32
242 33
241 34
240 35
239 36
238 36
237 37
236 38
235 39
234 40
233 40
232 40
231 40
230 40
229 40
228 40
227 40
226 40
225 39
224 39
223 39
222 38
221 38
220 38
219 38
218 38
217 37
216 37
215 37
214 36
213 36
212 35
213 34
212 34
211 33
210 34
209 34
208 35
207 36
206 37
205 37
204 37
203 36
202 36
201 35
202 34
201 34
200 33
199 32
198 32
197 31
196 31
195 30
194 29
193 29
192 28
191 28
190 27
189 27
188 26
187 26
186 26
185 25
184 25
183 25
182 25
181 24
180 24
179 24
178 24
177 23
176 23
175 23
174 23
173 23
172 22
171 22
170 22
169 22
168 22
167 22
166 21
165 21
164 21
163 21
162 21
161 20
160 20
159 20
158 20
157 20
156 20
155 20
154 20
153 20
152 20
151 20
150 20
149 20
148 20
147 20
146 20
145 20
144 19
143 19
142 19
141 20
140 20
139 19
138 19
137 19
136 19
135 19
134 19
133 19
132 19
131 19
130 19
129 19
128 19
127 19
126 19
125 19
124 19
123 19
122 19
121 19
120 19
119 19
118 19
117 19
116 19
115 19
114 19
113 19
112 19
111 19
110 19
109 19
108 19
107 19
106 19
105 19
104 19
103 19
102 20
101 20
100 20
99 20
98 19
97 19
96 19
95 19
94 19
93 18
92 18
91 18
90 17
89 16
88 15
89 14
88 14
87 13
88 12
87 12
86 11
87 10
86 10
85 9
86 8
86 7
85 7
84 6
83 6
82 5
81 5
80 4
81 3
80 3
79 2
