107 2
106 3
105 3
104 3
103 3
102 3
101 4
100 4
99 5
98 5
97 5
96 5
95 6
94 6
93 6
92 6
91 6
90 6
89 7
88 7
87 7
86 7
85 7
84 7
83 7
82 7
81 7
80 7
79 7
78 7
77 7
76 7
75 7
74 7
73 7
72 7
71 7
70 6
69 6
68 5
67 5
66 6
65 7
64 8
64 9
64 10
63 11
63 12
62 13
61 14
61 15
61 16
60 17
59 18
58 19
57 20
56 21
55 21
54 21
53 22
52 22
51 22
50 22
49 22
48 22
47 23
46 23
45 23
44 23
43 23
42 23
41 24
40 24
39 24
38 24
37 24
36 24
35 24
34 24
33 25
32 25
31 25
30 25
29 26
28 26
27 26
26 26
25 27
24 27
23 27
22 27
21 27
20 27
19 28
18 28
17 28
16 28
15 28
14 29
13 29
12 29
11 29
10 29
9 30
8 30
7 31
6 31
5 32
4 32
3 32
3 33
2 34
2 35
3 36
3 37
4 37
5 37
6 38
7 38
8 38
9 39
10 39
11 39
12 40
13 41
14 41
15 42
16 42
17 42
18 42
19 43
20 43
21 43
22 44
23 44
24 44
25 45
26 46
27 46
28 47
29 47
30 47
31 48
32 48
33 48
34 48
35 49
36 49
37 49
38 49
39 49
40 50
41 50
42 51
43 51
44 51
45 52
46 52
47 52
48 52
49 52
50 52
51 53
52 53
53 53
54 53
55 54
56 54
57 54
58 54
59 55
59 56
59 57
60 58
61 59
62 60
63 61
63 62
64 63
65 63
66 64
67 65
68 66
69 66
70 66
70 65
71 64
71 63
71 62
71 61
70 61
69 60
70 59
70 58
71 57
72 57
73 57
74 57
75 57
76 57
77 57
78 57
79 57
80 57
81 57
82 57
83 57
84 57
85 57
86 57
87 57
88 58
89 57
90 57
91 57
92 57
93 57
94 58
95 58
96 58
97 58
98 58
99 58
100 58
101 58
102 58
103 58
104 58
105 58
106 58
107 58
108 58
109 58
110 58
111 58
112 58
113 57
114 57
115 57
116 57
117 57
118 57
119 57
120 57
121 57
122 57
123 57
124 57
125 57
126 57
127 57
128 57
129 57
130 57
131 57
132 57
133 57
134 57
135 56
136 56
137 56
138 56
139 56
140 56
141 56
142 56
143 56
144 56
145 56
146 56
147 55
148 55
149 55
150 55
151 55
152 55
153 56
153 57
154 57
155 58
156 59
157 60
158 61
158 62
159 62
160 63
161 63
162 64
163 64
164 65
165 65
165 64
166 63
166 62
166 61
166 60
166 59
166 58
167 57
168 56
169 55
170 54
171 54
172 53
173 52
174 52
175 52
176 52
177 52
178 52
179 52
180 53
181 52
182 52
183 53
184 54
184 53
185 52
186 51
187 51
187 50
188 49
189 48
190 49
191 49
192 50
193 49
194 49
194 48
195 47
196 47
197 48
198 48
199 48
200 48
200 47
201 46
202 45
203 45
204 46
205 47
206 47
207 46
208 45
209 44
210 44
211 44
212 45
213 45
214 45
215 44
216 43
217 43
218 44
219 44
220 44
221 43
222 42
223 43
224 43
225 43
226 43
227 42
228 42
229 42
230 43
231 43
232 43
233 42
234 42
235 42
236 43
237 42
238 43
239 43
240 44
241 45
242 46
242 47
243 48
244 49
245 49
246 50
246 51
247 52
248 53
249 54
250 55
250 56
251 57
252 58
253 59
254 60
255 61
255 62
256 63
257 63
258 64
259 65
260 66
261 67
262 68
263 68
264 69
265 69
266 69
266 68
267 67
266 67
265 66
266 65
265 65
264 64
263 63
264 62
263 62
262 61
263 60
262 60
261 59
262 58
261 58
260 57
261 56
261 55
260 55
259 54
260 53
260 52
259 52
258 51
259 50
259 49
258 49
257 48
258 47
257 47
256 46
257 45
257 44
256 44
255 43
256 42
256 41
255 41
254 40
255 39
255 38
254 38
253 37
254 36
254 35
254 34
254 33
254 32
254 31
254 30
254 29
254 28
254 27
255 26
255 25
255 24
255 23
256 22
256 21
257 20
257 19
257 18
257 17
258 16
258 15
259 14
259 13
260 12
260 11
260 10
261 9
261 8
262 7
263 6
263 5
264 4
264 3
264 2
263 2
262 3
261 3
260 4
259 5
258 6
257 6
256 7
255 8
254 8
254 9
253 10
252 11
251 11
251 12
250 13
249 14
249 15
248 16
247 17
246 18
245 19
244 20
244 21
243 22
242 23
241 24
240 24
240 25
239 26
238 27
237 28
236 28
235 29
234 29
233 29
232 29
231 29
230 29
229 28
228 28
227 28
226 29
225 29
224 28
223 27
222 27
221 27
220 27
219 28
218 28
217 28
216 27
215 27
214 26
213 27
212 27
211 27
210 27
209 26
210 25
209 25
208 25
207 24
206 25
205 25
204 24
203 24
202 24
201 24
200 24
199 24
198 24
197 25
196 24
195 23
194 23
193 23
192 23
191 24
190 24
189 24
188 23
189 22
188 22
187 22
186 22
185 22
184 22
183 23
182 23
181 22
181 21
180 21
179 20
178 20
177 20
176 21
175 21
174 20
174 19
173 18
172 18
171 18
170 17
169 16
170 15
170 14
169 14
168 13
169 12
169 11
169 10
169 9
168 9
167 8
166 8
165 8
164 8
163 9
162 10
161 11
160 11
159 12
158 13
157 13
156 14
155 15
154 16
153 17
152 17
151 17
150 17
149 17
148 16
147 17
146 17
145 17
144 16
143 15
142 14
141 14
140 14
139 13
138 13
137 12
136 11
135 11
134 11
133 10
132 9
131 9
130 8
129 7
128 7
127 6
126 6
125 6
124 5
123 4
122 4
121 3
120 3
119 3
118 3
117 2
116 2
115 2
114 2
113 2
112 2
111 2
110 2
109 2
108 2
