187 2
186 3
185 3
184 3
183 3
182 3
181 3
180 3
179 4
178 4
177 4
176 4
175 4
174 4
173 4
172 4
171 4
170 4
169 5
168 5
167 5
166 5
165 5
164 5
163 5
162 5
161 5
160 6
159 6
158 7
157 7
156 8
155 8
155 9
154 10
153 11
152 11
151 12
150 13
150 14
149 15
148 16
148 17
147 18
146 19
146 20
146 21
145 22
145 23
145 24
144 25
143 24
142 23
143 22
143 21
143 20
144 19
144 18
145 17
144 17
143 16
142 16
141 16
140 15
141 14
140 14
139 13
138 12
139 11
138 11
137 10
136 10
135 10
134 9
135 8
134 8
133 7
134 6
133 6
132 6
131 5
130 5
129 5
128 5
127 5
126 5
125 5
124 5
123 5
122 5
121 5
120 5
119 5
118 5
117 5
116 6
115 6
114 6
113 7
112 7
111 8
110 8
109 8
108 9
107 10
106 11
105 11
105 12
104 13
103 14
102 15
101 16
100 16
100 17
99 18
99 19
98 20
97 21
96 22
95 23
94 24
93 24
92 25
91 25
90 25
89 25
88 25
87 25
86 25
85 25
84 25
83 25
82 24
81 24
80 24
79 24
78 24
77 24
76 24
75 24
74 24
73 24
72 24
71 24
70 24
69 24
68 24
67 24
66 24
65 24
64 24
63 24
62 24
61 24
60 24
59 24
58 24
57 24
56 24
55 24
54 24
53 24
52 24
51 24
50 24
49 24
48 24
47 24
46 24
45 24
44 24
43 24
42 24
41 23
40 23
39 23
38 23
37 23
36 23
35 22
34 22
33 22
32 22
31 22
30 22
29 22
28 22
27 22
26 22
25 22
24 22
23 22
22 22
21 22
20 22
19 22
18 23
17 23
16 23
15 23
14 23
13 24
12 25
11 24
10 24
9 25
8 25
8 26
7 27
7 28
7 29
7 30
8 31
8 32
8 33
8 34
8 35
8 36
8 37
9 38
10 39
9 40
8 41
7 41
6 41
5 41
4 41
3 40
2 40
2 41
2 42
2 43
2 44
2 45
3 46
4 47
5 47
6 48
7 48
8 49
9 50
10 51
11 51
12 52
13 52
14 52
15 53
16 53
17 53
18 54
19 54
20 54
21 55
22 55
23 56
24 56
25 56
26 56
27 57
28 57
29 58
30 58
31 58
32 58
33 59
34 59
35 59
36 59
37 60
38 60
39 60
40 61
41 61
42 61
43 61
44 62
45 62
46 62
47 62
48 62
49 62
50 62
51 62
52 62
53 62
54 61
55 61
56 61
57 61
58 61
59 61
60 60
61 60
62 60
63 60
64 60
65 60
66 60
67 60
68 59
69 59
70 59
71 59
72 59
73 58
74 58
75 58
76 58
77 58
78 58
79 59
79 60
79 61
80 62
80 63
80 64
81 65
82 66
83 67
83 68
83 69
83 70
84 71
85 72
85 73
86 73
87 74
88 75
89 75
90 75
91 75
92 75
93 75
94 75
95 75
96 75
97 75
98 74
99 74
100 75
101 75
102 75
103 75
104 75
105 74
106 74
107 74
108 74
109 74
110 74
111 74
112 74
113 74
114 73
115 73
116 73
117 73
118 73
119 72
120 72
121 71
122 71
123 70
124 69
124 68
125 67
125 66
124 66
123 65
124 64
123 64
122 64
121 63
120 62
119 61
118 60
117 60
116 59
117 58
118 58
119 58
120 58
121 58
122 58
123 58
124 58
125 58
126 58
127 58
128 58
129 58
130 58
131 58
132 58
133 58
134 58
135 57
136 57
137 57
138 57
139 57
140 57
141 57
142 57
143 57
144 57
145 56
146 56
147 56
148 56
149 56
150 57
151 57
152 57
153 57
154 57
155 57
156 58
157 59
158 60
159 61
160 62
160 63
161 64
162 64
163 65
164 66
165 67
166 68
167 68
168 69
169 69
170 70
171 70
172 70
173 70
174 70
175 70
176 70
177 71
178 71
179 71
180 72
181 72
182 71
183 71
184 71
185 72
186 72
187 72
188 72
189 72
190 72
191 72
192 71
193 71
194 71
195 71
196 71
197 71
198 71
199 71
200 71
201 71
202 70
203 70
204 70
205 70
206 70
207 70
208 69
209 69
210 69
211 69
212 68
213 68
214 68
215 68
216 67
217 67
218 67
219 67
220 66
221 66
222 66
223 66
224 66
225 66
226 66
227 66
228 65
229 65
230 65
231 65
232 65
233 64
234 64
235 64
236 64
237 64
238 64
239 64
240 63
241 63
242 63
243 63
244 62
245 62
246 62
247 62
248 62
249 61
250 61
251 61
252 61
253 61
254 60
255 60
256 60
257 60
258 60
259 59
260 59
260 58
261 57
261 56
261 55
260 55
259 54
258 54
257 53
256 53
255 52
256 51
257 51
258 51
259 51
260 52
261 52
262 52
263 52
264 52
265 53
266 53
267 53
268 54
269 54
270 54
271 55
272 55
273 55
274 55
275 56
276 56
277 56
278 56
279 57
280 57
281 57
282 57
283 57
284 57
285 57
286 57
287 57
288 57
289 57
290 57
291 57
292 57
293 57
294 57
295 58
296 58
297 58
298 58
299 58
300 58
301 58
302 58
303 57
304 57
305 57
306 57
307 57
308 57
309 57
310 57
311 57
312 57
313 57
314 57
315 57
316 56
317 56
318 56
319 56
320 56
321 55
322 55
323 54
324 54
325 54
326 54
327 53
328 52
329 52
330 52
331 51
332 51
333 50
334 50
335 49
336 48
337 47
338 46
338 45
339 44
339 43
339 42
339 41
338 41
337 40
336 39
335 38
334 38
333 38
332 37
331 36
330 36
329 36
328 35
327 35
326 34
325 34
324 34
323 34
322 33
321 33
320 33
319 33
318 32
317 32
316 31
315 31
314 31
313 31
312 30
311 30
310 30
309 30
308 29
307 29
306 29
305 28
304 28
303 28
302 28
301 27
300 27
299 27
298 27
297 27
296 27
295 27
294 26
293 26
292 26
291 26
290 26
289 26
288 26
287 26
286 25
285 25
284 25
283 25
282 25
281 25
280 25
279 25
278 25
277 25
276 25
275 25
274 25
273 25
272 24
271 24
270 24
269 25
268 25
267 25
266 25
265 25
264 25
263 25
262 25
261 25
260 25
259 25
258 25
257 25
256 25
255 25
254 25
253 25
252 25
251 25
250 25
249 25
248 25
247 25
246 25
245 25
244 25
243 25
242 25
241 25
240 24
241 23
242 23
243 23
244 23
245 22
246 22
247 21
248 21
249 21
250 21
251 20
251 19
252 18
253 17
254 16
254 15
255 14
255 13
256 12
256 11
257 10
258 10
259 9
259 8
260 7
259 7
258 7
257 6
256 6
255 6
254 6
253 5
252 5
251 5
250 4
249 4
248 4
247 4
246 4
245 4
244 4
243 4
242 4
241 4
240 4
239 4
238 4
237 4
236 4
235 4
234 4
233 4
232 4
231 4
230 4
229 4
228 4
227 4
226 4
225 4
224 4
223 4
222 3
221 3
220 3
219 3
218 3
217 3
216 3
215 3
214 3
213 3
212 3
211 3
210 2
209 2
208 2
207 2
206 2
205 2
204 2
203 2
202 2
201 2
200 2
199 2
198 2
197 2
196 2
195 2
194 2
193 2
192 2
191 2
190 2
189 2
188 2
