128 2
127 3
126 3
125 3
124 4
123 4
122 4
121 5
120 6
119 7
118 7
117 8
117 9
116 10
115 11
114 12
113 13
113 14
112 15
111 16
111 17
110 18
109 19
108 20
107 21
106 21
105 21
104 21
103 21
102 21
101 21
100 21
99 21
98 21
97 21
96 21
95 21
94 21
93 21
92 21
91 21
90 21
89 21
88 21
87 21
86 21
85 22
84 21
83 21
82 21
81 21
80 21
79 21
78 21
77 21
76 21
75 22
74 22
73 22
72 22
71 22
70 22
69 22
68 22
67 22
66 22
65 22
64 22
63 23
62 23
61 23
60 23
59 23
58 23
57 23
56 23
55 23
54 23
53 23
52 23
51 23
50 23
49 23
48 24
47 24
46 24
45 24
44 24
43 24
42 24
41 24
40 24
39 24
38 24
37 24
36 23
35 23
34 23
33 23
32 23
31 23
30 23
29 23
28 24
27 24
26 24
25 25
24 26
23 26
22 27
21 28
20 28
19 27
18 28
17 28
16 29
15 29
14 29
13 29
12 29
11 29
11 30
10 31
9 32
8 32
7 32
6 33
5 34
5 35
5 36
6 37
5 38
4 38
3 38
2 39
2 40
2 41
2 42
3 43
3 44
4 45
5 46
5 47
6 48
7 49
8 49
9 50
10 51
11 51
12 52
13 52
14 52
15 53
16 54
17 54
18 55
19 55
20 55
21 56
22 57
23 57
24 57
25 58
26 58
27 59
28 59
29 59
30 60
31 60
32 60
33 60
34 61
35 61
36 61
37 61
38 61
39 61
40 62
41 62
42 62
43 62
44 62
45 62
46 63
47 63
48 63
49 63
50 63
51 63
52 63
53 63
54 63
55 63
56 63
57 63
58 63
59 63
60 63
61 63
62 63
63 63
64 63
65 63
66 63
67 63
68 63
69 63
70 63
71 63
72 63
73 62
74 62
75 62
76 62
77 62
78 62
79 62
80 62
81 62
82 63
83 64
84 65
85 66
86 67
87 68
88 69
88 70
89 71
90 71
91 72
92 73
93 73
94 74
95 74
96 74
97 74
98 74
99 74
100 74
101 74
102 74
103 74
104 74
105 74
106 74
107 74
108 73
109 73
110 73
111 73
112 73
113 73
114 73
115 73
116 73
117 73
118 73
119 73
120 73
121 73
122 73
123 73
124 73
125 73
126 72
127 72
127 71
128 70
128 69
127 69
126 68
125 67
124 67
123 66
122 66
121 66
120 65
119 65
118 65
117 64
116 64
115 63
116 62
117 62
118 62
119 62
120 62
121 62
122 62
123 62
124 62
125 62
126 62
127 62
128 62
129 62
130 62
131 62
132 62
133 62
134 62
135 62
136 62
137 62
138 62
139 62
140 62
141 62
142 62
143 62
144 62
145 62
146 62
147 62
148 62
149 61
150 61
151 61
152 61
153 61
154 61
155 61
156 61
157 61
158 61
159 61
160 61
161 61
162 61
163 62
164 61
165 61
166 61
167 61
168 61
169 61
170 60
171 61
172 61
173 62
174 63
175 63
176 63
177 64
178 65
179 65
180 66
181 66
182 67
183 67
184 68
185 68
186 69
187 69
188 70
189 71
190 71
191 71
192 72
193 72
194 73
195 73
196 74
197 74
198 74
199 75
200 75
201 75
202 75
203 75
204 75
205 75
206 75
207 76
208 76
209 76
210 76
211 76
212 75
213 75
214 75
215 75
216 75
217 75
218 75
219 74
220 74
221 74
222 74
223 74
224 74
225 74
226 74
227 74
228 74
229 73
230 73
231 73
232 73
233 73
234 73
235 73
236 73
237 73
238 73
239 73
240 73
241 73
242 73
243 73
244 72
245 72
246 72
247 72
248 72
249 72
250 72
251 72
252 72
253 72
254 72
255 71
256 71
257 71
258 71
259 70
260 70
261 70
262 70
263 69
264 69
264 68
265 67
265 66
264 65
263 65
262 64
261 64
260 63
259 63
258 63
257 62
256 62
255 62
254 61
253 61
252 60
251 60
250 60
249 59
250 58
251 58
252 58
253 58
254 58
255 58
256 58
257 58
258 58
259 58
260 58
261 58
262 58
263 58
264 58
265 58
266 58
267 58
268 59
269 58
270 58
271 58
272 58
273 58
274 58
275 58
276 58
277 58
278 58
279 58
280 58
281 58
282 58
283 58
284 58
285 58
286 58
287 58
288 58
289 58
290 58
291 58
292 58
293 58
294 58
295 58
296 58
297 58
298 59
299 59
300 59
301 59
302 59
303 59
304 59
305 60
306 60
307 60
308 60
309 60
310 60
311 60
312 61
313 61
314 61
315 61
316 61
317 61
318 61
319 61
320 62
321 62
322 62
323 62
324 62
325 62
326 62
327 62
328 62
329 63
330 63
331 63
332 63
333 63
334 63
335 63
336 63
337 63
338 63
339 62
340 62
341 61
342 61
343 60
344 60
345 59
346 59
347 59
348 58
349 57
350 57
351 56
352 55
353 54
354 53
355 52
356 51
357 50
358 49
358 48
359 47
359 46
360 45
360 44
361 43
361 42
360 41
361 40
361 39
361 38
361 37
361 36
361 35
361 34
361 33
361 32
361 31
360 31
359 30
360 29
359 29
358 28
357 27
356 26
355 25
354 24
353 23
352 23
351 22
350 21
349 20
348 20
347 19
346 19
345 18
344 18
343 17
342 17
341 17
340 16
339 16
338 16
337 16
336 16
335 16
334 16
333 16
332 16
331 16
330 16
329 16
328 16
327 16
326 16
325 16
324 16
323 16
322 16
321 17
320 17
319 17
318 17
317 17
316 17
315 18
314 18
313 18
312 18
311 18
310 19
309 19
308 19
307 20
306 20
305 20
304 20
303 21
302 21
301 21
300 21
299 22
298 22
297 22
296 22
295 23
294 23
293 23
292 23
291 23
290 23
289 23
288 24
287 24
286 24
285 24
284 24
283 24
282 24
281 24
280 24
279 24
278 24
277 24
276 24
275 24
274 24
273 24
272 25
271 24
270 25
269 25
268 25
267 25
266 25
265 25
264 25
263 25
262 25
261 25
260 25
259 25
258 25
257 25
256 25
255 25
254 25
253 25
252 24
251 24
250 25
249 25
248 25
247 25
246 24
247 23
248 22
249 21
250 21
251 20
252 20
253 19
254 18
255 18
256 17
257 17
258 17
259 16
260 16
261 16
262 15
263 15
264 14
265 14
266 14
267 13
267 12
268 11
268 10
267 10
266 9
265 9
264 8
263 8
262 8
261 8
260 8
259 8
258 7
257 7
256 7
255 7
254 7
253 7
252 7
251 7
250 7
249 7
248 6
247 6
246 6
245 6
244 6
243 6
242 6
241 6
240 6
239 6
238 6
237 6
236 5
235 5
234 5
233 5
232 5
231 5
230 5
229 5
228 5
227 5
226 5
225 5
224 5
223 5
222 5
221 5
220 5
219 5
218 5
217 5
216 5
215 4
214 4
213 4
212 4
211 4
210 4
209 4
208 4
207 4
206 4
205 3
204 4
203 3
202 3
201 3
200 3
199 3
198 3
197 3
196 3
195 3
194 3
193 3
192 3
191 4
190 4
189 4
188 4
187 4
186 4
185 4
184 4
183 4
182 4
181 5
180 5
179 5
178 6
177 6
176 7
175 7
174 8
173 9
172 10
171 10
170 10
169 11
168 12
168 13
167 14
166 15
165 16
164 16
164 17
163 18
162 19
162 20
161 21
160 21
159 22
158 23
157 23
156 23
155 23
154 22
153 21
154 20
154 19
153 19
152 18
153 17
153 16
152 16
151 15
152 14
152 13
151 13
150 12
149 11
148 10
147 9
146 8
145 7
144 6
143 6
142 5
143 4
142 4
141 4
140 3
139 3
138 3
137 3
136 2
135 2
134 2
133 2
132 2
131 2
130 2
129 2
