138 2
137 3
136 3
135 3
134 3
133 3
132 3
131 3
130 3
129 3
128 4
127 4
126 4
125 4
124 4
123 4
122 5
121 5
120 5
119 5
118 5
117 6
116 6
115 6
114 6
113 6
112 7
111 7
110 7
109 7
108 7
107 8
106 8
105 8
104 9
103 9
102 9
101 10
100 10
99 10
98 11
97 11
96 11
95 12
94 12
93 13
92 13
91 14
90 14
89 14
88 15
87 16
86 17
85 17
84 17
83 18
82 19
81 19
80 20
79 20
78 19
77 19
76 19
75 19
74 19
73 19
72 19
71 19
70 19
69 19
68 19
67 20
66 20
65 20
64 20
63 20
62 20
61 20
60 20
59 20
58 20
57 20
56 20
55 21
54 21
53 21
52 21
51 21
50 21
49 21
48 21
47 22
46 22
45 22
44 22
43 23
42 23
41 23
40 23
39 23
38 24
37 24
36 24
35 25
34 25
33 25
32 25
31 25
30 25
29 25
28 24
27 24
26 24
25 25
24 25
23 25
22 25
21 25
20 26
19 26
18 26
17 27
16 28
15 28
14 29
13 29
13 30
12 31
11 32
10 32
9 33
8 33
7 34
7 35
6 36
5 37
4 37
3 37
2 38
2 39
2 40
2 41
2 42
2 43
2 44
2 45
2 46
3 47
3 48
4 48
5 49
6 50
7 50
8 51
9 51
10 51
11 52
12 53
13 53
14 53
15 54
16 54
17 54
18 54
19 54
20 55
21 54
22 55
23 55
24 55
25 55
26 55
27 55
28 56
29 56
30 56
31 56
32 56
33 56
34 56
35 56
36 56
37 56
38 56
39 56
40 56
41 57
42 57
43 57
44 57
45 57
46 57
47 57
48 57
49 57
50 57
51 57
52 57
53 57
54 57
55 57
56 57
57 57
58 57
59 57
60 57
61 57
62 57
63 57
64 57
65 57
66 58
67 59
67 60
68 61
69 62
70 63
71 64
72 65
73 66
74 66
75 66
76 67
77 67
78 67
79 67
80 67
81 67
82 67
83 66
84 66
85 66
86 66
87 66
88 66
89 66
90 66
91 66
92 66
93 66
94 65
95 65
96 65
97 65
98 65
99 65
100 65
101 64
102 64
103 64
104 64
105 64
106 63
107 63
108 63
109 62
110 62
111 62
112 62
113 61
114 61
115 61
116 61
117 61
118 60
119 59
120 59
121 58
121 57
122 56
121 56
120 55
119 54
118 54
117 54
116 54
115 54
114 53
115 52
116 52
117 52
118 52
119 52
120 52
121 52
122 52
123 52
124 51
125 51
126 51
127 51
128 52
129 53
130 53
131 54
132 54
133 54
134 55
135 56
136 56
137 56
138 57
139 57
140 58
141 58
142 58
143 58
144 58
145 57
146 57
147 58
148 57
149 57
150 57
151 57
152 57
153 57
154 57
155 57
156 57
157 56
158 56
159 56
160 56
161 56
162 56
163 55
164 55
165 55
166 54
167 54
168 54
169 54
170 54
171 54
172 54
173 54
174 54
175 54
176 54
177 54
178 54
179 53
180 53
181 53
182 53
183 53
184 53
185 53
186 53
187 53
188 52
189 52
189 51
190 50
190 49
191 48
192 48
193 48
194 48
195 48
196 48
197 48
198 48
199 48
200 48
201 48
202 48
203 48
204 48
205 48
206 48
207 48
208 48
209 48
210 49
211 49
212 50
213 51
214 51
215 52
216 52
217 53
218 53
219 54
220 54
221 54
222 55
223 55
224 55
225 56
226 56
227 56
228 56
229 57
230 57
231 58
232 58
233 58
234 59
235 59
236 60
237 60
238 60
239 60
240 60
241 60
242 60
243 61
244 61
245 61
246 61
247 61
248 60
249 60
250 60
251 59
252 59
253 58
254 58
255 57
256 56
257 55
258 54
258 53
259 52
259 51
260 50
260 49
260 48
260 47
261 46
261 45
261 44
261 43
261 42
262 41
262 40
262 39
262 38
261 38
260 37
261 36
261 35
261 34
261 33
261 32
261 31
260 31
259 30
260 29
259 29
258 28
259 27
258 27
257 26
256 25
255 24
254 23
253 22
252 22
251 22
250 21
249 21
248 21
247 21
246 20
245 20
244 20
243 20
242 21
241 21
240 21
239 21
238 21
237 21
236 21
235 21
234 22
233 22
232 22
231 22
230 23
229 23
228 23
227 24
226 24
225 24
224 25
223 25
222 26
221 26
220 27
219 27
218 28
217 28
216 28
215 28
214 29
213 29
212 29
211 29
210 29
209 29
208 29
207 29
206 29
205 29
204 29
203 29
202 29
201 29
200 29
199 29
198 29
197 29
196 29
195 28
196 27
197 27
198 27
199 27
200 26
200 25
201 24
201 23
201 22
200 22
199 21
198 20
197 20
196 20
195 19
194 19
193 19
192 19
191 18
190 18
189 18
188 17
187 17
186 17
185 17
184 17
183 16
182 16
181 16
180 16
179 15
178 15
177 15
176 14
175 14
174 14
173 14
172 13
171 13
170 13
169 12
168 12
167 12
166 11
165 11
164 11
163 11
162 10
161 10
160 10
159 9
158 9
157 9
156 9
155 8
154 9
153 9
152 9
151 9
150 9
149 10
148 10
147 11
146 11
145 11
144 11
143 12
142 12
141 12
140 13
139 13
138 13
137 14
136 14
135 15
134 15
133 16
132 16
131 17
130 17
129 17
128 18
127 19
126 19
125 19
124 20
123 21
122 21
121 21
120 21
119 21
118 21
117 20
116 19
115 19
114 18
115 17
115 16
115 15
115 14
116 13
117 13
118 12
119 11
120 11
121 11
122 11
123 10
124 10
125 9
126 9
127 9
128 8
129 8
130 7
131 7
132 7
133 7
134 6
135 6
136 6
137 6
138 5
139 5
140 5
141 5
142 4
142 3
141 3
140 2
139 2
