92 1
91 2
90 2
89 2
88 2
87 3
86 3
85 3
84 3
83 4
82 4
81 4
80 4
79 5
78 5
77 5
76 6
75 6
74 6
73 7
72 7
71 8
70 8
69 8
68 9
67 9
66 10
65 10
64 11
63 11
62 11
61 12
60 12
59 13
58 14
57 14
56 15
55 15
54 15
53 15
52 15
51 15
50 15
49 15
48 15
47 15
46 15
45 15
44 15
43 15
42 15
41 15
40 15
39 15
38 15
37 15
36 15
35 15
34 15
33 15
32 15
31 15
30 15
29 16
28 16
27 16
26 16
25 17
24 17
23 16
22 16
21 15
20 15
19 15
18 15
17 15
16 16
15 16
14 17
13 17
12 18
11 18
10 19
9 20
9 21
8 22
7 23
6 23
5 24
4 25
3 25
2 25
2 26
2 27
2 28
2 29
2 30
2 31
2 32
3 32
4 33
5 34
6 35
7 35
8 36
9 37
10 37
11 38
12 38
13 39
14 39
15 40
16 40
17 41
18 41
19 41
20 42
21 42
22 42
23 42
24 42
25 43
26 43
27 43
28 43
29 43
30 43
31 43
32 43
33 43
34 43
35 43
36 43
37 43
38 43
39 43
40 43
41 43
42 44
43 44
44 44
45 45
46 45
47 46
48 47
49 47
50 48
51 48
52 49
53 49
54 49
55 49
56 49
57 49
58 49
59 49
60 49
61 49
62 49
63 49
64 49
65 49
66 49
67 49
68 49
69 49
70 49
71 49
72 49
73 49
74 50
75 50
76 50
77 50
78 50
79 50
79 49
80 48
79 48
78 47
78 46
79 45
80 45
81 45
82 45
83 45
84 45
85 45
86 45
87 45
88 46
89 47
90 47
91 48
92 48
93 49
94 49
95 49
96 50
97 50
98 50
99 50
100 50
101 50
102 50
103 50
104 50
105 50
106 50
107 50
108 50
109 50
110 50
111 49
112 49
113 49
114 49
115 49
116 49
117 49
118 48
119 48
120 48
121 48
122 48
123 47
124 47
125 47
125 46
126 45
125 45
124 44
123 44
122 44
121 43
122 42
123 42
124 42
125 42
126 42
127 42
128 42
129 42
130 42
131 42
132 42
133 42
134 42
135 42
136 42
137 42
138 42
139 43
140 43
141 43
142 43
143 43
144 44
145 44
146 44
147 45
148 45
149 46
150 46
151 46
152 46
153 46
154 46
155 46
156 46
157 47
158 47
159 47
160 47
161 46
162 46
163 46
164 46
165 46
166 45
167 45
168 44
169 44
170 43
171 43
172 42
173 41
174 40
175 39
175 38
176 37
177 36
177 35
178 34
178 33
178 32
178 31
179 30
179 29
179 28
179 27
179 26
178 26
177 25
178 24
177 24
176 23
175 22
176 21
176 20
175 20
174 19
173 18
172 18
171 17
170 17
169 16
168 16
167 16
166 16
165 15
164 15
163 15
162 15
161 15
160 15
159 15
158 15
157 15
156 15
155 15
154 15
153 15
152 15
151 16
150 16
149 16
148 16
147 17
146 17
145 17
144 18
143 18
142 18
141 19
140 19
139 20
138 20
137 20
136 21
135 21
134 22
133 22
132 22
131 22
130 22
129 22
128 22
127 22
126 22
125 21
125 20
126 19
126 18
125 18
124 17
125 16
124 16
123 15
122 15
121 14
120 14
119 13
118 13
117 12
116 12
115 12
114 11
113 11
112 11
111 10
110 10
109 10
108 9
107 9
106 9
105 8
104 8
103 8
102 8
101 8
100 8
99 8
98 9
97 9
96 9
95 10
94 10
93 11
92 11
91 12
90 12
89 13
88 14
87 15
86 15
85 16
84 17
83 17
82 17
81 17
80 17
79 17
78 16
79 15
79 14
80 13
81 12
81 11
82 10
83 10
84 9
84 8
85 7
86 7
87 6
88 6
89 5
90 4
91 4
92 3
92 2
93 1
