84 1
83 2
82 3
81 3
80 3
79 3
78 4
77 5
76 5
76 6
75 7
74 8
73 8
73 9
72 10
71 11
70 12
70 13
69 14
69 15
69 16
68 17
67 18
66 18
65 18
64 18
63 18
62 18
61 18
60 18
59 18
58 18
57 18
56 18
55 18
54 18
53 18
52 18
51 18
50 18
49 18
48 19
47 19
46 19
45 19
44 19
43 19
42 19
41 19
40 19
39 19
38 20
37 20
36 20
35 20
34 20
33 20
32 20
31 20
30 21
29 21
28 21
27 21
26 22
25 22
24 22
23 23
22 23
21 23
20 24
19 24
18 24
17 25
16 25
15 25
14 25
13 26
12 26
11 26
10 27
9 27
8 28
7 28
6 29
5 30
4 31
4 32
3 33
3 34
2 35
2 36
3 37
3 38
3 39
4 40
4 41
5 42
6 43
6 44
7 44
8 45
8 46
9 47
10 47
11 48
11 49
12 49
13 50
14 51
15 51
16 52
17 52
18 53
19 53
20 54
21 54
22 54
23 54
24 55
25 55
26 56
27 56
28 56
29 56
30 56
31 57
32 57
33 57
34 57
35 58
36 58
37 58
38 58
39 58
40 57
41 57
42 57
43 57
44 57
45 57
46 56
47 56
48 56
49 56
50 56
51 56
52 57
53 58
54 59
54 60
54 61
55 62
55 63
55 64
55 65
55 66
56 67
56 68
56 69
57 70
58 71
59 71
60 72
61 72
62 72
63 72
64 72
65 72
66 72
67 72
68 71
69 71
70 70
71 69
72 68
73 68
74 67
75 66
76 66
77 66
78 66
79 65
80 65
81 65
82 65
82 64
83 63
84 62
85 62
86 61
87 61
88 60
89 59
90 58
91 57
92 57
93 56
94 55
94 54
95 53
96 52
97 52
98 52
99 52
100 52
101 52
102 52
103 52
104 53
105 54
105 55
105 56
106 57
107 58
107 59
108 60
109 60
110 61
111 62
112 63
113 63
114 64
115 64
116 65
117 66
118 67
119 68
120 69
121 69
122 70
123 71
124 71
125 71
126 72
127 72
128 72
129 73
130 73
131 73
132 73
133 73
134 73
135 73
136 74
137 74
138 74
139 74
140 74
141 74
142 74
143 74
144 74
145 74
146 74
147 74
148 74
149 74
150 74
151 74
152 74
153 74
154 74
155 75
156 74
157 74
158 74
159 74
160 74
161 74
162 73
163 73
164 73
165 72
166 72
167 72
168 71
168 70
169 69
169 68
168 68
167 67
166 66
165 66
164 65
165 64
164 64
163 64
162 63
163 62
162 62
161 61
160 60
159 59
158 58
157 57
156 56
155 55
156 54
155 54
154 53
153 52
154 51
155 50
156 49
157 49
158 49
159 49
160 49
161 49
162 49
163 49
164 49
165 49
166 49
167 49
168 50
169 50
170 50
171 51
172 51
173 51
174 51
175 52
176 52
177 52
178 52
179 52
180 53
181 53
182 53
183 53
184 53
185 53
186 54
187 54
188 54
189 54
190 54
191 54
192 54
193 54
194 54
195 54
196 54
197 54
198 54
199 54
200 54
201 54
202 54
203 54
204 54
205 54
206 54
207 54
208 54
209 54
210 54
211 54
212 53
213 53
214 52
215 51
216 51
217 51
217 50
218 49
218 48
219 47
219 46
220 45
220 44
220 43
221 42
221 41
221 40
221 39
221 38
221 37
221 36
221 35
221 34
221 33
221 32
221 31
221 30
221 29
220 29
219 28
218 27
217 26
216 26
215 25
214 25
213 25
212 24
211 24
210 24
209 24
208 24
207 24
206 24
205 24
204 24
203 24
202 24
201 24
200 24
199 24
198 24
197 24
196 24
195 24
194 24
193 24
192 24
191 24
190 24
189 24
188 24
187 24
186 24
185 24
184 25
183 25
182 25
181 25
180 25
179 25
178 25
177 26
176 26
175 26
174 26
173 27
172 27
171 27
170 27
169 28
168 29
167 29
166 29
165 29
164 29
163 28
162 28
161 28
160 28
159 28
158 27
157 27
156 27
155 27
154 27
153 27
152 26
153 25
154 24
155 24
155 23
156 22
157 22
158 21
159 20
160 20
161 19
162 18
163 17
164 17
165 16
166 16
167 15
168 14
168 13
169 12
169 11
169 10
168 10
167 10
166 9
165 9
164 8
163 8
162 7
161 7
160 6
159 6
158 6
157 6
156 5
155 5
154 5
153 5
152 5
151 4
150 4
149 4
148 4
147 4
146 4
145 4
144 3
143 3
142 3
141 3
140 3
139 3
138 2
137 2
136 2
135 2
134 2
133 2
132 2
131 2
130 2
129 2
128 2
127 2
126 2
125 2
124 3
123 3
122 3
121 4
120 4
119 5
118 5
117 5
116 6
115 7
114 7
113 8
112 8
111 9
110 9
109 10
108 10
107 11
106 12
105 13
105 14
104 15
103 16
102 17
101 18
100 19
99 19
98 19
97 19
96 19
95 19
94 19
93 18
92 18
91 18
90 18
89 18
88 18
87 18
86 18
85 17
84 16
85 15
85 14
86 13
87 12
88 11
89 10
90 9
91 9
92 8
93 8
94 8
95 7
96 7
97 7
98 6
99 6
100 6
101 6
102 6
103 6
103 5
104 4
103 4
102 3
101 3
100 3
99 3
98 3
97 2
96 2
95 2
94 2
93 2
92 2
91 2
90 2
89 2
88 2
87 2
86 2
85 2
