102 2
101 3
100 3
99 3
98 4
97 5
96 5
95 5
94 6
93 7
92 7
91 8
90 8
89 9
88 9
87 10
86 10
85 11
84 11
83 11
82 11
81 11
80 11
79 11
78 11
77 11
76 12
75 12
74 12
73 12
72 12
71 12
70 12
69 12
68 12
67 12
66 12
65 13
64 13
63 13
62 13
61 13
60 13
59 13
58 14
57 14
56 14
55 14
54 14
53 14
52 15
51 15
50 15
49 15
48 15
47 16
46 16
45 16
44 16
43 17
42 17
41 17
40 17
39 17
38 18
37 18
36 18
35 18
34 18
33 18
32 18
31 18
30 18
29 18
28 18
27 19
26 20
25 20
24 20
23 21
22 21
21 21
20 22
19 22
18 22
17 23
16 24
15 24
14 25
13 25
12 25
11 26
10 26
9 26
8 27
7 28
7 29
6 30
5 30
4 31
4 32
4 33
3 34
2 35
2 36
2 37
2 38
2 39
3 40
4 40
5 41
6 41
7 42
8 43
9 44
10 44
11 44
12 45
13 45
14 46
15 46
16 46
17 47
18 47
19 48
20 48
21 48
22 49
23 49
24 49
25 50
26 50
27 50
28 50
29 51
30 51
31 51
32 51
33 51
34 52
35 52
36 52
37 52
38 52
39 52
40 52
41 52
42 53
43 53
44 53
45 53
46 53
47 54
48 54
49 54
50 54
51 54
52 55
53 55
54 55
55 55
56 55
57 55
58 55
59 55
60 55
61 55
62 55
63 55
64 55
65 55
66 55
67 55
68 56
69 56
70 56
71 57
72 57
73 58
74 58
75 58
76 58
77 58
78 58
79 58
80 58
81 58
82 59
83 59
84 59
85 59
86 59
87 59
88 59
89 59
90 58
91 58
92 58
93 58
94 58
95 58
96 58
97 58
98 58
99 58
100 57
101 57
102 57
103 57
104 57
105 57
106 57
107 57
108 57
109 57
110 58
111 57
112 57
113 57
114 57
114 56
115 55
116 54
117 54
118 55
119 56
120 56
121 56
122 55
123 55
124 56
125 56
126 57
127 57
128 57
129 56
130 55
131 55
132 55
133 56
134 57
134 58
135 58
136 59
137 59
138 60
139 61
140 61
141 61
142 62
143 62
144 62
145 62
146 62
147 62
148 63
149 63
150 63
151 63
152 63
153 63
154 63
155 63
156 62
157 62
158 62
159 62
160 62
161 61
162 61
163 61
164 61
165 60
166 60
167 60
168 60
169 59
170 59
171 58
172 58
173 58
174 58
175 57
176 57
177 57
178 56
179 56
180 55
181 54
182 54
182 53
183 52
184 51
185 51
186 51
187 51
188 51
189 51
190 51
191 51
192 50
193 50
194 50
195 50
196 50
197 50
198 50
199 50
200 50
201 50
202 50
203 50
204 50
205 50
206 50
207 50
208 51
209 51
210 51
211 51
212 51
213 51
214 51
215 51
216 52
217 52
218 52
219 52
220 52
221 53
222 53
223 53
224 53
225 53
226 53
227 54
228 54
229 54
230 54
231 54
232 54
233 54
234 54
235 54
236 55
237 55
238 55
239 55
240 55
241 55
242 55
243 55
244 55
245 55
246 55
247 55
248 55
249 55
250 55
251 55
252 55
253 55
254 55
255 55
256 55
257 55
258 55
259 55
260 54
261 53
262 52
263 52
264 51
264 50
265 49
265 48
266 47
266 46
266 45
267 44
267 43
268 42
268 41
268 40
268 39
268 38
269 37
269 36
269 35
269 34
269 33
269 32
268 32
267 31
268 30
267 30
266 29
267 28
267 27
266 27
265 26
266 25
265 25
264 24
265 23
264 23
263 22
262 22
261 21
260 20
259 20
258 20
257 20
256 20
255 20
254 20
253 20
252 20
251 20
250 20
249 20
248 20
247 20
246 20
245 20
244 20
243 20
242 20
241 20
240 20
239 20
238 20
237 20
236 20
235 20
234 20
233 20
232 20
231 20
230 20
229 21
228 21
227 21
226 21
225 21
224 21
223 22
222 22
221 22
220 22
219 23
218 23
217 24
216 24
215 24
214 25
213 25
212 26
211 26
210 26
209 26
208 26
207 26
206 26
205 26
204 26
203 26
202 26
201 27
200 27
199 27
198 27
197 27
196 27
195 27
194 27
193 27
192 27
191 27
190 27
189 27
188 26
188 25
189 24
189 23
190 22
190 21
189 21
188 20
189 19
188 19
187 19
186 18
185 17
184 16
183 16
182 15
181 15
180 14
179 14
178 14
177 13
176 13
175 13
174 12
173 12
172 12
171 12
170 11
169 11
168 11
167 11
166 10
165 10
164 10
163 10
162 10
161 10
160 10
159 10
158 10
157 10
156 10
155 10
154 10
153 10
152 10
151 10
150 10
149 9
148 9
147 10
146 10
145 10
144 10
143 10
142 10
141 10
140 11
139 11
138 11
137 12
136 12
135 12
134 12
133 13
132 13
131 13
130 13
129 14
128 14
127 14
126 14
125 14
124 14
123 14
122 13
123 12
123 11
123 10
124 9
123 9
122 8
121 7
120 6
119 5
120 4
119 4
118 4
117 4
116 4
115 3
114 3
113 3
112 3
111 3
110 3
109 3
108 3
107 2
106 2
105 2
104 2
103 2
