123 2
122 3
121 4
120 4
119 4
118 4
117 5
116 6
115 6
114 6
113 6
112 7
111 7
110 8
109 8
108 8
107 9
106 9
105 9
104 9
103 8
102 9
101 9
100 9
99 10
98 10
97 11
96 11
95 11
95 12
94 13
93 13
92 14
91 15
90 16
89 17
88 17
87 18
86 19
85 20
84 21
83 21
83 22
82 23
81 24
80 25
79 25
78 26
77 27
76 28
75 28
74 28
73 28
72 28
71 28
70 28
69 28
68 28
67 28
66 28
65 28
64 28
63 28
62 28
61 28
60 27
59 27
58 27
57 27
56 27
55 27
54 27
53 27
52 27
51 27
50 27
49 27
48 27
47 27
46 27
45 27
44 28
43 28
42 28
41 28
40 28
39 28
38 28
37 28
36 28
35 28
34 28
33 28
32 27
31 27
30 27
29 27
28 27
27 27
26 27
25 28
24 28
23 29
22 29
21 30
20 31
19 32
18 32
17 32
16 33
15 34
14 34
13 34
12 35
11 35
10 36
9 37
8 38
7 38
6 39
5 39
4 40
3 41
3 42
3 43
3 44
4 44
5 45
5 46
6 47
5 48
4 48
3 48
2 48
2 49
2 50
2 51
3 51
4 52
5 53
6 54
7 55
8 55
9 56
10 56
11 57
12 58
13 58
14 58
15 59
16 60
17 60
18 60
19 61
20 61
21 62
22 62
23 62
24 63
25 63
26 63
27 63
28 63
29 63
30 64
31 64
32 64
33 64
34 65
35 65
36 65
37 66
38 66
39 66
40 66
41 67
42 67
43 67
44 67
45 68
46 68
47 68
48 68
49 68
50 68
51 68
52 68
53 68
54 68
55 68
56 68
57 68
58 68
59 68
60 68
61 68
62 68
63 68
64 68
65 68
66 68
67 68
68 68
69 68
70 69
71 69
72 69
73 70
74 70
75 70
76 71
77 72
78 73
79 74
80 74
81 75
82 75
83 75
84 75
85 75
86 75
87 75
88 74
89 74
90 74
91 74
92 73
93 73
94 73
95 73
96 72
97 72
98 72
99 72
100 72
101 71
102 71
103 71
104 71
105 71
106 71
107 71
108 70
109 70
110 70
111 70
112 70
113 70
114 70
115 70
116 70
117 70
118 69
119 69
119 68
120 67
120 66
119 66
118 65
119 64
120 64
121 64
122 64
123 64
124 63
125 63
126 64
127 65
128 66
129 66
130 66
131 67
132 67
133 68
134 68
135 68
136 68
137 68
138 68
139 68
140 68
141 69
142 69
143 69
144 69
145 68
146 68
147 68
148 68
149 68
150 67
151 67
152 67
153 66
154 66
155 66
156 66
157 65
158 64
159 63
160 63
161 63
162 62
163 61
164 61
165 61
166 61
167 60
168 60
169 59
170 59
171 58
172 59
173 58
174 57
175 57
176 57
177 56
178 56
179 56
180 55
181 55
182 55
183 55
184 55
184 54
185 53
186 53
187 52
187 51
188 50
188 49
189 48
190 48
191 48
192 48
193 48
194 47
195 47
196 47
197 47
198 47
199 47
200 47
201 47
202 47
203 47
204 46
205 46
206 46
207 46
208 46
209 47
210 47
211 47
212 47
213 47
214 48
215 48
216 48
217 48
218 48
219 49
220 49
221 49
222 50
223 50
224 50
225 50
226 50
227 50
228 50
229 50
230 51
231 51
232 51
233 51
234 51
235 51
236 51
237 51
238 51
239 52
240 52
241 52
242 52
243 52
244 52
245 51
246 51
247 51
248 50
249 50
249 49
250 48
251 47
252 46
252 45
253 44
253 43
254 42
254 41
255 40
255 39
255 38
255 37
256 36
256 35
256 34
256 33
256 32
256 31
256 30
256 29
255 29
254 28
255 27
255 26
254 26
253 25
252 24
253 23
252 23
251 23
250 22
249 22
248 21
247 21
246 21
245 21
244 21
243 21
242 21
241 21
240 21
239 21
238 21
237 21
236 22
235 22
234 22
233 22
232 23
231 23
230 23
229 23
228 23
227 23
226 23
225 23
224 24
223 24
222 24
221 24
220 25
219 25
218 25
217 25
216 25
215 25
214 26
213 26
212 26
211 26
210 26
209 27
208 27
207 27
206 27
205 27
204 27
203 28
202 28
201 28
200 28
199 28
198 28
197 28
196 28
195 28
194 28
193 29
192 28
191 28
190 28
189 27
188 26
189 25
189 24
189 23
188 23
187 22
186 22
185 21
184 21
183 21
182 21
181 20
180 20
179 20
178 19
177 19
176 19
175 19
174 19
173 19
172 19
171 18
170 18
169 18
168 17
167 17
166 17
165 16
164 16
163 16
162 16
161 15
160 15
159 15
158 15
157 15
156 15
155 15
154 14
153 14
152 14
151 13
150 13
149 13
148 13
147 13
146 13
145 13
144 12
143 12
142 12
141 12
140 12
139 12
138 12
137 12
136 12
135 13
134 13
133 13
132 13
131 14
130 14
129 15
128 15
127 16
126 17
125 18
124 18
123 19
122 20
121 21
121 22
120 23
119 23
118 24
117 23
117 22
117 21
116 21
115 20
116 19
116 18
115 18
114 17
115 16
114 16
113 16
112 15
111 14
111 13
112 12
113 11
114 11
115 11
116 10
117 10
118 9
119 9
120 9
121 8
122 7
123 7
124 6
125 6
126 5
126 4
127 3
127 2
126 2
125 2
124 2
