331 2
330 3
329 3
328 3
327 4
326 4
325 4
324 4
323 5
322 5
321 6
320 6
319 7
318 7
317 8
316 8
315 9
314 9
313 10
312 11
311 11
310 12
309 12
308 13
307 14
306 14
305 15
304 16
303 16
302 17
301 17
300 17
299 18
298 18
297 19
296 19
295 19
294 19
293 19
292 19
291 19
290 19
289 19
288 19
287 19
286 18
285 18
284 18
283 18
282 18
281 17
280 17
279 17
278 17
277 17
276 17
275 17
274 17
273 16
272 15
271 14
272 13
271 13
270 12
269 11
270 10
270 9
271 8
271 7
270 7
269 6
268 6
267 6
266 7
265 7
264 8
263 7
262 6
263 5
262 5
261 4
260 4
259 4
258 4
257 5
257 6
256 7
255 7
255 8
254 9
254 10
253 11
253 12
252 13
251 13
251 14
250 15
249 16
248 16
247 17
246 17
245 17
244 17
243 17
242 17
241 17
240 18
239 18
238 18
237 18
236 18
235 18
234 18
233 18
232 18
231 18
230 18
229 18
228 18
227 18
226 18
225 18
224 18
223 18
222 18
221 18
220 18
219 18
218 18
217 18
216 18
215 18
214 18
213 18
212 18
211 18
210 17
209 17
208 17
207 17
206 17
205 17
204 17
203 17
202 17
201 17
200 17
199 17
198 17
197 17
196 17
195 17
194 17
193 18
192 18
191 18
190 18
189 18
188 18
187 18
186 18
185 18
184 18
183 18
182 18
181 18
180 18
179 17
178 17
177 17
176 17
175 17
174 17
173 17
172 17
171 17
170 17
169 17
168 16
167 16
166 16
165 16
164 16
163 16
162 16
161 16
160 15
159 15
158 15
157 15
156 15
155 15
154 15
153 15
152 14
151 14
150 14
149 14
148 14
147 14
146 14
145 13
144 13
143 13
142 13
141 13
140 13
139 13
138 13
137 13
136 13
135 13
134 13
133 12
132 12
131 12
130 13
129 12
128 12
127 12
126 12
125 12
124 12
123 12
122 12
121 12
120 12
119 12
118 12
117 13
116 13
115 13
114 13
113 13
112 14
111 14
110 14
109 14
108 14
107 15
106 15
105 15
104 15
103 15
102 15
101 15
100 16
99 16
98 16
97 16
96 16
95 16
94 16
93 16
92 17
91 17
90 17
89 17
88 17
87 17
86 17
85 17
84 17
83 18
82 18
81 18
80 18
79 18
78 18
77 18
76 18
75 18
74 18
73 18
72 18
71 18
70 18
69 18
68 18
67 18
67 19
67 20
67 21
66 22
65 22
64 22
63 22
62 22
61 22
60 22
59 23
58 23
57 23
56 23
55 23
54 23
53 24
52 24
51 24
50 24
49 24
48 24
47 24
46 24
45 24
44 25
43 25
42 25
41 25
40 25
39 25
38 25
37 25
36 26
35 26
34 26
33 26
32 26
31 26
30 26
29 27
28 27
27 27
26 27
25 27
24 27
23 27
22 27
21 27
20 28
19 28
18 28
17 28
16 28
15 28
14 28
13 28
12 28
11 29
10 29
9 29
8 29
7 29
6 29
5 29
4 29
3 29
2 30
2 31
2 32
2 33
3 33
4 33
5 33
6 33
7 33
8 33
9 33
10 33
11 32
12 32
13 32
14 32
15 32
16 32
17 32
18 31
19 31
20 31
21 31
22 31
23 31
24 31
25 31
26 31
27 31
28 31
29 31
30 31
31 31
32 31
33 31
34 31
35 31
36 31
37 31
38 31
39 31
40 31
41 31
42 31
43 30
44 30
45 30
46 30
47 30
48 30
49 30
50 30
51 30
52 30
53 29
54 29
55 29
56 29
57 30
58 30
59 30
60 30
61 30
62 30
63 30
64 30
65 31
66 31
67 31
68 31
69 31
70 31
71 31
72 32
73 32
74 33
75 33
76 33
77 34
78 34
79 34
80 35
81 35
82 35
83 35
84 36
85 36
86 36
87 36
88 36
89 36
90 36
91 36
92 36
93 36
94 36
95 36
96 36
97 36
98 36
99 36
100 36
101 36
102 36
103 36
104 36
105 36
106 36
107 36
108 36
109 36
110 36
111 36
112 36
113 36
114 36
115 36
116 36
117 36
118 37
119 37
120 37
121 37
122 37
123 37
124 37
125 37
126 37
127 37
128 37
129 37
130 37
131 37
132 37
133 37
134 37
135 37
136 37
137 38
138 38
139 38
140 38
141 38
142 38
143 38
144 38
145 38
146 38
147 38
148 38
149 38
150 38
151 38
152 38
153 38
154 38
155 38
156 38
157 38
158 39
159 39
160 39
161 39
162 39
163 39
164 39
165 39
166 39
167 39
168 40
169 40
170 40
171 40
172 40
173 40
174 40
175 40
176 41
177 41
178 41
179 41
180 41
181 41
182 41
183 41
184 42
185 42
186 42
187 42
188 42
189 42
190 42
191 42
192 42
193 42
194 42
195 43
196 43
197 43
198 43
199 43
200 43
201 42
202 42
203 42
204 42
205 42
206 42
207 42
208 42
209 42
210 42
211 42
212 42
213 42
214 42
215 42
216 42
217 42
218 42
219 42
220 42
221 42
222 41
223 41
224 41
225 41
226 41
227 41
228 41
229 41
230 41
231 41
232 41
233 41
234 41
235 41
236 41
237 41
238 41
239 41
240 41
241 40
242 40
243 40
244 40
245 40
246 40
247 40
248 40
249 40
250 39
251 39
252 39
253 39
254 39
255 39
256 39
257 39
258 39
259 40
260 40
261 41
261 42
262 43
263 44
264 44
265 45
266 46
267 46
268 46
269 45
270 44
271 43
272 44
273 44
274 43
274 42
275 41
275 40
276 39
276 38
277 37
278 37
279 36
280 35
281 34
282 33
283 33
284 33
285 33
286 33
287 32
288 32
289 32
290 32
291 32
292 32
293 32
294 31
295 31
296 31
297 32
298 32
299 32
300 32
301 32
302 33
303 33
304 33
305 33
306 34
307 35
308 36
309 36
310 36
311 37
312 37
313 38
314 38
315 39
316 39
317 40
318 40
319 40
320 41
321 41
322 42
323 42
324 43
325 43
326 44
327 44
328 44
329 45
330 45
331 46
332 46
333 47
334 47
335 47
336 48
337 48
338 49
339 49
340 49
341 49
342 50
343 50
344 50
345 50
346 50
347 49
348 48
348 47
349 46
349 45
348 45
347 44
346 43
345 43
344 42
343 42
342 42
341 41
340 40
341 39
340 39
339 38
338 37
337 36
336 36
335 35
334 34
333 33
332 33
331 32
332 31
331 31
330 30
329 30
328 29
327 28
326 28
325 28
324 27
323 27
322 27
321 26
322 25
323 24
324 23
325 22
326 21
326 20
327 19
326 19
325 18
326 17
327 17
328 16
329 15
329 14
328 13
328 12
329 11
330 10
331 9
331 8
332 7
333 6
333 5
334 4
334 3
333 3
332 2
