127 1
126 2
125 2
124 2
123 3
122 3
121 4
120 4
119 5
118 6
117 7
116 7
115 7
114 7
113 7
112 6
113 5
113 4
113 3
112 3
111 3
110 4
109 4
108 5
108 6
107 7
106 8
105 8
104 9
104 10
103 11
102 12
101 13
100 14
100 15
99 16
98 17
97 18
97 19
96 20
96 21
95 22
95 23
94 24
94 25
94 26
93 27
93 28
93 29
93 30
93 31
92 32
91 32
90 32
89 32
88 32
87 32
86 32
85 32
84 32
83 32
82 32
81 32
80 32
79 32
78 32
77 32
76 32
75 32
74 32
73 32
72 32
71 32
70 32
69 32
68 32
67 32
66 32
65 32
64 32
63 32
62 32
61 32
60 32
59 32
58 32
57 32
56 32
55 32
54 32
53 32
52 33
51 33
50 33
49 33
48 33
47 33
46 33
45 33
44 33
43 33
42 33
41 33
40 33
39 33
38 33
37 33
36 32
35 32
34 32
33 32
32 33
31 33
30 33
29 33
28 33
27 34
26 34
25 35
24 35
23 36
22 36
21 37
20 37
19 38
18 38
17 39
16 39
15 40
15 41
14 42
13 42
12 43
11 44
10 44
10 45
9 46
8 46
7 47
6 48
5 49
5 50
5 51
5 52
5 53
5 54
5 55
4 56
3 57
2 58
2 59
2 60
2 61
2 62
2 63
3 64
3 65
4 66
5 67
6 68
7 69
8 70
8 71
9 72
9 73
10 74
11 74
12 75
13 75
14 75
15 76
16 77
17 78
18 78
19 78
20 78
21 79
22 79
23 79
24 79
25 80
26 80
27 80
28 80
29 80
30 81
31 81
32 81
33 82
34 82
35 82
36 83
37 83
38 83
39 83
40 83
41 83
42 83
43 83
44 83
45 83
46 83
47 83
48 83
49 83
50 83
51 83
52 84
53 84
54 84
55 84
56 84
57 85
58 85
59 85
60 85
61 85
62 86
63 86
64 87
65 87
66 87
67 87
68 87
69 88
70 88
71 88
72 88
73 88
74 88
75 88
76 88
77 88
78 88
79 89
80 90
81 91
81 92
81 93
82 94
83 95
84 95
85 95
86 95
87 95
88 94
89 94
90 94
91 94
92 95
93 95
94 95
95 95
96 95
97 95
98 95
99 96
100 96
101 96
102 96
103 96
104 96
105 96
106 96
107 96
108 96
109 96
110 96
111 96
112 96
113 96
114 96
115 96
116 96
117 96
118 96
119 96
120 97
121 97
122 97
123 97
124 97
125 97
126 96
127 96
128 96
129 96
130 96
131 96
132 95
133 95
134 95
135 95
136 95
137 95
138 95
139 94
140 94
141 93
142 93
142 92
143 91
143 90
144 89
145 89
146 89
147 89
148 88
149 88
150 88
151 88
152 88
153 88
154 88
155 88
156 89
157 89
158 89
159 89
160 89
161 89
162 90
163 91
164 92
164 93
165 93
166 94
167 94
168 95
169 95
170 96
171 97
172 98
173 98
174 98
175 99
176 99
177 100
178 100
179 100
180 100
181 100
182 100
183 101
184 101
185 101
186 101
187 101
188 101
189 101
190 101
191 101
192 101
193 101
194 101
195 100
196 100
197 100
198 100
199 100
200 100
201 100
202 100
203 100
204 100
205 99
206 99
207 99
208 99
209 99
210 98
211 98
212 98
213 98
214 98
215 98
216 98
217 98
218 98
219 98
220 98
221 98
222 98
223 98
224 98
225 98
226 98
227 98
228 98
229 98
230 98
231 98
232 98
233 98
234 98
235 99
236 98
237 97
238 97
239 97
240 96
241 96
242 96
243 96
244 95
245 95
246 95
247 95
248 94
249 94
250 94
251 94
252 94
253 93
254 93
255 93
256 93
257 93
258 93
259 92
260 92
261 91
262 90
263 89
263 88
264 87
264 86
264 85
265 84
266 84
267 84
268 85
269 85
270 85
271 86
272 86
273 87
274 88
275 88
276 88
277 89
278 89
279 89
280 90
281 90
282 90
283 91
284 91
285 92
286 92
287 93
288 93
289 93
290 93
291 94
292 94
293 94
294 94
295 94
296 94
297 94
298 94
299 94
300 94
301 94
302 95
303 95
304 95
305 95
306 94
307 94
308 94
309 94
310 94
311 94
312 94
313 94
314 93
315 93
316 93
317 93
318 93
319 92
320 91
321 91
322 90
323 90
324 90
325 89
326 89
327 88
328 88
328 87
329 86
330 85
331 84
332 83
332 82
333 81
334 80
334 79
335 78
335 77
336 76
336 75
336 74
336 73
337 72
337 71
337 70
337 69
336 69
335 68
336 67
336 66
336 65
336 64
335 64
334 63
335 62
335 61
335 60
335 59
335 58
335 57
334 57
333 56
334 55
333 55
332 54
333 53
332 53
331 52
330 51
331 50
331 49
330 49
329 48
328 47
327 47
326 46
325 45
326 44
325 44
324 43
323 43
322 42
321 41
320 41
319 40
318 39
317 39
316 39
315 39
314 38
313 38
312 38
311 37
310 37
309 37
308 37
307 37
306 37
305 37
304 37
303 37
302 37
301 37
300 37
299 37
298 37
297 37
296 37
295 37
294 37
293 38
292 38
291 38
290 38
289 38
288 39
287 39
286 39
285 39
284 40
283 40
282 41
281 41
280 42
279 42
278 43
277 43
276 43
275 43
274 44
273 44
272 43
272 42
273 41
273 40
274 39
274 38
274 37
275 36
275 35
275 34
275 33
274 33
273 32
274 31
273 31
272 30
273 29
272 29
271 28
270 27
269 26
270 25
269 25
268 24
267 23
266 22
265 22
264 21
265 20
264 20
263 19
262 19
261 18
260 18
259 17
258 17
257 17
256 16
255 16
254 15
253 14
252 14
251 14
250 13
249 13
248 13
247 13
246 13
245 12
244 12
243 12
242 11
241 11
240 10
239 10
238 9
237 9
236 9
235 9
234 9
233 9
232 9
231 9
230 9
229 9
228 8
227 8
226 8
225 8
224 8
223 8
222 8
221 8
220 8
219 7
218 7
217 7
216 7
215 7
214 7
213 7
212 7
211 7
210 7
209 7
208 7
207 7
206 7
205 7
204 7
203 7
202 7
201 7
200 7
199 7
198 7
197 7
196 6
195 6
194 6
193 5
192 5
191 5
190 5
189 5
188 5
187 5
186 5
185 5
184 5
183 6
182 6
181 6
180 6
179 6
178 6
177 6
176 6
175 7
174 7
173 7
172 7
171 7
170 8
169 8
168 9
167 9
166 10
165 11
164 12
163 13
162 13
161 14
160 15
160 16
159 17
158 17
158 18
157 19
156 20
156 21
155 22
154 23
153 23
152 24
152 25
151 26
150 26
149 25
148 24
148 23
149 22
150 21
150 20
151 19
150 19
149 19
148 19
147 20
146 20
145 20
144 20
143 20
142 20
141 20
140 20
139 19
139 18
140 17
141 17
141 16
141 15
140 15
139 16
138 16
137 16
136 17
135 17
134 17
133 17
132 16
133 15
133 14
134 13
135 12
136 11
136 10
137 9
136 9
135 9
134 9
133 9
132 9
131 9
130 9
129 9
128 9
127 8
126 7
127 6
127 5
127 4
127 3
128 2
128 1
