132 2
131 3
130 4
129 4
128 4
128 5
127 6
126 6
125 6
124 7
123 8
122 8
121 9
120 9
119 10
118 10
117 10
116 10
115 10
114 9
115 8
115 7
116 6
116 5
117 4
116 4
115 4
114 5
113 5
112 6
111 7
111 8
110 9
109 10
108 10
107 11
106 12
105 13
104 14
103 14
102 15
101 15
100 14
99 14
98 14
97 14
97 15
96 16
95 17
94 18
93 19
92 19
91 20
90 21
89 22
88 22
87 23
86 23
85 24
85 25
85 26
84 27
84 28
83 29
83 30
82 31
82 32
82 33
81 34
81 35
81 36
81 37
81 38
81 39
80 40
80 41
80 42
80 43
80 44
80 45
80 46
80 47
79 48
78 49
77 49
76 49
75 49
74 49
73 49
72 49
71 49
70 49
69 49
68 49
67 49
66 49
65 50
64 50
63 50
62 50
61 50
60 50
59 50
58 51
57 51
56 51
55 51
54 51
53 51
52 51
51 52
50 52
49 52
48 52
47 52
46 53
45 53
44 53
43 54
42 54
41 54
40 54
39 54
38 54
37 54
36 55
35 55
34 56
33 56
32 56
31 56
30 57
29 57
28 57
27 57
26 57
25 57
24 57
23 57
22 58
21 58
20 58
19 59
18 60
17 60
16 61
15 62
15 63
15 64
14 65
13 65
12 66
11 66
10 67
9 68
8 69
7 69
6 70
6 71
6 72
5 73
5 74
4 75
3 76
3 77
2 78
2 79
2 80
2 81
2 82
2 83
2 84
2 85
3 86
4 87
5 88
6 89
6 90
7 90
8 91
9 92
10 92
11 93
12 94
13 94
14 95
15 95
16 96
17 96
18 96
19 97
20 97
21 98
22 98
23 98
24 99
25 99
26 99
27 100
28 100
29 100
30 100
31 101
32 101
33 101
34 101
35 102
36 102
37 102
38 102
39 102
40 102
41 102
42 102
43 103
44 103
45 103
46 103
47 103
48 103
49 103
50 103
51 103
52 103
53 103
54 103
55 104
56 104
57 104
58 104
59 104
60 104
61 104
62 104
63 104
64 104
65 104
66 104
67 104
68 104
69 104
70 104
71 105
72 106
72 107
72 108
73 109
74 110
75 111
75 112
76 113
77 114
78 114
79 114
80 114
81 114
82 115
83 115
84 115
85 115
86 115
87 115
88 115
89 115
90 115
91 115
92 115
93 115
94 115
95 115
96 115
97 115
98 115
99 115
100 115
101 115
102 115
103 115
104 115
105 115
106 115
107 115
108 115
109 115
110 115
111 115
112 115
113 115
114 114
115 114
116 113
117 113
118 112
119 112
120 111
120 110
121 109
120 109
119 108
118 108
117 108
116 108
115 107
114 107
113 107
112 107
111 106
110 106
109 106
108 106
107 105
108 104
109 104
110 104
111 103
112 103
113 103
114 103
115 103
116 103
117 103
118 103
119 103
120 103
121 103
122 103
123 103
124 103
125 102
126 102
127 102
128 102
129 102
130 102
131 102
132 101
133 101
134 101
135 101
136 101
137 100
138 100
139 101
140 101
141 101
142 101
143 101
144 101
145 101
146 101
147 102
147 103
148 104
149 104
150 105
151 106
152 107
153 108
154 108
155 109
156 109
157 110
158 111
159 111
160 111
161 112
162 112
163 112
164 112
165 113
166 113
167 113
168 113
169 113
170 113
171 113
172 113
173 113
174 113
175 112
176 112
177 112
178 112
179 112
180 112
181 112
182 112
183 112
184 112
185 112
186 112
187 112
188 112
189 111
190 111
191 111
192 111
193 111
194 111
195 111
196 111
197 110
198 110
199 110
200 110
201 110
202 110
203 110
204 110
205 110
206 109
207 109
208 109
209 109
210 108
211 108
212 108
213 107
214 106
215 106
216 106
217 105
218 105
219 104
220 104
221 103
221 102
222 101
222 100
223 99
223 98
223 97
223 96
223 95
222 95
221 94
220 94
219 93
218 93
217 92
216 92
215 92
214 92
213 92
212 91
211 91
210 91
209 91
208 90
207 90
206 90
205 90
204 90
203 89
204 88
205 88
206 88
207 88
208 88
209 88
210 88
211 88
212 87
213 87
214 87
215 87
216 87
217 87
218 87
219 86
220 86
221 86
222 86
223 86
224 86
225 86
226 86
227 86
228 86
229 86
230 87
231 87
232 87
233 87
234 88
235 88
236 88
237 88
238 89
239 89
240 89
241 90
242 90
243 90
244 91
245 91
246 91
247 91
248 91
249 91
250 92
251 92
252 92
253 92
254 93
255 93
256 93
257 93
258 93
259 94
260 94
261 94
262 94
263 94
264 94
265 94
266 94
267 93
268 93
269 93
270 93
271 93
272 93
273 93
274 92
275 92
276 92
277 92
278 91
279 91
280 91
281 90
282 89
283 88
284 87
285 86
286 85
287 84
288 83
289 82
289 81
290 80
290 79
290 78
291 77
291 76
291 75
291 74
292 73
292 72
292 71
293 70
293 69
293 68
293 67
293 66
293 65
292 64
292 63
291 62
292 61
291 61
290 60
289 59
290 58
290 57
289 57
288 56
289 55
288 55
287 54
286 53
287 52
286 52
285 51
284 51
283 50
284 49
283 49
282 48
281 48
280 47
279 47
278 46
277 46
276 45
275 45
274 45
273 44
272 44
271 44
270 44
269 43
268 43
267 43
266 43
265 43
264 43
263 43
262 43
261 44
260 44
259 44
258 44
257 44
256 45
255 45
254 45
253 45
252 46
251 46
250 47
249 47
248 48
247 48
246 48
245 48
244 49
243 49
242 50
241 50
240 51
239 51
238 51
237 52
236 52
235 53
234 53
233 54
232 54
231 54
230 55
229 55
228 55
227 56
226 56
225 56
224 56
223 57
222 57
221 57
220 57
219 57
218 58
217 58
216 58
215 58
214 58
213 57
212 57
211 57
210 57
209 57
208 57
207 57
206 57
205 57
204 57
203 57
202 56
202 55
203 54
204 54
205 54
206 53
207 53
208 52
209 51
210 51
211 51
212 50
213 50
214 49
215 49
216 49
217 48
218 48
219 47
220 47
221 47
222 46
223 45
224 44
225 44
226 43
226 42
227 41
227 40
227 39
227 38
226 38
225 37
224 36
223 35
222 35
221 34
220 34
219 33
218 33
217 32
216 32
215 31
214 31
213 30
212 30
211 30
210 29
209 29
208 29
207 29
206 29
205 29
204 29
203 28
202 28
201 28
200 28
199 28
198 28
197 28
196 27
195 27
194 27
193 27
192 27
191 27
190 26
189 26
188 26
187 27
186 27
185 26
184 26
183 26
182 27
181 27
180 27
179 27
178 27
177 27
176 27
175 27
174 26
173 26
172 26
171 26
170 26
169 26
168 26
167 26
166 26
165 26
164 26
163 26
162 26
161 26
160 26
159 26
158 26
157 26
156 26
155 26
154 26
153 27
152 27
151 28
150 28
149 29
148 29
147 29
146 30
145 31
144 32
143 32
143 33
142 34
141 35
140 36
139 37
138 38
137 39
137 40
136 41
135 42
134 43
133 44
132 45
132 46
131 47
130 48
129 49
128 48
127 48
126 47
125 46
126 45
126 44
126 43
126 42
126 41
126 40
127 39
127 38
128 37
128 36
129 35
130 34
130 33
129 32
128 31
127 30
128 29
128 28
128 27
129 26
130 25
130 24
131 23
132 22
132 21
133 20
134 20
135 19
136 18
137 17
137 16
138 15
137 15
136 14
135 15
134 15
133 15
132 16
131 16
130 16
129 16
128 17
127 17
126 16
125 16
124 15
125 14
125 13
126 12
127 11
128 10
129 9
130 9
131 8
131 7
132 6
133 5
134 5
135 4
135 3
136 2
135 2
134 2
133 2
