106 1
105 2
104 2
103 2
102 2
101 3
100 3
99 4
98 4
97 5
96 4
95 5
94 6
93 6
92 7
91 8
90 8
90 9
90 10
89 11
88 12
87 12
86 13
86 14
85 15
84 16
84 17
83 18
83 19
83 20
82 21
81 22
80 23
80 24
79 25
78 26
77 25
76 25
75 25
74 25
73 25
72 25
71 25
70 25
69 25
68 26
67 26
66 26
65 26
64 26
63 26
62 26
61 26
60 26
59 26
58 26
57 26
56 26
55 26
54 26
53 27
52 27
51 27
50 27
49 27
48 27
47 27
46 28
45 28
44 28
43 28
42 28
41 28
40 29
39 29
38 30
37 30
36 31
35 31
34 31
33 32
32 32
31 32
30 33
29 33
28 33
27 33
26 34
25 35
24 34
23 35
22 34
21 34
20 35
19 35
18 36
17 37
16 37
15 38
14 39
13 40
12 40
11 41
10 42
9 42
8 43
8 44
7 45
6 46
6 47
6 48
5 49
5 50
4 51
3 52
3 53
2 54
2 55
2 56
2 57
2 58
2 59
2 60
2 61
2 62
3 63
4 64
5 65
6 66
7 67
8 67
9 67
10 68
11 68
12 68
13 69
14 69
15 70
16 70
17 71
18 71
19 72
20 72
21 73
22 73
23 73
24 73
25 73
26 74
27 74
28 74
29 74
30 74
31 75
32 74
33 75
34 75
35 75
36 76
37 75
38 76
39 76
40 76
41 76
42 76
43 76
44 76
45 76
46 77
47 77
48 76
49 77
50 77
51 77
52 77
53 77
54 77
55 77
56 77
57 77
58 77
59 77
60 77
61 77
62 77
63 77
64 77
65 77
66 77
67 77
68 77
69 77
70 78
71 79
72 79
73 80
73 81
73 82
74 82
75 83
76 84
77 85
78 85
79 85
80 85
81 85
82 85
83 85
84 84
85 84
86 84
87 84
88 84
89 84
90 84
91 83
92 83
93 83
94 83
95 83
96 83
97 82
98 82
99 82
100 82
101 82
102 82
103 82
104 82
105 81
106 81
107 81
108 81
109 81
110 81
111 81
112 81
113 81
114 81
115 81
116 81
117 81
118 81
118 80
119 79
119 78
120 77
121 77
122 77
123 77
124 77
125 77
126 78
127 78
128 78
129 78
130 78
131 78
132 78
133 78
134 78
135 78
136 78
137 78
138 79
139 79
140 80
141 80
142 81
143 82
144 82
145 82
146 82
147 82
148 83
149 83
150 83
151 83
152 83
153 83
154 83
155 84
156 84
157 84
158 84
159 84
160 84
161 85
162 85
163 85
164 86
165 86
166 86
167 86
168 86
169 86
170 86
171 85
172 85
173 85
174 84
175 84
176 84
177 84
178 83
179 83
180 83
181 83
182 82
183 82
184 82
185 82
186 81
187 81
188 80
189 80
190 79
191 79
192 79
193 79
194 79
195 78
196 78
197 78
198 78
199 77
200 77
201 77
202 77
203 76
204 76
205 75
206 75
207 74
208 74
209 74
210 73
211 73
212 73
213 72
213 71
214 70
214 69
213 69
212 68
213 67
214 67
215 67
216 67
217 67
218 67
219 68
220 68
221 68
222 69
223 69
224 69
225 69
226 69
227 69
228 70
229 70
230 70
231 70
232 71
233 71
234 72
235 72
236 72
237 72
238 72
239 72
240 72
241 72
242 72
243 72
244 72
245 72
246 72
247 72
248 72
249 71
250 71
251 71
252 70
253 70
254 70
255 70
256 70
257 69
258 69
259 69
260 68
261 68
262 67
263 67
263 66
264 65
265 64
266 64
267 63
268 63
269 62
269 61
270 60
271 59
271 58
272 57
272 56
273 55
273 54
273 53
272 52
273 51
273 50
273 49
273 48
273 47
273 46
272 46
271 45
272 44
272 43
271 43
270 42
271 41
270 41
269 40
268 39
269 38
268 38
267 38
266 37
265 36
264 36
263 35
262 34
261 33
260 33
259 33
258 33
257 32
256 32
255 32
254 32
253 31
252 31
251 31
250 31
249 31
248 31
247 31
246 31
245 31
244 31
243 31
242 31
241 31
240 32
239 32
238 32
237 32
236 32
235 32
234 33
233 33
232 33
231 33
230 33
229 34
228 34
227 35
226 35
225 36
224 36
223 36
222 36
221 37
220 37
219 37
218 37
217 38
216 38
215 38
214 38
213 38
212 39
211 39
210 38
211 37
211 36
210 36
209 35
210 34
209 34
208 33
207 33
206 32
205 32
204 31
203 31
202 31
201 30
200 30
199 29
198 29
197 28
196 28
195 28
194 28
193 27
192 27
191 27
190 27
189 27
188 27
187 27
186 26
185 26
184 26
183 26
182 25
181 25
180 24
179 24
178 23
177 23
176 23
175 23
174 22
173 22
172 22
171 22
170 22
169 21
168 21
167 21
166 21
165 21
164 21
163 20
162 20
161 20
160 19
159 19
158 19
157 19
156 19
155 19
154 19
153 19
152 19
151 19
150 20
149 20
148 21
147 21
146 21
145 22
144 22
143 22
142 23
141 23
140 23
139 24
138 25
137 26
136 26
135 27
134 27
133 28
132 29
131 30
130 31
129 31
128 32
127 31
126 31
125 31
124 31
123 31
122 30
123 29
123 28
123 27
123 26
123 25
123 24
124 23
124 22
124 21
124 20
123 20
122 19
123 18
123 17
124 16
123 16
122 15
121 14
122 13
121 13
120 12
119 11
120 10
120 9
120 8
119 8
118 7
117 7
116 7
115 7
114 6
115 5
115 4
114 4
113 3
112 3
111 3
110 3
109 2
108 2
107 2
