87 2
86 3
85 3
84 3
83 3
82 3
81 3
80 3
79 4
78 4
77 5
76 5
75 6
74 6
73 6
72 7
72 8
71 9
71 10
71 11
70 12
69 12
69 13
68 14
68 15
68 16
67 17
67 18
66 19
66 20
66 21
66 22
65 23
65 24
64 25
64 26
64 27
63 28
63 29
63 30
62 31
62 32
62 33
62 34
62 35
62 36
62 37
62 38
62 39
62 40
62 41
62 42
62 43
62 44
61 45
61 46
60 47
59 47
58 47
57 47
56 47
55 47
54 47
53 47
52 47
51 47
50 47
49 48
48 48
47 48
46 48
45 48
44 48
43 48
42 48
41 48
40 48
39 48
38 48
37 48
36 49
35 49
34 49
33 49
32 49
31 49
30 49
29 49
28 49
27 49
26 48
25 48
24 48
23 48
22 48
21 49
20 49
19 49
18 49
17 50
16 50
15 51
14 52
13 53
12 53
12 54
11 55
10 55
9 56
8 56
7 57
6 58
5 59
4 59
3 60
2 61
2 62
2 63
2 64
2 65
2 66
3 67
4 68
5 69
5 70
6 71
7 72
8 72
9 73
10 73
11 74
12 74
13 75
14 75
15 75
16 75
17 76
18 77
19 77
20 77
21 78
22 78
23 79
24 79
25 79
26 80
27 80
28 80
29 80
30 80
31 80
32 80
33 80
34 81
35 81
36 81
37 81
38 81
39 81
40 81
41 81
42 81
43 81
44 81
45 81
46 81
47 81
48 81
49 81
50 81
51 81
52 82
53 83
54 84
55 84
56 85
56 86
57 87
58 88
59 89
60 89
61 90
62 90
63 90
64 90
65 90
66 90
67 90
68 90
69 90
70 89
71 90
72 89
73 89
74 90
75 90
76 90
77 90
78 90
79 90
80 90
81 90
82 90
83 90
84 90
85 89
86 89
87 89
88 89
89 89
90 89
91 89
92 88
93 88
94 88
95 88
96 87
97 87
98 86
99 86
99 85
100 84
99 84
98 84
97 83
96 83
95 82
96 81
97 81
98 80
99 80
100 80
101 81
102 81
103 82
104 82
105 82
106 82
107 82
108 83
109 84
110 84
111 85
111 86
112 87
113 87
114 88
115 88
116 88
117 89
118 89
119 89
120 89
121 89
122 89
123 89
124 89
125 89
126 89
127 89
128 89
129 89
130 89
131 89
132 89
133 89
134 89
135 89
136 89
137 88
138 88
139 88
140 88
141 88
142 88
143 88
144 88
145 88
146 88
147 88
148 88
149 88
150 88
151 88
152 87
153 87
154 87
155 87
155 86
156 85
156 84
155 84
154 84
153 83
152 82
151 81
150 81
149 81
148 80
147 79
146 79
145 78
146 77
147 76
148 76
149 76
150 76
151 76
152 76
153 76
154 75
155 75
156 75
157 75
158 75
159 75
160 75
161 75
162 75
163 75
164 74
165 74
166 74
167 74
168 74
169 74
170 74
171 74
172 74
173 74
174 74
175 74
176 74
177 75
178 75
179 75
180 75
181 75
182 75
183 75
184 76
185 76
186 76
187 76
188 76
189 76
190 76
191 76
192 77
193 77
194 77
195 77
196 77
197 78
198 78
199 78
200 78
201 78
202 79
203 79
204 79
205 79
206 79
207 79
208 79
209 79
210 79
211 79
212 79
213 78
214 78
215 77
216 77
217 77
218 76
219 76
220 75
221 75
222 74
223 73
224 72
224 71
225 70
226 69
227 68
227 67
228 66
228 65
228 64
229 63
229 62
229 61
230 60
230 59
229 59
228 58
229 57
229 56
229 55
228 55
227 54
228 53
227 53
226 52
225 52
224 51
225 50
224 50
223 50
222 49
221 48
220 48
219 47
218 46
217 45
216 45
215 45
214 44
213 44
212 44
211 44
210 44
209 44
208 44
207 44
206 45
205 45
204 45
203 45
202 45
201 46
200 46
199 46
198 46
197 47
196 47
195 48
194 48
193 48
192 49
191 49
190 49
189 50
188 50
187 50
186 51
185 51
184 51
183 52
182 52
181 53
180 53
179 53
178 53
177 53
176 53
175 53
174 53
173 53
172 54
171 53
170 53
169 53
168 53
167 53
166 53
165 53
164 53
163 53
162 53
161 53
160 53
159 53
158 53
157 52
156 52
155 52
154 52
153 52
152 52
151 52
150 52
149 52
148 52
147 52
146 52
145 52
144 52
143 51
143 50
143 49
144 48
145 47
146 46
147 45
147 44
148 43
149 42
150 41
151 40
151 39
152 38
152 37
153 36
153 35
152 34
153 33
153 32
153 31
152 31
151 30
152 29
151 29
150 29
149 28
148 27
147 27
146 26
145 25
144 25
143 25
142 24
141 23
140 23
139 23
138 22
137 22
136 21
135 21
134 21
133 20
132 20
131 19
130 19
129 19
128 19
127 18
126 18
125 18
124 17
123 17
122 17
121 17
120 16
119 16
118 16
117 16
116 17
115 17
114 17
113 18
112 19
111 20
110 21
109 22
108 23
108 24
107 25
107 26
106 27
106 28
106 29
105 30
104 31
103 32
102 31
102 30
102 29
103 28
103 27
103 26
102 26
101 25
102 24
102 23
101 23
100 22
101 21
101 20
101 19
101 18
101 17
101 16
101 15
100 15
99 14
100 13
99 13
98 12
97 11
98 10
97 10
96 9
97 8
96 8
95 7
96 6
95 6
94 5
93 4
92 3
91 3
90 2
89 2
88 2
