88 2
87 3
86 3
85 3
84 3
83 3
82 4
81 4
80 4
79 4
78 4
77 5
76 5
75 5
74 6
73 6
72 7
71 7
70 7
69 8
68 8
67 8
66 8
65 9
64 9
63 9
62 10
61 10
60 10
59 10
58 10
57 10
56 11
55 11
54 11
53 11
52 11
51 12
50 12
49 12
48 12
47 12
46 12
45 13
44 13
43 13
42 13
41 13
40 13
39 13
38 13
37 14
36 14
35 14
34 14
33 14
32 15
31 15
30 15
29 15
28 15
27 16
26 16
25 16
24 17
23 17
22 17
21 17
20 17
19 17
18 17
17 17
16 18
15 18
14 18
13 19
12 20
11 21
11 22
10 23
9 24
8 25
7 26
7 27
6 28
5 29
4 30
3 30
2 31
2 32
2 33
2 34
2 35
2 36
2 37
2 38
2 39
2 40
3 40
4 40
5 41
6 41
7 42
8 42
9 42
10 43
11 43
12 44
13 44
14 44
15 44
16 45
17 45
18 46
19 46
20 46
21 47
22 47
23 48
24 48
25 48
26 48
27 48
28 48
29 48
30 48
31 49
32 49
33 49
34 49
35 50
36 50
37 50
38 51
39 51
40 51
41 51
42 52
43 52
44 52
45 52
46 52
47 53
48 53
49 53
50 53
51 53
52 53
53 54
54 54
55 54
56 54
57 54
58 54
59 55
60 55
61 55
62 55
63 56
64 57
65 57
66 58
67 58
68 59
69 59
70 59
71 59
72 59
73 60
74 60
75 60
76 60
77 60
78 60
79 60
80 60
81 60
82 60
83 61
84 61
85 61
86 61
87 61
88 61
89 61
90 61
91 61
92 61
93 61
94 61
95 61
96 61
97 61
98 62
99 62
100 62
101 62
102 62
103 62
104 62
105 63
106 63
107 63
108 63
109 63
110 62
111 62
112 62
113 62
114 62
115 62
116 62
117 62
117 61
118 60
117 60
116 59
115 59
114 59
113 58
112 58
111 58
110 58
109 57
108 57
107 57
106 56
105 56
104 56
103 56
102 55
101 55
100 55
99 55
98 55
97 55
96 54
97 53
98 52
99 52
100 52
101 52
102 51
103 51
104 50
105 50
106 50
107 50
108 50
109 49
110 49
111 49
112 49
113 49
114 49
115 49
116 49
117 49
118 49
119 48
120 48
121 48
121 47
122 46
123 46
124 47
125 47
126 47
127 47
128 47
129 48
130 48
131 48
132 48
133 48
134 48
135 48
136 48
137 48
138 48
139 48
140 48
141 48
142 48
143 48
144 48
145 47
146 47
147 47
148 47
149 46
150 46
151 46
152 46
153 46
154 46
155 45
156 45
157 45
158 45
159 44
160 43
161 43
162 42
162 41
163 40
164 39
165 39
166 39
167 38
168 38
169 38
170 38
171 38
172 38
173 38
174 37
175 37
176 37
177 37
178 37
179 37
180 37
181 36
182 36
183 36
184 36
185 36
186 36
187 36
188 36
189 36
190 35
191 35
192 35
193 35
194 35
195 35
196 35
197 35
198 35
199 35
200 35
201 35
202 35
203 35
204 35
205 35
206 36
207 36
208 36
209 36
210 36
211 36
212 36
213 36
214 37
215 37
216 37
217 37
218 37
219 38
220 38
221 38
222 38
223 38
224 38
225 39
226 39
227 39
228 39
229 39
230 39
231 39
232 40
233 40
234 40
235 40
236 40
237 40
238 40
239 40
240 40
241 40
242 40
243 40
244 39
245 39
246 38
247 38
248 38
249 37
249 36
250 35
250 34
250 33
250 32
250 31
250 30
250 29
250 28
250 27
250 26
250 25
250 24
251 23
251 22
251 21
250 21
249 20
250 19
249 19
248 19
247 18
246 18
245 17
244 17
243 17
242 17
241 16
240 16
239 16
238 16
237 15
236 15
235 15
234 15
233 15
232 15
231 15
230 14
229 14
228 14
227 14
226 14
225 14
224 14
223 14
222 14
221 14
220 14
219 15
218 15
217 15
216 15
215 15
214 15
213 15
212 15
211 15
210 15
209 15
208 15
207 16
206 16
205 16
204 16
203 16
202 16
201 16
200 16
199 16
198 16
197 17
196 17
195 17
194 17
193 17
192 17
191 17
190 17
189 17
188 17
187 17
186 17
185 16
184 16
183 16
182 16
181 16
180 16
179 16
178 16
177 16
176 16
175 16
174 16
173 15
172 15
171 15
170 15
169 15
168 15
167 15
166 15
165 15
164 15
163 15
162 15
161 14
162 13
162 12
161 11
160 11
159 10
158 9
157 8
156 8
155 7
154 6
153 5
152 5
151 4
150 4
149 4
148 4
147 3
146 3
145 3
144 3
143 3
142 3
141 3
140 3
139 4
138 4
137 4
136 4
135 4
134 4
133 4
132 4
131 4
130 5
129 5
128 5
127 6
126 6
125 6
124 6
123 6
122 7
121 7
120 7
119 7
118 8
117 8
116 9
115 9
114 9
113 10
112 10
111 10
110 10
109 10
108 9
109 8
109 7
109 6
109 5
108 5
107 4
106 3
105 3
104 3
103 2
102 2
101 2
100 2
99 2
98 2
97 2
96 2
95 2
94 2
93 2
92 2
91 2
90 2
89 2
