86 2
85 3
84 3
83 4
82 4
81 5
80 5
79 6
78 7
77 7
76 8
75 9
74 10
73 11
72 11
72 12
71 13
70 14
70 15
69 16
68 17
68 18
67 19
66 19
65 19
64 19
63 19
62 19
61 20
60 20
59 20
58 20
57 20
56 20
55 20
54 20
53 20
52 20
51 20
50 20
49 20
48 20
47 20
46 20
45 20
44 20
43 21
42 21
41 21
40 21
39 21
38 21
37 21
36 21
35 21
34 22
33 22
32 22
31 22
30 22
29 23
28 23
27 23
26 23
25 23
24 24
23 24
22 24
21 24
20 25
19 25
18 25
17 26
16 26
15 26
14 26
13 26
12 27
11 27
10 28
9 28
8 29
7 30
6 31
5 32
4 32
4 33
4 34
4 35
3 36
3 37
3 38
2 39
2 40
2 41
2 42
2 43
2 44
3 45
4 46
4 47
5 48
6 49
6 50
7 50
8 51
9 52
10 53
11 54
12 55
13 55
14 56
15 56
16 57
17 57
18 58
19 58
20 59
21 60
22 60
23 60
24 61
25 61
26 61
27 62
28 62
29 62
30 63
31 63
32 63
33 64
34 64
35 64
36 64
37 65
38 65
39 65
40 65
41 65
42 65
43 65
44 65
45 65
46 65
47 65
48 65
49 66
50 66
51 67
52 68
52 69
53 70
54 71
54 72
55 73
55 74
56 75
57 75
58 75
59 76
60 77
61 78
62 79
63 79
64 79
65 79
66 79
67 80
68 80
69 80
70 81
71 81
72 81
73 81
74 81
75 81
76 81
77 81
78 82
79 82
80 82
81 82
82 82
83 82
84 81
85 80
85 79
86 78
87 78
88 78
89 78
90 78
90 77
91 76
92 76
93 75
93 74
92 73
93 72
92 72
91 71
90 70
89 70
88 69
89 68
90 68
91 68
92 68
93 68
94 68
95 68
96 68
97 68
98 68
99 68
100 68
101 68
102 68
103 68
104 68
105 68
106 68
107 68
108 68
109 68
110 68
111 69
112 69
113 69
114 69
115 69
116 69
117 70
118 70
119 70
120 71
121 72
122 72
123 73
124 73
125 74
126 74
127 75
128 75
129 75
130 75
131 75
132 75
133 75
134 75
135 76
136 76
137 76
138 76
139 76
140 76
141 76
142 76
143 76
144 76
145 76
146 75
147 75
148 75
149 76
150 75
151 75
152 75
153 75
154 76
155 76
155 75
156 74
157 75
158 75
158 74
159 73
160 73
161 73
162 72
163 72
164 72
165 71
166 71
167 71
168 70
169 70
170 70
171 69
172 69
173 69
174 69
175 69
176 68
177 68
178 67
179 67
180 66
181 66
182 65
183 64
184 63
185 62
185 61
186 60
187 59
188 59
189 59
190 59
191 59
192 59
193 59
194 59
195 59
196 59
197 59
198 59
199 59
200 59
201 59
202 59
203 59
204 59
205 59
206 59
207 59
208 59
209 59
210 59
211 59
212 59
213 59
214 59
215 59
216 59
217 59
218 59
219 59
220 58
221 58
222 58
223 58
224 58
225 57
226 57
227 57
228 57
229 57
230 57
231 56
232 56
233 55
234 55
235 55
236 55
237 54
238 54
239 53
240 53
241 53
242 52
243 51
244 51
245 51
246 51
247 50
247 49
248 48
248 47
249 46
249 45
250 44
250 43
251 42
251 41
252 40
252 39
252 38
251 38
250 37
251 36
251 35
251 34
250 34
249 33
250 32
249 32
248 31
249 30
248 30
247 29
248 28
248 27
248 26
247 26
246 25
247 24
247 23
246 23
245 22
244 21
243 21
242 20
241 20
240 19
239 19
238 19
237 19
236 19
235 19
234 19
233 19
232 19
231 19
230 19
229 19
228 19
227 19
226 19
225 19
224 19
223 19
222 19
221 19
220 20
219 20
218 20
217 20
216 20
215 21
214 21
213 21
212 21
211 22
210 22
209 22
208 22
207 22
206 23
205 23
204 23
203 23
202 24
201 24
200 25
199 25
198 25
197 25
196 25
195 26
194 26
193 26
192 26
191 26
190 26
189 26
188 27
187 27
186 26
187 25
187 24
188 23
189 22
190 22
191 21
191 20
192 19
191 19
190 18
189 18
188 17
187 16
186 15
187 14
186 14
185 13
184 13
183 13
182 13
181 12
180 12
179 11
178 11
177 10
176 10
175 9
174 9
173 9
172 8
171 7
170 7
169 7
168 7
167 6
166 6
165 6
164 6
163 5
162 5
161 5
160 5
159 5
158 5
157 4
156 4
155 4
154 4
153 4
152 4
151 3
150 3
149 3
148 3
147 3
146 3
145 3
144 3
143 3
142 3
141 3
140 3
139 3
138 3
137 3
136 3
135 2
134 2
133 2
132 2
131 2
130 2
129 3
128 3
127 3
126 3
125 3
124 4
123 4
122 4
121 5
120 5
119 6
118 7
117 7
116 8
115 9
114 10
113 10
112 10
111 9
110 9
109 8
108 8
107 8
106 7
107 6
106 6
105 5
104 5
103 5
102 5
101 5
100 4
101 3
100 3
99 3
98 3
97 3
96 2
95 3
94 3
93 3
92 3
91 2
90 2
89 2
88 2
87 2
