111 2
110 3
109 3
108 3
107 3
106 4
105 4
104 5
103 5
102 6
101 7
100 7
99 8
98 9
97 10
96 10
95 11
94 12
93 13
92 14
91 14
90 15
89 15
89 16
88 17
87 18
86 19
85 20
84 21
83 22
82 23
81 24
81 25
80 26
80 27
79 28
78 29
77 30
77 31
76 32
76 33
75 34
75 35
74 36
74 37
74 38
73 39
72 40
72 41
72 42
71 43
71 44
70 45
69 45
68 45
67 45
66 45
65 45
64 46
63 46
62 46
61 46
60 46
59 46
58 46
57 47
56 47
55 47
54 48
53 48
52 48
51 48
50 48
49 48
48 48
47 48
46 48
45 48
44 48
43 48
42 48
41 49
40 49
39 49
38 49
37 49
36 49
35 49
34 49
33 49
32 49
31 49
30 49
29 49
28 49
27 49
26 49
25 49
24 49
23 50
22 50
21 50
21 51
20 52
19 53
18 54
17 54
16 55
15 55
14 55
13 56
12 57
11 58
10 58
9 59
8 59
7 60
7 61
7 62
6 63
5 63
4 64
4 65
4 66
4 67
4 68
5 69
6 70
7 71
8 72
9 73
10 74
9 75
8 75
7 74
6 74
5 74
4 74
3 74
2 75
2 76
2 77
2 78
3 78
4 79
5 79
6 79
7 80
8 80
9 81
10 82
10 83
11 83
12 84
13 84
14 85
15 85
16 85
17 85
18 85
19 86
20 86
21 86
22 87
23 88
24 88
25 88
26 88
27 89
28 89
29 90
30 90
31 91
32 91
33 91
34 91
35 91
36 92
37 92
38 92
39 92
40 92
41 93
42 93
43 93
44 93
45 94
46 94
47 94
48 94
49 94
50 94
51 94
52 94
53 94
54 94
55 95
56 95
57 95
58 96
59 96
60 96
61 97
62 98
62 99
63 100
64 101
65 101
66 102
67 103
68 103
69 104
70 104
71 104
72 103
73 103
74 103
75 103
76 103
77 102
78 102
79 102
80 102
81 102
82 102
83 101
84 101
85 101
86 101
87 101
88 101
89 101
90 101
91 101
92 101
93 101
94 101
95 101
96 101
97 101
98 101
99 100
100 100
101 100
102 101
103 101
104 101
105 101
106 101
107 101
108 100
108 99
107 98
108 97
107 97
106 96
105 96
104 95
105 94
106 94
107 94
108 94
109 95
110 95
111 95
112 95
113 95
114 95
115 95
116 95
117 95
118 94
119 94
120 94
121 94
122 94
123 94
124 94
125 94
125 93
126 92
127 92
128 93
129 94
130 94
131 95
132 95
133 96
134 96
135 97
136 97
137 98
138 99
139 99
140 99
141 99
142 99
143 99
144 99
145 99
146 100
147 100
148 100
149 100
150 100
151 100
152 100
153 100
154 100
155 100
156 100
157 100
158 100
159 100
160 100
161 100
162 100
163 100
164 100
165 100
166 100
167 100
168 100
169 99
170 99
171 99
172 99
173 99
174 99
175 99
176 99
177 98
178 98
179 98
180 97
181 97
182 97
183 97
184 96
185 96
186 96
187 96
188 96
189 96
190 96
191 96
192 95
193 95
194 95
195 95
196 95
197 95
198 95
199 95
200 95
201 95
202 95
203 94
204 94
205 94
206 94
207 94
208 94
209 94
210 94
211 94
212 93
213 92
214 91
214 90
215 89
215 88
214 87
215 86
215 85
214 85
213 84
212 84
211 84
210 83
209 83
208 83
207 82
206 82
205 81
204 81
203 80
202 80
201 80
200 79
201 78
202 78
203 78
204 78
205 78
206 77
207 77
208 77
209 77
210 77
211 77
212 77
213 77
214 78
215 78
216 78
217 78
218 79
219 79
220 79
221 80
222 80
223 80
224 81
225 82
226 82
227 83
228 83
229 84
230 84
231 84
232 85
233 85
234 85
235 85
236 86
237 86
238 87
239 87
240 88
241 88
242 88
243 88
244 88
245 88
246 88
247 88
248 88
249 88
250 88
251 88
252 88
253 88
254 87
255 87
256 87
257 86
258 86
259 85
260 85
261 85
262 84
263 84
264 84
265 83
266 83
267 82
268 82
269 81
270 80
271 80
272 79
273 79
274 78
275 77
276 76
277 75
278 75
279 74
280 74
281 73
282 72
283 71
284 70
285 69
285 68
286 67
286 66
286 65
286 64
286 63
285 63
284 62
285 61
285 60
284 60
283 59
282 58
281 57
280 56
281 55
280 55
279 55
278 54
277 54
276 53
275 53
274 52
273 51
272 50
271 50
270 50
269 49
268 49
267 49
266 49
265 48
264 48
263 48
262 48
261 47
260 47
259 46
258 46
257 46
256 45
255 45
254 45
253 45
252 44
251 44
250 44
249 44
248 44
247 44
246 44
245 44
244 44
243 44
242 45
241 45
240 45
239 45
238 45
237 45
236 45
235 45
234 46
233 47
232 47
231 48
230 48
229 48
228 48
227 49
226 49
225 49
224 50
223 50
222 50
221 51
220 52
219 52
218 53
217 53
216 53
215 53
214 54
213 54
212 54
211 54
210 54
209 54
208 54
207 54
206 53
207 52
208 51
209 51
210 50
211 50
212 50
213 49
214 49
215 49
216 48
217 48
218 48
219 47
220 46
221 45
222 45
222 44
223 43
223 42
224 41
224 40
223 40
222 39
221 38
220 38
219 37
220 36
219 36
218 36
217 35
216 35
215 35
214 35
213 34
212 34
211 34
210 34
209 34
208 34
207 34
206 34
205 34
204 34
203 34
202 34
201 34
200 34
199 34
198 33
197 33
196 33
195 33
194 33
193 33
192 32
191 33
190 33
189 33
188 33
187 33
186 33
185 33
184 33
183 33
182 33
181 33
180 33
179 33
178 33
177 33
176 33
175 33
174 33
173 33
172 33
171 32
170 32
169 32
168 32
167 32
166 32
165 32
164 32
163 31
162 32
161 32
160 32
159 32
158 32
157 32
156 32
155 31
154 32
153 32
152 32
151 31
150 31
149 32
148 32
147 32
146 32
145 32
144 32
143 32
142 33
141 33
140 33
139 33
138 33
137 34
136 34
135 34
134 34
133 35
132 35
131 36
130 37
129 38
128 38
127 39
126 39
125 40
125 41
124 42
123 43
122 44
121 44
120 45
120 46
119 47
118 47
117 47
116 47
115 47
114 47
113 46
112 46
111 46
110 45
111 44
112 43
112 42
113 41
114 40
115 39
115 38
114 38
113 38
112 38
111 38
110 37
111 36
112 35
113 35
114 34
115 34
116 33
117 33
117 32
118 31
117 31
116 31
115 31
114 31
113 31
112 31
111 31
110 30
111 29
112 29
113 28
114 28
115 28
116 27
117 26
118 26
119 25
120 25
121 24
121 23
120 23
119 23
118 23
117 24
116 24
115 24
114 24
113 25
112 25
111 25
110 25
109 25
108 25
107 25
106 24
107 23
108 22
109 21
110 21
111 20
112 20
113 19
114 19
115 18
116 18
117 18
118 18
119 18
120 17
121 16
121 15
120 15
119 15
118 15
117 15
116 15
115 15
114 16
113 16
112 17
111 18
110 18
109 18
108 19
107 19
106 19
105 19
104 18
105 17
105 16
106 15
107 15
108 14
109 14
110 13
111 13
112 12
113 11
114 11
115 10
116 10
117 10
117 9
118 8
118 7
117 7
116 7
115 7
114 7
113 8
112 8
111 9
110 10
109 10
108 11
107 11
106 12
105 13
104 13
103 14
102 14
101 15
100 15
99 15
98 16
97 16
96 15
97 14
98 13
99 13
100 12
100 11
101 10
102 10
103 10
104 9
105 8
106 7
107 7
108 6
109 6
110 5
111 5
112 4
113 4
114 4
114 3
115 2
114 2
113 2
112 2
