86 2
85 3
84 3
83 4
82 5
81 6
80 7
79 8
78 9
78 10
77 11
76 12
76 13
75 14
74 15
74 16
74 17
73 18
73 19
72 20
72 21
71 22
70 23
69 22
68 22
67 22
66 22
65 22
64 21
63 21
63 22
62 23
61 22
60 23
59 23
58 23
57 23
56 23
55 23
54 23
53 23
52 23
51 23
50 23
49 24
48 24
47 24
46 24
45 24
44 24
43 24
42 24
41 24
40 25
39 25
38 25
37 25
36 25
35 26
34 26
33 26
32 27
31 27
30 28
29 29
28 29
27 29
26 29
25 30
24 30
23 30
22 30
21 30
20 30
19 30
18 30
17 30
16 31
15 31
14 32
13 32
12 33
11 33
10 33
9 34
8 34
7 35
6 36
6 37
5 38
4 39
3 40
3 41
2 42
2 43
2 44
2 45
2 46
2 47
2 48
2 49
3 50
4 51
5 52
5 53
6 54
7 55
8 56
9 56
10 57
11 57
12 58
13 58
14 58
15 59
16 59
17 59
18 59
19 60
20 60
21 61
22 61
23 62
24 63
25 63
26 63
27 64
28 64
29 64
30 64
31 65
32 65
33 65
34 65
35 65
36 66
37 66
38 66
39 66
40 66
41 66
42 66
43 66
44 66
45 66
46 66
47 66
48 66
49 66
50 66
51 66
52 66
53 66
54 66
55 66
56 66
57 67
58 68
59 69
60 69
61 70
62 71
63 72
63 73
64 74
65 74
66 74
67 73
68 73
69 73
70 73
71 74
72 74
73 74
74 74
75 75
76 75
77 75
78 75
79 75
80 75
81 76
82 76
83 76
84 76
85 76
86 76
87 76
88 76
89 76
90 76
91 76
92 76
93 76
94 75
95 75
96 74
96 73
95 72
94 71
93 70
92 69
93 68
94 68
95 68
96 68
97 68
98 68
99 68
100 68
101 68
102 68
103 68
104 68
105 68
106 68
107 68
108 68
109 69
110 69
111 69
112 69
113 69
114 69
115 68
116 69
117 69
118 70
119 70
119 69
120 68
121 68
122 69
123 70
123 71
124 72
124 73
125 74
126 75
127 76
128 77
129 77
130 78
131 78
132 78
133 78
134 79
135 79
136 79
137 79
138 79
139 79
140 79
141 80
142 80
143 80
144 80
145 80
146 80
147 80
148 80
149 80
150 80
151 80
152 80
153 79
154 79
155 79
156 79
157 79
158 79
159 79
160 79
161 79
162 79
163 79
164 79
165 79
166 78
167 78
168 78
169 78
170 78
171 77
172 77
173 77
174 77
175 76
176 76
177 76
178 76
179 76
180 75
181 75
182 75
183 74
184 74
185 73
185 72
186 71
186 70
187 69
187 68
188 67
188 66
187 66
186 65
185 64
184 63
185 62
186 62
187 62
188 62
189 62
190 61
191 61
192 61
193 61
194 61
195 61
196 61
197 61
198 61
199 61
200 61
201 61
202 61
203 61
204 61
205 61
206 62
207 62
208 62
209 63
210 63
211 64
212 64
213 64
214 64
215 64
216 64
217 64
218 65
219 65
220 65
221 65
222 65
223 65
224 65
225 65
226 65
227 65
228 65
229 65
230 65
231 65
232 65
233 65
234 65
235 65
236 64
237 64
238 63
239 62
240 61
241 61
242 60
243 59
244 58
245 58
246 57
247 56
248 55
249 54
250 53
250 52
251 51
252 50
252 49
253 48
253 47
253 46
253 45
254 44
254 43
254 42
254 41
254 40
254 39
254 38
254 37
254 36
254 35
254 34
253 34
252 33
253 32
253 31
252 31
251 30
250 29
251 28
250 28
249 27
250 26
249 26
248 25
247 24
246 23
245 23
244 22
243 22
242 22
241 21
240 21
239 21
238 21
237 21
236 21
235 21
234 21
233 21
232 21
231 21
230 21
229 22
228 22
227 22
226 22
225 22
224 23
223 23
222 23
221 24
220 24
219 25
218 25
217 26
216 26
215 26
214 27
213 28
212 29
211 29
210 29
209 30
208 30
207 30
206 31
205 31
204 31
203 32
202 32
201 32
200 33
199 33
198 33
197 33
196 33
195 32
195 31
196 30
196 29
196 28
197 27
197 26
196 26
195 25
196 24
196 23
195 23
194 22
193 21
192 20
191 20
190 19
191 18
190 18
189 18
188 17
187 17
186 17
185 17
184 16
183 16
182 16
181 15
180 15
179 14
178 14
177 14
176 14
175 13
174 13
173 13
172 13
171 12
170 12
169 12
168 12
167 11
166 11
165 11
164 11
163 10
162 9
161 9
160 8
159 8
158 8
157 8
156 8
155 7
154 7
153 7
152 7
151 7
150 7
149 6
148 6
147 6
146 6
145 6
144 6
143 6
142 6
141 6
140 6
139 6
138 6
137 6
136 6
135 6
134 6
133 6
132 6
131 6
130 6
129 7
128 7
127 7
126 8
125 8
124 8
123 9
122 10
121 11
120 11
120 12
119 13
118 14
117 15
116 16
116 17
116 18
115 19
115 20
114 21
113 22
113 23
112 24
112 25
111 26
110 25
109 24
110 23
110 22
110 21
110 20
111 19
111 18
111 17
112 16
112 15
111 15
110 14
111 13
111 12
111 11
111 10
111 9
110 9
109 8
108 8
107 8
106 7
105 7
104 6
103 5
102 5
101 5
100 5
99 4
98 4
97 4
96 4
95 4
94 4
93 3
92 3
91 3
90 3
89 3
88 2
87 2
