85 2
84 3
83 3
82 3
81 3
80 4
79 4
78 5
77 5
76 6
75 6
74 7
73 7
72 8
71 9
70 10
69 11
68 11
67 11
66 11
65 11
64 11
63 10
62 10
61 10
60 10
59 10
58 10
57 10
56 10
55 10
54 10
53 10
52 10
51 9
50 9
49 9
48 9
47 9
46 9
45 9
44 9
43 9
42 9
41 9
40 9
39 9
38 9
37 9
36 10
35 10
34 10
33 10
32 10
31 10
30 10
29 10
28 10
27 11
26 11
25 11
24 11
23 11
22 11
21 11
20 11
19 11
18 11
17 11
16 12
15 12
14 12
13 13
12 13
11 14
10 14
9 15
8 15
7 16
6 17
5 18
4 19
3 20
3 21
2 22
2 23
2 24
2 25
2 26
2 27
2 28
2 29
2 30
2 31
3 32
4 33
5 33
6 34
7 34
8 35
9 35
10 36
10 37
11 37
12 37
13 37
14 38
15 38
16 39
17 39
18 39
19 40
20 40
21 41
22 41
23 41
24 42
25 42
26 42
27 43
28 43
29 43
30 44
31 44
32 45
33 45
34 46
35 46
36 46
37 46
38 46
39 46
40 47
41 47
42 47
43 47
44 47
45 47
46 48
47 48
48 48
49 49
50 49
51 49
52 50
53 50
54 50
55 50
56 51
57 51
58 51
59 51
60 51
61 51
62 51
63 51
64 51
65 51
66 51
67 51
68 51
69 51
70 51
71 51
72 51
73 51
74 51
75 51
76 51
77 51
78 51
79 51
80 51
81 51
82 51
83 51
84 51
85 51
86 51
87 51
88 52
89 52
90 52
91 51
91 50
92 49
93 49
94 49
95 49
96 49
97 49
98 49
99 49
100 49
101 49
102 49
103 49
104 49
105 49
106 49
107 49
108 49
109 49
110 49
111 49
112 49
113 49
114 49
115 49
116 50
117 50
118 50
119 50
120 51
121 51
122 51
123 51
124 51
125 51
126 52
127 52
128 52
129 52
130 52
131 52
132 52
133 52
134 52
135 52
136 52
137 52
138 52
139 52
140 52
141 52
142 52
143 52
144 51
145 51
146 51
147 51
148 51
149 51
150 51
151 51
152 51
153 51
154 50
155 50
156 50
157 50
158 50
159 50
160 50
161 49
162 49
163 49
164 49
165 49
166 48
167 48
168 48
169 48
170 48
171 48
172 48
173 47
174 47
175 47
176 47
177 47
178 47
179 46
180 46
181 46
182 46
183 46
184 46
185 45
186 45
187 44
188 44
189 43
190 43
191 43
192 42
193 41
193 40
192 39
193 38
194 38
195 38
196 38
197 39
198 39
199 39
200 39
201 39
202 39
203 39
204 39
205 39
206 39
207 39
208 39
209 38
210 38
211 38
212 38
213 38
214 38
215 38
216 38
217 38
218 37
219 37
220 37
221 37
222 37
223 36
224 36
225 35
226 35
227 34
228 34
229 34
230 33
231 33
232 32
233 32
234 31
235 31
236 30
237 29
238 29
239 28
239 27
240 26
240 25
241 24
241 23
242 22
242 21
242 20
243 19
243 18
243 17
243 16
242 16
241 15
242 14
242 13
241 13
240 12
239 11
238 10
237 9
236 8
237 7
236 7
235 7
234 6
233 6
232 6
231 6
230 6
229 6
228 6
227 5
226 5
225 5
224 5
223 5
222 5
221 6
220 6
219 6
218 6
217 6
216 6
215 6
214 6
213 6
212 6
211 7
210 7
209 7
208 7
207 7
206 7
205 7
204 8
203 8
202 8
201 9
200 9
199 9
198 10
197 10
196 10
195 11
194 11
193 11
192 11
191 11
190 10
191 9
190 9
189 8
188 7
187 7
186 7
185 7
184 6
183 6
182 6
181 6
180 6
179 6
178 6
177 6
176 5
175 5
174 5
173 5
172 5
171 5
170 5
169 5
168 5
167 5
166 4
165 4
164 4
163 4
162 4
161 4
160 4
159 4
158 4
157 4
156 4
155 4
154 4
153 3
152 3
151 3
150 3
149 3
148 3
147 3
146 3
145 3
144 3
143 3
142 3
141 3
140 3
139 3
138 3
137 3
136 3
135 3
134 3
133 3
132 3
131 3
130 3
129 3
128 3
127 3
126 3
125 4
124 4
123 4
122 4
121 4
120 4
119 5
118 5
117 5
116 6
115 6
114 6
113 7
112 8
111 9
110 10
109 10
108 11
107 12
106 12
105 11
106 10
106 9
106 8
106 7
106 6
105 6
104 5
103 4
102 4
101 3
100 3
99 2
98 2
97 2
96 2
95 2
94 2
93 2
92 2
91 2
90 2
89 2
88 2
87 2
86 2
