109 2
108 3
107 4
106 5
105 5
104 6
103 6
102 7
101 7
100 7
99 8
98 7
98 6
98 5
97 4
96 5
95 5
94 6
93 7
92 8
92 9
91 10
90 10
90 11
89 12
89 13
88 14
87 15
86 16
85 17
85 18
84 19
84 20
83 21
83 22
82 23
82 24
82 25
81 26
81 27
81 28
81 29
80 30
79 31
78 31
77 31
76 31
75 31
74 31
73 30
72 31
71 31
70 31
69 30
68 31
67 31
66 31
65 30
64 30
63 30
62 31
61 31
60 31
59 31
58 30
57 30
56 30
55 31
54 31
53 31
52 31
51 31
50 31
49 31
48 31
47 32
46 32
45 32
44 32
43 32
42 32
41 32
40 32
39 32
38 32
37 32
36 33
35 33
34 32
33 32
32 32
31 32
30 32
29 32
28 32
27 32
26 32
25 33
24 33
23 34
22 34
21 34
20 35
19 35
18 35
17 36
16 36
15 37
14 37
13 38
13 39
12 40
11 41
10 42
9 43
8 44
7 44
6 45
5 46
5 47
4 48
4 49
4 50
4 51
4 52
3 53
3 54
2 55
2 56
2 57
2 58
3 59
3 60
4 61
5 61
6 62
6 63
7 64
8 65
8 66
9 67
10 68
11 68
12 69
13 69
14 70
15 70
16 70
17 71
18 71
19 71
20 71
21 72
22 72
23 72
24 72
25 72
26 73
27 73
28 73
29 73
30 74
31 74
32 74
33 74
34 74
35 74
36 74
37 74
38 74
39 74
40 74
41 74
42 74
43 75
44 75
45 75
46 76
47 76
48 76
49 76
50 77
51 77
52 77
53 77
54 77
55 78
56 78
57 78
58 78
59 78
60 78
61 78
62 78
63 78
64 78
65 78
66 78
67 78
68 78
69 79
70 80
71 81
72 82
72 83
72 84
73 85
74 85
75 86
76 86
77 85
78 85
79 85
80 85
81 85
82 85
83 85
84 86
85 86
86 86
87 86
88 86
89 86
90 86
91 86
92 86
93 86
94 86
95 86
96 86
97 86
98 86
99 86
100 86
101 86
102 86
103 86
104 86
105 86
106 86
107 86
108 86
109 86
110 86
111 86
112 86
113 86
114 86
115 86
116 86
117 85
118 85
119 85
120 85
121 85
122 84
123 83
124 83
125 82
125 81
126 80
127 79
128 79
129 79
130 78
131 78
132 78
133 78
134 78
135 78
136 78
137 78
138 79
139 79
140 79
141 79
142 79
143 80
144 81
145 82
146 83
147 84
148 85
149 85
150 86
151 86
152 87
153 87
154 87
155 88
156 88
157 88
158 89
159 89
160 89
161 89
162 89
163 89
164 89
165 89
166 89
167 89
168 89
169 89
170 89
171 89
172 89
173 89
174 89
175 89
176 88
177 88
178 88
179 88
180 88
181 87
182 87
183 87
184 87
185 87
186 86
187 86
188 86
189 86
190 86
191 86
192 86
193 86
194 86
195 86
196 86
197 86
198 86
199 86
200 86
201 86
202 86
203 86
204 86
205 86
206 85
207 85
208 85
209 85
210 85
211 85
212 85
213 84
214 84
215 83
216 83
217 82
218 82
219 82
220 82
221 81
222 81
223 81
224 81
225 81
226 80
227 80
228 80
229 79
230 79
231 78
231 77
232 76
232 75
232 74
232 73
233 72
234 73
235 73
236 73
237 74
238 74
239 75
240 76
241 76
242 76
243 77
244 77
245 77
246 78
247 78
248 78
249 79
250 79
251 79
252 80
253 80
254 80
255 81
256 81
257 81
258 81
259 81
260 81
261 81
262 81
263 81
264 81
265 81
266 81
267 81
268 81
269 81
270 81
271 81
272 81
273 81
274 81
275 80
276 80
277 80
278 80
279 79
280 79
281 78
282 78
283 78
284 78
285 77
286 77
287 76
288 75
288 74
289 73
290 72
291 71
291 70
292 69
293 68
293 67
294 66
294 65
295 64
295 63
295 62
295 61
295 60
295 59
295 58
295 57
295 56
295 55
294 55
293 54
294 53
294 52
294 51
294 50
293 50
292 49
293 48
293 47
292 47
291 46
292 45
291 45
290 44
289 43
288 42
287 41
286 40
287 39
286 39
285 38
284 37
283 36
282 36
281 35
280 35
279 34
278 34
277 34
276 33
275 33
274 33
273 33
272 32
271 32
270 32
269 32
268 32
267 32
266 32
265 32
264 32
263 32
262 32
261 32
260 32
259 32
258 32
257 33
256 33
255 33
254 33
253 34
252 34
251 34
250 34
249 35
248 35
247 35
246 36
245 36
244 37
243 37
242 37
241 38
240 38
239 38
238 37
239 36
239 35
240 34
240 33
240 32
240 31
240 30
240 29
240 28
240 27
239 27
238 26
239 25
238 25
237 24
236 23
235 22
234 21
235 20
234 20
233 19
232 18
231 17
230 17
229 16
228 16
227 15
226 15
225 14
224 14
223 14
222 13
221 12
220 12
219 11
218 11
217 11
216 11
215 10
214 10
213 10
212 9
211 9
210 9
209 8
208 8
207 8
206 8
205 8
204 8
203 8
202 8
201 8
200 7
199 7
198 7
197 7
196 7
195 7
194 7
193 7
192 7
191 6
190 6
189 6
188 6
187 7
186 7
185 7
184 6
183 6
182 6
181 6
180 6
179 6
178 6
177 6
176 6
175 6
174 6
173 6
172 6
171 6
170 6
169 6
168 5
167 5
166 5
165 5
164 5
163 5
162 5
161 5
160 6
159 6
158 6
157 6
156 6
155 6
154 6
153 6
152 6
151 7
150 7
149 7
148 8
147 8
146 9
145 9
144 10
143 11
142 12
141 13
140 14
139 15
138 16
138 17
137 18
136 19
135 20
135 21
134 22
133 23
132 24
131 24
130 24
129 23
130 22
130 21
130 20
131 19
131 18
130 18
129 18
128 19
127 19
126 19
125 19
124 19
123 19
122 18
122 17
123 16
123 15
122 15
121 15
120 15
119 16
118 16
117 16
116 15
116 14
117 13
117 12
118 11
118 10
119 9
118 9
117 9
116 9
115 9
114 9
113 9
112 9
111 9
110 8
111 7
111 6
111 5
111 4
112 3
112 2
111 2
110 2
