69 4
68 5
67 6
66 7
65 7
64 6
63 5
62 5
61 6
60 7
59 7
58 8
57 9
56 9
55 10
54 11
53 11
52 11
51 12
51 13
50 14
49 14
48 15
47 15
46 16
45 16
44 16
43 16
42 17
41 18
40 18
39 18
38 18
37 19
36 19
35 20
34 21
33 21
32 22
31 22
30 22
29 22
28 23
27 23
26 23
25 23
24 24
23 25
22 25
21 26
20 27
19 28
18 28
17 29
16 30
15 31
14 31
13 32
13 33
12 34
11 35
10 36
9 36
8 37
7 37
7 38
6 39
5 40
4 40
3 41
2 42
2 43
2 44
2 45
2 46
2 47
2 48
3 48
4 49
4 50
3 51
2 51
2 52
2 53
2 54
2 55
2 56
3 57
4 58
5 58
6 58
7 58
8 58
9 58
10 58
11 59
11 60
12 60
13 60
14 61
15 62
16 62
17 62
18 63
19 63
20 64
21 64
22 65
23 65
24 65
25 66
26 66
27 67
28 67
29 67
30 67
31 67
32 67
33 67
34 67
35 67
36 68
37 68
38 68
39 68
40 68
41 69
42 69
43 69
44 69
45 69
46 69
47 69
48 69
49 69
50 69
51 69
52 69
53 69
54 70
55 70
56 70
57 70
58 70
59 70
60 70
61 70
62 70
63 70
64 69
65 70
66 70
67 71
68 72
69 72
70 72
71 72
72 72
73 72
74 72
75 72
76 72
77 72
78 72
79 72
80 72
81 72
82 72
83 72
84 72
85 72
86 72
87 72
88 72
89 71
89 70
90 69
91 69
92 68
92 67
93 66
94 65
95 65
96 65
97 65
98 65
99 65
100 65
101 65
102 65
103 65
104 65
105 65
106 65
107 65
108 65
109 65
110 66
111 66
112 67
113 67
114 67
115 67
116 67
117 67
118 67
119 67
120 67
121 67
122 67
123 67
124 67
125 67
126 67
127 67
128 66
129 65
130 65
131 65
132 64
133 63
133 62
134 61
135 60
135 59
136 58
137 57
138 56
138 55
139 54
140 53
141 53
142 53
143 52
144 51
145 51
146 51
147 51
148 51
149 51
150 51
151 51
152 52
153 52
154 52
155 53
156 53
157 53
158 53
159 53
160 53
161 53
162 53
163 53
164 54
165 54
166 54
167 54
168 54
169 54
170 54
171 54
172 55
173 55
174 55
175 55
176 55
177 55
178 55
179 54
180 54
181 54
182 54
183 54
184 53
185 52
185 51
186 50
185 50
184 49
183 49
182 49
181 49
180 48
181 47
181 46
182 45
182 44
182 43
182 42
182 41
182 40
182 39
182 38
182 37
182 36
182 35
181 35
180 34
179 34
178 34
177 34
176 34
175 34
174 33
175 32
176 31
177 31
178 31
179 31
180 31
181 30
181 29
182 28
182 27
181 27
180 26
179 26
178 25
179 24
180 23
181 23
182 22
182 21
181 20
180 20
179 20
178 20
177 20
176 20
175 20
175 21
174 22
173 21
172 21
171 21
170 21
169 21
168 21
167 21
166 21
165 22
164 22
163 23
162 23
161 24
160 25
159 25
158 25
157 26
156 26
155 27
154 27
153 28
152 28
151 27
152 26
151 26
150 25
149 25
148 24
147 23
146 23
145 22
144 21
143 21
142 20
141 20
140 19
139 18
138 18
137 18
136 17
135 16
134 16
133 16
132 15
131 14
130 14
129 14
128 13
127 12
126 11
125 11
124 11
123 11
122 12
121 12
120 13
119 14
118 14
117 14
116 13
117 12
116 12
115 11
114 11
113 11
112 11
111 11
110 11
109 10
108 9
107 9
106 9
105 8
104 8
103 7
102 7
101 7
100 8
99 9
98 8
97 7
96 7
95 7
94 8
93 7
92 7
91 7
90 7
89 7
88 7
87 7
86 7
85 6
84 5
83 5
82 5
81 4
80 4
79 4
78 4
77 4
76 5
75 6
74 5
73 5
72 4
71 4
70 4
