178 2
178 3
178 4
177 5
176 6
175 6
175 7
174 8
173 8
172 9
172 10
171 11
170 11
169 12
169 13
168 14
167 14
166 15
165 16
164 17
164 18
163 19
162 19
161 20
160 21
159 22
158 22
157 23
156 24
155 25
154 25
153 25
152 25
151 25
150 25
149 25
148 26
147 25
146 25
145 24
146 23
147 23
148 22
148 21
149 20
149 19
149 18
149 17
149 16
150 15
150 14
151 13
151 12
151 11
151 10
151 9
150 9
149 8
148 8
147 8
146 9
145 9
144 9
143 9
142 9
141 9
140 9
139 9
138 9
137 9
136 10
135 10
134 11
133 12
133 13
133 14
132 15
131 15
130 15
129 15
128 16
127 16
126 17
125 18
124 18
123 18
122 19
121 20
120 20
119 21
118 22
117 23
116 24
115 24
114 25
113 26
112 26
111 27
110 27
109 27
108 27
107 27
106 27
105 27
104 27
103 27
102 27
101 27
100 27
99 27
98 27
97 27
96 27
95 27
94 27
93 27
92 27
91 27
90 26
89 25
88 25
87 25
86 25
85 25
84 25
84 26
83 27
82 27
81 27
80 27
79 26
78 26
77 26
76 26
75 25
74 24
73 24
72 24
71 23
70 23
69 23
68 23
67 23
66 23
65 22
64 22
63 22
62 22
61 22
60 22
59 22
58 22
57 22
56 22
55 22
54 22
53 22
52 22
51 22
50 22
49 22
48 23
47 22
46 22
45 22
44 22
43 22
42 23
41 23
40 23
39 23
38 23
37 23
36 23
35 23
34 23
33 24
32 23
31 23
30 23
29 23
28 23
27 23
26 23
25 23
24 23
23 23
22 23
21 23
20 23
19 23
18 23
17 23
16 23
15 23
14 23
13 24
12 24
11 24
10 24
10 25
10 26
10 27
11 28
11 29
11 30
11 31
11 32
11 33
11 34
11 35
11 36
11 37
12 38
12 39
12 40
12 41
12 42
12 43
12 44
11 45
11 46
10 47
9 48
9 49
8 50
8 51
7 52
6 53
5 53
5 54
5 55
4 56
4 57
3 58
3 59
2 60
2 61
2 62
2 63
3 64
3 65
3 66
4 66
5 66
6 66
7 66
8 66
9 66
10 67
11 67
12 67
13 67
14 68
15 68
16 68
17 69
18 69
19 69
20 69
21 70
22 70
23 70
24 70
25 71
26 71
27 72
28 73
29 74
30 75
31 76
31 77
32 78
33 79
34 80
35 81
36 81
37 82
37 83
38 83
39 83
40 83
41 83
42 83
43 83
44 84
45 84
46 84
47 84
48 83
49 83
50 83
51 83
52 83
53 84
54 84
55 84
56 84
57 84
58 84
59 85
60 85
61 85
62 85
63 85
64 85
65 85
66 86
66 87
65 88
65 89
64 90
64 91
64 92
64 93
64 94
65 94
66 94
67 94
68 94
69 93
70 93
71 93
72 93
73 93
74 92
74 91
75 90
76 90
77 90
78 90
79 90
80 90
81 90
82 90
83 90
84 90
85 91
85 92
85 93
86 94
86 95
86 96
86 97
86 98
86 99
86 100
86 101
86 102
86 103
86 104
87 104
88 105
88 106
88 107
88 108
88 109
89 109
90 109
91 110
91 111
91 112
92 113
93 114
93 115
94 116
94 117
95 117
96 117
97 117
98 116
98 115
99 114
99 113
99 112
99 111
98 111
97 110
98 109
98 108
98 107
98 106
98 105
99 104
98 104
97 103
97 102
98 101
98 100
99 99
99 98
99 97
99 96
99 95
99 94
98 94
97 93
96 92
97 91
96 91
95 90
94 89
95 88
96 87
97 88
98 88
99 88
100 89
101 89
102 90
103 90
104 90
105 90
106 91
107 91
108 91
109 91
110 91
111 91
112 92
113 92
114 92
115 92
116 92
117 93
118 93
119 93
120 93
121 93
122 92
122 91
123 90
123 89
122 89
121 88
120 88
119 87
120 86
121 86
122 86
123 86
124 86
125 86
126 86
127 85
128 85
129 85
130 84
131 84
132 84
133 84
134 84
135 84
136 84
137 83
138 83
139 83
140 83
141 83
142 82
143 81
144 81
145 81
146 81
147 81
148 80
149 80
150 80
151 79
152 79
153 79
154 79
155 79
156 79
157 79
158 79
159 79
160 78
161 78
162 78
163 78
164 79
165 79
166 80
167 80
168 81
169 82
170 82
171 83
172 84
173 84
174 85
175 86
176 86
177 87
178 87
179 87
180 88
180 89
180 90
181 90
182 90
183 91
184 91
185 91
186 92
187 92
188 92
189 92
190 92
191 92
192 92
193 92
194 92
195 92
196 91
197 91
198 91
199 90
200 90
201 89
202 88
203 87
204 86
205 86
206 85
206 84
207 83
207 82
208 81
209 80
209 79
210 78
211 77
212 76
212 75
213 74
213 73
214 72
214 71
215 70
215 69
215 68
215 67
216 66
217 66
218 66
219 65
220 65
221 65
222 65
223 65
224 65
225 65
226 65
227 65
228 65
229 65
230 65
231 64
232 64
233 65
233 66
233 67
233 68
234 68
235 68
236 68
237 68
238 68
239 69
240 69
241 70
242 71
243 71
244 72
245 73
246 74
247 75
248 76
249 77
250 78
251 78
252 79
252 80
253 81
254 81
255 82
256 82
257 82
258 82
259 82
260 82
261 82
262 82
263 82
264 81
265 80
266 79
267 78
267 77
268 76
269 75
270 75
271 74
272 73
273 72
274 72
275 71
276 71
277 70
278 69
278 68
279 67
280 66
281 65
282 64
282 63
283 62
284 61
284 60
285 59
286 58
286 57
287 56
288 56
289 56
290 56
291 55
292 54
293 54
294 54
295 54
296 54
297 54
298 54
299 55
300 55
301 56
302 56
303 56
304 57
305 57
306 57
307 58
308 58
309 59
310 59
311 60
312 60
313 61
314 61
315 61
316 62
317 63
318 63
319 64
320 64
321 64
322 65
323 65
324 65
325 66
326 67
327 67
328 68
329 68
330 68
331 69
332 69
333 70
334 70
335 71
336 71
337 71
338 72
339 72
340 72
341 73
342 73
343 73
344 73
345 74
346 74
347 74
348 74
349 74
350 74
351 73
351 72
352 71
352 70
353 69
353 68
354 67
354 66
353 66
352 65
351 64
352 63
352 62
352 61
352 60
351 60
350 59
351 58
351 57
351 56
351 55
351 54
351 53
351 52
351 51
351 50
351 49
351 48
351 47
350 46
350 45
351 44
351 43
351 42
351 41
351 40
351 39
351 38
350 38
349 37
348 36
349 35
350 34
350 33
351 32
351 31
351 30
351 29
351 28
352 27
352 26
353 25
353 24
353 23
353 22
352 22
351 21
352 20
352 19
351 19
350 18
351 17
351 16
351 15
351 14
350 14
349 13
348 13
347 14
346 14
345 14
344 14
343 14
342 14
341 15
340 15
339 16
338 17
337 17
336 18
335 18
334 19
333 19
333 20
332 21
331 21
330 21
329 22
328 23
327 23
326 24
325 25
324 26
323 26
322 27
321 27
320 28
319 28
318 29
317 29
316 30
315 30
314 31
313 31
312 31
311 32
310 32
309 33
308 33
307 33
306 34
305 35
304 35
303 35
302 36
301 36
300 37
299 37
298 37
297 37
296 38
295 38
294 38
293 38
292 38
291 38
290 38
289 38
288 38
287 38
286 38
285 37
286 36
285 36
284 35
283 35
282 34
283 33
282 33
281 32
280 31
279 30
278 29
277 28
278 27
277 27
276 26
275 26
274 25
275 24
274 24
273 23
272 22
271 21
270 21
269 20
270 19
270 18
270 17
269 17
268 16
267 16
266 15
267 14
266 14
265 13
264 13
263 13
262 13
261 13
260 14
259 14
258 14
257 14
256 15
255 16
254 17
253 17
252 18
251 19
250 19
249 20
248 21
247 21
246 22
245 22
244 23
243 23
242 24
241 24
240 24
239 25
238 25
237 26
236 26
235 26
234 27
233 28
232 28
231 28
230 29
229 29
228 29
227 29
226 29
225 29
224 29
223 29
222 29
221 29
220 29
219 29
218 29
217 29
216 29
215 29
214 29
213 29
212 28
213 27
213 26
212 26
211 25
210 24
209 23
210 22
209 22
208 21
209 20
208 20
207 19
208 18
207 18
206 17
205 16
204 15
205 14
204 14
203 13
204 12
203 12
202 11
201 11
200 10
199 9
198 8
197 8
196 7
197 6
196 6
195 5
194 5
193 5
192 4
191 4
190 4
189 3
188 2
187 2
186 2
185 2
184 2
183 2
182 2
181 2
180 2
179 2
