90 2
89 3
88 3
87 4
86 4
85 5
84 5
83 4
82 5
81 6
81 7
80 8
79 8
78 9
78 10
77 11
76 12
75 13
74 14
74 15
73 16
73 17
72 18
72 19
71 20
71 21
70 22
69 23
68 23
67 23
66 23
65 23
64 23
63 23
62 23
61 23
60 23
59 24
58 24
57 24
56 24
55 24
54 24
53 25
52 25
51 25
50 25
49 25
48 25
47 26
46 26
45 26
44 26
43 26
42 26
41 27
40 27
39 27
38 27
37 27
36 28
35 28
34 28
33 28
32 29
31 29
30 30
29 30
28 30
27 31
26 31
25 31
24 32
23 32
22 33
21 33
20 33
19 33
18 33
17 34
16 35
15 35
14 36
13 36
12 37
11 38
10 38
9 39
8 40
7 41
6 42
5 43
5 44
4 45
4 46
3 47
2 48
2 49
2 50
2 51
2 52
2 53
2 54
2 55
3 56
3 57
4 58
5 58
6 59
7 60
8 61
9 61
10 62
11 62
12 62
13 63
14 63
15 63
16 64
17 64
18 64
19 65
20 65
21 65
22 66
23 66
24 66
25 66
26 66
27 67
28 67
29 67
30 67
31 67
32 67
33 67
34 67
35 67
36 67
37 67
38 67
39 67
40 67
41 68
42 67
43 67
44 67
45 67
46 68
47 68
48 68
49 68
50 68
51 68
52 68
53 68
54 68
55 68
56 68
57 68
58 68
59 68
60 69
61 69
62 70
63 71
64 72
65 73
66 74
67 75
68 75
69 76
70 76
71 76
72 75
73 75
74 75
75 75
76 75
77 75
78 74
79 74
80 74
81 74
82 74
83 73
84 73
85 73
86 73
87 72
88 72
89 72
90 72
91 72
92 72
93 72
94 72
95 72
96 71
97 71
98 71
99 71
100 71
101 71
102 71
103 71
104 71
104 70
104 69
103 69
102 68
103 67
104 67
105 67
106 67
107 67
108 67
109 67
110 67
111 68
112 68
113 68
114 68
115 68
116 69
117 69
118 69
119 69
120 69
121 69
122 70
123 70
124 71
125 71
126 71
127 72
128 72
129 72
130 72
131 72
132 72
133 73
134 73
135 73
136 73
137 73
138 73
139 74
140 74
141 74
142 74
143 74
144 75
145 75
146 75
147 75
148 75
149 74
150 74
151 74
152 74
153 74
154 73
155 73
156 73
157 72
158 72
159 72
160 71
161 71
162 71
163 71
164 70
165 70
166 70
167 69
168 69
169 68
170 68
171 67
172 67
173 67
174 66
175 66
176 66
177 65
178 65
179 65
180 65
181 64
182 64
183 64
184 63
185 63
186 62
187 62
187 61
188 60
188 59
187 59
186 58
187 57
188 57
189 57
190 57
191 57
192 57
193 58
194 58
195 58
196 58
197 59
198 59
199 59
200 60
201 60
202 60
203 61
204 61
205 61
206 61
207 61
208 61
209 61
210 61
211 61
212 61
213 61
214 61
215 61
216 61
217 61
218 61
219 61
220 60
221 60
222 59
223 59
224 59
225 58
226 58
227 58
228 57
229 57
230 56
231 55
232 55
233 54
234 53
235 52
236 51
236 50
237 49
237 48
238 47
239 46
239 45
240 44
240 43
239 43
238 42
239 41
239 40
239 39
238 39
237 38
238 37
238 36
237 36
236 35
235 34
236 33
235 33
234 32
233 31
232 31
231 30
230 30
229 29
228 29
227 28
226 28
225 28
224 27
223 27
222 27
221 27
220 27
219 27
218 27
217 27
216 27
215 27
214 27
213 27
212 27
211 27
210 27
209 27
208 28
207 28
206 28
205 28
204 28
203 29
202 29
201 29
200 29
199 30
198 30
197 30
196 31
195 31
194 31
193 32
192 32
191 32
190 33
189 33
188 34
187 34
186 35
185 35
184 35
183 34
184 33
184 32
185 31
184 31
183 30
182 29
181 29
180 28
179 28
178 27
177 27
176 27
175 26
174 26
173 26
172 26
171 25
170 25
169 24
168 24
167 24
166 23
165 23
164 23
163 23
162 23
161 23
160 22
159 22
158 22
157 21
156 21
155 21
154 21
153 20
152 20
151 20
150 20
149 19
148 19
147 19
146 19
145 19
144 18
143 18
142 18
141 18
140 18
139 18
138 18
137 17
136 17
135 17
134 18
133 18
132 18
131 18
130 18
129 19
128 19
127 19
126 20
125 20
124 21
123 21
122 22
121 22
120 23
119 23
118 24
118 25
117 26
116 26
115 27
114 28
113 28
112 29
111 29
110 29
109 28
108 28
107 27
106 26
107 25
107 24
107 23
107 22
108 21
108 20
107 19
108 18
108 17
108 16
108 15
108 14
107 14
106 13
105 12
104 11
105 10
104 10
103 9
104 8
103 8
102 7
101 7
100 7
99 6
100 5
100 4
99 4
98 4
97 4
96 4
95 3
94 2
93 2
92 2
91 2
