91 2
90 3
89 3
88 3
87 4
86 4
85 5
84 5
83 5
82 6
81 6
80 7
80 8
79 9
78 9
77 10
76 11
75 11
74 11
73 11
72 11
71 11
70 11
69 11
68 10
67 10
66 10
65 10
64 10
63 10
62 10
61 10
60 10
59 10
58 10
57 10
56 10
55 10
54 10
53 10
52 10
51 10
50 10
49 10
48 10
47 10
46 10
45 10
44 10
43 10
42 10
41 10
40 10
39 10
38 10
37 10
36 10
35 10
34 10
33 10
32 10
31 10
30 10
29 10
28 10
27 10
26 10
25 10
24 10
23 10
22 10
21 10
20 10
19 10
18 10
17 10
16 11
15 12
14 12
13 13
12 13
11 13
10 14
9 14
8 15
7 16
6 17
5 17
4 18
4 19
4 20
4 21
5 22
6 23
5 24
4 24
3 24
2 25
2 26
2 27
2 28
2 29
3 29
4 29
5 30
6 31
7 31
8 32
9 33
10 34
11 35
12 35
13 36
14 36
15 36
16 36
17 37
18 37
19 38
20 38
21 39
22 39
23 40
24 40
25 40
26 40
27 40
28 41
29 41
30 41
31 41
32 41
33 41
34 41
35 41
36 41
37 41
38 41
39 41
40 41
41 41
42 41
43 41
44 41
45 41
46 41
47 41
48 41
49 42
50 42
51 42
52 42
53 42
54 42
55 42
56 42
57 42
58 43
59 43
60 43
61 44
61 45
62 46
63 47
63 48
64 48
65 49
66 48
67 48
68 48
69 48
70 48
71 48
72 48
73 48
74 48
75 48
76 48
77 48
78 48
79 48
80 48
81 48
82 48
83 48
84 48
85 48
86 48
87 48
88 48
89 48
90 48
91 48
92 48
93 48
94 48
95 48
96 48
97 48
98 48
99 48
100 48
101 48
102 48
103 48
104 48
105 48
106 47
107 47
107 46
108 45
107 45
106 45
105 44
106 43
107 42
108 43
109 43
110 43
111 43
112 43
113 43
114 43
115 42
116 42
117 43
118 43
119 44
120 44
121 45
122 45
123 46
124 46
125 47
126 47
127 47
128 47
129 48
130 48
131 48
132 48
133 48
134 49
135 49
136 49
137 49
138 49
139 49
140 49
141 49
142 48
143 48
144 48
145 48
146 48
147 48
148 48
149 47
150 47
151 47
152 47
153 46
154 46
155 46
156 46
157 45
158 45
159 44
160 44
161 44
162 43
162 42
163 41
164 40
165 40
166 39
167 39
168 39
169 39
170 39
171 39
172 39
173 39
174 39
175 39
176 38
177 38
178 38
179 38
180 38
181 38
182 38
183 38
184 38
185 38
186 38
187 38
188 38
189 38
190 38
191 38
192 38
193 38
194 38
195 38
196 38
197 38
198 38
199 39
200 39
201 39
202 39
203 39
204 39
205 39
206 40
207 40
208 40
209 40
210 40
211 40
212 41
213 41
214 41
215 41
216 41
217 41
218 41
219 41
220 41
221 41
222 41
223 41
224 41
225 40
226 40
227 40
228 40
229 40
230 39
231 39
232 39
233 38
234 38
235 37
236 36
236 35
237 34
237 33
238 32
238 31
238 30
238 29
238 28
238 27
238 26
239 25
239 24
239 23
239 22
239 21
238 21
237 20
238 19
238 18
237 18
236 17
237 16
236 16
235 15
236 14
235 14
234 14
233 13
232 12
231 12
230 11
229 11
228 11
227 11
226 11
225 11
224 11
223 10
222 10
221 10
220 10
219 11
218 11
217 11
216 11
215 11
214 12
213 12
212 12
211 12
210 13
209 13
208 13
207 14
206 14
205 14
204 15
203 15
202 15
201 15
200 16
199 17
198 17
197 18
196 18
195 18
194 19
193 19
192 19
191 19
190 20
189 20
188 20
187 20
186 20
185 20
184 20
183 20
182 20
181 20
180 20
179 20
178 20
177 21
176 21
175 21
174 21
173 21
172 21
171 21
170 21
169 21
168 21
167 21
166 21
165 21
164 21
163 21
162 21
161 21
160 21
159 21
158 20
158 19
158 18
159 17
158 17
157 16
158 15
157 15
156 14
155 13
154 13
153 13
152 12
151 12
150 12
149 11
148 11
147 11
146 10
145 10
144 9
143 9
142 9
141 8
140 8
139 7
138 7
137 7
136 7
135 7
134 7
133 8
132 8
131 9
130 9
129 9
128 9
127 9
126 9
125 9
124 10
123 10
122 11
121 11
120 11
119 12
118 13
117 13
116 14
115 14
114 15
113 15
112 15
111 15
110 14
109 14
108 14
107 14
106 14
105 13
106 12
106 11
106 10
106 9
105 9
104 8
105 7
105 6
104 6
103 5
102 5
101 4
100 3
99 3
98 2
97 2
96 2
95 2
94 2
93 2
92 2
