96 1
95 2
94 2
93 3
92 4
91 4
90 4
89 5
88 5
87 6
86 6
85 7
84 7
83 8
82 8
81 9
80 9
79 10
78 11
77 12
76 12
75 13
74 14
73 15
72 15
71 16
70 17
69 18
69 19
68 20
67 21
66 22
66 23
65 24
64 25
63 26
63 27
63 28
62 29
62 30
61 31
60 31
59 31
58 31
57 31
56 31
55 31
54 31
53 31
52 31
51 31
50 31
49 31
48 31
47 31
46 31
45 32
44 32
43 32
42 32
41 32
40 32
39 32
38 32
37 32
36 33
35 33
34 33
33 33
32 33
31 34
30 34
29 34
28 34
27 34
26 35
25 35
24 35
23 34
22 34
21 34
20 34
19 34
18 34
17 34
16 35
15 35
14 36
13 37
13 38
12 39
11 40
10 40
9 41
8 41
7 42
6 43
5 43
4 43
3 44
2 45
2 46
2 47
2 48
2 49
2 50
3 51
3 52
4 52
5 53
5 54
6 55
7 56
7 57
8 57
9 58
10 59
11 59
12 60
13 60
14 61
15 61
16 62
17 62
18 62
19 62
20 63
21 63
22 63
23 63
24 64
25 64
26 64
27 64
28 64
29 65
30 65
31 65
32 65
33 65
34 66
35 66
36 66
37 66
38 66
39 66
40 66
41 66
42 66
43 67
44 67
45 67
46 68
47 68
48 69
49 70
50 71
51 72
52 72
53 73
54 73
55 74
56 74
57 75
58 75
59 75
60 75
61 75
62 75
63 75
64 75
65 75
66 75
67 75
68 75
69 75
70 75
71 75
72 75
73 75
74 75
75 75
76 75
77 75
78 75
79 75
80 75
81 75
82 75
83 76
84 76
85 76
86 76
87 76
88 76
89 76
90 76
91 76
92 76
93 76
94 76
94 75
94 74
94 73
93 73
92 73
91 72
90 72
89 72
88 72
87 72
86 72
85 72
84 72
83 72
82 72
81 71
80 71
79 71
78 71
77 71
76 71
75 71
74 71
73 71
72 71
71 71
70 71
69 70
68 70
67 70
66 70
65 70
64 70
63 70
62 69
63 68
64 68
65 68
66 68
67 68
68 68
69 68
70 68
71 68
72 68
73 68
74 68
75 68
76 68
77 68
78 68
79 68
80 68
81 68
82 68
83 68
84 67
85 67
86 67
87 67
88 67
89 67
90 67
91 68
92 69
93 69
94 68
95 69
96 70
97 71
98 71
99 72
100 72
101 73
102 73
103 74
104 74
105 74
106 74
107 75
108 75
109 75
110 75
111 75
112 75
113 75
114 74
115 74
116 74
117 74
118 74
119 74
120 74
121 74
122 73
123 73
124 73
125 73
126 73
127 73
128 72
129 72
130 72
131 72
132 72
133 72
134 72
135 72
136 71
137 71
138 71
139 71
140 71
141 70
142 70
143 70
144 70
145 70
146 69
147 69
148 68
149 67
149 66
148 65
149 64
149 63
148 63
147 63
146 63
145 63
144 63
143 62
144 61
145 61
146 61
147 61
148 61
149 61
150 60
151 60
152 60
153 60
154 60
155 60
156 60
157 60
158 60
159 60
160 60
161 60
162 60
163 60
164 61
165 61
166 61
167 61
168 61
169 61
170 61
171 61
172 61
173 61
174 61
175 61
176 61
177 61
178 61
179 61
180 61
181 61
182 61
183 60
184 60
185 60
186 60
187 60
188 60
189 60
190 59
191 59
192 58
193 58
194 57
195 56
196 55
197 54
198 53
199 52
200 51
201 50
202 49
202 48
203 47
203 46
203 45
203 44
204 43
203 43
202 42
203 41
203 40
203 39
202 39
201 38
202 37
202 36
201 36
200 35
199 34
198 33
197 32
196 32
195 31
194 31
193 30
192 30
191 29
190 29
189 28
188 28
187 27
186 27
185 27
184 27
183 27
182 27
181 27
180 27
179 27
178 27
177 28
176 28
175 29
174 29
173 30
172 30
171 30
170 30
169 31
168 31
167 31
166 32
165 32
164 32
163 33
162 33
161 33
160 34
159 34
158 34
157 34
156 35
155 35
154 35
153 36
152 36
151 36
150 36
149 36
148 36
147 36
146 36
145 36
144 36
143 36
142 36
141 36
140 36
139 36
138 36
137 36
136 36
135 35
136 34
137 34
138 34
139 33
140 33
141 33
142 33
143 33
144 32
145 31
146 30
146 29
147 28
147 27
146 27
145 26
144 25
143 25
142 24
141 24
140 23
139 23
138 22
137 22
136 22
135 21
134 21
133 20
132 20
131 19
130 19
129 18
128 18
127 18
126 18
125 17
124 17
123 17
122 17
121 17
120 17
119 16
118 16
117 16
116 16
115 16
114 16
113 16
112 16
111 16
110 16
109 16
108 16
107 17
106 17
105 17
104 17
103 18
102 18
101 19
100 20
99 21
98 22
97 23
96 23
95 24
94 25
93 26
92 27
92 28
91 29
91 30
90 31
89 30
88 30
87 29
88 28
88 27
88 26
87 25
88 24
88 23
88 22
88 21
89 20
89 19
89 18
89 17
89 16
90 15
90 14
91 13
91 12
92 11
92 10
93 9
94 9
95 8
95 7
96 6
96 5
97 4
97 3
98 2
97 2
