86 2
85 3
84 3
83 4
82 5
81 5
81 6
80 7
80 8
80 9
79 10
78 11
78 12
77 13
77 14
76 15
76 16
76 17
76 18
75 19
75 20
74 21
74 22
74 23
73 24
72 25
71 25
70 26
69 26
68 26
67 26
66 25
65 25
64 25
63 25
62 25
61 25
60 25
59 25
58 25
57 25
56 25
55 25
54 25
53 25
52 25
51 25
50 25
49 25
48 25
47 25
46 25
45 26
44 26
43 26
42 26
41 26
40 26
39 27
38 27
37 27
36 27
35 28
34 28
33 28
32 28
31 28
30 28
29 29
28 29
27 29
26 29
25 29
24 28
23 28
22 28
21 28
20 29
19 29
18 29
17 30
16 30
15 31
14 31
13 31
12 32
11 32
10 32
9 33
8 33
7 34
6 35
5 35
4 35
3 36
3 37
2 38
2 39
2 40
2 41
3 42
3 43
4 44
5 45
5 46
6 47
7 48
8 49
8 50
9 50
10 51
11 51
12 52
13 53
14 54
15 54
16 55
17 55
18 55
19 56
20 56
21 56
22 56
23 57
24 57
25 57
26 57
27 58
28 58
29 58
30 58
31 59
32 59
33 59
34 59
35 59
36 59
37 59
38 59
39 59
40 59
41 60
42 60
43 60
44 60
45 60
46 60
47 60
48 60
49 60
50 61
51 61
52 61
53 61
54 62
55 62
56 62
57 62
58 62
59 63
59 64
60 65
60 66
60 67
61 68
61 69
62 70
63 71
64 71
65 71
66 71
67 71
68 71
69 71
70 71
71 71
72 71
73 71
74 71
75 71
76 71
77 71
78 71
79 71
80 71
81 71
82 71
83 70
84 70
85 70
86 70
87 70
88 70
89 69
90 69
91 69
92 69
93 69
94 69
95 69
96 69
97 69
98 69
99 69
100 69
101 69
101 68
102 67
102 66
101 66
100 66
99 66
98 65
97 65
96 65
95 65
94 65
93 65
92 65
91 65
90 65
89 65
88 65
87 65
86 65
85 64
84 64
83 64
82 64
81 64
80 64
79 64
78 64
77 64
76 64
75 64
74 64
73 64
72 64
71 63
72 62
73 62
74 62
75 62
76 62
77 62
78 62
79 62
80 62
81 62
82 62
83 62
84 62
85 62
86 61
87 61
88 61
89 61
90 61
91 61
92 61
93 61
94 61
95 61
96 61
97 61
98 61
99 61
100 61
101 61
102 61
103 61
104 61
105 61
106 61
107 60
108 60
109 60
110 60
111 60
112 60
113 60
114 60
115 60
116 60
117 60
118 60
119 59
120 59
121 60
122 61
123 62
124 63
125 64
126 64
127 65
128 65
129 66
130 66
131 67
132 67
133 67
134 68
135 68
136 68
137 69
138 69
139 69
140 69
141 69
142 69
143 69
144 69
145 69
146 69
147 69
148 69
149 68
150 68
151 68
152 68
153 67
154 67
155 67
156 67
157 66
158 66
159 66
160 66
161 65
162 65
163 65
164 64
165 64
166 64
167 63
168 63
169 63
170 62
171 62
172 61
173 60
174 60
175 59
175 58
174 57
173 57
172 57
171 57
170 57
169 56
168 56
167 56
166 56
165 56
164 55
165 54
166 54
167 54
168 54
169 53
170 53
171 53
172 53
173 53
174 53
175 53
176 53
177 53
178 53
179 53
180 53
181 53
182 53
183 52
184 52
185 52
186 52
187 52
188 52
189 52
190 52
191 51
192 52
193 51
194 51
195 51
196 51
197 51
198 52
199 52
200 52
201 52
202 52
203 52
204 53
205 53
206 54
207 54
208 54
209 54
210 54
211 55
212 55
213 55
214 55
215 55
216 56
217 56
218 56
219 56
220 56
221 57
222 57
223 57
224 57
225 57
226 58
227 58
228 58
229 58
230 58
231 58
232 58
233 59
234 59
235 59
236 59
237 59
238 59
239 59
240 58
241 58
242 58
243 58
243 57
244 56
244 55
245 54
245 53
245 52
244 52
243 51
244 50
244 49
244 48
244 47
244 46
244 45
243 45
242 44
243 43
243 42
243 41
243 40
243 39
243 38
244 37
244 36
244 35
244 34
244 33
244 32
245 31
245 30
245 29
245 28
244 28
243 27
244 26
244 25
244 24
243 24
242 24
241 23
240 23
239 23
238 24
237 24
236 24
235 24
234 24
233 24
232 24
231 25
230 25
229 25
228 25
227 25
226 26
225 26
224 27
223 27
222 27
221 28
220 28
219 28
218 28
217 28
216 29
215 29
214 29
213 29
212 29
211 29
210 29
209 30
208 30
207 30
206 30
205 30
204 30
203 31
202 31
201 31
200 31
199 31
198 31
197 31
196 32
195 31
194 32
193 32
192 32
191 32
190 31
189 31
188 31
187 31
186 31
185 31
184 31
183 31
182 31
181 31
180 31
179 31
178 31
177 31
176 31
175 31
174 31
173 31
172 31
171 31
170 31
169 31
168 31
167 31
166 31
165 31
164 31
163 31
162 31
161 30
162 29
163 29
164 28
165 28
166 28
167 27
168 27
169 26
170 25
171 25
172 25
173 24
174 24
175 24
176 24
177 23
178 23
179 22
179 21
180 20
180 19
179 19
178 18
177 17
178 16
177 16
176 15
175 15
174 14
173 14
172 13
171 13
170 13
169 12
168 12
167 12
166 11
165 11
164 11
163 11
162 11
161 11
160 10
159 10
158 10
157 10
156 10
155 9
154 9
153 8
152 8
151 8
150 8
149 8
148 7
147 7
146 7
145 7
144 7
143 7
142 7
141 7
140 7
139 7
138 7
137 7
136 7
135 7
134 7
133 7
132 7
131 7
130 7
129 7
128 7
127 8
126 9
125 10
124 10
123 11
122 11
121 12
121 13
120 14
119 15
119 16
118 17
118 18
117 19
117 20
116 21
116 22
116 23
116 24
115 25
115 26
115 27
114 28
113 28
112 28
111 28
110 28
109 27
108 26
109 25
109 24
109 23
109 22
109 21
109 20
109 19
109 18
109 17
109 16
109 15
109 14
109 13
109 12
108 12
107 11
108 10
107 10
106 9
105 8
106 7
105 7
104 6
103 6
102 5
101 4
100 4
99 3
98 3
97 3
96 2
95 2
94 2
93 2
92 2
91 2
90 2
89 2
88 2
87 2
