80 2
79 3
78 3
77 3
76 4
75 4
74 5
73 6
72 7
72 8
72 9
71 10
71 11
70 12
70 13
69 14
69 15
69 16
68 17
68 18
68 19
67 20
67 21
66 22
65 22
64 22
63 23
62 22
61 23
60 23
59 23
58 23
57 23
56 23
55 23
54 22
53 22
52 22
51 22
50 22
49 22
48 22
47 22
46 22
45 22
44 22
43 23
42 23
41 23
40 23
39 23
38 23
37 23
36 23
35 23
34 24
33 24
32 24
31 24
30 24
29 24
28 24
27 25
26 25
25 25
24 25
23 24
22 24
21 25
20 25
19 25
18 25
17 26
16 27
15 28
14 28
13 28
12 28
11 29
10 29
9 29
8 30
7 31
6 31
5 31
4 32
3 33
3 34
2 35
2 36
2 37
2 38
3 39
3 40
4 41
4 42
5 43
6 44
7 45
8 46
9 47
10 48
11 48
12 49
13 49
14 49
15 49
16 50
17 50
18 50
19 51
20 51
21 51
22 51
23 52
24 52
25 52
26 52
27 53
28 53
29 53
30 54
31 54
32 54
33 54
34 54
35 54
36 54
37 54
38 54
39 54
40 54
41 54
42 55
43 55
44 55
45 55
46 55
47 55
48 55
49 55
50 55
51 55
52 55
53 55
54 56
55 57
55 58
55 59
55 60
55 61
55 62
55 63
56 64
57 64
58 65
59 65
60 65
61 65
62 65
63 64
64 64
65 64
66 64
67 64
68 64
69 64
70 64
71 64
72 64
73 64
74 64
75 64
76 64
77 64
78 64
79 64
80 64
81 64
82 64
83 63
84 64
85 64
86 64
87 64
88 63
89 64
90 63
91 63
91 62
92 61
91 61
90 60
89 59
88 59
87 59
86 58
85 58
84 58
83 58
82 57
81 57
80 57
79 57
78 57
77 57
76 57
75 56
76 55
77 55
78 55
79 55
80 55
81 55
82 55
83 55
84 55
85 55
86 55
87 55
88 55
89 55
90 55
91 54
92 54
93 54
94 54
95 54
96 54
97 54
98 54
99 54
100 54
101 54
102 54
103 54
104 53
105 53
106 54
106 55
107 56
107 57
108 58
109 59
110 60
111 61
112 62
113 62
114 63
115 63
116 64
117 64
118 64
119 65
120 65
121 65
122 65
123 65
124 65
125 65
126 65
127 65
128 65
129 64
130 64
131 64
132 63
133 63
134 63
135 63
136 63
137 62
138 62
139 62
140 61
141 60
142 60
143 60
144 60
145 59
146 59
147 58
148 58
149 57
149 56
150 55
149 55
148 54
147 54
146 54
145 53
144 53
143 52
142 52
141 51
140 51
139 50
140 49
141 49
142 49
143 49
144 49
145 49
146 49
147 49
148 49
149 49
150 49
151 49
152 49
153 49
154 48
155 48
156 48
157 48
158 48
159 48
160 48
161 48
162 48
163 48
164 48
165 48
166 48
167 48
168 48
169 48
170 48
171 48
172 48
173 48
174 48
175 48
176 48
177 48
178 48
179 48
180 48
181 48
182 48
183 48
184 48
185 48
186 48
187 48
188 49
189 49
190 49
191 49
192 49
193 49
194 49
195 50
196 50
197 50
198 50
199 50
200 51
201 51
202 51
203 51
204 51
205 52
206 52
207 52
208 52
209 53
210 53
211 53
212 53
213 54
214 54
215 54
216 54
217 54
218 54
219 54
220 54
221 54
222 53
222 52
223 51
223 50
223 49
222 49
221 48
222 47
222 46
221 46
220 45
221 44
221 43
221 42
221 41
221 40
221 39
221 38
221 37
221 36
221 35
221 34
221 33
221 32
222 31
222 30
222 29
222 28
222 27
222 26
223 25
223 24
223 23
222 23
221 22
220 22
219 21
218 21
217 21
216 22
215 22
214 22
213 22
212 22
211 22
210 22
209 22
208 22
207 22
206 22
205 23
204 23
203 23
202 23
201 23
200 23
199 23
198 24
197 24
196 24
195 24
194 24
193 25
192 25
191 25
190 24
189 25
188 25
187 25
186 25
185 26
184 27
183 27
182 27
181 27
180 27
179 28
178 28
177 28
176 28
175 28
174 28
173 28
172 27
171 27
170 27
169 27
168 27
167 27
166 27
165 27
164 27
163 27
162 27
161 27
160 27
159 27
158 27
157 27
156 27
155 27
154 27
153 27
152 26
151 26
150 26
149 26
148 26
147 26
146 26
145 26
144 26
143 25
144 24
145 24
146 23
147 23
148 22
149 22
150 21
151 21
152 20
153 20
154 19
155 19
155 18
156 17
156 16
156 15
155 15
154 14
155 13
154 13
153 13
152 12
151 12
150 12
149 12
148 11
147 11
146 11
145 11
144 11
143 11
142 11
141 11
140 11
139 11
138 10
137 10
136 10
135 10
134 9
133 9
132 9
131 8
130 8
129 8
128 8
127 8
126 8
125 7
124 8
123 8
122 8
121 8
120 9
119 9
118 10
117 10
116 11
115 11
114 12
113 12
112 13
111 14
110 15
109 16
109 17
109 18
108 19
107 20
106 21
105 22
104 23
103 23
102 23
101 23
100 23
99 23
98 23
97 23
96 22
97 21
97 20
97 19
97 18
97 17
97 16
97 15
97 14
97 13
97 12
96 12
95 11
96 10
95 10
94 9
95 8
94 8
93 7
94 6
93 6
92 5
91 5
90 4
89 4
88 4
87 3
86 3
85 3
84 3
83 2
82 2
81 2
