92 2
91 3
90 3
89 4
88 4
87 5
86 5
85 6
84 6
83 7
82 8
81 8
81 9
80 10
79 11
78 12
77 13
76 13
75 14
74 15
73 14
72 14
71 14
70 14
69 14
68 14
67 14
66 14
65 14
64 14
63 14
62 14
61 14
60 14
59 14
58 14
57 14
56 15
55 15
54 15
53 15
52 15
51 15
50 15
49 15
48 15
47 15
46 15
45 15
44 16
43 16
42 16
41 16
40 16
39 16
38 16
37 16
36 16
35 17
34 17
33 17
32 17
31 17
30 18
29 18
28 19
27 20
26 20
25 20
24 19
23 19
22 20
21 20
20 20
19 21
18 21
17 22
16 22
15 23
15 24
14 25
13 25
12 26
11 27
10 28
9 29
8 29
7 30
7 31
6 32
5 32
4 32
3 33
2 34
2 35
2 36
2 37
3 38
2 39
2 40
2 41
2 42
2 43
2 44
3 44
4 45
5 45
6 45
7 46
8 47
9 47
10 48
11 48
12 48
13 49
14 49
15 49
16 49
17 49
18 50
19 50
20 50
21 50
22 50
23 51
24 51
25 51
26 51
27 51
28 52
29 52
30 52
31 52
32 52
33 52
34 52
35 52
36 52
37 52
38 52
39 52
40 52
41 52
42 52
43 52
44 52
45 52
46 52
47 52
48 52
49 53
50 53
51 54
52 54
53 55
54 55
55 55
56 55
57 55
58 56
59 56
60 56
61 57
62 57
63 58
64 58
65 59
66 59
67 60
68 60
69 60
70 60
71 60
72 60
73 60
74 60
75 60
76 60
77 61
78 61
79 61
80 61
81 61
82 61
83 61
84 61
85 61
86 61
87 61
88 61
89 61
90 61
91 60
92 60
93 60
94 60
95 59
96 59
97 59
98 58
99 58
100 58
101 58
102 58
103 58
104 58
105 58
106 57
107 57
108 57
109 57
110 57
111 57
112 57
112 56
112 55
111 55
110 54
109 53
108 52
109 51
110 51
111 50
112 50
113 50
114 50
115 50
116 50
117 50
118 50
118 49
119 48
120 49
121 50
122 50
123 51
124 51
125 52
126 52
127 52
128 52
129 52
130 52
131 52
132 53
133 53
134 53
135 54
136 54
137 54
138 54
139 54
140 54
141 53
142 53
143 52
144 52
145 52
146 52
147 51
148 51
149 50
150 50
151 50
152 49
153 49
154 49
155 48
156 48
157 47
158 47
159 46
160 46
160 45
161 44
162 44
163 44
164 44
165 44
166 44
167 44
168 44
169 44
170 44
171 44
172 44
173 44
174 44
175 44
176 44
177 44
178 44
179 44
180 44
181 44
182 44
183 44
184 44
185 44
186 44
187 44
188 45
189 45
190 45
191 46
192 46
193 47
194 47
195 47
196 48
197 48
198 48
199 48
200 49
201 49
202 49
203 49
204 49
205 50
206 50
207 50
208 50
209 51
210 51
211 51
212 51
213 51
214 51
215 52
216 52
217 52
218 52
219 52
220 52
221 52
222 52
223 52
224 52
225 52
226 52
227 51
228 51
229 51
230 51
231 50
232 50
233 49
234 48
235 48
235 47
236 46
236 45
236 44
236 43
237 42
237 41
238 40
238 39
238 38
238 37
238 36
238 35
238 34
237 33
238 32
238 31
237 31
236 30
235 29
236 28
235 28
234 27
233 26
232 26
231 25
230 25
229 25
228 25
227 25
226 24
225 24
224 24
223 24
222 24
221 24
220 24
219 24
218 24
217 24
216 24
215 24
214 24
213 24
212 25
211 25
210 25
209 25
208 25
207 25
206 25
205 25
204 25
203 25
202 25
201 25
200 25
199 26
198 26
197 26
196 26
195 26
194 26
193 26
192 27
191 27
190 27
189 27
188 28
187 28
186 28
185 28
184 29
183 29
182 28
181 28
180 28
179 28
178 28
177 27
176 27
175 27
174 27
173 27
172 27
171 26
170 26
169 26
168 26
167 26
166 26
165 25
164 25
163 25
162 25
161 25
160 25
159 24
159 23
160 22
160 21
160 20
159 20
158 19
159 18
158 18
157 17
158 16
157 16
156 16
155 15
154 14
153 13
152 12
151 12
150 11
149 11
148 10
149 9
148 9
147 8
146 8
145 7
144 7
143 6
142 6
141 6
140 5
139 5
138 5
137 5
136 5
135 5
134 5
133 5
132 5
131 5
130 5
129 5
128 5
127 6
126 6
125 7
124 8
123 9
122 10
121 11
120 12
119 13
118 14
117 15
116 16
116 17
115 18
114 18
113 17
112 17
111 17
110 17
109 17
108 16
109 15
109 14
109 13
109 12
109 11
109 10
109 9
109 8
109 7
108 7
107 7
106 6
105 5
104 4
103 4
102 4
101 3
100 3
99 3
98 3
97 2
96 2
95 2
94 2
93 2
