120 2
119 3
118 3
117 3
116 4
115 4
114 5
113 5
112 6
111 7
110 7
109 8
109 9
108 10
107 11
106 12
106 13
105 14
104 15
104 16
103 17
103 18
103 19
102 20
101 20
100 20
99 20
98 20
97 20
96 20
95 20
94 20
93 20
92 20
91 20
90 20
89 20
88 20
87 20
86 19
85 19
84 19
83 19
82 19
81 19
80 19
79 19
78 19
77 18
78 17
77 16
77 15
78 14
78 13
79 12
80 11
80 10
81 9
81 8
81 7
80 6
79 5
78 5
77 5
76 5
75 5
74 6
73 6
72 7
71 7
70 8
70 9
69 10
68 11
68 12
67 13
66 14
66 15
65 16
65 17
65 18
64 19
63 19
62 19
61 19
60 19
59 20
58 20
57 20
56 20
55 20
54 20
53 20
52 20
51 20
50 20
49 20
48 20
47 20
46 20
45 20
44 20
43 20
42 20
41 20
40 21
39 21
38 21
37 21
36 21
35 21
34 21
33 22
32 22
31 22
30 22
29 23
28 23
27 23
26 23
25 23
24 24
23 24
22 23
21 23
20 23
19 23
18 23
17 23
16 23
15 23
14 24
13 25
12 26
11 26
10 27
9 27
8 28
7 28
6 29
5 29
4 29
3 30
2 30
2 31
2 32
2 33
2 34
2 35
2 36
2 37
3 38
4 39
5 40
6 41
7 42
8 42
9 43
10 43
11 44
12 45
13 45
14 46
15 46
16 46
17 47
18 47
19 47
20 47
21 47
22 47
23 48
24 48
25 48
26 48
27 48
28 48
29 48
30 48
31 48
32 48
33 48
34 48
35 49
36 49
37 49
38 49
39 49
40 49
41 49
42 49
43 49
44 49
45 49
46 49
47 49
48 49
49 50
50 50
51 50
52 50
53 50
54 50
55 50
56 50
57 50
58 50
59 50
60 51
61 51
62 51
63 51
64 51
65 51
66 51
67 52
68 52
69 52
70 52
71 52
72 52
73 52
74 52
75 52
76 52
77 53
78 53
79 53
80 53
81 53
82 53
83 53
84 53
85 53
85 52
86 51
87 50
88 50
89 50
90 50
91 49
92 49
93 50
94 49
95 49
96 50
97 51
97 52
98 53
98 54
99 55
100 56
100 57
101 58
102 59
103 60
104 61
105 62
105 63
106 64
107 64
108 65
109 65
110 65
111 66
112 66
113 67
114 67
115 68
116 68
117 68
118 68
119 68
120 68
121 68
122 68
123 67
123 66
124 65
125 64
125 63
126 62
127 61
128 60
129 59
130 58
131 57
132 56
133 56
134 55
134 54
135 53
135 52
136 51
136 50
135 50
134 49
135 48
136 47
137 47
138 47
139 47
140 47
141 47
142 47
143 47
144 47
145 47
146 47
147 47
148 47
149 47
150 47
151 47
152 47
153 47
154 47
155 47
156 47
157 48
158 48
159 48
160 48
161 48
162 49
163 49
164 49
165 49
166 49
167 50
168 50
169 50
170 50
171 50
172 51
173 51
174 51
175 51
176 51
177 51
178 51
179 51
180 51
181 52
182 52
183 52
184 52
185 52
186 52
187 52
188 52
189 52
190 52
191 52
192 52
193 52
194 52
195 52
196 52
197 51
198 51
199 50
200 49
201 48
202 47
202 46
203 45
203 44
204 43
204 42
204 41
204 40
204 39
204 38
205 37
205 36
205 35
204 35
203 34
204 33
204 32
204 31
203 31
202 30
201 29
200 29
199 28
198 28
197 28
196 27
195 27
194 27
193 27
192 27
191 26
190 26
189 26
188 26
187 26
186 26
185 27
184 27
183 27
182 27
181 27
180 27
179 27
178 27
177 27
176 27
175 27
174 27
173 27
172 27
171 28
170 28
169 28
168 28
167 28
166 28
165 28
164 28
163 28
162 28
161 28
160 28
159 27
158 27
157 27
156 27
155 27
154 27
153 27
152 27
151 26
150 26
149 26
148 26
147 26
146 26
145 26
144 25
143 25
142 25
141 25
140 25
139 25
138 24
137 24
136 24
135 24
134 24
133 24
132 24
131 23
132 22
132 21
133 20
133 19
133 18
133 17
133 16
132 16
131 15
130 14
131 13
131 12
130 12
129 11
130 10
130 9
130 8
129 8
128 7
129 6
129 5
128 5
127 4
126 3
125 3
124 2
123 2
122 2
121 2
