228 2
228 3
228 4
227 5
226 5
225 5
224 4
223 3
222 3
221 3
220 3
220 4
220 5
220 6
220 7
221 8
221 9
221 10
221 11
221 12
221 13
220 14
219 14
218 14
218 15
218 16
218 17
218 18
217 19
216 19
215 18
214 18
213 18
212 18
211 18
210 17
209 16
208 15
207 15
206 15
206 16
206 17
206 18
205 19
204 19
203 19
202 20
201 20
200 20
199 20
198 21
197 21
196 21
195 21
194 21
193 22
192 22
191 22
190 23
189 23
188 24
187 24
186 24
185 24
184 25
183 25
182 25
181 25
180 25
179 25
178 25
177 25
176 26
175 26
174 26
173 26
172 26
171 26
170 26
169 27
168 27
167 27
166 27
165 27
164 28
163 28
162 28
161 28
160 28
159 29
158 29
157 29
156 29
155 30
154 30
153 30
152 30
151 30
150 31
149 31
148 31
147 31
146 32
145 32
144 32
143 32
142 32
141 32
140 33
139 33
138 33
137 33
136 34
135 34
134 34
133 34
132 34
131 35
130 35
129 35
128 35
127 35
126 36
125 36
124 36
123 36
122 36
121 36
120 37
119 37
118 37
117 37
116 37
115 37
114 37
113 37
112 37
111 37
110 37
109 38
108 38
107 38
106 38
105 38
104 38
103 38
102 38
101 38
100 38
99 38
98 38
97 38
96 38
95 39
94 39
93 39
92 39
91 39
90 39
89 39
88 39
87 39
86 39
85 39
84 40
83 40
82 40
81 40
80 40
79 40
78 40
77 40
76 40
75 41
74 41
73 41
72 41
71 41
70 41
69 41
68 42
67 42
66 42
65 42
64 42
63 42
62 42
61 42
60 42
59 42
58 42
57 42
56 42
55 42
54 42
53 42
52 42
51 42
50 42
49 42
48 42
47 42
46 42
45 42
44 42
43 42
42 42
41 42
40 42
39 42
38 42
37 42
36 42
35 42
34 42
33 42
32 42
31 42
30 42
29 42
28 42
27 42
26 42
25 42
24 42
23 43
22 43
21 43
20 43
19 44
18 44
17 44
16 44
15 44
14 44
13 44
12 43
11 43
10 43
9 43
8 43
7 43
6 42
5 42
4 42
3 43
2 43
2 44
2 45
2 46
3 47
4 47
5 47
6 47
7 48
8 48
9 48
10 48
11 48
12 48
13 48
14 48
15 48
16 48
17 48
18 48
19 48
20 48
21 48
22 48
23 48
24 48
25 48
26 48
27 48
28 48
29 48
30 48
31 48
32 48
33 49
34 49
35 49
36 49
37 49
38 49
39 49
40 49
41 49
42 49
43 49
44 49
45 49
46 49
47 50
48 50
49 50
50 50
51 50
52 50
53 50
54 50
55 50
56 50
57 50
58 50
59 51
60 51
61 51
62 51
63 51
64 51
65 51
66 51
67 51
68 51
69 51
70 52
71 52
72 52
73 52
74 52
75 52
76 52
77 52
78 52
79 52
80 52
81 53
82 53
83 53
84 53
85 53
86 53
87 53
88 53
89 53
90 53
91 53
92 53
93 53
94 53
95 53
96 53
97 53
98 53
99 54
100 54
101 54
102 54
103 54
104 54
105 54
106 54
107 54
108 54
109 54
110 54
111 54
112 54
113 54
114 54
115 55
116 55
117 55
118 55
119 55
120 55
121 55
122 56
123 56
124 56
125 56
126 56
127 56
128 56
129 56
130 56
131 56
132 57
133 57
134 57
135 57
136 57
137 58
138 58
139 58
140 58
141 58
142 58
143 58
144 58
145 59
146 59
147 59
148 59
149 60
150 60
151 60
152 60
153 60
154 60
155 61
156 61
157 61
158 61
159 61
160 61
161 61
162 62
163 62
164 62
165 62
166 62
167 62
168 63
169 63
170 63
171 64
172 64
173 64
174 64
175 65
176 65
177 65
178 65
179 66
180 66
181 66
182 67
183 67
184 67
185 67
186 67
187 67
188 67
189 67
190 67
191 67
192 67
193 67
194 67
195 68
196 68
197 69
198 69
199 69
200 70
201 70
202 70
203 71
204 71
205 72
206 72
207 72
208 72
209 72
210 72
211 72
212 72
213 72
214 72
215 72
216 72
217 72
218 72
219 72
220 72
221 72
222 72
223 72
224 72
225 73
225 74
225 75
226 76
226 77
226 78
226 79
227 79
228 80
229 81
229 82
230 83
230 84
230 85
231 86
231 87
232 87
233 87
234 86
234 85
235 84
235 83
235 82
234 82
233 81
232 80
233 79
233 78
233 77
233 76
233 75
234 74
234 73
234 72
235 71
236 71
237 71
238 71
239 70
240 70
241 70
242 70
243 70
244 70
245 71
246 71
247 71
248 71
249 71
250 71
251 71
252 71
253 70
254 70
255 70
256 70
257 70
258 70
259 69
260 69
261 69
262 68
263 68
264 68
265 67
266 67
267 67
268 66
269 66
270 66
271 66
272 66
273 66
274 66
275 66
276 66
277 66
278 66
279 66
280 66
281 66
282 66
283 66
284 66
285 66
286 65
287 64
287 63
288 62
287 62
286 61
285 60
285 59
286 58
287 58
288 57
289 56
290 55
291 54
292 53
292 52
293 51
294 50
295 50
296 49
297 48
298 48
299 48
300 47
301 46
302 45
303 45
304 44
305 44
306 44
307 43
308 42
309 41
309 40
310 39
309 39
308 38
307 38
306 38
305 38
304 38
303 37
302 37
301 37
300 37
299 36
298 36
297 36
296 35
295 35
294 35
293 35
292 34
291 34
290 34
289 33
288 33
287 33
286 33
285 32
284 32
283 32
282 31
281 31
280 31
279 31
278 30
277 30
276 29
275 29
274 29
273 28
272 28
271 28
270 28
269 28
268 27
267 27
266 27
265 28
264 28
263 28
262 27
261 27
260 27
259 27
258 27
257 27
256 26
255 26
254 26
253 26
252 26
251 26
250 25
249 25
248 25
247 25
246 25
245 25
244 24
243 24
242 24
241 24
240 24
239 24
238 23
237 23
236 23
235 23
234 23
233 22
232 22
231 22
230 21
231 20
231 19
231 18
231 17
231 16
231 15
231 14
231 13
231 12
232 11
232 10
232 9
232 8
232 7
232 6
232 5
232 4
232 3
231 3
230 2
229 2
