84 2
83 3
82 3
81 3
80 4
79 4
78 5
77 6
76 7
75 8
75 9
75 10
74 11
74 12
73 13
73 14
72 15
72 16
72 17
72 18
71 19
71 20
71 21
71 22
70 23
70 24
70 25
70 26
70 27
70 28
69 29
68 29
67 29
66 29
65 29
64 29
63 29
62 29
61 29
60 29
59 29
58 29
57 29
56 29
55 29
54 29
53 29
52 29
51 29
50 29
49 29
48 29
47 29
46 30
45 30
44 30
43 30
42 30
41 30
40 30
39 30
38 30
37 30
36 31
35 31
34 31
33 31
32 31
31 31
30 32
29 32
28 32
27 32
26 32
25 32
24 31
23 31
22 31
21 31
20 31
19 31
18 32
17 32
16 32
15 33
14 34
13 35
12 36
11 36
10 37
9 37
8 38
7 39
6 40
5 40
4 40
3 41
3 42
2 43
2 44
2 45
2 46
2 47
3 48
3 49
4 50
4 51
5 52
6 52
7 53
7 54
8 55
9 56
10 56
11 57
12 57
13 58
14 59
15 59
16 60
17 60
18 61
19 61
20 61
21 62
22 62
23 63
24 64
25 64
26 64
27 64
28 64
29 65
30 65
31 65
32 65
33 65
34 65
35 65
36 65
37 65
38 65
39 65
40 65
41 66
42 66
43 66
44 66
45 66
46 66
47 66
48 66
49 66
50 66
51 66
52 66
53 67
54 67
55 67
56 67
57 67
58 67
59 67
60 68
61 69
61 70
61 71
61 72
61 73
62 74
62 75
63 76
64 76
65 76
66 77
67 77
68 76
69 76
70 77
71 76
72 77
73 77
74 77
75 77
76 77
77 77
78 77
79 77
80 77
81 77
82 77
83 77
84 77
85 77
86 77
87 77
88 77
89 77
90 77
91 77
92 77
93 77
94 77
95 77
96 76
97 76
98 76
99 76
100 76
101 76
102 76
103 75
104 75
105 75
106 75
107 75
108 74
108 73
107 72
108 71
107 71
106 70
105 70
104 70
103 70
102 69
101 69
100 69
99 69
98 69
97 69
96 69
95 69
94 68
95 67
96 67
97 67
98 67
99 67
100 67
101 67
102 67
103 66
104 66
105 66
106 66
107 66
108 66
109 66
110 66
111 66
112 66
113 66
114 66
115 67
116 68
117 68
118 67
119 68
120 69
121 70
122 71
123 72
123 73
124 73
125 74
126 75
127 75
128 76
129 76
130 76
131 77
132 77
133 77
134 78
135 78
136 78
137 78
138 78
139 78
140 78
141 78
142 78
143 78
144 78
145 78
146 78
147 78
148 78
149 78
150 78
151 77
152 77
153 77
154 76
155 76
156 76
157 75
158 75
159 74
160 74
161 74
162 73
163 73
164 72
165 71
166 70
167 70
168 70
169 69
170 68
170 67
169 66
168 65
167 64
166 64
165 64
164 63
163 62
162 61
161 61
160 60
159 60
158 59
159 58
160 58
161 58
162 58
163 58
164 58
165 58
166 58
167 58
168 58
169 58
170 57
171 57
172 57
173 57
174 57
175 57
176 57
177 57
178 57
179 57
180 57
181 57
182 57
183 57
184 57
185 57
186 57
187 57
188 57
189 57
190 57
191 57
192 57
193 57
194 57
195 57
196 57
197 57
198 57
199 57
200 57
201 57
202 57
203 57
204 57
205 57
206 57
207 57
208 58
209 58
210 58
211 58
212 59
213 59
214 59
215 59
216 60
217 60
218 60
219 60
220 60
221 61
222 61
223 61
224 61
225 61
226 61
227 62
228 62
229 62
230 62
231 62
232 62
233 62
234 62
235 62
236 62
237 62
238 62
239 62
240 61
241 61
242 62
243 61
244 60
245 59
246 59
247 58
248 58
249 57
250 56
251 55
252 54
252 53
253 52
253 51
254 50
254 49
255 48
255 47
255 46
255 45
255 44
255 43
255 42
255 41
255 40
255 39
255 38
255 37
254 37
253 36
254 35
254 34
254 33
254 32
253 32
252 31
253 30
252 30
251 29
252 28
251 28
250 27
249 26
248 26
247 25
246 25
245 25
244 24
243 24
242 24
241 24
240 24
239 24
238 24
237 24
236 24
235 25
234 25
233 25
232 25
231 25
230 25
229 26
228 26
227 26
226 26
225 26
224 27
223 27
222 27
221 27
220 28
219 28
218 28
217 28
216 29
215 29
214 29
213 29
212 30
211 30
210 30
209 31
208 31
207 31
206 32
205 32
204 32
203 33
202 33
201 33
200 33
199 33
198 34
197 34
196 34
195 34
194 34
193 34
192 34
191 34
190 34
189 34
188 34
187 34
186 34
185 33
184 33
183 33
182 33
181 33
180 33
179 33
178 33
177 33
176 33
175 33
174 33
173 33
172 33
171 33
170 33
169 33
168 33
167 33
166 33
165 33
164 33
163 33
162 33
161 33
160 32
161 31
162 31
163 30
164 30
165 30
166 29
167 29
168 28
169 28
170 28
171 27
172 27
173 26
174 26
175 26
176 25
177 25
178 24
179 24
180 24
181 23
182 23
182 22
183 21
183 20
182 20
181 19
182 18
181 18
180 17
179 17
178 16
177 16
176 16
175 15
174 15
173 15
172 15
171 14
170 14
169 14
168 14
167 13
166 13
165 13
164 13
163 13
162 12
161 12
160 12
159 12
158 12
157 12
156 12
155 11
154 11
153 11
152 11
151 11
150 11
149 10
148 10
147 9
146 9
145 9
144 9
143 8
142 8
141 8
140 8
139 8
138 7
137 7
136 7
135 7
134 7
133 7
132 7
131 7
130 8
129 8
128 8
127 8
126 8
125 9
124 10
123 11
122 11
121 12
120 13
119 14
118 15
117 16
116 17
116 18
116 19
115 20
115 21
114 22
113 23
113 24
112 25
112 26
111 27
111 28
110 29
109 30
108 30
107 30
106 30
105 30
104 29
104 28
104 27
105 26
105 25
105 24
106 23
106 22
107 21
107 20
107 19
108 18
108 17
108 16
108 15
108 14
108 13
107 13
106 12
107 11
106 11
105 10
104 9
105 8
105 7
104 7
103 7
102 6
101 5
100 5
99 4
98 3
97 3
96 2
95 2
94 2
93 2
92 2
91 2
90 2
89 2
88 2
87 2
86 2
85 2
