94 2
93 3
92 3
91 3
90 3
89 3
88 3
87 3
86 3
85 4
84 4
83 4
82 4
81 4
80 5
79 5
78 5
77 6
76 6
75 7
74 7
73 8
72 9
71 9
70 10
69 11
68 12
67 12
66 13
65 14
64 14
63 15
62 15
61 16
60 16
59 16
58 16
57 16
56 17
55 17
54 17
53 17
52 17
51 17
50 17
49 18
48 18
47 19
46 19
45 19
44 20
43 20
42 20
41 20
40 20
39 20
38 21
37 21
36 21
35 21
34 22
33 22
32 22
31 22
30 23
29 23
28 23
27 24
26 24
25 24
24 24
23 24
22 24
21 24
20 24
19 25
18 25
17 26
16 27
15 27
14 28
13 28
12 29
11 30
10 30
9 31
8 31
7 32
7 33
6 34
5 35
5 36
5 37
4 38
3 38
3 39
2 40
2 41
2 42
2 43
3 44
3 45
4 46
5 47
6 48
7 48
8 49
9 50
10 50
11 50
12 51
13 51
14 52
15 52
16 52
17 53
18 53
19 53
20 53
21 54
22 54
23 55
24 55
25 56
26 56
27 56
28 57
29 57
30 57
31 57
32 57
33 58
34 58
35 58
36 58
37 58
38 58
39 58
40 58
41 59
42 59
43 59
44 59
45 59
46 59
47 59
48 60
49 60
50 60
51 60
52 60
53 60
54 60
55 60
56 61
57 61
58 61
59 62
60 63
61 64
61 65
62 66
63 66
64 67
65 68
66 69
67 69
68 70
69 70
70 70
71 70
72 71
73 71
74 70
75 70
76 70
77 70
78 70
79 69
80 69
81 69
82 69
83 68
84 68
85 68
86 67
87 67
88 67
89 66
90 66
91 66
92 65
93 65
94 65
95 65
96 64
97 64
98 63
98 62
99 61
100 61
101 61
102 61
103 62
104 62
105 62
106 63
107 64
108 64
109 65
110 65
111 66
112 66
113 66
114 67
115 67
116 67
117 67
118 67
119 68
120 68
121 68
122 68
123 68
124 69
125 69
126 69
127 69
128 69
129 69
130 69
131 69
132 69
133 69
134 69
135 69
136 69
137 69
138 68
139 68
140 68
141 68
142 68
143 68
144 68
145 68
146 68
147 68
148 68
149 68
150 68
151 69
152 68
153 67
154 67
155 67
156 67
157 67
158 67
159 67
160 67
161 67
162 67
163 67
164 67
165 67
166 66
167 66
168 66
169 66
170 66
171 66
172 66
173 65
174 65
175 65
176 65
177 65
178 65
179 65
180 65
181 65
182 65
183 65
183 64
184 63
183 63
182 62
181 61
180 61
179 60
180 59
181 59
182 59
183 59
184 60
185 60
186 60
187 60
188 60
189 60
190 61
191 61
192 61
193 61
194 61
195 62
196 62
197 62
198 62
199 62
200 63
201 63
202 63
203 64
204 64
205 64
206 65
207 65
208 65
209 65
210 65
211 65
212 65
213 65
214 65
215 65
216 65
217 65
218 65
219 64
220 64
221 63
222 62
223 62
224 61
225 60
226 60
227 59
228 58
229 57
230 56
230 55
231 54
231 53
231 52
231 51
232 50
232 49
233 48
233 47
233 46
233 45
233 44
233 43
233 42
232 42
231 41
232 40
232 39
232 38
231 38
230 37
231 36
231 35
231 34
230 34
229 33
230 32
229 32
228 31
227 30
226 29
225 28
226 27
225 27
224 26
223 26
222 25
221 25
220 24
219 24
218 24
217 24
216 24
215 24
214 24
213 24
212 24
211 24
210 24
209 24
208 24
207 24
206 24
205 24
204 24
203 24
202 24
201 24
200 25
199 25
198 25
197 25
196 25
195 25
194 25
193 25
192 25
191 26
190 26
189 26
188 26
187 26
186 27
185 28
184 28
183 28
182 29
181 29
180 29
179 29
178 30
177 30
176 30
175 30
174 30
173 30
172 29
173 28
174 28
175 28
176 28
177 27
177 26
178 25
178 24
177 24
176 23
175 22
174 22
173 21
172 21
171 20
170 20
169 20
168 19
167 19
166 18
165 18
164 17
163 17
162 17
161 16
160 16
159 16
158 15
157 15
156 15
155 15
154 14
153 14
152 14
151 13
150 13
149 13
148 12
147 12
146 12
145 12
144 12
143 11
142 11
141 11
140 10
139 10
138 10
137 9
136 9
135 9
134 9
133 9
132 8
131 8
130 8
129 8
128 7
127 7
126 7
125 7
124 7
123 7
122 7
121 7
120 6
119 6
118 7
117 7
116 7
115 7
114 8
113 8
112 9
111 10
110 10
109 11
108 11
107 12
106 13
105 13
104 14
103 15
102 15
101 16
100 17
99 18
98 17
98 16
98 15
99 14
99 13
99 12
99 11
100 10
100 9
101 8
101 7
102 6
102 5
102 4
101 4
100 4
99 3
98 3
97 2
96 2
95 2
