88 2
87 3
86 3
85 3
84 3
83 3
82 4
81 5
80 5
79 6
78 7
77 8
77 9
76 10
75 11
74 12
74 13
73 14
72 15
71 15
70 15
69 16
68 16
67 16
66 16
65 16
64 16
63 16
62 16
61 16
60 16
59 16
58 16
57 16
56 16
55 17
54 17
53 17
52 17
51 17
50 17
49 17
48 17
47 17
46 17
45 17
44 18
43 18
42 18
41 18
40 18
39 19
38 19
37 19
36 19
35 19
34 19
33 19
32 19
31 19
30 19
29 19
28 20
27 20
26 20
25 20
24 20
23 20
22 20
21 20
20 20
19 20
18 20
17 20
16 20
15 21
14 21
13 22
12 22
11 22
10 22
9 22
8 23
7 23
6 23
5 23
4 23
3 24
2 24
2 25
2 26
2 27
2 28
2 29
3 30
4 31
5 32
6 33
7 34
8 35
9 36
9 37
9 38
10 37
11 38
12 38
13 39
14 40
15 40
16 40
17 41
18 41
19 41
20 42
21 42
22 42
23 43
24 43
25 43
26 43
27 44
28 44
29 44
30 45
31 45
32 45
33 45
34 45
35 45
36 45
37 45
38 45
39 46
40 46
41 46
42 46
43 46
44 46
45 46
46 46
47 46
48 46
49 46
50 46
51 47
52 48
53 49
54 50
55 51
56 52
57 53
58 54
59 55
60 56
61 56
62 57
63 57
64 58
65 58
66 58
67 58
68 58
69 58
70 58
71 58
72 58
73 59
74 59
75 59
76 59
77 59
78 59
79 59
80 59
81 58
82 58
83 58
84 58
84 57
84 56
83 56
82 56
81 55
80 55
79 55
78 54
77 53
76 52
75 52
74 51
73 51
72 51
71 50
70 50
69 49
68 49
67 48
66 48
65 48
64 47
63 47
62 47
61 46
62 45
63 45
64 45
65 45
66 45
67 45
68 45
69 45
70 45
71 45
72 46
73 46
74 46
75 46
76 46
77 46
78 46
79 46
80 46
81 46
82 46
83 46
84 46
85 46
86 46
87 46
88 46
89 47
90 47
91 47
92 47
93 47
94 47
95 47
96 47
97 47
98 47
99 47
100 47
101 47
102 47
103 47
104 47
105 47
106 47
107 48
108 49
109 50
110 51
111 52
112 53
112 54
113 55
114 56
115 56
116 57
117 58
118 58
119 58
120 58
121 59
122 59
123 59
124 60
125 60
126 60
127 61
128 61
129 61
130 61
131 60
132 60
133 60
134 60
135 60
136 59
137 59
138 59
139 58
140 57
141 57
142 56
143 56
144 55
144 54
145 53
145 52
146 51
146 50
147 49
147 48
147 47
147 46
147 45
146 45
145 44
146 43
146 42
145 41
146 40
147 40
148 40
149 40
150 40
151 40
152 40
153 40
154 40
155 40
156 40
157 40
158 40
159 40
160 39
161 39
162 39
163 39
164 39
165 39
166 40
167 40
168 40
169 40
170 40
171 40
172 40
173 40
174 40
175 40
176 40
177 40
178 41
179 41
180 41
181 41
182 41
183 41
184 41
185 41
186 42
187 42
188 42
189 42
190 42
191 42
192 42
193 42
194 42
195 42
196 43
197 42
198 42
199 42
200 42
201 42
202 42
203 41
204 41
205 40
206 40
207 39
208 39
209 38
210 37
210 36
211 35
211 34
211 33
211 32
212 31
212 30
212 29
213 28
213 27
213 26
214 25
214 24
213 24
212 23
213 22
213 21
212 21
211 20
212 19
212 18
211 18
210 17
211 16
211 15
210 15
209 14
208 13
207 13
206 12
205 12
204 11
203 11
202 11
201 11
200 10
199 10
198 10
197 10
196 10
195 11
194 11
193 11
192 11
191 11
190 12
189 12
188 12
187 12
186 13
185 13
184 13
183 13
182 14
181 14
180 14
179 15
178 15
177 15
176 16
175 16
174 16
173 16
172 17
171 17
170 18
169 18
168 19
167 19
166 19
165 19
164 19
163 19
162 19
161 19
160 20
159 20
158 20
157 20
156 20
155 20
154 20
153 20
152 20
151 20
150 20
149 20
148 20
147 20
146 20
145 20
144 20
143 20
142 19
142 18
143 17
143 16
143 15
143 14
142 14
141 13
140 12
139 11
138 10
137 9
136 8
135 7
134 6
133 6
132 5
131 5
130 4
129 4
128 3
127 3
126 3
125 3
124 3
123 3
122 3
121 4
120 4
119 4
118 4
117 5
116 5
115 5
114 5
113 5
112 6
111 7
110 7
110 8
109 9
108 10
107 11
106 11
105 12
104 13
103 14
102 15
101 15
100 15
99 14
100 13
100 12
101 11
101 10
100 9
100 8
101 7
100 7
99 6
98 5
99 4
98 4
97 4
96 3
97 2
96 2
95 2
94 3
93 3
92 3
91 3
90 2
89 2
