95 2
94 3
93 3
92 3
91 3
90 4
89 5
88 6
87 7
86 7
86 8
86 9
86 10
85 11
84 11
83 12
83 13
82 14
81 14
80 15
80 16
79 17
78 18
77 18
77 19
76 20
75 21
74 22
74 23
73 24
72 24
71 24
70 24
69 24
68 24
67 24
66 24
65 24
64 24
63 25
62 25
61 25
60 25
59 25
58 25
57 25
56 25
55 25
54 25
53 25
52 25
51 26
50 26
49 26
48 26
47 26
46 26
45 26
44 26
43 26
42 27
41 27
40 27
39 27
38 27
37 27
36 28
35 28
34 28
33 28
32 28
31 28
30 28
29 28
28 28
27 28
26 28
25 28
24 28
23 28
22 29
21 29
20 30
19 30
18 31
17 32
16 32
15 32
14 32
13 32
12 32
11 33
10 33
9 33
8 33
7 33
6 33
5 34
4 35
3 36
3 37
2 38
2 39
2 40
2 41
2 42
2 43
3 44
4 45
5 46
5 47
6 48
7 49
8 50
8 51
8 52
9 53
10 54
11 55
11 56
11 57
10 58
9 59
8 59
8 60
8 61
7 62
6 63
5 63
4 63
3 64
2 64
2 65
2 66
2 67
2 68
2 69
3 69
4 70
5 70
6 70
7 71
8 71
9 72
10 72
11 73
12 73
13 74
14 74
15 74
16 74
17 75
18 75
19 76
20 76
21 76
22 76
23 76
24 76
25 77
26 77
27 77
28 77
29 77
30 78
31 78
32 78
33 78
34 79
35 79
36 79
37 80
38 80
39 81
40 81
41 81
42 81
43 82
44 82
45 82
46 82
47 82
48 82
49 83
50 83
51 83
52 84
53 84
54 84
55 85
56 85
57 85
58 85
59 86
60 86
61 87
62 87
63 87
64 87
65 88
66 88
67 88
68 88
69 89
70 89
71 90
71 91
72 91
73 91
74 90
75 89
76 88
77 87
78 87
79 87
80 87
81 87
82 87
83 87
84 87
85 87
86 87
87 87
88 87
89 87
90 87
91 87
92 87
93 87
94 86
95 85
96 85
97 84
98 85
99 85
100 85
101 85
102 85
103 85
104 84
105 84
106 84
107 83
108 83
109 83
110 83
111 83
112 83
113 82
114 82
115 82
116 81
117 81
118 81
119 82
120 82
121 82
122 82
123 82
124 82
125 82
126 82
127 82
128 82
129 82
130 82
131 82
132 82
133 81
134 81
135 81
136 80
137 80
138 80
139 80
140 80
141 79
142 79
143 78
144 78
145 78
146 78
147 77
148 77
149 77
150 76
151 76
152 75
153 75
154 75
155 74
156 74
157 73
158 73
159 72
160 72
161 72
162 71
163 71
164 71
165 70
166 70
167 70
168 70
169 69
170 69
171 69
172 68
173 68
174 68
175 68
176 67
177 67
178 67
179 67
180 66
181 66
182 66
183 66
184 66
185 66
186 66
187 66
188 66
189 66
190 66
191 66
192 66
193 66
194 66
195 66
196 66
197 66
198 66
199 66
200 66
201 66
202 66
203 66
204 66
205 66
206 66
207 66
208 66
209 66
210 66
211 66
212 66
213 66
214 66
215 66
216 66
217 66
218 66
219 66
220 66
221 66
222 66
223 66
224 66
225 65
225 64
224 63
225 62
226 62
227 61
227 60
228 59
228 58
228 57
227 57
226 56
227 55
228 54
229 54
230 54
231 54
232 54
233 54
234 53
235 53
236 53
237 53
238 52
239 51
240 52
240 53
240 54
241 54
242 54
243 54
244 54
245 54
246 54
247 54
248 54
249 54
250 54
251 54
252 54
253 54
254 54
255 54
256 54
257 53
258 53
259 53
260 53
261 53
262 53
263 52
264 52
265 52
266 51
266 50
267 49
267 48
267 47
267 46
267 45
268 44
268 43
268 42
267 42
266 41
265 40
266 39
265 39
264 38
265 37
264 37
263 36
262 36
261 36
260 36
260 37
259 38
258 38
257 39
256 39
255 39
254 39
253 39
252 39
251 39
250 39
249 39
248 40
247 40
246 40
245 40
244 41
243 41
242 41
241 41
240 41
239 41
238 42
237 42
236 41
236 40
237 39
236 39
235 38
234 38
233 37
232 37
231 37
230 37
229 37
228 37
227 37
226 37
225 37
224 37
223 37
222 37
221 37
220 37
219 37
218 37
217 37
216 37
215 37
214 37
213 37
212 37
211 37
210 37
209 37
208 37
207 37
206 37
205 36
204 36
203 36
202 36
201 36
200 36
199 36
198 36
197 36
196 36
195 36
194 35
193 35
192 35
191 35
190 34
189 34
188 34
187 34
186 34
185 34
184 33
183 33
182 33
181 33
180 33
179 32
178 32
177 32
176 32
175 32
174 32
173 31
172 31
171 31
170 31
169 31
168 31
167 30
166 30
165 30
164 30
163 30
162 30
161 30
160 30
159 29
158 29
157 29
156 29
155 29
154 29
153 28
152 28
151 28
150 28
149 28
148 28
147 27
146 27
145 27
144 27
143 27
142 27
141 26
140 26
139 26
138 26
137 26
136 25
135 25
134 25
133 24
132 24
131 24
130 24
129 23
128 23
127 23
126 23
125 23
124 23
123 22
122 22
121 22
120 22
119 22
118 21
117 21
116 21
115 21
114 21
113 20
112 20
111 20
110 20
109 20
108 20
107 19
106 19
105 19
104 19
103 19
102 19
101 19
100 19
99 19
98 19
97 19
96 19
95 19
94 19
93 19
92 19
91 19
90 19
89 19
88 19
87 19
86 18
86 17
87 16
87 15
88 14
88 13
89 12
90 11
91 10
92 9
93 9
94 9
95 8
96 8
97 7
98 7
99 6
100 5
101 5
102 4
102 3
101 2
100 2
99 2
98 2
97 2
96 2
