79 2
78 3
77 3
76 3
75 4
74 5
73 6
72 7
72 8
71 9
70 9
70 10
69 11
68 11
68 12
67 13
66 14
65 14
64 15
63 15
62 15
61 15
60 15
59 16
58 16
57 16
56 17
55 17
54 18
53 18
52 18
51 18
50 18
49 18
48 19
47 19
46 19
45 19
44 19
43 20
42 20
41 20
40 20
39 20
38 21
37 21
36 21
35 21
34 21
33 22
32 22
31 22
30 22
29 23
28 23
27 23
26 23
25 24
24 24
23 24
22 24
21 25
20 25
19 26
18 26
17 27
16 27
15 27
14 27
13 28
12 28
11 28
10 29
9 30
8 30
7 31
6 31
5 32
4 32
3 33
3 34
2 35
2 36
2 37
2 38
3 39
4 39
5 40
6 40
7 40
8 40
9 41
10 41
11 41
12 42
13 42
14 42
15 43
16 43
17 43
18 43
19 44
20 44
21 44
22 44
23 44
24 45
25 45
26 45
27 45
28 45
29 45
30 46
31 46
32 46
33 46
34 46
35 46
36 46
37 46
38 46
39 46
40 46
41 46
42 46
43 46
44 46
45 46
46 46
47 46
48 46
49 46
50 46
51 46
52 46
53 46
54 46
55 47
56 47
57 47
58 47
59 48
60 48
61 49
62 49
63 50
64 50
65 50
66 50
67 51
68 51
69 52
70 52
71 52
72 53
73 53
74 53
75 53
76 54
77 54
78 54
79 54
80 54
81 54
82 54
83 54
84 54
85 54
86 54
87 54
88 53
89 53
90 53
91 53
92 53
93 53
94 52
95 51
95 50
96 49
95 49
94 49
93 48
94 47
95 47
96 47
97 47
98 47
99 47
100 47
101 47
102 47
103 47
104 47
105 47
106 47
107 47
108 47
109 47
110 47
111 47
112 47
113 47
114 47
115 47
116 46
117 46
118 46
119 46
120 46
121 46
122 47
123 48
124 48
125 49
126 49
127 50
128 50
129 51
130 52
131 52
132 53
133 53
134 53
135 53
136 53
137 54
138 54
139 54
140 54
141 54
142 54
143 55
144 55
145 55
146 55
147 55
148 55
149 55
150 55
151 55
152 55
153 56
154 56
155 56
156 56
157 56
158 56
159 56
160 56
161 56
162 56
163 56
164 56
165 56
166 56
167 56
168 56
169 56
169 55
170 54
170 53
169 52
170 51
170 50
169 50
168 49
167 48
166 48
165 47
164 47
163 46
164 45
165 45
166 45
167 45
168 45
169 45
170 45
171 45
172 45
173 45
174 45
175 46
176 46
177 46
178 46
179 46
180 46
181 46
182 46
183 46
184 46
185 46
186 46
187 47
188 47
189 47
190 47
191 47
192 47
193 48
194 48
195 48
196 48
197 49
198 49
199 49
200 49
201 49
202 49
203 49
204 50
205 50
206 50
207 50
208 50
209 50
210 50
211 50
212 50
213 50
214 50
215 50
216 50
217 50
218 50
219 50
220 50
221 50
222 50
223 50
224 50
225 50
226 50
227 50
228 49
229 49
230 48
231 48
232 47
233 47
234 46
235 45
236 45
236 44
237 43
237 42
238 41
238 40
239 39
239 38
239 37
239 36
239 35
239 34
238 34
237 33
236 32
237 31
236 31
235 31
234 30
233 29
232 29
231 28
230 28
229 28
228 27
227 27
226 27
225 27
224 26
223 26
222 25
221 25
220 25
219 25
218 24
217 24
216 24
215 24
214 24
213 24
212 24
211 24
210 24
209 24
208 24
207 24
206 24
205 24
204 24
203 24
202 24
201 24
200 24
199 24
198 24
197 24
196 24
195 24
194 24
193 24
192 24
191 24
190 24
189 24
188 25
187 25
186 25
185 25
184 25
183 25
182 25
181 25
180 25
179 24
180 23
181 23
182 22
183 22
184 21
185 21
186 20
186 19
187 18
187 17
186 17
185 16
184 16
183 15
182 15
181 15
180 15
179 15
178 15
177 14
176 14
175 14
174 14
173 13
172 13
171 13
170 13
169 13
168 13
167 13
166 12
165 12
164 12
163 12
162 12
161 12
160 12
159 12
158 11
157 11
156 11
155 11
154 11
153 11
152 11
151 11
150 10
149 10
148 10
147 10
146 10
145 10
144 10
143 10
142 10
141 10
140 10
139 10
138 10
137 10
136 10
135 10
134 10
133 10
132 10
131 10
130 10
129 10
128 10
127 10
126 11
125 11
124 12
123 12
122 12
121 13
120 13
119 13
118 14
117 14
116 15
115 15
114 16
113 16
112 16
111 16
110 17
109 16
108 16
107 16
106 16
105 16
104 16
103 16
102 16
101 16
100 16
99 15
98 14
97 13
96 12
95 11
94 11
93 10
92 9
91 8
90 7
89 6
88 5
87 5
86 4
85 4
84 3
83 3
82 3
81 2
80 2
