87 2
86 3
85 3
84 3
83 3
82 4
81 4
80 4
79 5
78 5
78 6
77 7
76 7
75 8
75 9
74 10
73 11
73 12
72 13
72 14
72 15
72 16
72 17
72 18
71 19
71 20
70 21
69 21
68 21
67 21
66 21
65 21
64 21
63 21
62 21
61 21
60 21
59 21
58 21
57 21
56 21
55 21
54 21
53 21
52 21
51 21
50 21
49 22
48 22
47 22
46 22
45 22
44 22
43 23
42 23
41 23
40 23
39 23
38 24
37 24
36 24
35 24
34 24
33 25
32 25
31 25
30 25
29 26
28 26
27 26
26 27
25 27
24 27
23 27
22 28
21 27
20 27
19 27
18 27
17 27
16 27
15 27
14 28
13 29
12 29
12 30
12 31
11 32
10 33
9 33
8 34
7 35
6 36
5 36
5 37
4 38
4 39
3 40
3 41
2 42
2 43
2 44
2 45
3 46
2 47
2 48
2 49
2 50
2 51
3 52
4 53
5 54
6 55
7 56
8 56
9 57
10 58
11 59
12 60
13 60
14 61
15 61
16 61
17 62
18 62
19 62
20 63
21 63
22 63
23 63
24 63
25 64
26 64
27 64
28 64
29 64
30 64
31 64
32 64
33 64
34 64
35 64
36 64
37 65
38 65
39 65
40 65
41 65
42 65
43 65
44 65
45 65
46 65
47 65
48 65
49 65
50 65
51 65
52 65
53 65
54 65
55 65
56 65
57 65
58 66
59 66
60 67
61 68
62 68
63 69
64 69
65 69
66 69
67 70
68 70
69 70
70 70
71 71
72 71
73 71
74 70
75 70
76 70
77 70
78 70
79 70
80 70
81 70
82 69
83 69
84 69
85 69
86 69
87 69
88 69
89 69
90 69
91 70
92 70
93 70
94 70
94 69
95 68
95 67
95 66
96 65
97 65
98 65
99 65
100 65
101 64
102 64
103 64
104 64
105 64
106 64
107 64
108 64
109 64
110 64
111 64
112 64
113 65
114 65
115 65
116 65
117 66
118 66
119 65
120 65
121 65
122 66
123 66
124 67
124 68
125 69
126 70
127 71
128 71
129 72
130 72
131 73
132 73
133 73
134 73
135 73
136 73
137 73
138 73
139 73
140 73
141 73
142 73
143 73
144 73
145 73
146 73
147 73
148 73
149 73
150 73
151 73
152 73
153 73
154 73
155 73
156 73
157 73
158 73
159 73
160 73
161 73
162 73
163 72
164 72
165 72
166 72
167 72
168 72
169 72
170 72
171 72
172 72
173 72
174 72
175 72
176 72
177 72
178 72
179 71
180 70
180 69
181 68
181 67
181 66
180 66
179 66
178 65
177 65
176 65
175 64
174 64
173 64
172 64
171 63
170 63
169 63
168 62
169 61
170 61
171 61
172 61
173 61
174 61
175 61
176 61
177 62
178 62
179 62
180 62
181 62
182 62
183 62
184 62
185 63
186 63
187 63
188 63
189 64
190 64
191 64
192 65
193 65
194 66
195 66
196 66
197 67
197 68
198 68
199 69
200 69
201 69
202 70
203 70
204 70
205 70
206 71
207 71
208 71
209 71
210 72
211 72
212 72
213 72
214 72
215 72
216 72
217 73
218 73
219 73
220 73
221 73
222 73
223 73
224 73
225 72
226 72
227 72
228 71
229 71
230 71
231 70
232 70
233 69
234 69
235 68
236 67
237 66
238 65
239 65
240 64
241 63
241 62
242 61
242 60
243 59
243 58
244 57
244 56
244 55
245 54
245 53
245 52
245 51
246 50
246 49
246 48
246 47
245 47
244 46
245 45
245 44
245 43
245 42
244 42
243 41
244 40
243 40
242 39
243 38
242 38
241 37
240 37
239 36
238 35
237 34
236 34
235 33
234 32
233 31
232 31
231 30
230 30
229 29
228 29
227 29
226 29
225 29
224 29
223 29
222 29
221 29
220 28
219 28
218 28
217 28
216 28
215 28
214 28
213 28
212 28
211 28
210 28
209 28
208 28
207 28
206 28
205 28
204 28
203 28
202 28
201 29
200 29
199 29
198 29
197 29
196 30
195 30
194 30
193 31
192 31
191 32
190 32
189 32
188 31
189 30
190 30
191 29
191 28
192 27
192 26
192 25
191 25
190 24
191 23
191 22
190 22
189 21
190 20
189 20
188 20
187 20
186 19
185 19
184 19
183 18
182 18
181 18
180 17
179 17
178 17
177 17
176 16
175 16
174 16
173 16
172 16
171 15
170 15
169 14
168 13
167 13
166 13
165 13
164 13
163 13
162 12
161 12
160 12
159 12
158 12
157 12
156 12
155 12
154 12
153 12
152 11
151 11
150 11
149 11
148 11
147 11
146 11
145 11
144 11
143 11
142 11
141 11
140 11
139 11
138 11
137 11
136 11
135 11
134 11
133 11
132 12
131 12
130 12
129 13
128 13
127 14
126 15
125 15
124 16
123 16
122 17
121 18
120 18
119 19
118 20
117 20
116 21
115 21
114 20
114 19
114 18
114 17
114 16
114 15
113 15
112 14
113 13
112 13
111 12
112 11
111 11
110 11
109 10
108 9
107 8
106 8
105 7
104 7
103 6
102 6
101 6
100 5
99 4
98 4
97 3
96 3
95 3
94 3
93 3
92 3
91 2
90 2
89 2
88 2
