41 2
40 3
39 3
38 3
37 3
36 3
35 3
34 3
33 3
32 3
31 3
30 3
29 3
28 3
27 3
26 3
25 4
24 4
23 4
22 4
21 4
20 4
19 5
18 5
17 5
16 6
15 6
14 6
13 7
12 7
11 7
10 7
9 8
8 8
7 8
6 9
5 9
4 10
3 11
2 12
2 13
2 14
2 15
3 15
4 15
5 15
6 15
7 14
8 14
9 14
10 13
11 13
12 13
13 13
14 13
15 12
16 12
17 12
18 12
19 12
20 11
21 11
22 11
23 11
24 10
25 10
26 10
27 10
28 10
29 10
30 9
31 9
32 9
33 9
34 9
35 9
36 9
37 9
38 9
39 9
40 8
41 8
42 8
43 8
44 8
45 8
46 8
47 8
48 8
49 8
50 8
51 8
52 8
53 8
54 8
55 8
56 8
57 8
58 9
59 9
60 9
61 9
62 9
63 9
64 9
65 9
66 9
67 9
68 9
69 10
70 10
71 10
72 10
73 11
74 11
75 12
76 12
77 12
78 12
79 12
80 12
81 12
82 12
83 12
84 12
85 12
86 13
87 13
88 13
89 13
90 13
91 13
92 13
93 13
94 13
95 13
96 14
97 14
98 14
99 14
100 14
101 14
102 14
103 14
104 15
105 15
106 15
107 15
108 15
109 15
110 16
111 16
112 16
113 16
114 16
115 17
116 17
117 17
118 17
119 18
120 18
121 18
122 18
123 18
124 18
125 18
126 18
127 18
128 18
128 17
129 16
129 15
128 15
127 14
126 14
125 14
124 13
123 13
122 12
121 12
120 12
119 11
118 11
117 10
116 10
115 10
114 9
113 9
112 9
111 9
110 9
109 8
108 8
107 8
106 8
105 8
104 7
103 7
102 7
101 7
100 7
99 7
98 7
97 6
96 6
95 6
94 6
93 6
92 6
91 6
90 5
89 5
88 5
87 5
86 5
85 5
84 5
83 5
82 4
81 4
80 4
79 4
78 4
77 4
76 4
75 4
74 4
73 3
72 3
71 3
70 3
69 3
68 3
67 3
66 3
65 3
64 3
63 2
62 2
61 2
60 2
59 2
58 2
57 2
56 2
55 2
54 2
53 2
52 2
51 2
50 2
49 2
48 2
47 2
46 2
45 2
44 2
43 2
42 2
