94 2
93 3
92 3
91 3
90 3
89 3
88 3
87 4
86 4
85 4
84 5
83 5
82 6
81 6
80 7
79 8
78 9
77 9
76 10
75 11
74 12
73 12
73 13
73 14
73 15
73 16
73 17
72 18
71 19
70 19
69 19
68 19
67 19
66 19
65 19
64 19
63 19
62 19
61 19
60 19
59 19
58 19
57 20
56 20
55 20
54 20
53 20
52 20
51 20
50 20
49 20
48 20
47 20
46 20
45 21
44 21
43 21
42 21
41 21
40 21
39 21
38 21
37 21
36 22
35 22
34 22
33 22
32 23
31 23
30 23
29 23
28 24
27 24
26 24
25 25
24 25
23 26
22 26
21 26
20 26
19 26
18 26
17 27
16 27
15 28
14 28
13 29
12 30
11 31
10 32
9 33
8 33
8 34
7 35
6 36
5 37
4 38
3 38
2 39
2 40
2 41
2 42
3 43
3 44
2 45
2 46
2 47
2 48
3 49
4 50
5 51
6 52
7 53
7 54
8 54
9 55
10 55
11 55
12 56
13 56
14 56
15 57
16 57
17 58
18 58
19 58
20 59
21 59
22 59
23 59
24 59
25 59
26 60
27 60
28 60
29 60
30 60
31 61
32 61
33 61
34 61
35 61
36 62
37 62
38 62
39 62
40 62
41 62
42 62
43 62
44 62
45 62
46 62
47 62
48 62
49 62
50 63
51 63
52 63
53 63
54 63
55 63
56 63
57 63
58 64
59 64
60 65
61 65
62 66
63 67
64 67
65 68
66 69
66 70
67 71
68 71
69 71
70 71
71 71
72 71
73 71
74 71
75 71
76 71
77 71
78 70
79 70
80 70
81 70
82 70
83 70
84 70
85 70
86 70
87 70
88 70
89 70
90 70
91 70
92 70
93 70
94 69
94 68
93 67
92 66
91 66
90 66
89 66
88 66
87 65
87 64
88 63
89 63
90 63
91 63
92 63
93 63
94 63
95 63
96 63
97 63
98 63
99 63
100 63
101 63
102 63
103 63
104 63
105 63
106 63
107 63
108 63
109 63
110 64
111 64
112 64
113 64
114 64
115 64
116 65
117 65
118 65
119 64
120 64
121 64
122 65
123 66
124 67
125 67
126 68
127 69
128 70
129 71
130 71
131 71
132 72
133 72
134 72
135 72
136 73
137 73
138 73
139 73
140 73
141 73
142 74
143 74
144 74
145 74
146 74
147 74
148 74
149 74
150 75
151 75
152 75
153 75
154 75
155 75
156 75
157 75
158 75
159 75
160 75
161 75
162 75
163 75
164 74
165 74
166 74
167 74
168 74
169 74
170 74
171 74
172 74
173 73
174 73
175 73
176 73
177 72
178 72
179 71
179 70
180 69
180 68
180 67
180 66
179 66
178 66
177 65
176 65
175 65
174 64
173 64
172 63
171 63
170 62
171 61
172 61
173 61
174 61
175 61
176 61
177 61
178 61
179 62
180 62
181 62
182 62
183 62
184 62
185 62
186 62
187 63
188 63
189 64
190 64
191 65
192 65
193 66
194 66
195 66
196 67
197 67
198 68
199 68
200 68
201 69
202 69
203 70
204 70
205 71
206 71
207 71
208 71
209 72
210 72
211 72
212 72
213 72
214 72
215 72
216 72
217 72
218 72
219 72
220 72
221 72
222 72
223 72
224 72
225 72
226 72
227 71
228 71
229 71
230 71
231 70
232 70
233 69
234 68
235 68
236 67
237 67
238 66
239 66
240 65
241 64
242 63
243 62
244 61
244 60
245 59
245 58
246 57
246 56
247 55
247 54
247 53
247 52
247 51
247 50
246 50
245 49
246 48
246 47
246 46
245 46
244 45
245 44
245 43
245 42
244 42
243 41
242 40
241 39
240 38
239 37
238 36
237 36
236 35
235 34
234 33
233 33
232 32
231 32
230 32
229 31
228 31
227 31
226 31
225 30
224 30
223 30
222 30
221 30
220 30
219 30
218 30
217 30
216 30
215 30
214 30
213 30
212 30
211 30
210 30
209 30
208 30
207 30
206 30
205 30
204 30
203 30
202 31
201 31
200 31
199 31
198 31
197 31
196 32
195 32
194 32
193 32
192 33
191 33
190 33
189 32
190 31
190 30
191 29
191 28
192 27
192 26
192 25
192 24
192 23
192 22
191 22
190 21
189 20
188 20
187 19
186 19
185 19
184 18
183 18
182 18
181 18
180 17
179 16
178 16
177 15
176 15
175 15
174 14
173 14
172 14
171 14
170 14
169 13
168 13
167 13
166 13
165 13
164 13
163 12
162 12
161 12
160 12
159 12
158 12
157 12
156 12
155 12
154 12
153 11
152 11
151 11
150 11
149 11
148 11
147 11
146 11
145 11
144 11
143 11
142 11
141 12
140 12
139 12
138 12
137 12
136 12
135 12
134 12
133 12
132 12
131 13
130 13
129 13
128 14
127 14
126 15
125 15
124 16
123 17
122 18
121 18
120 19
119 19
118 20
117 20
116 21
115 21
114 20
115 19
115 18
115 17
115 16
115 15
115 14
114 14
113 13
114 12
113 12
112 11
113 10
112 10
111 9
110 9
109 8
108 7
109 6
108 6
107 6
106 5
105 5
104 4
103 4
102 3
101 3
100 3
99 2
98 2
97 2
96 2
95 2
