88 1
87 2
87 3
87 4
86 5
86 6
86 7
86 8
85 9
85 10
85 11
85 12
84 13
84 14
84 15
84 16
83 17
83 18
83 19
82 20
81 20
80 21
79 21
78 21
77 22
76 22
75 23
74 24
73 25
72 25
71 24
72 23
71 23
70 22
69 21
70 20
70 19
70 18
69 18
68 18
67 18
66 17
65 16
66 15
66 14
65 14
64 14
63 15
62 15
61 14
62 13
62 12
61 12
60 13
60 14
60 15
59 16
59 17
58 18
58 19
57 20
57 21
56 22
55 22
54 22
53 22
52 22
51 22
50 22
49 22
48 22
47 22
46 22
45 22
44 22
43 22
42 21
41 21
40 21
39 21
38 21
37 22
36 22
35 22
34 22
33 22
32 22
31 23
30 23
29 24
28 24
27 25
26 25
25 25
24 25
23 25
22 26
21 26
20 26
19 26
18 27
17 26
16 27
15 27
14 27
13 27
12 28
11 29
10 29
9 29
8 30
7 30
6 30
5 31
4 31
3 32
3 33
2 34
2 35
2 36
2 37
2 38
3 39
4 39
5 39
6 40
7 40
8 40
9 40
10 41
11 42
12 42
13 43
14 43
15 43
16 43
17 43
18 44
19 44
20 44
21 44
22 44
23 44
24 44
25 44
26 45
27 45
28 45
29 45
30 45
31 45
32 45
33 45
34 45
35 45
36 45
37 45
38 45
39 45
40 46
40 47
40 48
40 49
41 50
41 51
41 52
41 53
42 54
43 55
43 56
44 57
45 58
46 59
46 60
47 60
48 61
49 61
50 62
51 62
52 62
53 62
54 62
55 62
56 63
57 63
58 63
59 63
60 63
61 63
62 63
63 63
64 64
65 64
66 64
67 64
68 64
69 64
70 64
71 64
72 64
73 64
74 64
75 64
75 63
76 62
76 61
75 61
74 61
73 61
72 60
71 59
72 58
71 58
70 58
69 57
68 57
67 56
66 55
65 55
64 54
63 53
62 52
61 52
60 51
61 50
62 49
63 49
64 50
64 51
65 52
66 52
67 53
68 54
69 54
70 55
71 56
72 56
73 56
74 57
75 57
76 57
77 57
78 57
79 57
80 56
81 56
82 55
83 54
84 53
85 53
86 52
86 51
87 50
88 49
88 48
89 47
90 47
91 48
91 49
92 50
92 51
92 52
92 53
92 54
92 55
93 56
93 57
94 58
94 59
94 60
94 61
94 62
95 62
96 62
97 62
98 62
99 62
100 62
101 62
102 62
103 62
104 62
105 62
106 62
107 61
108 61
109 61
110 61
111 61
112 61
113 61
114 61
115 61
116 61
117 60
118 60
119 60
120 60
121 60
122 60
123 60
124 59
125 59
126 59
127 59
128 59
129 59
130 59
131 58
132 58
133 58
134 58
135 58
136 58
137 58
138 58
139 58
140 58
141 57
142 57
143 57
144 56
144 55
145 54
145 53
144 53
143 52
142 51
143 50
142 50
141 49
142 48
141 48
140 47
141 46
142 46
143 46
144 46
145 46
146 46
147 46
148 47
149 47
150 47
151 47
152 47
153 47
154 47
155 47
156 47
157 47
158 47
159 47
160 47
161 47
162 47
163 48
164 48
165 48
166 48
167 48
168 48
169 48
170 48
171 48
172 48
173 48
174 48
175 49
176 49
177 50
178 51
179 52
180 53
181 53
182 54
183 55
184 55
185 56
186 56
187 57
188 57
189 58
190 58
191 59
192 60
193 61
194 61
195 61
196 61
197 61
198 61
199 61
200 60
200 59
201 58
202 58
203 57
204 56
204 55
205 54
205 53
206 52
206 51
207 50
207 49
207 48
208 47
208 46
208 45
208 44
208 43
208 42
208 41
208 40
208 39
208 38
208 37
208 36
208 35
208 34
207 34
206 33
207 32
207 31
206 31
205 30
206 29
205 29
204 28
203 27
202 26
201 26
200 26
199 26
198 26
197 26
196 27
195 27
194 28
193 28
192 28
191 28
190 29
189 29
188 30
187 30
186 30
185 31
184 31
183 32
182 33
181 34
180 34
179 35
178 35
177 36
176 36
175 36
174 37
173 37
172 37
171 37
170 37
169 37
168 37
167 36
166 36
165 36
164 36
163 36
162 36
161 36
160 35
159 35
158 35
157 35
156 35
155 35
154 35
153 34
152 34
151 34
150 34
149 34
148 34
147 33
146 33
145 33
144 33
143 32
142 32
141 32
140 31
139 31
138 31
137 31
136 31
135 31
134 31
133 31
132 31
131 30
130 30
129 30
128 30
127 30
126 30
125 30
124 30
123 29
124 28
124 27
125 26
126 25
126 24
127 23
128 22
128 21
129 20
130 19
131 18
132 17
133 16
133 15
132 15
131 16
130 16
129 17
128 17
127 16
128 15
128 14
129 13
129 12
128 12
127 13
126 14
125 15
124 15
123 15
122 15
121 14
122 13
123 12
123 11
124 10
123 10
122 10
121 11
120 12
119 13
118 13
117 12
116 11
117 10
117 9
118 8
117 8
116 9
115 9
114 10
113 11
112 11
111 10
110 9
111 8
111 7
112 6
112 5
111 5
110 5
110 6
110 7
109 8
108 9
107 9
106 9
105 9
104 8
105 7
105 6
105 5
105 4
106 3
105 3
104 4
103 5
103 6
102 7
101 8
100 8
99 8
98 8
97 7
96 6
97 5
97 4
98 3
98 2
97 2
96 3
96 4
95 5
94 6
94 7
93 8
92 8
91 8
90 8
89 7
90 6
90 5
89 5
88 4
89 3
89 2
89 1
