73 2
72 3
71 3
70 4
69 4
68 5
67 6
66 6
65 7
64 8
64 9
63 10
62 11
61 12
60 13
59 14
58 15
58 16
57 17
56 18
55 19
54 19
53 20
52 20
51 20
50 20
49 20
48 20
47 20
46 20
45 20
44 20
43 21
42 21
41 21
40 21
39 21
38 21
37 22
36 22
35 22
34 22
33 22
32 22
31 22
30 22
29 23
28 23
27 23
26 23
25 23
24 24
23 24
22 24
21 24
20 25
19 25
18 26
17 26
16 27
15 27
14 28
13 28
12 29
11 29
10 30
9 31
8 31
8 32
7 33
6 34
6 35
5 36
4 37
4 38
3 39
2 40
2 41
2 42
2 43
2 44
3 45
3 46
3 47
4 48
5 49
6 50
7 51
8 51
9 52
10 53
11 54
12 54
13 55
14 55
15 55
16 55
17 56
18 56
19 56
20 56
21 56
22 56
23 57
24 57
25 57
26 57
27 57
28 57
29 57
30 58
31 58
32 58
33 58
34 58
35 58
36 58
37 58
38 59
39 59
40 59
41 59
42 59
43 59
44 59
45 59
46 59
47 60
48 60
49 60
50 61
51 62
52 63
53 63
54 64
55 64
56 65
57 65
58 65
59 65
60 65
61 65
62 65
63 65
64 65
65 65
66 65
67 65
68 65
69 66
70 66
71 66
72 67
73 67
74 67
75 67
76 68
77 68
78 68
79 68
80 69
81 69
82 69
83 69
84 69
85 68
85 67
84 66
83 66
82 66
81 66
80 65
79 65
78 65
77 64
76 64
75 64
74 63
73 63
72 63
71 62
70 61
69 61
68 60
67 60
66 60
65 60
64 59
65 58
66 58
67 58
68 58
69 58
70 58
71 58
72 58
73 58
74 58
75 58
76 58
77 57
78 57
79 57
80 57
81 57
82 57
83 57
84 57
85 57
86 56
87 56
88 56
89 56
90 56
91 56
92 56
93 56
94 57
95 57
96 58
97 59
98 60
99 60
100 61
100 62
101 63
102 63
103 64
104 65
105 65
106 65
107 66
108 66
109 66
110 67
111 67
112 67
113 67
114 67
115 67
116 67
117 67
118 67
119 67
120 67
121 67
122 67
123 67
124 67
125 67
126 67
127 66
128 66
129 66
130 66
131 66
132 66
133 66
134 66
135 65
136 65
137 65
138 65
139 65
140 65
141 64
142 64
143 63
143 62
144 61
144 60
143 60
142 60
141 60
140 59
139 59
138 59
137 59
136 58
135 58
134 58
133 57
132 57
131 56
130 56
129 55
128 55
127 54
128 53
129 53
130 53
131 53
132 53
133 53
134 53
135 53
136 53
137 53
138 53
139 53
140 53
141 53
142 52
143 52
144 52
145 52
146 52
147 52
148 52
149 52
150 52
151 52
152 52
153 52
154 51
155 51
156 51
157 51
158 51
159 51
160 51
161 51
162 51
163 51
164 52
165 52
166 53
167 53
168 53
169 54
170 54
171 54
172 54
173 55
174 55
175 55
176 55
177 55
178 55
179 55
180 55
181 55
182 55
183 55
184 55
185 55
186 54
187 54
188 54
189 54
190 53
191 52
192 51
193 51
194 50
195 50
196 49
197 49
197 48
198 47
199 47
199 46
200 45
200 44
201 43
201 42
201 41
202 40
202 39
202 38
202 37
201 37
200 36
201 35
201 34
201 33
201 32
200 32
199 31
200 30
200 29
199 29
198 29
197 28
196 27
195 27
194 26
195 25
194 25
193 24
192 24
191 24
190 24
189 24
188 24
187 24
186 23
185 23
184 23
183 23
182 23
181 23
180 23
179 23
178 23
177 24
176 23
175 23
174 23
173 24
172 24
171 24
170 24
169 24
168 24
167 24
166 24
165 24
164 24
163 24
162 25
161 25
160 25
159 26
158 26
157 27
156 27
155 27
154 27
153 27
152 27
151 27
150 28
149 28
148 27
147 27
146 27
145 27
144 27
143 27
142 27
141 27
140 27
139 27
138 26
137 26
136 26
135 26
134 25
134 24
135 23
136 23
137 22
138 22
139 22
140 21
141 21
142 21
143 20
144 20
145 20
146 20
147 19
148 19
148 18
149 17
149 16
148 16
147 16
146 15
145 15
144 15
143 14
142 14
141 13
140 13
139 13
138 13
137 13
136 12
135 12
134 11
133 11
132 10
131 10
130 10
129 9
128 8
127 7
126 7
125 7
124 6
123 6
122 6
121 5
120 5
119 5
118 5
117 5
116 4
115 4
114 4
113 4
112 4
111 4
110 4
109 4
108 5
107 5
106 5
105 5
104 5
103 6
102 6
101 7
100 8
99 9
98 10
97 11
96 12
95 13
94 14
93 15
92 16
91 17
90 17
89 18
88 18
87 17
86 16
87 15
87 14
87 13
88 12
88 11
88 10
88 9
89 8
88 8
87 7
88 6
88 5
88 4
87 4
86 3
85 2
84 2
83 2
82 2
81 2
80 2
79 2
78 2
77 2
76 2
75 2
74 2
