59 2
58 3
57 3
56 4
55 5
54 6
54 7
53 8
53 9
52 10
52 11
51 12
51 13
50 14
50 15
49 16
49 17
49 18
49 19
48 20
48 21
47 22
47 23
46 24
46 25
46 26
46 27
45 28
45 29
44 30
43 30
42 30
41 30
40 31
39 31
38 31
37 31
36 31
35 31
34 31
33 32
32 32
31 32
30 32
29 33
28 33
27 33
26 34
25 34
24 34
23 34
22 34
21 34
20 34
19 35
19 36
18 37
17 38
16 39
15 39
14 40
13 41
12 41
11 42
10 43
9 43
9 44
8 45
7 46
6 47
5 47
4 48
3 49
2 50
2 51
2 52
2 53
3 54
4 55
5 56
6 56
7 57
8 57
9 57
10 57
11 58
12 58
13 58
14 58
15 58
16 58
17 58
18 58
19 58
20 59
21 59
22 59
23 59
24 59
25 59
26 59
27 59
28 59
29 59
30 59
31 59
32 59
33 59
34 59
35 59
36 59
37 59
38 59
39 59
40 59
41 59
42 59
43 59
44 60
44 61
44 62
45 63
46 64
47 65
48 66
49 67
50 67
51 68
52 68
53 69
54 69
55 70
56 71
57 71
58 72
59 72
60 72
61 72
62 72
63 72
64 72
65 72
66 71
66 70
67 69
67 68
67 67
68 66
68 65
69 64
70 64
71 64
72 64
73 64
74 64
75 64
76 64
77 64
78 65
79 66
80 67
81 68
82 69
83 70
83 71
84 72
84 73
85 74
86 75
86 74
87 73
88 73
89 73
90 73
91 74
92 75
93 74
93 73
94 72
95 72
96 73
97 74
98 74
99 75
99 74
100 73
101 72
102 72
103 73
104 73
105 74
106 75
106 74
107 73
108 72
109 73
110 73
111 73
112 74
113 75
114 76
115 76
115 75
115 74
116 73
117 73
118 73
119 74
120 74
121 75
122 75
123 76
124 77
124 76
125 75
126 74
127 74
128 74
129 74
130 75
131 76
132 77
133 77
134 78
134 77
135 76
134 75
135 74
136 74
137 74
138 74
139 74
140 75
141 75
142 75
142 74
142 73
141 73
140 72
141 71
142 71
143 71
144 72
145 72
146 72
147 72
147 71
148 70
147 70
146 69
145 69
144 69
143 69
142 68
141 68
140 67
139 67
138 66
137 66
136 65
135 64
134 63
133 62
132 61
133 60
134 60
135 60
136 60
137 60
138 59
139 60
140 59
141 59
142 59
143 59
144 59
145 59
146 59
147 59
148 59
149 59
150 59
151 59
152 59
153 59
154 59
155 59
156 59
157 59
158 59
159 59
160 59
161 59
162 59
163 59
164 59
165 59
166 59
167 59
168 59
169 59
170 59
171 59
172 59
173 59
174 60
175 60
176 61
177 62
178 63
179 63
180 64
181 64
182 65
183 65
184 65
185 66
186 66
187 66
188 67
189 67
190 67
191 67
192 67
193 68
194 68
195 68
196 68
197 68
198 68
199 68
200 67
201 67
202 67
203 67
204 66
205 65
206 65
207 64
208 63
209 63
210 62
210 61
211 60
212 59
212 58
213 57
213 56
213 55
214 54
214 53
214 52
214 51
214 50
213 50
212 49
213 48
213 47
212 47
211 46
212 45
211 45
210 44
211 43
211 42
210 42
209 41
208 40
207 40
206 39
205 38
204 38
203 38
202 37
201 37
200 37
199 37
198 36
197 36
196 36
195 36
194 36
193 36
192 36
191 36
190 37
189 37
188 37
187 37
186 37
185 38
184 38
183 38
182 39
181 39
180 40
179 40
178 41
177 41
176 42
175 42
174 43
173 43
172 44
171 45
170 45
169 45
168 45
167 45
166 44
165 44
164 44
163 44
162 44
161 43
160 43
159 43
158 43
157 43
156 43
155 43
154 43
153 43
152 43
151 42
150 42
149 42
148 42
147 42
146 42
145 42
144 42
143 42
142 41
141 41
140 41
139 41
138 41
137 41
136 41
135 40
134 40
133 39
134 38
135 37
136 37
137 36
138 35
139 34
139 33
140 32
139 32
138 31
137 31
136 30
135 30
134 29
133 28
132 28
131 27
130 26
129 25
128 25
127 24
126 24
125 23
124 23
123 22
122 22
121 21
120 21
119 20
118 19
117 19
116 19
115 18
114 17
113 16
112 16
111 16
110 15
109 15
108 15
107 14
106 14
105 14
104 14
103 13
102 13
101 13
100 13
99 12
98 12
97 12
96 11
95 11
94 11
93 10
92 10
91 9
90 9
89 8
88 8
87 7
86 7
85 7
84 7
83 7
82 7
81 7
81 8
80 9
79 10
78 11
77 12
76 13
75 14
74 15
74 16
73 17
73 18
72 19
71 20
71 21
70 22
69 23
69 24
68 25
67 25
66 24
65 23
66 22
66 21
66 20
67 19
66 19
65 19
64 18
63 17
64 16
64 15
64 14
64 13
64 12
65 11
64 11
63 10
62 9
63 8
63 7
63 6
63 5
62 5
61 5
60 4
61 3
61 2
60 2
