99 2
98 3
97 3
96 3
95 4
94 4
93 5
92 5
91 6
90 7
89 8
88 9
87 10
86 11
85 12
84 13
83 14
82 15
81 16
81 17
80 18
79 19
78 20
77 19
76 19
75 18
74 17
75 16
75 15
74 15
73 14
72 13
71 13
70 12
71 11
71 10
71 9
70 9
69 8
70 7
69 7
68 7
67 7
66 8
65 8
64 9
63 9
62 10
61 10
60 11
59 12
58 13
57 14
56 15
56 16
55 17
55 18
54 19
53 19
52 18
51 18
50 18
49 18
48 18
47 18
46 18
45 18
44 18
43 18
42 18
41 18
40 18
39 17
38 16
37 15
36 15
35 15
34 15
33 15
32 15
31 15
30 16
29 17
28 18
27 18
26 18
25 18
24 19
23 19
22 19
21 19
20 19
19 20
18 20
17 20
16 20
15 20
14 21
13 21
12 21
11 22
10 22
9 22
8 23
7 23
6 24
5 24
4 25
3 26
2 27
2 28
2 29
2 30
3 30
4 31
4 32
4 33
4 34
5 35
6 35
7 36
8 36
9 36
10 36
11 36
12 37
13 37
14 37
15 37
16 37
17 37
18 37
19 37
20 38
21 38
22 38
23 38
24 38
25 38
26 38
27 39
28 39
29 39
30 39
31 39
32 39
33 40
34 40
35 40
36 40
37 40
38 40
39 40
40 40
41 41
42 41
43 41
44 41
45 41
46 42
46 43
46 44
45 45
45 46
45 47
45 48
45 49
45 50
45 51
45 52
46 53
46 54
46 55
47 56
48 57
49 58
50 59
51 60
52 61
53 61
54 61
55 61
56 62
57 62
58 62
59 62
60 62
61 62
62 62
63 62
64 62
65 62
66 62
67 61
68 60
69 60
70 59
71 58
72 58
72 57
73 56
73 55
74 54
74 53
75 52
75 51
74 51
73 50
74 49
75 49
76 49
77 49
78 49
79 48
80 48
81 47
82 48
83 48
84 48
85 48
86 48
87 49
87 50
88 51
88 52
89 53
89 54
90 55
91 56
92 57
93 57
94 58
95 58
96 58
97 59
98 59
99 59
100 59
101 59
102 59
103 59
104 59
105 59
106 58
107 59
108 59
109 59
110 59
111 58
112 58
113 58
114 58
115 58
116 58
117 58
118 58
119 58
120 58
121 58
122 58
123 58
124 58
125 58
126 59
127 59
128 59
129 59
130 59
131 59
132 59
133 59
134 59
135 59
136 59
137 59
138 59
139 59
140 59
141 59
142 59
143 59
144 59
145 59
146 59
147 59
148 59
149 59
150 59
151 59
152 59
153 59
153 58
154 57
153 57
152 56
151 56
150 55
149 55
148 54
147 54
146 53
145 52
144 51
143 50
144 49
145 49
146 49
147 49
148 49
149 49
150 49
151 49
152 49
153 49
154 49
155 49
156 49
157 49
158 49
159 50
160 50
161 50
162 50
163 50
164 50
165 50
166 50
167 51
168 51
169 51
170 52
171 52
172 52
173 53
174 54
175 54
176 55
177 55
178 56
179 56
180 57
181 57
182 58
183 59
184 59
185 60
186 60
187 61
188 62
189 63
190 63
191 63
192 64
193 64
194 64
195 65
196 65
197 65
198 65
199 65
200 66
201 66
202 66
203 66
204 66
205 66
206 66
207 66
208 66
209 65
210 65
211 64
212 63
212 62
213 61
213 60
214 59
214 58
215 57
215 56
215 55
215 54
215 53
215 52
216 51
216 50
216 49
216 48
216 47
216 46
216 45
216 44
216 43
215 43
214 42
215 41
215 40
214 40
213 39
212 38
213 37
212 37
211 36
210 35
209 34
210 33
209 33
208 33
207 33
206 33
205 32
204 32
203 32
202 32
201 32
200 32
199 32
198 32
197 32
196 32
195 32
194 32
193 32
192 33
191 33
190 33
189 33
188 33
187 33
186 34
185 34
184 35
183 35
182 36
181 36
180 36
179 36
178 37
177 37
176 37
175 37
174 38
173 38
172 38
171 39
170 39
169 39
168 38
167 38
166 38
165 38
164 38
163 37
162 37
161 37
160 37
159 37
158 37
157 37
156 36
155 36
154 36
153 36
152 36
151 36
150 35
149 35
148 35
147 34
146 34
145 34
144 33
143 33
142 33
141 33
140 33
139 32
140 31
141 30
142 30
143 30
144 29
145 29
146 29
147 28
148 28
149 28
150 28
151 28
152 27
153 27
154 27
155 27
156 26
156 25
157 24
157 23
156 23
155 23
154 23
153 22
152 22
151 22
150 21
149 21
148 21
147 20
146 20
145 20
144 19
143 19
142 19
141 18
140 18
139 18
138 17
137 16
136 15
135 15
134 15
133 15
132 14
131 14
130 13
129 13
128 13
127 12
126 12
125 11
124 11
123 11
122 10
121 10
120 10
119 9
118 9
117 8
116 8
115 7
114 6
113 6
112 5
111 5
110 5
109 4
108 4
107 4
106 3
105 3
104 3
103 2
102 2
101 2
100 2
