127 2
126 3
125 3
124 3
123 4
122 4
121 4
120 5
119 5
118 6
117 7
116 7
115 7
114 8
113 8
112 9
111 9
110 10
109 10
108 10
107 11
106 11
105 12
104 12
103 13
102 14
101 14
101 15
100 16
99 16
98 17
97 17
96 18
95 18
94 19
93 19
92 20
91 21
90 21
89 22
88 23
87 24
86 24
85 25
84 26
83 27
82 28
81 28
80 29
79 30
79 31
78 32
77 33
76 34
75 35
74 36
73 37
72 38
71 39
71 40
70 41
69 42
68 43
67 44
66 45
66 46
65 47
64 48
64 49
63 50
63 51
62 52
61 53
61 54
60 55
59 56
59 57
58 58
58 59
58 60
57 61
56 62
56 63
55 64
55 65
54 66
53 66
52 66
51 66
50 66
49 66
48 66
47 66
46 66
45 66
44 66
43 66
42 66
41 66
40 65
39 65
38 65
37 65
36 65
35 65
34 64
33 65
32 65
31 65
30 65
29 66
28 66
27 67
26 68
25 68
24 69
23 69
22 69
21 69
20 70
19 70
18 70
17 70
16 71
15 71
14 71
13 71
12 72
11 72
10 73
9 73
8 74
7 74
6 75
5 75
5 76
4 77
3 78
2 79
2 80
3 81
4 82
4 83
5 84
5 85
6 86
7 86
8 86
9 87
10 87
11 87
12 87
13 87
14 87
15 87
16 87
17 88
18 88
19 88
20 88
21 88
22 89
23 89
24 89
25 89
26 89
27 89
28 89
29 90
30 90
31 90
32 90
33 90
34 90
35 90
36 90
37 90
38 90
39 90
40 91
41 91
42 91
43 91
44 91
45 91
46 91
47 92
46 93
46 94
46 95
46 96
46 97
46 98
46 99
47 100
47 101
48 102
48 103
49 104
49 105
50 106
51 107
52 107
53 108
54 108
55 109
56 109
57 109
58 109
59 109
60 109
61 108
62 108
63 108
64 108
65 108
66 107
67 107
68 107
69 107
70 107
71 106
72 105
73 104
74 103
74 102
75 101
75 100
76 99
76 98
76 97
75 97
74 96
75 95
76 95
77 95
78 95
79 95
80 95
81 95
82 95
83 95
84 95
85 95
86 95
87 95
88 96
89 97
89 98
90 99
91 100
92 101
93 102
93 103
94 104
95 105
96 106
97 106
98 107
99 108
100 109
101 109
101 108
102 107
102 106
103 105
104 106
105 107
105 108
106 108
107 107
108 106
109 106
110 106
111 106
112 107
113 108
114 108
115 107
116 106
117 107
118 107
119 108
120 108
121 107
122 107
123 107
124 108
125 109
126 108
127 107
128 107
129 107
130 107
131 108
132 108
133 109
134 109
135 108
136 107
137 107
138 108
139 109
140 109
141 108
142 108
143 108
144 108
145 108
146 108
147 109
148 109
149 110
150 111
151 112
152 113
153 113
153 112
154 111
154 110
155 109
156 109
157 109
158 109
159 109
160 110
161 110
162 109
162 108
163 107
164 106
165 106
166 106
166 105
166 104
165 104
164 104
163 104
162 103
161 103
160 102
159 101
158 101
157 101
156 100
155 100
154 100
153 99
152 99
151 98
150 98
149 98
148 97
147 97
146 96
145 96
144 95
145 94
146 94
147 94
148 94
149 93
150 93
151 93
152 93
153 93
154 93
155 93
156 93
157 93
158 93
159 93
160 93
161 93
162 93
163 93
164 93
165 94
166 94
167 94
168 94
169 94
170 94
171 94
172 95
173 95
174 96
175 96
176 97
177 97
178 98
179 98
180 99
181 99
182 100
183 100
184 101
185 101
186 102
187 103
188 104
189 104
190 104
191 105
192 105
193 105
194 106
195 106
196 106
197 107
198 107
199 107
200 108
201 108
202 108
203 108
204 108
205 108
206 108
207 108
208 108
209 108
210 107
211 107
212 106
213 105
214 104
214 103
215 102
215 101
215 100
215 99
216 98
216 97
216 96
216 95
217 94
216 94
215 93
216 92
216 91
216 90
216 89
216 88
216 87
215 87
214 86
215 85
215 84
215 83
215 82
214 82
213 81
212 80
213 79
212 79
211 78
210 77
209 76
208 75
207 75
206 75
205 74
204 74
203 74
202 74
201 74
200 74
199 74
198 74
197 74
196 74
195 74
194 75
193 75
192 75
191 75
190 76
189 76
188 76
187 77
186 78
185 78
184 78
183 78
182 79
181 79
180 80
179 80
178 80
177 81
176 81
175 81
174 81
173 82
172 82
171 82
170 82
169 82
168 81
167 81
166 81
165 81
164 81
163 81
162 81
161 81
160 80
159 80
158 80
157 80
156 80
155 80
154 79
153 79
152 79
151 79
150 79
149 79
148 79
147 79
146 78
145 78
144 78
143 78
142 77
143 76
144 76
145 75
146 75
147 75
148 75
149 75
150 74
151 74
152 74
153 74
154 74
155 73
156 73
157 73
158 73
159 73
160 72
161 72
162 72
163 72
164 71
164 70
165 69
166 68
167 68
168 68
169 68
169 67
170 66
170 65
169 65
168 65
167 65
166 65
165 65
164 65
163 65
162 64
161 64
160 64
159 63
158 63
157 63
156 62
155 61
154 60
153 61
152 61
151 61
150 61
149 61
148 61
147 60
146 59
147 58
146 58
145 57
144 57
143 57
142 57
141 57
140 57
139 56
140 55
139 55
138 55
137 55
136 55
135 55
134 54
133 54
132 53
133 52
132 52
131 52
130 52
129 52
128 51
127 50
126 49
125 50
124 50
123 50
122 50
121 49
120 48
121 47
120 47
119 47
118 47
117 47
116 47
115 47
114 46
115 45
114 45
113 45
112 45
111 45
110 45
109 45
108 44
109 43
108 43
107 42
106 43
105 43
104 43
103 44
102 45
101 45
100 46
99 47
98 47
97 48
96 49
95 50
94 51
93 52
92 53
91 53
90 54
89 55
88 56
87 56
86 57
86 58
85 59
84 60
83 61
82 62
81 63
80 62
80 61
81 60
81 59
81 58
82 57
82 56
82 55
83 54
83 53
84 52
84 51
85 50
85 49
85 48
85 47
86 46
86 45
86 44
87 43
87 42
88 41
88 40
88 39
88 38
89 37
89 36
89 35
90 34
90 33
91 32
91 31
91 30
91 29
92 28
92 27
93 26
93 25
94 24
95 23
96 22
97 21
98 21
98 20
99 19
100 18
101 18
102 17
103 16
104 16
105 15
105 14
106 13
107 13
108 12
109 12
110 12
111 11
112 11
113 10
114 10
115 9
116 9
117 9
118 8
119 8
120 7
121 7
122 7
123 6
124 6
125 5
126 4
127 4
128 4
129 4
130 4
131 3
131 2
130 2
129 2
128 2
