70 2
69 3
68 3
67 4
66 5
65 6
64 6
63 7
62 8
61 8
60 9
59 10
58 11
57 11
57 12
56 13
55 14
54 15
53 16
52 17
52 18
51 19
50 20
49 21
49 22
48 23
47 24
47 25
46 26
46 27
45 28
45 29
45 30
44 31
44 32
44 33
44 34
43 35
43 36
42 37
42 38
42 39
41 40
40 41
39 41
38 41
37 41
36 42
35 42
34 42
33 42
32 42
31 43
30 43
29 43
28 43
27 44
26 44
25 45
24 45
23 45
22 46
21 46
20 46
19 47
18 48
17 49
16 49
15 50
14 50
13 51
12 52
11 52
10 53
9 54
8 54
7 55
6 56
6 57
5 58
4 59
3 59
3 60
2 61
2 62
2 63
3 64
4 65
4 66
5 67
6 67
7 67
8 68
9 68
10 68
11 68
12 68
13 69
14 69
15 69
16 69
17 69
18 69
19 69
20 69
21 69
22 69
23 69
24 69
25 69
26 70
27 70
28 70
29 70
30 70
31 70
32 70
33 70
34 70
35 70
36 70
37 70
38 70
39 70
40 70
41 71
41 72
42 73
43 74
43 75
43 76
44 77
45 78
46 79
46 80
47 81
48 82
48 83
49 84
49 85
50 86
51 87
52 87
53 87
54 88
55 88
56 88
57 88
58 88
59 89
60 89
61 89
62 89
63 89
64 89
65 89
66 89
67 89
68 89
69 89
70 89
71 89
72 89
73 89
74 89
75 89
76 89
77 90
78 90
78 89
79 88
78 88
77 87
76 87
75 86
74 86
73 85
72 84
71 83
70 82
69 81
68 80
67 80
66 79
65 78
64 77
63 76
64 75
63 75
62 74
63 73
62 72
63 71
64 71
65 71
66 71
67 71
68 71
69 71
70 71
71 72
72 73
73 74
73 75
74 76
75 77
76 78
76 79
77 80
77 81
78 82
79 83
79 84
80 85
81 86
81 85
82 84
82 83
81 83
80 82
81 81
82 80
83 80
84 81
84 82
85 83
85 84
86 84
86 83
87 82
87 81
88 80
89 81
90 82
91 83
91 82
92 81
93 80
94 81
95 81
96 82
97 83
98 84
99 84
99 83
100 82
99 82
98 81
99 80
100 80
101 80
102 80
103 81
104 82
105 83
105 84
105 85
106 85
106 84
107 83
107 82
107 81
108 80
109 80
110 80
111 80
112 81
112 82
113 83
114 84
114 85
115 86
115 85
116 84
116 83
116 82
117 81
118 81
119 81
120 82
121 82
122 83
122 84
122 85
122 86
123 86
124 86
124 85
125 84
125 83
124 83
123 82
124 81
125 81
126 81
127 81
128 81
129 81
130 82
131 82
132 82
132 81
132 80
133 79
134 79
135 80
136 80
136 79
137 78
137 77
136 77
135 77
134 77
133 77
132 77
131 76
131 75
131 74
132 73
131 73
130 74
129 75
128 74
127 73
126 72
125 71
124 70
123 69
124 68
125 68
126 68
127 68
128 68
129 67
130 67
131 67
132 67
133 67
134 67
135 67
136 67
137 67
138 67
139 67
140 67
141 67
142 67
143 67
144 67
145 67
146 67
147 67
148 67
149 67
150 66
151 66
152 66
153 66
154 66
155 66
156 65
157 65
158 65
159 65
160 65
161 65
162 65
163 65
164 65
165 65
166 65
167 66
168 66
169 66
170 67
171 67
172 67
173 67
174 68
175 68
176 68
177 68
178 68
179 69
180 69
181 69
182 69
183 69
184 70
185 70
186 70
187 70
188 70
189 71
190 71
191 71
192 71
193 72
194 72
195 72
196 72
197 72
198 72
199 72
200 71
201 71
202 71
203 71
204 71
205 70
206 70
207 70
208 69
209 68
210 68
210 67
211 66
212 65
213 64
213 63
214 62
214 61
214 60
213 60
212 59
211 58
210 57
209 56
208 55
207 54
206 54
205 53
204 53
203 52
202 51
201 51
200 50
199 50
198 49
197 49
196 49
195 49
194 49
193 49
192 49
191 49
190 49
189 49
188 49
187 50
186 50
185 50
184 50
183 50
182 50
181 51
180 51
179 51
178 51
177 51
176 51
175 51
174 52
173 52
172 52
171 52
170 52
169 53
168 53
167 53
166 53
165 53
164 53
163 53
162 53
161 53
160 53
159 53
158 53
157 53
156 53
155 52
154 52
153 52
152 52
151 52
150 52
149 51
148 51
147 51
146 51
145 51
144 51
143 51
142 50
141 50
140 50
139 50
138 50
137 50
136 50
135 50
134 49
133 49
132 49
131 49
130 49
129 49
128 49
127 49
126 49
125 49
124 48
123 48
122 48
121 47
122 46
123 45
124 44
125 43
126 43
127 42
128 41
129 41
130 40
131 40
132 39
133 38
134 37
135 37
136 36
137 36
138 36
139 36
140 35
141 35
142 35
143 35
144 35
145 35
146 35
147 35
148 35
149 35
150 35
151 35
152 34
152 33
151 33
150 33
149 33
148 33
147 33
146 33
145 33
144 33
143 33
142 33
141 33
140 33
139 33
138 32
137 32
136 32
135 32
134 32
133 32
132 31
131 31
130 31
129 30
128 30
127 29
126 28
125 28
124 28
123 27
122 27
121 27
120 27
119 26
118 26
117 26
116 25
115 25
114 25
113 24
112 24
111 24
110 24
109 23
108 23
107 23
106 23
105 22
104 22
103 22
102 22
101 21
100 21
99 21
98 21
97 21
96 21
95 21
94 20
93 20
92 20
91 20
90 20
89 21
88 21
87 21
86 21
85 21
84 22
83 22
82 22
81 23
80 23
79 24
78 24
77 25
76 26
75 27
74 27
73 28
72 29
72 30
71 31
70 32
69 33
68 34
67 35
66 36
66 37
65 38
65 39
64 40
63 39
63 38
63 37
63 36
63 35
63 34
63 33
63 32
63 31
62 31
61 30
60 29
61 28
60 28
59 27
60 26
60 25
61 24
61 23
60 22
59 21
58 20
59 19
59 18
59 17
58 17
57 17
56 16
57 15
58 14
59 13
60 12
61 11
62 10
63 9
64 8
65 8
66 7
67 7
68 6
69 6
70 5
71 5
71 4
72 3
72 2
71 2
