100 2
100 3
100 4
99 5
98 5
97 5
96 5
95 5
94 5
93 5
92 5
91 5
90 5
89 5
88 5
87 4
86 4
85 4
84 4
84 5
84 6
84 7
84 8
84 9
84 10
83 11
82 11
81 11
80 11
79 12
78 12
77 12
77 13
76 14
75 14
74 13
73 13
72 13
71 13
70 13
70 14
70 15
70 16
70 17
70 18
70 19
70 20
71 20
72 21
72 22
72 23
72 24
72 25
73 26
73 27
72 28
72 29
72 30
72 31
72 32
72 33
72 34
72 35
73 36
73 37
72 38
71 38
70 39
69 39
68 40
67 40
66 41
65 42
64 42
63 43
62 44
61 44
60 45
59 46
58 47
57 48
56 49
55 49
54 50
53 50
52 51
51 51
50 52
49 53
48 54
47 55
46 55
45 55
44 56
44 57
43 58
42 59
41 60
40 60
39 60
38 61
37 62
36 63
35 64
34 64
33 64
32 65
31 66
30 66
29 66
28 67
27 68
27 69
27 70
26 71
25 71
24 71
23 72
22 72
21 72
20 73
19 74
18 75
17 76
16 76
15 77
14 77
13 78
12 78
12 79
11 80
10 80
9 81
8 81
7 82
6 83
5 83
5 84
5 85
5 86
4 87
4 88
3 89
2 90
2 91
2 92
2 93
2 94
2 95
3 95
4 96
5 97
6 98
7 99
7 100
8 100
9 100
10 101
11 101
12 102
12 103
12 104
13 104
14 105
15 105
16 106
16 107
16 108
17 108
18 108
19 108
20 108
21 109
22 110
22 111
22 112
23 112
24 112
25 112
26 112
27 112
28 113
28 114
28 115
29 116
30 117
31 118
32 119
33 119
34 120
35 120
36 120
37 120
38 120
39 120
40 120
41 121
42 121
43 122
43 123
44 123
45 124
46 124
47 124
48 124
49 124
50 124
51 125
52 125
53 126
53 127
53 128
53 129
54 129
55 130
56 130
57 130
58 130
59 130
60 130
61 130
62 130
63 130
64 131
64 132
65 132
66 132
67 133
68 133
69 133
70 133
71 133
72 133
73 133
74 133
75 134
76 134
77 134
78 133
79 134
80 135
81 135
82 135
83 134
84 134
85 135
85 136
86 136
87 136
88 137
88 138
88 139
88 140
88 141
89 142
89 143
89 144
89 145
90 146
90 147
90 148
91 149
91 150
91 151
91 152
92 153
92 154
93 155
93 156
93 157
94 158
94 159
95 160
95 161
95 162
95 163
95 164
95 165
96 165
97 165
98 166
99 167
99 168
100 168
101 168
102 168
103 169
103 170
104 171
105 172
106 172
107 173
108 173
109 173
110 173
111 173
112 173
113 173
114 173
115 173
116 173
117 173
118 172
118 171
119 170
120 169
121 168
121 167
122 166
122 165
123 164
123 163
124 162
124 161
124 160
125 159
125 158
125 157
125 156
126 155
126 154
127 153
127 152
127 151
127 150
127 149
127 148
127 147
128 146
128 145
128 144
127 144
126 143
127 142
127 141
127 140
126 140
125 139
126 138
127 137
128 137
129 137
130 137
131 137
132 137
133 137
134 137
135 137
136 137
137 137
138 137
139 137
140 137
141 137
142 136
143 136
144 136
145 136
146 136
147 136
148 136
149 136
150 136
151 136
152 136
153 135
154 135
155 135
156 135
157 135
158 135
159 135
160 135
161 135
162 134
163 134
164 134
165 134
166 134
167 134
168 133
169 133
170 132
171 132
172 133
172 134
172 135
173 135
174 135
175 136
175 137
176 137
177 138
177 139
178 139
179 140
179 141
180 142
181 143
181 144
182 145
183 145
184 146
184 147
184 148
184 149
185 150
185 151
186 152
187 153
188 154
189 155
190 156
191 157
191 158
192 158
193 159
194 160
195 161
196 162
197 163
198 164
198 165
199 165
200 165
201 165
202 164
202 163
203 162
203 161
204 160
203 160
202 159
201 158
202 157
202 156
203 155
203 154
204 153
205 152
206 152
207 152
208 152
209 153
210 153
211 154
212 155
212 156
213 157
214 157
215 158
216 158
217 158
218 158
219 158
220 157
221 157
222 156
222 155
223 154
223 153
223 152
223 151
223 150
223 149
222 149
221 148
222 147
221 147
220 146
219 145
220 144
221 143
222 143
223 143
224 142
224 141
225 140
225 139
225 138
226 137
226 136
225 136
224 135
223 134
224 133
224 132
224 131
224 130
224 129
224 128
224 127
223 127
222 126
222 125
223 124
223 123
224 122
223 122
222 121
223 120
222 120
221 119
220 118
219 117
218 116
219 115
219 114
219 113
218 113
217 112
218 111
219 111
220 111
221 111
222 112
223 112
224 112
225 112
226 113
227 113
228 113
229 113
230 114
231 114
232 114
233 115
234 115
235 116
236 116
237 116
238 117
238 118
239 118
240 118
241 118
242 118
243 119
244 119
245 120
246 120
247 121
247 122
248 122
249 122
250 122
251 123
251 124
252 124
253 124
254 125
255 126
256 127
257 127
258 128
259 129
260 129
261 130
262 130
263 130
264 131
265 131
266 132
267 132
268 132
269 133
270 133
271 133
272 134
273 134
274 134
275 134
276 134
277 134
278 134
279 134
280 133
281 132
281 131
282 130
282 129
282 128
282 127
282 126
282 125
282 124
282 123
282 122
281 122
280 121
279 120
280 119
279 119
278 118
279 117
278 117
277 116
276 115
275 114
274 113
275 112
274 112
273 111
272 111
271 111
270 110
269 110
268 109
269 108
268 108
267 107
266 107
265 106
266 105
267 104
268 103
269 103
270 103
271 102
272 102
273 102
274 102
275 101
276 100
277 100
278 100
279 99
280 98
280 97
281 96
282 95
283 95
284 94
285 93
286 92
286 91
287 90
287 89
287 88
288 87
288 86
289 85
289 84
289 83
289 82
288 82
287 81
286 80
285 79
284 79
283 79
282 79
281 78
280 78
279 78
278 78
277 78
276 78
275 78
274 78
273 79
272 79
271 79
270 79
269 79
268 79
267 79
266 79
265 80
264 80
263 80
262 81
261 80
260 80
259 80
258 80
257 80
256 80
256 81
255 82
254 83
253 83
252 83
251 83
250 83
249 84
248 84
247 84
246 84
245 84
244 85
243 84
242 84
241 84
240 85
239 85
238 85
237 85
236 86
235 86
234 86
233 86
232 86
231 86
230 86
229 86
228 86
227 85
226 85
225 85
224 85
223 85
222 85
221 84
220 84
219 83
218 83
217 83
216 83
215 83
214 82
213 82
212 81
213 80
214 80
215 80
216 79
217 79
218 79
219 78
219 77
220 76
220 75
220 74
221 73
222 72
222 71
223 70
223 69
224 68
224 67
225 66
225 65
225 64
226 63
226 62
227 61
227 60
228 59
229 58
230 57
230 56
229 55
228 55
227 54
228 53
229 52
229 51
230 50
229 50
228 49
227 49
226 48
225 47
224 47
223 47
222 47
221 47
220 46
219 46
218 46
217 45
216 45
215 45
214 45
213 45
212 45
211 45
210 45
209 45
208 46
207 46
206 46
205 46
204 46
203 45
202 45
201 45
200 45
199 45
198 46
197 46
196 46
195 46
195 47
194 48
193 49
192 49
191 49
190 49
189 49
188 49
187 49
186 49
185 50
184 50
183 50
182 50
181 50
180 49
179 48
178 47
177 47
176 46
175 45
174 44
173 43
172 43
171 42
170 41
171 40
170 40
169 39
168 38
167 38
166 38
165 37
164 36
163 35
164 34
164 33
163 33
162 32
161 32
160 32
159 32
158 31
157 31
156 30
155 29
154 28
153 27
154 26
154 25
153 25
152 24
151 24
150 23
149 22
148 21
147 21
146 20
147 19
146 19
145 18
144 17
143 17
142 17
141 17
140 17
139 17
138 16
137 16
136 16
135 16
134 15
133 14
132 14
131 13
132 12
131 12
130 11
129 11
128 10
127 10
126 10
125 10
124 9
125 8
124 8
123 7
122 6
121 5
120 5
119 5
118 5
117 5
116 5
115 5
114 5
113 5
112 5
111 5
110 5
109 5
108 5
107 5
106 5
105 5
104 4
105 3
104 3
103 2
102 2
101 2
