46 1
45 2
45 3
46 4
46 5
47 6
48 7
48 8
48 9
48 10
48 11
48 12
48 13
48 14
48 15
48 16
48 17
48 18
47 19
47 20
46 21
46 22
46 23
45 24
44 25
44 26
44 27
44 28
43 29
42 30
42 31
42 32
41 33
41 34
40 35
40 36
39 37
38 38
38 39
37 40
37 41
36 42
36 43
36 44
36 45
35 46
35 47
35 48
35 49
34 50
34 51
34 52
34 53
34 54
34 55
34 56
34 57
34 58
34 59
35 60
35 61
35 62
35 63
36 64
36 65
37 66
37 67
38 68
39 69
38 70
37 70
36 70
35 70
34 70
33 70
32 70
31 70
30 70
29 69
28 69
27 69
26 69
25 69
24 69
23 69
22 68
23 67
24 67
25 67
25 66
26 65
26 64
26 63
26 62
27 61
27 60
27 59
26 58
27 57
26 57
25 56
26 55
26 54
25 54
24 54
23 54
22 54
22 55
22 56
22 57
21 58
21 59
21 60
21 61
20 62
20 63
19 64
19 65
19 66
18 67
18 68
17 69
16 70
15 71
15 72
14 73
13 73
12 74
11 75
11 76
10 77
9 78
8 79
7 80
7 81
6 82
5 83
5 84
5 85
4 86
4 87
4 88
3 89
3 90
2 91
2 92
2 93
2 94
2 95
2 96
2 97
3 98
4 99
4 100
5 101
6 102
7 103
8 104
9 104
10 105
10 106
11 107
12 108
13 108
14 109
15 110
16 111
17 112
18 112
19 113
20 114
21 114
22 114
23 115
24 115
25 116
26 116
27 117
27 118
28 119
28 120
28 121
29 122
29 123
30 124
30 125
31 126
31 127
31 128
32 129
33 130
33 131
34 132
35 132
36 133
37 134
37 135
38 136
38 135
39 134
40 134
41 135
41 134
42 133
42 132
41 132
40 131
39 130
38 129
39 128
40 128
41 128
42 128
42 127
42 126
41 126
40 126
39 125
38 124
37 123
36 123
35 122
34 121
33 120
34 119
35 118
36 118
37 119
38 119
39 120
40 120
41 120
42 120
43 121
44 121
45 121
46 121
47 121
48 122
49 122
50 122
51 122
52 123
53 123
54 124
54 125
55 126
56 126
57 127
58 127
59 128
60 128
61 129
62 130
63 131
64 131
65 132
66 132
67 133
68 133
69 133
70 133
71 133
72 133
73 133
74 132
75 132
76 132
77 131
78 130
79 129
80 128
81 127
82 126
83 125
84 124
84 123
85 122
86 121
87 121
88 121
89 121
90 122
91 123
92 124
92 125
93 126
94 127
95 127
96 127
97 128
98 128
99 128
100 129
101 129
102 130
103 130
104 130
105 131
106 131
107 131
108 131
109 131
110 131
111 131
112 132
113 132
114 132
115 132
116 132
117 132
118 132
119 132
120 132
121 132
122 132
123 132
124 133
125 133
126 132
127 132
128 132
129 132
130 132
131 132
132 132
133 132
134 132
135 132
136 132
137 132
138 132
139 131
140 131
141 131
142 131
143 131
144 131
145 130
146 130
147 130
148 129
149 129
150 129
151 128
152 128
153 128
154 128
155 127
156 127
157 127
158 127
159 126
160 126
161 126
162 125
163 125
164 124
165 124
166 123
167 123
168 123
169 122
170 122
171 122
172 122
173 121
174 121
175 121
176 120
177 119
178 118
179 118
180 117
180 116
181 115
181 114
181 113
180 113
179 112
178 112
177 111
176 110
177 109
178 108
179 108
180 108
181 108
182 107
183 107
184 107
185 107
186 107
187 107
188 106
189 106
190 106
191 106
192 107
193 107
194 107
195 108
196 108
197 108
198 109
199 110
200 110
201 111
202 112
203 112
204 112
205 113
206 113
207 114
208 114
209 114
210 115
211 115
212 115
213 115
214 116
215 116
216 116
217 117
218 117
219 117
220 117
221 117
222 117
223 116
224 116
225 115
226 114
227 113
228 113
229 112
230 112
230 111
231 110
231 109
231 108
232 107
232 106
233 105
233 104
234 103
234 102
235 101
235 100
235 99
235 98
235 97
235 96
235 95
235 94
235 93
235 92
235 91
235 90
235 89
234 89
233 88
232 87
233 86
232 86
231 85
232 84
231 84
230 83
229 82
228 82
227 81
226 80
225 80
224 80
223 80
222 80
221 80
220 81
219 81
218 82
217 82
216 82
215 82
214 82
213 83
212 83
211 84
210 84
209 84
208 85
207 85
206 86
205 87
204 87
203 87
202 88
201 88
200 88
199 89
198 89
197 89
196 90
195 91
194 91
193 92
192 92
191 92
190 92
189 92
188 93
187 93
186 93
185 92
184 92
183 92
182 92
181 92
180 92
179 91
178 91
177 91
176 90
176 89
177 88
178 87
179 87
180 86
181 85
182 84
183 84
184 84
185 83
186 82
187 82
187 81
188 80
188 79
189 78
189 77
190 76
190 75
191 74
191 73
190 73
189 72
188 71
189 70
189 69
188 69
187 69
186 68
185 67
184 67
183 66
182 65
181 65
180 64
179 64
178 64
177 63
176 63
175 63
174 63
173 63
172 62
171 62
170 62
169 62
168 62
167 62
166 62
165 62
164 62
163 62
162 61
161 61
160 61
159 61
158 61
157 61
156 61
155 61
154 61
153 61
152 61
151 61
150 61
149 61
148 61
147 61
146 61
145 61
144 61
143 61
142 61
141 61
140 61
139 61
138 61
137 61
136 61
135 61
134 61
133 61
132 61
131 61
130 61
129 61
128 61
127 61
126 61
125 61
124 61
123 61
122 62
121 61
120 62
119 62
118 62
117 62
116 62
115 62
114 62
113 62
112 63
111 64
110 64
110 65
109 66
108 67
107 68
106 68
106 69
105 70
104 71
103 71
102 70
102 69
103 68
102 68
101 68
100 68
99 69
98 68
97 68
96 67
97 66
97 65
98 64
98 63
99 62
98 62
97 62
96 63
95 63
94 62
95 61
95 60
95 59
96 58
97 58
97 57
98 56
98 55
97 55
96 55
95 55
94 55
93 55
92 54
91 53
92 52
92 51
93 50
94 49
94 48
93 48
92 48
91 48
90 48
89 47
88 46
89 45
89 44
89 43
90 42
91 42
91 41
92 40
92 39
91 39
90 39
89 39
88 39
87 39
86 39
85 38
86 37
87 36
88 35
88 34
87 34
86 34
85 34
84 35
83 35
82 35
81 34
80 33
80 32
81 31
82 30
83 30
84 29
84 28
83 27
82 28
81 28
80 29
79 29
78 30
77 30
76 30
75 30
74 29
75 28
75 27
76 26
76 25
77 24
77 23
76 23
75 24
74 25
73 26
72 27
71 28
70 28
69 28
68 28
67 27
66 26
67 25
68 24
68 23
69 22
69 21
68 21
67 22
66 23
65 24
64 24
63 25
62 25
61 25
60 25
59 25
58 25
57 24
56 23
57 22
57 21
57 20
57 19
58 18
57 18
56 18
55 19
55 20
54 21
53 22
52 23
51 23
50 23
49 22
48 21
49 20
49 19
49 18
50 17
50 16
50 15
50 14
50 13
50 12
49 11
50 10
50 9
50 8
50 7
50 6
50 5
49 5
48 4
47 3
47 2
47 1
