48 2
47 3
46 3
45 4
44 4
43 4
42 4
41 4
40 4
39 4
38 4
38 5
37 6
36 7
36 8
35 9
35 10
34 11
34 12
34 13
33 14
33 15
32 16
32 17
31 18
30 19
29 19
28 19
27 19
27 20
27 21
26 22
25 21
24 22
23 22
22 21
23 20
22 20
21 20
21 21
20 22
19 22
18 21
17 21
17 22
17 23
16 24
15 24
15 25
14 26
13 25
12 25
11 25
11 26
10 27
9 27
8 28
8 29
9 30
9 31
9 32
8 33
8 34
7 35
7 36
6 37
6 38
5 39
5 40
5 41
4 42
3 43
3 44
3 45
2 46
2 47
2 48
2 49
2 50
2 51
2 52
2 53
3 54
3 55
3 56
4 57
5 57
6 58
7 59
8 59
9 60
10 60
11 61
12 62
13 62
14 63
15 63
16 63
17 63
18 64
19 64
20 64
21 64
22 65
23 65
24 65
25 66
24 67
23 67
22 68
21 68
21 69
20 70
19 71
19 72
19 73
19 74
20 73
21 72
22 73
23 74
23 73
24 72
24 71
25 70
25 69
26 68
27 67
28 66
29 66
30 66
31 67
32 67
33 67
34 67
35 67
36 67
37 68
37 69
38 70
38 71
38 72
39 73
40 74
40 75
41 76
41 77
42 78
43 79
44 80
45 81
46 81
46 80
47 79
48 79
49 80
50 81
51 82
52 82
53 83
54 83
55 83
56 84
57 83
57 82
56 81
55 81
54 81
53 80
52 79
51 78
50 77
49 77
48 76
47 76
46 75
47 74
46 74
45 73
44 72
43 71
42 70
43 69
42 69
41 68
42 67
43 67
44 67
45 67
46 67
47 67
48 67
49 67
50 67
51 67
52 68
53 68
54 68
55 69
56 69
57 69
58 69
59 70
60 70
61 70
62 70
63 70
64 70
65 69
66 69
67 68
68 68
69 68
70 68
71 68
72 68
73 68
74 68
75 68
76 68
77 68
78 68
79 68
80 68
81 68
82 68
83 68
84 68
85 68
86 67
87 67
88 67
89 66
90 66
91 67
92 68
93 68
94 69
95 70
96 70
97 71
98 71
99 71
100 72
101 72
102 72
103 72
104 72
105 72
106 72
107 73
108 73
109 74
110 74
111 75
112 76
113 76
114 76
115 76
116 76
117 76
118 76
119 76
120 76
121 76
122 75
123 75
124 75
125 74
126 74
127 74
128 73
129 73
130 73
131 73
132 72
133 72
134 72
135 72
136 71
137 71
138 71
139 71
140 70
141 70
142 70
143 69
144 69
145 69
146 68
147 68
148 68
149 68
150 68
151 67
152 67
153 67
154 67
155 66
156 66
157 66
158 66
159 66
160 65
161 65
162 65
163 65
164 64
165 64
166 64
167 64
168 64
169 63
170 63
171 63
172 63
173 62
174 62
175 61
176 60
177 60
178 59
178 58
179 57
180 56
181 56
182 56
183 57
184 57
185 57
186 58
187 58
188 59
189 59
190 59
191 60
192 60
193 61
194 62
195 62
196 62
197 63
198 63
199 63
200 63
201 64
202 64
203 64
204 64
205 64
206 65
207 65
208 65
209 66
210 66
211 66
212 66
213 66
214 66
215 66
216 66
217 65
218 65
219 64
220 64
220 63
221 62
222 61
222 60
223 59
223 58
224 57
224 56
224 55
225 54
225 53
225 52
225 51
225 50
225 49
225 48
225 47
225 46
225 45
225 44
225 43
225 42
225 41
225 40
225 39
225 38
224 38
223 37
224 36
224 35
223 35
222 34
223 33
222 33
221 32
222 31
221 31
220 30
221 29
220 29
219 29
218 28
217 28
216 28
215 28
214 28
213 28
212 28
211 29
210 29
209 29
208 30
207 30
206 31
205 31
204 32
203 32
202 32
201 33
200 33
199 33
198 33
197 34
196 34
195 34
194 35
193 35
192 36
191 37
190 37
189 37
188 37
187 38
186 38
185 38
184 38
183 38
182 37
182 36
183 35
183 34
183 33
183 32
182 32
181 31
180 30
179 29
178 28
177 28
176 27
175 27
174 27
173 26
172 25
171 24
170 24
169 24
168 23
167 23
166 23
165 23
164 22
163 22
162 22
161 22
160 21
159 21
158 20
157 20
156 19
155 19
154 19
153 19
152 19
151 19
150 18
149 18
148 18
147 18
146 18
145 17
144 17
143 17
142 17
141 17
140 17
139 16
138 16
137 16
136 16
135 15
134 15
133 15
132 15
131 15
130 15
129 15
128 15
127 15
126 15
125 15
124 15
123 15
122 15
121 15
120 16
119 17
118 17
117 17
116 18
115 17
114 16
113 15
114 14
113 14
112 13
111 13
110 12
109 12
108 11
107 11
106 10
105 10
104 10
103 9
102 9
101 9
100 9
99 9
98 8
97 8
96 8
95 8
94 8
93 8
92 8
91 8
90 7
89 7
88 7
87 7
86 7
85 7
84 7
83 7
82 7
81 7
80 6
79 6
78 6
77 6
76 6
75 5
74 5
73 5
72 5
71 4
70 4
69 4
68 4
67 4
66 4
65 4
64 3
63 3
62 3
61 3
60 3
59 2
58 2
57 2
56 2
55 2
54 2
53 2
52 2
51 2
50 2
49 2
