12 2
12 3
12 4
12 5
12 6
12 7
13 8
13 9
13 10
13 11
13 12
14 13
15 14
14 15
14 16
13 17
13 18
12 19
12 20
12 21
11 22
10 23
10 24
9 25
9 26
9 27
8 28
7 29
7 30
7 31
6 32
5 33
5 34
4 35
4 36
3 37
3 38
2 39
2 40
2 41
2 42
2 43
3 44
3 45
4 46
4 47
5 48
6 48
7 49
8 49
9 50
10 51
11 52
12 52
13 53
14 53
15 54
16 54
17 55
18 56
19 57
20 57
21 57
22 58
22 59
23 58
24 58
25 59
26 59
27 59
28 59
29 59
30 60
31 60
32 61
33 61
34 62
34 63
34 64
34 65
34 66
34 67
35 68
36 69
36 70
36 71
36 72
36 73
36 74
37 75
37 76
37 77
37 78
38 78
38 77
39 76
40 76
41 77
42 78
43 78
43 77
43 76
43 75
42 75
41 74
42 73
42 72
41 72
40 71
39 70
40 69
40 68
39 68
38 67
37 66
38 65
38 64
38 63
39 62
40 62
41 62
42 62
43 62
44 62
45 62
46 62
47 63
48 63
49 63
50 63
51 63
52 63
53 63
54 63
55 63
56 63
57 63
58 63
59 63
60 63
61 63
62 63
63 63
64 63
65 64
66 64
67 64
68 64
69 64
70 64
71 64
72 64
73 64
74 63
75 63
76 63
77 63
78 63
79 63
80 63
81 63
82 63
83 63
84 63
85 63
86 63
87 63
88 63
89 63
90 63
91 63
92 63
93 63
94 63
95 64
96 65
96 66
97 67
98 68
99 68
100 69
100 70
101 71
102 72
103 72
104 73
105 73
106 74
107 75
108 75
109 76
110 76
111 76
112 76
113 77
114 77
115 77
116 76
117 76
118 76
119 76
120 76
121 75
122 75
123 75
124 75
125 75
126 75
127 75
128 74
129 74
130 74
131 74
132 75
133 75
134 74
135 75
136 75
137 74
138 74
139 74
140 74
141 74
142 74
143 74
144 74
145 74
146 74
147 74
148 74
149 74
150 74
151 74
152 74
153 74
154 74
155 74
156 74
157 74
158 74
159 73
160 73
161 73
162 73
163 73
164 73
165 73
166 73
167 73
168 73
169 73
170 72
171 72
172 72
173 72
174 72
175 71
176 71
177 71
178 71
179 71
180 70
181 70
182 69
183 69
184 68
185 68
186 68
187 68
188 67
189 67
190 66
191 66
192 65
193 65
194 65
195 64
196 63
197 63
198 62
198 61
199 60
199 59
199 58
200 57
200 56
200 55
199 55
198 54
199 53
198 53
197 52
197 51
198 50
199 49
200 49
201 49
202 49
203 49
204 49
205 49
206 49
207 49
208 50
209 50
210 51
211 51
212 51
213 52
214 52
215 52
216 53
217 53
218 53
219 54
220 54
221 54
222 54
223 55
224 55
225 56
226 56
227 56
228 56
229 56
230 56
230 55
231 54
232 53
232 52
233 51
233 50
233 49
233 48
234 47
234 46
235 45
235 44
235 43
236 42
236 41
236 40
236 39
236 38
235 38
234 37
235 36
235 35
235 34
234 34
233 33
234 32
233 32
232 31
233 30
233 29
232 29
231 28
230 27
229 27
228 26
227 25
226 25
225 24
224 24
223 24
222 25
221 25
220 26
219 26
218 27
217 27
216 27
215 27
214 28
213 28
212 28
211 29
210 29
209 29
208 29
207 30
206 30
205 31
204 32
203 32
202 32
201 32
200 31
200 30
199 30
198 29
199 28
199 27
200 26
200 25
200 24
200 23
199 23
198 22
199 21
199 20
198 20
197 19
196 18
195 17
194 17
193 16
192 15
191 14
190 14
189 13
188 13
187 13
186 12
185 12
184 12
183 12
182 11
181 10
180 10
179 10
178 9
177 9
176 9
175 9
174 9
173 9
172 9
171 8
170 8
169 8
168 8
167 8
166 8
165 8
164 8
163 7
162 7
161 7
160 7
159 7
158 7
157 7
156 7
155 7
154 7
153 7
152 7
151 7
150 7
149 7
148 7
147 6
146 7
145 7
144 7
143 7
142 7
141 7
140 7
139 7
138 7
137 7
136 7
135 7
134 7
133 7
132 8
131 8
130 8
129 8
128 8
127 8
126 8
125 8
124 8
123 8
122 8
121 8
120 8
119 8
118 8
117 8
116 8
115 8
114 8
113 8
112 8
111 8
110 8
109 8
108 8
107 8
106 8
105 8
104 8
103 8
102 8
101 8
100 8
99 8
98 8
97 8
96 8
95 8
94 8
93 8
92 8
91 8
90 8
89 8
88 8
87 8
86 8
85 7
84 8
83 8
82 7
81 7
80 7
79 7
78 7
77 7
76 7
75 7
74 6
73 6
72 6
71 6
70 5
69 5
68 5
67 4
66 4
65 4
64 4
63 4
62 4
61 4
60 3
59 3
58 4
57 4
56 4
55 4
55 5
54 6
53 7
52 8
51 9
50 9
50 10
49 11
48 12
47 13
46 13
45 14
44 14
43 14
42 14
41 13
40 13
39 13
38 13
37 13
36 12
35 12
34 12
33 12
32 12
31 12
30 12
29 12
28 12
27 11
26 12
25 12
24 12
23 12
22 12
21 12
20 11
21 10
21 9
21 8
20 8
19 9
18 8
18 7
17 7
16 7
15 6
15 5
15 4
14 4
13 3
14 2
13 2
