61 2
60 3
59 3
58 3
57 3
56 3
55 3
54 3
53 3
52 3
51 4
50 4
49 5
48 5
47 6
46 7
45 7
44 8
43 9
43 10
42 11
41 12
41 13
40 14
40 15
39 16
39 17
39 18
38 19
37 20
36 20
35 20
34 21
33 21
32 21
31 21
30 21
29 21
28 21
27 22
26 22
25 22
24 22
23 23
22 23
21 23
20 24
19 25
18 26
17 26
16 26
15 27
14 27
13 28
12 29
12 30
11 31
10 31
9 32
8 33
7 34
7 35
6 36
5 37
4 38
4 39
4 40
3 41
2 42
2 43
2 44
2 45
2 46
2 47
2 48
2 49
2 50
3 51
4 52
5 52
6 53
7 53
8 54
8 55
9 56
9 57
8 58
7 57
6 57
5 57
4 57
3 57
3 58
2 59
2 60
2 61
3 62
4 62
5 63
6 63
7 64
8 65
9 66
10 66
11 67
12 67
13 68
14 68
15 69
16 69
17 69
18 70
19 70
20 70
21 71
22 71
23 71
24 71
25 72
26 72
27 72
28 72
29 72
30 73
31 73
32 74
33 74
34 75
35 75
36 75
37 76
38 76
39 77
39 78
40 79
40 80
41 81
42 82
43 83
43 84
43 85
44 86
45 87
46 87
47 88
47 89
48 90
49 91
50 91
51 92
52 92
53 93
54 92
54 91
53 90
54 89
54 88
53 87
53 86
53 85
52 84
51 83
52 82
51 82
50 82
49 81
48 81
47 80
48 79
47 79
46 78
47 77
48 77
49 77
50 77
51 77
52 77
53 77
54 77
55 77
56 77
57 77
58 77
59 77
60 77
61 77
62 77
63 77
64 77
65 77
66 77
67 77
68 77
69 77
70 77
71 77
72 77
73 77
74 77
75 77
76 77
77 76
78 76
79 76
80 76
81 76
82 76
83 75
84 75
85 75
86 75
87 74
88 74
89 73
90 73
91 72
92 72
93 72
94 71
95 71
96 71
97 72
98 73
98 74
99 75
100 76
101 76
102 76
103 76
104 76
105 77
106 77
107 76
108 77
109 78
109 77
110 76
111 76
112 77
113 77
114 78
114 79
115 80
116 80
117 80
118 80
119 80
120 80
121 81
122 81
123 81
124 81
125 81
126 81
127 81
128 81
129 81
130 81
131 81
132 81
133 81
134 82
135 82
136 82
137 82
138 82
139 82
140 82
141 82
142 82
143 82
144 82
145 82
146 82
147 82
148 82
149 82
150 82
151 82
152 82
153 82
154 82
155 82
156 81
157 81
158 81
159 81
160 81
161 81
162 81
163 81
164 80
165 80
166 80
167 80
168 80
169 80
170 80
171 80
172 79
173 79
174 79
175 78
176 78
177 77
178 77
179 77
180 77
181 77
182 76
183 76
184 76
185 76
186 75
187 75
188 75
189 75
190 74
191 74
192 73
193 72
194 72
195 72
196 71
197 70
198 70
199 69
200 68
200 67
201 66
201 65
201 64
201 63
200 63
199 62
200 61
201 61
202 61
203 61
204 62
205 62
206 62
207 62
208 63
209 63
210 63
211 64
212 64
213 65
214 66
215 66
216 66
217 66
218 67
219 67
220 67
221 68
222 68
223 68
224 69
225 69
226 69
227 70
228 70
229 70
230 70
231 71
232 71
233 71
234 71
235 70
236 70
237 69
238 68
238 67
239 66
240 65
240 64
241 63
241 62
241 61
242 60
242 59
242 58
242 57
243 56
243 55
243 54
243 53
243 52
243 51
243 50
243 49
243 48
243 47
243 46
242 46
241 45
240 44
241 43
240 43
239 42
238 41
239 40
238 40
237 39
236 38
235 38
234 37
233 37
232 37
231 36
230 36
229 37
228 37
227 37
226 37
225 37
224 37
223 38
222 38
221 38
220 39
219 39
218 40
217 40
216 41
215 41
214 41
213 42
212 42
211 42
210 42
209 43
208 43
207 43
206 43
205 44
204 44
203 45
202 45
201 45
200 46
199 46
198 46
197 46
196 45
197 44
197 43
198 42
199 41
200 41
200 40
201 39
201 38
202 37
202 36
203 35
203 34
203 33
203 32
203 31
202 31
201 30
202 29
202 28
201 28
200 28
199 27
198 27
197 26
196 26
195 26
194 25
193 25
192 24
191 23
190 23
189 23
188 23
187 22
186 22
185 22
184 22
183 22
182 21
181 21
180 21
179 21
178 21
177 21
176 21
175 20
174 20
173 20
172 20
171 19
170 19
169 19
168 19
167 18
166 18
165 18
164 18
163 18
162 18
161 18
160 18
159 18
158 18
157 18
156 18
155 18
154 18
153 18
152 18
151 18
150 18
149 18
148 18
147 18
146 18
145 18
144 18
143 18
142 18
141 18
140 18
139 18
138 18
137 18
136 18
135 18
134 18
133 18
132 18
131 18
130 18
129 18
128 18
127 18
126 18
125 19
124 19
123 19
122 19
121 19
120 19
119 19
118 19
117 19
116 19
115 19
114 19
113 18
112 18
111 18
110 17
109 16
108 16
107 15
106 14
107 13
106 13
105 13
104 12
103 12
102 12
101 11
100 11
99 10
98 10
97 9
96 8
95 8
94 8
93 8
92 7
91 7
90 7
89 7
88 6
87 6
86 6
85 6
84 6
83 6
82 5
81 5
80 5
79 4
78 4
77 4
76 3
75 3
74 3
73 3
72 3
71 3
70 3
69 3
68 3
67 3
66 3
65 2
64 2
63 2
62 2
